<?xml version="1.0" encoding="UTF-8" standalone="no"?>
<!-- Created with Inkscape (http://www.inkscape.org/) -->

<svg
   xmlns:dc="http://purl.org/dc/elements/1.1/"
   xmlns:cc="http://creativecommons.org/ns#"
   xmlns:rdf="http://www.w3.org/1999/02/22-rdf-syntax-ns#"
   xmlns:svg="http://www.w3.org/2000/svg"
   xmlns="http://www.w3.org/2000/svg"
   xmlns:sodipodi="http://sodipodi.sourceforge.net/DTD/sodipodi-0.dtd"
   xmlns:inkscape="http://www.inkscape.org/namespaces/inkscape"
   width="600"
   height="600"
   id="svg2"
   version="1.1"
   inkscape:version="0.48.4 r9939"
   sodipodi:docname="3.24 30.svg">
  <title
     id="title3002">3.24 Ограничение максимальной скорости </title>
  <defs
     id="defs4" />
  <sodipodi:namedview
     id="base"
     pagecolor="#ffffff"
     bordercolor="#666666"
     borderopacity="1.0"
     inkscape:pageopacity="0.0"
     inkscape:pageshadow="2"
     inkscape:zoom="1"
     inkscape:cx="338.14028"
     inkscape:cy="319.98577"
     inkscape:document-units="px"
     inkscape:current-layer="layer1"
     showgrid="false"
     inkscape:window-width="1920"
     inkscape:window-height="1024"
     inkscape:window-x="-4"
     inkscape:window-y="-4"
     inkscape:window-maximized="1" />
  <metadata
     id="metadata7">
    <rdf:RDF>
      <cc:Work
         rdf:about="">
        <dc:format>image/svg+xml</dc:format>
        <dc:type
           rdf:resource="http://purl.org/dc/dcmitype/StillImage" />
        <dc:title>3.24 Ограничение максимальной скорости </dc:title>
        <cc:license
           rdf:resource="http://creativecommons.org/licenses/by-sa/3.0/" />
        <dc:description>ГОСТ Р 52290-2004
Размеры и пропорции по типоразмеру I</dc:description>
      </cc:Work>
      <cc:License
         rdf:about="http://creativecommons.org/licenses/by-sa/3.0/">
        <cc:permits
           rdf:resource="http://creativecommons.org/ns#Reproduction" />
        <cc:permits
           rdf:resource="http://creativecommons.org/ns#Distribution" />
        <cc:requires
           rdf:resource="http://creativecommons.org/ns#Notice" />
        <cc:requires
           rdf:resource="http://creativecommons.org/ns#Attribution" />
        <cc:permits
           rdf:resource="http://creativecommons.org/ns#DerivativeWorks" />
        <cc:requires
           rdf:resource="http://creativecommons.org/ns#ShareAlike" />
      </cc:License>
    </rdf:RDF>
  </metadata>
  <g
     inkscape:label="Layer 1"
     inkscape:groupmode="layer"
     id="layer1"
     transform="translate(0,-452.36218)">
    <path
       sodipodi:type="arc"
       style="opacity:1;color:#000000;fill:#ffffff;fill-opacity:1;fill-rule:nonzero;stroke:none;stroke-width:1px;marker:none;visibility:visible;display:inline;overflow:visible;enable-background:accumulate"
       id="path5334"
       sodipodi:cx="-87.720657"
       sodipodi:cy="432.25998"
       sodipodi:rx="22.107042"
       sodipodi:ry="29.465372"
       d="m -65.613615,432.25998 c 0,16.27327 -9.89766,29.46537 -22.107042,29.46537 -12.209383,0 -22.107043,-13.1921 -22.107043,-29.46537 0,-16.27328 9.89766,-29.46537 22.107043,-29.46537 12.209382,0 22.107042,13.19209 22.107042,29.46537 z"
       transform="matrix(13.570336,0,0,10.181443,1490.3988,-3648.6681)" />
    <path
       transform="matrix(13.525102,0,0,10.147505,1486.4308,-3633.998)"
       d="m -65.613615,432.25998 c 0,16.27327 -9.89766,29.46537 -22.107042,29.46537 -12.209383,0 -22.107043,-13.1921 -22.107043,-29.46537 0,-16.27328 9.89766,-29.46537 22.107043,-29.46537 12.209382,0 22.107042,13.19209 22.107042,29.46537 z"
       sodipodi:ry="29.465372"
       sodipodi:rx="22.107042"
       sodipodi:cy="432.25998"
       sodipodi:cx="-87.720657"
       id="path3003"
       style="color:#000000;fill:none;stroke:#000000;stroke-width:0.17071831000000001;stroke-miterlimit:4;stroke-opacity:1;stroke-dasharray:none;marker:none;visibility:visible;display:inline;overflow:visible;enable-background:accumulate;opacity:1"
       sodipodi:type="arc" />
    <path
       style="opacity:1;color:#000000;fill:#ff0000;fill-opacity:1;fill-rule:nonzero;stroke:none;stroke-width:1px;marker:none;visibility:visible;display:inline;overflow:visible;enable-background:accumulate"
       d="M 300 10 C 139.83742 10 10 139.83742 10 300 C 10 460.16258 139.83742 590 300 590 C 460.16258 590 590 460.16258 590 300 C 590 139.83742 460.16258 10 300 10 z M 300 59.03125 C 433.0828 59.03125 540.96875 166.91719 540.96875 300 C 540.96875 433.08281 433.0828 540.96875 300 540.96875 C 166.9172 540.96875 59.03125 433.08281 59.03125 300 C 59.03125 166.91719 166.9172 59.03125 300 59.03125 z "
       transform="translate(0,452.36218)"
       id="path4775-9" />
    <g
       style="font-size:380.18783569px;font-style:normal;font-variant:normal;font-weight:normal;font-stretch:normal;line-height:125%;letter-spacing:-21.29032135px;word-spacing:0px;fill:#000000;fill-opacity:1;stroke:none;font-family:Arial;-inkscape-font-specification:Arial"
       id="text9499">
      <path
         d="m 147.4921,659.21755 14.06677,31.55519 c 7.2868,-6.41542 14.38354,-11.07266 21.29024,-13.97173 6.90659,-2.89871 15.52406,-4.32439 25.85244,-4.27705 6.93033,0.16652 13.02909,2.49513 18.2963,6.98586 5.26701,4.49108 8.03918,10.1463 8.31651,16.96566 -0.33277,8.31665 -4.99001,16.30049 -13.97173,23.95153 -8.98191,7.65132 -20.29234,12.97387 -33.93132,15.96768 l 0,29.27409 c 2.70081,-1.27511 5.66306,-2.05131 8.88677,-2.32863 3.22356,-0.27711 6.47096,-0.388 9.74219,-0.33265 16.70419,0.72878 27.30177,4.78406 31.79279,12.16585 4.49079,7.38196 6.43923,13.71834 5.84532,19.00915 -0.5704,12.28471 -5.22763,21.26652 -13.97172,26.94546 -8.7443,5.67902 -19.29437,8.48287 -31.65023,8.41155 -9.07694,0.0555 -18.5815,-0.81578 -28.51372,-2.61375 -9.93231,-1.79792 -18.29633,-4.85522 -25.09208,-9.17192 l 4.5622,37.25793 c 0.93459,0.38019 7.33433,1.90092 19.19923,4.56219 11.86482,2.66128 23.58712,4.18201 35.16693,4.5622 25.38503,-0.8871 44.7585,-8.42739 58.12046,-22.62089 13.3617,-14.19347 20.0941,-29.71759 20.19723,-46.57241 -0.39207,-11.49929 -3.87473,-21.02732 -10.44799,-28.58413 -6.57356,-7.55662 -13.8862,-13.33915 -21.93797,-17.34761 -8.05202,-4.00823 -14.49165,-6.43952 -19.31892,-7.29387 11.08855,-1.5523 20.84657,-7.09663 29.27408,-16.63301 8.42724,-9.53611 12.86271,-21.73363 13.30641,-36.5926 -0.71299,-14.81903 -6.89096,-26.52549 -18.53392,-35.11941 -11.64323,-8.5935 -24.47439,-12.98144 -38.49353,-13.16382 -11.31844,0.29328 -23.65853,2.46348 -37.02031,6.51063 -13.36189,4.04758 -23.70602,8.21374 -31.03243,12.49851 z"
         style="fill:#000000;font-family:Russian Road Sign;-inkscape-font-specification:Russian Road Sign"
         id="path12089" />
      <path
         d="m 383.69494,643.24987 c -21.62298,0.55465 -38.92129,10.75621 -51.89498,30.60472 -12.97377,19.84888 -19.62696,46.01812 -19.95959,78.50779 0.33263,32.48987 6.98582,58.6591 19.95959,78.50777 12.97369,19.84872 30.272,30.05029 51.89498,30.60473 21.62278,-0.55443 38.92109,-10.756 51.89497,-30.60473 12.97358,-19.84868 19.62678,-46.01791 19.95961,-78.50777 -0.33283,-30.9927 -6.98603,-56.73423 -19.95961,-77.22467 -12.97388,-20.49007 -30.27219,-31.11934 -51.89497,-31.88784 z m 0,33.07592 c 10.42324,-0.15823 18.75558,5.86133 24.99703,18.05868 6.24121,12.19768 9.44108,31.52363 9.59962,57.97791 -0.15855,26.45447 -3.35842,45.78042 -9.59963,57.97789 -6.24145,12.19756 -14.57378,18.21712 -24.99702,18.05869 -10.42344,0.15844 -18.75578,-5.86112 -24.99703,-18.05869 -6.2414,-12.19748 -9.44127,-31.52342 -9.59962,-57.97789 0.15835,-26.45427 3.35822,-45.78022 9.59962,-57.97791 6.24126,-12.19736 14.5736,-18.21692 24.99703,-18.05868 z"
         style="fill:#000000;font-family:Russian Road Sign;-inkscape-font-specification:Russian Road Sign"
         id="path12091" />
    </g>
  </g>
</svg>
