<?xml version="1.0" encoding="UTF-8" standalone="no"?>
<!-- Created with Inkscape (http://www.inkscape.org/) -->

<svg
   xmlns:dc="http://purl.org/dc/elements/1.1/"
   xmlns:cc="http://creativecommons.org/ns#"
   xmlns:rdf="http://www.w3.org/1999/02/22-rdf-syntax-ns#"
   xmlns:svg="http://www.w3.org/2000/svg"
   xmlns="http://www.w3.org/2000/svg"
   xmlns:sodipodi="http://sodipodi.sourceforge.net/DTD/sodipodi-0.dtd"
   xmlns:inkscape="http://www.inkscape.org/namespaces/inkscape"
   width="600"
   height="600"
   id="svg2"
   version="1.1"
   inkscape:version="0.48.4 r9939"
   sodipodi:docname="3.24 90.svg">
  <title
     id="title3002">3.24 Ограничение максимальной скорости </title>
  <defs
     id="defs4" />
  <sodipodi:namedview
     id="base"
     pagecolor="#ffffff"
     bordercolor="#666666"
     borderopacity="1.0"
     inkscape:pageopacity="0.0"
     inkscape:pageshadow="2"
     inkscape:zoom="1"
     inkscape:cx="338.14028"
     inkscape:cy="319.98577"
     inkscape:document-units="px"
     inkscape:current-layer="layer1"
     showgrid="false"
     inkscape:window-width="1920"
     inkscape:window-height="1024"
     inkscape:window-x="-4"
     inkscape:window-y="-4"
     inkscape:window-maximized="1" />
  <metadata
     id="metadata7">
    <rdf:RDF>
      <cc:Work
         rdf:about="">
        <dc:format>image/svg+xml</dc:format>
        <dc:type
           rdf:resource="http://purl.org/dc/dcmitype/StillImage" />
        <dc:title>3.24 Ограничение максимальной скорости </dc:title>
        <cc:license
           rdf:resource="http://creativecommons.org/licenses/by-sa/3.0/" />
        <dc:description>ГОСТ Р 52290-2004
Размеры и пропорции по типоразмеру I</dc:description>
      </cc:Work>
      <cc:License
         rdf:about="http://creativecommons.org/licenses/by-sa/3.0/">
        <cc:permits
           rdf:resource="http://creativecommons.org/ns#Reproduction" />
        <cc:permits
           rdf:resource="http://creativecommons.org/ns#Distribution" />
        <cc:requires
           rdf:resource="http://creativecommons.org/ns#Notice" />
        <cc:requires
           rdf:resource="http://creativecommons.org/ns#Attribution" />
        <cc:permits
           rdf:resource="http://creativecommons.org/ns#DerivativeWorks" />
        <cc:requires
           rdf:resource="http://creativecommons.org/ns#ShareAlike" />
      </cc:License>
    </rdf:RDF>
  </metadata>
  <g
     inkscape:label="Layer 1"
     inkscape:groupmode="layer"
     id="layer1"
     transform="translate(0,-452.36218)">
    <path
       sodipodi:type="arc"
       style="opacity:1;color:#000000;fill:#ffffff;fill-opacity:1;fill-rule:nonzero;stroke:none;stroke-width:1px;marker:none;visibility:visible;display:inline;overflow:visible;enable-background:accumulate"
       id="path5334"
       sodipodi:cx="-87.720657"
       sodipodi:cy="432.25998"
       sodipodi:rx="22.107042"
       sodipodi:ry="29.465372"
       d="m -65.613615,432.25998 c 0,16.27327 -9.89766,29.46537 -22.107042,29.46537 -12.209383,0 -22.107043,-13.1921 -22.107043,-29.46537 0,-16.27328 9.89766,-29.46537 22.107043,-29.46537 12.209382,0 22.107042,13.19209 22.107042,29.46537 z"
       transform="matrix(13.570336,0,0,10.181443,1490.3988,-3648.6681)" />
    <path
       transform="matrix(13.525102,0,0,10.147505,1486.4308,-3633.998)"
       d="m -65.613615,432.25998 c 0,16.27327 -9.89766,29.46537 -22.107042,29.46537 -12.209383,0 -22.107043,-13.1921 -22.107043,-29.46537 0,-16.27328 9.89766,-29.46537 22.107043,-29.46537 12.209382,0 22.107042,13.19209 22.107042,29.46537 z"
       sodipodi:ry="29.465372"
       sodipodi:rx="22.107042"
       sodipodi:cy="432.25998"
       sodipodi:cx="-87.720657"
       id="path3003"
       style="color:#000000;fill:none;stroke:#000000;stroke-width:0.17071831000000001;stroke-miterlimit:4;stroke-opacity:1;stroke-dasharray:none;marker:none;visibility:visible;display:inline;overflow:visible;enable-background:accumulate;opacity:1"
       sodipodi:type="arc" />
    <path
       style="opacity:1;color:#000000;fill:#ff0000;fill-opacity:1;fill-rule:nonzero;stroke:none;stroke-width:1px;marker:none;visibility:visible;display:inline;overflow:visible;enable-background:accumulate"
       d="M 300 10 C 139.83742 10 10 139.83742 10 300 C 10 460.16258 139.83742 590 300 590 C 460.16258 590 590 460.16258 590 300 C 590 139.83742 460.16258 10 300 10 z M 300 59.03125 C 433.0828 59.03125 540.96875 166.91719 540.96875 300 C 540.96875 433.08281 433.0828 540.96875 300 540.96875 C 166.9172 540.96875 59.03125 433.08281 59.03125 300 C 59.03125 166.91719 166.9172 59.03125 300 59.03125 z "
       transform="translate(0,452.36218)"
       id="path4775-9" />
    <g
       style="font-size:380.18783569px;font-style:normal;font-variant:normal;font-weight:normal;font-stretch:normal;line-height:125%;letter-spacing:-21.29032135px;word-spacing:0px;fill:#000000;fill-opacity:1;stroke:none;font-family:Arial;-inkscape-font-specification:Arial"
       id="text9499">
      <path
         d="m 198.88802,862.61543 c 30.3274,-1.04551 52.17205,-13.21135 65.53403,-36.49756 13.36169,-23.28616 19.904,-51.41966 19.62695,-84.40062 -0.38826,-33.30546 -7.59589,-58.41335 -21.6229,-75.32375 -14.0273,-16.91 -32.54536,-25.3849 -55.55423,-25.42473 -17.79739,0.6497 -32.76708,8.57017 -44.90912,23.76143 -12.14212,15.19165 -18.46266,33.75724 -18.96162,55.69681 1.21973,24.67239 8.0947,41.19449 20.62493,49.56634 12.53013,8.37203 23.39702,12.25306 32.60068,11.64311 9.42528,-0.2217 18.51798,-2.43943 27.27813,-6.65321 8.75994,-4.2136 16.522,-9.09261 23.2862,-14.63703 0.26272,0.86841 -0.55866,6.94663 -2.46414,18.23469 -1.90574,11.28821 -6.47262,22.57635 -13.70067,33.86444 -7.22828,11.28819 -18.69477,17.36642 -34.39952,18.23471 -12.42729,-0.52272 -23.21498,-2.61373 -32.36307,-6.27302 -9.14819,-3.65923 -13.94799,-5.75023 -14.39943,-6.27302 l 4.18201,32.69574 c 0.5544,0.49107 5.43341,2.45535 14.63704,5.89283 9.20354,3.43748 19.4051,5.40176 30.60473,5.89284 z m 5.32257,-112.91434 c -5.7662,1.1e-4 -11.5323,-2.66116 -17.29833,-7.98384 -5.76617,-5.32244 -8.871,-13.30627 -9.31448,-23.95152 -0.0317,-9.90045 2.78795,-19.27828 8.45907,-28.13354 5.67099,-8.85492 14.3835,-13.67056 26.13758,-14.44695 8.40381,0.27241 14.95609,3.57201 19.65686,9.89883 4.70055,6.32716 8.07056,13.28778 10.11005,20.8819 2.03925,7.59442 3.26898,13.42858 3.68919,17.5025 -0.0635,1.09316 -3.64355,5.46525 -10.74018,13.11631 -7.09686,7.65129 -17.3301,12.0234 -30.69976,13.11631 z"
         style="fill:#000000;font-family:Russian Road Sign;-inkscape-font-specification:Russian Road Sign"
         id="path11930" />
      <path
         d="m 385.1444,643.24987 c -21.62298,0.55465 -38.92129,10.75621 -51.89497,30.60472 -12.97378,19.84888 -19.62697,46.01812 -19.9596,78.50779 0.33263,32.48987 6.98582,58.6591 19.9596,78.50777 12.97368,19.84872 30.27199,30.05029 51.89497,30.60473 21.62279,-0.55443 38.92109,-10.756 51.89497,-30.60473 12.97358,-19.84868 19.62678,-46.01791 19.95961,-78.50777 -0.33283,-30.9927 -6.98603,-56.73423 -19.95961,-77.22467 -12.97388,-20.49007 -30.27218,-31.11934 -51.89497,-31.88784 z m 0,33.07592 c 10.42324,-0.15823 18.75558,5.86133 24.99703,18.05868 6.24121,12.19768 9.44108,31.52363 9.59962,57.97791 -0.15854,26.45447 -3.35842,45.78042 -9.59962,57.97789 -6.24145,12.19756 -14.57379,18.21712 -24.99703,18.05869 -10.42344,0.15844 -18.75577,-5.86112 -24.99703,-18.05869 -6.2414,-12.19748 -9.44127,-31.52342 -9.59961,-57.97789 0.15834,-26.45427 3.35821,-45.78022 9.59962,-57.97791 6.24126,-12.19736 14.57359,-18.21692 24.99702,-18.05868 z"
         style="fill:#000000;font-family:Russian Road Sign;-inkscape-font-specification:Russian Road Sign"
         id="path11932" />
    </g>
  </g>
</svg>
