<?xml version="1.0" encoding="UTF-8" standalone="no"?>
<!-- Created with Inkscape (http://www.inkscape.org/) -->

<svg
   xmlns:dc="http://purl.org/dc/elements/1.1/"
   xmlns:cc="http://creativecommons.org/ns#"
   xmlns:rdf="http://www.w3.org/1999/02/22-rdf-syntax-ns#"
   xmlns:svg="http://www.w3.org/2000/svg"
   xmlns="http://www.w3.org/2000/svg"
   xmlns:sodipodi="http://sodipodi.sourceforge.net/DTD/sodipodi-0.dtd"
   xmlns:inkscape="http://www.inkscape.org/namespaces/inkscape"
   width="600"
   height="600"
   id="svg2"
   version="1.1"
   inkscape:version="0.48.4 r9939"
   sodipodi:docname="3.24 80.svg">
  <title
     id="title3002">3.24 Ограничение максимальной скорости </title>
  <defs
     id="defs4" />
  <sodipodi:namedview
     id="base"
     pagecolor="#ffffff"
     bordercolor="#666666"
     borderopacity="1.0"
     inkscape:pageopacity="0.0"
     inkscape:pageshadow="2"
     inkscape:zoom="1"
     inkscape:cx="338.14028"
     inkscape:cy="319.98577"
     inkscape:document-units="px"
     inkscape:current-layer="layer1"
     showgrid="false"
     inkscape:window-width="1920"
     inkscape:window-height="1024"
     inkscape:window-x="-4"
     inkscape:window-y="-4"
     inkscape:window-maximized="1" />
  <metadata
     id="metadata7">
    <rdf:RDF>
      <cc:Work
         rdf:about="">
        <dc:format>image/svg+xml</dc:format>
        <dc:type
           rdf:resource="http://purl.org/dc/dcmitype/StillImage" />
        <dc:title>3.24 Ограничение максимальной скорости </dc:title>
        <cc:license
           rdf:resource="http://creativecommons.org/licenses/by-sa/3.0/" />
        <dc:description>ГОСТ Р 52290-2004
Размеры и пропорции по типоразмеру I</dc:description>
      </cc:Work>
      <cc:License
         rdf:about="http://creativecommons.org/licenses/by-sa/3.0/">
        <cc:permits
           rdf:resource="http://creativecommons.org/ns#Reproduction" />
        <cc:permits
           rdf:resource="http://creativecommons.org/ns#Distribution" />
        <cc:requires
           rdf:resource="http://creativecommons.org/ns#Notice" />
        <cc:requires
           rdf:resource="http://creativecommons.org/ns#Attribution" />
        <cc:permits
           rdf:resource="http://creativecommons.org/ns#DerivativeWorks" />
        <cc:requires
           rdf:resource="http://creativecommons.org/ns#ShareAlike" />
      </cc:License>
    </rdf:RDF>
  </metadata>
  <g
     inkscape:label="Layer 1"
     inkscape:groupmode="layer"
     id="layer1"
     transform="translate(0,-452.36218)">
    <path
       sodipodi:type="arc"
       style="opacity:1;color:#000000;fill:#ffffff;fill-opacity:1;fill-rule:nonzero;stroke:none;stroke-width:1px;marker:none;visibility:visible;display:inline;overflow:visible;enable-background:accumulate"
       id="path5334"
       sodipodi:cx="-87.720657"
       sodipodi:cy="432.25998"
       sodipodi:rx="22.107042"
       sodipodi:ry="29.465372"
       d="m -65.613615,432.25998 c 0,16.27327 -9.89766,29.46537 -22.107042,29.46537 -12.209383,0 -22.107043,-13.1921 -22.107043,-29.46537 0,-16.27328 9.89766,-29.46537 22.107043,-29.46537 12.209382,0 22.107042,13.19209 22.107042,29.46537 z"
       transform="matrix(13.570336,0,0,10.181443,1490.3988,-3648.6681)" />
    <path
       transform="matrix(13.525102,0,0,10.147505,1486.4308,-3633.998)"
       d="m -65.613615,432.25998 c 0,16.27327 -9.89766,29.46537 -22.107042,29.46537 -12.209383,0 -22.107043,-13.1921 -22.107043,-29.46537 0,-16.27328 9.89766,-29.46537 22.107043,-29.46537 12.209382,0 22.107042,13.19209 22.107042,29.46537 z"
       sodipodi:ry="29.465372"
       sodipodi:rx="22.107042"
       sodipodi:cy="432.25998"
       sodipodi:cx="-87.720657"
       id="path3003"
       style="color:#000000;fill:none;stroke:#000000;stroke-width:0.17071831000000001;stroke-miterlimit:4;stroke-opacity:1;stroke-dasharray:none;marker:none;visibility:visible;display:inline;overflow:visible;enable-background:accumulate;opacity:1"
       sodipodi:type="arc" />
    <path
       style="opacity:1;color:#000000;fill:#ff0000;fill-opacity:1;fill-rule:nonzero;stroke:none;stroke-width:1px;marker:none;visibility:visible;display:inline;overflow:visible;enable-background:accumulate"
       d="M 300 10 C 139.83742 10 10 139.83742 10 300 C 10 460.16258 139.83742 590 300 590 C 460.16258 590 590 460.16258 590 300 C 590 139.83742 460.16258 10 300 10 z M 300 59.03125 C 433.0828 59.03125 540.96875 166.91719 540.96875 300 C 540.96875 433.08281 433.0828 540.96875 300 540.96875 C 166.9172 540.96875 59.03125 433.08281 59.03125 300 C 59.03125 166.91719 166.9172 59.03125 300 59.03125 z "
       transform="translate(0,452.36218)"
       id="path4775-9" />
    <g
       style="font-size:380.18783569px;font-style:normal;font-variant:normal;font-weight:normal;font-stretch:normal;line-height:125%;letter-spacing:-21.29032135px;word-spacing:0px;fill:#000000;fill-opacity:1;stroke:none;font-family:Arial;-inkscape-font-specification:Arial"
       id="text9499">
      <path
         d="m 215.1052,643.24987 c -17.90828,2.2e-4 -33.32152,4.65746 -46.23975,13.97173 -12.91834,9.31467 -19.68242,23.28638 -20.29226,41.91516 0.45995,12.32089 3.67977,21.98035 9.65947,28.97839 5.97962,6.99831 11.95927,11.9266 17.93899,14.78489 5.9796,2.85852 9.19942,4.23845 9.65947,4.13977 -0.52576,-0.0327 -4.20555,1.80716 -11.0394,5.51969 -6.83395,3.71275 -13.66785,9.49528 -20.50171,17.3476 -6.83394,7.85251 -10.51372,17.97194 -11.03938,30.35833 -0.33268,14.19354 4.98987,27.7217 15.96768,40.58452 10.97773,12.86287 29.60667,19.73783 55.88689,20.62493 26.28003,-0.8871 44.90898,-7.76207 55.8869,-20.62493 10.97761,-12.86283 16.30017,-26.39099 15.96768,-40.58452 -0.52586,-12.38639 -4.20565,-22.50582 -11.0394,-30.35832 -6.83405,-7.85232 -13.66795,-13.63485 -20.50171,-17.34761 -6.83403,-3.71254 -10.51382,-5.55243 -11.03938,-5.51969 0.45985,0.0987 3.67967,-1.28124 9.65947,-4.13977 5.97952,-2.8583 11.95918,-7.78659 17.93899,-14.78489 5.97951,-6.99805 9.19933,-16.6575 9.65947,-28.97839 -0.61004,-18.62879 -7.37412,-32.6005 -20.29227,-41.91518 -12.91843,-9.31427 -28.33167,-13.9715 -46.23975,-13.97171 z m 0,30.41464 c 8.20551,-0.10278 15.08048,1.81397 20.62492,5.75027 5.54422,3.93665 8.42727,10.51064 8.64917,19.72198 -1.21988,8.31666 -6.09889,15.63517 -14.63705,21.95557 -8.53838,6.32067 -13.41738,9.64727 -14.63704,9.9798 -1.21985,-0.33253 -6.09886,-3.65913 -14.63704,-9.97981 -8.53835,-6.3204 -13.41736,-13.63891 -14.63704,-21.95556 0.22171,-9.21134 3.10476,-15.78533 8.64917,-19.72199 5.54425,-3.9363 12.41922,-5.85305 20.62491,-5.75026 z m 0,89.34299 c 0.42703,0.0987 3.41686,1.97141 8.96951,5.61826 5.55243,3.64703 11.10498,8.47676 16.65764,14.48919 5.55242,6.01259 8.54225,12.6165 8.9695,19.81176 -0.44367,9.25908 -4.21382,16.02316 -11.31044,20.29225 -7.09686,4.26917 -14.85893,6.37602 -23.28621,6.32055 -8.42748,0.0555 -16.18954,-2.05137 -23.28621,-6.32054 -7.09682,-4.2691 -10.86696,-11.03318 -11.31043,-20.29226 0.42706,-6.35744 3.41689,-12.56709 8.9695,-18.62897 5.55247,-6.06172 11.10501,-11.08859 16.65764,-15.0806 5.55246,-3.99183 8.54229,-6.06171 8.9695,-6.20964 z"
         style="fill:#000000;font-family:Russian Road Sign;-inkscape-font-specification:Russian Road Sign"
         id="path11957" />
      <path
         d="m 385.3939,643.24987 c -21.62298,0.55465 -38.92129,10.75621 -51.89498,30.60472 -12.97377,19.84888 -19.62696,46.01812 -19.9596,78.50779 0.33264,32.48987 6.98583,58.6591 19.9596,78.50777 12.97369,19.84872 30.272,30.05029 51.89498,30.60473 21.62278,-0.55443 38.92109,-10.756 51.89497,-30.60473 12.97358,-19.84868 19.62678,-46.01791 19.95961,-78.50777 -0.33283,-30.9927 -6.98603,-56.73423 -19.95961,-77.22467 -12.97388,-20.49007 -30.27219,-31.11934 -51.89497,-31.88784 z m 0,33.07592 c 10.42324,-0.15823 18.75558,5.86133 24.99703,18.05868 6.24121,12.19768 9.44108,31.52363 9.59962,57.97791 -0.15855,26.45447 -3.35842,45.78042 -9.59963,57.97789 -6.24145,12.19756 -14.57378,18.21712 -24.99702,18.05869 -10.42344,0.15844 -18.75578,-5.86112 -24.99703,-18.05869 -6.2414,-12.19748 -9.44127,-31.52342 -9.59962,-57.97789 0.15835,-26.45427 3.35822,-45.78022 9.59962,-57.97791 6.24126,-12.19736 14.5736,-18.21692 24.99703,-18.05868 z"
         style="fill:#000000;font-family:Russian Road Sign;-inkscape-font-specification:Russian Road Sign"
         id="path11959" />
    </g>
  </g>
</svg>
