<?xml version="1.0" encoding="UTF-8" standalone="no"?>
<svg
   xmlns:dc="http://purl.org/dc/elements/1.1/"
   xmlns:cc="http://creativecommons.org/ns#"
   xmlns:rdf="http://www.w3.org/1999/02/22-rdf-syntax-ns#"
   xmlns:svg="http://www.w3.org/2000/svg"
   xmlns="http://www.w3.org/2000/svg"
   xmlns:sodipodi="http://sodipodi.sourceforge.net/DTD/sodipodi-0.dtd"
   xmlns:inkscape="http://www.inkscape.org/namespaces/inkscape"
   version="1.1"
   id="svg18916"
   width="200.5"
   height="135.51489"
   viewBox="0 0 200.5 135.51489"
   sodipodi:docname="China_road_sign_辅_16.svg"
   inkscape:version="1.0 (4035a4fb49, 2020-05-01)">
  <metadata
     id="metadata18922">
    <rdf:RDF>
      <cc:Work
         rdf:about="">
        <dc:format>image/svg+xml</dc:format>
        <dc:type
           rdf:resource="http://purl.org/dc/dcmitype/StillImage" />
        <dc:title />
      </cc:Work>
    </rdf:RDF>
  </metadata>
  <defs
     id="defs18920" />
  <sodipodi:namedview
     inkscape:document-rotation="0"
     pagecolor="#ffffff"
     bordercolor="#666666"
     borderopacity="1"
     objecttolerance="10"
     gridtolerance="10"
     guidetolerance="10"
     inkscape:pageopacity="0"
     inkscape:pageshadow="2"
     inkscape:window-width="1920"
     inkscape:window-height="1001"
     id="namedview18918"
     showgrid="false"
     inkscape:zoom="3.0925"
     inkscape:cx="137.95427"
     inkscape:cy="89.91531"
     inkscape:window-x="-9"
     inkscape:window-y="-9"
     inkscape:window-maximized="1"
     inkscape:current-layer="g18924" />
  <g
     transform="translate(236.37252,50.973673)"
     inkscape:groupmode="layer"
     inkscape:label="Image"
     id="g18924">
    <g
       transform="matrix(0.23087701,0,0,0.23087701,-41.444237,246.28364)"
       style="opacity:0.999883;stroke-width:4.33131"
       id="g10467">
      <path
         id="path10469"
         d="m -727.87891,-1287.5137 c -64.40819,0 -116.41601,52.0078 -116.41601,116.416 v 354.12309 c 0,64.40819 52.00782,116.41797 116.41601,116.41797 h 635.595707 c 64.408213,0 116.416016,-52.00978 116.416015,-116.41797 v -354.12309 c 10e-7,-64.4082 -52.007803,-116.416 -116.416015,-116.416 z m 0,10 h 635.595707 c 59.041187,0 106.416016,47.3749 106.416015,106.416 v 354.12309 c 1e-6,59.04117 -47.374828,106.41797 -106.416015,106.41797 H -727.87891 c -59.04116,0 -106.41601,-47.3768 -106.41601,-106.41797 v -354.12309 c 0,-59.0411 47.37485,-106.416 106.41601,-106.416 z"
         style="color:#000000;font-style:normal;font-variant:normal;font-weight:normal;font-stretch:normal;font-size:medium;line-height:normal;font-family:sans-serif;font-variant-ligatures:normal;font-variant-position:normal;font-variant-caps:normal;font-variant-numeric:normal;font-variant-alternates:normal;font-variant-east-asian:normal;font-feature-settings:normal;font-variation-settings:normal;text-indent:0;text-align:start;text-decoration:none;text-decoration-line:none;text-decoration-style:solid;text-decoration-color:#000000;letter-spacing:normal;word-spacing:normal;text-transform:none;writing-mode:lr-tb;direction:ltr;text-orientation:mixed;dominant-baseline:auto;baseline-shift:baseline;text-anchor:start;white-space:normal;shape-padding:0;shape-margin:0;inline-size:0;clip-rule:nonzero;display:inline;overflow:visible;visibility:visible;isolation:auto;mix-blend-mode:normal;color-interpolation:sRGB;color-interpolation-filters:linearRGB;solid-color:#000000;solid-opacity:1;vector-effect:none;fill:#000000;fill-opacity:1;fill-rule:evenodd;stroke:none;stroke-width:43.3131;stroke-linecap:square;stroke-linejoin:miter;stroke-miterlimit:4;stroke-dasharray:none;stroke-dashoffset:0;stroke-opacity:1;paint-order:stroke markers fill;color-rendering:auto;image-rendering:auto;shape-rendering:auto;text-rendering:auto;enable-background:accumulate;stop-color:#000000;stop-opacity:1" />
      <path
         id="path10471"
         d="m -727.87816,-1282.5145 h 635.594855 c 61.7247,0 111.4164,49.6917 111.4164,111.4164 v 354.12425 c 0,61.72468 -49.6917,111.41639 -111.4164,111.41639 H -727.87816 c -61.72468,0 -111.41639,-49.69171 -111.41639,-111.41639 v -354.12425 c 0,-61.7247 49.69171,-111.4164 111.41639,-111.4164 z"
         style="color:#000000;font-style:normal;font-variant:normal;font-weight:normal;font-stretch:normal;font-size:medium;line-height:normal;font-family:sans-serif;font-variant-ligatures:normal;font-variant-position:normal;font-variant-caps:normal;font-variant-numeric:normal;font-variant-alternates:normal;font-variant-east-asian:normal;font-feature-settings:normal;font-variation-settings:normal;text-indent:0;text-align:start;text-decoration:none;text-decoration-line:none;text-decoration-style:solid;text-decoration-color:#000000;letter-spacing:normal;word-spacing:normal;text-transform:none;writing-mode:lr-tb;direction:ltr;text-orientation:mixed;dominant-baseline:auto;baseline-shift:baseline;text-anchor:start;white-space:normal;shape-padding:0;shape-margin:0;inline-size:0;clip-rule:nonzero;display:inline;overflow:visible;visibility:visible;isolation:auto;mix-blend-mode:normal;color-interpolation:sRGB;color-interpolation-filters:linearRGB;solid-color:#000000;solid-opacity:1;vector-effect:none;fill:#ffffff;fill-opacity:1;fill-rule:evenodd;stroke:none;stroke-width:43.3131;stroke-linecap:square;stroke-linejoin:miter;stroke-miterlimit:4;stroke-dasharray:none;stroke-dashoffset:0;stroke-opacity:1;paint-order:stroke markers fill;color-rendering:auto;image-rendering:auto;shape-rendering:auto;text-rendering:auto;enable-background:accumulate;stop-color:#000000;stop-opacity:1" />
    </g>
    <path
       style="color:#000000;font-style:normal;font-variant:normal;font-weight:normal;font-stretch:normal;font-size:medium;line-height:normal;font-family:sans-serif;font-variant-ligatures:normal;font-variant-position:normal;font-variant-caps:normal;font-variant-numeric:normal;font-variant-alternates:normal;font-variant-east-asian:normal;font-feature-settings:normal;font-variation-settings:normal;text-indent:0;text-align:start;text-decoration:none;text-decoration-line:none;text-decoration-style:solid;text-decoration-color:#000000;letter-spacing:normal;word-spacing:normal;text-transform:none;writing-mode:lr-tb;direction:ltr;text-orientation:mixed;dominant-baseline:auto;baseline-shift:baseline;text-anchor:start;white-space:normal;shape-padding:0;shape-margin:0;inline-size:0;clip-rule:nonzero;display:inline;overflow:visible;visibility:visible;opacity:0.999883;isolation:auto;mix-blend-mode:normal;color-interpolation:sRGB;color-interpolation-filters:linearRGB;solid-color:#000000;solid-opacity:1;vector-effect:none;fill:#000000;fill-opacity:1;fill-rule:evenodd;stroke:none;stroke-width:29.7411;stroke-linecap:square;stroke-linejoin:miter;stroke-miterlimit:4;stroke-dasharray:none;stroke-dashoffset:0;stroke-opacity:1;paint-order:stroke markers fill;color-rendering:auto;image-rendering:auto;shape-rendering:auto;text-rendering:auto;enable-background:accumulate;stop-color:#000000;stop-opacity:1"
       d="m -209.4502,-43.794184 c -10.95281,0 -19.87752,8.9251 -19.87752,19.878 v 81.8792 c 0,10.9528 8.92471,19.8775 19.87752,19.8775 h 147.000123 c 10.95281,0 19.87752,-8.9247 19.87752,-19.8775 v -81.8792 c 0,-10.9529 -8.92471,-19.878 -19.87752,-19.878 z m 0,6.8668 h 147.000123 c 7.26753,0 13.01117,5.7436 13.01117,13.0112 v 81.8792 c 0,7.2675 -5.74364,13.0112 -13.01117,13.0112 H -209.4502 c -7.26752,0 -13.01073,-5.7437 -13.01073,-13.0112 v -81.8792 c 0,-7.2676 5.74321,-13.0112 13.01073,-13.0112 z"
       id="path911" />
    <path
       id="path1177"
       style="stroke-width:1"
       d="m -88.028287,-16.371284 -7.02055,13.8734003 H -104.66 l 4.4295,-3.092 -8.0135,-9.9638003 -9.12145,4.8033 c 0,0 2.95402,3.2240003 4.67616,5.2141003 0.71064,0.8212 1.17603,3.0384 1.17603,3.0384 h -11.48072 v 8.537 h 21.04408 v 9.5141997 h -23.67346 v 7.1342 h 23.23876 c -6.74298,9.8853 -11.8169,14.3562 -26.33215,18.6163 2.72923,1.9435 6.87318,6.3458 8.65203,8.951 12.19868,-5.3355 20.139363,-12.3032 23.820013,-20.9057 3.72233,8.4357 10.98063,15.3222 21.77459,20.6577 2.1915,-3.268 5.9972,-7.6323 8.1064,-9.7821 -11.78603,-2.9783 -19.46983,-9.887 -25.41361,-17.5372 h 22.80452 v -7.1342 h -23.27033 V 6.0391163 h 20.89031 v -8.537 h -12.24595 v -1.1138 l 6.64853,-7.9828003 z m -94.886843,0.099 c -1.84883,8.7331003 -6.00598,16.51950031 -12.47457,23.3560003 2.44842,1.1095 4.68809,2.5193 6.72204,4.2283997 0.92325,-0.9244 1.93966,-2.1245997 3.0492,-3.6042997 l -0.90096,9.0785997 h -5.75254 v 6.7225 h 5.12845 l -1.59405,16.4252 h 28.06779 c -0.13854,0.8312 -0.47377,1.409 -1.00467,1.7315 -0.53207,0.3225 -1.37479,0.4852 -2.52973,0.4852 -1.15494,0 -2.74889,-0.1382 -4.78168,-0.4153 1.4786,2.0328 2.44856,4.713 2.91076,8.0392 5.1297,-0.369 8.67358,-1.1553 10.63884,-2.3556 1.96293,-1.2027 3.08415,-3.6977 3.36124,-7.485 h 5.6141 v -7.1392 h -5.19834 l 0.4852,-9.2869 h 6.79239 v -6.7225 h -6.44517 l 0.76252,-15.3158997 h -31.32532 l 2.21769,-3.6733 h 33.05915 v -7.3461 h -28.9692 c 0.73813,-1.0164003 1.35051,-1.6872003 1.83484,-2.0085003 0.48549,-0.3236 0.7278,-0.6696 0.7278,-1.0398 0,-0.3702 -0.10364,-0.6473 -0.31204,-0.8324 -0.20841,-0.184 -1.22482,-0.5426 -3.0492,-1.0746 -1.82555,-0.5298 -4.17048,-1.1187 -7.03454,-1.7672 z m -15.7312,1.7311 -6.93082,6.0299003 c 3.2797,2.5415 6.65364,5.6381 10.11846,9.28690001 l 7.06925,-5.82110001 c -3.37284,-3.3274 -6.79091,-6.4908003 -10.25689,-9.4957003 z m -4.99001,16.5641003 -6.02986,6.8618 c 4.85145,3.1876997 8.59466,5.9376997 11.2282,8.2475997 l 6.58405,-6.6535 c -2.77208,-2.2167997 -6.70042,-5.0352997 -11.78239,-8.4558997 z m 26.26812,6.515 h 7.83178 l -5.47566,2.4959997 c 1.70912,2.1713 3.0262,4.0879 3.95061,5.7516 h -7.0697 z m 10.04856,0 h 8.52442 l -0.48521,8.2475997 h -8.6633 l 4.78259,-2.0107 c -1.34122,-2.3087 -2.72763,-4.388 -4.1585,-6.2368997 z m -30.42571,10.7434997 c -4.20411,9.9334 -8.40934,17.4885 -12.61346,22.6625 3.41825,2.864 6.21393,4.9666 8.38643,6.3067 3.00261,-7.3464 6.6058,-15.1775 10.81108,-23.4949 -2.72668,-1.8942 -4.92033,-3.7198 -6.58405,-5.4743 z m 18.98918,4.2266 h 8.45588 l -5.54421,2.3561 c 1.56942,1.7103 3.11807,4.0202 4.64324,6.9308 h -8.45587 z m 10.60411,0 h 8.52442 l -0.5542,9.2869 h -8.6633 l 5.26733,-2.0107 c -1.29464,-2.5404 -2.81855,-4.9663 -4.57425,-7.2762 z" />
  </g>
</svg>
