<?xml version="1.0" encoding="UTF-8" standalone="no"?>
<!-- Created with Inkscape (http://www.inkscape.org/) -->

<svg
   xmlns:dc="http://purl.org/dc/elements/1.1/"
   xmlns:cc="http://creativecommons.org/ns#"
   xmlns:rdf="http://www.w3.org/1999/02/22-rdf-syntax-ns#"
   xmlns:svg="http://www.w3.org/2000/svg"
   xmlns="http://www.w3.org/2000/svg"
   xmlns:sodipodi="http://sodipodi.sourceforge.net/DTD/sodipodi-0.dtd"
   xmlns:inkscape="http://www.inkscape.org/namespaces/inkscape"
   width="600"
   height="600"
   id="svg2"
   version="1.1"
   inkscape:version="0.92.3 (2405546, 2018-03-11)"
   sodipodi:docname="China_road_sign_禁_30.svg">
  <title
     id="title3002">China_Road_sign_禁_30</title>
  <defs
     id="defs4" />
  <sodipodi:namedview
     id="base"
     pagecolor="#ffffff"
     bordercolor="#666666"
     borderopacity="1.0"
     inkscape:pageopacity="0.0"
     inkscape:pageshadow="2"
     inkscape:zoom="0.5"
     inkscape:cx="-54.868295"
     inkscape:cy="106.89335"
     inkscape:document-units="px"
     inkscape:current-layer="layer1"
     showgrid="false"
     inkscape:window-width="1600"
     inkscape:window-height="838"
     inkscape:window-x="-8"
     inkscape:window-y="-8"
     inkscape:window-maximized="1" />
  <metadata
     id="metadata7">
    <rdf:RDF>
      <cc:Work
         rdf:about="">
        <dc:format>image/svg+xml</dc:format>
        <dc:type
           rdf:resource="http://purl.org/dc/dcmitype/StillImage" />
        <dc:title>China_Road_sign_禁_30</dc:title>
        <cc:license
           rdf:resource="http://creativecommons.org/licenses/by-sa/3.0/" />
        <dc:description>ГОСТ Р 52290-2004
Размеры и пропорции по типоразмеру I</dc:description>
      </cc:Work>
      <cc:License
         rdf:about="http://creativecommons.org/licenses/by-sa/3.0/">
        <cc:permits
           rdf:resource="http://creativecommons.org/ns#Reproduction" />
        <cc:permits
           rdf:resource="http://creativecommons.org/ns#Distribution" />
        <cc:requires
           rdf:resource="http://creativecommons.org/ns#Notice" />
        <cc:requires
           rdf:resource="http://creativecommons.org/ns#Attribution" />
        <cc:permits
           rdf:resource="http://creativecommons.org/ns#DerivativeWorks" />
        <cc:requires
           rdf:resource="http://creativecommons.org/ns#ShareAlike" />
      </cc:License>
    </rdf:RDF>
  </metadata>
  <g
     inkscape:label="Layer 1"
     inkscape:groupmode="layer"
     id="layer1"
     transform="translate(0,-452.36218)">
    <path
       sodipodi:type="arc"
       style="opacity:1;color:#000000;fill:#ffffff;fill-opacity:1;fill-rule:nonzero;stroke:none;stroke-width:1px;marker:none;visibility:visible;display:inline;overflow:visible;enable-background:accumulate"
       id="path5334"
       sodipodi:cx="-87.720657"
       sodipodi:cy="432.25998"
       sodipodi:rx="22.107042"
       sodipodi:ry="29.465372"
       d="m -65.613615,432.25998 a 22.107042,29.465372 0 0 1 -22.107042,29.46537 22.107042,29.465372 0 0 1 -22.107043,-29.46537 22.107042,29.465372 0 0 1 22.107043,-29.46537 22.107042,29.465372 0 0 1 22.107042,29.46537 z"
       transform="matrix(13.570336,0,0,10.181443,1490.3988,-3648.6681)" />
    <path
       transform="matrix(13.525102,0,0,10.147505,1486.4308,-3633.998)"
       d="m -65.613615,432.25998 a 22.107042,29.465372 0 0 1 -22.107042,29.46537 22.107042,29.465372 0 0 1 -22.107043,-29.46537 22.107042,29.465372 0 0 1 22.107043,-29.46537 22.107042,29.465372 0 0 1 22.107042,29.46537 z"
       sodipodi:ry="29.465372"
       sodipodi:rx="22.107042"
       sodipodi:cy="432.25998"
       sodipodi:cx="-87.720657"
       id="path3003"
       style="color:#000000;fill:none;stroke:#000000;stroke-width:0.17071831000000001;stroke-miterlimit:4;stroke-opacity:1;stroke-dasharray:none;marker:none;visibility:visible;display:inline;overflow:visible;enable-background:accumulate;opacity:1"
       sodipodi:type="arc" />
    <path
       style="opacity:1;color:#000000;fill:#000000;fill-opacity:1;fill-rule:nonzero;stroke:none;stroke-width:1px;marker:none;visibility:visible;display:inline;overflow:visible;enable-background:accumulate"
       d="M 300 10 C 139.83742 10 10 139.83742 10 300 C 10 460.16258 139.83742 590 300 590 C 460.16258 590 590 460.16258 590 300 C 590 139.83742 460.16258 10 300 10 z M 300 59.03125 C 433.0828 59.03125 540.96875 166.91719 540.96875 300 C 540.96875 433.08281 433.0828 540.96875 300 540.96875 C 166.9172 540.96875 59.03125 433.08281 59.03125 300 C 59.03125 166.91719 166.9172 59.03125 300 59.03125 z "
       transform="translate(0,452.36218)"
       id="path4775-9" />
    <g
       id="g5160"
       transform="matrix(1.25,0,0,-1.25,13.010729,1061.6636)">
      <g
         id="g5162">
        <path
           sodipodi:nodetypes="cccccccccccccccccccccc"
           inkscape:connector-curvature="0"
           d="m 372.32,416.446 c 2.418,-1.816 4.793,-3.683 7.133,-5.594 L 69.949,101.348 c -1.91,2.34 -3.777,4.715 -5.594,7.133 z m 13.856,-11.316 c 2.25,-1.992 4.461,-4.024 6.629,-6.102 L 81.773,88.001 c -2.078,2.164 -4.109,4.375 -6.101,6.625 z m 12.847,-12.328 c 2.082,-2.164 4.114,-4.375 6.106,-6.625 L 94.625,75.673 c -2.25,1.992 -4.461,4.023 -6.625,6.105 z m 11.829,-13.344 c 1.91,-2.34 3.777,-4.715 5.593,-7.133 L 108.48,64.356 c -2.418,1.817 -4.796,3.684 -7.136,5.594 z M 115.727,59.161 c -77.151333,-39.440658 -38.575667,-19.720329 0,0 z"
           style="fill:#000000;fill-opacity:1;fill-rule:nonzero;stroke:none"
           id="path5176" />
        <path
           sodipodi:nodetypes="ccccccc"
           inkscape:connector-curvature="0"
           d="m 359.48,428.778 c 1.91,-2.34 3.777,-4.715 5.593,-7.133 L 57.108,113.676 c -2.418,1.817 -4.796,3.684 -7.136,5.594 z M 64.355,108.481 c -77.151338,-39.44066 -38.575668,-19.72033 0,0 z"
           style="fill:#000000;fill-opacity:1;fill-rule:nonzero;stroke:none;stroke-width:1"
           id="path5176-6" />
      </g>
    </g>
    <g
       id="g38387"
       transform="matrix(1.286841,0,0,1.286841,-11.626774,458.3281)"
       style="fill:#000000;fill-opacity:1">
      <path
         sodipodi:nodetypes="ccccccsccccccscccc"
         d="m 238.19706,120.49656 39.67656,-44.841007 38.21647,44.475967 -1.09511,38.58821 -24.14611,-28.88424 -1.09114,28.90878 c 0,36.12566 -113.51368,63.02841 -113.01062,92.37161 l 0.81833,63.6745 c 2.00556,5.44 6.82069,9.75615 13.6907,13.25036 l 62.87882,36.23241 0.67667,34.9246 -96.87926,-57.71287 c -6.75639,-3.74531 -6.31285,-8.69061 -7.58237,-13.3504 l -0.36504,-89.06481 c -0.12526,-30.55993 115.59711,-73.99321 114.54443,-80.93356 l 0.36204,-28.30062 -27.05965,29.61432 z"
         id="path27"
         style="clip-rule:evenodd;fill:#000000;fill-opacity:1;fill-rule:evenodd;stroke:none;stroke-width:0.61229926"
         inkscape:connector-curvature="0" />
      <path
         sodipodi:nodetypes="cccccccccc"
         inkscape:connector-curvature="0"
         d="m 283.55015,224.59745 -38.64407,41.91016 2.03224,49.32204 26.01706,-29.79585 -0.13775,68.34852 26.18863,-0.16271 0.91903,-67.14085 24.61165,27.2211 1.27119,-41.39741 z"
         style="fill:#000000;fill-opacity:1"
         id="rect37757" />
    </g>
  </g>
</svg>
