<?xml version="1.0" encoding="UTF-8" standalone="no"?>
<svg
   xmlns:dc="http://purl.org/dc/elements/1.1/"
   xmlns:cc="http://creativecommons.org/ns#"
   xmlns:rdf="http://www.w3.org/1999/02/22-rdf-syntax-ns#"
   xmlns:svg="http://www.w3.org/2000/svg"
   xmlns="http://www.w3.org/2000/svg"
   xmlns:sodipodi="http://sodipodi.sourceforge.net/DTD/sodipodi-0.dtd"
   xmlns:inkscape="http://www.inkscape.org/namespaces/inkscape"
   version="1.1"
   id="svg3921"
   width="468.48264"
   height="468.48264"
   viewBox="0 0 468.48264 468.48264"
   sodipodi:docname="China_road_sign_ç¦-7.svg"
   inkscape:version="1.0 (4035a4fb49, 2020-05-01)">
  <metadata
     id="metadata3927">
    <rdf:RDF>
      <cc:Work
         rdf:about="">
        <dc:format>image/svg+xml</dc:format>
        <dc:type
           rdf:resource="http://purl.org/dc/dcmitype/StillImage" />
        <dc:title></dc:title>
      </cc:Work>
    </rdf:RDF>
  </metadata>
  <defs
     id="defs3925" />
  <sodipodi:namedview
     inkscape:document-rotation="0"
     pagecolor="#ffffff"
     bordercolor="#666666"
     borderopacity="1"
     objecttolerance="10"
     gridtolerance="10"
     guidetolerance="10"
     inkscape:pageopacity="0"
     inkscape:pageshadow="2"
     inkscape:window-width="1920"
     inkscape:window-height="1001"
     id="namedview3923"
     showgrid="false"
     inkscape:zoom="0.89055794"
     inkscape:cx="646.95394"
     inkscape:cy="406.93049"
     inkscape:window-x="-9"
     inkscape:window-y="-9"
     inkscape:window-maximized="1"
     inkscape:current-layer="g3929" />
  <g
     inkscape:groupmode="layer"
     inkscape:label="Image"
     id="g3929"
     transform="translate(495.02625,5.7222268)">
    <g
       transform="translate(-493.79868,-8.1185834)"
       id="g3722"
       inkscape:label="Image">
      <g
         transform="matrix(1.2901279,0,0,1.2901279,-1.2275844,2.3962852)"
         id="g3720">
        <path
           style="color:#000000;display:inline;overflow:visible;visibility:visible;opacity:1;fill:#ffffff;fill-opacity:1;stroke:#000000;stroke-width:1.21043;stroke-miterlimit:4;stroke-dasharray:none;stroke-opacity:1;marker:none;enable-background:accumulate"
           d="M 362.52362,181.56447 A 180.9592,180.9592 0 0 1 181.56442,362.52367 180.9592,180.9592 0 0 1 0.60522461,181.56447 180.9592,180.9592 0 0 1 181.56442,0.60527039 180.9592,180.9592 0 0 1 362.52362,181.56447 Z"
           id="path3714" />
        <path
           style="fill:#c0111e;fill-opacity:1;stroke:none;stroke-width:1.86839;stroke-linejoin:round;stroke-miterlimit:4;stroke-dasharray:none;stroke-opacity:1"
           d="M 74.383503,51.522905 313.31178,292.41302 294.49493,312.86457 56.383991,73.609129 Z"
           id="path3716"
           inkscape:connector-curvature="0"
           sodipodi:nodetypes="ccccc" />
        <path
           inkscape:connector-curvature="0"
           style="color:#000000;display:inline;overflow:visible;visibility:visible;opacity:1;fill:#c0111e;fill-opacity:1;fill-rule:nonzero;stroke:none;stroke-width:0.605215px;marker:none;enable-background:accumulate"
           d="m 181.56437,6.0521836 c -96.932743,0 -175.5122602,78.5795154 -175.5122602,175.5122764 0,96.93275 78.5795172,175.51226 175.5122602,175.51226 96.93277,0 175.51229,-78.57951 175.51229,-175.51226 0,-96.932761 -78.57952,-175.5122764 -175.51229,-175.5122764 z m 0,29.6744324 c 80.54367,0 145.83785,65.294164 145.83785,145.837844 0,80.54367 -65.29418,145.83784 -145.83785,145.83784 -80.54367,0 -145.837832,-65.29417 -145.837832,-145.83784 0,-80.54368 65.294162,-145.837844 145.837832,-145.837844 z"
           id="path3718" />
      </g>
    </g>
    <path
       style="fill:#000000;fill-opacity:1;stroke-width:0.136886"
       d="m -343.84676,317.43581 c -0.22587,-0.0322 -0.90345,-0.12324 -1.50576,-0.20247 -7.7655,-1.0215 -14.91886,-6.06129 -18.66404,-13.14947 -4.22456,-7.99547 -3.778,-17.84412 1.15204,-25.40746 2.62087,-4.02079 6.56944,-7.39746 10.84815,-9.27695 3.43156,-1.50736 6.42103,-2.13147 10.2229,-2.13422 5.12956,-0.004 9.64311,1.32857 13.82551,4.08093 5.65572,3.7219 9.50048,9.46444 10.89193,16.2682 0.4083,1.99645 0.5109,6.04088 0.20639,8.13679 -1.59549,10.98185 -9.779,19.46646 -20.61191,21.37028 -1.49867,0.26337 -5.3771,0.45492 -6.36521,0.31437 z m 5.81766,-7.92053 c 3.49039,-0.74122 6.34734,-2.2912 8.82916,-4.79007 2.57029,-2.58793 4.12445,-5.54363 4.79072,-9.11095 0.28084,-1.50372 0.28478,-4.48425 0.008,-6.04533 -0.59743,-3.36936 -2.17066,-6.42472 -4.6025,-8.93848 -2.68086,-2.77119 -5.90453,-4.46339 -9.68844,-5.08576 -1.90647,-0.31357 -4.97115,-0.19403 -6.72879,0.26246 -5.18957,1.34783 -9.17868,4.5539 -11.43624,9.19135 -1.27323,2.61546 -1.76565,4.79248 -1.75095,7.74115 0.0235,4.7065 1.84519,8.95627 5.24353,12.23227 2.81635,2.71497 5.92049,4.17444 10.20229,4.79681 0.83297,0.12107 4.13806,-0.0421 5.13324,-0.25345 z m 139.78722,7.784 c -7.21246,-0.87336 -13.84843,-4.98887 -17.85986,-11.07633 -8.3404,-12.65688 -3.74411,-29.62713 9.86185,-36.41146 5.72618,-2.85524 12.77183,-3.36077 18.90592,-1.35651 14.15508,4.62505 21.16887,20.44878 15.14365,34.16535 -1.92946,4.39244 -5.51132,8.50047 -9.65693,11.07553 -4.89728,3.04195 -10.62854,4.30164 -16.39463,3.60342 z m 6.88638,-7.78658 c 6.09338,-1.31398 11.01975,-5.6594 12.93035,-11.40553 0.66989,-2.01469 0.86356,-3.202 0.87554,-5.36752 0.017,-3.09089 -0.52055,-5.3644 -1.90991,-8.07628 -1.30503,-2.54732 -3.16911,-4.67344 -5.48528,-6.25638 -2.93161,-2.00355 -5.64096,-2.89521 -9.14842,-3.01079 -5.1536,-0.16985 -9.53664,1.58366 -13.04685,5.21957 -3.21393,3.32904 -4.8168,7.3179 -4.8168,11.987 0,4.73212 1.69907,8.82263 5.06179,12.18619 2.77989,2.78058 6.25619,4.46506 10.26947,4.97618 0.91287,0.11625 4.31634,-0.0468 5.27011,-0.25244 z M -389.71,281.20557 c -0.0364,-0.0948 -0.0499,-2.04943 -0.0299,-4.34344 l 0.0363,-4.17091 5.40701,-1.01476 c 2.97386,-0.55813 5.42335,-1.02742 5.44334,-1.04288 0.0199,-0.0154 -0.51648,-1.9987 -1.19213,-4.4072 -3.73029,-13.29723 -6.54407,-24.82939 -7.95051,-32.58484 -0.59662,-3.28992 -0.95484,-5.81589 -0.95484,-6.73298 0,-1.53853 0.44798,-3.03292 1.38876,-4.63276 0.70431,-1.1977 3.58298,-3.98251 6.61909,-6.40326 3.85259,-3.07175 5.56772,-4.61531 6.9398,-6.24555 3.00465,-3.57002 5.22238,-7.24017 9.33304,-15.44542 2.34941,-4.68963 3.4228,-7.12645 5.69805,-12.93575 0.76666,-1.95747 1.86168,-4.69863 2.43338,-6.09144 1.09384,-2.66491 4.45856,-9.5065 6.66308,-13.54826 0.71758,-1.31562 1.39516,-2.70324 1.50573,-3.08361 0.24129,-0.83001 0.98929,-1.74516 1.76584,-2.16048 l 0.56707,-0.30327 20.87514,-0.0388 c 14.65712,-0.0272 21.05428,0.006 21.47652,0.10956 0.89959,0.22198 1.67943,0.82688 2.14152,1.66113 l 0.40549,0.73207 -0.0197,31.7576 c -0.0108,17.46668 0.009,32.33587 0.0444,33.04264 l 0.0641,1.28503 18.22989,-0.0873 c 25.96434,-0.12435 166.1233,-0.41995 166.18593,-0.3505 0.0287,0.0319 0.15202,10.40652 0.27399,23.05481 0.12199,12.64829 0.26157,25.50704 0.31023,28.575 l 0.0884,5.57812 h -24.04027 -24.04027 l -0.0578,-0.308 c -0.70349,-3.74416 -2.01153,-6.63813 -4.28052,-9.47036 -5.02911,-6.27755 -13.36723,-10.31295 -23.37319,-11.3119 -2.07606,-0.20727 -7.55866,-0.0891 -9.52668,0.20524 -8.33605,1.24697 -14.91392,4.30089 -19.78006,9.18335 -1.84848,1.85466 -3.11043,3.59253 -4.1733,5.74712 -0.8977,1.81977 -1.2736,2.89657 -1.63593,4.68629 l -0.24291,1.19981 h -41.65268 -41.65267 l -0.31705,-1.41367 c -0.79685,-3.55308 -2.61524,-6.77441 -5.52748,-9.7921 -4.48424,-4.64662 -10.70129,-7.7355 -18.20824,-9.0466 -3.98436,-0.69588 -9.02583,-0.69785 -13.36681,-0.006 -8.97299,1.43164 -16.97345,6.16146 -21.0678,12.45511 -1.57542,2.42166 -2.38042,4.44106 -3.01484,7.56295 l -0.0626,0.308 h -8.83086 c -6.97702,0 -8.84473,-0.0362 -8.89704,-0.17252 z m 79.19503,-96.12693 v -20.60138 h -15.72727 c -14.85094,0 -15.73256,0.0134 -15.82217,0.23955 -0.0974,0.24593 -11.07726,32.64056 -12.87494,37.98593 l -1.00127,2.97727 h 22.71282 22.71283 z m 12.73042,9.85581 v -23.33911 h 27.92479 27.92479 v 23.33911 23.3391 h -27.92479 -27.92479 z m 60.33948,-2.8e-4 v -23.33944 l 27.20614,0.0346 27.20615,0.0346 0.0346,23.30488 0.0346,23.30489 h -27.24073 -27.24078 z m 58.88844,0 v -23.33944 l 27.20613,0.0346 27.20615,0.0346 0.0346,23.30488 0.0346,23.30489 h -27.24075 -27.24074 z"
       id="path3724"
       sodipodi:nodetypes="ssssccsssssssscssssssssssssssssssssssssssscccsccsssscsssssscscsccccsssscccssssssscccscscsscsccccsssccccccccccccccccccccccccccccccc" />
  </g>
</svg>
