<?xml version="1.0" encoding="UTF-8" standalone="no"?>
<svg
   xmlns:dc="http://purl.org/dc/elements/1.1/"
   xmlns:cc="http://creativecommons.org/ns#"
   xmlns:rdf="http://www.w3.org/1999/02/22-rdf-syntax-ns#"
   xmlns:svg="http://www.w3.org/2000/svg"
   xmlns="http://www.w3.org/2000/svg"
   xmlns:sodipodi="http://sodipodi.sourceforge.net/DTD/sodipodi-0.dtd"
   xmlns:inkscape="http://www.inkscape.org/namespaces/inkscape"
   inkscape:version="1.0 (4035a4fb49, 2020-05-01)"
   sodipodi:docname="China_road_sign_ç¦_6.svg"
   viewBox="0 0 468.48264 468.48264"
   height="468.48264"
   width="468.48264"
   id="svg3268"
   version="1.1">
  <metadata
     id="metadata3274">
    <rdf:RDF>
      <cc:Work
         rdf:about="">
        <dc:format>image/svg+xml</dc:format>
        <dc:type
           rdf:resource="http://purl.org/dc/dcmitype/StillImage" />
        <dc:title></dc:title>
      </cc:Work>
    </rdf:RDF>
  </metadata>
  <defs
     id="defs3272" />
  <sodipodi:namedview
     inkscape:current-layer="g3876"
     inkscape:window-maximized="1"
     inkscape:window-y="-9"
     inkscape:window-x="-9"
     inkscape:cy="258.49248"
     inkscape:cx="176.19339"
     inkscape:zoom="1.2434293"
     showgrid="false"
     id="namedview3270"
     inkscape:window-height="1001"
     inkscape:window-width="1920"
     inkscape:pageshadow="2"
     inkscape:pageopacity="0"
     guidetolerance="10"
     gridtolerance="10"
     objecttolerance="10"
     borderopacity="1"
     bordercolor="#666666"
     pagecolor="#ffffff" />
  <g
     transform="translate(1.227572,-2.3963566)"
     id="g3276"
     inkscape:label="Image"
     inkscape:groupmode="layer">
    <g
       transform="matrix(1.2901279,0,0,1.2901279,-1.2275844,2.3962852)"
       id="g3876">
      <path
         style="color:#000000;display:inline;overflow:visible;visibility:visible;opacity:1;fill:#ffffff;fill-opacity:1;stroke:#000000;stroke-width:1.21043;stroke-miterlimit:4;stroke-dasharray:none;stroke-opacity:1;marker:none;enable-background:accumulate"
         d="M 362.52362,181.56447 A 180.9592,180.9592 0 0 1 181.56442,362.52367 180.9592,180.9592 0 0 1 0.60522461,181.56447 180.9592,180.9592 0 0 1 181.56442,0.60527039 180.9592,180.9592 0 0 1 362.52362,181.56447 Z"
         id="path3003" />
      <path
         style="fill:#c0111e;fill-opacity:1;stroke:none;stroke-width:1.86839;stroke-linejoin:round;stroke-miterlimit:4;stroke-dasharray:none;stroke-opacity:1"
         d="M 74.383503,51.522905 313.31178,292.41302 294.49493,312.86457 56.383991,73.609129 Z"
         id="rect5725"
         inkscape:connector-curvature="0"
         sodipodi:nodetypes="ccccc" />
      <path
         inkscape:connector-curvature="0"
         style="color:#000000;display:inline;overflow:visible;visibility:visible;opacity:1;fill:#c0111e;fill-opacity:1;fill-rule:nonzero;stroke:none;stroke-width:0.605215px;marker:none;enable-background:accumulate"
         d="m 181.56437,6.0521836 c -96.932743,0 -175.5122602,78.5795154 -175.5122602,175.5122764 0,96.93275 78.5795172,175.51226 175.5122602,175.51226 96.93277,0 175.51229,-78.57951 175.51229,-175.51226 0,-96.932761 -78.57952,-175.5122764 -175.51229,-175.5122764 z m 0,29.6744324 c 80.54367,0 145.83785,65.294164 145.83785,145.837844 0,80.54367 -65.29418,145.83784 -145.83785,145.83784 -80.54367,0 -145.837832,-65.29417 -145.837832,-145.83784 0,-80.54368 65.294162,-145.837844 145.837832,-145.837844 z"
         id="path4775-9" />
    </g>
    <path
       style="fill:#000000;fill-opacity:1;stroke-width:0.130059"
       d="m 132.84313,343.37415 c -0.98064,-0.12654 -2.71865,-0.62233 -3.77748,-1.07789 -4.42945,-1.90616 -7.74217,-6.37444 -8.4387,-11.38219 -0.0919,-0.65821 -0.14041,-5.4217 -0.14041,-13.86682 v -12.86398 l -0.29261,-0.0589 c -0.16122,-0.0329 -1.78101,-0.15255 -3.60015,-0.26453 -1.81913,-0.11268 -3.33058,-0.22761 -3.35883,-0.2557 -0.0711,-0.0728 -1.19664,-7.38282 -2.04276,-13.27621 -2.77933,-19.36064 -4.70976,-36.88705 -5.6514,-51.30842 -0.48295,-7.39911 -0.58731,-10.45719 -0.58315,-17.10275 0,-6.38155 0.0173,-6.67156 0.28395,-7.64545 1.18727,-4.29544 5.45117,-9.4332 12.60604,-15.18948 1.23096,-0.99035 2.46677,-1.95192 2.74622,-2.13689 0.49959,-0.33058 0.50982,-0.35346 0.59788,-1.33844 0.0503,-0.55125 0.29158,-2.62816 0.53825,-4.61528 2.65209,-21.35936 6.83313,-37.867 11.3938,-44.98408 0.65458,-1.02172 1.60696,-1.91777 4.01047,-3.77366 4.61476,-3.56339 11.38756,-7.16839 18.74975,-9.98013 15.97094,-6.09951 38.13223,-10.04409 64.35824,-11.45517 11.7275,-0.63116 28.74739,-0.6296 40.25334,0 20.84955,1.14706 37.50956,4.12158 52.80409,9.42784 9.85411,3.41864 15.58819,6.50064 19.71324,10.59535 2.57425,2.55536 3.31082,3.74905 4.54524,7.36514 0.96279,2.82127 1.28869,4.14515 2.65192,10.77806 3.98394,19.38421 8.21213,37.91883 8.71415,38.19966 0.0919,0.052 0.86398,0.61678 1.7153,1.25627 6.15533,4.62274 10.99804,9.72288 12.92119,13.60835 1.3589,2.74553 1.50659,3.90646 1.39079,10.92507 -0.11614,7.00578 -0.51849,13.24969 -1.45458,22.53173 -1.54906,15.36058 -4.54577,35.47911 -8.12771,54.56464 -0.42661,2.27314 -0.77557,4.16058 -0.77557,4.19438 0,0.0329 -2.04623,0.0607 -4.54698,0.0607 h -4.54698 l -0.0468,13.36358 c -0.0416,11.97262 -0.0693,13.45598 -0.2654,14.25113 -0.79169,3.21756 -2.03219,5.46141 -4.18243,7.5664 -1.89402,1.85416 -4.17809,3.09673 -6.7598,3.6778 -1.17496,0.26454 -4.10303,0.28829 -5.33849,0.0433 -2.6618,-0.5275 -5.1733,-1.88276 -7.14759,-3.85704 -2.05143,-2.05143 -3.33942,-4.47817 -4.0694,-7.66781 -0.18202,-0.79516 -0.21461,-2.58812 -0.25656,-14.14401 l -0.0485,-13.23357 h -84.39442 -84.3946 l -0.0503,13.16857 c -0.0485,12.74385 -0.0589,13.20618 -0.31948,14.33902 -1.31452,5.73044 -5.1447,9.84994 -10.41437,11.20156 -1.24726,0.32 -3.82065,0.50462 -4.96909,0.35658 z m 181.69305,-86.60256 v -9.1692 l -79.69403,0.0329 -79.69385,0.0329 -0.0329,8.974 c -0.0191,4.93581 0,9.04733 0.0277,9.13678 0.0503,0.13001 16.115,0.16295 79.72748,0.16295 h 79.6656 z M 127.63724,242.84965 c 3.15013,-0.51087 6.07923,-2.00601 8.34544,-4.2594 1.92436,-1.91378 3.39351,-4.44851 4.08604,-7.04998 0.46701,-1.75414 0.58662,-4.75171 0.25951,-6.50307 -0.58211,-3.11632 -1.90322,-5.73634 -4.01202,-7.95644 -4.61338,-4.85658 -11.72109,-6.17283 -17.76166,-3.2888 -3.07541,1.46828 -5.53456,3.8463 -7.06715,6.83434 -1.18311,2.30643 -1.66485,4.36254 -1.66485,7.10633 0,6.04056 3.37131,11.30678 8.89582,13.89559 1.18693,0.55628 2.9844,1.1065 4.17514,1.27811 1.27049,0.18306 3.42402,0.15775 4.74373,-0.0572 z m 217.58941,0 c 6.46701,-1.04877 11.48169,-6.03017 12.69411,-12.61003 0.31549,-1.71166 0.20039,-4.6184 -0.25119,-6.34861 -1.16023,-4.44575 -4.09453,-8.04086 -8.19583,-10.04132 -4.24847,-2.07241 -9.05513,-2.09858 -13.29962,-0.0728 -1.68514,0.80435 -2.69698,1.49584 -3.9933,2.72836 -2.77378,2.63718 -4.46047,6.14007 -4.75361,9.87213 -0.44482,5.65903 2.0731,10.89663 6.77297,14.08819 1.65307,1.12262 4.31539,2.15648 6.28274,2.44008 1.27049,0.18306 3.42402,0.15775 4.74373,-0.0572 z m -30.96852,-7.04999 c 0.98601,-1.96094 2.00635,-4.99561 2.18283,-6.4918 0.10574,-0.89674 -0.14215,-2.50474 -0.66827,-4.3322 -0.48729,-1.69277 -1.5631,-4.68185 -1.7973,-4.99336 -0.11788,-0.15775 -1.18641,-0.34392 -4.51161,-0.78909 -24.31257,-3.25569 -47.23105,-5.59991 -63.068,-6.45089 -14.34093,-0.77071 -30.19954,0.0381 -57.62704,2.93968 -11.65573,1.23304 -33.84857,3.93211 -34.22058,4.16197 -0.14388,0.0884 -1.36236,3.84196 -1.67717,5.16809 -0.601,2.53057 -0.58384,3.88132 0.0832,6.52821 0.34098,1.35317 1.29146,4.38386 1.49879,4.77961 0.11441,0.21635 4.04461,0.22761 79.77429,0.22761 H 313.8823 Z M 146.82453,193.4323 c 31.22856,-2.63596 50.17593,-3.79429 75.69449,-4.62741 6.70398,-0.21894 30.87804,-0.30319 37.97743,-0.13175 24.15932,0.5809 46.33379,2.28632 65.94006,5.07137 0.93003,0.13174 1.71132,0.22258 1.73628,0.20091 0.0953,-0.0815 -7.97498,-40.83494 -8.10396,-40.92543 -0.0745,-0.052 -1.62758,-0.58956 -3.45175,-1.19403 -25.57092,-8.47233 -61.39551,-12.53133 -95.91876,-10.86769 -20.56976,0.9914 -41.74,3.81701 -61.86962,8.25807 -5.13308,1.1325 -12.34255,2.93465 -12.39906,3.09933 -0.0607,0.17509 -6.04369,41.30212 -6.04334,41.53805 0,0.11094 0.16642,0.14041 0.55299,0.0953 0.30405,-0.0364 2.95233,-0.268 5.88524,-0.51554 z"
       id="path3169" />
  </g>
</svg>
