<?xml version="1.0" encoding="UTF-8" standalone="no"?>
<svg
   xmlns:dc="http://purl.org/dc/elements/1.1/"
   xmlns:cc="http://creativecommons.org/ns#"
   xmlns:rdf="http://www.w3.org/1999/02/22-rdf-syntax-ns#"
   xmlns:svg="http://www.w3.org/2000/svg"
   xmlns="http://www.w3.org/2000/svg"
   xmlns:sodipodi="http://sodipodi.sourceforge.net/DTD/sodipodi-0.dtd"
   xmlns:inkscape="http://www.inkscape.org/namespaces/inkscape"
   version="1.1"
   id="svg3921"
   width="468.48264"
   height="468.48264"
   viewBox="0 0 468.48264 468.48264"
   sodipodi:docname="China_road_sign_ç¦-11.svg"
   inkscape:version="1.0 (4035a4fb49, 2020-05-01)">
  <metadata
     id="metadata3927">
    <rdf:RDF>
      <cc:Work
         rdf:about="">
        <dc:format>image/svg+xml</dc:format>
        <dc:type
           rdf:resource="http://purl.org/dc/dcmitype/StillImage" />
        <dc:title></dc:title>
      </cc:Work>
    </rdf:RDF>
  </metadata>
  <defs
     id="defs3925" />
  <sodipodi:namedview
     inkscape:document-rotation="0"
     pagecolor="#ffffff"
     bordercolor="#666666"
     borderopacity="1"
     objecttolerance="10"
     gridtolerance="10"
     guidetolerance="10"
     inkscape:pageopacity="0"
     inkscape:pageshadow="2"
     inkscape:window-width="1920"
     inkscape:window-height="1001"
     id="namedview3923"
     showgrid="false"
     inkscape:zoom="0.89055794"
     inkscape:cx="-187.79752"
     inkscape:cy="92.077833"
     inkscape:window-x="-9"
     inkscape:window-y="-9"
     inkscape:window-maximized="1"
     inkscape:current-layer="g3929" />
  <g
     inkscape:groupmode="layer"
     inkscape:label="Image"
     id="g3929"
     transform="translate(-339.72521,-309.13044)">
    <g
       inkscape:label="Image"
       id="g3706"
       transform="translate(340.95278,306.73408)">
      <g
         id="g3702"
         transform="matrix(1.2901279,0,0,1.2901279,-1.2275844,2.3962852)">
        <path
           id="path3696"
           d="M 362.52362,181.56447 A 180.9592,180.9592 0 0 1 181.56442,362.52367 180.9592,180.9592 0 0 1 0.60522461,181.56447 180.9592,180.9592 0 0 1 181.56442,0.60527039 180.9592,180.9592 0 0 1 362.52362,181.56447 Z"
           style="color:#000000;display:inline;overflow:visible;visibility:visible;opacity:1;fill:#ffffff;fill-opacity:1;stroke:#000000;stroke-width:1.21043;stroke-miterlimit:4;stroke-dasharray:none;stroke-opacity:1;marker:none;enable-background:accumulate" />
        <path
           sodipodi:nodetypes="ccccc"
           inkscape:connector-curvature="0"
           id="path3698"
           d="M 74.383503,51.522905 313.31178,292.41302 294.49493,312.86457 56.383991,73.609129 Z"
           style="fill:#c0111e;fill-opacity:1;stroke:none;stroke-width:1.86839;stroke-linejoin:round;stroke-miterlimit:4;stroke-dasharray:none;stroke-opacity:1" />
        <path
           id="path3700"
           d="m 181.56437,6.0521836 c -96.932743,0 -175.5122602,78.5795154 -175.5122602,175.5122764 0,96.93275 78.5795172,175.51226 175.5122602,175.51226 96.93277,0 175.51229,-78.57951 175.51229,-175.51226 0,-96.932761 -78.57952,-175.5122764 -175.51229,-175.5122764 z m 0,29.6744324 c 80.54367,0 145.83785,65.294164 145.83785,145.837844 0,80.54367 -65.29418,145.83784 -145.83785,145.83784 -80.54367,0 -145.837832,-65.29417 -145.837832,-145.83784 0,-80.54368 65.294162,-145.837844 145.837832,-145.837844 z"
           style="color:#000000;display:inline;overflow:visible;visibility:visible;opacity:1;fill:#c0111e;fill-opacity:1;fill-rule:nonzero;stroke:none;stroke-width:0.605215px;marker:none;enable-background:accumulate"
           inkscape:connector-curvature="0" />
      </g>
    </g>
    <path
       sodipodi:nodetypes="sssssssssssssssssssssssssssssssssssssssssssssssssssssccccccccccccccccccccsssscccccccccccccccccccccccccccccccccccccccccccccccccccccccccccssscccccccsccccccccc"
       id="path3710"
       d="m 590.64716,632.01876 c -6.71433,-0.78033 -12.6842,-4.39498 -16.37723,-9.91612 -2.76896,-4.13964 -4.03385,-8.67391 -3.82257,-13.70277 0.55834,-13.28907 12.43314,-23.21326 25.69559,-21.4747 7.01982,0.92021 13.3718,5.24812 16.8091,11.45282 5.91841,10.68345 2.39979,24.05505 -8.01422,30.45584 -4.14974,2.55057 -9.49629,3.74215 -14.29067,3.18493 z m 5.10023,-12.4232 c 1.21284,-0.23205 2.40116,-0.68581 3.53099,-1.34828 1.10704,-0.64911 2.92618,-2.49247 3.61956,-3.66776 3.1576,-5.3521 1.13773,-12.20473 -4.42287,-15.00499 -4.68635,-2.36001 -10.44679,-0.88843 -13.49109,3.4465 -1.74582,2.48598 -2.35897,5.86098 -1.59576,8.78387 0.72895,2.79162 2.81992,5.42011 5.34487,6.71884 2.32901,1.19795 4.56739,1.53999 7.0143,1.07182 z m 98.6244,12.2906 c -9.46992,-1.30049 -17.12142,-8.35781 -19.18455,-17.69479 -1.75978,-7.96417 0.9863,-16.30386 7.19174,-21.84084 7.54023,-6.728 18.77813,-7.56418 27.38746,-2.03782 5.36138,3.44148 9.15719,9.34081 10.10131,15.69917 0.88991,5.99323 -0.73768,12.31163 -4.42818,17.19039 -1.00984,1.335 -3.46115,3.70024 -4.85311,4.68274 -4.67635,3.30073 -10.62538,4.76873 -16.21467,4.00115 z m 5.48973,-12.57515 c 2.82703,-0.8906 5.12231,-2.82744 6.39076,-5.39275 0.73885,-1.49428 1.0447,-2.84533 1.0447,-4.61496 0,-1.83654 -0.32621,-3.22881 -1.13969,-4.86432 -0.81009,-1.62868 -2.73,-3.57289 -4.35005,-4.40506 -2.7125,-1.39334 -5.60577,-1.60633 -8.39807,-0.61822 -1.56709,0.55456 -2.54903,1.1815 -3.84062,2.45215 -2.04785,2.01466 -2.96944,4.09131 -3.08584,6.95333 -0.057,1.4028 -0.0202,1.86162 0.22919,2.8491 1.02105,4.04423 3.95332,6.92235 8.00734,7.85947 1.23915,0.28644 3.89767,0.17336 5.14228,-0.21874 z m -244.39721,12.67147 c -1.91638,-0.11261 -3.15097,-0.30737 -5.28126,-0.83321 -2.17205,-0.53614 -3.33992,-0.96715 -5.63154,-2.0783 -8.83517,-4.28399 -14.82549,-12.50119 -16.26471,-22.31107 -0.49909,-3.40193 -0.27714,-7.64021 0.58591,-11.18793 2.39496,-9.84483 10.13352,-18.01021 19.86629,-20.96202 7.36189,-2.23276 15.1977,-1.55319 21.96563,1.90499 8.92164,4.55867 14.85717,13.22427 15.90276,23.21737 0.22102,2.11239 0.0929,5.86144 -0.27113,7.93097 -0.89885,5.11062 -3.06335,9.80135 -6.349,13.75907 -1.05251,1.2678 -3.44259,3.59919 -4.57925,4.4668 -5.78327,4.41444 -12.67593,6.52033 -19.9437,6.09333 z m 4.58636,-16.27682 c 6.65044,-1.20348 11.38888,-7.59999 10.57352,-14.27338 -0.54004,-4.42002 -3.26118,-8.28225 -7.21039,-10.234 -2.90942,-1.43787 -6.62594,-1.72505 -9.66737,-0.747 -3.70386,1.19106 -6.75498,4.03593 -8.19418,7.64027 -2.44272,6.11755 0.20493,13.28511 6.02061,16.29857 2.71289,1.40571 5.54826,1.84568 8.47781,1.31554 z m 90.75426,-27.98608 v -2.01522 h -6.32362 -6.32361 v 1.94573 1.94572 h -3.26604 -3.26604 v -1.94572 -1.94573 h -6.53208 -6.53208 v 1.52878 1.52879 h -10.97859 -10.9786 l -0.0356,-10.59726 -0.0357,-10.59726 -53.22953,-0.0695 -53.22953,-0.0695 -0.16919,-1.25082 c -0.38029,-2.81126 -1.16535,-9.63533 -1.42301,-12.36927 -0.66077,-7.0115 -0.69041,-10.44954 -0.1415,-16.41648 0.23413,-2.54508 1.27706,-11.31184 1.63484,-13.74229 l 0.1023,-0.6949 68.06398,-0.0349 68.06398,-0.0349 v 22.30651 22.30652 h -3.82196 -3.82196 v 6.25412 6.25412 h 6.52901 6.52902 l 0.0378,-2.60588 0.0378,-2.60589 3.2313,-0.0373 3.2313,-0.0373 v 2.64319 2.64321 h 6.32361 6.32361 V 558.8811 537.75606 h 92.28306 92.28305 v 21.54198 21.54197 h -82.83237 -84.58353 v 4.44738 4.44737 h -7.69952 -9.45067 z m 4.30839,-76.2308 V 495.645 h 25.50292 25.50293 v 15.84378 15.84377 h -25.50293 -25.50292 z m 57.39895,0 V 495.645 h 25.43343 25.43344 v 15.84378 15.84377 H 637.9457 612.51227 Z m 56.14813,0 V 495.645 h 25.50292 25.50292 v 15.84378 15.84377 H 694.16332 668.6604 Z m -278.01917,2.32792 c 1.32333,-9.05353 2.52763,-15.27534 3.66528,-18.93609 0.88445,-2.84607 2.88075,-8.05169 5.10322,-13.30739 l 1.04317,-2.4669 h 31.11919 31.11921 v 19.38778 19.38778 h -36.32214 -36.32213 z m 78.30419,-15.3226 v -19.38778 h 27.51814 27.51814 v 19.38778 19.38778 h -27.51814 -27.51814 z"
       style="fill:#000000;fill-opacity:1;stroke-width:0.13898" />
  </g>
</svg>
