<?xml version="1.0" encoding="UTF-8" standalone="no"?>
<svg
   xmlns:dc="http://purl.org/dc/elements/1.1/"
   xmlns:cc="http://creativecommons.org/ns#"
   xmlns:rdf="http://www.w3.org/1999/02/22-rdf-syntax-ns#"
   xmlns:svg="http://www.w3.org/2000/svg"
   xmlns="http://www.w3.org/2000/svg"
   xmlns:sodipodi="http://sodipodi.sourceforge.net/DTD/sodipodi-0.dtd"
   xmlns:inkscape="http://www.inkscape.org/namespaces/inkscape"
   inkscape:version="1.0 (4035a4fb49, 2020-05-01)"
   sodipodi:docname="China_road_sign_ç¦-41.svg"
   viewBox="0 0 468.48264 468.48264"
   height="468.48264"
   width="468.48264"
   id="svg3921"
   version="1.1">
  <metadata
     id="metadata3927">
    <rdf:RDF>
      <cc:Work
         rdf:about="">
        <dc:format>image/svg+xml</dc:format>
        <dc:type
           rdf:resource="http://purl.org/dc/dcmitype/StillImage" />
        <dc:title></dc:title>
      </cc:Work>
    </rdf:RDF>
  </metadata>
  <defs
     id="defs3925" />
  <sodipodi:namedview
     inkscape:current-layer="g3929"
     inkscape:window-maximized="1"
     inkscape:window-y="-9"
     inkscape:window-x="-9"
     inkscape:cy="404.00484"
     inkscape:cx="151.07889"
     inkscape:zoom="0.89055794"
     showgrid="false"
     id="namedview3923"
     inkscape:window-height="1001"
     inkscape:window-width="1920"
     inkscape:pageshadow="2"
     inkscape:pageopacity="0"
     guidetolerance="10"
     gridtolerance="10"
     objecttolerance="10"
     borderopacity="1"
     bordercolor="#666666"
     pagecolor="#ffffff" />
  <g
     transform="translate(-0.84879798,2.7965734)"
     id="g3929"
     inkscape:label="Image"
     inkscape:groupmode="layer">
    <g
       transform="translate(2.07637,-5.19293)"
       id="g3276"
       inkscape:label="Image">
      <g
         transform="matrix(1.2901279,0,0,1.2901279,-1.2275844,2.3962852)"
         id="g3876">
        <path
           style="color:#000000;display:inline;overflow:visible;visibility:visible;opacity:1;fill:#ffffff;fill-opacity:1;stroke:#000000;stroke-width:1.21043;stroke-miterlimit:4;stroke-dasharray:none;stroke-opacity:1;marker:none;enable-background:accumulate"
           d="M 362.52362,181.56447 A 180.9592,180.9592 0 0 1 181.56442,362.52367 180.9592,180.9592 0 0 1 0.60522461,181.56447 180.9592,180.9592 0 0 1 181.56442,0.60527039 180.9592,180.9592 0 0 1 362.52362,181.56447 Z"
           id="path3003" />
        <path
           style="fill:#c0111e;fill-opacity:1;stroke:none;stroke-width:1.86839;stroke-linejoin:round;stroke-miterlimit:4;stroke-dasharray:none;stroke-opacity:1"
           d="M 74.383503,51.522905 313.31178,292.41302 294.49493,312.86457 56.383991,73.609129 Z"
           id="rect5725"
           inkscape:connector-curvature="0"
           sodipodi:nodetypes="ccccc" />
        <path
           inkscape:connector-curvature="0"
           style="color:#000000;display:inline;overflow:visible;visibility:visible;opacity:1;fill:#c0111e;fill-opacity:1;fill-rule:nonzero;stroke:none;stroke-width:0.605215px;marker:none;enable-background:accumulate"
           d="m 181.56437,6.0521836 c -96.932743,0 -175.5122602,78.5795154 -175.5122602,175.5122764 0,96.93275 78.5795172,175.51226 175.5122602,175.51226 96.93277,0 175.51229,-78.57951 175.51229,-175.51226 0,-96.932761 -78.57952,-175.5122764 -175.51229,-175.5122764 z m 0,29.6744324 c 80.54367,0 145.83785,65.294164 145.83785,145.837844 0,80.54367 -65.29418,145.83784 -145.83785,145.83784 -80.54367,0 -145.837832,-65.29417 -145.837832,-145.83784 0,-80.54368 65.294162,-145.837844 145.837832,-145.837844 z"
           id="path4775-9" />
      </g>
      <rect
         y="275.80981"
         x="301.52484"
         height="33.967468"
         width="25.686144"
         id="rect5964"
         style="fill:#ffffff;fill-opacity:1;fill-rule:evenodd;stroke-width:2" />
    </g>
    <path
       inkscape:connector-curvature="0"
       style="fill:#ffee33;fill-opacity:1;fill-rule:evenodd;stroke:none;stroke-width:5.09557"
       d="m 330.54634,205.7503 c -3.47425,11.30587 -14.2832,15.11098 -25.85544,15.11098 h -3.08854 c -6.94615,-5.07649 -133.52899,-3.51096 -134.6802,0.3916 -20.84421,5.85898 -44.00073,-8.08861 -44.00073,-29.9387 0,-3.50079 0.38774,-7.01181 1.54939,-10.52313 l -0.38774,0.39139 c -8.0993,-6.23994 -13.12188,-16.37157 -13.12188,-26.91611 0,-19.1004 15.04715,-34.31939 33.9554,-34.31939 l -0.38773,-0.39137 c 1.16148,-14.42573 12.74512,-25.742113 27.40502,-25.742113 8.10958,0 15.82144,3.521878 20.84401,9.761763 h 0.3771 c 0,-1.56538 -0.3771,-3.12009 -0.3771,-4.674713 0,-13.66432 9.25011,-24.970202 22.38249,-27.307278 5.39932,-1.173994 0,-0.391383 5.39932,-0.391383 13.12168,0 24.30779,9.360035 27.00732,22.220535 l -0.38774,0.391384 c 3.0975,-9.740712 12.3579,-15.980343 22.393,-15.980343 13.12207,0 23.92028,10.914347 23.92028,24.176628 0,1.17399 0,2.34794 -0.38571,3.90255 4.25643,-4.28323 9.65684,-6.63111 15.44298,-6.63111 11.57224,0 20.84356,9.35998 20.84356,21.05709 0,2.72856 -0.77359,5.8484 -2.32257,8.18574 3.47445,-1.55452 5.78613,-2.33734 9.26059,-2.33734 11.58299,0 20.84617,9.37059 20.84617,21.06767 0,6.23994 -3.08873,12.46902 -8.10055,16.38237 h -0.38572 c 5.39758,4.29379 8.48633,11.30563 8.48633,18.32823 0,13.25173 -10.80079,24.17694 -24.32063,24.17694 h -1.92446 l -0.38775,-0.39138"
       id="path3955"
       sodipodi:nodetypes="csccsccsccsccscsccsscsscssccsscc" />
    <path
       sodipodi:nodetypes="czczcaccccccccccsssccccaczczc"
       d="m 225.2594,132.04713 c 0,0 3.37434,4.59922 4.73077,6.05489 1.35642,1.45568 3.40778,2.67916 3.40778,2.67916 0,0 0.67967,-7.57252 1.50675,-11.17863 0.82709,-3.6061 3.45578,-10.45799 3.45578,-10.45799 0,0 3.61351,15.74607 3.27526,23.72088 -0.19296,4.54921 -3.00748,13.32473 -3.00748,13.32473 l 11.83936,-11.69499 0.33352,21.45698 9.66538,-5.63642 0.23103,3.27619 c -2.28263,7.90798 -5.76074,14.14229 -9.34447,20.22873 l 3.75768,2.07188 3.35725,-2.86742 0.23882,11.30742 -18.36134,11.11606 c 0,0 1.21148,-9.22259 -0.42013,-17.50265 -1.11191,-5.6427 -5.32328,-11.4785 -6.3289,-11.4785 -1.04478,0 -5.20431,4.72367 -6.79734,10.65274 -2.1903,8.15199 -1.34121,18.32841 -1.34121,18.32841 v 0 l -21.93824,-31.18897 16.65345,0.12097 c 0,0 -4.88081,-7.46224 -5.92247,-11.71082 -1.19912,-4.89078 -0.19117,-15.1057 -0.19117,-15.1057 0,0 5.16461,6.07727 7.02337,7.67311 1.85876,1.59584 4.1292,1.90195 4.1292,1.90195 0,0 -1.18124,-8.3488 -1.17335,-12.5308 0.008,-4.182 1.2207,-12.56121 1.2207,-12.56121 z"
       style="fill:#000000;fill-opacity:1;fill-rule:evenodd;stroke-width:3.41642"
       id="rect5128" />
    <path
       sodipodi:nodetypes="ccccc"
       inkscape:connector-curvature="0"
       style="fill:#000000;fill-opacity:1;fill-rule:evenodd;stroke:none;stroke-width:5.47825"
       d="m 215.11212,207.48025 -18.26217,3.99787 3.07834,-6.53538 15.42988,-2.16381 z"
       id="path3967" />
    <path
       id="path3967-3"
       d="m 274.26544,161.73308 -8.93262,0.3256 0.10082,-6.53538 9.5741,0.0197 z"
       style="fill:#000000;fill-opacity:1;fill-rule:evenodd;stroke:none;stroke-width:5.47825"
       inkscape:connector-curvature="0"
       sodipodi:nodetypes="ccccc" />
    <path
       sodipodi:nodetypes="ccccc"
       inkscape:connector-curvature="0"
       style="fill:#000000;fill-opacity:1;fill-rule:evenodd;stroke:none;stroke-width:5.47825"
       d="m 227.17106,116.38544 -8.93262,0.3256 -6.05271,-9.41365 14.63587,-0.27805 z"
       id="path3967-3-5" />
    <path
       id="path3967-3-5-8"
       d="m 176.18438,109.42446 19.38169,39.00552 -0.48109,7.83922 -28.2667,-46.49529 z"
       style="fill:#000000;fill-opacity:1;fill-rule:evenodd;stroke:none;stroke-width:5.47825"
       inkscape:connector-curvature="0"
       sodipodi:nodetypes="ccccc" />
    <path
       sodipodi:nodetypes="ccccc"
       inkscape:connector-curvature="0"
       style="fill:#000000;fill-opacity:1;fill-rule:evenodd;stroke:none;stroke-width:5.47825"
       d="m 147.99723,131.25958 47.17184,38.70776 -0.77884,5.06021 -52.28533,-38.456 z"
       id="path5191" />
    <path
       id="path5191-5"
       d="m 158.46084,168.16541 35.10076,26.63668 -3.30535,4.49876 -39.51244,-23.01624 z"
       style="fill:#000000;fill-opacity:1;fill-rule:evenodd;stroke:none;stroke-width:5.47825"
       inkscape:connector-curvature="0"
       sodipodi:nodetypes="ccccc" />
    <path
       sodipodi:nodetypes="ccccc"
       inkscape:connector-curvature="0"
       style="fill:#000000;fill-opacity:1;fill-rule:evenodd;stroke:none;stroke-width:5.47825"
       d="m 131.73225,140.19679 12.75783,22.17195 -4.73772,2.95267 -18.19738,-20.4452 z"
       id="path5191-5-6" />
    <path
       id="path5191-5-6-3"
       d="m 140.35305,197.92705 39.33979,5.16516 2.73972,3.87899 -46.16113,-4.83184 z"
       style="fill:#000000;fill-opacity:1;fill-rule:evenodd;stroke:none;stroke-width:5.47825"
       inkscape:connector-curvature="0"
       sodipodi:nodetypes="ccccc" />
    <path
       id="path3967-3-5-5"
       d="m 253.85974,116.38833 15.95069,1.02741 2.96476,-8.1504 -8.32284,-1.00555 -1.98031,-1.69844 -8.26284,0.46088 z"
       style="fill:#000000;fill-opacity:1;fill-rule:evenodd;stroke:none;stroke-width:5.47825"
       inkscape:connector-curvature="0"
       sodipodi:nodetypes="ccccccc" />
    <path
       sodipodi:nodetypes="ccccccc"
       inkscape:connector-curvature="0"
       style="fill:#000000;fill-opacity:1;fill-rule:evenodd;stroke:none;stroke-width:5.47825"
       d="m 310.14468,147.40821 17.63503,0.18525 0.29789,-8.71185 -10.00718,-1.00555 -0.29597,-2.54061 -8.26284,0.46088 z"
       id="path5268" />
    <path
       sodipodi:nodetypes="ccccc"
       inkscape:connector-curvature="0"
       style="fill:#000000;fill-opacity:1;fill-rule:evenodd;stroke:none;stroke-width:5.47825"
       d="m 320.16363,110.64151 -46.40913,31.20512 -5.37327,-0.49984 45.08554,-36.89536 z"
       id="path5270" />
    <path
       id="path5270-9"
       d="m 333.98397,169.12019 -61.00672,19.2744 -0.60098,-7.09683 60.94638,-29.73693 z"
       style="fill:#000000;fill-opacity:1;fill-rule:evenodd;stroke:none;stroke-width:5.47825"
       inkscape:connector-curvature="0"
       sodipodi:nodetypes="ccccc" />
    <path
       sodipodi:nodetypes="ccccc"
       inkscape:connector-curvature="0"
       style="fill:#000000;fill-opacity:1;fill-rule:evenodd;stroke:none;stroke-width:5.47825"
       d="m 322.05325,204.21056 -49.076,4.11536 -0.60098,-7.09683 48.73493,-4.47187 z"
       id="path5270-9-9" />
    <path
       d="m 258.8259,200.43614 h 6.03554 v 5.61446 h -6.03554 z"
       style="fill:#000000;fill-opacity:1;fill-rule:evenodd;stroke-width:2"
       id="rect5302" />
    <path
       id="path3169"
       d="m 157.67948,376.02317 c -0.74707,-0.0964 -2.07112,-0.47411 -2.87776,-0.82116 -3.37447,-1.45215 -5.89816,-4.85619 -6.4288,-8.67121 -0.07,-0.50143 -0.10697,-4.13037 -0.10697,-10.56404 v -9.80007 l -0.2229,-0.0449 c -0.12283,-0.025 -1.35681,-0.11622 -2.74268,-0.20152 -1.38585,-0.0858 -2.53731,-0.17341 -2.55883,-0.1948 -0.0541,-0.0554 -0.91163,-5.62439 -1.55622,-10.11411 -2.11736,-14.74937 -3.588,-28.10137 -4.30536,-39.08789 -0.36792,-5.63681 -0.44744,-7.96652 -0.44426,-13.02925 0,-4.86161 0.0132,-5.08255 0.21632,-5.82448 0.90449,-3.27237 4.15282,-7.18643 9.60357,-11.57168 0.93776,-0.75448 1.87923,-1.48702 2.09212,-1.62794 0.3806,-0.25184 0.38839,-0.26926 0.45548,-1.01964 0.0383,-0.41997 0.22213,-2.00221 0.41005,-3.51603 2.02042,-16.27203 5.20563,-28.84792 8.68005,-34.26986 0.49867,-0.77837 1.22421,-1.46101 3.05526,-2.87486 3.51563,-2.71468 8.6753,-5.46105 14.28398,-7.60309 12.16702,-4.64674 29.04998,-7.65181 49.02953,-8.7268 8.93427,-0.48083 21.9004,-0.47965 30.66589,0 15.88364,0.87385 28.57561,3.13991 40.22732,7.18234 7.50708,2.60439 11.87543,4.95232 15.01798,8.07176 1.96112,1.94674 2.52226,2.85612 3.46267,5.61094 0.73347,2.14929 0.98175,3.15786 2.02029,8.21096 3.03505,14.76732 6.25618,28.8874 6.63863,29.10135 0.07,0.0396 0.65819,0.46988 1.30675,0.95704 4.68927,3.52172 8.37855,7.40712 9.84365,10.36715 1.03524,2.0916 1.14775,2.97603 1.05953,8.32297 -0.0885,5.33716 -0.39499,10.09391 -1.10813,17.16517 -1.1801,11.70203 -3.46307,27.02877 -6.19187,41.56855 -0.32499,1.73173 -0.59084,3.16962 -0.59084,3.19537 0,0.0251 -1.55886,0.0462 -3.46399,0.0462 h -3.464 l -0.0357,10.18067 c -0.0317,9.121 -0.0528,10.25106 -0.20218,10.85682 -0.60313,2.45121 -1.54816,4.16063 -3.18627,5.76425 -1.44291,1.41254 -3.18297,2.35916 -5.14976,2.80183 -0.89512,0.20153 -3.12578,0.21963 -4.06698,0.0329 -2.02782,-0.40185 -3.94114,-1.43432 -5.4452,-2.93837 -1.56283,-1.56282 -2.54404,-3.41157 -3.10016,-5.84151 -0.13866,-0.60577 -0.16349,-1.97168 -0.19546,-10.77521 l -0.0369,-10.08164 H 233.9738 169.68013 l -0.0383,10.03211 c -0.0369,9.70855 -0.0449,10.06076 -0.24338,10.92379 -1.00143,4.36557 -3.91935,7.50391 -7.93391,8.5336 -0.95018,0.24378 -2.91064,0.38443 -3.78556,0.27165 z m 138.41778,-65.97574 v -6.98531 l -60.71267,0.0251 -60.71253,0.025 -0.025,6.83659 c -0.0145,3.76021 0,6.89245 0.0211,6.9606 0.0384,0.099 12.27676,0.12414 60.73816,0.12414 h 60.69101 z M 153.71352,299.44139 c 2.39984,-0.38919 4.63129,-1.52823 6.35774,-3.24491 1.46602,-1.45796 2.58525,-3.38897 3.11284,-5.37084 0.35578,-1.33633 0.44689,-3.61994 0.1977,-4.95417 -0.44346,-2.37409 -1.44991,-4.37008 -3.05645,-6.0614 -3.51457,-3.69985 -8.92938,-4.70261 -13.53123,-2.50549 -2.34291,1.11858 -4.21635,2.9302 -5.38391,5.20657 -0.90131,1.75709 -1.26831,3.32348 -1.26831,5.41375 0,4.60184 2.56833,8.61377 6.77703,10.58597 0.90423,0.42378 2.27358,0.84296 3.18071,0.97369 0.96789,0.13947 2.6085,0.12018 3.61388,-0.0436 z m 165.76442,0 c 4.92672,-0.79899 8.74701,-4.59393 9.67066,-9.6066 0.24035,-1.30398 0.15266,-3.5184 -0.19136,-4.83651 -0.88388,-3.38688 -3.1193,-6.12572 -6.24377,-7.64971 -3.23657,-1.57881 -6.89839,-1.59874 -10.13194,-0.0554 -1.28378,0.61277 -2.05463,1.13956 -3.04218,2.07852 -2.11313,2.00907 -3.39809,4.67765 -3.62141,7.52082 -0.33887,4.31116 1.57934,8.30128 5.1598,10.73269 1.25934,0.85524 3.28756,1.64286 4.78633,1.85891 0.96789,0.13945 2.6085,0.12017 3.61387,-0.0436 z m -23.59249,-5.37085 c 0.75116,-1.49388 1.52847,-3.80576 1.66293,-4.94559 0.0805,-0.68315 -0.1083,-1.90816 -0.50911,-3.30037 -0.37122,-1.28959 -1.1908,-3.56674 -1.36922,-3.80406 -0.0898,-0.12017 -0.90383,-0.26199 -3.43705,-0.60115 -18.52185,-2.48025 -35.98165,-4.26613 -48.0466,-4.91442 -10.92523,-0.58715 -23.00668,0.0291 -43.90155,2.23951 -8.87959,0.93936 -25.78658,2.99556 -26.07,3.17068 -0.1096,0.0674 -1.03787,2.9269 -1.27769,3.93717 -0.45786,1.92785 -0.44479,2.95687 0.0634,4.97333 0.25976,1.03088 0.98385,3.33973 1.14181,3.64122 0.0872,0.16482 3.08126,0.1734 60.77381,0.1734 h 60.68297 z M 168.33082,261.79415 c 23.79061,-2.00814 38.22513,-2.89058 57.66574,-3.52526 5.10724,-0.1668 23.52358,-0.23098 28.93204,-0.10037 18.40511,0.44254 35.29811,1.74177 50.2346,3.86348 0.70852,0.10037 1.30372,0.16957 1.32274,0.15306 0.0726,-0.0621 -6.07551,-31.10897 -6.17378,-31.1779 -0.0568,-0.0396 -1.23992,-0.44915 -2.62961,-0.90964 -19.4805,-6.45441 -46.77246,-9.54665 -73.07304,-8.27925 -15.6705,0.75527 -31.79845,2.90788 -47.13365,6.29118 -3.91049,0.86277 -9.40283,2.23568 -9.44587,2.36113 -0.0463,0.13339 -4.60421,31.46488 -4.60395,31.64462 0,0.0845 0.12678,0.10697 0.42128,0.0726 0.23163,-0.0277 2.24914,-0.20417 4.4835,-0.39275 z"
       style="fill:#000000;fill-opacity:1;stroke-width:0.099082" />
  </g>
</svg>
