<?xml version="1.0" encoding="UTF-8"?>
<!DOCTYPE svg PUBLIC "-//W3C//DTD SVG 1.1//EN" "http://www.w3.org/Graphics/SVG/1.1/DTD/svg11.dtd">
<!-- Creator: CorelDRAW X7 -->
<svg xmlns="http://www.w3.org/2000/svg" xml:space="preserve" width="151.553mm" height="134.62mm" version="1.1" style="shape-rendering:geometricPrecision; text-rendering:geometricPrecision; image-rendering:optimizeQuality; fill-rule:evenodd; clip-rule:evenodd"
viewBox="0 0 15155 13462"
 xmlns:xlink="http://www.w3.org/1999/xlink">
 <defs>
  <style type="text/css">
   <![CDATA[
    .fil1 {fill:black}
    .fil0 {fill:#FFF543}
   ]]>
  </style>
 </defs>
 <g id="图层_x0020_1">
  <metadata id="CorelCorpID_0Corel-Layer"/>
  <path class="fil0" d="M8129 551l3428 5936 3437 5952c115,200 115,428 -2,627 -117,199 -317,313 -549,313l-6865 0 -6864 0c-233,0 -433,-114 -550,-313 -116,-199 -117,-427 -2,-627l3437 -5952 3428 -5936c116,-202 317,-317 551,-317 234,0 435,115 551,317z"/>
  <path class="fil1" d="M8122 912l3279 5679 3287 5693c110,191 110,409 -2,600 -112,190 -303,299 -525,299l-6566 0 -6566 0c-223,0 -414,-109 -526,-299 -111,-191 -112,-409 -2,-600l3287 -5693 3279 -5679c111,-192 304,-302 528,-302 224,0 416,110 527,302z"/>
  <polygon class="fil0" points="7573,2356 10324,7178 13076,12001 7573,12001 2070,12001 4821,7178 "/>
  <rect class="fil1" x="6536" y="5377" width="1101" height="6265"/>
  <rect class="fil1" x="4652" y="9065" width="1892" height="1048"/>
  <rect class="fil1" x="7455" y="6736" width="1871" height="1016"/>
 </g>
</svg>
