<?xml version="1.0" encoding="UTF-8" standalone="no"?>
<!-- Created with Inkscape (http://www.inkscape.org/) -->

<svg
   xmlns:dc="http://purl.org/dc/elements/1.1/"
   xmlns:cc="http://creativecommons.org/ns#"
   xmlns:rdf="http://www.w3.org/1999/02/22-rdf-syntax-ns#"
   xmlns:svg="http://www.w3.org/2000/svg"
   xmlns="http://www.w3.org/2000/svg"
   xmlns:sodipodi="http://sodipodi.sourceforge.net/DTD/sodipodi-0.dtd"
   xmlns:inkscape="http://www.inkscape.org/namespaces/inkscape"
   version="1.1"
   id="svg5439"
   width="180.77341"
   height="180.77339"
   viewBox="0 0 180.77341 180.77339"
   sodipodi:docname="China_road_sign_示_19.svg"
   inkscape:version="0.92.3 (2405546, 2018-03-11)">
  <metadata
     id="metadata5445">
    <rdf:RDF>
      <cc:Work
         rdf:about="">
        <dc:format>image/svg+xml</dc:format>
        <dc:type
           rdf:resource="http://purl.org/dc/dcmitype/StillImage" />
        <dc:title></dc:title>
      </cc:Work>
    </rdf:RDF>
  </metadata>
  <defs
     id="defs5443" />
  <sodipodi:namedview
     pagecolor="#ffffff"
     bordercolor="#666666"
     borderopacity="1"
     objecttolerance="10"
     gridtolerance="10"
     guidetolerance="10"
     inkscape:pageopacity="0"
     inkscape:pageshadow="2"
     inkscape:window-width="1366"
     inkscape:window-height="706"
     id="namedview5441"
     showgrid="false"
     inkscape:zoom="0.6519337"
     inkscape:cx="89.515494"
     inkscape:cy="83.830152"
     inkscape:window-x="-8"
     inkscape:window-y="-8"
     inkscape:window-maximized="1"
     inkscape:current-layer="svg5439" />
  <path
     inkscape:connector-curvature="0"
     style="fill:#253898;fill-opacity:1;fill-rule:nonzero;stroke:none;stroke-width:0.08733014"
     d="M 7.8597116,180.77339 C 3.5258229,180.77339 0,177.24745 0,172.91366 V 7.8597135 C 0,3.5258181 3.5258229,0 7.8597116,0 H 172.91367 c 4.33377,0 7.85974,3.5258181 7.85974,7.8597135 V 172.91366 c 0,4.33379 -3.52597,7.85973 -7.85974,7.85973 z"
     id="path13" />
  <rect
     style="fill:#000064;fill-opacity:1;stroke-width:0.08733014"
     id="rect3707"
     width="31.083611"
     height="32.563782"
     x="64.323738"
     y="102.6494" />
  <path
     sodipodi:nodetypes="cccc"
     inkscape:connector-curvature="0"
     id="path1968-0-3"
     d="M 20.529109,151.67055 162.73954,151.45792 91.301386,26.416376 Z"
     style="fill:#ffffff;fill-opacity:1;fill-rule:nonzero;stroke:none;stroke-width:0.27174389" />
  <circle
     id="path3735"
     cx="93.472267"
     cy="67.154724"
     r="8.241044"
     style="fill:#000000;fill-opacity:1;stroke-width:0.47605824" />
  <path
     id="rect4542"
     style="fill:#000000;fill-opacity:1;stroke-width:1.12371099"
     d="m 90.016866,76.919487 -7.034555,10.916966 -11.050675,9.040033 c 0,0 -1.38554,1.888729 -0.479712,3.850734 0.846265,1.83321 3.97355,0.15069 3.97355,0.15069 l 10.223411,-5.687215 0.682653,10.797505 -7.256588,8.47661 -3.191679,20.03037 c 0,0 0.491628,2.9957 2.921534,3.68465 2.181242,0.61837 3.700273,-2.65736 3.700273,-2.65736 l 2.5797,-15.2819 6.786094,-8.67089 1.962673,-0.35936 -0.147435,9.88022 6.95881,15.87421 c 0,0 2.48115,3.61713 5.17952,2.63893 2.35069,-0.85211 2.24416,-4.9223 2.24416,-4.9223 l -7.06499,-13.81593 0.0798,-13.54654 -1.781981,-16.259436 1.863331,0.319702 2.99851,3.63419 0.14036,9.024864 c 0,0 0.15687,3.14437 3.66655,3.46328 2.66984,0.2425 2.7804,-3.39058 2.7804,-3.39058 l 0.0202,-11.733889 c -3.66657,-5.836457 -9.45873,-15.168313 -11.518937,-15.864108 -3.264044,-0.514318 -6.474604,-0.841316 -9.235111,0.406554 z"
     inkscape:connector-curvature="0"
     sodipodi:nodetypes="cccscccccsccccccscccccccscccc" />
  <path
     id="rect4551"
     style="fill:#000000;fill-opacity:1;stroke-width:1.12371099"
     d="m 124.74089,117.06339 14.90691,30.0841 9.21658,0.1354 -14.90693,-29.81306 z"
     inkscape:connector-curvature="0"
     sodipodi:nodetypes="ccccc" />
  <path
     id="rect4551-8"
     style="fill:#000000;fill-opacity:1;stroke-width:1.12371099"
     d="m 102.51578,117.26667 14.90692,30.0841 9.21658,0.13552 -14.90694,-29.81306 z"
     inkscape:connector-curvature="0"
     sodipodi:nodetypes="ccccc" />
  <path
     id="rect4551-8-7"
     style="fill:#000000;fill-opacity:1;stroke-width:1.12371099"
     d="m 86.660337,128.24353 8.67314,19.24276 9.216563,0.13552 -14.906923,-29.81308 z"
     inkscape:connector-curvature="0"
     sodipodi:nodetypes="ccccc" />
  <path
     id="rect4551-8-6"
     style="fill:#000000;fill-opacity:1;stroke-width:1.12371099"
     d="m 57.117643,117.80873 14.906921,30.08412 9.216565,0.13551 -14.906925,-29.81305 z"
     inkscape:connector-curvature="0"
     sodipodi:nodetypes="ccccc" />
  <path
     id="rect4551-8-6-0"
     style="fill:#000000;fill-opacity:1;stroke-width:1.12371099"
     d="m 39.771475,130.1408 9.621777,17.48101 9.216564,0.13552 -13.958288,-25.20551 z"
     inkscape:connector-curvature="0"
     sodipodi:nodetypes="ccccc" />
</svg>
