<?xml version="1.0" encoding="UTF-8" standalone="no"?>
<!-- Generator: Adobe Illustrator 16.0.4, SVG Export Plug-In . SVG Version: 6.00 Build 0)  -->

<svg
   xmlns:dc="http://purl.org/dc/elements/1.1/"
   xmlns:cc="http://creativecommons.org/ns#"
   xmlns:rdf="http://www.w3.org/1999/02/22-rdf-syntax-ns#"
   xmlns:svg="http://www.w3.org/2000/svg"
   xmlns="http://www.w3.org/2000/svg"
   xmlns:sodipodi="http://sodipodi.sourceforge.net/DTD/sodipodi-0.dtd"
   xmlns:inkscape="http://www.inkscape.org/namespaces/inkscape"
   version="1.1"
   x="0px"
   y="0px"
   width="182px"
   height="161px"
   viewBox="0 0 182 161"
   enable-background="new 0 0 182 161"
   xml:space="preserve"
   id="svg4684"
   sodipodi:docname="China_road_sign_警_10.svg"
   inkscape:version="0.92.3 (2405546, 2018-03-11)"><metadata
   id="metadata4690"><rdf:RDF><cc:Work
       rdf:about=""><dc:format>image/svg+xml</dc:format><dc:type
         rdf:resource="http://purl.org/dc/dcmitype/StillImage" /><dc:title></dc:title></cc:Work></rdf:RDF></metadata><defs
   id="defs4688" /><sodipodi:namedview
   pagecolor="#ffffff"
   bordercolor="#666666"
   borderopacity="1"
   objecttolerance="10"
   gridtolerance="10"
   guidetolerance="10"
   inkscape:pageopacity="0"
   inkscape:pageshadow="2"
   inkscape:window-width="1366"
   inkscape:window-height="706"
   id="namedview4686"
   showgrid="false"
   inkscape:zoom="2.0730087"
   inkscape:cx="91"
   inkscape:cy="81.470538"
   inkscape:window-x="-8"
   inkscape:window-y="-8"
   inkscape:window-maximized="1"
   inkscape:current-layer="svg4684" />
<g
   id="Layer_1">
	<path
   fill="#FFEE33"
   d="M179.507,145.311L99.369,5.934c-1.784-3.103-5.09-5.016-8.669-5.016s-6.885,1.913-8.669,5.016   L1.893,145.311c-1.779,3.094-1.774,6.902,0.013,9.992s5.086,4.992,8.656,4.992h160.276c3.569,0,6.868-1.902,8.655-4.992   C181.281,152.213,181.286,148.405,179.507,145.311z"
   id="path4668" />
	<path
   d="M170.838,157.295H10.562c-2.499,0-4.808-1.332-6.059-3.494c-1.251-2.163-1.255-4.829-0.009-6.995L84.632,7.429   c1.249-2.172,3.563-3.511,6.068-3.511c2.505,0,4.819,1.339,6.068,3.511l80.138,139.377c1.245,2.166,1.242,4.832-0.01,6.995   C175.646,155.963,173.337,157.295,170.838,157.295z M22.662,143.295h136.077L90.7,24.961L22.662,143.295z"
   id="path4670" />
</g>

<circle
   id="path3735"
   cx="89.980515"
   cy="69.330086"
   r="7.333776"
   style="fill:#000000;fill-opacity:1;stroke-width:0.4236483" /><path
   id="rect4542"
   style="fill:#000000;fill-opacity:1"
   d="m 86.905479,78.019875 -6.260052,9.715111 -9.834185,8.044785 c 0,0 -1.232952,1.680823 -0.426891,3.426853 0.753139,1.631396 3.536107,0.134043 3.536107,0.134043 l 9.097896,-5.061071 0.607541,9.608794 -6.457676,7.54341 -2.840375,17.82518 c 0,0 0.437524,2.66592 2.599938,3.27898 1.941127,0.55033 3.292914,-2.36478 3.292914,-2.36478 l 2.295681,-13.59948 6.039019,-7.71625 1.746592,-0.31984 -0.131187,8.79254 6.19273,14.1266 c 0,0 2.207946,3.21889 4.609249,2.34838 2.09195,-0.75836 1.99711,-4.38045 1.99711,-4.38045 l -6.287178,-12.2949 0.0709,-12.05518 -1.585844,-14.469389 1.658178,0.284529 2.668481,3.234043 0.12487,8.031357 c 0,0 0.13963,2.79815 3.262913,3.08192 2.37584,0.21586 2.47429,-3.01726 2.47429,-3.01726 l 0.0182,-10.442128 c -3.2629,-5.193903 -8.417453,-13.4984 -10.250782,-14.11759 -2.904716,-0.457729 -5.761779,-0.748674 -8.218439,0.361793 z"
   inkscape:connector-curvature="0"
   sodipodi:nodetypes="cccscccccsccccccscccccccscccc" /><path
   id="rect4551"
   style="fill:#000000;fill-opacity:1"
   d="m 117.80674,113.74426 13.26574,26.7721 8.2019,0.12059 -13.26574,-26.53091 z"
   inkscape:connector-curvature="0"
   sodipodi:nodetypes="ccccc" /><path
   id="rect4551-8"
   style="fill:#000000;fill-opacity:1"
   d="m 98.028438,113.92522 13.265742,26.7721 8.2019,0.12059 -13.26574,-26.53091 z"
   inkscape:connector-curvature="0"
   sodipodi:nodetypes="ccccc" /><path
   id="rect4551-8-7"
   style="fill:#000000;fill-opacity:1"
   d="m 83.918514,123.69363 7.718247,17.12429 8.201896,0.12059 -13.265736,-26.53091 z"
   inkscape:connector-curvature="0"
   sodipodi:nodetypes="ccccc" /><path
   id="rect4551-8-6"
   style="fill:#000000;fill-opacity:1"
   d="m 57.628223,114.40761 13.265739,26.7721 8.2019,0.12059 -13.26574,-26.53091 z"
   inkscape:connector-curvature="0"
   sodipodi:nodetypes="ccccc" /><path
   id="rect4551-8-6-0"
   style="fill:#000000;fill-opacity:1"
   d="m 42.191724,125.382 8.56243,15.55652 8.2019,0.12059 -12.421556,-22.43059 z"
   inkscape:connector-curvature="0"
   sodipodi:nodetypes="ccccc" /></svg>