<?xml version="1.0" encoding="utf-8"?>
<!-- Generator: Adobe Illustrator 16.0.4, SVG Export Plug-In . SVG Version: 6.00 Build 0)  -->
<!DOCTYPE svg PUBLIC "-//W3C//DTD SVG 1.1//EN" "http://www.w3.org/Graphics/SVG/1.1/DTD/svg11.dtd">
<svg version="1.1" xmlns="http://www.w3.org/2000/svg" xmlns:xlink="http://www.w3.org/1999/xlink" x="0px" y="0px" width="182px"
	 height="161px" viewBox="0 0 182 161" enable-background="new 0 0 182 161" xml:space="preserve">
<g id="Layer_1">
	<path fill="#FFEE33" d="M179.507,145.311L99.369,5.934c-1.784-3.103-5.09-5.016-8.669-5.016s-6.885,1.913-8.669,5.016
		L1.893,145.311c-1.779,3.094-1.774,6.902,0.013,9.992s5.086,4.992,8.656,4.992h160.276c3.569,0,6.868-1.902,8.655-4.992
		C181.281,152.213,181.286,148.405,179.507,145.311z"/>
	<path d="M170.838,157.295H10.562c-2.499,0-4.808-1.332-6.059-3.494c-1.251-2.163-1.255-4.829-0.009-6.995L84.632,7.429
		c1.249-2.172,3.563-3.511,6.068-3.511c2.505,0,4.819,1.339,6.068,3.511l80.138,139.377c1.245,2.166,1.242,4.832-0.01,6.995
		C175.646,155.963,173.337,157.295,170.838,157.295z M22.662,143.295h136.077L90.7,24.961L22.662,143.295z"/>
</g>
<g id="Layer_3">
	<g>
		<polygon points="103.075,88.5 103.075,62.5 95.075,62.5 95.075,93.25 105.325,108.991 105.325,135.75 113.325,135.75 113.325,105 
					"/>
		<rect x="78.324" y="62.5" width="8" height="73.25"/>
	</g>
</g>
</svg>
