<?xml version="1.0" encoding="utf-8"?>
<!-- Generator: Adobe Illustrator 16.0.4, SVG Export Plug-In . SVG Version: 6.00 Build 0)  -->
<!DOCTYPE svg PUBLIC "-//W3C//DTD SVG 1.1//EN" "http://www.w3.org/Graphics/SVG/1.1/DTD/svg11.dtd">
<svg version="1.1" xmlns="http://www.w3.org/2000/svg" xmlns:xlink="http://www.w3.org/1999/xlink" x="0px" y="0px" width="182px"
	 height="161px" viewBox="0 0 182 161" enable-background="new 0 0 182 161" xml:space="preserve">
<g id="Layer_1">
	<path fill="#FFEE33" d="M179.507,145.311L99.369,5.934c-1.784-3.103-5.09-5.016-8.669-5.016s-6.885,1.913-8.669,5.016
		L1.893,145.311c-1.779,3.094-1.774,6.902,0.013,9.992s5.086,4.992,8.656,4.992h160.276c3.569,0,6.868-1.902,8.655-4.992
		C181.281,152.213,181.286,148.405,179.507,145.311z"/>
	<path d="M170.838,157.295H10.562c-2.499,0-4.808-1.332-6.059-3.494c-1.251-2.163-1.255-4.829-0.009-6.995L84.632,7.429
		c1.249-2.172,3.563-3.511,6.068-3.511c2.505,0,4.819,1.339,6.068,3.511l80.138,139.377c1.245,2.166,1.242,4.832-0.01,6.995
		C175.646,155.963,173.337,157.295,170.838,157.295z M22.662,143.295h136.077L90.7,24.961L22.662,143.295z"/>
</g>
<g id="Layer_3">
	<g>
		<polygon points="26.741,141.167 155.084,141.167 124.325,86.977 120.583,91 119.416,96.667 115.083,98.667 112.25,100.5 
			111.416,103.834 113.083,109.334 110.916,121 103.083,120.834 100.25,121.667 96.583,125 96.916,129.167 93.416,130.334 
			91.25,134.042 30.652,134.042 		"/>
	</g>
	<g>
		<polygon points="105.25,113.501 105.25,115.5 113.25,121.5 118.25,113.75 108.833,108.5 106.583,110.75 83.917,99.167 
			81.167,98.081 82,101.333 		"/>
	</g>
	<circle cx="92.46" cy="71.032" r="7.167"/>
	<path d="M97.416,106.914l-6.333-3l-2.833-6.833l-0.333-2.833l-1.833-0.084l-0.75,2.25l-1.917,4l1.167,4.417l4.083,5.166
		l-0.917,2.334l0.167,15.083L87,129.164l-0.417,6.584l-6.917-0.084l0.083-22.833l-6.167-5.667l-7.417,15.334l-3.584,9.501
		l-0.833,3.585L57,135.25l-0.583-3.833l0.667-5.086l8.083-25.417l4.667-5.414l-0.417-2.333l-4.354-6.641l-0.027-2.855l2.204-2.312
		l5.344-2.361L80.833,76L87,78.081l3.917,4.669l2.417,11.917l4.333,8.833L97.416,106.914z M74.523,87.829l1.917-2.75l-3.273,0.172
		l0.083,3.416L74.523,87.829z"/>
</g>
</svg>
