<?xml version="1.0" encoding="utf-8"?>
<!-- Generator: Adobe Illustrator 16.0.4, SVG Export Plug-In . SVG Version: 6.00 Build 0)  -->
<!DOCTYPE svg PUBLIC "-//W3C//DTD SVG 1.1//EN" "http://www.w3.org/Graphics/SVG/1.1/DTD/svg11.dtd">
<svg version="1.1" id="Layer_1" xmlns="http://www.w3.org/2000/svg" xmlns:xlink="http://www.w3.org/1999/xlink" x="0px" y="0px"
	 width="182px" height="161px" viewBox="5 2.667 182 161" enable-background="new 5 2.667 182 161" xml:space="preserve">
<g id="Layer_1_1_">
	<path fill="#FFEE33" d="M185.257,147.811L105.119,8.434c-1.784-3.103-5.09-5.016-8.669-5.016s-6.885,1.913-8.669,5.016
		L7.643,147.811c-1.779,3.095-1.774,6.902,0.013,9.992c1.787,3.09,5.086,4.992,8.656,4.992h160.276c3.569,0,6.868-1.902,8.655-4.992
		C187.031,154.713,187.036,150.905,185.257,147.811z"/>
	<path d="M176.588,159.795H16.312c-2.499,0-4.808-1.332-6.059-3.494s-1.255-4.828-0.009-6.994L90.382,9.929
		c1.249-2.172,3.563-3.511,6.068-3.511c2.505,0,4.819,1.339,6.067,3.511l80.139,139.377c1.244,2.166,1.242,4.832-0.01,6.994
		C181.396,158.463,179.087,159.795,176.588,159.795z M28.412,145.795h136.077L96.45,27.461L28.412,145.795z"/>
</g>
<g id="Layer_3">
	<g>
		<path d="M100.092,135.984l-0.467-7.116c9.768,0.233,19.623-9.933,19.623-22.615v-2.997h7v2.997
			C126.248,122.795,113.718,136.218,100.092,135.984z"/>
		<g>
			<polygon points="132.288,115.92 123.084,105.018 112.186,114.227 112.866,104.868 123.764,95.663 132.969,106.562 			"/>
		</g>
	</g>
	<g>
		<path d="M119.725,88.291l-5.93,3.963c-4.682-8.576-18.413-12.028-29.396-5.688l-2.596,1.5l-3.5-6.063l2.596-1.499
			C95.224,72.234,113.113,76.374,119.725,88.291z"/>
		<g>
			<polygon points="86.25,70.441 81.41,83.864 94.835,88.697 86.39,92.787 72.969,87.951 77.805,74.53 			"/>
		</g>
	</g>
	<g>
		<path d="M68.812,94.949l6.396,3.152c-5.086,8.344-1.21,21.961,9.773,28.304l2.596,1.497l-3.5,6.062l-2.596-1.498
			C67.155,124.195,61.796,106.634,68.812,94.949z"/>
		<g>
			<polygon points="70.09,132.864 84.135,130.345 81.607,116.302 89.371,121.57 91.895,135.609 77.854,138.134 			"/>
		</g>
	</g>
</g>
</svg>
