<?xml version="1.0" encoding="utf-8"?>
<!-- Generator: Adobe Illustrator 16.0.4, SVG Export Plug-In . SVG Version: 6.00 Build 0)  -->
<!DOCTYPE svg PUBLIC "-//W3C//DTD SVG 1.1//EN" "http://www.w3.org/Graphics/SVG/1.1/DTD/svg11.dtd">
<svg version="1.1" id="Layer_1" xmlns="http://www.w3.org/2000/svg" xmlns:xlink="http://www.w3.org/1999/xlink" x="0px" y="0px"
	 width="182px" height="161px" viewBox="5 2.819 182 161" enable-background="new 5 2.819 182 161" xml:space="preserve">
<g id="Layer_1_1_">
	<path fill="#FFEE33" d="M185.257,147.811L105.119,8.434c-1.784-3.103-5.09-5.016-8.669-5.016s-6.885,1.913-8.669,5.016
		L7.643,147.811c-1.779,3.095-1.774,6.902,0.013,9.992c1.787,3.09,5.086,4.992,8.656,4.992h160.276c3.569,0,6.868-1.902,8.655-4.992
		C187.031,154.713,187.036,150.905,185.257,147.811z"/>
	<path d="M176.588,159.795H16.312c-2.499,0-4.808-1.332-6.059-3.494s-1.255-4.828-0.009-6.994L90.382,9.929
		c1.249-2.172,3.563-3.511,6.068-3.511c2.505,0,4.819,1.339,6.067,3.511l80.139,139.377c1.244,2.166,1.242,4.832-0.01,6.994
		C181.396,158.463,179.087,159.795,176.588,159.795z M28.412,145.795h136.077L96.45,27.461L28.412,145.795z"/>
</g>
<g id="Layer_3">
	<polygon points="71.729,81.933 121.055,81.933 121.055,98.5 101.367,98.5 101.367,137.854 91.395,137.854 91.395,98.5 71.729,98.5 
			"/>
</g>
</svg>
