<?xml version="1.0" encoding="utf-8"?>
<!-- Generator: Adobe Illustrator 16.0.4, SVG Export Plug-In . SVG Version: 6.00 Build 0)  -->
<!DOCTYPE svg PUBLIC "-//W3C//DTD SVG 1.1//EN" "http://www.w3.org/Graphics/SVG/1.1/DTD/svg11.dtd">
<svg version="1.1" xmlns="http://www.w3.org/2000/svg" xmlns:xlink="http://www.w3.org/1999/xlink" x="0px" y="0px" width="182px"
	 height="161px" viewBox="0 0 182 161" enable-background="new 0 0 182 161" xml:space="preserve">
<g id="Layer_1">
	<path fill="#FFEE33" d="M179.507,145.311L99.369,5.934c-1.784-3.103-5.09-5.016-8.669-5.016s-6.885,1.913-8.669,5.016
		L1.893,145.311c-1.779,3.094-1.774,6.902,0.013,9.992s5.086,4.992,8.656,4.992h160.276c3.569,0,6.868-1.902,8.655-4.992
		C181.281,152.213,181.286,148.405,179.507,145.311z"/>
	<path d="M170.838,157.295H10.562c-2.499,0-4.808-1.332-6.059-3.494c-1.251-2.163-1.255-4.829-0.009-6.995L84.632,7.429
		c1.249-2.172,3.563-3.511,6.068-3.511c2.505,0,4.819,1.339,6.068,3.511l80.138,139.377c1.245,2.166,1.242,4.832-0.01,6.995
		C175.646,155.963,173.337,157.295,170.838,157.295z M22.662,143.295h136.077L90.7,24.961L22.662,143.295z"/>
</g>
<g id="Layer_3">
	<rect id="rect3769" x="78.161" y="66.75" width="26" height="57.75"/>
	<path d="M78.161,66.75c0-7.18,5.82-13,13-13s13,5.82,13,13"/>
	<path d="M104.161,124.5c0,7.18-5.82,13-13,13s-13-5.82-13-13"/>
	<g>
		
			<path id="path3771" sodipodi:ry="37.375645" sodipodi:rx="36.36549" sodipodi:cx="595.98999" sodipodi:cy="182.80719" sodipodi:type="arc" fill="#CC0000" d="
			M101.677,67.829c0,5.808-4.708,10.516-10.516,10.516s-10.516-4.708-10.516-10.516c0-5.807,4.708-10.515,10.516-10.515
			S101.677,62.022,101.677,67.829z"/>
		
			<path id="path3773" sodipodi:ry="37.375645" sodipodi:rx="36.36549" sodipodi:cx="595.98999" sodipodi:cy="182.80719" sodipodi:type="arc" fill="#FFFF00" d="
			M101.677,95.585c0,5.809-4.708,10.515-10.516,10.515s-10.516-4.706-10.516-10.515c0-5.807,4.708-10.516,10.516-10.516
			S101.677,89.778,101.677,95.585z"/>
		
			<path id="path3790" sodipodi:ry="37.375645" sodipodi:rx="36.36549" sodipodi:cx="595.98999" sodipodi:cy="182.80719" sodipodi:type="arc" fill="#009933" d="
			M101.677,123.339c0,5.809-4.708,10.516-10.516,10.516s-10.516-4.707-10.516-10.516c0-5.807,4.708-10.516,10.516-10.516
			S101.677,117.532,101.677,123.339z"/>
	</g>
</g>
</svg>
