<?xml version="1.0" encoding="UTF-8" standalone="no"?>
<svg
   xmlns:dc="http://purl.org/dc/elements/1.1/"
   xmlns:cc="http://creativecommons.org/ns#"
   xmlns:rdf="http://www.w3.org/1999/02/22-rdf-syntax-ns#"
   xmlns:svg="http://www.w3.org/2000/svg"
   xmlns="http://www.w3.org/2000/svg"
   xmlns:sodipodi="http://sodipodi.sourceforge.net/DTD/sodipodi-0.dtd"
   xmlns:inkscape="http://www.inkscape.org/namespaces/inkscape"
   width="90"
   height="90.001877"
   viewBox="0 0 254.00004 254.00529"
   version="1.1"
   id="svg2"
   inkscape:version="0.48.2 r9819"
   sodipodi:docname="AJAX1.svg">
  <metadata
     id="metadata62">
    <rdf:RDF>
      <cc:Work
         rdf:about="">
        <dc:format>image/svg+xml</dc:format>
        <dc:type
           rdf:resource="http://purl.org/dc/dcmitype/StillImage" />
        <dc:title></dc:title>
      </cc:Work>
    </rdf:RDF>
  </metadata>
  <defs
     id="defs60" />
  <sodipodi:namedview
     pagecolor="#ffffff"
     bordercolor="#666666"
     borderopacity="1"
     objecttolerance="10"
     gridtolerance="10"
     guidetolerance="10"
     inkscape:pageopacity="0"
     inkscape:pageshadow="2"
     inkscape:window-width="1280"
     inkscape:window-height="1004"
     id="namedview58"
     showgrid="false"
     fit-margin-top="0"
     fit-margin-left="0"
     fit-margin-right="0"
     fit-margin-bottom="0"
     inkscape:zoom="4"
     inkscape:cx="55.054422"
     inkscape:cy="39.055442"
     inkscape:window-x="-8"
     inkscape:window-y="-8"
     inkscape:window-maximized="1"
     inkscape:current-layer="svg2" />
  <!-- draw the bicycle -->
  <!-- RIGHT -->
  <!-- LANE -->
  <!-- ONLY -->
  <path
     d="M 250.36466,118.18849 135.81065,3.6380016 c -4.84717,-4.8507 -12.77762,-4.8507 -17.62478,0 L 3.6353775,118.18849 c -4.84717,4.84364 -4.84717,12.77408 0,17.62478 L 118.18587,250.36729 c 4.84716,4.85069 12.77761,4.85069 17.62478,0 L 250.36466,135.81327 c 4.84717,-4.8507 4.84717,-12.78114 0,-17.62478"
     style="fill:#ffd033;fill-opacity:1;fill-rule:nonzero;stroke:none"
     id="path3327"
     inkscape:connector-curvature="0" />
  <path
     d="M 247.60171,120.0053 133.98961,6.3931916 c -3.84528,-3.84528 -10.13531,-3.84528 -13.98412,0 L 6.3969175,120.0053 c -3.84528,3.84527 -3.84528,10.14236 0,13.98764 L 120.00549,247.61209 c 3.84881,3.84528 10.13884,3.84528 13.98412,0 l 113.6121,-113.61915 c 3.84527,-3.84528 3.84527,-10.14237 0,-13.98764"
     style="fill:#000000;fill-opacity:1;fill-rule:evenodd;stroke:none"
     id="path3351"
     inkscape:connector-curvature="0" />
  <path
     d="M 244.05313,123.50485 130.49395,9.9491916 c -1.92264,-1.92264 -5.06589,-1.92264 -6.98853,0 L 9.9497575,123.50485 c -1.92264,1.92264 -1.92264,5.06589 0,6.98853 L 123.50542,244.05609 c 1.92264,1.92264 5.06589,1.92264 6.98853,0 L 244.05313,130.49338 c 1.91911,-1.92264 1.91911,-5.06589 0,-6.98853"
     style="fill:#ffd033;fill-opacity:1;fill-rule:evenodd;stroke:none"
     id="path3355"
     inkscape:connector-curvature="0" />
  <path
     d="m 160.61304,121.61043 c 0.0212,17.42017 0.0459,34.82976 0.0635,52.24287 l 19.91784,0 c 0.004,-17.43428 0.007,-34.87208 0.0141,-52.30284 0,-28.864279 -26.56064,-52.278149 -58.98798,-52.278149 -32.427343,0 -58.871563,23.5444 -58.871563,52.408679 0,27.05806 23.24453,49.44181 52.867283,52.13704 l -3.13972,11.29947 c -0.34925,1.38642 -0.48683,2.54353 0.27517,3.66536 1.143,1.68275 3.44311,2.12372 5.12586,0.98072 l 38.13881,-25.84097 -38.13881,-25.79512 c -1.68275,-1.143 -3.98286,-0.70908 -5.12586,0.97014 -0.79728,1.17828 -0.62089,2.30364 -0.19403,3.82411 l 3.15031,10.85145 c -18.658423,-2.38831 -33.020012,-15.88559 -33.020012,-32.0922 0,-17.88231 17.487202,-32.466149 38.932562,-32.466149 21.44537,0 38.93609,14.583839 38.99253,32.395589"
     style="fill:#000000;fill-opacity:1;fill-rule:evenodd;stroke:none"
     id="path3359"
     inkscape:connector-curvature="0" />
</svg>
