<?xml version="1.0" encoding="utf-8"?>
<!-- Generator: Adobe Illustrator 12.0.1, SVG Export Plug-In  -->
<!DOCTYPE svg PUBLIC "-//W3C//DTD SVG 1.1//EN" "http://www.w3.org/Graphics/SVG/1.1/DTD/svg11.dtd" [
	<!ENTITY ns_flows "http://ns.adobe.com/Flows/1.0/">
	<!ENTITY ns_svg "http://www.w3.org/2000/svg">
	<!ENTITY ns_xlink "http://www.w3.org/1999/xlink">
]>
<svg  version="1.1" xmlns="&ns_svg;" xmlns:xlink="&ns_xlink;" xmlns:a="http://ns.adobe.com/AdobeSVGViewerExtensions/3.0/"
	 width="242" height="288" viewBox="-0.089 0 242 288" enable-background="new -0.089 0 242 288" xml:space="preserve">
<defs>
</defs>
<path fill="#FFFFFF" d="M17.817,0.505h206.191c9.532,0,17.308,7.776,17.308,17.311v252.37c0,9.532-7.775,17.313-17.308,17.313
	H17.817c-9.533,0-17.312-7.78-17.312-17.313V17.816C0.506,8.4,8.401,0.505,17.817,0.505"/>
<path opacity="0.5" fill="#231F20" d="M17.817,0v1.012h206.191c9.265,0,16.805,7.537,16.805,16.804v252.37
	c0,9.265-7.54,16.807-16.805,16.807H17.817c-4.475,0-8.692-1.754-11.872-4.934c-3.183-3.183-4.933-7.398-4.933-11.873V17.816
	c0-9.109,7.697-16.804,16.805-16.804V0C8.159,0,0,8.158,0,17.816v252.37c0,4.744,1.856,9.217,5.228,12.588
	C8.6,286.145,13.071,288,17.817,288h206.191c9.821,0,17.813-7.989,17.813-17.814V17.816C241.822,7.992,233.83,0,224.009,0H17.817z"
	/>
<path fill-rule="evenodd" clip-rule="evenodd" fill="#006F53" d="M17.871,4.833h206.077c7.154,0.028,12.993,5.899,13.043,13.035
	v252.263c-0.05,7.144-5.889,13-13.043,13.034H17.871c-7.131-0.034-13.008-5.896-13.037-13.034V17.868
	C4.858,10.732,10.74,4.86,17.871,4.833"/>
<path fill="#FFFFFF" d="M9.891,270.063c0.019,4.471,3.595,8.002,8.045,8.05h205.95c4.455-0.048,8.027-3.579,8.051-8.05V97.331H9.891
	V270.063z"/>
<path fill="#FFFFFF" d="M231.937,92.013V17.936c-0.023-4.458-3.596-8.024-8.051-8.049H77.23v82.126H231.937z"/>
<rect x="231.937" y="92.013" fill="#005A9C" width="0.86" height="5.317"/>
<path fill="#006F53" d="M147.12,47.587V33.394h-8.619v14.193h-4.496V16.204h4.496v12.788h8.619V16.204h4.497v31.383H147.12z"/>
<path fill="#006F53" d="M170.259,47.587l-4.169-14.755h-4.31v14.755h-4.496V16.204h9.367c4.92,0,8.245,3.326,8.245,8.385
	c0,3.748-1.545,6.464-4.497,7.588l4.497,15.41H170.259z M166.418,20.607h-4.638v7.916h4.638c2.624,0,4.075-1.405,4.075-3.935
	C170.493,22.153,168.854,20.607,166.418,20.607z"/>
<path fill="#006F53" d="M92.712,71.693h-4.871v13.771h-4.496V54.081h9.367c4.92,0,8.245,3.513,8.245,8.807
	C100.957,68.602,98.006,71.693,92.712,71.693z M92.479,58.484h-4.638v8.9h4.638c2.624,0,4.075-1.64,4.075-4.497
	C96.554,60.264,94.915,58.484,92.479,58.484z"/>
<path fill="#006F53" d="M118.382,85.464l-2.201-8.572h-6.746l-2.061,8.572h-4.544l7.823-31.383h4.402l7.823,31.383H118.382z
	 M112.76,63.45l-2.201,9.04h4.497L112.76,63.45z"/>
<path fill="#006F53" d="M140.161,85.464l-4.169-14.755h-4.31v14.755h-4.497V54.081h9.369c4.918,0,8.243,3.326,8.243,8.385
	c0,3.748-1.545,6.464-4.496,7.588l4.496,15.41H140.161z M136.319,58.484h-4.637V66.4h4.637c2.624,0,4.075-1.405,4.075-3.935
	C140.395,60.03,138.756,58.484,136.319,58.484z"/>
<path fill="#006F53" d="M162.973,85.464l-5.528-15.316l-2.857,5.292v10.024h-4.497V54.081h4.497v12.554l7.167-12.554h5.199
	l-6.511,11.008l7.261,20.375H162.973z"/>
<path fill="#006F53" d="M172.995,85.464V54.081h4.404v31.383H172.995z"/>
<path fill="#006F53" d="M198.522,85.464l-9.696-21.031v21.031h-4.497V54.081h4.497l8.619,18.831V54.081h4.497v31.383H198.522z"/>
<path fill="#006F53" d="M224.848,81.624c-1.219,2.717-3.748,4.403-6.934,4.403c-3.746,0-6.511-1.874-8.056-5.387
	c-0.984-2.342-1.641-6.745-1.641-10.82c0-4.403,0.328-7.588,1.453-10.586c1.076-3.279,4.262-5.714,7.915-5.714
	c4.497,0,7.917,3.325,8.151,7.962h-4.497c-0.141-2.107-1.546-3.56-3.747-3.56c-1.547,0-2.764,0.797-3.561,2.342
	c-0.843,1.546-1.404,5.059-1.404,8.806c0,2.623,0.233,5.386,0.655,7.822c0.656,3.045,2.201,4.731,4.638,4.731
	c2.294,0,3.419-1.545,3.419-4.871v-2.062h-3.56v-4.403h8.057v6.464C225.737,78.954,225.503,80.312,224.848,81.624z"/>
<path fill="#006F53" d="M41.693,154.164l-2.201-8.572h-6.746l-2.061,8.572h-4.543l7.822-31.384h4.402l7.823,31.384H41.693z
	 M36.072,132.149l-2.201,9.04h4.496L36.072,132.149z"/>
<path fill="#006F53" d="M50.498,154.164V122.78h4.497v27.216h11.477v4.168H50.498z"/>
<path fill="#006F53" d="M70.873,154.164V122.78h4.496v27.216h11.477v4.168H70.873z"/>
<path fill="#006F53" d="M118.86,154.164l-4.169-14.755h-4.31v14.755h-4.497V122.78h9.369c4.918,0,8.244,3.326,8.244,8.385
	c0,3.747-1.546,6.463-4.497,7.588l4.497,15.411H118.86z M115.02,127.184h-4.638v7.916h4.638c2.623,0,4.074-1.405,4.074-3.934
	C119.094,128.729,117.455,127.184,115.02,127.184z"/>
<path fill="#006F53" d="M144.856,149.34c-1.547,3.7-3.842,5.387-7.354,5.387c-3.748,0-5.949-1.687-7.495-5.387
	c-1.312-3.092-1.78-6.09-1.78-10.914c0-4.731,0.469-7.917,1.78-10.914c1.641-3.748,3.842-5.293,7.495-5.293
	c3.606,0,5.808,1.545,7.354,5.386c1.31,3.092,1.778,6.089,1.778,10.821C146.635,143.25,146.166,146.342,144.856,149.34z
	 M141.343,130.603c-0.797-2.764-1.968-3.982-3.841-3.982c-2.014,0-3.232,1.218-3.981,3.888c-0.75,2.389-0.984,4.497-0.984,8.01
	c0,3.419,0.328,5.387,0.984,7.916c0.749,2.67,1.968,3.888,3.981,3.888c1.873,0,3.044-1.218,3.841-3.888
	c0.749-2.529,0.982-4.402,0.982-8.009C142.325,134.913,141.997,132.898,141.343,130.603z"/>
<path fill="#006F53" d="M166.028,154.164l-2.201-8.572h-6.746l-2.061,8.572h-4.543l7.822-31.384h4.402l7.823,31.384H166.028z
	 M160.407,132.149l-2.201,9.04h4.496L160.407,132.149z"/>
<path fill="#006F53" d="M187.948,152.712c-1.125,1.03-2.67,1.452-4.402,1.452h-8.714V122.78h8.01c2.67,0,3.981,0.328,5.106,1.218
	c1.873,1.312,3.185,3.748,3.746,6.933c0.423,2.294,0.751,5.059,0.751,7.495C192.445,145.686,190.992,150.322,187.948,152.712z
	 M187.151,130.369c-0.749-2.201-2.061-3.185-4.074-3.185h-3.748v22.577h3.748c2.67,0,4.074-2.107,4.543-4.497
	c0.188-2.014,0.421-4.215,0.421-6.604C188.041,135.1,187.715,131.681,187.151,130.369z"/>
<path fill="#006F53" d="M205.888,154.727c-5.527,0-8.807-4.638-8.807-9.79h4.404c0,2.623,1.31,5.386,4.402,5.386
	c2.435,0,4.402-2.201,4.402-4.73c0-1.78-0.656-3.092-2.529-4.543c-0.656-0.656,1.125,0.563-5.293-3.747
	c-2.529-1.733-3.842-4.169-3.842-6.933c0-4.497,3.514-8.15,8.011-8.15c4.45,0,7.822,3.419,7.963,8.15h-4.31
	c-0.093-2.201-1.64-3.606-3.653-3.606c-2.061,0-3.7,1.546-3.7,3.606c0,1.546,0.655,2.436,2.951,3.748
	c6.042,3.513,8.712,6.932,8.712,11.476C214.6,150.651,210.712,154.727,205.888,154.727z"/>
<path fill="#006F53" d="M34.11,252.939v-14.192h-8.619v14.192h-4.497v-31.383h4.497v12.788h8.619v-12.788h4.496v31.383H34.11z"/>
<path fill="#006F53" d="M45.913,252.939v-31.383h14.756v4.402H50.41v7.917h6.511v4.308H50.41v10.354h11.476v4.402H45.913z"/>
<path fill="#006F53" d="M83.806,252.939v-17.612l-5.809,17.612l-5.854-17.612v17.612h-4.497v-31.383h4.497l5.854,17.612
	l5.809-17.612h4.544v31.383H83.806z"/>
<path fill="#006F53" d="M105.026,239.169h-4.873v13.771h-4.497v-31.383h9.37c4.917,0,8.243,3.513,8.243,8.807
	C113.27,236.077,110.318,239.169,105.026,239.169z M104.791,225.959h-4.638v8.9h4.638c2.624,0,4.074-1.64,4.074-4.496
	C108.865,227.739,107.228,225.959,104.791,225.959z"/>
<path fill="#006F53" d="M125.307,253.503c-5.527,0-8.807-4.639-8.807-9.79h4.403c0,2.623,1.311,5.386,4.403,5.386
	c2.435,0,4.402-2.201,4.402-4.73c0-1.78-0.656-3.092-2.529-4.543c-0.656-0.656,1.125,0.562-5.293-3.748
	c-2.53-1.732-3.842-4.169-3.842-6.932c0-4.498,3.514-8.15,8.011-8.15c4.45,0,7.822,3.418,7.963,8.15h-4.31
	c-0.093-2.201-1.64-3.607-3.653-3.607c-2.061,0-3.701,1.547-3.701,3.607c0,1.545,0.656,2.435,2.952,3.746
	c6.042,3.514,8.712,6.934,8.712,11.477C134.019,249.427,130.131,253.503,125.307,253.503z"/>
<path fill="#006F53" d="M147.602,225.726v27.214h-4.543v-27.214h-5.714v-4.169h15.972v4.169H147.602z"/>
<path fill="#006F53" d="M158.093,252.939v-31.383h14.756v4.402H162.59v7.917h6.511v4.308h-6.511v10.354h11.477v4.402H158.093z"/>
<path fill="#006F53" d="M192.943,252.939l-2.201-8.571h-6.746l-2.061,8.571h-4.543l7.822-31.383h4.402l7.823,31.383H192.943z
	 M187.321,230.925l-2.201,9.041h4.497L187.321,230.925z"/>
<path fill="#006F53" d="M215.331,251.487c-1.124,1.03-2.67,1.452-4.402,1.452h-8.713v-31.383h8.01c2.67,0,3.981,0.328,5.105,1.219
	c1.874,1.312,3.186,3.746,3.747,6.932c0.422,2.296,0.75,5.059,0.75,7.494C219.828,244.461,218.376,249.099,215.331,251.487z
	 M214.535,229.146c-0.749-2.201-2.061-3.187-4.075-3.187h-3.748v22.578h3.748c2.67,0,4.075-2.108,4.544-4.498
	c0.187-2.013,0.421-4.214,0.421-6.604C215.425,233.876,215.098,230.457,214.535,229.146z"/>
<path fill="#006F53" d="M80.813,182.172v14.112h-2.597v-14.112h-3.748v-2.305h10.144v2.305H80.813z"/>
<path fill="#006F53" d="M96.788,194.741c-0.93,1.249-2.255,1.837-3.969,1.837c-2.303,0-3.75-0.931-4.729-2.94
	c-0.686-1.396-1.151-3.577-1.151-5.536c0-2.695,0.686-5.121,1.789-6.69c0.979-1.248,2.303-1.836,4.19-1.836
	c2.081,0,3.527,0.93,4.556,2.938c0.687,1.446,1.104,3.529,1.104,5.588C98.577,190.698,97.939,193.295,96.788,194.741z
	 M94.999,183.494c-0.514-0.856-1.151-1.2-2.131-1.273c-0.049,0-0.099,0-0.147,0c-1.175,0-1.959,0.637-2.498,2.032
	c-0.417,0.981-0.638,2.476-0.638,3.849c0,1.739,0.344,3.526,0.979,4.557c0.516,0.857,1.2,1.274,2.255,1.274
	c1.2,0,1.961-0.638,2.523-2.083c0.344-0.857,0.638-2.475,0.638-3.748C95.98,186.263,95.637,184.597,94.999,183.494z"/>
<path fill="#006F53" d="M113.155,196.284h-2.303l-2.598-10.536l-2.523,10.536h-2.303l-2.425-16.417h2.646l1.274,8.65l2.083-8.65
	h2.523l2.131,8.65l1.273-8.65h2.646L113.155,196.284z"/>
<path fill="#006F53" d="M127.121,196.284l-6.272-11.125v11.125h-2.597v-16.417h2.597l5.979,10.487v-10.487h2.597v16.417H127.121z"/>
<path fill="#006F53" d="M148.755,194.741c-0.931,1.249-2.255,1.837-3.97,1.837c-2.302,0-3.749-0.931-4.729-2.94
	c-0.686-1.396-1.151-3.577-1.151-5.536c0-2.695,0.686-5.121,1.789-6.69c0.979-1.248,2.303-1.836,4.189-1.836
	c2.082,0,3.527,0.93,4.557,2.938c0.687,1.446,1.104,3.529,1.104,5.588C150.544,190.698,149.906,193.295,148.755,194.741z
	 M146.966,183.494c-0.514-0.856-1.151-1.2-2.131-1.273c-0.05,0-0.099,0-0.147,0c-1.176,0-1.96,0.637-2.499,2.032
	c-0.416,0.981-0.637,2.476-0.637,3.849c0,1.739,0.343,3.526,0.979,4.557c0.515,0.857,1.2,1.274,2.254,1.274
	c1.201,0,1.961-0.638,2.524-2.083c0.343-0.857,0.637-2.475,0.637-3.748C147.946,186.263,147.604,184.597,146.966,183.494z"/>
<path fill="#006F53" d="M157.012,182.466v4.017h4.778v2.647h-4.778v7.154h-2.597v-16.417h10.191v2.599H157.012z"/>
<path fill="#FFFFFF" d="M22.348,84.135c0.49-9.016,1.177-12.25,3.234-17.936c2.745-6.958,6.175-12.25,10.586-16.366
	c1.567-1.373,3.037-2.548,8.329-6.272c4.313-2.94,5.489-4.606,5.489-7.84c0-4.999-4.117-9.212-9.214-9.212
	c-5.096,0-9.211,4.214-9.211,9.212h-9.214c0.197-10.291,8.037-18.425,18.425-18.425c10.095,0,18.229,8.33,18.229,18.425
	c0,5.292-1.861,9.507-5.586,12.937c-0.687,0.49-1.372,0.882-2.058,1.568l-2.255,1.667l-2.352,1.568l-2.549,1.862
	c-4.115,3.038-8.526,9.016-10.29,14.504c-0.784,1.667-0.979,2.745-1.471,5.097h26.56v9.212H22.348z"/>
</svg>
