<?xml version="1.0" encoding="UTF-8" standalone="no"?>
<!-- Generator: Adobe Illustrator 14.0.0, SVG Export Plug-In  -->

<svg
   xmlns:dc="http://purl.org/dc/elements/1.1/"
   xmlns:cc="http://creativecommons.org/ns#"
   xmlns:rdf="http://www.w3.org/1999/02/22-rdf-syntax-ns#"
   xmlns:svg="http://www.w3.org/2000/svg"
   xmlns="http://www.w3.org/2000/svg"
   xmlns:sodipodi="http://sodipodi.sourceforge.net/DTD/sodipodi-0.dtd"
   xmlns:inkscape="http://www.inkscape.org/namespaces/inkscape"
   version="1.1"
   x="0px"
   y="0px"
   width="83.812477"
   height="63.031235"
   viewBox="0 -0.321 83.81248 63.03125"
   enable-background="new 0 -0.321 144 120"
   xml:space="preserve"
   id="svg2"
   inkscape:version="0.48.2 r9819"
   sodipodi:docname="AJAX1.svg"><metadata
   id="metadata44"><rdf:RDF><cc:Work
       rdf:about=""><dc:format>image/svg+xml</dc:format><dc:type
         rdf:resource="http://purl.org/dc/dcmitype/StillImage" /><dc:title></dc:title></cc:Work></rdf:RDF></metadata><sodipodi:namedview
   pagecolor="#ffffff"
   bordercolor="#666666"
   borderopacity="1"
   objecttolerance="10"
   gridtolerance="10"
   guidetolerance="10"
   inkscape:pageopacity="0"
   inkscape:pageshadow="2"
   inkscape:window-width="1280"
   inkscape:window-height="1004"
   id="namedview42"
   showgrid="false"
   fit-margin-top="0"
   fit-margin-left="0"
   fit-margin-right="0"
   fit-margin-bottom="0"
   inkscape:zoom="3.7904688"
   inkscape:cx="31.897143"
   inkscape:cy="22.490869"
   inkscape:window-x="-8"
   inkscape:window-y="-8"
   inkscape:window-maximized="1"
   inkscape:current-layer="svg2" />
<defs
   id="defs4">
</defs>


















<path
   inkscape:connector-curvature="0"
   d="m 83.470254,58.89772 c 0,1.91125 -1.5525,3.46375 -3.465,3.46375 l -76.1987688,0 c -1.91125,0 -3.46375,-1.5525 -3.46375,-3.46375 l 0,-55.41626 c 0,-1.9125 1.5525,-3.46501 3.46375,-3.46501 l 76.1987688,0 c 1.9125,0 3.465,1.55251 3.465,3.46501 l 0,55.41626 z"
   style="fill:#ffffff;fill-opacity:1;fill-rule:nonzero;stroke:#000000;stroke-width:0.70000017;stroke-miterlimit:4;stroke-opacity:1;stroke-dasharray:none"
   id="path3497" /><path
   inkscape:connector-curvature="0"
   d="m 80.872744,58.89773 c 0,0.4775 -0.39125,0.86625 -0.8675,0.86625 l -76.1987588,0 c -0.47501,0 -0.86626,-0.38875 -0.86626,-0.86625 l 0,-55.41626 c 0,-0.47625 0.39125,-0.8675 0.86626,-0.8675 l 76.1987588,0 c 0.47625,0 0.8675,0.39125 0.8675,0.8675 l 0,55.41626 z m -0.8675,-57.58251 -76.1987588,0 c -1.19376,0 -2.16501,0.97125 -2.16501,2.16625 l 0,55.41626 c 0,1.19375 0.97125,2.165 2.16501,2.165 l 76.1987588,0 c 1.195,0 2.16625,-0.97125 2.16625,-2.165 l 0,-55.41626 c 0,-1.195 -0.97125,-2.16625 -2.16625,-2.16625"
   style="fill:#000000;fill-opacity:1;fill-rule:nonzero;stroke:none"
   id="path3521" /><path
   inkscape:connector-curvature="0"
   d="m 30.003984,24.40522 c -0.485,0.43625 -1.4075,0.87375 -2.135,1.06875 l 0,1.74875 -2.1875,0 c 0,0 -0.05,-1.895 0,-1.94375 -1.7,-0.38875 -3.01375,-1.60375 -3.74125,-3.30375 l 2.09,-0.77875 c 0.58375,1.31375 1.65125,2.04125 2.96125,2.04125 1.265,0 2.13875,-0.87375 2.13875,-2.04125 0,-1.845 -2.13875,-2.13625 -3.935,-2.86625 -0.825,-0.33875 -2.67125,-1.16375 -2.67125,-3.44625 0,-2.23625 1.2625,-3.3525 3.1575,-3.645 l 0,-1.895 2.1875,0 0,1.895 c 1.4075,0.34125 2.38,1.3125 2.915,2.71875 l -1.94375,0.58375 c 0,0 -0.48625,-1.16375 -2.04125,-1.21375 -1.02,-0.0488 -2.23625,0.34 -2.13875,1.605 0.195,2.5725 6.70375,0.87375 6.70375,6.3125 0,1.265 -0.485,2.38125 -1.36,3.16"
   style="fill:#000000;fill-opacity:1;fill-rule:nonzero;stroke:none"
   id="path3525" /><path
   inkscape:connector-curvature="0"
   d="m 34.667744,25.23034 0,-11.22125 -1.2625,0 0,-1.75 0.14625,0 c 0.58125,0 1.21375,-0.33875 1.6025,-0.87375 l 1.7475,0 0,13.845 -2.23375,0 z"
   style="fill:#000000;fill-opacity:1;fill-rule:nonzero;stroke:none"
   id="path3529" /><path
   inkscape:connector-curvature="0"
   d="m 43.315244,25.47397 c -1.21625,0 -2.42875,-0.2925 -3.40125,-0.77875 l 1.0675,-1.9425 c 0.58375,0.2925 1.60375,0.485 2.62375,0.485 1.99251,0 3.54501,-1.31125 3.54501,-3.1075 0,-1.36 -1.115,-2.42875 -2.475,-2.42875 -0.97251,0 -1.40876,0.29 -2.23376,1.4575 l -2.1875,-0.6325 0.33875,-7.14125 7.96876,0 0,2.185 -5.83001,0 -0.14625,2.285 c 1.02,-0.2925 1.45751,-0.39125 2.13626,-0.39125 2.52625,0 4.61625,2.13875 4.61625,4.66625 0,3.05875 -2.52625,5.34375 -6.02251,5.34375"
   style="fill:#000000;fill-opacity:1;fill-rule:nonzero;stroke:none"
   id="path3533" /><path
   inkscape:connector-curvature="0"
   d="m 58.858994,14.44659 c -0.43625,-0.73 -0.97125,-1.02 -1.79625,-1.06875 -1.06875,-0.05 -1.7475,0.485 -2.23375,1.69875 -0.3425,0.825 -0.535,2.09 -0.535,3.25375 0,1.4575 0.29125,2.965 0.825,3.83875 0.4375,0.73 1.02125,1.06875 1.895,1.06875 1.02,0 1.6525,-0.535 2.13875,-1.7475 0.29,-0.73 0.5325,-2.09 0.5325,-3.16 0,-1.5525 -0.29125,-2.96125 -0.82625,-3.88375 m 1.5075,9.4725 c -0.7775,1.0675 -1.895,1.555 -3.3525,1.555 -1.94375,0 -3.15625,-0.77875 -3.985,-2.4775 -0.58,-1.1675 -0.96875,-3.0125 -0.96875,-4.66625 0,-2.2825 0.58125,-4.32125 1.50375,-5.63375 0.8275,-1.0675 1.94625,-1.55625 3.5475,-1.55625 1.7475,0 2.96375,0.78 3.8375,2.47875 0.58375,1.21625 0.92375,2.96375 0.92375,4.71125 0,2.1875 -0.535,4.3725 -1.50625,5.58875"
   style="fill:#000000;fill-opacity:1;fill-rule:nonzero;stroke:none"
   id="path3537" /><path
   inkscape:connector-curvature="0"
   d="m 25.876494,41.37535 0,3.40125 4.0325,0 0,2.23375 -4.0325,0 0,6.02375 -2.185,0 0,-13.84376 8.59875,0 0,2.18501 -6.41375,0 z"
   style="fill:#000000;fill-opacity:1;fill-rule:nonzero;stroke:none"
   id="path3541" /><path
   inkscape:connector-curvature="0"
   d="m 34.327614,39.18984 2.2375,0 0,13.84376 -2.2375,0 0,-13.84376 z"
   style="fill:#000000;fill-opacity:1;fill-rule:nonzero;stroke:none"
   id="path3543" /><path
   inkscape:connector-curvature="0"
   d="m 47.347744,53.0341 -5.29501,-9.37625 0,9.37625 -2.185,0 0,-13.84376 2.185,0 5.05376,8.84126 0,-8.84126 2.185,0 0,13.84376 -1.94375,0 z"
   style="fill:#000000;fill-opacity:1;fill-rule:nonzero;stroke:none"
   id="path3547" /><path
   inkscape:connector-curvature="0"
   d="m 52.595254,53.0341 0,-13.84376 8.16125,0 0,2.18501 -5.97375,0 0,3.40125 4.03,0 0,2.23375 -4.03,0 0,3.79 6.41125,0 0,2.23375 -8.59875,0 z"
   style="fill:#000000;fill-opacity:1;fill-rule:nonzero;stroke:none"
   id="path3551" /></svg>