<?xml version="1.0" encoding="UTF-8" standalone="no"?>
<svg
   xmlns:dc="http://purl.org/dc/elements/1.1/"
   xmlns:cc="http://creativecommons.org/ns#"
   xmlns:rdf="http://www.w3.org/1999/02/22-rdf-syntax-ns#"
   xmlns:svg="http://www.w3.org/2000/svg"
   xmlns="http://www.w3.org/2000/svg"
   xmlns:sodipodi="http://sodipodi.sourceforge.net/DTD/sodipodi-0.dtd"
   xmlns:inkscape="http://www.inkscape.org/namespaces/inkscape"
   width="90.001266"
   height="90"
   viewBox="0 0 254.00364 253.99999"
   version="1.1"
   id="svg2"
   inkscape:version="0.48.2 r9819"
   sodipodi:docname="AJAX1.svg">
  <metadata
     id="metadata62">
    <rdf:RDF>
      <cc:Work
         rdf:about="">
        <dc:format>image/svg+xml</dc:format>
        <dc:type
           rdf:resource="http://purl.org/dc/dcmitype/StillImage" />
        <dc:title></dc:title>
      </cc:Work>
    </rdf:RDF>
  </metadata>
  <defs
     id="defs60" />
  <sodipodi:namedview
     pagecolor="#ffffff"
     bordercolor="#666666"
     borderopacity="1"
     objecttolerance="10"
     gridtolerance="10"
     guidetolerance="10"
     inkscape:pageopacity="0"
     inkscape:pageshadow="2"
     inkscape:window-width="1280"
     inkscape:window-height="1004"
     id="namedview58"
     showgrid="false"
     fit-margin-top="0"
     fit-margin-left="0"
     fit-margin-right="0"
     fit-margin-bottom="0"
     inkscape:zoom="5.6568542"
     inkscape:cx="49.458448"
     inkscape:cy="34.110021"
     inkscape:window-x="-8"
     inkscape:window-y="-8"
     inkscape:window-maximized="1"
     inkscape:current-layer="svg2"
     showguides="true"
     inkscape:guide-bbox="true" />
  <!-- draw the bicycle -->
  <!-- RIGHT -->
  <!-- LANE -->
  <!-- ONLY -->
  <path
     d="M 250.37091,118.18672 135.81335,3.6326922 c -4.84364,-4.8436401 -12.77409,-4.8436401 -17.62477,0 L 3.638025,118.18672 c -4.8507,4.84717 -4.8507,12.77409 0,17.62478 L 118.18858,250.362 c 4.85068,4.8507 12.78113,4.8507 17.62477,0 L 250.37091,135.8115 c 4.84364,-4.85069 4.84364,-12.77761 0,-17.62478"
     style="fill:#fecf33;fill-opacity:1;fill-rule:nonzero;stroke:none"
     id="path3366"
     inkscape:connector-curvature="0" />
  <path
     d="M 247.60869,120.00564 133.99657,6.3935318 c -3.84528,-3.841751 -10.13531,-3.841751 -13.98764,0 L 6.403825,120.00564 c -3.8452,3.84528 -3.8452,10.13531 0,13.98764 L 120.00893,247.6054 c 3.85233,3.84528 10.14236,3.84528 13.98764,0 L 247.60869,133.99328 c 3.84175,-3.85233 3.84175,-10.14236 0,-13.98764"
     style="fill:#000000;fill-opacity:1;fill-rule:evenodd;stroke:none"
     id="path3382"
     inkscape:connector-curvature="0" />
  <path
     d="M 244.05269,123.5059 130.49349,9.9467106 c -1.92264,-1.9191117 -5.06236,-1.9191117 -6.985,0 L 9.949325,123.5059 c -1.9191,1.92264 -1.9191,5.06589 0,6.98501 L 123.50849,244.0501 c 1.92264,1.92264 5.06236,1.92264 6.985,0 l 113.5592,-113.55919 c 1.92264,-1.91912 1.92264,-5.06237 0,-6.98501"
     style="fill:#fecf33;fill-opacity:1;fill-rule:evenodd;stroke:none"
     id="path3386"
     inkscape:connector-curvature="0" />
  <path
     d="m 122.13582,102.17907 -7.74348,-39.751008 39.61696,7.620002 c 1.78505,0.381 2.92453,2.032 2.67405,3.810001 -0.254,1.143 -1.143,1.778 -2.16253,2.413 l -9.01347,4.826002 53.97149,53.975013 -12.44248,12.446 -53.97854,-53.97501 -4.82248,8.89 c -0.63499,1.27 -1.27705,2.032 -2.41298,2.286 -1.65453,0.381 -3.42902,-0.889 -3.68654,-2.54"
     style="fill:#000000;fill-opacity:1;fill-rule:evenodd;stroke:none"
     id="path3390"
     inkscape:connector-curvature="0" />
  <path
     d="m 92.417825,145.35979 0,0 c 2.5435,2.54 3.937,6.096 3.81,9.398 l 0,54.10201 17.652985,0 0,-53.85154 c 0.12701,-7.99747 -3.175,-16.25247 -9.01698,-22.09448 l -5.588005,-5.461 9.016995,-4.826 c 1.14653,-0.635 1.90146,-1.27353 2.15899,-2.54 0.38454,-1.778 -0.75846,-3.429 -2.53647,-3.81 l -39.758115,-7.62 7.6236,39.75101 c 0.3845,1.778 2.032,2.91747 3.81,2.54 1.143,-0.127 1.778,-1.016 2.54,-2.159 l 4.699,-8.89 5.588,5.461 z"
     style="fill:#000000;fill-opacity:1;fill-rule:evenodd;stroke:none"
     id="path3398"
     inkscape:connector-curvature="0" />
  <path
     d="m 142.07835,155.51944 0.254,64.89349 -6.73101,0 -0.13052,-64.89349 c 0.254,-13.97001 -5.334,-27.94001 -15.23647,-37.97301 l -0.254,-0.254 4.699,-4.699 64.76649,64.89701 -4.57554,4.56848 -45.71648,-45.46249 c 2.03553,5.969 3.04801,12.95401 2.92454,18.92301"
     style="fill:#000000;fill-opacity:1;fill-rule:evenodd;stroke:none"
     id="path3406"
     inkscape:connector-curvature="0" />
  <path
     d="m 75.911725,63.824709 -4.699,4.699002 9.2674,9.271002 4.699,-4.572001 -9.2674,-9.398003 z"
     style="fill:#000000;fill-opacity:1;fill-rule:evenodd;stroke:none"
     id="path3414"
     inkscape:connector-curvature="0" />
  <path
     d="m 92.164125,80.080714 -4.699,4.699001 9.2745,9.271002 4.698995,-4.699001 -9.274495,-9.271002 z"
     style="fill:#000000;fill-opacity:1;fill-rule:evenodd;stroke:none"
     id="path3422"
     inkscape:connector-curvature="0" />
  <path
     d="m 108.41981,96.336365 -4.69899,4.698995 9.27099,9.27101 4.69901,-4.699 -9.271,-9.271005 z"
     style="fill:#000000;fill-opacity:1;fill-rule:evenodd;stroke:none"
     id="path3430"
     inkscape:connector-curvature="0" />
</svg>
