<?xml version="1.0" encoding="UTF-8" standalone="no"?>
<!-- Created with Inkscape (http://www.inkscape.org/) -->

<svg
   xmlns:dc="http://purl.org/dc/elements/1.1/"
   xmlns:cc="http://creativecommons.org/ns#"
   xmlns:rdf="http://www.w3.org/1999/02/22-rdf-syntax-ns#"
   xmlns:svg="http://www.w3.org/2000/svg"
   xmlns="http://www.w3.org/2000/svg"
   xmlns:sodipodi="http://sodipodi.sourceforge.net/DTD/sodipodi-0.dtd"
   xmlns:inkscape="http://www.inkscape.org/namespaces/inkscape"
   width="3678.1611"
   height="3678.1616"
   id="svg2934"
   version="1.1"
   inkscape:version="0.48.2 r9819"
   sodipodi:docname="MUTCD S4-3.svg">
  <defs
     id="defs2936">
    <inkscape:perspective
       sodipodi:type="inkscape:persp3d"
       inkscape:vp_x="0 : 526.18109 : 1"
       inkscape:vp_y="0 : 1000 : 0"
       inkscape:vp_z="744.09448 : 526.18109 : 1"
       inkscape:persp3d-origin="372.04724 : 350.78739 : 1"
       id="perspective2942" />
    <inkscape:perspective
       id="perspective2924"
       inkscape:persp3d-origin="0.5 : 0.33333333 : 1"
       inkscape:vp_z="1 : 0.5 : 1"
       inkscape:vp_y="0 : 1000 : 0"
       inkscape:vp_x="0 : 0.5 : 1"
       sodipodi:type="inkscape:persp3d" />
  </defs>
  <sodipodi:namedview
     id="base"
     pagecolor="#ffffff"
     bordercolor="#666666"
     borderopacity="1.0"
     inkscape:pageopacity="0.0"
     inkscape:pageshadow="2"
     inkscape:zoom="0.15503753"
     inkscape:cx="1155.1604"
     inkscape:cy="1495.4724"
     inkscape:document-units="px"
     inkscape:current-layer="g3018"
     showgrid="false"
     inkscape:window-width="1280"
     inkscape:window-height="1004"
     inkscape:window-x="-8"
     inkscape:window-y="-8"
     inkscape:window-maximized="1"
     fit-margin-top="0"
     fit-margin-left="0"
     fit-margin-right="0"
     fit-margin-bottom="0" />
  <metadata
     id="metadata2939">
    <rdf:RDF>
      <cc:Work
         rdf:about="">
        <dc:format>image/svg+xml</dc:format>
        <dc:type
           rdf:resource="http://purl.org/dc/dcmitype/StillImage" />
        <dc:title></dc:title>
      </cc:Work>
    </rdf:RDF>
  </metadata>
  <g
     inkscape:label="Ebene 1"
     inkscape:groupmode="layer"
     id="layer1"
     transform="translate(-48.821906,3092.1785)">
    <g
       id="g3018"
       transform="translate(2,-2)">
      <path
         inkscape:connector-curvature="0"
         style="fill:#ffd033;fill-opacity:1;fill-rule:nonzero;stroke:none"
         d="m 3675.7643,-1370.4231 c 65.625,65.625 65.625,173.025 0,238.65 L 2005.2268,538.76426 c -65.625,65.625 -173.025,65.625 -238.65,0 L 96.043,-1131.7732 c -65.62875,-65.625 -65.6275,-173.025 0,-238.65 l 1670.5338,-1670.5337 c 65.625,-65.6288 173.025,-65.6288 238.65,0 l 1670.5375,1670.5338 z"
         id="path11" />
      <path
         inkscape:connector-curvature="0"
         style="fill:#000000;fill-rule:nonzero;stroke:none"
         d="M 1798.4107,-3009.1381 127.863,-1338.5918 c -48.127375,48.125 -48.127375,126.875 0,175 L 1798.4107,506.94566 c 48.125,48.1374 126.875,48.1374 175,0 L 3643.9606,-1163.5918 c 48.125,-48.125 48.125,-126.875 0,-175 L 1973.4107,-3009.137 c -48.125,-48.1274 -126.875,-48.1299 -175,0 z m 1797.8125,1718.2713 c 21.875,21.875 21.875,57.675 0,79.55 L 1925.6857,459.22066 c -21.875,21.875 -57.675,21.875 -79.55,0 L 175.5925,-1211.3168 c -21.87625,-21.875 -21.87625,-57.675 0,-79.55 l 1670.5431,-1670.5407 c 21.875,-21.8762 57.675,-21.8762 79.55,0 l 1670.5376,1670.5407 z"
         id="path13" />
      <path
         inkscape:connector-curvature="0"
         style="fill:#000000;fill-rule:evenodd;stroke:none"
         d="m 1003.325,-1395.3811 c -1.245,-11.175 -2.4838,-22.3625 -3.725,-33.55 -14.6875,1.225 -30.96125,-0.725 -45.64875,0.5 -7.32375,-61.325 40.60125,-98.6125 87.62495,-112.8 l 26.8088,-21.95 114.815,-1.775 91.7988,-481.5889 859.2512,-14.7037 0,319.83 264.375,-44.1125 14.6875,-294.1025 106.4875,0 14.675,308.8026 69.7875,3.6875 95.475,55.1375 11,382.3374 124.8875,25.575 c 67.525,43.3625 113.025,145.625 113.025,255.5 0,153.37506 -84.375,278.47256 -187.8625,278.47256 -103.4626,0 -187.825,-125.0975 -187.825,-278.47256 0,-13.0625 1.4625,-27.2 2.0625,-36.9625 l -62.575,-52.95 -72.7125,28.8125 c 10.8125,51.3 18.05,109.69996 18.05,165.93746 0,304.96 -166.125,553.685 -369.7937,553.685 -164.675,0 -313.45,-168.7 -355.3875,-399.9875 l -241.8125,-61.2475 c -56.6875,148.51 -177.6625,245.01 -309.2725,245.01 -187.45255,0 -340.3338,-191.3375 -340.3338,-425.92246 0,-148.075 62.48125,-286.1625 162.1375,-363.1625 z m 348.7813,-165.9001 44.0625,-374.975 301.1125,15.5225 -14.6875,392.5525 -330.4875,-33.1 z m 459,-360.2713 -7.3375,393.3713 238.6749,-62.5 0,-352.93 -231.3375,22.0587 z m 289.9811,1315.25626 c -70.3061,0 -127.6311,-138.35 -127.6311,-307.9724 0,-169.62496 57.325,-307.97496 127.6311,-307.97496 70.275,0 127.6125,138.35 127.6125,307.97496 0,169.6224 -57.3375,307.9724 -127.6125,307.9724 z m -942.8136,-353.1225 c -1.3975,10.225 -2.9325,23.475 -2.9325,35.325 0,66.7625 35.28,121.2225 78.54,121.2225 40.495,0 74.8625,-48.7725 78.475,-107.4725 l -154.0825,-49.075 z m 1626.7637,32.0501 c -28.8626,0 -52.375,-54.4625 -52.375,-121.22496 0,-66.7625 23.5124,-121.225 52.375,-121.225 28.8249,0 52.3375,54.4625 52.3375,121.225 0,66.76246 -23.5125,121.22496 -52.3375,121.22496 z"
         id="path15" />
    </g>
  </g>
</svg>
