<?xml version="1.0" encoding="UTF-8" standalone="no"?>
<!-- Generator: Adobe Illustrator 12.0.1, SVG Export Plug-In  -->

<svg
   xmlns:dc="http://purl.org/dc/elements/1.1/"
   xmlns:cc="http://creativecommons.org/ns#"
   xmlns:rdf="http://www.w3.org/1999/02/22-rdf-syntax-ns#"
   xmlns:svg="http://www.w3.org/2000/svg"
   xmlns="http://www.w3.org/2000/svg"
   xmlns:sodipodi="http://sodipodi.sourceforge.net/DTD/sodipodi-0.dtd"
   xmlns:inkscape="http://www.inkscape.org/namespaces/inkscape"
   version="1.1"
   width="286.66074"
   height="286.6655"
   viewBox="-1 -0.999 286.66074 286.6655"
   enable-background="new -1 -0.999 289 290"
   xml:space="preserve"
   id="svg2"
   inkscape:version="0.48.2 r9819"
   sodipodi:docname="AJAX1.svg"><metadata
   id="metadata30"><rdf:RDF><cc:Work
       rdf:about=""><dc:format>image/svg+xml</dc:format><dc:type
         rdf:resource="http://purl.org/dc/dcmitype/StillImage" /></cc:Work></rdf:RDF></metadata><sodipodi:namedview
   pagecolor="#ffffff"
   bordercolor="#666666"
   borderopacity="1"
   objecttolerance="10"
   gridtolerance="10"
   guidetolerance="10"
   inkscape:pageopacity="0"
   inkscape:pageshadow="2"
   inkscape:window-width="1280"
   inkscape:window-height="1004"
   id="namedview28"
   showgrid="false"
   fit-margin-top="0"
   fit-margin-left="0"
   fit-margin-right="0"
   fit-margin-bottom="0"
   inkscape:zoom="1.6275862"
   inkscape:cx="184.94068"
   inkscape:cy="139.79706"
   inkscape:window-x="-8"
   inkscape:window-y="-8"
   inkscape:window-maximized="1"
   inkscape:current-layer="svg2" />
<defs
   id="defs4">
</defs>
<path
   d="M 3.09875,132.38875 132.37975,3.1057496 c 5.469,-5.473 14.42,-5.473 19.894,0 l 129.283,129.2830004 c 5.472,5.471 5.472,14.423 0,19.888 l -129.283,129.288 c -5.474,5.469 -14.425,5.469 -19.894,0 l -129.281,-129.289 c -5.465,-5.464 -5.465,-14.417 0,-19.887 z"
   id="path6"
   style="fill:#ffd033;stroke:none;fill-opacity:1"
   inkscape:connector-curvature="0" />

<path
   clip-rule="evenodd"
   d="M 6.22175,134.44075 134.44075,6.2207496 c 4.337,-4.338 11.442,-4.338 15.786,0 l 128.212,128.2200004 c 4.344,4.344 4.344,11.44 0,15.779 l -128.213,128.225 c -4.344,4.335 -11.448,4.335 -15.786,0 l -128.218,-128.225 c -4.339,-4.339 -4.339,-11.435 0,-15.779"
   id="path10"
   inkscape:connector-curvature="0"
   style="fill:#000000;fill-rule:evenodd;stroke:none" />
<path
   clip-rule="evenodd"
   d="m 10.22475,138.39175 128.163,-128.161 c 2.16,-2.1700004 5.722,-2.1700004 7.889,0 l 128.157,128.161 c 2.167,2.166 2.167,5.716 0,7.884 l -128.157,128.16 c -2.167,2.169 -5.729,2.169 -7.889,0 l -128.163,-128.161 c -2.167,-2.167 -2.167,-5.718 0,-7.883"
   id="path12"
   inkscape:connector-curvature="0"
   style="fill:#ffd033;fill-rule:evenodd;stroke:none;fill-opacity:1" />
<path
   d="m 135.39275,81.48575 c 3.186,-0.561 6.316,-1.51 9.364,-3.024 2.086,-1.754 3.294,-4.386 3.294,-7.127 0,-5.155 -4.206,-9.359 -9.36,-9.359 -5.154,0 -9.359,4.205 -9.359,9.359 0,4.678 1.419,9.567 6.061,10.151 z m -5.285,-10.553 c 0.119,-2.455 0.666,-3.442 6.443,-3.799 5.776,-0.357 7.202,4.017 4.949,8.267 -1.989,-1.003 -5.478,-1.82 -6.925,-1.733 -1.802,0.543 -2.193,1.275 -3.942,2.447 -0.512,-1.514 -0.631,-2.939 -0.525,-5.182 z"
   id="path14"
   inkscape:connector-curvature="0"
   style="fill:#000000;stroke:none" />
<path
   d="m 154.77275,165.06775 c -0.257,-3.564 1.326,-6.563 6.958,-8.312 8.415,-16.618 24.146,-28.175 44.782,-21.375 -0.137,-3.962 -0.704,-7.919 -2.206,-11.878 -4.182,-1.244 -8.365,-2.488 -12.552,-3.731 -1.188,3.449 -3.279,5.769 -6.279,6.956 -1.581,0.904 -2.713,0.678 -3.392,-0.678 -1.298,-1.98 -2.601,-3.959 -3.902,-5.939 -2.316,-1.979 -4.862,-3.052 -7.634,-3.223 -4.07,0.198 -8.146,0.708 -12.213,1.356 -1.244,-5.032 -1.359,-9.783 1.017,-13.911 -0.553,-5.387 -1.596,-10.675 -4.41,-15.607 -1.581,-3.224 -4.072,-5.09 -7.468,-5.598 -0.957,0 -1.92,0 -2.884,0 -4.637,0.45 -9.271,0.904 -13.91,1.355 -2.655,0.227 -4.407,1.133 -5.26,2.714 -2.655,3.395 -5.312,6.788 -7.971,10.18 -3.791,-0.113 -7.58,0.453 -11.369,1.697 -4.916,0 -9.841,0 -14.757,0 -0.285,0.678 -0.57,1.356 -0.847,2.036 1.948,3.761 4.322,5.966 7.631,4.749 -0.229,1.923 -0.451,3.847 -0.678,5.769 -2.996,0.115 -5.992,0.226 -8.994,0.339 -2.711,0.057 -3.843,1.245 -3.394,3.564 0.486,4.806 2.521,7.747 5.26,9.839 -1.866,2.714 -3.73,5.428 -5.597,8.143 -11.669,-3.399 -23.05,-1.292 -34.27,3.904 0.167,0.734 0.339,1.468 0.51,2.203 7.068,2.264 14.138,4.525 21.201,6.786 5.601,-1.244 11.202,-2.488 16.801,-3.729 0,1.073 0,2.146 0,3.221 -5.43,1.13 -10.856,2.262 -16.289,3.394 -5.994,-1.583 -11.988,-3.166 -17.982,-4.751 -1.642,-0.733 -3.052,-0.564 -4.24,0.509 -0.229,0.964 -0.456,1.923 -0.678,2.886 6.645,2.855 13.712,5.286 21.715,6.787 28.396,-10.732 46.648,-4.143 56.494,16.792 1.356,-0.734 2.713,-1.469 4.07,-2.203 5.32,0 10.636,0 15.947,0 0.849,0.734 1.698,1.469 2.547,2.203 5.994,-3.278 10.178,-2.262 12.557,3.055 0.676,-1.188 1.352,-2.374 2.034,-3.56 -0.114,-2.039 -0.227,-4.074 -0.341,-6.111 -3.332,0.057 -6.669,0.116 -10.007,0.169 z m 48.196,-39.782 c 0.037,1.841 0.067,3.685 0.1,5.525 -4.308,-0.265 -8.619,-0.574 -12.926,-3.75 -0.255,-6.694 6.177,-4.379 12.826,-1.775 z m -116.278,14.503 c -4.759,1.077 -9.515,2.149 -14.271,3.224 -4.631,-1.228 -9.267,-2.457 -13.902,-3.683 0.063,-0.399 0.125,-0.799 0.186,-1.195 4.266,-0.952 8.53,-1.902 12.798,-2.854 5.096,0.828 10.189,1.654 15.282,2.485 -0.028,0.675 -0.061,1.349 -0.093,2.023 z m 15.148,-36.474 c -0.337,-0.51 -0.674,-1.017 -1.017,-1.527 1.505,0.581 3.089,0.92 4.75,1.017 0.961,-0.055 1.927,-0.111 2.886,-0.168 2.883,0.057 5.648,-0.127 8.53,-0.07 2.886,-1.701 5.891,-2.197 8.774,-1.964 0.054,1.243 0.114,2.489 0.17,3.731 -2.944,0.229 -5.882,0.991 -8.822,1.867 -0.905,0.32 -1.81,0.32 -2.715,0 -0.454,-0.057 -0.905,-0.114 -1.357,-0.17 -1.639,-0.393 -2.229,0.432 -2.886,1.188 -2.216,2.099 -3.333,4.354 -4.411,6.615 -1.696,-0.056 -3.391,-0.112 -5.089,-0.168 0.564,-2.886 1.132,-5.769 1.698,-8.653 0.314,-0.729 0.144,-1.293 -0.511,-1.698 z m 4.757,19.581 c -0.408,-0.57 -0.462,-0.967 -0.868,-1.538 1.341,-3.838 2.773,-7.559 5.523,-10.461 5.061,0.195 10.122,0.008 15.179,-0.732 0.328,1.305 0.654,2.611 0.98,3.917 -0.575,0.815 -1.143,1.632 -1.715,2.447 -5.551,-1.486 -11.1,1.538 -16.652,6.612 -0.812,-0.082 -1.629,-0.163 -2.447,-0.245 z m 21.375,42.959 c -3.631,-5.809 -7.934,-10.31 -13.034,-13.924 0.575,-0.687 1.307,-2.312 1.512,-3.361 1.739,0 3.478,0 5.212,0 3.568,2.864 5.422,5.871 6.793,8.917 0.892,0.458 1.715,0.964 2.056,1.784 1.477,2.233 -0.821,5.165 -2.539,6.584 z m 22.414,-0.89 c -0.839,-0.337 -1.677,-0.67 -2.517,-1.007 1.274,-9.295 -0.54,-11.308 -10.239,-11.414 -1.676,1.854 -3.746,1.739 -5.869,1.344 0,-1.734 0,-3.469 0,-5.201 9.716,-1.007 27.31,-3.517 18.625,16.278 z"
   id="path16"
   inkscape:connector-curvature="0"
   style="fill:#000000;stroke:none" />
<path
   d="m 225.12875,170.60675 v -0.562 l -2.814,-0.49 -0.076,-0.754 2.814,-1.016 -0.036,-0.751 -2.817,-0.039 -0.112,-1.05 2.664,-1.023 -0.11,-0.784 -2.927,-0.076 -0.188,-0.756 2.554,-1.503 -0.266,-0.718 -2.889,0.264 -0.339,-0.938 2.253,-1.847 -0.339,-0.599 -2.7,0.791 -0.412,-0.791 2.214,-1.884 -0.413,-0.715 -2.854,0.754 -0.639,-0.864 1.989,-2.11 -0.599,-0.715 -2.741,1.094 -0.601,-0.64 1.277,-2.672 -0.564,-0.642 -2.478,1.695 -0.674,-0.644 1.274,-2.556 -0.713,-0.526 -2.365,1.729 -0.786,-0.488 1.196,-2.56 -0.635,-0.337 -2.043,2.037 -0.508,-0.231 0.972,-2.747 -0.879,-0.333 -1.348,2.445 -0.891,-0.324 0.67,-2.764 -1.067,-0.321 -1.203,2.561 -1.175,-0.331 0.104,-2.865 -1.05,-0.178 -0.976,2.609 -1.303,-0.123 -0.067,-2.83 -1.339,-0.043 -0.449,2.775 -1.313,-0.036 -0.479,-2.792 h -1.353 l -0.093,2.891 -1.354,0.29 -0.861,-2.7 -1.353,0.288 0.192,2.801 -0.866,0.285 -1.255,-2.507 -1.061,0.29 0.674,2.7 -0.674,0.385 -1.545,-2.41 -1.058,0.387 0.671,2.89 -0.863,0.389 -1.351,-2.313 -0.868,0.385 0.577,3.085 -0.77,0.483 -1.64,-2.123 -0.948,0.633 1.087,2.704 -0.484,0.492 -2.328,-1.693 -0.529,0.599 1.504,2.447 -0.411,0.415 -2.218,-1.693 -0.413,0.49 1.538,2.56 -0.332,0.488 -2.48,-1.504 -0.41,0.64 1.875,2.255 -0.376,0.718 -2.59,-1.094 -0.376,0.638 2.141,1.959 -0.225,0.642 -2.89,-0.376 -0.115,0.451 2.251,1.806 -0.186,0.563 -2.739,-0.601 -0.188,0.414 2.478,1.845 -0.151,0.562 -2.888,-0.225 -0.115,0.679 2.627,1.465 -0.036,0.792 -2.854,0.378 -0.039,0.564 2.706,0.822 0.071,0.757 -2.813,1.127 v 0.679 l 2.891,0.337 0.11,0.717 -2.739,0.942 0.151,0.9 h 2.89 l 0.223,0.982 -2.624,1.201 0.188,0.676 2.852,-0.375 0.264,0.863 -2.556,1.206 0.303,0.715 2.929,-0.303 0.337,0.829 -2.102,2.069 0.376,0.718 2.852,-0.903 0.485,0.903 -1.872,2.104 0.334,0.566 2.702,-1.053 0.491,0.523 -1.502,2.522 0.486,0.564 2.44,-1.504 0.525,0.488 -1.465,2.484 0.378,0.412 2.588,-1.542 0.64,0.529 -1.351,2.369 0.523,0.451 2.216,-1.918 0.786,0.411 -0.823,2.749 0.601,0.34 1.839,-2.26 0.749,0.415 -0.713,2.786 0.64,0.225 1.763,-2.372 0.903,0.301 -0.19,2.862 0.601,0.227 1.315,-2.563 1.05,0.228 0.189,2.82 0.64,0.112 0.938,-2.669 0.975,0.15 v 2.782 l 0.563,-0.039 1.013,-2.743 0.789,-0.038 0.563,2.747 0.524,0.073 0.563,-2.859 0.938,-0.225 0.639,2.786 0.752,-0.078 0.337,-2.972 0.603,-0.112 1.499,2.521 0.64,-0.188 -0.527,-2.823 0.638,-0.227 1.767,2.373 0.525,-0.227 -0.563,-2.786 0.447,-0.225 2.104,2.182 0.337,-0.149 -0.823,-2.75 0.447,-0.263 2.143,2.071 0.298,-0.264 -1.011,-2.745 0.522,-0.415 2.212,1.957 0.417,-0.342 -1.315,-2.557 0.376,-0.376 2.513,1.508 0.378,-0.381 -1.655,-2.218 0.456,-0.452 2.698,1.206 0.305,-0.376 -1.689,-2.221 0.374,-0.527 2.59,1.128 0.376,-0.378 -1.878,-2.294 0.449,-0.713 2.966,0.447 0.266,-0.374 -2.216,-1.918 0.337,-0.715 2.816,0.639 0.225,-0.526 -2.253,-1.957 0.228,-0.75 2.927,0.073 0.146,-0.416 -2.624,-1.353 0.261,-1.055 2.889,-0.073 0.077,-0.526 -2.665,-1.167 0.075,-0.829 2.888,-0.785 z m -24.547,12.667 c -6.917,0 -12.565,-5.648 -12.565,-12.567 0,-6.921 5.648,-12.563 12.565,-12.563 6.925,0 12.567,5.642 12.567,12.563 0,6.918 -5.642,12.567 -12.567,12.567 z"
   id="path18"
   inkscape:connector-curvature="0"
   style="fill:#000000;stroke:none" />
<path
   d="m 206.36775,180.34375 c 1.871,-0.63 3.344,-2.838 3.591,-3.59 3.207,-9.832 -9.371,5.539 -3.591,3.59 z"
   id="path20"
   inkscape:connector-curvature="0"
   style="fill:#000000;stroke:none" />
<path
   d="m 113.13975,179.66575 2.163,-0.777 -0.026,-0.581 -2.162,-0.026 -0.086,-0.81 2.048,-0.782 -0.091,-0.607 -2.246,-0.058 -0.145,-0.577 1.961,-1.155 -0.203,-0.551 -2.221,0.203 -0.257,-0.724 1.73,-1.413 -0.263,-0.467 -2.076,0.609 -0.313,-0.609 1.7,-1.442 -0.318,-0.549 -2.19,0.574 -0.493,-0.663 1.527,-1.62 -0.458,-0.551 -2.104,0.841 -0.464,-0.49 0.98,-2.053 -0.432,-0.49 -1.905,1.301 -0.517,-0.493 0.979,-1.965 -0.546,-0.404 -1.816,1.328 -0.605,-0.373 0.922,-1.971 -0.493,-0.259 -1.57,1.568 -0.391,-0.182 0.751,-2.108 -0.68,-0.255 -1.031,1.877 -0.689,-0.248 0.517,-2.121 -0.819,-0.249 -0.924,1.971 -0.903,-0.255 0.083,-2.206 -0.808,-0.136 -0.75,2.007 -0.998,-0.095 -0.056,-2.178 -1.03,-0.032 -0.343,2.136 -1.004,-0.025 -0.372,-2.151 h -1.038 l -0.076,2.223 -1.037,0.225 -0.666,-2.076 -1.034,0.225 0.146,2.147 -0.667,0.223 -0.965,-1.93 -0.814,0.226 0.519,2.073 -0.519,0.296 -1.186,-1.854 -0.814,0.296 0.518,2.225 -0.663,0.294 -1.041,-1.775 -0.663,0.296 0.445,2.37 -0.594,0.367 -1.259,-1.627 -0.724,0.483 0.832,2.081 -0.374,0.378 -1.789,-1.303 -0.404,0.464 1.151,1.882 -0.317,0.315 -1.698,-1.301 -0.32,0.376 1.184,1.966 -0.261,0.376 -1.903,-1.155 -0.318,0.492 1.443,1.734 -0.29,0.549 -1.987,-0.843 -0.29,0.493 1.646,1.503 -0.173,0.492 -2.221,-0.289 -0.09,0.346 1.732,1.391 -0.145,0.433 -2.106,-0.463 -0.141,0.315 1.903,1.417 -0.117,0.437 -2.218,-0.173 -0.089,0.519 2.018,1.128 -0.028,0.604 -2.19,0.291 -0.028,0.435 2.076,0.633 0.056,0.581 -2.163,0.868 v 0.519 l 2.221,0.26 0.086,0.548 -2.104,0.724 0.112,0.696 h 2.223 l 0.171,0.749 -2.018,0.927 0.145,0.521 2.19,-0.289 0.203,0.665 -1.961,0.925 0.231,0.549 2.25,-0.233 0.257,0.639 -1.616,1.586 0.292,0.551 2.192,-0.691 0.372,0.691 -1.443,1.62 0.261,0.434 2.078,-0.812 0.369,0.406 -1.151,1.935 0.378,0.437 1.877,-1.157 0.399,0.38 -1.125,1.905 0.29,0.319 1.987,-1.188 0.495,0.406 -1.041,1.822 0.406,0.342 1.7,-1.471 0.607,0.317 -0.635,2.112 0.46,0.259 1.413,-1.736 0.577,0.319 -0.549,2.141 0.491,0.171 1.354,-1.818 0.696,0.23 -0.147,2.192 0.464,0.176 1.007,-1.968 0.81,0.177 0.141,2.166 0.49,0.089 0.722,-2.052 0.751,0.112 v 2.143 l 0.432,-0.03 0.778,-2.112 0.607,-0.026 0.434,2.108 0.404,0.061 0.432,-2.199 0.719,-0.173 0.488,2.139 0.577,-0.059 0.261,-2.283 0.462,-0.084 1.153,1.934 0.49,-0.143 -0.408,-2.167 0.495,-0.175 1.356,1.823 0.404,-0.177 -0.434,-2.139 0.345,-0.173 1.616,1.676 0.257,-0.114 -0.633,-2.112 0.345,-0.201 1.644,1.592 0.229,-0.203 -0.775,-2.112 0.401,-0.317 1.7,1.504 0.317,-0.262 -1.009,-1.964 0.29,-0.287 1.931,1.155 0.287,-0.289 -1.266,-1.706 0.346,-0.346 2.076,0.924 0.231,-0.289 -1.298,-1.706 0.287,-0.404 1.989,0.868 0.29,-0.291 -1.44,-1.763 0.343,-0.549 2.279,0.346 0.203,-0.287 -1.705,-1.476 0.264,-0.549 2.162,0.492 0.171,-0.405 -1.73,-1.504 0.175,-0.579 2.249,0.057 0.114,-0.315 -2.017,-1.041 0.201,-0.809 2.223,-0.06 0.054,-0.402 -2.046,-0.898 0.056,-0.635 2.221,-0.605 v -0.434 l -2.162,-0.374 -0.055,-0.589 z m -16.632,11.115 c -5.318,0 -9.651,-4.333 -9.651,-9.65 0,-5.318 4.333,-9.653 9.651,-9.653 5.316,0 9.653,4.335 9.653,9.653 0,5.317 -4.337,9.65 -9.653,9.65 z"
   id="path22"
   inkscape:connector-curvature="0"
   style="fill:#000000;stroke:none" />
<path
   d="m 100.95075,188.53475 c 1.438,-0.488 2.57,-2.182 2.754,-2.761 2.465,-7.551 -7.191,4.26 -2.754,2.761 z"
   id="path24"
   inkscape:connector-curvature="0"
   style="fill:#000000;stroke:none" />
<path
   d="m 63.03575,160.52375 c 0,-0.939 0.175,-1.982 0.445,-2.884 l -10.269,0.002 -2.024,0.493 -0.028,0.399 1.918,0.585 0.054,0.536 -2,0.799 v 0.479 l 2.052,0.242 0.08,0.506 -1.944,0.669 0.105,0.64 h 2.05 l 0.16,0.691 -1.864,0.855 0.132,0.478 2.026,-0.264 0.184,0.611 -1.806,0.855 0.209,0.505 2.078,-0.214 0.24,0.586 -1.49,1.469 0.263,0.508 2.024,-0.642 0.341,0.642 -1.326,1.492 0.24,0.401 1.914,-0.747 0.35,0.372 -1.067,1.788 0.346,0.401 1.728,-1.069 0.376,0.349 -1.039,1.758 0.266,0.294 1.838,-1.093 0.449,0.376 -0.959,1.68 0.375,0.315 1.573,-1.356 0.555,0.294 -0.583,1.948 0.423,0.235 1.305,-1.596 0.532,0.289 -0.503,1.977 0.448,0.159 1.253,-1.678 0.637,0.212 -0.13,2.028 0.423,0.159 0.929,-1.814 0.745,0.16 0.134,2 0.452,0.08 0.665,-1.893 0.696,0.106 v 1.974 l 0.395,-0.025 0.717,-1.948 0.564,-0.026 0.397,1.948 0.37,0.052 0.397,-2.025 0.041,-7.163 c -4.86,-0.054 -8.862,-4.052 -8.862,-8.96 z"
   id="path26"
   inkscape:connector-curvature="0"
   style="fill:#000000;stroke:none" />
</svg>