<?xml version="1.0" encoding="UTF-8" standalone="no"?>
<!-- Generator: Adobe Illustrator 12.0.1, SVG Export Plug-In  -->

<svg
   xmlns:dc="http://purl.org/dc/elements/1.1/"
   xmlns:cc="http://creativecommons.org/ns#"
   xmlns:rdf="http://www.w3.org/1999/02/22-rdf-syntax-ns#"
   xmlns:svg="http://www.w3.org/2000/svg"
   xmlns="http://www.w3.org/2000/svg"
   xmlns:sodipodi="http://sodipodi.sourceforge.net/DTD/sodipodi-0.dtd"
   xmlns:inkscape="http://www.inkscape.org/namespaces/inkscape"
   version="1.1"
   width="286.66125"
   height="286.66476"
   viewBox="-1 0 286.66125 286.66476"
   enable-background="new -1 0 289 288"
   xml:space="preserve"
   id="svg2"
   inkscape:version="0.48.2 r9819"
   sodipodi:docname="AJAX1.svg"><metadata
   id="metadata50"><rdf:RDF><cc:Work
       rdf:about=""><dc:format>image/svg+xml</dc:format><dc:type
         rdf:resource="http://purl.org/dc/dcmitype/StillImage" /></cc:Work></rdf:RDF></metadata><sodipodi:namedview
   pagecolor="#ffffff"
   bordercolor="#666666"
   borderopacity="1"
   objecttolerance="10"
   gridtolerance="10"
   guidetolerance="10"
   inkscape:pageopacity="0"
   inkscape:pageshadow="2"
   inkscape:window-width="1280"
   inkscape:window-height="1004"
   id="namedview48"
   showgrid="false"
   fit-margin-top="0"
   fit-margin-left="0"
   fit-margin-right="0"
   fit-margin-bottom="0"
   inkscape:zoom="1.6388889"
   inkscape:cx="104.79143"
   inkscape:cy="129.964"
   inkscape:window-x="-8"
   inkscape:window-y="-8"
   inkscape:window-maximized="1"
   inkscape:current-layer="svg2" />
<defs
   id="defs4">
</defs>
<path
   d="M 3.0987498,133.3875 132.37975,4.1055 c 5.471,-5.474 14.421,-5.474 19.895,0 l 129.284,129.282 c 5.47,5.471 5.47,14.423 0,19.889 l -129.284,129.285 c -5.474,5.471 -14.424,5.471 -19.895,0 L 3.0987498,153.2755 c -5.465,-5.465 -5.465,-14.418 0,-19.888 z"
   id="path6"
   style="fill:#ffd033;stroke:none;fill-opacity:1"
   inkscape:connector-curvature="0" />

<path
   clip-rule="evenodd"
   d="M 6.2217498,135.4405 134.44075,7.2205 c 4.339,-4.339 11.442,-4.339 15.785,0 l 128.215,128.22 c 4.343,4.343 4.343,11.438 0,15.777 l -128.215,128.224 c -4.343,4.336 -11.446,4.336 -15.785,0 L 6.2217498,151.2175 c -4.339,-4.339 -4.339,-11.435 0,-15.777"
   id="path10"
   inkscape:connector-curvature="0"
   style="fill-rule:evenodd;fill:#000000;stroke:none" />
<path
   clip-rule="evenodd"
   d="m 10.22475,139.3905 128.162,-128.162 c 2.162,-2.169 5.724,-2.169 7.889,0 l 128.16,128.162 c 2.166,2.166 2.166,5.716 0,7.883 l -128.16,128.161 c -2.165,2.168 -5.727,2.168 -7.889,0 l -128.162,-128.161 c -2.1660002,-2.167 -2.1660002,-5.717 0,-7.883"
   id="path12"
   inkscape:connector-curvature="0"
   style="fill:#ffd033;fill-rule:evenodd;stroke:none;fill-opacity:1" />
<path
   d="m 66.91475,175.9905 v -34.677 h 4.969 v 30.071 h 12.681 v 4.606 h -17.65 z"
   id="path14"
   inkscape:connector-curvature="0"
   style="stroke:none;fill:#000000" />
<path
   d="m 104.90475,175.9905 -2.433,-9.472 h -7.453 l -2.277,9.472 h -5.021 l 8.644,-34.677 h 4.865 l 8.644,34.677 h -4.969 z m -6.211,-24.326 -2.433,9.989 h 4.969 l -2.536,-9.989 z"
   id="path16"
   inkscape:connector-curvature="0"
   style="stroke:none;fill:#000000" />
<path
   d="m 133.73375,171.7465 c -1.708,2.795 -4.969,4.865 -8.281,4.865 -3.416,0 -6.78,-1.967 -8.488,-4.865 -0.983,-1.863 -1.346,-3.313 -1.346,-6.107 v -24.326 h 4.969 v 24.947 c 0,3.261 1.967,5.486 4.865,5.486 2.691,0 4.658,-2.226 4.658,-5.486 v -24.947 h 4.969 v 24.326 c 0,2.795 -0.362,4.244 -1.346,6.107 z"
   id="path18"
   inkscape:connector-curvature="0"
   style="stroke:none;fill:#000000" />
<path
   d="m 159.30175,175.9905 -10.713,-23.239 v 23.239 h -4.969 v -34.677 h 4.969 l 9.523,20.806 v -20.806 h 4.969 v 34.677 h -3.779 z"
   id="path20"
   inkscape:connector-curvature="0"
   style="stroke:none;fill:#000000" />
<path
   d="m 185.38775,150.5765 c -0.518,-3.415 -1.863,-5.02 -4.141,-5.02 -4.037,0 -5.486,3.157 -5.486,12.163 0,9.989 1.709,14.026 5.953,14.026 2.898,0 3.674,-2.433 3.674,-5.021 h 4.969 c -0.104,5.745 -3.777,9.886 -8.643,9.886 -7.402,0 -10.715,-5.952 -10.715,-18.736 0,-11.231 3.52,-17.183 10.352,-17.183 2.795,0 5.229,1.242 6.832,3.52 1.295,1.708 1.813,3.208 2.174,6.365 h -4.969 z"
   id="path22"
   inkscape:connector-curvature="0"
   style="stroke:none;fill:#000000" />
<path
   d="m 212.76675,175.9905 v -15.683 h -9.523 v 15.683 h -4.969 v -34.677 h 4.969 v 14.129 h 9.523 v -14.129 h 4.969 v 34.677 h -4.969 z"
   id="path24"
   inkscape:connector-curvature="0"
   style="stroke:none;fill:#000000" />
<path
   d="m 109.97675,219.8055 -2.433,-9.472 h -7.453 l -2.277,9.472 h -5.021 l 8.644,-34.678 h 4.865 l 8.644,34.678 h -4.969 z m -6.211,-24.327 -2.433,9.99 h 4.969 l -2.536,-9.99 z"
   id="path26"
   inkscape:connector-curvature="0"
   style="stroke:none;fill:#000000" />
<path
   d="m 135.33775,219.8055 -4.606,-16.304 h -4.762 v 16.304 h -4.969 v -34.678 h 10.352 c 5.435,0 9.109,3.675 9.109,9.264 0,4.141 -1.708,7.144 -4.969,8.386 l 4.969,17.028 h -5.124 z m -4.244,-29.813 h -5.124 v 8.746 h 5.124 c 2.898,0 4.503,-1.553 4.503,-4.348 0,-2.69 -1.812,-4.398 -4.503,-4.398 z"
   id="path28"
   inkscape:connector-curvature="0"
   style="stroke:none;fill:#000000" />
<path
   d="m 147.60475,219.8055 v -34.678 h 16.304 v 4.865 h -11.335 v 8.746 h 7.194 v 4.763 h -7.194 v 11.438 h 12.681 v 4.865 h -17.65 z"
   id="path30"
   inkscape:connector-curvature="0"
   style="stroke:none;fill:#000000" />
<path
   d="m 186.88875,219.8055 -2.433,-9.472 h -7.453 l -2.277,9.472 h -5.021 l 8.644,-34.678 h 4.865 l 8.644,34.678 h -4.969 z m -6.211,-24.327 -2.433,9.99 h 4.969 l -2.536,-9.99 z"
   id="path32"
   inkscape:connector-curvature="0"
   style="stroke:none;fill:#000000" />
<path
   d="m 68.85475,131.2645 h -10.197 v -34.678 h 10.921 c 4.658,0 7.918,3.675 7.918,9.005 0,3.157 -0.828,4.606 -3.623,7.557 2.64,2.174 4.244,5.073 4.244,8.644 0.001,5.228 -4.139,9.472 -9.263,9.472 z m 0,-29.812 h -5.228 v 9.264 h 5.228 c 2.33,0 3.778,-1.967 3.778,-5.124 0,-2.898 -1.086,-4.14 -3.778,-4.14 z m -0.207,14.129 h -5.021 v 10.817 h 5.021 c 2.795,0 4.606,-1.967 4.606,-4.969 0,-3.312 -2.07,-5.848 -4.606,-5.848 z"
   id="path34"
   inkscape:connector-curvature="0"
   style="stroke:none;fill:#000000" />
<path
   d="m 98.45975,131.2645 -2.433,-9.472 h -7.452 l -2.277,9.472 h -5.021 l 8.644,-34.677 h 4.865 l 8.644,34.677 h -4.97 z m -6.211,-24.327 -2.433,9.99 h 4.969 l -2.536,-9.99 z"
   id="path36"
   inkscape:connector-curvature="0"
   style="stroke:none;fill:#000000" />
<path
   d="m 108.19075,131.2645 v -34.678 h 4.969 v 30.071 h 12.681 v 4.606 h -17.65 z"
   id="path38"
   inkscape:connector-curvature="0"
   style="stroke:none;fill:#000000" />
<path
   d="m 130.70475,131.2645 v -34.678 h 4.969 v 30.071 h 12.681 v 4.606 h -17.65 z"
   id="path40"
   inkscape:connector-curvature="0"
   style="stroke:none;fill:#000000" />
<path
   d="m 170.97275,125.9335 c -1.708,4.089 -4.244,5.952 -8.126,5.952 -4.141,0 -6.573,-1.863 -8.281,-5.952 -1.449,-3.416 -1.967,-6.729 -1.967,-12.06 0,-5.228 0.518,-8.747 1.967,-12.059 1.812,-4.141 4.244,-5.849 8.281,-5.849 3.985,0 6.418,1.708 8.126,5.952 1.449,3.415 1.967,6.728 1.967,11.955 0,5.332 -0.518,8.748 -1.967,12.061 z m -3.882,-20.704 c -0.88,-3.053 -2.174,-4.398 -4.244,-4.398 -2.226,0 -3.571,1.346 -4.399,4.295 -0.828,2.64 -1.087,4.969 -1.087,8.851 0,3.779 0.362,5.953 1.087,8.748 0.828,2.95 2.174,4.296 4.399,4.296 2.07,0 3.364,-1.346 4.244,-4.296 0.828,-2.795 1.087,-4.865 1.087,-8.851 0,-3.883 -0.362,-6.109 -1.087,-8.645 z"
   id="path42"
   inkscape:connector-curvature="0"
   style="stroke:none;fill:#000000" />
<path
   d="m 197.62875,125.9335 c -1.708,4.089 -4.244,5.952 -8.126,5.952 -4.141,0 -6.573,-1.863 -8.281,-5.952 -1.449,-3.416 -1.967,-6.729 -1.967,-12.06 0,-5.228 0.518,-8.747 1.967,-12.059 1.812,-4.141 4.244,-5.849 8.281,-5.849 3.985,0 6.418,1.708 8.126,5.952 1.449,3.415 1.967,6.728 1.967,11.955 0,5.332 -0.518,8.748 -1.967,12.061 z m -3.882,-20.704 c -0.88,-3.053 -2.174,-4.398 -4.244,-4.398 -2.226,0 -3.571,1.346 -4.399,4.295 -0.828,2.64 -1.087,4.969 -1.087,8.851 0,3.779 0.362,5.953 1.087,8.748 0.828,2.95 2.174,4.296 4.399,4.296 2.07,0 3.364,-1.346 4.244,-4.296 0.828,-2.795 1.087,-4.865 1.087,-8.851 0,-3.883 -0.362,-6.109 -1.087,-8.645 z"
   id="path44"
   inkscape:connector-curvature="0"
   style="stroke:none;fill:#000000" />
<path
   d="m 222.21375,131.2645 -10.714,-23.24 v 23.24 h -4.969 v -34.678 h 4.969 l 9.523,20.806 v -20.806 h 4.969 v 34.677 h -3.778 z"
   id="path46"
   inkscape:connector-curvature="0"
   style="stroke:none;fill:#000000" />
</svg>