<?xml version="1.0" encoding="UTF-8" standalone="no"?>
<svg
   xmlns:dc="http://purl.org/dc/elements/1.1/"
   xmlns:cc="http://creativecommons.org/ns#"
   xmlns:rdf="http://www.w3.org/1999/02/22-rdf-syntax-ns#"
   xmlns:svg="http://www.w3.org/2000/svg"
   xmlns="http://www.w3.org/2000/svg"
   xmlns:sodipodi="http://sodipodi.sourceforge.net/DTD/sodipodi-0.dtd"
   xmlns:inkscape="http://www.inkscape.org/namespaces/inkscape"
   width="90"
   height="89.993645"
   viewBox="0 0 254.00006 253.98205"
   version="1.1"
   id="svg2"
   inkscape:version="0.48.2 r9819"
   sodipodi:docname="AJAX1.svg">
  <metadata
     id="metadata62">
    <rdf:RDF>
      <cc:Work
         rdf:about="">
        <dc:format>image/svg+xml</dc:format>
        <dc:type
           rdf:resource="http://purl.org/dc/dcmitype/StillImage" />
        <dc:title></dc:title>
      </cc:Work>
    </rdf:RDF>
  </metadata>
  <defs
     id="defs60" />
  <sodipodi:namedview
     pagecolor="#ffffff"
     bordercolor="#666666"
     borderopacity="1"
     objecttolerance="10"
     gridtolerance="10"
     guidetolerance="10"
     inkscape:pageopacity="0"
     inkscape:pageshadow="2"
     inkscape:window-width="1280"
     inkscape:window-height="1004"
     id="namedview58"
     showgrid="false"
     fit-margin-top="0"
     fit-margin-left="0"
     fit-margin-right="0"
     fit-margin-bottom="0"
     inkscape:zoom="5.6568543"
     inkscape:cx="46.662167"
     inkscape:cy="38.551963"
     inkscape:window-x="-8"
     inkscape:window-y="-8"
     inkscape:window-maximized="1"
     inkscape:current-layer="svg2" />
  <!-- draw the bicycle -->
  <!-- RIGHT -->
  <!-- LANE -->
  <!-- ONLY -->
  <path
     inkscape:connector-curvature="0"
     d="m 135.22681,250.57459 115.34072,-115.3478 c 2.17311,-2.1625 3.43253,-5.1611 3.43253,-8.2338 0,-3.0657 -1.25942,-6.0643 -3.43253,-8.2339 L 135.22681,3.4113932 C 133.05017,1.2417932 130.0692,-0.00710688 126.98239,-6.8745622e-6 123.91675,0.01399312 120.92167,1.2487932 118.74856,3.4113932 L 3.41137,118.75909 C 1.25237,120.91109 0,123.94139 0,126.99299 c 0,3.0515 1.25237,6.0854 3.41137,8.2338 l 115.33719,115.3478 c 2.79752,2.7975 7.00969,3.9899 10.8585,3.1362 2.2225,-0.5045 3.86997,-1.7286 5.61975,-3.1362"
     style="fill:#ffd033;fill-opacity:1;fill-rule:nonzero;stroke:none"
     id="path6190" />
  <path
     inkscape:connector-curvature="0"
     d="M 121.05784,248.26779 5.72065,132.92709 c -1.56633,-1.5734 -2.45886,-3.7218 -2.45886,-5.9338 0,-2.2119 0.89253,-4.3532 2.45886,-5.9266 L 121.05784,5.7047932 c 1.55575,-1.5487 3.73592,-2.4307 5.93019,-2.4307 2.19428,0 4.37092,0.882 5.92667,2.4307 L 248.28012,121.06669 c 1.54869,1.5592 2.43417,3.7288 2.43417,5.9266 0,2.1978 -0.88548,4.3745 -2.43417,5.9338 L 132.9147,248.26779 c -1.56986,1.5628 -3.71475,2.4518 -5.92667,2.4518 -2.21191,0 -4.36033,-0.889 -5.93019,-2.4518"
     style="fill:#000000;fill-opacity:1;fill-rule:evenodd;stroke:none"
     id="path6198" />
  <path
     inkscape:connector-curvature="0"
     d="m 124.28257,245.05039 c 0.70203,0.7091 1.7145,1.1219 2.7058,1.1219 0.98073,0 2.02142,-0.4128 2.71992,-1.1219 l 115.34425,-115.3477 c 0.6985,-0.7021 1.11125,-1.7181 1.11125,-2.7094 0,-0.9772 -0.41275,-2.0179 -1.11125,-2.7199 L 129.70829,8.9291932 c -0.71261,-0.7021 -1.72156,-1.0936 -2.71992,-1.0936 -0.99836,0.01 -1.99319,0.3915 -2.7058,1.0936 L 8.92421,124.27339 c -0.6985,0.702 -1.11478,1.7427 -1.11478,2.7199 0,0.9913 0.41628,2.0073 1.11478,2.7094 l 115.35836,115.3477 z"
     style="fill:#ffd033;fill-opacity:1;fill-rule:evenodd;stroke:none"
     id="path6202" />
  <path
     d="m 145.98867,81.894769 0,-4.356807 -11.33476,0 0,-10.248197 6.43467,0 0,-4.247445 -6.43467,0 0,-7.842252 10.13531,0 0,-4.363862 -14.60148,0 0,31.058563 15.80093,0 z M 120.7086,73.068267 c 0,2.726973 -1.64041,4.469695 -4.14161,4.469695 l -4.47322,0 0,-9.701391 4.47322,0 c 2.286,0 4.14161,2.289528 4.14161,5.231696 m -0.54327,-14.167559 c 0,2.836334 -1.31234,4.579057 -3.38314,4.579057 l -4.68842,0 0,-8.279697 4.68842,0 c 2.39536,0 3.38314,1.086556 3.38314,3.70064 m 4.89655,14.495642 c 0,-3.164417 -1.41111,-5.778501 -3.81,-7.736418 2.50825,-2.617612 3.26672,-3.92289 3.26672,-6.759224 0,-4.794251 -2.94216,-8.064502 -7.08378,-8.064502 l -9.80369,0 0,31.058563 9.15106,0 c 4.57905,0 8.27969,-3.813529 8.27969,-8.498419"
     style="fill:#000000;fill-opacity:1;fill-rule:evenodd;stroke:none"
     id="path6328"
     inkscape:connector-curvature="0" />
  <path
     d="m 207.31169,116.25957 c 0,2.39888 -0.22225,4.57552 -0.43391,6.5405 -0.44098,2.39536 -1.85562,4.46264 -4.47323,4.46264 l -3.70769,0 0,-22.3379 3.70769,0 c 1.96498,0 3.27378,0.98073 4.03225,3.16442 0.55034,1.30881 0.87489,4.68489 0.87489,8.17034 m 4.36034,-0.22225 c 0,-2.39184 -0.33161,-5.11881 -0.76553,-7.40481 -0.54328,-3.16442 -1.85208,-5.55625 -3.7077,-6.86153 -1.08655,-0.87489 -2.39536,-1.19945 -5.00591,-1.19945 l -7.95867,0 0,31.05504 8.6113,0 c 1.74273,0 3.26673,-0.43745 4.35328,-1.4217 3.05506,-2.39889 4.47323,-6.97089 4.47323,-14.16755 m -22.67656,15.58925 0,-4.36386 -11.3277,0 0,-10.23762 6.43114,0 0,-4.25097 -6.43114,0 0,-7.84931 10.13531,0 0,-4.35328 -14.60501,0 0,31.05504 15.7974,0 z M 163.7154,108.85123 c 0,2.5012 -1.41816,3.92289 -4.02872,3.92289 l -4.58258,0 0,-7.84931 4.58258,0 c 2.39536,0 4.02872,1.53106 4.02872,3.92642 m 4.36387,22.77534 -4.47323,-15.25764 c 2.94217,-1.08656 4.47323,-3.81706 4.47323,-7.5177 0,-5.0165 -3.27378,-8.2797 -8.18092,-8.2797 l -9.26042,0 0,31.05504 4.46617,0 0,-14.60148 4.25097,0 4.14161,14.60148 4.58259,0 z m -29.42874,-12.85875 -4.46616,0 2.17663,-8.93587 2.28953,8.93587 z m 7.73643,12.85875 -7.73643,-31.05504 -4.36386,0 -7.73642,31.05504 4.47323,0 2.06727,-8.50548 6.64634,0 2.18722,8.50548 4.46265,0 z m -26.0456,-22.34142 c 0,2.8328 -1.41817,4.46616 -4.02872,4.46616 l -4.58259,0 0,-8.8265 4.58259,0 c 2.39183,0 4.02872,1.74273 4.02872,4.36034 m 4.35681,0 c 0,-5.22817 -3.26672,-8.71362 -8.17386,-8.71362 l -9.26042,0 0,31.05504 4.46616,0 0,-13.62428 4.79426,0 c 5.23169,0 8.17386,-3.05153 8.17386,-8.71714 m -22.66951,22.34142 0,-4.36386 -11.334749,0 0,-10.23762 6.434668,0 0,-4.25097 -6.434668,0 0,-7.84931 10.135309,0 0,-4.35328 -14.601477,0 0,31.05504 15.800917,0 z M 76.748602,108.85123 c 0,2.5012 -1.418167,3.92289 -4.032251,3.92289 l -4.579057,0 0,-7.84931 4.579057,0 c 2.398889,0 4.032251,1.53106 4.032251,3.92642 m 4.360334,22.77534 -4.469695,-15.25764 c 2.942167,-1.08656 4.469695,-3.81706 4.469695,-7.5177 0,-5.0165 -3.27025,-8.2797 -8.17739,-8.2797 l -9.260419,0 0,31.05504 4.466167,0 0,-14.60148 4.250974,0 4.138084,14.60148 4.582584,0 z M 55.059819,109.28515 c 0,2.8328 -1.414639,4.46616 -4.032251,4.46616 l -4.575529,0 0,-8.8265 4.575529,0 c 2.39889,0 4.032251,1.74273 4.032251,4.36034 m 4.360334,0 c 0,-5.22817 -3.273778,-8.71362 -8.173863,-8.71362 l -9.267474,0 0,31.05504 4.473223,0 0,-13.62428 4.794251,0 c 5.231696,0 8.173863,-3.05153 8.173863,-8.71714"
     style="fill:#000000;fill-opacity:1;fill-rule:evenodd;stroke:none"
     id="path6332"
     inkscape:connector-curvature="0" />
  <path
     d="m 194.24833,159.01342 c 0,2.83633 -1.41464,4.47322 -4.03225,4.47322 l -4.58259,0 0,-8.8265 4.58259,0 c 2.39889,0 4.03225,1.74272 4.03225,4.35328 m 4.36033,0 c 0,-5.22817 -3.27378,-8.71714 -8.17739,-8.71714 l -9.26042,0 0,31.05503 4.46264,0 0,-13.62075 4.79778,0 c 5.23523,0 8.17739,-3.048 8.17739,-8.71714 m -27.90473,6.75922 c 0,3.59481 -0.21519,5.44336 -0.98072,7.95161 -0.762,2.61762 -1.96144,3.81706 -3.81706,3.81706 -1.95438,0 -3.15383,-1.19944 -3.91936,-3.81706 -0.65264,-2.50825 -0.97719,-4.46616 -0.97719,-7.84225 0,-3.4925 0.21166,-5.55978 0.97719,-7.95867 0.76553,-2.61055 1.96498,-3.81352 3.91936,-3.81352 1.85562,0 3.05506,1.20297 3.81706,3.92641 0.65617,2.286 0.98072,4.25098 0.98072,7.73642 m 4.25098,0 c 0,-4.68489 -0.43392,-7.62706 -1.74273,-10.67858 -1.524,-3.81353 -3.70769,-5.34106 -7.30603,-5.34106 -3.58775,0 -5.77144,1.52753 -7.4048,5.22817 -1.30881,2.94216 -1.74273,6.10658 -1.74273,10.79147 0,4.79425 0.43392,7.73642 1.74273,10.78442 1.52047,3.70417 3.70769,5.3587 7.4048,5.3587 3.49603,0 5.78203,-1.65453 7.30603,-5.3587 1.30881,-2.94217 1.74273,-5.99017 1.74273,-10.78442 m -21.90398,-11.33475 0,-4.14161 -15.80093,0 0,4.14161 5.66562,0 0,26.91342 4.4697,0 0,-26.91342 5.66561,0 z m -18.63726,18.41853 c 0,-4.47322 -2.61408,-7.84931 -8.60778,-11.33475 -2.286,-1.30881 -2.94217,-2.17664 -2.94217,-3.7077 0,-2.06728 1.63336,-3.59128 3.70064,-3.59128 1.96498,0 3.4925,1.41464 3.60539,3.59128 l 4.24392,0 c -0.10583,-4.68489 -3.48897,-8.06097 -7.84931,-8.06097 -4.46616,0 -7.95161,3.59833 -7.95161,8.06097 0,2.7305 1.30881,5.12587 3.81706,6.86859 6.31825,4.24392 4.57553,3.048 5.23169,3.70064 1.85209,1.42169 2.50825,2.7305 2.50825,4.47322 0,2.5012 -1.96497,4.68489 -4.36386,4.68489 -3.05153,0 -4.36033,-2.72697 -4.36033,-5.34106 l -4.36034,0 c 0,5.11881 3.27025,9.71551 8.72067,9.71551 4.79778,0 8.60778,-4.04989 8.60778,-9.05934 m -41.740675,-7.08378 c 0,3.59481 -0.215195,5.44336 -0.980723,7.95161 -0.765528,2.61762 -1.961445,3.81706 -3.817056,3.81706 -1.95439,0 -3.153834,-1.19944 -3.919362,-3.81706 -0.656167,-2.50825 -0.977195,-4.46616 -0.977195,-7.84225 0,-3.4925 0.211667,-5.55978 0.977195,-7.95867 0.765528,-2.61055 1.964972,-3.81352 3.919362,-3.81352 1.855611,0 3.051528,1.20297 3.817056,3.92641 0.656167,2.286 0.980723,4.25098 0.980723,7.73642 m 4.250973,0 c 0,-4.68489 -0.433917,-7.62706 -1.742723,-10.67858 -1.524,-3.81353 -3.707695,-5.34106 -7.306029,-5.34106 -3.587751,0 -5.771446,1.52753 -7.404808,5.22817 -1.308805,2.94216 -1.74625,6.10658 -1.74625,10.79147 0,4.79425 0.437445,7.73642 1.74625,10.78442 1.520473,3.70417 3.704168,5.3587 7.404808,5.3587 3.492501,0 5.782029,-1.65453 7.306029,-5.3587 1.308806,-2.94217 1.742723,-5.99017 1.742723,-10.78442 m -21.903978,-11.33475 0,-4.14161 -15.80092,0 0,4.14161 5.665613,0 0,26.91342 4.469695,0 0,-26.91342 5.665612,0 z"
     style="fill:#000000;fill-opacity:1;fill-rule:evenodd;stroke:none"
     id="path6336"
     inkscape:connector-curvature="0" />
</svg>
