<?xml version="1.0" encoding="UTF-8" standalone="no"?>
<!-- Created with Inkscape (http://www.inkscape.org/) -->

<svg
   xmlns:dc="http://purl.org/dc/elements/1.1/"
   xmlns:cc="http://creativecommons.org/ns#"
   xmlns:rdf="http://www.w3.org/1999/02/22-rdf-syntax-ns#"
   xmlns:svg="http://www.w3.org/2000/svg"
   xmlns="http://www.w3.org/2000/svg"
   xmlns:sodipodi="http://sodipodi.sourceforge.net/DTD/sodipodi-0.dtd"
   xmlns:inkscape="http://www.inkscape.org/namespaces/inkscape"
   width="49.251999in"
   height="49.251999in"
   viewBox="0 0 1251.0008 1251.0008"
   version="1.1"
   id="svg7045"
   inkscape:version="0.92.2 (5c3e80d, 2017-08-06)"
   sodipodi:docname="88.svg">
  <defs
     id="defs7039" />
  <sodipodi:namedview
     id="base"
     pagecolor="#ffffff"
     bordercolor="#666666"
     borderopacity="1.0"
     inkscape:pageopacity="0.0"
     inkscape:pageshadow="2"
     inkscape:zoom="0.14829203"
     inkscape:cx="1963.9176"
     inkscape:cy="2599.8523"
     inkscape:document-units="in"
     inkscape:current-layer="layer1"
     showgrid="false"
     units="in"
     fit-margin-top="0"
     fit-margin-left="0"
     fit-margin-right="0"
     fit-margin-bottom="0"
     inkscape:window-width="1920"
     inkscape:window-height="1057"
     inkscape:window-x="-8"
     inkscape:window-y="-8"
     inkscape:window-maximized="1" />
  <metadata
     id="metadata7042">
    <rdf:RDF>
      <cc:Work
         rdf:about="">
        <dc:format>image/svg+xml</dc:format>
        <dc:type
           rdf:resource="http://purl.org/dc/dcmitype/StillImage" />
        <dc:title></dc:title>
      </cc:Work>
    </rdf:RDF>
  </metadata>
  <g
     inkscape:label="Layer 1"
     inkscape:groupmode="layer"
     id="layer1"
     transform="translate(-395.02078,1895.1214)">
    <rect
       style="opacity:1;fill:#ffd400;fill-opacity:1;stroke:none;stroke-width:36.29109955;stroke-linejoin:round;stroke-miterlimit:4;stroke-dasharray:none;stroke-opacity:1"
       id="rect2313"
       width="914.40002"
       height="914.40002"
       x="-281.05981"
       y="-2076.5718"
       rx="57.150002"
       ry="57.150002"
       transform="matrix(-0.70710678,-0.70710678,-0.70710678,0.70710678,0,0)" />
    <rect
       ry="41.274998"
       rx="41.274998"
       y="-2060.6968"
       x="-265.18475"
       height="882.64996"
       width="882.64996"
       id="rect2315"
       style="opacity:1;fill:#000000;fill-opacity:1;stroke:none;stroke-width:35.0309906;stroke-linejoin:round;stroke-miterlimit:4;stroke-dasharray:none;stroke-opacity:1"
       transform="matrix(-0.70710678,-0.70710678,-0.70710678,0.70710678,0,0)" />
    <rect
       ry="19.049999"
       rx="19.049999"
       y="-2038.4719"
       x="-242.95969"
       height="838.20001"
       width="838.20001"
       id="rect2317"
       style="opacity:1;fill:#ffd400;fill-opacity:1;stroke:none;stroke-width:33.26684189;stroke-linejoin:round;stroke-miterlimit:4;stroke-dasharray:none;stroke-opacity:1"
       transform="matrix(-0.70710678,-0.70710678,-0.70710678,0.70710678,0,0)" />
    <path
       d="m 870.88401,-1226.0884 c -5.3326,-2.6216 -11.09861,-6.8888 -15.25029,-9.4046 0,19.9917 -19.10751,79.8885 -27.0183,92.7011 -4.8417,7.9098 -8.85511,19.6572 -32.2716,19.6572 l -62.6747,-0.038 h -0.056 c -1.0431,0 -1.8296,-0.8369 -1.8296,-1.9525 1.4335,-6.7102 9.8391,-17.3142 17.592,-17.7492 17.12,-0.8925 20.5438,-2.0639 20.2292,-7.6754 0,0 0.8088,-26.7801 3.107,-38.293 4.1724,-20.8396 3.2074,-25.09 6.2379,-40.9484 -6.1197,-3.9603 -9.3666,-2.4543 -13.814,-7.4188 l -0.1115,13.142 c -0.2231,5.6894 -3.8767,12.8294 -6.9273,14.977 -8.8942,6.2584 -29.0448,17.3586 -48.9388,21.9384 l 0.1115,27.5497 c 0,1.0599 -0.7308,1.8965 -1.7906,1.8965 -23.6134,-1.0041 -50.86757,-20.1869 -50.86757,-43.1348 0,-23.5113 17.11997,-31.0863 26.48657,-44.4122 1.3165,-1.9522 2.0081,-4.7413 2.0081,-7.971 0,-2.1754 -0.3347,-4.1836 -1.004,-5.8792 -0.8479,-1.8407 -1.4949,-6.1414 -1.4949,-8.6626 0,-4.0162 1.7292,-10.2916 0.1115,-10.8605 -22.45267,-2.0082 -34.55477,-3.9604 -41.10724,-7.4969 -2.2423,-1.0598 -2.538,-1.1156 -4.468,-1.1156 -0.608,0 -1.2773,0 -1.9467,0.5577 -4.0162,1.2831 -8.5009,0.8926 -12.4167,-1.3386 -4.9979,-2.9006 -6.9268,-7.1232 -7.7333,-12.3945 -5.2155,0 -10.1738,-3.9044 -10.2921,-7.4409 -0.056,-2.1754 -0.965,-4.1278 -1.969,-5.1877 -0.9259,-0.9482 -1.9077,-1.3944 -2.6551,-1.785 -2.9731,-1.506 -5.0593,-4.5738 -5.0593,-8.1438 0,-5.0202 4.111,-9.0141 9.1307,-9.0141 5.2154,0 10.8425,-0.5579 12.8099,-6.2362 1.5339,-4.574 5.2545,-5.8457 7.4974,-11.5911 l -0.4462,-10.7879 c 0,-7.9655 3.4249,-16.1318 9.4062,-20.5439 5.2322,-5.2433 7.5365,-4.2951 8.1857,-11.2732 -1.3554,-2.4543 -2.2646,-5.4665 -2.2646,-8.462 0,-9.4659 7.65527,-17.1189 17.11997,-17.1189 8.79597,0 16.05747,6.4538 16.98227,15.0329 2.3595,-0.7809 4.8418,-1.2273 7.4774,-1.2273 1.9858,0 3.9381,0 5.7855,0.7252 0.9259,0 2.1252,0 3.0121,0.5579 4.111,-0.5579 7.7529,-2.064 10.5274,-4.1279 5.5887,-3.793 18.3205,-5.5891 29.6154,-5.5891 7.4188,0 17.3365,0.5579 23.0233,2.7891 0.2231,0 1.2997,0 2.0248,0 1.3165,0 3.068,-0.6694 4.7023,-1.9524 4.6019,-5.2433 18.7137,-10.2301 29.0253,-10.2301 7.18219,0 22.9446,2.3986 34.71199,5.1875 9.052,0.7811 27.60851,4.2951 42.76059,6.2754 2.79461,0.6694 5.56692,1.1156 7.65472,1.0598 8.20528,-0.5579 57.42019,-8.2833 89.79059,-5.5781 14.34549,0 34.23961,0.5579 47.24699,3.9047 46.4599,6.8275 97.3666,54.6088 104.9231,130.8994 0.5021,10.1353 0.5579,21.5647 0.5579,33.2339 0,22.2172 -0.926,42.6829 -3.0903,58.9597 l -0.02,0.056 c -0.056,1.2831 -0.1673,2.5659 -0.1673,3.9604 0,5.4107 -0.502,9.7783 2.0472,13.1251 1.8686,3.1795 2.9898,7.7702 2.9898,12.7682 0,8.0658 -3.0902,14.6199 -7.2609,17.4369 -5.6282,4.1276 -14.1487,10.1129 -25.3259,16.3714 -3.503,1.9523 -6.8872,4.5183 -10.2518,7.1398 l -49.8252,-0.056 c -1.0431,0 -1.8909,-0.7808 -1.8909,-1.8407 1.3945,-3.7374 3.1069,-8.8524 7.0249,-12.8073 4.111,-3.2352 10.4683,-5.1317 13.8335,-8.3837 -12.2594,-13.0079 -31.0913,-33.9646 -34.6925,-41.0486 0,0 -19.75678,20.1477 -32.09478,24.2644 h -0.04 c 1.9077,4.9643 3.75959,10.6651 3.75959,20.2259 0,13.7945 -5.27679,19.4449 -9.13069,19.4449 -3.542,0 -77.82681,0 -90.5782,0 -1.05981,0 -1.93,-0.9482 -1.93,-1.9522 1.18261,-14.9379 15.46731,-23.2435 33.1184,-28.2806 1.1212,-0.5579 2.00811,-0.8926 2.00811,-1.9524 0,-0.5577 -0.22312,-1.0039 -0.63032,-1.3385 -2.0248,-1.2832 -13.51888,-11.9817 -19.1271,-18.0841 -9.83898,-10.7433 -13.53838,-13.4207 -17.08039,-19.4617 -3.97711,-6.6882 -2.45991,-20.583 0.60799,-28.236 0.39042,-0.5578 0.2789,-0.6694 0.2789,-1.3945 0,-1.5618 -0.56899,-3.4025 -1.8129,-3.6815 -1.67339,-0.6693 -4.89749,-4.0161 -6.13968,-4.574"
       style="fill:#000000;fill-opacity:1;fill-rule:evenodd;stroke:none;stroke-width:19.6780262"
       id="path3154"
       inkscape:connector-curvature="0" />
    <path
       d="m 1394.8233,-1130.3724 c 0.7695,-2.0633 1.6339,-4.9073 3.7584,-7.0598 2.2417,-1.7287 5.6656,-2.7879 7.4752,-4.5724 -6.6097,-7.0263 -16.8195,-18.3742 -18.7673,-22.2107 0,0 -10.6814,10.9184 -17.3508,13.121 l -0.04,0.056 c 1.0428,2.6766 2.0466,5.7605 2.0466,10.9575 0,7.4724 -2.8718,10.6229 -4.9574,10.6229 -1.9071,0 -42.2358,-0.023 -49.141,-0.023 -0.5019,0 -0.9424,-0.5575 -0.9424,-0.9478 0.5688,-8.1638 8.3605,-12.6862 17.9804,-15.4186 0.5687,0 1.0205,-0.5578 1.0205,-1.0596 0,-0.5578 -0.1115,-0.5578 -0.3346,-0.7249 -1.0595,-0.725 -7.3179,-6.5131 -10.3475,-9.7977 -5.3309,-5.8049 -7.3184,-7.2604 -9.2462,-10.5448 -2.1468,-3.6246 -1.5335,-10.8181 0.1115,-14.9726 0.223,0 0.3903,-0.6692 0.3903,-1.0595 0,-0.8364 -0.5576,-1.5613 -1.1989,-1.6728 -0.8866,-0.5577 -2.0074,-0.5577 -2.6766,-0.6692 -5.253,-2.2862 -7.5147,-3.1785 -11.3111,-5.5205 l 2.5205,7.634 c 1.1599,2.8439 -2.5762,5.0187 -3.619,6.725 -3.0112,5.0745 -11.0362,11.4928 -19.8496,18.1622 0,0 6.1379,13.8294 6.197,14.0411 0.1114,0.5577 -0.3346,0.8923 -0.9257,1.0038 -11.8821,4.4611 -28.5247,0.948 -33.5016,-10.2883 -5.2139,-11.6266 2.8942,-21.4187 4.6618,-29.8781 0.2788,-1.2824 -1.3383,-3.5689 -3.8141,-2.0633 -4.0318,11.1917 -16.9181,34.6793 -20.6559,43.8469 -1.8905,4.6284 -1.8905,10.9575 -14.5966,10.9575 h -35.3113 c -0.5018,0 -0.9647,-0.5577 -0.9647,-0.948 0.6859,-3.6247 4.9741,-9.4018 9.4815,-9.8367 9.2461,-0.8921 11.1349,-1.1152 10.9575,-4.1821 0,0 1.4387,-19.1213 2.4593,-25.3949 2.4591,-15.1286 6.9246,-40.0324 10.5442,-48.4919 v 0 c -10.4656,2.5095 -25.7504,1.7845 -32.3607,0 -1.2212,-0.5575 -0.6078,-0.6134 -1.6115,-0.7806 -0.3346,-0.056 -1.5948,0 -2.0465,0 -2.1469,0.6691 -4.4277,1.0037 -6.531,0 -2.7157,-1.5613 -3.7585,-3.8478 -4.1879,-6.7084 -2.8328,0 -5.5262,-2.1189 -5.5652,-4.0149 -0.04,-1.1711 -0.5576,-2.2307 -1.0595,-2.7882 -0.5018,-0.5576 -1.0428,-0.7808 -1.4554,-0.948 -1.6116,-0.7807 -2.7324,-2.4536 -2.7324,-4.4053 0,-2.7325 2.2416,-4.9072 4.935,-4.9072 2.8328,0 5.8819,0 6.9247,-3.4016 0.8477,-2.5093 2.8719,-3.1228 4.0708,-6.2565 l -0.223,-5.8443 c 0,-4.3495 1.8289,-8.7547 5.0576,-11.1134 2.8552,-2.8998 4.0931,-2.3422 4.4667,-6.1006 -0.7305,-1.3384 -1.2379,-3.0113 -1.2379,-4.6284 0,-5.0745 4.1488,-9.2233 9.2656,-9.2233 4.7623,0 8.6947,3.5131 9.1865,8.1247 1.2771,-0.5576 2.6377,-0.6691 4.054,-0.6691 1.0819,0 2.1247,0 3.1284,0.5578 0.5018,0 1.1598,0 1.6338,0 2.225,0 4.2101,-1.1155 5.7052,-2.2308 3.028,-2.063 9.9343,-3.0112 16.0326,-3.0112 3.9927,0 9.3638,0.5578 12.4525,1.5057 0.1115,0 0.6859,0 1.1209,0 0.6914,0 1.6506,-0.5575 2.5204,-1.0596 2.4983,-2.8439 10.1117,-5.5205 15.7181,-5.5205 3.8923,0 12.413,1.3384 18.7868,2.8439 7.2001,0.6135 25.5541,4.4053 32.7543,4.1265 4.4444,0 31.1406,-4.6841 48.6687,-3.1785 7.7506,0 18.5313,0 25.5541,2.1189 25.1605,3.6806 52.7211,29.5436 56.8325,70.8587 0.2231,5.465 0.2789,11.6435 0.2789,17.9782 0,12.0393 -0.5019,23.0973 -1.6898,31.9078 v 0.04 c -0.04,0.669 -0.056,1.3939 -0.056,2.1748 0,2.9554 -0.2786,5.2974 1.1209,7.1041 0.9815,1.7287 1.5725,4.2381 1.5725,6.9036 0,4.4054 -1.6506,7.9072 -3.9146,9.4462 -3.0112,2.2307 -7.6328,5.4651 -13.6916,8.872 -1.9072,1.0596 -3.7362,2.4537 -5.5485,3.8478 l -27.0492,0.056 c -0.5576,0 -0.9814,-0.5577 -0.9034,-0.948"
       style="fill:#000000;fill-opacity:1;fill-rule:evenodd;stroke:none;stroke-width:19.6780262"
       id="path3146"
       inkscape:connector-curvature="0" />
  </g>
</svg>
