<?xml version="1.0" encoding="UTF-8" standalone="no"?>
<!-- Generator: Adobe Illustrator 12.0.1, SVG Export Plug-In  -->

<svg
   xmlns:dc="http://purl.org/dc/elements/1.1/"
   xmlns:cc="http://creativecommons.org/ns#"
   xmlns:rdf="http://www.w3.org/1999/02/22-rdf-syntax-ns#"
   xmlns:svg="http://www.w3.org/2000/svg"
   xmlns="http://www.w3.org/2000/svg"
   xmlns:sodipodi="http://sodipodi.sourceforge.net/DTD/sodipodi-0.dtd"
   xmlns:inkscape="http://www.inkscape.org/namespaces/inkscape"
   version="1.1"
   width="286.35876"
   height="286.38214"
   viewBox="0 -1 286.35876 286.38214"
   enable-background="new 0 -1 288 290"
   xml:space="preserve"
   id="svg2"
   inkscape:version="0.48.2 r9819"
   sodipodi:docname="AJAX1.svg"><metadata
   id="metadata74"><rdf:RDF><cc:Work
       rdf:about=""><dc:format>image/svg+xml</dc:format><dc:type
         rdf:resource="http://purl.org/dc/dcmitype/StillImage" /></cc:Work></rdf:RDF></metadata><sodipodi:namedview
   pagecolor="#ffffff"
   bordercolor="#666666"
   borderopacity="1"
   objecttolerance="10"
   gridtolerance="10"
   guidetolerance="10"
   inkscape:pageopacity="0"
   inkscape:pageshadow="2"
   inkscape:window-width="1280"
   inkscape:window-height="1004"
   id="namedview72"
   showgrid="false"
   fit-margin-top="0"
   fit-margin-left="0"
   fit-margin-right="0"
   fit-margin-bottom="0"
   inkscape:zoom="2.3017545"
   inkscape:cx="141.93565"
   inkscape:cy="157.25735"
   inkscape:window-x="-8"
   inkscape:window-y="-8"
   inkscape:window-maximized="1"
   inkscape:current-layer="svg2" />
<defs
   id="defs4">
</defs>
<path
   d="M 135.50575,282.24938 3.1687482,149.89038 c -4.225,-4.233 -4.225,-11.128 0,-15.351 L 135.50575,2.1723753 c 4.217,-4.229 11.118,-4.229 15.349,-0.005 l 132.328,132.3720047 c 4.233,4.237 4.233,11.117 0.01,15.351 l -132.338,132.359 c -4.184,4.173 -11.172,4.181 -15.349,0"
   id="path6"
   style="fill:#ffd033;stroke:none;fill-opacity:1"
   inkscape:connector-curvature="0" />

<path
   clip-rule="evenodd"
   d="M 137.60175,280.09538 5.3297482,147.78238 c -3.045,-3.052 -3.039,-8.083 0,-11.141 L 137.60175,4.3293753 c 3.056,-3.039 8.091,-3.039 11.139,0 l 132.283,132.3200047 c 3.044,3.053 3.044,8.081 0,11.132 l -132.283,132.314 c -3.048,3.033 -8.084,3.046 -11.139,0"
   id="path10"
   inkscape:connector-curvature="0"
   style="fill:#000000;fill-rule:evenodd;stroke:none" />
<path
   clip-rule="evenodd"
   d="M 140.56375,277.07938 8.3487482,144.83638 c -1.467,-1.419 -1.467,-3.833 0,-5.25 L 140.55575,7.3573753 c 1.41,-1.472 3.827,-1.472 5.238,0 l 132.211,132.2290047 c 1.456,1.417 1.456,3.839 0,5.259 l -132.211,132.234 c -1.411,1.459 -3.82,1.459 -5.23,0"
   id="path12"
   inkscape:connector-curvature="0"
   style="fill:#ffd033;fill-rule:evenodd;stroke:none;fill-opacity:1" />
<path
   d="m 37.667748,155.24838 -1.833,-7.137 h -5.616 l -1.716,7.137 h -3.783 l 6.513,-26.129 h 3.666 l 6.513,26.129 h -3.744 z m -4.68,-18.329 -1.833,7.526 h 3.744 l -1.911,-7.526 z"
   id="path14"
   inkscape:connector-curvature="0"
   style="fill:#000000;stroke:none" />
<path
   d="m 44.998748,155.24838 v -26.129 h 3.744 v 22.659 h 9.555 v 3.471 h -13.299 z"
   id="path16"
   inkscape:connector-curvature="0"
   style="fill:#000000;stroke:none" />
<path
   d="m 61.962748,155.24838 v -26.129 h 3.744 v 22.659 h 9.555 v 3.471 h -13.299 z"
   id="path18"
   inkscape:connector-curvature="0"
   style="fill:#000000;stroke:none" />
<path
   d="m 92.303748,151.23238 c -1.287,3.08 -3.198,4.484 -6.123,4.484 -3.12,0 -4.953,-1.404 -6.24,-4.484 -1.092,-2.574 -1.482,-5.07 -1.482,-9.087 0,-3.939 0.39,-6.591 1.482,-9.087 1.365,-3.12 3.198,-4.407 6.24,-4.407 3.003,0 4.836,1.287 6.123,4.485 1.092,2.574 1.482,5.07 1.482,9.009 0,4.017 -0.39,6.591 -1.482,9.087 z m -2.925,-15.6 c -0.663,-2.301 -1.638,-3.315 -3.198,-3.315 -1.677,0 -2.691,1.014 -3.315,3.237 -0.624,1.989 -0.819,3.744 -0.819,6.669 0,2.847 0.273,4.484 0.819,6.591 0.624,2.223 1.638,3.236 3.315,3.236 1.56,0 2.535,-1.014 3.198,-3.236 0.624,-2.107 0.819,-3.666 0.819,-6.669 10e-4,-2.926 -0.272,-4.603 -0.819,-6.513 z"
   id="path20"
   inkscape:connector-curvature="0"
   style="fill:#000000;stroke:none" />
<path
   d="m 112.58375,155.24838 h -3.198 l -2.496,-13.649 -2.457,13.649 h -3.315 l -4.134002,-26.129 h 3.666002 l 2.223,13.923 2.535,-13.923 h 2.964 l 2.457,13.923 2.301,-13.923 h 3.666 l -4.212,26.129 z"
   id="path22"
   inkscape:connector-curvature="0"
   style="fill:#000000;stroke:none" />
<path
   d="m 120.38275,155.24838 v -26.129 h 12.285 v 3.666 h -8.541 v 6.591 h 5.421 v 3.588 h -5.421 v 8.619 h 9.555 v 3.666 h -13.299 z"
   id="path24"
   inkscape:connector-curvature="0"
   style="fill:#000000;stroke:none" />
<path
   d="m 149.00775,154.03938 c -0.937,0.859 -2.223,1.209 -3.666,1.209 h -7.254 v -26.129 h 6.669 c 2.223,0 3.314,0.273 4.251,1.014 1.56,1.092 2.651,3.12 3.12,5.772 0.351,1.911 0.624,4.212 0.624,6.24 0,6.044 -1.209,9.906 -3.744,11.894 z m -0.663,-18.603 c -0.624,-1.833 -1.716,-2.652 -3.393,-2.652 h -3.12 v 18.797 h 3.12 c 2.223,0 3.393,-1.754 3.782,-3.744 0.156,-1.676 0.352,-3.51 0.352,-5.499 0,-2.963 -0.273,-5.809 -0.741,-6.902 z"
   id="path26"
   inkscape:connector-curvature="0"
   style="fill:#000000;stroke:none" />
<path
   d="m 178.84075,152.05138 c -1.287,2.105 -3.743,3.666 -6.239,3.666 -2.574,0 -5.109,-1.482 -6.396,-3.666 -0.741,-1.404 -1.015,-2.496 -1.015,-4.602 v -18.331 h 3.744 v 18.797 c 0,2.457 1.481,4.135 3.666,4.135 2.027,0 3.51,-1.678 3.51,-4.135 v -18.797 h 3.744 v 18.331 c 0.001,2.106 -0.273,3.197 -1.014,4.602 z"
   id="path28"
   inkscape:connector-curvature="0"
   style="fill:#000000;stroke:none" />
<path
   d="m 191.59375,155.71738 c -4.602,0 -7.332,-3.861 -7.332,-8.15 h 3.666 c 0,2.184 1.092,4.484 3.666,4.484 2.028,0 3.666,-1.834 3.666,-3.939 0,-1.482 -0.546,-2.574 -2.106,-3.783 -0.546,-0.545 0.937,0.469 -4.406,-3.12 -2.106,-1.442 -3.198,-3.471 -3.198,-5.772 0,-3.744 2.925,-6.786 6.669,-6.786 3.705,0 6.513,2.847 6.63,6.786 h -3.588 c -0.078,-1.833 -1.365,-3.003 -3.042,-3.003 -1.716,0 -3.081,1.287 -3.081,3.003 0,1.287 0.546,2.028 2.457,3.121 5.031,2.925 7.254,5.771 7.254,9.554 -0.001,4.212 -3.238,7.605 -7.255,7.605 z"
   id="path30"
   inkscape:connector-curvature="0"
   style="fill:#000000;stroke:none" />
<path
   d="m 203.25375,155.24838 v -26.129 h 12.285 v 3.666 h -8.541 v 6.591 h 5.421 v 3.588 h -5.421 v 8.619 h 9.555 v 3.666 h -13.299 z"
   id="path32"
   inkscape:connector-curvature="0"
   style="fill:#000000;stroke:none" />
<path
   d="m 241.62875,151.23238 c -1.287,3.08 -3.198,4.484 -6.123,4.484 -3.12,0 -4.953,-1.404 -6.239,-4.484 -1.093,-2.574 -1.482,-5.07 -1.482,-9.087 0,-3.939 0.39,-6.591 1.482,-9.087 1.364,-3.12 3.197,-4.407 6.239,-4.407 3.003,0 4.836,1.287 6.123,4.485 1.092,2.574 1.481,5.07 1.481,9.009 0.001,4.017 -0.389,6.591 -1.481,9.087 z m -2.925,-15.6 c -0.663,-2.301 -1.639,-3.315 -3.198,-3.315 -1.677,0 -2.69,1.014 -3.314,3.237 -0.624,1.989 -0.819,3.744 -0.819,6.669 0,2.847 0.273,4.484 0.819,6.591 0.624,2.223 1.638,3.236 3.314,3.236 1.56,0 2.535,-1.014 3.198,-3.236 0.624,-2.107 0.818,-3.666 0.818,-6.669 0.001,-2.926 -0.272,-4.603 -0.818,-6.513 z"
   id="path34"
   inkscape:connector-curvature="0"
   style="fill:#000000;stroke:none" />
<path
   d="m 252.07975,132.78538 v 6.591 h 5.226 v 3.588 h -5.226 v 12.285 h -3.744 v -26.129 h 13.299 v 3.666 h -9.555 z"
   id="path36"
   inkscape:connector-curvature="0"
   style="fill:#000000;stroke:none" />
<path
   d="m 73.214748,171.87938 v 6.591 h 5.226 v 3.588 h -5.226 v 12.285 h -3.744 v -26.13 h 13.299 v 3.666 h -9.555 z"
   id="path38"
   inkscape:connector-curvature="0"
   style="fill:#000000;stroke:none" />
<path
   d="m 100.08475,191.14438 c -1.287002,2.106 -3.744002,3.666 -6.239002,3.666 -2.574,0 -5.109,-1.481 -6.396,-3.666 -0.74,-1.403 -1.014,-2.496 -1.014,-4.602 v -18.33 h 3.744 v 18.798 c 0,2.457 1.481,4.134 3.666,4.134 2.027,0 3.51,-1.677 3.51,-4.134 v -18.797 h 3.743002 v 18.33 c 0,2.105 -0.273,3.198 -1.014,4.601 z"
   id="path40"
   inkscape:connector-curvature="0"
   style="fill:#000000;stroke:none" />
<path
   d="m 106.79175,194.34338 v -26.13 h 3.744 v 22.659 h 9.555 v 3.471 h -13.299 z"
   id="path42"
   inkscape:connector-curvature="0"
   style="fill:#000000;stroke:none" />
<path
   d="m 123.75675,194.34338 v -26.13 h 3.744 v 22.659 h 9.555 v 3.471 h -13.299 z"
   id="path44"
   inkscape:connector-curvature="0"
   style="fill:#000000;stroke:none" />
<path
   d="m 148.01375,194.34338 v -26.13 h 3.744 v 22.659 h 9.555 v 3.471 h -13.299 z"
   id="path46"
   inkscape:connector-curvature="0"
   style="fill:#000000;stroke:none" />
<path
   d="m 175.89875,194.34338 -1.833,-7.137 h -5.616 l -1.716,7.137 h -3.782 l 6.513,-26.13 h 3.666 l 6.513,26.13 h -3.745 z m -4.68,-18.329 -1.833,7.526 h 3.744 l -1.911,-7.526 z"
   id="path48"
   inkscape:connector-curvature="0"
   style="fill:#000000;stroke:none" />
<path
   d="m 195.04575,194.34338 -8.072,-17.511 v 17.511 h -3.744 v -26.13 h 3.744 l 7.176,15.678 v -15.678 h 3.744 v 26.13 h -2.848 z"
   id="path50"
   inkscape:connector-curvature="0"
   style="fill:#000000;stroke:none" />
<path
   d="m 203.58575,194.34338 v -26.13 h 12.285 v 3.666 h -8.541 v 6.591 h 5.421 v 3.588 h -5.421 v 8.619 h 9.555 v 3.666 h -13.299 z"
   id="path52"
   inkscape:connector-curvature="0"
   style="fill:#000000;stroke:none" />
<path
   d="m 107.18375,218.89138 c -0.23,-1.519 -0.828,-2.231 -1.84,-2.231 -1.794,0 -2.438,1.403 -2.438,5.405 0,4.439 0.759,6.233 2.646,6.233 1.288,0 1.633,-1.081 1.633,-2.231 h 2.208 c -0.046,2.553 -1.679,4.394 -3.841,4.394 -3.289,0 -4.762,-2.646 -4.762,-8.326 0,-4.991 1.564,-7.637 4.601,-7.637 1.242,0 2.323,0.553 3.036,1.564 0.575,0.759 0.805,1.426 0.966,2.829 h -2.209 z"
   id="path54"
   inkscape:connector-curvature="0"
   style="fill:#000000;stroke:none" />
<path
   d="m 116.84275,230.18338 h -1.679 l -3.887,-15.41 h 2.23 l 2.53,10.005 2.553,-10.005 h 2.208 l -3.955,15.41 z"
   id="path56"
   inkscape:connector-curvature="0"
   style="fill:#000000;stroke:none" />
<path
   d="m 129.07875,218.89138 c -0.23,-1.519 -0.828,-2.231 -1.84,-2.231 -1.794,0 -2.438,1.403 -2.438,5.405 0,4.439 0.759,6.233 2.646,6.233 1.288,0 1.633,-1.081 1.633,-2.231 h 2.208 c -0.046,2.553 -1.679,4.394 -3.841,4.394 -3.289,0 -4.762,-2.646 -4.762,-8.326 0,-4.991 1.564,-7.637 4.601,-7.637 1.242,0 2.323,0.553 3.036,1.564 0.575,0.759 0.805,1.426 0.966,2.829 h -2.209 z"
   id="path58"
   inkscape:connector-curvature="0"
   style="fill:#000000;stroke:none" />
<path
   d="m 137.90975,230.18338 c 0.115,-2.116 0.276,-2.875 0.76,-4.209 0.644,-1.633 1.448,-2.875 2.483,-3.841 0.368,-0.322 0.713,-0.599 1.955,-1.473 1.012,-0.689 1.289,-1.081 1.289,-1.84 0,-1.173 -0.967,-2.162 -2.163,-2.162 -1.196,0 -2.162,0.989 -2.162,2.162 h -2.162 c 0.046,-2.415 1.887,-4.324 4.324,-4.324 2.37,0 4.278,1.955 4.278,4.324 0,1.242 -0.438,2.231 -1.311,3.036 -0.161,0.115 -0.322,0.207 -0.483,0.368 l -0.528,0.391 -0.553,0.368 -0.599,0.438 c -0.966,0.713 -2.001,2.115 -2.414,3.403 -0.185,0.392 -0.23,0.645 -0.346,1.196 h 6.233 v 2.163 h -8.601 z"
   id="path60"
   inkscape:connector-curvature="0"
   style="fill:#000000;stroke:none" />
<path
   d="m 149.80175,230.18338 v -12.65 h -0.967 v -1.679 c 0.875,-0.046 1.404,-0.438 1.726,-1.081 h 1.472 v 15.41 h -2.231 z"
   id="path62"
   inkscape:connector-curvature="0"
   style="fill:#000000;stroke:none" />
<path
   d="m 154.67775,230.18338 c 0.115,-2.116 0.276,-2.875 0.759,-4.209 0.645,-1.633 1.449,-2.875 2.484,-3.841 0.368,-0.322 0.713,-0.599 1.955,-1.473 1.012,-0.689 1.288,-1.081 1.288,-1.84 0,-1.173 -0.966,-2.162 -2.162,-2.162 -1.196,0 -2.162,0.989 -2.162,2.162 h -2.162 c 0.046,-2.415 1.886,-4.324 4.324,-4.324 2.369,0 4.278,1.955 4.278,4.324 0,1.242 -0.438,2.231 -1.312,3.036 -0.161,0.115 -0.321,0.207 -0.483,0.368 l -0.528,0.391 -0.552,0.368 -0.599,0.438 c -0.966,0.713 -2.001,2.115 -2.415,3.403 -0.184,0.392 -0.23,0.645 -0.345,1.196 h 6.233 v 2.163 h -8.601 z"
   id="path64"
   inkscape:connector-curvature="0"
   style="fill:#000000;stroke:none" />
<path
   d="m 173.76775,227.81438 c -0.759,1.817 -1.886,2.646 -3.61,2.646 -1.84,0 -2.922,-0.828 -3.681,-2.646 -0.644,-1.518 -0.874,-2.99 -0.874,-5.359 0,-2.322 0.23,-3.887 0.874,-5.358 0.806,-1.84 1.886,-2.6 3.681,-2.6 1.771,0 2.852,0.76 3.61,2.646 0.644,1.518 0.874,2.99 0.874,5.313 0,2.368 -0.231,3.887 -0.874,5.358 z m -1.725,-9.2 c -0.392,-1.356 -0.966,-1.955 -1.886,-1.955 -0.989,0 -1.588,0.599 -1.955,1.909 -0.368,1.173 -0.483,2.208 -0.483,3.934 0,1.679 0.161,2.645 0.483,3.887 0.367,1.311 0.966,1.909 1.955,1.909 0.92,0 1.494,-0.599 1.886,-1.909 0.368,-1.242 0.483,-2.162 0.483,-3.934 0.001,-1.725 -0.161,-2.714 -0.483,-3.841 z"
   id="path66"
   inkscape:connector-curvature="0"
   style="fill:#000000;stroke:none" />
<path
   d="m 176.96375,230.18338 c 0.115,-2.116 0.276,-2.875 0.76,-4.209 0.645,-1.633 1.449,-2.875 2.484,-3.841 0.367,-0.322 0.713,-0.599 1.955,-1.473 1.012,-0.689 1.287,-1.081 1.287,-1.84 0,-1.173 -0.966,-2.162 -2.162,-2.162 -1.195,0 -2.162,0.989 -2.162,2.162 h -2.162 c 0.047,-2.415 1.887,-4.324 4.324,-4.324 2.369,0 4.278,1.955 4.278,4.324 0,1.242 -0.437,2.231 -1.312,3.036 -0.16,0.115 -0.321,0.207 -0.482,0.368 l -0.529,0.391 -0.552,0.368 -0.599,0.438 c -0.965,0.713 -2,2.115 -2.414,3.403 -0.184,0.392 -0.23,0.645 -0.346,1.196 h 6.233 v 2.163 h -8.601 z"
   id="path68"
   inkscape:connector-curvature="0"
   style="fill:#000000;stroke:none" />
<path
   clip-rule="evenodd"
   d="m 164.04375,87.685375 17.672,-2.884 -11.138,-14.468 c -5.773,5.034 -6.491,11.077 -6.534,17.352 z m -4.862,1.059 c -0.028,-0.627 -0.13,-1.636 -0.13,-2.342 0,-7.159 2.316,-14.116 8.603,-19.898 l -6.546,-7.838 -10.132,30.91 8.205,-0.832 z m -38.889,-30.763 0.562,-1.72 36.086,-0.047 -9.599,29.103 -0.415,-3.037 h 1.105 l -0.139,-1.932 h -4.83 l 0.138,1.794 h 1.242 l 0.276,3.312 c 0.002,0 -24.288,-27.335 -24.426,-27.473 z m -15.983,27.956 c 4.847,-3.85 8.618,-7.519 11.339,-14.86 4.293,3.895 6.743,9.529 6.743,15.325 0,11.512 -9.389,20.901005 -20.901,20.901005 -11.512002,0 -20.901002,-9.390005 -20.901002,-20.901005 0,-11.512 9.389,-20.901 20.901002,-20.901 3.674,0 7.43,1.062 10.458,2.849 -2.05,6.479 -4.044,9.818 -10.352,14.896 -1.531,0.065 -2.695002,1.293 -2.695002,2.76 0,1.521 1.240002,2.76 2.759002,2.76 1.521,0 2.649,-1.24 2.649,-2.829 z m 60.473,6.189 c 2.365,8.809005 10.775,15.178005 20.082,15.178005 11.512,0 20.901,-9.390005 20.901,-20.902005 0,-11.513 -9.39,-20.901 -20.901,-20.901 -3.674,0 -7.926,0.867 -11.026,2.683 l 11.344,15.062 c 1.389,0.021 2.596,1.262 2.596,2.76 0,1.521 -1.239,2.76 -2.76,2.76 -0.421,0 -0.862,-0.108 -1.235,-0.284 l -19.001,3.644 z m -51.342,-28.614 7.404,-20.426 -2.346,-4.002 4.693,-5.106 h 10.074 l 0.139,2.898 h -8.833 l -1.795,1.932 2.071,3.727 -2.603,9.226 h 36.155 l 0.552,-1.688 c -2.905,-0.378 -7.917,-2.168 -9.115,-3.208 -1.196,-1.04 -0.147,-1.996 1.215,-2.041 7.137,-0.303 17.738,-0.901 19.752,-0.91 2.015,-0.008 2.221,1.004 0.872,2.479 -1.348,1.474 -2.526,2.801 -7.634,3.593 l -1.38,3.726 8.556,10.599 c 4.032,-2.448 8.91,-3.721 13.648,-3.721 14.218,0 25.813,11.596 25.813,25.813 0,14.217005 -11.595,25.812005 -25.813,25.812005 -11.696,0 -21.98,-8.066 -25.004,-19.214005 l -7.86,1.413 c -0.337,0.927 -1.122,1.637 -2.059,2.193 l 1.401,6.650005 h 1.795 l 0.139,1.793 -5.658,0.276 v -1.932 h 1.38 l -1.711,-6.646005 c -2.542,-0.417 -3.875,-2.593 -3.118,-4.754 l -25.681,-29.045 -1.15,3.116 c 6.233,4.911 9.964,12.473 9.964,20.337 0,14.217005 -11.595,25.812005 -25.813,25.812005 -14.217002,0 -25.813002,-11.595 -25.813002,-25.812005 0,-14.217 11.595,-25.813 25.813002,-25.813 4.133,0.001 8.369,1.009 11.95,2.923 z"
   id="path70"
   inkscape:connector-curvature="0"
   style="fill:#000000;fill-rule:evenodd;stroke:none" />
</svg>