<?xml version="1.0" encoding="utf-8"?>
<!-- Generator: Adobe Illustrator 12.0.1, SVG Export Plug-In  -->
<!DOCTYPE svg PUBLIC "-//W3C//DTD SVG 1.1//EN" "http://www.w3.org/Graphics/SVG/1.1/DTD/svg11.dtd" [
	<!ENTITY ns_flows "http://ns.adobe.com/Flows/1.0/">
	<!ENTITY ns_svg "http://www.w3.org/2000/svg">
	<!ENTITY ns_xlink "http://www.w3.org/1999/xlink">
]>
<svg  version="1.1" xmlns="&ns_svg;" xmlns:xlink="&ns_xlink;" xmlns:a="http://ns.adobe.com/AdobeSVGViewerExtensions/3.0/"
	 width="288" height="288" viewBox="0 0 288 288" enable-background="new 0 0 288 288" xml:space="preserve">
<defs>
</defs>
<path fill="#FFFFFF" d="M20.06,0.993h247.88c10.481,0,19.066,8.581,19.066,19.071v247.873c0,10.493-8.585,19.07-19.066,19.07H20.06
	c-10.49,0-19.067-8.577-19.067-19.07V20.064C0.993,9.574,9.57,0.993,20.06,0.993z"/>
<path d="M20.06,0C9,0,0,9,0,20.064v247.873C0,279,9,288,20.06,288h247.88C279,288,288,279,288,267.937V20.064C288,9,279,0,267.94,0
	H20.06z M1.986,267.937V20.064c0-9.97,8.107-18.078,18.074-18.078h247.88c9.966,0,18.073,8.107,18.073,18.078v247.873
	c0,9.97-8.107,18.077-18.073,18.077H20.06C10.094,286.014,1.986,277.906,1.986,267.937z"/>
<path fill-rule="evenodd" clip-rule="evenodd" d="M21.076,5.951h245.84c8.329,0,15.129,6.809,15.129,15.133V266.92
	c0,8.317-6.8,15.129-15.129,15.129H21.076c-8.317,0-15.125-6.812-15.125-15.129V21.084C5.951,12.759,12.759,5.951,21.076,5.951"/>
<path fill-rule="evenodd" clip-rule="evenodd" fill="#FFFFFF" d="M274.423,191.104v75.758c0,4.159-3.402,7.562-7.562,7.562H21.138
	c-4.158,0-7.564-3.402-7.564-7.562v-75.759"/>
<path fill-rule="evenodd" clip-rule="evenodd" fill="#FFFFFF" d="M59.46,94.295c0-15.91,12.901-28.809,28.806-28.809
	c15.91,0,28.807,12.899,28.807,28.809c0,15.912-12.897,28.809-28.807,28.809C72.361,123.104,59.46,110.207,59.46,94.295
	 M53.131,94.295c0-19.4,15.731-35.134,35.135-35.134c19.405,0,35.133,15.734,35.133,35.134c0,19.406-15.728,35.141-35.133,35.141
	C68.863,129.436,53.131,113.701,53.131,94.295z"/>
<path fill-rule="evenodd" clip-rule="evenodd" fill="#FFFFFF" d="M170.928,93.496c0-15.909,12.894-28.809,28.803-28.809
	c15.916,0,28.81,12.899,28.81,28.809c0,15.904-12.894,28.804-28.81,28.804C183.821,122.3,170.928,109.4,170.928,93.496
	 M164.599,93.496c0-19.407,15.73-35.136,35.132-35.136c19.408,0,35.139,15.729,35.139,35.136c0,19.403-15.73,35.13-35.139,35.13
	C180.329,128.626,164.599,112.898,164.599,93.496z"/>
<path fill-rule="evenodd" clip-rule="evenodd" fill="#FFFFFF" d="M194.407,90.164L168.22,55.648l-13.41,42.68 M146.931,93.111
	l-1.432-6.037h-2.46v-2.661h8.394v2.661h-2.656l1.327,7.162l13.201-42.377h-49.027l-1.333,4.508L146.931,93.111 M155.427,103.859
	c0,0-0.617,1.024-1.024,1.33c-0.512,0.413-0.919,0.822-1.539,1.026l2.563,10.332h2.66v2.558h-8.391v-2.558h2.045l-1.739-9.826
	c-1.639-0.202-2.867-0.918-3.889-2.352c-1.436-2.05-0.721-4.406-0.721-4.406l-34.49-37.152l-1.227,4.1c0,0-3.25,12.914-12.85,22.251
	c-3.785,3.686-4.859,5.073-4.859,5.073c-1.132,6.085-6.63,3.088-7.129,2.587c-0.544-0.543-1.999-4.995,3.137-6.376
	c1.366-0.363,3.546-2.968,4.855-4.28c6.904-6.893,11.833-22.533,11.833-22.533l9.208-29.785l-4.194-4.3l6.651-6.754h15.045v4.916
	h-13.098l-1.739,1.838l3.681,3.585l-4.197,13.099h49.031l0.921-3.271c-3.889,0-13.305-2.46-13.305-4.816
	c0-2.246,6.957-1.837,14.633-2.246c5.938-0.309,22.93-2.971,12.899,4.092c-4.404,3.069-8.499,4.095-8.499,4.095l-1.532,5.321
	l30.604,39.917c0,0,1.21,1.767,0.96,3.086c-0.25,1.334-2.662,2.083-2.662,2.083L155.427,103.859"/>
<path fill="#FFFFFF" d="M56.022,177.838c-1.231,0.462-3.283,0.821-4.822,0.821H38.169v-34.372H51.2c5.438,0,9.542,3.745,9.542,8.671
	c0,3.384-1.59,5.898-4.822,7.745c3.59,1.692,5.643,4.565,5.643,8.312C61.563,172.76,59.254,176.504,56.022,177.838z M51.559,149.725
	h-7.952v8.414h6.516c1.539,0,2.257-0.205,3.232-0.924c1.231-0.974,1.949-2.411,1.949-4.002
	C55.304,150.905,53.97,149.725,51.559,149.725z M52.739,163.936c-0.718-0.257-1.077-0.257-2.257-0.257h-6.875v9.439h8.208
	c2.771,0,4.207-1.334,4.207-4.001C56.022,166.86,54.688,164.654,52.739,163.936z"/>
<path fill="#FFFFFF" d="M66.075,178.659v-34.372h5.541v34.372H66.075z"/>
<path fill="#FFFFFF" d="M96.292,178.659l-8.721-16.264l-3.591,4.465v11.799h-5.438v-34.372h5.438v13.646l10.824-13.646h7.028
	l-10.619,13.391l11.337,20.981H96.292z"/>
<path fill="#FFFFFF" d="M107.167,178.659v-34.372h20.264v5.438h-14.826v8.414h10.004v5.54h-10.004v9.439h15.903v5.541H107.167z"/>
<path fill="#FFFFFF" d="M143.076,178.659v-34.372h5.438v29.292h15.903v5.08H143.076z"/>
<path fill="#FFFFFF" d="M188.476,178.659l-3.386-9.645h-10.722l-3.386,9.645h-5.797l11.851-34.372h5.386l11.852,34.372H188.476z
	 M179.807,153.829l-3.54,9.644h6.874L179.807,153.829z"/>
<path fill="#FFFFFF" d="M216.743,178.659l-13.134-23.291v23.291h-5.438v-34.372h5.438l12.518,21.957v-21.957h5.438v34.372H216.743z"
	/>
<path fill="#FFFFFF" d="M228.489,178.659v-34.372h20.264v5.438h-14.825v8.414h10.004v5.54h-10.004v9.439h15.902v5.541H228.489z"/>
<path d="M108.855,226.99c-1.08,0.405-2.879,0.72-4.229,0.72h-11.43v-30.15h11.43c4.77,0,8.37,3.284,8.37,7.605
	c0,2.97-1.395,5.175-4.229,6.795c3.15,1.485,4.95,4.005,4.95,7.289C113.716,222.535,111.691,225.82,108.855,226.99z
	 M104.941,202.329h-6.976v7.381h5.715c1.35,0,1.98-0.181,2.835-0.811c1.08-0.855,1.71-2.114,1.71-3.51
	C108.226,203.365,107.056,202.329,104.941,202.329z M105.976,214.795c-0.63-0.225-0.945-0.225-1.98-0.225h-6.03v8.279h7.201
	c2.43,0,3.689-1.17,3.689-3.51C108.855,217.359,107.686,215.425,105.976,214.795z"/>
<path d="M117.675,227.71v-30.15h4.86v30.15H117.675z"/>
<path d="M144.179,227.71l-7.65-14.265l-3.15,3.914v10.351h-4.77v-30.15h4.77v11.97l9.496-11.97h6.165l-9.315,11.745l9.944,18.405
	H144.179z"/>
<path d="M153.719,227.71v-30.15h17.775v4.77h-13.005v7.381h8.775v4.86h-8.775v8.279h13.95v4.86H153.719z"/>
<path d="M191.834,225.91c-1.665,1.485-4.005,2.339-6.57,2.339c-5.175,0-8.955-3.06-10.98-7.649l4.546-1.665
	c1.26,2.836,3.601,4.455,6.435,4.455c2.791,0,4.681-1.936,4.681-4.455c0-4.005-4.681-4.68-8.596-6.255
	c-1.801-0.72-5.805-2.52-5.805-7.515c0-5.896,4.004-8.146,9.404-8.146c4.231,0,7.11,2.43,8.596,6.165l-4.23,1.26
	c0,0-1.08-2.564-4.455-2.654c-0.135,0-0.225,0-0.314,0c-2.07,0-4.32,0.81-4.32,3.194c0,0.09,0,0.226,0,0.315
	c0.405,5.58,14.581,1.89,14.581,13.725C194.805,221.771,193.724,224.199,191.834,225.91z"/>
<path d="M112.094,260.874c-1.71,2.296-4.14,3.375-7.29,3.375c-4.229,0-6.885-1.709-8.685-5.399c-1.26-2.564-2.115-6.57-2.115-10.17
	c0-4.95,1.26-9.405,3.285-12.285c1.8-2.295,4.23-3.375,7.695-3.375c3.825,0,6.48,1.71,8.371,5.399
	c1.26,2.655,2.025,6.48,2.025,10.261C115.38,253.449,114.209,258.22,112.094,260.874z M108.81,240.219
	c-0.945-1.574-2.115-2.204-3.915-2.339c-0.09,0-0.18,0-0.27,0c-2.16,0-3.6,1.17-4.59,3.735c-0.765,1.8-1.17,4.545-1.17,7.064
	c0,3.194,0.63,6.48,1.8,8.37c0.945,1.574,2.205,2.34,4.14,2.34c2.205,0,3.601-1.17,4.635-3.825c0.63-1.574,1.17-4.544,1.17-6.885
	C110.609,245.305,109.98,242.244,108.81,240.219z"/>
<path d="M137.204,263.71l-11.52-20.431v20.431h-4.77v-30.15h4.77l10.98,19.261V233.56h4.771v30.15H137.204z"/>
<path d="M147.509,263.71v-30.15h4.771v25.695h13.95v4.455H147.509z"/>
<path d="M182.79,250.57v13.14h-4.771v-13.14l-10.574-17.011h5.714l7.2,11.655l7.291-11.655h5.625L182.79,250.57z"/>
<path d="M80.56,272.449h-1.764v-4.021h1.764c1.116,0,2.016,0.9,2.016,2.005C82.576,271.549,81.676,272.449,80.56,272.449z
	 M80.56,269.191h-1.002v2.496h1.002c0.69,0,1.242-0.564,1.242-1.254C81.802,269.755,81.25,269.191,80.56,269.191z"/>
<path d="M85.336,272.449v-4.021h3.204v0.763h-2.442v0.731h1.41v0.774h-1.41v0.99h2.496v0.762H85.336z"/>
<path d="M93.88,270.938h-1.764v1.512h-0.762v-4.021h2.526c0.69,0,1.254,0.564,1.254,1.255
	C95.134,270.373,94.57,270.938,93.88,270.938z M93.88,269.191h-1.764v0.99h1.764c0.27,0,0.48-0.229,0.48-0.498
	C94.36,269.419,94.15,269.191,93.88,269.191z"/>
<path d="M99.627,269.191v3.258h-0.762v-3.258h-1.38v-0.763h3.456v0.763H99.627z"/>
<path d="M108.64,272.521c-1.14,0-2.1-0.948-2.1-2.088c0-1.17,0.918-2.076,2.1-2.076c1.116,0,2.1,0.948,2.1,2.058
	C110.74,271.573,109.786,272.521,108.64,272.521z M109.978,270.434c0-0.721-0.606-1.297-1.338-1.297s-1.338,0.564-1.338,1.278
	c0,0.738,0.606,1.326,1.338,1.326s1.338-0.588,1.338-1.326V270.434z"/>
<path d="M114.262,269.191v0.731h1.494v0.774h-1.494v1.752H113.5v-4.021h3.258v0.763H114.262z"/>
<path d="M127.144,269.191v3.258h-0.762v-3.258h-1.38v-0.763h3.455v0.763H127.144z"/>
<path d="M133.869,272.449l-0.888-1.512h-1.241v1.512h-0.763v-4.021h2.454c0.708,0,1.271,0.564,1.271,1.255
	c0,0.54-0.342,1.002-0.863,1.188l0.918,1.578H133.869z M133.432,269.191h-1.691v0.99h1.691c0.281,0,0.51-0.229,0.51-0.498
	C133.941,269.419,133.713,269.191,133.432,269.191z"/>
<path d="M140.83,272.449l-0.408-0.876h-2.047l-0.42,0.876h-0.846l1.902-4.021h0.762l1.908,4.021H140.83z M139.396,269.401
	l-0.666,1.397h1.326L139.396,269.401z"/>
<path d="M147.214,272.449l-2.256-2.778v2.778h-0.763v-4.021h0.75l2.256,2.809v-2.809h0.774v4.021H147.214z"/>
<path d="M152.739,272.521c-0.822,0-1.398-0.168-2.004-0.606l0.438-0.624c0.48,0.324,0.9,0.45,1.537,0.45
	c0.678,0,1.043-0.15,1.043-0.462c0-0.168-0.156-0.342-0.384-0.426c-0.192-0.066-0.432-0.126-0.954-0.223
	c-0.611-0.126-0.906-0.239-1.115-0.449c-0.211-0.217-0.313-0.438-0.313-0.708c0-0.427,0.229-0.732,0.678-0.918
	c0.282-0.127,0.637-0.198,0.973-0.198c0.563,0,1.074,0.156,1.607,0.479l-0.408,0.637c-0.408-0.253-0.762-0.337-1.254-0.337
	c-0.563,0-0.834,0.097-0.834,0.324c0,0.349,0.732,0.408,0.99,0.45c0.462,0.084,0.912,0.222,1.17,0.354
	c0.366,0.197,0.594,0.605,0.594,1.044C154.503,272.071,153.849,272.521,152.739,272.521z"/>
<path d="M159.783,270.938h-1.764v1.512h-0.763v-4.021h2.526c0.69,0,1.255,0.564,1.255,1.255
	C161.038,270.373,160.474,270.938,159.783,270.938z M159.783,269.191h-1.764v0.99h1.764c0.271,0,0.479-0.229,0.479-0.498
	C160.263,269.419,160.054,269.191,159.783,269.191z"/>
<path d="M165.729,272.521c-1.141,0-2.1-0.948-2.1-2.088c0-1.17,0.918-2.076,2.1-2.076c1.115,0,2.1,0.948,2.1,2.058
	C167.829,271.573,166.876,272.521,165.729,272.521z M167.067,270.434c0-0.721-0.605-1.297-1.338-1.297s-1.338,0.564-1.338,1.278
	c0,0.738,0.605,1.326,1.338,1.326s1.338-0.588,1.338-1.326V270.434z"/>
<path d="M173.481,272.449l-0.889-1.512h-1.242v1.512h-0.762v-4.021h2.454c0.708,0,1.272,0.564,1.272,1.255
	c0,0.54-0.342,1.002-0.865,1.188l0.919,1.578H173.481z M173.043,269.191h-1.692v0.99h1.692c0.282,0,0.51-0.229,0.51-0.498
	C173.553,269.419,173.325,269.191,173.043,269.191z"/>
<path d="M178.862,269.191v3.258h-0.762v-3.258h-1.38v-0.763h3.456v0.763H178.862z"/>
<path d="M186.009,272.449l-0.408-0.876h-2.046l-0.42,0.876h-0.847l1.902-4.021h0.762l1.908,4.021H186.009z M184.575,269.401
	l-0.666,1.397h1.326L184.575,269.401z"/>
<path d="M191.108,269.191v3.258h-0.762v-3.258h-1.38v-0.763h3.456v0.763H191.108z"/>
<path d="M194.942,272.449v-4.021h0.763c0,0,0.012,4.021,0,4.021C195.717,272.449,194.942,272.449,194.942,272.449z"/>
<path d="M200.565,272.521c-1.141,0-2.101-0.948-2.101-2.088c0-1.17,0.919-2.076,2.101-2.076c1.115,0,2.1,0.948,2.1,2.058
	C202.665,271.573,201.71,272.521,200.565,272.521z M201.903,270.434c0-0.721-0.607-1.297-1.338-1.297
	c-0.732,0-1.338,0.564-1.338,1.278c0,0.738,0.605,1.326,1.338,1.326c0.73,0,1.338-0.588,1.338-1.326V270.434z"/>
<path d="M208.442,272.449l-2.256-2.778v2.778h-0.762v-4.021h0.75l2.256,2.809v-2.809h0.773v4.021H208.442z"/>
<path d="M21.908,272.632c-0.376,0.231-0.864,0.359-1.36,0.359c-0.92,0-1.616-0.336-2.216-1.031l0.768-0.601
	c0.4,0.464,0.832,0.672,1.432,0.672c0.68,0,1.168-0.296,1.168-0.695c0-0.208-0.112-0.376-0.336-0.488
	c-0.192-0.072-0.4-0.152-0.64-0.208l-0.248-0.072l-0.248-0.056l-0.256-0.08c-0.552-0.128-0.832-0.264-1.056-0.521
	c-0.224-0.248-0.336-0.567-0.336-0.903c0-0.889,0.752-1.488,1.84-1.488c0.792,0,1.448,0.264,1.992,0.824l-0.712,0.64
	c-0.336-0.352-0.776-0.527-1.28-0.527c-0.544,0-0.864,0.208-0.864,0.552c0,0.296,0.184,0.432,0.848,0.584
	c0.712,0.144,1.184,0.296,1.48,0.448c0.472,0.247,0.776,0.752,0.776,1.336C22.66,271.92,22.412,272.336,21.908,272.632z"/>
<path d="M26.988,272.936l-0.864-2.104h-1.432v2.104h-0.96v-5.36h2.464c0.392,0,0.64,0.057,0.92,0.225
	c0.512,0.28,0.832,0.808,0.832,1.416c0,0.6-0.32,1.128-0.872,1.424l0.984,2.296H26.988z M26.211,268.535h-1.52v1.337h1.52
	c0.472,0,0.776-0.265,0.776-0.656C26.988,268.8,26.684,268.535,26.211,268.535z"/>
<path d="M28.604,270.775v-0.96h1.88v0.96H28.604z"/>
<path d="M31.875,272.936v-4.008h-0.68l-0.016-0.769c0.416-0.096,0.64-0.248,0.848-0.584h0.768v5.36H31.875z"/>
<path d="M37.947,271.848v1.088h-0.936v-1.088h-3.312v-0.864l3.312-3.408h0.936v3.408h0.792v0.864H37.947z M37.011,268.84
	l-2.088,2.144h2.088V268.84z"/>
<path d="M41.843,273.031c-0.656,0-1.312-0.224-1.784-0.664c-0.136-0.111-0.224-0.199-0.416-0.432l0.768-0.576
	c0.376,0.488,0.872,0.696,1.488,0.696c0.656,0,1.112-0.304,1.112-0.76c0-0.256-0.168-0.561-0.416-0.696
	c-0.152-0.072-0.32-0.112-0.528-0.112h-0.264v-0.96h0.232c0.408,0,0.712-0.224,0.712-0.52c0-0.32-0.376-0.568-0.944-0.568
	c-0.448,0-0.864,0.192-1.184,0.528l-0.712-0.656c0.528-0.544,1.184-0.832,1.952-0.832c1.072,0,1.864,0.64,1.864,1.504
	c0,0.36-0.112,0.608-0.432,1.017c0.528,0.472,0.68,0.752,0.68,1.264C43.971,272.256,43.051,273.031,41.843,273.031z"/>
<path d="M47.315,273.031c-0.632,0-1.2-0.208-1.632-0.584s-0.64-0.903-0.64-1.64c0-1.128,0.504-2.104,1.408-2.728
	c0.624-0.433,1.24-0.601,2.168-0.601v0.96h-0.096c-0.568,0-0.96,0.096-1.336,0.32c-0.488,0.28-0.768,0.6-1.032,1.168
	c0.464-0.136,0.768-0.168,1.2-0.168c1.168,0,2.016,0.672,2.016,1.616C49.371,272.336,48.523,273.031,47.315,273.031z M47.283,270.72
	c-0.664,0-1.112,0.264-1.112,0.656c0,0.416,0.448,0.68,1.112,0.68c0.672,0,1.128-0.264,1.128-0.664
	C48.411,270.983,47.955,270.72,47.283,270.72z"/>
</svg>
