<?xml version="1.0" encoding="utf-8"?>
<!-- Generator: Adobe Illustrator 12.0.1, SVG Export Plug-In  -->
<!DOCTYPE svg PUBLIC "-//W3C//DTD SVG 1.1//EN" "http://www.w3.org/Graphics/SVG/1.1/DTD/svg11.dtd" [
	<!ENTITY ns_flows "http://ns.adobe.com/Flows/1.0/">
	<!ENTITY ns_svg "http://www.w3.org/2000/svg">
	<!ENTITY ns_xlink "http://www.w3.org/1999/xlink">
]>
<svg  version="1.1" xmlns="&ns_svg;" xmlns:xlink="&ns_xlink;" xmlns:a="http://ns.adobe.com/AdobeSVGViewerExtensions/3.0/"
	 width="178" height="288" viewBox="-0.333 0 178 288" enable-background="new -0.333 0 178 288" xml:space="preserve">
<defs>
</defs>
<path fill="#FFFFFF" d="M29.316,272.549c-0.011,0-0.022,0-0.033,0c-0.266,0-0.442,0.144-0.564,0.459
	c-0.094,0.221-0.144,0.558-0.144,0.867c0,0.393,0.078,0.796,0.221,1.028c0.116,0.193,0.271,0.287,0.508,0.287
	c0.271,0,0.442-0.144,0.569-0.47c0.077-0.193,0.144-0.559,0.144-0.846c0-0.414-0.078-0.79-0.221-1.039
	C29.681,272.643,29.537,272.565,29.316,272.549z"/>
<path fill="#FFFFFF" d="M107.898,274.257h-1.169v0.684h1.169c0.194,0,0.353-0.158,0.353-0.344
	C108.251,274.414,108.093,274.257,107.898,274.257z"/>
<path fill="#FFFFFF" d="M103.055,274.219c-0.506,0-0.925,0.391-0.925,0.883c0,0.511,0.419,0.916,0.925,0.916
	c0.503,0,0.92-0.402,0.924-0.909C103.975,274.614,103.558,274.219,103.055,274.219z"/>
<path fill="#FFFFFF" d="M55.705,274.257h-1.218v0.684h1.218c0.187,0,0.332-0.158,0.332-0.344
	C56.037,274.414,55.892,274.257,55.705,274.257z"/>
<path fill="#FFFFFF" d="M25.989,273.991c-0.365,0-0.663,0.249-0.663,0.558c0,0.354,0.298,0.642,0.663,0.642
	c0.376,0,0.674-0.287,0.674-0.642C26.664,274.24,26.354,273.991,25.989,273.991z"/>
<path fill="#FFFFFF" d="M46.919,274.257h-0.692v1.724h0.692c0.477,0,0.858-0.39,0.858-0.866
	C47.777,274.646,47.396,274.257,46.919,274.257z"/>
<polygon fill="#FFFFFF" points="114.99,275.367 115.906,275.367 115.45,274.401 "/>
<path fill="#FFFFFF" d="M20.016,272.671c-0.099-0.056-0.144-0.066-0.337-0.066h-0.702v0.906h0.702c0.183,0,0.243-0.012,0.337-0.062
	c0.144-0.082,0.232-0.237,0.232-0.392C20.248,272.902,20.16,272.748,20.016,272.671z"/>
<path fill="#FFFFFF" d="M125.873,274.219c-0.506,0-0.925,0.391-0.925,0.883c0,0.511,0.419,0.916,0.925,0.916
	c0.503,0,0.92-0.402,0.924-0.909C126.793,274.614,126.376,274.219,125.873,274.219z"/>
<path fill="#FFFFFF" d="M37.317,230.053c8.613,12.444,21.732,21.436,36.461,25.023c14.545,3.524,30.546,1.743,43.8-5.298
	c3.382-1.797,6.53-4.037,9.65-6.239l-39.832-39.813l-28.4,0.024l-0.019-0.175c-0.583-5.336-5.239-9.515-10.599-9.515
	c-5.318,0-9.975,4.143-10.6,9.431l-0.024,0.204l-9.658-1.543l1.868-13.694c0,0,36.328-2.728,36.485-2.739
	c0.024-0.027,0.567-0.638,1.379-1.552l-28.125-28.111c-3.151,4.459-6.356,9.081-8.456,14.152
	c-3.648,8.783-5.349,18.359-4.852,27.859C27.008,209.481,30.8,220.651,37.317,230.053z M48.379,194.832
	c5.465,0,9.911,4.446,9.911,9.912c0,5.465-4.446,9.913-9.911,9.913c-5.466,0-9.913-4.448-9.913-9.913
	C38.466,199.278,42.913,194.832,48.379,194.832z"/>
<path fill="#FFFFFF" d="M10.009,268.811c0,5.052,4.083,9.139,9.139,9.139H158.18c5.056,0,9.146-4.093,9.146-9.139V108.206H10.009
	V268.811z M17.402,275.5c-0.205,0.182-0.492,0.287-0.807,0.287c-0.636,0-1.1-0.376-1.349-0.939l0.558-0.204
	c0.155,0.348,0.442,0.547,0.791,0.547c0.342,0,0.575-0.238,0.575-0.547c0-0.492-0.575-0.575-1.056-0.769
	c-0.221-0.088-0.713-0.31-0.713-0.923c0-0.724,0.492-1,1.155-1c0.519,0,0.873,0.298,1.055,0.757l-0.52,0.155
	c0,0-0.132-0.315-0.547-0.326c-0.017,0-0.028,0-0.039,0c-0.254,0-0.531,0.1-0.531,0.392c0,0.012,0,0.028,0,0.039
	c0.05,0.686,1.791,0.232,1.791,1.686C17.767,274.991,17.634,275.29,17.402,275.5z M20.275,275.721l-0.597-1.613h-0.702v1.613h-0.586
	v-3.702h1.221c0.288,0,0.481,0.027,0.663,0.116c0.326,0.154,0.558,0.547,0.558,0.923c0,0.392-0.232,0.778-0.575,0.934l0.652,1.729
	H20.275z M22.508,274.19h-1.298v-0.586h1.298V274.19z M23.922,275.721h-0.597v-3.001h-0.337v-0.47h0.039
	c0.155,0,0.326-0.088,0.426-0.231h0.469V275.721z M25.989,275.787c-0.674,0-1.26-0.575-1.26-1.249c0-0.348,0.155-0.636,0.425-0.856
	c-0.182-0.193-0.271-0.414-0.271-0.674c0-0.575,0.508-1.056,1.105-1.056s1.116,0.48,1.116,1.056c0,0.26-0.105,0.48-0.287,0.674
	c0.287,0.221,0.431,0.52,0.431,0.856C27.249,275.212,26.664,275.787,25.989,275.787z M30.2,275.373
	c-0.21,0.281-0.508,0.414-0.895,0.414c-0.52,0-0.846-0.21-1.066-0.663c-0.155-0.315-0.26-0.807-0.26-1.249
	c0-0.607,0.155-1.155,0.403-1.509c0.221-0.281,0.52-0.414,0.945-0.414c0.47,0,0.796,0.21,1.028,0.663
	c0.155,0.326,0.249,0.796,0.249,1.26C30.603,274.461,30.459,275.047,30.2,275.373z M32.277,275.721h-0.597v-3.001h-0.337v-0.47
	h0.039c0.155,0,0.326-0.088,0.426-0.231h0.469V275.721z M46.919,276.507h-1.219v-2.776h1.219c0.771,0,1.392,0.621,1.392,1.384
	C48.312,275.886,47.69,276.507,46.919,276.507z M52.262,276.507h-2.251v-2.776h2.213v0.526h-1.687v0.505h0.974v0.534h-0.974v0.685
	h1.724V276.507z M55.705,275.463h-1.218v1.044H53.96v-2.776h1.745c0.477,0,0.866,0.39,0.866,0.866S56.182,275.463,55.705,275.463z
	 M60.376,274.257h-0.908v2.25h-0.526v-2.25h-0.954v-0.526h2.387V274.257z M67.314,276.557c-0.788,0-1.451-0.655-1.451-1.442
	c0-0.809,0.634-1.435,1.451-1.435c0.771,0,1.451,0.655,1.451,1.422C68.765,275.901,68.105,276.557,67.314,276.557z M72.714,274.257
	H70.99v0.505h1.032v0.534H70.99v1.211h-0.526v-2.776h2.25V274.257z M78.553,274.257h-0.908v2.25h-0.526v-2.25h-0.953v-0.526h2.387
	V274.257z M82.083,276.507l-0.613-1.044h-0.858v1.044h-0.526v-2.776h1.695c0.489,0,0.879,0.39,0.879,0.866
	c0,0.372-0.237,0.691-0.597,0.82l0.634,1.09H82.083z M86.684,276.507l-0.283-0.605h-1.413l-0.29,0.605h-0.584l1.314-2.776h0.526
	l1.317,2.776H86.684z M91.413,276.507h-0.526l-1.559-1.919v1.919h-0.526v-2.776h0.518l1.559,1.938v-1.938h0.534V276.507z
	 M94.496,276.557c-0.567,0-0.965-0.116-1.385-0.419l0.304-0.431c0.331,0.224,0.621,0.311,1.061,0.311
	c0.468,0,0.721-0.104,0.721-0.319c0-0.116-0.107-0.235-0.265-0.294c-0.133-0.045-0.299-0.088-0.659-0.153
	c-0.423-0.087-0.626-0.166-0.771-0.311c-0.145-0.149-0.215-0.303-0.215-0.489c0-0.295,0.157-0.506,0.468-0.635
	c0.195-0.086,0.439-0.137,0.672-0.137c0.39,0,0.742,0.108,1.11,0.332l-0.282,0.439c-0.281-0.174-0.526-0.232-0.866-0.232
	c-0.389,0-0.575,0.066-0.575,0.224c0,0.24,0.505,0.282,0.684,0.312c0.319,0.058,0.63,0.152,0.809,0.244
	c0.253,0.137,0.41,0.419,0.41,0.721C95.715,276.246,95.263,276.557,94.496,276.557z M99.154,275.463h-1.219v1.044h-0.526v-2.776
	h1.745c0.477,0,0.865,0.39,0.865,0.866S99.631,275.463,99.154,275.463z M103.055,276.557c-0.788,0-1.451-0.655-1.451-1.442
	c0-0.809,0.635-1.435,1.451-1.435c0.771,0,1.45,0.655,1.45,1.422C104.505,275.901,103.846,276.557,103.055,276.557z
	 M108.201,276.507l-0.614-1.044h-0.857v1.044h-0.526v-2.776h1.695c0.489,0,0.879,0.39,0.879,0.866c0,0.372-0.236,0.691-0.598,0.82
	l0.635,1.09H108.201z M112.619,274.257h-0.907v2.25h-0.526v-2.25h-0.953v-0.526h2.387V274.257z M116.441,276.507l-0.283-0.605
	h-1.412l-0.29,0.605h-0.585l1.314-2.776h0.526l1.317,2.776H116.441z M120.664,274.257h-0.908v2.25h-0.526v-2.25h-0.953v-0.526h2.388
	V274.257z M122.724,276.507c0.009,0-0.526,0-0.526,0v-2.776h0.526C122.724,273.73,122.732,276.507,122.724,276.507z
	 M125.873,276.557c-0.788,0-1.451-0.655-1.451-1.442c0-0.809,0.635-1.435,1.451-1.435c0.771,0,1.45,0.655,1.45,1.422
	C127.323,275.901,126.664,276.557,125.873,276.557z M131.634,276.507h-0.526l-1.559-1.919v1.919h-0.526v-2.776h0.519l1.559,1.938
	v-1.938h0.534V276.507z M13.144,179.534c1.959-9.729,5.751-19.452,11.442-27.67c2.862-4.135,5.945-8.214,9.619-11.678
	c7.211-6.814,15.558-12.433,24.601-16.537c13.946-6.32,30.16-7.399,45.089-4.455c14.829,2.927,28.56,10.326,39.242,20.992
	c10.678,10.66,18.064,24.357,21.039,39.143c3.001,14.909,1.51,30.587-4.294,44.646c-5.767,13.979-15.68,26.084-28.257,34.506
	c-12.653,8.471-27.73,13.033-42.965,13.033c-15.234,0-30.306-4.558-42.958-13.033c-12.569-8.422-22.478-20.541-28.249-34.506
	C11.663,209.969,10.146,194.389,13.144,179.534z"/>
<path fill="#FFFFFF" d="M81.781,274.257h-1.169v0.684h1.169c0.194,0,0.353-0.158,0.353-0.344
	C82.134,274.414,81.976,274.257,81.781,274.257z"/>
<path fill="#FFFFFF" d="M67.314,274.219c-0.506,0-0.925,0.391-0.925,0.883c0,0.511,0.419,0.916,0.925,0.916
	c0.503,0,0.919-0.402,0.923-0.909C68.233,274.614,67.817,274.219,67.314,274.219z"/>
<path fill="#FFFFFF" d="M99.154,274.257h-1.219v0.684h1.219c0.186,0,0.331-0.158,0.331-0.344
	C99.485,274.414,99.34,274.257,99.154,274.257z"/>
<polygon fill="#FFFFFF" points="85.233,275.367 86.149,275.367 85.693,274.401 "/>
<path fill="#FFFFFF" d="M116.725,174.49c0,0,4.767,9.538,4.858,9.721c0.204,0.026,22.804,3.043,22.804,3.043l1.865,13.983
	l-13.813,2.544l-0.024-0.209c-0.604-5.333-5.269-9.511-10.62-9.511c-5.45,0-10.007,4.071-10.602,9.47l-0.02,0.175l-2.947,0.003
	l4.173,4.166c-0.329-0.985-0.515-2.036-0.515-3.131c0-5.466,4.445-9.912,9.91-9.912c5.466,0,9.911,4.446,9.911,9.912
	c0,5.465-4.445,9.913-9.911,9.913c-1.087,0-2.131-0.183-3.11-0.508l18.949,18.918c3.149-4.447,6.351-9.049,8.438-14.117
	c2.226-5.379,3.722-11.064,4.436-16.845c1.393-11.282-0.36-22.865-5.066-33.222c-6.191-13.657-17.366-24.831-31.044-31.005
	c-17.188-7.767-37.957-7.334-54.648,1.555c-3.378,1.802-6.521,4.051-9.647,6.246l29.137,29.089L116.725,174.49z"/>
<path fill="#FFFFFF" d="M25.989,273.395c0.288,0,0.52-0.183,0.52-0.403c0-0.243-0.232-0.442-0.52-0.442
	c-0.287,0-0.52,0.199-0.52,0.442C25.47,273.212,25.702,273.395,25.989,273.395z"/>
<path fill="#FFFFFF" d="M158.252,1.526H19.071c-9.676,0-17.544,7.875-17.544,17.55V268.93c0,9.673,7.869,17.544,17.544,17.544
	h139.181c9.681,0,17.556-7.871,17.556-17.544V19.076C175.808,9.401,167.933,1.526,158.252,1.526z M172.833,268.786
	c0,8.087-6.558,14.636-14.642,14.636H19.136c-8.078,0-14.636-6.561-14.636-14.636V18.906c0-8.093,6.552-14.642,14.636-14.642
	h139.055c8.084,0,14.642,6.549,14.642,14.642V268.786z"/>
<path d="M158.252,0H19.071C8.555,0,0,8.558,0,19.076V268.93C0,279.445,8.555,288,19.071,288h139.181
	c10.521,0,19.082-8.555,19.082-19.07V19.076C177.334,8.558,168.772,0,158.252,0z M175.808,268.93
	c0,9.673-7.875,17.544-17.556,17.544H19.071c-9.676,0-17.544-7.871-17.544-17.544V19.076c0-9.675,7.869-17.55,17.544-17.55h139.181
	c9.681,0,17.556,7.875,17.556,17.55V268.93z"/>
<path d="M102.9,50.667l12.626-2.062l-7.94-10.313l-0.125,0.109c-4.155,3.623-4.532,7.955-4.561,12.081V50.667z"/>
<path d="M26.584,92.383c0-1.54-0.91-3.044-2.24-3.535c-0.49-0.174-0.735-0.174-1.54-0.174h-4.689v6.438h5.6
	C25.604,95.113,26.584,94.204,26.584,92.383z"/>
<path d="M119.269,49.325c0,0.964-0.782,1.749-1.746,1.749l-0.787-0.18l-13.362,2.533l0.045,0.161
	c1.645,6.131,7.531,10.582,13.997,10.582c8.034,0,14.571-6.537,14.571-14.571c0-8.033-6.537-14.568-14.571-14.568
	c-2.808,0-5.681,0.7-7.682,1.871l-0.149,0.087l7.928,10.529C118.52,47.591,119.269,48.391,119.269,49.325z"/>
<path d="M99.869,51.353l-0.043-0.677l-0.056-1.077c0-5.439,1.979-10.018,5.882-13.608l0.108-0.1l-4.789-5.733l-7.148,21.808
	L99.869,51.353z"/>
<path d="M89.614,49.047l0.311,0.35l-0.243-2.893c0,0-0.656,0-0.855,0c-0.014-0.188-0.054-0.709-0.07-0.925c0.288,0,2.769,0,3.019,0
	c0.015,0.196,0.058,0.799,0.073,1.021c-0.204,0-0.772,0-0.772,0l0.4,2.936l6.899-20.911l-25.214,0.033l-0.452,1.381l0.066,0.068
	C72.965,30.31,89.448,48.861,89.614,49.047z"/>
<path d="M101.125,79.575c-0.663-0.351-1.084-0.42-2.239-0.42h-4.83v5.739h4.83c1.155,0,1.576-0.07,2.239-0.385
	c0.806-0.42,1.401-1.505,1.401-2.485C102.526,81.045,101.931,80.064,101.125,79.575z"/>
<polygon points="119.955,88.534 117.68,81.955 115.264,88.534 "/>
<path d="M59.919,64.168c8.033,0,14.568-6.536,14.568-14.57c0-4.08-1.714-7.973-4.7-10.682l-0.171-0.155l-0.08,0.216
	c-1.767,4.772-4.095,7.26-7.77,10.179l-0.058,0.048v0.075c0,1.022-0.719,1.794-1.672,1.794c-0.964,0-1.748-0.785-1.748-1.749
	c0-0.94,0.751-1.708,1.709-1.748c4.615-3.675,5.916-6.067,7.28-10.382l0.037-0.118l-0.106-0.062
	c-2.139-1.263-4.794-1.986-7.29-1.986c-8.035,0-14.57,6.535-14.57,14.568C45.349,57.633,51.884,64.168,59.919,64.168z"/>
<path d="M24.764,84.265c0.84-0.666,1.33-1.645,1.33-2.73c0-1.575-0.91-2.379-2.555-2.379h-5.424v5.739h4.445
	C23.609,84.894,24.099,84.754,24.764,84.265z"/>
<path d="M158.191,4.265H19.136C11.053,4.265,4.5,10.813,4.5,18.906v249.88c0,8.075,6.558,14.636,14.636,14.636h139.055
	c8.084,0,14.642-6.549,14.642-14.636V18.906C172.833,10.813,166.275,4.265,158.191,4.265z M146.971,75.445h3.711v9.449h8.539v-9.449
	h3.709v23.448h-3.709V88.674h-8.539v10.219h-3.711V75.445z M129.018,78.735v-3.29h14.488v3.29h-5.423v20.158h-3.711V78.735H129.018z
	 M59.919,31.954c2.859,0,5.761,0.709,8.167,1.997l0.157,0.083l5.168-14.254c0,0-1.468-2.604-1.573-2.791
	c0.144-0.159,3.158-3.439,3.158-3.439s6.405,0.047,6.688,0.049c0.01,0.23,0.067,1.438,0.08,1.689c-0.309,0-5.928,0-5.928,0
	l-1.352,1.382l-0.077,0.083l1.483,2.668l-1.864,6.443h25.25l0.476-1.451l-0.186-0.023c-2.056-0.266-5.454-1.523-6.206-2.175
	c-0.178-0.155-0.372-0.391-0.286-0.631c0.098-0.275,0.529-0.487,1.027-0.504c0.002-0.001,7.023-0.335,7.023-0.335l6.593-0.292
	c0.557-0.003,0.915,0.114,1.01,0.329c0.104,0.235-0.087,0.643-0.523,1.121c-0.942,1.03-1.734,1.897-5.172,2.43l-1.074,2.669
	l6.01,7.565l0.116-0.07c2.703-1.642,6.016-2.544,9.331-2.544c9.73,0,17.646,7.915,17.646,17.645c0,9.73-7.915,17.646-17.646,17.646
	c-7.967,0-14.995-5.402-17.094-13.137l-0.037-0.137l-5.562,1c-0.311,0.631-0.767,1.113-1.47,1.531l-0.096,0.057l1.014,4.819
	c0,0,0.998,0,1.223,0c0.015,0.19,0.055,0.724,0.071,0.934c-0.281,0.013-3.293,0.161-3.58,0.175c0-0.218,0-0.806,0-1.014
	c0.217,0,0.996,0,0.996,0l-1.253-4.875l-0.101-0.017c-0.829-0.136-1.491-0.557-1.864-1.186c-0.202-0.337-0.302-0.715-0.302-1.103
	c0-0.259,0.045-0.524,0.136-0.785L71.585,33.129l-0.921,2.498l0.088,0.07c4.266,3.358,6.811,8.555,6.811,13.902
	c0,9.73-7.915,17.646-17.644,17.646c-9.73,0-17.646-7.916-17.646-17.646C42.273,39.869,50.188,31.954,59.919,31.954z
	 M127.549,98.893h-3.955l-2.31-6.579h-7.313l-2.312,6.579h-3.954l8.084-23.448h3.675L127.549,98.893z M106.306,82.024
	c0,2.485-1.575,4.935-3.604,5.845c-1.085,0.489-2.486,0.805-4.305,0.805h-4.341v10.219h-3.709V75.445h8.05
	c1.889,0,3.149,0.174,4.305,0.734C104.73,77.16,106.306,79.645,106.306,82.024z M74.634,84.894v3.78h-6.825v6.438h10.85v3.78H64.1
	V75.445h13.824v3.71H67.809v5.739H74.634z M54.791,75.445h4.795l-7.245,9.134l7.735,14.314h-4.27l-5.95-11.094l-2.45,3.044v8.049
	h-3.709V75.445h3.709v9.309L54.791,75.445z M34.318,75.445h3.78v23.448h-3.78V75.445z M14.405,75.445h8.889
	c3.71,0,6.51,2.554,6.51,5.914c0,2.31-1.085,4.025-3.29,5.285c2.45,1.155,3.85,3.115,3.85,5.67c0,2.554-1.575,5.109-3.78,6.019
	c-0.84,0.316-2.24,0.561-3.29,0.561h-8.889V75.445z M167.325,268.811c0,5.046-4.09,9.139-9.146,9.139H19.148
	c-5.056,0-9.139-4.087-9.139-9.139V108.206h157.316V268.811z"/>
<path fill="#FFFFFF" d="M48.379,210.074c2.939,0,5.33-2.391,5.33-5.33c0-2.94-2.39-5.331-5.33-5.331c-2.939,0-5.33,2.391-5.33,5.331
	C43.049,207.684,45.44,210.074,48.379,210.074z"/>
<path d="M131.705,204.744c0-5.466-4.445-9.912-9.911-9.912c-5.465,0-9.91,4.446-9.91,9.912c0,1.095,0.186,2.146,0.515,3.131
	l6.285,6.274c0.979,0.325,2.023,0.508,3.11,0.508C127.26,214.657,131.705,210.209,131.705,204.744z M116.072,204.744
	c0-3.156,2.566-5.725,5.722-5.725c3.156,0,5.723,2.568,5.723,5.725c0,3.155-2.566,5.724-5.723,5.724
	C118.639,210.468,116.072,207.899,116.072,204.744z"/>
<path fill="#FFFFFF" d="M127.517,204.744c0-3.156-2.566-5.725-5.723-5.725c-3.155,0-5.722,2.568-5.722,5.725
	c0,3.155,2.566,5.724,5.722,5.724C124.95,210.468,127.517,207.899,127.517,204.744z"/>
<path d="M48.379,214.657c5.465,0,9.911-4.448,9.911-9.913c0-5.466-4.446-9.912-9.911-9.912c-5.466,0-9.913,4.446-9.913,9.912
	C38.466,210.209,42.913,214.657,48.379,214.657z M48.379,199.413c2.939,0,5.33,2.391,5.33,5.331c0,2.939-2.39,5.33-5.33,5.33
	c-2.939,0-5.33-2.391-5.33-5.33C43.049,201.804,45.44,199.413,48.379,199.413z"/>
<path d="M29.964,188.459l-1.868,13.694l9.658,1.543l0.024-0.204c0.625-5.288,5.282-9.431,10.6-9.431
	c5.36,0,10.015,4.179,10.599,9.515l0.019,0.175l28.4-0.024l-15.699-15.691h-1.208l0.542-0.667l-3.202-3.2
	c-0.813,0.914-1.355,1.524-1.379,1.552C66.292,185.731,29.964,188.459,29.964,188.459z"/>
<path d="M111.192,203.531c0.595-5.398,5.151-9.47,10.602-9.47c5.352,0,10.017,4.178,10.62,9.511l0.024,0.209l13.813-2.544
	l-1.865-13.983c0,0-22.6-3.017-22.804-3.043c-0.092-0.183-4.858-9.721-4.858-9.721l-37.488,0.278l3.548,3.542l9.846-0.028
	l-0.839,9.021l16.434,16.406l2.947-0.003L111.192,203.531z M96.273,178.323h15.779l1.514,9.407l-17.894,0.305L96.273,178.323z"/>
<polygon fill="#FFFFFF" points="71.698,188.035 71.031,187.368 70.489,188.035 "/>
<polygon fill="#FFFFFF" points="82.785,178.311 91.792,187.303 92.631,178.282 "/>
<polygon fill="#FFFFFF" points="112.053,178.323 96.273,178.323 95.673,188.035 113.566,187.73 "/>
<path fill="#BF2F37" d="M45.702,258.481c12.652,8.476,27.724,13.033,42.958,13.033c15.235,0,30.312-4.563,42.965-13.033
	c12.577-8.422,22.49-20.527,28.257-34.506c5.804-14.06,7.295-29.737,4.294-44.646c-2.975-14.785-10.361-28.482-21.039-39.143
	c-10.683-10.666-24.413-18.065-39.242-20.992c-14.929-2.944-31.143-1.865-45.089,4.455c-9.043,4.104-17.39,9.723-24.601,16.537
	c-3.674,3.464-6.757,7.543-9.619,11.678c-5.69,8.218-9.483,17.941-11.442,27.67c-2.998,14.854-1.481,30.435,4.309,44.441
	C23.224,237.94,33.132,250.06,45.702,258.481z M59.747,139.434c16.692-8.889,37.46-9.322,54.648-1.555
	c13.678,6.174,24.853,17.348,31.044,31.005c4.706,10.356,6.459,21.939,5.066,33.222c-0.714,5.78-2.21,11.466-4.436,16.845
	c-2.087,5.068-5.288,9.67-8.438,14.117l-18.949-18.918l-6.285-6.274l-4.173-4.166l-16.434-16.406l-9.007-8.992l-3.548-3.542
	L50.1,145.68C53.226,143.485,56.369,141.235,59.747,139.434z M31.248,170.209c2.1-5.071,5.305-9.693,8.456-14.152l28.125,28.111
	l3.202,3.2l0.667,0.667l15.699,15.691l39.832,39.813c-3.12,2.202-6.269,4.442-9.65,6.239c-13.254,7.041-29.255,8.822-43.8,5.298
	c-14.729-3.588-27.848-12.579-36.461-25.023c-6.517-9.401-10.31-20.571-10.921-31.984C25.899,188.568,27.6,178.992,31.248,170.209z"
	/>
<path d="M46.919,273.73h-1.219v2.776h1.219c0.771,0,1.392-0.621,1.392-1.393C48.312,274.352,47.69,273.73,46.919,273.73z
	 M46.919,275.98h-0.692v-1.724h0.692c0.477,0,0.858,0.389,0.858,0.857C47.777,275.591,47.396,275.98,46.919,275.98z"/>
<polygon points="50.538,275.296 51.512,275.296 51.512,274.762 50.538,274.762 50.538,274.257 52.224,274.257 52.224,273.73 
	50.011,273.73 50.011,276.507 52.262,276.507 52.262,275.98 50.538,275.98 "/>
<path d="M55.705,273.73H53.96v2.776h0.527v-1.044h1.218c0.477,0,0.866-0.39,0.866-0.866S56.182,273.73,55.705,273.73z
	 M55.705,274.94h-1.218v-0.684h1.218c0.187,0,0.332,0.157,0.332,0.34C56.037,274.782,55.892,274.94,55.705,274.94z"/>
<polygon points="57.989,274.257 58.942,274.257 58.942,276.507 59.468,276.507 59.468,274.257 60.376,274.257 60.376,273.73 
	57.989,273.73 "/>
<path d="M67.314,273.68c-0.817,0-1.451,0.626-1.451,1.435c0,0.787,0.663,1.442,1.451,1.442c0.791,0,1.451-0.655,1.451-1.455
	C68.765,274.335,68.084,273.68,67.314,273.68z M67.314,276.018c-0.506,0-0.925-0.405-0.925-0.916c0-0.492,0.419-0.883,0.925-0.883
	c0.503,0,0.919,0.396,0.923,0.89C68.233,275.615,67.817,276.018,67.314,276.018z"/>
<polygon points="70.463,276.507 70.99,276.507 70.99,275.296 72.022,275.296 72.022,274.762 70.99,274.762 70.99,274.257 
	72.714,274.257 72.714,273.73 70.463,273.73 "/>
<polygon points="76.166,274.257 77.119,274.257 77.119,276.507 77.645,276.507 77.645,274.257 78.553,274.257 78.553,273.73 
	76.166,273.73 "/>
<path d="M82.66,274.597c0-0.477-0.39-0.866-0.879-0.866h-1.695v2.776h0.526v-1.044h0.858l0.613,1.044h0.613l-0.634-1.09
	C82.423,275.288,82.66,274.969,82.66,274.597z M81.781,274.94h-1.169v-0.684h1.169c0.194,0,0.353,0.157,0.353,0.34
	C82.134,274.782,81.976,274.94,81.781,274.94z"/>
<path d="M85.428,273.73l-1.314,2.776h0.584l0.29-0.605h1.413l0.283,0.605h0.588l-1.317-2.776H85.428z M85.233,275.367l0.46-0.966
	l0.456,0.966H85.233z"/>
<polygon points="90.879,275.669 89.32,273.73 88.802,273.73 88.802,276.507 89.328,276.507 89.328,274.588 90.887,276.507 
	91.413,276.507 91.413,273.73 90.879,273.73 "/>
<path d="M95.305,274.998c-0.179-0.092-0.489-0.187-0.809-0.244c-0.179-0.029-0.684-0.071-0.684-0.312
	c0-0.157,0.187-0.224,0.575-0.224c0.34,0,0.585,0.059,0.866,0.232l0.282-0.439c-0.368-0.224-0.721-0.332-1.11-0.332
	c-0.232,0-0.477,0.051-0.672,0.137c-0.311,0.129-0.468,0.34-0.468,0.635c0,0.187,0.07,0.34,0.215,0.489
	c0.146,0.145,0.349,0.224,0.771,0.311c0.36,0.065,0.526,0.108,0.659,0.153c0.157,0.059,0.265,0.178,0.265,0.294
	c0,0.216-0.253,0.319-0.721,0.319c-0.439,0-0.729-0.087-1.061-0.311l-0.304,0.431c0.42,0.303,0.817,0.419,1.385,0.419
	c0.767,0,1.219-0.311,1.219-0.838C95.715,275.417,95.558,275.135,95.305,274.998z"/>
<path d="M99.154,273.73h-1.745v2.776h0.526v-1.044h1.219c0.477,0,0.865-0.39,0.865-0.866S99.631,273.73,99.154,273.73z
	 M99.154,274.94h-1.219v-0.684h1.219c0.186,0,0.331,0.157,0.331,0.34C99.485,274.782,99.34,274.94,99.154,274.94z"/>
<path d="M103.055,273.68c-0.816,0-1.451,0.626-1.451,1.435c0,0.787,0.663,1.442,1.451,1.442c0.791,0,1.45-0.655,1.45-1.455
	C104.505,274.335,103.825,273.68,103.055,273.68z M103.055,276.018c-0.506,0-0.925-0.405-0.925-0.916
	c0-0.492,0.419-0.883,0.925-0.883c0.503,0,0.92,0.396,0.924,0.89C103.975,275.615,103.558,276.018,103.055,276.018z"/>
<path d="M108.777,274.597c0-0.477-0.39-0.866-0.879-0.866h-1.695v2.776h0.526v-1.044h0.857l0.614,1.044h0.613l-0.635-1.09
	C108.541,275.288,108.777,274.969,108.777,274.597z M107.898,274.94h-1.169v-0.684h1.169c0.194,0,0.353,0.157,0.353,0.34
	C108.251,274.782,108.093,274.94,107.898,274.94z"/>
<polygon points="110.232,274.257 111.186,274.257 111.186,276.507 111.712,276.507 111.712,274.257 112.619,274.257 112.619,273.73 
	110.232,273.73 "/>
<path d="M115.186,273.73l-1.314,2.776h0.585l0.29-0.605h1.412l0.283,0.605h0.588l-1.317-2.776H115.186z M114.99,275.367l0.46-0.966
	l0.456,0.966H114.99z"/>
<polygon points="118.276,274.257 119.229,274.257 119.229,276.507 119.756,276.507 119.756,274.257 120.664,274.257 120.664,273.73 
	118.276,273.73 "/>
<path d="M122.197,273.73v2.776c0,0,0.535,0,0.526,0c0.009,0,0-2.776,0-2.776H122.197z"/>
<path d="M125.873,273.68c-0.816,0-1.451,0.626-1.451,1.435c0,0.787,0.663,1.442,1.451,1.442c0.791,0,1.45-0.655,1.45-1.455
	C127.323,274.335,126.644,273.68,125.873,273.68z M125.873,276.018c-0.506,0-0.925-0.405-0.925-0.916
	c0-0.492,0.419-0.883,0.925-0.883c0.503,0,0.92,0.396,0.924,0.89C126.793,275.615,126.376,276.018,125.873,276.018z"/>
<polygon points="131.1,275.669 129.541,273.73 129.022,273.73 129.022,276.507 129.549,276.507 129.549,274.588 131.107,276.507 
	131.634,276.507 131.634,273.73 131.1,273.73 "/>
<path d="M15.977,272.969c0-0.011,0-0.027,0-0.039c0-0.292,0.276-0.392,0.531-0.392c0.011,0,0.022,0,0.039,0
	c0.415,0.011,0.547,0.326,0.547,0.326l0.52-0.155c-0.182-0.459-0.536-0.757-1.055-0.757c-0.663,0-1.155,0.276-1.155,1
	c0,0.613,0.492,0.835,0.713,0.923c0.481,0.193,1.056,0.276,1.056,0.769c0,0.309-0.232,0.547-0.575,0.547
	c-0.348,0-0.636-0.199-0.791-0.547l-0.558,0.204c0.249,0.563,0.713,0.939,1.349,0.939c0.315,0,0.602-0.105,0.807-0.287
	c0.232-0.21,0.365-0.509,0.365-0.846C17.767,273.201,16.026,273.654,15.977,272.969z"/>
<path d="M20.833,273.058c0-0.376-0.232-0.769-0.558-0.923c-0.182-0.089-0.375-0.116-0.663-0.116h-1.221v3.702h0.586v-1.613h0.702
	l0.597,1.613h0.636l-0.652-1.729C20.602,273.836,20.833,273.449,20.833,273.058z M20.016,273.449
	c-0.094,0.05-0.154,0.062-0.337,0.062h-0.702v-0.906h0.702c0.193,0,0.238,0.011,0.337,0.066c0.144,0.077,0.232,0.231,0.232,0.387
	C20.248,273.212,20.16,273.367,20.016,273.449z"/>
<rect x="21.209" y="273.604" width="1.298" height="0.586"/>
<path d="M23.027,272.25h-0.039v0.47h0.337v3.001h0.597v-3.702h-0.469C23.354,272.162,23.182,272.25,23.027,272.25z"/>
<path d="M27.105,273.008c0-0.575-0.52-1.056-1.116-1.056s-1.105,0.48-1.105,1.056c0,0.26,0.088,0.48,0.271,0.674
	c-0.271,0.221-0.425,0.509-0.425,0.856c0,0.674,0.586,1.249,1.26,1.249c0.674,0,1.26-0.575,1.26-1.249
	c0-0.337-0.144-0.636-0.431-0.856C27,273.488,27.105,273.268,27.105,273.008z M25.989,272.549c0.288,0,0.52,0.199,0.52,0.442
	c0,0.221-0.232,0.403-0.52,0.403c-0.287,0-0.52-0.183-0.52-0.403C25.47,272.748,25.702,272.549,25.989,272.549z M25.989,275.19
	c-0.365,0-0.663-0.287-0.663-0.642c0-0.309,0.298-0.558,0.663-0.558s0.674,0.249,0.674,0.558
	C26.664,274.903,26.365,275.19,25.989,275.19z"/>
<path d="M29.327,271.952c-0.425,0-0.724,0.133-0.945,0.414c-0.249,0.354-0.403,0.901-0.403,1.509c0,0.442,0.105,0.934,0.26,1.249
	c0.221,0.453,0.547,0.663,1.066,0.663c0.387,0,0.685-0.133,0.895-0.414c0.26-0.326,0.403-0.912,0.403-1.498
	c0-0.464-0.094-0.934-0.249-1.26C30.123,272.162,29.796,271.952,29.327,271.952z M29.874,274.721
	c-0.127,0.326-0.299,0.47-0.569,0.47c-0.238,0-0.393-0.094-0.508-0.287c-0.144-0.232-0.221-0.636-0.221-1.028
	c0-0.31,0.05-0.646,0.144-0.867c0.122-0.315,0.298-0.459,0.564-0.459c0.011,0,0.022,0,0.033,0c0.221,0.017,0.365,0.094,0.48,0.287
	c0.144,0.249,0.221,0.625,0.221,1.039C30.018,274.162,29.951,274.527,29.874,274.721z"/>
<path d="M31.382,272.25h-0.039v0.47h0.337v3.001h0.597v-3.702h-0.469C31.708,272.162,31.537,272.25,31.382,272.25z"/>
<path fill="#FFFFFF" d="M59.919,67.245c9.729,0,17.644-7.916,17.644-17.646c0-5.347-2.545-10.543-6.811-13.902l-0.088-0.07
	l0.921-2.498l17.912,20.379c-0.091,0.261-0.136,0.526-0.136,0.785c0,0.388,0.101,0.765,0.302,1.103
	c0.373,0.628,1.035,1.049,1.864,1.186l0.101,0.017l1.253,4.875c0,0-0.779,0-0.996,0c0,0.208,0,0.796,0,1.014
	c0.287-0.015,3.299-0.162,3.58-0.175c-0.017-0.21-0.057-0.743-0.071-0.934c-0.225,0-1.223,0-1.223,0l-1.014-4.819l0.096-0.057
	c0.703-0.418,1.159-0.9,1.47-1.531l5.562-1l0.037,0.137c2.099,7.735,9.127,13.137,17.094,13.137c9.73,0,17.646-7.916,17.646-17.646
	c0-9.729-7.915-17.645-17.646-17.645c-3.315,0-6.628,0.902-9.331,2.544l-0.116,0.07l-6.01-7.565l1.074-2.669
	c3.438-0.533,4.229-1.4,5.172-2.43c0.437-0.478,0.627-0.885,0.523-1.121c-0.095-0.215-0.453-0.332-1.01-0.329l-6.593,0.292
	c0,0-7.021,0.334-7.023,0.335c-0.498,0.017-0.93,0.229-1.027,0.504c-0.086,0.241,0.108,0.477,0.286,0.631
	c0.752,0.652,4.15,1.909,6.206,2.175l0.186,0.023l-0.476,1.451h-25.25l1.864-6.443l-1.483-2.668l0.077-0.083l1.352-1.382
	c0,0,5.619,0,5.928,0c-0.013-0.251-0.07-1.458-0.08-1.689c-0.283-0.002-6.688-0.049-6.688-0.049s-3.014,3.28-3.158,3.439
	c0.105,0.188,1.573,2.791,1.573,2.791l-5.168,14.254l-0.157-0.083c-2.407-1.288-5.308-1.997-8.167-1.997
	c-9.73,0-17.646,7.915-17.646,17.645C42.273,59.329,50.188,67.245,59.919,67.245z M109.733,36.901
	c2.001-1.171,4.874-1.871,7.682-1.871c8.034,0,14.571,6.535,14.571,14.568c0,8.034-6.537,14.571-14.571,14.571
	c-6.466,0-12.353-4.451-13.997-10.582l-0.045-0.161l13.362-2.533l0.787,0.18c0.964,0,1.746-0.785,1.746-1.749
	c0-0.935-0.749-1.734-1.757-1.808l-7.928-10.529L109.733,36.901z M107.461,38.401l0.125-0.109l7.94,10.313L102.9,50.667v-0.185
	C102.929,46.356,103.306,42.024,107.461,38.401z M100.972,30.158l4.789,5.733l-0.108,0.1c-3.903,3.59-5.882,8.168-5.882,13.608
	l0.056,1.077l0.043,0.677l-6.046,0.613L100.972,30.158z M73.161,28.658l25.214-0.033l-6.899,20.911l-0.4-2.936c0,0,0.568,0,0.772,0
	c-0.016-0.222-0.059-0.825-0.073-1.021c-0.25,0-2.73,0-3.019,0c0.017,0.216,0.056,0.737,0.07,0.925c0.2,0,0.855,0,0.855,0
	l0.243,2.893l-0.311-0.35c-0.167-0.187-16.649-18.738-16.839-18.939l-0.066-0.068L73.161,28.658z M59.919,35.03
	c2.495,0,5.151,0.723,7.29,1.986l0.106,0.062l-0.037,0.118c-1.364,4.314-2.665,6.707-7.28,10.382
	c-0.958,0.04-1.709,0.808-1.709,1.748c0,0.964,0.783,1.749,1.748,1.749c0.953,0,1.672-0.772,1.672-1.794v-0.075l0.058-0.048
	c3.675-2.919,6.003-5.407,7.77-10.179l0.08-0.216l0.171,0.155c2.986,2.709,4.7,6.603,4.7,10.682c0,8.034-6.535,14.57-14.568,14.57
	c-8.035,0-14.57-6.536-14.57-14.57C45.349,41.565,51.884,35.03,59.919,35.03z"/>
<path fill="#FFFFFF" d="M26.584,98.333c2.205-0.909,3.78-3.464,3.78-6.019c0-2.555-1.4-4.515-3.85-5.67
	c2.205-1.26,3.29-2.975,3.29-5.285c0-3.36-2.8-5.914-6.51-5.914h-8.889v23.448h8.889C24.344,98.893,25.744,98.648,26.584,98.333z
	 M18.115,79.155h5.424c1.645,0,2.555,0.805,2.555,2.379c0,1.085-0.49,2.064-1.33,2.73c-0.665,0.489-1.155,0.629-2.205,0.629h-4.445
	V79.155z M18.115,88.674h4.689c0.805,0,1.05,0,1.54,0.174c1.33,0.49,2.24,1.995,2.24,3.535c0,1.82-0.98,2.729-2.87,2.729h-5.6
	V88.674z"/>
<rect x="34.318" y="75.445" fill="#FFFFFF" width="3.78" height="23.448"/>
<polygon fill="#FFFFFF" points="43.697,75.445 43.697,98.893 47.406,98.893 47.406,90.844 49.856,87.799 55.806,98.893 
	60.076,98.893 52.341,84.579 59.585,75.445 54.791,75.445 47.406,84.754 47.406,75.445 "/>
<polygon fill="#FFFFFF" points="77.924,79.155 77.924,75.445 64.1,75.445 64.1,98.893 78.659,98.893 78.659,95.113 67.809,95.113 
	67.809,88.674 74.634,88.674 74.634,84.894 67.809,84.894 67.809,79.155 "/>
<path fill="#FFFFFF" d="M102.701,76.18c-1.155-0.56-2.416-0.734-4.305-0.734h-8.05v23.448h3.709V88.674h4.341
	c1.818,0,3.22-0.316,4.305-0.805c2.029-0.91,3.604-3.36,3.604-5.845C106.306,79.645,104.73,77.16,102.701,76.18z M101.125,84.509
	c-0.663,0.314-1.084,0.385-2.239,0.385h-4.83v-5.739h4.83c1.155,0,1.576,0.069,2.239,0.42c0.806,0.489,1.401,1.47,1.401,2.449
	C102.526,83.004,101.931,84.089,101.125,84.509z"/>
<path fill="#FFFFFF" d="M107.705,98.893h3.954l2.312-6.579h7.313l2.31,6.579h3.955l-8.085-23.448h-3.675L107.705,98.893z
	 M119.955,88.534h-4.691l2.416-6.579L119.955,88.534z"/>
<polygon fill="#FFFFFF" points="138.083,98.893 138.083,78.735 143.506,78.735 143.506,75.445 129.018,75.445 129.018,78.735 
	134.372,78.735 134.372,98.893 "/>
<polygon fill="#FFFFFF" points="150.682,88.674 159.221,88.674 159.221,98.893 162.93,98.893 162.93,75.445 159.221,75.445 
	159.221,84.894 150.682,84.894 150.682,75.445 146.971,75.445 146.971,98.893 150.682,98.893 "/>
</svg>
