<?xml version="1.0" encoding="UTF-8" standalone="no"?>
<!-- Created with Inkscape (http://www.inkscape.org/) -->

<svg
   xmlns:dc="http://purl.org/dc/elements/1.1/"
   xmlns:cc="http://creativecommons.org/ns#"
   xmlns:rdf="http://www.w3.org/1999/02/22-rdf-syntax-ns#"
   xmlns:svg="http://www.w3.org/2000/svg"
   xmlns="http://www.w3.org/2000/svg"
   xmlns:sodipodi="http://sodipodi.sourceforge.net/DTD/sodipodi-0.dtd"
   xmlns:inkscape="http://www.inkscape.org/namespaces/inkscape"
   id="svg1379"
   sodipodi:version="0.32"
   inkscape:version="0.48.2 r9819"
   width="2170.0037"
   height="1630.0043"
   sodipodi:docname="AJAX1.svg"
   version="1.0">
  <metadata
     id="metadata1384">
    <rdf:RDF>
      <cc:Work
         rdf:about="">
        <dc:format>image/svg+xml</dc:format>
        <dc:type
           rdf:resource="http://purl.org/dc/dcmitype/StillImage" />
        <dc:title>Dienstflagge für Kampfschiffe und -boote der Volksmarine</dc:title>
        <cc:license
           rdf:resource="http://creativecommons.org/licenses/GPL/2.0/" />
      </cc:Work>
      <cc:License
         rdf:about="http://creativecommons.org/licenses/GPL/2.0/">
        <cc:permits
           rdf:resource="http://web.resource.org/cc/Reproduction" />
        <cc:permits
           rdf:resource="http://web.resource.org/cc/Distribution" />
        <cc:requires
           rdf:resource="http://web.resource.org/cc/Notice" />
        <cc:permits
           rdf:resource="http://web.resource.org/cc/DerivativeWorks" />
        <cc:requires
           rdf:resource="http://web.resource.org/cc/ShareAlike" />
        <cc:requires
           rdf:resource="http://web.resource.org/cc/SourceCode" />
      </cc:License>
    </rdf:RDF>
  </metadata>
  <defs
     id="defs1382" />
  <sodipodi:namedview
     showgrid="false"
     id="base"
     pagecolor="#ffffff"
     bordercolor="#666666"
     borderopacity="1.0"
     inkscape:pageopacity="0.0"
     inkscape:pageshadow="2"
     inkscape:window-width="1280"
     inkscape:window-height="1004"
     inkscape:zoom="0.14762515"
     inkscape:cx="832.21996"
     inkscape:cy="1588.5227"
     inkscape:window-x="-8"
     inkscape:window-y="-8"
     inkscape:current-layer="g3264"
     showguides="true"
     inkscape:guide-bbox="true"
     inkscape:showpageshadow="false"
     inkscape:snap-global="false"
     fit-margin-top="0"
     fit-margin-left="0"
     fit-margin-right="0"
     fit-margin-bottom="0"
     inkscape:window-maximized="1" />
  <g
     id="g10806"
     transform="translate(-887.19725,152.04677)">
    <g
       id="g3264"
       transform="matrix(0.190476,0,0,0.190476,725.7986,703.1369)">
      <path
         inkscape:connector-curvature="0"
         style="fill:#ffffff;fill-rule:nonzero;stroke:#000000;stroke-width:52.50005341;stroke-linecap:butt;stroke-linejoin:miter;stroke-miterlimit:4;stroke-opacity:1;stroke-dasharray:none"
         d="m 12213.621,3332.7964 c 0,391.4535 -317.297,708.7507 -708.751,708.7507 l -9922.5099,0 c -391.4371,0 -708.75072,-317.2972 -708.75072,-708.7507 l 0,-7087.5068 c 0,-391.437 317.31362,-708.751 708.75072,-708.751 l 9922.5099,0 c 391.454,0 708.751,317.314 708.751,708.751 l 0,7087.5068 z"
         id="path11" />
      <path
         inkscape:connector-curvature="0"
         style="fill:#000000;fill-rule:nonzero;stroke:none"
         d="m 11741.12,3332.7967 c 0,130.2658 -105.985,236.2503 -236.25,236.2503 l -9922.5099,0 c -130.2697,0 -236.2503,-105.9845 -236.2503,-236.2503 l 0,-2598.75252 10395.0102,0 0,2598.75252 z M 4488.238,-2360.8337 c 227.7058,0 441.1973,60.801 625.1641,167.029 105.8269,-324.667 269.3449,-863.213 338.5728,-1092.454 l -149.4545,-114.293 233.1396,-236.034 543.3296,0 0,157.501 -477.5208,0 -61.2676,62.022 129.6752,99.166 c -8.4919,28.232 -25.6726,85.273 -48.6217,161.083 -26.8603,88.712 -61.6219,203.129 -99.6057,327.108 l 1782.9218,0 35.2732,-126.157 c -197.9252,-18.953 -480.3424,-86.671 -482.9806,-169.72 -2.5662,-81.047 439.1693,-79.071 522.4281,-80.135 303.5747,-3.865 576.575,-77.365 585.6312,20.738 9.3188,101.187 -142.8658,205.78 -418.0317,229.465 l -57.5531,205.905 438.9004,583.439 c 193.9221,-123.243 424.0036,-194.663 670.7538,-194.663 691.5569,0 1252.1263,560.589 1252.1263,1252.126 0,691.53068 -560.5694,1252.12628 -1252.1263,1252.12628 -566.2131,0 -1044.6198,-375.9135 -1199.3962,-891.7725 l -453.6793,97.7157 c -12.2393,20.5669 -29.3475,37.8919 -49.7569,50.3804 l 99.9533,380.061 121.0851,0 0,94.5001 -304.1922,0 0,-94.5001 96.2526,0 -94.3626,-358.7525 c -78.7432,-2.5857 -141.8026,-67.1936 -141.8026,-146.5605 0,-3.9375 0.2047,-7.8225 0.504,-11.6747 L 5326.2635,-2203.6357 c -14.8575,46.213 -28.9144,89.414 -41.8491,128.494 278.4472,229.655 455.9498,577.31 455.9498,966.434 0,691.53068 -560.5955,1252.12628 -1252.1262,1252.12628 -691.5307,0 -1252.1263,-560.5956 -1252.1263,-1252.12628 0,-691.537 560.5956,-1252.126 1252.1263,-1252.126 z m 7016.632,-1925.44 -9922.5099,0 c -293.1085,0 -531.563,238.455 -531.563,531.563 l 0,7087.5074 c 0,293.0816 238.4545,531.5631 531.563,531.5631 l 9922.5099,0 c 293.081,0 531.563,-238.4815 531.563,-531.5631 l 0,-7087.5074 c 0,-293.108 -238.482,-531.563 -531.563,-531.563 z"
         id="path37" />
      <path
         inkscape:connector-curvature="0"
         style="fill:#000000;fill-rule:nonzero;stroke:none"
         d="m 8276.248,1770.7829 -132.9564,543.7759 272.5409,0 -139.5845,-543.7759 z m 339.0847,1326.2892 -132.9564,-517.2568 -405.5629,0 -126.3282,517.2568 -272.6065,0 472.0411,-1889.9822 265.9127,0 472.1068,1889.9822 -272.6066,0 z"
         id="path13" />
      <path
         inkscape:connector-curvature="0"
         style="fill:#000000;fill-rule:nonzero;stroke:none"
         d="m 2378.5168,2241.5837 -271.3334,0 0,590.2318 271.3334,0 c 152.2173,0 251.4884,-106.1157 251.4884,-271.8846 0,-179.0908 -112.5076,-318.3472 -251.4884,-318.3472 z m 13.2366,-769.2373 -284.57,0 0,504.007 284.57,0 c 125.7442,0 205.1571,-106.1157 205.1571,-278.539 0,-159.1539 -59.5613,-225.468 -205.1571,-225.468 z m 0,1624.7257 -555.9099,0 0,-1889.9822 595.6196,0 c 251.4818,0 430.1658,198.9358 430.1658,490.7245 0,172.4233 -46.3248,252.0068 -198.5356,411.141 145.5958,119.372 231.6303,278.5784 231.6303,470.8599 0,285.1409 -225.0153,517.2568 -502.9702,517.2568 z"
         id="path15" />
      <path
         inkscape:connector-curvature="0"
         style="fill:#000000;fill-rule:nonzero;stroke:none"
         d="m 4747.4045,3097.0721 0,-1889.9822 891.2015,0 0,265.2565 -618.5294,0 0,477.4748 392.4051,0 0,258.6218 -392.4051,0 0,623.3725 691.6948,0 0,265.2566 -964.3669,0 z"
         id="path17" />
      <path
         inkscape:connector-curvature="0"
         style="fill:#000000;fill-rule:nonzero;stroke:none"
         d="m 10287,3097.0721 0,-1889.9822 891.189,0 0,265.2565 -618.517,0 0,477.4748 392.438,0 0,258.6218 -392.438,0 0,623.3725 691.689,0 0,265.2566 -964.361,0 z"
         id="path19" />
      <path
         inkscape:connector-curvature="0"
         style="fill:#000000;fill-rule:nonzero;stroke:none"
         d="m 3055.3672,3097.0721 0,-1889.9822 264.6002,0 0,1889.9822 -264.6002,0 z"
         id="path21" />
      <path
         inkscape:connector-curvature="0"
         style="fill:#000000;fill-rule:nonzero;stroke:none"
         d="m 4302.1778,3097.0721 -330.9013,-921.7697 -172.0689,318.3472 0,603.4225 -271.34,0 0,-1889.9822 271.34,0 0,756.0007 430.1657,-756.0007 311.0497,0 -390.4625,663.1609 436.7873,1226.8213 -284.57,0 z"
         id="path23" />
      <path
         inkscape:connector-curvature="0"
         style="fill:#000000;fill-rule:nonzero;stroke:none"
         d="m 6656.7658,3097.0721 0,-1889.9822 272.6918,0 0,1637.9819 691.721,0 0,252.0003 -964.4128,0 z"
         id="path25" />
      <path
         inkscape:connector-curvature="0"
         style="fill:#000000;fill-rule:nonzero;stroke:none"
         d="m 9873.9559,3097.0721 -582.3569,-1266.6163 0,1266.6163 -271.3596,0 0,-1889.9822 271.3596,0 516.1412,1133.9814 0,-1133.9814 271.3598,0 0,1889.9822 -205.1441,0 z"
         id="path27" />
      <path
         inkscape:connector-curvature="0"
         style="fill:#000000;fill-rule:nonzero;stroke:none"
         d="m 7357.7402,-943.41124 c -7.1269,-54.088 -10.8744,-109.25196 -10.8744,-165.29596 0,-373.079 163.2101,-707.983 422.101,-937.382 l -347.2816,-461.6 -461.331,1649.86596 397.386,-85.588 z"
         id="path29" />
      <path
         inkscape:connector-curvature="0"
         style="fill:#000000;fill-rule:nonzero;stroke:none"
         d="m 6643.4504,-1230.8292 -121.0782,0 0,-94.507 304.1853,0 0,94.507 -96.2457,0 61.6482,234.39996 456.8289,-1633.77596 -1788.5256,0 c -21.5184,69.602 -43.2666,139.532 -64.516,207.323 l 1308.8591,1424.56896 -61.156,-232.51596 z"
         id="path31" />
      <path
         inkscape:connector-curvature="0"
         style="fill:#000000;fill-rule:nonzero;stroke:none"
         d="m 8731.5547,-1108.7072 c 0,73.218 -59.325,132.58896 -132.5626,132.58896 -23.3625,0 -45.3469,-6.071 -64.3782,-16.689 l -903.1322,194.513 c 131.1846,409.212 514.7631,705.462997 967.5104,705.462997 561.0287,0 1015.876,-454.827997 1015.876,-1015.875957 0,-561.062 -454.8473,-1015.876 -1015.876,-1015.876 -193.4627,0 -374.2598,54.088 -528.1505,147.932 l 555.3193,738.151 c 60.1782,12.54 105.3938,65.881 105.3938,129.793 z"
         id="path33" />
      <path
         inkscape:connector-curvature="0"
         style="fill:#000000;fill-rule:nonzero;stroke:none"
         d="m 7589.6786,-993.37124 835.8008,-180.00996 -513.9755,-683.196 c -201.8627,185.666 -328.3878,451.973 -328.3878,747.87 0,39.007 2.2969,77.477 6.5625,115.33596 z"
         id="path35" />
      <path
         inkscape:connector-curvature="0"
         style="fill:#000000;fill-rule:nonzero;stroke:none"
         d="m 4488.238,-92.831243 c 561.0484,0 1015.876,-454.827997 1015.876,-1015.875957 0,-288.061 -119.9232,-548.094 -312.5328,-732.967 -78.2776,158.039 -180.9218,303.713 -263.3009,409.094 -110.7423,141.658 -222.7118,259.875 -308.4903,340.22 -8.0588,65.507 -63.8598,116.24196 -131.552,116.24196 -73.2245,0 -132.5889,-59.37096 -132.5889,-132.58896 0,-72.883 58.8132,-132.012 131.5783,-132.569 175.2911,-164.319 418.6157,-455.845 543.3886,-726.49 -156.9358,-99.297 -342.9303,-156.817 -542.378,-156.817 -561.0484,0 -1015.876,454.814 -1015.876,1015.876 0,561.04796 454.8276,1015.875957 1015.876,1015.875957 z"
         id="path39" />
    </g>
  </g>
</svg>
