<?xml version="1.0" encoding="UTF-8" standalone="no"?>
<svg
   xmlns:dc="http://purl.org/dc/elements/1.1/"
   xmlns:cc="http://creativecommons.org/ns#"
   xmlns:rdf="http://www.w3.org/1999/02/22-rdf-syntax-ns#"
   xmlns:svg="http://www.w3.org/2000/svg"
   xmlns="http://www.w3.org/2000/svg"
   xmlns:sodipodi="http://sodipodi.sourceforge.net/DTD/sodipodi-0.dtd"
   xmlns:inkscape="http://www.inkscape.org/namespaces/inkscape"
   width="90.001877"
   height="90"
   viewBox="0 0 254.00531 253.99999"
   version="1.1"
   id="svg2"
   inkscape:version="0.48.2 r9819"
   sodipodi:docname="MUTCD W5-4a.svg">
  <metadata
     id="metadata62">
    <rdf:RDF>
      <cc:Work
         rdf:about="">
        <dc:format>image/svg+xml</dc:format>
        <dc:type
           rdf:resource="http://purl.org/dc/dcmitype/StillImage" />
        <dc:title></dc:title>
      </cc:Work>
    </rdf:RDF>
  </metadata>
  <defs
     id="defs60" />
  <sodipodi:namedview
     pagecolor="#ffffff"
     bordercolor="#666666"
     borderopacity="1"
     objecttolerance="10"
     gridtolerance="10"
     guidetolerance="10"
     inkscape:pageopacity="0"
     inkscape:pageshadow="2"
     inkscape:window-width="1280"
     inkscape:window-height="1004"
     id="namedview58"
     showgrid="false"
     fit-margin-top="0"
     fit-margin-left="0"
     fit-margin-right="0"
     fit-margin-bottom="0"
     inkscape:zoom="6.6107689"
     inkscape:cx="39.725255"
     inkscape:cy="38.63309"
     inkscape:window-x="-8"
     inkscape:window-y="-8"
     inkscape:window-maximized="1"
     inkscape:current-layer="svg2"
     showguides="true"
     inkscape:guide-bbox="true" />
  <!-- draw the bicycle -->
  <!-- RIGHT -->
  <!-- LANE -->
  <!-- ONLY -->
  <path
     d="M 3.6380175,118.18496 118.19202,3.6380059 c 4.84364,-4.85069 12.77409,-4.85069 17.62478,0 L 250.36728,118.18496 c 4.8507,4.85069 4.8507,12.78114 0,17.62477 L 135.8168,250.36727 c -4.85069,4.84364 -12.78114,4.84364 -17.62478,0 L 3.6380175,135.80973 c -4.85069,-4.84363 -4.85069,-12.77408 0,-17.62477"
     style="fill:#ffd033;fill-opacity:1;fill-rule:nonzero;stroke:none"
     id="path6593"
     inkscape:connector-curvature="0" />
  <path
     d="M 6.3932175,120.00526 120.01235,6.4002259 c 3.84528,-3.84527 10.13531,-3.84527 13.98764,0 L 247.60504,120.00526 c 3.84527,3.84881 3.84527,10.14236 0,13.98764 L 133.99999,247.60499 c -3.85233,3.84175 -10.14236,3.84175 -13.98764,0 L 6.3932175,133.9929 c -3.84528,-3.84528 -3.84528,-10.13883 0,-13.98764"
     style="fill:#000000;fill-opacity:1;fill-rule:evenodd;stroke:none"
     id="path6597"
     inkscape:connector-curvature="0" />
  <path
     d="M 9.9492175,123.50482 123.51191,9.9491759 c 1.91558,-1.92264 5.06589,-1.92264 6.985,0 L 244.05609,123.50482 c 1.92264,1.92264 1.92264,5.06236 0,6.985 L 130.49691,244.04899 c -1.91911,1.92264 -5.06942,1.92264 -6.985,0 L 9.9492175,130.48982 c -1.92264,-1.92264 -1.92264,-5.06236 0,-6.985"
     style="fill:#ffd033;fill-opacity:1;fill-rule:evenodd;stroke:none"
     id="path6601"
     inkscape:connector-curvature="0" />
  <path
     d="m 164.88216,117.02076 c -3.44664,1.80622 -6.89328,3.60892 -10.30816,5.4857 -3.93701,2.15547 -9.91659,4.46969 -12.10734,8.59719 -6.76628,12.74586 21.31131,9.38389 26.62414,9.73667 5.70442,0.37747 12.98222,2.14136 12.50597,9.28864 -0.68792,5.49627 -4.57552,10.55511 -7.16491,15.31761 -1.4217,-0.82197 -2.83986,-1.64042 -4.25803,-2.46239 0.44803,-0.06 1.49225,-2.032 1.72155,-2.37067 1.32292,-1.88736 2.58939,-3.81705 3.70064,-5.83494 1.08656,-1.96497 2.49414,-4.61081 1.54164,-6.8827 -1.35819,-2.32127 -5.0165,-2.58939 -7.39422,-2.8328 -6.63222,-0.52211 -13.30325,0.2293 -19.94606,-0.20461 -2.50825,-0.16581 -5.03766,-0.73731 -7.20725,-2.06023 -3.94052,-2.40594 -5.97252,-7.04144 -4.699,-11.51466 1.8662,-6.57931 9.41211,-9.59203 14.84842,-12.57653 -7.07672,-0.93486 -13.56078,-5.1047 -17.25083,-11.45117 l -6.50523,3.05506 c -0.0776,0.889 -0.59266,1.68628 -1.28058,2.3883 l 2.76931,5.45042 1.55575,-0.41981 0.53622,1.53106 -4.8507,1.55575 -0.44802,-1.67922 1.19944,-0.3175 -3.03036,-5.38339 c -2.30717,0.23636 -3.97581,-1.34761 -3.81706,-3.40431 L 92.541552,90.777622 92.266385,93.751539 c 6.55814,2.811639 11.560525,8.516051 13.391445,15.352891 3.29494,12.28372 -3.98639,24.99078 -16.217195,28.38097 -5.087055,2.77636 -10.308166,5.29167 -15.310556,8.21267 -3.224392,1.88736 -7.482417,4.27919 -7.351889,8.57955 0.194028,6.50875 8.385529,6.5652 13.03514,6.62517 6.621639,0.0353 13.631334,-0.86078 20.101274,0.889 12.812886,3.47486 3.450166,16.68992 -0.36688,23.71725 -1.418171,-0.81844 -2.846921,-1.64042 -4.265088,-2.45886 0.41275,-0.0282 1.524,-2.06728 1.728611,-2.37067 1.315862,-1.8803 2.585857,-3.81705 3.700633,-5.82789 1.08303,-1.97202 2.48709,-4.61786 1.54517,-6.89327 -1.35114,-2.32128 -5.023553,-2.58939 -7.401276,-2.82223 -6.628694,-0.53269 -13.299721,0.21873 -19.946056,-0.21519 -2.508249,-0.16581 -5.037667,-0.73025 -7.207249,-2.06022 -3.940528,-2.40595 -5.961945,-7.03439 -4.699,-11.51467 1.989665,-7.02733 10.569218,-10.27289 16.361834,-13.34558 -8.674806,-1.48167 -16.150168,-7.84578 -18.566696,-16.88042 -3.309055,-12.35428 4.064,-25.128362 16.418279,-28.43389 3.594805,-0.966611 7.510638,-1.075972 11.066638,-0.243417 l 1.679223,-19.476867 -2.977444,-2.92805 2.896306,-5.53508 8.748889,-2.34245 0.800807,2.48708 -7.676446,2.05317 -1.107723,2.0955 2.663473,2.7552 -0.116417,8.62894 31.421908,-8.42081 0.0811,-1.59102 c -2.61055,0.34219 -7.38011,-0.0423 -8.66069,-0.67028 -1.28764,-0.62442 -0.59972,-1.70039 0.57855,-2.05317 6.12423,-1.92969 15.2012,-4.91066 16.95098,-5.39397 1.74978,-0.47625 2.16252,0.35631 1.33703,1.95792 -0.83609,1.59102 -1.54517,3.01625 -5.8032,4.89655 l -0.33161,3.556 9.90247,7.22136 c 2.93511,-3.06564 6.87564,-5.31283 10.99609,-6.4135 12.35427,-3.30905 25.12836,4.064 28.43741,16.418283 3.01625,11.250081 -2.82575,22.842361 -13.22211,27.333221 m -25.32239,-11.67342 c 4.10634,7.10495 12.89756,10.68212 20.9797,8.51606 10.00478,-2.67758 15.9773,-13.02808 13.29972,-23.032861 -2.68111,-9.997723 -13.02456,-15.970253 -23.02933,-13.289143 -3.19617,0.85372 -6.68867,2.59645 -8.95703,4.896559 l 13.35969,10.44575 c 1.21356,-0.303389 2.55059,0.490362 2.90336,1.792112 0.34925,1.322916 -0.43391,2.688166 -1.75683,3.044472 -0.36689,0.09878 -0.77258,0.105833 -1.13947,0.04233 l -15.65981,7.584721 z m -53.992634,8.70303 c 3.316111,-4.46969 5.739695,-8.53722 6.395859,-15.550442 4.635503,2.384772 8.075085,6.709832 9.426225,11.747502 2.67758,10.00478 -3.287889,20.34822 -13.292667,23.0258 -10.004778,2.68111 -20.348223,-3.29141 -23.032862,-13.29619 -2.681111,-9.99772 3.291417,-20.348219 13.296192,-23.025807 3.189114,-0.85725 6.706309,-0.807861 9.750781,0.03881 -0.268111,6.106587 -1.227667,9.475617 -5.528031,15.352897 -1.315858,0.41275 -2.039055,1.75683 -1.69333,3.03036 0.352777,1.31586 1.714497,2.10961 3.037414,1.74978 1.322916,-0.34925 2.014364,-1.68628 1.640416,-3.0727 m 7.380112,-28.014088 0.08819,-1.626305 31.344305,-8.441971 -1.5628,27.527254 -1.06892,-2.54353 0.96308,-0.26105 -0.5715,-1.64748 -4.19453,1.13242 0.53623,1.52047 1.07597,-0.28927 1.01247,2.81869 c 0,0 -27.470805,-18.101033 -27.622499,-18.189228 m 40.953979,17.677698 c -0.17286,-0.53622 -0.48684,-1.38994 -0.65264,-2.00378 -1.66864,-6.223001 -1.27706,-12.809362 2.83633,-19.293418 l -7.51417,-5.284616 -1.60513,29.217064 6.93561,-2.63525 z m 3.98286,-2.05316 14.68261,-6.621648 -13.04925,-9.976556 c -3.84528,5.718528 -3.05858,11.137195 -1.63336,16.598204"
     style="fill:#000000;fill-opacity:1;fill-rule:evenodd;stroke:none"
     id="path6605"
     inkscape:connector-curvature="0" />
</svg>
