<?xml version="1.0" encoding="UTF-8" standalone="no"?>
<!-- Generator: Adobe Illustrator 12.0.1, SVG Export Plug-In  -->

<svg
   xmlns:dc="http://purl.org/dc/elements/1.1/"
   xmlns:cc="http://creativecommons.org/ns#"
   xmlns:rdf="http://www.w3.org/1999/02/22-rdf-syntax-ns#"
   xmlns:svg="http://www.w3.org/2000/svg"
   xmlns="http://www.w3.org/2000/svg"
   xmlns:sodipodi="http://sodipodi.sourceforge.net/DTD/sodipodi-0.dtd"
   xmlns:inkscape="http://www.inkscape.org/namespaces/inkscape"
   version="1.1"
   width="286.35751"
   height="286.38239"
   viewBox="0 0 286.35751 286.38239"
   enable-background="new 0 0 289 288"
   xml:space="preserve"
   id="svg2"
   inkscape:version="0.48.2 r9819"
   sodipodi:docname="AJAX1.svg"><metadata
   id="metadata62"><rdf:RDF><cc:Work
       rdf:about=""><dc:format>image/svg+xml</dc:format><dc:type
         rdf:resource="http://purl.org/dc/dcmitype/StillImage" /></cc:Work></rdf:RDF></metadata><sodipodi:namedview
   pagecolor="#ffffff"
   bordercolor="#666666"
   borderopacity="1"
   objecttolerance="10"
   gridtolerance="10"
   guidetolerance="10"
   inkscape:pageopacity="0"
   inkscape:pageshadow="2"
   inkscape:window-width="1280"
   inkscape:window-height="1004"
   id="namedview60"
   showgrid="false"
   fit-margin-top="0"
   fit-margin-left="0"
   fit-margin-right="0"
   fit-margin-bottom="0"
   inkscape:zoom="1.6388889"
   inkscape:cx="120.30388"
   inkscape:cy="99.75723"
   inkscape:window-x="-8"
   inkscape:window-y="-8"
   inkscape:window-maximized="1"
   inkscape:current-layer="svg2" />
<defs
   id="defs4">
</defs>
<path
   d="M 135.50425,283.24775 3.1672459,150.88875 c -4.223,-4.231 -4.223,-11.124 0,-15.352 L 135.50425,3.1737502 c 4.219,-4.231 11.115,-4.231 15.343,-0.004 l 132.331,132.3679998 c 4.236,4.24 4.236,11.12 0.018,15.352 l -132.349,132.358 c -4.18,4.175 -11.167,4.184 -15.343,0"
   id="path6"
   style="fill:#ffd033;stroke:none;fill-opacity:1"
   inkscape:connector-curvature="0" />

<path
   clip-rule="evenodd"
   d="M 137.60125,281.09975 5.3282459,148.78375 c -3.043,-3.051 -3.039,-8.081 0,-11.141 L 137.60125,5.3347502 c 3.056,-3.042 8.088,-3.042 11.133,0 l 132.283,132.3199998 c 3.056,3.051 3.056,8.077 0,11.128 l -132.283,132.317 c -3.045,3.029 -8.077,3.047 -11.133,0"
   id="path10"
   inkscape:connector-curvature="0"
   style="fill:#000000;fill-rule:evenodd;stroke:none" />
<path
   clip-rule="evenodd"
   d="M 140.56125,278.08275 8.3492459,145.83675 c -1.467,-1.42 -1.467,-3.829 0,-5.252 L 140.55225,8.3557502 c 1.411,-1.472 3.828,-1.472 5.241,0 l 132.212,132.2289998 c 1.449,1.423 1.449,3.846 0,5.26 l -132.212,132.238 c -1.413,1.458 -3.824,1.458 -5.232,0"
   id="path12"
   inkscape:connector-curvature="0"
   style="fill:#ffd033;fill-rule:evenodd;stroke:none;fill-opacity:1" />
<path
   d="m 104.64125,116.12575 h -9.092004 v -30.923 h 9.738004 c 4.153,0 7.062,3.276 7.062,8.03 0,2.815 -0.738,4.108 -3.23,6.739 2.354,1.938 3.784,4.522 3.784,7.708 0,4.661 -3.693,8.446 -8.262,8.446 z m 0,-26.586 h -4.661004 v 8.262 h 4.661004 c 2.077,0 3.369,-1.754 3.369,-4.569 0,-2.584 -0.969,-3.693 -3.369,-3.693 z m -0.185,12.601 h -4.477004 v 9.646 h 4.477004 c 2.492,0 4.107,-1.754 4.107,-4.431 0.001,-2.953 -1.845,-5.215 -4.107,-5.215 z"
   id="path14"
   inkscape:connector-curvature="0"
   style="fill:#000000;stroke:none" />
<path
   d="m 118.11725,116.12575 v -30.923 h 4.431 v 26.815 h 11.308 v 4.108 h -15.739 z"
   id="path16"
   inkscape:connector-curvature="0"
   style="fill:#000000;stroke:none" />
<path
   d="m 138.19425,116.12575 v -30.923 h 4.338 v 30.924 h -4.338 z"
   id="path18"
   inkscape:connector-curvature="0"
   style="fill:#000000;stroke:none" />
<path
   d="m 163.34825,116.12575 -9.555,-20.724 v 20.724 h -4.43 v -30.923 h 4.43 l 8.492,18.554 v -18.554 h 4.432 v 30.924 h -3.369 z"
   id="path20"
   inkscape:connector-curvature="0"
   style="fill:#000000;stroke:none" />
<path
   d="m 186.37725,114.69575 c -1.109,1.015 -2.631,1.431 -4.34,1.431 h -8.584 v -30.924 h 7.893 c 2.631,0 3.922,0.323 5.031,1.2 1.846,1.292 3.137,3.692 3.691,6.83 0.416,2.262 0.738,4.985 0.738,7.385 0.001,7.154 -1.429,11.723 -4.429,14.078 z m -0.785,-22.017 c -0.738,-2.169 -2.031,-3.139 -4.016,-3.139 h -3.691 v 22.247 h 3.691 c 2.631,0 4.016,-2.077 4.477,-4.431 0.186,-1.984 0.416,-4.154 0.416,-6.508 0,-3.507 -0.324,-6.876 -0.877,-8.169 z"
   id="path22"
   inkscape:connector-curvature="0"
   style="fill:#000000;stroke:none" />
<path
   d="m 74.181246,175.95175 c -0.462,-3.046 -1.662,-4.477 -3.692,-4.477 -3.6,0 -4.893,2.815 -4.893,10.847 0,8.907 1.523,12.508 5.308,12.508 2.585,0 3.277,-2.17 3.277,-4.478 h 4.431 c -0.093,5.123 -3.369,8.815 -7.708,8.815 -6.6,0 -9.553,-5.308 -9.553,-16.708 0,-10.015 3.138,-15.323 9.23,-15.323 2.492,0 4.661,1.108 6.092,3.139 1.153,1.523 1.615,2.862 1.938,5.677 h -4.43 z"
   id="path24"
   inkscape:connector-curvature="0"
   style="fill:#000000;stroke:none" />
<path
   d="m 97.579246,198.61375 -4.107,-14.538 h -4.246 v 14.538 h -4.431 v -30.923 h 9.23 c 4.846,0 8.123004,3.276 8.123004,8.261 0,3.692 -1.523,6.37 -4.431004,7.478 l 4.431004,15.185 h -4.569004 z m -3.784,-26.585 h -4.569 v 7.8 h 4.569 c 2.584,0 4.015,-1.384 4.015,-3.877 0,-2.4 -1.615,-3.923 -4.015,-3.923 z"
   id="path26"
   inkscape:connector-curvature="0"
   style="fill:#000000;stroke:none" />
<path
   d="m 123.19425,193.85975 c -1.522,3.646 -3.784,5.308 -7.245,5.308 -3.692,0 -5.861,-1.661 -7.385,-5.308 -1.292,-3.046 -1.754,-6 -1.754,-10.754 0,-4.661 0.462,-7.8 1.754,-10.754 1.615,-3.692 3.784,-5.216 7.385,-5.216 3.554,0 5.723,1.523 7.245,5.309 1.293,3.046 1.754,6 1.754,10.661 0,4.754 -0.461,7.8 -1.754,10.754 z m -3.461,-18.462 c -0.785,-2.723 -1.938,-3.923 -3.784,-3.923 -1.985,0 -3.185,1.2 -3.924,3.831 -0.738,2.354 -0.969,4.431 -0.969,7.893 0,3.369 0.323,5.308 0.969,7.8 0.739,2.631 1.938,3.831 3.924,3.831 1.846,0 2.999,-1.2 3.784,-3.831 0.738,-2.492 0.969,-4.339 0.969,-7.893 -0.001,-3.462 -0.324,-5.446 -0.969,-7.708 z"
   id="path28"
   inkscape:connector-curvature="0"
   style="fill:#000000;stroke:none" />
<path
   d="m 138.28525,199.16675 c -5.445,0 -8.676,-4.569 -8.676,-9.646 h 4.338 c 0,2.585 1.292,5.309 4.338,5.309 2.399,0 4.339,-2.17 4.339,-4.662 0,-1.754 -0.646,-3.046 -2.492,-4.477 -0.646,-0.646 1.107,0.554 -5.215,-3.692 -2.493,-1.708 -3.785,-4.108 -3.785,-6.831 0,-4.431 3.462,-8.031 7.893,-8.031 4.385,0 7.707,3.37 7.846,8.031 h -4.246 c -0.092,-2.169 -1.615,-3.554 -3.6,-3.554 -2.031,0 -3.646,1.523 -3.646,3.554 0,1.523 0.646,2.4 2.907,3.692 5.954,3.462 8.585,6.831 8.585,11.308 -0.001,4.984 -3.833,8.999 -8.586,8.999 z"
   id="path30"
   inkscape:connector-curvature="0"
   style="fill:#000000;stroke:none" />
<path
   d="m 159.23825,199.16675 c -5.445,0 -8.676,-4.569 -8.676,-9.646 h 4.338 c 0,2.585 1.293,5.309 4.338,5.309 2.4,0 4.34,-2.17 4.34,-4.662 0,-1.754 -0.646,-3.046 -2.492,-4.477 -0.646,-0.646 1.107,0.554 -5.217,-3.692 -2.492,-1.708 -3.783,-4.108 -3.783,-6.831 0,-4.431 3.461,-8.031 7.891,-8.031 4.385,0 7.709,3.37 7.848,8.031 h -4.246 c -0.094,-2.169 -1.615,-3.554 -3.602,-3.554 -2.029,0 -3.645,1.523 -3.645,3.554 0,1.523 0.645,2.4 2.906,3.692 5.955,3.462 8.586,6.831 8.586,11.308 0,4.984 -3.833,8.999 -8.586,8.999 z"
   id="path32"
   inkscape:connector-curvature="0"
   style="fill:#000000;stroke:none" />
<path
   d="m 173.03825,198.61375 v -30.923 h 4.338 v 30.923 h -4.338 z"
   id="path34"
   inkscape:connector-curvature="0"
   style="fill:#000000;stroke:none" />
<path
   d="m 198.19125,198.61375 -9.553,-20.724 v 20.724 h -4.432 v -30.923 h 4.432 l 8.492,18.554 v -18.554 h 4.43 v 30.923 h -3.369 z"
   id="path36"
   inkscape:connector-curvature="0"
   style="fill:#000000;stroke:none" />
<path
   d="m 224.12825,194.82975 c -1.201,2.677 -3.693,4.338 -6.83,4.338 -3.693,0 -6.416,-1.846 -7.939,-5.308 -0.969,-2.308 -1.615,-6.646 -1.615,-10.661 0,-4.339 0.324,-7.478 1.432,-10.432 1.061,-3.23 4.199,-5.631 7.799,-5.631 4.432,0 7.801,3.277 8.031,7.847 h -4.432 c -0.139,-2.077 -1.523,-3.508 -3.691,-3.508 -1.523,0 -2.723,0.785 -3.508,2.308 -0.83,1.523 -1.385,4.984 -1.385,8.677 0,2.585 0.23,5.308 0.646,7.708 0.646,3 2.17,4.662 4.568,4.662 2.262,0 3.369,-1.523 3.369,-4.801 v -2.03 h -3.508 v -4.339 h 7.939 v 6.369 c 10e-4,2.17 -0.229,3.508 -0.876,4.801 z"
   id="path38"
   inkscape:connector-curvature="0"
   style="fill:#000000;stroke:none" />
<path
   d="m 53.321246,143.81375 h -4.8 v 13.569 h -4.431 v -30.924 h 9.23 c 4.846,0 8.123,3.462 8.123,8.678 10e-4,5.631 -2.907,8.677 -8.122,8.677 z m -0.231,-13.016 h -4.569 v 8.77 h 4.569 c 2.584,0 4.015,-1.615 4.015,-4.431 0,-2.585 -1.615,-4.339 -4.015,-4.339 z"
   id="path40"
   inkscape:connector-curvature="0"
   style="fill:#000000;stroke:none" />
<path
   d="m 65.689246,157.38275 v -30.924 h 14.538 v 4.339 h -10.108 v 7.8 h 6.415 v 4.246 h -6.415 v 10.201 h 11.308 v 4.338 h -15.738 z"
   id="path42"
   inkscape:connector-curvature="0"
   style="fill:#000000;stroke:none" />
<path
   d="m 99.565246,155.95275 c -1.107,1.016 -2.631,1.431 -4.338,1.431 h -8.585 v -30.924 h 7.893 c 2.63,0 3.923,0.323 5.03,1.2 1.846004,1.293 3.139004,3.692 3.692004,6.831 0.415,2.262 0.738,4.984 0.738,7.385 0,7.154 -1.43,11.723 -4.430004,14.077 z m -0.784,-22.016 c -0.739,-2.17 -2.031,-3.139 -4.016,-3.139 h -3.692 v 22.247 h 3.692 c 2.631,0 4.016,-2.077 4.477,-4.431 0.185,-1.985 0.415,-4.155 0.415,-6.509 0,-3.507 -0.323,-6.876 -0.876,-8.168 z"
   id="path44"
   inkscape:connector-curvature="0"
   style="fill:#000000;stroke:none" />
<path
   d="m 110.08825,157.38275 v -30.924 h 14.537 v 4.339 h -10.107 v 7.8 h 6.416 v 4.246 h -6.416 v 10.201 h 11.309 v 4.338 h -15.739 z"
   id="path46"
   inkscape:connector-curvature="0"
   style="fill:#000000;stroke:none" />
<path
   d="m 138.19425,157.93675 c -5.445,0 -8.676,-4.569 -8.676,-9.646 h 4.338 c 0,2.584 1.293,5.308 4.338,5.308 2.4,0 4.34,-2.17 4.34,-4.662 0,-1.754 -0.646,-3.046 -2.492,-4.478 -0.646,-0.646 1.107,0.555 -5.217,-3.691 -2.492,-1.708 -3.783,-4.108 -3.783,-6.831 0,-4.431 3.461,-8.031 7.891,-8.031 4.385,0 7.709,3.369 7.848,8.031 h -4.246 c -0.094,-2.17 -1.615,-3.554 -3.602,-3.554 -2.029,0 -3.645,1.522 -3.645,3.554 0,1.522 0.645,2.399 2.906,3.692 5.955,3.461 8.586,6.83 8.586,11.308 0,4.985 -3.832,9 -8.586,9 z"
   id="path48"
   inkscape:connector-curvature="0"
   style="fill:#000000;stroke:none" />
<path
   d="m 159.70125,130.56775 v 26.815 h -4.477 v -26.815 h -5.631 v -4.108 h 15.738 v 4.108 h -5.63 z"
   id="path50"
   inkscape:connector-curvature="0"
   style="fill:#000000;stroke:none" />
<path
   d="m 182.36225,157.38275 -4.107,-14.539 h -4.246 v 14.539 h -4.43 v -30.924 h 9.23 c 4.846,0 8.123,3.277 8.123,8.262 0,3.692 -1.523,6.369 -4.432,7.478 l 4.432,15.185 h -4.57 z m -3.784,-26.585 h -4.57 v 7.8 h 4.57 c 2.584,0 4.014,-1.385 4.014,-3.877 0,-2.399 -1.615,-3.923 -4.014,-3.923 z"
   id="path52"
   inkscape:connector-curvature="0"
   style="fill:#000000;stroke:none" />
<path
   d="m 192.14725,157.38275 v -30.924 h 4.338 v 30.924 h -4.338 z"
   id="path54"
   inkscape:connector-curvature="0"
   style="fill:#000000;stroke:none" />
<path
   d="m 216.23725,157.38275 -2.17,-8.446 h -6.645 l -2.031,8.446 h -4.477 l 7.707,-30.924 h 4.338 l 7.709,30.924 h -4.431 z m -5.538,-21.692 -2.17,8.907 h 4.43 l -2.26,-8.907 z"
   id="path56"
   inkscape:connector-curvature="0"
   style="fill:#000000;stroke:none" />
<path
   d="m 238.89725,157.38275 -9.553,-20.724 v 20.724 h -4.432 v -30.924 h 4.432 l 8.492,18.555 v -18.555 h 4.43 v 30.924 h -3.369 z"
   id="path58"
   inkscape:connector-curvature="0"
   style="fill:#000000;stroke:none" />
</svg>