<?xml version="1.0" encoding="UTF-8" standalone="no"?>
<!-- Generator: Adobe Illustrator 12.0.1, SVG Export Plug-In  -->

<svg
   xmlns:dc="http://purl.org/dc/elements/1.1/"
   xmlns:cc="http://creativecommons.org/ns#"
   xmlns:rdf="http://www.w3.org/1999/02/22-rdf-syntax-ns#"
   xmlns:svg="http://www.w3.org/2000/svg"
   xmlns="http://www.w3.org/2000/svg"
   xmlns:sodipodi="http://sodipodi.sourceforge.net/DTD/sodipodi-0.dtd"
   xmlns:inkscape="http://www.inkscape.org/namespaces/inkscape"
   version="1.1"
   width="286.35651"
   height="286.38312"
   viewBox="0 0 286.35651 286.38312"
   enable-background="new 0 0 288 288"
   xml:space="preserve"
   id="svg2"
   inkscape:version="0.48.2 r9819"
   sodipodi:docname="AJAX1.svg"><metadata
   id="metadata36"><rdf:RDF><cc:Work
       rdf:about=""><dc:format>image/svg+xml</dc:format><dc:type
         rdf:resource="http://purl.org/dc/dcmitype/StillImage" /></cc:Work></rdf:RDF></metadata><sodipodi:namedview
   pagecolor="#ffffff"
   bordercolor="#666666"
   borderopacity="1"
   objecttolerance="10"
   gridtolerance="10"
   guidetolerance="10"
   inkscape:pageopacity="0"
   inkscape:pageshadow="2"
   inkscape:window-width="1280"
   inkscape:window-height="1004"
   id="namedview34"
   showgrid="false"
   fit-margin-top="0"
   fit-margin-left="0"
   fit-margin-right="0"
   fit-margin-bottom="0"
   inkscape:zoom="2.3177389"
   inkscape:cx="125.57485"
   inkscape:cy="94.787962"
   inkscape:window-x="-8"
   inkscape:window-y="-8"
   inkscape:window-maximized="1"
   inkscape:current-layer="svg2" />
<defs
   id="defs4">
</defs>
<path
   d="M 135.50425,283.2485 3.17025,150.8895 c -4.227,-4.231 -4.227,-11.124 0,-15.352 L 135.50425,3.1744995 c 4.219,-4.232 11.115,-4.232 15.348,-0.004 L 283.17725,135.5385 c 4.236,4.24 4.236,11.12 0.018,15.352 l -132.343,132.358 c -4.185,4.175 -11.173,4.184 -15.348,0"
   id="path6"
   style="fill:#ffd033;stroke:none;fill-opacity:1"
   inkscape:connector-curvature="0" />

<path
   clip-rule="evenodd"
   d="m 137.60125,281.1005 -132.27,-132.316 c -3.047,-3.051 -3.038,-8.081 0,-11.141 l 132.27,-132.3080005 c 3.055,-3.042 8.086,-3.042 11.137,0 L 281.01625,137.6555 c 3.056,3.051 3.056,8.078 0,11.128 l -132.278,132.317 c -3.051,3.029 -8.082,3.047 -11.137,0"
   id="path10"
   inkscape:connector-curvature="0"
   style="fill:#000000;fill-rule:evenodd;stroke:none" />
<path
   clip-rule="evenodd"
   d="M 140.56125,278.0835 8.35225,145.8375 c -1.467,-1.42 -1.467,-3.829 0,-5.252 l 132.2,-132.2290005 c 1.411,-1.472 3.828,-1.472 5.238,0 L 278.00325,140.5855 c 1.45,1.423 1.45,3.846 0,5.261 l -132.213,132.237 c -1.41,1.458 -3.819,1.458 -5.229,0"
   id="path12"
   style="fill:#ffd033;fill-rule:evenodd;stroke:none;fill-opacity:1"
   inkscape:connector-curvature="0" />
<path
   d="m 99.06725,161.6935 c -0.578,-3.813 -2.08,-5.604 -4.622,-5.604 -4.507,0 -6.124,3.524 -6.124,13.578 0,11.151 1.906,15.657 6.644,15.657 3.235,0 4.103,-2.715 4.103,-5.604 h 5.546 c -0.115,6.414 -4.218,11.036 -9.648,11.036 -8.262,0 -11.959,-6.645 -11.959,-20.916 0,-12.538 3.929,-19.183 11.555,-19.183 3.12,0 5.835,1.387 7.626,3.93 1.444,1.906 2.022,3.582 2.427,7.106 h -5.548 z"
   id="path14"
   inkscape:connector-curvature="0"
   style="fill:#000000;stroke:none" />
<path
   d="m 128.53125,190.0625 v -17.507 h -10.631 v 17.507 h -5.546 v -38.712 h 5.546 v 15.773 h 10.631 v -15.773 h 5.547 v 38.712 h -5.547 z"
   id="path16"
   inkscape:connector-curvature="0"
   style="fill:#000000;stroke:none" />
<path
   d="m 142.51325,190.0625 v -38.712 h 5.431 v 38.712 h -5.431 z"
   id="path18"
   inkscape:connector-curvature="0"
   style="fill:#000000;stroke:none" />
<path
   d="m 156.49325,190.0625 v -38.712 h 5.546 v 33.569 h 14.155 v 5.143 h -19.701 z"
   id="path20"
   inkscape:connector-curvature="0"
   style="fill:#000000;stroke:none" />
<path
   d="m 197.80225,188.2715 c -1.387,1.271 -3.293,1.791 -5.431,1.791 h -10.746 v -38.712 h 9.88 c 3.293,0 4.91,0.405 6.297,1.503 2.312,1.617 3.929,4.622 4.622,8.551 0.521,2.831 0.925,6.24 0.925,9.245 0,8.955 -1.791,14.675 -5.547,17.622 z m -0.982,-27.561 c -0.924,-2.716 -2.542,-3.929 -5.026,-3.929 h -4.622 v 27.849 h 4.622 c 3.294,0 5.026,-2.6 5.604,-5.546 0.231,-2.484 0.521,-5.2 0.521,-8.147 -0.001,-4.391 -0.406,-8.608 -1.099,-10.227 z"
   id="path22"
   inkscape:connector-curvature="0"
   style="fill:#000000;stroke:none" />
<path
   d="m 94.93525,134.4795 h -11.382 V 95.768499 h 12.19 c 5.2,0 8.84,4.102 8.84,10.053001 0,3.524 -0.925,5.143 -4.044,8.436 2.946,2.427 4.737,5.663 4.737,9.649 10e-4,5.835 -4.621,10.573 -10.341,10.573 z m 0,-33.28 h -5.835 v 10.342 h 5.835 c 2.6,0 4.218,-2.196 4.218,-5.72 0,-3.236 -1.214,-4.622 -4.218,-4.622 z m -0.232,15.773 h -5.604 v 12.076 h 5.604 c 3.12,0 5.143,-2.196 5.143,-5.547 0,-3.698 -2.312,-6.529 -5.143,-6.529 z"
   id="path24"
   inkscape:connector-curvature="0"
   style="fill:#000000;stroke:none" />
<path
   d="M 111.80625,134.4795 V 95.768499 h 5.546 V 129.3375 h 14.155 v 5.142 h -19.701 z"
   id="path26"
   inkscape:connector-curvature="0"
   style="fill:#000000;stroke:none" />
<path
   d="M 136.93825,134.4795 V 95.768499 h 5.432 V 134.4795 h -5.432 z"
   id="path28"
   inkscape:connector-curvature="0"
   style="fill:#000000;stroke:none" />
<path
   d="m 168.42525,134.4795 -11.96,-25.942 v 25.942 h -5.546 V 95.768499 h 5.546 l 10.631,23.227001 V 95.768499 h 5.547 V 134.4795 h -4.218 z"
   id="path30"
   inkscape:connector-curvature="0"
   style="fill:#000000;stroke:none" />
<path
   d="m 197.25425,132.6885 c -1.387,1.271 -3.293,1.791 -5.431,1.791 h -10.746 V 95.768499 h 9.88 c 3.293,0 4.91,0.404 6.297,1.502 2.312,1.618 3.929,4.623001 4.622,8.551001 0.521,2.831 0.925,6.24 0.925,9.245 0,8.955 -1.791,14.675 -5.547,17.622 z m -0.982,-27.561 c -0.924,-2.715 -2.542,-3.929 -5.026,-3.929 h -4.622 v 27.849 h 4.622 c 3.294,0 5.026,-2.6 5.604,-5.547 0.231,-2.484 0.521,-5.2 0.521,-8.146 -0.001,-4.391 -0.406,-8.608 -1.099,-10.227 z"
   id="path32"
   inkscape:connector-curvature="0"
   style="fill:#000000;stroke:none" />
</svg>