<?xml version="1.0" encoding="UTF-8" standalone="no"?>
<!-- Generator: Adobe Illustrator 12.0.1, SVG Export Plug-In  -->

<svg
   xmlns:dc="http://purl.org/dc/elements/1.1/"
   xmlns:cc="http://creativecommons.org/ns#"
   xmlns:rdf="http://www.w3.org/1999/02/22-rdf-syntax-ns#"
   xmlns:svg="http://www.w3.org/2000/svg"
   xmlns="http://www.w3.org/2000/svg"
   xmlns:sodipodi="http://sodipodi.sourceforge.net/DTD/sodipodi-0.dtd"
   xmlns:inkscape="http://www.inkscape.org/namespaces/inkscape"
   version="1.1"
   width="194.5625"
   height="287.8125"
   viewBox="-0.629 0 194.5625 287.8125"
   enable-background="new -0.629 0 196 288"
   xml:space="preserve"
   id="svg2"
   inkscape:version="0.48.2 r9819"
   sodipodi:docname="AJAX1.svg"><metadata
   id="metadata38"><rdf:RDF><cc:Work
       rdf:about=""><dc:format>image/svg+xml</dc:format><dc:type
         rdf:resource="http://purl.org/dc/dcmitype/StillImage" /></cc:Work></rdf:RDF></metadata><sodipodi:namedview
   pagecolor="#ffffff"
   bordercolor="#666666"
   borderopacity="1"
   objecttolerance="10"
   gridtolerance="10"
   guidetolerance="10"
   inkscape:pageopacity="0"
   inkscape:pageshadow="2"
   inkscape:window-width="1280"
   inkscape:window-height="1004"
   id="namedview36"
   showgrid="false"
   fit-margin-top="0"
   fit-margin-left="0"
   fit-margin-right="0"
   fit-margin-bottom="0"
   inkscape:zoom="2.3177389"
   inkscape:cx="48.484998"
   inkscape:cy="166.44622"
   inkscape:window-x="-8"
   inkscape:window-y="-8"
   inkscape:window-maximized="1"
   inkscape:current-layer="svg2" />
<defs
   id="defs4">
</defs>
<path
   clip-rule="evenodd"
   d="m 20.2345,287.06525 h 152.845 c 11.104,0 20.117,-8.988 20.117,-20.104 v -246.104 c 0,-11.103 -9.014,-20.113 -20.117,-20.113 H 20.2345 c -11.113,0 -20.104,9.01 -20.104,20.113 v 246.104 c 0,11.097 9.007,20.104 20.104,20.104 z"
   id="path6"
   style="fill:#ffffff;fill-rule:evenodd;stroke:#000000;stroke-width:1.5;stroke-miterlimit:4;stroke-opacity:1;stroke-dasharray:none"
   inkscape:connector-curvature="0" />
<path
   clip-rule="evenodd"
   d="m 20.3065,282.87925 h 152.705 c 8.881,0 16.074,-7.193 16.074,-16.075 v -246.138 c 0,-8.881 -7.193,-16.078 -16.074,-16.078 H 20.3065 c -8.881,0 -16.071,7.196 -16.071,16.078 v 246.137 c 0,8.87 7.196,16.076 16.071,16.076"
   id="path8"
   inkscape:connector-curvature="0"
   style="fill:#000000;fill-rule:evenodd;stroke:none" />
<path
   clip-rule="evenodd"
   d="m 20.3165,276.86625 h 152.678 c 5.559,0 10.05,-4.488 10.05,-10.03 v -246.157 c 0,-5.549 -4.491,-10.043 -10.05,-10.043 H 20.3165 c -5.54,0 -10.03,4.495 -10.03,10.043 v 246.157 c 0,5.548 4.485,10.03 10.03,10.03"
   id="path10"
   inkscape:connector-curvature="0"
   style="fill:#ffffff;fill-rule:evenodd;stroke:none" />
<path
   clip-rule="evenodd"
   d="m 166.2915,93.50525 c 0,4.422 -1.581,7.372 -4.984,9.189 -1.361,0.79 -2.943,1.246 -4.65,1.246 h -4.538 v -20.754 h 4.538 c 1.707,0 3.402,0.452 4.877,1.246 3.176,1.817 4.757,4.761 4.757,9.073 m 5.794,0 c 0,-6.352 -2.725,-11.229 -7.715,-14.063 -2.385,-1.365 -4.996,-2.043 -7.714,-2.043 h -10.432 v 32.325 h 10.432 c 2.605,0 5.329,-0.677 7.595,-1.93 5.109,-2.838 7.834,-7.821 7.834,-14.289 z m -32.332,16.218 v -5.784 h -18.26 v -8.847 h 9.648 v -5.9 h -9.648 v -6.006 h 17.695 v -5.788 h -23.582 v 32.325 h 24.147 z m -30.611,0 v -5.784 h -18.266 v -8.847 h 9.641 v -5.9 h -9.641 v -6.006 h 17.694 v -5.788 h -23.588 v 32.325 h 24.16 z m -35.27,-22.454 c 0,2.378 -1.933,3.967 -4.769,3.967 h -9.411 v -8.05 h 9.412 c 2.835,0 4.768,1.585 4.768,4.083 z m 5.781,0 c 0,-3.631 -1.927,-6.81 -4.99,-8.512 -1.814,-1.017 -3.289,-1.359 -5.786,-1.359 h -15.083 v 32.325 h 5.898 v -12.7 h 9.186 c 2.497,0 3.972,-0.229 5.786,-1.249 3.063,-1.699 4.989,-5.106 4.989,-8.505 z m -32.327,13.039 c 0,-3.515 -1.814,-6.578 -4.651,-8.053 -1.811,-0.907 -4.645,-1.811 -8.954,-2.721 -3.973,-0.907 -5.105,-1.705 -5.105,-3.515 0,-2.043 1.92,-3.292 5.219,-3.292 3.063,0 5.668,1.023 7.711,3.179 l 4.309,-3.857 c -3.289,-3.405 -7.262,-4.987 -12.02,-4.987 -6.584,0 -11.116,3.628 -11.116,8.957 0,2.043 0.681,3.97 2.04,5.442 1.365,1.591 3.063,2.382 6.349,3.179 l 1.594,0.453 1.468,0.338 1.479,0.452 c 1.466,0.339 2.718,0.797 3.854,1.253 1.362,0.681 2.043,1.697 2.043,2.95 0,2.378 -2.953,4.195 -7.033,4.195 -3.631,0 -6.239,-1.249 -8.618,-4.086 l -4.651,3.631 c 3.628,4.196 7.824,6.255 13.382,6.255 2.946,0 5.9,-0.81 8.172,-2.175 3.057,-1.813 4.528,-4.302 4.528,-7.598 z"
   id="path12"
   inkscape:connector-curvature="0"
   style="fill:#000000;fill-rule:evenodd;stroke:none" />
<path
   clip-rule="evenodd"
   d="m 155.5265,131.33125 v -5.668 h -24.278 v 5.668 h 9.303 v 26.653 h 5.674 v -26.653 h 9.301 m -35.394,26.653 h 5.794 v -32.321 h -5.794 v 32.321 z m -8.379,0 v -32.321 h -5.675 l -9.522,19.163 -9.415,-19.163 h -5.668 v 32.321 h 5.668 v -19.736 l 9.415,19.736 9.522,-19.736 v 19.736 h 5.675 z m -44.348,0 h 5.789 v -32.321 h -5.789 v 32.321 z m -5.445,0 v -4.99 h -18.375 v -27.331 h -5.784 v 32.321 h 24.159 z"
   id="path14"
   inkscape:connector-curvature="0"
   style="fill:#000000;fill-rule:evenodd;stroke:none" />
<path
   d="M 173.0795,1.58125 H 20.2345 c -10.626,0 -19.267,8.646 -19.267,19.276 v 246.104 c 0,10.627 8.64,19.27 19.267,19.27 h 152.845 c 10.633,0 19.282,-8.643 19.282,-19.27 v -246.104 c 0,-10.629 -8.649,-19.276 -19.282,-19.276 z"
   id="path16"
   inkscape:connector-curvature="0"
   style="fill:none" />

<path
   d="m 35.4185,59.80525 c -1.155,0.433 -3.085,0.772 -4.529,0.772 h -12.246 v -32.3 h 12.246 c 5.109,0 8.964,3.521 8.964,8.147 0,3.182 -1.494,5.545 -4.529,7.281 3.374,1.59 5.301,4.29 5.301,7.808 0,3.518 -2.169,7.039 -5.207,8.292 z m -4.193,-26.416 h -7.473 v 7.905 h 6.123 c 1.447,0 2.122,-0.195 3.038,-0.869 1.155,-0.917 1.83,-2.266 1.83,-3.76 0,-2.168 -1.252,-3.276 -3.518,-3.276 z m 1.108,13.35 c -0.675,-0.238 -1.01,-0.238 -2.121,-0.238 h -6.46 v 8.869 h 7.714 c 2.602,0 3.952,-1.256 3.952,-3.76 0,-2.121 -1.252,-4.195 -3.085,-4.871 z"
   id="path20"
   inkscape:connector-curvature="0"
   style="fill:#000000;stroke:none" />
<path
   d="m 64.6805,60.57725 -5.207,-14.076 h -6.123 v 14.076 h -5.109 v -32.3 h 10.655 c 2.504,0 4.192,0.242 5.784,1.014 2.844,1.349 4.868,4.774 4.868,8.05 0,3.424 -2.024,6.798 -5.012,8.147 l 5.687,15.089 h -5.543 z m -2.266,-26.61 c -0.869,-0.483 -1.252,-0.577 -2.941,-0.577 h -6.123 v 7.905 h 6.123 c 1.591,0 2.122,-0.097 2.941,-0.53 1.252,-0.725 2.024,-2.075 2.024,-3.424 0,-1.35 -0.772,-2.7 -2.024,-3.374 z"
   id="path22"
   inkscape:connector-curvature="0"
   style="fill:#000000;stroke:none" />
<path
   d="m 77.8395,60.57725 v -32.3 h 5.204 v 32.3 h -5.204 z"
   id="path24"
   inkscape:connector-curvature="0"
   style="fill:#000000;stroke:none" />
<path
   d="m 109.2205,58.74425 c -1.205,1.158 -2.94,1.736 -4.629,1.833 -0.336,0 -1.011,0 -1.83,0 h -9.835 v -32.3 h 10.413 c 3.28,0 4.532,0.339 6.268,1.688 3.374,2.94 5.304,8.05 5.304,14.415 -0.002,6.459 -2.028,11.568 -5.691,14.364 z m -2.122,-24.005 c -0.818,-0.772 -1.927,-1.349 -3.278,-1.349 h -5.785 v 21.981 h 5.112 c 1.688,0 2.699,-0.339 3.615,-1.256 1.927,-1.927 2.938,-5.445 2.938,-9.735 0,-4.341 -1.012,-7.956 -2.602,-9.641 z"
   id="path26"
   inkscape:connector-curvature="0"
   style="fill:#000000;stroke:none" />
<path
   d="m 135.2035,61.15525 c -4.871,0 -7.715,-1.833 -9.642,-5.881 -1.351,-2.843 -2.122,-6.845 -2.122,-10.8 0,-5.203 1.447,-10.315 3.615,-13.159 1.928,-2.36 4.63,-3.616 8.292,-3.616 4.965,0 7.908,2.074 10.073,7.134 l -4.866,1.93 c -1.35,-2.796 -2.747,-3.857 -5.207,-3.857 -2.602,0 -4.338,1.159 -5.448,4.002 -0.816,1.927 -1.252,4.867 -1.252,7.566 0,3.424 0.58,6.798 1.591,8.873 1.011,1.783 2.508,2.602 4.435,2.602 3.279,0 5.64,-2.072 5.64,-5.012 v -1.35 h -5.882 v -5.113 h 10.99 v 6.462 c 0,5.881 -4.286,10.219 -10.217,10.219 z"
   id="path28"
   inkscape:connector-curvature="0"
   style="fill:#000000;stroke:none" />
<path
   d="m 154.6295,60.57725 v -32.3 h 19.044 v 5.113 h -13.935 v 7.905 h 9.402 v 5.207 h -9.402 v 8.869 h 14.944 v 5.207 h -20.053 z"
   id="path30"
   inkscape:connector-curvature="0"
   style="fill:#000000;stroke:none" />
<path
   d="m 49.7845,257.87425 v -60.377 h -10.244 l -0.241,-11.569 c 6.266,-1.446 9.641,-3.736 12.775,-8.798 h 11.569 v 80.744 h -13.859 z"
   id="path32"
   inkscape:connector-curvature="0"
   style="fill:#000000;stroke:none" />
<path
   d="m 120.0425,259.32025 c -11.087,0 -20.97,-2.893 -31.213,-9.039 l 7.593,-12.292 c 7.109,4.338 15.305,6.628 23.62,6.628 12.172,0 19.523,-5.424 19.523,-14.461 0,-4.339 -2.049,-8.558 -5.062,-11.088 -2.893,-2.289 -7.11,-3.375 -13.136,-3.375 -5.303,0 -9.642,0.844 -15.547,3.134 l -14.461,-3.735 2.53,-37.962 h 53.628 v 14.222 h -40.01 l -0.844,11.568 c 6.508,-1.446 10.485,-2.049 15.547,-2.049 18.438,0 31.815,12.534 31.815,29.285 0.002,16.992 -14.218,29.164 -33.983,29.164 z"
   id="path34"
   inkscape:connector-curvature="0"
   style="fill:#000000;stroke:none" />
</svg>