<?xml version="1.0" encoding="UTF-8" standalone="no"?>
<svg
   xmlns:dc="http://purl.org/dc/elements/1.1/"
   xmlns:cc="http://creativecommons.org/ns#"
   xmlns:rdf="http://www.w3.org/1999/02/22-rdf-syntax-ns#"
   xmlns:svg="http://www.w3.org/2000/svg"
   xmlns="http://www.w3.org/2000/svg"
   xmlns:sodipodi="http://sodipodi.sourceforge.net/DTD/sodipodi-0.dtd"
   xmlns:inkscape="http://www.inkscape.org/namespaces/inkscape"
   width="74.429893"
   height="74.431252"
   viewBox="0 0 210.05775 210.06152"
   version="1.1"
   id="svg2"
   inkscape:version="0.48.2 r9819"
   sodipodi:docname="MUTCD W8-11.svg">
  <metadata
     id="metadata62">
    <rdf:RDF>
      <cc:Work
         rdf:about="">
        <dc:format>image/svg+xml</dc:format>
        <dc:type
           rdf:resource="http://purl.org/dc/dcmitype/StillImage" />
        <dc:title></dc:title>
      </cc:Work>
    </rdf:RDF>
  </metadata>
  <defs
     id="defs60" />
  <sodipodi:namedview
     pagecolor="#ffffff"
     bordercolor="#666666"
     borderopacity="1"
     objecttolerance="10"
     gridtolerance="10"
     guidetolerance="10"
     inkscape:pageopacity="0"
     inkscape:pageshadow="2"
     inkscape:window-width="1280"
     inkscape:window-height="1004"
     id="namedview58"
     showgrid="false"
     fit-margin-top="0"
     fit-margin-left="0"
     fit-margin-right="0"
     fit-margin-bottom="0"
     inkscape:zoom="8.0000001"
     inkscape:cx="41.235759"
     inkscape:cy="28.494524"
     inkscape:window-x="-8"
     inkscape:window-y="-8"
     inkscape:window-maximized="1"
     inkscape:current-layer="svg2" />
  <!-- draw the bicycle -->
  <!-- RIGHT -->
  <!-- LANE -->
  <!-- ONLY -->
  <path
     d="M 206.65025,96.805734 113.26995,3.43602 C 111.11095,1.262908 108.10881,-3.6983694e-5 105.03611,-3.6983694e-5 101.97047,-3.6983694e-5 98.97892,1.262908 96.79522,3.43602 L 3.4113897,96.805734 C 1.2418097,98.978844 -0.00702031,101.95982 2.9689291e-5,105.04663 0.02122969,108.11227 1.2488597,111.11088 3.4113897,113.28046 L 96.79522,206.64665 c 2.16253,2.16253 5.19289,3.41136 8.24795,3.41489 3.05153,-0.003 6.07483,-1.25236 8.23383,-3.41489 l 93.37325,-93.36266 c 2.79752,-2.79753 3.98991,-7.0097 3.13619,-10.86203 -0.50094,-2.21897 -1.72861,-3.866446 -3.13619,-5.616226"
     style="fill:#ffd033;fill-opacity:1;fill-rule:nonzero;stroke:none"
     id="path6132"
     inkscape:connector-curvature="0" />
  <path
     d="m 204.34308,110.97329 -93.36972,93.36619 c -1.56986,1.56281 -3.71828,2.45534 -5.93019,2.45534 -2.21192,0 -4.35681,-0.89253 -5.92667,-2.45534 L 5.7079797,110.96977 c -1.55223,-1.55223 -2.43417,-3.72886 -2.43417,-5.92667 0.007,-2.19781 0.889,-4.37797 2.43769,-5.930196 L 99.10944,5.718492 c 1.56281,-1.545167 3.73592,-2.430639 5.92667,-2.430639 2.19781,0 4.3815,0.885472 5.93725,2.430639 l 93.36972,93.397942 c 1.56633,1.569856 2.45181,3.714746 2.45181,5.926666 0,2.21544 -0.88548,4.36033 -2.45181,5.93019"
     style="fill:#000000;fill-opacity:1;fill-rule:evenodd;stroke:none"
     id="path6140"
     inkscape:connector-curvature="0" />
  <path
     d="m 201.12575,107.74891 c 0.70908,-0.70203 1.12183,-1.71451 1.12183,-2.70581 0,-0.98072 -0.41275,-2.02142 -1.12183,-2.71992 L 107.74192,8.94641 c -0.69497,-0.6985 -1.7145,-1.111251 -2.69875,-1.111251 -0.98778,0 -2.02142,0.412751 -2.72345,1.111251 L 8.9323697,102.32318 c -0.70556,0.70909 -1.09714,1.71803 -1.09714,2.71639 0.007,0.99836 0.39158,1.9932 1.10419,2.70581 l 93.3803003,93.39088 c 0.70203,0.6985 1.74272,1.11125 2.72345,1.11125 0.9913,0 2.00378,-0.41275 2.7058,-1.11125 l 93.37678,-93.38735 z"
     style="fill:#ffd033;fill-opacity:1;fill-rule:evenodd;stroke:none"
     id="path6144"
     inkscape:connector-curvature="0" />
  <path
     d="m 144.18386,83.354338 0,-2.928057 -7.59883,0 0,-6.872112 4.30742,0 0,-2.84339 -4.30742,0 0,-5.263446 6.7945,0 0,-2.921 -9.78958,0 0,20.828005 10.59391,0 z m -14.68966,-5.774974 0,-4.314473 -5.33048,0 0,2.924528 2.33539,0 0,1.389945 c 0,2.190751 -0.73025,3.210279 -2.2613,3.210279 -1.6122,0 -2.63878,-1.093612 -3.0727,-3.139723 -0.28928,-1.60514 -0.44097,-3.432529 -0.44097,-5.189363 0,-2.480028 0.36689,-4.822473 0.9525,-5.842001 0.508,-1.019528 1.31586,-1.538112 2.33539,-1.538112 1.46756,0 2.40947,0.952501 2.48708,2.342445 l 2.99509,0 c -0.14464,-3.072695 -2.40947,-5.263445 -5.40809,-5.263445 -2.40947,0 -4.52614,1.605139 -5.25639,3.802945 -0.7373,1.972028 -0.9525,4.085168 -0.9525,7.006168 0,2.709334 0.43392,5.630335 1.09714,7.168447 1.01953,2.335389 2.85397,3.58775 5.334,3.58775 2.11314,0 3.80295,-1.107722 4.60023,-2.935111 0.44097,-0.87489 0.58561,-1.749779 0.58561,-3.210279 m -18.26331,-4.533195 c 0,1.612194 -0.1517,3.072695 -0.29634,4.388556 -0.28927,1.605139 -1.24177,2.991556 -2.99861,2.991556 l -2.48003,0 0,-14.978948 2.48003,0 c 1.31586,0 2.19075,0.659695 2.70934,2.120195 0.36336,0.874889 0.58561,3.143251 0.58561,5.478641 m 2.921,-0.144639 c 0,-1.60514 -0.22225,-3.439585 -0.51153,-4.967113 -0.37042,-2.123722 -1.24531,-3.728862 -2.48708,-4.610806 -0.73025,-0.578556 -1.6122,-0.797278 -3.36198,-0.797278 l -5.334,0 0,20.828005 5.77498,0 c 1.16416,0 2.19075,-0.296334 2.921,-0.952501 2.04611,-1.612194 2.99861,-4.677834 2.99861,-9.500307 m -16.227783,-10.375197 -2.921,0 0,20.828005 2.921,0 0,-20.828005 z m -9.27453,5.552723 c 0,1.679223 -0.956028,2.631723 -2.705806,2.631723 l -3.065639,0 0,-5.263446 3.065639,0 c 1.605139,0 2.705806,1.026584 2.705806,2.631723 m 2.921001,15.275282 -2.995084,-10.234086 c 1.9685,-0.73025 2.995084,-2.561167 2.995084,-5.041196 0,-3.361973 -2.197806,-5.552723 -5.482168,-5.552723 l -6.20889,0 0,20.828005 2.998612,0 0,-9.800169 2.843389,0 2.776362,9.800169 3.072695,0 z M 73.518935,77.434725 c 0,1.827389 -1.093612,2.991556 -2.776362,2.991556 l -2.998612,0 0,-6.505223 2.998612,0 c 1.538112,0 2.776362,1.538111 2.776362,3.513667 m -0.363361,-9.500308 c 0,1.901473 -0.874889,3.06564 -2.268362,3.06564 l -3.143251,0 0,-5.552724 3.143251,0 c 1.605139,0 2.268362,0.730251 2.268362,2.487084 m 3.284362,9.715503 c 0,-2.116668 -0.948973,-3.873501 -2.554112,-5.189363 1.679222,-1.749778 2.19075,-2.624667 2.19075,-4.52614 0,-3.217334 -1.972028,-5.408084 -4.74839,-5.408084 l -6.579307,0 0,20.828005 6.138335,0 c 3.06564,0 5.552724,-2.564695 5.552724,-5.704418"
     style="fill:#000000;fill-opacity:1;fill-rule:evenodd;stroke:none"
     id="path6808"
     inkscape:connector-curvature="0" />
  <path
     d="m 176.62567,114.71276 0,-2.92805 -7.60236,0 0,-6.86859 4.30741,0 0,-2.84692 -4.30741,0 0,-5.259915 6.7945,0 0,-2.928056 -9.78959,0 0,20.831531 10.59745,0 z M 159.66764,99.43748 c 0,1.6757 -0.94897,2.63172 -2.70228,2.63172 l -3.0727,0 0,-5.259915 3.0727,0 c 1.60867,0 2.70228,1.019528 2.70228,2.628195 m 2.92805,15.27528 -2.99508,-10.23761 c 1.9685,-0.7232 2.99508,-2.55411 2.99508,-5.03767 0,-3.358445 -2.1978,-5.556251 -5.48569,-5.556251 l -6.20536,0 0,20.831531 2.98802,0 0,-9.79664 2.85398,0 2.77636,9.79664 3.07269,0 z m -18.71486,-10.44928 c 0,2.40947 -0.14464,3.65125 -0.65264,5.33048 -0.51153,1.74977 -1.31586,2.55764 -2.55764,2.55764 -1.31586,0 -2.1202,-0.80787 -2.63172,-2.55764 -0.44098,-1.67923 -0.6597,-2.99509 -0.6597,-5.26345 0,-2.33539 0.1517,-3.72886 0.6597,-5.330474 0.51152,-1.749778 1.31586,-2.554112 2.63172,-2.554112 1.24178,0 2.04611,0.804334 2.55764,2.628195 0.44097,1.527531 0.65264,2.846921 0.65264,5.189361 m 2.85397,0 c 0,-3.1503 -0.29633,-5.118805 -1.17122,-7.164917 -1.01953,-2.554112 -2.48003,-3.57364 -4.89303,-3.57364 -2.40947,0 -3.87703,1.019528 -4.97417,3.506612 -0.87489,1.968501 -1.16417,4.081645 -1.16417,7.231945 0,3.21028 0.28928,5.18584 1.16417,7.23195 1.02659,2.48003 2.48709,3.59128 4.97417,3.59128 2.33539,0 3.8735,-1.11125 4.89303,-3.59128 0.87489,-1.97556 1.17122,-4.02167 1.17122,-7.23195 m -14.68967,-7.454195 0,-2.928056 -10.59744,0 0,20.831531 2.99861,0 0,-9.79664 4.16631,0 0,-2.84692 -4.16631,0 0,-5.259915 7.59883,0 z m -14.10405,17.903475 0,-2.92805 -7.59884,0 0,-6.86859 4.31095,0 0,-2.84692 -4.31095,0 0,-5.259915 6.79803,0 0,-2.928056 -9.79664,0 0,20.831531 10.59745,0 z m -16.95098,-5.91608 c 0,1.82386 -1.093612,2.98803 -2.776362,2.98803 l -2.995084,0 0,-6.5017 2.995084,0 c 1.531056,0 2.776362,1.53458 2.776362,3.51367 m -0.36336,-9.507366 c 0,1.897946 -0.881946,3.072696 -2.268363,3.072696 l -3.139723,0 0,-5.552725 3.139723,0 c 1.605139,0 2.268363,0.730251 2.268363,2.480029 m 3.28436,9.719026 c 0,-2.12019 -0.94897,-3.86997 -2.55411,-5.18583 1.67922,-1.75331 2.19075,-2.63525 2.19075,-4.533196 0,-3.210279 -1.97909,-5.408085 -4.755446,-5.408085 l -6.572252,0 0,20.831531 6.138335,0 c 3.072693,0 5.552723,-2.56116 5.552723,-5.70442 m -25.576395,0 c 0,-2.99508 -1.756833,-5.25639 -5.771445,-7.59883 -1.538112,-0.87489 -1.972029,-1.460502 -1.972029,-2.48003 0,-1.389944 1.09714,-2.409473 2.487084,-2.409473 1.308806,0 2.33539,0.945445 2.405945,2.409473 l 2.850445,0 c -0.07408,-3.146778 -2.335389,-5.404557 -5.25639,-5.404557 -2.995084,0 -5.337529,2.409473 -5.337529,5.404557 0,1.82386 0.874889,3.43253 2.554112,4.5967 4.236862,2.85044 3.072695,2.05316 3.506612,2.48708 1.241778,0.94897 1.68275,1.82386 1.68275,2.99508 0,1.68275 -1.315861,3.14326 -2.921,3.14326 -2.046112,0 -2.921001,-1.82739 -2.921001,-3.57717 l -2.924529,0 c 0,3.43253 2.194279,6.51228 5.84553,6.51228 3.217334,0 5.771445,-2.71639 5.771445,-6.07837 m -14.104059,5.70442 0,-2.92805 -7.598835,0 0,-6.86859 4.314474,0 0,-2.84692 -4.314474,0 0,-5.259915 6.801558,0 0,-2.928056 -9.80017,0 0,20.831531 10.597447,0 z M 49.540976,99.43748 c -0.218722,-1.897944 -0.508,-2.772834 -1.315861,-3.799417 -0.948973,-1.382889 -2.409473,-2.11314 -4.085168,-2.11314 -4.099279,0 -6.215946,3.57364 -6.215946,10.297587 0,7.67292 1.972028,11.2642 6.431141,11.2642 2.921,0 5.118806,-2.49414 5.185834,-5.93373 l -2.988028,0 c 0,1.53811 -0.440973,2.99862 -2.197806,2.99862 -2.55764,0 -3.577168,-2.41301 -3.577168,-8.39965 0,-5.408081 0.874889,-7.306026 3.28789,-7.306026 1.382889,0 2.19075,0.948973 2.487084,2.991556 l 2.988028,0 z m -15.783281,-5.556251 -2.921001,0 0,20.831531 2.921001,0 0,-20.831531 z"
     style="fill:#000000;fill-opacity:1;fill-rule:evenodd;stroke:none"
     id="path6812"
     inkscape:connector-curvature="0" />
  <path
     d="m 129.29664,135.66777 c 0,1.60514 -0.15169,3.06564 -0.29633,4.3815 -0.28928,1.61219 -1.24178,2.99861 -2.99156,2.99861 l -2.48708,0 0,-14.97895 2.48708,0 c 1.30881,0 2.19075,0.65264 2.70228,2.1202 0.36336,0.87489 0.58561,3.13619 0.58561,5.47864 m 2.921,-0.14464 c 0,-1.6122 -0.22225,-3.43959 -0.51153,-4.96711 -0.36336,-2.12373 -1.23825,-3.73592 -2.48708,-4.60375 -0.73025,-0.58562 -1.60514,-0.80787 -3.36197,-0.80787 l -5.334,0 0,20.82448 5.77497,0 c 1.17122,0 2.19075,-0.28928 2.921,-0.94544 2.04611,-1.60514 2.99861,-4.67784 2.99861,-9.50031 m -19.72734,1.82386 -2.99861,0 1.46403,-5.98664 1.53458,5.98664 z m 5.18231,8.62189 -5.18231,-20.82448 -2.92805,0 -5.18936,20.82448 2.99861,0 1.38994,-5.69736 4.45206,0 1.4605,5.69736 2.99861,0 z M 98.964802,135.52313 c 0,2.40947 -0.144639,3.65125 -0.652639,5.334 -0.511528,1.75683 -1.319389,2.56117 -2.557639,2.56117 -1.315862,0 -2.123723,-0.80434 -2.631723,-2.56117 -0.440973,-1.68275 -0.656167,-2.99861 -0.656167,-5.25992 0,-2.34244 0.144639,-3.72533 0.656167,-5.33753 0.508,-1.75683 1.315861,-2.55764 2.631723,-2.55764 1.23825,0 2.046111,0.80081 2.557639,2.62467 0.433917,1.54517 0.652639,2.86103 0.652639,5.19642 m 2.853968,0 c 0,-3.14325 -0.28927,-5.11881 -1.17122,-7.15786 -1.019526,-2.5647 -2.480026,-3.58423 -4.893026,-3.58423 -2.413001,0 -3.873501,1.01953 -4.967113,3.50661 -0.881944,1.97203 -1.171222,4.09223 -1.171222,7.23548 0,3.21028 0.289278,5.18936 1.171222,7.23547 1.019528,2.48709 2.480029,3.58775 4.967113,3.58775 2.335389,0 3.8735,-1.10066 4.893026,-3.58775 0.88195,-1.97908 1.17122,-4.02519 1.17122,-7.23547 m -18.199805,-4.82247 c 0,1.67922 -0.948972,2.62466 -2.698751,2.62466 l -3.072695,0 0,-5.25639 3.072695,0 c 1.60514,0 2.698751,1.01953 2.698751,2.63173 m 2.931584,15.26822 -2.998612,-10.23408 c 1.972029,-0.7232 2.998612,-2.54706 2.998612,-5.03414 0,-3.36198 -2.201334,-5.55626 -5.485696,-5.55626 l -6.215946,0 0,20.82448 2.998612,0 0,-9.78606 2.850445,0 2.776362,9.78606 3.076223,0 z"
     style="fill:#000000;fill-opacity:1;fill-rule:evenodd;stroke:none"
     id="path6816"
     inkscape:connector-curvature="0" />
</svg>
