<?xml version="1.0" encoding="UTF-8" standalone="no"?>
<!-- Generator: Adobe Illustrator 12.0.1, SVG Export Plug-In  -->

<svg
   xmlns:dc="http://purl.org/dc/elements/1.1/"
   xmlns:cc="http://creativecommons.org/ns#"
   xmlns:rdf="http://www.w3.org/1999/02/22-rdf-syntax-ns#"
   xmlns:svg="http://www.w3.org/2000/svg"
   xmlns="http://www.w3.org/2000/svg"
   xmlns:sodipodi="http://sodipodi.sourceforge.net/DTD/sodipodi-0.dtd"
   xmlns:inkscape="http://www.inkscape.org/namespaces/inkscape"
   version="1.1"
   width="286.66"
   height="286.66574"
   viewBox="0 -1 286.66 286.66574"
   enable-background="new 0 -1 288 290"
   xml:space="preserve"
   id="svg2"
   inkscape:version="0.48.2 r9819"
   sodipodi:docname="AJAX1.svg"><metadata
   id="metadata54"><rdf:RDF><cc:Work
       rdf:about=""><dc:format>image/svg+xml</dc:format><dc:type
         rdf:resource="http://purl.org/dc/dcmitype/StillImage" /></cc:Work></rdf:RDF></metadata><sodipodi:namedview
   pagecolor="#ffffff"
   bordercolor="#666666"
   borderopacity="1"
   objecttolerance="10"
   gridtolerance="10"
   guidetolerance="10"
   inkscape:pageopacity="0"
   inkscape:pageshadow="2"
   inkscape:window-width="1280"
   inkscape:window-height="1004"
   id="namedview52"
   showgrid="false"
   fit-margin-top="0"
   fit-margin-left="0"
   fit-margin-right="0"
   fit-margin-bottom="0"
   inkscape:zoom="2.3017545"
   inkscape:cx="83.776791"
   inkscape:cy="125.35557"
   inkscape:window-x="-8"
   inkscape:window-y="-8"
   inkscape:window-maximized="1"
   inkscape:current-layer="svg2" />
<defs
   id="defs4">
</defs>
<path
   d="M 4.0994987,132.38675 133.3795,3.10475 c 5.471,-5.473 14.422,-5.473 19.896,0 l 129.282,129.282 c 5.47,5.471 5.47,14.423 0,19.891 l -129.283,129.284 c -5.474,5.472 -14.424,5.472 -19.896,0 L 4.0994987,152.27775 c -5.466,-5.468 -5.466,-14.42 0,-19.891 z"
   id="path6"
   style="fill:#ffd033;stroke:none;fill-opacity:1"
   inkscape:connector-curvature="0" />

<path
   clip-rule="evenodd"
   d="M 7.2224987,134.44075 135.4405,6.22075 c 4.339,-4.339 11.442,-4.339 15.786,0 l 128.215,128.22 c 4.343,4.342 4.343,11.439 0,15.779 l -128.216,128.222 c -4.344,4.339 -11.447,4.339 -15.786,0 L 7.2224987,150.21875 c -4.34,-4.34 -4.34,-11.436 0,-15.778"
   id="path10"
   inkscape:connector-curvature="0"
   style="fill:#000000;fill-rule:evenodd;stroke:none" />
<path
   clip-rule="evenodd"
   d="M 11.224499,138.39075 139.3865,10.22875 c 2.162,-2.169 5.724,-2.169 7.889,0 l 128.16,128.162 c 2.165,2.166 2.165,5.717 0,7.883 l -128.16,128.161 c -2.165,2.168 -5.727,2.168 -7.889,0 L 11.224499,146.27375 c -2.1660003,-2.166 -2.1660003,-5.717 0,-7.883"
   id="path12"
   inkscape:connector-curvature="0"
   style="fill:#ffd033;fill-rule:evenodd;stroke:none;fill-opacity:1" />
<path
   d="m 96.882499,144.78675 v -17.137 l -5.652,17.137 -5.697,-17.137 v 17.137 h -4.375 v -30.537 h 4.375 l 5.697,17.137 5.652,-17.137 h 4.421001 v 30.537 h -4.421001 z"
   id="path14"
   inkscape:connector-curvature="0"
   style="fill:#000000;stroke:none" />
<path
   d="m 120.7195,144.78675 -2.143,-8.341 h -6.563 l -2.006,8.341 h -4.421 l 7.611,-30.537 h 4.284 l 7.611,30.537 h -4.373 z m -5.47,-21.422 -2.142,8.796 h 4.375 l -2.233,-8.796 z"
   id="path16"
   inkscape:connector-curvature="0"
   style="fill:#000000;stroke:none" />
<path
   d="m 138.8115,130.97675 v 13.81 h -4.375 v -13.81 l -7.521,-16.727 h 4.604 l 5.15,11.03 5.059,-11.03 h 4.695 l -7.612,16.727 z"
   id="path18"
   inkscape:connector-curvature="0"
   style="fill:#000000;stroke:none" />
<path
   d="m 176.6405,144.78675 h -8.979 v -30.537 h 9.617 c 4.102,0 6.974,3.236 6.974,7.93 0,2.78 -0.729,4.057 -3.19,6.654 2.324,1.915 3.737,4.467 3.737,7.611 0.001,4.604 -3.646,8.342 -8.159,8.342 z m 0,-26.253 h -4.603 v 8.158 h 4.603 c 2.052,0 3.327,-1.732 3.327,-4.512 0.001,-2.552 -0.956,-3.646 -3.327,-3.646 z m -0.181,12.443 h -4.421 v 9.526 h 4.421 c 2.461,0 4.057,-1.732 4.057,-4.375 -0.001,-2.918 -1.824,-5.151 -4.057,-5.151 z"
   id="path20"
   inkscape:connector-curvature="0"
   style="fill:#000000;stroke:none" />
<path
   d="m 189.9495,144.78675 v -30.537 h 14.357 v 4.284 h -9.981 v 7.703 h 6.335 v 4.193 h -6.335 v 10.073 h 11.166 v 4.284 h -15.542 z"
   id="path22"
   inkscape:connector-curvature="0"
   style="fill:#000000;stroke:none" />
<path
   d="m 81.954499,195.29775 c -5.378,0 -8.568,-4.512 -8.568,-9.525 h 4.284 c 0,2.552 1.276,5.241 4.284,5.241 2.37,0 4.285,-2.143 4.285,-4.604 0,-1.731 -0.639,-3.008 -2.462,-4.421 -0.638,-0.638 1.094,0.547 -5.15,-3.646 -2.461,-1.686 -3.737,-4.056 -3.737,-6.745 0,-4.375 3.419,-7.931 7.794,-7.931 4.33,0 7.611,3.327 7.748,7.931 h -4.192 c -0.092,-2.142 -1.596,-3.509 -3.556,-3.509 -2.005,0 -3.601,1.504 -3.601,3.509 0,1.504 0.639,2.37 2.871,3.646 5.88,3.418 8.478,6.745 8.478,11.166 -0.001,4.924 -3.783,8.888 -8.478,8.888 z"
   id="path24"
   inkscape:connector-curvature="0"
   style="fill:#000000;stroke:none" />
<path
   d="m 93.303499,194.75175 v -30.537 h 4.376 v 26.48 H 108.8455 v 4.057 H 93.303499 z"
   id="path26"
   inkscape:connector-curvature="0"
   style="fill:#000000;stroke:none" />
<path
   d="m 110.8505,194.75175 v -30.537 h 4.284 v 30.537 h -4.284 z"
   id="path28"
   inkscape:connector-curvature="0"
   style="fill:#000000;stroke:none" />
<path
   d="m 128.7175,181.35175 h -4.74 v 13.399 h -4.376 v -30.537 h 9.116 c 4.785,0 8.021,3.419 8.021,8.569 0,5.56 -2.871,8.569 -8.021,8.569 z m -0.229,-12.852 h -4.512 v 8.659 h 4.512 c 2.553,0 3.966,-1.595 3.966,-4.375 0,-2.553 -1.596,-4.284 -3.966,-4.284 z"
   id="path30"
   inkscape:connector-curvature="0"
   style="fill:#000000;stroke:none" />
<path
   d="m 147.7675,181.35175 h -4.739 v 13.399 h -4.376 v -30.537 h 9.115 c 4.786,0 8.022,3.419 8.022,8.569 0.001,5.56 -2.871,8.569 -8.022,8.569 z m -0.227,-12.852 h -4.512 v 8.659 h 4.512 c 2.553,0 3.966,-1.595 3.966,-4.375 0,-2.553 -1.596,-4.284 -3.966,-4.284 z"
   id="path32"
   inkscape:connector-curvature="0"
   style="fill:#000000;stroke:none" />
<path
   d="m 157.7035,194.75175 v -30.537 h 14.357 v 4.285 h -9.981 v 7.702 h 6.335 v 4.193 h -6.335 v 10.072 h 11.166 v 4.284 h -15.542 z"
   id="path34"
   inkscape:connector-curvature="0"
   style="fill:#000000;stroke:none" />
<path
   d="m 188.7415,194.75175 -4.057,-14.356 h -4.192 v 14.356 h -4.376 v -30.537 h 9.115 c 4.786,0 8.022,3.236 8.022,8.159 0,3.646 -1.505,6.289 -4.376,7.383 l 4.376,14.995 h -4.512 z m -3.737,-26.252 h -4.512 v 7.702 h 4.512 c 2.553,0 3.966,-1.367 3.966,-3.828 0,-2.37 -1.596,-3.874 -3.966,-3.874 z"
   id="path36"
   inkscape:connector-curvature="0"
   style="fill:#000000;stroke:none" />
<path
   d="m 205.6505,180.94175 v 13.81 h -4.375 v -13.81 l -7.521,-16.728 h 4.604 l 5.15,11.03 5.059,-11.03 h 4.695 l -7.612,16.728 z"
   id="path38"
   inkscape:connector-curvature="0"
   style="fill:#000000;stroke:none" />
<path
   d="m 93.850499,98.19075 h -8.979 v -30.536 h 9.617 c 4.102,0 6.973001,3.236 6.973001,7.93 0,2.78 -0.729,4.057 -3.190001,6.654 2.325001,1.915 3.737001,4.467 3.737001,7.611 0,4.604 -3.646001,8.341 -8.158001,8.341 z m 0,-26.252 h -4.604 v 8.158 h 4.604 c 2.051,0 3.327,-1.732 3.327,-4.512 0,-2.552 -0.957,-3.646 -3.327,-3.646 z m -0.183,12.442 h -4.421 v 9.526 h 4.421 c 2.461,0 4.057,-1.732 4.057,-4.375 0,-2.917 -1.823,-5.151 -4.057,-5.151 z"
   id="path40"
   inkscape:connector-curvature="0"
   style="fill:#000000;stroke:none" />
<path
   d="m 119.7835,98.19075 -4.056,-14.357 h -4.193 v 14.357 h -4.375 v -30.536 h 9.116 c 4.786,0 8.021,3.236 8.021,8.158 0,3.646 -1.504,6.29 -4.375,7.384 l 4.375,14.995 h -4.513 z m -3.737,-26.252 h -4.512 v 7.703 h 4.512 c 2.552,0 3.965,-1.367 3.965,-3.829 0.001,-2.37 -1.595,-3.874 -3.965,-3.874 z"
   id="path42"
   inkscape:connector-curvature="0"
   style="fill:#000000;stroke:none" />
<path
   d="m 129.4465,98.19075 v -30.536 h 4.284 v 30.537 h -4.284 z"
   id="path44"
   inkscape:connector-curvature="0"
   style="fill:#000000;stroke:none" />
<path
   d="m 153.2375,96.77775 c -1.094,1.003 -2.598,1.413 -4.284,1.413 h -8.478 v -30.536 h 7.794 c 2.598,0 3.874,0.319 4.968,1.185 1.823,1.276 3.1,3.646 3.646,6.745 0.41,2.233 0.729,4.922 0.729,7.292 10e-4,7.065 -1.412,11.577 -4.375,13.901 z m -0.774,-21.74 c -0.729,-2.142 -2.006,-3.099 -3.966,-3.099 h -3.646 v 21.968 h 3.646 c 2.599,0 3.966,-2.051 4.421,-4.375 0.183,-1.96 0.411,-4.102 0.411,-6.426 0,-3.464 -0.319,-6.791 -0.866,-8.068 z"
   id="path46"
   inkscape:connector-curvature="0"
   style="fill:#000000;stroke:none" />
<path
   d="m 179.2625,94.45375 c -1.186,2.644 -3.646,4.284 -6.746,4.284 -3.646,0 -6.335,-1.823 -7.84,-5.241 -0.957,-2.279 -1.595,-6.563 -1.595,-10.528 0,-4.284 0.319,-7.384 1.413,-10.3 1.048,-3.19 4.147,-5.561 7.702,-5.561 4.376,0 7.703,3.236 7.931,7.748 h -4.375 c -0.137,-2.051 -1.504,-3.464 -3.646,-3.464 -1.504,0 -2.689,0.775 -3.464,2.279 -0.82,1.504 -1.367,4.922 -1.367,8.568 0,2.552 0.228,5.242 0.638,7.611 0.639,2.963 2.143,4.604 4.513,4.604 2.233,0 3.327,-1.504 3.327,-4.74 v -2.005 h -3.464 v -4.284 h 7.839 v 6.29 c 0,2.141 -0.228,3.463 -0.866,4.739 z"
   id="path48"
   inkscape:connector-curvature="0"
   style="fill:#000000;stroke:none" />
<path
   d="m 186.2355,98.19075 v -30.536 h 14.357 v 4.284 h -9.981 v 7.703 h 6.335 v 4.193 h -6.335 v 10.072 h 11.166 v 4.284 h -15.542 z"
   id="path50"
   inkscape:connector-curvature="0"
   style="fill:#000000;stroke:none" />
</svg>