<?xml version="1.0" encoding="UTF-8" standalone="no"?>
<!-- Generator: Adobe Illustrator 12.0.1, SVG Export Plug-In  -->

<svg
   xmlns:dc="http://purl.org/dc/elements/1.1/"
   xmlns:cc="http://creativecommons.org/ns#"
   xmlns:rdf="http://www.w3.org/1999/02/22-rdf-syntax-ns#"
   xmlns:svg="http://www.w3.org/2000/svg"
   xmlns="http://www.w3.org/2000/svg"
   xmlns:sodipodi="http://sodipodi.sourceforge.net/DTD/sodipodi-0.dtd"
   xmlns:inkscape="http://www.inkscape.org/namespaces/inkscape"
   version="1.1"
   width="287.99924"
   height="288.00101"
   viewBox="-1 0 287.99924 288.00101"
   enable-background="new -1 0 290 288"
   xml:space="preserve"
   id="svg2"
   inkscape:version="0.48.2 r9819"
   sodipodi:docname="AJAX1.svg"><metadata
   id="metadata30"><rdf:RDF><cc:Work
       rdf:about=""><dc:format>image/svg+xml</dc:format><dc:type
         rdf:resource="http://purl.org/dc/dcmitype/StillImage" /></cc:Work></rdf:RDF></metadata><sodipodi:namedview
   pagecolor="#ffffff"
   bordercolor="#666666"
   borderopacity="1"
   objecttolerance="10"
   gridtolerance="10"
   guidetolerance="10"
   inkscape:pageopacity="0"
   inkscape:pageshadow="2"
   inkscape:window-width="1280"
   inkscape:window-height="1004"
   id="namedview28"
   showgrid="false"
   fit-margin-top="0"
   fit-margin-left="0"
   fit-margin-right="0"
   fit-margin-bottom="0"
   inkscape:zoom="2.3177389"
   inkscape:cx="92.5103"
   inkscape:cy="114.53498"
   inkscape:window-x="-8"
   inkscape:window-y="-8"
   inkscape:window-maximized="1"
   inkscape:current-layer="svg2" />
<defs
   id="defs4">
</defs>
<path
   d="M 282.32904,132.721 154.29904,4.711 C 151.33704,1.727 147.22304,0 143.01004,0 c -4.204,0 -8.309,1.727 -11.303,4.711 L 3.6760435,132.721 c -2.97599988,2.98 -4.686,7.066 -4.67599988,11.298 0.023,4.204 1.71,8.318 4.67599988,11.289 L 131.70604,283.32 c 2.966,2.961 7.123,4.676 11.308,4.681 4.185,-0.005 8.337,-1.72 11.289,-4.681 l 128.025,-128.007 c 3.835,-3.836 5.47,-9.607 4.299,-14.888 -0.689,-3.047 -2.371,-5.3 -4.298,-7.704 z"
   id="path6"
   style="fill:#ffd033;stroke:none;fill-opacity:1"
   inkscape:connector-curvature="0" />

<path
   clip-rule="evenodd"
   d="m 279.16404,152.147 -128.016,128.007 c -2.159,2.145 -5.102,3.368 -8.134,3.368 -3.033,0 -5.971,-1.224 -8.12,-3.368 L 6.8220435,152.143 c -2.126,-2.13 -3.34,-5.115 -3.34,-8.128 0.014,-3.014 1.214,-5.999 3.344,-8.129 L 134.88504,7.841 c 2.14,-2.119 5.116,-3.333 8.125,-3.333 3.014,0 6.004,1.214 8.139,3.333 l 128.02,128.049 c 2.14,2.154 3.358,5.092 3.358,8.124 0,3.037 -1.218,5.98 -3.363,8.133"
   id="path10"
   inkscape:connector-curvature="0"
   style="fill-rule:evenodd;stroke:none;fill:#000000" />
<path
   clip-rule="evenodd"
   d="m 274.14404,147.122 c 0.978,-0.964 1.544,-2.352 1.544,-3.712 0,-1.341 -0.566,-2.768 -1.544,-3.727 L 146.11804,11.662 c -0.959,-0.959 -2.353,-1.523 -3.708,-1.523 -1.346,0 -2.768,0.564 -3.731,1.523 L 10.639044,139.683 c -0.9680005,0.973 -1.4980005,2.357 -1.4980005,3.722 0.005,1.365 0.534,2.735 1.5020005,3.712 l 128.034996,128.04 c 0.968,0.959 2.39,1.525 3.731,1.525 1.36,0 2.75,-0.566 3.712,-1.525 l 128.023,-128.035"
   id="path12"
   inkscape:connector-curvature="0"
   style="fill:#ffd033;fill-rule:evenodd;stroke:none;fill-opacity:1" />
<path
   clip-rule="evenodd"
   d="m 116.90804,155.709 h -4.109 l 2.003,-8.219 2.106,8.219 m 7.109,11.813 -7.109,-28.548 h -4.01 l -7.118,28.548 h 4.104 l 1.913,-7.808 h 6.107 l 2.003,7.808 h 4.11 z"
   id="path14"
   inkscape:connector-curvature="0"
   style="fill-rule:evenodd;stroke:none;fill:#000000" />
<path
   clip-rule="evenodd"
   d="m 196.68804,119.118 v -4.01 h -10.42 v -9.418 h 5.909 v -3.906 h -5.909 V 94.57 h 9.314 v -4.005 h -13.424 v 28.553 h 14.53 m -20.141,-7.912 v -5.914 h -7.313 v 4.005 h 3.207 v 1.908 c 0,3.004 -1.006,4.402 -3.103,4.402 -2.211,0 -3.609,-1.502 -4.209,-4.308 -0.396,-2.201 -0.604,-4.704 -0.604,-7.113 0,-3.401 0.501,-6.613 1.304,-8.011 0.704,-1.403 1.8,-2.106 3.202,-2.106 2.008,0 3.307,1.304 3.41,3.207 h 4.105 c -0.199,-4.208 -3.307,-7.212 -7.411,-7.212 -3.307,0 -6.212,2.201 -7.213,5.21 -1.007,2.706 -1.304,5.606 -1.304,9.617 0,3.708 0.6,7.713 1.502,9.819 1.398,3.203 3.911,4.922 7.312,4.922 2.905,0 5.215,-1.521 6.315,-4.024 0.601,-1.2 0.8,-2.4 0.8,-4.402 z m -25.044,-6.216 c 0,2.206 -0.203,4.208 -0.406,6.013 -0.397,2.206 -1.701,4.104 -4.105,4.104 h -3.405 V 94.57 h 3.405 c 1.8,0 3.005,0.907 3.708,2.91 0.5,1.2 0.803,4.303 0.803,7.51 z m 4.005,-0.198 c 0,-2.206 -0.302,-4.714 -0.699,-6.811 -0.505,-2.909 -1.709,-5.11 -3.41,-6.32 -1.001,-0.793 -2.21,-1.096 -4.605,-1.096 h -7.316 v 28.553 h 7.917 c 1.596,0 3.004,-0.402 4.005,-1.299 2.804,-2.211 4.108,-6.415 4.108,-13.027 z m -26.253,14.326 h 4.001 V 90.565 h -4.001 v 28.553 z m -8.71,-20.939 c 0,2.305 -1.313,3.604 -3.713,3.604 h -4.204 V 94.57 h 4.204 c 2.206,0 3.713,1.403 3.713,3.609 z m 4.005,20.939 -4.109,-14.028 c 2.702,-0.997 4.109,-3.509 4.109,-6.91 0,-4.61 -3.009,-7.614 -7.515,-7.614 h -8.516 v 28.553 h 4.109 V 105.69 h 3.901 l 3.807,13.429 h 4.214 z m -24.750996,-8.115 c 0,2.503 -1.502,4.104 -3.812,4.104 h -4.104 v -8.917 h 4.104 c 2.112,0 3.812,2.106 3.812,4.813 z m -0.5,-13.023 c 0,2.603 -1.2,4.204 -3.113,4.204 h -4.303 V 94.57 h 4.303 c 2.21,0 3.113,1.002 3.113,3.41 z m 4.510996,13.32 c 0,-2.905 -1.304,-5.309 -3.51,-7.113 2.305,-2.404 3.009,-3.604 3.009,-6.207 0,-4.412 -2.707,-7.416 -6.513996,-7.416 h -9.021 v 28.553 h 8.413 c 4.211996,10e-4 7.622996,-3.509 7.622996,-7.817 z"
   id="path16"
   inkscape:connector-curvature="0"
   style="fill-rule:evenodd;stroke:none;fill:#000000" />
<path
   clip-rule="evenodd"
   d="m 199.20004,167.749 v -4.01 h -10.415 v -9.424 h 5.909 v -3.901 h -5.909 v -7.217 h 9.319 v -4.01 h -13.434 v 28.562 h 14.53 m -23.239,-8.119 c 0,2.508 -1.502,4.109 -3.808,4.109 h -4.109 v -8.923 h 4.109 c 2.103,0 3.808,2.107 3.808,4.814 z m -0.501,-13.027 c 0,2.603 -1.204,4.208 -3.107,4.208 h -4.309 v -7.613 h 4.309 c 2.2,-0.001 3.107,1.005 3.107,3.405 z m 4.507,13.329 c 0,-2.914 -1.304,-5.313 -3.505,-7.118 2.305,-2.399 3.004,-3.608 3.004,-6.211 0,-4.402 -2.707,-7.416 -6.514,-7.416 h -9.018 v 28.562 h 8.418 c 4.213,0 7.615,-3.515 7.615,-7.817 z"
   id="path18"
   inkscape:connector-curvature="0"
   style="fill-rule:evenodd;stroke:none;fill:#000000" />
<path
   style="stroke:none;fill:#000000"
   d="m 121.21705,186.138 3.978,0 0,28.328 -3.978,0 z"
   id="rect20" />
<path
   clip-rule="evenodd"
   d="m 146.68504,194.109 c -0.298,-2.603 -0.699,-3.802 -1.8,-5.209 -1.304,-1.899 -3.306,-2.905 -5.606,-2.905 -5.621,0 -8.521,4.907 -8.521,14.127 0,10.524 2.702,15.445 8.814,15.445 4.01,0 7.023,-3.419 7.113,-8.133 h -4.1 c 0,2.106 -0.604,4.109 -3.013,4.109 -3.505,0 -4.903,-3.307 -4.903,-11.521 0,-7.416 1.2,-10.019 4.506,-10.019 1.903,0 3.004,1.299 3.41,4.104 h 4.1"
   id="path22"
   inkscape:connector-curvature="0"
   style="fill-rule:evenodd;stroke:none;fill:#000000" />
<path
   clip-rule="evenodd"
   d="m 142.41004,139.14 h -4.407 l -4.705,10.32 -4.809,-10.32 h -4.317 l 7.019,15.63 v 12.923 h 4.109 V 154.77 l 7.11,-15.63 m -41.402,28.704 v -28.553 h -4.113996 l -5.3,16.031 -5.314,-16.031 h -4.105 v 28.553 h 4.105 v -16.031 l 5.314,16.031 5.3,-16.031 v 16.031 h 4.113996 z"
   id="path24"
   inkscape:connector-curvature="0"
   style="fill-rule:evenodd;stroke:none;fill:#000000" />
<path
   transform="translate(-0.99995638,0)"
   style="fill-rule:evenodd;stroke:none;fill:#000000"
   d="m 170.164,186.448 -4.407,0 -4.705,10.321 -4.813,-10.321 -4.308,0 7.019,15.63 0,12.923 4.1,0 0,-12.923 7.114,-15.63"
   id="polyline26" />
</svg>