<?xml version="1.0" encoding="UTF-8" standalone="no"?>
<!-- Generator: Adobe Illustrator 12.0.1, SVG Export Plug-In  -->

<svg
   xmlns:dc="http://purl.org/dc/elements/1.1/"
   xmlns:cc="http://creativecommons.org/ns#"
   xmlns:rdf="http://www.w3.org/1999/02/22-rdf-syntax-ns#"
   xmlns:svg="http://www.w3.org/2000/svg"
   xmlns="http://www.w3.org/2000/svg"
   xmlns:sodipodi="http://sodipodi.sourceforge.net/DTD/sodipodi-0.dtd"
   xmlns:inkscape="http://www.inkscape.org/namespaces/inkscape"
   version="1.1"
   width="286.66174"
   height="286.66599"
   viewBox="0 -0.999 286.66174 286.66599"
   enable-background="new 0 -0.999 288 290"
   xml:space="preserve"
   id="svg2"
   inkscape:version="0.48.2 r9819"
   sodipodi:docname="AJAX1.svg"><metadata
   id="metadata26"><rdf:RDF><cc:Work
       rdf:about=""><dc:format>image/svg+xml</dc:format><dc:type
         rdf:resource="http://purl.org/dc/dcmitype/StillImage" /></cc:Work></rdf:RDF></metadata><sodipodi:namedview
   pagecolor="#ffffff"
   bordercolor="#666666"
   borderopacity="1"
   objecttolerance="10"
   gridtolerance="10"
   guidetolerance="10"
   inkscape:pageopacity="0"
   inkscape:pageshadow="2"
   inkscape:window-width="1280"
   inkscape:window-height="1004"
   id="namedview24"
   showgrid="false"
   fit-margin-top="0"
   fit-margin-left="0"
   fit-margin-right="0"
   fit-margin-bottom="0"
   inkscape:zoom="2.3017545"
   inkscape:cx="100.87357"
   inkscape:cy="156.48815"
   inkscape:window-x="-8"
   inkscape:window-y="-8"
   inkscape:window-maximized="1"
   inkscape:current-layer="svg2" />
<defs
   id="defs4">
</defs>
<path
   d="M 4.099496,132.38875 133.3795,3.10575 c 5.471,-5.473 14.421,-5.473 19.895,0 l 129.284,129.284 c 5.471,5.47 5.471,14.423 0,19.89 l -129.284,129.284 c -5.474,5.471 -14.424,5.471 -19.895,0 L 4.099496,152.27875 c -5.466,-5.467 -5.466,-14.42 0,-19.89 z"
   id="path6"
   style="fill:#ffd033;stroke:none;fill-opacity:1"
   inkscape:connector-curvature="0" />

<path
   clip-rule="evenodd"
   d="M 7.222496,134.44175 135.4405,6.22175 c 4.339,-4.339 11.443,-4.339 15.786,0 l 128.215,128.22 c 4.343,4.343 4.343,11.438 0,15.778 l -128.216,128.226 c -4.343,4.335 -11.446,4.335 -15.786,0 L 7.222496,150.21975 c -4.339,-4.34 -4.339,-11.435 0,-15.778"
   id="path10"
   inkscape:connector-curvature="0"
   style="fill-rule:evenodd;stroke:none;fill:#000000" />
<path
   clip-rule="evenodd"
   d="M 11.224496,138.39175 139.3875,10.23075 c 2.162,-2.169 5.723,-2.169 7.889,0 l 128.16,128.162 c 2.165,2.166 2.165,5.716 0,7.883 l -128.161,128.161 c -2.166,2.168 -5.727,2.168 -7.889,0 L 11.224496,146.27475 c -2.165,-2.167 -2.165,-5.717 0,-7.883"
   id="path12"
   inkscape:connector-curvature="0"
   style="fill:#ffd033;fill-rule:evenodd;stroke:none;fill-opacity:1" />
<path
   d="m 65.103496,166.47375 c -1.72,0.645 -4.587,1.146 -6.736,1.146 h -18.203 v -48.016 h 18.203 c 7.597,0 13.329,5.232 13.329,12.111 0,4.73 -2.222,8.242 -6.736,10.822 5.017,2.365 7.883,6.378 7.883,11.61 0,5.232 -3.225,10.464 -7.74,12.327 z m -6.235,-39.272 h -11.107 v 11.753 h 9.102 c 2.149,0 3.153,-0.287 4.515,-1.29 1.72,-1.361 2.724,-3.368 2.724,-5.59 -0.002,-3.225 -1.865,-4.873 -5.234,-4.873 z m 1.648,19.851 c -1.003,-0.358 -1.505,-0.358 -3.153,-0.358 h -9.603 v 13.186 h 11.466 c 3.87,0 5.877,-1.863 5.877,-5.59 0,-3.154 -1.863,-6.235 -4.587,-7.238 z"
   id="path14"
   inkscape:connector-curvature="0"
   style="stroke:none;fill:#000000" />
<path
   d="m 112.2595,160.38175 c -2.509,4.73 -8.242,8.099 -14.118004,8.099 -5.877,0 -11.61,-3.368 -14.189,-8.099 -1.29,-2.866 -2.15,-6.234 -2.15,-9.961 v -30.816 h 7.597 v 30.816 c 0,6.234 3.512,10.319 8.743,10.319 5.231004,0 8.743004,-4.085 8.743004,-10.319 v -30.816 h 7.596 v 30.816 c -0.002,3.727 -0.861,7.095 -2.222,9.961 z"
   id="path16"
   inkscape:connector-curvature="0"
   style="stroke:none;fill:#000000" />
<path
   d="m 156.6195,167.62075 v -27.806 l -11.107,27.806 -11.108,-27.806 v 27.806 h -7.597 v -48.016 h 7.597 l 11.108,26.946 11.107,-26.946 h 7.597 v 48.016 h -7.597 z"
   id="path18"
   inkscape:connector-curvature="0"
   style="stroke:none;fill:#000000" />
<path
   d="m 201.8405,145.04575 c -2.222,1.003 -5.089,1.648 -8.815,1.648 h -8.886 v 20.926 h -7.597 v -48.016 h 16.482 c 3.87,0 6.45,0.358 8.815,1.505 4.156,2.006 7.381,7.095 7.381,11.968 0.001,5.09 -3.224,10.106 -7.38,11.969 z m -3.226,-16.984 c -1.361,-0.716 -2.222,-0.86 -4.586,-0.86 h -9.89 v 11.753 h 9.89 c 2.364,0 3.225,-0.143 4.586,-0.788 1.648,-0.86 2.867,-3.082 2.867,-5.088 0,-2.007 -1.218,-4.014 -2.867,-5.017 z"
   id="path20"
   inkscape:connector-curvature="0"
   style="stroke:none;fill:#000000" />
<path
   d="m 241.7575,164.75375 c -2.651,2.364 -6.379,3.727 -10.463,3.727 -8.242,0 -14.262,-4.874 -17.486,-12.184 l 7.238,-2.651 c 2.006,4.515 5.732,7.095 10.248,7.095 4.442,0 7.453,-3.081 7.453,-7.095 0,-6.378 -7.453,-7.453 -13.688,-9.962 -2.866,-1.146 -9.245,-4.013 -9.245,-11.968 0,-9.388 6.379,-12.971 14.979,-12.971 6.736,0 11.323,3.87 13.688,9.818 l -6.736,2.006 c 0,0 -1.72,-4.085 -7.095,-4.228 -0.215,0 -0.358,0 -0.502,0 -3.296,0 -6.88,1.29 -6.88,5.088 0,0.144 0,0.358 0,0.502 0.646,8.886 23.22,3.01 23.22,21.858 -0.002,4.372 -1.722,8.242 -4.731,10.965 z"
   id="path22"
   inkscape:connector-curvature="0"
   style="stroke:none;fill:#000000" />
</svg>