<?xml version="1.0" encoding="UTF-8" standalone="no"?>
<svg
   xmlns:dc="http://purl.org/dc/elements/1.1/"
   xmlns:cc="http://creativecommons.org/ns#"
   xmlns:rdf="http://www.w3.org/1999/02/22-rdf-syntax-ns#"
   xmlns:svg="http://www.w3.org/2000/svg"
   xmlns="http://www.w3.org/2000/svg"
   xmlns:sodipodi="http://sodipodi.sourceforge.net/DTD/sodipodi-0.dtd"
   xmlns:inkscape="http://www.inkscape.org/namespaces/inkscape"
   width="74.429893"
   height="74.431252"
   viewBox="0 0 210.05775 210.06152"
   version="1.1"
   id="svg2"
   inkscape:version="0.48.2 r9819"
   sodipodi:docname="MUTCD W3-8.svg">
  <metadata
     id="metadata62">
    <rdf:RDF>
      <cc:Work
         rdf:about="">
        <dc:format>image/svg+xml</dc:format>
        <dc:type
           rdf:resource="http://purl.org/dc/dcmitype/StillImage" />
        <dc:title></dc:title>
      </cc:Work>
    </rdf:RDF>
  </metadata>
  <defs
     id="defs60" />
  <sodipodi:namedview
     pagecolor="#ffffff"
     bordercolor="#666666"
     borderopacity="1"
     objecttolerance="10"
     gridtolerance="10"
     guidetolerance="10"
     inkscape:pageopacity="0"
     inkscape:pageshadow="2"
     inkscape:window-width="1280"
     inkscape:window-height="1004"
     id="namedview58"
     showgrid="false"
     fit-margin-top="0"
     fit-margin-left="0"
     fit-margin-right="0"
     fit-margin-bottom="0"
     inkscape:zoom="8.0000001"
     inkscape:cx="41.235759"
     inkscape:cy="28.494524"
     inkscape:window-x="-8"
     inkscape:window-y="-8"
     inkscape:window-maximized="1"
     inkscape:current-layer="svg2" />
  <!-- draw the bicycle -->
  <!-- RIGHT -->
  <!-- LANE -->
  <!-- ONLY -->
  <path
     d="M 206.65025,96.805734 113.26995,3.43602 C 111.11095,1.262908 108.10881,-3.6983694e-5 105.03611,-3.6983694e-5 101.97047,-3.6983694e-5 98.97892,1.262908 96.79522,3.43602 L 3.4113897,96.805734 C 1.2418097,98.978844 -0.00702031,101.95982 2.9689291e-5,105.04663 0.02122969,108.11227 1.2488597,111.11088 3.4113897,113.28046 L 96.79522,206.64665 c 2.16253,2.16253 5.19289,3.41136 8.24795,3.41489 3.05153,-0.003 6.07483,-1.25236 8.23383,-3.41489 l 93.37325,-93.36266 c 2.79752,-2.79753 3.98991,-7.0097 3.13619,-10.86203 -0.50094,-2.21897 -1.72861,-3.866446 -3.13619,-5.616226"
     style="fill:#ffd033;fill-opacity:1;fill-rule:nonzero;stroke:none"
     id="path6132"
     inkscape:connector-curvature="0" />
  <path
     d="m 204.34308,110.97329 -93.36972,93.36619 c -1.56986,1.56281 -3.71828,2.45534 -5.93019,2.45534 -2.21192,0 -4.35681,-0.89253 -5.92667,-2.45534 L 5.7079797,110.96977 c -1.55223,-1.55223 -2.43417,-3.72886 -2.43417,-5.92667 0.007,-2.19781 0.889,-4.37797 2.43769,-5.930196 L 99.10944,5.718492 c 1.56281,-1.545167 3.73592,-2.430639 5.92667,-2.430639 2.19781,0 4.3815,0.885472 5.93725,2.430639 l 93.36972,93.397942 c 1.56633,1.569856 2.45181,3.714746 2.45181,5.926666 0,2.21544 -0.88548,4.36033 -2.45181,5.93019"
     style="fill:#000000;fill-opacity:1;fill-rule:evenodd;stroke:none"
     id="path6140"
     inkscape:connector-curvature="0" />
  <path
     d="m 201.12575,107.74891 c 0.70908,-0.70203 1.12183,-1.71451 1.12183,-2.70581 0,-0.98072 -0.41275,-2.02142 -1.12183,-2.71992 L 107.74192,8.94641 c -0.69497,-0.6985 -1.7145,-1.111251 -2.69875,-1.111251 -0.98778,0 -2.02142,0.412751 -2.72345,1.111251 L 8.9323697,102.32318 c -0.70556,0.70909 -1.09714,1.71803 -1.09714,2.71639 0.007,0.99836 0.39158,1.9932 1.10419,2.70581 l 93.3803003,93.39088 c 0.70203,0.6985 1.74272,1.11125 2.72345,1.11125 0.9913,0 2.00378,-0.41275 2.7058,-1.11125 l 93.37678,-93.38735 z"
     style="fill:#ffd033;fill-opacity:1;fill-rule:evenodd;stroke:none"
     id="path6144"
     inkscape:connector-curvature="0" />
  <path
     d="m 176.62532,95.179434 c 0,1.81327 -1.06186,3.78178 -2.5788,4.54025 -1.21003,0.606776 -1.96145,0.758466 -4.07812,0.758466 l -8.93586,0 0,-10.593916 8.93586,0 c 2.11667,0 2.86809,0.1517 4.07812,0.75495 1.51694,0.90663 2.5788,2.72344 2.5788,4.54025 m 6.95678,0 c 0,-4.38856 -2.87161,-8.93234 -6.65339,-10.74562 -2.12372,-1.05833 -4.38855,-1.36172 -7.87753,-1.36172 l -14.82725,0 0,43.134146 6.80861,0 0,-18.76778 8.01864,0 c 3.33728,0 5.9055,-0.60678 7.87753,-1.51342 3.78178,-1.66511 6.65339,-6.205356 6.65339,-10.745606 m -40.16023,31.026806 0,-43.134146 -6.80861,0 -9.99067,24.211146 -9.98361,-24.211146 -6.81567,0 0,43.134146 6.81567,0 0,-24.97314 9.98361,24.97314 9.99067,-24.97314 0,24.97314 6.80861,0 z M 99.18,110.76516 l 0,-27.693066 -6.82272,0 0,27.693066 c 0,5.60211 -3.18206,9.23219 -7.87401,9.23219 -4.69194,0 -7.86341,-3.63008 -7.86341,-9.23219 l 0,-27.693066 -6.81567,0 0,27.693066 c 0,3.33022 0.75141,6.35353 1.96497,8.93233 2.27542,4.23686 7.42245,7.28839 12.71411,7.28839 5.29873,0 10.44576,-3.05153 12.71765,-7.28839 1.21355,-2.5788 1.97908,-5.60211 1.97908,-8.93233 m -43.95965,3.48191 c 0,3.33023 -1.82033,4.99181 -5.29872,4.99181 l -10.29406,0 0,-11.80042 8.63247,0 c 1.50989,0 1.97203,0 2.87161,0.29986 2.42006,0.90664 4.0887,3.63714 4.0887,6.50875 M 54.31018,94.272794 c 0,1.9685 -0.91016,3.78178 -2.42711,4.9918 -1.20297,0.910166 -2.11314,1.213556 -4.07811,1.213556 l -8.17739,0 0,-10.593916 9.99067,0 c 3.0233,0 4.69194,1.50989 4.69194,4.38856 m 7.87401,19.822586 c 0,-4.69195 -2.57528,-8.32203 -7.11553,-10.44223 4.08516,-2.26836 6.05014,-5.446886 6.05014,-9.683746 0,-6.20536 -5.13998,-10.89731 -11.95565,-10.89731 l -16.34419,0 0,43.134146 16.34419,0 c 1.9685,0 4.54731,-0.45508 6.0572,-1.06186 4.08517,-1.66864 6.96384,-6.35706 6.96384,-11.049"
     style="fill:#000000;fill-opacity:1;fill-rule:evenodd;stroke:none"
     id="path6148"
     inkscape:connector-curvature="0" />
</svg>
