<?xml version="1.0" encoding="UTF-8" standalone="no"?>
<!-- Generator: Adobe Illustrator 12.0.1, SVG Export Plug-In  -->

<svg
   xmlns:dc="http://purl.org/dc/elements/1.1/"
   xmlns:cc="http://creativecommons.org/ns#"
   xmlns:rdf="http://www.w3.org/1999/02/22-rdf-syntax-ns#"
   xmlns:svg="http://www.w3.org/2000/svg"
   xmlns="http://www.w3.org/2000/svg"
   xmlns:sodipodi="http://sodipodi.sourceforge.net/DTD/sodipodi-0.dtd"
   xmlns:inkscape="http://www.inkscape.org/namespaces/inkscape"
   version="1.1"
   width="309.78125"
   height="124.8125"
   viewBox="-1 0 309.78125 124.8125"
   enable-background="new -1 0 289 288"
   xml:space="preserve"
   id="svg2"
   inkscape:version="0.48.2 r9819"
   sodipodi:docname="AJAX1.svg"><metadata
   id="metadata22"><rdf:RDF><cc:Work
       rdf:about=""><dc:format>image/svg+xml</dc:format><dc:type
         rdf:resource="http://purl.org/dc/dcmitype/StillImage" /><dc:title /></cc:Work></rdf:RDF></metadata><sodipodi:namedview
   pagecolor="#ffffff"
   bordercolor="#666666"
   borderopacity="1"
   objecttolerance="10"
   gridtolerance="10"
   guidetolerance="10"
   inkscape:pageopacity="0"
   inkscape:pageshadow="2"
   inkscape:window-width="1280"
   inkscape:window-height="1004"
   id="namedview20"
   showgrid="false"
   fit-margin-top="0"
   fit-margin-left="0"
   fit-margin-right="0"
   fit-margin-bottom="0"
   inkscape:zoom="1.1588695"
   inkscape:cx="148.3412"
   inkscape:cy="-16.920554"
   inkscape:window-x="-8"
   inkscape:window-y="-8"
   inkscape:window-maximized="1"
   inkscape:current-layer="svg2"
   showguides="true"
   inkscape:guide-bbox="true"><sodipodi:guide
     orientation="0,1"
     position="-1129.377,-3612.6033"
     id="guide2987" /></sodipodi:namedview>
<defs
   id="defs4">
</defs>







<path
   inkscape:connector-curvature="0"
   d="m 308.03622,104.79627 c 0,10.5975 -8.67,19.2675 -19.2675,19.2675 l -269.749979,0 c -10.5974976,0 -19.26874758,-8.67001 -19.26874758,-19.2675 l 0,-84.77877 C -0.25000658,9.42 8.4212434,0.75 19.018741,0.75 l 269.749979,0 c 10.5975,0 19.2675,8.67 19.2675,19.2675 l 0,84.77877 z"
   style="fill:#ffffff;fill-opacity:1;fill-rule:nonzero;stroke:#000000;stroke-width:1.5;stroke-miterlimit:4;stroke-opacity:1;stroke-dasharray:none"
   id="path4620" /><path
   inkscape:connector-curvature="0"
   d="m 288.76822,5.88788 -269.749979,0 c -7.77125,0 -14.1299976,6.35875 -14.1299976,14.13 l 0,84.77876 c 0,7.77125 6.3587476,14.13001 14.1299976,14.13001 l 269.749979,0 c 7.77125,0 14.13,-6.35875 14.13,-14.13001 l 0,-84.77876 c 0,-7.77125 -6.35875,-14.13 -14.13,-14.13 m 6.4225,98.90876 c 0,3.53251 -2.89,6.4225 -6.4225,6.4225 l -269.749979,0 c -3.5325,0 -6.4225,-2.88999 -6.4225,-6.4225 l 0,-84.77876 c 0,-3.5325 2.89,-6.4225 6.4225,-6.4225 l 269.749979,0 c 3.5325,0 6.4225,2.89 6.4225,6.4225 l 0,84.77876 z"
   style="fill:#000000;fill-opacity:1;fill-rule:nonzero;stroke:none"
   id="path4628" /><path
   d="m 155.49073,82.960767 0,-41.107501 5.9075,0 0,35.626251 15.0425,0 0,5.48125 -20.95,0 z"
   style="fill:#000000;fill-opacity:1;fill-rule:nonzero;stroke:none"
   id="path3402"
   inkscape:connector-curvature="0" /><path
   d="m 199.21673,82.960767 -2.8625,-11.26625 -8.83,0 -2.74125,11.26625 -5.9075,0 10.23125,-41.107501 5.78625,0 10.23125,41.107501 -5.9075,0 z m -7.36875,-28.866251 -2.8625,11.875001 5.9075,0 -3.045,-11.875001 z"
   style="fill:#000000;fill-opacity:1;fill-rule:nonzero;stroke:none"
   id="path3406"
   inkscape:connector-curvature="0" /><path
   d="m 229.54435,82.960767 -12.72875,-27.527501 0,27.527501 -5.9075,0 0,-41.107501 5.9075,0 11.2675,24.665001 0,-24.665001 5.9075,0 0,41.107501 -4.44625,0 z"
   style="fill:#000000;fill-opacity:1;fill-rule:nonzero;stroke:none"
   id="path3410"
   inkscape:connector-curvature="0" /><path
   d="m 243.00322,82.960767 0,-41.107501 19.36625,0 0,5.785 -13.45875,0 0,10.35375 8.52625,0 0,5.663751 -8.52625,0 0,13.52 15.0425,0 0,5.785 -20.95,0 z"
   style="fill:#000000;fill-opacity:1;fill-rule:nonzero;stroke:none"
   id="path3414"
   inkscape:connector-curvature="0" /><path
   d="m 55.952726,82.960767 -12.11875,0 0,-41.107501 12.97125,0 c 5.48125,0 9.37875,4.32375 9.37875,10.6575 0,3.77625 -0.975,5.48125 -4.32375,8.952501 3.16625,2.61875 5.055,6.09 5.055,10.23125 0,6.21125 -4.8725,11.26625 -10.9625,11.26625 m 0,-35.322501 -6.21125,0 0,10.9625 6.21125,0 c 2.74,0 4.50625,-2.31375 4.50625,-6.09 0,-3.47125 -1.33875,-4.8725 -4.50625,-4.8725 m -0.305,16.687501 -5.90625,0 0,12.85 5.90625,0 c 3.35,0 5.48125,-2.315 5.48125,-5.9075 0,-3.8975 -2.43625,-6.9425 -5.48125,-6.9425"
   style="fill:#000000;fill-opacity:1;fill-rule:nonzero;stroke:none"
   id="path3418"
   inkscape:connector-curvature="0" /><path
   d="m 95.415589,77.90603 c -1.94875,3.35 -5.9075,5.78625 -9.805,5.78625 -4.018751,0 -8.100001,-2.315 -10.108751,-5.78625 -1.1575,-2.13125 -1.58375,-3.8975 -1.58375,-7.18625 l 0,-28.866251 5.9075,0 0,29.536251 c 0,3.8975 2.313751,6.51625 5.785001,6.51625 3.16625,0 5.48125,-2.61875 5.48125,-6.51625 l 0,-29.536251 5.9075,0 0,28.866251 c 0,3.28875 -0.36625,5.055 -1.58375,7.18625"
   style="fill:#000000;fill-opacity:1;fill-rule:nonzero;stroke:none"
   id="path3422"
   inkscape:connector-curvature="0" /><path
   d="m 115.5126,83.691655 c -7.18625,0 -11.57125,-6.09 -11.57125,-12.85 l 5.78625,0 c 0,3.47125 1.765,7.06375 5.785,7.06375 3.16625,0 5.785,-2.86125 5.785,-6.21125 0,-4.8725 -4.20125,-6.51625 -10.23125,-10.77875 -3.65375,-2.618751 -5.05375,-5.481251 -5.05375,-9.135001 0,-5.9075 4.5675,-10.65875 10.535,-10.65875 5.725,0 10.23125,4.5075 10.35375,10.65875 l -5.60375,0 c -0.1825,-2.8625 -2.1925,-4.75125 -4.75,-4.75125 -2.74,0 -4.9325,2.01 -4.9325,4.75125 0,2.07 0.8525,3.16625 3.8975,4.9325 7.9175,4.567501 11.38875,9.073751 11.38875,14.981251 0,6.63875 -5.055,11.9975 -11.38875,11.9975"
   style="fill:#000000;fill-opacity:1;fill-rule:nonzero;stroke:none"
   id="path3426"
   inkscape:connector-curvature="0" /></svg>