<?xml version="1.0" encoding="UTF-8" standalone="no"?>
<svg
   xmlns:dc="http://purl.org/dc/elements/1.1/"
   xmlns:cc="http://creativecommons.org/ns#"
   xmlns:rdf="http://www.w3.org/1999/02/22-rdf-syntax-ns#"
   xmlns:svg="http://www.w3.org/2000/svg"
   xmlns="http://www.w3.org/2000/svg"
   xmlns:sodipodi="http://sodipodi.sourceforge.net/DTD/sodipodi-0.dtd"
   xmlns:inkscape="http://www.inkscape.org/namespaces/inkscape"
   width="89.999062"
   height="90.00563"
   viewBox="0 0 253.99739 254.01588"
   version="1.1"
   id="svg2"
   inkscape:version="0.48.2 r9819"
   sodipodi:docname="AJAX1.svg">
  <metadata
     id="metadata62">
    <rdf:RDF>
      <cc:Work
         rdf:about="">
        <dc:format>image/svg+xml</dc:format>
        <dc:type
           rdf:resource="http://purl.org/dc/dcmitype/StillImage" />
        <dc:title></dc:title>
      </cc:Work>
    </rdf:RDF>
  </metadata>
  <defs
     id="defs60" />
  <sodipodi:namedview
     pagecolor="#ffffff"
     bordercolor="#666666"
     borderopacity="1"
     objecttolerance="10"
     gridtolerance="10"
     guidetolerance="10"
     inkscape:pageopacity="0"
     inkscape:pageshadow="2"
     inkscape:window-width="1280"
     inkscape:window-height="1004"
     id="namedview58"
     showgrid="false"
     fit-margin-top="0"
     fit-margin-left="0"
     fit-margin-right="0"
     fit-margin-bottom="0"
     inkscape:zoom="5.8194445"
     inkscape:cx="37.23858"
     inkscape:cy="61.338885"
     inkscape:window-x="-8"
     inkscape:window-y="-8"
     inkscape:window-maximized="1"
     inkscape:current-layer="svg2"
     showguides="true"
     inkscape:guide-bbox="true" />
  <!-- draw the bicycle -->
  <!-- RIGHT -->
  <!-- LANE -->
  <!-- ONLY -->
  <path
     inkscape:connector-curvature="0"
     d="M 3.63273,118.20263 118.18675,3.6379998 c 4.84716,-4.8507 12.77761,-4.8507 17.62478,0 L 250.36201,118.20263 c 4.84717,4.84364 4.84717,12.77408 0,17.62478 L 135.81153,250.37789 c -4.84717,4.8507 -12.77762,4.8507 -17.62478,0 L 3.63273,135.82741 c -4.84364,-4.8507 -4.84364,-12.78114 0,-17.62478"
     style="fill:#fecf33;fill-opacity:1;fill-rule:nonzero;stroke:none"
     id="path5867" />
  <path
     inkscape:connector-curvature="0"
     d="M 6.39569,120.02158 120.00778,6.4023998 c 3.84528,-3.8453 10.13531,-3.8453 13.98412,0 L 247.60047,120.02158 c 3.84528,3.84528 3.84528,10.13531 0,13.98058 L 133.9919,247.61426 c -3.84881,3.84528 -10.13884,3.84528 -13.98412,0 L 6.39569,134.00216 c -3.84528,-3.84527 -3.84528,-10.1353 0,-13.98058"
     style="fill:#000000;fill-opacity:1;fill-rule:evenodd;stroke:none"
     id="path5891" />
  <path
     inkscape:connector-curvature="0"
     d="M 9.94746,123.52184 123.50311,9.9520998 c 1.91911,-1.9227 5.06942,-1.9227 6.98853,0 L 244.04729,123.52184 c 1.92264,1.92264 1.92264,5.06589 0,6.985 L 130.49164,244.06602 c -1.91911,1.92264 -5.06942,1.92264 -6.98853,0 L 9.94746,130.50684 c -1.92264,-1.91911 -1.92264,-5.06236 0,-6.985"
     style="fill:#fecf33;fill-opacity:1;fill-rule:evenodd;stroke:none"
     id="path5895" />
  <path
     d="m 56.167183,116.2768 c -0.575028,-1.41111 -2.30364,-3.75356 -0.948973,-5.21053 1.524001,-2.09197 4.092223,-3.29494 5.969001,-5.03414 2.141362,-1.98261 3.778251,-4.20511 5.520973,-6.519333 1.312334,-2.102556 3.707695,-3.203222 5.665612,-4.572 -4.155723,-0.141112 -10.20939,1.601611 -11.105446,-4.152196 0.151694,-1.823861 2.9845,0.691445 3.996973,0.857251 2.278944,0.363361 4.691945,-0.303389 6.882695,-0.864306 1.665112,-0.419806 3.651251,-1.259417 5.358695,-0.670278 2.046112,0.705556 2.007306,2.409473 3.312584,3.739445 1.252362,1.277056 4.589641,-0.913695 5.866697,-1.372306 2.307167,-1.689806 2.44475,3.090334 0.821972,4.106334 -0.486833,0.306917 -3.510139,1.171223 -1.481667,1.989667 2.106084,0.705556 4.265084,1.277056 6.469946,1.559282 2.9845,0.381 5.785556,-0.0141 8.692445,-0.666754 2.64936,-0.596194 4.88597,-0.490361 7.54592,0.01058 5.75733,1.090081 11.32064,2.134311 17.18733,2.370671 10.91495,0.43744 21.86517,-0.54681 32.75896,-1.17123 4.36033,-0.24694 8.71008,-1.238246 13.06336,-1.329969 2.06728,-0.04233 3.98992,0.567973 6.02897,0.723199 2.02495,0.15875 4.40267,-0.412754 5.91256,1.22061 6.76628,4.93183 6.6675,13.64192 6.31825,21.18078 -0.17992,3.93347 -1.74978,8.98525 1.34408,12.07911 2.4377,2.44475 6.36411,4.80836 3.96875,8.94998 -1.08302,1.85913 1.32998,7.82461 -0.85019,7.84225 -3.16089,0.0282 -3.31259,-3.77825 -3.49956,-5.96195 -0.254,-3.00567 -2.58233,-5.19642 -3.89819,-7.74347 -1.05481,-2.03906 -0.28222,-4.89303 -0.22225,-7.10495 0.0705,-2.49414 0.007,-4.99886 -0.17286,-7.48947 -0.1905,-2.65289 -0.508,-5.30931 -1.05128,-7.91634 -0.31045,-1.46755 -0.87136,-5.72558 -2.34597,-6.54755 -0.26812,-0.1517 0.91722,5.34105 1.06186,5.95489 1.01247,2.72697 1.35114,5.62328 1.27705,8.51958 -0.11994,4.71664 -1.71803,9.78606 -1.26294,14.46389 0.20814,2.159 1.85561,3.12209 2.93511,4.79073 1.32292,2.03905 0.30339,3.89114 -0.37747,5.94078 -1.73567,5.16819 -0.80081,10.37166 -0.11289,15.62805 0.19403,1.43934 1.63336,4.66373 0.19403,5.76087 -1.96145,1.50283 0.0847,3.69358 -1.01953,5.64444 -0.94897,1.67922 -12.29784,2.30011 -11.47939,-0.0847 1.54516,-1.50989 3.79589,-2.21897 4.8648,-4.20864 1.0407,-1.92969 1.19945,-4.81542 1.3582,-6.96736 0.37042,-4.98828 -0.98425,-11.46528 -4.63197,-15.1765 -2.43064,4.318 -4.25098,8.09978 -5.06942,13.02808 -0.31045,1.84503 -0.35278,4.38856 -1.28059,6.04309 -0.889,1.59102 -2.61408,0.88194 -2.97038,3.19616 -0.12348,0.76553 -0.11642,1.53459 -0.1517,2.30717 -1.25589,0.30339 -2.52236,0.5327 -3.79589,0.69145 -1.70392,0.20461 -4.99533,1.01952 -6.58989,0.28927 -1.30175,-0.60678 4.20511,-4.9918 4.84011,-5.83141 2.25778,-3.02331 3.24203,-6.8192 4.93889,-10.17765 0.8255,-1.65805 1.25942,-4.53319 0.56445,-6.30413 -0.55739,-1.41817 -2.82575,-0.31045 -3.175,0.71261 -1.58398,4.51202 -2.83986,-0.58914 -5.78203,-0.11289 -1.10772,-0.21167 -1.33703,1.82739 -2.55059,1.96497 -0.92075,0.10231 -1.49225,-0.70203 -1.59102,-1.50283 -0.13759,-1.11478 -1.2065,-1.59103 -2.06728,-2.15548 -1.41111,-0.92427 -2.98803,-1.94027 -4.15925,-3.16794 -1.0407,-1.09361 -3.05506,-0.37042 -4.40973,-0.35631 -4.09575,0.0459 -7.87753,-1.13241 -11.84628,-1.8415 -2.57527,-0.45508 -6.3253,-0.73025 -8.75947,0.44098 -3.83822,1.84855 -3.32317,9.16164 -3.40078,12.64708 -0.0494,2.21897 -0.3563,4.77661 0.0953,6.96031 0.33514,1.61925 1.79564,3.43253 0.99484,5.13291 -0.37042,0.80434 -1.49931,0.3175 -1.95439,1.09714 -0.34573,0.59973 -0.37395,1.51342 -0.48684,2.1837 -0.44802,2.65289 -4.10633,2.02494 -6.30414,2.27894 -0.39511,0.0423 -6.51228,0.93839 -4.74486,-0.96308 1.53459,-1.35819 3.34786,-2.38478 4.55084,-4.08164 1.98966,-2.79753 2.21897,-7.14375 1.87677,-10.41753 -0.27516,-2.58233 -1.12536,-4.99533 -1.8803,-7.46831 -1.8415,2.44123 -3.24556,6.42762 -3.63009,9.51442 -0.254,2.02847 0.15875,5.87023 -0.83608,7.51064 -0.32103,0.5327 -1.51342,-0.0212 -1.91558,0.94545 -0.33514,0.80433 -0.14111,2.08139 -0.62089,2.79753 -0.65264,0.97013 -7.747004,0.45508 -9.034643,0.508 -0.440972,-2.98803 2.783417,-3.42195 4.642556,-4.91773 2.719917,-2.19075 2.952747,-9.23219 2.278947,-12.36839 -0.67733,-3.16794 -1.36525,-5.4998 -1.19945,-8.80886 0.0952,-1.94381 -3.975803,-0.635 -5.369275,-1.41111 -2.409473,-1.35819 -2.448278,-4.38503 -3.160889,-6.74158 -1.044223,-3.47134 -3.312584,-6.51581 -5.450418,-9.38389 -3.305528,-4.43795 -6.536974,-11.28889 -12.640031,-12.1532 -2.959806,-0.41981 -6.074834,0.21167 -9.055807,0.16581 -2.465916,-0.0459 -7.6835,-0.0423 -8.815917,-2.8187"
     style="fill:#000000;fill-opacity:1;fill-rule:evenodd;stroke:none"
     id="path5759"
     inkscape:connector-curvature="0" />
</svg>
