<?xml version="1.0" encoding="UTF-8" standalone="no"?>
<!-- Generator: Adobe Illustrator 14.0.0, SVG Export Plug-In  -->

<svg
   xmlns:dc="http://purl.org/dc/elements/1.1/"
   xmlns:cc="http://creativecommons.org/ns#"
   xmlns:rdf="http://www.w3.org/1999/02/22-rdf-syntax-ns#"
   xmlns:svg="http://www.w3.org/2000/svg"
   xmlns="http://www.w3.org/2000/svg"
   xmlns:sodipodi="http://sodipodi.sourceforge.net/DTD/sodipodi-0.dtd"
   xmlns:inkscape="http://www.inkscape.org/namespaces/inkscape"
   version="1.1"
   x="0px"
   y="0px"
   width="50.699989"
   height="70.668739"
   viewBox="0 -0.321 50.699991 70.668754"
   enable-background="new 0 -0.321 144 120"
   xml:space="preserve"
   id="svg2"
   inkscape:version="0.48.2 r9819"
   sodipodi:docname="AJAX1.svg"><metadata
   id="metadata44"><rdf:RDF><cc:Work
       rdf:about=""><dc:format>image/svg+xml</dc:format><dc:type
         rdf:resource="http://purl.org/dc/dcmitype/StillImage" /><dc:title /></cc:Work></rdf:RDF></metadata><sodipodi:namedview
   pagecolor="#ffffff"
   bordercolor="#666666"
   borderopacity="1"
   objecttolerance="10"
   gridtolerance="10"
   guidetolerance="10"
   inkscape:pageopacity="0"
   inkscape:pageshadow="2"
   inkscape:window-width="1280"
   inkscape:window-height="1004"
   id="namedview42"
   showgrid="false"
   fit-margin-top="0.1"
   fit-margin-left="0.1"
   fit-margin-right="0.1"
   fit-margin-bottom="0.1"
   inkscape:zoom="5.3605324"
   inkscape:cx="16.343214"
   inkscape:cy="36.76654"
   inkscape:window-x="-8"
   inkscape:window-y="-8"
   inkscape:window-maximized="1"
   inkscape:current-layer="svg2" />
<defs
   id="defs4">
</defs>


















<path
   inkscape:connector-curvature="0"
   d="m 3.68534,0.01443002 43.323762,0 c 1.8325,0 3.3325,1.49999998 3.3325,3.33249998 l 0,63.31752 c 0,1.83375 -1.5,3.3325 -3.3325,3.3325 l -43.323762,0 c -1.83125,0 -3.33249991,-1.49875 -3.33249991,-3.3325 l 0,-63.31752 c 0,-1.8325 1.50124991,-3.33249998 3.33249991,-3.33249998"
   style="fill:#ffffff;fill-opacity:1;fill-rule:nonzero;stroke:#000000;stroke-width:0.50000012;stroke-miterlimit:4;stroke-opacity:1;stroke-dasharray:none"
   id="path8137" /><path
   inkscape:connector-curvature="0"
   d="m 3.86409,0.88106002 42.966262,0 c 1.455,0 2.64375,1.19124998 2.64375,2.64749998 l 0,62.95502 c 0,1.455 -1.18875,2.64625 -2.64375,2.64625 l -42.966262,0 c -1.45375,0 -2.64375,-1.19125 -2.64375,-2.64625 l 0,-62.95502 c 0,-1.45625 1.19,-2.64749998 2.64375,-2.64749998"
   style="fill:#000000;fill-opacity:1;fill-rule:evenodd;stroke:none"
   id="path8145" /><path
   inkscape:connector-curvature="0"
   d="m 48.141602,22.51195 0,43.96126 c 0,0.72875 -0.595,1.32375 -1.32125,1.32375 l -42.946262,0 c -0.72625,0 -1.32125,-0.595 -1.32125,-1.32375 l 0,-43.96126 45.588762,0 z"
   style="fill:#ffffff;fill-opacity:1;fill-rule:evenodd;stroke:none"
   id="path8149" /><path
   inkscape:connector-curvature="0"
   d="m 41.055102,59.79157 -1.0075,0 0,6.24376 1.0075,0 0,-6.24376 z m -3.15375,1.7525 c 0,0.2625 -0.155,0.525 -0.39625,0.6575 -0.1525,0.0875 -0.2625,0.11 -0.56875,0.11 l -1.18375,0 0,-1.53375 1.18375,0 c 0.3275,0 0.41625,0.0213 0.56875,0.10875 0.24125,0.1325 0.39625,0.395 0.39625,0.6575 m 1.11625,4.49126 -1.095,-2.91376 c 0.56875,-0.2625 0.96375,-0.92 0.96375,-1.5775 0,-0.635 -0.395,-1.2925 -0.9425,-1.55625 -0.30625,-0.1525 -0.63375,-0.19625 -1.1175,-0.19625 l -2.06,0 0,6.24376 0.98625,0 0,-2.71751 1.18375,0 1.0075,2.71751 1.07375,0 z m -5.1725,-5.25751 0,-0.98625 -3.8775,0 0,6.24376 0.98625,0 0,-2.71751 1.82,0 0,-1.00625 -1.82,0 0,-1.53375 2.89125,0 z m -4.7975,1.68625 -2.19,0 0,0.98625 2.19,0 0,-0.98625 z m -3.1125,3.57126 0,-6.24376 -0.985,0 0,3.98875 -2.27875,-3.98875 -0.98625,0 0,6.24376 0.98625,0 0,-4.22876 2.38875,4.22876 0.875,0 z m -6.59375,-3.11001 c 0,0.48125 -0.11,1.095 -0.24125,1.42375 -0.21875,0.5475 -0.50375,0.78875 -0.965,0.78875 -0.39376,0 -0.65626,-0.1525 -0.85501,-0.4825 -0.24125,-0.395 -0.3725,-1.07375 -0.3725,-1.73 0,-0.52625 0.0888,-1.09625 0.24125,-1.46875 0.22,-0.5475 0.5275,-0.78875 1.00876,-0.7675 0.3725,0.0225 0.61375,0.155 0.81,0.4825 0.24125,0.41625 0.37375,1.05125 0.37375,1.75375 m 0.985,0 c 0,-0.78875 -0.1525,-1.57875 -0.41625,-2.12625 -0.39375,-0.76625 -0.9425,-1.1175 -1.73125,-1.1175 -0.72251,0 -1.22501,0.22 -1.59876,0.70125 -0.41625,0.59125 -0.67875,1.51125 -0.67875,2.5425 0,0.745 0.17375,1.5775 0.4375,2.10375 0.3725,0.76501 0.92,1.12126 1.79626,1.12126 0.6575,0 1.1625,-0.22375 1.51125,-0.70625 0.44,-0.54751 0.68,-1.53376 0.68,-2.51876 m -5.78501,3.11001 0,-6.24376 -0.98625,0 -1.445,3.505 -1.44625,-3.505 -0.986252,0 0,6.24376 0.986252,0 0,-3.61501 1.44625,3.61501 1.445,-3.61501 0,3.61501 0.98625,0 z"
   style="fill:#000000;fill-opacity:1;fill-rule:evenodd;stroke:none"
   id="path8159" /><path
   inkscape:connector-curvature="0"
   d="m 17.862842,28.8212 c 0,0.6425 -0.14625,1.46125 -0.32125,1.89875 -0.2925,0.73125 -0.67375,1.0525 -1.28625,1.0525 -0.525,0 -0.87625,-0.205 -1.13875,-0.64375 -0.32125,-0.525 -0.49625,-1.43125 -0.49625,-2.3075 0,-0.70125 0.115,-1.46125 0.32,-1.9575 0.29375,-0.73 0.70125,-1.05125 1.345,-1.0225 0.49625,0.03 0.8175,0.205 1.08,0.6425 0.32125,0.55625 0.4975,1.4025 0.4975,2.3375 m 1.31376,0 c 0,-1.05125 -0.20375,-2.10375 -0.55375,-2.83375 -0.52625,-1.0225 -1.25751,-1.49 -2.30876,-1.49 -0.96375,0 -1.63625,0.2925 -2.1325,0.935 -0.555,0.78875 -0.90625,2.01625 -0.90625,3.38875 0,0.99375 0.235,2.10375 0.585,2.805 0.49625,1.0225 1.2275,1.495 2.395,1.495 0.87625,0 1.54875,-0.2975 2.01501,-0.94 0.585,-0.73 0.90625,-2.045 0.90625,-3.36 m -8.88001,-0.0287 c 0,1.11 -0.262502,2.015 -0.760002,2.5125 -0.23375,0.23375 -0.4975,0.32125 -0.935,0.32125 l -1.31375,0 0,-5.66875 1.48875,0 c 0.35,0 0.6425,0.1475 0.8475,0.35125 0.41,0.43875 0.672502,1.37375 0.672502,2.48375 m 1.34375,0 c 0,-1.63625 -0.4975,-2.95125 -1.37375,-3.71125 -0.437502,-0.35 -0.758752,-0.4375 -1.606252,-0.4375 l -2.6875,0 0,8.32625 2.54125,0 0.4675,0 c 0.4375,-0.0287 0.8775,-0.175 1.198752,-0.4675 0.93375,-0.73 1.46,-2.045 1.46,-3.71"
   style="fill:#000000;fill-opacity:1;fill-rule:evenodd;stroke:none"
   id="path8163" /><path
   inkscape:connector-curvature="0"
   d="m 34.974102,44.68544 0,-1.34375 -3.8575,0 0,-2.27875 2.42375,0 0,-1.34375 -2.42375,0 0,-2.045 3.59375,0 0,-1.315 -4.9075,0 0,8.32625 5.17125,0 z m -6.54625,-2.395 c 0,-3.27125 -3.9125,-2.24875 -4.03,-3.7975 -0.0587,-0.76 0.6725,-0.99375 1.285,-0.965 0.935,0.0288 1.2275,0.73 1.2275,0.73 l 1.16875,-0.35 c -0.41,-1.0225 -1.19875,-1.69375 -2.365,-1.69375 -1.4925,0 -2.6025,0.6125 -2.6025,2.24875 0,1.37375 1.11,1.87 1.6075,2.075 1.08,0.4375 2.36625,0.6125 2.36625,1.7225 0,0.70125 -0.52625,1.2275 -1.28625,1.2275 -0.7875,0 -1.43125,-0.4375 -1.78125,-1.2275 l -1.25625,0.46875 c 0.555,1.255 1.60625,2.10875 3.0375,2.10875 0.7025,0 1.345,-0.23875 1.81125,-0.64875 0.5275,-0.4675 0.8175,-1.13875 0.8175,-1.89875 m -7.03875,-0.58375 0,-5.3475 -1.315,0 0,5.3475 c 0,1.08 -0.6125,1.78125 -1.51875,1.78125 -0.90626,0 -1.52001,-0.70125 -1.52001,-1.78125 l 0,-5.3475 -1.315,0 0,5.3475 c 0,0.6425 0.1475,1.2275 0.38125,1.72375 0.4375,0.8175 1.43125,1.4075 2.45376,1.4075 1.02125,0 2.015,-0.59 2.45375,-1.4075 0.2325,-0.49625 0.38,-1.08125 0.38,-1.72375"
   style="fill:#000000;fill-opacity:1;fill-rule:evenodd;stroke:none"
   id="path8167" /><path
   inkscape:connector-curvature="0"
   d="m 22.069102,50.47157 c 0,0.67125 -0.675,1.1975 -1.51875,1.1975 -0.82125,0 -1.4925,-0.52625 -1.4925,-1.1975 0,-0.6725 0.67125,-1.19875 1.4925,-1.19875 0.81625,0 1.51875,0.55625 1.51875,1.19875 m 1.3125,0.11625 c 0,-1.52 -1.22625,-2.65875 -2.83125,-2.65875 -1.58,0 -2.83501,1.11 -2.83501,2.5425 0,1.4025 1.28501,2.54125 2.83501,2.54125 0.32,0 0.525,-0.0288 0.99125,-0.1175 -0.49625,1.08125 -1.0225,1.75375 -2.015,2.5425 l 0.6425,1.115 c 1.92875,-1.32 3.2125,-3.68625 3.2125,-5.965 m -6.71876,1.05125 -2.92125,0 0,1.315 2.92125,0 0,-1.315 z m -3.76875,-2.25 0,-1.31375 -5.637502,0 0,1.31375 3.972502,0 c -0.29125,0.46875 -0.6425,1.0825 -0.93375,1.725 -0.820002,1.7525 -1.168752,3.35875 -1.198752,5.2875 l 1.343752,0 c 0,-0.8175 0.0588,-1.34375 0.175,-2.045 0.26375,-1.34375 0.81875,-2.74625 1.54875,-3.9725 0.26375,-0.43875 0.43875,-0.615 0.73,-0.995"
   style="fill:#000000;fill-opacity:1;fill-rule:evenodd;stroke:none"
   id="path8171" /><path
   inkscape:connector-curvature="0"
   d="m 44.722852,25.81207 0,-1.16875 -5.1425,0 0,1.16875 1.89875,0 0,7.1575 1.315,0 0,-7.1575 1.92875,0 z m -7.53875,3.00875 c 0,0.6425 -0.14625,1.46125 -0.32125,1.9 -0.29125,0.73 -0.67125,1.05125 -1.285,1.05125 -0.52625,0 -0.87625,-0.205 -1.13875,-0.64375 -0.3225,-0.525 -0.49625,-1.43125 -0.49625,-2.3075 0,-0.7 0.115,-1.46 0.32,-1.9575 0.2925,-0.73 0.70125,-1.05125 1.345,-1.0225 0.49625,0.03 0.8175,0.205 1.08,0.64375 0.3225,0.555 0.49625,1.40125 0.49625,2.33625 m 1.315,0 c 0,-1.05125 -0.20375,-2.1025 -0.555,-2.83375 -0.52375,-1.0225 -1.25625,-1.49 -2.30875,-1.49 -0.96375,0 -1.635,0.2925 -2.13125,0.935 -0.555,0.78875 -0.90625,2.01625 -0.90625,3.38875 0,0.99375 0.235,2.10375 0.585,2.805 0.4975,1.0225 1.22625,1.495 2.395,1.495 0.8775,0 1.54875,-0.2975 2.015,-0.94 0.58625,-0.73 0.90625,-2.045 0.90625,-3.36 m -7.6825,4.14875 0,-8.32625 -1.315,0 0,5.3175 -3.03875,-5.3175 -1.31375,0 0,8.32625 1.31375,0 0,-5.63875 3.185,5.63875 1.16875,0 z"
   style="fill:#000000;fill-opacity:1;fill-rule:evenodd;stroke:none"
   id="path8175" /><path
   inkscape:connector-curvature="0"
   d="m 43.462852,56.40107 0,-8.32625 -1.315,0 -1.92875,4.675 -1.9275,-4.675 -1.315,0 0,8.32625 1.315,0 0,-4.82 1.9275,4.82 1.92875,-4.82 0,4.82 1.315,0 z m -10.43,-3.68 -1.665,0 0.8475,-2.3375 0.8175,2.3375 z m 2.6875,3.68 -2.86375,-8.32625 -1.3125,0 -2.86375,8.32625 1.40125,0 0.82,-2.33625 2.59875,0 0.8175,2.33625 1.4025,0 z"
   style="fill:#000000;fill-opacity:1;fill-rule:evenodd;stroke:none"
   id="path8179" /><path
   inkscape:connector-curvature="0"
   d="m 41.619222,5.64856 c 0,0.46 -0.34875,0.7675 -0.89625,0.7675 l -1.77625,0 0,-1.55625 1.77625,0 c 0.5475,0 0.89625,0.30625 0.89625,0.78875 m 1.25,4.33875 -1.14,-2.67375 c 0.6375,-0.35 1.00875,-0.96375 1.00875,-1.665 0,-0.70125 -0.37125,-1.315 -0.965,-1.64375 -0.3275,-0.19625 -0.6125,-0.2625 -1.07375,-0.2625 l -2.86875,0 0,6.245 1.11625,0 0,-2.45375 1.66625,0 1.00625,2.45375 1.25,0 z m -6.28875,0 0,-1.1175 -3.5275,0 0,-1.71 1.8625,0 0,-1.13875 -1.8625,0 0,-1.16125 3.41875,0 0,-1.1175 -4.55875,0 0,6.245 4.6675,0 z m -5.7175,-5.14875 0,-1.09625 -4.69,0 0,1.09625 1.79625,0 0,5.14875 1.09625,0 0,-5.14875 1.7975,0 z m -5.7425,5.14875 0,-6.245 -1.07375,0 0,4.12 -2.87125,-4.12 -1.095,0 0,6.245 1.095,0 0,-4.295 2.98,4.295 0.965,0 z m -6.28876,0 0,-1.1175 -3.52875,0 0,-1.71 1.86375,0 0,-1.13875 -1.86375,0 0,-1.16125 3.41875,0 0,-1.1175 -4.55875,0 0,6.245 4.66875,0 z m -6.09125,-1.27 -0.98625,-0.52625 c -0.5475,0.59125 -0.855,0.7875 -1.425,0.7875 -0.941252,0 -1.512502,-0.7875 -1.512502,-2.14625 0,-0.96375 0.37375,-2.0825 1.512502,-2.0825 0.33,0 0.74625,0.1325 0.9875,0.32875 0.175,0.11 0.26125,0.1975 0.4375,0.46125 l 0.98625,-0.52625 c -0.48375,-0.8775 -1.40125,-1.38 -2.41125,-1.38 -1.645002,0 -2.650002,1.24875 -2.650002,3.22 0,1.95 1.005,3.24625 2.650002,3.24625 1.01,0 1.95125,-0.5075 2.41125,-1.3825"
   style="fill:#ffffff;fill-opacity:1;fill-rule:evenodd;stroke:none"
   id="path8153" /><path
   inkscape:connector-curvature="0"
   d="m 37.269092,19.63169 0,-1.1175 -3.52875,0 0,-1.70875 1.86375,0 0,-1.14 -1.86375,0 0,-1.16126 3.41875,0 0,-1.1175 -4.55875,0 0,6.24501 4.66875,0 z m -6.29,0 0,-6.24501 -1.07125,0 0,4.12001 -2.87125,-4.12001 -1.09625,0 0,6.24501 1.09625,0 0,-4.29376 2.97875,4.29376 0.96375,0 z m -8.39125,-2.58625 -1.7525,0 0.87625,-2.10251 0.87625,2.10251 z m 2.3,2.58625 -2.6075,-6.24501 -1.13875,0 -2.62876,6.24501 1.22626,0 0.6125,-1.4675 2.7175,0 0.615,1.4675 1.20375,0 z m -6.85751,0 0,-0.96375 -3.55125,0 0,-5.28126 -1.11625,0 0,6.24501 4.6675,0 z"
   style="fill:#ffffff;fill-opacity:1;fill-rule:evenodd;stroke:none"
   id="path8157" /></svg>