<?xml version="1.0" encoding="UTF-8" standalone="no"?>
<svg
   xmlns:dc="http://purl.org/dc/elements/1.1/"
   xmlns:cc="http://creativecommons.org/ns#"
   xmlns:rdf="http://www.w3.org/1999/02/22-rdf-syntax-ns#"
   xmlns:svg="http://www.w3.org/2000/svg"
   xmlns="http://www.w3.org/2000/svg"
   xmlns:sodipodi="http://sodipodi.sourceforge.net/DTD/sodipodi-0.dtd"
   xmlns:inkscape="http://www.inkscape.org/namespaces/inkscape"
   width="114.20657"
   height="151.58846"
   viewBox="0 0 322.31638 427.81631"
   version="1.1"
   id="svg2"
   inkscape:version="0.48.2 r9819"
   sodipodi:docname="AJAX1.svg">
  <metadata
     id="metadata62">
    <rdf:RDF>
      <cc:Work
         rdf:about="">
        <dc:format>image/svg+xml</dc:format>
        <dc:type
           rdf:resource="http://purl.org/dc/dcmitype/StillImage" />
        <dc:title />
      </cc:Work>
    </rdf:RDF>
  </metadata>
  <defs
     id="defs60" />
  <sodipodi:namedview
     pagecolor="#ffffff"
     bordercolor="#666666"
     borderopacity="1"
     objecttolerance="10"
     gridtolerance="10"
     guidetolerance="10"
     inkscape:pageopacity="0"
     inkscape:pageshadow="2"
     inkscape:window-width="1280"
     inkscape:window-height="1004"
     id="namedview58"
     showgrid="false"
     fit-margin-top="0.2"
     fit-margin-left="0.2"
     fit-margin-right="0.2"
     fit-margin-bottom="0.2"
     inkscape:zoom="2.3372597"
     inkscape:cx="130.41606"
     inkscape:cy="58.881732"
     inkscape:window-x="-8"
     inkscape:window-y="-8"
     inkscape:window-maximized="1"
     inkscape:current-layer="svg2" />
  <!-- draw the bicycle -->
  <!-- RIGHT -->
  <!-- LANE -->
  <!-- ONLY -->
  <path
     inkscape:connector-curvature="0"
     d="m 299.80691,425.14063 -277.322208,0 c -5.22685,0 -10.34375,-2.08872 -14.0315201,-5.75652 -3.6678,-3.6478 -5.77652,-8.71472 -5.77652,-13.8716 l 0,-383.178371 c 0,-5.156787 2.10872,-10.213856 5.77652,-13.8816411 C 12.140952,4.794615 17.257852,2.6959787 22.484702,2.6959787 l 277.322208,0 c 5.20693,0 10.32378,2.0986363 13.99157,5.7565192 3.70775,3.6677851 5.84661,8.7248541 5.84661,13.8816411 l 0,383.178371 c 0,6.71592 -3.62785,13.09209 -9.35434,16.69992 -3.25816,2.06875 -6.70612,2.53845 -10.48384,2.9282"
     style="fill:#ffd033;fill-opacity:1;fill-rule:evenodd;stroke:#000000;stroke-width:4.23333406;stroke-miterlimit:4;stroke-opacity:1;stroke-dasharray:none"
     id="path3601" />
  <path
     inkscape:connector-curvature="0"
     d="M 161.12089,28.660362 14.209702,215.67726 161.12089,401.66482 l 146.9511,0.0697 -146.90113,-186.12748 145.99176,-186.947235 -146.04173,0 z"
     style="fill:#000000;fill-opacity:1;fill-rule:evenodd;stroke:none"
     id="path3609" />
</svg>
