<?xml version="1.0" encoding="UTF-8" standalone="no"?>
<svg
   xmlns:dc="http://purl.org/dc/elements/1.1/"
   xmlns:cc="http://creativecommons.org/ns#"
   xmlns:rdf="http://www.w3.org/1999/02/22-rdf-syntax-ns#"
   xmlns:svg="http://www.w3.org/2000/svg"
   xmlns="http://www.w3.org/2000/svg"
   xmlns:sodipodi="http://sodipodi.sourceforge.net/DTD/sodipodi-0.dtd"
   xmlns:inkscape="http://www.inkscape.org/namespaces/inkscape"
   width="89.999687"
   height="90.00032"
   viewBox="0 0 253.99915 254.00089"
   version="1.1"
   id="svg2"
   inkscape:version="0.48.2 r9819"
   sodipodi:docname="AJAX1.svg">
  <metadata
     id="metadata62">
    <rdf:RDF>
      <cc:Work
         rdf:about="">
        <dc:format>image/svg+xml</dc:format>
        <dc:type
           rdf:resource="http://purl.org/dc/dcmitype/StillImage" />
        <dc:title></dc:title>
      </cc:Work>
    </rdf:RDF>
  </metadata>
  <defs
     id="defs60" />
  <sodipodi:namedview
     pagecolor="#ffffff"
     bordercolor="#666666"
     borderopacity="1"
     objecttolerance="10"
     gridtolerance="10"
     guidetolerance="10"
     inkscape:pageopacity="0"
     inkscape:pageshadow="2"
     inkscape:window-width="1280"
     inkscape:window-height="1004"
     id="namedview58"
     showgrid="false"
     fit-margin-top="0"
     fit-margin-left="0"
     fit-margin-right="0"
     fit-margin-bottom="0"
     inkscape:zoom="5.8194445"
     inkscape:cx="34.289603"
     inkscape:cy="40.963331"
     inkscape:window-x="-8"
     inkscape:window-y="-8"
     inkscape:window-maximized="1"
     inkscape:current-layer="svg2"
     showguides="true"
     inkscape:guide-bbox="true" />
  <!-- draw the bicycle -->
  <!-- RIGHT -->
  <!-- LANE -->
  <!-- ONLY -->
  <path
     inkscape:connector-curvature="0"
     d="M 3.6221475,118.21849 118.2185,3.6221014 c 4.82952,-4.8295 12.73175,-4.8295 17.56128,0 L 250.37965,118.21849 c 4.826,4.82953 4.826,12.73176 0,17.56128 L 135.77978,250.37612 c -4.82953,4.83306 -12.73176,4.83306 -17.56128,0 L 3.6221475,135.77977 c -4.82953,-4.82952 -4.82953,-12.73175 0,-17.56128"
     style="fill:#fecf33;fill-opacity:1;fill-rule:nonzero;stroke:none"
     id="path3274" />
  <path
     inkscape:connector-curvature="0"
     d="M 6.9523675,119.29342 119.29094,6.9513014 c 4.24392,-4.2368 11.176,-4.2368 15.41639,0 L 247.04591,119.29342 c 4.24038,4.24039 4.24038,11.176 0,15.41286 l -112.33858,112.3421 c -4.24039,4.23686 -11.17247,4.23686 -15.41639,0 L 6.9523675,134.70628 c -4.23686,-4.23686 -4.23686,-11.17247 0,-15.41286"
     style="fill:#000000;fill-opacity:1;fill-rule:evenodd;stroke:none"
     id="path3282" />
  <path
     inkscape:connector-curvature="0"
     d="M 11.340918,122.24758 122.24722,11.341302 c 2.61408,-2.6141006 6.88975,-2.6141006 9.50736,0 L 242.65735,122.24758 c 2.61408,2.61409 2.61408,6.89328 0,9.50737 L 131.75458,242.66124 c -2.61761,2.61056 -6.89328,2.61056 -9.50736,0 L 11.340918,131.75495 c -2.6140805,-2.61409 -2.6140805,-6.89328 0,-9.50737"
     style="fill:#fecf33;fill-opacity:1;fill-rule:evenodd;stroke:none"
     id="path3286" />
  <path
     d="m 171.22071,75.191941 c -9.90599,-6.985 -22.479,-11.938001 -34.79447,-12.954001 -18.54553,-1.651 -37.465005,4.826 -51.562007,17.145002 l -6.350001,-8.636001 c -0.765528,-1.016 -1.527528,-1.781528 -2.794,-1.781528 -1.905001,-0.123472 -3.559529,1.400528 -3.559529,3.178528 l -1.904999,42.795479 40.386006,-14.224 c 1.778,-0.50448 2.667,-2.540005 2.032,-4.318005 -0.381,-1.27 -1.27,-1.774472 -2.667,-2.282472 L 99.977235,90.558942 c 9.775475,-7.62 22.602475,-11.176 34.921475,-10.163528 9.271,0.889 18.669,4.575529 25.91153,10.033 l 10.41047,-15.236473 z"
     style="fill:#000000;fill-opacity:1;fill-rule:evenodd;stroke:none"
     id="path3986"
     inkscape:connector-curvature="0" />
  <path
     d="m 62.127702,123.83295 c -1.016,12.065 1.143001,25.273 6.477001,36.449 8.131529,17.01801 23.241003,30.09548 41.021007,35.93748 l -4.18747,9.78253 c -0.51153,1.27 -0.762,2.28247 -0.13053,3.429 0.889,1.651 2.92453,2.286 4.572,1.397 l 37.72253,-20.066 -32.639,-27.686 c -1.40053,-1.14301 -3.55953,-1.016 -4.826,0.50447 -0.762,1.01953 -0.762,2.03553 -0.51153,3.43253 l 1.905,10.53747 c -11.42647,-4.699 -21.078477,-13.83947 -26.412477,-25.14601 -4.067529,-8.382 -5.464529,-18.41147 -4.575529,-27.178 l -18.415002,-1.39347 z"
     style="fill:#000000;fill-opacity:1;fill-rule:evenodd;stroke:none"
     id="path3994"
     inkscape:connector-curvature="0" />
  <path
     d="m 159.02872,193.29843 c 10.92552,-5.07647 21.33952,-13.71247 28.321,-23.87247 10.67153,-15.49754 14.35453,-35.17901 10.414,-53.34001 l 10.67153,-1.27353 c 1.26647,-0.25047 2.28247,-0.50447 3.04447,-1.651 0.889,-1.52047 0.38453,-3.683 -1.143,-4.699 l -36.32201,-22.602477 -7.493,42.037007 c -0.37747,1.90147 0.889,3.67947 2.794,3.93347 1.27,0.25753 2.159,-0.37747 3.30553,-1.26647 l 8.12448,-6.731 c 1.651,12.065 -1.39348,25.019 -8.50901,35.306 -5.20347,7.62001 -13.08099,13.97001 -21.336,17.65301 l 8.12801,16.50647 z"
     style="fill:#000000;fill-opacity:1;fill-rule:evenodd;stroke:none"
     id="path4002"
     inkscape:connector-curvature="0" />
</svg>
