<?xml version="1.0" encoding="UTF-8" standalone="no"?>
<svg
   xmlns:dc="http://purl.org/dc/elements/1.1/"
   xmlns:cc="http://creativecommons.org/ns#"
   xmlns:rdf="http://www.w3.org/1999/02/22-rdf-syntax-ns#"
   xmlns:svg="http://www.w3.org/2000/svg"
   xmlns="http://www.w3.org/2000/svg"
   xmlns:sodipodi="http://sodipodi.sourceforge.net/DTD/sodipodi-0.dtd"
   xmlns:inkscape="http://www.inkscape.org/namespaces/inkscape"
   width="143.13126"
   height="40.891251"
   viewBox="0 0 403.94829 115.40419"
   version="1.1"
   id="svg2"
   inkscape:version="0.48.2 r9819"
   sodipodi:docname="AJAX1.svg">
  <metadata
     id="metadata62">
    <rdf:RDF>
      <cc:Work
         rdf:about="">
        <dc:format>image/svg+xml</dc:format>
        <dc:type
           rdf:resource="http://purl.org/dc/dcmitype/StillImage" />
        <dc:title></dc:title>
      </cc:Work>
    </rdf:RDF>
  </metadata>
  <defs
     id="defs60" />
  <sodipodi:namedview
     pagecolor="#ffffff"
     bordercolor="#666666"
     borderopacity="1"
     objecttolerance="10"
     gridtolerance="10"
     guidetolerance="10"
     inkscape:pageopacity="0"
     inkscape:pageshadow="2"
     inkscape:window-width="1280"
     inkscape:window-height="1004"
     id="namedview58"
     showgrid="false"
     fit-margin-top="0"
     fit-margin-left="0"
     fit-margin-right="0"
     fit-margin-bottom="0"
     inkscape:zoom="2.8284272"
     inkscape:cx="82.643951"
     inkscape:cy="-19.175676"
     inkscape:window-x="-8"
     inkscape:window-y="-8"
     inkscape:window-maximized="1"
     inkscape:current-layer="svg2" />
  <!-- draw the bicycle -->
  <!-- RIGHT -->
  <!-- LANE -->
  <!-- ONLY -->
  <path
     d="m 14.5027,-1.4272579e-5 374.95346,0 c 7.97984,0 14.49212,6.515809972579 14.49212,14.499170272579 l 0,86.402344 c 0,7.98336 -6.51228,14.5027 -14.49212,14.5027 l -374.95346,0 C 6.51228,115.4042 0,108.88486 0,100.9015 L 0,14.499156 C 0,6.5157957 6.51228,-1.4272579e-5 14.5027,-1.4272579e-5"
     style="fill:#ffd033;fill-opacity:1;fill-rule:nonzero;stroke:none"
     id="path3516"
     inkscape:connector-curvature="0" />
  <path
     d="m 14.49601,4.1380657 374.96052,0 c 5.71147,0 10.3505,4.6602 10.3505,10.3610903 l 0,86.402344 c 0,5.69736 -4.63903,10.35756 -10.3505,10.35756 l -374.96052,0 c -5.70794,0 -10.35403,-4.6602 -10.35403,-10.35756 l 0,-86.402344 c 0,-5.7008903 4.64609,-10.3610903 10.35403,-10.3610903"
     style="fill:#000000;fill-opacity:1;fill-rule:evenodd;stroke:none"
     id="path3524"
     inkscape:connector-curvature="0" />
  <path
     d="m 389.37502,10.357546 0.50095,0.0212 c 0.70555,0.0882 1.27705,0.30339 1.86266,0.69144 l 0.32809,0.22931 c 0.64205,0.56444 1.05833,1.17475 1.33703,1.96497 0.0881,0.34572 0.13744,0.66322 0.16227,1.01247 l 0.0141,86.546984 -0.0254,0.50447 c -0.0881,0.70203 -0.29633,1.27706 -0.66675,1.87325 l -0.24623,0.3175 c -0.56092,0.64206 -1.17123,1.06539 -1.96498,1.3335 -0.34219,0.10584 -0.66322,0.16228 -1.01953,0.18698 l -375.07693,0.004 -0.508,-0.0178 c -0.70555,-0.0988 -1.28058,-0.30691 -1.87678,-0.69144 l -0.32103,-0.23622 c -0.63852,-0.56445 -1.05833,-1.17122 -1.32997,-1.9685 -0.1023,-0.34572 -0.15522,-0.65617 -0.18344,-1.00542 l -0.007,-86.546984 0.0212,-0.50447 c 0.0917,-0.70908 0.29986,-1.28411 0.68439,-1.86619 l 0.24341,-0.33514 c 0.55739,-0.63853 1.1677,-1.05834 1.96498,-1.32645 0.33866,-0.0988 0.65616,-0.15522 1.016,-0.17991 l 375.09104,-0.007 z"
     style="fill:#ffd033;fill-opacity:1;fill-rule:evenodd;stroke:none"
     id="path3528"
     inkscape:connector-curvature="0" />
  <path
     d="m 49.75579,90.857916 0,-66.31165 -9.53558,0 c -2.57176,4.19453 -5.35517,6.0572 -10.47751,7.22136 l 0.23636,9.53559 8.37848,0 -0.22931,49.5547 11.62756,0 z"
     style="fill:#000000;fill-opacity:1;fill-rule:evenodd;stroke:none"
     id="path3532"
     inkscape:connector-curvature="0" />
  <path
     d="m 283.43583,66.657356 -25.84097,0 25.84097,-26.52183 0,26.52183 z m 21.46654,10.70328 0,-10.70328 -9.75431,0 0,-42.11109 -11.71223,0 -40.96103,42.11109 0,10.70328 40.96103,0 0,13.49728 11.71223,0 0,-13.49728 9.75431,0 z"
     style="fill:#000000;fill-opacity:1;fill-rule:evenodd;stroke:none"
     id="path3536"
     inkscape:connector-curvature="0" />
  <path
     d="m 101.57885,66.657356 -25.8445,0 25.8445,-26.52183 0,26.52183 z m 21.46654,10.70328 0,-10.70328 -9.75784,0 0,-42.11109 -11.7087,0 -40.96456,42.11109 0,10.70328 40.96456,0 0,13.49728 11.7087,0 0,-13.49728 9.75784,0 z"
     style="fill:#000000;fill-opacity:1;fill-rule:evenodd;stroke:none"
     id="path3540"
     inkscape:connector-curvature="0" />
  <path
     d="m 326.47651,45.969766 -8.02922,0 0,44.88745 8.02922,0 0,-44.88745 z"
     style="fill:#000000;fill-opacity:1;fill-rule:evenodd;stroke:none"
     id="path3542"
     inkscape:connector-curvature="0" />
  <path
     d="m 374.20205,90.857916 0,-44.88745 -7.72231,0 0,29.61217 -20.6375,-29.61217 -7.86342,0 0,44.88745 7.86342,0 0,-30.86453 21.43478,30.86453 6.92503,0 z"
     style="fill:#000000;fill-opacity:1;fill-rule:evenodd;stroke:none"
     id="path3546"
     inkscape:connector-curvature="0" />
  <path
     d="m 170.71626,53.999686 0,-8.02922 -33.54212,0 0,44.88745 8.18444,0 0,-19.53331 14.02998,0 0,-8.18091 -14.02998,0 0,-9.14401 25.35768,0 z"
     style="fill:#000000;fill-opacity:1;fill-rule:evenodd;stroke:none"
     id="path3550"
     inkscape:connector-curvature="0" />
  <path
     d="m 207.89199,53.844466 0,-7.874 -33.69382,0 0,7.874 12.90815,0 0,37.01345 7.87752,0 0,-37.01345 12.90815,0 z"
     style="fill:#000000;fill-opacity:1;fill-rule:evenodd;stroke:none"
     id="path3554"
     inkscape:connector-curvature="0" />
</svg>
