<?xml version="1.0" encoding="UTF-8" standalone="no"?>
<svg
   xmlns:dc="http://purl.org/dc/elements/1.1/"
   xmlns:cc="http://creativecommons.org/ns#"
   xmlns:rdf="http://www.w3.org/1999/02/22-rdf-syntax-ns#"
   xmlns:svg="http://www.w3.org/2000/svg"
   xmlns="http://www.w3.org/2000/svg"
   xmlns:sodipodi="http://sodipodi.sourceforge.net/DTD/sodipodi-0.dtd"
   xmlns:inkscape="http://www.inkscape.org/namespaces/inkscape"
   width="66.234818"
   height="33.117672"
   viewBox="0 0 186.9294 93.465424"
   version="1.1"
   id="svg2"
   inkscape:version="0.48.2 r9819"
   sodipodi:docname="MUTCD W2-8L.svg">
  <metadata
     id="metadata62">
    <rdf:RDF>
      <cc:Work
         rdf:about="">
        <dc:format>image/svg+xml</dc:format>
        <dc:type
           rdf:resource="http://purl.org/dc/dcmitype/StillImage" />
        <dc:title></dc:title>
      </cc:Work>
    </rdf:RDF>
  </metadata>
  <defs
     id="defs60" />
  <sodipodi:namedview
     pagecolor="#ffffff"
     bordercolor="#666666"
     borderopacity="1"
     objecttolerance="10"
     gridtolerance="10"
     guidetolerance="10"
     inkscape:pageopacity="0"
     inkscape:pageshadow="2"
     inkscape:window-width="1280"
     inkscape:window-height="1004"
     id="namedview58"
     showgrid="false"
     fit-margin-top="0"
     fit-margin-left="0"
     fit-margin-right="0"
     fit-margin-bottom="0"
     inkscape:zoom="5.8194445"
     inkscape:cx="3.514052"
     inkscape:cy="40.964275"
     inkscape:window-x="-8"
     inkscape:window-y="-8"
     inkscape:window-maximized="1"
     inkscape:current-layer="svg2"
     showguides="true"
     inkscape:guide-bbox="true" />
  <!-- draw the bicycle -->
  <!-- RIGHT -->
  <!-- LANE -->
  <!-- ONLY -->
  <path
     d="m 186.92639,11.656226 0.003,70.15692 c 0,6.42409 -5.23169,11.65226 -11.65225,11.65226 l -163.62541,0 C 5.23522,93.472406 0,88.237236 0,81.813146 L 0.004,11.656226 C 0.004,5.2321464 5.23217,0.00397643 11.65625,0.00397643 L 175.2746,-2.3571757e-5 C 181.61755,0.00697643 186.93391,5.3128064 186.92686,11.655756"
     style="fill:#fecf33;fill-opacity:1;fill-rule:nonzero;stroke:none"
     id="path3370"
     inkscape:connector-curvature="0" />
  <path
     d="m 183.69494,11.695026 0,70.07932 c -0.007,4.62139 -3.83822,8.4455 -8.45961,8.45961 l -163.54427,-0.007 c -4.61786,0.007 -8.43845,-3.83117 -8.45256,-8.45256 l 0,-70.07578 C 3.2491,7.0737464 7.06614,3.2461064 11.69811,3.2425764 l 163.54427,-0.004 c 4.60728,0.0141 8.45609,3.82764 8.45256,8.4560796"
     style="fill:#000000;fill-opacity:1;fill-rule:evenodd;stroke:none"
     id="path3374"
     inkscape:connector-curvature="0" />
  <path
     d="m 179.1688,11.755006 -0.007,69.96289 c 0.0459,2.1837 -1.79564,4.01814 -3.98287,3.98287 l -163.42432,0 c -2.18375,0.0353 -4.02525,-1.79917 -3.98291,-3.98287 l 0,-69.95937 C 7.7294,9.5677764 9.57086,7.7298064 11.75456,7.7756664 l 163.42432,-0.007 c 2.1837,-0.0388 4.0252,1.79917 3.98992,3.9863896"
     style="fill:#fecf33;fill-opacity:1;fill-rule:evenodd;stroke:none"
     id="path3378"
     inkscape:connector-curvature="0" />
  <path
     d="m 170.82913,24.899506 c -0.19402,-1.70392 -0.45861,-2.48708 -1.17475,-3.40784 -0.85372,-1.2453 -2.16605,-1.89794 -3.67241,-1.89794 -3.67242,0 -5.57389,3.21028 -5.57389,9.23925 0,6.8827 1.77094,10.10709 5.76791,10.10709 2.62467,0 4.58964,-2.24014 4.65314,-5.32342 l -2.68464,0 c 0,1.37936 -0.39158,2.69169 -1.9685,2.69169 -2.29658,0 -3.2138,-2.16605 -3.2138,-7.53886 0,-4.85422 0.79375,-6.55814 2.94922,-6.55814 1.24883,0 1.97203,0.85372 2.23308,2.68817 l 2.68464,0 z m -14.1605,-4.98122 -2.62114,0 0,18.67958 2.62114,0 0,-18.67958 z m -5.17878,2.62466 0,-2.62466 -9.5003,0 0,18.67958 2.68816,0 0,-8.78064 3.73592,0 0,-2.55411 -3.73592,0 0,-4.72017 6.81214,0 z m -12.05794,0 0,-2.62466 -9.50031,0 0,18.67958 2.68817,0 0,-8.78064 3.72886,0 0,-2.55411 -3.72886,0 0,-4.72017 6.81214,0 z m -16.71462,8.32203 -2.68816,0 1.3088,-5.3728 1.37936,5.3728 z m 4.65667,7.73289 -4.65667,-18.67958 -2.61761,0 -4.65667,18.67958 2.68464,0 1.24884,-5.11175 3.99697,0 1.31586,5.11175 2.68464,0 z m -16.18897,-13.69836 c 0,1.50636 -0.85373,2.36361 -2.43064,2.36361 l -2.74461,0 0,-4.72017 2.74461,0 c 1.44286,0 2.43064,0.9137 2.43064,2.35656 m 2.62114,13.69836 -2.68817,-9.17222 c 1.76742,-0.65617 2.68817,-2.29659 2.68817,-4.52614 0,-3.01272 -1.9685,-4.98122 -4.91773,-4.98122 l -5.57036,0 0,18.67958 2.6917,0 0,-8.78064 2.55058,0 2.49061,8.78064 2.7552,0 z m -13.0422,-16.18544 0,-2.49414 -9.50736,0 0,2.49414 3.41489,0 0,16.18544 2.67758,0 0,-16.18544 3.41489,0 z M 80.2499,33.486116 c 0,-2.68464 -1.57339,-4.71664 -5.18231,-6.81567 -1.37583,-0.78669 -1.77094,-1.3088 -1.77094,-2.22602 0,-1.24884 0.98778,-2.16606 2.22955,-2.16606 1.18181,0 2.10256,0.85372 2.16253,2.16606 l 2.56117,0 c -0.067,-2.8187 -2.10256,-4.8507 -4.7237,-4.8507 -2.68816,0 -4.78366,2.16253 -4.78366,4.8507 0,1.63688 0.78669,3.07975 2.29658,4.1275 3.79942,2.55411 2.75167,1.83091 3.14325,2.22955 1.11478,0.8502 1.50636,1.63336 1.50636,2.68464 0,1.50989 -1.17828,2.82222 -2.62114,2.82222 -1.83444,0 -2.62114,-1.64041 -2.62114,-3.2138 l -2.62114,0 c 0,3.07975 1.9685,5.84553 5.24228,5.84553 2.88573,0 5.18231,-2.4377 5.18231,-5.45395 m -12.65414,0 c 0,-2.68464 -1.57339,-4.71664 -5.17878,-6.81567 -1.37583,-0.78669 -1.77094,-1.3088 -1.77094,-2.22602 0,-1.24884 0.98777,-2.16606 2.22955,-2.16606 1.18181,0 2.09903,0.85372 2.16253,2.16606 l 2.55764,0 c -0.0635,-2.8187 -2.09903,-4.8507 -4.72017,-4.8507 -2.68817,0 -4.78367,2.16253 -4.78367,4.8507 0,1.63688 0.78317,3.07975 2.29306,4.1275 3.79942,2.55411 2.75167,1.83091 3.14678,2.22955 1.11478,0.8502 1.50636,1.63336 1.50636,2.68464 0,1.50989 -1.17828,2.82222 -2.62114,2.82222 -1.83444,0 -2.62114,-1.64041 -2.62114,-3.2138 l -2.62114,0 c 0,3.07975 1.9685,5.84553 5.24228,5.84553 2.88572,0 5.17878,-2.4377 5.17878,-5.45395 m -15.79739,-4.26156 c 0,2.16606 -0.13406,3.28084 -0.58914,4.79073 -0.45861,1.56986 -1.17828,2.29305 -2.29306,2.29305 -1.1818,0 -1.90147,-0.72319 -2.36361,-2.29305 -0.39158,-1.50989 -0.58914,-2.6917 -0.58914,-4.72017 0,-2.10256 0.13053,-3.34433 0.58914,-4.79072 0.46214,-1.56986 1.18181,-2.29306 2.36361,-2.29306 1.11478,0 1.83445,0.7232 2.29306,2.36361 0.39511,1.37584 0.58914,2.55411 0.58914,4.64961 m 2.55411,0 c 0,-2.81869 -0.25753,-4.58963 -1.04775,-6.42055 -0.9137,-2.29306 -2.22956,-3.21028 -4.38856,-3.21028 -2.16605,0 -3.47486,0.91722 -4.45558,3.14325 -0.7867,1.76742 -1.05128,3.66889 -1.05128,6.48758 0,2.88926 0.26458,4.6602 1.05128,6.49112 0.91369,2.22602 2.22603,3.22439 4.45558,3.22439 2.0955,0 3.47486,-0.99837 4.38856,-3.22439 0.79022,-1.77095 1.04775,-3.60186 1.04775,-6.49112 m -16.3195,-4.32505 c 0,1.50636 -0.8502,2.36361 -2.42359,2.36361 l -2.75519,0 0,-4.72017 2.75519,0 c 1.43934,0 2.42359,0.9137 2.42359,2.35656 m 2.62114,13.69836 -2.68464,-9.17222 c 1.76741,-0.65617 2.68464,-2.29659 2.68464,-4.52614 0,-3.01272 -1.96145,-4.98122 -4.9142,-4.98122 l -5.57036,0 0,18.67958 2.68464,0 0,-8.78064 2.55764,0 2.49061,8.78064 2.75167,0 z M 26.49714,24.899506 c -0.19403,-1.70392 -0.45861,-2.48708 -1.17828,-3.40784 -0.85019,-1.2453 -2.16605,-1.89794 -3.67241,-1.89794 -3.66889,0 -5.56684,3.21028 -5.56684,9.23925 0,6.8827 1.76742,10.10709 5.76439,10.10709 2.62467,0 4.58611,-2.24014 4.65314,-5.32342 l -2.68817,0 c 0,1.37936 -0.39158,2.69169 -1.96497,2.69169 -2.29305,0 -3.2138,-2.16605 -3.2138,-7.53886 0,-4.85422 0.79022,-6.55814 2.94922,-6.55814 1.24883,0 1.9685,0.85372 2.22955,2.68817 l 2.68817,0 z"
     style="fill:#000000;fill-opacity:1;fill-rule:evenodd;stroke:none"
     id="path3382"
     inkscape:connector-curvature="0" />
  <path
     d="m 168.22916,60.092616 c 0,1.70745 -0.85019,2.68817 -2.42006,2.68817 l -2.75519,0 0,-5.30578 2.75519,0 c 1.43934,0 2.42006,1.04775 2.42006,2.61761 m 2.62467,0 c 0,-3.14325 -1.9685,-5.24227 -4.9142,-5.24227 l -5.57389,0 0,18.68664 2.68817,0 0,-8.19856 2.88572,0 c 3.14325,0 4.9142,-1.83444 4.9142,-5.24581 m -16.77812,4.06753 c 0,2.16253 -0.13052,3.27731 -0.58913,4.78367 -0.46214,1.57339 -1.18181,2.28953 -2.30012,2.28953 -1.17827,0 -1.89441,-0.71614 -2.35655,-2.28953 -0.39159,-1.50636 -0.58914,-2.68817 -0.58914,-4.72017 0,-2.09903 0.13405,-3.34433 0.58914,-4.78366 0.46214,-1.57339 1.17828,-2.29659 2.35655,-2.29659 1.11831,0 1.83798,0.7232 2.30012,2.36009 0.38805,1.37583 0.58913,2.56116 0.58913,4.65666 m 2.55412,0 c 0,-2.81869 -0.26106,-4.58964 -1.04775,-6.42761 -0.9137,-2.29306 -2.22956,-3.21381 -4.39562,-3.21381 -2.159,0 -3.47133,0.92075 -4.44852,3.15031 -0.79375,1.77095 -1.05128,3.67242 -1.05128,6.49111 0,2.8822 0.25753,4.65314 1.05128,6.48759 0.91016,2.22602 2.22602,3.22439 4.44852,3.22439 2.10256,0 3.48192,-0.99837 4.39562,-3.22439 0.78669,-1.77095 1.04775,-3.60539 1.04775,-6.48759 m -13.17273,-6.81919 0,-2.49061 -9.50383,0 0,2.49061 3.4043,0 0,16.19603 2.68817,0 0,-16.19603 3.41136,0 z m -11.21128,11.07722 c 0,-2.68111 -1.56986,-4.71664 -5.17525,-6.81567 -1.37583,-0.78669 -1.76741,-1.3088 -1.76741,-2.22602 0,-1.24884 0.98425,-2.16606 2.2225,-2.16606 1.1818,0 2.10255,0.85019 2.16605,2.16606 l 2.55411,0 c -0.06,-2.82223 -2.0955,-4.85776 -4.72016,-4.85776 -2.68464,0 -4.78014,2.16606 -4.78014,4.85776 0,1.63336 0.78669,3.07622 2.29305,4.1275 3.80295,2.55764 2.75167,1.83444 3.14325,2.23308 1.11478,0.84667 1.50989,1.63689 1.50989,2.68111 0,1.50636 -1.17828,2.81517 -2.62114,2.81517 -1.83444,0 -2.62467,-1.63336 -2.62467,-3.20675 l -2.61761,0 c 0,3.07622 1.96498,5.84553 5.24228,5.84553 2.8822,0 5.17525,-2.4377 5.17525,-5.45395 m -17.43781,-11.07722 0,-2.49061 -9.5003,0 0,2.49061 3.40783,0 0,16.19603 2.68817,0 0,-16.19603 3.4043,0 z m -14.34747,6.81919 c 0,2.16253 -0.13758,3.27731 -0.59267,4.78367 -0.45861,1.57339 -1.17475,2.28953 -2.29305,2.28953 -1.18181,0 -1.89442,-0.71614 -2.3495,-2.28953 -0.40217,-1.50636 -0.59972,-2.68817 -0.59972,-4.72017 0,-2.09903 0.13052,-3.34433 0.59972,-4.78366 0.45508,-1.57339 1.16769,-2.29659 2.3495,-2.29659 1.1183,0 1.83444,0.7232 2.29305,2.36009 0.39512,1.37583 0.59267,2.56116 0.59267,4.65666 m 2.55411,0 c 0,-2.81869 -0.26458,-4.58964 -1.05128,-6.42761 -0.91369,-2.29306 -2.23308,-3.21381 -4.38855,-3.21381 -2.15547,0 -3.47134,0.92075 -4.45911,3.15031 -0.78317,1.77095 -1.04423,3.67242 -1.04423,6.49111 0,2.8822 0.26106,4.65314 1.04423,6.48759 0.92075,2.22602 2.24366,3.22439 4.45911,3.22439 2.09903,0 3.47486,-0.99837 4.38855,-3.22439 0.7867,-1.77095 1.05128,-3.60539 1.05128,-6.48759 m -14.61558,9.37684 0,-18.68664 -2.68817,0 0,11.21128 -5.11175,-11.21128 -2.68817,0 0,18.68664 2.68817,0 0,-12.52714 5.76792,12.52714 2.032,0 z m -21.62881,-5.11881 c 0,-2.68111 -1.57692,-4.71664 -5.17878,-6.81567 -1.37936,-0.78669 -1.77094,-1.3088 -1.77094,-2.22602 0,-1.24884 0.98072,-2.16606 2.22955,-2.16606 1.17828,0 2.09903,0.85019 2.16253,2.16606 l 2.55764,0 c -0.0706,-2.82223 -2.09903,-4.85776 -4.72017,-4.85776 -2.68817,0 -4.79072,2.16606 -4.79072,4.85776 0,1.63336 0.79022,3.07622 2.29658,4.1275 3.80295,2.55764 2.7552,1.83444 3.14678,2.23308 1.11831,0.84667 1.50989,1.63689 1.50989,2.68111 0,1.50636 -1.18181,2.81517 -2.62114,2.81517 -1.83797,0 -2.62114,-1.63336 -2.62114,-3.20675 l -2.62467,0 c 0,3.07622 1.96498,5.84553 5.24581,5.84553 2.88219,0 5.17878,-2.4377 5.17878,-5.45395 m -12.65414,5.11881 0,-2.62467 -6.81567,0 0,-6.1595 3.86644,0 0,-2.56117 -3.86644,0 0,-4.71664 6.096,0 0,-2.62466 -8.78417,0 0,18.68664 9.50384,0 z m -15.79739,-9.37684 c 0,2.16253 -0.13053,3.27731 -0.58914,4.78367 -0.46214,1.57339 -1.18181,2.28953 -2.29306,2.28953 -1.1818,0 -1.90147,-0.71614 -2.36008,-2.28953 -0.39159,-1.50636 -0.58914,-2.68817 -0.58914,-4.72017 0,-2.09903 0.13053,-3.34433 0.58914,-4.78366 0.45861,-1.57339 1.17828,-2.29659 2.36008,-2.29659 1.11125,0 1.83092,0.7232 2.29306,2.36009 0.39511,1.37583 0.58914,2.56116 0.58914,4.65666 m 2.55764,0 c 0,-2.81869 -0.26106,-4.58964 -1.04775,-6.42761 -0.91723,-2.29306 -2.22956,-3.21381 -4.39209,-3.21381 -2.16253,0 -3.47486,0.92075 -4.45911,3.15031 -0.78317,1.77095 -1.04775,3.67242 -1.04775,6.49111 0,2.8822 0.26458,4.65314 1.04775,6.48759 0.91722,2.22602 2.22956,3.22439 4.45911,3.22439 2.09903,0 3.47486,-0.99837 4.39209,-3.22439 0.78669,-1.77095 1.04775,-3.60539 1.04775,-6.48759 m -16.91217,0.13053 c 0,1.44639 -0.127,2.75167 -0.26106,3.93347 -0.26105,1.43934 -1.1183,2.68817 -2.68817,2.68817 l -2.22955,0 0,-13.43731 2.22955,0 c 1.17828,0 1.9685,0.58561 2.42712,1.90148 0.32455,0.78669 0.52211,2.81516 0.52211,4.91419 m 2.62114,-0.13053 c 0,-1.44286 -0.19756,-3.07975 -0.45861,-4.45911 -0.32809,-1.90147 -1.11126,-3.34081 -2.22956,-4.1275 -0.65264,-0.52564 -1.43933,-0.72319 -3.01272,-0.72319 l -4.7872,0 0,18.68664 5.17878,0 c 1.05128,0 1.9685,-0.26811 2.62114,-0.85373 1.83797,-1.44991 2.68817,-4.20158 2.68817,-8.52311"
     style="fill:#000000;fill-opacity:1;fill-rule:evenodd;stroke:none"
     id="path3386"
     inkscape:connector-curvature="0" />
</svg>
