<?xml version="1.0" encoding="UTF-8" standalone="no"?>
<!-- Generator: Adobe Illustrator 12.0.1, SVG Export Plug-In  -->

<svg
   xmlns:dc="http://purl.org/dc/elements/1.1/"
   xmlns:cc="http://creativecommons.org/ns#"
   xmlns:rdf="http://www.w3.org/1999/02/22-rdf-syntax-ns#"
   xmlns:svg="http://www.w3.org/2000/svg"
   xmlns="http://www.w3.org/2000/svg"
   xmlns:sodipodi="http://sodipodi.sourceforge.net/DTD/sodipodi-0.dtd"
   xmlns:inkscape="http://www.inkscape.org/namespaces/inkscape"
   version="1.1"
   width="228.86501"
   height="285.841"
   viewBox="-0.487 0 228.86501 285.841"
   enable-background="new -0.487 0 232 288"
   xml:space="preserve"
   id="svg2"
   inkscape:version="0.48.2 r9819"
   sodipodi:docname="AJAX1.svg"><metadata
   id="metadata24"><rdf:RDF><cc:Work
       rdf:about=""><dc:format>image/svg+xml</dc:format><dc:type
         rdf:resource="http://purl.org/dc/dcmitype/StillImage" /></cc:Work></rdf:RDF></metadata><sodipodi:namedview
   pagecolor="#ffffff"
   bordercolor="#666666"
   borderopacity="1"
   objecttolerance="10"
   gridtolerance="10"
   guidetolerance="10"
   inkscape:pageopacity="0"
   inkscape:pageshadow="2"
   inkscape:window-width="1280"
   inkscape:window-height="1004"
   id="namedview22"
   showgrid="false"
   fit-margin-top="0"
   fit-margin-left="0"
   fit-margin-right="0"
   fit-margin-bottom="0"
   inkscape:zoom="2.3177389"
   inkscape:cx="23.279832"
   inkscape:cy="142.58449"
   inkscape:window-x="-8"
   inkscape:window-y="-8"
   inkscape:window-maximized="1"
   inkscape:current-layer="svg2" />
<defs
   id="defs4">
</defs>
<path
   clip-rule="evenodd"
   d="m 18.585,285.841 h 190.712 c 10.536,0 19.081,-8.528 19.081,-19.073 V 19.076998 C 228.378,8.5429985 219.833,-1.562623e-6 209.297,-1.562623e-6 H 18.585 C 8.037,9.9843738e-4 -0.487,8.5439985 -0.487,19.076998 V 266.768 c 0,10.52 8.537,19.073 19.072,19.073 z"
   id="path6"
   style="fill:#ffd033;fill-opacity:1;fill-rule:evenodd;stroke:none"
   inkscape:connector-curvature="0" />

<path
   clip-rule="evenodd"
   d="m 18.644,281.868 h 190.594 c 8.423,0 15.247,-6.824 15.247,-15.242 V 18.891998 c 0,-8.423 -6.824,-15.2449995 -15.247,-15.2449995 H 18.644 c -8.418,0 -15.234,6.8219995 -15.234,15.2449995 V 266.626 c 0,8.41 6.824,15.242 15.234,15.242"
   id="path10"
   style="fill:#000000;fill-rule:evenodd;stroke:none"
   inkscape:connector-curvature="0" />
<path
   clip-rule="evenodd"
   d="m 18.662,94.847998 h 190.569 c 5.264,0 9.52,-4.258 9.52,-9.515 v -66.429 c 0,-5.264 -4.256,-9.5239995 -9.52,-9.5239995 H 18.662 c -5.264,0 -9.524,4.2599995 -9.524,9.5239995 v 66.429 c 0,5.266 4.251,9.515 9.524,9.515"
   id="path12"
   style="fill:#ffd033;fill-opacity:1;fill-rule:evenodd;stroke:none"
   inkscape:connector-curvature="0" />
<path
   clip-rule="evenodd"
   d="m 18.662,276.166 h 190.569 c 5.264,0 9.52,-4.269 9.52,-9.523 V 109.737 c 0,-5.266 -4.256,-9.528 -9.52,-9.528 H 18.662 c -5.264,0 -9.524,4.262 -9.524,9.528 v 156.905 c 0,5.264 4.251,9.524 9.524,9.524"
   id="path14"
   style="fill:#ffd033;fill-opacity:1;fill-rule:evenodd;stroke:none"
   inkscape:connector-curvature="0" />
<path
   clip-rule="evenodd"
   d="m 205.671,72.087998 v -6.824 h -21.536 v -10.435 h 11.362 v -6.957 h -11.362 v -7.088 H 205 v -6.818 h -27.824 v 38.122 h 28.495 m -34.784,-38.122 h -7.352 l -10.435,27.822 -10.435,-27.822 h -7.355 l 14.045,38.122 h 7.355 l 14.177,-38.122 z m -47.348,11.639 c 0,2.803 -2.139,4.682 -5.479,4.682 h -10.835 v -9.502 h 10.835 c 3.34,-0.001 5.479,1.873 5.479,4.82 z m 7.63,26.483 -6.959,-16.325 c 3.88,-2.134 6.153,-5.884 6.153,-10.158 0,-4.285 -2.273,-8.033 -5.893,-10.034 -2.003,-1.204 -3.736,-1.604 -6.546,-1.604 H 100.4 v 38.122 h 6.824 v -14.983 h 10.161 l 6.153,14.981 h 7.631 z m -40.659,-15.389 v -22.733 h -6.824 v 22.733 c 0,2.143 -0.274,3.481 -1.207,4.954 -1.468,2.541 -4.281,4.146 -7.36,4.146 -3.075,0 -5.879,-1.605 -7.352,-4.146 -0.94,-1.472 -1.206,-2.672 -1.206,-4.954 v -22.733 h -6.828 v 22.733 c 0,9.363 6.424,16.076 15.386,16.076 8.959,0 15.391,-6.712 15.391,-16.076 z m -39.486,7.628 -6.019,-3.205 c -3.357,3.606 -5.222,4.812 -8.701,4.812 -5.753,0 -9.232,-4.812 -9.232,-13.113 0,-5.886 2.282,-12.706 9.232,-12.706 1.999,0 4.546,0.808 6.019,2.007 1.08,0.671 1.615,1.207 2.683,2.813 l 6.019,-3.218 c -2.94,-5.348 -8.566,-8.423 -14.72,-8.423 -10.034,0 -16.188,7.628 -16.188,19.661 0,11.906 6.153,19.819 16.188,19.819 6.152,10e-4 11.914,-3.097 14.719,-8.447 z"
   id="path16"
   style="fill:#000000;fill-rule:evenodd;stroke:none"
   inkscape:connector-curvature="0" />
<path
   clip-rule="evenodd"
   d="m 169.398,261.412 v -31.776 h -5.686 v 12.266 h -14.265 v -12.266 h -5.693 v 31.776 h 5.693 v -13.825 l 14.265,-0.118 v 13.943 h 5.686 M 122.99,239.337 c 0,2.337 -1.894,3.905 -4.686,3.905 h -9.245 v -7.912 h 9.245 c 2.793,0 4.686,1.56 4.686,4.007 z m 5.682,0 c 0,-3.568 -1.894,-6.689 -4.909,-8.359 -1.78,-1.004 -3.223,-1.342 -5.677,-1.342 h -14.821 v 31.776 h 5.795 v -12.484 h 9.026 c 2.454,0 3.896,-0.228 5.677,-1.231 3.015,-1.671 4.909,-5.012 4.909,-8.36 z m -43.51,22.075 v -31.776 h -5.567 l -9.363,18.846 -9.254,-18.846 h -5.597 v 31.776 h 5.597 v -19.401 l 9.254,19.401 9.363,-19.401 v 19.401 h 5.567 z"
   id="path18"
   style="fill:#000000;fill-rule:evenodd;stroke:none"
   inkscape:connector-curvature="0" />
<path
   clip-rule="evenodd"
   d="m 179.782,172.671 c 0,-15.791 -12.564,-27.563 -29.967,-27.563 -4.813,0 -8.558,0.533 -14.707,1.874 l 0.793,-10.97 h 37.732 l 0.262,-13.376 h -50.823 l -2.413,35.846 13.648,3.476 c 5.614,-2.135 9.634,-2.936 14.712,-2.936 5.604,0 9.629,1.071 12.312,3.205 2.939,2.404 4.808,6.42 4.808,10.443 0,8.554 -6.959,13.64 -18.465,13.64 -7.752,0 -15.517,-2.143 -22.198,-6.157 l -7.221,11.506 c 9.625,5.888 18.988,8.604 29.419,8.604 18.729,0 32.108,-11.548 32.108,-27.592 M 107.55,198.872 V 185.24 H 62.61 c 2.67,-5.086 4.813,-8.03 8.296,-10.974 4.547,-4.016 7.486,-5.349 17.655,-8.284 5.352,-1.611 8.823,-3.492 11.236,-5.356 5.083,-4.285 7.752,-10.165 7.752,-16.588 0,-13.913 -11.502,-22.74 -29.423,-22.74 -12.299,0 -23.286,4.013 -32.122,11.778 l 9.368,10.43 c 6.428,-5.886 13.661,-8.292 23.556,-8.292 9.633,0 14.985,3.203 14.985,8.824 0,4.551 -2.944,7.233 -11.506,9.629 -13.914,3.754 -23.547,10.704 -30.245,21.932 -4.285,7.499 -6.158,14.188 -6.158,23.273 h 61.546 z"
   id="path20"
   style="fill:#000000;fill-rule:evenodd;stroke:none"
   inkscape:connector-curvature="0" />
</svg>