<?xml version="1.0" encoding="UTF-8" standalone="no"?>
<svg
   xmlns:dc="http://purl.org/dc/elements/1.1/"
   xmlns:cc="http://creativecommons.org/ns#"
   xmlns:rdf="http://www.w3.org/1999/02/22-rdf-syntax-ns#"
   xmlns:svg="http://www.w3.org/2000/svg"
   xmlns="http://www.w3.org/2000/svg"
   xmlns:sodipodi="http://sodipodi.sourceforge.net/DTD/sodipodi-0.dtd"
   xmlns:inkscape="http://www.inkscape.org/namespaces/inkscape"
   width="89.998756"
   height="90"
   viewBox="0 0 253.9965 253.99999"
   version="1.1"
   id="svg2"
   inkscape:version="0.48.2 r9819"
   sodipodi:docname="AJAX1.svg">
  <metadata
     id="metadata62">
    <rdf:RDF>
      <cc:Work
         rdf:about="">
        <dc:format>image/svg+xml</dc:format>
        <dc:type
           rdf:resource="http://purl.org/dc/dcmitype/StillImage" />
      </cc:Work>
    </rdf:RDF>
  </metadata>
  <defs
     id="defs60" />
  <sodipodi:namedview
     pagecolor="#ffffff"
     bordercolor="#666666"
     borderopacity="1"
     objecttolerance="10"
     gridtolerance="10"
     guidetolerance="10"
     inkscape:pageopacity="0"
     inkscape:pageshadow="2"
     inkscape:window-width="1280"
     inkscape:window-height="1004"
     id="namedview58"
     showgrid="false"
     fit-margin-top="0"
     fit-margin-left="0"
     fit-margin-right="0"
     fit-margin-bottom="0"
     inkscape:zoom="7.1400775"
     inkscape:cx="42.118606"
     inkscape:cy="33.585222"
     inkscape:window-x="-8"
     inkscape:window-y="-8"
     inkscape:window-maximized="1"
     inkscape:current-layer="svg2" />
  <!-- draw the bicycle -->
  <!-- RIGHT -->
  <!-- LANE -->
  <!-- ONLY -->
  <path
     inkscape:connector-curvature="0"
     d="M 250.60448,118.77494 135.22502,3.3919402 c -4.52614,-4.5226 -11.92389,-4.5226 -16.45003,0 L 3.391965,118.77494 c -4.52262,4.5227 -4.52262,11.9239 0,16.4536 l 115.383025,115.3795 c 4.52615,4.5226 11.9239,4.5226 16.45003,0 l 115.37946,-115.3795 c 4.5227,-4.5297 4.5227,-11.9309 0,-16.4536"
     style="fill:#ffd033;fill-opacity:1;fill-rule:nonzero;stroke:none"
     id="path3131" />
  <path
     inkscape:connector-curvature="0"
     d="M 248.40669,120.97104 133.02719,5.5915402 c -3.31259,-3.3161 -8.7383,-3.3161 -12.05794,0 L 5.589735,120.97104 c -3.31611,3.3161 -3.31611,8.7418 0,12.0579 l 115.379515,115.3831 c 3.31964,3.3161 8.74535,3.3161 12.05794,0 l 115.3795,-115.3831 c 3.3161,-3.3161 3.3161,-8.7418 0,-12.0579"
     style="fill:#000000;fill-opacity:1;fill-rule:evenodd;stroke:none"
     id="path3139" />
  <path
     inkscape:connector-curvature="0"
     d="M 245.10818,124.26634 129.73577,8.8833402 c -1.50283,-1.4994 -3.96169,-1.4994 -5.46806,0 L 8.888205,124.26634 c -1.50283,1.5028 -1.50283,3.9652 0,5.4645 l 115.379505,115.3795 c 1.50636,1.5064 3.96523,1.5064 5.46806,0 l 115.37241,-115.3795 c 1.5099,-1.4993 1.5099,-3.9617 0,-5.4645"
     style="fill:#ffd033;fill-opacity:1;fill-rule:evenodd;stroke:none"
     id="path3143" />
  <path
     inkscape:connector-curvature="0"
     d="m 118.56686,114.43234 c -1.2065,4.0005 -2.40948,8.001 -3.61244,11.9979 -0.47272,1.5699 -0.8255,3.3267 -1.65806,4.759 -1.80622,3.108 -6.1595,3.6795 -8.6748,1.0548 -1.38995,-1.4499 -2.14489,-3.5807 -3.01273,-5.3516 -1.785065,-3.6195 -3.570115,-7.239 -5.351645,-10.8585 -7.37658,-14.9613 -14.75317,-29.9191 -22.12622,-44.8804 16.69344,0 33.393955,0 50.090925,-0.01 3.96875,0 7.94456,0 11.91331,0 2.0955,0 4.45911,-0.2223 6.50522,0.3139 3.4043,0.8961 5.6515,4.752 3.302,7.9129 -1.09008,1.464 -2.5647,2.794 -3.79942,4.1557 -2.80458,3.1009 -5.60564,6.2018 -8.41022,9.2992 12.92578,5.8702 25.47051,14.8766 33.13991,27.0298 7.6271,12.1038 8.8265,25.2378 8.7983,39.1619 -0.014,9.9766 -0.035,19.9531 -0.053,29.9297 0,0.201 0.1164,1.5698 -0.099,1.5698 l -4.40971,0 -16.3971,0 c -1.3723,0 -6.21597,0.9419 -6.21597,-0.7867 0,-4.0569 -0.007,-8.1103 -0.007,-12.1673 -0.007,-8.4525 0.0706,-16.9121 -0.0212,-25.3682 -0.067,-6.6711 -1.52048,-12.9681 -5.14703,-18.6232 -5.62681,-8.7841 -15.84678,-14.4815 -24.75442,-19.1417"
     style="fill:#000000;fill-opacity:1;fill-rule:evenodd;stroke:none"
     id="path3147" />
</svg>
