<?xml version="1.0" encoding="UTF-8" standalone="no"?>
<!-- Generator: Adobe Illustrator 12.0.1, SVG Export Plug-In  -->

<svg
   xmlns:dc="http://purl.org/dc/elements/1.1/"
   xmlns:cc="http://creativecommons.org/ns#"
   xmlns:rdf="http://www.w3.org/1999/02/22-rdf-syntax-ns#"
   xmlns:svg="http://www.w3.org/2000/svg"
   xmlns="http://www.w3.org/2000/svg"
   xmlns:sodipodi="http://sodipodi.sourceforge.net/DTD/sodipodi-0.dtd"
   xmlns:inkscape="http://www.inkscape.org/namespaces/inkscape"
   version="1.1"
   width="286.6615"
   height="286.66476"
   viewBox="-1 0 286.6615 286.66476"
   enable-background="new -1 0 289 288"
   xml:space="preserve"
   id="svg2"
   inkscape:version="0.48.2 r9819"
   sodipodi:docname="AJAX1.svg"><metadata
   id="metadata88"><rdf:RDF><cc:Work
       rdf:about=""><dc:format>image/svg+xml</dc:format><dc:type
         rdf:resource="http://purl.org/dc/dcmitype/StillImage" /></cc:Work></rdf:RDF></metadata><sodipodi:namedview
   pagecolor="#ffffff"
   bordercolor="#666666"
   borderopacity="1"
   objecttolerance="10"
   gridtolerance="10"
   guidetolerance="10"
   inkscape:pageopacity="0"
   inkscape:pageshadow="2"
   inkscape:window-width="1280"
   inkscape:window-height="1004"
   id="namedview86"
   showgrid="false"
   fit-margin-top="0"
   fit-margin-left="0"
   fit-margin-right="0"
   fit-margin-bottom="0"
   inkscape:zoom="2.3177389"
   inkscape:cx="4.289874"
   inkscape:cy="132.01975"
   inkscape:window-x="-8"
   inkscape:window-y="-8"
   inkscape:window-maximized="1"
   inkscape:current-layer="svg2" />
<defs
   id="defs4">
</defs>
<path
   d="M 3.098,133.3875 132.38,4.1054973 c 5.471,-5.474 14.421,-5.474 19.895,0 L 281.559,133.3875 c 5.47,5.471 5.47,14.423 0,19.889 l -129.285,129.285 c -5.474,5.471 -14.424,5.471 -19.895,0 L 3.098,153.2755 c -5.464,-5.465 -5.464,-14.418 0,-19.888 z"
   id="path6"
   style="fill:#ffd033;stroke:none;fill-opacity:1"
   inkscape:connector-curvature="0" />

<path
   clip-rule="evenodd"
   d="M 6.221,135.4405 134.44,7.2204973 c 4.339,-4.339 11.442,-4.339 15.785,0 L 278.44,135.4405 c 4.343,4.343 4.343,11.438 0,15.777 l -128.215,128.224 c -4.343,4.336 -11.446,4.336 -15.785,0 L 6.221,151.2175 c -4.338,-4.339 -4.338,-11.435 0,-15.777"
   id="path10"
   inkscape:connector-curvature="0"
   style="fill-rule:evenodd;stroke:none;fill:#000000" />
<path
   clip-rule="evenodd"
   d="M 10.224,139.3905 138.387,11.228497 c 2.162,-2.1689997 5.724,-2.1689997 7.889,0 L 274.436,139.3905 c 2.166,2.166 2.166,5.716 0,7.883 l -128.161,128.161 c -2.165,2.168 -5.727,2.168 -7.889,0 L 10.224,147.2735 c -2.165,-2.167 -2.165,-5.717 0,-7.883"
   id="path12"
   inkscape:connector-curvature="0"
   style="fill:#ffd033;fill-rule:evenodd;stroke:none;fill-opacity:1" />
<path
   d="m 79.796,133.9935 v 22.078 H 76.11 v -22.078 h -4.637 v -3.382 h 12.958 v 3.382 h -4.635 z"
   id="path14"
   inkscape:connector-curvature="0"
   style="stroke:none;fill:#000000" />
<path
   d="m 101.494,152.1565 c -1.254,3.002 -3.116,4.371 -5.966,4.371 -3.04,0 -4.826,-1.369 -6.08,-4.371 -1.063,-2.508 -1.444,-4.939 -1.444,-8.854 0,-3.838 0.381,-6.422 1.444,-8.854 1.33,-3.04 3.116,-4.294 6.08,-4.294 2.926,0 4.712,1.254 5.966,4.37 1.064,2.508 1.444,4.94 1.444,8.778 0,3.915 -0.38,6.423 -1.444,8.854 z m -2.85,-15.199 c -0.646,-2.242 -1.597,-3.23 -3.116,-3.23 -1.634,0 -2.622,0.988 -3.23,3.154 -0.607,1.938 -0.798,3.648 -0.798,6.498 0,2.773 0.267,4.369 0.798,6.422 0.608,2.166 1.597,3.154 3.23,3.154 1.52,0 2.47,-0.988 3.116,-3.154 0.607,-2.053 0.798,-3.572 0.798,-6.498 0,-2.85 -0.265,-4.484 -0.798,-6.346 z"
   id="path16"
   inkscape:connector-curvature="0"
   style="stroke:none;fill:#000000" />
<path
   d="m 133.946,137.4135 c -0.38,-2.508 -1.368,-3.686 -3.04,-3.686 -2.964,0 -4.028,2.318 -4.028,8.93 0,7.333 1.254,10.298 4.37,10.298 2.128,0 2.698,-1.787 2.698,-3.686 h 3.648 c -0.076,4.217 -2.774,7.258 -6.347,7.258 -5.434,0 -7.866,-4.371 -7.866,-13.756 0,-8.246 2.584,-12.616 7.601,-12.616 2.052,0 3.838,0.912 5.016,2.584 0.95,1.254 1.33,2.356 1.597,4.674 h -3.649 z"
   id="path18"
   inkscape:connector-curvature="0"
   style="stroke:none;fill:#000000" />
<path
   d="m 153.744,156.0705 -3.383,-11.97 h -3.496 v 11.97 h -3.647 v -25.459 h 7.601 c 3.99,0 6.688,2.698 6.688,6.802 0,3.04 -1.254,5.244 -3.648,6.156 l 3.648,12.501 h -3.763 z m -3.116,-21.887 h -3.763 v 6.422 h 3.763 c 2.128,0 3.306,-1.14 3.306,-3.192 -0.001,-1.976 -1.331,-3.23 -3.306,-3.23 z"
   id="path20"
   inkscape:connector-curvature="0"
   style="stroke:none;fill:#000000" />
<path
   d="m 175.366,152.1565 c -1.254,3.002 -3.116,4.371 -5.966,4.371 -3.04,0 -4.826,-1.369 -6.08,-4.371 -1.064,-2.508 -1.444,-4.939 -1.444,-8.854 0,-3.838 0.38,-6.422 1.444,-8.854 1.33,-3.04 3.116,-4.294 6.08,-4.294 2.926,0 4.712,1.254 5.966,4.37 1.063,2.508 1.444,4.94 1.444,8.778 0,3.915 -0.381,6.423 -1.444,8.854 z m -2.85,-15.199 c -0.646,-2.242 -1.597,-3.23 -3.116,-3.23 -1.634,0 -2.622,0.988 -3.23,3.154 -0.607,1.938 -0.798,3.648 -0.798,6.498 0,2.773 0.266,4.369 0.798,6.422 0.608,2.166 1.597,3.154 3.23,3.154 1.52,0 2.47,-0.988 3.116,-3.154 0.607,-2.053 0.798,-3.572 0.798,-6.498 0,-2.85 -0.266,-4.484 -0.798,-6.346 z"
   id="path22"
   inkscape:connector-curvature="0"
   style="stroke:none;fill:#000000" />
<path
   d="m 188.324,156.5275 c -4.484,0 -7.145,-3.762 -7.145,-7.943 h 3.572 c 0,2.129 1.064,4.371 3.572,4.371 1.976,0 3.572,-1.787 3.572,-3.838 0,-1.445 -0.532,-2.508 -2.053,-3.686 -0.531,-0.533 0.912,0.455 -4.294,-3.041 -2.052,-1.406 -3.115,-3.382 -3.115,-5.624 0,-3.648 2.85,-6.612 6.498,-6.612 3.609,0 6.346,2.774 6.46,6.612 h -3.496 c -0.076,-1.786 -1.33,-2.926 -2.964,-2.926 -1.673,0 -3.003,1.254 -3.003,2.926 0,1.254 0.532,1.976 2.395,3.04 4.902,2.85 7.068,5.625 7.068,9.311 0.001,4.104 -3.153,7.41 -7.067,7.41 z"
   id="path24"
   inkscape:connector-curvature="0"
   style="stroke:none;fill:#000000" />
<path
   d="m 206.108,156.5275 c -4.484,0 -7.145,-3.762 -7.145,-7.943 h 3.572 c 0,2.129 1.064,4.371 3.572,4.371 1.976,0 3.572,-1.787 3.572,-3.838 0,-1.445 -0.532,-2.508 -2.053,-3.686 -0.531,-0.533 0.912,0.455 -4.294,-3.041 -2.052,-1.406 -3.115,-3.382 -3.115,-5.624 0,-3.648 2.85,-6.612 6.498,-6.612 3.609,0 6.346,2.774 6.46,6.612 h -3.496 c -0.076,-1.786 -1.33,-2.926 -2.964,-2.926 -1.673,0 -3.003,1.254 -3.003,2.926 0,1.254 0.532,1.976 2.395,3.04 4.902,2.85 7.068,5.625 7.068,9.311 0.002,4.104 -3.153,7.41 -7.067,7.41 z"
   id="path26"
   inkscape:connector-curvature="0"
   style="stroke:none;fill:#000000" />
<path
   d="m 87.225,189.5535 -3.382,-11.969 h -3.496 v 11.969 h -3.648 v -25.459 h 7.6 c 3.99,0 6.688,2.699 6.688,6.801 0,3.041 -1.254,5.244 -3.648,6.156 l 3.648,12.502 h -3.762 z m -3.116,-21.887 h -3.762 v 6.422 h 3.762 c 2.128,0 3.306,-1.141 3.306,-3.193 0,-1.975 -1.33,-3.229 -3.306,-3.229 z"
   id="path28"
   inkscape:connector-curvature="0"
   style="stroke:none;fill:#000000" />
<path
   d="m 105.769,189.5535 -1.786,-6.953 h -5.472 l -1.672,6.953 h -3.686 l 6.346,-25.459 h 3.572 l 6.346,25.459 h -3.648 z m -4.56,-17.86 -1.786,7.334 h 3.648 l -1.862,-7.334 z"
   id="path30"
   inkscape:connector-curvature="0"
   style="stroke:none;fill:#000000" />
<path
   d="m 112.761,189.5535 v -25.459 h 3.572 v 25.459 h -3.572 z"
   id="path32"
   inkscape:connector-curvature="0"
   style="stroke:none;fill:#000000" />
<path
   d="m 121.804,189.5535 v -25.459 h 3.648 v 22.078 h 9.31 v 3.381 h -12.958 z"
   id="path34"
   inkscape:connector-curvature="0"
   style="stroke:none;fill:#000000" />
<path
   d="m 148.709,189.5535 -3.382,-11.969 h -3.496 v 11.969 h -3.647 v -25.459 h 7.6 c 3.99,0 6.688,2.699 6.688,6.801 0,3.041 -1.255,5.244 -3.648,6.156 l 3.648,12.502 h -3.763 z m -3.116,-21.887 h -3.762 v 6.422 h 3.762 c 2.129,0 3.307,-1.141 3.307,-3.193 -0.001,-1.975 -1.331,-3.229 -3.307,-3.229 z"
   id="path36"
   inkscape:connector-curvature="0"
   style="stroke:none;fill:#000000" />
<path
   d="m 169.646,185.6395 c -1.254,3.002 -3.115,4.371 -5.966,4.371 -3.04,0 -4.826,-1.369 -6.08,-4.371 -1.063,-2.508 -1.443,-4.939 -1.443,-8.854 0,-3.838 0.38,-6.422 1.443,-8.854 1.33,-3.039 3.116,-4.293 6.08,-4.293 2.926,0 4.712,1.254 5.966,4.369 1.064,2.508 1.444,4.939 1.444,8.777 0.001,3.915 -0.379,6.423 -1.444,8.855 z m -2.849,-15.199 c -0.646,-2.242 -1.596,-3.229 -3.116,-3.229 -1.634,0 -2.622,0.986 -3.229,3.152 -0.608,1.938 -0.798,3.648 -0.798,6.498 0,2.773 0.266,4.369 0.798,6.422 0.607,2.166 1.596,3.154 3.229,3.154 1.521,0 2.471,-0.988 3.116,-3.154 0.608,-2.053 0.798,-3.572 0.798,-6.498 0,-2.849 -0.266,-4.484 -0.798,-6.345 z"
   id="path38"
   inkscape:connector-curvature="0"
   style="stroke:none;fill:#000000" />
<path
   d="m 186.671,189.5535 -1.786,-6.953 h -5.472 l -1.672,6.953 h -3.687 l 6.346,-25.459 h 3.572 l 6.347,25.459 h -3.648 z m -4.56,-17.86 -1.786,7.334 h 3.647 l -1.861,-7.334 z"
   id="path40"
   inkscape:connector-curvature="0"
   style="stroke:none;fill:#000000" />
<path
   d="m 204.303,188.3755 c -0.912,0.836 -2.166,1.178 -3.572,1.178 h -7.067 v -25.459 h 6.498 c 2.166,0 3.229,0.266 4.142,0.988 1.52,1.064 2.584,3.041 3.04,5.623 0.342,1.861 0.608,4.104 0.608,6.08 -0.001,5.891 -1.18,9.653 -3.649,11.59 z m -0.647,-18.125 c -0.607,-1.785 -1.672,-2.584 -3.306,-2.584 h -3.04 v 18.314 h 3.04 c 2.166,0 3.306,-1.709 3.687,-3.646 0.151,-1.635 0.342,-3.42 0.342,-5.359 0,-2.887 -0.267,-5.662 -0.723,-6.725 z"
   id="path42"
   inkscape:connector-curvature="0"
   style="stroke:none;fill:#000000" />
<path
   d="m 98.854,70.396497 c -0.38,-2.508 -1.368,-3.686 -3.04,-3.686 -2.964,0 -4.028,2.318 -4.028,8.93 0,7.334 1.254,10.298 4.37,10.298 2.128,0 2.698,-1.786 2.698,-3.686 h 3.648 c -0.076,4.218 -2.774,7.258 -6.346,7.258 -5.434,0 -7.866,-4.37 -7.866,-13.756 0,-8.246 2.584,-12.616 7.6,-12.616 2.052,0 3.838,0.912 5.016,2.584 0.95,1.254 1.33,2.356 1.596,4.674 h -3.648 z"
   id="path44"
   inkscape:connector-curvature="0"
   style="stroke:none;fill:#000000" />
<path
   d="m 115.231,77.540497 v 11.514 h -3.648 v -11.514 l -6.27,-13.946 h 3.838 l 4.294,9.196 4.218,-9.196 h 3.915 l -6.347,13.946 z"
   id="path46"
   inkscape:connector-curvature="0"
   style="stroke:none;fill:#000000" />
<path
   d="m 134.877,70.396497 c -0.38,-2.508 -1.368,-3.686 -3.04,-3.686 -2.964,0 -4.027,2.318 -4.027,8.93 0,7.334 1.254,10.298 4.369,10.298 2.129,0 2.698,-1.786 2.698,-3.686 h 3.648 c -0.076,4.218 -2.774,7.258 -6.347,7.258 -5.434,0 -7.865,-4.37 -7.865,-13.756 0,-8.246 2.584,-12.616 7.6,-12.616 2.052,0 3.838,0.912 5.016,2.584 0.95,1.254 1.33,2.356 1.597,4.674 h -3.649 z"
   id="path48"
   inkscape:connector-curvature="0"
   style="stroke:none;fill:#000000" />
<path
   d="m 143.313,89.054497 v -25.46 h 3.647 v 22.078 h 9.311 v 3.382 h -12.958 z"
   id="path50"
   inkscape:connector-curvature="0"
   style="stroke:none;fill:#000000" />
<path
   d="m 159.54,89.054497 v -25.46 h 3.571 v 25.46 h -3.571 z"
   id="path52"
   inkscape:connector-curvature="0"
   style="stroke:none;fill:#000000" />
<path
   d="m 174.321,89.510497 c -4.484,0 -7.145,-3.762 -7.145,-7.942 h 3.572 c 0,2.128 1.064,4.37 3.572,4.37 1.976,0 3.572,-1.786 3.572,-3.838 0,-1.444 -0.532,-2.508 -2.053,-3.686 -0.531,-0.532 0.912,0.456 -4.294,-3.04 -2.052,-1.406 -3.115,-3.382 -3.115,-5.624 0,-3.648 2.85,-6.612 6.498,-6.612 3.609,0 6.346,2.774 6.46,6.612 h -3.496 c -0.076,-1.786 -1.33,-2.926 -2.964,-2.926 -1.673,0 -3.003,1.254 -3.003,2.926 0,1.254 0.532,1.976 2.395,3.04 4.902,2.85 7.068,5.624 7.068,9.31 0.001,4.104 -3.153,7.41 -7.067,7.41 z"
   id="path54"
   inkscape:connector-curvature="0"
   style="stroke:none;fill:#000000" />
<path
   d="m 191.724,66.976497 v 22.078 h -3.687 v -22.078 h -4.636 v -3.382 h 12.958 v 3.382 h -4.635 z"
   id="path56"
   inkscape:connector-curvature="0"
   style="stroke:none;fill:#000000" />
<path
   d="m 82.475,121.3465 c -0.912,0.836 -2.166,1.178 -3.572,1.178 H 71.836 V 97.064497 h 6.498 c 2.166,0 3.229,0.266 4.142,0.988 1.521,1.064 2.584,3.040003 3.04,5.624003 0.342,1.862 0.608,4.104 0.608,6.08 0,5.89 -1.179,9.652 -3.649,11.59 z m -0.645,-18.126 c -0.608,-1.786 -1.672,-2.584 -3.307,-2.584 h -3.04 v 18.316 h 3.04 c 2.166,0 3.307,-1.71 3.687,-3.648 0.151,-1.634 0.342,-3.42 0.342,-5.358 0,-2.888 -0.266,-5.662 -0.722,-6.726 z"
   id="path58"
   inkscape:connector-curvature="0"
   style="stroke:none;fill:#000000" />
<path
   d="M 91.519,122.5245 V 97.064497 h 3.572 V 122.5245 h -3.572 z"
   id="path60"
   inkscape:connector-curvature="0"
   style="stroke:none;fill:#000000" />
<path
   d="m 106.985,122.9805 c -4.483,0 -7.144,-3.762 -7.144,-7.942 h 3.571 c 0,2.128 1.064,4.37 3.572,4.37 1.977,0 3.572,-1.786 3.572,-3.838 0,-1.444 -0.532,-2.508 -2.052,-3.686 -0.532,-0.532 0.912,0.456 -4.294,-3.04 -2.053,-1.406 -3.116,-3.382 -3.116,-5.624 0,-3.648003 2.85,-6.612003 6.498,-6.612003 3.609,0 6.346,2.774 6.46,6.612003 h -3.496 c -0.076,-1.786 -1.33,-2.926 -2.964,-2.926 -1.672,0 -3.002,1.254 -3.002,2.926 0,1.254 0.532,1.976 2.394,3.04 4.902,2.85 7.068,5.624 7.068,9.31 0.002,4.104 -3.153,7.41 -7.067,7.41 z"
   id="path62"
   inkscape:connector-curvature="0"
   style="stroke:none;fill:#000000" />
<path
   d="m 131.837,122.5245 v -14.288 l -4.712,14.288 -4.75,-14.288 v 14.288 h -3.647 V 97.064497 h 3.647 l 4.75,14.288003 4.712,-14.288003 h 3.687 V 122.5245 h -3.687 z"
   id="path64"
   inkscape:connector-curvature="0"
   style="stroke:none;fill:#000000" />
<path
   d="m 154.485,118.6105 c -1.254,3.002 -3.115,4.37 -5.965,4.37 -3.041,0 -4.826,-1.368 -6.081,-4.37 -1.064,-2.508 -1.443,-4.94 -1.443,-8.854 0,-3.838 0.379,-6.422 1.443,-8.854 1.331,-3.040003 3.116,-4.294003 6.081,-4.294003 2.926,0 4.711,1.254 5.965,4.370003 1.064,2.508 1.445,4.94 1.445,8.778 0,3.914 -0.38,6.422 -1.445,8.854 z m -2.849,-15.2 c -0.645,-2.242 -1.596,-3.23 -3.115,-3.23 -1.635,0 -2.623,0.988 -3.23,3.154 -0.607,1.938 -0.797,3.648 -0.797,6.498 0,2.774 0.266,4.37 0.797,6.422 0.607,2.166 1.596,3.154 3.23,3.154 1.52,0 2.471,-0.988 3.115,-3.154 0.609,-2.052 0.799,-3.572 0.799,-6.498 -0.001,-2.85 -0.266,-4.484 -0.799,-6.346 z"
   id="path66"
   inkscape:connector-curvature="0"
   style="stroke:none;fill:#000000" />
<path
   d="m 174.702,119.4085 c -1.254,2.052 -3.648,3.572 -6.08,3.572 -2.508,0 -4.979,-1.444 -6.232,-3.572 -0.721,-1.368 -0.986,-2.432 -0.986,-4.484 V 97.064497 h 3.646 V 115.3805 c 0,2.394 1.445,4.028 3.572,4.028 1.977,0 3.42,-1.634 3.42,-4.028 V 97.064497 h 3.648 V 114.9245 c 0,2.052 -0.265,3.116 -0.988,4.484 z"
   id="path68"
   inkscape:connector-curvature="0"
   style="stroke:none;fill:#000000" />
<path
   d="m 193.132,122.5245 -7.867,-17.062 v 17.062 h -3.646 V 97.064497 h 3.646 l 6.992,15.276003 V 97.064497 h 3.648 V 122.5245 h -2.773 z"
   id="path70"
   inkscape:connector-curvature="0"
   style="stroke:none;fill:#000000" />
<path
   d="m 208.179,100.4465 v 22.078 h -3.686 v -22.078 h -4.637 v -3.382003 h 12.959 v 3.382003 h -4.636 z"
   id="path72"
   inkscape:connector-curvature="0"
   style="stroke:none;fill:#000000" />
<path
   d="m 99.044,200.9985 v 22.078 h -3.687 v -22.078 h -4.636 v -3.381 h 12.958 v 3.381 h -4.635 z"
   id="path74"
   inkscape:connector-curvature="0"
   style="stroke:none;fill:#000000" />
<path
   d="m 117.701,223.0765 -3.382,-11.969 h -3.496 v 11.969 h -3.647 v -25.459 h 7.6 c 3.99,0 6.688,2.697 6.688,6.801 0,3.041 -1.254,5.244 -3.648,6.156 l 3.648,12.502 h -3.763 z m -3.115,-21.886 h -3.763 v 6.422 h 3.763 c 2.128,0 3.306,-1.141 3.306,-3.193 -10e-4,-1.976 -1.331,-3.229 -3.306,-3.229 z"
   id="path76"
   inkscape:connector-curvature="0"
   style="stroke:none;fill:#000000" />
<path
   d="m 136.397,223.0765 -1.785,-6.953 h -5.473 l -1.672,6.953 h -3.687 l 6.347,-25.459 h 3.572 l 6.346,25.459 h -3.648 z m -4.559,-17.859 -1.786,7.334 h 3.648 l -1.862,-7.334 z"
   id="path78"
   inkscape:connector-curvature="0"
   style="stroke:none;fill:#000000" />
<path
   d="m 153.649,204.4185 c -0.381,-2.508 -1.369,-3.686 -3.041,-3.686 -2.963,0 -4.027,2.318 -4.027,8.93 0,7.334 1.254,10.299 4.369,10.299 2.129,0 2.699,-1.787 2.699,-3.686 h 3.648 c -0.076,4.217 -2.775,7.258 -6.348,7.258 -5.434,0 -7.865,-4.371 -7.865,-13.756 0,-8.246 2.583,-12.617 7.599,-12.617 2.053,0 3.838,0.912 5.016,2.584 0.951,1.254 1.33,2.357 1.598,4.674 h -3.648 z"
   id="path80"
   inkscape:connector-curvature="0"
   style="stroke:none;fill:#000000" />
<path
   d="m 172.839,223.0765 -4.484,-12.426 -2.318,4.295 v 8.131 h -3.646 v -25.459 h 3.646 v 10.184 l 5.814,-10.184 h 4.219 l -5.283,8.93 5.891,16.529 h -3.839 z"
   id="path82"
   inkscape:connector-curvature="0"
   style="stroke:none;fill:#000000" />
<path
   d="m 186.86,223.5335 c -4.484,0 -7.145,-3.762 -7.145,-7.943 h 3.572 c 0,2.129 1.064,4.371 3.572,4.371 1.977,0 3.572,-1.787 3.572,-3.838 0,-1.445 -0.531,-2.508 -2.053,-3.686 -0.531,-0.533 0.912,0.455 -4.293,-3.041 -2.053,-1.406 -3.115,-3.383 -3.115,-5.623 0,-3.648 2.85,-6.613 6.498,-6.613 3.609,0 6.346,2.775 6.459,6.613 h -3.496 c -0.076,-1.787 -1.33,-2.928 -2.963,-2.928 -1.674,0 -3.004,1.256 -3.004,2.928 0,1.254 0.533,1.975 2.395,3.039 4.902,2.85 7.068,5.625 7.068,9.311 0.002,4.104 -3.153,7.41 -7.067,7.41 z"
   id="path84"
   inkscape:connector-curvature="0"
   style="stroke:none;fill:#000000" />
</svg>