<?xml version="1.0" encoding="UTF-8" standalone="no"?>
<!-- Generator: Adobe Illustrator 12.0.1, SVG Export Plug-In  -->

<svg
   xmlns:dc="http://purl.org/dc/elements/1.1/"
   xmlns:cc="http://creativecommons.org/ns#"
   xmlns:rdf="http://www.w3.org/1999/02/22-rdf-syntax-ns#"
   xmlns:svg="http://www.w3.org/2000/svg"
   xmlns="http://www.w3.org/2000/svg"
   xmlns:sodipodi="http://sodipodi.sourceforge.net/DTD/sodipodi-0.dtd"
   xmlns:inkscape="http://www.inkscape.org/namespaces/inkscape"
   version="1.1"
   width="286.66199"
   height="286.66324"
   viewBox="-1 0 286.66199 286.66324"
   enable-background="new -1 0 289 288"
   xml:space="preserve"
   id="svg2"
   inkscape:version="0.48.2 r9819"
   sodipodi:docname="AJAX1.svg"><metadata
   id="metadata54"><rdf:RDF><cc:Work
       rdf:about=""><dc:format>image/svg+xml</dc:format><dc:type
         rdf:resource="http://purl.org/dc/dcmitype/StillImage" /></cc:Work></rdf:RDF></metadata><sodipodi:namedview
   pagecolor="#ffffff"
   bordercolor="#666666"
   borderopacity="1"
   objecttolerance="10"
   gridtolerance="10"
   guidetolerance="10"
   inkscape:pageopacity="0"
   inkscape:pageshadow="2"
   inkscape:window-width="1280"
   inkscape:window-height="1004"
   id="namedview52"
   showgrid="false"
   fit-margin-top="0"
   fit-margin-left="0"
   fit-margin-right="0"
   fit-margin-bottom="0"
   inkscape:zoom="2.3177389"
   inkscape:cx="137.58786"
   inkscape:cy="138.70291"
   inkscape:window-x="-8"
   inkscape:window-y="-8"
   inkscape:window-maximized="1"
   inkscape:current-layer="svg2" />
<defs
   id="defs4">
</defs>
<path
   d="M 3.09875,133.38675 132.37975,4.1047494 c 5.471,-5.473 14.421,-5.473 19.896,0 l 129.283,129.2820006 c 5.471,5.47 5.471,14.423 0,19.89 l -129.283,129.284 c -5.475,5.47 -14.425,5.47 -19.896,0 l -129.281,-129.285 c -5.465,-5.466 -5.465,-14.419 0,-19.889 z"
   id="path6"
   style="fill:#ffd033;stroke:none;fill-opacity:1"
   inkscape:connector-curvature="0" />

<path
   clip-rule="evenodd"
   d="M 6.22175,135.43975 134.44075,7.2207494 c 4.339,-4.339 11.442,-4.339 15.785,0 l 128.215,128.2190006 c 4.343,4.343 4.343,11.438 0,15.777 l -128.215,128.225 c -4.343,4.335 -11.446,4.335 -15.785,0 l -128.219,-128.225 c -4.338,-4.339 -4.338,-11.434 0,-15.777"
   id="path10"
   inkscape:connector-curvature="0"
   style="fill-rule:evenodd;stroke:none;fill:#000000" />
<path
   clip-rule="evenodd"
   d="m 10.22475,139.38975 128.162,-128.160001 c 2.162,-2.1699996 5.724,-2.1699996 7.889,0 l 128.16,128.160001 c 2.165,2.166 2.165,5.716 0,7.883 l -128.16,128.161 c -2.165,2.167 -5.727,2.167 -7.889,0 l -128.162,-128.161 c -2.165,-2.167 -2.165,-5.717 0,-7.883"
   id="path12"
   inkscape:connector-curvature="0"
   style="fill:#ffd033;fill-rule:evenodd;stroke:none;fill-opacity:1" />
<path
   d="m 61.82575,162.34275 c -0.4,-2.641 -1.44,-3.88 -3.2,-3.88 -3.12,0 -4.24,2.439 -4.24,9.399 0,7.72 1.32,10.84 4.6,10.84 2.24,0 2.84,-1.88 2.84,-3.88 h 3.84 c -0.08,4.44 -2.92,7.641 -6.68,7.641 -5.72,0 -8.28,-4.601 -8.28,-14.48 0,-8.68 2.72,-13.28 8,-13.28 2.16,0 4.04,0.96 5.28,2.721 1,1.319 1.4,2.479 1.68,4.92 h -3.84 z"
   id="path14"
   inkscape:connector-curvature="0"
   style="stroke:none;fill:#000000" />
<path
   d="m 82.10575,181.98175 -3.56,-12.6 h -3.68 v 12.6 h -3.84 v -26.8 h 8 c 4.2,0 7.04,2.84 7.04,7.16 0,3.199 -1.32,5.52 -3.84,6.479 l 3.84,13.16 h -3.96 z m -3.28,-23.04 h -3.96 v 6.76 h 3.96 c 2.24,0 3.48,-1.2 3.48,-3.359 0,-2.08 -1.4,-3.401 -3.48,-3.401 z"
   id="path16"
   inkscape:connector-curvature="0"
   style="stroke:none;fill:#000000" />
<path
   d="m 104.30575,177.86175 c -1.32,3.16 -3.28,4.601 -6.28,4.601 -3.2,0 -5.08,-1.44 -6.4,-4.601 -1.12,-2.64 -1.52,-5.2 -1.52,-9.32 0,-4.04 0.4,-6.76 1.52,-9.319 1.4,-3.2 3.28,-4.521 6.4,-4.521 3.08,0 4.96,1.32 6.28,4.601 1.12,2.64 1.52,5.199 1.52,9.239 0,4.12 -0.4,6.761 -1.52,9.32 z m -3,-16 c -0.68,-2.36 -1.68,-3.399 -3.28,-3.399 -1.72,0 -2.76,1.039 -3.4,3.319 -0.64,2.04 -0.84,3.84 -0.84,6.84 0,2.92 0.28,4.601 0.84,6.761 0.64,2.279 1.68,3.319 3.4,3.319 1.6,0 2.6,-1.04 3.28,-3.319 0.64,-2.16 0.84,-3.761 0.84,-6.841 0,-3 -0.279,-4.72 -0.84,-6.68 z"
   id="path18"
   inkscape:connector-curvature="0"
   style="stroke:none;fill:#000000" />
<path
   d="m 117.38675,182.46275 c -4.72,0 -7.52,-3.961 -7.52,-8.36 h 3.76 c 0,2.24 1.12,4.6 3.76,4.6 2.08,0 3.76,-1.88 3.76,-4.04 0,-1.52 -0.56,-2.64 -2.16,-3.88 -0.56,-0.56 0.96,0.48 -4.52,-3.2 -2.16,-1.479 -3.28,-3.56 -3.28,-5.92 0,-3.84 3,-6.96 6.84,-6.96 3.8,0 6.68,2.92 6.8,6.96 h -3.68 c -0.08,-1.88 -1.4,-3.08 -3.12,-3.08 -1.76,0 -3.16,1.32 -3.16,3.08 0,1.32 0.56,2.08 2.52,3.2 5.16,3 7.44,5.92 7.44,9.8 -0.001,4.319 -3.321,7.8 -7.44,7.8 z"
   id="path20"
   inkscape:connector-curvature="0"
   style="stroke:none;fill:#000000" />
<path
   d="m 135.54575,182.46275 c -4.72,0 -7.521,-3.961 -7.521,-8.36 h 3.761 c 0,2.24 1.12,4.6 3.76,4.6 2.08,0 3.76,-1.88 3.76,-4.04 0,-1.52 -0.56,-2.64 -2.16,-3.88 -0.56,-0.56 0.96,0.48 -4.52,-3.2 -2.16,-1.479 -3.28,-3.56 -3.28,-5.92 0,-3.84 3,-6.96 6.84,-6.96 3.8,0 6.681,2.92 6.8,6.96 h -3.68 c -0.08,-1.88 -1.399,-3.08 -3.12,-3.08 -1.76,0 -3.16,1.32 -3.16,3.08 0,1.32 0.561,2.08 2.521,3.2 5.16,3 7.439,5.92 7.439,9.8 0,4.319 -3.32,7.8 -7.44,7.8 z"
   id="path22"
   inkscape:connector-curvature="0"
   style="stroke:none;fill:#000000" />
<path
   d="m 161.42575,181.98175 h -3.28 l -2.56,-14 -2.52,14 h -3.4 l -4.24,-26.8 h 3.76 l 2.28,14.28 2.601,-14.28 h 3.039 l 2.521,14.28 2.36,-14.28 h 3.76 l -4.321,26.8 z"
   id="path24"
   inkscape:connector-curvature="0"
   style="stroke:none;fill:#000000" />
<path
   d="m 169.42575,181.98175 v -26.8 h 3.76 v 26.8 h -3.76 z"
   id="path26"
   inkscape:connector-curvature="0"
   style="stroke:none;fill:#000000" />
<path
   d="m 191.22575,181.98175 -8.28,-17.96 v 17.96 h -3.84 v -26.8 h 3.84 l 7.36,16.08 v -16.08 h 3.84 v 26.8 h -2.92 z"
   id="path28"
   inkscape:connector-curvature="0"
   style="stroke:none;fill:#000000" />
<path
   d="m 211.18575,180.74175 c -0.96,0.88 -2.28,1.24 -3.76,1.24 h -7.44 v -26.8 h 6.84 c 2.28,0 3.4,0.28 4.36,1.04 1.6,1.12 2.72,3.2 3.2,5.92 0.359,1.96 0.64,4.32 0.64,6.399 0,6.201 -1.241,10.161 -3.84,12.201 z m -0.68,-19.08 c -0.641,-1.88 -1.761,-2.72 -3.48,-2.72 h -3.2 v 19.28 h 3.2 c 2.28,0 3.48,-1.8 3.88,-3.84 0.16,-1.721 0.36,-3.601 0.36,-5.641 0,-3.039 -0.28,-5.959 -0.76,-7.079 z"
   id="path30"
   inkscape:connector-curvature="0"
   style="stroke:none;fill:#000000" />
<path
   d="m 226.50475,182.46275 c -4.72,0 -7.521,-3.961 -7.521,-8.36 h 3.761 c 0,2.24 1.12,4.6 3.76,4.6 2.08,0 3.76,-1.88 3.76,-4.04 0,-1.52 -0.56,-2.64 -2.16,-3.88 -0.56,-0.56 0.96,0.48 -4.52,-3.2 -2.16,-1.479 -3.28,-3.56 -3.28,-5.92 0,-3.84 3,-6.96 6.84,-6.96 3.8,0 6.681,2.92 6.8,6.96 h -3.68 c -0.08,-1.88 -1.399,-3.08 -3.12,-3.08 -1.76,0 -3.16,1.32 -3.16,3.08 0,1.32 0.561,2.08 2.521,3.2 5.16,3 7.439,5.92 7.439,9.8 0,4.319 -3.32,7.8 -7.44,7.8 z"
   id="path32"
   inkscape:connector-curvature="0"
   style="stroke:none;fill:#000000" />
<path
   d="m 67.22575,132.99775 c -0.96,0.88 -2.28,1.24 -3.76,1.24 h -7.44 v -26.8 h 6.84 c 2.28,0 3.4,0.28 4.36,1.04 1.601,1.12 2.72,3.2 3.2,5.92 0.36,1.96 0.64,4.32 0.64,6.4 0,6.2 -1.24,10.16 -3.84,12.2 z m -0.68,-19.08 c -0.641,-1.88 -1.76,-2.72 -3.48,-2.72 h -3.2 v 19.28 h 3.2 c 2.28,0 3.48,-1.8 3.88,-3.84 0.16,-1.72 0.36,-3.6 0.36,-5.64 0,-3.04 -0.28,-5.96 -0.76,-7.08 z"
   id="path34"
   inkscape:connector-curvature="0"
   style="stroke:none;fill:#000000" />
<path
   d="m 87.54575,134.23775 -1.881,-7.32 h -5.76 l -1.76,7.32 h -3.88 l 6.68,-26.8 h 3.76 l 6.681,26.8 h -3.84 z m -4.801,-18.8 -1.88,7.72 h 3.84 l -1.96,-7.72 z"
   id="path36"
   inkscape:connector-curvature="0"
   style="stroke:none;fill:#000000" />
<path
   d="m 107.18575,134.23775 -8.28,-17.96 v 17.96 h -3.84 v -26.8 h 3.84 l 7.36,16.08 v -16.08 h 3.84 v 26.8 h -2.92 z"
   id="path38"
   inkscape:connector-curvature="0"
   style="stroke:none;fill:#000000" />
<path
   d="m 129.66475,130.95775 c -1.04,2.32 -3.2,3.76 -5.92,3.76 -3.2,0 -5.56,-1.6 -6.88,-4.6 -0.84,-2 -1.4,-5.76 -1.4,-9.24 0,-3.76 0.28,-6.48 1.24,-9.04 0.92,-2.8 3.64,-4.88 6.76,-4.88 3.84,0 6.761,2.84 6.96,6.8 h -3.84 c -0.12,-1.8 -1.32,-3.04 -3.2,-3.04 -1.319,0 -2.359,0.68 -3.04,2 -0.72,1.32 -1.199,4.32 -1.199,7.52 0,2.24 0.199,4.6 0.56,6.68 0.561,2.6 1.88,4.04 3.96,4.04 1.96,0 2.92,-1.32 2.92,-4.16 v -1.76 h -3.04 v -3.76 h 6.88 v 5.52 c -0.001,1.88 -0.2,3.04 -0.761,4.16 z"
   id="path40"
   inkscape:connector-curvature="0"
   style="stroke:none;fill:#000000" />
<path
   d="m 135.78475,134.23775 v -26.8 h 12.6 v 3.76 h -8.76 v 6.76 h 5.56 v 3.68 h -5.56 v 8.84 h 9.8 v 3.76 h -13.64 z"
   id="path42"
   inkscape:connector-curvature="0"
   style="stroke:none;fill:#000000" />
<path
   d="m 165.02575,134.23775 -3.56,-12.6 h -3.681 v 12.6 h -3.84 v -26.8 h 8 c 4.2,0 7.04,2.84 7.04,7.16 0,3.2 -1.32,5.52 -3.84,6.48 l 3.84,13.16 h -3.959 z m -3.281,-23.04 h -3.96 v 6.76 h 3.96 c 2.24,0 3.48,-1.2 3.48,-3.36 0.001,-2.08 -1.4,-3.4 -3.48,-3.4 z"
   id="path44"
   inkscape:connector-curvature="0"
   style="stroke:none;fill:#000000" />
<path
   d="m 187.22475,130.11775 c -1.319,3.16 -3.279,4.6 -6.279,4.6 -3.2,0 -5.08,-1.44 -6.4,-4.6 -1.12,-2.64 -1.52,-5.2 -1.52,-9.32 0,-4.04 0.399,-6.76 1.52,-9.32 1.4,-3.2 3.28,-4.52 6.4,-4.52 3.08,0 4.96,1.32 6.279,4.6 1.12,2.64 1.521,5.2 1.521,9.24 -10e-4,4.12 -0.401,6.76 -1.521,9.32 z m -3,-16 c -0.68,-2.36 -1.68,-3.4 -3.279,-3.4 -1.721,0 -2.761,1.04 -3.4,3.32 -0.64,2.04 -0.84,3.84 -0.84,6.84 0,2.92 0.28,4.6 0.84,6.76 0.64,2.28 1.68,3.32 3.4,3.32 1.6,0 2.6,-1.04 3.279,-3.32 0.641,-2.16 0.84,-3.76 0.84,-6.84 0,-3 -0.28,-4.72 -0.84,-6.68 z"
   id="path46"
   inkscape:connector-curvature="0"
   style="stroke:none;fill:#000000" />
<path
   d="m 208.10575,130.95775 c -1.32,2.16 -3.84,3.76 -6.4,3.76 -2.64,0 -5.239,-1.52 -6.56,-3.76 -0.76,-1.44 -1.04,-2.56 -1.04,-4.72 v -18.8 h 3.84 v 19.28 c 0,2.52 1.521,4.24 3.76,4.24 2.08,0 3.601,-1.72 3.601,-4.24 v -19.28 h 3.84 v 18.8 c -0.001,2.16 -0.281,3.28 -1.041,4.72 z"
   id="path48"
   inkscape:connector-curvature="0"
   style="stroke:none;fill:#000000" />
<path
   d="m 221.18575,134.71775 c -4.72,0 -7.521,-3.96 -7.521,-8.36 h 3.761 c 0,2.24 1.119,4.6 3.76,4.6 2.08,0 3.76,-1.88 3.76,-4.04 0,-1.52 -0.56,-2.64 -2.16,-3.88 -0.56,-0.56 0.96,0.48 -4.52,-3.2 -2.16,-1.48 -3.28,-3.56 -3.28,-5.92 0,-3.84 3,-6.96 6.84,-6.96 3.8,0 6.681,2.92 6.8,6.96 h -3.68 c -0.08,-1.88 -1.4,-3.08 -3.12,-3.08 -1.76,0 -3.16,1.32 -3.16,3.08 0,1.32 0.561,2.08 2.521,3.2 5.16,3 7.439,5.92 7.439,9.8 -0.001,4.32 -3.32,7.8 -7.44,7.8 z"
   id="path50"
   inkscape:connector-curvature="0"
   style="stroke:none;fill:#000000" />
</svg>