<?xml version="1.0" encoding="UTF-8" standalone="no"?>
<!-- Generator: Adobe Illustrator 12.0.1, SVG Export Plug-In  -->

<svg
   xmlns:dc="http://purl.org/dc/elements/1.1/"
   xmlns:cc="http://creativecommons.org/ns#"
   xmlns:rdf="http://www.w3.org/1999/02/22-rdf-syntax-ns#"
   xmlns:svg="http://www.w3.org/2000/svg"
   xmlns="http://www.w3.org/2000/svg"
   xmlns:sodipodi="http://sodipodi.sourceforge.net/DTD/sodipodi-0.dtd"
   xmlns:inkscape="http://www.inkscape.org/namespaces/inkscape"
   version="1.1"
   width="286.36014"
   height="286.37888"
   viewBox="-1 0 286.36014 286.37888"
   enable-background="new -1 0 290 288"
   xml:space="preserve"
   id="svg2"
   inkscape:version="0.48.2 r9819"
   sodipodi:docname="AJAX1.svg"><metadata
   id="metadata42"><rdf:RDF><cc:Work
       rdf:about=""><dc:format>image/svg+xml</dc:format><dc:type
         rdf:resource="http://purl.org/dc/dcmitype/StillImage" /></cc:Work></rdf:RDF></metadata><sodipodi:namedview
   pagecolor="#ffffff"
   bordercolor="#666666"
   borderopacity="1"
   objecttolerance="10"
   gridtolerance="10"
   guidetolerance="10"
   inkscape:pageopacity="0"
   inkscape:pageshadow="2"
   inkscape:window-width="1280"
   inkscape:window-height="1004"
   id="namedview40"
   showgrid="false"
   fit-margin-top="0"
   fit-margin-left="0"
   fit-margin-right="0"
   fit-margin-bottom="0"
   inkscape:zoom="2.3177389"
   inkscape:cx="134.04434"
   inkscape:cy="175.9238"
   inkscape:window-x="-8"
   inkscape:window-y="-8"
   inkscape:window-maximized="1"
   inkscape:current-layer="svg2" />
<defs
   id="defs4">
</defs>
<path
   d="M 134.50775,283.24575 2.1687489,150.88875 c -4.225,-4.234 -4.225,-11.129 0,-15.352 L 134.50775,3.1717504 c 4.218,-4.228 11.117,-4.228 15.349,-0.006 l 132.326,132.3709996 c 4.234,4.237 4.234,11.117 0.015,15.352 l -132.341,132.357 c -4.185,4.173 -11.172,4.182 -15.349,0"
   id="path6"
   style="fill:#ffd033;stroke:none;fill-opacity:1"
   inkscape:connector-curvature="0" />

<path
   clip-rule="evenodd"
   d="M 136.60475,281.09275 4.3317489,148.78075 c -3.045,-3.053 -3.04,-8.083 0,-11.142 L 136.60475,5.3297504 c 3.055,-3.039 8.089,-3.039 11.137,0 l 132.284,132.3179996 c 3.046,3.054 3.046,8.08 0,11.132 l -132.284,132.313 c -3.048,3.031 -8.082,3.046 -11.137,0"
   id="path10"
   inkscape:connector-curvature="0"
   style="fill:#000000;fill-rule:evenodd;stroke:none" />
<path
   clip-rule="evenodd"
   d="M 139.56475,278.07775 7.3507489,145.83275 c -1.468,-1.417 -1.468,-3.832 0,-5.25 L 139.55675,8.3567504 c 1.41,-1.473 3.83,-1.473 5.238,0 l 132.214,132.2259996 c 1.455,1.418 1.455,3.842 0,5.258 l -132.214,132.237 c -1.408,1.458 -3.821,1.458 -5.23,0"
   id="path12"
   inkscape:connector-curvature="0"
   style="fill:#ffd033;fill-rule:evenodd;stroke:none;fill-opacity:1" />
<path
   d="m 91.688749,161.21275 c -5.129,0 -8.394,-1.969 -10.621,-6.218 -1.555,-3.057 -2.539,-7.461 -2.539,-11.813 0,-5.492 1.45,-10.984 3.886,-14.041 2.072,-2.539 4.974,-3.886 8.912,-3.886 5.232,0 8.497,2.228 10.828001,7.098 l -5.129001,2.176 c -1.917,-2.953 -3.058,-3.679 -5.699,-3.679 -2.798,0 -4.663,1.244 -5.855,4.3 -0.881,2.073 -1.347,5.078 -1.347,8.031 0,3.783 0.829,7.564 2.176,9.741 1.244,1.813 2.798,2.694 5.233,2.694 2.331,0 4.041,-1.244 5.389,-4.042 l 5.232001,1.969 c -2.072,5.079 -5.492001,7.67 -10.466001,7.67 z"
   id="path14"
   inkscape:connector-curvature="0"
   style="fill:#000000;stroke:none" />
<path
   d="m 127.85375,160.59075 v -15.129 h -12.643 v 15.129 h -5.492 v -34.714 h 5.492 v 13.989 h 12.643 v -13.989 h 5.492 v 34.714 h -5.492 z"
   id="path16"
   inkscape:connector-curvature="0"
   style="fill:#000000;stroke:none" />
<path
   d="m 141.63575,160.59075 v -34.714 h 5.596 v 34.714 h -5.596 z"
   id="path18"
   inkscape:connector-curvature="0"
   style="fill:#000000;stroke:none" />
<path
   d="m 155.51975,160.59075 v -34.714 h 5.492 v 29.584 h 16.063 v 5.13 h -21.555 z"
   id="path20"
   inkscape:connector-curvature="0"
   style="fill:#000000;stroke:none" />
<path
   d="m 199.71575,158.62175 c -1.295,1.243 -3.16,1.865 -4.974,1.969 -0.362,0 -1.088,0 -1.969,0 h -10.57 v -34.714 h 11.191 c 3.523,0 4.871,0.363 6.736,1.813 3.627,3.16 5.699,8.652 5.699,15.492 10e-4,6.943 -2.176,12.436 -6.113,15.44 z m -2.28,-25.802 c -0.881,-0.829 -2.072,-1.451 -3.523,-1.451 h -6.218 v 23.626 h 5.492 c 1.813,0 2.901,-0.363 3.886,-1.348 2.073,-2.072 3.161,-5.854 3.161,-10.465 0,-4.663 -1.088,-8.549 -2.798,-10.362 z"
   id="path22"
   inkscape:connector-curvature="0"
   style="fill:#000000;stroke:none" />
<path
   d="m 103.83975,105.77375 c -1.296,1.243 -3.161,1.865 -4.975001,1.969 -0.362,0 -1.088,0 -1.969,0 h -10.569 v -34.714 h 11.191 c 3.522001,0 4.870001,0.363 6.735001,1.813 3.627,3.161 5.699,8.653 5.699,15.492 10e-4,6.943 -2.175,12.435 -6.112,15.44 z m -2.281,-25.802 c -0.881,-0.829 -2.072001,-1.451 -3.523001,-1.451 h -6.217 v 23.626 h 5.491 c 1.813,0 2.902001,-0.363 3.887001,-1.347 2.072,-2.073 3.16,-5.854 3.16,-10.466 0,-4.663 -1.088,-8.549 -2.798,-10.362 z"
   id="path24"
   inkscape:connector-curvature="0"
   style="fill:#000000;stroke:none" />
<path
   d="m 117.51675,107.74275 v -34.714 h 20.466 v 5.492 h -14.974 v 8.498 h 10.103 v 5.596 h -10.103 v 9.533 h 16.062 v 5.596 h -21.554 z"
   id="path26"
   inkscape:connector-curvature="0"
   style="fill:#000000;stroke:none" />
<path
   d="m 165.38975,107.74275 -3.42,-9.741 h -10.828 l -3.42,9.741 h -5.854 l 11.969,-34.714 h 5.439 l 11.969,34.714 h -5.855 z m -8.755,-25.077 -3.575,9.741 h 6.942 l -3.367,-9.741 z"
   id="path28"
   inkscape:connector-curvature="0"
   style="fill:#000000;stroke:none" />
<path
   d="m 181.96975,78.52075 v 8.498 h 10.104 v 5.596 h -10.104 v 15.129 h -5.492 v -34.715 h 21.555 v 5.492 h -16.063 z"
   id="path30"
   inkscape:connector-curvature="0"
   style="fill:#000000;stroke:none" />
<path
   d="m 106.79275,212.92175 -3.419,-9.741 H 92.543749 l -3.419,9.741 h -5.855 l 11.969,-34.715 h 5.440001 l 11.968,34.715 h -5.854 z m -8.757001,-25.077 -3.575,9.74 h 6.943001 l -3.368001,-9.74 z"
   id="path32"
   inkscape:connector-curvature="0"
   style="fill:#000000;stroke:none" />
<path
   d="m 135.54775,212.92175 -5.596,-15.13 h -6.58 v 15.13 h -5.492 v -34.715 h 11.45 c 2.694,0 4.508,0.259 6.218,1.088 3.057,1.451 5.233,5.13 5.233,8.653 0,3.679 -2.176,7.306 -5.388,8.756 l 6.114,16.218 h -5.959 z m -2.435,-28.6 c -0.933,-0.519 -1.347,-0.622 -3.161,-0.622 h -6.58 v 8.497 h 6.58 c 1.71,0 2.28,-0.104 3.161,-0.569 1.347,-0.777 2.176,-2.229 2.176,-3.679 0,-1.452 -0.829,-2.902 -2.176,-3.627 z"
   id="path34"
   inkscape:connector-curvature="0"
   style="fill:#000000;stroke:none" />
<path
   d="m 147.35875,212.92175 v -34.715 h 20.467 v 5.492 h -14.975 v 8.497 h 10.104 v 5.596 h -10.104 v 9.534 h 16.063 v 5.596 h -21.555 z"
   id="path36"
   inkscape:connector-curvature="0"
   style="fill:#000000;stroke:none" />
<path
   d="m 195.23375,212.92175 -3.42,-9.741 h -10.828 l -3.42,9.741 h -5.855 l 11.969,-34.715 h 5.441 l 11.969,34.715 h -5.856 z m -8.756,-25.077 -3.576,9.74 h 6.943 l -3.367,-9.74 z"
   id="path38"
   inkscape:connector-curvature="0"
   style="fill:#000000;stroke:none" />
</svg>