<?xml version="1.0" encoding="UTF-8" standalone="no"?>
<!-- Generator: Adobe Illustrator 12.0.1, SVG Export Plug-In  -->

<svg
   xmlns:dc="http://purl.org/dc/elements/1.1/"
   xmlns:cc="http://creativecommons.org/ns#"
   xmlns:rdf="http://www.w3.org/1999/02/22-rdf-syntax-ns#"
   xmlns:svg="http://www.w3.org/2000/svg"
   xmlns="http://www.w3.org/2000/svg"
   xmlns:sodipodi="http://sodipodi.sourceforge.net/DTD/sodipodi-0.dtd"
   xmlns:inkscape="http://www.inkscape.org/namespaces/inkscape"
   version="1.1"
   width="286.35751"
   height="286.38239"
   viewBox="0 0 286.35751 286.38239"
   enable-background="new 0 0 289 288"
   xml:space="preserve"
   id="svg2"
   inkscape:version="0.48.2 r9819"
   sodipodi:docname="AJAX1.svg"><metadata
   id="metadata34"><rdf:RDF><cc:Work
       rdf:about=""><dc:format>image/svg+xml</dc:format><dc:type
         rdf:resource="http://purl.org/dc/dcmitype/StillImage" /></cc:Work></rdf:RDF></metadata><sodipodi:namedview
   pagecolor="#ffffff"
   bordercolor="#666666"
   borderopacity="1"
   objecttolerance="10"
   gridtolerance="10"
   guidetolerance="10"
   inkscape:pageopacity="0"
   inkscape:pageshadow="2"
   inkscape:window-width="1280"
   inkscape:window-height="1004"
   id="namedview32"
   showgrid="false"
   fit-margin-top="0"
   fit-margin-left="0"
   fit-margin-right="0"
   fit-margin-bottom="0"
   inkscape:zoom="1.6388889"
   inkscape:cx="90.985983"
   inkscape:cy="111.63605"
   inkscape:window-x="-8"
   inkscape:window-y="-8"
   inkscape:window-maximized="1"
   inkscape:current-layer="svg2" />
<defs
   id="defs4">
</defs>
<path
   d="M 135.50425,283.24775 3.1672459,150.88875 c -4.223,-4.231 -4.223,-11.124 0,-15.352 L 135.50425,3.1737502 c 4.219,-4.231 11.115,-4.231 15.348,-0.004 l 132.326,132.3679998 c 4.236,4.24 4.236,11.12 0.018,15.352 l -132.344,132.358 c -4.185,4.175 -11.172,4.184 -15.348,0"
   id="path6"
   style="fill:#ffd033;stroke:none;fill-opacity:1"
   inkscape:connector-curvature="0" />

<path
   clip-rule="evenodd"
   d="M 137.60125,281.09975 5.3282459,148.78375 c -3.043,-3.051 -3.039,-8.081 0,-11.141 L 137.60125,5.3347502 c 3.056,-3.042 8.088,-3.042 11.137,0 l 132.279,132.3199998 c 3.056,3.051 3.056,8.077 0,11.128 l -132.279,132.317 c -3.049,3.029 -8.081,3.047 -11.137,0"
   id="path10"
   inkscape:connector-curvature="0"
   style="fill:#000000;fill-rule:evenodd;stroke:none" />
<path
   clip-rule="evenodd"
   d="M 140.56125,278.08275 8.3492459,145.83675 c -1.467,-1.42 -1.467,-3.829 0,-5.252 L 140.55225,8.3557502 c 1.411,-1.472 3.828,-1.472 5.241,0 l 132.212,132.2289998 c 1.449,1.423 1.449,3.846 0,5.26 l -132.212,132.238 c -1.413,1.458 -3.824,1.458 -5.232,0"
   id="path12"
   style="fill:#ffd033;fill-rule:evenodd;stroke:none;fill-opacity:1"
   inkscape:connector-curvature="0" />
<path
   d="m 99.067246,161.69075 c -0.578,-3.813 -2.08,-5.604 -4.623,-5.604 -4.506,0 -6.124,3.524 -6.124,13.578 0,11.152 1.907,15.658 6.644,15.658 3.236,0 4.103,-2.715 4.103,-5.604 h 5.546004 c -0.116,6.414 -4.218,11.036 -9.649004,11.036 -8.262,0 -11.959,-6.645 -11.959,-20.917 0,-12.538 3.929,-19.183 11.555,-19.183 3.12,0 5.835004,1.387 7.626004,3.93 1.444,1.906 2.022,3.582 2.427,7.106 h -5.546004 z"
   id="path14"
   inkscape:connector-curvature="0"
   style="fill:#000000;stroke:none" />
<path
   d="m 128.53225,190.06075 v -17.508 h -10.631 v 17.508 h -5.546 v -38.713 h 5.546 v 15.773 h 10.631 v -15.773 h 5.546 v 38.713 h -5.546 z"
   id="path16"
   inkscape:connector-curvature="0"
   style="fill:#000000;stroke:none" />
<path
   d="m 142.51325,190.06075 v -38.713 h 5.431 v 38.713 h -5.431 z"
   id="path18"
   inkscape:connector-curvature="0"
   style="fill:#000000;stroke:none" />
<path
   d="m 156.49425,190.06075 v -38.713 h 5.547 v 33.57 h 14.155 v 5.143 h -19.702 z"
   id="path20"
   inkscape:connector-curvature="0"
   style="fill:#000000;stroke:none" />
<path
   d="m 197.80525,188.26975 c -1.387,1.271 -3.294,1.791 -5.432,1.791 h -10.746 v -38.713 h 9.88 c 3.293,0 4.911,0.405 6.298,1.503 2.311,1.617 3.929,4.622 4.622,8.551 0.52,2.831 0.924,6.24 0.924,9.245 0,8.956 -1.791,14.676 -5.546,17.623 z m -0.982,-27.562 c -0.925,-2.716 -2.542,-3.929 -5.026,-3.929 h -4.622 v 27.85 h 4.622 c 3.293,0 5.026,-2.6 5.604,-5.546 0.231,-2.484 0.521,-5.2 0.521,-8.148 -0.002,-4.391 -0.406,-8.608 -1.099,-10.227 z"
   id="path22"
   inkscape:connector-curvature="0"
   style="fill:#000000;stroke:none" />
<path
   d="m 108.19525,132.68675 c -1.387,1.271 -3.293,1.791 -5.431,1.791 H 92.018246 v -38.712 h 9.880004 c 3.293,0 4.91,0.404 6.297,1.502 2.312,1.618 3.929,4.623 4.622,8.551 0.521,2.831 0.925,6.24 0.925,9.245 -0.001,8.956 -1.792,14.676 -5.547,17.623 z m -0.982,-27.561 c -0.925,-2.715 -2.543,-3.929 -5.027,-3.929 h -4.622004 v 27.85 h 4.622004 c 3.294,0 5.027,-2.6 5.604,-5.547 0.231,-2.485 0.521,-5.2 0.521,-8.147 0,-4.391 -0.404,-8.609 -1.098,-10.227 z"
   id="path24"
   inkscape:connector-curvature="0"
   style="fill:#000000;stroke:none" />
<path
   d="m 121.36725,134.47775 v -38.712 h 18.2 v 5.431 h -12.653 v 9.765 h 8.03 v 5.315 h -8.03 v 12.77 h 14.155 v 5.431 h -19.702 z"
   id="path26"
   inkscape:connector-curvature="0"
   style="fill:#000000;stroke:none" />
<path
   d="m 163.77525,134.47775 -2.716,-10.573 h -8.32 l -2.542,10.573 h -5.604 l 9.649,-38.712 h 5.431 l 9.648,38.712 h -5.546 z m -6.934,-27.156 -2.716,11.151 h 5.547 l -2.831,-11.151 z"
   id="path28"
   inkscape:connector-curvature="0"
   style="fill:#000000;stroke:none" />
<path
   d="m 180.18325,101.19675 v 9.765 h 7.741 v 5.315 h -7.741 v 18.201 h -5.547 v -38.712 h 19.702 v 5.431 h -14.155 z"
   id="path30"
   inkscape:connector-curvature="0"
   style="fill:#000000;stroke:none" />
</svg>