<?xml version="1.0" encoding="UTF-8" standalone="no"?>
<!-- Created with Inkscape (http://www.inkscape.org/) -->

<svg
   xmlns:dc="http://purl.org/dc/elements/1.1/"
   xmlns:cc="http://creativecommons.org/ns#"
   xmlns:rdf="http://www.w3.org/1999/02/22-rdf-syntax-ns#"
   xmlns:svg="http://www.w3.org/2000/svg"
   xmlns="http://www.w3.org/2000/svg"
   xmlns:sodipodi="http://sodipodi.sourceforge.net/DTD/sodipodi-0.dtd"
   xmlns:inkscape="http://www.inkscape.org/namespaces/inkscape"
   width="49.251999in"
   height="49.251999in"
   viewBox="0 0 1251.0008 1251.0008"
   version="1.1"
   id="svg7045"
   inkscape:version="0.92.2 (5c3e80d, 2017-08-06)"
   sodipodi:docname="88.svg">
  <defs
     id="defs7039" />
  <sodipodi:namedview
     id="base"
     pagecolor="#ffffff"
     bordercolor="#666666"
     borderopacity="1.0"
     inkscape:pageopacity="0.0"
     inkscape:pageshadow="2"
     inkscape:zoom="0.1048583"
     inkscape:cx="3362.5263"
     inkscape:cy="2841.0701"
     inkscape:document-units="in"
     inkscape:current-layer="layer1"
     showgrid="false"
     units="in"
     fit-margin-top="0"
     fit-margin-left="0"
     fit-margin-right="0"
     fit-margin-bottom="0"
     inkscape:window-width="1920"
     inkscape:window-height="1057"
     inkscape:window-x="-8"
     inkscape:window-y="-8"
     inkscape:window-maximized="1" />
  <metadata
     id="metadata7042">
    <rdf:RDF>
      <cc:Work
         rdf:about="">
        <dc:format>image/svg+xml</dc:format>
        <dc:type
           rdf:resource="http://purl.org/dc/dcmitype/StillImage" />
        <dc:title></dc:title>
      </cc:Work>
    </rdf:RDF>
  </metadata>
  <g
     inkscape:label="Layer 1"
     inkscape:groupmode="layer"
     id="layer1"
     transform="translate(-7.6875851e-7,954.00082)">
    <rect
       style="opacity:1;fill:#ffd400;fill-opacity:1;stroke:none;stroke-width:36.29109955;stroke-linejoin:round;stroke-miterlimit:4;stroke-dasharray:none;stroke-opacity:1"
       id="rect2313"
       width="914.40002"
       height="914.40002"
       x="-667.21069"
       y="-1131.7772"
       rx="57.150002"
       ry="57.150002"
       transform="matrix(-0.70710678,-0.70710678,-0.70710678,0.70710678,0,0)" />
    <rect
       ry="41.274998"
       rx="41.274998"
       y="-1115.9021"
       x="-651.33563"
       height="882.64996"
       width="882.64996"
       id="rect2315"
       style="opacity:1;fill:#000000;fill-opacity:1;stroke:none;stroke-width:35.0309906;stroke-linejoin:round;stroke-miterlimit:4;stroke-dasharray:none;stroke-opacity:1"
       transform="matrix(-0.70710678,-0.70710678,-0.70710678,0.70710678,0,0)" />
    <rect
       ry="19.049999"
       rx="19.049999"
       y="-1093.6772"
       x="-629.1106"
       height="838.20001"
       width="838.20001"
       id="rect2317"
       style="opacity:1;fill:#ffd400;fill-opacity:1;stroke:none;stroke-width:33.26684189;stroke-linejoin:round;stroke-miterlimit:4;stroke-dasharray:none;stroke-opacity:1"
       transform="matrix(-0.70710678,-0.70710678,-0.70710678,0.70710678,0,0)" />
    <path
       style="fill:#000000;stroke:none;stroke-width:4.22306442"
       inkscape:connector-curvature="0"
       id="path875"
       d="m 466.85333,-487.94414 c -5.76868,5.0037 -13.70799,7.0515 -22.61029,7.0515 h -44.7265 v -152.40064 h 41.1242 c 13.7081,0 20.44391,1.5963 26.21259,5.912 9.6244,6.3686 16.35591,18.1975 19.2446,33.6656 2.1663,11.1454 3.85141,24.5624 3.85141,36.3947 0,35.25495 -7.45371,57.77605 -23.09601,69.37684 z m -4.0794,-108.50284 c -3.85138,-10.6891 -10.58719,-15.4695 -20.92529,-15.4695 h -19.2445 v 109.63924 h 19.2445 c 13.708,0 20.92529,-10.2376 23.324,-21.83829 0.96719,-9.7761 2.1707,-20.47332 2.1707,-32.07385 0,-17.2798 -1.68939,-33.8906 -4.56941,-40.2576 z" />
    <path
       style="fill:#000000;stroke:none;stroke-width:4.22306442"
       inkscape:connector-curvature="0"
       id="path877"
       d="m 528.99583,-480.89264 v -152.40064 h 75.75751 v 21.3802 h -52.67431 v 38.4473 h 33.42982 v 20.9248 h -33.42982 v 50.26855 h 58.9244 v 21.37979 z" />
    <path
       style="fill:#000000;stroke:none;stroke-width:4.22306442"
       inkscape:connector-curvature="0"
       id="path879"
       d="m 711.95152,-480.89264 -11.30509,-41.62679 h -34.6334 l -10.58291,41.62679 h -23.32828 l 40.16988,-152.40064 h 22.61011 l 40.1657,152.40064 z m -28.8603,-106.90964 -11.30519,43.90285 h 23.09169 z" />
    <path
       style="fill:#000000;stroke:none;stroke-width:4.22306442"
       inkscape:connector-curvature="0"
       id="path881"
       d="m 792.55713,-611.91648 v 38.4473 h 32.23051 v 20.9252 h -32.23051 v 71.65134 h -23.0917 v -152.40064 h 82.0161 v 21.3802 h -58.9244 z" />
    <path
       style="fill:#000000;stroke:none;stroke-width:4.07703447"
       inkscape:connector-curvature="0"
       id="path883"
       d="m 256.60186,-362.74693 c -2.3206,-14.49411 -8.358,-21.30311 -18.5743,-21.30311 -18.1105,0 -24.6133,13.3968 -24.6133,51.60711 0,42.38169 7.66,59.51209 26.6997,59.51209 13.0023,0 16.4879,-10.32269 16.4879,-21.30631 h 22.2926 c -0.4623,24.3772 -16.9517,41.94532 -38.7805,41.94532 -33.2024,0 -48.0646,-25.25411 -48.0646,-79.4948 0,-47.65151 15.7914,-72.90571 46.442,-72.90571 12.5416,0 23.4514,5.2713 30.6521,14.93 5.8047,7.25 8.1284,13.6186 9.7556,27.0107 h -22.2972 z" />
    <path
       style="fill:#000000;stroke:none;stroke-width:4.07703447"
       inkscape:connector-curvature="0"
       id="path885"
       d="m 371.46405,-254.92674 v -66.5372 h -42.7237 v 66.5372 h -22.28799 v -147.1277 h 22.28799 v 59.9498 h 42.7237 v -59.9498 h 22.2932 v 147.1277 z" />
    <path
       style="fill:#000000;stroke:none;stroke-width:4.07703447"
       inkscape:connector-curvature="0"
       id="path887"
       d="m 440.39445,-254.92674 v -147.1277 h 21.82851 v 147.1277 z" />
    <path
       style="fill:#000000;stroke:none;stroke-width:4.07703447"
       inkscape:connector-curvature="0"
       id="path889"
       d="m 502.89535,-254.92674 v -147.1277 h 22.29321 v 127.58259 h 56.88697 v 19.54511 z" />
    <path
       style="fill:#000000;stroke:none;stroke-width:4.07703447"
       inkscape:connector-curvature="0"
       id="path891"
       d="m 675.05234,-261.72984 c -5.5693,4.83539 -13.23409,6.8077 -21.8285,6.8077 h -43.18799 v -147.1277 h 39.70211 c 13.23408,0 19.74098,1.541 25.31017,5.7076 9.28762,6.1482 15.79052,17.5682 18.57912,32.50271 2.09148,10.7587 3.7143,23.7118 3.7143,35.13489 0,34.03119 -7.19201,55.7738 -22.28921,66.9748 z m -3.94251,-104.7479 c -3.71819,-10.3194 -10.21709,-14.9345 -20.20167,-14.9345 h -18.57912 v 105.8479 h 18.57912 c 13.23387,0 20.20167,-9.88211 22.52138,-21.0814 0.92919,-9.4429 2.09169,-19.7653 2.09169,-30.9649 0,-16.6838 -1.62679,-32.7184 -4.4114,-38.8671 z" />
    <path
       style="fill:#000000;stroke:none;stroke-width:4.07703447"
       inkscape:connector-curvature="0"
       id="path893"
       d="m 799.36515,-254.92674 -20.66642,-69.17359 h -21.35968 v 69.17359 h -22.29321 v -147.1277 h 46.44149 c 24.38072,0 40.8641,15.5911 40.8641,39.30751 0,17.5714 -7.66069,30.30828 -22.28919,35.58008 l 22.28919,72.24471 h -22.98628 z m -19.03982,-126.4855 h -22.9903 v 37.1178 h 22.9903 c 12.99771,0 20.19771,-6.58871 20.19771,-18.44929 0,-11.42311 -8.12551,-18.66851 -20.19771,-18.66851 z" />
    <path
       style="fill:#000000;stroke:none;stroke-width:4.07703447"
       inkscape:connector-curvature="0"
       id="path895"
       d="m 860.05593,-254.92674 v -147.1277 h 73.14205 v 20.6422 h -50.85299 v 37.1178 h 32.27398 v 20.19699 h -32.27398 v 48.53311 h 56.88689 v 20.6422 h -79.17595 z" />
    <path
       style="fill:#000000;stroke:none;stroke-width:4.07703447"
       inkscape:connector-curvature="0"
       id="path897"
       d="m 1042.01,-254.92674 -48.06414,-98.5979 v 98.5979 h -22.29318 v -147.1277 h 22.29318 l 42.72334,88.27651 v -88.27651 h 22.2892 v 147.1277 z" />
    <path
       style="fill:#000000;stroke:none;stroke-width:4.2229352"
       inkscape:connector-curvature="0"
       id="path899"
       d="M 465.88935,-23.707857 416.10514,-125.83386 v 102.130693 h -23.091 V -176.10086 h 23.091 l 44.25219,91.435703 v -91.435703 h 23.08662 v 152.397693 h -17.5546 z" />
    <path
       style="fill:#000000;stroke:none;stroke-width:4.2229352"
       inkscape:connector-curvature="0"
       id="path901"
       d="M 527.12184,-23.707857 V -176.10374 h 75.75939 v 21.37939 h -52.67248 v 38.44131 h 33.4287 v 20.926183 h -33.4287 v 50.26501 h 58.9226 v 21.38108 h -82.00951 z" />
    <path
       style="fill:#000000;stroke:none;stroke-width:4.2229352"
       inkscape:connector-curvature="0"
       id="path903"
       d="m 710.07203,-23.707857 -11.3089,-41.6207 h -34.6324 l -10.58251,41.6207 h -23.32339 l 40.16431,-152.395883 h 22.60959 l 40.16431,152.395883 z m -28.85951,-106.903403 -11.3089,43.901803 h 23.09091 z" />
    <path
       style="fill:#000000;stroke:none;stroke-width:4.2229352"
       inkscape:connector-curvature="0"
       id="path905"
       d="m 834.1795,-23.707857 -21.40601,-71.649 h -22.1239 v 71.649 H 767.55861 V -176.10374 h 48.10349 c 25.25319,0 42.32648,16.1472 42.32648,40.7172 0,18.1967 -7.93498,31.38858 -23.08688,36.848493 l 23.08688,74.83488 H 834.1795 Z M 814.45849,-154.71996 h -23.81308 v 38.44171 h 23.81308 c 13.46271,0 20.9205,-6.8249 20.9205,-19.10511 0,-11.83148 -8.4164,-19.3366 -20.9205,-19.3366 z" />
  </g>
</svg>
