<?xml version="1.0" encoding="UTF-8" standalone="no"?>
<!-- Generator: Adobe Illustrator 12.0.1, SVG Export Plug-In  -->

<svg
   xmlns:dc="http://purl.org/dc/elements/1.1/"
   xmlns:cc="http://creativecommons.org/ns#"
   xmlns:rdf="http://www.w3.org/1999/02/22-rdf-syntax-ns#"
   xmlns:svg="http://www.w3.org/2000/svg"
   xmlns="http://www.w3.org/2000/svg"
   xmlns:sodipodi="http://sodipodi.sourceforge.net/DTD/sodipodi-0.dtd"
   xmlns:inkscape="http://www.inkscape.org/namespaces/inkscape"
   version="1.1"
   width="281.09375"
   height="281.0625"
   viewBox="-1 0 281.09375 281.0625"
   enable-background="new -1 0 289 288"
   xml:space="preserve"
   id="svg2"
   inkscape:version="0.48.2 r9819"
   sodipodi:docname="Delaware R4-3-DE.svg"><metadata
   id="metadata22"><rdf:RDF><cc:Work
       rdf:about=""><dc:format>image/svg+xml</dc:format><dc:type
         rdf:resource="http://purl.org/dc/dcmitype/StillImage" /><dc:title></dc:title></cc:Work></rdf:RDF></metadata><sodipodi:namedview
   pagecolor="#ffffff"
   bordercolor="#666666"
   borderopacity="1"
   objecttolerance="10"
   gridtolerance="10"
   guidetolerance="10"
   inkscape:pageopacity="0"
   inkscape:pageshadow="2"
   inkscape:window-width="1280"
   inkscape:window-height="1004"
   id="namedview20"
   showgrid="false"
   fit-margin-top="0"
   fit-margin-left="0"
   fit-margin-right="0"
   fit-margin-bottom="0"
   inkscape:zoom="1.4142136"
   inkscape:cx="118.62095"
   inkscape:cy="59.84618"
   inkscape:window-x="-8"
   inkscape:window-y="-8"
   inkscape:window-maximized="1"
   inkscape:current-layer="svg2"
   showguides="true"
   inkscape:guide-bbox="true" />
<defs
   id="defs4">
</defs>







<path
   inkscape:connector-curvature="0"
   d="m 279.33089,262.84987 c 0,9.61 -7.8625,17.4725 -17.4725,17.4725 l -244.62125,0 c -9.61,0 -17.4725,-7.8625 -17.4725,-17.4725 l 0,-244.62125 c 0,-9.61 7.8625,-17.4725 17.4725,-17.4725 l 244.62125,0 c 9.61,0 17.4725,7.8625 17.4725,17.4725 l 0,244.62125"
   style="fill:#ffffff;fill-opacity:1;fill-rule:nonzero;stroke:#000000;stroke-width:1.5;stroke-miterlimit:4;stroke-opacity:1;stroke-dasharray:none"
   id="path16177" /><path
   inkscape:connector-curvature="0"
   d="m 267.68225,262.84987 c 0,3.20375 -2.62125,5.82375 -5.82375,5.82375 l -244.62125,0 c -3.20375,0 -5.82375,-2.62 -5.82375,-5.82375 l 0,-244.62125 c 0,-3.2025 2.62,-5.82375 5.82375,-5.82375 l 244.62125,0 c 3.2025,0 5.82375,2.62125 5.82375,5.82375 l 0,244.62125 z m -5.82375,-257.24 -244.62125,0 C 10.296,5.60987 4.6185,11.28862 4.6185,18.22862 l 0,244.62125 c 0,6.94125 5.6775,12.61875 12.61875,12.61875 l 244.62125,0 c 6.94,0 12.61875,-5.6775 12.61875,-12.61875 l 0,-244.62125 c 0,-6.94 -5.67875,-12.61875 -12.61875,-12.61875"
   style="fill:#000000;fill-opacity:1;fill-rule:nonzero;stroke:none"
   id="path16201" /><path
   inkscape:connector-curvature="0"
   d="m 269.7025,165.94375 -263.25125,0 0,-6.795 263.25125,0 0,6.795 z"
   style="fill:#000000;fill-opacity:1;fill-rule:nonzero;stroke:none"
   id="path16203" /><path
   inkscape:connector-curvature="0"
   d="m 131.8465,61.20362 -9.59125,-20.775 0,20.775 -4.43,0 0,-30.96875 4.43,0 8.51625,18.58125 0,-18.58125 4.47375,0 0,30.96875 -3.39875,0 z"
   style="fill:#000000;fill-opacity:1;fill-rule:nonzero;stroke:none"
   id="path16207" /><path
   inkscape:connector-curvature="0"
   d="m 154.38439,37.977 c -0.775,-2.7525 -1.9775,-3.9575 -3.8275,-3.9575 -1.97875,0 -3.14,1.205 -3.915,3.82875 -0.73125,2.365 -0.98875,4.43 -0.98875,7.91375 0,3.39875 0.30125,5.37625 0.98875,7.82875 0.73125,2.62375 1.93625,3.8275 3.915,3.8275 1.85,0 3.0525,-1.20375 3.8275,-3.8275 0.73125,-2.495 0.9475,-4.30125 0.9475,-7.915 0,-3.52625 -0.345,-5.4625 -0.9475,-7.69875 m 3.44125,18.4525 c -1.54875,3.65625 -3.785,5.29 -7.26875,5.29 -3.69875,0 -5.85,-1.63375 -7.355,-5.29 -1.29125,-3.05375 -1.80625,-6.0225 -1.80625,-10.75375 0,-4.645 0.4725,-7.8275 1.80625,-10.79625 1.59125,-3.655 3.785,-5.16125 7.355,-5.16125 3.57,0 5.72,1.50625 7.26875,5.29125 1.2475,3.05375 1.76375,6.02125 1.76375,10.66625 0,4.73125 -0.51625,7.78625 -1.76375,10.75375"
   style="fill:#000000;fill-opacity:1;fill-rule:nonzero;stroke:none"
   id="path16211" /><path
   inkscape:connector-curvature="0"
   d="m 83.88912,77.50688 0,26.84 -4.43,0 0,-26.84 -5.6775,0 0,-4.12875 15.785,0 0,4.12875 -5.6775,0 z"
   style="fill:#000000;fill-opacity:1;fill-rule:nonzero;stroke:none"
   id="path16215" /><path
   inkscape:connector-curvature="0"
   d="m 102.94314,77.72188 -4.6025,0 0,7.82875 4.6025,0 c 2.58125,0 4,-1.37625 4,-3.915 0,-2.40875 -1.59125,-3.91375 -4,-3.91375 m 3.785,26.625 -4.12875,-14.58125 -4.25875,0 0,14.58125 -4.43,0 0,-30.96875 9.2475,0 c 4.90375,0 8.1725,3.26875 8.1725,8.2575 0,3.7 -1.54875,6.40875 -4.47375,7.5275 l 4.47375,15.18375 -4.6025,0"
   style="fill:#000000;fill-opacity:1;fill-rule:nonzero;stroke:none"
   id="path16219" /><path
   inkscape:connector-curvature="0"
   d="m 132.75037,100.51836 c -1.4625,2.5375 -4.43125,4.34375 -7.355,4.34375 -3.05375,0 -6.15125,-1.6775 -7.61375,-4.30125 -0.94625,-1.63375 -1.205,-2.92375 -1.205,-5.4625 l 0,-21.72125 4.43125,0 0,22.2375 c 0,2.96875 1.80625,4.94625 4.3875,4.94625 2.40875,0 4.12875,-1.9775 4.12875,-4.94625 l 0,-22.2375 4.4725,0 0,21.72125 c 0,2.53875 -0.3,3.82875 -1.24625,5.42"
   style="fill:#000000;fill-opacity:1;fill-rule:nonzero;stroke:none"
   id="path16223" /><path
   inkscape:connector-curvature="0"
   d="m 149.739,104.86262 c -6.62375,0 -9.59125,-5.29 -9.59125,-16.68875 0,-10.0225 3.1825,-15.3125 9.2475,-15.3125 5.11875,0 7.785,4.56 8.08625,8.775 l -4.47375,0 c -0.43,-3.05375 -1.63375,-4.47375 -3.6975,-4.47375 -3.57,0 -4.905,2.8825 -4.905,10.8825 0,8.90375 1.54875,12.51625 5.33375,12.51625 2.62375,0 3.26875,-2.19375 3.26875,-4.47375 l 4.47375,0 c -0.12875,5.11875 -3.3975,8.775 -7.7425,8.775"
   style="fill:#000000;fill-opacity:1;fill-rule:nonzero;stroke:none"
   id="path16227" /><path
   inkscape:connector-curvature="0"
   d="m 176.3205,104.34663 -5.37625,-15.0975 -2.8825,5.2475 0,9.85 -4.43,0 0,-30.96875 4.43,0 0,12.3875 7.0975,-12.3875 5.11875,0 -6.40875,10.83875 7.1825,20.13 -4.73125,0 z"
   style="fill:#000000;fill-opacity:1;fill-rule:nonzero;stroke:none"
   id="path16231" /><path
   inkscape:connector-curvature="0"
   d="m 193.48161,104.86262 c -5.4625,0 -8.73125,-4.51625 -8.73125,-9.635 l 4.345,0 c 0,2.58125 1.3325,5.33375 4.38625,5.33375 2.32375,0 4.345,-2.19375 4.345,-4.68875 0,-3.655 -3.18375,-4.9025 -7.7425,-8.1725 -2.7525,-1.935 -3.785,-4.12875 -3.785,-6.795 0,-4.47375 3.44125,-8.04375 7.91375,-8.04375 4.345,0 7.7425,3.3125 7.785,8.04375 l -4.17125,0 c -0.13,-2.19375 -1.6775,-3.61375 -3.61375,-3.61375 -2.06375,0 -3.69875,1.54875 -3.69875,3.61375 0,1.4625 0.645,2.3225 2.9675,3.65625 5.93625,3.48375 8.51625,6.88125 8.51625,11.31125 0,4.99 -3.785,8.99 -8.51625,8.99"
   style="fill:#000000;fill-opacity:1;fill-rule:nonzero;stroke:none"
   id="path16235" /><path
   inkscape:connector-curvature="0"
   d="m 52.61987,147.48975 0,-30.96875 4.43,0 0,26.83875 11.3125,0 0,4.13 -15.7425,0 z"
   style="fill:#000000;fill-opacity:1;fill-rule:nonzero;stroke:none"
   id="path16239" /><path
   inkscape:connector-curvature="0"
   d="m 72.74887,147.48975 0,-30.96875 14.58125,0 0,4.34375 -10.15125,0 0,7.82875 6.4525,0 0,4.215 -6.4525,0 0,10.23625 11.3125,0 0,4.345 -15.7425,0 z"
   style="fill:#000000;fill-opacity:1;fill-rule:nonzero;stroke:none"
   id="path16243" /><path
   inkscape:connector-curvature="0"
   d="m 98.212,120.86513 0,7.82875 6.19375,0 0,4.215 -6.19375,0 0,14.58125 -4.43,0 0,-30.97 15.7425,0 0,4.345 -11.3125,0 z"
   style="fill:#000000;fill-opacity:1;fill-rule:nonzero;stroke:none"
   id="path16247" /><path
   inkscape:connector-curvature="0"
   d="m 121.52462,120.6495 0,26.84 -4.43125,0 0,-26.84 -5.6775,0 0,-4.12875 15.78625,0 0,4.12875 -5.6775,0 z"
   style="fill:#000000;fill-opacity:1;fill-rule:nonzero;stroke:none"
   id="path16251" /><path
   inkscape:connector-curvature="0"
   d="m 143.93299,147.48975 0,-30.96875 4.43,0 0,26.83875 11.31125,0 0,4.13 -15.74125,0 z"
   style="fill:#000000;fill-opacity:1;fill-rule:nonzero;stroke:none"
   id="path16255" /><path
   inkscape:connector-curvature="0"
   d="m 171.37412,125.76839 -2.15125,8.86 4.43,0 -2.27875,-8.86 z m 5.54875,21.72125 -2.19375,-8.47375 -6.62375,0 -2.065,8.47375 -4.47375,0 7.7425,-30.96875 4.34375,0 7.7,30.96875 -4.43,0 z"
   style="fill:#000000;fill-opacity:1;fill-rule:nonzero;stroke:none"
   id="path16259" /><path
   inkscape:connector-curvature="0"
   d="m 199.71912,147.48975 -9.5925,-20.775 0,20.775 -4.43,0 0,-30.96875 4.43,0 8.51625,18.58125 0,-18.58125 4.47375,0 0,30.96875 -3.3975,0 z"
   style="fill:#000000;fill-opacity:1;fill-rule:nonzero;stroke:none"
   id="path16263" /><path
   inkscape:connector-curvature="0"
   d="m 209.91164,147.48975 0,-30.96875 14.58125,0 0,4.34375 -10.15,0 0,7.82875 6.45125,0 0,4.215 -6.45125,0 0,10.23625 11.31125,0 0,4.345 -15.7425,0 z"
   style="fill:#000000;fill-opacity:1;fill-rule:nonzero;stroke:none"
   id="path16267" /><path
   inkscape:connector-curvature="0"
   d="m 78.72712,212.89025 0,-30.96875 14.58125,0 0,4.34375 -10.15125,0 0,7.82875 6.4525,0 0,4.215 -6.4525,0 0,10.23625 11.3125,0 0,4.345 -15.7425,0 z"
   style="fill:#000000;fill-opacity:1;fill-rule:nonzero;stroke:none"
   id="path16271" /><path
   inkscape:connector-curvature="0"
   d="m 110.64175,212.89025 -4.34375,-10.5375 -4.30125,10.5375 -4.73125,0 6.79625,-16.0875 -6.32375,-14.88125 4.64625,0 3.91375,9.33375 3.95625,-9.33375 4.64625,0 -6.19375,14.88125 6.7525,16.0875 -4.8175,0 z"
   style="fill:#000000;fill-opacity:1;fill-rule:nonzero;stroke:none"
   id="path16275" /><path
   inkscape:connector-curvature="0"
   d="m 128.70674,213.40688 c -6.62375,0 -9.59125,-5.29 -9.59125,-16.68875 0,-10.0225 3.1825,-15.3125 9.2475,-15.3125 5.11875,0 7.785,4.55875 8.08625,8.77375 l -4.47375,0 c -0.43,-3.0525 -1.63375,-4.4725 -3.69875,-4.4725 -3.56875,0 -4.90375,2.88125 -4.90375,10.88125 0,8.90375 1.54875,12.5175 5.33375,12.5175 2.62375,0 3.26875,-2.19375 3.26875,-4.47375 l 4.47375,0 c -0.12875,5.11875 -3.3975,8.775 -7.7425,8.775"
   style="fill:#000000;fill-opacity:1;fill-rule:nonzero;stroke:none"
   id="path16279" /><path
   inkscape:connector-curvature="0"
   d="m 142.59986,212.89025 0,-30.96875 14.58125,0 0,4.34375 -10.15125,0 0,7.82875 6.45125,0 0,4.215 -6.45125,0 0,10.23625 11.31125,0 0,4.345 -15.74125,0 z"
   style="fill:#000000;fill-opacity:1;fill-rule:nonzero;stroke:none"
   id="path16283" /><path
   inkscape:connector-curvature="0"
   d="m 172.66512,186.26562 -4.6025,0 0,8.77375 4.6025,0 c 2.58125,0 4,-1.59 4,-4.38625 0,-2.6675 -1.59125,-4.3875 -4,-4.3875 m 0.215,13.0325 -4.8175,0 0,13.5925 -4.43,0 0,-30.97 9.2475,0 c 4.9025,0 8.1725,3.48375 8.1725,8.7325 0,5.59125 -2.9675,8.645 -8.1725,8.645"
   style="fill:#000000;fill-opacity:1;fill-rule:nonzero;stroke:none"
   id="path16287" /><path
   inkscape:connector-curvature="0"
   d="m 194.81589,186.051 0,26.83875 -4.43125,0 0,-26.83875 -5.6775,0 0,-4.13 15.78625,0 0,4.13 -5.6775,0 z"
   style="fill:#000000;fill-opacity:1;fill-rule:nonzero;stroke:none"
   id="path16291" /><path
   inkscape:connector-curvature="0"
   d="m 41.26487,256.03326 0,-30.96875 4.43,0 0,26.84 11.3125,0 0,4.12875 -15.7425,0 z"
   style="fill:#000000;fill-opacity:1;fill-rule:nonzero;stroke:none"
   id="path16295" /><path
   inkscape:connector-curvature="0"
   d="m 61.394,256.03326 0,-30.96875 14.58125,0 0,4.34375 -10.15125,0 0,7.82875 6.4525,0 0,4.215 -6.4525,0 0,10.23625 11.3125,0 0,4.345 -15.7425,0 z"
   style="fill:#000000;fill-opacity:1;fill-rule:nonzero;stroke:none"
   id="path16299" /><path
   inkscape:connector-curvature="0"
   d="m 86.85712,229.40864 0,7.82875 6.19375,0 0,4.215 -6.19375,0 0,14.58125 -4.43,0 0,-30.97 15.7425,0 0,4.345 -11.3125,0 z"
   style="fill:#000000;fill-opacity:1;fill-rule:nonzero;stroke:none"
   id="path16303" /><path
   inkscape:connector-curvature="0"
   d="m 110.16937,229.19386 0,26.83875 -4.43,0 0,-26.83875 -5.6775,0 0,-4.13 15.785,0 0,4.13 -5.6775,0 z"
   style="fill:#000000;fill-opacity:1;fill-rule:nonzero;stroke:none"
   id="path16307" /><path
   inkscape:connector-curvature="0"
   d="m 140.19037,229.19386 0,26.83875 -4.43,0 0,-26.83875 -5.6775,0 0,-4.13 15.785,0 0,4.13 -5.6775,0 z"
   style="fill:#000000;fill-opacity:1;fill-rule:nonzero;stroke:none"
   id="path16311" /><path
   inkscape:connector-curvature="0"
   d="m 166.38462,252.20537 c -1.4625,2.5375 -4.43,4.345 -7.355,4.345 -3.05375,0 -6.15125,-1.67875 -7.61375,-4.3025 -0.945,-1.635 -1.20375,-2.925 -1.20375,-5.4625 l 0,-21.72125 4.43,0 0,22.2375 c 0,2.9675 1.80625,4.94625 4.3875,4.94625 2.40875,0 4.12875,-1.97875 4.12875,-4.94625 l 0,-22.2375 4.47375,0 0,21.72125 c 0,2.5375 -0.30125,3.8275 -1.2475,5.42"
   style="fill:#000000;fill-opacity:1;fill-rule:nonzero;stroke:none"
   id="path16315" /><path
   inkscape:connector-curvature="0"
   d="m 183.45949,229.40864 -4.6025,0 0,7.82875 4.6025,0 c 2.58125,0 4,-1.37625 4,-3.915 0,-2.4075 -1.59,-3.91375 -4,-3.91375 m 3.78625,26.625 -4.13,-14.58125 -4.25875,0 0,14.58125 -4.43,0 0,-30.97 9.24875,0 c 4.9025,0 8.17125,3.27 8.17125,8.25875 0,3.7 -1.54875,6.40875 -4.47375,7.5275 l 4.47375,15.18375 -4.60125,0"
   style="fill:#000000;fill-opacity:1;fill-rule:nonzero;stroke:none"
   id="path16319" /><path
   inkscape:connector-curvature="0"
   d="m 211.11637,256.03326 -9.59125,-20.775 0,20.775 -4.43,0 0,-30.96875 4.43,0 8.51625,18.58125 0,-18.58125 4.47375,0 0,30.96875 -3.39875,0 z"
   style="fill:#000000;fill-opacity:1;fill-rule:nonzero;stroke:none"
   id="path16323" /><path
   inkscape:connector-curvature="0"
   d="m 228.49325,256.54988 c -5.4625,0 -8.7325,-4.5175 -8.7325,-9.635 l 4.345,0 c 0,2.58 1.3325,5.33375 4.3875,5.33375 2.3225,0 4.34375,-2.19375 4.34375,-4.68875 0,-3.65625 -3.18375,-4.90375 -7.7425,-8.1725 -2.7525,-1.93625 -3.785,-4.12875 -3.785,-6.79625 0,-4.4725 3.44125,-8.0425 7.915,-8.0425 4.34375,0 7.7425,3.31125 7.785,8.0425 l -4.1725,0 c -0.12875,-2.19375 -1.6775,-3.6125 -3.6125,-3.6125 -2.065,0 -3.7,1.54875 -3.7,3.6125 0,1.4625 0.645,2.32375 2.96875,3.65625 5.935,3.48375 8.51625,6.88125 8.51625,11.3125 0,4.99 -3.785,8.99 -8.51625,8.99"
   style="fill:#000000;fill-opacity:1;fill-rule:nonzero;stroke:none"
   id="path16327" /></svg>