<?xml version="1.0" encoding="UTF-8" standalone="no"?>
<svg
   xmlns:dc="http://purl.org/dc/elements/1.1/"
   xmlns:cc="http://creativecommons.org/ns#"
   xmlns:rdf="http://www.w3.org/1999/02/22-rdf-syntax-ns#"
   xmlns:svg="http://www.w3.org/2000/svg"
   xmlns="http://www.w3.org/2000/svg"
   xmlns:sodipodi="http://sodipodi.sourceforge.net/DTD/sodipodi-0.dtd"
   xmlns:inkscape="http://www.inkscape.org/namespaces/inkscape"
   width="89.985153"
   height="90.000923"
   viewBox="0 0 253.95815 254.0026"
   version="1.1"
   id="svg2"
   inkscape:version="0.48.2 r9819"
   sodipodi:docname="AJAX1.svg">
  <metadata
     id="metadata62">
    <rdf:RDF>
      <cc:Work
         rdf:about="">
        <dc:format>image/svg+xml</dc:format>
        <dc:type
           rdf:resource="http://purl.org/dc/dcmitype/StillImage" />
        <dc:title></dc:title>
      </cc:Work>
    </rdf:RDF>
  </metadata>
  <defs
     id="defs60" />
  <sodipodi:namedview
     pagecolor="#ffffff"
     bordercolor="#666666"
     borderopacity="1"
     objecttolerance="10"
     gridtolerance="10"
     guidetolerance="10"
     inkscape:pageopacity="0"
     inkscape:pageshadow="2"
     inkscape:window-width="1280"
     inkscape:window-height="1004"
     id="namedview58"
     showgrid="false"
     fit-margin-top="0"
     fit-margin-left="0"
     fit-margin-right="0"
     fit-margin-bottom="0"
     inkscape:zoom="5.6568543"
     inkscape:cx="34.617272"
     inkscape:cy="34.584827"
     inkscape:window-x="-8"
     inkscape:window-y="-8"
     inkscape:window-maximized="1"
     inkscape:current-layer="svg2" />
  <!-- draw the bicycle -->
  <!-- RIGHT -->
  <!-- LANE -->
  <!-- ONLY -->
  <path
     inkscape:connector-curvature="0"
     d="M 3.3615301,118.7608 118.71636,3.4024968 c 4.54025,-4.5367 11.94153,-4.5367 16.48178,0 L 250.55297,118.7608 c 4.54025,4.5368 4.54025,11.938 0,16.4783 L 135.19814,250.5974 c -4.54025,4.5403 -11.94153,4.5403 -16.48178,0 L 3.3615301,135.2391 c -4.48028,-4.4803 -4.4838,-11.998 0,-16.4783"
     style="fill:#ffd033;fill-opacity:1;fill-rule:nonzero;stroke:none"
     id="path3202" />
  <path
     inkscape:connector-curvature="0"
     d="M 5.6799901,121.0207 120.97838,5.7222968 c 3.27025,-3.2702 8.68891,-3.2631 11.95916,0 L 248.23593,121.0207 c 3.27377,3.2738 3.25966,8.6819 0,11.9592 L 132.93754,248.2783 c -3.27377,3.2632 -8.68186,3.2667 -11.95916,0 L 5.6799901,132.9799 c -3.25967,-3.2773 -3.27378,-8.6854 0,-11.9592"
     style="fill:#000000;fill-opacity:1;fill-rule:evenodd;stroke:none"
     id="path3214" />
  <path
     inkscape:connector-curvature="0"
     d="M 8.9255401,124.1834 124.14279,8.9661968 c 1.52047,-1.577 4.10986,-1.5734 5.63386,0 L 244.99037,124.1834 c 1.57339,1.5205 1.57339,4.1134 0,5.6339 L 129.77665,245.031 c -1.52047,1.5769 -4.11691,1.5804 -5.63386,0 L 8.9255401,129.8173 c -1.57339,-1.524 -1.57339,-4.1134 0,-5.6339"
     style="fill:#ffd033;fill-opacity:1;fill-rule:evenodd;stroke:none"
     id="path3218" />
  <path
     d="m 66.803777,145.87605 0,-17.37079 c 0,-8.509 1.982612,-16.90511 5.566834,-24.60978 1.195917,-2.57175 2.575279,-5.065891 4.169835,-7.411864 2.942167,-4.332112 6.170084,-8.498418 8.360835,-13.285613 2.204861,-4.815418 3.460751,-10.061225 3.460751,-15.370531 l 0,-13.384392 21.547668,0 0,13.384392 c 0,5.842001 -0.83961,11.684002 -2.46944,17.29317 -1.47461,5.076473 -3.58422,10.071808 -6.57931,14.442725 -1.481666,2.166053 -3.189111,4.176893 -4.847167,6.194783 -1.478139,1.79916 -2.868084,3.61597 -3.884084,5.71147 -2.607028,5.36222 -3.51014,11.33475 -3.552473,17.24731 l -0.119944,17.15912 12.509498,-4.10634 c 0.39864,-0.16933 0.74437,-0.28222 1.18181,-0.31397 1.55575,-0.12348 3.11503,0.66675 3.9617,1.98261 0.72319,1.13595 0.88547,2.61408 0.45508,3.88761 -0.21872,0.66323 -0.58208,1.00895 -0.96661,1.56281 L 77.792807,188.98903 49.556468,148.77941 c -0.712611,-1.00895 -1.128889,-1.3582 -1.181806,-2.55764 -0.08114,-1.70039 0.472723,-3.11856 1.929695,-4.09222 0.92075,-0.6209 2.017889,-0.7867 3.100917,-0.6209 0.310445,0.0459 0.493889,0.16228 0.783167,0.26106 l 12.615336,4.10634 z"
     style="fill:#000000;fill-opacity:1;fill-rule:evenodd;stroke:none"
     id="path3310"
     inkscape:connector-curvature="0" />
  <path
     d="m 142.24179,85.078309 -12.61533,4.074584 c -0.55386,0.201083 -0.83609,0.335139 -1.40759,0.335139 -1.60514,0 -2.83986,-0.525639 -3.77472,-1.873251 -0.83256,-1.192389 -0.97367,-2.779889 -0.44097,-4.1275 0.22578,-0.58914 0.52211,-0.84314 0.87489,-1.337029 l 28.35276,-40.202564 27.7107,40.100259 c 0.27164,0.391583 0.889,1.139472 1.06891,1.718028 0.13053,0.423333 0.22225,0.867834 0.22931,1.312334 0.0141,1.806222 -1.16417,3.330222 -2.76578,4.049889 -0.68792,0.3175 -1.36878,0.419806 -2.09903,0.28575 -0.33866,-0.05997 -0.67027,-0.08114 -0.96661,-0.261055 l -12.60828,-4.074584 0.0952,17.137951 c 0.0212,4.01461 0.4692,8.02569 1.5875,11.88508 0.87489,3.03036 2.14136,6.02192 4.064,8.55134 1.70039,2.24366 3.54895,4.3815 5.27756,6.60753 1.4605,1.89089 2.74814,3.92641 3.83822,6.05014 4.38856,8.51958 6.58636,18.13984 6.58636,27.70364 l 0,13.46201 -21.55825,0 0,-13.46201 c 0,-7.40128 -2.42006,-14.76728 -6.5405,-20.8915 -1.6122,-2.38831 -3.30553,-4.73075 -4.91772,-7.11906 -1.72862,-2.55764 -3.24556,-5.25992 -4.52615,-8.06097 -3.556,-7.72937 -5.46453,-16.12548 -5.46453,-24.62743 l 0,-17.236721 z"
     style="fill:#000000;fill-opacity:1;fill-rule:evenodd;stroke:none"
     id="path3314"
     inkscape:connector-curvature="0" />
  <path
     d="m 105.97623,204.78219 c 0.0988,-4.12045 0.20108,-8.24089 0.47625,-12.35428 0.58208,-8.74537 1.95439,-17.41312 4.11339,-25.90095 1.76036,-6.8827 3.58422,-13.8677 6.60753,-20.32706 0.29986,-0.635 0.65264,-1.25237 1.04422,-1.83092 1.64395,-2.42359 3.86292,-3.93348 6.74159,-4.53673 2.81164,-0.58208 5.76791,0.18345 8.09625,1.83798 1.64041,1.16064 2.81164,2.89983 3.57011,4.74486 2.37772,5.75381 4.13456,11.76867 5.6515,17.79764 2.35656,9.3345 4.22275,18.78895 4.94595,28.39509 0.30339,4.04989 0.39158,8.11742 0.49741,12.17437 l -41.7442,0 z"
     style="fill:#000000;fill-opacity:1;fill-rule:evenodd;stroke:none"
     id="path3318"
     inkscape:connector-curvature="0" />
</svg>
