<svg version="1.1" viewBox="0 0 32 32" xmlns="http://www.w3.org/2000/svg">
 <defs>
  <clipPath id="a">
   <circle cx="16" cy="16" r="12.5"/>
  </clipPath>
 </defs>
 <rect x="1" y="1" width="30" height="30" ry="1.875" fill="#fff" stroke="#000" stroke-width=".1"/>
 <circle cx="16" cy="16" r="14.5" fill="#bf2033"/>
 <path d="m32 13.5v5h-32v-5z" clip-path="url(#a)" fill="#fff"/>
 <path transform="matrix(.004 0 0 -.004 5.77 11.5)" d="m4526.25-3250h-171l-163 435h-189v-435h-157v1e3h329q113 0 180-32 65-33 107.5-103t42.5-146q0-79-42.5-150t-111.5-103zm-180 719q0 72-62 105-33 19-92 19h-189v-247h189q62 0 92 17 62 32 62 106zm-722.5-719h-620v1e3h589v-157h-432v-247h292v-161h-292v-274h463zm-781.25 860h-231v-860h-158v860h-229v140h618zm-777.5-860h-141l-382 677v-677h-157v1e3h157l365-639v639h158zm-856.25 0h-620v1e3h589v-157h-432v-247h292v-161h-292v-274h463zm3848.75 4110h-231v-860h-158v860h-229v140h618zm-728.5-362q0-122-28.5-231t-79.5-173q-82-111-243-111-104 0-174 43t-114 135q-70 137-70 337 0 252 109 406 87 113 255 113 185 0 278-179 67-138 67-340zm-158 0q0 180-60 281-41 72-130 77-111 5-161-123-38-94-38-235 0-183 59-277 45-77 137-77 104 0 154 127 39 100 39 227zm-751-498h-141l-382 677v-677h-157v1e3h157l365-639v639h158zm-1736 498q0-122-28.5-231t-79.5-173q-82-111-243-111-104 0-174 43t-114 135q-70 137-70 337 0 252 109 406 87 113 255 113 185 0 278-179 67-138 67-340zm-158 0q0 180-60 281-41 72-130 77-111 5-161-123-38-94-38-235 0-183 59-277 45-77 137-77 104 0 154 127 39 100 39 227zm-726 4q0-310-175-445-58-51-144-57h-361v1e3h322q75 0 114.5-10t78.5-43q165-142 165-445zm-161 0q0 212-81 298-43 43-102 43h-179v-682h158q72 0 111 39 93 93 93 302z" fill="#fff"/>
</svg>
