<?xml version="1.0" encoding="utf-8"?>
<!-- Generator: Adobe Illustrator 12.0.1, SVG Export Plug-In  -->
<!DOCTYPE svg PUBLIC "-//W3C//DTD SVG 1.1//EN" "http://www.w3.org/Graphics/SVG/1.1/DTD/svg11.dtd" [
	<!ENTITY ns_flows "http://ns.adobe.com/Flows/1.0/">
	<!ENTITY ns_svg "http://www.w3.org/2000/svg">
	<!ENTITY ns_xlink "http://www.w3.org/1999/xlink">
]>
<svg  version="1.1" xmlns="&ns_svg;" xmlns:xlink="&ns_xlink;" xmlns:a="http://ns.adobe.com/AdobeSVGViewerExtensions/3.0/"
	 width="226" height="288" viewBox="-0.818 0 226 288" enable-background="new -0.818 0 226 288" xml:space="preserve">
<defs>
</defs>
<path fill="#FFFFFF" d="M210.479,285.732c6.299,0,11.617-5.324,11.617-11.622v-89.131V13.894V13.89
	c0-7.201-5.879-11.02-11.715-11.622H13.891c-0.001,0-0.006,0-0.006,0c-6.298,0-11.617,5.324-11.617,11.622v0.002v171.088v89.131
	c0,7.201,5.88,11.02,11.715,11.622C14.161,285.732,210.479,285.732,210.479,285.732z M4.373,274.11v-89.131h0.003V13.89
	c0-5.19,4.322-9.514,9.509-9.514h0.006h196.582c5.197,0,9.518,4.323,9.518,9.514v171.09h-0.002v89.131
	c0,5.19-4.322,9.514-9.51,9.514H13.891C8.694,283.624,4.373,279.301,4.373,274.11z"/>
<path fill="#C41230" d="M219.988,274.11v-89.131h0.002V13.89c0-5.19-4.32-9.514-9.518-9.514H13.891h-0.006
	c-5.187,0-9.509,4.323-9.509,9.514v171.09H4.373v89.131c0,5.19,4.321,9.514,9.518,9.514h196.588
	C215.666,283.624,219.988,279.301,219.988,274.11z"/>
<path fill="#FFFFFF" d="M13.891,3.376c-2.781,0-5.412,1.102-7.413,3.104c-2,2.001-3.102,4.633-3.102,7.41v171.09L3.373,274.11
	c0,2.778,1.102,5.409,3.103,7.411c2.002,2,4.635,3.103,7.415,3.103h196.588c2.776,0,5.407-1.103,7.407-3.104
	c2.001-2.001,3.103-4.633,3.103-7.41v-89.131c0,0-0.059,0.059-0.067,0.067c0.051-0.437,0.067-1.015,0.068-1.988L220.99,13.89
	c0-5.699-4.816-10.514-10.518-10.514H13.891z M7.89,280.106c-1.623-1.623-2.517-3.753-2.517-5.996L5.376,13.89
	c0-2.243,0.894-4.373,2.517-5.996s3.751-2.518,5.992-2.518h196.588c2.246,0,4.377,0.894,6.001,2.518
	c1.623,1.623,2.517,3.752,2.517,5.996v171.09c0,0,0.072-0.072,0.086-0.085c-0.081,0.672-0.086,1.826-0.086,3.914l-0.002,85.302
	c0,2.243-0.894,4.372-2.517,5.996s-3.751,2.518-5.993,2.518H13.891C11.645,282.624,9.514,281.73,7.89,280.106z"/>
<path fill="#000000" d="M220.44,4.345C217.893,1.688,214.342,0,210.479,0h-0.006H13.891h-0.006C6.36,0,0,6.36,0,13.89v0.002v171.088
	v89.131c0,7.472,5.536,13.048,13.778,13.881L13.891,288h196.588c7.525,0,13.885-6.36,13.885-13.89v-89.131V13.892V13.89
	C224.363,10.092,222.929,6.789,220.44,4.345z M2.268,274.11v-89.131V13.892V13.89c0-6.298,5.319-11.622,11.617-11.622
	c0,0,0.005,0,0.006,0h196.49c5.836,0.603,11.715,4.421,11.715,11.622v0.004v171.085v89.131c0,6.298-5.318,11.622-11.617,11.622
	c0,0-196.317,0-196.496,0C8.147,285.13,2.268,281.312,2.268,274.11z"/>
<rect x="12.696" y="37.758" fill="none" width="198.972" height="237.819"/>
<rect x="12.696" y="37.758" fill="#000000" width="198.972" height="237.819"/>
<path fill="#FFFFFF" d="M9.625,34.684l0.001,243.985l205.112-0.002v-0.016V34.666L9.625,34.684L9.625,34.684z M12.696,37.758
	h198.972v237.819H12.696V37.758z"/>
<path fill="#FFFFFF" d="M69.973,106.972v-23.45h13.825v3.71H73.683v5.74h6.825v3.78h-6.825v6.44h10.851v3.78H69.973z"/>
<path fill="#FFFFFF" d="M101.963,106.972h-2.87l-7.42-23.45h3.885l5.005,15.645l4.935-15.645h3.955L101.963,106.972z"/>
<path fill="#FFFFFF" d="M116.416,106.972v-23.45h13.826v3.71h-10.115v5.74h6.824v3.78h-6.824v6.44h10.85v3.78H116.416z"/>
<path fill="#FFFFFF" d="M151.102,106.972l-8.961-15.89v15.89h-3.709v-23.45h3.709l8.541,14.98v-14.98h3.709v23.45H151.102z"/>
<path fill="#FFFFFF" d="M78.407,71.024c-0.875,0.84-2.135,1.26-3.36,1.33c-0.244,0-0.734,0-1.329,0h-7.141v-23.45h7.561
	c2.38,0,3.29,0.245,4.55,1.225c2.45,2.135,3.85,5.845,3.85,10.465C82.537,65.284,81.067,68.994,78.407,71.024z M76.867,53.594
	c-0.595-0.56-1.4-0.98-2.38-0.98h-4.2v15.96h3.71c1.226,0,1.96-0.245,2.625-0.91c1.4-1.4,2.135-3.955,2.135-7.07
	C78.757,57.444,78.022,54.819,76.867,53.594z"/>
<path fill="#FFFFFF" d="M102.977,70.149c-1.33,1.785-3.22,2.625-5.67,2.625c-3.29,0-5.355-1.33-6.755-4.2
	c-0.98-1.995-1.646-5.11-1.646-7.91c0-3.85,0.98-7.315,2.556-9.555c1.399-1.785,3.29-2.625,5.984-2.625c2.976,0,5.04,1.33,6.511,4.2
	c0.979,2.065,1.574,5.04,1.574,7.98C105.531,64.374,104.622,68.084,102.977,70.149z M100.422,54.084
	c-0.735-1.225-1.646-1.715-3.045-1.82c-0.07,0-0.141,0-0.21,0c-1.681,0-2.801,0.91-3.57,2.905c-0.595,1.4-0.91,3.535-0.91,5.495
	c0,2.485,0.49,5.04,1.4,6.51c0.734,1.225,1.715,1.82,3.22,1.82c1.715,0,2.8-0.91,3.604-2.975c0.49-1.225,0.91-3.535,0.91-5.355
	C101.821,58.039,101.332,55.659,100.422,54.084z"/>
<path fill="#FFFFFF" d="M125.132,72.354l-8.96-15.89v15.89h-3.71v-23.45h3.71l8.54,14.98v-14.98h3.71v23.45H125.132z"/>
<path fill="#FFFFFF" d="M136.191,55.084l-1.26-0.77c0.595-0.49,1.085-1.225,1.33-1.785h-0.245c-1.33,0-2.135-0.735-2.135-1.89
	c0-1.26,0.979-2.24,2.135-2.24c1.225,0,2.135,0.98,2.135,2.625C138.151,52.529,137.417,54.069,136.191,55.084z"/>
<path fill="#FFFFFF" d="M152.361,52.194v20.16h-3.71v-20.16h-5.354v-3.29h14.489v3.29H152.361z"/>
<path fill="#FFFFFF" d="M40.678,123.371v40.32h-7.42v-40.32h-10.71v-6.58h28.979v6.58H40.678z"/>
<path fill="#FFFFFF" d="M86.457,163.69v-20.44h-17.08v20.44h-7.42v-46.9h7.42v18.9h17.08v-18.9h7.42v46.9H86.457z"/>
<path fill="#FFFFFF" d="M105.776,163.69v-46.9h7.561v46.9H105.776z"/>
<path fill="#FFFFFF" d="M150.576,163.69l-17.92-31.78v31.78h-7.42v-46.9h7.42l17.08,29.959v-29.959h7.42v46.9H150.576z"/>
<path fill="#FFFFFF" d="M193.276,163.69l-11.9-22.19l-4.9,6.089v16.101h-7.42v-46.9h7.42v18.62l14.771-18.62h9.59l-14.49,18.27
	l15.47,28.63H193.276z"/>
<path fill="#FFFFFF" d="M107.194,194.268c-1.33,1.785-3.22,2.625-5.67,2.625c-3.29,0-5.355-1.33-6.755-4.2
	c-0.98-1.995-1.646-5.11-1.646-7.91c0-3.851,0.98-7.315,2.556-9.556c1.399-1.784,3.29-2.625,5.984-2.625
	c2.976,0,5.04,1.33,6.511,4.201c0.979,2.064,1.574,5.039,1.574,7.979C109.749,188.492,108.84,192.202,107.194,194.268z
	 M104.64,178.202c-0.735-1.226-1.646-1.715-3.045-1.819c-0.07,0-0.141,0-0.21,0c-1.681,0-2.801,0.91-3.57,2.904
	c-0.595,1.4-0.91,3.535-0.91,5.495c0,2.485,0.49,5.04,1.4,6.51c0.734,1.226,1.715,1.82,3.22,1.82c1.715,0,2.8-0.91,3.604-2.976
	c0.49-1.225,0.91-3.535,0.91-5.354C106.039,182.157,105.55,179.777,104.64,178.202z"/>
<path fill="#FFFFFF" d="M120.388,176.732v5.74h6.826v3.779h-6.826v10.221h-3.709v-23.45h14.561v3.71H120.388z"/>
<path fill="#FFFFFF" d="M58.179,217.947c-1.085,0.49-2.485,0.805-4.306,0.805h-4.34v10.221h-3.71v-23.45h8.05
	c1.891,0,3.15,0.175,4.306,0.735c2.029,0.979,3.604,3.465,3.604,5.844C61.783,214.588,60.208,217.037,58.179,217.947z
	 M56.604,209.652c-0.665-0.35-1.085-0.42-2.24-0.42h-4.83v5.74h4.83c1.155,0,1.575-0.07,2.24-0.385
	c0.805-0.421,1.399-1.506,1.399-2.486C58.003,211.122,57.408,210.143,56.604,209.652z"/>
<path fill="#FFFFFF" d="M79.948,228.973l-2.311-6.58h-7.314l-2.31,6.58h-3.955l8.085-23.45h3.675l8.085,23.45H79.948z
	 M74.033,212.032l-2.415,6.58h4.69L74.033,212.032z"/>
<path fill="#FFFFFF" d="M100.248,228.973l-3.78-10.221h-4.445v10.221h-3.71v-23.45h7.735c1.819,0,3.045,0.175,4.2,0.735
	c2.064,0.979,3.534,3.465,3.534,5.844c0,2.486-1.47,4.936-3.64,5.916l4.13,10.955H100.248z M98.603,209.652
	c-0.63-0.35-0.91-0.42-2.135-0.42h-4.445v5.74h4.445c1.155,0,1.54-0.07,2.135-0.385c0.91-0.525,1.47-1.506,1.47-2.486
	C100.072,211.122,99.513,210.143,98.603,209.652z"/>
<path fill="#FFFFFF" d="M121.212,228.973l-5.949-11.096l-2.45,3.045v8.051h-3.71v-23.45h3.71v9.31l7.384-9.31h4.795l-7.244,9.135
	l7.734,14.315H121.212z"/>
<path fill="#FFFFFF" d="M130.382,228.973v-23.45h3.779v23.45H130.382z"/>
<path fill="#FFFFFF" d="M153.306,228.973l-8.959-15.891v15.891h-3.711v-23.45h3.711l8.539,14.979v-14.979h3.711v23.45H153.306z"/>
<path fill="#FFFFFF" d="M171.12,229.393c-3.533,0-5.6-1.33-7-4.271c-0.979-2.065-1.539-4.97-1.539-7.84
	c0-3.78,1.051-7.489,2.625-9.556c1.4-1.715,3.359-2.625,6.02-2.625c3.605,0,5.74,1.506,7.314,5.181l-3.533,1.399
	c-0.98-2.029-1.996-2.799-3.781-2.799c-1.889,0-3.15,0.84-3.955,2.904c-0.594,1.4-0.91,3.535-0.91,5.495
	c0,2.485,0.42,4.935,1.156,6.44c0.734,1.295,1.82,1.89,3.219,1.89c2.381,0,4.096-1.505,4.096-3.64v-0.98h-4.27v-3.71h7.979v4.69
	C178.54,226.242,175.427,229.393,171.12,229.393z"/>
<path fill="#FFFFFF" d="M84.531,261.096v-10.219h-8.54v10.219h-3.71v-23.449h3.71v9.449h8.54v-9.449h3.71v23.449H84.531z"/>
<path fill="#FFFFFF" d="M95.591,261.096v-23.449h13.825v3.71H99.301v5.739h6.825v3.781h-6.825v6.439h10.851v3.779H95.591z"/>
<path fill="#FFFFFF" d="M127.791,261.096l-3.779-10.219h-4.445v10.219h-3.711v-23.449h7.736c1.818,0,3.045,0.175,4.199,0.734
	c2.064,0.98,3.535,3.465,3.535,5.846c0,2.484-1.471,4.935-3.641,5.914l4.131,10.955H127.791z M126.146,241.776
	c-0.631-0.351-0.91-0.42-2.135-0.42h-4.445v5.739h4.445c1.154,0,1.539-0.069,2.135-0.385c0.91-0.525,1.469-1.505,1.469-2.484
	C127.615,243.246,127.057,242.266,126.146,241.776z"/>
<path fill="#FFFFFF" d="M137.521,261.096v-23.449h13.824v3.71H141.23v5.739h6.826v3.781h-6.826v6.439h10.852v3.779H137.521z"/>
<path fill="#FFFFFF" d="M18.561,273.37c-0.352,0.313-0.846,0.494-1.387,0.494c-1.092,0-1.89-0.646-2.318-1.615l0.959-0.352
	c0.266,0.599,0.76,0.94,1.358,0.94c0.589,0,0.988-0.408,0.988-0.94c0-0.846-0.988-0.988-1.814-1.32
	c-0.38-0.152-1.226-0.532-1.226-1.587c0-1.244,0.845-1.72,1.985-1.72c0.893,0,1.501,0.514,1.814,1.302l-0.893,0.267
	c0,0-0.228-0.542-0.94-0.561c-0.028,0-0.047,0-0.066,0c-0.437,0-0.912,0.171-0.912,0.674c0,0.02,0,0.048,0,0.066
	c0.085,1.179,3.078,0.399,3.078,2.897C19.188,272.496,18.959,273.009,18.561,273.37z"/>
<path fill="#FFFFFF" d="M24.089,270.758c-0.294,0.133-0.674,0.218-1.168,0.218h-1.178v2.774h-1.007v-6.365h2.185
	c0.513,0,0.855,0.048,1.168,0.199c0.551,0.267,0.979,0.941,0.979,1.587C25.068,269.846,24.641,270.511,24.089,270.758z
	 M23.662,268.506c-0.181-0.095-0.294-0.114-0.608-0.114h-1.311v1.559h1.311c0.313,0,0.427-0.02,0.608-0.104
	c0.218-0.114,0.38-0.409,0.38-0.675S23.88,268.639,23.662,268.506z"/>
<path fill="#FFFFFF" d="M25.923,271.118v-1.007h2.232v1.007H25.923z"/>
<path fill="#FFFFFF" d="M30.036,273.75v-5.158h-0.58v-0.808h0.066c0.266,0,0.561-0.152,0.731-0.399h0.808v6.365H30.036z"/>
<path fill="#FFFFFF" d="M36.582,272.163v1.587h-0.998v-1.587H32.43v-0.598l3.154-4.181h0.998v3.867h0.608v0.911H36.582z
	 M35.584,268.857l-1.814,2.395h1.814V268.857z"/>
<path fill="#FFFFFF" d="M40.609,273.864c-0.551,0-1.111-0.133-1.558-0.361l0.494-0.893c0.266,0.133,0.731,0.228,1.197,0.228
	c0.922,0,1.634-0.607,1.634-1.435c0-0.627-0.513-1.111-1.14-1.111c-0.446,0-0.646,0.133-1.026,0.665l-0.846-0.285v-3.287h3.658
	v1.007h-2.679l-0.066,1.045c0.465-0.133,0.674-0.18,0.988-0.18c1.159,0,2.119,0.987,2.119,2.146
	C43.383,272.81,42.224,273.864,40.609,273.864z"/>
<path fill="#FFFFFF" d="M47.525,273.864c-0.94,0-1.539-0.361-1.948-1.141c-0.285-0.561-0.465-1.367-0.465-2.166
	c0-1.007,0.266-2.014,0.712-2.574c0.38-0.466,0.912-0.713,1.634-0.713c0.959,0,1.558,0.409,1.985,1.302l-0.94,0.399
	c-0.352-0.542-0.561-0.675-1.045-0.675c-0.513,0-0.855,0.229-1.074,0.789c-0.162,0.38-0.247,0.931-0.247,1.472
	c0,0.694,0.152,1.388,0.399,1.786c0.228,0.333,0.513,0.494,0.96,0.494c0.427,0,0.741-0.228,0.988-0.741l0.959,0.361
	C49.064,273.389,48.438,273.864,47.525,273.864z"/>
<path fill="#FFFFFF" d="M72.87,273.5h-1.176v-2.68h1.176c0.744,0,1.345,0.6,1.345,1.336C74.215,272.9,73.614,273.5,72.87,273.5z
	 M72.87,271.328h-0.668v1.664h0.668c0.46,0,0.828-0.376,0.828-0.836C73.698,271.704,73.33,271.328,72.87,271.328z"/>
<path fill="#FFFFFF" d="M75.854,273.5v-2.68h2.136v0.508h-1.628v0.488h0.94v0.516h-0.94v0.66h1.664v0.508H75.854z"/>
<path fill="#FFFFFF" d="M81.351,272.492h-1.177v1.008h-0.508v-2.68h1.685c0.46,0,0.836,0.376,0.836,0.836
	S81.811,272.492,81.351,272.492z M81.351,271.328h-1.177v0.66h1.177c0.18,0,0.319-0.152,0.319-0.332
	C81.67,271.48,81.53,271.328,81.351,271.328z"/>
<path fill="#FFFFFF" d="M84.982,271.328v2.172h-0.508v-2.172h-0.92v-0.508h2.304v0.508H84.982z"/>
<path fill="#FFFFFF" d="M90.591,273.548c-0.761,0-1.4-0.632-1.4-1.392c0-0.78,0.612-1.384,1.4-1.384
	c0.743,0,1.399,0.632,1.399,1.371C91.99,272.916,91.354,273.548,90.591,273.548z M91.482,272.156c0-0.48-0.404-0.864-0.892-0.864
	c-0.488,0-0.893,0.376-0.893,0.852c0,0.492,0.404,0.885,0.893,0.885c0.487,0,0.892-0.393,0.892-0.885V272.156z"/>
<path fill="#FFFFFF" d="M94.138,271.328v0.488h0.996v0.516h-0.996v1.168H93.63v-2.68h2.172v0.508H94.138z"/>
<path fill="#FFFFFF" d="M100.563,271.328v2.172h-0.508v-2.172h-0.92v-0.508h2.304v0.508H100.563z"/>
<path fill="#FFFFFF" d="M104.847,273.5l-0.593-1.008h-0.828v1.008h-0.508v-2.68h1.636c0.473,0,0.849,0.376,0.849,0.836
	c0,0.359-0.229,0.668-0.576,0.792l0.612,1.052H104.847z M104.554,271.328h-1.128v0.66h1.128c0.188,0,0.341-0.152,0.341-0.332
	C104.895,271.48,104.742,271.328,104.554,271.328z"/>
<path fill="#FFFFFF" d="M109.286,273.5l-0.271-0.584h-1.364l-0.28,0.584h-0.563l1.268-2.68h0.508l1.272,2.68H109.286z
	 M108.33,271.468l-0.443,0.933h0.884L108.33,271.468z"/>
<path fill="#FFFFFF" d="M113.343,273.5l-1.505-1.852v1.852h-0.508v-2.68h0.5l1.504,1.872v-1.872h0.517v2.68H113.343z"/>
<path fill="#FFFFFF" d="M116.827,273.548c-0.549,0-0.933-0.112-1.336-0.404l0.291-0.416c0.32,0.217,0.6,0.301,1.024,0.301
	c0.452,0,0.696-0.101,0.696-0.309c0-0.111-0.104-0.228-0.256-0.284c-0.129-0.044-0.289-0.084-0.637-0.147
	c-0.408-0.084-0.604-0.16-0.744-0.3c-0.14-0.145-0.207-0.292-0.207-0.473c0-0.283,0.151-0.487,0.451-0.611
	c0.188-0.084,0.424-0.132,0.648-0.132c0.376,0,0.716,0.104,1.072,0.319l-0.272,0.424c-0.272-0.168-0.509-0.224-0.836-0.224
	c-0.376,0-0.556,0.064-0.556,0.216c0,0.232,0.488,0.272,0.66,0.3c0.308,0.057,0.607,0.148,0.779,0.236
	c0.244,0.132,0.396,0.404,0.396,0.696C118.003,273.248,117.566,273.548,116.827,273.548z"/>
<path fill="#FFFFFF" d="M121.322,272.492h-1.177v1.008h-0.508v-2.68h1.685c0.46,0,0.836,0.376,0.836,0.836
	S121.782,272.492,121.322,272.492z M121.322,271.328h-1.177v0.66h1.177c0.18,0,0.319-0.152,0.319-0.332
	C121.642,271.48,121.502,271.328,121.322,271.328z"/>
<path fill="#FFFFFF" d="M125.087,273.548c-0.761,0-1.4-0.632-1.4-1.392c0-0.78,0.611-1.384,1.4-1.384
	c0.744,0,1.399,0.632,1.399,1.371C126.486,272.916,125.851,273.548,125.087,273.548z M125.979,272.156
	c0-0.48-0.404-0.864-0.892-0.864c-0.488,0-0.893,0.376-0.893,0.852c0,0.492,0.404,0.885,0.893,0.885
	c0.487,0,0.892-0.393,0.892-0.885V272.156z"/>
<path fill="#FFFFFF" d="M130.055,273.5l-0.593-1.008h-0.828v1.008h-0.508v-2.68h1.637c0.472,0,0.848,0.376,0.848,0.836
	c0,0.359-0.229,0.668-0.576,0.792l0.612,1.052H130.055z M129.763,271.328h-1.129v0.66h1.129c0.188,0,0.34-0.152,0.34-0.332
	C130.103,271.48,129.95,271.328,129.763,271.328z"/>
<path fill="#FFFFFF" d="M133.442,271.328v2.172h-0.508v-2.172h-0.92v-0.508h2.303v0.508H133.442z"/>
<path fill="#FFFFFF" d="M138.007,273.5l-0.273-0.584h-1.363l-0.279,0.584h-0.564l1.268-2.68h0.508l1.273,2.68H138.007z
	 M137.05,271.468l-0.443,0.933h0.885L137.05,271.468z"/>
<path fill="#FFFFFF" d="M141.206,271.328v2.172h-0.508v-2.172h-0.92v-0.508h2.305v0.508H141.206z"/>
<path fill="#FFFFFF" d="M143.562,273.5v-2.68h0.508c0,0,0.008,2.68,0,2.68C144.077,273.5,143.562,273.5,143.562,273.5z"/>
<path fill="#FFFFFF" d="M147.11,273.548c-0.76,0-1.4-0.632-1.4-1.392c0-0.78,0.611-1.384,1.4-1.384c0.744,0,1.398,0.632,1.398,1.371
	C148.509,272.916,147.874,273.548,147.11,273.548z M148.001,272.156c0-0.48-0.402-0.864-0.891-0.864s-0.893,0.376-0.893,0.852
	c0,0.492,0.404,0.885,0.893,0.885s0.891-0.393,0.891-0.885V272.156z"/>
<path fill="#FFFFFF" d="M152.161,273.5l-1.504-1.852v1.852h-0.508v-2.68h0.5l1.504,1.872v-1.872h0.516v2.68H152.161z"/>
<path fill="#FFFFFF" d="M62.457,27.451l-2.664-4.536h-3.726v4.536h-2.286v-12.06h7.362c2.124,0,3.815,1.692,3.815,3.762
	c0,1.62-1.025,3.006-2.592,3.564l2.754,4.734H62.457z M61.144,17.677h-5.076v2.97h5.076c0.846,0,1.529-0.684,1.529-1.494
	C62.673,18.361,61.989,17.677,61.144,17.677z"/>
<path fill="#FFFFFF" d="M70.701,27.451v-12.06h9.612v2.286h-7.326v2.196h4.229v2.322h-4.229v2.97h7.488v2.286H70.701z"/>
<path fill="#FFFFFF" d="M91.347,27.451h-5.292v-12.06h5.292c3.348,0,6.048,2.7,6.048,6.012
	C97.395,24.75,94.694,27.451,91.347,27.451z M91.347,17.677h-3.006v7.488h3.006c2.07,0,3.726-1.692,3.726-3.762
	C95.072,19.369,93.417,17.677,91.347,17.677z"/>
<path fill="#FFFFFF" d="M109.167,27.451v-2.286l7.956-7.488h-7.578v-2.286h10.926v2.286l-7.956,7.488h7.956v2.286H109.167z"/>
<path fill="#FFFFFF" d="M131.504,27.667c-3.42,0-6.3-2.844-6.3-6.264c0-3.51,2.754-6.228,6.3-6.228c3.348,0,6.301,2.844,6.301,6.174
	C137.805,24.823,134.942,27.667,131.504,27.667z M135.518,21.403c0-2.16-1.817-3.888-4.014-3.888c-2.195,0-4.014,1.692-4.014,3.834
	c0,2.214,1.818,3.978,4.014,3.978c2.196,0,4.014-1.764,4.014-3.978V21.403z"/>
<path fill="#FFFFFF" d="M152.438,27.451l-6.768-8.334v8.334h-2.286v-12.06h2.25l6.769,8.424v-8.424h2.322v12.06H152.438z"/>
<path fill="#FFFFFF" d="M160.808,27.451v-12.06h9.612v2.286h-7.326v2.196h4.23v2.322h-4.23v2.97h7.488v2.286H160.808z"/>
</svg>
