<?xml version="1.0" encoding="utf-8"?>
<!-- Generator: Adobe Illustrator 12.0.1, SVG Export Plug-In  -->
<!DOCTYPE svg PUBLIC "-//W3C//DTD SVG 1.1//EN" "http://www.w3.org/Graphics/SVG/1.1/DTD/svg11.dtd" [
	<!ENTITY ns_flows "http://ns.adobe.com/Flows/1.0/">
	<!ENTITY ns_svg "http://www.w3.org/2000/svg">
	<!ENTITY ns_xlink "http://www.w3.org/1999/xlink">
]>
<svg  version="1.1" xmlns="&ns_svg;" xmlns:xlink="&ns_xlink;" xmlns:a="http://ns.adobe.com/AdobeSVGViewerExtensions/3.0/"
	 width="290" height="216" viewBox="-0.138 0 290 216" enable-background="new -0.138 0 290 216" xml:space="preserve">
<defs>
</defs>
<path fill="none" d="M270.491,12.907l-46.869,0.013L63.763,12.912l-44.529-0.013c-3.478-0.073-6.403,2.853-6.346,6.338v177.517
	c-0.058,3.486,2.868,6.411,6.346,6.338l44.529-0.012v0.016l159.859-0.008l46.869,0.012c3.478,0.073,6.403-2.852,6.347-6.338V19.246
	C276.895,15.76,273.969,12.834,270.491,12.907z"/>
<path fill="#FFFFFF" d="M270.653,1.048L19.071,1.04C9.129,1.04,1.04,9.133,1.04,19.087v177.817c0,9.954,8.089,18.047,18.031,18.047
	l251.582,0.008c9.942,0,18.031-8.093,18.031-18.047V19.096C288.685,9.142,280.596,1.048,270.653,1.048z M284.569,196.855
	c-0.024,7.711-6.298,13.984-13.98,13.984l-46.967-0.012l-159.859-0.009l-44.627,0.013c-7.683,0-13.956-6.273-13.98-13.984V19.145
	c0.024-7.712,6.298-13.985,13.98-13.985L223.622,5.18l46.967-0.012c7.683,0,13.956,6.272,13.98,13.984V196.855z"/>
<path d="M270.653,0.008L19.071,0C8.557,0,0,8.564,0,19.087v177.817c0,10.522,8.557,19.087,19.071,19.087L270.653,216
	c10.516,0,19.071-8.564,19.071-19.088V19.096C289.725,8.572,281.169,0.008,270.653,0.008z M288.685,196.912
	c0,9.954-8.089,18.047-18.031,18.047l-251.582-0.008c-9.942,0-18.031-8.093-18.031-18.047V19.087C1.04,9.133,9.129,1.04,19.071,1.04
	l251.582,0.008c9.942,0,18.031,8.094,18.031,18.048V196.912z"/>
<path d="M270.589,5.168L223.622,5.18L19.136,5.159c-7.683,0-13.956,6.273-13.98,13.985v177.703
	c0.024,7.711,6.298,13.984,13.98,13.984l44.627-0.013l159.859,0.009l46.967,0.012c7.683,0,13.956-6.273,13.98-13.984V19.152
	C284.545,11.44,278.271,5.168,270.589,5.168z M276.838,196.762c0.057,3.486-2.869,6.411-6.347,6.338l-46.869-0.012l-159.859,0.008
	v-0.016l-44.529,0.012c-3.478,0.073-6.403-2.852-6.346-6.338V19.237c-0.058-3.485,2.868-6.411,6.346-6.338l44.529,0.013
	l159.859,0.008l46.869-0.013c3.478-0.073,6.403,2.853,6.347,6.339V196.762z"/>
<path fill="#FFFFFF" d="M270.491,12.907L63.763,12.912l-44.529-0.013c-3.478-0.073-6.403,2.853-6.346,6.338v177.517
	c-0.058,3.486,2.868,6.411,6.346,6.338l251.258,0.008c3.478,0.073,6.403-2.852,6.347-6.338V19.246
	C276.895,15.76,273.969,12.834,270.491,12.907z"/>
<path d="M39.883,61.104c-1,0.96-2.439,1.439-3.84,1.52c-0.279,0-0.84,0-1.52,0h-8.16v-26.8h8.64c2.721,0,3.761,0.28,5.2,1.4
	c2.8,2.44,4.4,6.68,4.4,11.96C44.604,54.544,42.923,58.784,39.883,61.104z M38.123,41.184c-0.68-0.64-1.6-1.12-2.72-1.12h-4.8v18.24
	h4.24c1.399,0,2.239-0.279,3-1.04c1.6-1.6,2.439-4.52,2.439-8.08C40.283,45.584,39.443,42.584,38.123,41.184z"/>
<path d="M67.963,60.104c-1.521,2.039-3.681,3-6.48,3c-3.76,0-6.119-1.521-7.72-4.801c-1.12-2.279-1.88-5.84-1.88-9.04
	c0-4.4,1.12-8.36,2.92-10.92c1.601-2.04,3.76-3,6.84-3c3.4,0,5.76,1.52,7.44,4.8c1.12,2.36,1.8,5.76,1.8,9.12
	C70.883,53.504,69.843,57.744,67.963,60.104z M65.043,41.744c-0.84-1.4-1.88-1.96-3.48-2.08c-0.08,0-0.159,0-0.239,0
	c-1.92,0-3.2,1.04-4.08,3.32c-0.681,1.6-1.04,4.04-1.04,6.28c0,2.84,0.56,5.76,1.6,7.44c0.84,1.4,1.96,2.08,3.68,2.08
	c1.961,0,3.2-1.04,4.12-3.4c0.561-1.4,1.04-4.04,1.04-6.12C66.643,46.264,66.083,43.544,65.043,41.744z"/>
<path d="M93.282,62.624l-10.239-18.16v18.16h-4.24v-26.8h4.24l9.76,17.12v-17.12h4.24v26.8H93.282z"/>
<path d="M105.922,43.467l-1.439-0.88c0.68-0.561,1.24-1.4,1.52-2.04h-0.279c-1.521,0-2.44-0.84-2.44-2.16
	c0-1.44,1.12-2.56,2.44-2.56c1.399,0,2.439,1.119,2.439,3C108.162,40.547,107.322,42.307,105.922,43.467z"/>
<path d="M122.402,39.584v23.04h-4.24v-23.04h-6.12v-3.76h16.561v3.76H122.402z"/>
<path d="M159.322,61.984c-0.961,0.359-2.561,0.64-3.76,0.64h-10.16v-26.8h10.16c4.238,0,7.439,2.92,7.439,6.76
	c0,2.64-1.24,4.6-3.76,6.04c2.799,1.32,4.4,3.56,4.4,6.48C163.643,58.024,161.842,60.944,159.322,61.984z M155.842,40.064h-6.199
	v6.56h5.078c1.201,0,1.762-0.16,2.521-0.72c0.959-0.76,1.52-1.88,1.52-3.12C158.762,40.984,157.721,40.064,155.842,40.064z
	 M156.762,51.144c-0.561-0.2-0.84-0.2-1.76-0.2h-5.359v7.36h6.398c2.16,0,3.281-1.04,3.281-3.12
	C159.322,53.424,158.281,51.704,156.762,51.144z"/>
<path d="M170.162,62.624v-26.8h4.24v22.84h12.398v3.96H170.162z"/>
<path d="M208.281,60.104c-1.52,2.039-3.68,3-6.48,3c-3.76,0-6.119-1.521-7.721-4.801c-1.119-2.279-1.879-5.84-1.879-9.04
	c0-4.4,1.119-8.36,2.92-10.92c1.6-2.04,3.76-3,6.84-3c3.4,0,5.76,1.52,7.439,4.8c1.121,2.36,1.801,5.76,1.801,9.12
	C211.201,53.504,210.16,57.744,208.281,60.104z M205.361,41.744c-0.84-1.4-1.881-1.96-3.48-2.08c-0.08,0-0.16,0-0.24,0
	c-1.92,0-3.199,1.04-4.08,3.32c-0.68,1.6-1.039,4.04-1.039,6.28c0,2.84,0.559,5.76,1.6,7.44c0.84,1.4,1.959,2.08,3.68,2.08
	c1.961,0,3.201-1.04,4.121-3.4c0.559-1.4,1.039-4.04,1.039-6.12C206.961,46.264,206.4,43.544,205.361,41.744z"/>
<path d="M228.721,63.104c-3.959,0-6.479-1.521-8.199-4.801c-1.199-2.359-1.961-5.76-1.961-9.12c0-4.24,1.121-8.48,3-10.84
	c1.602-1.96,3.84-3,6.881-3c4.039,0,6.561,1.72,8.359,5.48l-3.959,1.68c-1.48-2.28-2.361-2.84-4.4-2.84c-2.16,0-3.6,0.96-4.52,3.32
	c-0.68,1.6-1.041,3.92-1.041,6.2c0,2.92,0.641,5.84,1.68,7.52c0.961,1.4,2.16,2.08,4.041,2.08c1.799,0,3.119-0.96,4.16-3.12
	l4.039,1.52C235.201,61.104,232.561,63.104,228.721,63.104z"/>
<path d="M258.48,62.624l-6.799-12.68l-2.801,3.48v9.2h-4.24v-26.8h4.24v10.64l8.439-10.64h5.48l-8.279,10.44l8.84,16.36H258.48z"/>
<path d="M79.904,81.917v23.04h-4.24v-23.04h-6.12v-3.76h16.56v3.76H79.904z"/>
<path d="M106.063,104.957v-11.68h-9.76v11.68h-4.24v-26.8h4.24v10.8h9.76v-10.8h4.24v26.8H106.063z"/>
<path d="M118.704,104.957v-26.8h15.8v4.24h-11.56v6.56h7.8v4.32h-7.8v7.36h12.399v4.32H118.704z"/>
<path d="M166.622,104.317c-0.959,0.359-2.561,0.64-3.76,0.64h-10.16v-26.8h10.16c4.24,0,7.439,2.92,7.439,6.76
	c0,2.64-1.24,4.6-3.76,6.04c2.801,1.32,4.4,3.56,4.4,6.48C170.942,100.357,169.142,103.277,166.622,104.317z M163.142,82.397h-6.199
	v6.56h5.08c1.199,0,1.76-0.16,2.52-0.72c0.961-0.76,1.52-1.88,1.52-3.12C166.062,83.317,165.022,82.397,163.142,82.397z
	 M164.062,93.477c-0.559-0.2-0.84-0.2-1.76-0.2h-5.359v7.36h6.4c2.16,0,3.279-1.04,3.279-3.12
	C166.622,95.757,165.583,94.037,164.062,93.477z"/>
<path d="M192.981,102.438c-1.52,2.039-3.68,3-6.479,3c-3.762,0-6.121-1.521-7.721-4.801c-1.119-2.279-1.881-5.84-1.881-9.04
	c0-4.4,1.121-8.36,2.92-10.92c1.602-2.04,3.762-3,6.842-3c3.398,0,5.76,1.52,7.439,4.8c1.119,2.36,1.799,5.76,1.799,9.12
	C195.901,95.837,194.862,100.077,192.981,102.438z M190.062,84.077c-0.84-1.4-1.879-1.96-3.479-2.08c-0.08,0-0.16,0-0.24,0
	c-1.92,0-3.201,1.04-4.08,3.32c-0.68,1.6-1.041,4.04-1.041,6.28c0,2.84,0.561,5.76,1.6,7.44c0.842,1.4,1.961,2.08,3.682,2.08
	c1.959,0,3.199-1.04,4.119-3.4c0.561-1.4,1.041-4.04,1.041-6.12C191.663,88.597,191.103,85.877,190.062,84.077z"/>
<path d="M215.382,104.957l-4.32-8.92l-4.32,8.92h-4.799l6.68-13.84l-6.201-12.96h4.801l3.84,8l3.84-8h4.801l-6.281,12.96l6.76,13.84
	H215.382z"/>
<rect x="25.701" y="134.333" width="238.324" height="38.667"/>
<path fill="#FFFFFF" d="M37.604,144.029v6.76h5.36v3.68h-5.36v12.601h-3.84v-26.8h13.641v3.76H37.604z"/>
<path fill="#FFFFFF" d="M51.563,167.069v-26.8h3.761v26.8H51.563z"/>
<path fill="#FFFFFF" d="M73.763,167.069l-8.279-17.96v17.96h-3.84v-26.8h3.84l7.359,16.08v-16.08h3.841v26.8H73.763z"/>
<path fill="#FFFFFF" d="M82.923,167.069v-26.8h12.6v3.76h-8.76v6.76h5.561v3.68h-5.561v8.841h9.8v3.76H82.923z"/>
<path fill="#FFFFFF" d="M117.803,155.31v6.479h-3.761v-6.479h-6.76v-3.681h6.76v-6.479h3.761v6.479h6.88v3.681H117.803z"/>
<path fill="#FFFFFF" d="M127.441,167.069c0.2-3.68,0.48-5,1.32-7.319c1.12-2.841,2.521-5,4.32-6.681
	c0.64-0.56,1.239-1.04,3.399-2.56c1.761-1.2,2.24-1.881,2.24-3.2c0-2.04-1.68-3.761-3.76-3.761s-3.76,1.721-3.76,3.761h-3.761
	c0.08-4.2,3.28-7.521,7.521-7.521c4.12,0,7.44,3.4,7.44,7.521c0,2.159-0.76,3.88-2.28,5.28c-0.28,0.199-0.561,0.359-0.84,0.64
	l-0.921,0.68l-0.96,0.64l-1.04,0.761c-1.68,1.239-3.479,3.68-4.199,5.92c-0.32,0.68-0.4,1.12-0.601,2.08h10.841v3.76H127.441z"/>
<path fill="#FFFFFF" d="M163.201,155.31h-4.16v11.76h-3.84v-26.8h8c4.201,0,7.041,3,7.041,7.52
	C170.242,152.67,167.723,155.31,163.201,155.31z M163.002,144.029h-3.961v7.6h3.961c2.24,0,3.48-1.399,3.48-3.84
	C166.482,145.549,165.082,144.029,163.002,144.029z"/>
<path fill="#FFFFFF" d="M188.041,162.949c-1.318,3.16-3.279,4.601-6.279,4.601c-3.199,0-5.08-1.44-6.4-4.601
	c-1.119-2.64-1.52-5.199-1.52-9.32c0-4.039,0.4-6.76,1.52-9.319c1.4-3.2,3.281-4.521,6.4-4.521c3.08,0,4.961,1.32,6.279,4.6
	c1.121,2.641,1.521,5.201,1.521,9.24C189.563,157.75,189.162,160.39,188.041,162.949z M185.041,146.949
	c-0.68-2.359-1.68-3.4-3.279-3.4c-1.721,0-2.76,1.041-3.4,3.32c-0.639,2.04-0.84,3.84-0.84,6.84c0,2.92,0.281,4.601,0.84,6.761
	c0.641,2.279,1.68,3.319,3.4,3.319c1.6,0,2.6-1.04,3.279-3.319c0.641-2.16,0.842-3.761,0.842-6.841
	C185.883,150.629,185.602,148.909,185.041,146.949z"/>
<path fill="#FFFFFF" d="M195.322,167.069v-26.8h3.76v26.8H195.322z"/>
<path fill="#FFFFFF" d="M217.521,167.069l-8.281-17.96v17.96h-3.84v-26.8h3.84l7.361,16.08v-16.08h3.84v26.8H217.521z"/>
<path fill="#FFFFFF" d="M233.359,143.829v23.24h-3.879v-23.24H224.6v-3.56h13.641v3.56H233.359z"/>
<path fill="#FFFFFF" d="M248.521,167.55c-4.721,0-7.521-3.961-7.521-8.36h3.762c0,2.24,1.119,4.6,3.76,4.6
	c2.08,0,3.76-1.88,3.76-4.039c0-1.521-0.561-2.641-2.16-3.881c-0.561-0.56,0.959,0.48-4.52-3.199c-2.16-1.48-3.281-3.561-3.281-5.92
	c0-3.841,3-6.961,6.84-6.961c3.801,0,6.682,2.92,6.801,6.961h-3.68c-0.08-1.881-1.4-3.08-3.121-3.08c-1.76,0-3.16,1.319-3.16,3.08
	c0,1.319,0.561,2.079,2.521,3.199c5.16,3,7.439,5.92,7.439,9.801C255.961,164.069,252.641,167.55,248.521,167.55z"/>
<path d="M93.245,200.01h-1.254v-4.032h1.254c1.212,0,1.992,0.805,1.992,2.017C95.237,199.218,94.445,200.01,93.245,200.01z
	 M93.287,196.782h-0.504v2.424h0.504c0.72,0,1.158-0.45,1.158-1.212C94.445,197.231,94.007,196.782,93.287,196.782z"/>
<path d="M97.409,200.01v-4.032h2.934v0.805h-2.142v0.659h1.212v0.805h-1.212v0.96h2.196v0.804H97.409z"/>
<path d="M105.064,198.33c-0.24,0.126-0.408,0.168-0.774,0.168h-1.056v1.512h-0.792v-4.032h1.89c0.336,0,0.51,0.042,0.732,0.168
	c0.384,0.223,0.624,0.637,0.624,1.086C105.688,197.693,105.448,198.12,105.064,198.33z M104.386,196.782h-1.152v0.911h1.152
	c0.312,0,0.51-0.18,0.51-0.462C104.896,196.979,104.687,196.782,104.386,196.782z"/>
<path d="M109.103,196.782v3.228h-0.774v-3.228h-1.116v-0.805h2.988v0.805H109.103z"/>
<path d="M116.986,200.082c-1.212,0-1.691-1.032-1.691-2.088c0-1.272,0.647-2.076,1.691-2.076c0.972,0,1.68,0.834,1.68,2.076
	C118.666,199.277,118,200.082,116.986,200.082z M116.986,196.722c-0.576,0-0.888,0.426-0.888,1.272c0,0.815,0.324,1.283,0.888,1.283
	c0.552,0,0.888-0.51,0.888-1.302C117.874,197.105,117.551,196.722,116.986,196.722z"/>
<path d="M121.631,196.782v0.72h1.296v0.804h-1.296v1.704h-0.792v-4.032h2.987v0.805H121.631z"/>
<path d="M130.685,196.782v3.228h-0.773v-3.228h-1.116v-0.805h2.987v0.805H130.685z"/>
<path d="M136.114,200.01l-0.552-1.512h-1.056v1.512h-0.792v-4.032h1.817c0.342,0,0.51,0.042,0.738,0.168
	c0.39,0.223,0.63,0.637,0.63,1.086c0,0.438-0.21,0.834-0.576,1.074l0.636,1.704H136.114z M135.604,196.782h-1.098v0.911h1.098
	c0.294,0,0.51-0.18,0.51-0.462C136.114,196.979,135.898,196.782,135.604,196.782z"/>
<path d="M141.814,200.01l-0.384-0.948h-1.59l-0.385,0.948h-0.857l1.62-4.032h0.834l1.62,4.032H141.814z M140.656,197.13
	l-0.492,1.128h0.942L140.656,197.13z"/>
<path d="M147.159,200.01l-1.763-2.58v2.58h-0.792v-4.032h0.792l1.661,2.466v-2.466h0.791v4.032H147.159z"/>
<path d="M152.733,199.854c-0.24,0.145-0.666,0.229-1.043,0.229c-0.457,0-0.895-0.126-1.242-0.366
	c-0.127-0.072-0.217-0.145-0.396-0.313l0.564-0.563c0.336,0.312,0.648,0.438,1.115,0.438c0.463,0,0.787-0.155,0.787-0.438
	c0-0.114-0.066-0.271-0.182-0.342c-0.143-0.084-0.281-0.126-0.803-0.223c-0.426-0.102-0.678-0.186-0.846-0.3
	c-0.271-0.18-0.439-0.534-0.439-0.87c0-0.408,0.211-0.779,0.564-0.989c0.223-0.139,0.492-0.198,0.846-0.198
	c0.451,0,0.877,0.102,1.213,0.312c0.084,0.055,0.125,0.084,0.252,0.187l-0.492,0.63c-0.324-0.24-0.617-0.324-1.002-0.324
	c-0.365,0-0.594,0.126-0.594,0.384c0,0.097,0.061,0.21,0.156,0.252c0.072,0.042,0.156,0.055,0.24,0.084l0.125,0.013l0.145,0.029
	l0.18,0.03c0.936,0.168,1.428,0.606,1.428,1.314C153.31,199.248,153.081,199.655,152.733,199.854z"/>
<path d="M158.134,198.33c-0.24,0.126-0.408,0.168-0.773,0.168h-1.057v1.512h-0.791v-4.032h1.889c0.336,0,0.51,0.042,0.732,0.168
	c0.385,0.223,0.623,0.637,0.623,1.086C158.757,197.693,158.519,198.12,158.134,198.33z M157.456,196.782h-1.152v0.911h1.152
	c0.313,0,0.51-0.18,0.51-0.462C157.966,196.979,157.755,196.782,157.456,196.782z"/>
<path d="M162.214,200.082c-1.213,0-1.693-1.032-1.693-2.088c0-1.272,0.648-2.076,1.693-2.076c0.971,0,1.68,0.834,1.68,2.076
	C163.894,199.277,163.228,200.082,162.214,200.082z M162.214,196.722c-0.576,0-0.889,0.426-0.889,1.272
	c0,0.815,0.324,1.283,0.889,1.283c0.551,0,0.887-0.51,0.887-1.302C163.101,197.105,162.778,196.722,162.214,196.722z"/>
<path d="M168.466,200.01l-0.553-1.512h-1.055v1.512h-0.793v-4.032h1.818c0.342,0,0.51,0.042,0.738,0.168
	c0.389,0.223,0.629,0.637,0.629,1.086c0,0.438-0.209,0.834-0.576,1.074l0.637,1.704H168.466z M167.956,196.782h-1.098v0.911h1.098
	c0.293,0,0.51-0.18,0.51-0.462C168.466,196.979,168.249,196.782,167.956,196.782z"/>
<path d="M172.839,196.782v3.228h-0.773v-3.228h-1.115v-0.805h2.986v0.805H172.839z"/>
<path d="M178.677,200.01l-0.383-0.948h-1.59l-0.385,0.948h-0.857l1.619-4.032h0.834l1.621,4.032H178.677z M177.519,197.13
	l-0.492,1.128h0.943L177.519,197.13z"/>
<path d="M182.95,196.782v3.228h-0.773v-3.228h-1.117v-0.805h2.988v0.805H182.95z"/>
<path d="M185.979,200.01v-4.032h0.805v4.032H185.979z"/>
<path d="M190.636,200.082c-1.213,0-1.693-1.032-1.693-2.088c0-1.272,0.648-2.076,1.693-2.076c0.971,0,1.68,0.834,1.68,2.076
	C192.315,199.277,191.649,200.082,190.636,200.082z M190.636,196.722c-0.576,0-0.889,0.426-0.889,1.272
	c0,0.815,0.324,1.283,0.889,1.283c0.551,0,0.887-0.51,0.887-1.302C191.522,197.105,191.2,196.722,190.636,196.722z"/>
<path d="M197.044,200.01l-1.764-2.58v2.58h-0.793v-4.032h0.793l1.66,2.466v-2.466h0.793v4.032H197.044z"/>
<path d="M18.898,199.77c-0.222,0.198-0.534,0.313-0.876,0.313c-0.69,0-1.194-0.408-1.464-1.021l0.606-0.222
	c0.168,0.378,0.48,0.594,0.858,0.594c0.372,0,0.624-0.258,0.624-0.594c0-0.534-0.624-0.624-1.146-0.834
	c-0.24-0.096-0.774-0.336-0.774-1.002c0-0.786,0.534-1.086,1.254-1.086c0.564,0,0.948,0.324,1.146,0.821l-0.564,0.169
	c0,0-0.144-0.343-0.594-0.354c-0.018,0-0.03,0-0.042,0c-0.276,0-0.576,0.108-0.576,0.426c0,0.013,0,0.03,0,0.042
	c0.054,0.744,1.944,0.252,1.944,1.83C19.294,199.218,19.15,199.542,18.898,199.77z"/>
<path d="M22.018,200.01l-0.648-1.752h-0.762v1.752h-0.636v-4.021h1.326c0.312,0,0.522,0.03,0.72,0.127
	c0.354,0.168,0.606,0.594,0.606,1.002c0,0.426-0.252,0.846-0.624,1.014l0.708,1.878H22.018z M21.736,196.697
	c-0.108-0.06-0.156-0.071-0.366-0.071h-0.762v0.983h0.762c0.198,0,0.264-0.012,0.366-0.065c0.156-0.09,0.252-0.258,0.252-0.426
	S21.892,196.782,21.736,196.697z"/>
<path d="M23.032,198.348v-0.636h1.41v0.636H23.032z"/>
<path d="M25.331,200.01v-3.258h-0.366v-0.51h0.042c0.168,0,0.354-0.097,0.462-0.253h0.51v4.021H25.331z"/>
<path d="M26.854,200.01c0.012-0.468,0.114-0.846,0.336-1.23c0.168-0.306,0.426-0.563,0.708-0.773
	c0.072-0.042,0.126-0.084,0.18-0.126l0.216-0.114l0.198-0.114l0.192-0.107c0.156-0.103,0.27-0.271,0.27-0.438
	c0-0.3-0.336-0.54-0.732-0.54c-0.408,0-0.666,0.198-0.732,0.564l-0.636-0.138c0.138-0.666,0.66-1.074,1.368-1.074
	c0.762,0,1.368,0.54,1.368,1.2c0,0.312-0.144,0.624-0.408,0.857c-0.06,0.048-0.114,0.09-0.168,0.114l-0.198,0.126L28.6,198.33
	l-0.198,0.113c-0.378,0.229-0.588,0.469-0.786,0.918h1.974v0.648H26.854z"/>
<path d="M31.366,200.082c-0.348,0-0.702-0.084-0.984-0.229l0.312-0.563c0.168,0.084,0.462,0.144,0.756,0.144
	c0.582,0,1.032-0.384,1.032-0.906c0-0.396-0.324-0.701-0.72-0.701c-0.282,0-0.408,0.084-0.648,0.42l-0.534-0.181v-2.076h2.31v0.637
	h-1.692l-0.042,0.66c0.294-0.084,0.426-0.114,0.624-0.114c0.732,0,1.338,0.624,1.338,1.355
	C33.118,199.416,32.386,200.082,31.366,200.082z"/>
<path d="M35.278,200.082c-0.732,0-1.368-0.624-1.368-1.356c0-0.378,0.168-0.689,0.462-0.93c-0.198-0.21-0.294-0.45-0.294-0.732
	c0-0.624,0.552-1.146,1.2-1.146s1.212,0.521,1.212,1.146c0,0.282-0.114,0.522-0.312,0.732c0.312,0.24,0.468,0.563,0.468,0.93
	C36.646,199.458,36.01,200.082,35.278,200.082z M35.278,198.132c-0.396,0-0.72,0.27-0.72,0.605c0,0.385,0.324,0.696,0.72,0.696
	c0.408,0,0.732-0.312,0.732-0.696C36.01,198.401,35.674,198.132,35.278,198.132z M35.278,196.565c-0.312,0-0.564,0.217-0.564,0.48
	c0,0.24,0.252,0.438,0.564,0.438s0.564-0.197,0.564-0.438C35.842,196.782,35.59,196.565,35.278,196.565z"/>
</svg>
