<?xml version="1.0" encoding="UTF-8" standalone="no"?>
<!-- Generator: Adobe Illustrator 12.0.1, SVG Export Plug-In  -->

<svg
   xmlns:dc="http://purl.org/dc/elements/1.1/"
   xmlns:cc="http://creativecommons.org/ns#"
   xmlns:rdf="http://www.w3.org/1999/02/22-rdf-syntax-ns#"
   xmlns:svg="http://www.w3.org/2000/svg"
   xmlns="http://www.w3.org/2000/svg"
   xmlns:sodipodi="http://sodipodi.sourceforge.net/DTD/sodipodi-0.dtd"
   xmlns:inkscape="http://www.inkscape.org/namespaces/inkscape"
   version="1.1"
   width="2942.8635"
   height="2942.8538"
   viewBox="0 -0.764 2942.8636 2942.8538"
   enable-background="new 0 -0.764 289 256"
   xml:space="preserve"
   id="svg2"
   inkscape:version="0.48.2 r9819"
   sodipodi:docname="AJAX3.svg"><metadata
   id="metadata26"><rdf:RDF><cc:Work
       rdf:about=""><dc:format>image/svg+xml</dc:format><dc:type
         rdf:resource="http://purl.org/dc/dcmitype/StillImage" /><dc:title></dc:title></cc:Work></rdf:RDF></metadata><sodipodi:namedview
   pagecolor="#ffffff"
   bordercolor="#666666"
   borderopacity="1"
   objecttolerance="10"
   gridtolerance="10"
   guidetolerance="10"
   inkscape:pageopacity="0"
   inkscape:pageshadow="2"
   inkscape:window-width="1280"
   inkscape:window-height="1004"
   id="namedview24"
   showgrid="false"
   fit-margin-top="0"
   fit-margin-left="0"
   fit-margin-right="0"
   fit-margin-bottom="0"
   inkscape:zoom="0.20811725"
   inkscape:cx="35.913651"
   inkscape:cy="1051.2344"
   inkscape:window-x="-8"
   inkscape:window-y="-8"
   inkscape:window-maximized="1"
   inkscape:current-layer="svg2" />
<defs
   id="defs4">
</defs>









<path
   inkscape:connector-curvature="0"
   style="fill:#ffd033;fill-rule:nonzero;stroke:none"
   d="m 1566.8824,2902.5554 c -52.7125,52.7125 -138.2,52.7125 -190.9125,0 L 39.540806,1566.1179 c -52.720875,-52.7125 -52.720875,-138.2 -0.0012,-190.9125 L 1375.9699,38.777708 c 52.7125,-52.7223 138.2,-52.7223 190.9125,0 L 2903.3199,1375.2054 c 52.725,52.7125 52.725,138.2 0,190.9125 L 1566.8824,2902.5554 z"
   id="path11" /><path
   inkscape:connector-curvature="0"
   style="fill:#000000;fill-rule:nonzero;stroke:none"
   d="M 2839.6906,1502.4885 1503.2531,2838.926 c -17.5375,17.5375 -46.0875,17.5375 -63.6375,0 L 103.17969,1502.4885 c -17.545134,-17.55 -17.545134,-46.0875 0,-63.6375 L 1439.6156,102.41521 c 17.55,-17.543802 46.1,-17.543802 63.6375,0 L 2839.6906,1438.851 c 17.5375,17.55 17.5375,46.0875 0,63.6375 z M 2879.4656,1399.076 1543.0281,62.641108 c -39.475,-39.4776 -103.7125,-39.4776 -143.1875,0 L 63.404306,1399.076 c -39.47625,39.475 -39.47625,103.7125 0.0013,143.1875 L 1399.8406,2878.701 c 39.475,39.475 103.7125,39.475 143.1875,0 L 2879.4656,1542.2635 c 39.475,-39.475 39.475,-103.7125 0,-143.1875 z"
   id="path13" /><path
   style="fill:#000000;fill-rule:evenodd;stroke:none"
   d="m 2217.7723,1594.5479 c -1.3375,-7.8 -2.725,-15.575 -4.15,-23.325 -1.15,-6.35 -4.0375,-14.3 -3.7125,-20.7625 1.0625,-17.875 2.0875,-35.7875 3.125,-53.65 1.6125,-28.2375 3.1625,-56.3875 8.8625,-84.0875 3.0375,-14.7375 7.7875,-29.925 8.5875,-45.0125 0.7875,-15.7125 3.125,-31.8625 0.8625,-47.4625 -1.3375,-9.975 -2.8,-19.8875 -4.225,-29.8625 -0.8375,-5.8125 -3.65,-11.475 -5.55,-16.975 -5.6125,-16.1875 -11.5125,-30.925 -19.1125,-46.22 -2.725,-5.54 -5.0625,-10.8813 -8.9375,-15.67 -6.4875,-7.9538 -13.025,-15.9475 -19.5125,-23.8813 -8.9,-10.9212 -22.3125,-19.6862 -33.1625,-28.6487 -22.5125,-18.5788 -50.2125,-29.3025 -77.8375,-38.1075 -12.5375,-4.0163 -25.125,-8.0325 -37.6625,-12.0488 -7.725,-2.435 -15.6,-3.0475 -23.7125,-4.0562 l 2.2625,0 c -29.875,-4.5713 -59.835,-7.6575 -90.0975,-5.3425 -32.525,2.4937 -64.5,8.5675 -96.6375,13.79 -18.5625,3.0075 -36.8375,10.0725 -54.85,15.1762 -21.2,6.015 -42.3375,12.05 -63.5,18.0638 l 3.35,0 c -17.5999,1.2475 -34.9375,0.5337 -52.625,0 -3.125,-0.1188 -7.2,-2.6913 -10.0875,-3.7788 -4.5875,-1.7212 -9.1875,-3.4425 -13.7375,-5.2037 -7.4,-2.83 -11.5875,-13.0188 -19.1875,-15.7888 2.8125,11.3175 6.9625,21.8038 13.5,31.5188 -7.0125,-1.405 -13.775,-4.2538 -19.1625,-8.9825 -6.25,-5.4613 -8.825,-10.8025 -12.3375,-18.045 -4.9125,6.47 -8.75,13.3362 -16.15,17.075 -7.4,3.7 -14.2,3.66 -22.1625,2.0775 4.8375,-3.2438 8.35,-5.3813 10.1,-11.2775 1.775,-5.975 1.225,-10.5663 -2.225,-15.75 0.475,8.6462 -5.5375,18.7175 -14.0875,21.5675 -1.1875,0.415 -4.625,2.0562 -5.3,0.295 -1.1125,-3.105 -2.2125,-6.1913 -3.3625,-9.2788 -1.5875,-4.4312 2.4875,-8.6462 4.75,-12.5837 -7.475,4.67 -12.9375,9.5175 -19.1875,15.75 -2.025,2.0575 -5.625,7.5575 -8.4375,7.9925 -4.75,0.7125 -9.4125,1.445 -14.05,2.1775 0,-2.0975 -0.9875,-5.2638 1.1125,-6.115 2.575,-1.0088 4.2,-1.2863 5.7,-3.5413 3.2,-4.8075 5.7,-9.7537 8.275,-14.9375 4.1875,-8.27 12.85,-15.4137 18.7125,-22.7137 -5.625,1.1087 -12.55,1.365 -17.65,3.72 -7.8,3.5412 -15.5125,7.0425 -23.3125,10.565 -4.825,2.2162 -12.025,1.4837 -17.25,1.4837 -8.275,0 -12.9375,-0.5137 -20.65,-3.3637 l 1.1,-1.1275 0,1.1275 c 1.225,-4.0163 2.2625,-7.795 4.0375,-11.575 1.8625,-4.055 6.1,-9.7938 6.175,-14.325 -5.0625,5.0062 -8.6625,9.5575 -15.2375,12.09 -8.025,3.0862 -16.1375,6.1725 -24.175,9.26 1.9,-7.1425 5.225,-14.0875 3.3625,-21.35 -1.7,4.4525 -2.1,8.2312 -6.175,10.6462 -5.3,3.0863 -9.1,6.2125 -15.1875,6.2125 2.175,-7.5787 3.75,-14.5825 7.875,-21.3687 -4.0375,2.8887 -8.9125,5.54 -12.3875,9.0025 -3.925,3.8187 -6.8875,9.16 -10.175,13.4937 0,-2.5325 -0.9125,-6.985 0.1625,-9.24 1.6625,-3.7 3.4375,-7.38 5.1,-11.08 3.325,-7.0637 9.5,-15.6312 9.425,-23.565 -10.925,12.445 -23.7125,33.755 -41.675,33.755 6.8125,-6.055 11.2375,-10.8425 16.15,-18.5 3.675,-5.7775 7.675,-14.0275 7.4375,-20.8925 -7.2,7.2413 -14.2125,14.62 -21.1375,22.1 -5.925,6.41 -14.125,10.7638 -21.5625,15.0575 2.0625,-2.0987 6.25,-4.7887 6.9625,-7.7175 0.6375,-2.7312 0.8,-9.715 4.275,-10.3275 -4.1125,1.285 -3.125,-9.5962 -3.4,-12.3675 -2.8875,5.7975 -5.025,11.8525 -9.7,16.4225 -4.6625,4.67 -9.3375,9.32 -13.9625,13.99 0.3125,-2.7312 -0.2375,-8.7662 1.6625,-10.685 2.8125,-2.81 4.9875,-6.43 7.4,-9.5962 l -14.6875,7.875 c 4.3125,-10.4075 7.9625,-20.4 10.175,-31.4988 -2.65,2.5713 -5.225,5.1438 -7.8,7.7163 -2.05,2.0975 -2.9625,5.5787 -4.625,8.0325 -4.35,6.3912 -9.1875,10.1112 -16.8625,10.1112 4.6375,-4.65 7.7625,-8.9825 11.2375,-14.6025 l 0,2.235 c 1.9875,-5.3812 3.6,-10.1087 4.475,-15.7675 -3.4375,1.9575 -8.1875,3.5613 -10.925,6.5488 -3.8375,4.215 -7.4375,8.665 -11.55,12.6037 -0.475,-4.0175 1.5375,-9.8337 1.9375,-13.9687 0.475,-4.3525 0.3125,-8.6863 0.3125,-13.06 -1.0625,2.89 -3.675,5.105 -5.0625,7.8762 -1.8625,3.6 -4,6.8263 -6.175,10.1888 -4.0375,5.955 -9.575,10.645 -14.6375,15.71 5.15,-11.615 10.1375,-29.3225 -1.1875,-39.3938 -2.175,3.1263 -1.7,8.1125 -2.0125,11.7538 -0.4,3.7787 -3.2125,7.2412 -5.075,10.525 -3.4375,6.1537 -9.7625,13.1775 -16.5375,14.8587 0,-5.3812 2.175,-11.89 1.15,-17.015 -0.8375,-3.8187 -0.9875,-17.115 -5.6187,-17.8862 -1.7813,7.2012 -3.4825,13.7912 -6.4513,20.5775 -1.1075,2.77 -5.3812,2.0775 -6.0937,-0.7713 -0.87,-3.74 -0.9488,-6.9462 -0.9488,-10.8037 -5.3825,5.3812 -5.6587,12.8612 -5.6587,20.28 -6.015,-5.3025 -8.8238,-16.54 -12.3463,-23.6438 -1.94,7.5375 -4.0362,14.9388 -5.6187,22.5163 l 0,-1.1288 c -1.0688,1.5238 -3.9575,9.9738 -4.9863,10.25 -2.335,0.5938 -4.2737,1.84 -5.4612,-0.6925 -0.8713,-1.8 -2.0188,-2.77 -2.4925,-4.7287 -1.1875,-4.5313 -1.7013,-10.8425 -3.9975,-14.9375 -2.0175,-3.7013 -6.2125,-6.985 -9.0225,-10.1713 l 4.5112,23.665 c -4.2737,-1.445 -6.5287,-1.2075 -7.8737,-5.62 -1.1088,-3.7 -2.0975,-7.4387 -3.205,-11.1787 -2.2563,-7.9338 -4.67,-15.0563 -8.0338,-22.595 0.079,6.8662 -2.73,13.7312 -2.1762,20.5175 0.7125,8.5475 1.4637,17.115 2.1762,25.6225 -6.7662,-6.7463 -9.9712,-15.4338 -11.2375,-24.7713 -2.0975,3.1663 -1.385,19.1513 -6.2137,19.1513 -7.5175,0 -9.5363,-6.9438 -10.0113,-13.5325 -1.2262,-16.145 -2.9675,-32.2113 -2.9675,-48.395 -1.0687,4.2925 -2.0975,8.5862 -3.245,12.84 -1.0287,4.4725 -3.5212,5.9162 -3.5212,10.8037 l -3.3638,-1.1087 1.1075,0 c -0.8712,-2.6513 -3.205,-3.5813 -3.5212,-6.3513 -0.3963,-3.5025 -1.1075,-7.0225 -0.95,-10.565 -3.72,6.035 -3.4038,15.1763 -3.4038,22.0013 0,2.73 -1.1862,8.0737 -2.215,10.645 -0.2775,0.7325 -1.1475,-0.87 -1.1475,0.6125 0,0.99 0.3163,1.485 -0.555,1.96 -2.5712,1.2462 -3.6012,-0.6338 -5.855,-2.2963 -2.4937,-1.8787 -5.6975,-3.4825 -6.3725,-6.6075 -0.9487,-4.2737 -1.82,-8.37 -2.2937,-12.6625 -0.8325,-7.3012 -0.3563,-15.2937 3.8375,-21.52747 -8.9825,-1.76 -11.08,14.97747 -15.7488,19.15247 -3.9187,-5.2037 -4.9862,-7.1037 -3.3637,-13.5337 -5.1438,1.7412 -6.8463,5.7987 -9.0625,10.4875 -1.7013,3.5412 -3.4025,7.0625 -5.0638,10.645 -0.475,1.0875 -1.7025,5.3012 -2.81,5.895 -2.415,1.325 -4.8275,-0.475 -3.6412,-2.77 1.2262,-2.4725 1.94,-4.7675 2.73,-7.4188 1.6237,-5.7 4.67,-10.645 7.6375,-15.71 -8.9025,3.58 -15.3538,10.8025 -22.635,17.075 -7.8738,6.7463 -15.9863,13.2163 -24.5725,18.9538 -2.335,-2.4138 0.9487,-4.4913 2.255,-6.7475 1.6625,-3.0463 2.4537,-6.4688 3.6012,-9.7538 2.0188,-5.9537 2.9675,-12.01 6.49,-17.2725 -6.7275,6.7475 -13.4937,13.4938 -20.2212,20.2413 -2.8888,2.8875 -6.2913,1.8 -2.6513,-1.84 2.6513,-2.6525 4.235,-8.2113 6.015,-11.615 -2.255,3.285 -4.5912,5.54 -7.9525,7.875 -2.2575,1.5625 -9.1412,5.975 -6.0937,-0.04 1.9375,-3.9375 2.8875,-8.0713 4.905,-12.01 0.6337,-1.4038 0.3162,-4.1738 1.5825,-5.105 1.7812,-1.365 3.7212,-2.6113 5.3037,-4.2525 -7.1237,2.4137 -9.9337,5.4212 -15.315,10.8425 -4.115,4.095 -7.5575,8.7837 -11.75246,12.8012 0,-8.5875 1.1475,-15.5725 3.79876,-23.7625 2.4937,-7.36122 7.44,-13.29622 10.8425,-20.12247 -10.6838,7.1425 -20.57626,14.85875 -27.30376,25.89997 -1.54375,2.3738 -2.81,5.3013 -4.74875,7.32 -2.41375,2.3938 -6.09375,2.1175 -3.64,-1.6612 1.38375,-2.0788 1.14625,-5.4225 2.17625,-7.9938 1.22625,-3.0475 2.73,-5.97622 4.27375,-8.94372 -6.6875,3.32375 -11.3175,9.08122 -16.54125,14.28622 -1.46375,1.4438 -3.8775,6.6663 -6.52875,5.7963 -2.49375,-0.8113 -2.88875,-0.415 -2.5725,-2.9075 0.2375,-2.2763 0.31625,-4.7688 0.91,-7.0638 1.58375,-6.86622 5.54,-12.76247 7.875,-19.31122 1.5025,-4.01625 2.9675,-7.99375 4.3925,-12.00875 0.8325,-2.29625 5.3025,-6.015 6.84625,-8.0725 -3.4825,2.41375 -9.26125,4.905 -11.595,8.30875 -3.285,4.70875 -7.2025,9.32 -9.85375,14.345 -2.81,5.2625 -5.61875,10.565 -8.42875,15.82872 -1.22625,2.1563 -2.255,4.4113 -3.4025,6.6075 -1.1075,2.295 -4.235,0.5738 -6.17125,-0.079 4.1925,-6.1325 5.6175,-12.64247 5.6175,-19.94372 0,-7.1225 4.51125,-14.6225 7.95375,-20.5575 -6.49,4.8475 -11.95125,10.7825 -17.64875,16.54125 -1.46375,1.40375 -1.7025,4.8475 -2.255,6.7075 -1.7025,5.5 -3.285,11.03997 -4.9075,16.53997 -0.475,1.405 -1.1075,6.8663 -2.4925,7.6375 -3.285,1.84 -6.41125,5.6975 -9.22,2.5525 -5.22375,-5.8175 -8.785,-11.4762 -13.02,-17.9062 -9.14001,-13.73127 -20.10126,-25.08752 -31.65751,-36.70252 -10.84125,-10.8425 -21.05,-22.3175 -31.53625,-33.49751 -5.30375,-5.6975 -11.51625,-9.75375 -17.92625,-14.28375 -5.22375,-3.78 -10.13,-8.765 -16.69875,-9.87375 -8.03125,-1.325 -14.1275,0.83125 -19.94375,6.6475 -5.54,5.52125 -6.64875,11.18 -6.015,18.79625 1.30625,14.46376 1.06875,31.81626 10.13,44.14251 2.88875,3.9375 5.7775,7.835 8.66625,11.7725 1.78,2.35375 3.60125,6.2125 5.935,8.0325 6.055,4.60997 12.22875,9.02247 17.7675,14.08747 5.8575,5.2238 10.76375,9.3988 14.6025,16.2238 2.255,4.095 2.41375,4.65 1.70125,9.28 -0.63375,3.5212 -1.78125,7.34 -1.46375,11.0012 -4.07625,-6.1137 -7.44,-13.0987 -12.66375,-18.2825 -4.51125,-4.53 -11.2375,-7.7762 -16.54,-11.3562 -5.7375,-3.78 -12.7825,-5.62 -19.1925,-8.2313 -6.37125,-2.5325 -13.69125,-5.62 -19.1525,-9.675 -3.28375,-2.49372 -5.61875,-4.25372 -9.695,-5.26247 -1.85875,-0.475 -7.24125,-3.5825 -8.58625,-4.86875 -2.335,-2.39375 -5.69875,-3.4425 -7.875,-5.6575 -2.4925,-2.45375 -4.90625,-4.8875 -7.4,-7.34 -4.90625,-4.9475 -10.05125,-10.40875 -17.57,-10.40875 -3.48125,0 -7.24125,-0.1975 -9.97125,2.49375 -2.09625,2.11625 -7.08375,5.975 -7.6375,9.08125 -2.80875,14.0075 0.55375,31.02377 5.30375,44.39877 2.96625,8.31 6.41,15.4725 10.605,23.2687 2.9675,5.3613 6.09375,12.5238 10.44625,16.8563 5.61875,5.6187 11.23875,11.2787 17.095,16.66 6.41,5.8762 12.78125,10.0112 20.26,14.5425 12.505,7.7162 21.09125,20.32 28.41125,32.6062 1.2275,1.9788 2.6525,7.9938 4.75125,7.835 -7.56,2.5325 -14.88125,-1.405 -20.26125,-6.7462 3.165,7.4975 6.29,15.0162 9.41625,22.575 2.41375,5.8562 6.57,9.7937 10.845,14.5612 l -2.2575,-2.235 c 1.385,5.085 -10.76375,2.81 -13.49375,2.235 7.95375,7.0838 16.62,13.02 21.5275,22.7738 0.395,0.89 3.6,6.3112 2.9675,6.6675 -2.0975,1.405 -4.35375,3.5412 -6.7275,4.4125 -5.14375,1.9387 -10.28875,3.8187 -15.51125,5.58 2.4925,4.1337 4.985,8.3287 7.4775,12.5037 3.12625,5.2238 2.05875,5.54 -0.75125,11.12 l 0,-1.1287 c -2.5725,3.6225 -5.38125,6.59 -6.33125,10.9225 -1.465,6.6275 -1.1875,7.795 1.86,13.8437 2.13625,-3.475 4.23375,-7.0575 6.6475,-10.4212 3.4425,-4.9075 4.67,-6.47 10.21,-8.7263 2.09625,7.4013 5.6975,15.295 6.805,22.81 1.2275,8.8125 1.06875,16.7875 -0.0787,25.625 4.11625,-2.0125 4.98625,-2.925 7.32,-6.75 0.71375,-1.1625 2.6525,-3.125 2.81,-4.4875 0.15875,-0.7375 -1.42375,-2.8875 -1.1075,-4.55 2.65125,7.8375 1.1075,17.5125 1.1075,25.7 0,8.925 0,17.7875 0,26.7125 0,18.95 -1.1075,37.7875 -1.1075,56.825 l 1.1075,-1.125 c 0,12.5625 1.1475,25.1 1.1475,37.6625 0,6.1375 1.03,12.7625 2.29625,18.7625 1.22625,5.85 1.5425,12.875 4.8275,17.9 4.19375,6.2 7.24125,12.05 10.3675,18.8 2.5725,5.5 6.49125,10.85 12.93875,12.6875 5.93625,1.7375 14.68125,0 20.97375,0 5.46125,0 11.3175,-3.0125 14.9975,-6.75 1.70125,2.45 3.0475,6.075 5.85625,7.3625 2.88875,1.325 7.95376,5 11.15876,5 7.47875,0 15.11625,1.0875 22.12,-1.6 8.27125,-3.1625 14.0475,-5.625 18.2825,-14.125 3.79875,-7.4 0,-14.075 0,-21.6875 0,-15.35 4.66875,-30.25 15.9075,-41.4875 11.08,-11.0875 21.605,-21.7625 31.18375,-34.25 5.69625,-7.6 10.92001,-14.625 17.88371,-21.0125 8.2713,-7.4625 16.6213,-13.925 22.5163,-23.3625 2.2162,-3.5875 5.025,-6.95 8.0337,-9.9625 4.6288,-4.6625 6.5675,-1.0375 6.9638,4.2625 0.7125,9.675 2.1775,18.75 4.5112,28.15 1.5825,-4.95 3.0475,-10.5625 5.3025,-15.1875 1.2663,-2.4 3.2838,-4.3 4.5513,-6.75 1.1475,-2.3625 1.07,-5.05 2.4925,-7.3375 -0.475,3.2 1.86,5.925 2.4925,9 0.6337,3.325 1.3062,7.6875 3.3637,10.4625 2.6513,3.4625 4.4325,6.75 6.45,10.65 1.1088,2.2875 0.079,7.9125 0.079,10.4 2.0188,-4.0125 6.2525,-7.175 7.875,-11.2375 1.6625,-4.1375 1.1875,-10.125 2.335,-14.625 4.9863,8.4 6.7275,16.15 6.7275,25.8625 0,10.0375 -3.9187,17.4375 -9.0625,25.9 2.81,0.5125 5.8575,-1.525 7.9538,-3.125 2.7312,-2.0125 6.41,-3.3 8.745,-5.6125 5.0662,-5.025 7.7962,-10.8875 10.9212,-17.2 2.4938,-4.9125 2.9688,-3.0875 5.9363,0.85 2.1762,2.85 2.8887,5.25 3.7987,8.6625 1.7413,7.2625 0.6338,14.6625 -3.5612,20.9125 10.9212,0.9375 14.6425,-10.3375 14.6425,-19.1125 2.4125,3.1875 1.265,8.2375 2.4125,11.775 1.1875,3.55 -0.1588,7.8375 -0.1588,11.85 6.8075,-6.7375 10.0913,-13.9 10.0913,-23.625 4.4325,5.8 8.3487,13.8125 6.8462,21.4125 -1.7812,8.5125 -8.1912,13.175 -14.72,17.9875 15.5113,-0.3625 25.4038,-13.5 31.5775,-25.9 1.7013,1.2875 1.7013,3.575 2.0963,5.5375 1.03,4.825 2.1775,9.6375 3.2062,14.4625 1.6225,7.225 3.205,14.4625 4.8275,21.65 2.255,-6.675 4.63,-15.2625 11.2375,-18.5625 8.0338,-4.0125 9.8925,12.6625 11.0813,16.9125 4.2737,14.7875 6.1725,30.0375 10.525,44.9 1.0287,3.575 2.0975,7.1375 3.125,10.725 0.7925,2.7625 6.4912,6.5 8.5887,8.5875 5.2225,5.225 11.5538,9.6375 17.2925,14.3375 12.2725,10.075 23.3475,20.725 34.585,31.9625 5.4625,5.5 9.8125,12 14.25,18.3125 3.6,5.1875 3.0375,14.9 3.0375,21.075 0,14.2625 -2.0875,29.3625 -8.5875,42.2625 -13.7625,27.5375 -38.1812,46.7375 -56.3037,71.3125 -4.035,5.45 -11.16,12.05 -13.1775,18.5875 -2.7313,8.9625 -5.54,17.9125 -8.2713,26.9125 -4.1937,13.45 -3.0462,28.275 -5.8562,42.0125 -3.0463,15.2126 -9.18,29.2001 -15.67,43.2501 -6.1725,13.45 -13.9688,27.025 -18.2425,41.1875 -1.1863,4.0625 -2.1763,7.4 -4.3125,10.9625 -1.86,3.15 -1.3063,6 -1.3063,9.65 0,7.55 0.2375,14.2875 1.4638,21.775 2.4137,14.475 -2.5713,28.9875 -14.0875,38.5 -11,9.2 -22.3175,18.75 -27.9363,32.525 -5.62,13.8125 -5.62,28.1125 -5.62,42.775 6.49,-2.175 12.8613,-2.375 19.5875,-1.25 7.3213,1.25 14.1275,1.25 21.6063,1.25 14.1275,0 27.5425,-2.6875 35.1787,-15.475 1.3075,-2.1875 3.5613,-5.4125 3.5613,-8.075 0,-3.5125 -0.435,-6.0875 1.345,-9.1 4.2737,-7.1125 8.5887,-12.5375 14.1275,-18.675 2.2562,-2.575 2.6512,-2.05 3.4825,-6.1125 0.5537,-2.85 -1.6225,-6.4625 -2.4925,-9.125 -2.0975,-6.325 -4.195,-12.675 -6.3725,-19.025 l 1.1487,2.25 c 4.7088,-7.0625 9.8538,-10.6375 16.7775,-15.65 1.345,-1.0125 1.425,-8.45 1.7025,-10.0875 0.6325,-3.7 1.82,-7.8 1.82,-11.5125 0,-7.2 -1.5037,-15.9875 0.1575,-23.0125 1.86,-8.0375 3.8,-15.7125 6.3713,-23.5 9.695,-29.15 28.0937,-54.1 41.7437,-81.4876 7.4,-14.775 18.4875,-27.1 28.775,-39.95 2.2875,-2.9375 10.9125,-15.825 14.9125,-9.775 3.3625,5.075 2.1,16.925 2.575,22.975 1.15,14.9375 0.55,29.675 3.05,44.6126 0.9875,5.8875 0.3125,12.1 0.3125,17.975 0,11.275 0,22.5125 0,33.7875 0,5.875 0.675,11.9 -0.6375,17.65 -1.775,7.8125 -3.8375,15.5375 -5.925,23.2875 -1.7125,6.3375 -2.65,13.5 -5.55,19.4375 -4.5,9.15 -8.9,18.3125 -13.325,27.45 -1.3125,2.575 -2.5,5.15 -3.7625,7.7625 -1.3125,2.65 -4.0375,4.3 -5.0625,7.1375 -2.8875,7.8 -4.8375,16.6 -9.9,23.275 -2.175,2.925 -4.275,5.8875 -6.325,8.8625 -1.9375,2.7375 -6.0625,4.95 -8.5125,7.4375 -2.3375,2.3625 -5.4625,4.65 -7.4,7.3875 -2.3375,3.275 -3.875,7.75 -5.6975,11.35 -2.1762,4.5125 -4.3525,8.7625 -5.9362,13.5375 -0.7513,2.2125 -1.1463,4.425 -1.5425,6.75 -0.5538,3.4625 2.2562,2.6875 5.4612,3.4125 9.3775,2.0875 18.9525,4.3375 28.69,4.3375 20.375,0 40.125,-2.0375 59,-10.1125 l 0,1.1125 c 1.5375,-7.7 4.1875,-14.45 1.7,-21.9625 -2.4125,-7.1875 -2.4125,-14.7 -4.5125,-22.1625 -1.025,-3.575 1.7875,-6.7875 3.4,-10.0125 1.5875,-3.2875 2.7375,-6.525 3.925,-10.025 2.25,-6.95 5.6125,-12.1375 10.6875,-17.55 11.2375,-12.05 22.55,-23.575 34.625,-34.7125 4.4625,-4.1375 14.3625,-5.9375 14.3625,-12.8375 0,-8.55 -0.875,-14.2625 -4.75,-21.925 -3.05,-6.275 -3.45,-12.4 -4.075,-19.2625 -0.8375,-8.45 -2.1,-16.9625 -2.5,-25.4375 -0.7125,-16.575 -0.3875,-33.2875 -0.95,-49.8751 -0.9875,-31.1625 3.05,-62.0125 5.8625,-92.975 1.2625,-13.65 5.1375,-27.1 8.825,-40.2625 2.4875,-8.925 4.9875,-17.8 7.475,-26.6625 1.6625,-5.9 4.55,-14.1125 8.825,-18.45 1.35,-1.325 6.575,-1.2 8.5875,-1.5125 4.1125,-0.675 8.1875,-1.325 12.3125,-1.8875 6.875,-1 14.275,-0.275 21.2875,-0.275 3.0375,0 6.0875,0 9.1375,0 2.175,0 4.4375,0 6.575,0 1.7,0 0.5125,0.95 2.0875,1.3625 7.725,1.925 15.4375,3.875 23.15,5.7 60.15,14.125 123.2625,14.9 183.9251,4.175 30.5874,-5.3875 60.8624,-12.9 89.8749,-23.825 13.0125,-4.85 26.9,-11.075 39.0875,-17.5875 14.2875,-7.6125 28.775,-14.9375 42.425,-23.675 5.225,-3.3875 10.525,-6.7875 15.75,-10.175 1.975,-1.25 4.95,-2.35 6.65,-3.525 2.9625,-2.1 4.5125,-4.55 7.875,-6.1875 11.625,-5.8625 23.775,-2.775 32.6875,6.1875 l 0,-1.1625 c 9.725,12.525 19.425,25.05 29.235,37.5875 3.8375,5.0125 9.0625,8.6625 11.875,14.3625 4.5875,9.1625 9.175,18.325 13.725,27.525 3.25,6.325 8.1125,11.8375 12.3125,17.525 3.5125,4.8375 8.6625,8.2625 12.1875,13.025 9.9625,13.375 20.1,26.4375 28.6125,40.675 2.4875,4.175 4.5875,8.725 6.8,13.025 2.4125,4.7625 6.45,10.1125 7.95,15.2875 2.575,8.8875 1.55,21.2875 0.8375,30.4 -0.9125,11.9625 -2.5,21.6 -9.9,31.5375 -6.4875,8.7375 -14.9125,15.7625 -21.3625,24.7626 l 3.3625,-2.25 -3.3625,3.375 0,-1.125 c -4.3125,3.8625 -8.425,8 -13.4125,10.9625 -5.15,3.0875 -9.0625,5.825 -13.5,9.8 -9.775,8.925 -19.1125,18.55 -30.5125,25.375 l 1.1125,-1.125 c -21.685,15.475 -33.0725,38.8 -39.335,64.1875 l 1.1125,-1.125 -6.725,23.6375 2.25,0 c -2.8875,2.85 -4.6625,5.3875 -8.625,6.3625 -3.9125,1 -7.3625,4.725 -10.4875,7.1375 -5.375,3.975 -8.3,8.8 -10.3625,15.1375 -0.6,1.825 -16.0625,45.975 -13.2625,46.825 15.0875,4.4125 29.4875,9.2875 44.8,4.1375 8.1125,-2.6875 15.825,-5.8125 23.7,-9.0375 4.2,-1.725 14.285,-3.8375 15.3475,-7.3875 1.35,-4.7375 2.7375,-9.475 4,-14.175 0.6375,-2.1625 2.8125,-6.2625 2.1,-8.5875 -1.1875,-3.9375 -2.3375,-7.875 -3.525,-11.8125 -0.9,-2.85 -3.5625,-7.825 -3.125,-10.85 0.2375,-2 -0.15,-8.7375 2.0625,-8.7375 5.225,0 10.3625,0 15.5875,0 3.05,0 3.3625,0.5125 4.9125,-2.025 2.5625,-4.4125 5.1375,-8.7875 7.7875,-13.15 7.6375,-12.9 14.45,-26.2 22.6375,-38.7625 4.0375,-6.1 7.5625,-13 12.4625,-18.475 5.9375,-6.6125 11.8,-13.25 17.725,-19.8375 4.2,-4.7 7.0875,-11.725 10.375,-17.1125 5.4625,-9.025 10.925,-18.0625 16.375,-27.0625 0.875,-1.45 1.625,-3.325 2.8125,-4.5375 4.125,-4.1375 5.3875,-4.4125 11.1625,-5.2626 6.6875,-0.9625 6.925,16.5876 7.4,19.8501 0.95,7.3375 1.4625,14.125 1.4625,21.5625 0,6.4125 0.95,13.6125 -0.35,19.8625 -2.0625,9.5625 -4.0875,19.075 -6.175,28.6375 -1.1875,5.875 -1.6625,12.7375 -4.1625,18.2375 -3.0375,6.75 -8.025,14.2875 -9.65,21.525 -1.8625,8.4 -3.6,16.825 -5.4625,25.2125 -1.5375,7.05 -5.15,13.6125 -6.8125,20.6125 -0.825,3.2125 -1.7,6.8625 -2.25,10.1125 -0.825,4.3 1.5,6.075 -2.65,8 -6.85,3.1625 -12.9375,5.2125 -18,10.6375 -7.0875,7.7 -14.2125,15.4125 -21.375,23.125 -1.425,1.6125 -2.9625,2.575 -3.2,4.7375 -0.1625,2.0125 -2.1,10.525 -0.1625,11.25 8.0375,3.0125 15.825,4.5 24.3375,6.1 15.1125,2.8125 30.825,-0.75 45.55,-3.8625 2.0875,-0.3875 5.925,-0.3875 7.55,-1.9125 2.0625,-2.175 7.675,-5.8625 8.5125,-8.8125 2.3375,-7.8875 3.3625,-15.25 3.3625,-23.475 0,-8.0375 2.25,-14.5875 6.325,-21.2125 3.5625,-5.5875 7.875,-12.725 12.8625,-16.975 6.85,-5.9625 13.7375,-11.9 20.6625,-17.8375 5.6125,-4.9375 12.1875,-8.1125 18.8,-11.8 3.2,-1.8125 4.225,-3.2125 6.4,-6.3625 2.425,-3.275 2.425,-5.4125 3.2125,-9.35 0.55,-2.7375 2.175,-6.2125 0.7875,-8.7875 -2.45,-4.4875 -4.95,-9.0375 -7.4375,-13.575 -6.7625,-12.25 -11.675,-26.675 -12.4625,-40.675 -0.7875,-15.6375 -0.088,-31.325 -2.025,-46.875 -0.8625,-7.0625 -2.4125,-14.0875 -1.6625,-21.2251 0.875,-9.625 1.825,-19.2125 2.8125,-28.85 1.5,-14.6625 3.6875,-29.225 6.1,-43.7625 0.7875,-4.95 1.5375,-9.875 2.325,-14.825 0.7125,-4.1 0.6375,-4.05 -2.175,-7.375 -4.75,-5.7625 -10.2875,-10.8125 -15.275,-16.4125 -21.0875,-23.4 -27.3,-56.05 -18.125,-85.9625 2.5,-7.9125 6.1,-14.0875 10.3,-21.325 0.2375,-0.4 -1.15,-0.95 -0.9125,-1.8 0.3875,-1.2875 0.7875,-2.575 1.15,-3.8625 1.575,-5.15 3.2,-10.325 4.7,-15.4875 4.4375,-14.5875 7.8,-29.0125 11,-43.95 6.5375,-30.225 14.8875,-59.5875 23.475,-89.35 6.7625,-23.6 13.5625,-47.225 20.3375,-70.8375 -2.4125,35.1875 -4.9125,70.325 -7.325,105.5 -0.7125,10.6125 -1.7,21.15 -1.7,31.7625 0,14.7375 0.4,29.275 -1.2625,43.9 -1.7,15.1 -3.3625,30.1875 -5.15,45.2875 -1.15,9.9125 -1.025,17.475 0.075,27.5 1.2,10.725 6.025,20.6625 9.7375,30.775 1.9,5.3 2.5375,10.875 3.45,16.5 1.025,6.15 2.5625,7.9875 6.6375,12.8625 l -1.1,-11.2625 7.875,22.5375 6.725,-14.6625 10.125,23.6625 6.7375,-7.875 c 2.5625,6.9375 5.1375,13.6875 8.1875,20.4 2.725,5.9375 9.8875,10.2875 16.6625,9.9875 l -28.225,-97.9375"
   id="path15"
   inkscape:connector-curvature="0" /></svg>