<?xml version="1.0" encoding="UTF-8" standalone="no"?>
<svg
   xmlns:dc="http://purl.org/dc/elements/1.1/"
   xmlns:cc="http://creativecommons.org/ns#"
   xmlns:rdf="http://www.w3.org/1999/02/22-rdf-syntax-ns#"
   xmlns:svg="http://www.w3.org/2000/svg"
   xmlns="http://www.w3.org/2000/svg"
   xmlns:sodipodi="http://sodipodi.sourceforge.net/DTD/sodipodi-0.dtd"
   xmlns:inkscape="http://www.inkscape.org/namespaces/inkscape"
   width="89.999687"
   height="90.00032"
   viewBox="0 0 253.99915 254.00089"
   version="1.1"
   id="svg2"
   inkscape:version="0.48.2 r9819"
   sodipodi:docname="MUTCD W2-8R.svg">
  <metadata
     id="metadata62">
    <rdf:RDF>
      <cc:Work
         rdf:about="">
        <dc:format>image/svg+xml</dc:format>
        <dc:type
           rdf:resource="http://purl.org/dc/dcmitype/StillImage" />
        <dc:title></dc:title>
      </cc:Work>
    </rdf:RDF>
  </metadata>
  <defs
     id="defs60" />
  <sodipodi:namedview
     pagecolor="#ffffff"
     bordercolor="#666666"
     borderopacity="1"
     objecttolerance="10"
     gridtolerance="10"
     guidetolerance="10"
     inkscape:pageopacity="0"
     inkscape:pageshadow="2"
     inkscape:window-width="1280"
     inkscape:window-height="1004"
     id="namedview58"
     showgrid="false"
     fit-margin-top="0"
     fit-margin-left="0"
     fit-margin-right="0"
     fit-margin-bottom="0"
     inkscape:zoom="5.8194445"
     inkscape:cx="34.289603"
     inkscape:cy="40.963331"
     inkscape:window-x="-8"
     inkscape:window-y="-8"
     inkscape:window-maximized="1"
     inkscape:current-layer="svg2"
     showguides="true"
     inkscape:guide-bbox="true" />
  <!-- draw the bicycle -->
  <!-- RIGHT -->
  <!-- LANE -->
  <!-- ONLY -->
  <path
     inkscape:connector-curvature="0"
     d="M 250.377,118.21849 135.78065,3.6221014 c -4.82952,-4.8295 -12.73175,-4.8295 -17.56128,0 L 3.6195,118.21849 c -4.826,4.82953 -4.826,12.73176 0,17.56128 l 114.59987,114.59635 c 4.82953,4.83306 12.73176,4.83306 17.56128,0 L 250.377,135.77977 c 4.82953,-4.82952 4.82953,-12.73175 0,-17.56128"
     style="fill:#fecf33;fill-opacity:1;fill-rule:nonzero;stroke:none"
     id="path3274" />
  <path
     inkscape:connector-curvature="0"
     d="M 247.04678,119.29342 134.70821,6.9513014 c -4.24392,-4.2368 -11.176,-4.2368 -15.41639,0 L 6.95324,119.29342 c -4.24038,4.24039 -4.24038,11.176 0,15.41286 l 112.33858,112.3421 c 4.24039,4.23686 11.17247,4.23686 15.41639,0 l 112.33857,-112.3421 c 4.23686,-4.23686 4.23686,-11.17247 0,-15.41286"
     style="fill:#000000;fill-opacity:1;fill-rule:evenodd;stroke:none"
     id="path3282" />
  <path
     inkscape:connector-curvature="0"
     d="M 242.65823,122.24758 131.75193,11.341302 c -2.61408,-2.6141006 -6.88975,-2.6141006 -9.50736,0 L 11.3418,122.24758 c -2.61408,2.61409 -2.61408,6.89328 0,9.50737 l 110.90277,110.90629 c 2.61761,2.61056 6.89328,2.61056 9.50736,0 l 110.9063,-110.90629 c 2.61408,-2.61409 2.61408,-6.89328 0,-9.50737"
     style="fill:#fecf33;fill-opacity:1;fill-rule:evenodd;stroke:none"
     id="path3286" />
  <path
     d="m 111.38112,37.242761 31.15734,0 -0.0282,179.493349 -31.15734,0 0.0282,-179.493349 z"
     style="fill:#000000;fill-opacity:1;fill-rule:evenodd;stroke:none"
     id="path3502"
     inkscape:connector-curvature="0" />
  <path
     d="m 68.13832,74.242099 0,31.157341 58.83629,-0.0282 0,-31.157342 -58.83629,0.02822 z"
     style="fill:#000000;fill-opacity:1;fill-rule:evenodd;stroke:none"
     id="path3506"
     inkscape:connector-curvature="0" />
  <path
     d="m 68.13832,179.73677 0,-31.15733 58.83629,0.0282 0,31.15381 -58.83629,-0.0246 z"
     style="fill:#000000;fill-opacity:1;fill-rule:evenodd;stroke:none"
     id="path3510"
     inkscape:connector-curvature="0" />
</svg>
