<?xml version="1.0" encoding="UTF-8" standalone="no"?>
<svg
   xmlns:dc="http://purl.org/dc/elements/1.1/"
   xmlns:cc="http://creativecommons.org/ns#"
   xmlns:rdf="http://www.w3.org/1999/02/22-rdf-syntax-ns#"
   xmlns:svg="http://www.w3.org/2000/svg"
   xmlns="http://www.w3.org/2000/svg"
   xmlns:sodipodi="http://sodipodi.sourceforge.net/DTD/sodipodi-0.dtd"
   xmlns:inkscape="http://www.inkscape.org/namespaces/inkscape"
   width="90"
   height="89.993645"
   viewBox="0 0 254.00006 253.98205"
   version="1.1"
   id="svg2"
   inkscape:version="0.48.2 r9819"
   sodipodi:docname="AJAX1.svg">
  <metadata
     id="metadata62">
    <rdf:RDF>
      <cc:Work
         rdf:about="">
        <dc:format>image/svg+xml</dc:format>
        <dc:type
           rdf:resource="http://purl.org/dc/dcmitype/StillImage" />
        <dc:title></dc:title>
      </cc:Work>
    </rdf:RDF>
  </metadata>
  <defs
     id="defs60" />
  <sodipodi:namedview
     pagecolor="#ffffff"
     bordercolor="#666666"
     borderopacity="1"
     objecttolerance="10"
     gridtolerance="10"
     guidetolerance="10"
     inkscape:pageopacity="0"
     inkscape:pageshadow="2"
     inkscape:window-width="1280"
     inkscape:window-height="1004"
     id="namedview58"
     showgrid="false"
     fit-margin-top="0"
     fit-margin-left="0"
     fit-margin-right="0"
     fit-margin-bottom="0"
     inkscape:zoom="5.6568543"
     inkscape:cx="46.662167"
     inkscape:cy="38.551963"
     inkscape:window-x="-8"
     inkscape:window-y="-8"
     inkscape:window-maximized="1"
     inkscape:current-layer="svg2" />
  <!-- draw the bicycle -->
  <!-- RIGHT -->
  <!-- LANE -->
  <!-- ONLY -->
  <path
     inkscape:connector-curvature="0"
     d="m 135.22681,250.57459 115.34072,-115.3478 c 2.17311,-2.1625 3.43253,-5.1611 3.43253,-8.2338 0,-3.0657 -1.25942,-6.0643 -3.43253,-8.2339 L 135.22681,3.4113932 C 133.05017,1.2417932 130.0692,-0.00710688 126.98239,-6.8745622e-6 123.91675,0.01399312 120.92167,1.2487932 118.74856,3.4113932 L 3.41137,118.75909 C 1.25237,120.91109 0,123.94139 0,126.99299 c 0,3.0515 1.25237,6.0854 3.41137,8.2338 l 115.33719,115.3478 c 2.79752,2.7975 7.00969,3.9899 10.8585,3.1362 2.2225,-0.5045 3.86997,-1.7286 5.61975,-3.1362"
     style="fill:#ffd033;fill-opacity:1;fill-rule:nonzero;stroke:none"
     id="path6190" />
  <path
     inkscape:connector-curvature="0"
     d="M 121.05784,248.26779 5.72065,132.92709 c -1.56633,-1.5734 -2.45886,-3.7218 -2.45886,-5.9338 0,-2.2119 0.89253,-4.3532 2.45886,-5.9266 L 121.05784,5.7047932 c 1.55575,-1.5487 3.73592,-2.4307 5.93019,-2.4307 2.19428,0 4.37092,0.882 5.92667,2.4307 L 248.28012,121.06669 c 1.54869,1.5592 2.43417,3.7288 2.43417,5.9266 0,2.1978 -0.88548,4.3745 -2.43417,5.9338 L 132.9147,248.26779 c -1.56986,1.5628 -3.71475,2.4518 -5.92667,2.4518 -2.21191,0 -4.36033,-0.889 -5.93019,-2.4518"
     style="fill:#000000;fill-opacity:1;fill-rule:evenodd;stroke:none"
     id="path6198" />
  <path
     inkscape:connector-curvature="0"
     d="m 124.28257,245.05039 c 0.70203,0.7091 1.7145,1.1219 2.7058,1.1219 0.98073,0 2.02142,-0.4128 2.71992,-1.1219 l 115.34425,-115.3477 c 0.6985,-0.7021 1.11125,-1.7181 1.11125,-2.7094 0,-0.9772 -0.41275,-2.0179 -1.11125,-2.7199 L 129.70829,8.9291932 c -0.71261,-0.7021 -1.72156,-1.0936 -2.71992,-1.0936 -0.99836,0.01 -1.99319,0.3915 -2.7058,1.0936 L 8.92421,124.27339 c -0.6985,0.702 -1.11478,1.7427 -1.11478,2.7199 0,0.9913 0.41628,2.0073 1.11478,2.7094 l 115.35836,115.3477 z"
     style="fill:#ffd033;fill-opacity:1;fill-rule:evenodd;stroke:none"
     id="path6202" />
  <path
     d="m 114.82602,85.826992 c -0.762,-0.437445 -1.19945,-0.546806 -2.83634,-0.546806 l -5.88786,0 0,7.630585 5.88786,0 c 1.52753,0 2.07434,-0.105833 2.83634,-0.543277 1.19944,-0.65264 1.96144,-1.961445 1.96144,-3.270252 0,-1.308805 -0.762,-2.617611 -1.96144,-3.27025 m 2.18017,25.618728 -5.01651,-13.518447 -5.88786,0 0,13.518447 -4.90361,0 0,-31.069146 10.2482,0 c 2.39889,0 4.03578,0.215194 5.55978,0.980722 2.72697,1.308806 4.68841,4.579057 4.68841,7.739946 0,3.270252 -1.96144,6.540502 -4.79778,7.849308 l 5.45042,14.49917 -5.34105,0 z"
     style="fill:#000000;fill-opacity:1;fill-rule:nonzero;stroke:none"
     id="path7524"
     inkscape:connector-curvature="0" />
  <path
     d="m 176.20231,111.44572 -4.37444,0 -4.92125,-19.949588 -4.81189,19.949588 -4.37445,0 -4.59317,-31.069146 5.03061,0 2.40242,16.351254 3.94053,-16.351254 4.81189,0 4.04636,16.351254 2.40595,-16.351254 5.03061,0 -4.59317,31.069146 z"
     style="fill:#000000;fill-opacity:1;fill-rule:nonzero;stroke:none"
     id="path7528"
     inkscape:connector-curvature="0" />
  <path
     d="m 86.838034,86.588992 c -0.762,-0.762 -1.852084,-1.308806 -3.16089,-1.308806 l -5.563307,0 0,21.152564 4.90714,0 c 1.63689,0 2.617612,-0.32809 3.488974,-1.19945 1.855611,-1.85561 2.836334,-5.235221 2.836334,-9.376833 0,-4.141613 -0.980723,-7.630586 -2.508251,-9.267475 M 88.90884,109.703 c -1.199445,1.09008 -2.832806,1.63689 -4.469696,1.74272 l -1.742722,0 -9.486197,0 0,-31.069146 10.029475,0 c 3.164417,0 4.360334,0.324555 5.997223,1.633361 3.270251,2.836334 5.122335,7.739947 5.122335,13.846532 0,6.215943 -1.961445,11.119553 -5.450418,13.846533"
     style="fill:#000000;fill-opacity:1;fill-rule:nonzero;stroke:none"
     id="path7532"
     inkscape:connector-curvature="0" />
  <path
     d="m 138.10301,88.987881 -3.17853,8.720669 6.2477,0 -3.06917,-8.720669 z m 7.89517,22.457839 -3.06917,-8.72067 -9.76136,0 -3.06917,8.72067 -5.26345,0 10.74562,-31.069146 4.93536,0 10.74561,31.069146 -5.26344,0 z"
     style="fill:#000000;fill-opacity:1;fill-rule:nonzero;stroke:none"
     id="path7536"
     inkscape:connector-curvature="0" />
  <path
     d="m 109.90971,134.75093 4.97064,0 0,31.07267 -4.97064,0 0,-31.07267 z"
     style="fill:#000000;fill-opacity:1;fill-rule:nonzero;stroke:none"
     id="path7538"
     inkscape:connector-curvature="0" />
  <path
     d="m 97.102811,140.20064 c -0.762,-0.43391 -1.199444,-0.54327 -2.836334,-0.54327 l -5.887862,0 0,7.63058 5.887862,0 c 1.527528,0 2.074334,-0.10936 2.836334,-0.54328 1.199445,-0.65616 1.964973,-1.96144 1.964973,-3.27378 0,-1.30527 -0.765528,-2.61408 -1.964973,-3.27025 m 2.180168,25.62226 -5.016502,-13.51845 -5.887862,0 0,13.51845 -4.903612,0 0,-31.07267 10.248196,0 c 2.39889,0 4.032251,0.21872 5.55978,0.98072 2.726971,1.3088 4.688421,4.57905 4.688421,7.73994 0,3.27378 -1.96145,6.54403 -4.797783,7.85284 l 5.453943,14.49917 -5.344581,0 z"
     style="fill:#000000;fill-opacity:1;fill-rule:nonzero;stroke:none"
     id="path7542"
     inkscape:connector-curvature="0" />
  <path
     d="m 135.96694,140.96229 c -0.762,-0.762 -1.85209,-1.30528 -3.16089,-1.30528 l -5.56331,0 0,21.14904 4.90714,0 c 1.63689,0 2.61761,-0.32456 3.48897,-1.19945 1.85562,-1.85208 2.83634,-5.2317 2.83634,-9.37683 0,-4.14162 -0.98072,-7.63059 -2.50825,-9.26748 m 2.0708,23.11401 c -1.19944,1.09008 -2.8328,1.63689 -4.46969,1.74625 l -1.74625,0 -9.4862,0 0,-31.07268 10.033,0 c 3.16089,0 4.36034,0.32809 5.99723,1.63689 3.27025,2.83281 5.12233,7.73995 5.12233,13.84301 0,6.21594 -1.96144,11.12308 -5.45042,13.84653"
     style="fill:#000000;fill-opacity:1;fill-rule:nonzero;stroke:none"
     id="path7546"
     inkscape:connector-curvature="0" />
  <path
     d="m 177.69209,165.82255 0,-31.07268 18.29154,0 0,4.90714 -13.39145,0 0,7.63059 9.03817,0 0,5.0165 -9.03817,0 0,8.50195 14.37217,0 0,5.0165 -19.27226,0 z"
     style="fill:#000000;fill-opacity:1;fill-rule:nonzero;stroke:none"
     id="path7550"
     inkscape:connector-curvature="0" />
  <path
     d="m 70.23278,152.51929 c -0.652639,-0.21519 -0.980722,-0.21519 -2.070806,-0.21519 l -6.215946,0 0,8.50195 7.415391,0 c 2.504723,0 3.817056,-1.19945 3.817056,-3.59834 0,-2.0708 -1.199445,-4.03225 -2.945695,-4.68842 m -1.090084,-12.86228 -7.196668,0 0,7.63059 5.887863,0 c 1.418167,0 2.070806,-0.21872 2.945695,-0.87136 1.086556,-0.87136 1.742722,-2.18017 1.742722,-3.59834 0,-2.0708 -1.199444,-3.16089 -3.379612,-3.16089 m 4.035779,25.40354 c -1.093611,0.43391 -2.945695,0.762 -4.363862,0.762 l -11.775725,0 0,-31.07268 11.775725,0 c 4.90714,0 8.614835,3.37961 8.614835,7.84931 0,3.05506 -1.418167,5.34458 -4.360334,6.97795 3.270251,1.52752 5.122335,4.14514 5.122335,7.52475 0,3.37961 -2.070806,6.75922 -5.012974,7.95867"
     style="fill:#000000;fill-opacity:1;fill-rule:nonzero;stroke:none"
     id="path7554"
     inkscape:connector-curvature="0" />
  <path
     d="m 161.0438,166.3697 c -4.68842,0 -7.41539,-1.74625 -9.26748,-5.67266 -1.3088,-2.72345 -2.0708,-6.5405 -2.0708,-10.35403 0,-5.0165 1.41464,-9.92364 3.48544,-12.64709 1.85562,-2.28953 4.47323,-3.4925 7.9622,-3.4925 4.79778,0 7.63059,1.96497 9.70139,6.87211 l -4.68489,1.85209 c -1.3088,-2.72698 -2.61761,-3.7077 -5.0165,-3.7077 -2.50825,0 -4.14514,1.09008 -5.23522,3.81706 -0.762,1.85208 -1.19945,4.68841 -1.19945,7.30603 0,3.26672 0.54681,6.5405 1.52753,8.50194 0.98072,1.74273 2.39889,2.50825 4.25097,2.50825 3.16442,0 5.45395,-1.96144 5.45395,-4.79778 l 0,-1.3088 -5.67267,0 0,-4.90361 10.57628,0 0,6.21241 c 0,5.66915 -4.14161,9.81428 -9.81075,9.81428"
     style="fill:#000000;fill-opacity:1;fill-rule:nonzero;stroke:none"
     id="path7558"
     inkscape:connector-curvature="0" />
</svg>
