<?xml version="1.0" encoding="UTF-8" standalone="no"?>
<!-- Generator: Adobe Illustrator 12.0.1, SVG Export Plug-In  -->

<svg
   xmlns:dc="http://purl.org/dc/elements/1.1/"
   xmlns:cc="http://creativecommons.org/ns#"
   xmlns:rdf="http://www.w3.org/1999/02/22-rdf-syntax-ns#"
   xmlns:svg="http://www.w3.org/2000/svg"
   xmlns="http://www.w3.org/2000/svg"
   xmlns:sodipodi="http://sodipodi.sourceforge.net/DTD/sodipodi-0.dtd"
   xmlns:inkscape="http://www.inkscape.org/namespaces/inkscape"
   version="1.1"
   width="286.66101"
   height="286.66324"
   viewBox="0 0 286.66101 286.66324"
   enable-background="new 0 0 288 288"
   xml:space="preserve"
   id="svg2"
   inkscape:version="0.48.2 r9819"
   sodipodi:docname="AJAX1.svg"><metadata
   id="metadata20"><rdf:RDF><cc:Work
       rdf:about=""><dc:format>image/svg+xml</dc:format><dc:type
         rdf:resource="http://purl.org/dc/dcmitype/StillImage" /></cc:Work></rdf:RDF></metadata><sodipodi:namedview
   pagecolor="#ffffff"
   bordercolor="#666666"
   borderopacity="1"
   objecttolerance="10"
   gridtolerance="10"
   guidetolerance="10"
   inkscape:pageopacity="0"
   inkscape:pageshadow="2"
   inkscape:window-width="1280"
   inkscape:window-height="1004"
   id="namedview18"
   showgrid="false"
   fit-margin-top="0"
   fit-margin-left="0"
   fit-margin-right="0"
   fit-margin-bottom="0"
   inkscape:zoom="2.3177389"
   inkscape:cx="128.761"
   inkscape:cy="124.94188"
   inkscape:window-x="-8"
   inkscape:window-y="-8"
   inkscape:window-maximized="1"
   inkscape:current-layer="svg2" />
<defs
   id="defs4">
</defs>
<path
   d="M 4.1002489,133.38575 133.37925,4.10475 c 5.471,-5.473 14.42,-5.473 19.895,0 l 129.282,129.281 c 5.473,5.471 5.473,14.423 0,19.889 l -129.282,129.286 c -5.475,5.47 -14.424,5.47 -19.895,0 L 4.1002489,153.27475 c -5.467,-5.465 -5.467,-14.418 0,-19.889 z"
   id="path6"
   style="fill:#ffd033;stroke:none;fill-opacity:1"
   inkscape:connector-curvature="0" />

<path
   clip-rule="evenodd"
   d="M 7.2212489,135.43975 135.44025,7.22075 c 4.339,-4.339 11.443,-4.339 15.786,0 l 128.213,128.219 c 4.343,4.343 4.343,11.438 0,15.777 l -128.214,128.225 c -4.343,4.335 -11.446,4.335 -15.786,0 L 7.2212489,151.21675 c -4.338,-4.339 -4.338,-11.434 0,-15.777"
   id="path10"
   inkscape:connector-curvature="0"
   style="fill-rule:evenodd;fill:#000000;stroke:none" />
<path
   clip-rule="evenodd"
   d="m 11.224249,139.38975 128.162001,-128.16 c 2.162,-2.169 5.723,-2.169 7.889,0 l 128.159,128.16 c 2.165,2.166 2.165,5.716 0,7.883 l -128.159,128.161 c -2.166,2.168 -5.727,2.168 -7.889,0 L 11.224249,147.27275 c -2.1650001,-2.167 -2.1650001,-5.717 0,-7.883"
   id="path12"
   inkscape:connector-curvature="0"
   style="fill:#ffd033;fill-rule:evenodd;stroke:none;stroke-opacity:1;fill-opacity:1" />
<polygon
   points="146.563,194.877 146.429,195.615 146.563,195.683 "
   id="polygon14"
   style="fill:#f26522"
   transform="translate(-0.67475112,-0.66425)" />
<polygon
   points="191.427,133.69 189.808,133.287 188.188,132.885 183.938,131.676 179.688,130.467 175.708,129.392 171.593,128.452 167.814,128.116 163.969,128.048 155.873,128.048 151.826,128.116 147.778,128.452 143.933,129.191 140.086,130.063 136.039,131.071 131.991,132.078 127.538,133.69 126.594,133.757 125.245,133.22 123.896,132.078 122.613,130.399 122.006,129.191 121.534,127.243 121.467,125.228 121.871,121.601 122.276,117.974 122.951,113.944 123.491,109.914 123.761,105.951 123.896,101.922 124.57,98.093 125.11,94.265 124.976,90.234 124.3,86.205 123.558,82.042 122.951,80.093 121.871,78.145 120.792,77.004 119.443,76.13 118.094,75.257 116.609,74.518 114.653,74.183 112.629,74.116 110.403,74.183 108.177,74.518 106.085,75.19 104.129,76.13 102.645,77.071 101.295,78.145 100.621,78.75 100.081,79.354 99.205,81.302 98.731,82.309 98.057,82.981 95.224,84.123 92.39,84.996 88.343,86.205 86.521,86.81 84.699,87.414 83.485,87.75 82.271,88.22 81.259,89.16 80.247,90.234 82.473,90.437 84.699,90.638 86.521,90.772 88.343,91.042 90.366,91.712 92.39,92.653 95.224,93.526 98.057,94.265 100.149,94.265 103.454,93.526 105.073,93.526 106.558,94.265 107.232,95.071 107.637,96.75 107.434,98.16 105.748,102.325 103.859,106.085 102.104,109.914 101.025,112.937 100.081,115.959 99.878,116.966 99.677,117.974 98.259,121.802 96.843,125.63 95.561,129.661 94.414,133.69 93.604,137.72 93.199,141.75 93.132,145.578 93.199,149.407 92.997,153.437 93.065,155.452 93.604,157.399 94.819,159.683 99.271,165.459 99.677,166.063 100.081,166.668 101.767,168.415 103.724,169.892 105.883,171.437 108.177,172.713 109.189,172.847 110.2,173.115 113.236,176.339 116.204,179.563 117.824,181.176 120.725,183.392 123.896,185.205 127.943,187.287 131.991,189.235 140.492,192.861 143.528,194.205 146.429,195.615 146.563,194.877 146.563,195.683 146.429,195.615 145.484,199.914 144.135,204.952 143.528,205.892 142.111,206.898 140.492,207.772 136.241,209.854 131.991,211.332 130.372,211.534 127.673,211.601 126.594,211.668 125.92,211.735 125.92,211.869 126.594,212.07 128.618,212.406 130.372,212.944 131.182,213.549 131.991,214.153 133.475,215.765 135.432,218.52 136.444,219.728 137.659,220.601 138.333,220.735 139.413,220.399 140.492,219.795 144.202,217.108 147.778,214.557 148.79,214.422 149.802,214.153 149.802,213.952 149.127,213.481 148.588,212.944 148.386,211.601 148.452,209.25 148.993,207.369 149.396,206.898 150.746,206.362 153.175,205.758 153.984,205.422 154.255,204.952 153.715,204.348 152.163,203.34 151.488,202.803 151.017,202.131 150.477,200.72 150.206,199.31 150.206,197.697 150.206,196.086 153.04,196.488 155.873,196.892 156.886,196.69 157.897,196.488 158.302,200.52 158.707,204.549 158.909,206.766 159.112,208.915 159.044,209.989 158.505,211.601 157.493,212.944 156.684,213.615 155.873,214.153 153.377,215.563 151.017,216.974 150.746,217.377 151.017,217.78 152.096,218.451 154.321,219.526 155.266,220.063 155.873,220.601 156.076,221.272 156.211,224.698 156.413,226.041 156.684,226.311 157.088,226.242 160.461,223.557 163.969,220.601 167.747,217.78 171.593,214.959 172.605,214.557 174.426,214.085 174.966,213.884 174.831,213.75 173.346,213.75 171.593,213.75 169.771,213.615 167.949,212.944 166.331,211.601 165.453,210.325 164.441,208.311 163.969,206.161 162.755,196.086 162.89,195.615 163.227,195.414 164.239,195.549 166.195,196.22 167.14,196.422 167.949,196.488 169.771,196.153 171.593,195.683 173.145,195.012 174.426,194.07 174.695,193.466 174.561,192.392 174.561,191.921 174.831,191.653 179.688,190.444 186.57,188.832 187.446,188.362 188.188,187.623 189.471,186.279 190.617,184.803 191.696,182.989 192.641,181.176 193.316,179.294 193.653,178.354 194.261,177.548 194.868,177.28 195.475,177.145 197.297,176.406 199.117,175.533 200.602,174.393 201.951,173.115 202.828,172.78 203.569,172.31 204.11,170.564 204.38,168.683 204.784,165.459 204.245,164.652 203.975,164.25 203.975,163.848 204.919,163.108 206.741,162.369 208.428,161.43 210.249,159.683 212.07,157.803 213.689,156.056 215.309,154.243 216.523,151.892 217.332,149.407 217.468,147.794 217.332,146.182 216.995,145.578 216.051,144.839 215.714,144.504 215.714,144.168 216.321,143.496 217.939,142.757 219.289,141.75 220.706,139.668 221.718,137.317 222.19,135.504 222.527,133.69 222.999,132.481 223.067,131.877 222.933,131.272 222.257,130.87 220.841,131.34 219.289,132.078 217.131,132.885 214.903,133.69 213.285,134.16 211.665,134.496 207.618,135.101 203.569,135.303 199.522,135.034 195.475,134.496 193.45,134.094 "
   id="polygon16"
   transform="translate(-0.67475112,-0.66425)"
   style="stroke:none;fill:#000000" />
</svg>