<?xml version="1.0" encoding="UTF-8" standalone="no"?>
<!-- Generator: Adobe Illustrator 12.0.1, SVG Export Plug-In  -->

<svg
   xmlns:dc="http://purl.org/dc/elements/1.1/"
   xmlns:cc="http://creativecommons.org/ns#"
   xmlns:rdf="http://www.w3.org/1999/02/22-rdf-syntax-ns#"
   xmlns:svg="http://www.w3.org/2000/svg"
   xmlns="http://www.w3.org/2000/svg"
   xmlns:sodipodi="http://sodipodi.sourceforge.net/DTD/sodipodi-0.dtd"
   xmlns:inkscape="http://www.inkscape.org/namespaces/inkscape"
   version="1.1"
   width="286.66199"
   height="286.66324"
   viewBox="-1 0 286.66199 286.66324"
   enable-background="new -1 0 289 288"
   xml:space="preserve"
   id="svg2"
   inkscape:version="0.48.2 r9819"
   sodipodi:docname="AJAX1.svg"><metadata
   id="metadata50"><rdf:RDF><cc:Work
       rdf:about=""><dc:format>image/svg+xml</dc:format><dc:type
         rdf:resource="http://purl.org/dc/dcmitype/StillImage" /></cc:Work></rdf:RDF></metadata><sodipodi:namedview
   pagecolor="#ffffff"
   bordercolor="#666666"
   borderopacity="1"
   objecttolerance="10"
   gridtolerance="10"
   guidetolerance="10"
   inkscape:pageopacity="0"
   inkscape:pageshadow="2"
   inkscape:window-width="1280"
   inkscape:window-height="1004"
   id="namedview48"
   showgrid="false"
   fit-margin-top="0"
   fit-margin-left="0"
   fit-margin-right="0"
   fit-margin-bottom="0"
   inkscape:zoom="2.3177389"
   inkscape:cx="33.465692"
   inkscape:cy="137.80932"
   inkscape:window-x="-8"
   inkscape:window-y="-8"
   inkscape:window-maximized="1"
   inkscape:current-layer="svg2" />
<defs
   id="defs4">
</defs>
<path
   d="M 3.09875,133.38675 132.37975,4.1047494 c 5.471,-5.473 14.421,-5.473 19.896,0 l 129.283,129.2820006 c 5.471,5.47 5.471,14.423 0,19.89 l -129.283,129.284 c -5.475,5.47 -14.425,5.47 -19.896,0 l -129.281,-129.285 c -5.465,-5.466 -5.465,-14.419 0,-19.889 z"
   id="path6"
   style="fill:#ffd033;stroke:none;fill-opacity:1"
   inkscape:connector-curvature="0" />

<path
   clip-rule="evenodd"
   d="M 6.22175,135.43975 134.44075,7.2207494 c 4.339,-4.339 11.442,-4.339 15.785,0 l 128.215,128.2190006 c 4.343,4.343 4.343,11.438 0,15.777 l -128.215,128.225 c -4.343,4.335 -11.446,4.335 -15.785,0 l -128.219,-128.225 c -4.338,-4.339 -4.338,-11.434 0,-15.777"
   id="path10"
   inkscape:connector-curvature="0"
   style="fill-rule:evenodd;stroke:none;fill:#000000" />
<path
   clip-rule="evenodd"
   d="m 10.22475,139.38975 128.162,-128.160001 c 2.162,-2.1699996 5.724,-2.1699996 7.889,0 l 128.16,128.160001 c 2.165,2.166 2.165,5.716 0,7.883 l -128.16,128.161 c -2.165,2.167 -5.727,2.167 -7.889,0 l -128.162,-128.161 c -2.165,-2.167 -2.165,-5.717 0,-7.883"
   id="path12"
   style="fill:#ffd033;fill-rule:evenodd;stroke:none;fill-opacity:1"
   inkscape:connector-curvature="0" />
<path
   d="m 72.55375,185.98175 h -3.285 l -7.605,-30.15 h 4.365 l 4.95,19.575 4.995,-19.575 h 4.32 l -7.74,30.15 z"
   id="path14"
   inkscape:connector-curvature="0"
   style="stroke:none;fill:#000000" />
<path
   d="m 85.37875,185.98175 v -30.15 h 14.175 v 4.23 h -9.855 v 7.604 h 6.255 v 4.141 h -6.255 v 9.944 h 11.025 v 4.23 h -15.345 z"
   id="path16"
   inkscape:connector-curvature="0"
   style="stroke:none;fill:#000000" />
<path
   d="m 119.26275,185.98175 v -13.635 h -8.28 v 13.635 h -4.32 v -30.15 h 4.32 v 12.285 h 8.28 v -12.285 h 4.32 v 30.15 h -4.32 z"
   id="path18"
   inkscape:connector-curvature="0"
   style="stroke:none;fill:#000000" />
<path
   d="m 131.00775,185.98175 v -30.15 h 4.23 v 30.15 h -4.23 z"
   id="path20"
   inkscape:connector-curvature="0"
   style="stroke:none;fill:#000000" />
<path
   d="m 154.72275,163.88775 c -0.45,-2.971 -1.62,-4.365 -3.6,-4.365 -3.511,0 -4.771,2.745 -4.771,10.575 0,8.685 1.485,12.194 5.175,12.194 2.521,0 3.195,-2.114 3.195,-4.364 h 4.32 c -0.09,4.995 -3.285,8.595 -7.516,8.595 -6.435,0 -9.314,-5.175 -9.314,-16.29 0,-9.765 3.06,-14.94 9,-14.94 2.43,0 4.545,1.08 5.939,3.061 1.125,1.484 1.575,2.79 1.891,5.535 h -4.319 z"
   id="path22"
   inkscape:connector-curvature="0"
   style="stroke:none;fill:#000000" />
<path
   d="m 165.92775,185.98175 v -30.15 h 4.32 v 26.146 h 11.024 v 4.005 h -15.344 z"
   id="path24"
   inkscape:connector-curvature="0"
   style="stroke:none;fill:#000000" />
<path
   d="m 186.35775,185.98175 v -30.15 h 14.175 v 4.23 h -9.854 v 7.604 h 6.255 v 4.141 h -6.255 v 9.944 h 11.024 v 4.23 h -15.345 z"
   id="path26"
   inkscape:connector-curvature="0"
   style="stroke:none;fill:#000000" />
<path
   d="m 214.61675,186.52275 c -5.31,0 -8.46,-4.455 -8.46,-9.405 h 4.23 c 0,2.521 1.26,5.175 4.229,5.175 2.34,0 4.23,-2.114 4.23,-4.545 0,-1.71 -0.63,-2.97 -2.431,-4.364 -0.63,-0.631 1.08,0.54 -5.085,-3.601 -2.43,-1.665 -3.689,-4.005 -3.689,-6.66 0,-4.319 3.375,-7.83 7.695,-7.83 4.274,0 7.515,3.285 7.649,7.83 h -4.14 c -0.09,-2.114 -1.575,-3.465 -3.51,-3.465 -1.98,0 -3.556,1.485 -3.556,3.465 0,1.485 0.63,2.34 2.835,3.601 5.806,3.375 8.37,6.66 8.37,11.024 0.004,4.859 -3.731,8.775 -8.367,8.775 z"
   id="path28"
   inkscape:connector-curvature="0"
   style="stroke:none;fill:#000000" />
<path
   d="m 49.42275,137.23775 v -30.15 h 14.175 v 4.23 h -9.854 v 7.605 h 6.255 v 4.14 h -6.255 v 9.945 h 11.024 v 4.23 h -15.345 z"
   id="path30"
   inkscape:connector-curvature="0"
   style="stroke:none;fill:#000000" />
<path
   d="m 84.25275,137.23775 v -16.92 l -5.58,16.92 -5.625,-16.92 v 16.92 h -4.319 v -30.15 h 4.319 l 5.625,16.92 5.58,-16.92 h 4.365 v 30.15 h -4.365 z"
   id="path32"
   inkscape:connector-curvature="0"
   style="stroke:none;fill:#000000" />
<path
   d="m 94.06375,137.23775 v -30.15 h 14.175 v 4.23 h -9.855 v 7.605 h 6.255 v 4.14 h -6.255 v 9.945 h 11.025 v 4.23 h -15.345 z"
   id="path34"
   inkscape:connector-curvature="0"
   style="stroke:none;fill:#000000" />
<path
   d="m 125.83275,137.23775 -4.005,-14.175 h -4.141 v 14.175 h -4.319 v -30.15 h 9 c 4.725,0 7.92,3.195 7.92,8.055 0,3.6 -1.485,6.21 -4.32,7.29 l 4.32,14.805 h -4.455 z m -3.69,-25.92 h -4.455 v 7.605 h 4.455 c 2.521,0 3.915,-1.35 3.915,-3.78 0,-2.34 -1.575,-3.825 -3.915,-3.825 z"
   id="path36"
   inkscape:connector-curvature="0"
   style="stroke:none;fill:#000000" />
<path
   d="m 149.68375,133.54775 c -1.17,2.61 -3.601,4.23 -6.66,4.23 -3.601,0 -6.255,-1.8 -7.74,-5.175 -0.945,-2.25 -1.575,-6.48 -1.575,-10.395 0,-4.23 0.315,-7.29 1.396,-10.17 1.034,-3.15 4.095,-5.49 7.604,-5.49 4.32,0 7.605,3.195 7.83,7.65 h -4.319 c -0.136,-2.025 -1.485,-3.42 -3.601,-3.42 -1.485,0 -2.655,0.765 -3.42,2.25 -0.811,1.485 -1.35,4.86 -1.35,8.46 0,2.52 0.225,5.175 0.63,7.515 0.63,2.925 2.114,4.545 4.455,4.545 2.205,0 3.285,-1.485 3.285,-4.68 v -1.98 h -3.42 v -4.23 h 7.739 v 6.21 c 0,2.115 -0.224,3.42 -0.854,4.68 z"
   id="path38"
   inkscape:connector-curvature="0"
   style="stroke:none;fill:#000000" />
<path
   d="m 155.44375,137.23775 v -30.15 h 14.175 v 4.23 h -9.854 v 7.605 h 6.255 v 4.14 h -6.255 v 9.945 h 11.024 v 4.23 h -15.345 z"
   id="path40"
   inkscape:connector-curvature="0"
   style="stroke:none;fill:#000000" />
<path
   d="m 188.38275,137.23775 -9.314,-20.205 v 20.205 h -4.32 v -30.15 h 4.32 l 8.279,18.09 v -18.09 h 4.32 v 30.15 h -3.285 z"
   id="path42"
   inkscape:connector-curvature="0"
   style="stroke:none;fill:#000000" />
<path
   d="m 209.08175,115.14275 c -0.45,-2.97 -1.62,-4.365 -3.6,-4.365 -3.511,0 -4.771,2.745 -4.771,10.575 0,8.685 1.485,12.195 5.175,12.195 2.521,0 3.195,-2.115 3.195,-4.365 h 4.32 c -0.09,4.995 -3.285,8.595 -7.516,8.595 -6.435,0 -9.314,-5.175 -9.314,-16.29 0,-9.765 3.06,-14.94 9,-14.94 2.43,0 4.545,1.08 5.939,3.06 1.125,1.485 1.575,2.79 1.891,5.535 h -4.319 z"
   id="path44"
   inkscape:connector-curvature="0"
   style="stroke:none;fill:#000000" />
<path
   d="m 227.71275,123.60275 v 13.635 h -4.32 v -13.635 l -7.425,-16.515 h 4.545 l 5.085,10.89 4.995,-10.89 h 4.635 l -7.515,16.515 z"
   id="path46"
   inkscape:connector-curvature="0"
   style="stroke:none;fill:#000000" />
</svg>