<?xml version="1.0" encoding="UTF-8" standalone="no"?>
<svg
   xmlns:dc="http://purl.org/dc/elements/1.1/"
   xmlns:cc="http://creativecommons.org/ns#"
   xmlns:rdf="http://www.w3.org/1999/02/22-rdf-syntax-ns#"
   xmlns:svg="http://www.w3.org/2000/svg"
   xmlns="http://www.w3.org/2000/svg"
   xmlns:sodipodi="http://sodipodi.sourceforge.net/DTD/sodipodi-0.dtd"
   xmlns:inkscape="http://www.inkscape.org/namespaces/inkscape"
   width="89.999062"
   height="90.00563"
   viewBox="0 0 253.99739 254.01588"
   version="1.1"
   id="svg2"
   inkscape:version="0.48.2 r9819"
   sodipodi:docname="MUTCD W11-6.svg">
  <metadata
     id="metadata62">
    <rdf:RDF>
      <cc:Work
         rdf:about="">
        <dc:format>image/svg+xml</dc:format>
        <dc:type
           rdf:resource="http://purl.org/dc/dcmitype/StillImage" />
        <dc:title></dc:title>
      </cc:Work>
    </rdf:RDF>
  </metadata>
  <defs
     id="defs60" />
  <sodipodi:namedview
     pagecolor="#ffffff"
     bordercolor="#666666"
     borderopacity="1"
     objecttolerance="10"
     gridtolerance="10"
     guidetolerance="10"
     inkscape:pageopacity="0"
     inkscape:pageshadow="2"
     inkscape:window-width="1280"
     inkscape:window-height="1004"
     id="namedview58"
     showgrid="false"
     fit-margin-top="0"
     fit-margin-left="0"
     fit-margin-right="0"
     fit-margin-bottom="0"
     inkscape:zoom="5.8194445"
     inkscape:cx="37.23858"
     inkscape:cy="61.338885"
     inkscape:window-x="-8"
     inkscape:window-y="-8"
     inkscape:window-maximized="1"
     inkscape:current-layer="svg2"
     showguides="true"
     inkscape:guide-bbox="true" />
  <!-- draw the bicycle -->
  <!-- RIGHT -->
  <!-- LANE -->
  <!-- ONLY -->
  <path
     inkscape:connector-curvature="0"
     d="M 3.63273,118.20263 118.18675,3.6379998 c 4.84716,-4.8507 12.77761,-4.8507 17.62478,0 L 250.36201,118.20263 c 4.84717,4.84364 4.84717,12.77408 0,17.62478 L 135.81153,250.37789 c -4.84717,4.8507 -12.77762,4.8507 -17.62478,0 L 3.63273,135.82741 c -4.84364,-4.8507 -4.84364,-12.78114 0,-17.62478"
     style="fill:#fecf33;fill-opacity:1;fill-rule:nonzero;stroke:none"
     id="path5867" />
  <path
     inkscape:connector-curvature="0"
     d="M 6.39569,120.02158 120.00778,6.4023998 c 3.84528,-3.8453 10.13531,-3.8453 13.98412,0 L 247.60047,120.02158 c 3.84528,3.84528 3.84528,10.13531 0,13.98058 L 133.9919,247.61426 c -3.84881,3.84528 -10.13884,3.84528 -13.98412,0 L 6.39569,134.00216 c -3.84528,-3.84527 -3.84528,-10.1353 0,-13.98058"
     style="fill:#000000;fill-opacity:1;fill-rule:evenodd;stroke:none"
     id="path5891" />
  <path
     inkscape:connector-curvature="0"
     d="M 9.94746,123.52184 123.50311,9.9520998 c 1.91911,-1.9227 5.06942,-1.9227 6.98853,0 L 244.04729,123.52184 c 1.92264,1.92264 1.92264,5.06589 0,6.985 L 130.49164,244.06602 c -1.91911,1.92264 -5.06942,1.92264 -6.98853,0 L 9.94746,130.50684 c -1.92264,-1.91911 -1.92264,-5.06236 0,-6.985"
     style="fill:#fecf33;fill-opacity:1;fill-rule:evenodd;stroke:none"
     id="path5895" />
  <path
     d="m 123.59837,43.649895 c 3.8488,0 6.985,3.136195 6.985,6.977945 0,3.845278 -3.1362,6.981473 -6.985,6.981473 -3.83823,0 -6.98148,-3.136195 -6.98148,-6.981473 0,-3.84175 3.14325,-6.977945 6.98148,-6.977945"
     style="fill:#000000;fill-opacity:1;fill-rule:evenodd;stroke:none"
     id="path5851"
     inkscape:connector-curvature="0" />
  <path
     d="m 103.69782,87.729837 c 5.09764,-3.922889 10.19175,-7.845779 15.28233,-11.76514 0.52211,-0.356306 0.84667,-1.001889 0.97014,-1.943806 1.016,-5.132918 2.02847,-10.265835 3.03389,-15.40228 2.49414,-0.04586 4.85775,-1.023056 7.15786,-2.423584 7.35895,9.359196 8.07509,22.203837 7.64117,35.658783 7.31661,4.656668 16.26306,3.252612 24.99079,2.670528 17.31433,0.469195 25.24478,7.828142 23.77017,22.076842 -0.30339,7.45419 1.11125,14.12522 4.24744,20.01308 -4.19805,-0.0246 -8.19503,-1.91205 -11.76161,-7.88458 -0.36689,0.56444 -0.73025,1.12889 -1.09714,1.70039 2.032,4.55789 4.49792,8.04333 7.15786,11.03489 0.40922,1.05127 0.80786,2.10255 1.21356,3.15383 0.0811,8.5972 1.65453,16.25953 4.24391,23.29039 1.05481,0.60325 2.10256,1.21003 3.15737,1.82034 -0.40923,2.38478 -0.80786,4.77308 -1.21356,7.15786 -1.98614,-1.40053 -3.96169,-2.84692 -5.94783,-4.61081 -0.39864,-0.36689 -0.80434,-0.72672 -1.21003,-1.09361 -0.38806,-1.61572 -1.36525,-3.23497 -2.30364,-4.85069 -0.52917,-0.63148 -0.99131,-1.30881 -0.97014,-2.30364 -0.60678,-3.39725 -1.21356,-6.7945 -1.82033,-10.19175 -0.81139,-2.38125 -1.37584,-5.01298 -3.15384,-6.42762 -4.97416,-4.6108 -9.95186,-9.21808 -14.91897,-13.82889 -1.64042,1.87325 -2.85045,5.04473 -3.76061,9.09814 -0.0423,1.09361 -0.0847,2.1837 -0.12348,3.27731 0.06,1.70039 -0.24341,3.32669 -1.09008,4.85069 -0.52211,0.60678 -1.0548,1.21356 -1.57692,1.82034 -3.24555,4.78719 -6.223,9.75783 -7.27781,16.01258 -0.0318,0.5962 -0.15169,0.91723 -0.36336,0.96662 -0.80786,0.48683 -1.61925,0.97013 -2.42711,1.45697 -0.62442,0.90311 -1.13594,1.82739 -0.84667,2.91041 -3.28083,-0.0388 -6.55108,-0.0811 -9.82486,-0.11994 -0.35983,-0.39511 -0.91017,-0.74436 -0.49036,-1.33703 1.08303,-2.032 3.39725,-3.75708 5.34106,-5.57742 2.12725,-2.36713 3.38314,-4.85422 4.24391,-7.40127 4.39562,-10.20234 5.0659,-20.05895 3.63714,-29.71448 -6.39939,3.52778 -17.22967,4.67078 -30.08136,4.73075 0.93133,3.43253 1.43933,6.87211 1.82033,10.30817 0.38453,1.45344 0.94897,2.91394 1.70039,4.36739 1.79917,4.13455 4.25803,7.81403 7.88106,10.67505 0.32455,0.40217 0.64911,0.80787 0.97366,1.21356 0.32456,0.64558 0.64559,1.29117 0.97014,1.94028 0.36689,0.40217 0.7232,0.80786 1.09009,1.21003 0.84666,0.85372 1.70039,1.70039 2.54705,2.55058 0.22225,0.4445 0.26459,0.889 0.11995,1.3335 -2.18017,1.82033 -4.36387,3.63714 -6.54756,5.45747 -0.42686,0.29281 -0.66675,0.13053 -0.73025,-0.48683 -0.28222,-2.01789 -0.56444,-4.03931 -0.84667,-6.06425 -0.19402,-0.49389 -0.47625,-0.89958 -0.84666,-1.21003 -0.97367,-0.44803 -1.76389,-1.06892 -2.18723,-2.06375 -9.00289,-8.79828 -14.64028,-18.55611 -19.64972,-28.62792 -7.570614,7.78581 -6.159503,8.05745 -6.551086,9.82486 -0.179917,1.03364 -0.546806,1.88384 -1.090084,2.54706 -5.842001,6.42408 -8.473723,13.10922 -9.948335,19.89667 -0.144639,0.73025 -0.338667,1.38994 -0.846667,1.57339 -2.363611,1.14653 -3.764139,2.73755 -3.764139,4.97416 -0.363361,0.28223 -0.723195,0.56445 -1.086556,0.8502 l -8.498417,0 c -0.529167,-0.17639 -0.906639,-0.35278 -0.723194,-1.09361 2.275417,-3.14678 5.817305,-5.79967 7.531805,-9.34861 2.536473,-5.25287 4.829529,-10.80206 7.567085,-16.62642 0.303389,-0.64559 0.448028,-1.35467 0.66675,-2.04259 0.772583,-5.17525 1.538111,-10.3505 2.307167,-15.52928 -0.05997,-1.12889 -0.176389,-2.2613 -0.60325,-3.39725 -0.889,-2.98803 -1.778,-5.97958 -2.667,-8.97467 -0.585612,-0.97014 -1.358195,-1.93675 -2.310695,-2.91041 -1.337028,-1.3335 -2.667001,-2.67053 -4.000501,-4.00403 -5.658555,3.39725 -11.32064,6.7945 -16.986252,10.19175 -0.910166,0.48683 -1.922639,0.48331 -3.030361,0 -1.277056,-0.75142 -2.50825,-1.57692 -3.397251,-2.91042 -0.440972,0.0776 -0.889,0.16228 -1.329972,0.23989 -1.964972,-1.04069 -3.887612,-2.18017 -5.457473,-4.0005 -0.5715,-0.73378 -1.019528,-1.49578 -0.606778,-2.42711 1.957917,-7.28134 5.725584,-15.963198 9.461502,-24.620366 -0.564445,-1.61925 -1.135945,-3.242028 -1.703917,-4.854223 0.08467,-0.567972 0.165805,-1.135945 0.243416,-1.700389 0.645584,0.405694 1.294695,0.811389 1.943806,1.213556 0.321028,-0.324556 0.645583,-0.649112 0.970139,-0.973667 1.686278,1.337028 2.846917,2.670528 3.760612,4.004028 11.557001,1.485195 23.516169,4.169834 35.665838,7.401279 1.210028,-1.093611 2.423588,-2.183695 3.637138,-3.273778 1.21356,0.889 2.42359,1.778 3.63714,2.667 -0.52211,0.564445 -1.0548,1.132417 -1.57692,1.696862 1.37231,0.486833 2.74814,0.973666 4.12045,1.4605 2.18369,-1.337028 4.36739,-2.670528 6.55108,-4.004029 0.64206,-0.299861 1.13242,-1.068916 1.45345,-2.307167 0.20814,-1.17475 0.40922,-2.345972 0.60678,-3.517195 -3.14678,1.940278 -6.30414,3.880557 -9.45798,5.824362 -1.53811,-1.093611 -3.07269,-2.183694 -4.6108,-3.277306"
     style="fill:#000000;fill-opacity:1;fill-rule:evenodd;stroke:none"
     id="path5855"
     inkscape:connector-curvature="0" />
</svg>
