<?xml version="1.0" encoding="UTF-8" standalone="no"?>
<!-- Generator: Adobe Illustrator 12.0.1, SVG Export Plug-In  -->

<svg
   xmlns:dc="http://purl.org/dc/elements/1.1/"
   xmlns:cc="http://creativecommons.org/ns#"
   xmlns:rdf="http://www.w3.org/1999/02/22-rdf-syntax-ns#"
   xmlns:svg="http://www.w3.org/2000/svg"
   xmlns="http://www.w3.org/2000/svg"
   xmlns:sodipodi="http://sodipodi.sourceforge.net/DTD/sodipodi-0.dtd"
   xmlns:inkscape="http://www.inkscape.org/namespaces/inkscape"
   version="1.1"
   width="286.66199"
   height="286.66324"
   viewBox="-1 0 286.66199 286.66324"
   enable-background="new -1 0 289 288"
   xml:space="preserve"
   id="svg2"
   inkscape:version="0.48.2 r9819"
   sodipodi:docname="AJAX1.svg"><metadata
   id="metadata38"><rdf:RDF><cc:Work
       rdf:about=""><dc:format>image/svg+xml</dc:format><dc:type
         rdf:resource="http://purl.org/dc/dcmitype/StillImage" /></cc:Work></rdf:RDF></metadata><sodipodi:namedview
   pagecolor="#ffffff"
   bordercolor="#666666"
   borderopacity="1"
   objecttolerance="10"
   gridtolerance="10"
   guidetolerance="10"
   inkscape:pageopacity="0"
   inkscape:pageshadow="2"
   inkscape:window-width="452"
   inkscape:window-height="455"
   id="namedview36"
   showgrid="false"
   fit-margin-top="0"
   fit-margin-left="0"
   fit-margin-right="0"
   fit-margin-bottom="0"
   inkscape:zoom="2.3177389"
   inkscape:cx="121.68227"
   inkscape:cy="108.85757"
   inkscape:window-x="23"
   inkscape:window-y="23"
   inkscape:window-maximized="0"
   inkscape:current-layer="svg2" />
<defs
   id="defs4">
</defs>
<path
   d="M 3.09875,133.38675 132.37975,4.1047494 c 5.471,-5.473 14.421,-5.473 19.896,0 l 129.283,129.2820006 c 5.471,5.47 5.471,14.423 0,19.89 l -129.284,129.284 c -5.475,5.47 -14.425,5.47 -19.896,0 l -129.28,-129.285 c -5.465,-5.466 -5.465,-14.419 0,-19.889 z"
   id="path6"
   style="fill:#ffd033;stroke:none;fill-opacity:1"
   inkscape:connector-curvature="0" />

<path
   clip-rule="evenodd"
   d="M 6.22175,135.43975 134.43975,7.2207494 c 4.339,-4.339 11.442,-4.339 15.785,0 l 128.215,128.2190006 c 4.343,4.343 4.343,11.438 0,15.777 l -128.215,128.225 c -4.343,4.335 -11.446,4.335 -15.785,0 l -128.218,-128.225 c -4.338,-4.339 -4.338,-11.434 0,-15.777"
   id="path10"
   inkscape:connector-curvature="0"
   style="fill-rule:evenodd;fill:#000000;stroke:none" />
<path
   clip-rule="evenodd"
   d="m 10.22475,139.38975 128.161,-128.160001 c 2.162,-2.1699996 5.724,-2.1699996 7.889,0 l 128.16,128.160001 c 2.165,2.166 2.165,5.716 0,7.883 l -128.16,128.161 c -2.165,2.167 -5.727,2.167 -7.889,0 l -128.161,-128.161 c -2.166,-2.167 -2.166,-5.717 0,-7.883"
   id="path12"
   inkscape:connector-curvature="0"
   style="fill:#ffd033;fill-rule:evenodd;stroke:none;fill-opacity:1" />
<path
   d="m 53.16575,108.12175 v 8.949 h 10.64 v 5.893 h -10.64 v 15.933 h -5.784 v -36.559 h 22.699 v 5.784 h -16.915 z"
   id="path14"
   inkscape:connector-curvature="0"
   style="stroke:none;fill:#000000" />
<path
   d="m 97.03575,138.89675 -3.601,-10.258 h -11.404 l -3.601,10.258 h -6.166 l 12.604,-36.559 h 5.729 l 12.604,36.559 h -6.165 z m -9.222,-26.41 -3.765,10.258 h 7.312 l -3.547,-10.258 z"
   id="path16"
   inkscape:connector-curvature="0"
   style="stroke:none;fill:#000000" />
<path
   d="m 108.71275,138.89675 v -36.559 h 5.784 v 31.157 h 16.915 v 5.402 h -22.699 z"
   id="path18"
   inkscape:connector-curvature="0"
   style="stroke:none;fill:#000000" />
<path
   d="m 136.81375,138.89675 v -36.559 h 5.784 v 31.157 h 16.915 v 5.402 h -22.699 z"
   id="path20"
   inkscape:connector-curvature="0"
   style="stroke:none;fill:#000000" />
<path
   d="m 164.91475,138.89675 v -36.559 h 5.893 v 36.559 h -5.893 z"
   id="path22"
   inkscape:connector-curvature="0"
   style="stroke:none;fill:#000000" />
<path
   d="m 199.29075,138.89675 -13.969,-24.772 v 24.772 h -5.784 v -36.559 h 5.784 l 13.313,23.354 v -23.354 h 5.784 v 36.559 h -5.128 z"
   id="path24"
   inkscape:connector-curvature="0"
   style="stroke:none;fill:#000000" />
<path
   d="m 225.69975,139.55075 c -5.511,0 -8.73,-2.073 -10.913,-6.656 -1.527,-3.22 -2.4,-7.749 -2.4,-12.223 0,-5.894 1.637,-11.677 4.092,-14.896 2.183,-2.674 5.238,-4.093 9.386,-4.093 5.62,0 8.948,2.347 11.404,8.076 l -5.512,2.183 c -1.527,-3.165 -3.109,-4.365 -5.893,-4.365 -2.946,0 -4.911,1.31 -6.166,4.529 -0.928,2.183 -1.419,5.511 -1.419,8.567 0,3.874 0.655,7.693 1.801,10.04 1.146,2.019 2.838,2.946 5.021,2.946 3.71,0 6.384,-2.346 6.384,-5.675 v -1.528 h -6.657 v -5.784 h 12.441 v 7.312 c -0.001,6.657 -4.857,11.567 -11.569,11.567 z"
   id="path26"
   inkscape:connector-curvature="0"
   style="stroke:none;fill:#000000" />
<path
   d="m 101.90275,198.20275 -5.893,-15.934 h -6.93 v 15.934 h -5.784 v -36.559 h 12.059 c 2.837,0 4.747,0.272 6.548,1.146 3.219,1.528 5.511,5.402 5.511,9.112 0,3.874 -2.292,7.694 -5.675,9.222 l 6.438,17.079 h -6.274 z m -2.565,-30.12 c -0.982,-0.546 -1.418,-0.655 -3.328,-0.655 h -6.93 v 8.949 h 6.93 c 1.801,0 2.401,-0.109 3.328,-0.601 1.419,-0.818 2.292,-2.346 2.292,-3.874 0,-1.527 -0.873,-3.055 -2.292,-3.819 z"
   id="path28"
   inkscape:connector-curvature="0"
   style="stroke:none;fill:#000000" />
<path
   d="m 135.51375,194.76575 c -2.073,2.783 -5.02,4.092 -8.839,4.092 -5.129,0 -8.349,-2.073 -10.531,-6.547 -1.528,-3.11 -2.564,-7.967 -2.564,-12.332 0,-6.002 1.527,-11.404 3.983,-14.896 2.183,-2.783 5.129,-4.093 9.331,-4.093 4.639,0 7.857,2.073 10.149,6.548 1.528,3.22 2.455,7.857 2.455,12.441 -0.001,5.783 -1.419,11.567 -3.984,14.787 z m -3.982,-25.046 c -1.146,-1.909 -2.564,-2.674 -4.748,-2.837 -0.108,0 -0.218,0 -0.327,0 -2.619,0 -4.365,1.418 -5.565,4.528 -0.928,2.183 -1.419,5.512 -1.419,8.567 0,3.874 0.764,7.857 2.183,10.148 1.146,1.91 2.674,2.838 5.021,2.838 2.674,0 4.365,-1.419 5.62,-4.638 0.764,-1.91 1.419,-5.512 1.419,-8.349 -0.002,-4.091 -0.766,-7.801 -2.184,-10.257 z"
   id="path30"
   inkscape:connector-curvature="0"
   style="stroke:none;fill:#000000" />
<path
   d="m 160.66975,198.85675 c -5.402,0 -8.84,-2.073 -11.186,-6.547 -1.638,-3.22 -2.674,-7.857 -2.674,-12.441 0,-5.784 1.527,-11.568 4.092,-14.787 2.183,-2.674 5.238,-4.093 9.386,-4.093 5.511,0 8.948,2.347 11.404,7.476 l -5.402,2.292 c -2.019,-3.11 -3.219,-3.874 -6.002,-3.874 -2.946,0 -4.911,1.31 -6.166,4.528 -0.928,2.183 -1.419,5.348 -1.419,8.458 0,3.983 0.873,7.967 2.292,10.258 1.31,1.91 2.946,2.838 5.511,2.838 2.456,0 4.257,-1.31 5.675,-4.256 l 5.512,2.073 c -2.183,5.348 -5.785,8.075 -11.023,8.075 z"
   id="path32"
   inkscape:connector-curvature="0"
   style="stroke:none;fill:#000000" />
<path
   d="m 198.53775,198.20275 -9.276,-17.297 -3.819,4.747 v 12.55 h -5.784 v -36.559 h 5.784 v 14.514 l 11.513,-14.514 h 7.476 l -11.295,14.241 12.059,22.317 h -6.658 z"
   id="path34"
   inkscape:connector-curvature="0"
   style="stroke:none;fill:#000000" />
</svg>