<?xml version="1.0" encoding="UTF-8" standalone="no"?>
<!-- Created with Inkscape (http://www.inkscape.org/) -->

<svg
   xmlns:dc="http://purl.org/dc/elements/1.1/"
   xmlns:cc="http://creativecommons.org/ns#"
   xmlns:rdf="http://www.w3.org/1999/02/22-rdf-syntax-ns#"
   xmlns:svg="http://www.w3.org/2000/svg"
   xmlns="http://www.w3.org/2000/svg"
   xmlns:sodipodi="http://sodipodi.sourceforge.net/DTD/sodipodi-0.dtd"
   xmlns:inkscape="http://www.inkscape.org/namespaces/inkscape"
   width="49.251999in"
   height="49.251999in"
   viewBox="0 0 1251.0008 1251.0008"
   version="1.1"
   id="svg7045"
   inkscape:version="0.92.2 (5c3e80d, 2017-08-06)"
   sodipodi:docname="88.svg">
  <defs
     id="defs7039" />
  <sodipodi:namedview
     id="base"
     pagecolor="#ffffff"
     bordercolor="#666666"
     borderopacity="1.0"
     inkscape:pageopacity="0.0"
     inkscape:pageshadow="2"
     inkscape:zoom="0.14829203"
     inkscape:cx="1826.9701"
     inkscape:cy="2439.1063"
     inkscape:document-units="in"
     inkscape:current-layer="layer1"
     showgrid="false"
     units="in"
     fit-margin-top="0"
     fit-margin-left="0"
     fit-margin-right="0"
     fit-margin-bottom="0"
     inkscape:window-width="1920"
     inkscape:window-height="1057"
     inkscape:window-x="-8"
     inkscape:window-y="-8"
     inkscape:window-maximized="1" />
  <metadata
     id="metadata7042">
    <rdf:RDF>
      <cc:Work
         rdf:about="">
        <dc:format>image/svg+xml</dc:format>
        <dc:type
           rdf:resource="http://purl.org/dc/dcmitype/StillImage" />
        <dc:title></dc:title>
      </cc:Work>
    </rdf:RDF>
  </metadata>
  <g
     inkscape:label="Layer 1"
     inkscape:groupmode="layer"
     id="layer1"
     transform="translate(-7.6875851e-7,954.00082)">
    <rect
       style="opacity:1;fill:#ffd400;fill-opacity:1;stroke:none;stroke-width:36.29109955;stroke-linejoin:round;stroke-miterlimit:4;stroke-dasharray:none;stroke-opacity:1"
       id="rect2313"
       width="914.40002"
       height="914.40002"
       x="-667.21075"
       y="-1131.7772"
       rx="57.150002"
       ry="57.150002"
       transform="matrix(-0.70710678,-0.70710678,-0.70710678,0.70710678,0,0)" />
    <rect
       ry="41.274998"
       rx="41.274998"
       y="-1115.9021"
       x="-651.33569"
       height="882.64996"
       width="882.64996"
       id="rect2315"
       style="opacity:1;fill:#000000;fill-opacity:1;stroke:none;stroke-width:35.0309906;stroke-linejoin:round;stroke-miterlimit:4;stroke-dasharray:none;stroke-opacity:1"
       transform="matrix(-0.70710678,-0.70710678,-0.70710678,0.70710678,0,0)" />
    <rect
       ry="19.049999"
       rx="19.049999"
       y="-1093.6772"
       x="-629.11066"
       height="838.20001"
       width="838.20001"
       id="rect2317"
       style="opacity:1;fill:#ffd400;fill-opacity:1;stroke:none;stroke-width:33.26684189;stroke-linejoin:round;stroke-miterlimit:4;stroke-dasharray:none;stroke-opacity:1"
       transform="matrix(-0.70710678,-0.70710678,-0.70710678,0.70710678,0,0)" />
    <g
       style="fill:#000000;stroke:none"
       transform="matrix(-20.088704,0,0,-20.088704,-241.45521,1021.8072)"
       id="g4967">
      <path
         sodipodi:nodetypes="ccccccccccccccccc"
         inkscape:connector-curvature="0"
         id="path4965"
         style="fill:#000000;fill-opacity:1;fill-rule:evenodd;stroke:none"
         d="M -27.983663,57.102124 H -49.28867 l 0.336328,3.363285 -0.488055,2.169323 -0.468313,1.92731 V 66.9592 l 0.923494,2.655193 -0.22759,2.882781 -0.910363,2.518641 0.927568,3.808306 -0.364141,3.580718 1.335183,2.382088 -0.621564,3.292805 -20.86248,-20.862466 11.379535,-11.379534 h 30.345405 z" />
    </g>
    <g
       style="fill:#000000;stroke:none"
       transform="matrix(20.088704,0,0,-20.088704,669.31246,-541.14125)"
       id="g4971">
      <path
         inkscape:connector-curvature="0"
         id="path4969"
         style="fill:#000000;fill-opacity:1;fill-rule:evenodd;stroke:none"
         d="m 0,0 c 0,0.367 -0.227,0.949 0,1.205 0.264,0.299 0.531,0.24 0.963,0.24 0.463,0 0.876,0.477 1.141,0.137 C 2.293,1.336 1.926,1.057 1.926,0.723 c 0,-0.444 0.314,-0.698 0,-0.963 -0.253,-0.211 -0.61,-0.723 -0.963,-0.723 -0.391,0 -0.745,-0.06 -1.004,0.192 C -0.313,-0.51 0,-0.408 0,0" />
    </g>
    <g
       style="fill:#000000;stroke:none"
       transform="matrix(20.088704,0,0,-20.088704,683.73239,-478.24534)"
       id="g4975">
      <path
         inkscape:connector-curvature="0"
         id="path4973"
         style="fill:#000000;fill-opacity:1;fill-rule:evenodd;stroke:none"
         d="m 0,0 c 0,0.184 -0.038,0.352 0.075,0.479 0.131,0.148 0.432,0.244 0.649,0.244 0.231,0 0.438,-0.004 0.57,-0.174 C 1.387,0.428 1.444,0.166 1.444,0 1.444,-0.223 1.345,-0.207 1.186,-0.34 1.062,-0.445 0.899,-0.723 0.724,-0.723 0.528,-0.723 0.35,-0.752 0.221,-0.627 0.084,-0.496 0,-0.205 0,0" />
    </g>
    <g
       style="fill:#000000;stroke:none"
       transform="matrix(20.088704,0,0,-20.088704,700.62278,-405.65873)"
       id="g4979">
      <path
         inkscape:connector-curvature="0"
         id="path4977"
         style="fill:#000000;fill-opacity:1;fill-rule:evenodd;stroke:none"
         d="m 0,0 c 0,0.092 -0.02,0.176 0.037,0.24 0.067,0.074 0.218,0.121 0.325,0.121 0.116,0 0.22,0 0.284,-0.086 C 0.696,0.215 0.723,0.084 0.723,0 0.723,-0.111 0.674,-0.104 0.593,-0.168 0.531,-0.221 0.451,-0.361 0.362,-0.361 0.263,-0.361 0.176,-0.375 0.112,-0.312 0.044,-0.248 0,-0.102 0,0" />
    </g>
    <g
       style="fill:#000000;stroke:none"
       transform="matrix(20.088704,0,0,-20.088704,670.80336,-429.20082)"
       id="g4983">
      <path
         inkscape:connector-curvature="0"
         id="path4981"
         style="fill:#000000;fill-opacity:1;fill-rule:evenodd;stroke:none"
         d="m 0,0 c 0,0.092 -0.02,0.176 0.037,0.24 0.067,0.074 0.217,0.121 0.323,0.121 0.119,0 0.222,0 0.286,-0.086 C 0.695,0.215 0.723,0.084 0.723,0 0.723,-0.109 0.672,-0.102 0.594,-0.168 0.531,-0.221 0.449,-0.359 0.36,-0.359 0.265,-0.359 0.176,-0.375 0.111,-0.312 0.043,-0.246 0,-0.102 0,0" />
    </g>
    <g
       style="fill:#000000;stroke:none"
       transform="matrix(20.088704,0,0,-20.088704,699.05187,-621.98045)"
       id="g4987">
      <path
         inkscape:connector-curvature="0"
         id="path4985"
         style="fill:#000000;fill-opacity:1;fill-rule:evenodd;stroke:none"
         d="m 0,0 c 0,0.092 -0.02,0.176 0.035,0.24 0.067,0.074 0.217,0.121 0.324,0.121 0.117,0 0.222,0 0.287,-0.086 C 0.693,0.215 0.721,0.084 0.721,0 c 0,-0.111 -0.05,-0.104 -0.13,-0.168 -0.062,-0.055 -0.142,-0.193 -0.232,-0.193 -0.095,0 -0.185,-0.014 -0.25,0.049 C 0.041,-0.248 0,-0.102 0,0" />
    </g>
    <g
       id="g869"
       transform="matrix(20.098942,0,0,-20.098942,336.06729,-169.99833)"
       style="fill:#000000;stroke:none">
      <path
         sodipodi:nodetypes="csssscc"
         inkscape:connector-curvature="0"
         id="path867"
         d="M 0,1.3733359e-5 V 3.8823597 c 0,0.5671994 0.458362,1.8803452 1.025561,1.8803452 h 14.5672 c 0.5672,0 1.025562,-1.3131457 1.025562,-1.8803452 V 1.3733359e-5 Z"
         style="fill:#000000;fill-opacity:1;fill-rule:evenodd;stroke:none;stroke-width:0.99859059" />
    </g>
    <g
       style="fill:#000000;stroke:none"
       transform="matrix(20.064734,0,0,20.064734,353.72029,-362.32633)"
       id="g873">
      <path
         inkscape:connector-curvature="0"
         id="path871"
         d="M 0,3.9039871 0.71299683,1.0421408 c 0,-0.56800035 0.45898847,-1.02699981 1.02798877,-1.02699981 h 5.702522 5.7025224 c 0.569,0 1.027988,0.45899946 1.027988,1.02699981 l 0.712997,2.8618463 H 7.4435076 Z"
         style="fill:#000000;fill-opacity:1;fill-rule:evenodd;stroke:none;stroke-width:1.00000024" />
    </g>
    <g
       style="fill:#000000;fill-opacity:1;stroke:none"
       transform="matrix(20.058713,0,0,20.058713,384.1642,-300.23873)"
       id="g877">
      <path
         sodipodi:nodetypes="ccccc"
         inkscape:connector-curvature="0"
         id="path875"
         style="fill:#ffd400;fill-opacity:1;fill-rule:evenodd;stroke:none"
         d="M -0.01085868,-2.2646625 H 11.866859 L 12.5,0.75921728 H -0.644 Z" />
    </g>
    <rect
       ry="6.0950837"
       rx="6.0960002"
       y="-197.42638"
       x="360.44766"
       height="67.045929"
       width="45.211998"
       id="rect879"
       style="opacity:1;fill:#000000;fill-opacity:1;stroke:none;stroke-width:51.69207001;stroke-linejoin:round;stroke-miterlimit:4;stroke-dasharray:none;stroke-opacity:1" />
    <circle
       r="6.0950837"
       cy="-179.14134"
       cx="336.95538"
       id="circle883"
       style="opacity:1;fill:#000000;fill-opacity:1;stroke:none;stroke-width:17.54029846;stroke-linejoin:round;stroke-miterlimit:4;stroke-dasharray:none;stroke-opacity:1" />
    <circle
       style="opacity:1;fill:#000000;fill-opacity:1;stroke:none;stroke-width:17.54029846;stroke-linejoin:round;stroke-miterlimit:4;stroke-dasharray:none;stroke-opacity:1"
       id="circle935"
       cx="336.95538"
       cy="-196.15974"
       r="6.0950837" />
    <circle
       style="opacity:1;fill:#000000;fill-opacity:1;stroke:none;stroke-width:17.54029846;stroke-linejoin:round;stroke-miterlimit:4;stroke-dasharray:none;stroke-opacity:1"
       id="circle939"
       cx="669.18988"
       cy="-179.14134"
       r="6.0950837" />
    <circle
       r="6.0950837"
       cy="-196.15974"
       cx="669.18988"
       id="circle941"
       style="opacity:1;fill:#000000;fill-opacity:1;stroke:none;stroke-width:17.54029846;stroke-linejoin:round;stroke-miterlimit:4;stroke-dasharray:none;stroke-opacity:1" />
    <rect
       style="opacity:1;fill:#000000;fill-opacity:1;stroke:none;stroke-width:51.69207001;stroke-linejoin:round;stroke-miterlimit:4;stroke-dasharray:none;stroke-opacity:1"
       id="rect974"
       width="45.211998"
       height="67.045929"
       x="600.48566"
       y="-197.42638"
       rx="6.0960002"
       ry="6.0950837" />
  </g>
</svg>
