<?xml version="1.0" encoding="UTF-8" standalone="no"?>
<!-- Generator: Adobe Illustrator 12.0.1, SVG Export Plug-In  -->

<svg
   xmlns:dc="http://purl.org/dc/elements/1.1/"
   xmlns:cc="http://creativecommons.org/ns#"
   xmlns:rdf="http://www.w3.org/1999/02/22-rdf-syntax-ns#"
   xmlns:svg="http://www.w3.org/2000/svg"
   xmlns="http://www.w3.org/2000/svg"
   xmlns:sodipodi="http://sodipodi.sourceforge.net/DTD/sodipodi-0.dtd"
   xmlns:inkscape="http://www.inkscape.org/namespaces/inkscape"
   version="1.1"
   width="286.66049"
   height="286.66501"
   viewBox="-1 -0.999 286.66049 286.66501"
   enable-background="new -1 -0.999 289 290"
   xml:space="preserve"
   id="svg2"
   inkscape:version="0.48.2 r9819"
   sodipodi:docname="AJAX1.svg"><metadata
   id="metadata44"><rdf:RDF><cc:Work
       rdf:about=""><dc:format>image/svg+xml</dc:format><dc:type
         rdf:resource="http://purl.org/dc/dcmitype/StillImage" /></cc:Work></rdf:RDF></metadata><sodipodi:namedview
   pagecolor="#ffffff"
   bordercolor="#666666"
   borderopacity="1"
   objecttolerance="10"
   gridtolerance="10"
   guidetolerance="10"
   inkscape:pageopacity="0"
   inkscape:pageshadow="2"
   inkscape:window-width="1280"
   inkscape:window-height="1004"
   id="namedview42"
   showgrid="false"
   fit-margin-top="0"
   fit-margin-left="0"
   fit-margin-right="0"
   fit-margin-bottom="0"
   inkscape:zoom="2.3017545"
   inkscape:cx="82.233995"
   inkscape:cy="139.39127"
   inkscape:window-x="-8"
   inkscape:window-y="-8"
   inkscape:window-maximized="1"
   inkscape:current-layer="svg2" />
<defs
   id="defs4">
</defs>
<path
   d="M 3.0987483,132.38875 132.37975,3.10575 c 5.471,-5.473 14.419,-5.473 19.894,0 l 129.282,129.283 c 5.473,5.471 5.473,14.423 0,19.89 l -129.282,129.284 c -5.475,5.471 -14.423,5.471 -19.894,0 L 3.0987483,152.27775 c -5.465,-5.466 -5.465,-14.419 0,-19.889 z"
   id="path6"
   style="fill:#ffd033;stroke:none;fill-opacity:1"
   inkscape:connector-curvature="0" />

<path
   clip-rule="evenodd"
   d="M 6.2217483,134.44075 134.44075,6.22075 c 4.339,-4.339 11.44,-4.339 15.784,0 l 128.213,128.221 c 4.344,4.343 4.344,11.438 0,15.778 l -128.213,128.224 c -4.344,4.336 -11.445,4.336 -15.784,0 L 6.2217483,150.21975 c -4.339,-4.34 -4.339,-11.436 0,-15.779"
   id="path10"
   inkscape:connector-curvature="0"
   style="fill-rule:evenodd;stroke:none;fill:#000000" />
<path
   clip-rule="evenodd"
   d="M 10.224748,138.39175 138.38675,10.22975 c 2.162,-2.169 5.722,-2.169 7.887,0 l 128.16,128.162 c 2.167,2.166 2.167,5.716 0,7.883 l -128.16,128.161 c -2.165,2.168 -5.725,2.168 -7.887,0 L 10.224748,146.27475 c -2.1659997,-2.167 -2.1659997,-5.717 0,-7.883"
   id="path12"
   inkscape:connector-curvature="0"
   style="fill:#ffd033;fill-rule:evenodd;stroke:none;fill-opacity:1" />
<path
   d="m 100.68575,174.98075 -5.589002,-15.113 h -6.575 v 15.113 h -5.486 v -34.678 h 11.439 c 2.693,0 4.502,0.259 6.211002,1.087 3.054,1.45 5.227,5.124 5.227,8.643 0,3.675 -2.173,7.299 -5.381,8.749 l 6.106,16.199 h -5.952 z m -2.432002,-28.572 c -0.933,-0.518 -1.345,-0.62 -3.157,-0.62 h -6.575 v 8.489 h 6.575 c 1.707,0 2.279,-0.104 3.157,-0.571 1.345,-0.775 2.173002,-2.224 2.173002,-3.675 0.001,-1.45 -0.828002,-2.896 -2.173002,-3.623 z"
   id="path14"
   inkscape:connector-curvature="0"
   style="stroke:none;fill:#000000" />
<path
   d="m 133.55175,171.72075 c -1.965,2.638 -4.761,3.88 -8.385,3.88 -4.863,0 -7.92,-1.965 -9.988,-6.209 -1.45,-2.951 -2.434,-7.559 -2.434,-11.699 0,-5.692 1.45,-10.816 3.779,-14.13 2.068,-2.64 4.863,-3.88 8.849,-3.88 4.401,0 7.454,1.966 9.627,6.209 1.45,3.055 2.329,7.454 2.329,11.801 0,5.488 -1.344,10.973 -3.777,14.028 z m -3.777,-23.759 c -1.088,-1.81 -2.434,-2.537 -4.504,-2.69 -0.104,0 -0.208,0 -0.31,0 -2.484,0 -4.141,1.346 -5.279,4.295 -0.881,2.072 -1.346,5.229 -1.346,8.126 0,3.676 0.724,7.453 2.068,9.629 1.089,1.81 2.537,2.69 4.763,2.69 2.535,0 4.142,-1.346 5.331,-4.399 0.725,-1.812 1.345,-5.228 1.345,-7.92 0,-3.881 -0.723,-7.4 -2.068,-9.731 z"
   id="path16"
   inkscape:connector-curvature="0"
   style="stroke:none;fill:#000000" />
<path
   d="m 158.39575,175.60075 c -5.123,0 -8.383,-1.965 -10.609,-6.209 -1.553,-3.055 -2.537,-7.453 -2.537,-11.801 0,-5.487 1.45,-10.974 3.883,-14.028 2.07,-2.534 4.969,-3.88 8.901,-3.88 5.228,0 8.49,2.224 10.818,7.09 l -5.124,2.174 c -1.915,-2.949 -3.054,-3.675 -5.694,-3.675 -2.795,0 -4.657,1.242 -5.848,4.295 -0.881,2.072 -1.345,5.073 -1.345,8.024 0,3.777 0.828,7.555 2.173,9.73 1.242,1.81 2.796,2.69 5.228,2.69 2.329,0 4.036,-1.242 5.383,-4.038 l 5.228,1.968 c -2.071,5.073 -5.486,7.66 -10.457,7.66 z"
   id="path18"
   inkscape:connector-curvature="0"
   style="stroke:none;fill:#000000" />
<path
   d="m 195.30075,174.98075 -8.799,-16.407 -3.624,4.502 v 11.905 h -5.485 v -34.678 h 5.485 v 13.768 l 10.922,-13.768 h 7.09 l -10.713,13.509 11.438,21.169 h -6.314 z"
   id="path20"
   inkscape:connector-curvature="0"
   style="stroke:none;fill:#000000" />
<path
   d="m 85.520748,218.79575 v -4.607 l 15.840002,-24.585 H 86.867748 v -5.486 h 22.255002 v 3.261 l -16.044002,25.828 h 16.044002 v 5.59 H 85.520748 z"
   id="path22"
   inkscape:connector-curvature="0"
   style="stroke:none;fill:#000000" />
<path
   d="m 134.79375,215.53475 c -1.965,2.639 -4.761,3.881 -8.383,3.881 -4.865,0 -7.92,-1.966 -9.99,-6.21 -1.448,-2.951 -2.432,-7.559 -2.432,-11.697 0,-5.694 1.448,-10.818 3.777,-14.131 2.07,-2.641 4.866,-3.883 8.851,-3.883 4.399,0 7.454,1.968 9.627,6.212 1.45,3.054 2.329,7.453 2.329,11.802 10e-4,5.486 -1.344,10.973 -3.779,14.026 z m -3.777,-23.758 c -1.086,-1.813 -2.432,-2.535 -4.504,-2.69 -0.102,0 -0.206,0 -0.31,0 -2.484,0 -4.141,1.345 -5.277,4.296 -0.883,2.07 -1.348,5.228 -1.348,8.126 0,3.675 0.726,7.452 2.07,9.627 1.087,1.811 2.535,2.69 4.763,2.69 2.535,0 4.142,-1.345 5.331,-4.399 0.724,-1.812 1.346,-5.228 1.346,-7.918 0,-3.882 -0.725,-7.402 -2.071,-9.732 z"
   id="path24"
   inkscape:connector-curvature="0"
   style="stroke:none;fill:#000000" />
<path
   d="m 164.71075,218.79575 -13.25,-23.498 v 23.498 h -5.486 v -34.679 h 5.486 l 12.628,22.152 v -22.152 h 5.486 v 34.679 h -4.864 z"
   id="path26"
   inkscape:connector-curvature="0"
   style="stroke:none;fill:#000000" />
<path
   d="m 177.59875,218.79575 v -34.679 h 20.443 v 5.486 h -14.958 v 8.488 h 10.094 v 5.591 h -10.094 v 9.523 h 16.047 v 5.59 h -21.532 z"
   id="path28"
   inkscape:connector-curvature="0"
   style="stroke:none;fill:#000000" />
<path
   d="m 66.577748,101.06175 v 8.488 h 10.094 v 5.591 h -10.094 v 15.113 h -5.486 v -34.678 h 21.532 v 5.486 h -16.046 z"
   id="path30"
   inkscape:connector-curvature="0"
   style="stroke:none;fill:#000000" />
<path
   d="m 108.19275,130.25375 -3.418,-9.73 H 93.957748 l -3.416,9.73 h -5.85 l 11.958,-34.678 h 5.434002 l 11.956,34.678 h -5.847 z m -8.749002,-25.051 -3.569,9.73 h 6.934002 l -3.365002,-9.73 z"
   id="path32"
   inkscape:connector-curvature="0"
   style="stroke:none;fill:#000000" />
<path
   d="m 119.26775,130.25375 v -34.678 h 5.485 v 29.554 h 16.047 v 5.124 h -21.532 z"
   id="path34"
   inkscape:connector-curvature="0"
   style="stroke:none;fill:#000000" />
<path
   d="m 145.92375,130.25375 v -34.678 h 5.486 v 29.554 h 16.046 v 5.124 h -21.532 z"
   id="path36"
   inkscape:connector-curvature="0"
   style="stroke:none;fill:#000000" />
<path
   d="m 172.57875,130.25375 v -34.678 h 20.443 v 5.486 h -14.957 v 8.488 h 10.094 v 5.591 h -10.094 v 9.524 h 16.047 v 5.589 h -21.533 z"
   id="path38"
   inkscape:connector-curvature="0"
   style="stroke:none;fill:#000000" />
<path
   d="m 218.69575,130.25375 -13.251,-23.498 v 23.498 h -5.485 v -34.678 h 5.485 l 12.629,22.152 v -22.152 h 5.486 v 34.678 h -4.864 z"
   id="path40"
   inkscape:connector-curvature="0"
   style="stroke:none;fill:#000000" />
</svg>