<?xml version="1.0" encoding="UTF-8" standalone="no"?>
<!-- Generator: Adobe Illustrator 13.0.0, SVG Export Plug-In  -->

<svg
   xmlns:dc="http://purl.org/dc/elements/1.1/"
   xmlns:cc="http://creativecommons.org/ns#"
   xmlns:rdf="http://www.w3.org/1999/02/22-rdf-syntax-ns#"
   xmlns:svg="http://www.w3.org/2000/svg"
   xmlns="http://www.w3.org/2000/svg"
   xmlns:sodipodi="http://sodipodi.sourceforge.net/DTD/sodipodi-0.dtd"
   xmlns:inkscape="http://www.inkscape.org/namespaces/inkscape"
   version="1.1"
   x="0px"
   y="0px"
   width="3678.5747"
   height="3678.5747"
   viewBox="-0.525 -0.67 3678.5747 3678.5747"
   enable-background="new -0.525 -0.67 576 508"
   xml:space="preserve"
   id="svg2"
   inkscape:version="0.48.2 r9819"
   sodipodi:docname="AJAX1.svg"><metadata
   id="metadata14"><rdf:RDF><cc:Work
       rdf:about=""><dc:format>image/svg+xml</dc:format><dc:type
         rdf:resource="http://purl.org/dc/dcmitype/StillImage" /><dc:title></dc:title></cc:Work></rdf:RDF></metadata><sodipodi:namedview
   pagecolor="#ffffff"
   bordercolor="#666666"
   borderopacity="1"
   objecttolerance="10"
   gridtolerance="10"
   guidetolerance="10"
   inkscape:pageopacity="0"
   inkscape:pageshadow="2"
   inkscape:window-width="1280"
   inkscape:window-height="1004"
   id="namedview12"
   showgrid="false"
   fit-margin-top="0"
   fit-margin-left="0"
   fit-margin-right="0"
   fit-margin-bottom="0"
   inkscape:zoom="0.14245509"
   inkscape:cx="2811.0207"
   inkscape:cy="1052.7892"
   inkscape:window-x="-8"
   inkscape:window-y="-8"
   inkscape:window-maximized="1"
   inkscape:current-layer="svg2" />
<defs
   id="defs4">
</defs>



<path
   inkscape:connector-curvature="0"
   style="fill:#ffd033;fill-rule:nonzero;stroke:none"
   d="m 1958.0873,3628.4798 c -65.9,65.9 -172.75,65.9 -238.65,0 L 48.900656,1957.9423 c -65.900875,-65.9 -65.900875,-172.75 0,-238.65 L 1719.4373,48.755656 c 65.9,-65.900875 172.75,-65.900875 238.65,0 L 3628.6248,1719.2923 c 65.9,65.9 65.9,172.75 0,238.65 L 1958.0873,3628.4798 z"
   id="path11" /><path
   inkscape:connector-curvature="0"
   style="fill:#000000;fill-rule:nonzero;stroke:none"
   d="m 80.720781,1926.1261 c -48.2495,-48.25 -48.2495,-126.7625 0,-175.0125 L 1751.2587,80.575625 c 48.25,-48.2495 126.75,-48.2495 175.0125,0 L 3596.8087,1751.1136 c 48.25,48.25 48.25,126.7625 0,175.0125 L 1926.2712,3596.6636 c -48.25,48.25 -126.7625,48.25 -175.0125,0 L 80.720781,1926.1261 z"
   id="path13" /><path
   inkscape:connector-curvature="0"
   style="fill:#ffd033;fill-rule:nonzero;stroke:none"
   d="m 128.45066,1878.3866 c -21.93163,-21.925 -21.93163,-57.6125 0,-79.55 L 1798.9815,128.3061 c 21.9375,-21.932 57.625,-21.932 79.55,0 L 3549.069,1798.8366 c 21.9375,21.9375 21.9375,57.625 0,79.55 L 1878.5315,3548.9241 c -21.925,21.9375 -57.6125,21.9375 -79.55,0 L 128.45066,1878.3866 z"
   id="path15" /><path
   inkscape:connector-curvature="0"
   style="fill:#000000;fill-rule:nonzero;stroke:none"
   d="m 1528.9619,2163.8548 c -14.25,-23.6875 -31.65,-33.15 -58.5625,-34.7375 -34.825,-1.575 -56.9875,15.7875 -72.8125,55.2625 -11.075,26.8375 -17.4,67.9 -17.4,105.7875 0,47.375 9.4875,96.3125 26.9,124.7375 14.25,23.6875 33.2375,34.7375 61.725,34.7375 33.25,0 53.825,-17.3625 69.65,-56.8375 9.5,-23.6875 17.4125,-67.9 17.4125,-102.6375 0,-50.525 -9.5,-96.3125 -26.9125,-126.3125 z m 49.0625,307.9 c -25.325,34.7375 -61.725,50.525 -109.2125,50.525 -63.3,0 -102.875,-25.2625 -129.7875,-80.525 -18.9875,-37.9 -31.65,-97.9 -31.65,-151.5875 0,-74.2125 18.9875,-140.525 49.0625,-183.15 26.9125,-34.7375 63.3125,-50.525 115.5375,-50.525 56.9875,0 96.5625,25.2625 125.05,80.525 18.9875,39.4625 30.075,96.3125 30.075,153.15 0,71.05 -17.4125,142.1125 -49.075,181.5875 z"
   id="path17" /><path
   inkscape:connector-curvature="0"
   style="fill:#000000;fill-rule:nonzero;stroke:none"
   d="m 2355.2869,2513.8298 -114.05,-213.1625 -47.525,58.425 0,154.7375 -71.275,0 0,-450 71.275,0 0,178.425 142.5625,-178.425 91.875,0 -139.3875,175.2625 148.9,274.7375 -82.375,0 z"
   id="path19" /><path
   inkscape:connector-curvature="0"
   style="fill:#000000;fill-rule:nonzero;stroke:none"
   d="m 1130.9119,2142.7798 c -11.05,-6.3125 -17.3675,-7.9 -41.0538,-7.9 l -85.2675,0 0,110.525 85.2675,0 c 22.1088,0 30.0038,-1.575 41.0538,-7.8875 17.3737,-9.475 28.4275,-28.425 28.4275,-47.375 0,-18.9375 -11.0538,-37.8875 -28.4275,-47.3625 z m 31.5825,371.05 -72.6363,-195.7875 -85.2675,0 0,195.7875 -71.05744,0 0,-450 148.42874,0 c 34.7412,0 58.4262,3.1625 80.5325,14.2125 39.4775,18.95 67.9012,66.3125 67.9012,112.1 0,47.375 -28.4237,94.7375 -69.4787,113.6875 l 78.955,210 -77.3775,0 z"
   id="path21" /><path
   inkscape:connector-curvature="0"
   style="fill:#000000;fill-rule:nonzero;stroke:none"
   d="m 2744.7869,2486.4423 c -25.2751,22.1 -60.0125,34.7375 -97.9001,34.7375 -77.375,0 -134.2249,-45.7875 -164.2249,-113.6875 l 67.9,-25.2625 c 18.9499,42.625 53.6875,66.3125 96.3249,66.3125 41.0501,0 69.4751,-28.425 69.4751,-66.3125 0,-60 -69.4751,-69.475 -127.9126,-93.1625 -26.8374,-11.05 -86.8374,-37.8875 -86.8374,-112.1 0,-88.425 60,-121.575 140.5375,-121.575 63.1625,0 105.7875,36.3125 127.9,91.575 l -63.1626,18.9375 c 0,0 -15.7874,-37.8875 -66.3249,-39.4625 -33.1625,-1.5875 -72.6375,11.05 -69.475,52.1 6.3125,83.6875 217.9125,28.425 217.9125,205.2625 0,41.05 -15.8001,77.375 -44.2125,102.6375 z"
   id="path23" /><path
   inkscape:connector-curvature="0"
   style="fill:#000000;fill-rule:nonzero;stroke:none"
   d="m 1887.6243,2521.7298 c -66.3125,0 -108.9499,-25.2625 -137.3749,-80.5375 -20.525,-39.4625 -33.1625,-96.3125 -33.1625,-153.15 0,-71.05 18.95,-142.1125 50.5375,-181.575 26.8374,-33.1625 64.7375,-50.5375 115.275,-50.5375 67.9,0 110.525,28.425 140.5374,91.5875 l -66.3249,28.4125 c -25.2625,-37.8875 -39.4751,-47.3625 -74.2125,-47.3625 -36.3251,0 -60.0126,15.7875 -75.8,55.2625 -11.0501,26.8375 -17.3751,66.3125 -17.3751,104.2125 0,48.95 11.0625,97.9 28.4251,126.3125 15.7999,23.6875 36.325,34.7375 67.9,34.7375 30,0 52.1125,-15.7875 69.4875,-52.1 l 67.8999,25.2625 c -26.8499,66.3125 -71.0624,99.475 -135.8125,99.475 z"
   id="path25" /><path
   inkscape:connector-curvature="0"
   style="fill:#000000;fill-rule:nonzero;stroke:none"
   d="m 2831.3619,1737.5798 -172.1125,-304.7375 0,304.7375 -71.0625,0 0,-450.0125 71.0625,0 164.2125,287.375 0,-287.375 71.0625,0 0,450.0125 -63.1625,0 z"
   id="path27" /><path
   inkscape:connector-curvature="0"
   style="fill:#000000;fill-rule:nonzero;stroke:none"
   d="m 1539.3494,1737.5798 0,-450.0125 70.9625,0 0,383.7 208.15,0 0,66.3125 -279.1125,0 z"
   id="path29" /><path
   inkscape:connector-curvature="0"
   style="fill:#000000;fill-rule:nonzero;stroke:none"
   d="m 1885.9619,1737.5798 0,-450.0125 70.9625,0 0,383.7 208.1499,0 0,66.3125 -279.1124,0 z"
   id="path31" /><path
   inkscape:connector-curvature="0"
   style="fill:#000000;fill-rule:nonzero;stroke:none"
   d="m 2232.5743,1737.5798 0,-450 264.9125,0 0,71.05 -193.9499,0 0,110.525 130.875,0 0,72.625 -130.875,0 0,123.1625 208.1499,0 0,72.6375 -279.1125,0 z"
   id="path33" /><path
   inkscape:connector-curvature="0"
   style="fill:#000000;fill-rule:nonzero;stroke:none"
   d="m 1281.2744,1412.3173 -46.0475,126.3125 90.5225,0 -44.475,-126.3125 z m 114.35,325.2625 -44.4625,-126.325 -141.345,0 -44.4662,126.325 -76.2275,0 155.6312,-450 71.4575,0 155.6375,450 -76.225,0 z"
   id="path35" /><path
   inkscape:connector-curvature="0"
   style="fill:#000000;fill-rule:nonzero;stroke:none"
   d="m 853.97191,1358.6298 0,110.525 130.88,0 0,72.625 -130.88,0 0,195.8 -70.96375,0 0,-450 279.11374,0 0,71.05 -208.14999,0 z"
   id="path37" /></svg>