<?xml version="1.0" encoding="UTF-8" standalone="no"?>
<!-- Generator: Adobe Illustrator 12.0.1, SVG Export Plug-In  -->

<svg
   xmlns:dc="http://purl.org/dc/elements/1.1/"
   xmlns:cc="http://creativecommons.org/ns#"
   xmlns:rdf="http://www.w3.org/1999/02/22-rdf-syntax-ns#"
   xmlns:svg="http://www.w3.org/2000/svg"
   xmlns="http://www.w3.org/2000/svg"
   xmlns:sodipodi="http://sodipodi.sourceforge.net/DTD/sodipodi-0.dtd"
   xmlns:inkscape="http://www.inkscape.org/namespaces/inkscape"
   version="1.1"
   width="286.66"
   height="286.66425"
   viewBox="0 -0.999 286.66 286.66425"
   enable-background="new 0 -0.999 288 290"
   xml:space="preserve"
   id="svg2"
   inkscape:version="0.48.2 r9819"
   sodipodi:docname="AJAX1.svg"><metadata
   id="metadata40"><rdf:RDF><cc:Work
       rdf:about=""><dc:format>image/svg+xml</dc:format><dc:type
         rdf:resource="http://purl.org/dc/dcmitype/StillImage" /></cc:Work></rdf:RDF></metadata><sodipodi:namedview
   pagecolor="#ffffff"
   bordercolor="#666666"
   borderopacity="1"
   objecttolerance="10"
   gridtolerance="10"
   guidetolerance="10"
   inkscape:pageopacity="0"
   inkscape:pageshadow="2"
   inkscape:window-width="1280"
   inkscape:window-height="1004"
   id="namedview38"
   showgrid="false"
   fit-margin-top="0"
   fit-margin-left="0"
   fit-margin-right="0"
   fit-margin-bottom="0"
   inkscape:zoom="2.3017545"
   inkscape:cx="111.13029"
   inkscape:cy="145.50982"
   inkscape:window-x="-8"
   inkscape:window-y="-8"
   inkscape:window-maximized="1"
   inkscape:current-layer="svg2" />
<defs
   id="defs4">
</defs>
<path
   d="M 4.098746,132.388 133.37875,3.105 c 5.47,-5.472 14.42,-5.472 19.895,0 l 129.283,129.283 c 5.471,5.47 5.471,14.423 0,19.89 l -129.283,129.284 c -5.475,5.471 -14.424,5.471 -19.895,0 L 4.098746,152.277 c -5.465,-5.466 -5.465,-14.419 0,-19.889 z"
   id="path6"
   style="fill:#ffd520;stroke:none"
   inkscape:connector-curvature="0" />

<path
   clip-rule="evenodd"
   d="M 7.221746,134.44 135.43975,6.221 c 4.339,-4.339 11.442,-4.339 15.785,0 l 128.214,128.22 c 4.343,4.343 4.343,11.438 0,15.778 l -128.214,128.224 c -4.343,4.336 -11.446,4.336 -15.785,0 L 7.221746,150.219 c -4.339,-4.34 -4.339,-11.436 0,-15.779"
   id="path10"
   inkscape:connector-curvature="0"
   style="fill-rule:evenodd;stroke:none;fill:#000000" />
<path
   clip-rule="evenodd"
   d="M 11.224746,138.391 139.38575,10.23 c 2.162,-2.169 5.723,-2.169 7.889,0 l 128.159,128.161 c 2.166,2.166 2.166,5.716 0,7.883 l -128.159,128.161 c -2.166,2.168 -5.727,2.168 -7.889,0 L 11.224746,146.274 c -2.166,-2.167 -2.166,-5.717 0,-7.883"
   id="path12"
   style="fill:#ffd520;fill-rule:evenodd;stroke:none"
   inkscape:connector-curvature="0" />
<path
   d="m 87.633746,183.028 -5.589,-15.113 h -6.574 v 15.113 h -5.486 v -34.679 h 11.439 c 2.691,0 4.502,0.259 6.21,1.087 3.054,1.45 5.228,5.125 5.228,8.644 0,3.674 -2.173,7.298 -5.382,8.748 l 6.107,16.2 h -5.953 z m -2.432,-28.572 c -0.932,-0.517 -1.346,-0.62 -3.157,-0.62 h -6.574 v 8.49 h 6.574 c 1.708,0 2.277,-0.105 3.157,-0.572 1.345,-0.775 2.173,-2.224 2.173,-3.674 0,-1.45 -0.828,-2.896 -2.173,-3.624 z"
   id="path14"
   inkscape:connector-curvature="0"
   style="stroke:none;fill:#000000" />
<path
   d="m 120.49975,179.768 c -1.966,2.639 -4.762,3.881 -8.385,3.881 -4.865,0 -7.919,-1.966 -9.989,-6.21 -1.449,-2.951 -2.433004,-7.558 -2.433004,-11.699 0,-5.691 1.449004,-10.816 3.778004,-14.129 2.07,-2.64 4.866,-3.881 8.851,-3.881 4.399,0 7.454,1.966 9.627,6.21 1.449,3.054 2.329,7.453 2.329,11.8 0,5.488 -1.345,10.974 -3.778,14.028 z m -3.779,-23.758 c -1.086,-1.81 -2.433,-2.537 -4.503,-2.69 -0.103,0 -0.207,0 -0.31,0 -2.484,0 -4.141,1.345 -5.279,4.294 -0.881,2.072 -1.346,5.229 -1.346,8.126 0,3.677 0.725,7.454 2.07,9.629 1.086,1.811 2.536,2.69 4.762,2.69 2.536,0 4.141,-1.345 5.331,-4.399 0.725,-1.812 1.346,-5.228 1.346,-7.92 0,-3.881 -0.725,-7.399 -2.071,-9.73 z"
   id="path16"
   inkscape:connector-curvature="0"
   style="stroke:none;fill:#000000" />
<path
   d="m 145.34175,183.649 c -5.124,0 -8.384,-1.966 -10.609,-6.21 -1.553,-3.054 -2.537,-7.453 -2.537,-11.8 0,-5.488 1.449,-10.975 3.882,-14.028 2.07,-2.535 4.968,-3.881 8.902,-3.881 5.226,0 8.487,2.225 10.816,7.091 l -5.124,2.173 c -1.913,-2.949 -3.053,-3.674 -5.692,-3.674 -2.795,0 -4.658,1.242 -5.848,4.294 -0.881,2.072 -1.346,5.074 -1.346,8.025 0,3.777 0.828,7.555 2.174,9.729 1.241,1.811 2.794,2.69 5.226,2.69 2.329,0 4.036,-1.242 5.385,-4.037 l 5.226,1.967 c -2.068,5.073 -5.486,7.661 -10.455,7.661 z"
   id="path18"
   inkscape:connector-curvature="0"
   style="stroke:none;fill:#000000" />
<path
   d="m 182.24775,183.028 -8.799,-16.408 -3.624,4.503 v 11.905 h -5.486 v -34.679 h 5.486 v 13.769 l 10.922,-13.769 h 7.088 l -10.712,13.51 11.438,21.169 h -6.313 z"
   id="path20"
   inkscape:connector-curvature="0"
   style="stroke:none;fill:#000000" />
<path
   d="m 213.24675,180.958 c -1.912,1.708 -4.607,2.69 -7.554,2.69 -5.953,0 -10.3,-3.519 -12.629,-8.799 l 5.226,-1.915 c 1.45,3.262 4.141,5.124 7.403,5.124 3.207,0 5.381,-2.226 5.381,-5.124 0,-4.605 -5.381,-5.383 -9.884,-7.195 -2.072,-0.828 -6.68,-2.896 -6.68,-8.643 0,-6.781 4.607,-9.367 10.816,-9.367 4.868,0 8.181,2.794 9.888,7.091 l -4.864,1.448 c 0,0 -1.244,-2.949 -5.124,-3.053 -0.155,0 -0.261,0 -0.361,0 -2.384,0 -4.97,0.932 -4.97,3.675 0,0.103 0,0.258 0,0.361 0.467,6.419 16.77,2.174 16.77,15.787 0,3.158 -1.244,5.952 -3.418,7.92 z"
   id="path22"
   inkscape:connector-curvature="0"
   style="stroke:none;fill:#000000" />
<path
   d="m 58.751746,107.119 v 8.488 h 10.093 v 5.591 h -10.093 v 15.113 h -5.486 v -34.678 h 21.531 v 5.486 h -16.045 z"
   id="path24"
   inkscape:connector-curvature="0"
   style="stroke:none;fill:#000000" />
<path
   d="m 100.36675,136.311 -3.417004,-9.73 h -10.817 l -3.417,9.73 h -5.849 l 11.958,-34.678 h 5.435 l 11.955004,34.678 h -5.848 z m -8.748004,-25.051 -3.571,9.73 h 6.936 l -3.365,-9.73 z"
   id="path26"
   inkscape:connector-curvature="0"
   style="stroke:none;fill:#000000" />
<path
   d="m 111.44175,136.311 v -34.678 h 5.486 v 29.553 h 16.046 v 5.125 h -21.532 z"
   id="path28"
   inkscape:connector-curvature="0"
   style="stroke:none;fill:#000000" />
<path
   d="m 138.09775,136.311 v -34.678 h 5.487 v 29.553 h 16.045 v 5.125 h -21.532 z"
   id="path30"
   inkscape:connector-curvature="0"
   style="stroke:none;fill:#000000" />
<path
   d="m 164.75075,136.311 v -34.678 h 5.592 v 34.678 h -5.592 z"
   id="path32"
   inkscape:connector-curvature="0"
   style="stroke:none;fill:#000000" />
<path
   d="m 197.36075,136.311 -13.25,-23.498 v 23.498 h -5.486 v -34.678 h 5.486 l 12.628,22.152 v -22.152 h 5.486 v 34.678 h -4.864 z"
   id="path34"
   inkscape:connector-curvature="0"
   style="stroke:none;fill:#000000" />
<path
   d="m 222.40775,136.931 c -5.226,0 -8.278,-1.965 -10.351,-6.314 -1.45,-3.052 -2.278,-7.349 -2.278,-11.593 0,-5.591 1.556,-11.077 3.884,-14.131 2.069,-2.535 4.97,-3.882 8.9,-3.882 5.334,0 8.491,2.226 10.82,7.661 l -5.229,2.071 c -1.45,-3.002 -2.951,-4.141 -5.591,-4.141 -2.792,0 -4.658,1.242 -5.848,4.296 -0.879,2.07 -1.346,5.228 -1.346,8.126 0,3.674 0.622,7.298 1.707,9.522 1.089,1.915 2.694,2.796 4.763,2.796 3.52,0 6.058,-2.226 6.058,-5.383 v -1.448 h -6.317 v -5.486 h 11.804 v 6.935 c 0,6.313 -4.607,10.971 -10.976,10.971 z"
   id="path36"
   inkscape:connector-curvature="0"
   style="stroke:none;fill:#000000" />
</svg>