<?xml version="1.0" encoding="UTF-8" standalone="no"?>
<!-- Generator: Adobe Illustrator 12.0.1, SVG Export Plug-In  -->

<svg
   xmlns:dc="http://purl.org/dc/elements/1.1/"
   xmlns:cc="http://creativecommons.org/ns#"
   xmlns:rdf="http://www.w3.org/1999/02/22-rdf-syntax-ns#"
   xmlns:svg="http://www.w3.org/2000/svg"
   xmlns="http://www.w3.org/2000/svg"
   xmlns:sodipodi="http://sodipodi.sourceforge.net/DTD/sodipodi-0.dtd"
   xmlns:inkscape="http://www.inkscape.org/namespaces/inkscape"
   version="1.1"
   width="286.35876"
   height="286.38214"
   viewBox="0 -1 286.35876 286.38214"
   enable-background="new 0 -1 288 290"
   xml:space="preserve"
   id="svg2"
   inkscape:version="0.48.2 r9819"
   sodipodi:docname="AJAX1.svg"><metadata
   id="metadata52"><rdf:RDF><cc:Work
       rdf:about=""><dc:format>image/svg+xml</dc:format><dc:type
         rdf:resource="http://purl.org/dc/dcmitype/StillImage" /></cc:Work></rdf:RDF></metadata><sodipodi:namedview
   pagecolor="#ffffff"
   bordercolor="#666666"
   borderopacity="1"
   objecttolerance="10"
   gridtolerance="10"
   guidetolerance="10"
   inkscape:pageopacity="0"
   inkscape:pageshadow="2"
   inkscape:window-width="1280"
   inkscape:window-height="1004"
   id="namedview50"
   showgrid="false"
   fit-margin-top="0"
   fit-margin-left="0"
   fit-margin-right="0"
   fit-margin-bottom="0"
   inkscape:zoom="2.3017545"
   inkscape:cx="141.93565"
   inkscape:cy="103.27065"
   inkscape:window-x="-8"
   inkscape:window-y="-8"
   inkscape:window-maximized="1"
   inkscape:current-layer="svg2" />
<defs
   id="defs4">
</defs>
<path
   d="M 135.50575,282.24938 3.1687482,149.89038 c -4.225,-4.233 -4.225,-11.128 0,-15.351 L 135.50575,2.1723753 c 4.217,-4.229 11.118,-4.229 15.349,-0.005 l 132.328,132.3720047 c 4.233,4.237 4.233,11.117 0.01,15.351 l -132.338,132.359 c -4.184,4.173 -11.172,4.181 -15.349,0"
   id="path6"
   style="fill:#ffd033;stroke:none;fill-opacity:1"
   inkscape:connector-curvature="0" />

<path
   clip-rule="evenodd"
   d="M 137.60175,280.09538 5.3297482,147.78238 c -3.045,-3.052 -3.039,-8.083 0,-11.141 L 137.60175,4.3293753 c 3.056,-3.039 8.091,-3.039 11.139,0 l 132.283,132.3200047 c 3.044,3.053 3.044,8.081 0,11.132 l -132.283,132.314 c -3.048,3.033 -8.084,3.046 -11.139,0"
   id="path10"
   inkscape:connector-curvature="0"
   style="fill:#000000;fill-rule:evenodd;stroke:none" />
<path
   clip-rule="evenodd"
   d="M 140.56375,277.07938 8.3487482,144.83638 c -1.467,-1.419 -1.467,-3.833 0,-5.25 L 140.55575,7.3573753 c 1.41,-1.472 3.827,-1.472 5.238,0 l 132.211,132.2290047 c 1.456,1.417 1.456,3.839 0,5.259 l -132.211,132.234 c -1.411,1.459 -3.82,1.459 -5.23,0"
   id="path12"
   inkscape:connector-curvature="0"
   style="fill:#ffd033;fill-rule:evenodd;stroke:none;fill-opacity:1" />
<path
   d="m 62.306748,136.81638 c -0.5,-3.3 -1.8,-4.85 -4,-4.85 -3.899,0 -5.3,3.05 -5.3,11.75 0,9.649 1.65,13.55 5.75,13.55 2.8,0 3.55,-2.351 3.55,-4.851 h 4.8 c -0.1,5.55 -3.65,9.55 -8.35,9.55 -7.149,0 -10.35,-5.75 -10.35,-18.1 0,-10.85 3.399,-16.6 9.999,-16.6 2.7,0 5.05,1.2 6.601,3.4 1.25,1.65 1.75,3.1 2.1,6.15 h -4.8 z"
   id="path14"
   inkscape:connector-curvature="0"
   style="fill:#000000;stroke:none" />
<path
   d="m 89.405748,161.36638 -4.45,-15.75 h -4.6 v 15.75 h -4.8 v -33.5 h 9.999 c 5.25,0 8.8,3.55 8.8,8.95 0,4 -1.649,6.901 -4.8,8.1 l 4.8,16.45 h -4.949 z m -4.101,-28.8 h -4.949 v 8.45 h 4.949 c 2.8,0 4.351,-1.5 4.351,-4.2 0,-2.6 -1.75,-4.25 -4.351,-4.25 z"
   id="path16"
   inkscape:connector-curvature="0"
   style="fill:#000000;stroke:none" />
<path
   d="m 118.90475,156.21638 c -1.65,3.95 -4.101,5.75 -7.85,5.75 -4,0 -6.351,-1.8 -8,-5.75 -1.4,-3.3 -1.9,-6.5 -1.9,-11.649 0,-5.05 0.5,-8.45 1.9,-11.65 1.75,-4 4.1,-5.65 8,-5.65 3.85,0 6.199,1.65 7.85,5.75 1.399,3.3 1.899,6.5 1.899,11.55 0,5.149 -0.5,8.449 -1.899,11.649 z m -3.75,-20 c -0.851,-2.95 -2.1,-4.25 -4.1,-4.25 -2.15,0 -3.45,1.3 -4.25,4.15 -0.8,2.55 -1.05,4.8 -1.05,8.55 0,3.65 0.35,5.75 1.05,8.45 0.8,2.85 2.1,4.15 4.25,4.15 2,0 3.249,-1.301 4.1,-4.15 0.8,-2.7 1.05,-4.7 1.05,-8.55 -0.001,-3.75 -0.35,-5.9 -1.05,-8.35 z"
   id="path18"
   inkscape:connector-curvature="0"
   style="fill:#000000;stroke:none" />
<path
   d="m 137.00275,161.96638 c -5.899,0 -9.399,-4.949 -9.399,-10.449 h 4.7 c 0,2.8 1.399,5.75 4.699,5.75 2.601,0 4.7,-2.351 4.7,-5.051 0,-1.899 -0.7,-3.3 -2.7,-4.85 -0.699,-0.7 1.2,0.6 -5.649,-4 -2.7,-1.85 -4.1,-4.45 -4.1,-7.4 0,-4.8 3.75,-8.7 8.55,-8.7 4.749,0 8.35,3.65 8.499,8.7 h -4.6 c -0.1,-2.35 -1.75,-3.85 -3.899,-3.85 -2.2,0 -3.95,1.65 -3.95,3.85 0,1.65 0.7,2.6 3.149,4 6.45,3.75 9.3,7.4 9.3,12.25 0,5.4 -4.149,9.75 -9.3,9.75 z"
   id="path20"
   inkscape:connector-curvature="0"
   style="fill:#000000;stroke:none" />
<path
   d="m 161.45175,161.96638 c -5.899,0 -9.399,-4.949 -9.399,-10.449 h 4.7 c 0,2.8 1.399,5.75 4.699,5.75 2.6,0 4.7,-2.351 4.7,-5.051 0,-1.899 -0.7,-3.3 -2.7,-4.85 -0.699,-0.7 1.2,0.6 -5.65,-4 -2.699,-1.85 -4.1,-4.45 -4.1,-7.4 0,-4.8 3.75,-8.7 8.551,-8.7 4.749,0 8.349,3.65 8.499,8.7 h -4.6 c -0.101,-2.35 -1.75,-3.85 -3.899,-3.85 -2.201,0 -3.951,1.65 -3.951,3.85 0,1.65 0.701,2.6 3.15,4 6.45,3.75 9.3,7.4 9.3,12.25 0,5.4 -4.149,9.75 -9.3,9.75 z"
   id="path22"
   inkscape:connector-curvature="0"
   style="fill:#000000;stroke:none" />
<path
   d="m 178.15175,161.36638 v -33.5 h 4.7 v 33.5 h -4.7 z"
   id="path24"
   inkscape:connector-curvature="0"
   style="fill:#000000;stroke:none" />
<path
   d="m 207.15075,161.36638 -10.351,-22.45 v 22.45 h -4.8 v -33.5 h 4.8 l 9.2,20.1 v -20.1 h 4.8 v 33.5 h -3.649 z"
   id="path26"
   inkscape:connector-curvature="0"
   style="fill:#000000;stroke:none" />
<path
   d="m 236.99775,157.26638 c -1.3,2.899 -3.999,4.699 -7.399,4.699 -4,0 -6.949,-2 -8.6,-5.75 -1.05,-2.5 -1.75,-7.199 -1.75,-11.55 0,-4.7 0.35,-8.1 1.55,-11.3 1.15,-3.5 4.55,-6.1 8.45,-6.1 4.8,0 8.449,3.55 8.699,8.5 h -4.8 c -0.149,-2.25 -1.649,-3.8 -4,-3.8 -1.649,0 -2.949,0.85 -3.8,2.5 -0.899,1.65 -1.5,5.4 -1.5,9.4 0,2.8 0.25,5.75 0.7,8.35 0.7,3.25 2.35,5.051 4.95,5.051 2.449,0 3.649,-1.65 3.649,-5.2 v -2.2 h -3.8 v -4.7 h 8.6 v 6.9 c 0.002,2.35 -0.248,3.8 -0.949,5.2 z"
   id="path28"
   inkscape:connector-curvature="0"
   style="fill:#000000;stroke:none" />
<path
   d="m 88.404748,79.282375 v 8.45 h 6.7 v 4.6 h -6.7 v 15.750005 h -4.8 V 74.582375 h 17.049002 v 4.7 H 88.404748 z"
   id="path30"
   inkscape:connector-curvature="0"
   style="fill:#000000;stroke:none" />
<path
   d="M 107.10375,108.08238 V 74.582375 h 15.75 v 4.7 h -10.95 v 8.45 h 6.95 v 4.6 h -6.95 v 11.050005 h 12.25 v 4.7 h -17.05 z"
   id="path32"
   inkscape:connector-curvature="0"
   style="fill:#000000;stroke:none" />
<path
   d="m 145.40275,108.08238 -4.45,-15.750005 h -4.6 v 15.750005 h -4.8 V 74.582375 h 10 c 5.25,0 8.801,3.55 8.801,8.95 0,4 -1.65,6.9 -4.801,8.1 l 4.801,16.450005 h -4.951 z m -4.1,-28.800005 h -4.95 v 8.45 h 4.95 c 2.8,0 4.35,-1.5 4.35,-4.2 0,-2.599 -1.75,-4.25 -4.35,-4.25 z"
   id="path34"
   inkscape:connector-curvature="0"
   style="fill:#000000;stroke:none" />
<path
   d="m 171.60175,108.08238 -4.449,-15.750005 h -4.6 v 15.750005 h -4.801 V 74.582375 h 10 c 5.25,0 8.801,3.55 8.801,8.95 0,4 -1.65,6.9 -4.801,8.1 l 4.801,16.450005 h -4.951 z m -4.1,-28.800005 h -4.949 v 8.45 h 4.949 c 2.801,0 4.35,-1.5 4.35,-4.2 0,-2.599 -1.75,-4.25 -4.35,-4.25 z"
   id="path36"
   inkscape:connector-curvature="0"
   style="fill:#000000;stroke:none" />
<path
   d="m 194.40075,92.933375 v 15.150005 h -4.799 V 92.933375 l -8.25,-18.35 h 5.049 l 5.65,12.1 5.551,-12.1 h 5.148 l -8.349,18.35 z"
   id="path38"
   inkscape:connector-curvature="0"
   style="fill:#000000;stroke:none" />
<path
   d="m 97.780748,212.91938 -2.351,-9.15 h -7.199 l -2.2,9.15 h -4.85 l 8.35,-33.5 h 4.7 l 8.350002,33.5 h -4.800002 z m -6,-23.5 -2.35,9.649 h 4.8 l -2.45,-9.649 z"
   id="path40"
   inkscape:connector-curvature="0"
   style="fill:#000000;stroke:none" />
<path
   d="m 122.92875,212.91938 v -15.149 h -9.2 v 15.149 h -4.8 v -33.5 h 4.8 v 13.649 h 9.2 v -13.649 h 4.8 v 33.5 h -4.8 z"
   id="path42"
   inkscape:connector-curvature="0"
   style="fill:#000000;stroke:none" />
<path
   d="m 136.77775,212.91938 v -33.5 h 15.749 v 4.7 h -10.949 v 8.449 h 6.949 v 4.601 h -6.949 v 11.05 h 12.25 v 4.7 h -17.05 z"
   id="path44"
   inkscape:connector-curvature="0"
   style="fill:#000000;stroke:none" />
<path
   d="m 175.22575,212.91938 -2.35,-9.15 h -7.199 l -2.2,9.15 h -4.851 l 8.351,-33.5 h 4.7 l 8.35,33.5 h -4.801 z m -6,-23.5 -2.35,9.649 h 4.801 l -2.451,-9.649 z"
   id="path46"
   inkscape:connector-curvature="0"
   style="fill:#000000;stroke:none" />
<path
   d="m 200.37375,211.36938 c -1.199,1.1 -2.85,1.55 -4.699,1.55 h -9.3 v -33.5 h 8.55 c 2.85,0 4.25,0.351 5.449,1.3 2,1.4 3.4,4 4,7.4 0.45,2.449 0.801,5.4 0.801,8 0,7.75 -1.551,12.7 -4.801,15.25 z m -0.849,-23.85 c -0.8,-2.351 -2.199,-3.4 -4.35,-3.4 h -4 v 24.1 h 4 c 2.85,0 4.35,-2.25 4.85,-4.8 0.2,-2.15 0.45,-4.5 0.45,-7.05 0,-3.801 -0.351,-7.45 -0.95,-8.85 z"
   id="path48"
   inkscape:connector-curvature="0"
   style="fill:#000000;stroke:none" />
</svg>