<?xml version="1.0" encoding="UTF-8" standalone="no"?>
<!-- Generator: Adobe Illustrator 12.0.1, SVG Export Plug-In  -->

<svg
   xmlns:dc="http://purl.org/dc/elements/1.1/"
   xmlns:cc="http://creativecommons.org/ns#"
   xmlns:rdf="http://www.w3.org/1999/02/22-rdf-syntax-ns#"
   xmlns:svg="http://www.w3.org/2000/svg"
   xmlns="http://www.w3.org/2000/svg"
   xmlns:sodipodi="http://sodipodi.sourceforge.net/DTD/sodipodi-0.dtd"
   xmlns:inkscape="http://www.inkscape.org/namespaces/inkscape"
   version="1.1"
   width="286.66125"
   height="286.66476"
   viewBox="-1 0 286.66125 286.66476"
   enable-background="new -1 0 289 288"
   xml:space="preserve"
   id="svg2"
   inkscape:version="0.48.2 r9819"
   sodipodi:docname="AJAX1.svg"><metadata
   id="metadata86"><rdf:RDF><cc:Work
       rdf:about=""><dc:format>image/svg+xml</dc:format><dc:type
         rdf:resource="http://purl.org/dc/dcmitype/StillImage" /></cc:Work></rdf:RDF></metadata><sodipodi:namedview
   pagecolor="#ffffff"
   bordercolor="#666666"
   borderopacity="1"
   objecttolerance="10"
   gridtolerance="10"
   guidetolerance="10"
   inkscape:pageopacity="0"
   inkscape:pageshadow="2"
   inkscape:window-width="1280"
   inkscape:window-height="1004"
   id="namedview84"
   showgrid="false"
   fit-margin-top="0"
   fit-margin-left="0"
   fit-margin-right="0"
   fit-margin-bottom="0"
   inkscape:zoom="2.3177389"
   inkscape:cx="91.198929"
   inkscape:cy="110.23272"
   inkscape:window-x="-8"
   inkscape:window-y="-8"
   inkscape:window-maximized="1"
   inkscape:current-layer="svg2" />
<defs
   id="defs4">
</defs>
<path
   d="M 3.0987498,133.3875 132.37975,4.1055 c 5.471,-5.474 14.421,-5.474 19.894,0 l 129.285,129.282 c 5.47,5.471 5.47,14.423 0,19.889 l -129.285,129.285 c -5.473,5.471 -14.423,5.471 -19.894,0 L 3.0987498,153.2755 c -5.465,-5.465 -5.465,-14.418 0,-19.888 z"
   id="path6"
   style="fill:#ffd033;stroke:none;fill-opacity:1"
   inkscape:connector-curvature="0" />

<path
   clip-rule="evenodd"
   d="M 6.2217498,135.4405 134.44075,7.2205 c 4.339,-4.339 11.442,-4.339 15.785,0 l 128.215,128.22 c 4.343,4.343 4.343,11.438 0,15.777 l -128.215,128.224 c -4.343,4.336 -11.446,4.336 -15.785,0 L 6.2217498,151.2175 c -4.339,-4.339 -4.339,-11.435 0,-15.777"
   id="path10"
   inkscape:connector-curvature="0"
   style="fill-rule:evenodd;fill:#000000;stroke:none" />
<path
   clip-rule="evenodd"
   d="m 10.22475,139.3905 128.162,-128.162 c 2.162,-2.169 5.724,-2.169 7.889,0 l 128.16,128.162 c 2.166,2.166 2.166,5.716 0,7.883 l -128.16,128.161 c -2.165,2.168 -5.727,2.168 -7.889,0 l -128.162,-128.161 c -2.1660002,-2.167 -2.1660002,-5.717 0,-7.883"
   id="path12"
   inkscape:connector-curvature="0"
   style="fill:#ffd033;fill-rule:evenodd;stroke:none;fill-opacity:1" />
<path
   d="m 82.39275,106.0335 v 30.518 h -5.096 v -30.518 h -6.408 v -4.675 h 17.912 v 4.675 h -6.408 z"
   id="path14"
   inkscape:connector-curvature="0"
   style="fill:#000000;stroke:none" />
<path
   d="m 108.18375,136.5515 -4.676,-16.546 h -4.832 v 16.546 h -5.043 v -35.193 h 10.506 c 5.516,0 9.245,3.729 9.245,9.402 0,4.202 -1.733,7.249 -5.043,8.509 l 5.043,17.281 h -5.2 z m -4.308,-30.256 h -5.2 v 8.877 h 5.2 c 2.941,0 4.57,-1.576 4.57,-4.412 10e-4,-2.731 -1.838,-4.465 -4.57,-4.465 z"
   id="path16"
   inkscape:connector-curvature="0"
   style="fill:#000000;stroke:none" />
<path
   d="m 137.70275,132.2445 c -1.733,2.836 -5.043,4.938 -8.404,4.938 -3.467,0 -6.881,-1.996 -8.614,-4.938 -0.998,-1.891 -1.366,-3.362 -1.366,-6.198 v -24.688 h 5.043 v 25.318 c 0,3.309 1.996,5.568 4.938,5.568 2.731,0 4.728,-2.259 4.728,-5.568 v -25.318 h 5.043 v 24.688 c -0.001,2.836 -0.37,4.307 -1.368,6.198 z"
   id="path18"
   inkscape:connector-curvature="0"
   style="fill:#000000;stroke:none" />
<path
   d="m 160.70975,110.7605 c -0.525,-3.467 -1.891,-5.095 -4.202,-5.095 -4.097,0 -5.567,3.204 -5.567,12.344 0,10.138 1.733,14.235 6.04,14.235 2.941,0 3.729,-2.469 3.729,-5.095 h 5.043 c -0.105,5.831 -3.835,10.033 -8.772,10.033 -7.512,0 -10.873,-6.041 -10.873,-19.015 0,-11.398 3.572,-17.439 10.506,-17.439 2.836,0 5.305,1.261 6.934,3.572 1.313,1.733 1.838,3.257 2.206,6.461 h -5.044 z"
   id="path20"
   inkscape:connector-curvature="0"
   style="fill:#000000;stroke:none" />
<path
   d="m 187.23575,136.5515 -6.198,-17.176 -3.204,5.936 v 11.241 h -5.042 v -35.193 h 5.042 v 14.077 l 8.037,-14.077 h 5.83 l -7.301,12.344 8.142,22.849 h -5.306 z"
   id="path22"
   inkscape:connector-curvature="0"
   style="fill:#000000;stroke:none" />
<path
   d="m 203.99175,137.1815 c -6.198,0 -9.875,-5.2 -9.875,-10.978 h 4.938 c 0,2.941 1.471,6.041 4.938,6.041 2.731,0 4.938,-2.469 4.938,-5.305 0,-1.996 -0.735,-3.467 -2.837,-5.095 -0.735,-0.735 1.261,0.63 -5.936,-4.202 -2.836,-1.943 -4.307,-4.675 -4.307,-7.774 0,-5.042 3.939,-9.14 8.981,-9.14 4.99,0 8.772,3.834 8.93,9.14 h -4.832 c -0.105,-2.469 -1.839,-4.044 -4.098,-4.044 -2.311,0 -4.149,1.733 -4.149,4.044 0,1.733 0.735,2.731 3.31,4.202 6.775,3.939 9.77,7.774 9.77,12.869 -0.001,5.672 -4.36,10.242 -9.771,10.242 z"
   id="path24"
   inkscape:connector-curvature="0"
   style="fill:#000000;stroke:none" />
<path
   d="m 54.02875,184.3095 v -35.627 h 16.75 v 4.998 h -11.646 v 8.986 h 7.392 v 4.893 h -7.392 v 11.752 h 13.028 v 4.998 h -18.132 z"
   id="path26"
   inkscape:connector-curvature="0"
   style="fill:#000000;stroke:none" />
<path
   d="m 93.48475,184.3095 -11.008,-23.876 v 23.876 h -5.104 v -35.627 h 5.104 l 9.784,21.376 v -21.376 h 5.105 v 35.627 h -3.881 z"
   id="path28"
   inkscape:connector-curvature="0"
   style="fill:#000000;stroke:none" />
<path
   d="m 113.21175,153.4145 v 30.895 h -5.158 v -30.895 h -6.487 v -4.732 h 18.133 v 4.732 h -6.488 z"
   id="path30"
   inkscape:connector-curvature="0"
   style="fill:#000000;stroke:none" />
<path
   d="m 123.79375,184.3095 v -35.627 h 16.75 v 4.998 h -11.646 v 8.986 h 7.392 v 4.893 h -7.392 v 11.752 h 13.028 v 4.998 h -18.132 z"
   id="path32"
   inkscape:connector-curvature="0"
   style="fill:#000000;stroke:none" />
<path
   d="m 161.86675,184.3095 -4.732,-16.75 h -4.893 v 16.75 h -5.104 v -35.627 h 10.635 c 5.584,0 9.359,3.775 9.359,9.518 0,4.255 -1.755,7.339 -5.104,8.615 l 5.104,17.494 h -5.265 z m -4.361,-30.629 h -5.265 v 8.986 h 5.265 c 2.978,0 4.626,-1.595 4.626,-4.467 0,-2.764 -1.86,-4.519 -4.626,-4.519 z"
   id="path34"
   inkscape:connector-curvature="0"
   style="fill:#000000;stroke:none" />
<path
   d="m 172.34175,184.3095 v -35.627 h 4.999 v 35.627 h -4.999 z"
   id="path36"
   inkscape:connector-curvature="0"
   style="fill:#000000;stroke:none" />
<path
   d="m 200.52475,184.3095 -11.008,-23.876 v 23.876 h -5.104 v -35.627 h 5.104 l 9.785,21.376 v -21.376 h 5.104 v 35.627 h -3.881 z"
   id="path38"
   inkscape:connector-curvature="0"
   style="fill:#000000;stroke:none" />
<path
   d="m 229.61175,179.9485 c -1.383,3.084 -4.254,4.998 -7.87,4.998 -4.254,0 -7.392,-2.127 -9.146,-6.114 -1.116,-2.659 -1.86,-7.657 -1.86,-12.284 0,-4.998 0.372,-8.614 1.648,-12.018 1.223,-3.722 4.839,-6.487 8.986,-6.487 5.104,0 8.986,3.775 9.253,9.04 h -5.105 c -0.159,-2.393 -1.755,-4.041 -4.254,-4.041 -1.755,0 -3.138,0.903 -4.041,2.658 -0.957,1.755 -1.596,5.743 -1.596,9.997 0,2.978 0.266,6.115 0.744,8.88 0.745,3.457 2.5,5.371 5.265,5.371 2.605,0 3.882,-1.755 3.882,-5.53 v -2.34 h -4.041 v -4.998 h 9.146 v 7.338 c -0.001,2.499 -0.267,4.041 -1.011,5.53 z"
   id="path40"
   inkscape:connector-curvature="0"
   style="fill:#000000;stroke:none" />
<path
   d="m 107.36275,57.5625 v 8.987 h 7.125 v 4.892 h -7.125 v 16.75 h -5.105 v -35.628 h 18.133 v 4.999 h -13.028 z"
   id="path42"
   inkscape:connector-curvature="0"
   style="fill:#000000;stroke:none" />
<path
   d="m 125.38875,88.1905 v -35.627 h 4.999 v 35.627 h -4.999 z"
   id="path44"
   inkscape:connector-curvature="0"
   style="fill:#000000;stroke:none" />
<path
   d="m 152.98675,88.1905 -4.732,-16.75 h -4.893 v 16.75 h -5.104 v -35.627 h 10.635 c 5.584,0 9.359,3.775 9.359,9.519 0,4.254 -1.755,7.338 -5.104,8.614 l 5.104,17.495 h -5.265 z m -4.361,-30.628 h -5.265 v 8.987 h 5.265 c 2.978,0 4.627,-1.595 4.627,-4.467 0,-2.766 -1.861,-4.52 -4.627,-4.52 z"
   id="path46"
   inkscape:connector-curvature="0"
   style="fill:#000000;stroke:none" />
<path
   d="m 164.25975,88.1905 v -35.627 h 16.75 v 4.999 h -11.645 v 8.987 h 7.392 v 4.892 h -7.392 v 11.751 h 13.028 v 4.999 h -18.133 z"
   id="path48"
   inkscape:connector-curvature="0"
   style="fill:#000000;stroke:none" />
<path
   d="m 92.59575,213.7645 h -1.585 l -1.787,-7.25 -1.736,7.25 h -1.585 l -1.669,-11.297 h 1.82 l 0.877,5.952 1.434,-5.952 h 1.736 l 1.467,5.952 0.877,-5.952 h 1.821 l -1.67,11.297 z"
   id="path50"
   inkscape:connector-curvature="0"
   style="fill:#000000;stroke:none" />
<path
   d="m 103.52175,213.7645 v -4.923 h -4.114 v 4.923 h -1.787 v -11.297 h 1.787 v 4.553 h 4.114 v -4.553 h 1.787 v 11.297 h -1.787 z"
   id="path52"
   inkscape:connector-curvature="0"
   style="fill:#000000;stroke:none" />
<path
   d="m 109.69275,213.7645 v -11.297 h 6.66 v 1.787 h -4.873 v 2.766 h 3.288 v 1.821 h -3.288 v 3.102 h 5.227 v 1.821 h -7.014 z"
   id="path54"
   inkscape:connector-curvature="0"
   style="fill:#000000;stroke:none" />
<path
   d="m 126.40075,213.7645 -4.315,-7.654 v 7.654 h -1.788 v -11.297 h 1.788 l 4.113,7.217 v -7.217 h 1.787 v 11.297 h -1.585 z"
   id="path56"
   inkscape:connector-curvature="0"
   style="fill:#000000;stroke:none" />
<path
   d="m 148.97675,213.0895 c -0.624,0.557 -1.5,0.877 -2.462,0.877 -1.938,0 -3.355,-1.146 -4.114,-2.866 l 1.704,-0.624 c 0.472,1.063 1.349,1.67 2.41,1.67 1.046,0 1.754,-0.726 1.754,-1.67 0,-1.5 -1.754,-1.753 -3.221,-2.344 -0.674,-0.27 -2.175,-0.943 -2.175,-2.815 0,-2.209 1.501,-3.052 3.524,-3.052 1.584,0 2.663,0.91 3.22,2.31 l -1.585,0.473 c 0,0 -0.404,-0.961 -1.669,-0.995 -0.051,0 -0.084,0 -0.118,0 -0.775,0 -1.618,0.304 -1.618,1.197 0,0.034 0,0.084 0,0.118 0.151,2.091 5.463,0.708 5.463,5.143 0,1.027 -0.405,1.937 -1.113,2.578 z"
   id="path58"
   inkscape:connector-curvature="0"
   style="fill:#000000;stroke:none" />
<path
   d="m 153.25875,213.7645 v -11.297 h 1.821 v 11.297 h -1.821 z"
   id="path60"
   inkscape:connector-curvature="0"
   style="fill:#000000;stroke:none" />
<path
   d="m 162.91975,213.9665 c -1.703,0 -2.697,-0.641 -3.372,-2.057 -0.472,-0.995 -0.742,-2.395 -0.742,-3.777 0,-1.82 0.506,-3.607 1.265,-4.603 0.675,-0.826 1.619,-1.265 2.9,-1.265 1.736,0 2.765,0.726 3.523,2.495 l -1.702,0.675 c -0.473,-0.978 -0.961,-1.349 -1.821,-1.349 -0.91,0 -1.518,0.404 -1.905,1.399 -0.286,0.674 -0.438,1.703 -0.438,2.646 0,1.197 0.202,2.378 0.557,3.103 0.354,0.624 0.877,0.911 1.551,0.911 1.146,0 1.973,-0.726 1.973,-1.754 v -0.472 h -2.057 v -1.788 h 3.844 v 2.26 c -0.002,2.058 -1.502,3.576 -3.576,3.576 z"
   id="path62"
   inkscape:connector-curvature="0"
   style="fill:#000000;stroke:none" />
<path
   d="m 176.32475,213.7645 -4.316,-7.654 v 7.654 h -1.787 v -11.297 h 1.787 l 4.114,7.217 v -7.217 h 1.787 v 11.297 h -1.585 z"
   id="path64"
   inkscape:connector-curvature="0"
   style="fill:#000000;stroke:none" />
<path
   d="m 188.53175,213.7645 -1.113,-3.17 h -3.523 l -1.112,3.17 h -1.905 l 3.895,-11.297 h 1.771 l 3.895,11.297 h -1.908 z m -2.85,-8.16 -1.163,3.17 h 2.259 l -1.096,-3.17 z"
   id="path66"
   inkscape:connector-curvature="0"
   style="fill:#000000;stroke:none" />
<path
   d="m 193.40375,213.7645 v -11.297 h 1.787 v 9.628 h 5.227 v 1.669 h -7.014 z"
   id="path68"
   inkscape:connector-curvature="0"
   style="fill:#000000;stroke:none" />
<path
   d="m 108.09475,222.2885 v 2.659 h 3.161 v 1.75 h -3.161 v 4.734 h -1.719 v -10.862 h 6.744 v 1.719 h -5.025 z"
   id="path70"
   inkscape:connector-curvature="0"
   style="fill:#000000;stroke:none" />
<path
   d="m 116.66975,231.4325 v -10.862 h 1.719 v 9.257 h 5.025 v 1.605 h -6.744 z"
   id="path72"
   inkscape:connector-curvature="0"
   style="fill:#000000;stroke:none" />
<path
   d="m 133.36875,231.4325 -1.07,-3.048 h -3.389 l -1.07,3.048 h -1.832 l 3.745,-10.862 h 1.702 l 3.745,10.862 h -1.831 z m -2.74,-7.847 -1.119,3.048 h 2.172 l -1.053,-3.048 z"
   id="path74"
   inkscape:connector-curvature="0"
   style="fill:#000000;stroke:none" />
<path
   d="m 144.34475,230.7835 c -0.602,0.535 -1.444,0.843 -2.368,0.843 -1.864,0 -3.226,-1.103 -3.956,-2.756 l 1.637,-0.6 c 0.454,1.021 1.297,1.604 2.318,1.604 1.005,0 1.686,-0.697 1.686,-1.604 0,-1.443 -1.686,-1.687 -3.097,-2.254 -0.648,-0.259 -2.091,-0.907 -2.091,-2.707 0,-2.124 1.443,-2.935 3.389,-2.935 1.524,0 2.561,0.876 3.096,2.221 l -1.523,0.454 c 0,0 -0.389,-0.924 -1.605,-0.956 -0.049,0 -0.081,0 -0.114,0 -0.746,0 -1.556,0.292 -1.556,1.15 0,0.033 0,0.081 0,0.114 0.146,2.01 5.252,0.681 5.252,4.944 0,0.991 -0.388,1.866 -1.068,2.482 z"
   id="path76"
   inkscape:connector-curvature="0"
   style="fill:#000000;stroke:none" />
<path
   d="m 154.86475,231.4325 v -4.734 h -3.955 v 4.734 h -1.719 v -10.862 h 1.719 v 4.378 h 3.955 v -4.378 h 1.719 v 10.862 h -1.719 z"
   id="path78"
   inkscape:connector-curvature="0"
   style="fill:#000000;stroke:none" />
<path
   d="m 161.12175,231.4325 v -10.862 h 6.404 v 1.719 h -4.686 v 2.659 h 3.162 v 1.75 h -3.162 v 2.983 h 5.025 v 1.751 h -6.743 z"
   id="path80"
   inkscape:connector-curvature="0"
   style="fill:#000000;stroke:none" />
<path
   d="m 177.20375,230.7835 c -0.6,0.535 -1.441,0.843 -2.367,0.843 -1.863,0 -3.225,-1.103 -3.955,-2.756 l 1.639,-0.6 c 0.453,1.021 1.297,1.604 2.316,1.604 1.006,0 1.688,-0.697 1.688,-1.604 0,-1.443 -1.688,-1.687 -3.098,-2.254 -0.648,-0.259 -2.09,-0.907 -2.09,-2.707 0,-2.124 1.441,-2.935 3.387,-2.935 1.525,0 2.563,0.876 3.098,2.221 l -1.523,0.454 c 0,0 -0.391,-0.924 -1.605,-0.956 -0.049,0 -0.082,0 -0.113,0 -0.746,0 -1.557,0.292 -1.557,1.15 0,0.033 0,0.081 0,0.114 0.146,2.01 5.252,0.681 5.252,4.944 -10e-4,0.991 -0.39,1.866 -1.072,2.482 z"
   id="path82"
   inkscape:connector-curvature="0"
   style="fill:#000000;stroke:none" />
</svg>