<?xml version="1.0" encoding="UTF-8" standalone="no"?>
<svg
   xmlns:dc="http://purl.org/dc/elements/1.1/"
   xmlns:cc="http://creativecommons.org/ns#"
   xmlns:rdf="http://www.w3.org/1999/02/22-rdf-syntax-ns#"
   xmlns:svg="http://www.w3.org/2000/svg"
   xmlns="http://www.w3.org/2000/svg"
   xmlns:sodipodi="http://sodipodi.sourceforge.net/DTD/sodipodi-0.dtd"
   xmlns:inkscape="http://www.inkscape.org/namespaces/inkscape"
   width="89.985161"
   height="90.000931"
   viewBox="0 0 253.95815 254.00261"
   version="1.1"
   id="svg2"
   inkscape:version="0.48.2 r9819"
   sodipodi:docname="AJAX1.svg">
  <metadata
     id="metadata62">
    <rdf:RDF>
      <cc:Work
         rdf:about="">
        <dc:format>image/svg+xml</dc:format>
        <dc:type
           rdf:resource="http://purl.org/dc/dcmitype/StillImage" />
        <dc:title />
      </cc:Work>
    </rdf:RDF>
  </metadata>
  <defs
     id="defs60" />
  <sodipodi:namedview
     pagecolor="#ffffff"
     bordercolor="#666666"
     borderopacity="1"
     objecttolerance="10"
     gridtolerance="10"
     guidetolerance="10"
     inkscape:pageopacity="0"
     inkscape:pageshadow="2"
     inkscape:window-width="1280"
     inkscape:window-height="1004"
     id="namedview58"
     showgrid="false"
     fit-margin-top="0"
     fit-margin-left="0"
     fit-margin-right="0"
     fit-margin-bottom="0"
     inkscape:zoom="5.8194445"
     inkscape:cx="3.4260201"
     inkscape:cy="37.332999"
     inkscape:window-x="-8"
     inkscape:window-y="-8"
     inkscape:window-maximized="1"
     inkscape:current-layer="svg2"
     showguides="true"
     inkscape:guide-bbox="true" />
  <!-- draw the bicycle -->
  <!-- RIGHT -->
  <!-- LANE -->
  <!-- ONLY -->
  <path
     inkscape:connector-curvature="0"
     d="M 3.3615264,118.7608 118.71636,3.4025018 c 4.54025,-4.5367 11.94153,-4.5367 16.48178,0 L 250.55296,118.7608 c 4.54025,4.5367 4.54025,11.938 0,16.4783 L 135.19814,250.5974 c -4.54025,4.5403 -11.94153,4.5403 -16.48178,0 L 3.3615264,135.2391 c -4.48027,-4.4803 -4.4838,-11.9945 0,-16.4783"
     style="fill:#fecf33;fill-opacity:1;fill-rule:nonzero;stroke:none"
     id="path3260" />
  <path
     inkscape:connector-curvature="0"
     d="M 5.6764564,121.0211 120.97837,5.7227018 c 3.27025,-3.2702 8.68892,-3.2632 11.95917,0 L 248.23591,121.0211 c 3.27378,3.2738 3.25967,8.6819 0,11.9592 L 132.93754,248.2786 c -3.27731,3.2632 -8.68187,3.2703 -11.95917,0 L 5.6764564,132.9803 c -3.25614,-3.2773 -3.27025,-8.6854 0,-11.9592"
     style="fill:#000000;fill-opacity:1;fill-rule:evenodd;stroke:none"
     id="path3272" />
  <path
     inkscape:connector-curvature="0"
     d="M 8.9220164,124.1837 124.13926,8.9665018 c 1.524,-1.5734 4.11339,-1.5734 5.63739,0 L 244.99036,124.1837 c 1.57339,1.5205 1.57339,4.1134 0,5.6339 L 129.77665,245.0313 c -1.524,1.5769 -4.11692,1.5804 -5.63739,0 L 8.9220164,129.8176 c -1.56986,-1.5205 -1.56986,-4.1134 0,-5.6339"
     style="fill:#fecf33;fill-opacity:1;fill-rule:evenodd;stroke:none"
     id="path3276" />
  <path
     style="fill:#000000;fill-opacity:1;fill-rule:evenodd;stroke:none"
     d="m 125.50071,100.27707 0,2.46944 1.4993,0 0,8.64306 -1.76389,0 0,2.64583 9.43681,0 0,1.94028 -12.17083,0 0,-13.49375 -10.40695,0 0,2.82222 -3.61597,0.17639 c -1.55575,0.0635 -3.2385,-0.0107 -4.49792,1.05834 -1.25589,1.07244 -1.56986,2.6917 -1.76389,4.23333 l -0.88194,7.05556 -0.52917,-5.99723 c -0.10231,-1.11831 -0.5468,-2.40947 -1.499306,-3.0868 -0.384528,-0.26811 -0.800805,-0.4445 -1.234722,-0.61736 0.342194,-0.10936 0.694972,-0.30692 0.970139,-0.52917 0.395111,-0.30692 0.6985,-0.60324 0.881944,-1.05833 0.151665,-0.3563 0.141085,-0.76906 0.176385,-1.14653 l 2.02848,1.4993 0.26458,-0.52916 -1.85208,-1.49931 c -0.15875,-0.41981 -0.38101,-0.84666 -0.617365,-1.23472 -0.462139,-0.78317 -1.128889,-1.47108 -1.852083,-2.02847 -0.546806,-0.41981 -1.17475,-0.73026 -1.852084,-0.88195 -0.398639,-0.0847 -0.814916,-0.18339 -1.234722,-0.17639 l 0,0.0882 -0.264583,2.02847 -1.322917,0 -1.675695,0 0,0.35278 c 0.225778,0.0388 0.472723,0.0529 0.705556,0.0882 0.194028,0.0175 0.338667,0.067 0.529167,0.0882 0.426861,0.0635 0.892527,0.10227 1.322916,0.17639 -0.236361,0.52563 -0.444497,1.11125 -0.529166,1.67569 -0.109361,0.75142 0.09172,1.55575 0.617361,2.11667 0.419805,0.44097 0.963083,0.77611 1.499306,1.05833 -0.359834,0.1905 -0.754945,0.3563 -1.058334,0.61736 -0.366889,0.3175 -0.694972,0.66322 -0.970139,1.05834 -0.239889,0.34925 -0.377472,0.75494 -0.529167,1.14652 -0.15875,0.51506 -0.324555,0.97719 -0.440972,1.49931 -0.239889,1.04775 -0.395111,2.12372 -0.617361,3.175 l -0.440972,2.38125 -5.468056,0 -1.322917,-6.17361 0.440972,-10.49514 -1.940278,0 -1.234722,9.61319 -28.927781,3.70417 c -0.490361,0.06 -0.938389,0.10939 -1.411111,0.17639 -0.47625,0.06 -0.9525,0.14111 -1.322917,0.44097 -0.497417,0.39511 -0.9137,1.0407 -0.970139,1.6757 l -1.499306,16.31597 c -0.05292,0.61736 -0.321027,1.17828 -0.79375,1.5875 -0.469194,0.39163 -1.068916,0.45507 -1.675694,0.44097 l -4.14514,-0.0882 0,4.7625 14.287502,0 c -0.41275,1.92617 -0.751417,3.79941 -0.264584,5.73264 0.677334,2.63877 2.30364,4.96005 4.586112,6.43819 1.569861,1.02658 3.559528,1.27001 5.379862,1.49931 2.088444,-0.16933 3.937,-0.40923 5.732639,-1.49931 2.391834,-1.43228 4.120445,-3.77472 4.850695,-6.43819 0.511528,-1.86267 0.112889,-3.88761 -0.264583,-5.73264 l 79.63959,0 c -0.5362,1.92969 -1.03011,3.82764 -0.61736,5.82083 0.56444,2.71287 2.29305,5.05884 4.58611,6.61459 1.58044,1.07245 3.53483,1.36172 5.37986,1.5875 2.12372,-0.1905 4.00756,-0.43392 5.82084,-1.5875 2.36361,-1.50989 3.97933,-3.98639 4.58611,-6.70278 0.42686,-1.90853 -0.0317,-3.89114 -0.52917,-5.73264 l 38.27639,0 0,-4.7625 -3.96875,0 -4.58611,-19.31459 -11.1125,0 0,-1.94028 11.1125,0 0,-2.64583 -2.73403,0.0882 -0.0882,-8.81945 2.82222,0 0,-2.38125 -78.93403,0 z m 3.0868,2.46944 6.08542,0 0,8.64306 -6.08542,0 0,-8.64306 z m 7.9375,0 5.99723,0 0,8.64306 -5.99723,0 0,-8.64306 z m 8.20209,0 5.99722,0 0,8.64306 -5.99722,0 0,-8.64306 z m 8.20208,0 5.99722,0 0,8.64306 -5.99722,0 0,-8.64306 z m 8.11389,0 5.99722,0 0,8.64306 -5.99722,0 0,-8.64306 z m 8.11389,0 5.99722,0 0,8.64306 -5.99722,0 0,-8.64306 z m 8.0257,0 5.99722,0 0,8.64306 -5.99722,0 0,-8.64306 z m 8.11389,0 5.99722,0 0,8.64306 -5.99722,0 0,-8.64306 z m 8.20208,0 5.99722,0 0,8.64306 -5.99722,0 0,-8.64306 z m -56.97362,11.28889 55.12154,0 0,1.94028 -55.12154,0 0,-1.94028 z"
     id="path3220"
     inkscape:connector-curvature="0" />
</svg>
