<?xml version="1.0" encoding="UTF-8" standalone="no"?>
<!-- Created with Inkscape (http://www.inkscape.org/) -->

<svg
   xmlns:dc="http://purl.org/dc/elements/1.1/"
   xmlns:cc="http://creativecommons.org/ns#"
   xmlns:rdf="http://www.w3.org/1999/02/22-rdf-syntax-ns#"
   xmlns:svg="http://www.w3.org/2000/svg"
   xmlns="http://www.w3.org/2000/svg"
   xmlns:sodipodi="http://sodipodi.sourceforge.net/DTD/sodipodi-0.dtd"
   xmlns:inkscape="http://www.inkscape.org/namespaces/inkscape"
   width="49.251999in"
   height="49.251999in"
   viewBox="0 0 1251.0008 1251.0008"
   version="1.1"
   id="svg7045"
   inkscape:version="0.92.2 (5c3e80d, 2017-08-06)"
   sodipodi:docname="88.svg">
  <defs
     id="defs7039" />
  <sodipodi:namedview
     id="base"
     pagecolor="#ffffff"
     bordercolor="#666666"
     borderopacity="1.0"
     inkscape:pageopacity="0.0"
     inkscape:pageshadow="2"
     inkscape:zoom="0.14829203"
     inkscape:cx="3195.0759"
     inkscape:cy="1757.3409"
     inkscape:document-units="in"
     inkscape:current-layer="layer1"
     showgrid="false"
     units="in"
     fit-margin-top="0"
     fit-margin-left="0"
     fit-margin-right="0"
     fit-margin-bottom="0"
     inkscape:window-width="1920"
     inkscape:window-height="1057"
     inkscape:window-x="-8"
     inkscape:window-y="-8"
     inkscape:window-maximized="1" />
  <metadata
     id="metadata7042">
    <rdf:RDF>
      <cc:Work
         rdf:about="">
        <dc:format>image/svg+xml</dc:format>
        <dc:type
           rdf:resource="http://purl.org/dc/dcmitype/StillImage" />
        <dc:title></dc:title>
      </cc:Work>
    </rdf:RDF>
  </metadata>
  <g
     inkscape:label="Layer 1"
     inkscape:groupmode="layer"
     id="layer1"
     transform="translate(-7.6875851e-7,954.00082)">
    <rect
       style="opacity:1;fill:#ffd400;fill-opacity:1;stroke:none;stroke-width:36.29109955;stroke-linejoin:round;stroke-miterlimit:4;stroke-dasharray:none;stroke-opacity:1"
       id="rect2313"
       width="914.40002"
       height="914.40002"
       x="-667.21063"
       y="-1131.7772"
       rx="57.150002"
       ry="57.150002"
       transform="matrix(-0.70710678,-0.70710678,-0.70710678,0.70710678,0,0)" />
    <rect
       ry="41.274998"
       rx="41.274998"
       y="-1115.9021"
       x="-651.33557"
       height="882.64996"
       width="882.64996"
       id="rect2315"
       style="opacity:1;fill:#000000;fill-opacity:1;stroke:none;stroke-width:35.0309906;stroke-linejoin:round;stroke-miterlimit:4;stroke-dasharray:none;stroke-opacity:1"
       transform="matrix(-0.70710678,-0.70710678,-0.70710678,0.70710678,0,0)" />
    <rect
       ry="19.049999"
       rx="19.049999"
       y="-1093.6772"
       x="-629.11053"
       height="838.20001"
       width="838.20001"
       id="rect2317"
       style="opacity:1;fill:#ffd400;fill-opacity:1;stroke:none;stroke-width:33.26684189;stroke-linejoin:round;stroke-miterlimit:4;stroke-dasharray:none;stroke-opacity:1"
       transform="matrix(-0.70710678,-0.70710678,-0.70710678,0.70710678,0,0)" />
    <path
       inkscape:connector-curvature="0"
       style="fill:#000000;stroke:none;stroke-width:4.56656504"
       d="m 202.37123,-378.78508 v 36.0119 h 42.82521 v 23.7143 h -42.82521 v 64.1236 H 179.0953 v -147.1302 h 91.34966 v 23.2804 z"
       id="path12" />
    <path
       inkscape:connector-curvature="0"
       style="fill:#000000;stroke:none;stroke-width:4.56656504"
       d="m 303.18705,-254.93528 v -147.1302 h 23.27576 v 125.3888 h 68.07388 v 21.7414 z"
       id="path14" />
    <path
       inkscape:connector-curvature="0"
       style="fill:#000000;stroke:none;stroke-width:4.56656504"
       d="m 512.46368,-268.76739 c -8.34771,11.19731 -20.20702,16.4671 -35.57812,16.4671 -20.64094,0 -33.59624,-8.34309 -42.37768,-26.35369 -6.15127,-12.5169 -10.32512,-32.0618 -10.32512,-49.6294 0,-24.1525 6.15127,-45.8941 16.03334,-59.9498 8.78592,-11.1973 20.64544,-16.4671 37.55073,-16.4671 18.66815,0 31.62345,8.343 40.84346,26.3536 6.15109,12.9553 9.88208,31.6235 9.88208,50.0678 0,23.28039 -5.70822,46.5516 -16.02869,59.51149 z m -16.03317,-100.79319 c -4.61224,-7.6901 -10.32047,-10.7588 -19.10657,-11.4209 -0.44357,0 -0.87677,0 -1.32035,0 -10.53965,0 -17.56754,5.7127 -22.39449,18.2251 -3.73081,8.7861 -5.71272,22.1752 -5.71272,34.4775 0,15.5903 3.0779,31.6235 8.78612,40.84349 4.61222,7.69001 10.75883,11.42091 20.20237,11.42091 10.75883,0 17.57219,-5.7128 22.61835,-18.6681 3.07769,-7.6855 5.7127,-22.1753 5.7127,-33.5963 0,-16.4715 -3.07787,-31.3996 -8.7861,-41.2817 z"
       id="path16" />
    <path
       inkscape:connector-curvature="0"
       style="fill:#000000;stroke:none;stroke-width:4.56656504"
       d="m 657.17803,-268.76739 c -8.34305,11.19731 -20.20236,16.4671 -35.57346,16.4671 -20.64544,0 -33.59624,-8.34309 -42.38234,-26.35369 -6.15108,-12.5169 -10.32047,-32.0618 -10.32047,-49.6294 0,-24.1525 6.15127,-45.8941 16.0287,-59.9498 8.7861,-11.1973 20.64541,-16.4671 37.55538,-16.4671 18.66368,0 31.61898,8.343 40.84346,26.3536 6.14662,12.9553 9.88209,31.6235 9.88209,50.0678 -0.005,23.28039 -5.71736,46.5516 -16.03336,59.51149 z m -16.03317,-100.79319 c -4.61224,-7.6901 -10.32046,-10.7588 -19.10656,-11.4209 -0.43839,0 -0.87681,0 -1.31517,0 -10.54415,0 -17.56756,5.7127 -22.39899,18.2251 -3.73081,8.7861 -5.70822,22.1752 -5.70822,34.4775 0,15.5903 3.0734,31.6235 8.78609,40.84349 4.61225,7.69001 10.75439,11.42091 20.20256,11.42091 10.75885,0 17.56754,-5.7128 22.61817,-18.6681 3.0734,-7.6855 5.70822,-22.1753 5.70822,-33.5963 0,-16.4715 -3.07787,-31.3996 -8.7861,-41.2817 z"
       id="path18" />
    <path
       inkscape:connector-curvature="0"
       style="fill:#000000;stroke:none;stroke-width:4.56656504"
       d="m 790.91003,-263.27839 c -5.48904,5.2699 -13.39836,7.9047 -21.07932,8.34311 -1.53956,0 -4.61225,0 -8.34306,0 h -44.80263 v -147.1302 h 47.43746 c 14.93271,0 20.64094,1.5396 28.54561,7.6857 15.3711,13.3983 24.15719,36.6741 24.15719,65.6625 0,29.4271 -9.22451,52.7028 -25.91525,65.43889 z m -9.6584,-109.35999 c -3.73546,-3.5118 -8.7861,-6.1467 -14.93718,-6.1467 h -26.35364 v 100.13559 h 23.2804 c 7.68548,0 12.29304,-1.5395 16.4669,-5.70819 8.78612,-8.7859 13.39834,-24.8193 13.39834,-44.3596 0,-19.7639 -4.61222,-36.231 -11.85482,-43.9211 z"
       id="path20" />
    <path
       inkscape:connector-curvature="0"
       style="fill:#000000;stroke:none;stroke-width:4.56656504"
       d="m 859.86053,-254.93528 v -147.1302 h 86.7419 v 23.2804 h -63.46148 v 36.0119 h 42.82054 v 23.7143 h -42.82054 v 40.40939 h 68.07372 v 23.71421 z"
       id="path22" />
    <path
       inkscape:connector-curvature="0"
       style="fill:#000000;stroke:none;stroke-width:4.56656504"
       d="m 1061.2324,-263.27839 c -5.489,5.2699 -13.3983,7.9047 -21.0792,8.34311 -1.5396,0 -4.6121,0 -8.3431,0 h -44.80276 v -147.1302 h 47.43776 c 14.9325,0 20.6407,1.5396 28.5456,7.6857 15.371,13.3983 24.157,36.6741 24.157,65.6625 0,29.4271 -9.2245,52.7028 -25.9153,65.43889 z m -9.6582,-109.35999 c -3.7355,-3.5118 -8.786,-6.1467 -14.9371,-6.1467 h -26.354 v 100.13559 h 23.2805 c 7.6855,0 12.2933,-1.5395 16.4671,-5.70819 8.7861,-8.7859 13.3984,-24.8193 13.3984,-44.3596 0,-19.7639 -4.6078,-36.231 -11.8549,-43.9211 z"
       id="path24" />
  </g>
</svg>
