<?xml version="1.0" encoding="UTF-8" standalone="no"?>
<!-- Generator: Adobe Illustrator 12.0.1, SVG Export Plug-In  -->

<svg
   xmlns:dc="http://purl.org/dc/elements/1.1/"
   xmlns:cc="http://creativecommons.org/ns#"
   xmlns:rdf="http://www.w3.org/1999/02/22-rdf-syntax-ns#"
   xmlns:svg="http://www.w3.org/2000/svg"
   xmlns="http://www.w3.org/2000/svg"
   xmlns:sodipodi="http://sodipodi.sourceforge.net/DTD/sodipodi-0.dtd"
   xmlns:inkscape="http://www.inkscape.org/namespaces/inkscape"
   version="1.1"
   width="286.66199"
   height="286.66324"
   viewBox="-1 0 286.66199 286.66324"
   enable-background="new -1 0 289 288"
   xml:space="preserve"
   id="svg2"
   inkscape:version="0.48.2 r9819"
   sodipodi:docname="AJAX1.svg"><metadata
   id="metadata30"><rdf:RDF><cc:Work
       rdf:about=""><dc:format>image/svg+xml</dc:format><dc:type
         rdf:resource="http://purl.org/dc/dcmitype/StillImage" /></cc:Work></rdf:RDF></metadata><sodipodi:namedview
   pagecolor="#ffffff"
   bordercolor="#666666"
   borderopacity="1"
   objecttolerance="10"
   gridtolerance="10"
   guidetolerance="10"
   inkscape:pageopacity="0"
   inkscape:pageshadow="2"
   inkscape:window-width="1280"
   inkscape:window-height="1004"
   id="namedview28"
   showgrid="false"
   fit-margin-top="0"
   fit-margin-left="0"
   fit-margin-right="0"
   fit-margin-bottom="0"
   inkscape:zoom="2.3177389"
   inkscape:cx="86.475509"
   inkscape:cy="136.0222"
   inkscape:window-x="-8"
   inkscape:window-y="-8"
   inkscape:window-maximized="1"
   inkscape:current-layer="svg2" />
<defs
   id="defs4">
</defs>
<path
   d="M 3.09875,133.38675 132.37975,4.1047494 c 5.471,-5.473 14.421,-5.473 19.896,0 l 129.283,129.2820006 c 5.471,5.47 5.471,14.423 0,19.89 l -129.283,129.284 c -5.475,5.47 -14.425,5.47 -19.896,0 l -129.281,-129.285 c -5.465,-5.466 -5.465,-14.419 0,-19.889 z"
   id="path6"
   style="fill:#ffd033;stroke:none;fill-opacity:1"
   inkscape:connector-curvature="0" />

<path
   clip-rule="evenodd"
   d="M 6.22175,135.43975 134.44075,7.2207494 c 4.339,-4.339 11.442,-4.339 15.785,0 l 128.215,128.2190006 c 4.343,4.343 4.343,11.438 0,15.777 l -128.215,128.225 c -4.343,4.335 -11.446,4.335 -15.785,0 l -128.219,-128.225 c -4.338,-4.339 -4.338,-11.434 0,-15.777"
   id="path10"
   inkscape:connector-curvature="0"
   style="fill-rule:evenodd;stroke:none;fill:#000000" />
<path
   clip-rule="evenodd"
   d="m 10.22475,139.38975 128.162,-128.160001 c 2.162,-2.1699996 5.724,-2.1699996 7.889,0 l 128.16,128.160001 c 2.165,2.166 2.165,5.716 0,7.883 l -128.16,128.161 c -2.165,2.167 -5.727,2.167 -7.889,0 l -128.162,-128.161 c -2.165,-2.167 -2.165,-5.717 0,-7.883"
   id="path12"
   inkscape:connector-curvature="0"
   style="fill:#ffd033;fill-rule:evenodd;stroke:none;fill-opacity:1" />
<path
   d="m 97.52575,72.893749 v 13.52 h 10.72 v 7.36 h -10.72 v 25.200001 h -7.68 V 65.373749 h 27.28 v 7.52 h -19.6 z"
   id="path14"
   inkscape:connector-curvature="0"
   style="stroke:none;fill:#000000" />
<path
   d="m 152.08475,110.73275 c -2.639,6.32 -6.561,9.2 -12.56,9.2 -6.4,0 -10.16,-2.88 -12.8,-9.2 -2.24,-5.279 -3.04,-10.4 -3.04,-18.640001 0,-8.08 0.8,-13.52 3.04,-18.64 2.8,-6.4 6.56,-9.04 12.8,-9.04 6.16,0 9.921,2.64 12.56,9.2 2.24,5.28 3.041,10.4 3.041,18.48 0,8.241001 -0.801,13.520001 -3.041,18.640001 z m -6,-31.999001 c -1.359,-4.72 -3.36,-6.8 -6.56,-6.8 -3.44,0 -5.52,2.08 -6.8,6.64 -1.28,4.08 -1.68,7.68 -1.68,13.68 0,5.84 0.56,9.200001 1.68,13.520001 1.28,4.561 3.36,6.641 6.8,6.641 3.2,0 5.201,-2.08 6.56,-6.641 1.281,-4.32 1.68,-7.520001 1.68,-13.680001 0,-6 -0.559,-9.44 -1.68,-13.36 z"
   id="path16"
   inkscape:connector-curvature="0"
   style="stroke:none;fill:#000000" />
<path
   d="m 193.28575,112.41375 c -2.08,4.64 -6.4,7.52 -11.84,7.52 -6.4,0 -11.121,-3.2 -13.76,-9.2 -1.682,-4 -2.801,-11.520001 -2.801,-18.480001 0,-7.52 0.561,-12.96 2.48,-18.08 1.84,-5.6 7.279,-9.76 13.52,-9.76 7.68,0 13.52,5.68 13.92,13.6 h -7.68 c -0.24,-3.6 -2.641,-6.08 -6.4,-6.08 -2.641,0 -4.721,1.36 -6.08,4 -1.439,2.64 -2.4,8.64 -2.4,15.04 0,4.48 0.4,9.200001 1.121,13.360001 1.119,5.2 3.76,8.081 7.92,8.081 3.92,0 5.84,-2.641 5.84,-8.32 v -3.52 h -6.08 v -7.520001 h 13.76 v 11.040001 c 0,3.759 -0.4,6.079 -1.52,8.319 z"
   id="path18"
   inkscape:connector-curvature="0"
   style="stroke:none;fill:#000000" />
<path
   d="m 95.32575,200.14875 -3.76,-14.64 h -11.52 l -3.52,14.64 h -7.76 l 13.36,-53.6 h 7.52 l 13.36,53.6 h -7.68 z m -9.6,-37.6 -3.76,15.439 h 7.68 l -3.92,-15.439 z"
   id="path20"
   inkscape:connector-curvature="0"
   style="stroke:none;fill:#000000" />
<path
   d="m 132.52475,200.14875 -7.12,-25.199 h -7.36 v 25.199 h -7.68 v -53.6 h 16 c 8.4,0 14.08,5.68 14.08,14.32 0,6.4 -2.64,11.04 -7.68,12.96 l 7.68,26.319 h -7.92 z m -6.56,-46.081 h -7.92 v 13.521 h 7.92 c 4.48,0 6.96,-2.399 6.96,-6.72 0,-4.16 -2.8,-6.801 -6.96,-6.801 z"
   id="path22"
   inkscape:connector-curvature="0"
   style="stroke:none;fill:#000000" />
<path
   d="m 149.48575,200.14875 v -53.6 h 25.199 v 7.52 h -17.52 v 13.521 h 11.119 v 7.36 h -11.119 v 17.68 h 19.6 v 7.52 h -27.279 z"
   id="path24"
   inkscape:connector-curvature="0"
   style="stroke:none;fill:#000000" />
<path
   d="m 208.20375,200.14875 -3.76,-14.64 h -11.519 l -3.52,14.64 h -7.762 l 13.361,-53.6 h 7.52 l 13.359,53.6 h -7.679 z m -9.599,-37.6 -3.76,15.439 h 7.68 l -3.92,-15.439 z"
   id="path26"
   inkscape:connector-curvature="0"
   style="stroke:none;fill:#000000" />
</svg>