<?xml version="1.0" encoding="UTF-8" standalone="no"?>
<!-- Generator: Adobe Illustrator 12.0.1, SVG Export Plug-In  -->

<svg
   xmlns:dc="http://purl.org/dc/elements/1.1/"
   xmlns:cc="http://creativecommons.org/ns#"
   xmlns:rdf="http://www.w3.org/1999/02/22-rdf-syntax-ns#"
   xmlns:svg="http://www.w3.org/2000/svg"
   xmlns="http://www.w3.org/2000/svg"
   xmlns:sodipodi="http://sodipodi.sourceforge.net/DTD/sodipodi-0.dtd"
   xmlns:inkscape="http://www.inkscape.org/namespaces/inkscape"
   version="1.1"
   width="286.66199"
   height="286.66324"
   viewBox="-1 0 286.66199 286.66324"
   enable-background="new -1 0 289 288"
   xml:space="preserve"
   id="svg2"
   inkscape:version="0.48.2 r9819"
   sodipodi:docname="AJAX1.svg"><metadata
   id="metadata80"><rdf:RDF><cc:Work
       rdf:about=""><dc:format>image/svg+xml</dc:format><dc:type
         rdf:resource="http://purl.org/dc/dcmitype/StillImage" /></cc:Work></rdf:RDF></metadata><sodipodi:namedview
   pagecolor="#ffffff"
   bordercolor="#666666"
   borderopacity="1"
   objecttolerance="10"
   gridtolerance="10"
   guidetolerance="10"
   inkscape:pageopacity="0"
   inkscape:pageshadow="2"
   inkscape:window-width="1280"
   inkscape:window-height="1004"
   id="namedview78"
   showgrid="false"
   fit-margin-top="0"
   fit-margin-left="0"
   fit-margin-right="0"
   fit-margin-bottom="0"
   inkscape:zoom="2.3177389"
   inkscape:cx="124.5417"
   inkscape:cy="129.05231"
   inkscape:window-x="-8"
   inkscape:window-y="-8"
   inkscape:window-maximized="1"
   inkscape:current-layer="svg2" />
<defs
   id="defs4">
</defs>
<path
   d="M 3.09875,133.38675 132.37975,4.1047494 c 5.471,-5.473 14.421,-5.473 19.896,0 l 129.283,129.2820006 c 5.471,5.47 5.471,14.423 0,19.89 l -129.284,129.284 c -5.475,5.47 -14.425,5.47 -19.896,0 l -129.28,-129.285 c -5.465,-5.466 -5.465,-14.419 0,-19.889 z"
   id="path6"
   style="fill:#ffd033;stroke:none;fill-opacity:1"
   inkscape:connector-curvature="0" />

<path
   clip-rule="evenodd"
   d="M 6.22175,135.43975 134.43975,7.2207494 c 4.339,-4.339 11.442,-4.339 15.785,0 l 128.215,128.2190006 c 4.343,4.343 4.343,11.438 0,15.777 l -128.215,128.225 c -4.343,4.335 -11.446,4.335 -15.785,0 l -128.218,-128.225 c -4.338,-4.339 -4.338,-11.434 0,-15.777"
   id="path10"
   inkscape:connector-curvature="0"
   style="fill-rule:evenodd;stroke:none;fill:#000000" />
<path
   clip-rule="evenodd"
   d="m 10.22475,139.38975 128.161,-128.160001 c 2.162,-2.1699996 5.724,-2.1699996 7.889,0 l 128.16,128.160001 c 2.165,2.166 2.165,5.716 0,7.883 l -128.16,128.161 c -2.165,2.167 -5.727,2.167 -7.889,0 l -128.161,-128.161 c -2.166,-2.167 -2.166,-5.717 0,-7.883"
   id="path12"
   inkscape:connector-curvature="0"
   style="fill:#ffd033;fill-rule:evenodd;stroke:none;fill-opacity:1" />
<path
   d="m 120.16475,219.20075 v -30.275 h 4.066 c 0,-0.077 0,-0.128 0,-0.137 -0.248,-0.009 -4.199,-0.128 -4.199,-0.128 l -0.13,30.532 0.263,0.008 z"
   id="path14"
   inkscape:connector-curvature="0" />
<polygon
   points="156.33,150.821 156.326,150.8 155.67,150.8 "
   id="polygon16"
   transform="translate(-1.67525,-0.66425062)" />
<polygon
   points="99.418,125.943 99.407,125.904 98.306,125.904 "
   id="polygon18"
   transform="translate(-1.67525,-0.66425062)" />
<polygon
   points="101.203,196.905 99.75,203.932 99.807,204.263 "
   id="polygon20"
   transform="translate(-1.67525,-0.66425062)" />
<path
   d="m 129.86875,142.79675 h 3.804 c 0,-0.076 0,-0.126 0,-0.135 -0.246,-0.006 -3.936,-0.126 -3.936,-0.126 l -0.13,30.268 0.263,0.009 v -30.016 z"
   id="path22"
   inkscape:connector-curvature="0" />
<polygon
   points="110.121,196.959 108.92,203.936 108.988,204.263 "
   id="polygon24"
   transform="translate(-1.67525,-0.66425062)" />
<polygon
   points="137.053,209.585 137.169,200.587 137.053,200.335 "
   id="polygon26"
   transform="translate(-1.67525,-0.66425062)" />
<polygon
   points="193.182,115.611 193.298,106.502 193.182,106.249 "
   id="polygon28"
   transform="translate(-1.67525,-0.66425062)" />
<polygon
   points="136.97,127.621 136.976,127.631 136.977,127.631 "
   id="polygon30"
   transform="translate(-1.67525,-0.66425062)" />
<polygon
   points="115.545,189.196 115.526,189.195 114.966,193.042 "
   id="polygon32"
   transform="translate(-1.67525,-0.66425062)" />
<polygon
   points="103.126,211.914 104.585,204.859 104.528,204.527 "
   id="polygon34"
   transform="translate(-1.67525,-0.66425062)" />
<polygon
   points="195.149,196.685 195.147,196.668 194.64,196.668 "
   id="polygon36"
   transform="translate(-1.67525,-0.66425062)" />
<path
   d="m 97.86875,125.37075 -0.038,-0.13 h 0.038 l -0.957,-3.205 -3.377,-11.773 0.734,-0.376 0.544,-0.542 1.035,-0.773 0.811,-1.074 0.538,-1.067 0.273,-1.076 0.262,-1.319 0.002,-2.905 -0.265,-1.083 -1.057,-2.638001 -1.866,-1.876 -1.083,-0.55 -1.857,-0.532 -1.323,-0.265 -9.467,-0.002 -0.13,31.056001 4.589,0.13 0.13,-14.283 3.278,0.13 4.071,14.059 5.115,0.094 z m -12.459,-26.339001 5.377,0.13 1.018,0.258 c 0,0 0.427,0.702001 0.44,0.722001 0.004,0.008 0.523,1.046 0.523,1.046 l -0.013,0.726 0.265,1.338 -0.262,0.988 -0.515,1.025 -0.76,0.751 -0.991,0.227 -5.212,-0.002 0.13,-7.209001 z m 12.333,26.247001 -1.112,-0.039 h 1.101 l 0.011,0.039 z"
   id="path38"
   inkscape:connector-curvature="0"
   style="fill:#000000;stroke:none" />
<path
   d="m 122.72875,114.10775 c 0.668,5.89 1.295,11.452 8.974,11.522 h 1.052 l 1.336,-0.263 1.18,1.783 3.067,-2.066 -0.745,-1.737 0.515,-0.656 0.525,-0.788 c 1.514,-3.452 2.316,-9.868 2.12,-13.706 v -1.304 l -0.265,-1.334 c 0.002,0.006 -0.111,-0.896 -0.111,-0.896 -0.457,-3.693 -1.024,-8.293001 -5.221,-9.687001 l -1.304,-0.521 -1.097,-0.271 h -1.836 l -1.597,0.262 c -5.885,1.889 -6.337,8.052001 -6.736,13.493001 l -0.19,2.348 v 1.586 l 0.26,1.595 c 0,-0.004 0.073,0.64 0.073,0.64 z m 11.168,3.853 -1.036,-1.705 -3.328,2.062 1.712,2.663 -0.194,-0.064 -0.354,-0.255 -1.033,-0.519 -0.75,-0.762 -0.501,-1.012 -0.521,-1.304 0.009,-1.259 -0.525,-3.168 v -5.744 l 0.26,-1.283 0.265,-1.58 0.523,-2.615 0.515,-1.014 0.772,-1.031001 1.003,-0.482 0.99,0.013 h 1.05 l 0.99,0.508 0.491,0.5 0.508,0.769001 0.248,0.751 0.521,2.09 -0.002,2.066 0.262,1.078 c 0.538,2.248 0.222,4.316 -0.113,6.511 l -0.412,3.409 -0.26,1.024 -0.487,1.214 -0.603,-0.861 z m -2.598,3.038 -0.649,-1.083 0.792,1.13 -0.143,-0.047 z m -1.585,-2.644 -0.001,-0.003 0.074,-0.045 -0.073,0.048 z m 5.036,0.198 -0.159,0.397 -0.036,-0.051 0.195,-0.346 z m 0.545,8.404 0.007,0.01 0,0 -0.007,-0.01 z"
   id="path40"
   inkscape:connector-curvature="0"
   style="fill:#000000;stroke:none" />
<polygon
   points="132.324,120.58 132.974,121.663 133.117,121.71 "
   id="polygon42"
   transform="translate(-1.67525,-0.66425062)" />
<polygon
   points="131.389,119.019 131.462,118.971 131.388,119.016 "
   id="polygon44"
   transform="translate(-1.67525,-0.66425062)" />
<polygon
   points="136.425,119.217 136.229,119.563 136.266,119.614 "
   id="polygon46"
   transform="translate(-1.67525,-0.66425062)" />
<path
   d="m 199.51175,111.03475 c -0.466,-0.984 -7.885,-16.775001 -7.885,-16.775001 l -4.577,-0.075 -0.132,30.793001 4.589,0.13 0.126,-19.249 4.07,8.85 4.603,10.324 3.53,0.075 0.128,-30.793001 -4.328,-0.13 c 0,0 -0.121,15.770001 -0.124,16.850001 z m -8.005,3.912 v -9.362 l 0.116,0.253 -0.116,9.109 z"
   id="path48"
   inkscape:connector-curvature="0"
   style="fill:#000000;stroke:none" />
<path
   transform="translate(-1.67525,-0.66425062)"
   style="fill:#000000;stroke:none"
   d="m 220.197,125.772 0.132,-26.599 5.375,0.13 0.133,-4.324 -15.736,-0.13 0,4.324 5.639,0.13 -0.128,26.339 z"
   id="polygon50" />
<path
   d="m 147.93975,122.91175 1.233,1.357 1.366,0.568 1.336,0.269 1.559,0.519 1.354,0.006 1.08,-0.263 1.307,-0.262 1.332,-0.532 2.425,-2.406 0.533,-1.334 0.777,-1.293 0.017,-25.227001 -4.324,-0.13 -0.133,22.930001 -0.26,1.018 -0.257,0.777 -1.28,1.259 -0.769,0.508 -3.074,-0.021 -1.217,-1.274 -1.032,-1.552 0.021,-23.515001 -4.589,-0.13 -0.13,22.667001 0.269,0.828 c -0.204,2.534 1.148,3.907 2.456,5.233 z"
   id="path52"
   inkscape:connector-curvature="0"
   style="fill:#000000;stroke:none" />
<path
   transform="translate(-1.67525,-0.66425062)"
   style="fill:#000000;stroke:none"
   d="m 119.609,121.45 -10.884,-0.131 0.13,-9.829 5.902,0.13 0.131,-4.585 -6.163,-0.131 0.13,-7.468 10.099,0.13 0.13,-4.587 -15.211,-0.13 0,30.793 15.606,0.13 z"
   id="polygon54" />
<path
   transform="translate(-1.67525,-0.66425062)"
   style="fill:#000000;stroke:none"
   d="m 67.413,111.49 6.427,0.13 0.13,-4.585 -6.95,-0.131 0.13,-7.468 10.624,0.13 0.13,-4.587 -15.736,-0.13 0,30.793 5.114,0.13 z"
   id="polygon56" />
<path
   transform="translate(-1.67525,-0.66425062)"
   style="fill:#000000;stroke:none"
   d="m 184.131,121.45 -10.621,-0.131 0.132,-9.829 5.9,0.13 0.132,-4.585 -6.425,-0.131 0.128,-7.468 9.836,0.13 0.133,-4.587 -14.95,-0.13 0,30.793 15.607,0.13 z"
   id="polygon58" />
<path
   d="m 155.17975,165.88475 -0.265,-7.89 -7.476,-0.128 -0.128,4.585 3.015,0.128 -0.129,4.064 -0.503,0.713 -0.773,0.769 -2.036,0.491 -0.984,-0.265 -1.024,-0.513 -0.472,-0.742 -1.298,-3.898 0.006,-1.532 -0.262,-1.853 v -5.486 l 0.262,-1.814 0.263,-1.571 0.26,-1.306 0.519,-1.285 0.756,-0.745 0.769,-0.504 0.756,-0.247 1.039,-0.259 0.401,0.489 0.837,0.29 0.47,0.493 0.513,0.769 0.247,0.755 -0.009,0.743 4.854,0.133 -0.01,-0.133 h 0.01 l -0.019,-0.112 -0.114,-1.479 -0.529,-2.107 -0.807,-1.097 -0.521,-0.777 -1.08,-0.82 -1.58,-1.054 -1.067,-0.532 -1.34,-0.271 -2.149,-0.002 -1.335,0.531 -1.033,0.254 c -6.147,3.469 -5.349,12.982 -4.769,19.929 l 0.211,2.749 0.533,1.35 0.256,1.028 c 1.17,3.518 4.252,5.746 7.853,5.691 2.83,-0.043 6.318,-1.627 7.612,-5.947 l 0.27,-1.585 z m -0.525,-15.728 -0.66,-0.021 h 0.656 l 0.004,0.021 z"
   id="path60"
   inkscape:connector-curvature="0"
   style="fill:#000000;stroke:none" />
<path
   d="m 133.80275,172.93775 h 0.002 v -0.446 l 0.128,-30.084 h -4.327 l -0.13,30.531 4.327,0.128 0,-0.129 z m -4.066,-30.401 c 0,0 3.69,0.12 3.936,0.126 0,0.009 0,0.059 0,0.135 h -3.804 v 30.016 l -0.263,-0.009 0.131,-30.268 z"
   id="path62"
   inkscape:connector-curvature="0"
   style="fill:#000000;stroke:none" />
<path
   transform="translate(-1.67525,-0.66425062)"
   style="stroke:none;fill:#000000"
   d="m 123.021,155.257 -7.738,-0.132 0.13,-12.187 -4.982,-0.13 0,30.794 5.114,0.127 0.13,-14.019 7.738,0.132 -0.13,13.495 4.327,0.132 0.13,-30.791 -4.59,-0.13 z"
   id="polygon64" />
<path
   transform="translate(-1.67525,-0.66425062)"
   style="stroke:none;fill:#000000"
   d="m 172.856,155.257 -7.74,-0.132 0.133,-12.187 -4.722,-0.13 0,30.794 5.115,0.127 0.131,-14.019 7.737,0.132 -0.128,13.495 4.063,0.132 0.129,-30.791 -4.59,-0.13 z"
   id="polygon66" />
<path
   d="m 113.86975,188.39975 h -0.351 l -3.848,-0.133 -2.434,14.969 -1.459,-7.047 -1.486,-7.814 -3.277,-0.107 -2.946,14.971 -1.202,-6.966 -1.229,-7.894 -5.007,-0.111 5.272,30.815 4.064,0.11 2.948,-14.969 1.201,6.966 1.228,7.893 4.066,0.11 4.589,-30.776 -0.132,-0.005 0.003,-0.012 z m -5.424,7.895 -1.133,7.304 -0.068,-0.327 1.201,-6.977 z m -8.918,-0.054 -1.396,7.357 -0.057,-0.331 1.453,-7.026 z m 1.923,15.009 1.402,-7.387 0.057,0.332 -1.459,7.055 z m 12.419,-22.718 -0.579,3.846 0.56,-3.847 0.019,10e-4 z"
   id="path68"
   inkscape:connector-curvature="0"
   style="fill:#000000;stroke:none" />
<path
   d="m 143.11975,205.12275 c -0.463,-0.986 -7.885,-16.778 -7.885,-16.778 l -4.316,-0.077 -0.13,30.794 4.589,0.132 0.128,-19.244 4.087,8.886 4.583,10.282 3.528,0.076 0.129,-30.793 -4.588,-0.133 c 10e-4,0 -0.118,15.77 -0.125,16.855 z m -7.742,3.798 v -9.25 l 0.116,0.252 -0.116,8.998 z"
   id="path70"
   inkscape:connector-curvature="0"
   style="fill:#000000;stroke:none" />
<path
   d="m 193.47075,207.23975 -0.812,-1.093 -0.512,-1.033 c -0.734,-2.007 -3.415,-3.616 -5.78,-5.038 l -3.424,-2.335 -0.227,-0.986 0.004,-1.541 0.257,-0.743 0.751,-0.734 0.495,-0.243 0.799,-0.529 0.978,0.021 1.532,0.517 0.738,0.756 0.227,0.738 0.261,1.037 4.85,0.103 -0.009,-0.132 h 0.009 l -0.018,-0.121 -0.119,-1.736 c -0.794,-2.395 -3.381,-5.811 -6.43,-5.618 l -1.041,-0.261 h -1.315 l -1.075,0.265 c -4.201,1.234 -5.768,4.62 -5.832,7.382 -0.081,3.552 2.101,6.617 5.559,7.809 l 1.827,0.785 0.743,0.76 c 2.881,1.644 3.705,4.299 3.534,6.25 -0.162,1.785 -1.136,3.245 -2.476,3.715 -1.512,0.529 -3.296,-0.188 -5.067,-2.024 l -0.227,-1.251 v -1.806 l -4.59,-0.132 -0.128,2.229 0.261,1.336 c 1.814,5.721 6.763,7.125 10.592,6.011 3.957,-1.152 7.501,-5.097 5.926,-11.048 l -0.261,-1.31 z m 0.003,-11.219 -0.51,-0.017 h 0.508 l 0.002,0.017 z"
   id="path72"
   inkscape:connector-curvature="0"
   style="fill:#000000;stroke:none" />
<path
   d="m 119.77175,219.32575 4.589,0.132 0.13,-30.93 h -4.589 l -0.13,30.798 z m 4.459,-30.537 c 0,0.009 0,0.06 0,0.137 h -4.066 v 30.275 l -0.262,-0.008 0.13,-30.532 c 0,0 3.951,0.119 4.198,0.128 z"
   id="path74"
   inkscape:connector-curvature="0"
   style="fill:#000000;stroke:none" />
<path
   d="m 167.19775,190.39375 -1.055,-0.789 -1.622,-0.808 -1.046,-0.265 -1.319,-0.26 -8.158,-0.005 -0.128,30.794 8.521,0.132 1.597,-0.265 c 4.896,-1.059 6.655,-6.583 6.668,-11.398 l 0.261,-2.344 v -1.588 c 0,-0.018 -0.248,-2.86 -0.248,-2.86 -0.256,-3.735 -0.542,-7.97 -3.471,-10.344 z m -8.61,2.46 3.543,0.132 c 0,0 1.213,0.248 1.26,0.256 0.042,0.026 0.764,0.513 0.764,0.513 l 0.756,1.012 c 0.846,2.267 1.298,4.752 1.298,7.193 0,0.196 -0.004,0.393 -0.009,0.589 v 2.887 c -0.004,0 -0.047,0.857 -0.047,0.857 -0.146,2.938 -0.32,6.592 -3.287,7.933 l -1.285,0.256 -3.121,-0.004 0.128,-21.624 z"
   id="path76"
   inkscape:connector-curvature="0"
   style="fill:#000000;stroke:none" />
</svg>