<?xml version="1.0" encoding="UTF-8" standalone="no"?>
<svg
   xmlns:dc="http://purl.org/dc/elements/1.1/"
   xmlns:cc="http://creativecommons.org/ns#"
   xmlns:rdf="http://www.w3.org/1999/02/22-rdf-syntax-ns#"
   xmlns:svg="http://www.w3.org/2000/svg"
   xmlns="http://www.w3.org/2000/svg"
   xmlns:sodipodi="http://sodipodi.sourceforge.net/DTD/sodipodi-0.dtd"
   xmlns:inkscape="http://www.inkscape.org/namespaces/inkscape"
   width="89.985161"
   height="90.000931"
   viewBox="0 0 253.95815 254.00261"
   version="1.1"
   id="svg2"
   inkscape:version="0.48.2 r9819"
   sodipodi:docname="MUTCD W11-10.svg">
  <metadata
     id="metadata62">
    <rdf:RDF>
      <cc:Work
         rdf:about="">
        <dc:format>image/svg+xml</dc:format>
        <dc:type
           rdf:resource="http://purl.org/dc/dcmitype/StillImage" />
        <dc:title></dc:title>
      </cc:Work>
    </rdf:RDF>
  </metadata>
  <defs
     id="defs60" />
  <sodipodi:namedview
     pagecolor="#ffffff"
     bordercolor="#666666"
     borderopacity="1"
     objecttolerance="10"
     gridtolerance="10"
     guidetolerance="10"
     inkscape:pageopacity="0"
     inkscape:pageshadow="2"
     inkscape:window-width="1280"
     inkscape:window-height="1004"
     id="namedview58"
     showgrid="false"
     fit-margin-top="0"
     fit-margin-left="0"
     fit-margin-right="0"
     fit-margin-bottom="0"
     inkscape:zoom="5.8194445"
     inkscape:cx="3.4260201"
     inkscape:cy="37.332999"
     inkscape:window-x="-8"
     inkscape:window-y="-8"
     inkscape:window-maximized="1"
     inkscape:current-layer="svg2"
     showguides="true"
     inkscape:guide-bbox="true" />
  <!-- draw the bicycle -->
  <!-- RIGHT -->
  <!-- LANE -->
  <!-- ONLY -->
  <path
     inkscape:connector-curvature="0"
     d="M 3.3615264,118.7608 118.71636,3.4025018 c 4.54025,-4.5367 11.94153,-4.5367 16.48178,0 L 250.55296,118.7608 c 4.54025,4.5367 4.54025,11.938 0,16.4783 L 135.19814,250.5974 c -4.54025,4.5403 -11.94153,4.5403 -16.48178,0 L 3.3615264,135.2391 c -4.48027,-4.4803 -4.4838,-11.9945 0,-16.4783"
     style="fill:#fecf33;fill-opacity:1;fill-rule:nonzero;stroke:none"
     id="path3260" />
  <path
     inkscape:connector-curvature="0"
     d="M 5.6764564,121.0211 120.97837,5.7227018 c 3.27025,-3.2702 8.68892,-3.2632 11.95917,0 L 248.23591,121.0211 c 3.27378,3.2738 3.25967,8.6819 0,11.9592 L 132.93754,248.2786 c -3.27731,3.2632 -8.68187,3.2703 -11.95917,0 L 5.6764564,132.9803 c -3.25614,-3.2773 -3.27025,-8.6854 0,-11.9592"
     style="fill:#000000;fill-opacity:1;fill-rule:evenodd;stroke:none"
     id="path3272" />
  <path
     inkscape:connector-curvature="0"
     d="M 8.9220164,124.1837 124.13926,8.9665018 c 1.524,-1.5734 4.11339,-1.5734 5.63739,0 L 244.99036,124.1837 c 1.57339,1.5205 1.57339,4.1134 0,5.6339 L 129.77665,245.0313 c -1.524,1.5769 -4.11692,1.5804 -5.63739,0 L 8.9220164,129.8176 c -1.56986,-1.5205 -1.56986,-4.1134 0,-5.6339"
     style="fill:#fecf33;fill-opacity:1;fill-rule:evenodd;stroke:none"
     id="path3276" />
  <path
     d="m 133.05795,95.917689 c -3.94053,0 -7.15786,-3.213806 -7.15786,-7.154334 0,-3.940528 3.21733,-7.154334 7.15786,-7.154334 3.94053,0 7.15081,3.213806 7.15081,7.154334 0,3.940528 -3.21028,7.154334 -7.15081,7.154334 m -41.031589,27.181531 6.819195,-47.970728 59.450114,-0.01411 4.22981,58.614039 -17.74825,0 c 0.0141,-4.38503 0.0212,-8.77006 0.0353,-13.15156 0.13758,-2.52236 -2.08139,-2.17664 -2.01789,-2.30717 l -4.32858,0 0,-14.17814 c 0,-6.903861 -10.65742,-6.328833 -11.30653,0.0706 l -2.68817,10.8197 c -3.62303,0.0529 -10.44928,0.13405 -14.07584,0.18697 -2.2613,-0.0141 -2.15547,4.67783 0.14464,4.72369 l 13.93826,0 0,8.19503 -11.57465,0 -9.02758,12.8905 3.15736,2.97745 8.32556,-10.22703 0,17.4625 -9.04522,0.127 -11.204229,-22.39081 8.583089,-4.56141 c 0.86783,1.63336 1.34408,2.08491 2.21191,3.7218 1.36878,2.42006 4.72017,0.16934 3.46428,-2.09903 -2.31069,-4.18041 -3.76061,-7.02027 -5.99369,-11.24303 -0.92075,-1.73213 -4.395616,0.17992 -3.49956,1.93676 l 2.00378,4.0393 -8.798281,4.30742 -1.054806,-1.9297 z m 94.202259,-22.53192 -1.23119,10.49514 -5.14703,0 1.42522,-11.4935 c 0.97719,0.75142 2.61056,1.39347 3.76061,1.39347 0.56092,0 0.93839,-0.14817 1.19239,-0.39511 m -41.35261,59.39015 c 0,-9.65906 8.00453,-17.59303 17.66358,-17.59303 9.65553,0 17.66006,7.93397 17.66006,17.59303 l 18.15042,-0.0141 0,-4.85423 -5.02356,0 0,-21.59705 0,-0.16581 -2.34244,0.007 0,-20.48581 c 0,-0.98072 -0.80081,-1.78505 -1.78506,-1.78505 l -0.5715,0 0.94897,-8.91823 c 0.59267,0.3422 1.44286,0.55739 2.37067,0.55739 1.80622,0 3.27378,-0.80433 3.27378,-1.78505 0,-0.984254 -1.46756,-1.788588 -3.27378,-1.788588 -1.8027,0 -3.27025,0.804334 -3.27025,1.788588 0,0.06 0.007,0.11641 0.0107,0.17286 l -1.05833,9.97303 -1.79211,0 1.59808,-13.70895 c 0.0353,0.01058 0.0776,0.02117 0.10936,0.03175 l 3.40431,0.832556 c 0.44803,0.112889 0.83255,-0.373945 0.83255,-0.832556 l 0,-1.284111 c 0,-0.458611 -0.37041,-0.832556 -0.83255,-0.832556 l -3.40431,0 c -0.45508,0 -0.83255,0.373945 -0.83255,0.832556 l 0,0.313972 -0.1517,1.294695 c -0.44097,-0.758473 -1.60514,-1.305278 -2.96333,-1.305278 -1.73567,0 -3.14678,0.896055 -3.14678,1.989667 0,0.102305 0.0178,0.204611 0.067,0.306916 l -1.53458,12.361339 -1.29823,0 c -0.97719,0 -1.78505,0.80433 -1.78505,1.78505 l 0,20.53167 -7.5565,0.0246 -5.55273,-58.289478 6.39234,0 c 5.40103,0 5.05883,-4.642556 0.13053,-4.642556 l -79.830096,0 c -5.580895,-0.261098 -5.552673,5.037625 0.130578,4.642514 l 4.614334,0 -7.775223,48.13301 -12.072057,0 -17.272002,31.84172 -4.078112,0 0.194028,4.85422 c 0.536222,0.0141 8.413751,-0.0282 8.413751,-0.20108 0,-9.72608 7.037917,-17.37783 16.764002,-17.37783 9.655529,0 17.663585,7.93397 17.663585,17.59303 l 48.810342,0 z m 17.66358,14.05113 c -7.88811,0 -14.31572,-6.43113 -14.31572,-14.31572 0,-7.88458 6.42761,-14.31219 14.31572,-14.31219 7.88458,0 14.3122,6.42761 14.3122,14.31219 0,7.88459 -6.42762,14.31572 -14.3122,14.31572 m -83.633036,0.33161 c -7.881056,0 -14.308668,-6.43113 -14.308668,-14.31219 0,-7.88458 6.427612,-14.31572 14.308668,-14.31572 7.884584,0 14.315724,6.43114 14.315724,14.31572 0,7.88106 -6.43114,14.31219 -14.315724,14.31219"
     style="fill:#000000;fill-opacity:1;fill-rule:evenodd;stroke:none"
     id="path3480"
     inkscape:connector-curvature="0" />
</svg>
