<?xml version="1.0" encoding="UTF-8" standalone="no"?>
<svg
   xmlns:dc="http://purl.org/dc/elements/1.1/"
   xmlns:cc="http://creativecommons.org/ns#"
   xmlns:rdf="http://www.w3.org/1999/02/22-rdf-syntax-ns#"
   xmlns:svg="http://www.w3.org/2000/svg"
   xmlns="http://www.w3.org/2000/svg"
   xmlns:sodipodi="http://sodipodi.sourceforge.net/DTD/sodipodi-0.dtd"
   xmlns:inkscape="http://www.inkscape.org/namespaces/inkscape"
   width="48.095001"
   height="24.020004"
   viewBox="0 0 135.7348 67.789789"
   version="1.1"
   id="svg2"
   inkscape:version="0.48.2 r9819"
   sodipodi:docname="MUTCD W7-4dP.svg">
  <metadata
     id="metadata62">
    <rdf:RDF>
      <cc:Work
         rdf:about="">
        <dc:format>image/svg+xml</dc:format>
        <dc:type
           rdf:resource="http://purl.org/dc/dcmitype/StillImage" />
        <dc:title></dc:title>
      </cc:Work>
    </rdf:RDF>
  </metadata>
  <defs
     id="defs60" />
  <sodipodi:namedview
     pagecolor="#ffffff"
     bordercolor="#666666"
     borderopacity="1"
     objecttolerance="10"
     gridtolerance="10"
     guidetolerance="10"
     inkscape:pageopacity="0"
     inkscape:pageshadow="2"
     inkscape:window-width="1280"
     inkscape:window-height="1004"
     id="namedview58"
     showgrid="false"
     fit-margin-top="0"
     fit-margin-left="0"
     fit-margin-right="0"
     fit-margin-bottom="0"
     inkscape:zoom="12.265625"
     inkscape:cx="18.311233"
     inkscape:cy="5.0476318"
     inkscape:window-x="-8"
     inkscape:window-y="-8"
     inkscape:window-maximized="1"
     inkscape:current-layer="svg2" />
  <!-- draw the bicycle -->
  <!-- RIGHT -->
  <!-- LANE -->
  <!-- ONLY -->
  <path
     inkscape:connector-curvature="0"
     d="m 11.33475,-5.1067202e-6 113.0653,0 c 6.24769,0 11.33475,4.9530000067202 11.33475,11.0560001067202 l 0,45.7447 c 0,6.0361 -5.08706,10.9891 -11.33475,10.9891 l -113.0653,0 C 5.09059,67.789795 0,62.836795 0,56.800695 l 0,-45.7447 C 0,4.9529949 5.09059,-5.1067202e-6 11.33475,-5.1067202e-6"
     style="fill:#ffd033;fill-opacity:1;fill-rule:evenodd;stroke:none"
     id="path3624" />
  <path
     inkscape:connector-curvature="0"
     d="m 124.33198,2.3000949 c 0.47625,0 0.94897,0 1.42522,0.067 0.47625,0.071 0.88547,0.2081 1.35819,0.2786 0.4057,0.1976 0.81492,0.3352 1.22061,0.4728 0.40923,0.2011 0.74436,0.4092 1.15359,0.6773 0.6103,0.4057 1.08655,0.8819 1.62983,1.3582 0.33867,0.4727 0.67733,0.8819 1.016,1.3547 0.20461,0.4092 0.40922,0.7443 0.61031,1.1571 0.13758,0.4092 0.27164,0.8149 0.40922,1.2206 0.13758,0.4057 0.20108,0.8149 0.20108,1.2876001 l 0.0706,0.882 0,46.2209 c -0.0706,0.4057 -0.0706,0.8114 -0.20461,1.2877 -0.067,0.4057 -0.20461,0.8149 -0.33867,1.2206 -0.13758,0.4057 -0.33867,0.7443 -0.54328,1.1571 -0.20461,0.3386 -0.40569,0.7443 -0.67733,1.083 -0.47625,0.5433 -0.9525,1.0195 -1.49225,1.4923 -0.3422,0.2716 -0.68086,0.5468 -1.09009,0.7443 -0.53975,0.2787 -1.016,0.5468 -1.55927,0.7514 -0.47273,0.1306 -0.87842,0.2681 -1.28764,0.3387 -0.47625,0.071 -0.88195,0.1305 -1.3582,0.2011 l -113.47098,0 c -0.47625,0 -0.9525,-0.071 -1.42523,-0.1305 -0.47629,-0.071 -0.88198,-0.1412 -1.35823,-0.2787 -0.4057,-0.1306 -0.81492,-0.2681 -1.22061,-0.4728 -0.40922,-0.201 -0.74789,-0.4092 -1.15711,-0.6067 -0.61031,-0.4763 -1.08303,-0.882 -1.62631,-1.4288 -0.34219,-0.4057 -0.67733,-0.8819 -1.01953,-1.3547 -0.20461,-0.3386 -0.40569,-0.7514 -0.6103,-1.09 -0.13406,-0.4057 -0.27164,-0.8114 -0.4057,-1.2206 -0.13758,-0.4057 -0.20461,-0.882 -0.20461,-1.2877 l -0.067,-0.8819 0,-46.2175 c 0.067,-0.4762 0.067,-0.8819001 0.20109,-1.2911001 0.0706,-0.4057 0.20461,-0.8114 0.34219,-1.2171 0.13406,-0.4092 0.33867,-0.822 0.53975,-1.1571 0.20461,-0.4092 0.41275,-0.7444 0.68086,-1.083 0.47625,-0.6139 0.94898,-1.0901 1.49578,-1.5628 0.33514,-0.2717 0.67381,-0.4763 1.08303,-0.6774 0.54328,-0.3457 1.016,-0.5433 1.5628,-0.7514 0.47273,-0.1976 0.88195,-0.2681 1.28764,-0.4057 0.47625,-0.071 0.88195,-0.1376 1.3582,-0.1376 l 113.47099,0 z"
     style="fill:#000000;fill-opacity:1;fill-rule:evenodd;stroke:none"
     id="path3632" />
  <path
     inkscape:connector-curvature="0"
     d="m 11.33475,5.6972949 113.0653,0 c 3.12208,0 5.63386,2.5083 5.63386,5.6304001 l 0,45.1979 c 0,3.1221 -2.51178,5.6374 -5.63386,5.6374 l -113.0653,0 c -3.12208,0 -5.63386,-2.5153 -5.63386,-5.6374 l 0,-45.1979 c 0,-3.1221001 2.51178,-5.6304001 5.63386,-5.6304001"
     style="fill:#ffd033;fill-opacity:1;fill-rule:evenodd;stroke:none"
     id="path3636" />
  <path
     d="m 126.02989,47.907225 0,-3.735917 -10.31875,0 0,-24.433393 -4.00403,0 0,28.16931 14.32278,0 z m -19.14172,0 0,-3.937001 -10.315225,0 0,-9.299223 5.905495,0 0,-3.79589 -5.905495,0 0,-7.196668 9.232195,0 0,-3.940528 -13.232696,0 0,28.16931 14.315726,0 z m -18.185699,-28.16931 -4.071056,0 -4.681362,18.259781 -4.688417,-18.259781 -4.071056,0 7.19314,28.16931 3.055056,0 7.263695,-28.16931 z m -26.130253,16.495892 -4.074584,0 1.972028,-8.075085 2.102556,8.075085 z m 6.992056,11.673418 -6.992056,-28.16931 -4.004029,0 -6.988528,28.16931 4.071056,0 1.830917,-7.739946 6.039556,0 2.035528,7.739946 4.007556,0 z M 45.130882,27.276777 c 0,2.307168 -1.287639,3.598334 -3.665362,3.598334 l -4.205111,0 0,-7.196668 4.205111,0 c 2.173112,0 3.665362,1.428751 3.665362,3.598334 m 3.937,20.630448 -4.074583,-13.775974 c 2.716389,-1.019528 4.074583,-3.464279 4.074583,-6.854474 0,-4.547306 -2.9845,-7.538862 -7.464778,-7.538862 l -8.413751,0 0,28.16931 4.071056,0 0,-13.236224 3.869972,0 3.799418,13.236224 4.138083,0 z m -21.445364,-7.806973 0,-5.838473 -7.196668,0 0,3.944056 3.19264,0 0,1.894417 c 0,2.988028 -1.016,4.346222 -3.122084,4.346222 -2.169584,0 -3.531306,-1.495778 -4.138084,-4.279195 -0.409222,-2.169583 -0.613833,-4.614334 -0.613833,-6.917973 0,-3.39725 0.47625,-6.586362 1.291166,-7.944557 0.677334,-1.425222 1.76389,-2.099028 3.189112,-2.099028 1.968501,0 3.259667,1.287639 3.393723,3.189112 l 4.004028,0 c -0.137583,-4.20864 -3.256139,-7.126112 -7.330723,-7.126112 -3.25614,0 -6.106584,2.173111 -7.122585,5.154084 -0.9525,2.645833 -1.291166,5.499806 -1.291166,9.503835 0,3.594806 0.610305,7.531806 1.49225,9.63789 1.425222,3.189111 3.869973,4.885973 7.260167,4.885973 2.853973,0 5.16114,-1.495778 6.247696,-4.004029 0.606778,-1.157111 0.744361,-2.377722 0.744361,-4.346222"
     style="fill:#000000;fill-opacity:1;fill-rule:evenodd;stroke:none"
     id="path3672"
     inkscape:connector-curvature="0" />
</svg>
