<?xml version="1.0" encoding="UTF-8" standalone="no"?>
<!-- Generator: Adobe Illustrator 12.0.1, SVG Export Plug-In  -->

<svg
   xmlns:dc="http://purl.org/dc/elements/1.1/"
   xmlns:cc="http://creativecommons.org/ns#"
   xmlns:rdf="http://www.w3.org/1999/02/22-rdf-syntax-ns#"
   xmlns:svg="http://www.w3.org/2000/svg"
   xmlns="http://www.w3.org/2000/svg"
   xmlns:sodipodi="http://sodipodi.sourceforge.net/DTD/sodipodi-0.dtd"
   xmlns:inkscape="http://www.inkscape.org/namespaces/inkscape"
   version="1.1"
   width="286.66199"
   height="286.66449"
   viewBox="0 0 286.66199 286.66449"
   enable-background="new 0 0 288 288"
   xml:space="preserve"
   id="svg2"
   inkscape:version="0.48.2 r9819"
   sodipodi:docname="AJAX1.svg"><metadata
   id="metadata36"><rdf:RDF><cc:Work
       rdf:about=""><dc:format>image/svg+xml</dc:format><dc:type
         rdf:resource="http://purl.org/dc/dcmitype/StillImage" /></cc:Work></rdf:RDF></metadata><sodipodi:namedview
   pagecolor="#ffffff"
   bordercolor="#666666"
   borderopacity="1"
   objecttolerance="10"
   gridtolerance="10"
   guidetolerance="10"
   inkscape:pageopacity="0"
   inkscape:pageshadow="2"
   inkscape:window-width="1280"
   inkscape:window-height="1004"
   id="namedview34"
   showgrid="false"
   fit-margin-top="0"
   fit-margin-left="0"
   fit-margin-right="0"
   fit-margin-bottom="0"
   inkscape:zoom="2.3177389"
   inkscape:cx="132.87093"
   inkscape:cy="79.191465"
   inkscape:window-x="-8"
   inkscape:window-y="-8"
   inkscape:window-maximized="1"
   inkscape:current-layer="svg2" />
<defs
   id="defs4">
</defs>
<path
   d="M 4.09875,133.3875 133.37975,4.1054988 c 5.471,-5.474 14.421,-5.474 19.895,0 L 282.55875,133.3875 c 5.471,5.471 5.471,14.423 0,19.889 l -129.285,129.284 c -5.474,5.472 -14.423,5.472 -19.895,0 l -129.28,-129.285 c -5.465,-5.465 -5.465,-14.418 0,-19.888 z"
   id="path6"
   style="fill:#ffd033;stroke:none;fill-opacity:1"
   inkscape:connector-curvature="0" />

<path
   clip-rule="evenodd"
   d="M 7.22175,135.4405 135.43975,7.2204988 c 4.339,-4.339 11.442,-4.339 15.785,0 L 279.43975,135.4405 c 4.344,4.343 4.344,11.438 0,15.777 l -128.215,128.223 c -4.343,4.336 -11.446,4.336 -15.785,0 L 7.22175,151.2175 c -4.339,-4.339 -4.339,-11.435 0,-15.777"
   id="path10"
   inkscape:connector-curvature="0"
   style="fill:#000000;fill-rule:evenodd;stroke:none" />
<path
   clip-rule="evenodd"
   d="m 11.22475,139.3905 128.162,-128.162001 c 2.162,-2.1690002 5.725,-2.1690002 7.889,0 l 128.16,128.162001 c 2.166,2.166 2.166,5.716 0,7.883 l -128.161,128.161 c -2.164,2.167 -5.727,2.167 -7.889,0 l -128.161,-128.161 c -2.166,-2.167 -2.166,-5.717 0,-7.883"
   id="path12"
   inkscape:connector-curvature="0"
   style="fill:#ffd033;fill-rule:evenodd;stroke:none;fill-opacity:1" />
<path
   d="m 79.40675,130.5795 c -5.368,0 -8.504,-2.02 -10.63,-6.485 -1.489,-3.136 -2.339,-7.548 -2.339,-11.906 0,-5.741 1.594,-11.375 3.986,-14.511001 2.126,-2.604 5.103,-3.986 9.143,-3.986 5.475,0 8.717,2.286 11.109,7.867001 l -5.369,2.126 c -1.488,-3.083 -3.029,-4.252001 -5.74,-4.252001 -2.87,0 -4.784,1.275001 -6.007,4.412001 -0.903,2.126 -1.382,5.369 -1.382,8.345 0,3.774 0.638,7.495 1.754,9.78 1.116,1.967 2.765,2.87 4.891,2.87 3.614,0 6.219,-2.285 6.219,-5.528 v -1.488 h -6.484 v -5.634 h 12.119 v 7.123 c 0,6.483 -4.732,11.267 -11.27,11.267 z"
   id="path14"
   inkscape:connector-curvature="0"
   style="fill:#000000;stroke:none" />
<path
   d="m 123.31175,124.5725 c -1.86,3.508 -6.112,6.006 -10.471,6.006 -4.359,0 -8.611,-2.498 -10.524,-6.006 -0.957,-2.126 -1.595,-4.625 -1.595,-7.388 V 94.328499 h 5.634 V 117.1845 c 0,4.625 2.604,7.654 6.485,7.654 3.88,0 6.484,-3.029 6.484,-7.654 V 94.328499 h 5.635 V 117.1845 c 0.001,2.764 -0.638,5.262 -1.648,7.388 z"
   id="path16"
   inkscape:connector-curvature="0"
   style="fill:#000000;stroke:none" />
<path
   d="m 153.98175,127.8155 c -1.967,1.754 -4.73,2.764 -7.76,2.764 -6.113,0 -10.578,-3.614 -12.97,-9.036 l 5.368,-1.967 c 1.488,3.349 4.253,5.262 7.602,5.262 3.295,0 5.527,-2.285 5.527,-5.262 0,-4.73 -5.527,-5.528 -10.152,-7.388 -2.126,-0.851 -6.856,-2.977 -6.856,-8.877 0,-6.963001 4.73,-9.621001 11.109,-9.621001 4.996,0 8.397,2.87 10.152,7.282001 l -4.997,1.488 c 0,0 -1.275,-3.030001 -5.262,-3.136001 -0.159,0 -0.266,0 -0.372,0 -2.445,0 -5.103,0.957001 -5.103,3.774001 0,0.106 0,0.266 0,0.372 0.479,6.591 17.222,2.232 17.222,16.212 0.001,3.243 -1.275,6.113 -3.508,8.133 z"
   id="path18"
   inkscape:connector-curvature="0"
   style="fill:#000000;stroke:none" />
<path
   d="M 176.41275,99.324499 V 129.9415 h -5.634 V 99.324499 h -8.133 v -4.997 h 22.006 v 4.997 h -8.239 z"
   id="path20"
   inkscape:connector-curvature="0"
   style="fill:#000000;stroke:none" />
<path
   d="m 207.82675,114.4205 v 15.521 h -5.635 v -15.521 l -12.491,-20.092001 h 6.751 l 8.505,13.767001 8.61,-13.767001 h 6.645 l -12.385,20.092001 z"
   id="path22"
   inkscape:connector-curvature="0"
   style="fill:#000000;stroke:none" />
<path
   d="m 95.56575,191.9855 h -4.996 l -5.635,-22.856 -5.475,22.856 h -4.997 l -5.262,-35.613 h 5.741 l 2.764,18.764 4.518,-18.764 h 5.475 l 4.625,18.764 2.764,-18.764 h 5.74 l -5.262,35.613 z"
   id="path24"
   inkscape:connector-curvature="0"
   style="fill:#000000;stroke:none" />
<path
   d="m 108.74875,191.9855 v -35.613 h 5.741 v 35.613 h -5.741 z"
   id="path26"
   inkscape:connector-curvature="0"
   style="fill:#000000;stroke:none" />
<path
   d="m 144.89275,191.9855 -13.608,-24.132 v 24.132 h -5.634 v -35.613 h 5.634 l 12.97,22.75 v -22.75 h 5.634 v 35.613 h -4.996 z"
   id="path28"
   inkscape:connector-curvature="0"
   style="fill:#000000;stroke:none" />
<path
   d="m 179.01775,189.9665 c -1.329,1.275 -3.243,1.913 -5.104,2.02 -0.372,0 -1.116,0 -2.02,0 h -10.844 v -35.613 h 11.481 c 3.614,0 4.997,0.372 6.91,1.86 3.721,3.242 5.847,8.877 5.847,15.894 0.002,7.121 -2.231,12.756 -6.27,15.839 z m -2.339,-26.471 c -0.904,-0.851 -2.126,-1.488 -3.615,-1.488 h -6.378 v 24.238 h 5.634 c 1.86,0 2.978,-0.372 3.987,-1.383 2.126,-2.126 3.242,-6.006 3.242,-10.736 10e-4,-4.784 -1.116,-8.77 -2.87,-10.631 z"
   id="path30"
   inkscape:connector-curvature="0"
   style="fill:#000000;stroke:none" />
<path
   d="m 213.93975,189.8595 c -1.967,1.754 -4.73,2.764 -7.761,2.764 -6.112,0 -10.577,-3.614 -12.97,-9.036 l 5.369,-1.967 c 1.488,3.349 4.252,5.263 7.601,5.263 3.296,0 5.528,-2.286 5.528,-5.263 0,-4.73 -5.528,-5.527 -10.152,-7.389 -2.127,-0.85 -6.857,-2.977 -6.857,-8.876 0,-6.964 4.73,-9.621 11.109,-9.621 4.996,0 8.398,2.87 10.152,7.282 l -4.996,1.488 c 0,0 -1.276,-3.03 -5.263,-3.136 -0.159,0 -0.266,0 -0.372,0 -2.445,0 -5.103,0.956 -5.103,3.773 0,0.106 0,0.266 0,0.372 0.479,6.591 17.222,2.232 17.222,16.212 0.001,3.244 -1.274,6.114 -3.507,8.134 z"
   id="path32"
   inkscape:connector-curvature="0"
   style="fill:#000000;stroke:none" />
</svg>