<?xml version="1.0" encoding="UTF-8" standalone="no"?>
<!-- Generator: Adobe Illustrator 13.0.0, SVG Export Plug-In  -->

<svg
   xmlns:dc="http://purl.org/dc/elements/1.1/"
   xmlns:cc="http://creativecommons.org/ns#"
   xmlns:rdf="http://www.w3.org/1999/02/22-rdf-syntax-ns#"
   xmlns:svg="http://www.w3.org/2000/svg"
   xmlns="http://www.w3.org/2000/svg"
   xmlns:sodipodi="http://sodipodi.sourceforge.net/DTD/sodipodi-0.dtd"
   xmlns:inkscape="http://www.inkscape.org/namespaces/inkscape"
   version="1.1"
   x="0px"
   y="0px"
   width="4414.2979"
   height="4414.2983"
   viewBox="-0.525 -0.67 4414.2978 4414.2983"
   enable-background="new -0.525 -0.67 576 508"
   xml:space="preserve"
   id="svg2"
   inkscape:version="0.48.2 r9819"
   sodipodi:docname="AJAX4.svg"><metadata
   id="metadata14"><rdf:RDF><cc:Work
       rdf:about=""><dc:format>image/svg+xml</dc:format><dc:type
         rdf:resource="http://purl.org/dc/dcmitype/StillImage" /><dc:title></dc:title></cc:Work></rdf:RDF></metadata><sodipodi:namedview
   pagecolor="#ffffff"
   bordercolor="#666666"
   borderopacity="1"
   objecttolerance="10"
   gridtolerance="10"
   guidetolerance="10"
   inkscape:pageopacity="0"
   inkscape:pageshadow="2"
   inkscape:window-width="1280"
   inkscape:window-height="1004"
   id="namedview12"
   showgrid="false"
   fit-margin-top="0"
   fit-margin-left="0"
   fit-margin-right="0"
   fit-margin-bottom="0"
   inkscape:zoom="0.14245509"
   inkscape:cx="1957.5769"
   inkscape:cy="1971.9472"
   inkscape:window-x="-8"
   inkscape:window-y="-8"
   inkscape:window-maximized="1"
   inkscape:current-layer="svg2" />
<defs
   id="defs4">
</defs>



<path
   inkscape:connector-curvature="0"
   style="fill:#ffd033;fill-rule:nonzero;stroke:none"
   d="m 2349.8168,4354.3223 c -79.0875,79.075 -207.3,79.075 -286.375,0 L 58.785088,2349.6723 c -79.08075,-79.0875 -79.0795,-207.3 0,-286.375 L 2063.4418,58.640652 c 79.075,-79.08087 207.2875,-79.08087 286.375,0 l 2004.65,2004.656648 c 79.075,79.075 79.075,207.2875 0,286.375 l -2004.65,2004.65 z"
   id="path11" /><path
   inkscape:connector-curvature="0"
   style="fill:#000000;fill-rule:nonzero;stroke:none"
   d="m 98.560588,2309.8933 c -57.022751,-57.025 -57.022751,-149.8125 0,-206.825 L 2103.2128,98.414822 c 57.0125,-57.0215 149.8,-57.0215 206.825,0 l 2004.65,2004.653478 c 57.025,57.0125 57.025,149.8 0,206.825 l -2004.65,2004.65 c -57.025,57.025 -149.8125,57.025 -206.825,0 L 98.560588,2309.8933 z"
   id="path13" /><path
   inkscape:connector-curvature="0"
   style="fill:#ffd033;fill-rule:nonzero;stroke:none"
   d="m 154.24483,2254.2059 c -26.3175,-26.3125 -26.3175,-69.1375 0,-95.4625 L 2158.8898,154.09966 c 26.325,-26.31875 69.15,-26.31875 95.4625,0 l 2004.65,2004.64374 c 26.3125,26.325 26.3125,69.15 0,95.4625 l -2004.65,2004.65 c -26.3125,26.3125 -69.1375,26.3125 -95.4625,0 L 154.24483,2254.2059 z"
   id="path15" /><path
   inkscape:connector-curvature="0"
   style="fill:#000000;fill-rule:nonzero;stroke:none"
   d="m 1634.8123,2975.0297 -37.9875,155.3625 77.8875,0 -39.9,-155.3625 z m 96.8875,378.95 -37.9875,-147.8 -115.875,0 -36.1,147.8 -77.8875,0 134.875,-540 75.9875,0 134.875,540 -77.8875,0 z"
   id="path17" /><path
   inkscape:connector-curvature="0"
   style="fill:#000000;fill-rule:nonzero;stroke:none"
   d="m 2774.6248,2975.0297 -38,155.3625 77.9,0 -39.9,-155.3625 z m 96.875,378.95 -37.9875,-147.8 -115.875,0 -36.1,147.8 -77.875,0 134.875,-540 75.9875,0 134.8625,540 -77.8875,0 z"
   id="path19" /><path
   inkscape:connector-curvature="0"
   style="fill:#000000;fill-rule:nonzero;stroke:none"
   d="m 2279.5248,3353.9797 0,-540 254.625,0 0,75.7875 -176.7125,0 0,136.4125 112.1125,0 0,73.9 -112.1125,0 0,178.1125 197.625,0 0,75.7875 -275.5375,0 z"
   id="path21" /><path
   inkscape:connector-curvature="0"
   style="fill:#000000;fill-rule:nonzero;stroke:none"
   d="m 2042.1248,2889.7672 -79.4125,0 0,136.425 79.4125,0 c 45.3875,0 69.9625,-24.6375 69.9625,-68.2125 0,-41.6875 -28.3625,-68.2125 -69.9625,-68.2125 z m 66.1875,464.2125 -71.8625,-253.9 -73.7375,0 0,253.9 -77.525,0 0,-540 160.725,0 c 85.0875,0 141.8125,56.8375 141.8125,144 0,64.4125 -26.475,111.7875 -77.525,130.7375 l 77.525,265.2625 -79.4125,0 z"
   id="path23" /><path
   inkscape:connector-curvature="0"
   style="fill:#000000;fill-rule:nonzero;stroke:none"
   d="m 2626.3623,2134.7172 c -13.2375,-37.9 -35.925,-54.95 -69.9625,-54.95 l -64.2875,0 0,388.425 64.2875,0 c 45.3875,0 69.9625,-36 77.525,-77.6875 3.7875,-34.1125 7.5625,-72 7.5625,-113.6875 0,-60.6375 -5.675,-119.375 -15.125,-142.1 z m 13.2375,384.625 c -18.9,17.05 -45.375,24.6375 -75.6375,24.6375 l -149.375,0 0,-540 138.0375,0 c 45.375,0 68.075,5.675 86.975,20.8375 32.15,22.7375 54.8375,64.425 64.2875,119.3625 7.5625,39.8 13.2375,87.1625 13.2375,128.85 0,125.05 -24.575,204.625 -77.525,246.3125 z"
   id="path25" /><path
   inkscape:connector-curvature="0"
   style="fill:#000000;fill-rule:nonzero;stroke:none"
   d="m 1798.8498,2543.9797 0,-540 75.6,0 0,540 -75.6,0 z"
   id="path27" /><path
   inkscape:connector-curvature="0"
   style="fill:#000000;fill-rule:nonzero;stroke:none"
   d="m 2237.1748,2543.9797 -166.4,-361.9 0,361.9 -77.525,0 0,-540 77.525,0 147.4875,324 0,-324 77.525,0 0,540 -58.6125,0 z"
   id="path29" /><path
   inkscape:connector-curvature="0"
   style="fill:#000000;fill-rule:nonzero;stroke:none"
   d="m 2951.8873,2294.5922 c -23.3625,-15.125 -46.05,-30.325 -60.525,-40.5125 -43.5375,-30.6375 -66.6,-72 -66.6,-119.3625 0,-77.6875 60.8875,-140.2125 138.9,-140.2125 76.1125,0 135.1,58.7375 137,140.2125 l -74.2125,0 c -1.9,-37.9 -28.5375,-62.525 -62.7875,-62.525 -36.15,0 -64.6875,26.525 -64.6875,62.525 0,26.525 11.4125,41.675 51.375,64.4125 104.65,60.6375 150.3125,119.375 150.3125,197.0625 0,87.15 -66.6,157.2625 -150.3125,157.2625 -95.1375,0 -152.225,-79.5875 -152.225,-168.6375 l 76.1125,0 c 0,45.475 22.825,92.85 76.1125,92.85 41.85,0 76.1,-37.9 76.1,-81.475 0,-33.8375 -13.975,-62.3375 -74.5625,-101.6 z"
   id="path31" /><path
   inkscape:connector-curvature="0"
   style="fill:#000000;fill-rule:nonzero;stroke:none"
   d="m 1635.7998,2543.9797 -66.55,0 -51.3375,-282.3125 -51.325,282.3125 -68.45,0 -85.55,-540 76.05,0 45.625,288 53.2375,-288 60.8375,0 51.3375,288 47.525,-288 76.05,0 -87.45,540 z"
   id="path33" /><path
   inkscape:connector-curvature="0"
   style="fill:#000000;fill-rule:nonzero;stroke:none"
   d="m 1589.0998,1667.6548 c -20.9375,47.375 -64.7,75.8 -119.875,75.8 -64.7,0 -112.2625,-32.2125 -138.9,-92.85 -17.125,-39.7875 -28.5375,-115.575 -28.5375,-185.6875 0,-75.7875 5.7,-130.7375 24.725,-181.8875 19.0375,-56.8463 74.2125,-98.5288 137,-98.5288 78.0125,0 137,56.8413 140.8,136.4163 l -78.0125,0 c -1.9,-36 -26.6375,-60.625 -64.6875,-60.625 -26.6375,0 -47.575,13.2625 -60.8875,39.7875 -15.225,26.525 -24.7375,87.1625 -24.7375,151.575 0,45.475 3.8125,92.85 11.4125,134.525 11.425,53.0625 38.0625,81.475 79.925,81.475 39.95,0 58.975,-26.525 58.975,-83.3625 l 0,-36 -60.8875,0 0,-75.7875 138.9,0 0,111.7875 c 0,37.8875 -3.8,60.6375 -15.2125,83.3625 z"
   id="path35" /><path
   inkscape:connector-curvature="0"
   style="fill:#000000;fill-rule:nonzero;stroke:none"
   d="m 2260.4123,1484.5923 c -23.3625,-15.1375 -46.05,-30.325 -60.525,-40.5125 -43.5375,-30.6375 -66.6,-72 -66.6,-119.3625 0,-77.69 60.8875,-140.2163 138.9,-140.2163 76.1125,0 135.1,58.7375 137,140.2163 l -74.2125,0 c -1.9,-37.9 -28.5375,-62.5375 -62.7875,-62.5375 -36.15,0 -64.6875,26.5375 -64.6875,62.5375 0,26.525 11.4125,41.675 51.375,64.4125 104.65,60.6375 150.3125,119.375 150.3125,197.0625 0,87.15 -66.6,157.2625 -150.3125,157.2625 -95.1375,0 -152.225,-79.5875 -152.225,-168.6375 l 76.1125,0 c 0,45.475 22.8375,92.85 76.1125,92.85 41.8625,0 76.1,-37.9 76.1,-81.475 0,-33.8375 -13.975,-62.35 -74.5625,-101.6 z"
   id="path37" /><path
   inkscape:connector-curvature="0"
   style="fill:#000000;fill-rule:nonzero;stroke:none"
   d="m 2634.5123,1265.9797 0,468 -77.9125,0 0,-468 -98.8125,0 0,-72.005 275.5375,0 0,72.005 -98.8125,0 z"
   id="path39" /><path
   inkscape:connector-curvature="0"
   style="fill:#000000;fill-rule:nonzero;stroke:none"
   d="m 1994.0498,1667.6547 c -26.475,43.5875 -77.525,75.8 -128.575,75.8 -52.95,0 -105.8875,-30.325 -132.3625,-75.8 -15.125,-28.4125 -20.8,-51.15 -20.8,-94.7375 l 0,-378.9425 77.525,0 0,388.4175 c 0,51.1625 30.2625,85.2625 75.6375,85.2625 41.6,0 71.85,-34.1 71.85,-85.2625 l 0,-388.4175 77.525,0 0,378.9425 c 0,43.5875 -5.675,66.325 -20.8,94.7375 z"
   id="path41" /><path
   inkscape:connector-curvature="0"
   style="fill:#000000;fill-rule:nonzero;stroke:none"
   d="m 2976.5873,1489.5547 0,244.425 -77.8875,0 0,-244.425 -132.975,-295.58 81.6875,0 91.1875,195.155 89.275,-195.155 83.5875,0 -134.875,295.58 z"
   id="path43" /></svg>