<?xml version="1.0" encoding="UTF-8" standalone="no"?>
<svg
   xmlns:dc="http://purl.org/dc/elements/1.1/"
   xmlns:cc="http://creativecommons.org/ns#"
   xmlns:rdf="http://www.w3.org/1999/02/22-rdf-syntax-ns#"
   xmlns:svg="http://www.w3.org/2000/svg"
   xmlns="http://www.w3.org/2000/svg"
   xmlns:sodipodi="http://sodipodi.sourceforge.net/DTD/sodipodi-0.dtd"
   xmlns:inkscape="http://www.inkscape.org/namespaces/inkscape"
   width="90"
   height="90.003128"
   viewBox="0 0 254.00004 254.00882"
   version="1.1"
   id="svg2"
   inkscape:version="0.48.2 r9819"
   sodipodi:docname="AJAX1.svg">
  <metadata
     id="metadata62">
    <rdf:RDF>
      <cc:Work
         rdf:about="">
        <dc:format>image/svg+xml</dc:format>
        <dc:type
           rdf:resource="http://purl.org/dc/dcmitype/StillImage" />
        <dc:title></dc:title>
      </cc:Work>
    </rdf:RDF>
  </metadata>
  <defs
     id="defs60" />
  <sodipodi:namedview
     pagecolor="#ffffff"
     bordercolor="#666666"
     borderopacity="1"
     objecttolerance="10"
     gridtolerance="10"
     guidetolerance="10"
     inkscape:pageopacity="0"
     inkscape:pageshadow="2"
     inkscape:window-width="1280"
     inkscape:window-height="1004"
     id="namedview58"
     showgrid="false"
     fit-margin-top="0"
     fit-margin-left="0"
     fit-margin-right="0"
     fit-margin-bottom="0"
     inkscape:zoom="5.6568543"
     inkscape:cx="43.70313"
     inkscape:cy="51.0257"
     inkscape:window-x="-8"
     inkscape:window-y="-8"
     inkscape:window-maximized="1"
     inkscape:current-layer="svg2" />
  <!-- draw the bicycle -->
  <!-- RIGHT -->
  <!-- LANE -->
  <!-- ONLY -->
  <path
     d="M 250.36731,118.18849 135.80976,3.6379975 c -4.84364,-4.8506954 -12.77408,-4.8506954 -17.62478,0 L 3.6380175,118.18849 c -4.85069,4.84364 -4.85069,12.77409 0,17.62478 L 118.18498,250.37082 c 4.8507,4.85069 12.78114,4.85069 17.62478,0 L 250.36731,135.81327 c 4.84364,-4.85069 4.84364,-12.78114 0,-17.62478"
     style="fill:#ffd033;fill-opacity:1;fill-rule:nonzero;stroke:none"
     id="path3705"
     inkscape:connector-curvature="0" />
  <path
     d="M 247.60506,120.00882 133.99296,6.3967202 c -3.84528,-3.8452784 -10.13531,-3.8452784 -13.98765,0 L 6.3932075,120.00882 c -3.84528,3.84528 -3.84528,10.13531 0,13.98765 L 120.00531,247.61562 c 3.85234,3.84528 10.14237,3.84528 13.98765,0 l 113.6121,-113.61915 c 3.84527,-3.85234 3.84527,-10.14237 0,-13.98765"
     style="fill:#000000;fill-opacity:1;fill-rule:evenodd;stroke:none"
     id="path3713"
     inkscape:connector-curvature="0" />
  <path
     d="M 244.04906,123.50838 130.4934,9.9527212 c -1.92264,-1.9226396 -5.06589,-1.9226396 -6.98853,0 L 9.9492175,123.50838 c -1.92264,1.92264 -1.92264,5.06589 0,6.985 L 123.50487,244.05962 c 1.92264,1.92264 5.06589,1.92264 6.98853,0 L 244.04906,130.49338 c 1.92264,-1.91911 1.92264,-5.06236 0,-6.985"
     style="fill:#ffd033;fill-opacity:1;fill-rule:evenodd;stroke:none"
     id="path3717"
     inkscape:connector-curvature="0" />
  <path
     d="m 184.75063,129.35038 0,0 c 0,-32.430866 -26.45481,-58.882148 -58.8892,-58.882148 -32.423813,0 -58.875103,26.451282 -58.875103,58.882148 l 0.24695,2.44122 -12.12145,-4.16277 c -0.65969,-0.36689 -1.45344,-0.48331 -2.20486,-0.59267 -2.286,-0.32456 -4.44853,1.99672 -4.44853,4.445 0,1.15006 0.4692,2.27894 1.25236,3.09386 l 28.31395,38.33637 29.393453,-38.33637 c 0.77611,-0.82197 1.25236,-1.9438 1.25236,-3.09386 0,-2.44828 -1.99672,-4.6602 -4.45205,-4.445 -0.75495,0.0706 -1.54164,0.22578 -2.20486,0.59267 l -12.551842,4.16277 -0.0494,-2.44122 c 0,-20.07658 16.379482,-36.449005 36.449012,-36.449005 20.08011,0 36.45606,16.372425 36.45606,36.449005 l 0.15169,43.61745 22.27792,0 0.003,-43.61745 z"
     style="fill:#000000;fill-opacity:1;fill-rule:evenodd;stroke:none"
     id="path3721"
     inkscape:connector-curvature="0" />
</svg>
