<?xml version="1.0" encoding="UTF-8" standalone="no"?>
<!-- Generator: Adobe Illustrator 14.0.0, SVG Export Plug-In  -->

<svg
   xmlns:dc="http://purl.org/dc/elements/1.1/"
   xmlns:cc="http://creativecommons.org/ns#"
   xmlns:rdf="http://www.w3.org/1999/02/22-rdf-syntax-ns#"
   xmlns:svg="http://www.w3.org/2000/svg"
   xmlns="http://www.w3.org/2000/svg"
   xmlns:sodipodi="http://sodipodi.sourceforge.net/DTD/sodipodi-0.dtd"
   xmlns:inkscape="http://www.inkscape.org/namespaces/inkscape"
   version="1.1"
   x="0px"
   y="0px"
   width="264.82001"
   height="264.82001"
   viewBox="0 -0.321 264.81998 264.82005"
   enable-background="new 0 -0.321 144 120"
   xml:space="preserve"
   id="svg2"
   inkscape:version="0.48.2 r9819"
   sodipodi:docname="AJAX1.svg"><metadata
   id="metadata44"><rdf:RDF><cc:Work
       rdf:about=""><dc:format>image/svg+xml</dc:format><dc:type
         rdf:resource="http://purl.org/dc/dcmitype/StillImage" /><dc:title /></cc:Work></rdf:RDF></metadata><sodipodi:namedview
   pagecolor="#ffffff"
   bordercolor="#666666"
   borderopacity="1"
   objecttolerance="10"
   gridtolerance="10"
   guidetolerance="10"
   inkscape:pageopacity="0"
   inkscape:pageshadow="2"
   inkscape:window-width="1280"
   inkscape:window-height="1004"
   id="namedview42"
   showgrid="false"
   fit-margin-top="0"
   fit-margin-left="0"
   fit-margin-right="0"
   fit-margin-bottom="0"
   inkscape:zoom="1.0729601"
   inkscape:cx="138.01561"
   inkscape:cy="18.799941"
   inkscape:window-x="-8"
   inkscape:window-y="-8"
   inkscape:window-maximized="1"
   inkscape:current-layer="svg2"
   showguides="true"
   inkscape:guide-bbox="true" />
<defs
   id="defs4">
<clipPath
   clipPathUnits="userSpaceOnUse"
   id="clipPath36474"><path
     inkscape:connector-curvature="0"
     d="m 74.58,538.258 233.098,0 0,138.259 -233.098,0 0,-138.259 z"
     id="path36476" /></clipPath><clipPath
   clipPathUnits="userSpaceOnUse"
   id="clipPath36354"><path
     inkscape:connector-curvature="0"
     d="m 74.58,520.859 233.1,0 0,173.057 -233.1,0 0,-173.057 z"
     id="path36356" /></clipPath></defs>


















<path
   inkscape:connector-curvature="0"
   d="m 261.27625,123.49777 c 4.725,4.725 4.725,12.4575 0,17.1825 L 141.00248,260.95529 c -4.72625,4.725 -12.4575,4.725 -17.18375,0 L 3.5437152,140.68027 c -4.7249999,-4.725 -4.7249999,-12.4575 0,-17.1825 L 123.81873,3.22275 c 4.72625,-4.725 12.4575,-4.725 17.18375,0 l 120.27377,120.27502"
   style="fill:#ffd033;fill-opacity:1;fill-rule:nonzero;stroke:none"
   id="path40593" /><path
   inkscape:connector-curvature="0"
   d="m 255.54862,129.22527 c 1.57624,1.575 1.57624,4.1525 0.001,5.7275 L 135.27335,255.22779 c -1.575,1.575 -4.1525,1.575 -5.7275,0 L 9.2708353,134.95277 c -1.575,-1.575 -1.575,-4.1525 0,-5.7275 L 129.54585,8.95025 c 1.575,-1.575 4.1525,-1.575 5.7275,0 L 255.54837,129.22527 z M 126.10985,5.514 5.8348353,125.78902 c -3.465,3.465 -3.465,9.135 0,12.6 L 126.10985,258.66404 c 3.465,3.465 9.13625,3.465 12.6,0 L 258.98611,138.38902 c 3.465,-3.465 3.465,-9.135 0,-12.6 L 138.7111,5.514 c -3.465,-3.465 -9.135,-3.465 -12.60125,0"
   style="fill:#000000;fill-opacity:1;fill-rule:nonzero;stroke:none"
   id="path40609" /><path
   d="m 160.97701,142.72267 -57.13308,0 0,56.77637 57.13308,0 z"
   style="fill:#000000;fill-opacity:1;fill-rule:evenodd;stroke:none"
   id="path6288"
   inkscape:connector-curvature="0"
   sodipodi:nodetypes="ccccc" /><path
   d="m 132.45976,149.68675 c -11.80084,0 -21.42247,9.62812 -21.42247,21.42248 0,11.79762 9.62163,21.4257 21.42247,21.4257 11.80085,0 21.42572,-9.62808 21.42572,-21.4257 0,-11.79436 -9.62492,-21.42248 -21.42572,-21.42248"
   style="fill:#ffd033;fill-opacity:1;fill-rule:evenodd;stroke:none"
   id="path6300"
   inkscape:connector-curvature="0" /><path
   sodipodi:nodetypes="ccccc"
   inkscape:connector-curvature="0"
   id="path3780"
   style="fill:#000000;fill-opacity:1;fill-rule:evenodd;stroke:none"
   d="m 193.19309,78.643237 -57.13177,0 0,56.776343 57.13177,0 z" /><path
   inkscape:connector-curvature="0"
   id="path3782"
   style="fill:#c4122e;fill-opacity:1;fill-rule:evenodd;stroke:none"
   d="m 164.67649,85.607304 c -11.80058,0 -21.42198,9.628118 -21.42198,21.422476 0,11.79759 9.6214,21.42569 21.42198,21.42569 11.80059,0 21.42523,-9.6281 21.42523,-21.42569 0,-11.794358 -9.62464,-21.422476 -21.42523,-21.422476" /><path
   d="m 71.626981,78.643237 57.131829,0 0,56.776343 -57.131829,0 z"
   style="fill:#000000;fill-opacity:1;fill-rule:evenodd;stroke:none"
   id="path3784"
   inkscape:connector-curvature="0"
   sodipodi:nodetypes="ccccc" /><path
   d="m 100.14358,85.607304 c 11.80058,0 21.42201,9.628118 21.42201,21.422476 0,11.79759 -9.62143,21.42569 -21.42201,21.42569 -11.800605,0 -21.425235,-9.6281 -21.425235,-21.42569 0,-11.794358 9.62463,-21.422476 21.425235,-21.422476"
   style="fill:#c4122e;fill-opacity:1;fill-rule:evenodd;stroke:none"
   id="path3786"
   inkscape:connector-curvature="0" /></svg>