<svg version="1.1" viewBox="0 0 26 26" xmlns="http://www.w3.org/2000/svg">
 <rect x="1" y="1" width="24" height="24" ry="1.5" fill="#fff" stroke="#000" stroke-width="0.05"/>
 <rect x="1.6875" y="1.6875" width="22.625" height="22.625" ry=".8125" fill="none" stroke="#000" stroke-width=".625"/>
 <path transform="matrix(.009 0 0 -.009 5.85 17.5)" d="m1478 0h-144v562l-187-562-186 562v-562h-144v1e3h144l186-562 187 562h144zm-806 0h-144v452h-274v-452h-144v1e3h144v-407h274v407h144z"/>
 <path d="m7 7 12 12m3-6a9 9 0 0 1-18 0 9 9 0 0 1 18 0z" fill="none" stroke="#a12" stroke-width="2"/>
</svg>
