<?xml version="1.0" encoding="UTF-8" standalone="no"?>
<!-- Generator: Adobe Illustrator 12.0.1, SVG Export Plug-In  -->

<svg
   xmlns:dc="http://purl.org/dc/elements/1.1/"
   xmlns:cc="http://creativecommons.org/ns#"
   xmlns:rdf="http://www.w3.org/1999/02/22-rdf-syntax-ns#"
   xmlns:svg="http://www.w3.org/2000/svg"
   xmlns="http://www.w3.org/2000/svg"
   xmlns:sodipodi="http://sodipodi.sourceforge.net/DTD/sodipodi-0.dtd"
   xmlns:inkscape="http://www.inkscape.org/namespaces/inkscape"
   version="1.1"
   width="286.66125"
   height="286.66476"
   viewBox="-1 0 286.66125 286.66476"
   enable-background="new -1 0 289 288"
   xml:space="preserve"
   id="svg2"
   inkscape:version="0.48.2 r9819"
   sodipodi:docname="AJAX1.svg"><metadata
   id="metadata56"><rdf:RDF><cc:Work
       rdf:about=""><dc:format>image/svg+xml</dc:format><dc:type
         rdf:resource="http://purl.org/dc/dcmitype/StillImage" /></cc:Work></rdf:RDF></metadata><sodipodi:namedview
   pagecolor="#ffffff"
   bordercolor="#666666"
   borderopacity="1"
   objecttolerance="10"
   gridtolerance="10"
   guidetolerance="10"
   inkscape:pageopacity="0"
   inkscape:pageshadow="2"
   inkscape:window-width="1280"
   inkscape:window-height="1004"
   id="namedview54"
   showgrid="false"
   fit-margin-top="0"
   fit-margin-left="0"
   fit-margin-right="0"
   fit-margin-bottom="0"
   inkscape:zoom="2.3177389"
   inkscape:cx="73.786779"
   inkscape:cy="154.25174"
   inkscape:window-x="-8"
   inkscape:window-y="-8"
   inkscape:window-maximized="1"
   inkscape:current-layer="svg2" />
<defs
   id="defs4">
</defs>
<path
   d="M 3.0987498,133.3875 132.37975,4.1055 c 5.471,-5.474 14.421,-5.474 19.895,0 l 129.284,129.282 c 5.47,5.471 5.47,14.423 0,19.889 l -129.284,129.285 c -5.474,5.471 -14.424,5.471 -19.895,0 L 3.0987498,153.2755 c -5.465,-5.465 -5.465,-14.418 0,-19.888 z"
   id="path6"
   style="fill:#ffd033;stroke:none;fill-opacity:1"
   inkscape:connector-curvature="0" />

<path
   clip-rule="evenodd"
   d="M 6.2217498,135.4405 134.44075,7.2205 c 4.339,-4.339 11.442,-4.339 15.785,0 l 128.215,128.22 c 4.343,4.343 4.343,11.438 0,15.777 l -128.215,128.224 c -4.343,4.336 -11.446,4.336 -15.785,0 L 6.2217498,151.2175 c -4.339,-4.339 -4.339,-11.435 0,-15.777"
   id="path10"
   inkscape:connector-curvature="0"
   style="fill-rule:evenodd;stroke:none;fill:#000000" />
<path
   clip-rule="evenodd"
   d="m 10.22475,139.3905 128.162,-128.162 c 2.162,-2.169 5.724,-2.169 7.889,0 l 128.16,128.162 c 2.166,2.166 2.166,5.716 0,7.883 l -128.16,128.161 c -2.165,2.168 -5.727,2.168 -7.889,0 l -128.162,-128.161 c -2.1660002,-2.167 -2.1660002,-5.717 0,-7.883"
   id="path12"
   inkscape:connector-curvature="0"
   style="fill:#ffd033;fill-rule:evenodd;stroke:none;fill-opacity:1" />
<path
   d="m 56.22675,160.6755 v -34.678 h 4.865 v 34.678 h -4.865 z"
   id="path14"
   inkscape:connector-curvature="0"
   style="stroke:none;fill:#000000" />
<path
   d="m 86.60875,160.6755 v -19.462 l -6.418,19.462 -6.47,-19.462 v 19.462 h -4.969 v -34.678 h 4.969 l 6.47,19.461 6.418,-19.461 h 5.021 v 34.678 h -5.021 z"
   id="path16"
   inkscape:connector-curvature="0"
   style="stroke:none;fill:#000000" />
<path
   d="m 109.53675,145.4585 h -5.383 v 15.217 h -4.969 v -34.678 h 10.352 c 5.435,0 9.109,3.882 9.109,9.729 10e-4,6.315 -3.26,9.732 -9.109,9.732 z m -0.258,-14.596 h -5.124 v 9.833 h 5.124 c 2.898,0 4.503,-1.812 4.503,-4.969 0,-2.897 -1.812,-4.864 -4.503,-4.864 z"
   id="path18"
   inkscape:connector-curvature="0"
   style="stroke:none;fill:#000000" />
<path
   d="m 137.90075,160.6755 -2.433,-9.472 h -7.453 l -2.277,9.472 h -5.021 l 8.644,-34.678 h 4.865 l 8.644,34.678 h -4.969 z m -6.211,-24.327 -2.433,9.99 h 4.969 l -2.536,-9.99 z"
   id="path20"
   inkscape:connector-curvature="0"
   style="stroke:none;fill:#000000" />
<path
   d="m 147.62975,160.6755 v -34.678 h 4.865 v 34.678 h -4.865 z"
   id="path22"
   inkscape:connector-curvature="0"
   style="stroke:none;fill:#000000" />
<path
   d="m 174.49175,160.6755 -4.606,-16.304 h -4.762 v 16.304 h -4.969 v -34.678 h 10.352 c 5.435,0 9.109,3.675 9.109,9.264 0,4.141 -1.708,7.143 -4.969,8.385 l 4.969,17.029 h -5.124 z m -4.244,-29.813 h -5.124 v 8.746 h 5.124 c 2.898,0 4.503,-1.553 4.503,-4.348 0,-2.69 -1.811,-4.398 -4.503,-4.398 z"
   id="path24"
   inkscape:connector-curvature="0"
   style="stroke:none;fill:#000000" />
<path
   d="m 185.46475,160.6755 v -34.678 h 16.304 v 4.865 h -11.335 v 8.746 h 7.194 v 4.763 h -7.194 v 11.438 h 12.681 v 4.865 h -17.65 z"
   id="path26"
   inkscape:connector-curvature="0"
   style="stroke:none;fill:#000000" />
<path
   d="m 223.45475,159.0705 c -1.242,1.139 -2.95,1.604 -4.865,1.604 h -9.627 v -34.678 h 8.851 c 2.95,0 4.399,0.362 5.642,1.346 2.07,1.449 3.52,4.141 4.141,7.659 0.466,2.536 0.828,5.59 0.828,8.281 -10e-4,8.025 -1.605,13.149 -4.97,15.788 z m -0.88,-24.689 c -0.828,-2.432 -2.277,-3.519 -4.503,-3.519 h -4.141 v 24.947 h 4.141 c 2.95,0 4.503,-2.329 5.021,-4.969 0.207,-2.226 0.466,-4.658 0.466,-7.299 0,-3.933 -0.362,-7.711 -0.984,-9.16 z"
   id="path28"
   inkscape:connector-curvature="0"
   style="stroke:none;fill:#000000" />
<path
   d="m 102.80875,180.3915 c -0.518,-3.415 -1.863,-5.02 -4.141,-5.02 -4.037,0 -5.486,3.156 -5.486,12.163 0,9.989 1.708,14.026 5.952,14.026 2.898,0 3.675,-2.433 3.675,-5.021 h 4.969 c -0.104,5.745 -3.778,9.886 -8.644,9.886 -7.401,0 -10.714,-5.952 -10.714,-18.736 0,-11.231 3.52,-17.184 10.352,-17.184 2.795,0 5.228,1.242 6.832,3.52 1.294,1.708 1.812,3.209 2.174,6.365 h -4.969 z"
   id="path30"
   inkscape:connector-curvature="0"
   style="stroke:none;fill:#000000" />
<path
   d="m 129.20475,205.8055 v -15.683 h -9.523 v 15.683 h -4.969 v -34.678 h 4.969 v 14.129 h 9.523 v -14.129 h 4.969 v 34.678 h -4.969 z"
   id="path32"
   inkscape:connector-curvature="0"
   style="stroke:none;fill:#000000" />
<path
   d="m 141.72975,205.8055 v -34.678 h 4.865 v 34.678 h -4.865 z"
   id="path34"
   inkscape:connector-curvature="0"
   style="stroke:none;fill:#000000" />
<path
   d="m 154.25475,205.8055 v -34.678 h 4.969 v 30.071 h 12.681 v 4.606 h -17.65 z"
   id="path36"
   inkscape:connector-curvature="0"
   style="stroke:none;fill:#000000" />
<path
   d="m 191.26175,204.2005 c -1.242,1.139 -2.95,1.604 -4.865,1.604 h -9.627 v -34.678 h 8.851 c 2.95,0 4.399,0.362 5.642,1.346 2.07,1.449 3.52,4.141 4.141,7.659 0.466,2.536 0.828,5.59 0.828,8.282 -0.001,8.024 -1.606,13.148 -4.97,15.787 z m -0.88,-24.689 c -0.828,-2.432 -2.277,-3.519 -4.503,-3.519 h -4.141 v 24.947 h 4.141 c 2.95,0 4.503,-2.329 5.021,-4.969 0.207,-2.226 0.466,-4.658 0.466,-7.298 0,-3.934 -0.363,-7.712 -0.984,-9.161 z"
   id="path38"
   inkscape:connector-curvature="0"
   style="stroke:none;fill:#000000" />
<path
   d="m 84.94475,115.5905 v -15.683 h -9.523 v 15.683 h -4.969 v -34.677 h 4.969 v 14.129 h 9.523 v -14.129 h 4.969 v 34.677 h -4.969 z"
   id="path40"
   inkscape:connector-curvature="0"
   style="stroke:none;fill:#000000" />
<path
   d="m 93.58775,115.5905 v -34.677 h 16.304 v 4.865 h -11.335 v 8.746 h 7.194 v 4.762 h -7.194 v 11.438 h 12.681 v 4.865 h -17.65 z"
   id="path42"
   inkscape:connector-curvature="0"
   style="stroke:none;fill:#000000" />
<path
   d="m 130.28375,115.5905 -2.433,-9.472 h -7.453 l -2.277,9.472 h -5.021 l 8.644,-34.677 h 4.865 l 8.644,34.677 h -4.969 z m -6.21,-24.327 -2.433,9.99 h 4.969 l -2.536,-9.99 z"
   id="path44"
   inkscape:connector-curvature="0"
   style="stroke:none;fill:#000000" />
<path
   d="m 152.05575,115.5905 -4.605,-16.304 h -4.762 v 16.304 h -4.969 v -34.677 h 10.352 c 5.434,0 9.109,3.675 9.109,9.264 0,4.141 -1.709,7.143 -4.969,8.385 l 4.969,17.029 h -5.125 z m -4.244,-29.812 h -5.123 v 8.746 h 5.123 c 2.898,0 4.504,-1.553 4.504,-4.348 0,-2.69 -1.813,-4.398 -4.504,-4.398 z"
   id="path46"
   inkscape:connector-curvature="0"
   style="stroke:none;fill:#000000" />
<path
   d="m 161.73575,115.5905 v -34.677 h 4.865 v 34.677 h -4.865 z"
   id="path48"
   inkscape:connector-curvature="0"
   style="stroke:none;fill:#000000" />
<path
   d="m 187.06175,115.5905 -10.715,-23.24 v 23.24 h -4.969 v -34.677 h 4.969 l 9.523,20.806 v -20.806 h 4.969 v 34.677 h -3.777 z"
   id="path50"
   inkscape:connector-curvature="0"
   style="stroke:none;fill:#000000" />
<path
   d="m 213.21575,111.3465 c -1.346,3.002 -4.141,4.865 -7.66,4.865 -4.141,0 -7.195,-2.07 -8.902,-5.952 -1.088,-2.588 -1.813,-7.453 -1.813,-11.957 0,-4.865 0.363,-8.385 1.605,-11.696 1.189,-3.623 4.709,-6.314 8.746,-6.314 4.969,0 8.748,3.675 9.006,8.799 h -4.969 c -0.154,-2.329 -1.707,-3.934 -4.141,-3.934 -1.707,0 -3.053,0.88 -3.934,2.588 -0.932,1.707 -1.553,5.589 -1.553,9.729 0,2.899 0.26,5.953 0.725,8.644 0.725,3.364 2.434,5.228 5.125,5.228 2.535,0 3.777,-1.708 3.777,-5.383 v -2.277 h -3.934 v -4.865 h 8.902 v 7.143 c 0.003,2.432 -0.255,3.933 -0.98,5.382 z"
   id="path52"
   inkscape:connector-curvature="0"
   style="stroke:none;fill:#000000" />
</svg>