<?xml version="1.0" encoding="UTF-8" standalone="no"?>
<!-- Generator: Adobe Illustrator 12.0.1, SVG Export Plug-In  -->

<svg
   xmlns:dc="http://purl.org/dc/elements/1.1/"
   xmlns:cc="http://creativecommons.org/ns#"
   xmlns:rdf="http://www.w3.org/1999/02/22-rdf-syntax-ns#"
   xmlns:svg="http://www.w3.org/2000/svg"
   xmlns="http://www.w3.org/2000/svg"
   xmlns:sodipodi="http://sodipodi.sourceforge.net/DTD/sodipodi-0.dtd"
   xmlns:inkscape="http://www.inkscape.org/namespaces/inkscape"
   version="1.1"
   width="286.35663"
   height="286.3775"
   viewBox="0 0 286.35663 286.3775"
   enable-background="new 0 0 289 288"
   xml:space="preserve"
   id="svg2"
   inkscape:version="0.48.2 r9819"
   sodipodi:docname="AJAX1.svg"><metadata
   id="metadata52"><rdf:RDF><cc:Work
       rdf:about=""><dc:format>image/svg+xml</dc:format><dc:type
         rdf:resource="http://purl.org/dc/dcmitype/StillImage" /></cc:Work></rdf:RDF></metadata><sodipodi:namedview
   pagecolor="#ffffff"
   bordercolor="#666666"
   borderopacity="1"
   objecttolerance="10"
   gridtolerance="10"
   guidetolerance="10"
   inkscape:pageopacity="0"
   inkscape:pageshadow="2"
   inkscape:window-width="1280"
   inkscape:window-height="1004"
   id="namedview50"
   showgrid="false"
   fit-margin-top="0"
   fit-margin-left="0"
   fit-margin-right="0"
   fit-margin-bottom="0"
   inkscape:zoom="2.3177389"
   inkscape:cx="45.935632"
   inkscape:cy="145.89841"
   inkscape:window-x="-8"
   inkscape:window-y="-8"
   inkscape:window-maximized="1"
   inkscape:current-layer="svg2" />
<defs
   id="defs4">
</defs>
<path
   d="m 135.50625,283.24575 -132.339,-132.36 c -4.223,-4.231 -4.223,-11.124 0,-15.347 L 135.50625,3.1707482 c 4.219,-4.227 11.115,-4.227 15.345,-0.004 l 132.331,132.3730018 c 4.231,4.236 4.231,11.115 0.009,15.347 l -132.34,132.36 c -4.182,4.17 -11.17,4.179 -15.345,-0.001"
   id="path6"
   style="fill:#ffd033;fill-opacity:1;stroke:none"
   inkscape:connector-curvature="0" />

<path
   clip-rule="evenodd"
   d="m 137.60225,281.08875 -132.274,-132.307 c -3.042,-3.056 -3.038,-8.086 0,-11.142 L 137.60225,5.3317482 c 3.056,-3.042 8.09,-3.042 11.139,0 l 132.283,132.3160018 c 3.043,3.051 3.043,8.077 0,11.133 l -132.283,132.308 c -3.048,3.033 -8.083,3.047 -11.139,0"
   id="path10"
   inkscape:connector-curvature="0"
   style="fill:#000000;fill-rule:evenodd;stroke:none" />
<path
   clip-rule="evenodd"
   d="m 140.56325,278.07675 -132.214,-132.243 c -1.467,-1.419 -1.467,-3.833 0,-5.248 L 140.55425,8.3577482 c 1.411,-1.472 3.828,-1.472 5.243,0 l 132.207,132.2290018 c 1.458,1.415 1.458,3.837 0,5.256 l -132.207,132.234 c -1.415,1.459 -3.824,1.459 -5.234,0"
   id="path12"
   style="fill:#ffd033;fill-opacity:1;fill-rule:evenodd;stroke:none"
   inkscape:connector-curvature="0" />
<path
   d="M 98.73825,104.04675 V 88.048748 h -6.082 v 15.999002 h -4.345 V 69.801748 h 4.345 v 13.8 h 6.082 v -13.8 h 4.345 v 34.245002 h -4.345 z"
   id="path14"
   inkscape:connector-curvature="0"
   style="fill:#000000;stroke:none" />
<path
   d="M 110.54525,104.04675 V 69.801748 h 4.345 v 34.245002 h -4.345 z"
   id="path16"
   inkscape:connector-curvature="0"
   style="fill:#000000;stroke:none" />
<path
   d="m 134.10625,102.36075 c -0.971,1.073 -2.658,1.687 -4.549,1.687 h -7.104 V 69.801748 h 7.104 c 2.402,0 4.089,0.818 5.162,2.504 0.818,1.329 1.534,3.629 1.789,5.776 0.46,2.76 0.716,5.877 0.716,8.791 0,8.025 -1.073,13.187002 -3.118,15.488002 z m -1.686,-23.205002 c -0.358,-3.731 -1.073,-4.907 -2.862,-4.907 h -2.76 v 25.352 h 2.76 c 1.534,0 2.402,-1.073 2.862,-3.629 0.102,-1.175 0.358,-5.009 0.358,-8.025 0,-2.505 -0.256,-6.389 -0.358,-8.791 z"
   id="path18"
   inkscape:connector-curvature="0"
   style="fill:#000000;stroke:none" />
<path
   d="m 155.26625,102.36075 c -0.971,1.073 -2.658,1.687 -4.549,1.687 h -7.105 V 69.801748 h 7.105 c 2.402,0 4.088,0.818 5.162,2.504 0.818,1.329 1.533,3.629 1.789,5.776 0.459,2.76 0.715,5.877 0.715,8.791 0,8.025 -1.072,13.187002 -3.117,15.488002 z m -1.688,-23.205002 c -0.357,-3.731 -1.072,-4.907 -2.861,-4.907 h -2.76 v 25.352 h 2.76 c 1.533,0 2.402,-1.073 2.861,-3.629 0.104,-1.175 0.357,-5.009 0.357,-8.025 0.001,-2.505 -0.253,-6.389 -0.357,-8.791 z"
   id="path20"
   inkscape:connector-curvature="0"
   style="fill:#000000;stroke:none" />
<path
   d="M 164.77225,104.04675 V 69.801748 h 12.623 v 4.447 h -8.279 v 8.791 h 5.52 v 4.549 h -5.52 v 12.012 h 8.74 v 4.447002 h -13.084 z"
   id="path22"
   inkscape:connector-curvature="0"
   style="fill:#000000;stroke:none" />
<path
   d="m 194.31525,104.04675 -6.697,-20.292002 v 20.292002 h -4.344 V 69.801748 h 4.344 l 6.084,17.071 v -17.071 h 4.344 v 34.245002 h -3.731 z"
   id="path24"
   inkscape:connector-curvature="0"
   style="fill:#000000;stroke:none" />
<path
   d="m 39.24625,160.96175 v -34.246 h 4.345 v 34.246 h -4.345 z"
   id="path26"
   inkscape:connector-curvature="0"
   style="fill:#000000;stroke:none" />
<path
   d="m 62.19425,160.96175 -6.695,-20.292 v 20.292 h -4.345 v -34.246 h 4.345 l 6.082,17.072 v -17.072 h 4.345 v 34.246 h -3.732 z"
   id="path28"
   inkscape:connector-curvature="0"
   style="fill:#000000;stroke:none" />
<path
   d="m 79.26525,131.16275 v 29.799 h -4.344 v -29.799 h -4.191 v -4.447 h 12.982 v 4.447 h -4.447 z"
   id="path30"
   inkscape:connector-curvature="0"
   style="fill:#000000;stroke:none" />
<path
   d="m 88.51525,160.96175 v -34.246 h 12.625 v 4.447 h -8.28 v 8.792 h 5.52 v 4.548 h -5.52 v 12.013 h 8.74 v 4.446 h -13.085 z"
   id="path32"
   inkscape:connector-curvature="0"
   style="fill:#000000;stroke:none" />
<path
   d="m 118.21125,143.88975 3.476,17.072 h -4.447 l -3.884,-15.999 h -1.993 v 15.999 h -4.345 v -34.246 h 6.747 c 5.264,0 8.024,3.22 8.024,9.609 0,3.835 -1.073,6.032 -3.578,7.565 z m -4.702,-12.727 h -2.146 v 9.354 h 2.862 c 2.402,0 3.118,-1.074 3.118,-4.294 0,-3.884 -0.818,-5.06 -3.834,-5.06 z"
   id="path34"
   inkscape:connector-curvature="0"
   style="fill:#000000;stroke:none" />
<path
   d="m 137.17325,159.99175 c -1.073,0.971 -2.658,1.584 -4.447,1.584 -4.804,0 -7.309,-3.118 -7.564,-9.148 h 4.447 c 0,1.328 0.102,1.788 0.358,2.504 0.358,1.329 1.431,2.198 2.76,2.198 1.687,0 2.76,-1.329 2.76,-3.476 0,-3.016 -1.073,-5.572 -3.731,-8.69 -1.533,-1.788 -2.658,-3.117 -3.015,-3.577 -1.891,-2.3 -2.76,-4.703 -2.76,-7.105 0,-4.702 2.914,-8.024 7.002,-8.024 4.191,0 6.491,2.607 6.951,8.024 h -4.447 c -0.103,-2.658 -0.818,-3.731 -2.402,-3.731 -1.687,0 -2.658,1.431 -2.658,3.731 0,1.584 0.613,2.761 2.402,4.703 3.731,4.191 4.344,5.06 5.417,7.206 0.971,2.148 1.687,5.062 1.687,7.464 0,2.402 -1.073,4.905 -2.76,6.337 z"
   id="path36"
   inkscape:connector-curvature="0"
   style="fill:#000000;stroke:none" />
<path
   d="m 145.35025,160.96175 v -34.246 h 12.625 v 4.447 h -8.279 v 8.792 h 5.52 v 4.548 h -5.52 v 12.013 h 8.74 v 4.446 h -13.086 z"
   id="path38"
   inkscape:connector-curvature="0"
   style="fill:#000000;stroke:none" />
<path
   d="m 177.03925,157.48675 c -0.563,2.505 -2.965,4.089 -5.98,4.089 -3.475,0 -5.672,-1.431 -6.746,-4.6 -0.971,-2.862 -1.432,-7.564 -1.432,-13.085 0,-3.118 0.359,-7.667 0.869,-10.325 0.92,-5.265 2.965,-7.309 7.055,-7.309 3.832,0 6.389,2.402 6.746,6.593 h -4.447 c -0.102,-1.431 -0.971,-2.146 -2.146,-2.146 -1.584,0 -2.402,1.073 -2.914,3.322 -0.613,2.76 -0.715,5.316 -0.715,9.865 0,4.805 0.102,6.849 0.715,9.763 0.512,2.249 1.33,3.476 2.762,3.476 1.584,0 2.299,-1.227 2.299,-4.242 h 4.447 c -10e-4,2.656 -0.103,3.372 -0.513,4.599 z"
   id="path40"
   inkscape:connector-curvature="0"
   style="fill:#000000;stroke:none" />
<path
   d="m 189.91825,131.16275 v 29.799 h -4.344 v -29.799 h -4.191 v -4.447 h 12.982 v 4.447 h -4.447 z"
   id="path42"
   inkscape:connector-curvature="0"
   style="fill:#000000;stroke:none" />
<path
   d="m 199.17025,160.96175 v -34.246 h 4.344 v 34.246 h -4.344 z"
   id="path44"
   inkscape:connector-curvature="0"
   style="fill:#000000;stroke:none" />
<path
   d="m 225.95125,145.83175 c 0,6.083 -0.41,15.743 -7.922,15.743 -7.463,0 -7.924,-9.302 -7.924,-15.386 0,-0.868 0,-1.687 0,-2.401 0,-0.562 0,-1.227 0,-1.891 0,-6.185 0.359,-15.641 7.924,-15.641 7.512,0 7.922,9.354 7.922,15.487 0,0.715 0,1.431 0,2.044 0,0.613 0,1.279 0,2.045 z m -7.921,-15.129 c -3.221,0 -3.477,7.002 -3.477,10.938 0,0.92 0,1.687 0,2.146 0,0.408 0,1.175 0,2.095 0,3.988 0.256,11.246 3.477,11.246 3.066,0 3.373,-7.207 3.373,-11.194 0,-0.92 0,-1.687 0,-2.146 0,-2.76 -0.104,-13.085 -3.373,-13.085 z"
   id="path46"
   inkscape:connector-curvature="0"
   style="fill:#000000;stroke:none" />
<path
   d="m 243.37925,160.96175 -6.695,-20.292 v 20.292 h -4.344 v -34.246 h 4.344 l 6.082,17.072 v -17.072 h 4.344 v 34.246 h -3.731 z"
   id="path48"
   inkscape:connector-curvature="0"
   style="fill:#000000;stroke:none" />
</svg>