<?xml version="1.0" encoding="UTF-8" standalone="no"?>
<!-- Generator: Adobe Illustrator 12.0.1, SVG Export Plug-In  -->

<svg
   xmlns:dc="http://purl.org/dc/elements/1.1/"
   xmlns:cc="http://creativecommons.org/ns#"
   xmlns:rdf="http://www.w3.org/1999/02/22-rdf-syntax-ns#"
   xmlns:svg="http://www.w3.org/2000/svg"
   xmlns="http://www.w3.org/2000/svg"
   xmlns:sodipodi="http://sodipodi.sourceforge.net/DTD/sodipodi-0.dtd"
   xmlns:inkscape="http://www.inkscape.org/namespaces/inkscape"
   version="1.1"
   width="286.66199"
   height="286.66324"
   viewBox="-1 0 286.66199 286.66324"
   enable-background="new -1 0 289 288"
   xml:space="preserve"
   id="svg2"
   inkscape:version="0.48.2 r9819"
   sodipodi:docname="AJAX1.svg"><metadata
   id="metadata44"><rdf:RDF><cc:Work
       rdf:about=""><dc:format>image/svg+xml</dc:format><dc:type
         rdf:resource="http://purl.org/dc/dcmitype/StillImage" /></cc:Work></rdf:RDF></metadata><sodipodi:namedview
   pagecolor="#ffffff"
   bordercolor="#666666"
   borderopacity="1"
   objecttolerance="10"
   gridtolerance="10"
   guidetolerance="10"
   inkscape:pageopacity="0"
   inkscape:pageshadow="2"
   inkscape:window-width="1280"
   inkscape:window-height="1004"
   id="namedview42"
   showgrid="false"
   fit-margin-top="0"
   fit-margin-left="0"
   fit-margin-right="0"
   fit-margin-bottom="0"
   inkscape:zoom="2.3177389"
   inkscape:cx="74.144208"
   inkscape:cy="115.11259"
   inkscape:window-x="-8"
   inkscape:window-y="-8"
   inkscape:window-maximized="1"
   inkscape:current-layer="svg2" />
<defs
   id="defs4">
</defs>
<path
   d="M 3.09875,133.38675 132.37975,4.1047494 c 5.471,-5.473 14.421,-5.473 19.896,0 l 129.283,129.2820006 c 5.471,5.47 5.471,14.423 0,19.89 l -129.283,129.284 c -5.475,5.47 -14.425,5.47 -19.896,0 l -129.281,-129.285 c -5.465,-5.466 -5.465,-14.419 0,-19.889 z"
   id="path6"
   style="fill:#ffd033;stroke:none;fill-opacity:1"
   inkscape:connector-curvature="0" />

<path
   clip-rule="evenodd"
   d="M 6.22175,135.43975 134.44075,7.2207494 c 4.339,-4.339 11.442,-4.339 15.785,0 l 128.215,128.2190006 c 4.343,4.343 4.343,11.438 0,15.777 l -128.215,128.225 c -4.343,4.335 -11.446,4.335 -15.785,0 l -128.219,-128.225 c -4.338,-4.339 -4.338,-11.434 0,-15.777"
   id="path10"
   inkscape:connector-curvature="0"
   style="fill-rule:evenodd;stroke:none;fill:#000000" />
<path
   clip-rule="evenodd"
   d="m 10.22475,139.38975 128.162,-128.160001 c 2.162,-2.1699996 5.724,-2.1699996 7.889,0 l 128.16,128.160001 c 2.165,2.166 2.165,5.716 0,7.883 l -128.16,128.161 c -2.165,2.167 -5.727,2.167 -7.889,0 l -128.162,-128.161 c -2.165,-2.167 -2.165,-5.717 0,-7.883"
   id="path12"
   inkscape:connector-curvature="0"
   style="fill:#ffd033;fill-rule:evenodd;stroke:none;fill-opacity:1" />
<path
   d="m 71.59875,184.37775 c -1.242,1.139 -2.95,1.604 -4.865,1.604 h -9.627 v -34.678 h 8.851 c 2.951,0 4.4,0.362 5.642,1.346 2.07,1.449 3.52,4.141 4.141,7.66 0.466,2.536 0.828,5.59 0.828,8.281 -10e-4,8.023 -1.606,13.147 -4.97,15.787 z m -0.88,-24.688 c -0.828,-2.433 -2.277,-3.52 -4.503,-3.52 h -4.141 v 24.947 h 4.141 c 2.951,0 4.503,-2.329 5.021,-4.969 0.207,-2.226 0.466,-4.658 0.466,-7.298 -10e-4,-3.933 -0.363,-7.711 -0.984,-9.16 z"
   id="path14"
   inkscape:connector-curvature="0"
   style="stroke:none;fill:#000000" />
<path
   d="m 96.44275,185.98175 -4.606,-16.304 h -4.762 v 16.304 h -4.97 v -34.678 h 10.352 c 5.435,0 9.109,3.675 9.109,9.265 0,4.141 -1.708,7.143 -4.969,8.385 l 4.969,17.028 h -5.123 z m -4.244,-29.812 h -5.125 v 8.747 h 5.125 c 2.898,0 4.503,-1.553 4.503,-4.348 -0.001,-2.691 -1.812,-4.399 -4.503,-4.399 z"
   id="path16"
   inkscape:connector-curvature="0"
   style="stroke:none;fill:#000000" />
<path
   d="m 106.12075,185.98175 v -34.678 h 4.865 v 34.678 h -4.865 z"
   id="path18"
   inkscape:connector-curvature="0"
   style="stroke:none;fill:#000000" />
<path
   d="m 127.18675,185.98175 h -3.779 l -8.747,-34.678 h 5.021 l 5.693,22.515 5.746,-22.515 h 4.969 l -8.903,34.678 z"
   id="path20"
   inkscape:connector-curvature="0"
   style="stroke:none;fill:#000000" />
<path
   d="m 139.65875,185.98175 v -34.678 h 16.304 v 4.865 h -11.335 v 8.747 h 7.194 v 4.762 h -7.194 v 11.438 h 12.681 v 4.865 h -17.65 z"
   id="path22"
   inkscape:connector-curvature="0"
   style="stroke:none;fill:#000000" />
<path
   d="m 179.87475,185.98175 h -4.244 l -3.313,-18.115 -3.261,18.115 h -4.399 l -5.486,-34.678 h 4.865 l 2.95,18.478 3.364,-18.478 h 3.934 l 3.261,18.478 3.054,-18.478 h 4.866 l -5.591,34.678 z"
   id="path24"
   inkscape:connector-curvature="0"
   style="stroke:none;fill:#000000" />
<path
   d="m 203.42475,185.98175 -2.433,-9.472 h -7.453 l -2.277,9.472 h -5.021 l 8.644,-34.678 h 4.865 l 8.644,34.678 h -4.969 z m -6.211,-24.326 -2.433,9.989 h 4.969 l -2.536,-9.989 z"
   id="path26"
   inkscape:connector-curvature="0"
   style="stroke:none;fill:#000000" />
<path
   d="m 222.67875,170.29975 v 15.683 h -4.969 v -15.683 l -8.54,-18.995 h 5.228 l 5.849,12.525 5.745,-12.525 h 5.331 l -8.644,18.995 z"
   id="path28"
   inkscape:connector-curvature="0"
   style="stroke:none;fill:#000000" />
<path
   d="m 89.27475,137.23775 v -15.683 h -9.524 v 15.683 h -4.969 v -34.678 h 4.969 v 14.13 h 9.524 v -14.13 h 4.969 v 34.678 h -4.969 z"
   id="path30"
   inkscape:connector-curvature="0"
   style="stroke:none;fill:#000000" />
<path
   d="m 101.79875,137.23775 v -34.678 h 4.865 v 34.678 h -4.865 z"
   id="path32"
   inkscape:connector-curvature="0"
   style="stroke:none;fill:#000000" />
<path
   d="m 128.81675,135.63275 c -1.242,1.139 -2.95,1.604 -4.865,1.604 h -9.627 v -34.678 h 8.851 c 2.95,0 4.399,0.362 5.642,1.346 2.07,1.449 3.52,4.141 4.141,7.66 0.466,2.536 0.828,5.59 0.828,8.281 -0.002,8.024 -1.606,13.148 -4.97,15.787 z m -0.88,-24.688 c -0.828,-2.433 -2.277,-3.52 -4.503,-3.52 h -4.141 v 24.947 h 4.141 c 2.95,0 4.503,-2.329 5.021,-4.969 0.207,-2.226 0.466,-4.658 0.466,-7.298 -0.001,-3.933 -0.363,-7.711 -0.984,-9.16 z"
   id="path34"
   inkscape:connector-curvature="0"
   style="stroke:none;fill:#000000" />
<path
   d="m 155.10975,135.63275 c -1.242,1.139 -2.95,1.604 -4.865,1.604 h -9.627 v -34.678 h 8.851 c 2.95,0 4.399,0.362 5.642,1.346 2.07,1.449 3.52,4.141 4.141,7.66 0.466,2.536 0.828,5.59 0.828,8.281 -0.002,8.024 -1.606,13.148 -4.97,15.787 z m -0.88,-24.688 c -0.828,-2.433 -2.277,-3.52 -4.503,-3.52 h -4.141 v 24.947 h 4.141 c 2.95,0 4.503,-2.329 5.021,-4.969 0.207,-2.226 0.466,-4.658 0.466,-7.298 -0.001,-3.933 -0.363,-7.711 -0.984,-9.16 z"
   id="path36"
   inkscape:connector-curvature="0"
   style="stroke:none;fill:#000000" />
<path
   d="m 166.90975,137.23775 v -34.678 h 16.304 v 4.865 h -11.335 v 8.747 h 7.194 v 4.762 h -7.194 v 11.438 h 12.681 v 4.865 h -17.65 z"
   id="path38"
   inkscape:connector-curvature="0"
   style="stroke:none;fill:#000000" />
<path
   d="m 206.09075,137.23775 -10.714,-23.239 v 23.239 h -4.969 v -34.678 h 4.969 l 9.523,20.807 v -20.807 h 4.969 v 34.678 h -3.778 z"
   id="path40"
   inkscape:connector-curvature="0"
   style="stroke:none;fill:#000000" />
</svg>