<?xml version="1.0" encoding="UTF-8" standalone="no"?>
<!-- Generator: Adobe Illustrator 12.0.1, SVG Export Plug-In  -->

<svg
   xmlns:dc="http://purl.org/dc/elements/1.1/"
   xmlns:cc="http://creativecommons.org/ns#"
   xmlns:rdf="http://www.w3.org/1999/02/22-rdf-syntax-ns#"
   xmlns:svg="http://www.w3.org/2000/svg"
   xmlns="http://www.w3.org/2000/svg"
   xmlns:sodipodi="http://sodipodi.sourceforge.net/DTD/sodipodi-0.dtd"
   xmlns:inkscape="http://www.inkscape.org/namespaces/inkscape"
   version="1.1"
   width="286.66125"
   height="286.66476"
   viewBox="-1 0 286.66125 286.66476"
   enable-background="new -1 0 289 288"
   xml:space="preserve"
   id="svg2"
   inkscape:version="0.48.2 r9819"
   sodipodi:docname="AJAX1.svg"><metadata
   id="metadata44"><rdf:RDF><cc:Work
       rdf:about=""><dc:format>image/svg+xml</dc:format><dc:type
         rdf:resource="http://purl.org/dc/dcmitype/StillImage" /></cc:Work></rdf:RDF></metadata><sodipodi:namedview
   pagecolor="#ffffff"
   bordercolor="#666666"
   borderopacity="1"
   objecttolerance="10"
   gridtolerance="10"
   guidetolerance="10"
   inkscape:pageopacity="0"
   inkscape:pageshadow="2"
   inkscape:window-width="1280"
   inkscape:window-height="1004"
   id="namedview42"
   showgrid="false"
   fit-margin-top="0"
   fit-margin-left="0"
   fit-margin-right="0"
   fit-margin-bottom="0"
   inkscape:zoom="2.3177389"
   inkscape:cx="127.93727"
   inkscape:cy="136.55901"
   inkscape:window-x="-8"
   inkscape:window-y="-8"
   inkscape:window-maximized="1"
   inkscape:current-layer="svg2" />
<defs
   id="defs4">
</defs>
<path
   d="M 3.0987498,133.3875 132.37975,4.1055 c 5.471,-5.474 14.421,-5.474 19.895,0 l 129.284,129.282 c 5.47,5.471 5.47,14.423 0,19.889 l -129.284,129.285 c -5.474,5.471 -14.424,5.471 -19.895,0 L 3.0987498,153.2755 c -5.465,-5.465 -5.465,-14.418 0,-19.888 z"
   id="path6"
   style="fill:#ffd033;stroke:none;fill-opacity:1"
   inkscape:connector-curvature="0" />

<path
   clip-rule="evenodd"
   d="M 6.2217498,135.4405 134.44075,7.2205 c 4.339,-4.339 11.442,-4.339 15.785,0 l 128.215,128.22 c 4.343,4.343 4.343,11.438 0,15.777 l -128.215,128.224 c -4.343,4.336 -11.446,4.336 -15.785,0 L 6.2217498,151.2175 c -4.339,-4.339 -4.339,-11.435 0,-15.777"
   id="path10"
   inkscape:connector-curvature="0"
   style="fill-rule:evenodd;fill:#000000;stroke:none" />
<path
   clip-rule="evenodd"
   d="m 10.22475,139.3905 128.162,-128.162 c 2.162,-2.169 5.724,-2.169 7.889,0 l 128.16,128.162 c 2.166,2.166 2.166,5.716 0,7.883 l -128.16,128.161 c -2.165,2.168 -5.727,2.168 -7.889,0 l -128.162,-128.161 c -2.1660002,-2.167 -2.1660002,-5.717 0,-7.883"
   id="path12"
   inkscape:connector-curvature="0"
   style="fill:#ffd033;fill-rule:evenodd;stroke:none;fill-opacity:1" />
<path
   d="m 95.04475,133.5655 c -0.518,-3.415 -1.863,-5.02 -4.141,-5.02 -4.037,0 -5.486,3.157 -5.486,12.162 0,9.989 1.708,14.026 5.952,14.026 2.898,0 3.675,-2.433 3.675,-5.021 h 4.969 c -0.104,5.745 -3.778,9.887 -8.644,9.887 -7.401,0 -10.714,-5.953 -10.714,-18.737 0,-11.23 3.52,-17.183 10.352,-17.183 2.795,0 5.228,1.242 6.832,3.52 1.294,1.708 1.812,3.209 2.174,6.365 h -4.969 z"
   id="path14"
   inkscape:connector-curvature="0"
   style="stroke:none;fill:#000000" />
<path
   d="m 122.26875,158.9795 -4.606,-16.305 h -4.762 v 16.305 h -4.969 v -34.678 h 10.352 c 5.435,0 9.109,3.675 9.109,9.264 0,4.141 -1.708,7.143 -4.969,8.385 l 4.969,17.029 h -5.124 z m -4.244,-29.813 h -5.124 v 8.746 h 5.124 c 2.898,0 4.503,-1.553 4.503,-4.348 0,-2.69 -1.811,-4.398 -4.503,-4.398 z"
   id="path16"
   inkscape:connector-curvature="0"
   style="stroke:none;fill:#000000" />
<path
   d="m 151.97775,153.6475 c -1.707,4.09 -4.244,5.953 -8.125,5.953 -4.141,0 -6.574,-1.863 -8.282,-5.953 -1.449,-3.416 -1.967,-6.729 -1.967,-12.06 0,-5.228 0.518,-8.747 1.967,-12.059 1.812,-4.141 4.244,-5.849 8.282,-5.849 3.984,0 6.418,1.708 8.125,5.952 1.449,3.415 1.967,6.728 1.967,11.955 0,5.332 -0.518,8.748 -1.967,12.061 z m -3.881,-20.704 c -0.881,-3.053 -2.174,-4.398 -4.244,-4.398 -2.226,0 -3.572,1.346 -4.4,4.295 -0.828,2.64 -1.087,4.969 -1.087,8.851 0,3.778 0.362,5.952 1.087,8.747 0.828,2.95 2.174,4.296 4.4,4.296 2.07,0 3.363,-1.346 4.244,-4.296 0.828,-2.795 1.086,-4.865 1.086,-8.851 0,-3.882 -0.361,-6.107 -1.086,-8.644 z"
   id="path18"
   inkscape:connector-curvature="0"
   style="stroke:none;fill:#000000" />
<path
   d="m 169.88575,159.6005 c -6.107,0 -9.73,-5.125 -9.73,-10.818 h 4.865 c 0,2.898 1.449,5.952 4.865,5.952 2.691,0 4.865,-2.433 4.865,-5.228 0,-1.967 -0.725,-3.416 -2.795,-5.021 -0.725,-0.725 1.242,0.621 -5.848,-4.141 -2.795,-1.915 -4.244,-4.606 -4.244,-7.66 0,-4.968 3.881,-9.005 8.85,-9.005 4.918,0 8.645,3.778 8.799,9.005 h -4.762 c -0.104,-2.432 -1.811,-3.984 -4.037,-3.984 -2.277,0 -4.088,1.708 -4.088,3.984 0,1.708 0.725,2.691 3.26,4.141 6.678,3.882 9.627,7.66 9.627,12.681 0,5.59 -4.295,10.094 -9.627,10.094 z"
   id="path20"
   inkscape:connector-curvature="0"
   style="stroke:none;fill:#000000" />
<path
   d="m 194.36775,159.6005 c -6.107,0 -9.73,-5.125 -9.73,-10.818 h 4.865 c 0,2.898 1.449,5.952 4.865,5.952 2.691,0 4.865,-2.433 4.865,-5.228 0,-1.967 -0.725,-3.416 -2.795,-5.021 -0.725,-0.725 1.242,0.621 -5.85,-4.141 -2.795,-1.915 -4.244,-4.606 -4.244,-7.66 0,-4.968 3.883,-9.005 8.852,-9.005 4.916,0 8.643,3.778 8.799,9.005 h -4.762 c -0.104,-2.432 -1.813,-3.984 -4.037,-3.984 -2.277,0 -4.09,1.708 -4.09,3.984 0,1.708 0.725,2.691 3.262,4.141 6.676,3.882 9.627,7.66 9.627,12.681 0,5.59 -4.296,10.094 -9.627,10.094 z"
   id="path22"
   inkscape:connector-curvature="0"
   style="stroke:none;fill:#000000" />
<path
   d="m 103.17075,206.7925 h -4.244 l -3.313,-18.115 -3.261,18.115 h -4.399 l -5.486,-34.677 h 4.865 l 2.95,18.477 3.364,-18.477 h 3.934 l 3.261,18.477 3.054,-18.477 h 4.866 l -5.591,34.677 z"
   id="path24"
   inkscape:connector-curvature="0"
   style="stroke:none;fill:#000000" />
<path
   d="m 114.81675,206.7925 v -34.677 h 4.865 v 34.677 h -4.865 z"
   id="path26"
   inkscape:connector-curvature="0"
   style="stroke:none;fill:#000000" />
<path
   d="m 144.31775,206.7925 -10.714,-23.239 v 23.239 h -4.969 v -34.677 h 4.969 l 9.523,20.806 v -20.806 h 4.969 v 34.677 h -3.778 z"
   id="path28"
   inkscape:connector-curvature="0"
   style="stroke:none;fill:#000000" />
<path
   d="m 171.43875,205.1885 c -1.242,1.139 -2.95,1.604 -4.865,1.604 h -9.627 v -34.677 h 8.851 c 2.95,0 4.399,0.362 5.642,1.346 2.07,1.449 3.52,4.141 4.141,7.659 0.466,2.536 0.828,5.59 0.828,8.281 -0.001,8.023 -1.606,13.147 -4.97,15.787 z m -0.88,-24.689 c -0.828,-2.432 -2.277,-3.519 -4.503,-3.519 h -4.141 v 24.946 h 4.141 c 2.95,0 4.503,-2.329 5.021,-4.969 0.207,-2.226 0.466,-4.658 0.466,-7.298 -0.001,-3.932 -0.363,-7.711 -0.984,-9.16 z"
   id="path30"
   inkscape:connector-curvature="0"
   style="stroke:none;fill:#000000" />
<path
   d="m 192.55575,207.4135 c -6.107,0 -9.73,-5.124 -9.73,-10.817 h 4.865 c 0,2.898 1.449,5.952 4.865,5.952 2.691,0 4.865,-2.433 4.865,-5.228 0,-1.967 -0.725,-3.416 -2.795,-5.021 -0.725,-0.725 1.242,0.621 -5.849,-4.141 -2.795,-1.915 -4.244,-4.606 -4.244,-7.66 0,-4.968 3.882,-9.005 8.851,-9.005 4.917,0 8.644,3.778 8.799,9.005 h -4.762 c -0.104,-2.432 -1.812,-3.984 -4.037,-3.984 -2.277,0 -4.089,1.708 -4.089,3.984 0,1.708 0.725,2.691 3.261,4.141 6.677,3.882 9.627,7.66 9.627,12.681 0,5.59 -4.296,10.093 -9.627,10.093 z"
   id="path32"
   inkscape:connector-curvature="0"
   style="stroke:none;fill:#000000" />
<path
   d="m 114.47975,109.5785 v -15.683 h -9.523 v 15.683 h -4.969 v -34.678 h 4.969 v 14.129 h 9.523 v -14.129 h 4.969 v 34.677 h -4.969 z"
   id="path34"
   inkscape:connector-curvature="0"
   style="stroke:none;fill:#000000" />
<path
   d="m 127.00575,109.5785 v -34.678 h 4.865 v 34.677 h -4.865 z"
   id="path36"
   inkscape:connector-curvature="0"
   style="stroke:none;fill:#000000" />
<path
   d="m 157.28275,105.3345 c -1.346,3.002 -4.141,4.865 -7.66,4.865 -4.141,0 -7.194,-2.07 -8.902,-5.952 -1.087,-2.588 -1.812,-7.453 -1.812,-11.956 0,-4.866 0.362,-8.385 1.604,-11.697 1.19,-3.623 4.71,-6.314 8.748,-6.314 4.969,0 8.746,3.675 9.006,8.799 h -4.969 c -0.156,-2.329 -1.709,-3.934 -4.141,-3.934 -1.709,0 -3.055,0.88 -3.934,2.588 -0.932,1.707 -1.553,5.589 -1.553,9.73 0,2.898 0.258,5.952 0.725,8.644 0.725,3.364 2.432,5.228 5.123,5.228 2.537,0 3.779,-1.708 3.779,-5.383 v -2.277 h -3.934 v -4.865 h 8.902 v 7.143 c 0.002,2.43 -0.258,3.931 -0.982,5.381 z"
   id="path38"
   inkscape:connector-curvature="0"
   style="stroke:none;fill:#000000" />
<path
   d="m 179.69475,109.5785 v -15.683 h -9.523 v 15.683 h -4.969 v -34.678 h 4.969 v 14.129 h 9.523 v -14.129 h 4.969 v 34.677 h -4.969 z"
   id="path40"
   inkscape:connector-curvature="0"
   style="stroke:none;fill:#000000" />
</svg>