<?xml version="1.0" encoding="UTF-8" standalone="no"?>
<!-- Generator: Adobe Illustrator 12.0.1, SVG Export Plug-In  -->

<svg
   xmlns:dc="http://purl.org/dc/elements/1.1/"
   xmlns:cc="http://creativecommons.org/ns#"
   xmlns:rdf="http://www.w3.org/1999/02/22-rdf-syntax-ns#"
   xmlns:svg="http://www.w3.org/2000/svg"
   xmlns="http://www.w3.org/2000/svg"
   xmlns:sodipodi="http://sodipodi.sourceforge.net/DTD/sodipodi-0.dtd"
   xmlns:inkscape="http://www.inkscape.org/namespaces/inkscape"
   version="1.1"
   width="286.6615"
   height="286.66049"
   viewBox="0 -0.001 286.6615 286.66049"
   enable-background="new 0 -0.001 288 288"
   xml:space="preserve"
   id="svg2"
   inkscape:version="0.48.2 r9819"
   sodipodi:docname="AJAX1.svg"><metadata
   id="metadata34"><rdf:RDF><cc:Work
       rdf:about=""><dc:format>image/svg+xml</dc:format><dc:type
         rdf:resource="http://purl.org/dc/dcmitype/StillImage" /></cc:Work></rdf:RDF></metadata><sodipodi:namedview
   pagecolor="#ffffff"
   bordercolor="#666666"
   borderopacity="1"
   objecttolerance="10"
   gridtolerance="10"
   guidetolerance="10"
   inkscape:pageopacity="0"
   inkscape:pageshadow="2"
   inkscape:window-width="1280"
   inkscape:window-height="1004"
   id="namedview32"
   showgrid="false"
   fit-margin-top="0"
   fit-margin-left="0"
   fit-margin-right="0"
   fit-margin-bottom="0"
   inkscape:zoom="2.3177389"
   inkscape:cx="15.881321"
   inkscape:cy="129.23028"
   inkscape:window-x="-8"
   inkscape:window-y="-8"
   inkscape:window-maximized="1"
   inkscape:current-layer="svg2" />
<defs
   id="defs4">
</defs>
<path
   d="M 4.09875,133.38475 133.37975,4.1037485 c 5.471,-5.473 14.422,-5.473 19.895,0 l 129.285,129.2810015 c 5.469,5.469 5.469,14.422 0,19.891 l -129.286,129.279 c -5.473,5.473 -14.424,5.473 -19.895,0 l -129.28,-129.279 c -5.465,-5.469 -5.465,-14.422 0,-19.891 z"
   id="path6"
   style="fill:#ffd033;stroke:none;fill-opacity:1"
   inkscape:connector-curvature="0" />

<path
   clip-rule="evenodd"
   d="M 7.22175,135.43575 135.43975,7.2167485 c 4.338,-4.336 11.439,-4.336 15.783,0 l 128.219,128.2190015 c 4.34,4.344 4.34,11.442 0,15.778 l -128.219,128.224 c -4.344,4.336 -11.445,4.336 -15.783,0 l -128.218,-128.225 c -4.338,-4.336 -4.338,-11.434 0,-15.777"
   id="path10"
   inkscape:connector-curvature="0"
   style="fill:#000000;fill-rule:evenodd;stroke:none" />
<path
   clip-rule="evenodd"
   d="m 11.22575,139.38875 128.16,-128.160001 c 2.162,-2.1720005 5.725,-2.1720005 7.889,0 l 128.16,128.160001 c 2.164,2.164 2.164,5.715 0,7.883 l -128.16,128.16 c -2.164,2.168 -5.727,2.168 -7.889,0 l -128.16,-128.16 c -2.166,-2.168 -2.166,-5.719 0,-7.883"
   id="path12"
   inkscape:connector-curvature="0"
   style="fill:#ffd033;fill-rule:evenodd;stroke:none;fill-opacity:1" />
<path
   d="m 96.06975,185.97875 h -4.865 l -5.486,-22.254 -5.332,22.254 h -4.865 l -5.123,-34.676 h 5.59 l 2.691,18.27 4.4,-18.27 h 5.33 l 4.504,18.27 2.691,-18.27 h 5.59 l -5.125,34.676 z"
   id="path14"
   inkscape:connector-curvature="0"
   style="fill:#000000;stroke:none" />
<path
   d="m 127.74475,185.97875 -3.416,-9.73 h -10.818 l -3.416,9.73 h -5.848 l 11.955,-34.676 h 5.436 l 11.957,34.676 h -5.85 z m -8.746,-25.051 -3.572,9.73 h 6.936 l -3.364,-9.73 z"
   id="path16"
   inkscape:connector-curvature="0"
   style="fill:#000000;stroke:none" />
<path
   d="m 150.15675,156.16675 v 29.813 h -5.488 v -29.813 h -7.918 v -4.863 h 21.426 v 4.863 h -8.02 z"
   id="path18"
   inkscape:connector-curvature="0"
   style="fill:#000000;stroke:none" />
<path
   d="m 164.28575,185.97875 v -34.676 h 20.445 v 5.484 h -14.961 v 8.488 h 10.094 v 5.59 h -10.094 v 9.523 h 16.047 v 5.59 h -21.531 z"
   id="path20"
   inkscape:connector-curvature="0"
   style="fill:#000000;stroke:none" />
<path
   d="m 210.30175,185.97875 -5.594,-15.113 h -6.57 v 15.113 h -5.488 v -34.676 h 11.441 c 2.688,0 4.5,0.258 6.211,1.086 3.051,1.449 5.227,5.125 5.227,8.645 0,3.676 -2.176,7.297 -5.383,8.746 l 6.109,16.199 h -5.953 z m -2.438,-28.57 c -0.93,-0.516 -1.344,-0.621 -3.156,-0.621 h -6.57 v 8.488 h 6.57 c 1.711,0 2.281,-0.102 3.156,-0.566 1.348,-0.777 2.176,-2.227 2.176,-3.676 0,-1.449 -0.828,-2.899 -2.176,-3.625 z"
   id="path22"
   inkscape:connector-curvature="0"
   style="fill:#000000;stroke:none" />
<path
   d="m 111.54575,137.23575 v -15.113 h -12.629 v 15.113 h -5.486 v -34.68 h 5.486 v 13.977 h 12.628 v -13.977 h 5.486 v 34.68 h -5.485 z"
   id="path24"
   inkscape:connector-curvature="0"
   style="fill:#000000;stroke:none" />
<path
   d="m 125.31275,137.23575 v -34.68 h 5.59 v 34.68 h -5.59 z"
   id="path26"
   inkscape:connector-curvature="0"
   style="fill:#000000;stroke:none" />
<path
   d="m 151.09075,137.85675 c -5.23,0 -8.283,-1.969 -10.354,-6.316 -1.449,-3.055 -2.277,-7.348 -2.277,-11.594 0,-5.59 1.553,-11.074 3.881,-14.129 2.07,-2.535 4.969,-3.883 8.902,-3.883 5.332,0 8.488,2.227 10.816,7.66 l -5.227,2.07 c -1.449,-3 -2.949,-4.141 -5.59,-4.141 -2.793,0 -4.66,1.242 -5.848,4.297 -0.883,2.07 -1.346,5.227 -1.346,8.125 0,3.676 0.619,7.297 1.705,9.523 1.09,1.914 2.695,2.797 4.766,2.797 3.516,0 6.055,-2.227 6.055,-5.383 v -1.449 h -6.313 v -5.488 h 11.797 v 6.938 c 0.001,6.313 -4.604,10.973 -10.967,10.973 z"
   id="path28"
   inkscape:connector-curvature="0"
   style="fill:#000000;stroke:none" />
<path
   d="m 187.73075,137.23575 v -15.113 h -12.625 v 15.113 h -5.488 v -34.68 h 5.488 v 13.977 h 12.625 v -13.977 h 5.488 v 34.68 h -5.488 z"
   id="path30"
   inkscape:connector-curvature="0"
   style="fill:#000000;stroke:none" />
</svg>