<?xml version="1.0" encoding="UTF-8" standalone="no"?>
<svg
   xmlns:dc="http://purl.org/dc/elements/1.1/"
   xmlns:cc="http://creativecommons.org/ns#"
   xmlns:rdf="http://www.w3.org/1999/02/22-rdf-syntax-ns#"
   xmlns:svg="http://www.w3.org/2000/svg"
   xmlns="http://www.w3.org/2000/svg"
   xmlns:sodipodi="http://sodipodi.sourceforge.net/DTD/sodipodi-0.dtd"
   xmlns:inkscape="http://www.inkscape.org/namespaces/inkscape"
   width="90"
   height="90"
   viewBox="0 0 254.00001 253.99999"
   version="1.1"
   id="svg2"
   inkscape:version="0.48.2 r9819"
   sodipodi:docname="MUTCD R7-9a.svg">
  <metadata
     id="metadata62">
    <rdf:RDF>
      <cc:Work
         rdf:about="">
        <dc:format>image/svg+xml</dc:format>
        <dc:type
           rdf:resource="http://purl.org/dc/dcmitype/StillImage" />
        <dc:title></dc:title>
      </cc:Work>
    </rdf:RDF>
  </metadata>
  <defs
     id="defs60" />
  <sodipodi:namedview
     pagecolor="#ffffff"
     bordercolor="#666666"
     borderopacity="1"
     objecttolerance="10"
     gridtolerance="10"
     guidetolerance="10"
     inkscape:pageopacity="0"
     inkscape:pageshadow="2"
     inkscape:window-width="1280"
     inkscape:window-height="1004"
     id="namedview58"
     showgrid="false"
     fit-margin-top="0"
     fit-margin-left="0"
     fit-margin-right="0"
     fit-margin-bottom="0"
     inkscape:zoom="6.6107689"
     inkscape:cx="40.18322"
     inkscape:cy="42.655081"
     inkscape:window-x="-8"
     inkscape:window-y="-8"
     inkscape:window-maximized="1"
     inkscape:current-layer="svg2"
     showguides="true"
     inkscape:guide-bbox="true" />
  <!-- draw the bicycle -->
  <!-- RIGHT -->
  <!-- LANE -->
  <!-- ONLY -->
  <path
     inkscape:connector-curvature="0"
     d="M 4.918605,115.07522 115.08053,4.9133075 c 6.55813,-6.55109 17.28611,-6.55109 23.84777,0 L 249.08669,115.07522 c 6.55109,6.55814 6.55109,17.28611 0,23.84425 L 138.9283,249.08139 c -6.56166,6.55814 -17.28964,6.55814 -23.84777,0 L 4.918605,138.91947 c -6.55814,-6.55814 -6.55814,-17.28611 0,-23.84425"
     style="fill:#ffd033;fill-opacity:1;fill-rule:nonzero;stroke:none"
     id="path6421" />
  <path
     inkscape:connector-curvature="0"
     d="M 9.356545,116.58861 116.59394,9.3582775 c 5.72559,-5.72559 15.09184,-5.72559 20.81036,0 L 244.64169,116.58861 c 5.72559,5.72558 5.72559,15.09183 0,20.81742 L 137.4043,244.64342 c -5.71853,5.71853 -15.08477,5.71853 -20.81036,0 L 9.356545,137.40603 c -5.71852,-5.72559 -5.71852,-15.09184 0,-20.81742"
     style="fill:#000000;fill-opacity:1;fill-rule:evenodd;stroke:none"
     id="path6437" />
  <path
     inkscape:connector-curvature="0"
     d="M 14.937495,119.95058 119.95944,14.932167 c 3.86997,-3.88056 10.21645,-3.88056 14.08995,0 L 239.06781,119.95058 c 3.88055,3.8735 3.88055,10.21997 0,14.097 L 134.04939,239.06953 c -3.8735,3.8735 -10.21998,3.8735 -14.08995,0 L 14.937495,134.04758 c -3.88056,-3.87703 -3.88056,-10.2235 0,-14.097"
     style="fill:#ffd033;fill-opacity:1;fill-rule:evenodd;stroke:none"
     id="path6441" />
  <path
     inkscape:connector-curvature="0"
     style="fill:#000000;fill-opacity:1;fill-rule:evenodd;stroke:none"
     d="m 120.35596,67.034986 c -0.29853,0.0254 -0.61913,0.125307 -1.05833,0.352778 -1.75683,0.913694 -10.74914,6.237111 -16.84514,9.701389 -1.17122,0.656167 -1.69333,1.922639 -0.17639,2.293056 1.50989,0.373944 6.72747,-0.264443 9.43681,-1.234723 l 0.26444,1.675695 -31.661805,16.227778 -1.852084,-9.172222 -3.439583,-2.38125 0.705555,-2.469445 7.672917,-3.96875 -1.411111,-2.469445 -8.819444,4.497917 -1.763889,6.614584 3.792361,2.38125 2.734028,21.254862 c -3.98992,-0.0706 -8.120948,0.96308 -11.729862,2.82222 -12.431888,6.37822 -17.402528,21.69936 -11.024308,34.13125 5.91256,11.51114 19.536836,16.56645 31.397225,12.17084 l -18.520833,9.61319 117.915973,0 0,-61.11875 -19.57916,10.14236 c 9.26041,-7.366 12.39308,-20.482277 6.79097,-31.397222 -6.37822,-12.431889 -21.70995,-17.402529 -34.13125,-11.024306 -4.14161,2.130778 -7.80698,5.485695 -10.23056,9.436806 l -12.25903,-5.468056 -0.44097,-3.880556 c 4.10633,-2.9845 4.5085,-4.631972 5.02708,-6.526389 0.38631,-1.423444 0.10189,-2.277618 -0.79375,-2.204861 z m 30.69167,10.671528 c 7.28568,0.17526 14.26216,4.278743 17.81528,11.200695 5.16467,10.057695 1.24178,22.436671 -8.81944,27.604861 -8.13859,4.17336 -18.415,2.40595 -24.42987,-4.23333 l 14.99306,-11.72986 c 0.40569,-0.0141 0.86078,-0.0706 1.23472,-0.26445 1.32997,-0.680857 1.82739,-2.374191 1.14653,-3.704163 -0.67733,-1.308806 -2.31069,-1.834444 -3.52778,-1.234722 L 132.79138,87.31985 c 1.89442,-2.977444 5.25639,-5.672667 8.46667,-7.320139 3.14302,-1.615073 6.4779,-2.372699 9.78958,-2.293056 z m -38.36458,6.702778 4.6743,29.721528 -1.76389,-2.46944 0.97014,-0.44098 -0.97014,-1.67569 -4.23333,2.20486 0.97014,1.49931 1.05833,-0.52917 1.76389,2.73403 c 0,0 -33.513887,-12.99986 -33.690276,-13.05278 l -0.352778,-1.76389 31.573614,-16.227778 z m 4.7625,0.264442 9.17222,3.880556 c -2.89983,7.874 -1.79917,15.00011 1.41111,21.25486 0.3175,0.61384 0.93134,1.49578 1.23472,2.02847 l -6.87916,4.40973 -4.93889,-31.573616 z m 13.49375,5.997223 16.22778,7.584722 -14.19931,10.495141 c -2.78342,-5.50686 -4.81189,-11.09486 -2.02847,-18.079863 z M 82.079575,107.5161 117.53374,121.36262 c 0.31045,2.23309 2.4377,3.59834 4.8507,2.82223 l 4.49791,5.02708 -1.14652,0.61736 0.79375,1.6757 4.85069,-2.73403 -0.88194,-1.49931 -1.5875,0.79375 -4.23334,-5.20347 c 0.57503,-0.91017 0.91723,-1.85914 0.79375,-2.82222 l 6.26181,-4.7625 c 6.56872,7.20725 16.78517,10.00125 26.01736,7.32014 l -65.616668,33.95486 c 10.357548,-7.10495 14.086418,-20.99734 8.202088,-32.45556 -3.527783,-6.87563 -10.167061,-11.82158 -17.815283,-13.31736 l -0.440972,-3.26305 z m -5.909028,7.67291 c 0.88773,-0.0677 1.782403,-0.0519 2.645833,0 1.114778,6.57931 0.850195,10.37167 -2.38125,17.63889 -1.308805,0.74436 -1.806222,2.42359 -1.146528,3.70417 0.684386,1.32997 2.377723,1.82739 3.704167,1.14653 1.329972,-0.68439 1.689806,-2.32128 0.970139,-3.70417 2.508247,-5.54919 4.180417,-10.44575 3.263195,-18.07986 5.499805,1.47461 10.19175,5.33753 12.788194,10.40694 5.168193,10.06123 1.150056,22.43667 -8.907639,27.60487 -10.068278,5.16819 -22.443723,1.23825 -27.604863,-8.81945 -5.16819,-10.06828 -1.16064,-22.52839 8.90764,-27.69306 2.40772,-1.2409 5.097919,-2.0018 7.761112,-2.20486 z"
     id="path6445" />
</svg>
