<?xml version="1.0" encoding="UTF-8" standalone="no"?>
<svg
   xmlns:dc="http://purl.org/dc/elements/1.1/"
   xmlns:cc="http://creativecommons.org/ns#"
   xmlns:rdf="http://www.w3.org/1999/02/22-rdf-syntax-ns#"
   xmlns:svg="http://www.w3.org/2000/svg"
   xmlns="http://www.w3.org/2000/svg"
   xmlns:sodipodi="http://sodipodi.sourceforge.net/DTD/sodipodi-0.dtd"
   xmlns:inkscape="http://www.inkscape.org/namespaces/inkscape"
   width="81.702499"
   height="81.702812"
   viewBox="0 0 230.58264 230.58349"
   version="1.1"
   id="svg2"
   inkscape:version="0.48.2 r9819"
   sodipodi:docname="MUTCD W7-4fP.svg">
  <metadata
     id="metadata62">
    <rdf:RDF>
      <cc:Work
         rdf:about="">
        <dc:format>image/svg+xml</dc:format>
        <dc:type
           rdf:resource="http://purl.org/dc/dcmitype/StillImage" />
        <dc:title></dc:title>
      </cc:Work>
    </rdf:RDF>
  </metadata>
  <defs
     id="defs60" />
  <sodipodi:namedview
     pagecolor="#ffffff"
     bordercolor="#666666"
     borderopacity="1"
     objecttolerance="10"
     gridtolerance="10"
     guidetolerance="10"
     inkscape:pageopacity="0"
     inkscape:pageshadow="2"
     inkscape:window-width="1280"
     inkscape:window-height="1004"
     id="namedview58"
     showgrid="false"
     fit-margin-top="0"
     fit-margin-left="0"
     fit-margin-right="0"
     fit-margin-bottom="0"
     inkscape:zoom="8.6731067"
     inkscape:cx="39.621188"
     inkscape:cy="38.485728"
     inkscape:window-x="-8"
     inkscape:window-y="-8"
     inkscape:window-maximized="1"
     inkscape:current-layer="svg2" />
  <!-- draw the bicycle -->
  <!-- RIGHT -->
  <!-- LANE -->
  <!-- ONLY -->
  <path
     d="M 3.2967075,107.28766 107.29208,3.2993386 c 4.39562,-4.39914 11.59581,-4.39914 15.99848,0 L 227.27535,107.28766 c 4.40972,4.40267 4.40972,11.60286 0,16.002 L 123.29056,227.28151 c -4.40267,4.40267 -11.60286,4.40267 -15.99848,0 L 3.2967075,123.28966 c -4.39561,-4.39914 -4.39561,-11.59933 0,-16.002"
     style="fill:#ffd033;fill-opacity:1;fill-rule:nonzero;stroke:none"
     id="path3584"
     inkscape:connector-curvature="0" />
  <path
     d="M 5.8049575,108.94219 108.94308,5.8075886 c 3.48898,-3.48897 9.20045,-3.48897 12.69295,0 L 224.7671,108.94219 c 3.49603,3.4925 3.49603,9.20397 0,12.68941 L 121.63603,224.77326 c -3.4925,3.48544 -9.20397,3.48544 -12.69295,0 L 5.8049575,121.6316 c -3.48544,-3.48544 -3.48544,-9.19691 0,-12.68941"
     style="fill:#000000;fill-opacity:1;fill-rule:evenodd;stroke:none"
     id="path3592"
     inkscape:connector-curvature="0" />
  <path
     d="M 9.0293475,112.12071 112.12161,9.0319786 c 1.74273,-1.74273 4.59317,-1.74273 6.34648,0 L 221.54977,112.12071 c 1.74272,1.7392 1.74272,4.59317 0,6.34295 L 118.46809,221.5524 c -1.75331,1.73919 -4.60375,1.73919 -6.34648,0 L 9.0293475,118.46366 c -1.73567,-1.74978 -1.73567,-4.60375 0,-6.34295"
     style="fill:#ffd033;fill-opacity:1;fill-rule:evenodd;stroke:none"
     id="path3596"
     inkscape:connector-curvature="0" />
  <path
     d="m 158.96698,79.210068 0,-4.265084 -13.14097,0 0,-24.094725 -4.3815,0 0,28.359809 17.52247,0 z m -21.67114,0 0,-4.265084 -13.1445,0 0,-24.094725 -4.49792,0 0,28.359809 17.64242,0 z m -24.09473,-28.359809 -4.61433,0 0,28.359809 4.61433,0 0,-28.359809 z m -11.18305,28.359809 0,-28.359809 -4.497923,0 0,11.40883 -10.3752,0 0,-11.40883 -4.38502,0 0,28.359809 4.38502,0 0,-12.336639 10.3752,0 0,12.336639 4.497923,0 z"
     style="fill:#000000;fill-opacity:1;fill-rule:evenodd;stroke:none"
     id="path3600"
     inkscape:connector-curvature="0" />
  <path
     d="m 184.1024,120.82727 c 0,-11.18306 -13.25739,-7.60589 -13.60664,-12.91167 -0.22931,-2.53647 2.19781,-3.34433 4.26508,-3.22791 3.23145,0 4.27214,2.42005 4.27214,2.42005 l 3.91936,-1.15005 c -1.38641,-3.45723 -4.0393,-5.76792 -8.07508,-5.76792 -5.07294,0 -8.75947,2.07433 -8.75947,7.60942 0,4.6108 3.68653,6.33941 5.41866,7.03439 3.69006,1.49577 8.07509,2.07433 8.07509,5.8808 0,2.42006 -1.84856,4.14867 -4.38503,4.14867 -2.65289,0 -4.84364,-1.49931 -6.11011,-4.14867 l -4.26509,1.6122 c 1.95792,4.26861 5.53156,7.14728 10.3752,7.14728 2.30364,0 4.49439,-0.80434 6.10658,-2.19075 1.84503,-1.6122 2.76931,-3.91937 2.76931,-6.45584 m -22.02039,8.07156 -9.33803,-17.18028 8.75947,-11.06664 -5.76086,0 -8.88294,11.18305 0,-11.18305 -4.49087,0 0,28.24692 4.49087,0 0,-9.68375 3.00566,-3.69006 7.14375,13.37381 5.07295,0 z m -25.82334,-5.76439 -4.26508,-1.50284 c -1.15359,2.19075 -2.53647,3.23145 -4.38503,3.23145 -1.95439,0 -3.22439,-0.69145 -4.26508,-2.19075 -1.15006,-1.72861 -1.84503,-4.84364 -1.84503,-7.95867 0,-2.30364 0.46214,-4.84011 1.15711,-6.56872 1.03364,-2.42006 2.42005,-3.45722 4.72722,-3.45722 2.19075,0 3.10797,0.69144 4.72722,2.99508 l 4.14867,-1.72508 c -1.95792,-4.03931 -4.6108,-5.76792 -8.87589,-5.76792 -3.11503,0 -5.53155,1.03716 -7.26369,3.11503 -1.96145,2.53647 -3.1115,7.03086 -3.1115,11.40883 0,3.57717 0.80433,7.15434 2.0708,9.69081 1.73214,3.45722 4.50145,5.06942 8.65011,5.06942 4.02873,0 6.79803,-2.07434 8.53017,-6.33942 M 107.091,114.83358 c 0,2.19075 -0.46214,4.95652 -1.04069,6.45583 -1.03364,2.53294 -2.30012,3.57364 -4.3815,3.57364 -1.841503,0 -2.998613,-0.69145 -3.919363,-2.19075 -1.03364,-1.72861 -1.61573,-4.84364 -1.61573,-7.83872 0,-2.42359 0.35278,-4.96006 1.0407,-6.68867 1.04069,-2.42006 2.42005,-3.45722 4.610803,-3.45722 1.6122,0.11641 2.76931,0.69144 3.57717,2.19075 1.15006,1.95791 1.72861,4.84011 1.72861,7.95514 m 4.49086,0 c 0,-3.57364 -0.68791,-7.15081 -1.95439,-9.57087 -1.73214,-3.46075 -4.26508,-5.07294 -7.84225,-5.07294 -3.224393,0 -5.531553,0.92428 -7.143753,3.11503 -1.96497,2.76577 -3.11503,6.91797 -3.11503,11.52878 0,3.3408 0.80434,7.14727 1.95792,9.57086 1.72861,3.45722 4.1522,5.06942 8.184453,5.06942 2.88572,0 5.18936,-1.0407 6.80861,-3.22792 1.95439,-2.42359 3.10444,-6.91797 3.10444,-11.41236 m -23.632583,14.06525 0,-4.1522 -13.13745,0 0,-24.09472 -4.38503,0 0,28.24692 17.52248,0 z m -26.74762,-7.84225 c 0,2.19075 -1.26647,3.34786 -3.45016,3.34786 l -6.80862,0 0,-7.72584 5.6515,0 c 1.03717,0 1.26648,0 1.84503,0.11289 1.6122,0.57503 2.76225,2.42359 2.76225,4.26509 m -0.5715,-13.02456 c 0,1.26647 -0.69497,2.41653 -1.61219,3.22792 -0.81139,0.57502 -1.38642,0.80433 -2.65289,0.80433 l -5.4222,0 0,-6.91445 6.57225,0 c 1.95792,0 3.11503,0.92075 3.11503,2.8822 m 5.07295,12.91167 c 0,-2.99861 -1.6122,-5.41867 -4.61081,-6.80509 2.64584,-1.49577 3.91936,-3.57011 3.91936,-6.33941 0,-4.03225 -3.34786,-7.14728 -7.83872,-7.14728 l -10.72092,0 0,28.24692 10.72092,0 c 1.26647,0 2.99508,-0.22931 4.02872,-0.69145 2.65289,-1.03716 4.50145,-4.15219 4.50145,-7.26369"
     style="fill:#000000;fill-opacity:1;fill-rule:evenodd;stroke:none"
     id="path3604"
     inkscape:connector-curvature="0" />
  <path
     d="m 155.74259,150.45708 -4.49792,0 -2.18722,14.87311 -3.69005,-14.87311 -4.38503,0 -3.57364,14.87311 -2.19075,-14.87311 -4.61081,0 4.26508,28.1305 3.91937,0 4.3815,-17.98461 4.49439,17.98461 3.92641,0 4.14867,-28.1305 z m -27.20975,28.1305 0,-4.49791 -13.02809,0 0,-7.72231 8.07509,0 0,-4.49439 -8.07509,0 0,-6.91797 12.10381,0 0,-4.49792 -16.5982,0 0,28.1305 17.52248,0 z m -24.09473,-28.1305 -4.610803,0 0,28.1305 4.610803,0 0,-28.1305 z m -8.755943,0 -4.73428,0 -5.9937,18.78895 -5.99722,-18.78895 -4.72369,0 8.98877,28.1305 3.46076,0 8.99936,-28.1305 z"
     style="fill:#000000;fill-opacity:1;fill-rule:evenodd;stroke:none"
     id="path3608"
     inkscape:connector-curvature="0" />
</svg>
