<?xml version="1.0" encoding="UTF-8" standalone="no"?>
<svg
   xmlns:dc="http://purl.org/dc/elements/1.1/"
   xmlns:cc="http://creativecommons.org/ns#"
   xmlns:rdf="http://www.w3.org/1999/02/22-rdf-syntax-ns#"
   xmlns:svg="http://www.w3.org/2000/svg"
   xmlns="http://www.w3.org/2000/svg"
   xmlns:sodipodi="http://sodipodi.sourceforge.net/DTD/sodipodi-0.dtd"
   xmlns:inkscape="http://www.inkscape.org/namespaces/inkscape"
   width="90.237206"
   height="90.233116"
   viewBox="0 0 254.66948 254.6579"
   version="1.1"
   id="svg2"
   inkscape:version="0.48.2 r9819"
   sodipodi:docname="MUTCD 1-10aR.svg">
  <metadata
     id="metadata62">
    <rdf:RDF>
      <cc:Work
         rdf:about="">
        <dc:format>image/svg+xml</dc:format>
        <dc:type
           rdf:resource="http://purl.org/dc/dcmitype/StillImage" />
        <dc:title></dc:title>
      </cc:Work>
    </rdf:RDF>
  </metadata>
  <defs
     id="defs60" />
  <sodipodi:namedview
     pagecolor="#ffffff"
     bordercolor="#666666"
     borderopacity="1"
     objecttolerance="10"
     gridtolerance="10"
     guidetolerance="10"
     inkscape:pageopacity="0"
     inkscape:pageshadow="2"
     inkscape:window-width="1280"
     inkscape:window-height="1004"
     id="namedview58"
     showgrid="false"
     fit-margin-top="0"
     fit-margin-left="0"
     fit-margin-right="0"
     fit-margin-bottom="0"
     inkscape:zoom="4.6745195"
     inkscape:cx="56.059007"
     inkscape:cy="56.256802"
     inkscape:window-x="-8"
     inkscape:window-y="-8"
     inkscape:window-maximized="1"
     inkscape:current-layer="svg2" />
  <!-- draw the bicycle -->
  <!-- RIGHT -->
  <!-- LANE -->
  <!-- ONLY -->
  <path
     inkscape:connector-curvature="0"
     d="m 119.07576,251.23685 c 4.5579,4.56142 11.9557,4.56142 16.5171,0 L 251.25105,135.58922 c 4.5579,-4.56141 4.5579,-11.95916 0,-16.52058 L 135.59286,3.4210305 c -4.5614,-4.5614 -11.9592,-4.5614 -16.5171,0 L 3.4210575,119.06864 c -4.56141,4.56142 -4.56141,11.95917 0,16.52058 L 119.07576,251.23685 z"
     style="fill:#ffd033;fill-opacity:1;fill-rule:nonzero;stroke:none"
     id="path3685" />
  <path
     inkscape:connector-curvature="0"
     d="M 8.9244575,130.08236 124.57906,245.72999 c 1.5205,1.51695 3.99,1.51695 5.5104,0 L 245.74065,130.08236 c 1.5205,-1.51694 1.5205,-3.98639 0,-5.50686 L 130.08946,8.9278305 c -1.52041,-1.5169 -3.9899,-1.5169 -5.5104,0 L 8.9244575,124.5755 c -1.517,1.52047 -1.517,3.98992 0,5.50686 m -3.2103,-8.71714 L 121.36886,5.7176305 c 3.2914,-3.2914 8.6395,-3.2914 11.9309,0 L 248.95095,121.36522 c 3.2914,3.28789 3.2914,8.63953 0,11.93095 L 133.29976,248.9438 c -3.2914,3.28789 -8.6395,3.28789 -11.9309,0 L 5.7141575,133.29617 c -3.2914,-3.29142 -3.2914,-8.64306 0,-11.93095"
     style="fill:#000000;fill-opacity:1;fill-rule:nonzero;stroke:none"
     id="path3693" />
  <path
     inkscape:connector-curvature="0"
     d="m 140.42946,66.970431 c 2.6423,0 4.8048,2.14135 4.8119,4.78365 0,1.84503 -1.009,2.92806 -2.5753,4.25803 l -11.557,9.4615 19.74499,13.35617 0,0 c 2.8645,1.901469 5.5456,4.092219 8.008,6.554609 4.5473,4.55083 8.1633,9.8178 10.7562,15.66333 0.01,0.0178 0.014,0.0353 0.025,0.0529 0.1128,0.26106 0.2257,0.52211 0.3386,0.78669 2.4942,5.88787 3.8559,12.10734 4.0605,18.51378 0,0.0494 0,0.0988 0,0.14817 0,0.20108 0.011,0.40217 0.014,0.60678 0,0.0635 0,0.127 0.01,0.18697 0,0.254 0,0.50447 0,0.75847 l 0,46.23507 -25.96439,0 0,-46.23507 c 0,-0.20108 0,-0.39864 -0.01,-0.59619 0,-0.0317 0,-0.0635 0,-0.0917 -0.071,-2.79048 -0.5786,-5.50687 -1.4923,-8.06803 0,-0.007 0,-0.0141 -0.011,-0.0212 -0.056,-0.16228 -0.1235,-0.32455 -0.1834,-0.48683 -0.039,-0.10584 -0.078,-0.20461 -0.1165,-0.30692 -0.025,-0.0635 -0.053,-0.12347 -0.078,-0.1905 -0.3457,-0.85019 -0.7408,-1.68275 -1.1818,-2.50472 -1.9508,-3.63009 -4.7801,-6.78745 -8.1809,-9.12989 -0.1376,-0.0953 -19.939,-13.49375 -20.2847,-13.72659 l -4.5297,14.49564 c -0.6279,1.74625 -1.3264,3.09739 -2.9633,3.75003 -1.9544,0.77611 -4.1204,0.17286 -5.4187,-1.34408 -0.3386,-0.38806 -0.6103,-0.83608 -0.8114,-1.33703 l -22.239103,-55.573039 59.827603,0 z"
     style="fill:#000000;fill-opacity:1;fill-rule:nonzero;stroke:none"
     id="path3697" />
  <path
     inkscape:connector-curvature="0"
     d="m 213.00995,147.62248 0,-6.25123 0,-6.25475 -51.9254,0 -51.92539,0 0,6.25475 0,6.25123 51.92539,0 51.9254,0 z"
     style="fill:#000000;fill-opacity:1;fill-rule:evenodd;stroke:none"
     id="path3701" />
</svg>
