<?xml version="1.0" encoding="UTF-8" standalone="no"?>
<!-- Generator: Adobe Illustrator 12.0.1, SVG Export Plug-In  -->

<svg
   xmlns:dc="http://purl.org/dc/elements/1.1/"
   xmlns:cc="http://creativecommons.org/ns#"
   xmlns:rdf="http://www.w3.org/1999/02/22-rdf-syntax-ns#"
   xmlns:svg="http://www.w3.org/2000/svg"
   xmlns="http://www.w3.org/2000/svg"
   xmlns:sodipodi="http://sodipodi.sourceforge.net/DTD/sodipodi-0.dtd"
   xmlns:inkscape="http://www.inkscape.org/namespaces/inkscape"
   version="1.1"
   width="286.66199"
   height="286.66324"
   viewBox="-1 0 286.66199 286.66324"
   enable-background="new -1 0 289 288"
   xml:space="preserve"
   id="svg2"
   inkscape:version="0.48.2 r9819"
   sodipodi:docname="AJAX1.svg"><metadata
   id="metadata52"><rdf:RDF><cc:Work
       rdf:about=""><dc:format>image/svg+xml</dc:format><dc:type
         rdf:resource="http://purl.org/dc/dcmitype/StillImage" /></cc:Work></rdf:RDF></metadata><sodipodi:namedview
   pagecolor="#ffffff"
   bordercolor="#666666"
   borderopacity="1"
   objecttolerance="10"
   gridtolerance="10"
   guidetolerance="10"
   inkscape:pageopacity="0"
   inkscape:pageshadow="2"
   inkscape:window-width="1280"
   inkscape:window-height="1004"
   id="namedview50"
   showgrid="false"
   fit-margin-top="0"
   fit-margin-left="0"
   fit-margin-right="0"
   fit-margin-bottom="0"
   inkscape:zoom="2.3177389"
   inkscape:cx="162.7866"
   inkscape:cy="151.57035"
   inkscape:window-x="-8"
   inkscape:window-y="-8"
   inkscape:window-maximized="1"
   inkscape:current-layer="svg2" />
<defs
   id="defs4">
</defs>
<path
   d="M 3.09875,133.38675 132.37975,4.1047494 c 5.471,-5.473 14.421,-5.473 19.896,0 l 129.283,129.2820006 c 5.471,5.47 5.471,14.423 0,19.89 l -129.283,129.284 c -5.475,5.47 -14.425,5.47 -19.896,0 l -129.281,-129.285 c -5.465,-5.466 -5.465,-14.419 0,-19.889 z"
   id="path6"
   style="fill:#ffd033;stroke:none;fill-opacity:1"
   inkscape:connector-curvature="0" />

<path
   clip-rule="evenodd"
   d="M 6.22175,135.43975 134.44075,7.2207494 c 4.339,-4.339 11.442,-4.339 15.785,0 l 128.215,128.2190006 c 4.343,4.343 4.343,11.438 0,15.777 l -128.215,128.225 c -4.343,4.335 -11.446,4.335 -15.785,0 l -128.219,-128.225 c -4.338,-4.339 -4.338,-11.434 0,-15.777"
   id="path10"
   inkscape:connector-curvature="0"
   style="fill-rule:evenodd;stroke:none;fill:#000000" />
<path
   clip-rule="evenodd"
   d="m 10.22475,139.38975 128.162,-128.160001 c 2.162,-2.1699996 5.724,-2.1699996 7.889,0 l 128.16,128.160001 c 2.165,2.166 2.165,5.716 0,7.883 l -128.16,128.161 c -2.165,2.167 -5.727,2.167 -7.889,0 l -128.162,-128.161 c -2.165,-2.167 -2.165,-5.717 0,-7.883"
   id="path12"
   inkscape:connector-curvature="0"
   style="fill:#ffd033;fill-rule:evenodd;stroke:none;fill-opacity:1" />
<path
   clip-rule="evenodd"
   d="m 155.22575,67.396749 h 8.664 v 19.261 l -8.664,2.963 v -22.224 m 4.109,37.061001 c -1.121,0.998 -2.578,1.639 -4.174,1.714 v -5.899 l 4.174,4.185 z m 2.258,-4.681001 c -0.088,1.606001 -0.738,3.068001 -1.762,4.183001 l -4.178,-4.183001 h 5.94 z m -1.734,-4.916 c 1.016,1.126 1.664,2.594 1.734,4.21 h -5.939 l 4.205,-4.21 z m -11.778,4.211 c 0.068,-1.603 0.707,-3.057 1.71,-4.183 l 4.175,4.183 h -5.885 z m 1.735,4.860001 c -1.006,-1.115 -1.65,-2.563 -1.734,-4.155001 h 5.885 l -4.151,4.155001 z m 4.642,-9.616001 h -0.207 l -3.119,-0.59 c -0.301,0.202 -0.587,0.421 -0.852,0.662 l 4.178,4.188 v -4.26 z m 4.856,0 h -4.152 v 4.26 l 4.204,-4.216 c -0.019,-0.014 -0.037,-0.022 -0.052,-0.044 z m -7.28,-1.091 2.328,0.463 v -1.058 c -0.824,0.061 -1.609,0.265 -2.328,0.595 z m 36.041,11.332001 c -1.126,1.003 -2.578,1.639 -4.175,1.716 v -5.898 l 4.175,4.182 z m 2.258,-4.681001 c -0.088,1.605001 -0.746,3.065001 -1.763,4.188001 l -4.178,-4.188001 h 5.941 z m -1.734,-4.913 c 1.017,1.126 1.657,2.594 1.736,4.213 h -5.942 l 4.206,-4.213 z m -1.151,-1.022 c 0.229,0.16 0.448,0.338 0.649,0.523 l -4.196,4.211 v -4.359 h 3.547 v -0.375 z m -8.427,0.551 c 0.061,-0.061 0.127,-0.119 0.192,-0.176 h 3.982 v 4.359 l -4.174,-4.183 z m -2.209,4.685 c 0.08,-1.606 0.716,-3.063 1.713,-4.184 l 4.175,4.184 h -5.888 z m 1.737,4.857001 c -1.002,-1.115 -1.644,-2.563 -1.731,-4.158001 h 5.882 l -4.151,4.158001 z m 4.647,2.239 c -1.592,-0.093 -3.035,-0.738 -4.147,-1.743 l 4.147,-4.155 v 5.898 z m -81.555,-28.144001 c -0.89,0.526 -1.878,0.829 -3.029,0.727 l -1.404,-0.272 -0.748,-0.518 -0.389,-0.537 0.256,-0.38 1.405,-0.347 0.42,-0.072 0.309,-0.129 1.124,0.11 0.697,-0.091 0.534,-0.177 0.179,-0.083 0.109,0.179 0.42,1.267 c 0.069,0.185 0.046,0.135 0.117,0.323 z m 34.048,12.423 -1.863,-0.405 -0.121,0.878 v 0.926 l 0.09,0.423 0.407,0.672 0.351,0.424 0.494,0.325 0.929,0.43 0.845,0.44 0.16,0.185 0.098,0.804 0.585,2.181 0.677,1.886 0.666,1.404001 0.527,0.794 0.539,0.603 0.288,0.354 0.067,0.429 -0.098,0.441 0.098,0.278 0.22,0.107 0.229,-0.099 0.159,-0.118 0.509,-0.126 0.408,0.077 0.437,0.416 0.218,0.532 0.229,0.65 0.169,0.917 v 0.518 l -0.206,0.248 -2.064,-1.027 -0.285,-0.388 -0.239,-0.441 -0.319,-0.322 -0.396,-0.185 -0.46,-0.132 -0.349,-0.206 -0.287,-0.35 -0.279,-0.746 -0.696,-1.636 -0.836,-1.705 -0.708,-1.305001 -0.487,-0.78 -0.455,-0.567 -0.789,-0.722 -0.694,-0.556 -0.769,-0.747 -1.42,-1.267 -1.181,-0.762 -0.841,-0.686 -0.125,0.49 v 1.068 l 0.137,1.069 0.448,1.066 0.125,0.795 0.038,0.331 -0.093,0.258 -0.835,0.736 -2.714,2.302001 -1.045,1.171 -0.687,0.837 -0.399,0.686 -0.23,0.369 -0.325,0.193 -0.309,0.038 -0.081,0.118 0.16,0.276 0.247,0.311 0.092,0.421 -0.048,0.358 -0.051,0.308 -1.005,0.7 -0.736,0.366 -0.568,0.151 -0.376,-0.102 v -0.214 l 0.369,-1.628 0.139,-0.267 0.297,-0.601 0.209,-0.429 0.011,-0.446 0.088,-0.67 0.328,-0.457 0.66,-0.548 0.822,-0.744 0.487,-0.446 0.887,-0.994001 1.017,-1.248 0.497,-0.716 0.158,-0.909 -0.219,-0.63 -0.576,-1.366 -0.44,-1.066 -0.308,-0.845 -0.369,-1.647 -0.055,-1.795 -1.675,0.752 -1.85,0.667 -2.346,0.668 -2.87,0.849 -1.41,0.248 -1.438,0.003 -0.2,2.181 -0.169,1.553 -0.054,2.176 0.183,0.975 0.365,0.627 0.559,0.482001 0.943,0.716 0.984,0.647 0.461,0.446 0.107,0.341 0.079,0.43 0.291,0.229 0.315,-0.031 0.209,-0.198 0.446,-0.212 0.318,0.06 0.528,0.38 0.639,0.716 0.467,1.065 0.083,0.41 -0.169,0.16 -0.501,0.009 -1.133,-0.138 -0.678,-0.226 -0.595,-0.273 -0.647,-0.407 -0.399,-0.292 -0.545,-0.535 -0.558,-0.638 -1.065,-1.099 -1.381,-1.162 -0.676,-0.592 -0.301,-0.438001 -0.186,-0.614 -0.092,-1.049 c -0.134,-0.688 -0.091,-0.523 -0.174,-1.066 l -0.063,-0.493 -0.199,-1.294 -0.216,-1.506 -0.26,-1.942 -0.717,-0.272 -0.03,0.322 -0.427,0.3 -1.671,1.344 c -0.708,0.38 -1.371,0.736 -2.051,1.157 l -0.673,0.526 -0.898,0.71 -0.527,0.487 -0.447,0.661 -0.409,0.834 -0.487,1.236 -0.207,1.157001 v 0.848 l -0.121,0.795 -0.139,0.579 -0.22,0.201 -0.149,0.331 0.092,0.445 0.209,0.149 0.169,0.733 0.031,0.477 -0.369,0.564 -0.748,0.608 -0.764,0.369 -0.63,0.16 -0.308,-0.11 0.051,-0.449 0.297,-1.542 0.25,-0.372 0.2,-0.506 0.026,-0.518 -0.01,-0.738 0.123,-0.82 0.646,-1.922001 0.258,-1.024 0.476,-2.146 0.149,-0.749 0.311,-0.424 0.438,-0.44 0.277,-0.27 0.362,-0.457 1.848,-2.814 0.595,-0.846 0.16,-0.289 v -0.201 l -1.513,-2.709 -0.088,-0.579 0.088,-0.925 0.25,-1.096 v -0.76 l -0.924,-2.435 -0.788,-2.636 c -0.612,0.7 -1.608,1.341 -3.013,0.983 -0.564,-0.085 -0.985,-0.328 -1.549,-0.418 l -1.255,-0.625 -0.451,-0.793 -0.297,0.091 -0.176,-0.017 -0.308,-0.091 -0.437,-0.226 -0.727,-0.232 -0.082,-0.261 -0.206,-0.017 -0.17,-0.312 -0.051,-0.506 v -0.262 l 0.082,-0.405 0.03,-0.452 0.14,-0.388 0.426,-0.267 0.528,-0.251 1.702,-1.548 0.792,-0.829 0.032,-0.405 0.219,-0.239 0.466,-0.248 1.149,-0.818 0.843,-0.556 -0.088,-0.163 -0.586,-0.848 -0.25,-0.496 v -0.521 l 0.159,-0.081 0.416,0.342 0.437,0.43 0.589,0.245 -0.179,-0.598 -0.079,-0.589 0.16,-0.256 h 0.348 l 0.335,0.426 0.511,0.681 0.478,0.416 0.338,0.421 0.337,0.504 6.833,6.552 2.417,1.372 c 1.266,-0.055 1.469,0.43 2.08,0.589 l 12.054,-0.223 0.806,0.339 1.358,0.317 1.86,0.754 1.083,0.578 1.005,0.215 h 0.706 l 0.746,-0.129 h 1.374 l 1.072,0.355 1.286,0.75 0.794,0.669 0.786,1.283 0.4,1.559 0.318,2.792 0.091,1.683 0.169,1.187 -0.062,0.361 10.693,2.291 c 1.129,-0.76 2.454,-1.239 3.887,-1.324 l -0.104,-24.193 h -5.111 v -3.033 h 38.308 v 28.344 c 2.352,1.352 3.938,3.891 3.938,6.791 0,4.313001 -3.509,7.829001 -7.816,7.829001 -4.302,0 -7.804,-3.517 -7.804,-7.829001 0,-1.983 0.737,-3.795 1.966,-5.18 h -16.961 c 1.164,1.371 1.875,3.147 1.875,5.083 0,4.309001 -3.509,7.824001 -7.81,7.824001 -4.3,0 -7.812,-3.515 -7.812,-7.824001 0,-2.374 1.062,-4.498 2.729,-5.935 l -9.823,-1.991 0.399,0.917 0.527,1.024 0.62,1.298 0.307,1.197 -0.091,1.195 -0.477,0.758 -0.36,0.182 -0.308,0.272 -0.713,0.964 -0.133,-0.928 -0.538,-1.327 -0.785,-0.807 -0.754,-0.928 -0.17,-1.024 -0.091,-1.066 -0.354,-0.941 -0.759,-1.104 -0.488,-0.215 -0.073,-0.387 z m -1.765,-1.113 1.646,0.36 -0.075,-0.945 -0.038,-1.55 0.268,-1.861 -0.047,-1.157 -0.4,-1.248 -0.578,-0.749 -0.794,-0.435 -0.81,-0.207 0.44,0.625 0.507,1.343 0.16,0.837 v 0.939 l -0.079,1.834 -0.158,1.936 -0.042,0.278 z m 20.534,16.728001 c -1.586,-0.088 -3.035,-0.73 -4.15,-1.735 l 4.15,-4.159 v 5.894 z"
   id="path14"
   inkscape:connector-curvature="0"
   style="fill-rule:evenodd;stroke:none;fill:#000000" />
<path
   d="m 117.44075,149.08775 c -1.172,1.918 -3.408,3.338 -5.68,3.338 -2.343,0 -4.65,-1.35 -5.822,-3.338 -0.675,-1.277 -0.923,-2.271 -0.923,-4.188 v -16.685 h 3.408 v 17.111 c 0,2.236 1.349,3.762 3.337,3.762 1.846,0 3.194,-1.525 3.194,-3.762 v -17.111 h 3.408 v 16.685 c 10e-4,1.916 -0.247,2.911 -0.922,4.188 z"
   id="path16"
   inkscape:connector-curvature="0"
   style="stroke:none;fill:#000000" />
<path
   d="m 129.04875,152.42575 c -4.189,0 -6.674,-3.515 -6.674,-7.42 h 3.337 c 0,1.988 0.994,4.082 3.337,4.082 1.846,0 3.337,-1.668 3.337,-3.585 0,-1.349 -0.497,-2.343 -1.917,-3.443 -0.497,-0.497 0.852,0.426 -4.012,-2.84 -1.917,-1.313 -2.911,-3.16 -2.911,-5.254 0,-3.408 2.663,-6.177 6.071,-6.177 3.372,0 5.928,2.592 6.034,6.177 h -3.266 c -0.071,-1.668 -1.242,-2.733 -2.769,-2.733 -1.563,0 -2.805,1.171 -2.805,2.733 0,1.171 0.497,1.846 2.236,2.84 4.579,2.663 6.603,5.254 6.603,8.697 0.002,3.834 -2.945,6.923 -6.601,6.923 z"
   id="path18"
   inkscape:connector-curvature="0"
   style="stroke:none;fill:#000000" />
<path
   d="m 139.66275,151.99975 v -23.785 h 3.337 v 23.785 h -3.337 z"
   id="path20"
   inkscape:connector-curvature="0"
   style="stroke:none;fill:#000000" />
<path
   d="m 159.00975,151.99975 -7.349,-15.94 v 15.94 h -3.408 v -23.785 h 3.408 l 6.532,14.271 v -14.271 h 3.408 v 23.785 h -2.591 z"
   id="path22"
   inkscape:connector-curvature="0"
   style="stroke:none;fill:#000000" />
<path
   d="m 178.96075,149.08775 c -0.924,2.06 -2.841,3.338 -5.255,3.338 -2.84,0 -4.935,-1.42 -6.106,-4.082 -0.744,-1.775 -1.242,-5.113 -1.242,-8.201 0,-3.337 0.249,-5.751 1.102,-8.023 0.816,-2.485 3.23,-4.331 5.998,-4.331 3.408,0 6,2.521 6.178,6.035 h -3.408 c -0.106,-1.598 -1.172,-2.698 -2.84,-2.698 -1.172,0 -2.094,0.603 -2.697,1.775 -0.64,1.171 -1.065,3.834 -1.065,6.674 0,1.988 0.177,4.083 0.497,5.928 0.496,2.308 1.668,3.585 3.514,3.585 1.74,0 2.592,-1.171 2.592,-3.691 v -1.562 h -2.697 v -3.337 h 6.105 v 4.899 c -0.002,1.668 -0.18,2.698 -0.676,3.691 z"
   id="path24"
   inkscape:connector-curvature="0"
   style="stroke:none;fill:#000000" />
<path
   d="m 92.30675,190.76575 -3.159,-11.183 h -3.266 v 11.183 h -3.408 v -23.785 h 7.1 c 3.728,0 6.248,2.521 6.248,6.354 0,2.84 -1.172,4.899 -3.408,5.751 l 3.408,11.68 h -3.515 z m -2.911,-20.449 h -3.514 v 6 h 3.514 c 1.988,0 3.089,-1.065 3.089,-2.982 0,-1.846 -1.243,-3.018 -3.089,-3.018 z"
   id="path26"
   inkscape:connector-curvature="0"
   style="stroke:none;fill:#000000" />
<path
   d="m 112.00875,187.10875 c -1.171,2.805 -2.911,4.082 -5.573,4.082 -2.84,0 -4.508,-1.277 -5.68,-4.082 -0.994,-2.343 -1.349,-4.615 -1.349,-8.271 0,-3.586 0.355,-6 1.349,-8.271 1.242,-2.84 2.911,-4.012 5.68,-4.012 2.733,0 4.402,1.172 5.573,4.083 0.994,2.343 1.349,4.614 1.349,8.2 0,3.656 -0.355,5.999 -1.349,8.271 z m -2.662,-14.2 c -0.604,-2.095 -1.491,-3.018 -2.911,-3.018 -1.526,0 -2.449,0.923 -3.018,2.946 -0.568,1.811 -0.745,3.408 -0.745,6.071 0,2.591 0.248,4.082 0.745,5.999 0.568,2.023 1.491,2.946 3.018,2.946 1.42,0 2.308,-0.923 2.911,-2.946 0.568,-1.917 0.746,-3.337 0.746,-6.07 0,-2.662 -0.249,-4.188 -0.746,-5.928 z"
   id="path28"
   inkscape:connector-curvature="0"
   style="stroke:none;fill:#000000" />
<path
   d="m 128.05475,190.76575 -1.668,-6.496 h -5.112 l -1.562,6.496 h -3.443 l 5.928,-23.785 h 3.337 l 5.929,23.785 h -3.409 z m -4.259,-16.685 -1.668,6.852 h 3.408 l -1.74,-6.852 z"
   id="path30"
   inkscape:connector-curvature="0"
   style="stroke:none;fill:#000000" />
<path
   d="m 144.66875,189.66475 c -0.854,0.781 -2.024,1.101 -3.337,1.101 h -6.603 v -23.785 h 6.071 c 2.023,0 3.016,0.249 3.87,0.924 1.42,0.993 2.414,2.84 2.84,5.254 0.318,1.739 0.568,3.834 0.568,5.68 -0.001,5.501 -1.102,9.016 -3.409,10.826 z m -0.603,-16.933 c -0.568,-1.668 -1.562,-2.414 -3.089,-2.414 h -2.84 v 17.111 h 2.84 c 2.023,0 3.089,-1.598 3.442,-3.408 0.143,-1.526 0.32,-3.194 0.32,-5.005 10e-4,-2.699 -0.247,-5.29 -0.673,-6.284 z"
   id="path32"
   inkscape:connector-curvature="0"
   style="stroke:none;fill:#000000" />
<path
   d="m 165.11675,190.76575 h -2.912 l -2.271,-12.425 -2.236,12.425 h -3.018 l -3.762,-23.785 h 3.336 l 2.023,12.674 2.309,-12.674 h 2.697 l 2.236,12.674 2.094,-12.674 h 3.338 l -3.834,23.785 z"
   id="path34"
   inkscape:connector-curvature="0"
   style="stroke:none;fill:#000000" />
<path
   d="m 182.15575,190.76575 -1.668,-6.496 h -5.111 l -1.563,6.496 h -3.443 l 5.928,-23.785 h 3.338 l 5.928,23.785 h -3.409 z m -4.26,-16.685 -1.668,6.852 h 3.408 l -1.74,-6.852 z"
   id="path36"
   inkscape:connector-curvature="0"
   style="stroke:none;fill:#000000" />
<path
   d="m 196.24875,180.00875 v 10.757 h -3.408 v -10.757 l -5.857,-13.028 h 3.586 l 4.012,8.592 3.939,-8.592 h 3.656 l -5.928,13.028 z"
   id="path38"
   inkscape:connector-curvature="0"
   style="stroke:none;fill:#000000" />
<path
   d="m 112.57575,229.66975 -1.668,-6.496 h -5.112 l -1.562,6.496 h -3.443 l 5.928,-23.785 h 3.337 l 5.929,23.785 h -3.409 z m -4.259,-16.685 -1.668,6.852 h 3.407 l -1.739,-6.852 z"
   id="path40"
   inkscape:connector-curvature="0"
   style="stroke:none;fill:#000000" />
<path
   d="m 129.19075,229.66975 v -10.757 h -6.532 v 10.757 h -3.408 v -23.785 h 3.408 v 9.691 h 6.532 v -9.691 h 3.408 v 23.785 h -3.408 z"
   id="path42"
   inkscape:connector-curvature="0"
   style="stroke:none;fill:#000000" />
<path
   d="m 137.78075,229.66975 v -23.785 h 11.183 v 3.337 h -7.774 v 6 h 4.935 v 3.266 h -4.935 v 7.846 h 8.697 v 3.337 h -12.106 z"
   id="path44"
   inkscape:connector-curvature="0"
   style="stroke:none;fill:#000000" />
<path
   d="m 163.83675,229.66975 -1.669,-6.496 h -5.111 l -1.563,6.496 h -3.443 l 5.929,-23.785 h 3.337 l 5.929,23.785 h -3.409 z m -4.26,-16.685 -1.669,6.852 h 3.408 l -1.739,-6.852 z"
   id="path46"
   inkscape:connector-curvature="0"
   style="stroke:none;fill:#000000" />
<path
   d="m 180.45075,228.56875 c -0.853,0.781 -2.023,1.101 -3.338,1.101 h -6.603 v -23.785 h 6.071 c 2.023,0 3.017,0.249 3.869,0.924 1.42,0.993 2.414,2.84 2.84,5.254 0.319,1.739 0.568,3.834 0.568,5.68 0.002,5.501 -1.1,9.016 -3.407,10.826 z m -0.603,-16.933 c -0.568,-1.668 -1.563,-2.414 -3.089,-2.414 h -2.84 v 17.111 h 2.84 c 2.023,0 3.089,-1.598 3.443,-3.408 0.142,-1.526 0.319,-3.194 0.319,-5.005 0.001,-2.698 -0.247,-5.29 -0.673,-6.284 z"
   id="path48"
   inkscape:connector-curvature="0"
   style="stroke:none;fill:#000000" />
</svg>