<?xml version="1.0" encoding="UTF-8" standalone="no"?>
<!-- Created with Inkscape (http://www.inkscape.org/) -->

<svg
   xmlns:dc="http://purl.org/dc/elements/1.1/"
   xmlns:cc="http://creativecommons.org/ns#"
   xmlns:rdf="http://www.w3.org/1999/02/22-rdf-syntax-ns#"
   xmlns:svg="http://www.w3.org/2000/svg"
   xmlns="http://www.w3.org/2000/svg"
   xmlns:sodipodi="http://sodipodi.sourceforge.net/DTD/sodipodi-0.dtd"
   xmlns:inkscape="http://www.inkscape.org/namespaces/inkscape"
   width="73.71875"
   height="102.96875"
   id="svg4779"
   version="1.1"
   inkscape:version="0.48.2 r9819"
   sodipodi:docname="MUTCD R3-12a.svg">
  <defs
     id="defs4781" />
  <sodipodi:namedview
     id="base"
     pagecolor="#ffffff"
     bordercolor="#666666"
     borderopacity="1.0"
     inkscape:pageopacity="0.0"
     inkscape:pageshadow="2"
     inkscape:zoom="5.6568543"
     inkscape:cx="25.623555"
     inkscape:cy="56.06373"
     inkscape:document-units="px"
     inkscape:current-layer="layer1"
     showgrid="false"
     inkscape:window-width="1280"
     inkscape:window-height="1004"
     inkscape:window-x="-8"
     inkscape:window-y="-8"
     inkscape:window-maximized="1"
     fit-margin-top="0"
     fit-margin-left="0"
     fit-margin-right="0"
     fit-margin-bottom="0" />
  <metadata
     id="metadata4784">
    <rdf:RDF>
      <cc:Work
         rdf:about="">
        <dc:format>image/svg+xml</dc:format>
        <dc:type
           rdf:resource="http://purl.org/dc/dcmitype/StillImage" />
        <dc:title></dc:title>
      </cc:Work>
    </rdf:RDF>
  </metadata>
  <g
     inkscape:label="Layer 1"
     inkscape:groupmode="layer"
     id="layer1"
     transform="translate(-401.3125,3112.875)">
    <path
       inkscape:connector-curvature="0"
       d="m 406.17025,-3010.2059 63.98375,0 c 2.49375,0 4.57,-2.075 4.57,-4.57 l 0,-93.235 c -10e-4,-2.495 -2.07625,-4.57 -4.57,-4.57 l -63.98375,0 c -2.49625,0 -4.57125,2.075 -4.57125,4.57 l 0,93.235 c 0,2.675 2.0825,4.3187 4.57125,4.57"
       style="fill:#ffffff;fill-opacity:1;fill-rule:nonzero;stroke:#000000;stroke-width:0.6;stroke-linecap:butt;stroke-linejoin:miter;stroke-miterlimit:4;stroke-opacity:1;stroke-dasharray:none"
       id="path3212" />
    <path
       d="m 471.67019,-3014.7888 c 0,0.805 -0.685,1.4875 -1.4875,1.4988 l -63.9875,0 c -0.815,0 -1.4875,-0.6938 -1.4875,-1.4988 l 0,-65.285 c 0,-0.8175 0.6725,-1.485 1.4875,-1.4899 l 63.9875,0 c 0.80875,0 1.485,0.6837 1.4875,1.4899 l 0,65.285 z m -1.4875,-96.645 -63.9875,0 c -1.8625,0 -3.4075,1.5462 -3.4075,3.41 l 0,93.235 c 0,1.8612 1.54875,3.4087 3.4075,3.4087 l 63.9875,0 c 1.85875,0 3.4075,-1.5487 3.4075,-3.4087 l 0,-93.235 c 0,-1.8625 -1.54875,-3.41 -3.4075,-3.41"
       style="fill:#000000;fill-opacity:1;fill-rule:evenodd;stroke:none"
       id="path3172"
       inkscape:connector-curvature="0" />
    <path
       d="m 438.18756,-3108.8413 6.09375,12.1875 -6.09375,12.1875 -6.09375,-12.1875 6.09375,-12.1875 z m 0,3.895 4.14875,8.2925 -4.14875,8.2951 -4.1475,-8.2951 4.1475,-8.2925 z"
       style="fill:#ffffff;fill-opacity:1;fill-rule:evenodd;stroke:none"
       id="path3176"
       inkscape:connector-curvature="0" />
    <path
       d="m 431.21156,-3067.325 0,-4.1913 -3.5175,0 0,4.1913 -1.51875,0 0,-9.6338 1.51875,0 0,3.8875 3.5175,0 0,-3.8875 1.51875,0 0,9.6338 -1.51875,0 z"
       style="fill:#000000;fill-opacity:1;fill-rule:nonzero;stroke:none"
       id="path4120"
       inkscape:connector-curvature="0" />
    <path
       d="m 439.56031,-3074.8288 c -0.30375,-0.5062 -0.675,-0.7112 -1.25375,-0.7437 -0.7425,-0.034 -1.21375,0.3388 -1.55,1.1825 -0.24,0.575 -0.37625,1.4537 -0.37625,2.265 0,1.0138 0.205,2.0625 0.57625,2.6712 0.3025,0.5063 0.71,0.7426 1.3175,0.7426 0.70875,0 1.15,-0.3726 1.48625,-1.2163 0.2025,-0.5075 0.37375,-1.4537 0.37375,-2.1975 0,-1.0813 -0.2025,-2.0625 -0.57375,-2.7038 m 1.0475,6.5913 c -0.5425,0.7437 -1.32,1.0812 -2.33375,1.0812 -1.35,0 -2.19625,-0.54 -2.7725,-1.7224 -0.40375,-0.8125 -0.67625,-2.0963 -0.67625,-3.2463 0,-1.5887 0.4075,-3.0088 1.05125,-3.9212 0.57375,-0.7438 1.35,-1.0813 2.46625,-1.0813 1.2175,0 2.06125,0.5413 2.6675,1.7238 0.405,0.8462 0.64375,2.0612 0.64375,3.2787 0,1.5212 -0.37,3.0412 -1.04625,3.8875"
       style="fill:#000000;fill-opacity:1;fill-rule:nonzero;stroke:none"
       id="path4124"
       inkscape:connector-curvature="0" />
    <path
       d="m 447.16531,-3067.325 -1.185,0 -3.04375,-9.6338 1.58875,0 2.06375,6.4225 2.02875,-6.4225 1.62125,0 -3.07375,9.6338 z"
       style="fill:#000000;fill-opacity:1;fill-rule:nonzero;stroke:none"
       id="path4128"
       inkscape:connector-curvature="0" />
    <path
       d="m 422.44781,-3036.2813 0,-9.7937 5.77375,0 0,1.5488 -4.225,0 0,2.4049 2.85,0 0,1.5788 -2.85,0 0,2.6813 4.53625,0 0,1.5799 -6.085,0 z"
       style="fill:#000000;fill-opacity:1;fill-rule:nonzero;stroke:none"
       id="path4132"
       inkscape:connector-curvature="0" />
    <path
       d="m 435.47281,-3036.2813 -3.7425,-6.6337 0,6.6337 -1.54875,0 0,-9.7937 1.54875,0 3.5725,6.2525 0,-6.2525 1.54625,0 0,9.7937 -1.37625,0 z"
       style="fill:#000000;fill-opacity:1;fill-rule:nonzero;stroke:none"
       id="path4136"
       inkscape:connector-curvature="0" />
    <path
       d="m 443.48031,-3044.1164 c -0.23875,-0.2387 -0.5825,-0.41 -0.995,-0.41 l -1.75625,0 0,6.665 1.5475,0 c 0.52,0 0.825,-0.105 1.1025,-0.38 0.5825,-0.5825 0.89375,-1.65 0.89375,-2.9537 0,-1.3075 -0.31125,-2.405 -0.7925,-2.9213 m 0.6525,7.2863 c -0.3775,0.3412 -0.89125,0.515 -1.40875,0.5487 l -0.55125,0 -2.98875,0 0,-9.7937 3.16375,0 c 0.995,0 1.37625,0.105 1.89,0.5175 1.03125,0.8912 1.615,2.44 1.615,4.3625 0,1.9575 -0.61625,3.505 -1.72,4.365"
       style="fill:#000000;fill-opacity:1;fill-rule:nonzero;stroke:none"
       id="path4140"
       inkscape:connector-curvature="0" />
    <path
       d="m 453.00281,-3036.865 c -0.55125,0.4812 -1.3075,0.7525 -2.13625,0.7525 -1.68,0 -2.9175,-0.995 -3.57,-2.4725 l 1.4775,-0.55 c 0.4125,0.9312 1.16875,1.445 2.0925,1.445 0.89375,0 1.51625,-0.6188 1.51625,-1.445 0,-1.3062 -1.51625,-1.51 -2.78375,-2.0275 -0.58375,-0.2425 -1.89,-0.825 -1.89,-2.4375 0,-1.925 1.30625,-2.6488 3.05625,-2.6488 1.375,0 2.305,0.7925 2.78375,1.9951 l -1.3725,0.4125 c 0,0 -0.3475,-0.8251 -1.445,-0.8588 -0.72,-0.036 -1.57875,0.24 -1.5125,1.1338 0.1375,1.8212 4.74625,0.6187 4.74625,4.4674 0,0.895 -0.3475,1.6825 -0.9625,2.2338"
       style="fill:#000000;fill-opacity:1;fill-rule:nonzero;stroke:none"
       id="path4144"
       inkscape:connector-curvature="0" />
    <path
       d="m 442.19281,-3018.9363 0,-5.6687 -2.265,5.6687 -2.27,-5.6687 0,5.6687 -1.545,0 0,-9.7962 1.545,0 2.27,5.4988 2.265,-5.4988 1.54625,0 0,9.7962 -1.54625,0 z"
       style="fill:#000000;fill-opacity:1;fill-rule:nonzero;stroke:none"
       id="path4148"
       inkscape:connector-curvature="0" />
    <path
       d="m 446.07881,-3028.7329 1.5775,0 0,9.7963 -1.5775,0 0,-9.7963 z"
       style="fill:#000000;fill-opacity:1;fill-rule:nonzero;stroke:none"
       id="path4150"
       inkscape:connector-curvature="0" />
    <path
       d="m 449.99531,-3018.9363 0,-9.7962 1.54625,0 0,8.3513 4.53875,0 0,1.4449 -6.085,0 z"
       style="fill:#000000;fill-opacity:1;fill-rule:nonzero;stroke:none"
       id="path4154"
       inkscape:connector-curvature="0" />
    <path
       d="m 457.52156,-3018.9363 0,-9.7962 5.775,0 0,1.545 -4.22875,0 0,2.4088 2.8525,0 0,1.5812 -2.8525,0 0,2.6787 4.53625,0 0,1.5825 -6.0825,0 z"
       style="fill:#000000;fill-opacity:1;fill-rule:nonzero;stroke:none"
       id="path4158"
       inkscape:connector-curvature="0" />
    <path
       d="m 413.69906,-3020.6789 0,-7.9387 -0.89125,0 0,-1.2388 0.1025,0 c 0.4125,0 0.86125,-0.2387 1.13375,-0.6162 l 1.2375,0 0,9.7937 -1.5825,0 z"
       style="fill:#000000;fill-opacity:1;fill-rule:nonzero;stroke:none"
       id="path4162"
       inkscape:connector-curvature="0" />
    <path
       d="m 423.58656,-3017.4525 c 0.0375,-1.1337 0.27875,-2.06 0.82875,-2.99 0.41375,-0.7575 1.03,-1.3762 1.71625,-1.89 0.17375,-0.1013 0.30875,-0.2063 0.44625,-0.3075 l 0.51375,-0.2763 0.48875,-0.2749 0.4775,-0.275 c 0.37625,-0.2426 0.6525,-0.6551 0.6525,-1.0651 0,-0.7224 -0.825,-1.3062 -1.78875,-1.3062 -0.99625,0 -1.61125,0.4812 -1.7875,1.3725 l -1.5475,-0.3413 c 0.34875,-1.6174 1.61875,-2.6125 3.335,-2.6125 1.8575,0 3.33375,1.3063 3.33375,2.92 0,0.7575 -0.34375,1.5138 -0.995,2.0976 -0.1375,0.1037 -0.275,0.2062 -0.41375,0.2749 l -0.48,0.3076 -0.515,0.2787 -0.48125,0.2712 c -0.93,0.5513 -1.445,1.1376 -1.925,2.2375 l 4.81,0 0,1.5788 -6.66875,0 z"
       style="fill:#000000;fill-opacity:1;fill-rule:nonzero;stroke:none"
       id="path4166"
       inkscape:connector-curvature="0" />
    <path
       d="m 423.01031,-3030.5275 -7.43125,13.035 1.57875,0 7.43125,-13.035 -1.57875,0 z"
       style="fill:#000000;fill-opacity:1;fill-rule:evenodd;stroke:none"
       id="path4170"
       inkscape:connector-curvature="0" />
    <path
       d="m 428.61031,-3051.835 0,-1.435 -4.5075,0 0,-8.3 -1.5375,0 0,9.735 6.045,0 z m 8.81375,0 -3.35,-9.735 -1.53625,0 -3.34875,9.735 1.6425,0 0.955,-2.7325 3.04,0 0.95625,2.7325 1.64125,0 z m -3.1425,-4.3038 -1.95125,0 0.99375,-2.7337 0.9575,2.7337 z m 11.23625,4.3038 0,-9.735 -1.54,0 0,6.2162 -3.55,-6.2162 -1.535,0 0,9.735 1.535,0 0,-6.5925 3.72375,6.5925 1.36625,0 z m 8.33,0 0,-1.5713 -4.50625,0 0,-2.6637 2.83375,0 0,-1.5713 -2.83375,0 0,-2.3912 4.20375,0 0,-1.5375 -5.74,0 0,9.735 6.0425,0 z"
       style="fill:#000000;fill-opacity:1;fill-rule:evenodd;stroke:none"
       id="path4174"
       inkscape:connector-curvature="0" />
  </g>
</svg>
