<?xml version="1.0" encoding="UTF-8" standalone="no"?>
<!-- Created with Inkscape (http://www.inkscape.org/) -->

<svg
   xmlns:dc="http://purl.org/dc/elements/1.1/"
   xmlns:cc="http://creativecommons.org/ns#"
   xmlns:rdf="http://www.w3.org/1999/02/22-rdf-syntax-ns#"
   xmlns:svg="http://www.w3.org/2000/svg"
   xmlns="http://www.w3.org/2000/svg"
   xmlns:sodipodi="http://sodipodi.sourceforge.net/DTD/sodipodi-0.dtd"
   xmlns:inkscape="http://www.inkscape.org/namespaces/inkscape"
   width="73.71875"
   height="102.96875"
   id="svg4779"
   version="1.1"
   inkscape:version="0.48.2 r9819"
   sodipodi:docname="MUTCD R3-10a.svg">
  <defs
     id="defs4781" />
  <sodipodi:namedview
     id="base"
     pagecolor="#ffffff"
     bordercolor="#666666"
     borderopacity="1.0"
     inkscape:pageopacity="0.0"
     inkscape:pageshadow="2"
     inkscape:zoom="5.6568543"
     inkscape:cx="28.515448"
     inkscape:cy="63.134798"
     inkscape:document-units="px"
     inkscape:current-layer="layer1"
     showgrid="false"
     inkscape:window-width="1280"
     inkscape:window-height="1004"
     inkscape:window-x="-8"
     inkscape:window-y="-8"
     inkscape:window-maximized="1"
     fit-margin-top="0"
     fit-margin-left="0"
     fit-margin-right="0"
     fit-margin-bottom="0" />
  <metadata
     id="metadata4784">
    <rdf:RDF>
      <cc:Work
         rdf:about="">
        <dc:format>image/svg+xml</dc:format>
        <dc:type
           rdf:resource="http://purl.org/dc/dcmitype/StillImage" />
        <dc:title></dc:title>
      </cc:Work>
    </rdf:RDF>
  </metadata>
  <g
     inkscape:label="Layer 1"
     inkscape:groupmode="layer"
     id="layer1"
     transform="translate(-401.3125,3112.875)">
    <path
       inkscape:connector-curvature="0"
       d="m 406.17025,-3010.2059 63.98375,0 c 2.49375,0 4.57,-2.075 4.57,-4.57 l 0,-93.235 c -10e-4,-2.495 -2.07625,-4.57 -4.57,-4.57 l -63.98375,0 c -2.49625,0 -4.57125,2.075 -4.57125,4.57 l 0,93.235 c 0,2.675 2.0825,4.3187 4.57125,4.57"
       style="fill:#ffffff;fill-opacity:1;fill-rule:nonzero;stroke:#000000;stroke-width:0.60000002;stroke-linecap:butt;stroke-linejoin:miter;stroke-miterlimit:4;stroke-opacity:1;stroke-dasharray:none"
       id="path3212" />
    <path
       inkscape:connector-curvature="0"
       d="m 471.64275,-3014.776 c 0,0.805 -0.685,1.4875 -1.48875,1.4988 l -63.98375,0 c -0.81625,0 -1.49125,-0.6938 -1.49125,-1.4988 l 0,-65.285 c 0,-0.8174 0.675,-1.485 1.49125,-1.49 l 63.98375,0 c 0.81,0 1.48625,0.6838 1.48875,1.49 l 0,65.285 z m -1.48875,-96.6437 -63.98375,0 c -1.86375,0 -3.41125,1.5475 -3.41125,3.4087 l 0,93.235 c 0,1.8613 1.54875,3.4088 3.41125,3.4088 l 63.98375,0 c 1.86,0 3.40875,-1.5488 3.40875,-3.4088 l 0,-93.235 c 0,-1.8612 -1.54875,-3.4087 -3.40875,-3.4087"
       style="fill:#000000;fill-opacity:1;fill-rule:evenodd;stroke:none"
       id="path3216" />
    <path
       inkscape:connector-curvature="0"
       d="m 438.1615,-3108.8277 6.09375,12.1875 -6.09375,12.1875 -6.09375,-12.1875 6.09375,-12.1875 z m 0,3.8937 4.1475,8.2938 -4.1475,8.295 -4.1475,-8.295 4.1475,-8.2938 z"
       style="fill:#ffffff;fill-opacity:1;fill-rule:evenodd;stroke:none"
       id="path3220" />
    <path
       d="m 449.92343,-3059.4789 c 0.0375,-1.3012 0.31375,-2.365 0.94625,-3.4287 0.47251,-0.8675 1.18,-1.5775 1.97001,-2.1688 0.1975,-0.1175 0.35625,-0.2349 0.51125,-0.3549 l 0.5925,-0.3163 0.55,-0.3137 0.5525,-0.3151 c 0.435,-0.2762 0.74875,-0.7487 0.74875,-1.2212 0,-0.8288 -0.94626,-1.4975 -2.04751,-1.4975 -1.14249,0 -1.8525,0.55 -2.05,1.575 l -1.77375,-0.3937 c 0.3925,-1.8525 1.85125,-2.9963 3.82375,-2.9963 2.1275,0 3.82126,1.5 3.82126,3.3513 0,0.8662 -0.3925,1.7349 -1.1425,2.4049 -0.15875,0.1188 -0.31376,0.235 -0.4725,0.3138 l -0.55125,0.355 -0.59125,0.3162 -0.55125,0.315 c -1.06375,0.6301 -1.655,1.3 -2.21,2.5613 l 5.51875,0 0,1.8137 -7.645,0 z"
       style="fill:#000000;fill-opacity:1;fill-rule:nonzero;stroke:none"
       id="path3590"
       inkscape:connector-curvature="0" />
    <path
       d="m 463.59893,-3064.0887 0,2.7962 -1.77375,0 0,-2.7962 -2.87625,0 0,-1.815 2.87625,0 0,-2.7975 1.77375,0 0,2.7975 2.88,0 0,1.815 -2.88,0 z"
       style="fill:#000000;fill-opacity:1;fill-rule:nonzero;stroke:none"
       id="path3594"
       inkscape:connector-curvature="0" />
    <path
       d="m 415.77418,-3059.4337 0,-4.8875 -4.09875,0 0,4.8875 -1.77375,0 0,-11.2338 1.77375,0 0,4.5325 4.09875,0 0,-4.5325 1.77625,0 0,11.2338 -1.77625,0 z"
       style="fill:#000000;fill-opacity:1;fill-rule:nonzero;stroke:none"
       id="path3598"
       inkscape:connector-curvature="0" />
    <path
       d="m 425.82555,-3068.1837 c -0.355,-0.5913 -0.78874,-0.8288 -1.45749,-0.8663 -0.86626,-0.04 -1.41876,0.3925 -1.81376,1.3775 -0.27499,0.67 -0.43374,1.695 -0.43374,2.6425 0,1.1813 0.23874,2.4025 0.66999,3.1125 0.355,0.5913 0.82751,0.8675 1.53625,0.8675 0.82875,0 1.3425,-0.4337 1.735,-1.42 0.23625,-0.59 0.43376,-1.695 0.43376,-2.56 0,-1.2625 -0.23626,-2.405 -0.67001,-3.1537 m 1.22125,7.685 c -0.62875,0.8675 -1.53625,1.2612 -2.72,1.2612 -1.575,0 -2.56125,-0.6312 -3.23125,-2.01 -0.47249,-0.9462 -0.78749,-2.4437 -0.78749,-3.7825 0,-1.8537 0.47375,-3.51 1.22125,-4.5737 0.67124,-0.8663 1.57624,-1.26 2.87624,-1.26 1.42,0 2.40625,0.63 3.11375,2.0087 0.4725,0.9863 0.74875,2.405 0.74875,3.825 0,1.7725 -0.43374,3.5463 -1.22125,4.5313"
       style="fill:#000000;fill-opacity:1;fill-rule:nonzero;stroke:none"
       id="path3602"
       inkscape:connector-curvature="0" />
    <path
       d="m 435.00768,-3059.4337 -1.37875,0 -3.5475,-11.2338 1.8525,0 2.40625,7.4888 2.36375,-7.4888 1.8925,0 -3.58875,11.2338 z"
       style="fill:#000000;fill-opacity:1;fill-rule:nonzero;stroke:none"
       id="path3606"
       inkscape:connector-curvature="0" />
    <path
       d="m 425.22493,-3052.4487 c -0.355,-0.59 -0.78875,-0.8275 -1.45875,-0.865 -0.8675,-0.041 -1.42,0.3925 -1.81375,1.3775 -0.27625,0.67 -0.43375,1.6962 -0.43375,2.64 0,1.1837 0.2375,2.405 0.67,3.115 0.355,0.5912 0.8275,0.8675 1.53875,0.8675 0.82625,0 1.33875,-0.4338 1.7325,-1.42 0.2375,-0.59 0.43375,-1.6938 0.43375,-2.5625 0,-1.26 -0.235,-2.4025 -0.66875,-3.1525 m 1.2225,7.6862 c -0.6325,0.8675 -1.53875,1.2613 -2.72,1.2613 -1.57875,0 -2.5625,-0.63 -3.23375,-2.01 -0.4725,-0.9463 -0.78875,-2.4438 -0.78875,-3.785 0,-1.8513 0.47375,-3.5063 1.2225,-4.5713 0.67001,-0.8662 1.5775,-1.2612 2.87626,-1.2612 1.42125,0 2.40499,0.63 3.115,2.0112 0.47375,0.985 0.75,2.4038 0.75,3.8213 0,1.7737 -0.435,3.5487 -1.22125,4.5337"
       style="fill:#000000;fill-opacity:1;fill-rule:nonzero;stroke:none"
       id="path3610"
       inkscape:connector-curvature="0" />
    <path
       d="m 436.14043,-3043.6976 -4.295,-7.6087 0,7.6087 -1.77375,0 0,-11.2337 1.77375,0 4.09875,7.1737 0,-7.1737 1.775,0 0,11.2337 -1.57875,0 z"
       style="fill:#000000;fill-opacity:1;fill-rule:nonzero;stroke:none"
       id="path3614"
       inkscape:connector-curvature="0" />
    <path
       d="m 440.31768,-3043.6976 0,-11.2337 1.77625,0 0,9.5787 5.2,0 0,1.655 -6.97625,0 z"
       style="fill:#000000;fill-opacity:1;fill-rule:nonzero;stroke:none"
       id="path3618"
       inkscape:connector-curvature="0" />
    <path
       d="m 453.79918,-3048.585 0,4.8875 -1.775,0 0,-4.8875 -3.94125,-6.3462 2.13,0 2.6775,4.3362 2.72,-4.3362 2.08875,0 -3.89999,6.3462 z"
       style="fill:#000000;fill-opacity:1;fill-rule:nonzero;stroke:none"
       id="path3622"
       inkscape:connector-curvature="0" />
    <path
       d="m 438.96393,-3024.895 2.6325,0 1.38,0 c 0.0725,0 0.16,0.034 0.16,-0.046 l 0,-0.775 c 0,-0.1038 -0.0525,-0.069 -0.14375,-0.069 l -0.55,0 -1.72375,0 -1.49125,0 -0.26375,0 0,0.66 0,0.23"
       style="fill:#000000;fill-opacity:1;fill-rule:evenodd;stroke:none"
       id="path3626"
       inkscape:connector-curvature="0" />
    <path
       d="m 436.61043,-3034.7387 2.64,0 1.38375,0 c 0.0687,0 0.16001,0.034 0.16001,-0.045 l 0,-0.7688 c 0,-0.115 -0.0225,-0.084 -0.1325,-0.084 l -0.53375,0 -1.71875,0 -1.51375,0 -0.28251,0 c -0.004,0 -0.002,0.5637 -0.002,0.61 l 0,0.2875"
       style="fill:#000000;fill-opacity:1;fill-rule:evenodd;stroke:none"
       id="path3630"
       inkscape:connector-curvature="0" />
    <path
       d="m 416.45905,-3034.8501 c -0.54875,0 -1.00375,0.3763 -1.00375,0.81 0,0.4537 0.455,0.8275 1.00375,0.8275 0.54876,0 1.01875,-0.3738 1.01875,-0.8275 0,-0.4337 -0.45125,-0.81 -1.01875,-0.81 m 0,2.5438 c -1.0825,0 -1.9075,-0.7901 -1.9075,-1.7925 0,-1.5551 0.86375,-3.1526 2.16125,-4.02 l 0.45126,0.75 c -0.68626,0.5324 -1.03875,0.9849 -1.375,1.6924 0.31624,-0.059 0.45374,-0.059 0.66999,-0.059 1.04,0 1.905,0.7687 1.905,1.7137 0,0.9675 -0.82375,1.7151 -1.905,1.7151"
       style="fill:#000000;fill-opacity:1;fill-rule:nonzero;stroke:none"
       id="path3634"
       inkscape:connector-curvature="0" />
    <path
       d="m 422.00955,-3036.4612 -0.57124,1.5737 1.12124,0 -0.55,-1.5737 z m 1.41876,4.055 -0.5525,-1.5763 -1.75126,0 -0.5525,1.5763 -0.94374,0 1.9275,-5.6125 0.88624,0 1.9325,5.6125 -0.94624,0 z"
       style="fill:#000000;fill-opacity:1;fill-rule:nonzero;stroke:none"
       id="path3638"
       inkscape:connector-curvature="0" />
    <path
       d="m 428.78443,-3032.4062 0,-3.2475 -1.3,3.2475 -1.3,-3.2475 0,3.2475 -0.88625,0 0,-5.6125 0.88625,0 1.3,3.15 1.3,-3.15 0.88625,0 0,5.6125 -0.88625,0 z"
       style="fill:#000000;fill-opacity:1;fill-rule:nonzero;stroke:none"
       id="path3642"
       inkscape:connector-curvature="0" />
    <path
       d="m 449.59018,-3037.1825 c -0.55,0 -1.00375,0.3563 -1.00375,0.8088 0,0.455 0.45375,0.8087 1.00375,0.8087 0.57125,0 1.025,-0.3537 1.025,-0.8087 0,-0.43 -0.47375,-0.8088 -1.025,-0.8088 m -0.25375,4.9063 -0.43375,-0.7488 c 0.6675,-0.5312 1.025,-0.9837 1.35875,-1.7112 -0.31625,0.056 -0.45375,0.076 -0.67125,0.076 -1.0425,0 -1.90875,-0.7675 -1.90875,-1.7137 0,-0.9625 0.845,-1.7138 1.90875,-1.7138 1.08375,0 1.91375,0.77 1.91375,1.7925 0,1.5375 -0.86625,3.1325 -2.1675,4.0188"
       style="fill:#000000;fill-opacity:1;fill-rule:nonzero;stroke:none"
       id="path3646"
       inkscape:connector-curvature="0" />
    <path
       d="m 455.16505,-3036.4325 -0.57124,1.575 1.1225,0 -0.55125,-1.575 z m 1.41875,4.0588 -0.55125,-1.5763 -1.755,0 -0.55,1.5763 -0.94375,0 1.9275,-5.6163 0.88875,0 1.93,5.6163 -0.94625,0 z"
       style="fill:#000000;fill-opacity:1;fill-rule:nonzero;stroke:none"
       id="path3650"
       inkscape:connector-curvature="0" />
    <path
       d="m 461.9803,-3032.3737 0,-3.25 -1.2975,3.25 -1.30125,-3.25 0,3.25 -0.88875,0 0,-5.6163 0.88875,0 1.30125,3.1538 1.2975,-3.1538 0.88751,0 0,5.6163 -0.88751,0 z"
       style="fill:#000000;fill-opacity:1;fill-rule:nonzero;stroke:none"
       id="path3654"
       inkscape:connector-curvature="0" />
    <path
       d="m 426.47368,-3022.5412 0,-3.2525 -1.3,3.2525 -1.30125,-3.2525 0,3.2525 -0.885,0 0,-5.6125 0.885,0 1.30125,3.15 1.3,-3.15 0.8875,0 0,5.6125 -0.8875,0 z"
       style="fill:#000000;fill-opacity:1;fill-rule:nonzero;stroke:none"
       id="path3658"
       inkscape:connector-curvature="0" />
    <path
       d="m 431.29793,-3026.915 c -0.17624,-0.295 -0.3925,-0.4125 -0.7275,-0.4337 -0.435,-0.019 -0.70875,0.1987 -0.90625,0.69 -0.1375,0.335 -0.2175,0.8475 -0.2175,1.3212 0,0.5888 0.1175,1.2013 0.3375,1.5538 0.17625,0.2962 0.41375,0.4337 0.76625,0.4337 0.41501,0 0.66875,-0.215 0.86625,-0.7087 0.1175,-0.2963 0.21625,-0.8475 0.21625,-1.2788 0,-0.6312 -0.1175,-1.2025 -0.335,-1.5775 m 0.6125,3.84 c -0.31625,0.4338 -0.76999,0.6325 -1.36,0.6325 -0.79,0 -1.27875,-0.3162 -1.615,-1.0037 -0.2375,-0.475 -0.39375,-1.2238 -0.39375,-1.8913 0,-0.9275 0.2375,-1.755 0.61,-2.285 0.33625,-0.435 0.78875,-0.6325 1.44,-0.6325 0.70625,0 1.2,0.315 1.55375,1.0063 0.2375,0.4925 0.375,1.2012 0.375,1.9112 0,0.885 -0.215,1.7725 -0.61,2.2625"
       style="fill:#000000;fill-opacity:1;fill-rule:nonzero;stroke:none"
       id="path3662"
       inkscape:connector-curvature="0" />
    <path
       d="m 436.83505,-3022.5412 -2.14749,-3.8025 0,3.8025 -0.8875,0 0,-5.6125 0.8875,0 2.04876,3.585 0,-3.585 0.88499,0 0,5.6125 -0.78625,0 z"
       style="fill:#000000;fill-opacity:1;fill-rule:nonzero;stroke:none"
       id="path3666"
       inkscape:connector-curvature="0" />
    <path
       d="m 445.37868,-3027.2687 0,1.38 1.635,0 0,0.9075 -1.635,0 0,2.44 -0.8875,0 0,-5.6125 3.485,0 0,0.885 -2.5975,0 z"
       style="fill:#000000;fill-opacity:1;fill-rule:nonzero;stroke:none"
       id="path3670"
       inkscape:connector-curvature="0" />
    <path
       d="m 451.26618,-3027.17 c -0.13625,-0.079 -0.21625,-0.099 -0.51249,-0.099 l -1.06376,0 0,1.38 1.06376,0 c 0.27625,0 0.37625,-0.023 0.51249,-0.1 0.2175,-0.1188 0.35501,-0.355 0.35501,-0.5913 0,-0.2375 -0.1375,-0.4725 -0.35501,-0.59 m 0.39626,4.6288 -0.90875,-2.44 -1.06376,0 0,2.44 -0.88375,0 0,-5.6125 1.8525,0 c 0.4325,0 0.72875,0.037 1.00376,0.175 0.4925,0.2387 0.84375,0.8287 0.84375,1.3987 0,0.5913 -0.35125,1.1825 -0.86375,1.4188 l 0.98375,2.62 -0.96375,0 z"
       style="fill:#000000;fill-opacity:1;fill-rule:nonzero;stroke:none"
       id="path3674"
       inkscape:connector-curvature="0" />
    <path
       d="m 453.92606,-3028.1541 0.90625,0 0,5.6125 -0.90625,0 0,-5.6125 z"
       style="fill:#000000;fill-opacity:1;fill-rule:nonzero;stroke:none"
       id="path3676"
       inkscape:connector-curvature="0" />
  </g>
</svg>
