<?xml version="1.0" encoding="UTF-8" standalone="no"?>
<svg
   xmlns:dc="http://purl.org/dc/elements/1.1/"
   xmlns:cc="http://creativecommons.org/ns#"
   xmlns:rdf="http://www.w3.org/1999/02/22-rdf-syntax-ns#"
   xmlns:svg="http://www.w3.org/2000/svg"
   xmlns="http://www.w3.org/2000/svg"
   xmlns:sodipodi="http://sodipodi.sourceforge.net/DTD/sodipodi-0.dtd"
   xmlns:inkscape="http://www.inkscape.org/namespaces/inkscape"
   width="135.62007"
   height="101.91437"
   viewBox="0 0 382.74999 287.62497"
   version="1.1"
   id="svg2"
   inkscape:version="0.48.2 r9819"
   sodipodi:docname="MUTCD R3-13a.svg">
  <metadata
     id="metadata62">
    <rdf:RDF>
      <cc:Work
         rdf:about="">
        <dc:format>image/svg+xml</dc:format>
        <dc:type
           rdf:resource="http://purl.org/dc/dcmitype/StillImage" />
        <dc:title></dc:title>
      </cc:Work>
    </rdf:RDF>
  </metadata>
  <defs
     id="defs60" />
  <sodipodi:namedview
     pagecolor="#ffffff"
     bordercolor="#666666"
     borderopacity="1"
     objecttolerance="10"
     gridtolerance="10"
     guidetolerance="10"
     inkscape:pageopacity="0"
     inkscape:pageshadow="2"
     inkscape:window-width="1280"
     inkscape:window-height="1004"
     id="namedview58"
     showgrid="false"
     fit-margin-top="0"
     fit-margin-left="0"
     fit-margin-right="0"
     fit-margin-bottom="0"
     inkscape:zoom="3.5700388"
     inkscape:cx="56.065525"
     inkscape:cy="2.3214747"
     inkscape:window-x="-8"
     inkscape:window-y="-8"
     inkscape:window-maximized="1"
     inkscape:current-layer="svg2" />
  <polygon
     points="395,375 315,545 235,375 315,205 "
     id="polygon10"
     style="fill:none;stroke:#ffffff;stroke-width:40"
     transform="translate(474.15625,1140.4686)" />
  <!-- draw the bicycle -->
  <!-- RIGHT -->
  <!-- LANE -->
  <!-- ONLY -->
  <path
     d="m 20.23707,286.77428 342.25795,0 c 10.59039,-0.0113 19.39572,-8.80886 19.39572,-19.39572 l 0,-247.14553 c 0,-10.5868606 -8.80533,-19.39572162 -19.39572,-19.39572162 l -342.25795,0 C 9.65021,0.83730838 0.84488,9.6461694 0.84488,20.23303 l 0,247.14553 c 0,11.35239 8.83708,18.33033 19.39219,19.39572"
     style="fill:#ffffff;fill-opacity:1;fill-rule:nonzero;stroke:#000000;stroke-width:1.69333339;stroke-linecap:butt;stroke-linejoin:miter;stroke-miterlimit:4;stroke-opacity:1;stroke-dasharray:none"
     id="path4640"
     inkscape:connector-curvature="0" />
  <path
     style="fill:#000000;fill-opacity:1;fill-rule:evenodd;stroke:none"
     d="m 20.25418,5.7749803 c -7.898695,0 -14.4638895,6.5651947 -14.4638895,14.4638897 l 0,247.12084 c 0,7.89869 6.5651945,14.46389 14.4638895,14.46389 l 342.28265,0 c 7.89516,0 14.46389,-6.57578 14.46389,-14.46389 l 0,-247.12084 c 0,-7.898695 -6.56873,-14.4638897 -14.46389,-14.4638897 l -342.28265,0 z m 54.239585,8.1138887 288.043065,0 c 3.43605,0 6.24416,2.924528 6.2618,6.350001 l 0,247.12084 c 0,3.42547 -2.84691,6.30767 -6.2618,6.35 l -342.28265,0 c -3.46075,0 -6.35,-2.92453 -6.35,-6.35 l 0,-148.07848 60.589585,0 0,-105.392361 z"
     id="path4650"
     inkscape:connector-curvature="0" />
  <path
     d="M 44.86836,100.0462 26.84141,68.229167 45.01299,34.341334 61.78052,67.897556 44.86836,100.0462 z m 0.0741,-81.470505 -26.5677,49.4665 26.5677,46.940615 24.64506,-46.940615 -24.64506,-49.4665 z"
     style="fill:#ffffff;fill-opacity:1;fill-rule:evenodd;stroke:none"
     id="path4654"
     inkscape:connector-curvature="0" />
  <path
     d="m 285.09803,189.05379 18.72897,0 0,-4.01108 -18.72897,0 0,4.01108 z"
     style="fill:#000000;fill-opacity:1;fill-rule:evenodd;stroke:none"
     id="path4646"
     inkscape:connector-curvature="0" />
  <path
     d="m 300.8545,71.650054 0,-7.919862 5.02003,0 0,7.919862 7.91633,0 0,5.023555 -7.91633,0 0,7.909278 -5.02003,0 0,-7.909278 -7.91281,0 0,-5.023555 7.91281,0 z"
     style="fill:#000000;fill-opacity:1;fill-rule:evenodd;stroke:none"
     id="path4658"
     inkscape:connector-curvature="0" />
  <path
     d="m 132.86525,89.285416 0,-16.435918 -16.83103,0.134056 0,16.301862 -6.70983,0 0,-37.465001 6.70983,0 0,14.453305 16.83103,0 0,-14.453305 6.69572,0 0,37.465001 -6.69572,0 z"
     style="fill:#000000;fill-opacity:1;fill-rule:nonzero;stroke:none"
     id="path4662"
     inkscape:connector-curvature="0" />
  <path
     d="m 164.5588,57.869848 c -5.65855,0 -9.06992,4.723694 -9.06992,12.611806 0,8.022166 3.41137,12.756444 9.06992,12.756444 7.10142,0 8.80533,-6.967361 8.80533,-12.756444 0,-7.888112 -3.1503,-12.611806 -8.80533,-12.611806 m 0,32.067501 c -11.04194,0 -15.91028,-9.98714 -15.91028,-19.455695 0,-11.962695 6.05367,-19.321639 15.91028,-19.321639 9.19692,0 15.50811,7.754055 15.50811,19.198166 0,11.691056 -6.03955,19.579168 -15.50811,19.579168"
     style="fill:#000000;fill-opacity:1;fill-rule:nonzero;stroke:none"
     id="path4666"
     inkscape:connector-curvature="0" />
  <path
     d="m 207.87286,89.285416 -7.22842,0 -13.80419,-37.465001 7.23194,0 10.25172,27.343805 10.25878,-27.343805 7.22489,0 -13.93472,37.465001 z"
     style="fill:#000000;fill-opacity:1;fill-rule:nonzero;stroke:none"
     id="path4670"
     inkscape:connector-curvature="0" />
  <path
     d="m 259.1985,89.285416 c 0,-4.473223 0.92075,-7.754057 3.01978,-11.433529 3.28436,-5.531556 8.01863,-8.939389 14.85547,-10.780889 4.20511,-1.188861 5.6515,-2.501194 5.6515,-4.734278 0,-2.758722 -2.6282,-4.342694 -7.35895,-4.342694 -4.87186,0 -8.41727,1.188861 -11.56758,4.085166 l -4.60022,-5.129388 c 4.33211,-3.813528 9.72608,-5.789084 15.76916,-5.789084 8.80887,0 14.45684,4.342695 14.45684,11.176 0,3.150306 -1.31586,6.046611 -3.80647,8.145639 -1.18887,0.92075 -2.89278,1.837972 -5.52098,2.63525 -4.99886,1.446389 -6.44172,2.099028 -8.68186,4.074584 -1.70391,1.446389 -2.75872,2.892777 -4.07105,5.383389 l 22.08036,0 0,6.709834 -30.226,0 z"
     style="fill:#000000;fill-opacity:1;fill-rule:nonzero;stroke:none"
     id="path4674"
     inkscape:connector-curvature="0" />
  <path
     d="m 162.41005,119.22355 c -5.65856,0 -9.07345,4.72369 -9.07345,12.61181 0,8.02216 3.41489,12.75644 9.07345,12.75644 7.09436,0 8.80533,-6.96736 8.80533,-12.75644 0,-7.88812 -3.15383,-12.61181 -8.80533,-12.61181 m 0,32.0675 c -11.04195,0 -15.91028,-9.98714 -15.91028,-19.45569 0,-11.9627 6.04661,-19.32164 15.91028,-19.32164 9.19691,0 15.50811,7.75405 15.50811,19.19464 0,11.69458 -6.04661,19.58269 -15.50811,19.58269"
     style="fill:#000000;fill-opacity:1;fill-rule:nonzero;stroke:none"
     id="path4678"
     inkscape:connector-curvature="0" />
  <path
     d="m 211.67544,150.84584 -17.87878,-25.75983 0,25.75983 -6.56873,0 0,-37.465 6.56873,0 17.22261,24.71914 0,-24.71914 6.44172,0 0,37.465 -5.78555,0 z"
     style="fill:#000000;fill-opacity:1;fill-rule:nonzero;stroke:none"
     id="path4682"
     inkscape:connector-curvature="0" />
  <path
     d="m 226.51011,150.84584 0,-37.465 6.7063,0 0,31.6865 21.2972,0 0,5.7785 -28.0035,0 z"
     style="fill:#000000;fill-opacity:1;fill-rule:nonzero;stroke:none"
     id="path4686"
     inkscape:connector-curvature="0" />
  <path
     d="m 279.59258,135.59808 0,15.24706 -6.7063,0 0,-15.24706 -15.77623,-22.21441 8.28675,0 10.91142,15.24705 10.77736,-15.24705 8.28322,0 -15.77622,22.21441 z"
     style="fill:#000000;fill-opacity:1;fill-rule:nonzero;stroke:none"
     id="path4690"
     inkscape:connector-curvature="0" />
  <path
     d="m 34.83536,189.90116 c -2.45181,0 -4.45912,1.65453 -4.45912,3.57717 0,2.00378 2.00731,3.65831 4.45912,3.65831 2.43769,0 4.53672,-1.65453 4.53672,-3.65831 0,-1.92264 -2.01436,-3.57717 -4.53672,-3.57717 m 0,11.25714 c -4.80484,0 -8.4702,-3.4925 -8.4702,-7.94808 0,-6.89681 3.8347,-13.95589 9.59908,-17.80117 l 2.01084,3.31611 c -3.05859,2.35656 -4.62845,4.36386 -6.10659,7.50711 1.39348,-0.26105 2.00378,-0.26105 2.96687,-0.26105 4.61786,0 8.45961,3.4043 8.45961,7.58825 0,4.28272 -3.66536,7.59883 -8.45961,7.59883"
     style="fill:#000000;fill-opacity:1;fill-rule:nonzero;stroke:none"
     id="path4694"
     inkscape:connector-curvature="0" />
  <path
     d="m 59.74113,182.73731 -2.52942,6.98852 4.97064,0 -2.44122,-6.98852 z m 6.28297,17.98813 -2.44475,-6.98852 -7.76111,0 -2.45181,6.98852 -4.18394,0 8.54781,-24.88494 3.92641,0 8.56192,24.88494 -4.19453,0 z"
     style="fill:#000000;fill-opacity:1;fill-rule:nonzero;stroke:none"
     id="path4698"
     inkscape:connector-curvature="0" />
  <path
     d="m 90.2003,200.72403 0,-14.41097 -5.75733,14.41097 -5.76439,-14.41097 0,14.41097 -3.92642,0 0,-24.88141 3.92642,0 5.76439,13.96647 5.75733,-13.96647 3.92642,0 0,24.88141 -3.92642,0 z"
     style="fill:#000000;fill-opacity:1;fill-rule:nonzero;stroke:none"
     id="path4702"
     inkscape:connector-curvature="0" />
  <path
     d="m 133.23532,179.41767 c -2.43769,0 -4.445,1.57339 -4.445,3.58775 0,2.0073 2.00731,3.57716 4.445,3.57716 2.53295,0 4.53673,-1.56986 4.53673,-3.57716 0,-1.92264 -2.08845,-3.58775 -4.53673,-3.58775 m -1.13241,21.74169 -1.91559,-3.31964 c 2.96686,-2.35655 4.53673,-4.36386 6.01486,-7.59883 -1.397,0.27164 -2.00377,0.35278 -2.96686,0.35278 -4.62139,0 -8.46666,-3.40078 -8.46666,-7.58825 0,-4.2792 3.75355,-7.59884 8.46666,-7.59884 4.80484,0 8.46314,3.40078 8.46314,7.94103 0,6.81214 -3.83116,13.88181 -9.59555,17.81175"
     style="fill:#000000;fill-opacity:1;fill-rule:nonzero;stroke:none"
     id="path4706"
     inkscape:connector-curvature="0" />
  <path
     d="m 155.88013,182.73731 -2.52942,6.98852 4.97064,0 -2.44122,-6.98852 z m 6.28297,17.98813 -2.44475,-6.98852 -7.76111,0 -2.45181,6.98852 -4.18394,0 8.55486,-24.88494 3.92642,0 8.55486,24.88494 -4.19453,0 z"
     style="fill:#000000;fill-opacity:1;fill-rule:nonzero;stroke:none"
     id="path4710"
     inkscape:connector-curvature="0" />
  <path
     d="m 185.55261,200.72403 0,-14.41097 -5.75734,14.41097 -5.76086,-14.41097 0,14.41097 -3.92641,0 0,-24.88141 3.92641,0 5.76086,13.96647 5.75734,-13.96647 3.92641,0 0,24.88141 -3.92641,0 z"
     style="fill:#000000;fill-opacity:1;fill-rule:nonzero;stroke:none"
     id="path4714"
     inkscape:connector-curvature="0" />
  <path
     d="m 229.00744,199.39089 0,-14.40039 -5.76087,14.40039 -5.76086,-14.40039 0,14.40039 -3.92641,0 0,-24.87084 3.92641,0 5.76086,13.96647 5.76087,-13.96647 3.92994,0 0,24.87084 -3.92994,0 z"
     style="fill:#000000;fill-opacity:1;fill-rule:nonzero;stroke:none"
     id="path4718"
     inkscape:connector-curvature="0" />
  <path
     d="m 251.04933,180.07912 c -0.78669,-1.30175 -1.74978,-1.82738 -3.23144,-1.91205 -1.92264,-0.0917 -3.14325,0.86783 -4.01109,3.05153 -0.61736,1.48872 -0.96308,3.75002 -0.96308,5.84905 0,2.61761 0.51858,5.32342 1.47814,6.89681 0.78669,1.30175 1.83444,1.91911 3.4043,1.91911 1.83798,0 2.97039,-0.95956 3.84175,-3.13972 0.52564,-1.31234 0.95956,-3.75356 0.95956,-5.6762 0,-2.79047 -0.52564,-5.32341 -1.47814,-6.98853 m 2.69875,17.02859 c -1.39347,1.92264 -3.40078,2.79047 -6.02192,2.79047 -3.48544,0 -5.66561,-1.397 -7.15433,-4.45911 -1.04422,-2.08492 -1.74272,-5.40456 -1.74272,-8.37142 0,-4.1028 1.05128,-7.77522 2.70228,-10.13178 1.48872,-1.91205 3.49602,-2.79047 6.37469,-2.79047 3.14325,0 5.32342,1.397 6.89328,4.45559 1.05128,2.18369 1.66158,5.32341 1.66158,8.46666 0,3.92995 -0.96308,7.85636 -2.71286,10.04006"
     style="fill:#000000;fill-opacity:1;fill-rule:nonzero;stroke:none"
     id="path4722"
     inkscape:connector-curvature="0" />
  <path
     d="m 275.68699,199.39089 -9.51089,-16.84162 0,16.84162 -3.92994,0 0,-24.87084 3.92994,0 9.07698,15.88911 0,-15.88911 3.92641,0 0,24.87084 -3.4925,0 z"
     style="fill:#000000;fill-opacity:1;fill-rule:nonzero;stroke:none"
     id="path4726"
     inkscape:connector-curvature="0" />
  <path
     d="m 313.77994,178.44647 0,6.11011 7.24253,0 0,4.02167 -7.24253,0 0,10.81264 -3.92642,0 0,-24.87084 15.44108,0 0,3.92642 -11.51466,0 z"
     style="fill:#000000;fill-opacity:1;fill-rule:nonzero;stroke:none"
     id="path4730"
     inkscape:connector-curvature="0" />
  <path
     d="m 340.67958,178.80807 c -0.6103,-0.35278 -0.96308,-0.43392 -2.27541,-0.43392 l -4.70959,0 0,6.11011 4.70959,0 c 1.22413,0 1.66511,-0.0847 2.27541,-0.43392 0.95956,-0.52916 1.56986,-1.57338 1.56986,-2.62466 0,-1.04775 -0.6103,-2.09197 -1.56986,-2.61761 m 1.74625,20.5105 -4.02166,-10.81264 -4.70959,0 0,10.81264 -3.92641,0 0,-24.87084 8.20208,0 c 1.92264,0 3.23497,0.17639 4.45558,0.78317 2.18017,1.04422 3.75003,3.66889 3.75003,6.19478 0,2.62466 -1.56986,5.23875 -3.83822,6.28297 l 4.36386,11.60992 -4.27567,0 z"
     style="fill:#000000;fill-opacity:1;fill-rule:nonzero;stroke:none"
     id="path4734"
     inkscape:connector-curvature="0" />
  <path
     d="m 352.47153,174.51935 4.01461,0 0,24.87083 -4.01461,0 0,-24.87083 z"
     style="fill:#000000;fill-opacity:1;fill-rule:nonzero;stroke:none"
     id="path4736"
     inkscape:connector-curvature="0" />
  <path
     d="m 217.92313,228.53421 c -0.20108,0 -0.36689,0 -0.52564,0.0388 l -21.47358,5.57036 0,-16.83456 -12.15673,0 0,16.83456 -21.51591,-5.57036 c -0.16581,-0.0388 -0.32456,-0.0388 -0.44803,-0.0388 -1.06186,0 -1.87678,0.80786 -1.87678,1.86972 0,0.49037 0.20814,0.97367 0.57503,1.34056 l 0.0388,0.0388 29.32641,26.68411 29.28409,-26.68411 c 0.40569,-0.36337 0.64558,-0.889 0.64558,-1.37937 0,-1.06186 -0.85372,-1.86972 -1.87325,-1.86972"
     style="fill:#000000;fill-opacity:1;fill-rule:nonzero;stroke:none"
     id="path4744"
     inkscape:connector-curvature="0" />
  <path
     d="m 100.06256,190.28499 18.72191,0 0,-3.97934 -18.72191,0 0,3.97934 z"
     style="fill:#000000;fill-opacity:1;fill-rule:evenodd;stroke:none"
     id="path4746"
     inkscape:connector-curvature="0" />
</svg>
