<?xml version="1.0" encoding="UTF-8" standalone="no"?>
<!-- Created with Inkscape (http://www.inkscape.org/) -->

<svg
   xmlns:dc="http://purl.org/dc/elements/1.1/"
   xmlns:cc="http://creativecommons.org/ns#"
   xmlns:rdf="http://www.w3.org/1999/02/22-rdf-syntax-ns#"
   xmlns:svg="http://www.w3.org/2000/svg"
   xmlns="http://www.w3.org/2000/svg"
   xmlns:sodipodi="http://sodipodi.sourceforge.net/DTD/sodipodi-0.dtd"
   xmlns:inkscape="http://www.inkscape.org/namespaces/inkscape"
   width="73.71875"
   height="102.96875"
   id="svg4779"
   version="1.1"
   inkscape:version="0.48.2 r9819"
   sodipodi:docname="MUTCD R3-11.svg">
  <defs
     id="defs4781" />
  <sodipodi:namedview
     id="base"
     pagecolor="#ffffff"
     bordercolor="#666666"
     borderopacity="1.0"
     inkscape:pageopacity="0.0"
     inkscape:pageshadow="2"
     inkscape:zoom="5.6568543"
     inkscape:cx="28.515448"
     inkscape:cy="63.134798"
     inkscape:document-units="px"
     inkscape:current-layer="layer1"
     showgrid="false"
     inkscape:window-width="1280"
     inkscape:window-height="1004"
     inkscape:window-x="-8"
     inkscape:window-y="-8"
     inkscape:window-maximized="1"
     fit-margin-top="0"
     fit-margin-left="0"
     fit-margin-right="0"
     fit-margin-bottom="0" />
  <metadata
     id="metadata4784">
    <rdf:RDF>
      <cc:Work
         rdf:about="">
        <dc:format>image/svg+xml</dc:format>
        <dc:type
           rdf:resource="http://purl.org/dc/dcmitype/StillImage" />
        <dc:title></dc:title>
      </cc:Work>
    </rdf:RDF>
  </metadata>
  <g
     inkscape:label="Layer 1"
     inkscape:groupmode="layer"
     id="layer1"
     transform="translate(-401.3125,3112.875)">
    <path
       inkscape:connector-curvature="0"
       d="m 406.17025,-3010.2059 63.98375,0 c 2.49375,0 4.57,-2.075 4.57,-4.57 l 0,-93.235 c -10e-4,-2.495 -2.07625,-4.57 -4.57,-4.57 l -63.98375,0 c -2.49625,0 -4.57125,2.075 -4.57125,4.57 l 0,93.235 c 0,2.675 2.0825,4.3187 4.57125,4.57"
       style="fill:#ffffff;fill-opacity:1;fill-rule:nonzero;stroke:#000000;stroke-width:0.60000002;stroke-linecap:butt;stroke-linejoin:miter;stroke-miterlimit:4;stroke-opacity:1;stroke-dasharray:none"
       id="path3212" />
    <path
       inkscape:connector-curvature="0"
       d="m 471.64275,-3014.776 c 0,0.805 -0.685,1.4875 -1.48875,1.4988 l -63.98375,0 c -0.81625,0 -1.49125,-0.6938 -1.49125,-1.4988 l 0,-65.285 c 0,-0.8174 0.675,-1.485 1.49125,-1.49 l 63.98375,0 c 0.81,0 1.48625,0.6838 1.48875,1.49 l 0,65.285 z m -1.48875,-96.6437 -63.98375,0 c -1.86375,0 -3.41125,1.5475 -3.41125,3.4087 l 0,93.235 c 0,1.8613 1.54875,3.4088 3.41125,3.4088 l 63.98375,0 c 1.86,0 3.40875,-1.5488 3.40875,-3.4088 l 0,-93.235 c 0,-1.8612 -1.54875,-3.4087 -3.40875,-3.4087"
       style="fill:#000000;fill-opacity:1;fill-rule:evenodd;stroke:none"
       id="path3216" />
    <path
       d="m 411.37781,-3108.84 6.09375,12.1875 -6.09375,12.1875 -6.09375,-12.1875 6.09375,-12.1875 z m 0,3.8938 4.14875,8.2937 -4.14875,8.2937 -4.1475,-8.2937 4.1475,-8.2937 z"
       style="fill:#ffffff;fill-opacity:1;fill-rule:evenodd;stroke:none"
       id="path3700"
       inkscape:connector-curvature="0" />
    <path
       d="m 431.65281,-3097.4963 0,-7.3212 1.31,0 0,6.1912 4.16125,0 0,1.13 -5.47125,0 z"
       style="fill:#ffffff;fill-opacity:1;fill-rule:nonzero;stroke:none"
       id="path3794"
       inkscape:connector-curvature="0" />
    <path
       d="m 438.66656,-3097.4963 0,-7.3212 5.345,0 0,1.31 -4.00875,0 0,1.3612 2.18375,0 0,1.3363 -2.18375,0 0,2.0037 4.135,0 0,1.31 -5.47125,0 z"
       style="fill:#ffffff;fill-opacity:1;fill-rule:nonzero;stroke:none"
       id="path3798"
       inkscape:connector-curvature="0" />
    <path
       d="m 447.22031,-3103.5075 0,1.4912 2.2875,0 0,1.3338 -2.2875,0 0,3.1862 -1.33625,0 0,-7.3212 5.47125,0 0,1.31 -4.135,0 z"
       style="fill:#ffffff;fill-opacity:1;fill-rule:nonzero;stroke:none"
       id="path3802"
       inkscape:connector-curvature="0" />
    <path
       d="m 455.62156,-3103.5338 0,6.0375 -1.28625,0 0,-6.0375 -2.10375,0 0,-1.2837 5.49625,0 0,1.2837 -2.10625,0 z"
       style="fill:#ffffff;fill-opacity:1;fill-rule:nonzero;stroke:none"
       id="path3806"
       inkscape:connector-curvature="0" />
    <path
       d="m 430.11406,-3087.8475 0,-7.3213 1.30625,0 0,6.19 4.16375,0 0,1.1313 -5.47,0 z"
       style="fill:#ffffff;fill-opacity:1;fill-rule:nonzero;stroke:none"
       id="path3810"
       inkscape:connector-curvature="0" />
    <path
       d="m 443.93156,-3087.8475 -3.05625,-7.3213 -1.335,0 -3.0825,7.3213 1.4375,0 0.72,-1.7213 3.18375,0 0.72,1.7213 1.4125,0 z m -2.6975,-3.0313 -2.05375,0 1.02875,-2.4675 1.025,2.4675 z"
       style="fill:#ffffff;fill-opacity:1;fill-rule:nonzero;stroke:none"
       id="path3814"
       inkscape:connector-curvature="0" />
    <path
       d="m 450.25156,-3087.8475 -3.49125,-5.0362 0,5.0362 -1.285,0 0,-7.3213 1.285,0 3.36375,4.83 0,-4.83 1.26,0 0,7.3213 -1.1325,0 z"
       style="fill:#ffffff;fill-opacity:1;fill-rule:nonzero;stroke:none"
       id="path3818"
       inkscape:connector-curvature="0" />
    <path
       d="m 453.56406,-3087.8475 0,-7.3213 5.345,0 0,1.31 -4.0075,0 0,1.3613 2.1825,0 0,1.335 -2.1825,0 0,2.005 4.1375,0 0,1.31 -5.475,0 z"
       style="fill:#ffffff;fill-opacity:1;fill-rule:nonzero;stroke:none"
       id="path3822"
       inkscape:connector-curvature="0" />
    <path
       d="m 449.92031,-3059.4789 c 0.0375,-1.3012 0.315,-2.365 0.94625,-3.4287 0.4725,-0.8675 1.18,-1.5775 1.97125,-2.1688 0.19625,-0.1175 0.355,-0.2349 0.51,-0.3549 l 0.59375,-0.3163 0.54875,-0.3137 0.55375,-0.3151 c 0.43375,-0.2762 0.7475,-0.7487 0.7475,-1.2212 0,-0.8288 -0.945,-1.4975 -2.04625,-1.4975 -1.1425,0 -1.85375,0.55 -2.05,1.575 l -1.775,-0.3937 c 0.395,-1.8525 1.855,-2.9963 3.825,-2.9963 2.12625,0 3.82125,1.5 3.82125,3.3513 0,0.8662 -0.39375,1.7349 -1.1425,2.4049 -0.15875,0.1188 -0.315,0.235 -0.47375,0.3138 l -0.55125,0.355 -0.59125,0.3162 -0.55125,0.315 c -1.06375,0.6301 -1.65375,1.3 -2.21,2.5613 l 5.52,0 0,1.8137 -7.64625,0 z"
       style="fill:#000000;fill-opacity:1;fill-rule:nonzero;stroke:none"
       id="path3704"
       inkscape:connector-curvature="0" />
    <path
       d="m 463.59781,-3064.0887 0,2.7962 -1.775,0 0,-2.7962 -2.875,0 0,-1.815 2.875,0 0,-2.7975 1.775,0 0,2.7975 2.8775,0 0,1.815 -2.8775,0 z"
       style="fill:#000000;fill-opacity:1;fill-rule:nonzero;stroke:none"
       id="path3708"
       inkscape:connector-curvature="0" />
    <path
       d="m 415.77406,-3059.4337 0,-4.8875 -4.1,0 0,4.8875 -1.775,0 0,-11.2338 1.775,0 0,4.5325 4.1,0 0,-4.5325 1.77375,0 0,11.2338 -1.77375,0 z"
       style="fill:#000000;fill-opacity:1;fill-rule:nonzero;stroke:none"
       id="path3712"
       inkscape:connector-curvature="0" />
    <path
       d="m 425.82531,-3068.1837 c -0.355,-0.5913 -0.79,-0.8288 -1.46,-0.8663 -0.86625,-0.04 -1.41875,0.3925 -1.8125,1.3775 -0.27625,0.67 -0.435,1.695 -0.435,2.6425 0,1.1813 0.2375,2.4025 0.67,3.1125 0.355,0.5913 0.8275,0.8675 1.53625,0.8675 0.82875,0 1.3425,-0.4337 1.735,-1.42 0.23625,-0.59 0.43625,-1.695 0.43625,-2.56 0,-1.2625 -0.2375,-2.405 -0.67,-3.1537 m 1.2175,7.685 c -0.6275,0.8675 -1.535,1.2612 -2.71875,1.2612 -1.57375,0 -2.56125,-0.6312 -3.23125,-2.01 -0.4725,-0.9462 -0.78625,-2.4437 -0.78625,-3.7825 0,-1.8537 0.4725,-3.51 1.22125,-4.5737 0.66875,-0.8663 1.5775,-1.26 2.875,-1.26 1.4225,0 2.40625,0.63 3.11375,2.0087 0.4725,0.9863 0.74875,2.405 0.74875,3.825 0,1.7725 -0.43125,3.5463 -1.2225,4.5313"
       style="fill:#000000;fill-opacity:1;fill-rule:nonzero;stroke:none"
       id="path3716"
       inkscape:connector-curvature="0" />
    <path
       d="m 435.00781,-3059.4337 -1.38125,0 -3.545,-11.2338 1.85,0 2.405,7.4888 2.365,-7.4888 1.8925,0 -3.58625,11.2338 z"
       style="fill:#000000;fill-opacity:1;fill-rule:nonzero;stroke:none"
       id="path3720"
       inkscape:connector-curvature="0" />
    <path
       d="m 425.22156,-3052.4487 c -0.355,-0.59 -0.78625,-0.8275 -1.45625,-0.865 -0.87,-0.041 -1.42125,0.3925 -1.81625,1.3775 -0.275,0.67 -0.43,1.6962 -0.43,2.64 0,1.1837 0.23375,2.405 0.66875,3.115 0.35625,0.5912 0.82875,0.8675 1.53625,0.8675 0.8275,0 1.33875,-0.4338 1.7325,-1.42 0.2375,-0.59 0.43625,-1.6938 0.43625,-2.5625 0,-1.26 -0.23625,-2.4025 -0.67125,-3.1525 m 1.2225,7.6862 c -0.63125,0.8675 -1.53625,1.2613 -2.72,1.2613 -1.5775,0 -2.56125,-0.63 -3.23125,-2.01 -0.4725,-0.9463 -0.79,-2.4438 -0.79,-3.785 0,-1.8513 0.4725,-3.5063 1.2225,-4.5713 0.66875,-0.8662 1.5775,-1.2612 2.87875,-1.2612 1.4175,0 2.4025,0.63 3.1125,2.0112 0.47375,0.985 0.74875,2.4038 0.74875,3.8213 0,1.7737 -0.43375,3.5487 -1.22125,4.5337"
       style="fill:#000000;fill-opacity:1;fill-rule:nonzero;stroke:none"
       id="path3724"
       inkscape:connector-curvature="0" />
    <path
       d="m 436.14031,-3043.6976 -4.2975,-7.6087 0,7.6087 -1.775,0 0,-11.2337 1.775,0 4.10125,7.1737 0,-7.1737 1.77375,0 0,11.2337 -1.5775,0 z"
       style="fill:#000000;fill-opacity:1;fill-rule:nonzero;stroke:none"
       id="path3728"
       inkscape:connector-curvature="0" />
    <path
       d="m 440.31781,-3043.6976 0,-11.2337 1.77375,0 0,9.5787 5.20125,0 0,1.655 -6.975,0 z"
       style="fill:#000000;fill-opacity:1;fill-rule:nonzero;stroke:none"
       id="path3732"
       inkscape:connector-curvature="0" />
    <path
       d="m 453.79656,-3048.585 0,4.8875 -1.775,0 0,-4.8875 -3.94125,-6.3462 2.13,0 2.6775,4.3362 2.72,-4.3362 2.08875,0 -3.9,6.3462 z"
       style="fill:#000000;fill-opacity:1;fill-rule:nonzero;stroke:none"
       id="path3736"
       inkscape:connector-curvature="0" />
    <path
       d="m 438.96156,-3024.895 2.63375,0 1.37875,0 c 0.0725,0 0.16,0.034 0.16,-0.046 l 0,-0.775 c 0,-0.1038 -0.0525,-0.069 -0.145,-0.069 l -0.54875,0 -1.72375,0 -1.49125,0 -0.26375,0 0,0.66 0,0.23"
       style="fill:#000000;fill-opacity:1;fill-rule:evenodd;stroke:none"
       id="path3740"
       inkscape:connector-curvature="0" />
    <path
       d="m 436.61031,-3034.7387 2.64,0 1.38125,0 c 0.0687,0 0.16125,0.034 0.16125,-0.045 l 0,-0.7688 c 0,-0.115 -0.0225,-0.084 -0.13375,-0.084 l -0.5325,0 -1.72125,0 -1.51375,0 -0.28125,0 c -0.004,0 0,0.5637 0,0.61 l 0,0.2875"
       style="fill:#000000;fill-opacity:1;fill-rule:evenodd;stroke:none"
       id="path3744"
       inkscape:connector-curvature="0" />
    <path
       d="m 416.45656,-3034.8501 c -0.55,0 -1.00375,0.3763 -1.00375,0.81 0,0.4537 0.45375,0.8275 1.00375,0.8275 0.54875,0 1.02125,-0.3738 1.02125,-0.8275 0,-0.4337 -0.45375,-0.81 -1.02125,-0.81 m 0,2.5438 c -1.0825,0 -1.90875,-0.7901 -1.90875,-1.7925 0,-1.5551 0.8675,-3.1526 2.1625,-4.02 l 0.45375,0.75 c -0.69,0.5324 -1.04125,0.9849 -1.3775,1.6924 0.31625,-0.059 0.45375,-0.059 0.67,-0.059 1.04125,0 1.90625,0.7687 1.90625,1.7137 0,0.9675 -0.825,1.7151 -1.90625,1.7151"
       style="fill:#000000;fill-opacity:1;fill-rule:nonzero;stroke:none"
       id="path3748"
       inkscape:connector-curvature="0" />
    <path
       d="m 422.00656,-3036.4612 -0.57125,1.5737 1.125,0 -0.55375,-1.5737 z m 1.41875,4.055 -0.55125,-1.5763 -1.7525,0 -0.5525,1.5763 -0.9425,0 1.92625,-5.6125 0.88625,0 1.9325,5.6125 -0.94625,0 z"
       style="fill:#000000;fill-opacity:1;fill-rule:nonzero;stroke:none"
       id="path3752"
       inkscape:connector-curvature="0" />
    <path
       d="m 428.78281,-3032.4062 0,-3.2475 -1.30125,3.2475 -1.2975,-3.2475 0,3.2475 -0.88875,0 0,-5.6125 0.88875,0 1.2975,3.15 1.30125,-3.15 0.88625,0 0,5.6125 -0.88625,0 z"
       style="fill:#000000;fill-opacity:1;fill-rule:nonzero;stroke:none"
       id="path3756"
       inkscape:connector-curvature="0" />
    <path
       d="m 449.58781,-3037.1825 c -0.55,0 -1.0025,0.3563 -1.0025,0.8088 0,0.455 0.4525,0.8087 1.0025,0.8087 0.57125,0 1.025,-0.3537 1.025,-0.8087 0,-0.43 -0.4725,-0.8088 -1.025,-0.8088 m -0.255,4.9063 -0.43,-0.7488 c 0.66625,-0.5312 1.02125,-0.9837 1.3575,-1.7112 -0.3175,0.056 -0.45375,0.076 -0.6725,0.076 -1.04125,0 -1.9075,-0.7675 -1.9075,-1.7137 0,-0.9625 0.84375,-1.7138 1.9075,-1.7138 1.085,0 1.91375,0.77 1.91375,1.7925 0,1.5375 -0.8675,3.1325 -2.16875,4.0188"
       style="fill:#000000;fill-opacity:1;fill-rule:nonzero;stroke:none"
       id="path3760"
       inkscape:connector-curvature="0" />
    <path
       d="m 455.16406,-3036.4325 -0.57125,1.575 1.12,0 -0.54875,-1.575 z m 1.41875,4.0588 -0.5525,-1.5763 -1.755,0 -0.54875,1.5763 -0.94625,0 1.93,-5.6163 0.88875,0 1.92875,5.6163 -0.945,0 z"
       style="fill:#000000;fill-opacity:1;fill-rule:nonzero;stroke:none"
       id="path3764"
       inkscape:connector-curvature="0" />
    <path
       d="m 461.97906,-3032.3737 0,-3.25 -1.29875,3.25 -1.30125,-3.25 0,3.25 -0.88875,0 0,-5.6163 0.88875,0 1.30125,3.1538 1.29875,-3.1538 0.88875,0 0,5.6163 -0.88875,0 z"
       style="fill:#000000;fill-opacity:1;fill-rule:nonzero;stroke:none"
       id="path3768"
       inkscape:connector-curvature="0" />
    <path
       d="m 426.47156,-3022.5412 0,-3.2525 -1.30125,3.2525 -1.30125,-3.2525 0,3.2525 -0.885,0 0,-5.6125 0.885,0 1.30125,3.15 1.30125,-3.15 0.88625,0 0,5.6125 -0.88625,0 z"
       style="fill:#000000;fill-opacity:1;fill-rule:nonzero;stroke:none"
       id="path3772"
       inkscape:connector-curvature="0" />
    <path
       d="m 431.29656,-3026.915 c -0.1775,-0.295 -0.39375,-0.4125 -0.72625,-0.4337 -0.435,-0.019 -0.71125,0.1987 -0.90875,0.69 -0.135,0.335 -0.215,0.8475 -0.215,1.3212 0,0.5888 0.1175,1.2013 0.33625,1.5538 0.175,0.2962 0.4125,0.4337 0.765,0.4337 0.415,0 0.66875,-0.215 0.8675,-0.7087 0.11625,-0.2963 0.2175,-0.8475 0.2175,-1.2788 0,-0.6312 -0.12,-1.2025 -0.33625,-1.5775 m 0.6125,3.84 c -0.3175,0.4338 -0.77125,0.6325 -1.36125,0.6325 -0.7875,0 -1.27875,-0.3162 -1.6125,-1.0037 -0.2375,-0.475 -0.39625,-1.2238 -0.39625,-1.8913 0,-0.9275 0.2375,-1.755 0.6125,-2.285 0.33375,-0.435 0.7875,-0.6325 1.4375,-0.6325 0.7075,0 1.2025,0.315 1.55625,1.0063 0.2375,0.4925 0.3725,1.2012 0.3725,1.9112 0,0.885 -0.215,1.7725 -0.60875,2.2625"
       style="fill:#000000;fill-opacity:1;fill-rule:nonzero;stroke:none"
       id="path3776"
       inkscape:connector-curvature="0" />
    <path
       d="m 436.83281,-3022.5412 -2.14625,-3.8025 0,3.8025 -0.88875,0 0,-5.6125 0.88875,0 2.04625,3.585 0,-3.585 0.88625,0 0,5.6125 -0.78625,0 z"
       style="fill:#000000;fill-opacity:1;fill-rule:nonzero;stroke:none"
       id="path3780"
       inkscape:connector-curvature="0" />
    <path
       d="m 445.37531,-3027.2687 0,1.38 1.635,0 0,0.9075 -1.635,0 0,2.44 -0.885,0 0,-5.6125 3.485,0 0,0.885 -2.6,0 z"
       style="fill:#000000;fill-opacity:1;fill-rule:nonzero;stroke:none"
       id="path3784"
       inkscape:connector-curvature="0" />
    <path
       d="m 451.26281,-3027.17 c -0.13625,-0.079 -0.215,-0.099 -0.51125,-0.099 l -1.0625,0 0,1.38 1.0625,0 c 0.2775,0 0.375,-0.023 0.51125,-0.1 0.21875,-0.1188 0.35625,-0.355 0.35625,-0.5913 0,-0.2375 -0.1375,-0.4725 -0.35625,-0.59 m 0.3975,4.6288 -0.90875,-2.44 -1.0625,0 0,2.44 -0.885,0 0,-5.6125 1.8525,0 c 0.4325,0 0.7275,0.037 1.00375,0.175 0.49125,0.2387 0.845,0.8287 0.845,1.3987 0,0.5913 -0.35375,1.1825 -0.865,1.4188 l 0.98375,2.62 -0.96375,0 z"
       style="fill:#000000;fill-opacity:1;fill-rule:nonzero;stroke:none"
       id="path3788"
       inkscape:connector-curvature="0" />
    <path
       d="m 453.92256,-3028.1541 0.9075,0 0,5.6125 -0.9075,0 0,-5.6125 z"
       style="fill:#000000;fill-opacity:1;fill-rule:nonzero;stroke:none"
       id="path3790"
       inkscape:connector-curvature="0" />
  </g>
</svg>
