<?xml version="1.0" encoding="UTF-8" standalone="no"?>
<!-- Created with Inkscape (http://www.inkscape.org/) -->

<svg
   xmlns:dc="http://purl.org/dc/elements/1.1/"
   xmlns:cc="http://creativecommons.org/ns#"
   xmlns:rdf="http://www.w3.org/1999/02/22-rdf-syntax-ns#"
   xmlns:svg="http://www.w3.org/2000/svg"
   xmlns="http://www.w3.org/2000/svg"
   xmlns:sodipodi="http://sodipodi.sourceforge.net/DTD/sodipodi-0.dtd"
   xmlns:inkscape="http://www.inkscape.org/namespaces/inkscape"
   width="73.71875"
   height="102.96875"
   id="svg4779"
   version="1.1"
   inkscape:version="0.48.2 r9819"
   sodipodi:docname="AJAX1.svg">
  <defs
     id="defs4781" />
  <sodipodi:namedview
     id="base"
     pagecolor="#ffffff"
     bordercolor="#666666"
     borderopacity="1.0"
     inkscape:pageopacity="0.0"
     inkscape:pageshadow="2"
     inkscape:zoom="5.6568543"
     inkscape:cx="28.515448"
     inkscape:cy="63.134798"
     inkscape:document-units="px"
     inkscape:current-layer="layer1"
     showgrid="false"
     inkscape:window-width="1280"
     inkscape:window-height="1004"
     inkscape:window-x="-8"
     inkscape:window-y="-8"
     inkscape:window-maximized="1"
     fit-margin-top="0"
     fit-margin-left="0"
     fit-margin-right="0"
     fit-margin-bottom="0" />
  <metadata
     id="metadata4784">
    <rdf:RDF>
      <cc:Work
         rdf:about="">
        <dc:format>image/svg+xml</dc:format>
        <dc:type
           rdf:resource="http://purl.org/dc/dcmitype/StillImage" />
        <dc:title></dc:title>
      </cc:Work>
    </rdf:RDF>
  </metadata>
  <g
     inkscape:label="Layer 1"
     inkscape:groupmode="layer"
     id="layer1"
     transform="translate(-401.3125,3112.875)">
    <path
       inkscape:connector-curvature="0"
       d="m 406.17025,-3010.2059 63.98375,0 c 2.49375,0 4.57,-2.075 4.57,-4.57 l 0,-93.235 c -10e-4,-2.495 -2.07625,-4.57 -4.57,-4.57 l -63.98375,0 c -2.49625,0 -4.57125,2.075 -4.57125,4.57 l 0,93.235 c 0,2.675 2.0825,4.3187 4.57125,4.57"
       style="fill:#ffffff;fill-opacity:1;fill-rule:nonzero;stroke:#000000;stroke-width:0.60000002;stroke-linecap:butt;stroke-linejoin:miter;stroke-miterlimit:4;stroke-opacity:1;stroke-dasharray:none"
       id="path3212" />
    <path
       inkscape:connector-curvature="0"
       d="m 471.64275,-3014.776 c 0,0.805 -0.685,1.4875 -1.48875,1.4988 l -63.98375,0 c -0.81625,0 -1.49125,-0.6938 -1.49125,-1.4988 l 0,-65.285 c 0,-0.8174 0.675,-1.485 1.49125,-1.49 l 63.98375,0 c 0.81,0 1.48625,0.6838 1.48875,1.49 l 0,65.285 z m -1.48875,-96.6437 -63.98375,0 c -1.86375,0 -3.41125,1.5475 -3.41125,3.4087 l 0,93.235 c 0,1.8613 1.54875,3.4088 3.41125,3.4088 l 63.98375,0 c 1.86,0 3.40875,-1.5488 3.40875,-3.4088 l 0,-93.235 c 0,-1.8612 -1.54875,-3.4087 -3.40875,-3.4087"
       style="fill:#000000;fill-opacity:1;fill-rule:evenodd;stroke:none"
       id="path3216" />
    <path
       inkscape:connector-curvature="0"
       d="m 467.419,-3068.4431 -1.295,0 -1.685,2.6863 -1.66125,-2.6863 -1.31875,0 2.4425,3.9325 0,3.0263 1.1,0 0,-3.0263 2.4175,-3.9325 z m -5.03125,6.9588 0,-1.0238 -3.225,0 0,-5.935 -1.09875,0 0,6.9588 4.32375,0 z m -5.95875,0 0,-6.9588 -1.09875,0 0,4.445 -2.54,-4.445 -1.09875,0 0,6.9588 1.09875,0 0,-4.7125 2.6625,4.7125 0.97625,0 z m -7.35125,-3.4663 c 0,0.5388 -0.1225,1.2213 -0.2675,1.5863 -0.245,0.6112 -0.5625,0.8812 -1.07375,0.8812 -0.44125,0 -0.73375,-0.1725 -0.95375,-0.5387 -0.26875,-0.4388 -0.41625,-1.1975 -0.41625,-1.9288 0,-0.5862 0.0988,-1.2212 0.27,-1.6362 0.24375,-0.6113 0.585,-0.88 1.1225,-0.855 0.41375,0.024 0.68375,0.1712 0.90375,0.5387 0.27,0.4625 0.415,1.1713 0.415,1.9525 m 1.1,0 c 0,-0.88 -0.1725,-1.7575 -0.465,-2.3687 -0.44,-0.8563 -1.05,-1.2463 -1.92875,-1.2463 -0.80625,0 -1.3675,0.245 -1.7825,0.7813 -0.46375,0.66 -0.7575,1.685 -0.7575,2.8337 0,0.83 0.19625,1.7575 0.4875,2.345 0.41625,0.8538 1.02625,1.2488 2.005,1.2488 0.73125,0 1.2925,-0.2488 1.6825,-0.7863 0.48875,-0.61 0.75875,-1.7087 0.75875,-2.8075 m -8.79125,0.61 0,-1.1225 -1.78375,0 0,-1.735 -1.09875,0 0,1.735 -1.78375,0 0,1.1225 1.78375,0 0,1.735 1.09875,0 0,-1.735 1.78375,0 z m -5.56875,2.8563 0,-1.1213 -3.41875,0 c 0.34125,-0.7825 0.70875,-1.1975 1.3675,-1.5887 l 0.34125,-0.195 0.36625,-0.195 0.3425,-0.22 c 0.0975,-0.05 0.195,-0.1225 0.2925,-0.195 0.46375,-0.415 0.70875,-0.9525 0.70875,-1.49 0,-1.1475 -1.05,-2.0763 -2.36875,-2.0763 -1.2225,0 -2.125,0.71 -2.37,1.8575 l 1.1,0.2425 c 0.1225,-0.635 0.56125,-0.9762 1.27,-0.9762 0.68375,0 1.27,0.4162 1.27,0.9275 0,0.2925 -0.19625,0.5875 -0.465,0.7575 l -0.34125,0.195 -0.34125,0.195 -0.36625,0.195 c -0.0975,0.075 -0.19625,0.1475 -0.3175,0.2212 -0.48875,0.3663 -0.9275,0.805 -1.22125,1.3425 -0.39125,0.66 -0.5625,1.32 -0.5875,2.1238 l 4.73875,0 z m -9.57375,-6.9588 -1.17125,0 -1.465,4.64 -1.49,-4.64 -1.1475,0 2.19625,6.9588 0.85625,0 2.22125,-6.9588 z m -7.2775,3.4925 c 0,0.5388 -0.1225,1.2213 -0.26875,1.5863 -0.24375,0.6112 -0.56125,0.8812 -1.07375,0.8812 -0.44,0 -0.7325,-0.1725 -0.95375,-0.5387 -0.2675,-0.4388 -0.41375,-1.1975 -0.41375,-1.9288 0,-0.5862 0.0962,-1.2212 0.26875,-1.6362 0.2425,-0.6113 0.58625,-0.88 1.1225,-0.855 0.415,0.024 0.68375,0.1712 0.90375,0.5387 0.26875,0.4625 0.415,1.1713 0.415,1.9525 m 1.1,0 c 0,-0.88 -0.1725,-1.7575 -0.46375,-2.3687 -0.44125,-0.8563 -1.05125,-1.2463 -1.93,-1.2463 -0.80625,0 -1.3675,0.245 -1.78375,0.7813 -0.4625,0.66 -0.755,1.685 -0.755,2.8337 0,0.83 0.195,1.7575 0.4875,2.345 0.41375,0.8538 1.02625,1.2488 2.0025,1.2488 0.7325,0 1.29375,-0.2488 1.685,-0.7863 0.4875,-0.61 0.7575,-1.7087 0.7575,-2.8075 m -6.42375,3.4663 0,-6.9588 -1.09875,0 0,2.8088 -2.54,0 0,-2.8088 -1.09875,0 0,6.9588 1.09875,0 0,-3.0263 2.54,0 0,3.0263 1.09875,0 z"
       style="fill:#000000;fill-opacity:1;fill-rule:evenodd;stroke:none"
       id="path3224" />
    <path
       inkscape:connector-curvature="0"
       d="m 462.6915,-3049.6211 0,-1.1225 -3.225,0 0,-1.905 2.0275,0 0,-1.1237 -2.0275,0 0,-1.71 3.00375,0 0,-1.0988 -4.10125,0 0,6.96 4.3225,0 z m -6.7175,-5.0075 c 0,0.2938 -0.17,0.5875 -0.44,0.7338 -0.1725,0.096 -0.29125,0.1225 -0.635,0.1225 l -1.3175,0 0,-1.71 1.3175,0 c 0.36625,0 0.4625,0.025 0.635,0.1212 0.27,0.1463 0.44,0.4413 0.44,0.7325 m 1.245,5.0075 -1.22,-3.2487 c 0.635,-0.2938 1.07375,-1.025 1.07375,-1.7588 0,-0.7062 -0.43875,-1.44 -1.04875,-1.7337 -0.3425,-0.17 -0.71,-0.2188 -1.2475,-0.2188 l -2.29375,0 0,6.96 1.09875,0 0,-3.0275 1.3175,0 1.125,3.0275 1.195,0 z m -7.35,-3.4675 c 0,0.5363 -0.1225,1.2213 -0.26875,1.5863 -0.24375,0.6112 -0.56125,0.88 -1.075,0.88 -0.43875,0 -0.7325,-0.1713 -0.9525,-0.5363 -0.2675,-0.44 -0.415,-1.1975 -0.415,-1.93 0,-0.5875 0.0975,-1.2225 0.26875,-1.6362 0.245,-0.61 0.58625,-0.88 1.12375,-0.855 0.415,0.025 0.68375,0.17 0.90375,0.5375 0.26875,0.4625 0.415,1.1725 0.415,1.9537 m 1.1,0 c 0,-0.88 -0.1725,-1.7587 -0.465,-2.3687 -0.44,-0.8563 -1.05,-1.2463 -1.92875,-1.2463 -0.80625,0 -1.3675,0.2438 -1.78375,0.7813 -0.46375,0.6587 -0.7575,1.685 -0.7575,2.8337 0,0.83 0.19625,1.7575 0.48875,2.345 0.415,0.8538 1.02625,1.2488 2.0025,1.2488 0.7325,0 1.29625,-0.2488 1.68625,-0.785 0.4875,-0.6113 0.7575,-1.7113 0.7575,-2.8088 m -6.44875,3.4675 0,-6.96 -1.09875,0 -1.6125,3.9075 -1.61125,-3.9075 -1.09875,0 0,6.96 1.09875,0 0,-4.03 1.61125,4.03 1.6125,-4.03 0,4.03 1.09875,0 z m -11.2825,-5.0075 c 0,0.2938 -0.17125,0.5875 -0.44,0.7338 -0.17,0.096 -0.2925,0.1225 -0.63375,0.1225 l -1.32,0 0,-1.71 1.32,0 c 0.36625,0 0.46375,0.025 0.63375,0.1212 0.26875,0.1463 0.44,0.4413 0.44,0.7325 m 1.245,5.0075 -1.22,-3.2487 c 0.63375,-0.2938 1.075,-1.025 1.075,-1.7588 0,-0.7062 -0.44125,-1.44 -1.05125,-1.7337 -0.34125,-0.17 -0.7075,-0.2188 -1.245,-0.2188 l -2.295,0 0,6.96 1.0975,0 0,-3.0275 1.32,0 1.1225,3.0275 1.19625,0 z m -7.35,-3.4675 c 0,0.5363 -0.12125,1.2213 -0.26875,1.5863 -0.24375,0.6112 -0.56125,0.88 -1.075,0.88 -0.43875,0 -0.7325,-0.1713 -0.9525,-0.5363 -0.26875,-0.44 -0.415,-1.1975 -0.415,-1.93 0,-0.5875 0.0975,-1.2225 0.26875,-1.6362 0.24375,-0.61 0.58625,-0.88 1.12375,-0.855 0.415,0.025 0.68375,0.17 0.90375,0.5375 0.2675,0.4625 0.415,1.1725 0.415,1.9537 m 1.09875,0 c 0,-0.88 -0.17125,-1.7587 -0.46375,-2.3687 -0.44,-0.8563 -1.05,-1.2463 -1.92875,-1.2463 -0.80625,0 -1.36875,0.2438 -1.78375,0.7813 -0.46375,0.6587 -0.75625,1.685 -0.75625,2.8337 0,0.83 0.195,1.7575 0.4875,2.345 0.41625,0.8538 1.02625,1.2488 2.0025,1.2488 0.7325,0 1.29375,-0.2488 1.68625,-0.785 0.4875,-0.6113 0.75625,-1.7113 0.75625,-2.8088 m -9.7675,3.4675 0,-1.1225 -3.42,0 c 0.3425,-0.7825 0.70875,-1.1975 1.3675,-1.5875 l 0.34375,-0.195 0.36375,-0.1962 0.34375,-0.22 c 0.0962,-0.049 0.19375,-0.1225 0.2925,-0.195 0.46375,-0.4163 0.70875,-0.9525 0.70875,-1.4913 0,-1.1462 -1.05125,-2.075 -2.37,-2.075 -1.22,0 -2.125,0.7075 -2.3675,1.8563 l 1.09875,0.245 c 0.12125,-0.635 0.56125,-0.9775 1.26875,-0.9775 0.68375,0 1.27125,0.415 1.27125,0.9287 0,0.2925 -0.195,0.585 -0.465,0.7563 l -0.34125,0.195 -0.3425,0.1962 -0.36625,0.195 c -0.0975,0.073 -0.195,0.145 -0.3175,0.22 -0.48875,0.3663 -0.9275,0.805 -1.22125,1.3425 -0.39,0.6588 -0.56125,1.3188 -0.585,2.125 l 4.7375,0 z"
       style="fill:#000000;fill-opacity:1;fill-rule:evenodd;stroke:none"
       id="path3228" />
    <path
       inkscape:connector-curvature="0"
       d="m 457.944,-3039.797 c 0,-2.735 -3.2725,-1.88 -3.37125,-3.1737 -0.0488,-0.635 0.5625,-0.83 1.075,-0.8075 0.7825,0.025 1.02625,0.6125 1.02625,0.6125 l 0.97625,-0.2938 c -0.34125,-0.8537 -1,-1.4162 -1.97875,-1.4162 -1.24625,0 -2.1725,0.5125 -2.1725,1.8787 0,1.15 0.92625,1.5638 1.3425,1.735 0.90375,0.3675 1.97875,0.5125 1.97875,1.4413 0,0.585 -0.44,1.0262 -1.075,1.0262 -0.6575,0 -1.195,-0.3674 -1.49,-1.0262 l -1.04875,0.3912 c 0.465,1.05 1.34375,1.7613 2.53875,1.7613 0.5875,0 1.12375,-0.1988 1.515,-0.54 0.43875,-0.3912 0.68375,-0.9537 0.68375,-1.5888 m -5.885,2.0038 0,-6.9613 -1.1,0 0,4.445 -2.53875,-4.445 -1.09875,0 0,6.9613 1.09875,0 0,-4.7138 2.66125,4.7138 0.9775,0 z m -7.35125,-3.4688 c 0,0.5376 -0.1225,1.2225 -0.26875,1.5875 -0.24375,0.6113 -0.56125,0.88 -1.07375,0.88 -0.44,0 -0.7325,-0.1712 -0.95375,-0.5375 -0.26875,-0.4387 -0.41375,-1.1975 -0.41375,-1.93 0,-0.585 0.0962,-1.2212 0.2675,-1.635 0.245,-0.6112 0.58625,-0.8812 1.12375,-0.8562 0.415,0.026 0.68375,0.1712 0.90375,0.5387 0.27,0.4638 0.415,1.1713 0.415,1.9525 m 1.09875,0 c 0,-0.8787 -0.1725,-1.7575 -0.46375,-2.3687 -0.44,-0.855 -1.05,-1.245 -1.93,-1.245 -0.805,0 -1.3675,0.245 -1.7825,0.7812 -0.46375,0.6588 -0.7575,1.685 -0.7575,2.8325 0,0.83 0.19625,1.7588 0.49,2.3438 0.41375,0.8562 1.025,1.25 2.0025,1.25 0.7325,0 1.29375,-0.2475 1.68375,-0.785 0.48875,-0.61 0.7575,-1.7088 0.7575,-2.8088 m -5.93375,1.465 c 0,-2.735 -3.27375,-1.88 -3.37125,-3.1737 -0.0488,-0.635 0.5625,-0.83 1.075,-0.8075 0.78125,0.025 1.025,0.6125 1.025,0.6125 l 0.9775,-0.2938 c -0.34125,-0.8537 -1.00125,-1.4162 -1.9775,-1.4162 -1.24625,0 -2.17375,0.5125 -2.17375,1.8787 0,1.15 0.9275,1.5638 1.3425,1.735 0.90375,0.3675 1.97875,0.5125 1.97875,1.4413 0,0.585 -0.43875,1.0262 -1.075,1.0262 -0.65875,0 -1.19625,-0.3674 -1.49,-1.0262 l -1.04875,0.3912 c 0.46375,1.05 1.3425,1.7613 2.53875,1.7613 0.5875,0 1.12375,-0.1988 1.515,-0.54 0.43875,-0.3912 0.68375,-0.9537 0.68375,-1.5888 m -6.64375,-3.0037 c 0,0.2937 -0.17125,0.5862 -0.43875,0.7337 -0.17125,0.099 -0.29375,0.1213 -0.635,0.1213 l -1.31875,0 0,-1.7088 1.31875,0 c 0.3675,0 0.46375,0.024 0.635,0.1225 0.2675,0.1463 0.43875,0.4388 0.43875,0.7313 m 1.24625,5.0075 -1.22125,-3.2488 c 0.635,-0.2912 1.075,-1.025 1.075,-1.7587 0,-0.7075 -0.44,-1.44 -1.05125,-1.7338 -0.34125,-0.1712 -0.7075,-0.22 -1.245,-0.22 l -2.295,0 0,6.9613 1.09875,0 0,-3.0288 1.31875,0 1.1225,3.0288 1.1975,0 z m -5.88625,0 0,-1.125 -3.2225,0 0,-1.9038 2.02625,0 0,-1.1237 -2.02625,0 0,-1.7088 3.0025,0 0,-1.1 -4.1025,0 0,6.9613 4.3225,0 z m -6.47,-5.0075 c 0,0.2937 -0.17125,0.6112 -0.41625,0.7337 -0.19625,0.099 -0.31625,0.1213 -0.65875,0.1213 l -1.44125,0 0,-1.7088 1.44125,0 c 0.3425,0 0.4625,0.024 0.65875,0.1225 0.245,0.1463 0.41625,0.4388 0.41625,0.7313 m 1.1225,0 c 0,-0.7075 -0.46375,-1.44 -1.07375,-1.7338 -0.34375,-0.1712 -0.70875,-0.22 -1.27125,-0.22 l -2.3925,0 0,6.9613 1.09875,0 0,-3.0288 1.29375,0 c 0.5375,0 0.95375,-0.098 1.27125,-0.245 0.61,-0.2662 1.07375,-1 1.07375,-1.7337"
       style="fill:#000000;fill-opacity:1;fill-rule:evenodd;stroke:none"
       id="path3232" />
    <path
       inkscape:connector-curvature="0"
       d="m 466.52012,-3025.9322 0,-1.1225 -3.22375,0 0,-1.905 2.02875,0 0,-1.1225 -2.02875,0 0,-1.71 3.00375,0 0,-1.0988 -4.10125,0 0,6.9588 4.32125,0 z m -5.3475,0 0,-1.0238 -3.22375,0 0,-5.935 -1.0975,0 0,6.9588 4.32125,0 z m -5.83625,-1.4163 -1.05125,-0.39 c -0.2675,0.5613 -0.61,0.805 -1.07375,0.805 -0.48875,0 -0.80625,-0.17 -1.05,-0.535 -0.26875,-0.4425 -0.44,-1.1975 -0.44,-1.955 0,-0.5875 0.0987,-1.1975 0.26875,-1.6112 0.24375,-0.6113 0.61,-0.8563 1.1725,-0.8563 0.5375,0 0.7575,0.1475 1.1475,0.7325 l 1.02625,-0.4387 c -0.46375,-0.9763 -1.125,-1.4175 -2.17375,-1.4175 -0.7825,0 -1.3675,0.27 -1.78375,0.7825 -0.4875,0.61 -0.78,1.7087 -0.78,2.8087 0,0.8775 0.195,1.7575 0.5125,2.3688 0.43875,0.855 1.1,1.25 2.12375,1.25 1.0025,0 1.685,-0.5163 2.10125,-1.5438 m -6.22875,-5.5425 -1.1225,0 0,6.9588 1.1225,0 0,-6.9588 z m -2.76,6.9588 0,-6.9588 -1.0975,0 0,2.8088 -2.53875,0 0,-2.8088 -1.1,0 0,6.9588 1.1,0 0,-3.0275 2.53875,0 0,3.0275 1.0975,0 z m -5.885,0 0,-1.1225 -3.22375,0 0,-1.905 2.02875,0 0,-1.1225 -2.02875,0 0,-1.71 3.005,0 0,-1.0988 -4.1025,0 0,6.9588 4.32125,0 z m -5.3475,-6.9588 -1.1725,0 -1.46375,4.64 -1.49125,-4.64 -1.1475,0 2.1975,6.9588 0.85625,0 2.22125,-6.9588 z m -10.52625,1.9525 c 0,0.2938 -0.17,0.5863 -0.43875,0.7325 -0.17,0.097 -0.2925,0.1238 -0.635,0.1238 l -1.31875,0 0,-1.71 1.31875,0 c 0.3675,0 0.465,0.024 0.635,0.12 0.26875,0.1475 0.43875,0.4425 0.43875,0.7337 m 1.24625,5.0063 -1.22,-3.2488 c 0.63375,-0.2925 1.07375,-1.025 1.07375,-1.7575 0,-0.7075 -0.44,-1.4412 -1.05,-1.7337 -0.34125,-0.1713 -0.70875,-0.2188 -1.24625,-0.2188 l -2.295,0 0,6.9588 1.09875,0 0,-3.0275 1.31875,0 1.12375,3.0275 1.19625,0 z m -5.88625,0 0,-1.1225 -3.2225,0 0,-1.905 2.02625,0 0,-1.1225 -2.02625,0 0,-1.71 3.0025,0 0,-1.0988 -4.10125,0 0,6.9588 4.32125,0 z m -6.47,-5.0063 c 0,0.2938 -0.17125,0.61 -0.41625,0.7325 -0.195,0.097 -0.3175,0.1238 -0.65875,0.1238 l -1.44125,0 0,-1.71 1.44125,0 c 0.34125,0 0.46375,0.024 0.65875,0.12 0.245,0.1475 0.41625,0.4425 0.41625,0.7337 m 1.1225,0 c 0,-0.7075 -0.46375,-1.4412 -1.075,-1.7337 -0.34125,-0.1713 -0.7075,-0.2188 -1.26875,-0.2188 l -2.39375,0 0,6.9588 1.09875,0 0,-3.0275 1.295,0 c 0.5375,0 0.9525,-0.099 1.26875,-0.245 0.61125,-0.2688 1.075,-1.0013 1.075,-1.7338"
       style="fill:#000000;fill-opacity:1;fill-rule:evenodd;stroke:none"
       id="path3236" />
    <path
       inkscape:connector-curvature="0"
       d="m 438.1615,-3108.8277 6.09375,12.1875 -6.09375,12.1875 -6.09375,-12.1875 6.09375,-12.1875 z m 0,3.8937 4.1475,8.2938 -4.1475,8.295 -4.1475,-8.295 4.1475,-8.2938 z"
       style="fill:#ffffff;fill-opacity:1;fill-rule:evenodd;stroke:none"
       id="path3220" />
  </g>
</svg>
