<?xml version="1.0" encoding="UTF-8" standalone="no"?>
<!-- Created with Inkscape (http://www.inkscape.org/) -->

<svg
   xmlns:dc="http://purl.org/dc/elements/1.1/"
   xmlns:cc="http://creativecommons.org/ns#"
   xmlns:rdf="http://www.w3.org/1999/02/22-rdf-syntax-ns#"
   xmlns:svg="http://www.w3.org/2000/svg"
   xmlns="http://www.w3.org/2000/svg"
   xmlns:sodipodi="http://sodipodi.sourceforge.net/DTD/sodipodi-0.dtd"
   xmlns:inkscape="http://www.inkscape.org/namespaces/inkscape"
   width="49.251999in"
   height="49.251999in"
   viewBox="0 0 1251.0008 1251.0008"
   version="1.1"
   id="svg7045"
   inkscape:version="0.92.2 (5c3e80d, 2017-08-06)"
   sodipodi:docname="88.svg">
  <defs
     id="defs7039" />
  <sodipodi:namedview
     id="base"
     pagecolor="#ffffff"
     bordercolor="#666666"
     borderopacity="1.0"
     inkscape:pageopacity="0.0"
     inkscape:pageshadow="2"
     inkscape:zoom="0.14829203"
     inkscape:cx="1826.9701"
     inkscape:cy="2032.4269"
     inkscape:document-units="in"
     inkscape:current-layer="layer1"
     showgrid="false"
     units="in"
     fit-margin-top="0"
     fit-margin-left="0"
     fit-margin-right="0"
     fit-margin-bottom="0"
     inkscape:window-width="1920"
     inkscape:window-height="1057"
     inkscape:window-x="-8"
     inkscape:window-y="-8"
     inkscape:window-maximized="1" />
  <metadata
     id="metadata7042">
    <rdf:RDF>
      <cc:Work
         rdf:about="">
        <dc:format>image/svg+xml</dc:format>
        <dc:type
           rdf:resource="http://purl.org/dc/dcmitype/StillImage" />
        <dc:title></dc:title>
      </cc:Work>
    </rdf:RDF>
  </metadata>
  <g
     inkscape:label="Layer 1"
     inkscape:groupmode="layer"
     id="layer1"
     transform="translate(-7.6875851e-7,954.00082)">
    <rect
       style="opacity:1;fill:#ffd400;fill-opacity:1;stroke:none;stroke-width:36.29109955;stroke-linejoin:round;stroke-miterlimit:4;stroke-dasharray:none;stroke-opacity:1"
       id="rect2313"
       width="914.40002"
       height="914.40002"
       x="-667.21069"
       y="-1131.7773"
       rx="57.150002"
       ry="57.150002"
       transform="matrix(-0.70710678,-0.70710678,-0.70710678,0.70710678,0,0)" />
    <rect
       ry="41.274998"
       rx="41.274998"
       y="-1115.9022"
       x="-651.33563"
       height="882.64996"
       width="882.64996"
       id="rect2315"
       style="opacity:1;fill:#000000;fill-opacity:1;stroke:none;stroke-width:35.0309906;stroke-linejoin:round;stroke-miterlimit:4;stroke-dasharray:none;stroke-opacity:1"
       transform="matrix(-0.70710678,-0.70710678,-0.70710678,0.70710678,0,0)" />
    <rect
       ry="19.049999"
       rx="19.049999"
       y="-1093.6774"
       x="-629.1106"
       height="838.20001"
       width="838.20001"
       id="rect2317"
       style="opacity:1;fill:#ffd400;fill-opacity:1;stroke:none;stroke-width:33.26684189;stroke-linejoin:round;stroke-miterlimit:4;stroke-dasharray:none;stroke-opacity:1"
       transform="matrix(-0.70710678,-0.70710678,-0.70710678,0.70710678,0,0)" />
    <path
       inkscape:connector-curvature="0"
       d="m 272.05926,-181.37346 v -294.2588 h 52.70522 v 294.2588 z"
       id="path12"
       style="fill:#000000;stroke:none;stroke-width:4.36806583" />
    <path
       inkscape:connector-curvature="0"
       d="m 538.64681,-176.10037 c -77.30166,0 -124.73448,-61.0528 -124.73448,-152.8392 0,-93.10539 47.43282,-151.96079 124.73448,-151.96079 47.43283,0 90.91697,23.7188 113.75321,65.0018 l -46.55934,25.0329 c -8.34723,-12.2961 -12.29606,-16.6908 -20.64345,-21.9589 -11.41812,-9.2204 -30.74234,-15.375 -46.55487,-15.375 -53.58303,0 -71.15132,52.7056 -71.15132,97.941 0,64.12339 26.79365,101.45249 71.15132,101.45249 26.78935,0 41.28265,-9.2204 67.19832,-37.3291 l 46.55934,25.028 c -21.51716,41.28799 -66.32038,65.0068 -113.75321,65.0068 z"
       id="path14"
       style="fill:#000000;stroke:none;stroke-width:4.36806583" />
    <path
       inkscape:connector-curvature="0"
       d="m 865.24833,-301.27167 v 119.89329 H 812.54754 V -301.27167 L 688.69545,-475.63726 h 65.00119 l 85.6447,119.9033 84.76239,-119.9033 h 65.00111 z"
       id="path16"
       style="fill:#000000;stroke:none;stroke-width:4.36806583" />
  </g>
</svg>
