<?xml version="1.0" encoding="utf-8"?>
<!-- Generator: Adobe Illustrator 12.0.1, SVG Export Plug-In  -->
<!DOCTYPE svg PUBLIC "-//W3C//DTD SVG 1.1//EN" "http://www.w3.org/Graphics/SVG/1.1/DTD/svg11.dtd" [
	<!ENTITY ns_flows "http://ns.adobe.com/Flows/1.0/">
	<!ENTITY ns_svg "http://www.w3.org/2000/svg">
	<!ENTITY ns_xlink "http://www.w3.org/1999/xlink">
]>
<svg  version="1.1" xmlns="&ns_svg;" xmlns:xlink="&ns_xlink;" xmlns:a="http://ns.adobe.com/AdobeSVGViewerExtensions/3.0/"
	 width="232" height="288" viewBox="-0.625 0 232 288" enable-background="new -0.625 0 232 288" xml:space="preserve">
<defs>
</defs>
<path fill="#FFFFFF" d="M15.194,0.883h200.359c7.882,0,14.314,6.429,14.314,14.311v257.608c0,7.882-6.433,14.314-14.314,14.314
	H15.194c-7.885,0-14.311-6.433-14.311-14.314V15.194C0.883,7.312,7.309,0.883,15.194,0.883z"/>
<path fill="#231F20" d="M15.194,0C6.815,0,0,6.819,0,15.194v257.608C0,281.181,6.815,288,15.194,288h200.359
	c8.379,0,15.197-6.819,15.197-15.198V15.194C230.751,6.819,223.933,0,215.554,0H15.194z M1.767,272.802V15.194
	c0-7.402,6.022-13.427,13.428-13.427h200.359c7.405,0,13.431,6.025,13.431,13.427v257.608c0,7.406-6.025,13.431-13.431,13.431
	H15.194C7.789,286.232,1.767,280.208,1.767,272.802z"/>
<path fill-rule="evenodd" clip-rule="evenodd" fill="#231F20" d="M15.243,4.858c25.712,0,51.422,0,77.134,0
	c36.763,0,73.524,0,110.291,0c5.618,0,14.452-1.563,19.256,2.216c4.845,3.81,3.969,9.956,3.969,15.398c0,30.413,0,60.822,0,91.235
	c0,40.501,0,61.918,0,102.424c0,14.101,0,28.208,0,42.309c0,3.775,0,7.551,0,11.326c0,1.85,0.145,3.81-0.324,5.61
	c-1.975,7.571-9.042,7.765-15.378,7.765c-13.383,0-26.769,0-40.151,0c-39.747,0-79.491,0-119.235,0c-11.229,0-22.452,0-33.678,0
	c-6.405,0-12.268-3.389-12.268-10.539c0-22.237,0-44.475,0-66.713c0-40.906,0-62.739,0-103.649c0-27.797,0-55.598,0-83.398
	c0-2.029-0.19-4.238,0.324-6.219C6.363,8.075,10.57,4.883,15.243,4.858"/>
<path fill-rule="evenodd" clip-rule="evenodd" fill="#FFFFFF" d="M15.315,10.428c25.782,0,51.563,0,77.341,0
	c36.742,0,73.483,0,110.232,0c3.762,0,7.522,0,11.284,0c1.595,0,3.092,0.014,4.396,1.091c2.871,2.357,1.753,8.089,1.753,11.271
	c0,30.599,0,61.198,0,91.797c0,40.491,0,61.9,0,102.394c0,13.989,0,27.973,0,41.956c0,3.679,0,7.357,0,11.043
	c0,1.332,0.193,2.933-0.207,4.23c-1.373,4.41-6.957,3.368-10.47,3.368c-13.631,0-27.27,0-40.896,0c-39.751,0-79.505,0-119.256,0
	c-10.891,0-21.786,0-32.68,0c-3.399,0-6.391-1.242-6.391-5.17c0-22.803,0-26.517,0-49.313c0-40.997,0-81.989,0-122.982
	c0-27.262,0-54.531,0-81.8C10.421,14.859,10.622,10.363,15.315,10.428"/>
<path fill="#231F20" d="M63.339,79.208L50.725,55.684l-5.195,6.457v17.068h-7.865v-49.72h7.865v19.739l15.658-19.739h10.167
	l-15.36,19.37l16.398,30.351H63.339z"/>
<path fill="#231F20" d="M80.927,79.208v-49.72h29.312v7.868H88.792v12.167h14.471v8.017H88.792v13.655h23.005v8.013H80.927z"/>
<path fill="#231F20" d="M120.185,79.208v-49.72h29.312v7.868h-21.45v12.167h14.473v8.017h-14.473v13.655h23.007v8.013H120.185z"/>
<path fill="#231F20" d="M185.634,55.832c-2.302,1.039-5.27,1.708-9.131,1.708h-9.2v21.668h-7.864v-49.72h17.064
	c4.01,0,6.681,0.373,9.131,1.56c4.307,2.078,7.641,7.347,7.641,12.392C193.274,48.709,189.94,53.903,185.634,55.832z
	 M182.294,38.246c-1.408-0.742-2.299-0.89-4.749-0.89h-10.242v12.167h10.242c2.45,0,3.341-0.148,4.749-0.814
	c1.704-0.89,2.968-3.192,2.968-5.27C185.262,41.362,183.998,39.285,182.294,38.246z"/>
<path fill="#231F20" d="M51.875,156.293l-8.015-21.67h-9.424v21.67h-7.865V106.57H42.97c3.86,0,6.457,0.373,8.905,1.56
	c4.379,2.077,7.495,7.347,7.495,12.392c0,5.27-3.116,10.463-7.718,12.541l8.757,23.23H51.875z M48.388,115.329
	c-1.335-0.742-1.929-0.89-4.527-0.89h-9.424v12.168h9.424c2.45,0,3.266-0.148,4.527-0.814c1.929-1.115,3.116-3.192,3.116-5.27
	S50.317,116.368,48.388,115.329z"/>
<path fill="#231F20" d="M68.795,156.293V106.57h8.013v49.723H68.795z"/>
<path fill="#231F20" d="M105.749,157.183c-7.494,0-11.873-2.822-14.84-9.055c-2.078-4.377-3.265-10.537-3.265-16.621
	c0-8.017,2.226-15.881,5.564-20.26c2.968-3.637,7.125-5.566,12.763-5.566c7.644,0,12.172,3.192,15.51,10.984l-7.495,2.968
	c-2.077-4.304-4.229-5.936-8.015-5.936c-4.006,0-6.677,1.78-8.384,6.16c-1.263,2.968-1.931,7.492-1.931,11.65
	c0,5.266,0.89,10.463,2.45,13.651c1.558,2.749,3.858,4.012,6.826,4.012c5.047,0,8.683-3.193,8.683-7.721v-2.078h-9.054v-7.864
	h16.919v9.942C121.481,150.502,114.877,157.183,105.749,157.183z"/>
<path fill="#231F20" d="M158.289,156.293v-21.67h-18.11v21.67h-7.861V106.57h7.861v20.036h18.11V106.57h7.864v49.723H158.289z"/>
<path fill="#231F20" d="M192.867,113.548v42.745h-7.864v-42.745h-11.354v-6.978h30.723v6.978H192.867z"/>
<path fill="#231F20" d="M50.21,212.978v-28.408h16.75v4.493H54.705v6.957h8.269v4.576h-8.269v7.806h13.146v4.576H50.21z"/>
<path fill="#231F20" d="M84.899,212.978l-4.581-9.456l-4.58,9.456H70.65l7.082-14.674l-6.572-13.734h5.088l4.07,8.482l4.072-8.482
	h5.088l-6.658,13.734l7.167,14.674H84.899z"/>
<path fill="#231F20" d="M104.954,213.488c-4.198,0-6.869-1.608-8.693-5.087c-1.271-2.506-2.077-6.108-2.077-9.67
	c0-4.492,1.187-8.992,3.18-11.491c1.696-2.077,4.072-3.182,7.294-3.182c4.284,0,6.955,1.822,8.863,5.812l-4.198,1.78
	c-1.57-2.415-2.502-3.009-4.666-3.009c-2.29,0-3.817,1.015-4.792,3.52c-0.721,1.691-1.103,4.155-1.103,6.57
	c0,3.093,0.678,6.191,1.781,7.972c1.018,1.484,2.292,2.202,4.284,2.202c1.909,0,3.308-1.015,4.411-3.306l4.282,1.614
	C111.825,211.369,109.026,213.488,104.954,213.488z"/>
<path fill="#231F20" d="M119.708,212.978v-28.408h16.751v4.493h-12.254v6.957h8.271v4.576h-8.271v7.806h13.144v4.576H119.708z"/>
<path fill="#231F20" d="M157.109,199.622c-1.312,0.594-3.01,0.974-5.211,0.974h-5.26v12.382h-4.496v-28.408h9.756
	c2.287,0,3.813,0.207,5.211,0.891c2.464,1.187,4.368,4.196,4.368,7.081C161.478,195.55,159.573,198.518,157.109,199.622z
	 M155.204,189.573c-0.808-0.428-1.314-0.511-2.713-0.511h-5.853v6.957h5.853c1.398,0,1.905-0.09,2.713-0.47
	c0.973-0.511,1.698-1.821,1.698-3.009S156.177,190.167,155.204,189.573z"/>
<path fill="#231F20" d="M174.156,188.552v24.426h-4.493v-24.426h-6.487v-3.982h17.555v3.982H174.156z"/>
<path fill="#231F20" d="M53.56,233.903v24.426h-4.495v-24.426h-6.488v-3.989h17.556v3.989H53.56z"/>
<path fill="#231F20" d="M80.784,255.658c-1.612,2.16-3.901,3.175-6.871,3.175c-3.986,0-6.488-1.608-8.184-5.087
	c-1.187-2.416-1.993-6.19-1.993-9.58c0-4.665,1.187-8.861,3.095-11.581c1.696-2.16,3.986-3.175,7.252-3.175
	c3.604,0,6.106,1.608,7.887,5.087c1.187,2.498,1.908,6.108,1.908,9.669C83.879,248.659,82.776,253.152,80.784,255.658z
	 M77.688,236.195c-0.892-1.484-1.995-2.085-3.69-2.209c-0.084,0-0.169,0-0.254,0c-2.036,0-3.392,1.104-4.326,3.52
	c-0.721,1.698-1.103,4.286-1.103,6.66c0,3.01,0.594,6.102,1.696,7.882c0.89,1.484,2.079,2.209,3.901,2.209
	c2.079,0,3.392-1.104,4.369-3.603c0.594-1.484,1.103-4.286,1.103-6.488C79.384,240.984,78.791,238.1,77.688,236.195z"/>
<path fill="#231F20" d="M114.494,244.967c-1.313,0.594-3.009,0.98-5.214,0.98h-5.259v12.382h-4.495v-28.415h9.754
	c2.29,0,3.815,0.214,5.214,0.891c2.46,1.187,4.369,4.203,4.369,7.081C118.862,240.902,116.954,243.87,114.494,244.967z
	 M112.587,234.918c-0.806-0.421-1.315-0.504-2.714-0.504h-5.853v6.95h5.853c1.399,0,1.908-0.083,2.714-0.462
	c0.975-0.511,1.696-1.829,1.696-3.017S113.562,235.512,112.587,234.918z"/>
<path fill="#231F20" d="M139.813,258.329l-2.803-7.972h-8.861l-2.799,7.972h-4.794l9.798-28.415h4.455l9.793,28.415H139.813z
	 M132.642,237.803l-2.923,7.972h5.684L132.642,237.803z"/>
<path fill="#231F20" d="M163.431,256.631c-1.573,1.401-3.775,2.202-6.19,2.202c-4.88,0-8.441-2.878-10.35-7.206l4.283-1.566
	c1.187,2.671,3.392,4.196,6.066,4.196c2.626,0,4.41-1.822,4.41-4.196c0-3.775-4.41-4.41-8.103-5.895
	c-1.698-0.683-5.47-2.374-5.47-7.081c0-5.556,3.771-7.675,8.865-7.675c3.982,0,6.698,2.285,8.096,5.805l-3.985,1.188
	c0,0-1.019-2.416-4.2-2.499c-0.124,0-0.207,0-0.297,0c-1.946,0-4.068,0.76-4.068,3.01c0,0.082,0,0.214,0,0.296
	c0.383,5.26,13.738,1.781,13.738,12.935C166.227,252.731,165.212,255.023,163.431,256.631z"/>
<path fill="#231F20" d="M185.565,256.631c-1.57,1.401-3.775,2.202-6.191,2.202c-4.88,0-8.44-2.878-10.346-7.206l4.279-1.566
	c1.187,2.671,3.396,4.196,6.066,4.196c2.63,0,4.41-1.822,4.41-4.196c0-3.775-4.41-4.41-8.103-5.895
	c-1.694-0.683-5.466-2.374-5.466-7.081c0-5.556,3.771-7.675,8.861-7.675c3.986,0,6.702,2.285,8.103,5.805l-3.989,1.188
	c0,0-1.018-2.416-4.199-2.499c-0.128,0-0.211,0-0.297,0c-1.95,0-4.068,0.76-4.068,3.01c0,0.082,0,0.214,0,0.296
	c0.379,5.26,13.741,1.781,13.741,12.935C188.367,252.731,187.346,255.023,185.565,256.631z"/>
</svg>
