<?xml version="1.0" encoding="UTF-8" standalone="no"?>
<!-- Created with Inkscape (http://www.inkscape.org/) -->

<svg
   xmlns:dc="http://purl.org/dc/elements/1.1/"
   xmlns:cc="http://creativecommons.org/ns#"
   xmlns:rdf="http://www.w3.org/1999/02/22-rdf-syntax-ns#"
   xmlns:svg="http://www.w3.org/2000/svg"
   xmlns="http://www.w3.org/2000/svg"
   xmlns:sodipodi="http://sodipodi.sourceforge.net/DTD/sodipodi-0.dtd"
   xmlns:inkscape="http://www.inkscape.org/namespaces/inkscape"
   id="svg40979"
   version="1.1"
   inkscape:version="0.48.2 r9819"
   width="1630"
   height="2710"
   xml:space="preserve"
   sodipodi:docname="AJAX1.svg"><metadata
     id="metadata40985"><rdf:RDF><cc:Work
         rdf:about=""><dc:format>image/svg+xml</dc:format><dc:type
           rdf:resource="http://purl.org/dc/dcmitype/StillImage" /><dc:title></dc:title></cc:Work></rdf:RDF></metadata><defs
     id="defs40983"><inkscape:perspective
       sodipodi:type="inkscape:persp3d"
       inkscape:vp_x="0 : 0.5 : 1"
       inkscape:vp_y="0 : 1000 : 0"
       inkscape:vp_z="1 : 0.5 : 1"
       inkscape:persp3d-origin="0.5 : 0.33333333 : 1"
       id="perspective40987" /><clipPath
       clipPathUnits="userSpaceOnUse"
       id="clipPath40997"><path
         d="m -2,710 501,0 0,-711 -501,0 0,711 z"
         id="path40999"
         inkscape:connector-curvature="0" /></clipPath><clipPath
       clipPathUnits="userSpaceOnUse"
       id="clipPath41003"><path
         d="m 0,708.06 498,0 0,-708 -498,0 0,708 z"
         id="path41005"
         inkscape:connector-curvature="0" /></clipPath><clipPath
       clipPathUnits="userSpaceOnUse"
       id="clipPath41119"><path
         d="m 325.02,565.24 60,0 0,-71 -60,0 0,71 z"
         id="path41121"
         inkscape:connector-curvature="0" /></clipPath><clipPath
       clipPathUnits="userSpaceOnUse"
       id="clipPath41125"><path
         d="m 326.67,566.59 56.69,0 0,-73.7 -56.69,0 0,73.7 z"
         clip-rule="evenodd"
         id="path41127"
         inkscape:connector-curvature="0" /></clipPath><clipPath
       clipPathUnits="userSpaceOnUse"
       id="clipPath41131"><path
         d="m -2,710 501,0 0,-711 -501,0 0,711 z"
         id="path41133"
         inkscape:connector-curvature="0" /></clipPath><clipPath
       clipPathUnits="userSpaceOnUse"
       id="clipPath41137"><path
         d="m 0,708.06 498,0 0,-708 -498,0 0,708 z"
         id="path41139"
         inkscape:connector-curvature="0" /></clipPath><clipPath
       clipPathUnits="userSpaceOnUse"
       id="clipPath41173"><path
         d="m -2,710 501,0 0,-711 -501,0 0,711 z"
         id="path41175"
         inkscape:connector-curvature="0" /></clipPath><clipPath
       clipPathUnits="userSpaceOnUse"
       id="clipPath41179"><path
         d="m 0,708.06 498,0 0,-708 -498,0 0,708 z"
         id="path41181"
         inkscape:connector-curvature="0" /></clipPath></defs><sodipodi:namedview
     pagecolor="#ffffff"
     bordercolor="#666666"
     borderopacity="1"
     objecttolerance="10"
     gridtolerance="10"
     guidetolerance="10"
     inkscape:pageopacity="0"
     inkscape:pageshadow="2"
     inkscape:window-width="1280"
     inkscape:window-height="1004"
     id="namedview40981"
     showgrid="false"
     inkscape:zoom="0.24529656"
     inkscape:cx="1239.4031"
     inkscape:cy="1338.67"
     inkscape:window-x="-8"
     inkscape:window-y="-8"
     inkscape:window-maximized="1"
     inkscape:current-layer="g40989"
     fit-margin-top="0"
     fit-margin-left="0"
     fit-margin-right="0"
     fit-margin-bottom="0" /><g
     id="g40989"
     inkscape:groupmode="layer"
     inkscape:label="GG1999P002"
     transform="matrix(1.25,0,0,-1.25,-156.01562,3298.7891)"><path
       inkscape:connector-curvature="0"
       style="fill:#ffffff;fill-rule:nonzero;stroke:#000000;stroke-width:8;stroke-linecap:butt;stroke-linejoin:miter;stroke-miterlimit:4;stroke-opacity:1;stroke-dasharray:none"
       d="m 128.8125,583.03122 c 0,-59.65 48.35,-108 108,-108 l 1080,0 c 59.6475,0 108,48.35 108,108 l 0,1944.00008 c 0,59.6465 -48.3525,108 -108,108 l -1080,0 c -59.65,0 -108,-48.3535 -108,-108 l 0,-1944.00008 z"
       id="path11" /><path
       inkscape:connector-curvature="0"
       style="fill:#000000;fill-rule:nonzero;stroke:none"
       d="m 200.8125,583.03122 c 0,-19.85 16.15,-36 36,-36 l 1080,0 c 19.8506,0 36,16.15 36,36 l 0,1944.00008 c 0,19.8506 -16.1494,36 -36,36 l -1080,0 c -19.85,0 -36,-16.1494 -36,-36 l 0,-1944.00008 z m 36,2025.00008 1080,0 c 44.6641,0 81,-36.3359 81,-81 l 0,-1944.00008 c 0,-44.66 -36.3359,-81 -81,-81 l -1080,0 c -44.66,0 -81,36.34 -81,81 l 0,1944.00008 c 0,44.6641 36.34,81 81,81 z"
       id="path13" /><path
       inkscape:connector-curvature="0"
       style="fill:#000000;fill-rule:nonzero;stroke:none"
       d="m 920.8135,2248.1143 c 0,-205.115 33.285,-402.453 94.745,-586.915 11.857,-35.588 45.664,-61.088 85.255,-61.088 39.591,0 73.398,25.5 85.255,61.088 61.46,184.462 94.745,381.8 94.745,586.915 l -360,0 z"
       id="path15" /><path
       inkscape:connector-curvature="0"
       style="fill:#000000;fill-rule:nonzero;stroke:none"
       d="m 281.4825,1927.5323 279.331,412.311 278.885,-412.311 c 12.353,-18.168 7.613,-43.06 -10.557,-55.414 -12.685,-8.627 -24.879,-6.706 -41.334,-2.119 l -118.994,35.496 0,-215.381 c 0,-93.853 30.29,-184.053 87.595,-260.843 40.868,-54.76 72.641,-115.228 94.436,-179.738 22.54,-66.72 33.968,-136.5301 33.968,-207.5001 l 0,-269.99998 -215.999,0 0,269.99998 c 0,93.8601 -29.57,183.0901 -85.514,258.0601 -41.293,55.328 -73.446,116.068 -95.566,180.518 -23.171,67.52 -34.92,138.01 -34.92,209.503 l 0,215.431 -121.121,-36.393 c -14.95,-3.798 -27.53,-5.286 -39.66,2.966 -18.16,12.354 -22.91,37.246 -10.55,55.414 z"
       id="path17" /></g></svg>