<?xml version="1.0" encoding="UTF-8" standalone="no"?>
<svg
   xmlns:dc="http://purl.org/dc/elements/1.1/"
   xmlns:cc="http://creativecommons.org/ns#"
   xmlns:rdf="http://www.w3.org/1999/02/22-rdf-syntax-ns#"
   xmlns:svg="http://www.w3.org/2000/svg"
   xmlns="http://www.w3.org/2000/svg"
   xmlns:sodipodi="http://sodipodi.sourceforge.net/DTD/sodipodi-0.dtd"
   xmlns:inkscape="http://www.inkscape.org/namespaces/inkscape"
   width="73.833832"
   height="74.380936"
   viewBox="0 0 208.37553 209.91952"
   version="1.1"
   id="svg2"
   inkscape:version="0.48.2 r9819"
   sodipodi:docname="MUTCD W6-3.svg">
  <metadata
     id="metadata62">
    <rdf:RDF>
      <cc:Work
         rdf:about="">
        <dc:format>image/svg+xml</dc:format>
        <dc:type
           rdf:resource="http://purl.org/dc/dcmitype/StillImage" />
        <dc:title></dc:title>
      </cc:Work>
    </rdf:RDF>
  </metadata>
  <defs
     id="defs60" />
  <sodipodi:namedview
     pagecolor="#ffffff"
     bordercolor="#666666"
     borderopacity="1"
     objecttolerance="10"
     gridtolerance="10"
     guidetolerance="10"
     inkscape:pageopacity="0"
     inkscape:pageshadow="2"
     inkscape:window-width="1280"
     inkscape:window-height="1004"
     id="namedview58"
     showgrid="false"
     fit-margin-top="0"
     fit-margin-left="0"
     fit-margin-right="0"
     fit-margin-bottom="0"
     inkscape:zoom="8"
     inkscape:cx="32.511774"
     inkscape:cy="33.026741"
     inkscape:window-x="-8"
     inkscape:window-y="-8"
     inkscape:window-maximized="1"
     inkscape:current-layer="svg2"
     showguides="true"
     inkscape:guide-bbox="true" />
  <!-- draw the bicycle -->
  <!-- RIGHT -->
  <!-- LANE -->
  <!-- ONLY -->
  <path
     d="M 205.06536,96.737335 112.38709,3.3782051 c -4.45912,-4.51203 -11.91331,-4.49792 -16.379479,0.004 L 3.3505109,96.730755 c -4.45912,4.487345 -4.47323,11.990925 -0.007,16.478265 l 92.6712201,93.35561 c 4.444999,4.45911 11.927409,4.48733 16.372419,0 l 92.67827,-93.35914 c 4.80483,-4.82953 4.00403,-11.53584 0,-16.467685"
     style="fill:#fecf33;fill-opacity:1;fill-rule:nonzero;stroke:none"
     id="path3236"
     inkscape:connector-curvature="0" />
  <path
     d="m 202.99808,111.1201 -92.68533,93.35208 c -3.32669,3.34786 -8.89,3.34081 -12.230799,0 L 5.4248409,111.11658 c -3.32317,-3.35845 -3.35139,-8.9394 -0.0106,-12.301375 L 98.088981,5.4490151 c 3.316109,-3.3267 8.914699,-3.33728 12.223749,-0.004 l 92.67828,93.3697099 c 3.31611,3.351395 3.33022,8.960565 0.007,12.304895"
     style="fill:#000000;fill-opacity:1;fill-rule:evenodd;stroke:none"
     id="path3240"
     inkscape:connector-curvature="0" />
  <path
     d="m 199.56203,107.64911 c 1.43227,-1.4605 1.43227,-3.92642 0,-5.39045 L 106.86611,8.9171551 c -1.44639,-1.43933 -3.88408,-1.47461 -5.33047,0.004 L 8.8609009,102.25913 c -1.43228,1.49931 -1.4605,3.8982 0.007,5.39398 l 92.6747291,93.35208 c 1.45345,1.4605 3.85587,1.4605 5.32342,0 l 92.69592,-93.35561"
     style="fill:#fecf33;fill-opacity:1;fill-rule:evenodd;stroke:none"
     id="path3244"
     inkscape:connector-curvature="0" />
  <path
     d="m 150.43418,60.348305 0,-3.64067 -16.0267,0 0,3.64067 5.91961,0 0,22.30614 4.09928,0 0,-22.30614 6.00781,0 z m -19.85081,22.30614 0,-25.94681 -4.09928,0 0,10.47045 -9.46856,0 0,-10.47045 -4.09928,0 0,25.94681 4.09928,0 0,-11.28889 9.46856,0 0,11.28889 4.09928,0 z m -23.30804,-7.73994 0,-5.18937 -8.826499,0 0,4.10281 4.730749,0 0,1.08656 c 0,2.37066 -1.91558,4.01108 -4.554359,4.01108 -1.54869,0 -2.72697,-0.64206 -3.55247,-2.0955 -0.81492,-1.64042 -1.27706,-4.37092 -1.27706,-7.10495 0,-2.18369 0.37395,-4.55436 1.00542,-6.096 0.91017,-2.28247 2.27542,-3.18911 4.37092,-3.18911 2.003779,0 3.100909,0.81844 4.187469,3.09739 l 3.91583,-1.5487 c -1.73213,-4.09927 -4.09575,-5.73969 -8.103299,-5.73969 -2.91395,0 -5.10117,1.00542 -6.64986,2.91394 -1.72156,2.28248 -2.90689,6.3747 -2.90689,10.56217 0,3.19264 0.63147,6.3747 1.72861,8.65364 1.54869,3.27378 3.82411,4.74839 7.73642,4.74839 4.734269,0 8.195019,-3.47486 8.195019,-8.21266 m -23.212779,-18.20687 -4.191,0 0,25.94681 4.191,0 0,-25.94681 z m -13.11275,7.28486 c 0,1.09009 -0.64206,2.18723 -1.64042,2.7305 -0.635,0.36336 -1.09008,0.45509 -2.36361,0.45509 l -4.92125,0 0,-6.3747 4.92125,0 c 1.3582,0 1.72861,0.0917 2.36361,0.45508 0.99836,0.54681 1.64042,1.64042 1.64042,2.73403 m 4.64256,18.66195 -4.55437,-12.10733 c 2.36362,-1.09362 4.01109,-3.82412 4.01109,-6.55462 0,-2.64583 -1.64747,-5.3728 -3.92289,-6.46994 -1.27353,-0.63148 -2.63878,-0.81492 -4.64256,-0.81492 l -8.55839,0 0,25.94681 4.09928,0 0,-11.28889 4.92125,0 4.18042,11.28889 4.46617,0 z"
     style="fill:#000000;fill-opacity:1;fill-rule:evenodd;stroke:none"
     id="path3248"
     inkscape:connector-curvature="0" />
  <path
     d="m 145.91509,121.48506 0,-4.18748 -12.01914,0 0,-7.10494 7.56003,0 0,-4.18748 -7.56003,0 0,-6.374705 11.19717,0 0,-4.09575 -15.29645,0 0,25.950355 16.11842,0 z m -22.21442,0 0,-25.950355 -4.09928,0 0,16.569985 -9.46855,-16.569985 -4.09928,0 0,25.950355 4.09928,0 0,-17.57187 9.92364,17.57187 3.64419,0 z m -29.950839,-11.47234 -5.18936,0 2.63878,-7.28486 2.55058,7.28486 z m 8.371419,11.47234 -8.925279,-25.950355 -4.09222,0 -8.92175,25.950355 4.36739,0 2.55058,-7.28134 8.10331,0 2.54705,7.28134 4.370919,0 z m -23.491479,0 0,-3.82412 -12.01561,0 0,-22.126235 -4.09928,0 0,25.950355 16.11489,0 z"
     style="fill:#000000;fill-opacity:1;fill-rule:evenodd;stroke:none"
     id="path3252"
     inkscape:connector-curvature="0" />
  <path
     d="m 145.82337,152.78667 c 0,-10.19528 -12.20258,-7.01323 -12.55889,-11.8357 -0.18697,-2.36714 2.08845,-3.09386 4.00403,-3.00919 2.91394,0.0952 3.82411,2.27894 3.82411,2.27894 l 3.6442,-1.09008 c -1.27706,-3.18911 -3.74298,-5.28461 -7.38012,-5.28461 -4.64255,0 -8.1033,1.91205 -8.1033,7.01322 0,4.27919 3.46075,5.82436 5.00944,6.46642 3.36903,1.36172 7.37306,1.90853 7.37306,5.36928 0,2.18369 -1.64042,3.82411 -4.00403,3.82411 -2.45886,0 -4.46617,-1.36878 -5.55272,-3.82411 l -3.91584,1.45697 c 1.72509,3.91231 5.00239,6.56872 9.46856,6.56872 2.1837,0 4.18395,-0.74436 5.64445,-2.01789 1.64041,-1.45697 2.54705,-3.55247 2.54705,-5.91608 m -25.67164,-5.55625 c 0,3.46075 -0.81845,6.28297 -2.37067,7.83167 -0.73025,0.72672 -1.5487,0.99836 -2.91395,0.99836 l -4.09927,0 0,-17.66006 4.64961,0 c 1.09008,0 2.00025,0.45508 2.63878,1.09361 1.27705,1.36525 2.0955,4.27919 2.0955,7.73642 m 4.18747,0 c 0,-5.09764 -1.54869,-9.19339 -4.28272,-11.56053 -1.36525,-1.09361 -2.36361,-1.36878 -5.00239,-1.36878 l -8.37848,0 0,25.95034 7.91634,0 1.4605,0 c 1.36525,-0.0917 2.72697,-0.54681 3.73239,-1.45697 2.91747,-2.27542 4.55436,-6.37117 4.55436,-11.56406 m -23.76312,13.02103 0,-25.95034 -4.099269,0 0,16.56998 -9.46856,-16.56998 -4.09928,0 0,25.95034 4.09928,0 0,-17.57187 9.92364,17.57187 3.644189,0 z m -21.946309,0 0,-4.191 -12.01561,0 0,-7.09789 7.55297,0 0,-4.18748 -7.55297,0 0,-6.37469 11.19717,0 0,-4.09928 -15.29645,0 0,25.95034 16.11489,0 z"
     style="fill:#000000;fill-opacity:1;fill-rule:evenodd;stroke:none"
     id="path3256"
     inkscape:connector-curvature="0" />
</svg>
