<?xml version="1.0" encoding="UTF-8" standalone="no"?>
<svg
   xmlns:dc="http://purl.org/dc/elements/1.1/"
   xmlns:cc="http://creativecommons.org/ns#"
   xmlns:rdf="http://www.w3.org/1999/02/22-rdf-syntax-ns#"
   xmlns:svg="http://www.w3.org/2000/svg"
   xmlns="http://www.w3.org/2000/svg"
   version="1.1"
   id="svg869"
   width="2000"
   height="2000"
   viewBox="0 0 2000 2000">
  <metadata
     id="metadata875">
    <rdf:RDF>
      <cc:Work
         rdf:about="">
        <dc:format>image/svg+xml</dc:format>
        <dc:type
           rdf:resource="http://purl.org/dc/dcmitype/StillImage" />
        <dc:title></dc:title>
      </cc:Work>
    </rdf:RDF>
  </metadata>
  <defs
     id="defs873" />
  <path
     style="fill:#fed034;fill-opacity:1;stroke:none;stroke-width:6.80645895"
     id="path927"
     d="M 1946.7503,939.23877 1064.3261,57.235003 C 1045.1008,38.018872 1024.2498,24.3553 998.918,25.023482 975.2886,25.646758 955.49161,38.255941 937.56171,56.180615 L 53.779388,939.53512 C 8.3464744,980.2972 26.516971,1030.3731 42.145329,1047.7942 l 878.119901,877.7356 c 24.78734,24.8027 46.01344,49.4702 80.17807,49.4702 17.009,0 37,-6.5145 62.1498,-31.6753 l 887.1907,-887.6335 c 17.53,-17.5376 24.1548,-30.4337 25.1327,-53.5273 1.0934,-25.8222 -8.5649,-43.31883 -28.1662,-62.92513 z" />
  <path
     d="M 53.249763,939.23877 935.26298,56.920532 c 19.21738,-19.224027 39.40199,-32.565232 64.73382,-31.89705 23.6294,0.623276 44.5116,13.232459 62.4415,31.157133 l 883.7823,883.354505 c 45.433,40.76208 27.2624,90.83798 11.6341,108.25908 l -878.1199,877.7356 c -24.7874,24.8027 -45.5733,49.4702 -79.738,49.4702 -17.0089,0 -37.50885,-6.6551 -62.65866,-31.8159 L 49.314365,1056.318 c -17.529988,-17.5376 -23.252982,-31.0605 -24.23086,-54.1541 -1.093422,-25.8222 8.564971,-43.31883 28.166258,-62.92513 z"
     id="path6"
     style="fill:#fed034;fill-opacity:1;stroke:none;stroke-width:6.80645895" />
  <path
     d="M 76.24172,946.99819 953.1248,68.827547 c 16.10949,-16.116706 27.7987,-22.87015 46.872,-22.87015 17.8898,0 30.056,8.391637 45.6793,24.007523 l 875.9402,875.54267 c 16.3102,16.30235 29.3911,27.51455 31.0923,49.29441 2.1987,28.1521 -13.0232,39.6445 -31.2351,57.8477 l -869.3175,869.5119 c -19.6474,19.6153 -25.3347,30.2352 -52.1592,29.8384 -21.4274,-0.3171 -35.01846,-9.8973 -55.10978,-29.979 L 67.902115,1045.0361 C 49.218099,1026.3609 44.238244,1014.4178 46.747317,993.033 49.333578,970.99041 59.818942,963.41315 76.24172,946.99819"
     id="path10"
     style="clip-rule:evenodd;fill:#000000;fill-rule:evenodd;stroke:none;stroke-width:6.80645895" />
  <path
     d="M 91.69441,971.38121 972.55649,90.51917 C 983.9796,79.08043 989.3855,74.685027 999.9968,74.685027 c 9.4145,0 15.1247,4.923263 24.8654,14.686373 l 876.6575,876.51886 c 13.3266,13.31404 23.3942,21.85914 23.3942,31.03814 0,12.4838 -2.5237,15.7073 -14.1491,27.3273 l -887.8262,887.5149 c -9.7422,9.7375 -14.6014,12.9369 -22.9418,12.9369 -9.6699,0 -15.9384,-5.6317 -24.5952,-14.2924 L 85.33399,1022.2015 c -9.46631,-9.4661 -12.377433,-17.5674 -11.627294,-24.6229 0.966796,-9.0933 9.087924,-17.3018 17.987714,-26.19739"
     id="path12"
     style="clip-rule:evenodd;opacity:1;fill:#ffd033;fill-opacity:1;fill-rule:evenodd;stroke:none;stroke-width:6.80645895" />
  <path
     d="M 1021.4419,1089.694 991.2465,986.4456 c 9.7539,-3.589 17.6923,-10.419 22.6629,-18.96684 5.1478,-8.85261 7.1539,-19.52693 7.1539,-29.12264 0,-25.81673 -10.5581,-43.85001 -28.7232,-52.84077 -8.4557,-4.33942 -22.36015,-6.21439 -34.96708,-6.21439 H 903.58277 V 1089.694 h 29.22126 v -98.3782 h 29.22121 l 28.24726,98.3782 h 31.1694 M 992.0037,934.50884 c 0.2861,12.71639 -4.0429,20.66183 -10.8168,24.30278 -4.5662,2.60709 -8.9051,3.28294 -20.93105,3.28294 h -27.45182 v -52.59827 h 27.45182 c 8.57844,0 15.59455,0.35011 19.61585,3.2655 6.2715,4.38704 11.8813,10.60723 12.132,21.74705 z"
     id="path16"
     style="fill:#000000;stroke:none;stroke-width:5.28894281" />
  <path
     d="M 1019.9942,814.04017 967.86949,603.19815 h -29.2212 l -52.59828,210.84202 h 30.19527 l 13.63663,-58.28232 h 45.77999 l 14.6106,58.28232 h 29.2212 m -50.6171,-87.0799 h -31.71345 l 15.60875,-60.81428 z"
     id="path18"
     style="opacity:1;fill:#000000;stroke:none;stroke-width:5.21723461" />
  <path
     style="fill:#000000;stroke:none;stroke-width:6.39637566"
     d="m 1042.8708,603.6471 h 29.2212 l 58.4426,126.62547 V 603.6471 h 30.1953 v 210.39307 h -22.7724 L 1072.092,673.77812 v 140.26205 h -29.2212 z"
     id="rect24" />
  <path
     style="fill:#000000;stroke:none;stroke-width:5.43901062"
     d="M 754.5543,814.04017 V 603.64712 h 30.19533 v 183.11985 h 76.9493 v 27.2732 H 754.5543"
     id="polyline36" />
  <path
     style="fill:#000000;stroke:none;stroke-width:5.41460466"
     d="M 1196.4975,814.04017 V 603.64712 h 98.6502 v 30.19529 h -68.1829 l -2e-4,53.57231 h 42.8579 l 2e-4,28.24721 h -42.8579 v 70.13104 h 75.7033 v 28.2472 h -106.1706"
     id="polyline38" />
  <path
     style="opacity:1;fill:#000000;stroke:none;stroke-width:5.28894281"
     id="path951"
     d="m 1283.4591,995.6023 c 9.6229,-3.9267 16.5477,-10.8483 21.5184,-19.3961 5.1478,-8.85257 7.9407,-19.31233 7.9407,-28.90802 0,-21.21814 -2.8501,-29.49911 -9.0275,-40.01949 -4.7788,-8.13876 -11.2453,-14.26651 -19.338,-18.27203 -8.4557,-4.33942 -22.3605,-5.71463 -34.9671,-5.80952 h -53.7902 v 209.41896 h 29.2212 v -92.1436 h 29.2212 c 10.972,0 20.1759,-1.1793 29.2213,-4.8702 z m 0.7572,-51.93677 c 0.2861,12.71638 -5.0553,18.23095 -10.9599,23.15822 -5.3531,4.46701 -8.762,4.4275 -20.7879,4.4275 h -27.4519 v -58.83284 h 27.4519 c 8.5784,0 17.8256,1.93199 21.5625,5.20402 5.6697,4.9644 9.9346,14.90327 10.1853,26.0431 z" />
  <path
     id="path972"
     d="m 958.12911,1376.0624 v -210.3931 h 98.65019 v 30.1952 h -68.1829 l -2e-4,53.5724 h 42.8579 l 2e-4,28.2472 h -42.8579 v 70.1311 h 75.7033 v 28.2472 H 958.12911"
     style="fill:#000000;stroke:none;stroke-width:5.41460466" />
  <path
     style="opacity:1;fill:#000000;stroke:none;stroke-width:5.21723461"
     id="path841"
     d="m 1221.6209,1376.0624 -52.1247,-210.8421 -29.2212,10e-5 -52.5982,210.842 h 30.1952 l 13.6367,-58.2824 h 45.7799 l 14.6106,58.2824 h 29.2212 m -50.6171,-87.08 h -31.7134 l 15.6088,-60.8143 z" />
  <path
     d="m 790.12034,1376.0624 -52.12474,-210.842 h -29.2212 l -52.59832,210.842 h 30.19526 l 13.63664,-58.2824 h 45.78001 l 14.61063,58.2824 h 29.2212 m -50.61712,-87.08 h -31.71345 l 15.60875,-60.8143 z"
     id="path843"
     style="opacity:1;fill:#000000;stroke:none;stroke-width:5.21723461" />
  <path
     style="fill:#000000;stroke:none;stroke-width:5.4390111"
     d="m 813.9709,1165.6694 v 210.393 h 30.1953 v -99.3523 h 51.6242 v 99.3523 h 28.24725 v -210.393 H 895.7904 v 83.7676 h -51.6242 v -83.7676 z"
     id="path845" />
  <path
     style="opacity:1;fill:#000000;stroke:none;stroke-width:7.09159994"
     id="path961"
     d="m 842.21804,1081.3669 c 9.62287,-7.0595 16.54773,-19.5034 21.51832,-34.871 5.14783,-15.9155 7.94074,-34.7204 7.94074,-51.972 0,-38.14676 -2.34423,-54.14751 -8.01574,-73.26377 -4.37819,-14.75701 -11.75117,-24.53601 -19.84395,-31.73728 -8.45564,-7.80158 -22.86627,-9.07726 -35.47286,-9.24783 H 754.5543 v 209.84738 h 29.2214 l 29.22107,3e-4 c 10.97206,1e-4 20.17582,-2.1201 29.22127,-8.7558 z m 0.75718,-93.3739 c 0.28609,22.862 -1.64992,46.7081 -6.75784,56.0486 -3.92241,7.1725 -10.24566,16.8147 -24.99001,16.8147 h -27.4518 V 909.49629 h 27.4518 c 14.58754,0 20.54405,10.62704 24.28093,16.50964 5.66967,8.92516 7.21625,41.95945 7.46692,61.98707 z" />
  <path
     d="m 1330.2131,1367.3065 c 9.623,-7.0594 16.5478,-19.5033 21.5183,-34.8709 5.1479,-15.9155 7.9408,-34.7205 7.9408,-51.972 0,-38.1468 -2.3443,-54.1476 -8.0157,-73.2638 -4.3783,-14.757 -11.7512,-24.536 -19.844,-31.7372 -8.4556,-7.8017 -22.8663,-9.0773 -35.4729,-9.2479 h -53.7902 v 209.8474 h 29.2214 l 29.2211,3e-4 c 10.972,10e-5 20.1757,-2.1202 29.2212,-8.7559 z m 0.7572,-93.3738 c 0.2861,22.862 -1.6499,46.708 -6.7578,56.0486 -3.9225,7.1725 -10.2457,16.8147 -24.9901,16.8147 h -27.4518 v -151.3601 h 27.4518 c 14.5876,0 20.5442,10.6271 24.2809,16.5097 5.6698,8.9251 7.2163,41.9595 7.467,61.9871 z"
     id="path963"
     style="opacity:1;fill:#000000;stroke:none;stroke-width:7.09159994" />
  <path
     id="path984"
     d="m 1103.2386,879.04606 c -17.9174,0.26497 -28.3998,6.35728 -37.6471,16.82124 -17.0794,19.3267 -23.5969,53.46774 -23.4493,92.7147 0.1702,45.2624 8.8338,83.7729 32.5753,100.2979 7.9905,5.5618 17.6893,7.7752 29.3467,7.7752 10.4622,0 19.4453,-2.0111 27.0545,-7.2121 24.0088,-16.4109 34.3331,-56.0337 34.2437,-101.972 -0.2013,-36.10059 -6.1958,-68.28997 -20.9859,-88.37148 -9.3865,-12.74516 -21.4705,-20.05346 -41.1379,-20.05346 z m 0.3083,29.09385 c 5.5413,0 9.8175,1.09249 13.7993,4.26116 2.8246,2.24769 5.7144,5.75329 7.8509,9.70306 8.1121,14.99665 11.3102,38.32743 11.4206,65.28697 0.05,34.3063 -4.6843,63.3243 -17.8528,75.5799 -4.1734,3.8842 -9.0288,4.744 -14.7672,4.744 -6.394,0 -13.0374,-1.4851 -17.0539,-5.9737 -3.1424,-3.5116 -7.0595,-9.688 -9.7569,-18.0692 -4.5576,-14.1607 -7.0928,-34.2174 -7.1514,-55.4515 -0.049,-17.75115 1.8226,-33.42845 4.9885,-46.47843 2.0614,-8.4971 4.3802,-16.05517 8.0743,-21.74682 5.072,-7.81438 11.428,-11.67379 20.4486,-11.85544 z"
     style="opacity:1;fill:#000000;fill-opacity:1;stroke:none;stroke-width:1.20003045;stroke-linecap:butt;stroke-linejoin:round;stroke-miterlimit:4;stroke-dasharray:none;stroke-opacity:1" />
</svg>
