<?xml version="1.0" encoding="UTF-8" standalone="no"?>
<!-- Created with Inkscape (http://www.inkscape.org/) -->

<svg
   xmlns:dc="http://purl.org/dc/elements/1.1/"
   xmlns:cc="http://creativecommons.org/ns#"
   xmlns:rdf="http://www.w3.org/1999/02/22-rdf-syntax-ns#"
   xmlns:svg="http://www.w3.org/2000/svg"
   xmlns="http://www.w3.org/2000/svg"
   xmlns:sodipodi="http://sodipodi.sourceforge.net/DTD/sodipodi-0.dtd"
   xmlns:inkscape="http://www.inkscape.org/namespaces/inkscape"
   width="49.251999in"
   height="49.251999in"
   viewBox="0 0 1251.0008 1251.0008"
   version="1.1"
   id="svg7045"
   inkscape:version="0.92.2 (5c3e80d, 2017-08-06)"
   sodipodi:docname="88.svg">
  <defs
     id="defs7039" />
  <sodipodi:namedview
     id="base"
     pagecolor="#ffffff"
     bordercolor="#666666"
     borderopacity="1.0"
     inkscape:pageopacity="0.0"
     inkscape:pageshadow="2"
     inkscape:zoom="0.14829203"
     inkscape:cx="1826.9701"
     inkscape:cy="2019.7698"
     inkscape:document-units="in"
     inkscape:current-layer="layer1"
     showgrid="false"
     units="in"
     fit-margin-top="0"
     fit-margin-left="0"
     fit-margin-right="0"
     fit-margin-bottom="0"
     inkscape:window-width="1920"
     inkscape:window-height="1057"
     inkscape:window-x="-8"
     inkscape:window-y="-8"
     inkscape:window-maximized="1" />
  <metadata
     id="metadata7042">
    <rdf:RDF>
      <cc:Work
         rdf:about="">
        <dc:format>image/svg+xml</dc:format>
        <dc:type
           rdf:resource="http://purl.org/dc/dcmitype/StillImage" />
        <dc:title></dc:title>
      </cc:Work>
    </rdf:RDF>
  </metadata>
  <g
     inkscape:label="Layer 1"
     inkscape:groupmode="layer"
     id="layer1"
     transform="translate(-7.6875851e-7,954.00082)">
    <rect
       style="opacity:1;fill:#ffd400;fill-opacity:1;stroke:none;stroke-width:36.29109955;stroke-linejoin:round;stroke-miterlimit:4;stroke-dasharray:none;stroke-opacity:1"
       id="rect2313"
       width="914.40002"
       height="914.40002"
       x="-667.21075"
       y="-1131.7772"
       rx="57.150002"
       ry="57.150002"
       transform="matrix(-0.70710678,-0.70710678,-0.70710678,0.70710678,0,0)" />
    <rect
       ry="41.274998"
       rx="41.274998"
       y="-1115.9021"
       x="-651.33569"
       height="882.64996"
       width="882.64996"
       id="rect2315"
       style="opacity:1;fill:#000000;fill-opacity:1;stroke:none;stroke-width:35.0309906;stroke-linejoin:round;stroke-miterlimit:4;stroke-dasharray:none;stroke-opacity:1"
       transform="matrix(-0.70710678,-0.70710678,-0.70710678,0.70710678,0,0)" />
    <rect
       ry="19.049999"
       rx="19.049999"
       y="-1093.6772"
       x="-629.11066"
       height="838.20001"
       width="838.20001"
       id="rect2317"
       style="opacity:1;fill:#ffd400;fill-opacity:1;stroke:none;stroke-width:33.26684189;stroke-linejoin:round;stroke-miterlimit:4;stroke-dasharray:none;stroke-opacity:1"
       transform="matrix(-0.70710678,-0.70710678,-0.70710678,0.70710678,0,0)" />
    <path
       style="fill:#000000;fill-opacity:1;fill-rule:evenodd;stroke:none;stroke-width:17.4043541"
       d="m 947.16014,-531.20587 c 12.427,0 22.504,10.0945 22.50389,22.5391 l 8.70199,136.6899 -55.70138,28.3768 h -22.5961 l -8.6704,15.7644 H 359.60571 l -8.6705,-15.7644 h -22.5961 l -55.7014,-28.3768 8.7021,-136.6899 c -10e-5,-12.4444 10.077,-22.5395 22.504,-22.539 h 266.58806 v -15.5961 h 110.14008 l 3e-5,15.5962 z"
       id="path834"
       inkscape:connector-curvature="0"
       sodipodi:nodetypes="sccccccccccsccccs" />
    <path
       d="m 246.36181,-359.36458 78.8281,1.1e-4 v 11.8243 h -78.8281 z"
       style="fill:#000000;fill-opacity:1;fill-rule:evenodd;stroke:none;stroke-width:1.68551397;stroke-linecap:butt;stroke-linejoin:miter;stroke-miterlimit:3.86400008;stroke-dasharray:none;stroke-opacity:1"
       id="path836"
       inkscape:connector-curvature="0" />
    <path
       d="m 244.50061,-365.27648 h 15.7657 v 23.6483 l -15.7656,2.1e-4 z"
       style="fill:#000000;fill-opacity:1;fill-rule:evenodd;stroke:none;stroke-width:1.68478107;stroke-linecap:butt;stroke-linejoin:miter;stroke-miterlimit:3.86400008;stroke-dasharray:none;stroke-opacity:1"
       id="path838"
       inkscape:connector-curvature="0" />
    <path
       d="m 304.73331,-507.38807 h 23.9741 c 4.1247,0 7.4661,3.344 7.466,7.4836 l -10e-5,55.1025 c 0,4.1394 -3.3439,7.4833 -7.466,7.4833 l -27.4389,2e-4 c -4.1247,0 -7.5006,-3.3441 -7.5007,-7.4833 l 3.5159,-55.1025 c -1e-4,-4.1394 3.3094,-7.4833 7.4484,-7.4833"
       style="fill:#ffd400;fill-opacity:1;fill-rule:evenodd;stroke:none;stroke-width:17.32248878"
       id="path840"
       inkscape:connector-curvature="0" />
    <circle
       style="opacity:1;fill:#000000;fill-opacity:1;fill-rule:nonzero;stroke:none;stroke-width:20.40653801;stroke-linejoin:round;stroke-miterlimit:4;stroke-dasharray:none;stroke-opacity:1"
       id="circle842"
       cx="408.74802"
       cy="-321.66104"
       r="23.648447" />
    <circle
       r="23.648447"
       cy="-321.66104"
       cx="474.43796"
       id="circle844"
       style="opacity:1;fill:#000000;fill-opacity:1;fill-rule:nonzero;stroke:none;stroke-width:20.40653801;stroke-linejoin:round;stroke-miterlimit:4;stroke-dasharray:none;stroke-opacity:1" />
    <circle
       r="23.648447"
       cy="-321.66104"
       cx="842.30237"
       id="circle846"
       style="opacity:1;fill:#000000;fill-opacity:1;fill-rule:nonzero;stroke:none;stroke-width:20.40653801;stroke-linejoin:round;stroke-miterlimit:4;stroke-dasharray:none;stroke-opacity:1" />
    <circle
       style="opacity:1;fill:#000000;fill-opacity:1;fill-rule:nonzero;stroke:none;stroke-width:20.40653801;stroke-linejoin:round;stroke-miterlimit:4;stroke-dasharray:none;stroke-opacity:1"
       id="circle848"
       cx="776.6123"
       cy="-321.66104"
       r="23.648447" />
    <path
       inkscape:connector-curvature="0"
       id="path850"
       style="fill:#000000;fill-opacity:1;fill-rule:evenodd;stroke:none;stroke-width:1.68551397;stroke-linecap:butt;stroke-linejoin:miter;stroke-miterlimit:3.86400008;stroke-dasharray:none;stroke-opacity:1"
       d="m 1004.6422,-359.36458 -78.82817,1.1e-4 1.1e-4,11.8243 h 78.82806 z" />
    <path
       inkscape:connector-curvature="0"
       id="path852"
       style="fill:#000000;fill-opacity:1;fill-rule:evenodd;stroke:none;stroke-width:1.68478107;stroke-linecap:butt;stroke-linejoin:miter;stroke-miterlimit:3.86400008;stroke-dasharray:none;stroke-opacity:1"
       d="m 1006.5033,-365.27648 -15.76558,-8e-5 -7e-5,23.64859 15.76565,-2.1e-4 z" />
    <rect
       ry="7.4448543"
       rx="7.4448543"
       y="-505.19864"
       x="360.22433"
       height="148.89708"
       width="81.893394"
       id="rect854"
       style="opacity:1;fill:#ffd400;fill-opacity:1;fill-rule:nonzero;stroke:none;stroke-width:29.23892975;stroke-linejoin:round;stroke-miterlimit:4;stroke-dasharray:none;stroke-opacity:1" />
    <rect
       style="opacity:1;fill:#ffd400;fill-opacity:1;fill-rule:nonzero;stroke:none;stroke-width:29.23892975;stroke-linejoin:round;stroke-miterlimit:4;stroke-dasharray:none;stroke-opacity:1"
       id="rect856"
       width="81.893394"
       height="148.89708"
       x="808.8866"
       y="-505.19864"
       rx="7.4448543"
       ry="7.4448543" />
    <rect
       ry="7.4448543"
       rx="7.4448543"
       y="-507.38809"
       x="578.42438"
       height="70.069221"
       width="94.15551"
       id="rect858"
       style="opacity:1;fill:#ffd400;fill-opacity:1;fill-rule:nonzero;stroke:none;stroke-width:16.0527401;stroke-linejoin:round;stroke-miterlimit:4;stroke-dasharray:none;stroke-opacity:1" />
    <rect
       style="opacity:1;fill:#ffd400;fill-opacity:1;fill-rule:nonzero;stroke:none;stroke-width:16.0527401;stroke-linejoin:round;stroke-miterlimit:4;stroke-dasharray:none;stroke-opacity:1"
       id="rect860"
       width="94.15551"
       height="70.069221"
       x="468.94125"
       y="-507.38809"
       rx="7.4448543"
       ry="7.4448543" />
    <rect
       ry="7.4448543"
       rx="7.4448543"
       y="-507.38809"
       x="687.90747"
       height="70.069221"
       width="94.15551"
       id="rect862"
       style="opacity:1;fill:#ffd400;fill-opacity:1;fill-rule:nonzero;stroke:none;stroke-width:16.0527401;stroke-linejoin:round;stroke-miterlimit:4;stroke-dasharray:none;stroke-opacity:1" />
    <path
       inkscape:connector-curvature="0"
       id="path864"
       style="fill:#ffd400;fill-opacity:1;fill-rule:evenodd;stroke:none;stroke-width:17.32248878"
       d="m 946.27063,-507.38807 h -23.9741 c -4.12459,0 -7.4661,3.344 -7.4661,7.4835 v 55.1024 c 0,4.1394 3.34391,7.4832 7.46591,7.4834 l 27.43899,-1e-4 c 4.12461,1e-4 7.5004,-3.3438 7.5004,-7.4832 l -3.51581,-55.1024 c -8e-5,-4.1394 -3.30948,-7.4835 -7.44839,-7.4836" />
    <path
       sodipodi:nodetypes="ccccccc"
       inkscape:connector-curvature="0"
       id="path866"
       style="fill:#000000;stroke:none;stroke-width:0.43517289;stroke-linecap:butt;stroke-linejoin:miter;stroke-miterlimit:3.86400008;stroke-dasharray:none;stroke-opacity:1"
       d="m 620.17761,-669.16287 66.57797,66.578 -66.57794,66.578 -8.361,-8.361 58.21707,-58.2169 -58.21712,-58.2171 z" />
    <path
       inkscape:connector-curvature="0"
       d="m 379.22232,-31.970474 v -73.579906 h 11.6434 v 62.707196 h 34.0372 v 10.87271 z"
       id="path28"
       style="fill:#000000;stroke:none;stroke-width:4.69676065" />
    <path
       inkscape:connector-curvature="0"
       d="m 478.36612,-38.893484 c -4.1707,5.5988 -10.1025,8.2332 -17.7864,8.2332 -10.3188,0 -16.8005,-4.16991 -21.1967,-13.17879 -3.0715,-6.25551 -5.1569,-16.03502 -5.1569,-24.8131 0,-12.07992 3.0716,-22.94911 8.0173,-29.9788 4.3962,-5.595216 10.3187,-8.229596 18.7777,-8.229596 9.3277,0 15.8094,4.17169 20.4216,13.175186 3.0715,6.481 4.9455,15.80949 4.9455,25.03321 0,11.63789 -2.8649,23.27749 -8.0221,29.75869 z m -8.0173,-50.4055 c -2.3013,-3.8326 -5.1617,-5.3734 -9.5437,-5.70709 -0.2254,0 -0.4421,0 -0.6675,0 -5.2697,0 -8.7829,2.8561 -11.2018,9.11188 -1.8599,4.40052 -2.8462,11.08932 -2.8462,17.24202 0,7.78748 1.5355,15.80431 4.3868,20.42128 2.3108,3.84691 5.3824,5.71601 10.1026,5.71601 5.3825,0 8.7784,-2.85599 11.3052,-9.3373 1.5355,-3.83249 2.8557,-11.0893 2.8557,-16.79459 0,-8.2386 -1.532,-15.71191 -4.3916,-20.65221 z"
       id="path30"
       style="fill:#000000;stroke:none;stroke-width:4.69676065" />
    <path
       inkscape:connector-curvature="0"
       d="m 545.23872,-38.893484 c -4.17081,5.5988 -10.1028,8.2332 -17.78651,8.2332 -10.3142,0 -16.79569,-4.16991 -21.19179,-13.17879 -3.0718,-6.25551 -5.1618,-16.03502 -5.1618,-24.8131 0,-12.07992 3.0763,-22.94911 8.0221,-29.9788 4.3961,-5.595216 10.31401,-8.229596 18.7775,-8.229596 9.32781,0 15.80941,4.17169 20.4216,13.175186 3.07171,6.481 4.94096,15.80949 4.94096,25.03321 -0.005,11.63789 -2.86507,23.27749 -8.02206,29.75869 z m -8.0173,-50.4055 c -2.29671,-3.8326 -5.15699,-5.3734 -9.54381,-5.70709 -0.2254,0 -0.44199,0 -0.66749,0 -5.2651,0 -8.77829,2.8561 -11.19711,9.11188 -1.86,4.40052 -2.84629,11.08932 -2.84629,17.24202 0,7.78748 1.54089,15.80431 4.3868,20.42128 2.31089,3.84691 5.38239,5.71601 10.10269,5.71601 5.3825,0 8.783,-2.85599 11.30511,-9.3373 1.53549,-3.83249 2.86031,-11.0893 2.86031,-16.79459 0,-8.2386 -1.5408,-15.71191 -4.40082,-20.65221 z"
       id="path32"
       style="fill:#000000;stroke:none;stroke-width:4.69676065" />
    <path
       inkscape:connector-curvature="0"
       d="m 607.48499,-31.970474 -18.66966,-34.81242 -7.68392,9.55392 v 25.2585 h -11.6386 v -73.579906 h 11.6386 v 29.213496 l 23.17374,-29.213496 h 15.03431 l -22.71823,28.668686 24.25409,44.91662 h -13.39033 z"
       id="path34"
       style="fill:#000000;stroke:none;stroke-width:4.69676065" />
    <path
       inkscape:connector-curvature="0"
       d="m 695.98116,-33.731384 c -2.63483,0.9765 -7.01681,1.75739 -10.31875,1.75739 h -27.88928 v -73.580196 h 27.88928 c 11.64343,0 20.42154,8.018516 20.42154,18.562906 0,7.24079 -3.39571,12.6248 -10.31401,16.5835 7.6839,3.62122 12.08011,9.7687 12.08011,17.78701 0,8.00251 -4.95041,16.02078 -11.86889,18.8858 z m -9.54374,-60.17929 h -17.02107 v 18.01059 h 13.94937 c 3.28774,0 4.82362,-0.44379 6.91366,-1.97581 2.63486,-2.08219 4.17074,-5.1621 4.17074,-8.56339 -0.005,-4.9456 -2.8557,-7.47139 -8.0127,-7.47139 z m 2.52693,30.41539 c -1.53551,-0.55049 -2.31089,-0.55049 -4.83764,-0.55049 h -14.71036 v 20.2067 h 17.57067 c 5.92261,0 8.99414,-2.85631 8.99414,-8.56702 0,-4.82828 -2.85086,-9.55908 -7.01681,-11.09459 z"
       id="path36"
       style="fill:#000000;stroke:none;stroke-width:4.69676065" />
    <path
       inkscape:connector-curvature="0"
       d="m 762.84893,-38.893484 c -4.17071,5.5988 -10.10269,8.2332 -17.78659,8.2332 -10.3142,0 -16.79569,-4.16991 -21.1964,-13.17879 -3.07182,-6.25551 -5.15721,-16.03502 -5.15721,-24.8131 0,-12.07992 3.07171,-22.94911 8.01751,-29.9788 4.39611,-5.595216 10.31399,-8.229596 18.7729,-8.229596 9.32778,0 15.8092,4.17169 20.42139,13.175186 3.07171,6.481 4.9458,15.80949 4.9458,25.03321 0,11.63789 -2.8557,23.27749 -8.0174,29.75869 z m -8.0174,-50.4055 c -2.29669,-3.8326 -5.1616,-5.3734 -9.54379,-5.70709 -0.2254,0 -0.44201,0 -0.66752,0 -5.26507,0 -8.77829,2.8561 -11.20169,9.11188 -1.85999,4.40052 -2.84149,11.08932 -2.84149,17.24202 0,7.78748 1.53548,15.80431 4.38679,20.42128 2.30611,3.84691 5.38239,5.71601 10.0979,5.71601 5.3825,0 8.7783,-2.85599 11.30509,-9.3373 1.53551,-3.83249 2.8557,-11.0893 2.8557,-16.79459 0,-8.2386 -1.53019,-15.71191 -4.39158,-20.65221 z"
       id="path38"
       style="fill:#000000;stroke:none;stroke-width:4.69676065" />
    <path
       inkscape:connector-curvature="0"
       d="m 809.06034,-95.222684 v 63.25221 h -11.62931 v -63.25221 h -16.79559 v -10.327696 h 45.4507 v 10.327696 z"
       id="path40"
       style="fill:#000000;stroke:none;stroke-width:4.69676065" />
    <path
       inkscape:connector-curvature="0"
       d="m 875.38323,-31.970474 v -32.0699 h -26.7902 v 32.0699 h -11.64331 v -73.579906 h 11.64331 v 29.650296 h 26.7902 v -29.650296 h 11.64349 v 73.579906 z"
       id="path42"
       style="fill:#000000;stroke:none;stroke-width:4.69676065" />
    <path
       inkscape:connector-curvature="0"
       d="m 550.72348,89.939026 h -10.32896 l -11.63921,-47.21892 -11.30591,47.21892 h -10.31949 l -10.8646,-73.56941 h 11.8555 l 5.707,38.7685 9.32839,-38.7685 h 11.32012 l 9.55378,38.7685 5.70704,-38.7685 h 11.85071 z"
       id="path44"
       style="fill:#000000;stroke:none;stroke-width:4.69709587" />
    <path
       inkscape:connector-curvature="0"
       d="m 615.83476,89.939026 -7.25701,-20.6484 h -22.9453 l -7.243,20.6484 h -12.40512 l 25.3551,-73.56941 h 11.53594 l 25.36433,73.56941 z m -18.56306,-53.1521 -7.57637,20.6484 h 14.71602 z"
       id="path46"
       style="fill:#000000;stroke:none;stroke-width:4.69709587" />
    <path
       inkscape:connector-curvature="0"
       d="m 671.61263,57.872026 v 32.06329 h -11.63925 v -32.06329 l -25.80585,-41.50781 h 13.95034 l 17.56249,28.44189 17.78778,-28.44189 h 13.72499 z"
       id="path48"
       style="fill:#000000;stroke:none;stroke-width:4.69709587" />
    <path
       inkscape:connector-curvature="0"
       d="m 747.47545,85.543416 c -4.06292,3.62149 -9.76993,5.7163 -16.02171,5.7163 -12.6306,0 -21.85109,-7.4685 -26.7969,-18.67059 l 11.0897,-4.0636 c 3.07189,6.9147 8.78361,10.86459 15.7072,10.86459 6.80119,0 11.4138,-4.71509 11.4138,-10.86459 0,-9.7659 -11.4138,-11.4132 -20.96791,-15.26032 -4.4011,-1.7576 -14.171,-6.16368 -14.171,-18.3333 0,-14.3923 9.7699,-19.87248 22.95001,-19.87248 10.32888,0 17.3464,5.9364 20.9818,15.0349 l -10.32891,3.07109 c 0,0 -2.63509,-6.2507 -10.8644,-6.48149 -0.33369,0 -0.54499,0 -0.77578,0 -5.04921,0 -10.53082,1.9777 -10.53082,7.806 0,0.23058 0,0.5503 0,0.76319 0.99071,13.6076 35.5758,4.59999 35.5758,33.48191 0,6.69808 -2.6539,12.6257 -7.2616,16.8012 z"
       id="path50"
       style="fill:#000000;stroke:none;stroke-width:4.69709587" />
    <path
       style="color:#000000;font-style:normal;font-variant:normal;font-weight:normal;font-stretch:normal;font-size:medium;line-height:normal;font-family:sans-serif;font-variant-ligatures:normal;font-variant-position:normal;font-variant-caps:normal;font-variant-numeric:normal;font-variant-alternates:normal;font-feature-settings:normal;text-indent:0;text-align:start;text-decoration:none;text-decoration-line:none;text-decoration-style:solid;text-decoration-color:#000000;letter-spacing:normal;word-spacing:normal;text-transform:none;writing-mode:lr-tb;direction:ltr;text-orientation:mixed;dominant-baseline:auto;baseline-shift:baseline;text-anchor:start;white-space:normal;shape-padding:0;clip-rule:nonzero;display:inline;overflow:visible;visibility:visible;opacity:1;isolation:auto;mix-blend-mode:normal;color-interpolation:sRGB;color-interpolation-filters:linearRGB;solid-color:#000000;solid-opacity:1;vector-effect:none;fill:#000000;fill-opacity:1;fill-rule:nonzero;stroke:none;stroke-width:14.10595894;stroke-linecap:butt;stroke-linejoin:round;stroke-miterlimit:4;stroke-dasharray:none;stroke-dashoffset:0;stroke-opacity:1;color-rendering:auto;image-rendering:auto;shape-rendering:auto;text-rendering:auto;enable-background:accumulate"
       d="m 307.34033,-200.84009 94.9096,62.32792 c 5.3567,3.49909 12.2306,-1.3685 10.7087,-7.58319 l -6.8406,-31.88481 h 460.02219 v -45.71992 H 406.11803 l 6.8406,-31.88478 c 1.5219,-6.21471 -5.3519,-11.08231 -10.7087,-7.58319 z"
       id="path825"
       inkscape:connector-curvature="0"
       sodipodi:nodetypes="cccccccccc" />
    <path
       sodipodi:nodetypes="cccccccccc"
       inkscape:connector-curvature="0"
       id="path4737"
       d="m 943.65602,-200.84009 -94.90958,62.32792 c -5.35671,3.49909 -12.23061,-1.3685 -10.7087,-7.58319 l 6.84059,-31.88481 H 384.85612 v -45.71992 h 460.02221 l -6.84059,-31.88478 c -1.52191,-6.21471 5.35189,-11.08231 10.7087,-7.58319 z"
       style="color:#000000;font-style:normal;font-variant:normal;font-weight:normal;font-stretch:normal;font-size:medium;line-height:normal;font-family:sans-serif;font-variant-ligatures:normal;font-variant-position:normal;font-variant-caps:normal;font-variant-numeric:normal;font-variant-alternates:normal;font-feature-settings:normal;text-indent:0;text-align:start;text-decoration:none;text-decoration-line:none;text-decoration-style:solid;text-decoration-color:#000000;letter-spacing:normal;word-spacing:normal;text-transform:none;writing-mode:lr-tb;direction:ltr;text-orientation:mixed;dominant-baseline:auto;baseline-shift:baseline;text-anchor:start;white-space:normal;shape-padding:0;clip-rule:nonzero;display:inline;overflow:visible;visibility:visible;opacity:1;isolation:auto;mix-blend-mode:normal;color-interpolation:sRGB;color-interpolation-filters:linearRGB;solid-color:#000000;solid-opacity:1;vector-effect:none;fill:#000000;fill-opacity:1;fill-rule:nonzero;stroke:none;stroke-width:14.10595894;stroke-linecap:butt;stroke-linejoin:round;stroke-miterlimit:4;stroke-dasharray:none;stroke-dashoffset:0;stroke-opacity:1;color-rendering:auto;image-rendering:auto;shape-rendering:auto;text-rendering:auto;enable-background:accumulate" />
  </g>
</svg>
