<?xml version="1.0" encoding="UTF-8" standalone="no"?>
<!-- Generator: Adobe Illustrator 12.0.1, SVG Export Plug-In  -->

<svg
   xmlns:dc="http://purl.org/dc/elements/1.1/"
   xmlns:cc="http://creativecommons.org/ns#"
   xmlns:rdf="http://www.w3.org/1999/02/22-rdf-syntax-ns#"
   xmlns:svg="http://www.w3.org/2000/svg"
   xmlns="http://www.w3.org/2000/svg"
   xmlns:sodipodi="http://sodipodi.sourceforge.net/DTD/sodipodi-0.dtd"
   xmlns:inkscape="http://www.inkscape.org/namespaces/inkscape"
   version="1.1"
   width="286.00601"
   height="286.01599"
   viewBox="-1 0 286.00601 286.01599"
   enable-background="new -1 0 289 288"
   xml:space="preserve"
   id="svg2"
   inkscape:version="0.48.2 r9819"
   sodipodi:docname="AJAX1.svg"><metadata
   id="metadata38"><rdf:RDF><cc:Work
       rdf:about=""><dc:format>image/svg+xml</dc:format><dc:type
         rdf:resource="http://purl.org/dc/dcmitype/StillImage" /></cc:Work></rdf:RDF></metadata><sodipodi:namedview
   pagecolor="#ffffff"
   bordercolor="#666666"
   borderopacity="1"
   objecttolerance="10"
   gridtolerance="10"
   guidetolerance="10"
   inkscape:pageopacity="0"
   inkscape:pageshadow="2"
   inkscape:window-width="1280"
   inkscape:window-height="1004"
   id="namedview36"
   showgrid="false"
   fit-margin-top="0"
   fit-margin-left="0"
   fit-margin-right="0"
   fit-margin-bottom="0"
   inkscape:zoom="2.3177389"
   inkscape:cx="107.24757"
   inkscape:cy="164.83266"
   inkscape:window-x="-8"
   inkscape:window-y="-8"
   inkscape:window-maximized="1"
   inkscape:current-layer="svg2" />
<defs
   id="defs4">
</defs>
<path
   d="M 3.0934996,133.0875 132.0815,4.0935 c 5.458,-5.458 14.389,-5.458 19.843,0 l 128.991,128.994 c 5.454,5.454 5.454,14.382 0,19.844 l -128.991,128.988 c -5.454,5.462 -14.385,5.462 -19.843,0 L 3.0934996,152.9315 c -5.458,-5.462 -5.458,-14.39 0,-19.844 z"
   id="path6"
   style="fill:#ffd033;fill-opacity:1;stroke:none"
   inkscape:connector-curvature="0" />

<path
   clip-rule="evenodd"
   d="M 6.2054996,135.1355 134.1335,7.2015 c 4.329,-4.327 11.413,-4.327 15.742,0 l 127.929,127.934 c 4.329,4.328 4.329,11.411 0,15.748 l -127.929,127.929 c -4.329,4.337 -11.413,4.337 -15.742,0 L 6.2054996,150.8835 c -4.333,-4.337 -4.333,-11.42 0,-15.748"
   id="path10"
   inkscape:connector-curvature="0"
   style="fill-rule:evenodd;stroke:none;fill:#000000" />
<path
   clip-rule="evenodd"
   d="m 10.2005,139.0765 127.867,-127.876 c 2.165,-2.165 5.71,-2.165 7.867,0 l 127.871,127.876 c 2.157,2.165 2.157,5.7 0,7.865 l -127.871,127.87 c -2.156,2.164 -5.702,2.164 -7.867,0 L 10.2005,146.9425 c -2.1640004,-2.165 -2.1640004,-5.701 0,-7.866"
   id="path12"
   inkscape:connector-curvature="0"
   style="fill:#ffd033;fill-rule:evenodd;stroke:none;fill-opacity:1" />
<path
   clip-rule="evenodd"
   d="m 80.8425,110.8695 0,0 m 11.362,0 0,0 z m 113.647,0 -0.014,7.183 6.275,-1.871 c 0.864,-0.24 1.506,-0.341 2.178,0.113 0.955,0.654 1.206,1.959 0.553,2.914 l -14.687,21.72 -14.712,-21.72 c -0.646,-0.955 -0.402,-2.26 0.561,-2.914 0.634,-0.435 1.297,-0.361 2.085,-0.159 l 6.372,1.917 0.02,-7.183 c 0.019,-28.174 -22.957,-51.148 -51.129,-51.148 -28.176,0 -51.148,22.975 -51.148,51.148 v 17.545 h -11.363 v -17.545 c 0,-34.437 28.078,-62.517 62.51,-62.517 34.428,0 62.51,28.08 62.499,62.517 z"
   id="path14"
   inkscape:connector-curvature="0"
   style="fill-rule:evenodd;stroke:none;fill:#000000" />
<path
   d="m 94.3645,170.6595 v -34.677 h 4.969 v 30.071 h 12.681 v 4.606 h -17.65 z"
   id="path16"
   inkscape:connector-curvature="0"
   style="stroke:none;fill:#000000" />
<path
   d="m 134.6325,165.3285 c -1.708,4.089 -4.244,5.952 -8.126,5.952 -4.141,0 -6.573,-1.863 -8.281,-5.952 -1.449,-3.416 -1.967,-6.729 -1.967,-12.06 0,-5.228 0.518,-8.748 1.967,-12.059 1.812,-4.141 4.244,-5.849 8.281,-5.849 3.985,0 6.418,1.708 8.126,5.952 1.449,3.415 1.967,6.728 1.967,11.956 0,5.332 -0.518,8.748 -1.967,12.06 z m -3.882,-20.704 c -0.88,-3.052 -2.174,-4.398 -4.244,-4.398 -2.226,0 -3.571,1.346 -4.399,4.294 -0.828,2.641 -1.087,4.97 -1.087,8.852 0,3.778 0.362,5.952 1.087,8.747 0.828,2.95 2.174,4.296 4.399,4.296 2.07,0 3.364,-1.346 4.244,-4.296 0.828,-2.795 1.087,-4.865 1.087,-8.851 0,-3.881 -0.362,-6.107 -1.087,-8.644 z"
   id="path18"
   inkscape:connector-curvature="0"
   style="stroke:none;fill:#000000" />
<path
   d="m 161.2885,165.3285 c -1.709,4.089 -4.244,5.952 -8.127,5.952 -4.141,0 -6.572,-1.863 -8.281,-5.952 -1.449,-3.416 -1.967,-6.729 -1.967,-12.06 0,-5.228 0.518,-8.748 1.967,-12.059 1.813,-4.141 4.244,-5.849 8.281,-5.849 3.986,0 6.418,1.708 8.127,5.952 1.449,3.415 1.967,6.728 1.967,11.956 0,5.332 -0.518,8.748 -1.967,12.06 z m -3.883,-20.704 c -0.879,-3.052 -2.174,-4.398 -4.244,-4.398 -2.225,0 -3.57,1.346 -4.398,4.294 -0.828,2.641 -1.088,4.97 -1.088,8.852 0,3.778 0.363,5.952 1.088,8.747 0.828,2.95 2.174,4.296 4.398,4.296 2.07,0 3.365,-1.346 4.244,-4.296 0.828,-2.795 1.088,-4.865 1.088,-8.851 0,-3.881 -0.363,-6.107 -1.088,-8.644 z"
   id="path20"
   inkscape:connector-curvature="0"
   style="stroke:none;fill:#000000" />
<path
   d="m 180.5425,155.4435 h -5.383 v 15.217 h -4.969 v -34.677 h 10.352 c 5.434,0 9.109,3.882 9.109,9.729 0.001,6.315 -3.261,9.731 -9.109,9.731 z m -0.26,-14.596 h -5.123 v 9.833 h 5.123 c 2.898,0 4.504,-1.812 4.504,-4.97 0,-2.896 -1.812,-4.863 -4.504,-4.863 z"
   id="path22"
   inkscape:connector-curvature="0"
   style="stroke:none;fill:#000000" />
<path
   d="m 88.8785,215.0955 c -6.107,0 -9.73,-5.124 -9.73,-10.817 h 4.865 c 0,2.898 1.449,5.952 4.865,5.952 2.691,0 4.865,-2.433 4.865,-5.228 0,-1.967 -0.725,-3.416 -2.795,-5.021 -0.725,-0.725 1.242,0.621 -5.849,-4.141 -2.795,-1.916 -4.244,-4.607 -4.244,-7.661 0,-4.968 3.882,-9.005 8.851,-9.005 4.917,0 8.644,3.778 8.799,9.005 h -4.762 c -0.104,-2.432 -1.812,-3.984 -4.037,-3.984 -2.277,0 -4.089,1.708 -4.089,3.984 0,1.708 0.725,2.691 3.261,4.141 6.677,3.883 9.627,7.661 9.627,12.682 0,5.59 -4.296,10.093 -9.627,10.093 z"
   id="path24"
   inkscape:connector-curvature="0"
   style="stroke:none;fill:#000000" />
<path
   d="m 111.7035,184.4035 v 30.071 h -5.021 v -30.071 h -6.314 v -4.606 h 17.649 v 4.606 h -6.314 z"
   id="path26"
   inkscape:connector-curvature="0"
   style="stroke:none;fill:#000000" />
<path
   d="m 135.8225,214.4745 -4.606,-16.304 h -4.762 v 16.304 h -4.969 v -34.678 h 10.352 c 5.435,0 9.109,3.675 9.109,9.264 0,4.141 -1.708,7.144 -4.969,8.386 l 4.969,17.028 h -5.124 z m -4.244,-29.813 h -5.124 v 8.746 h 5.124 c 2.898,0 4.503,-1.553 4.503,-4.348 0,-2.69 -1.811,-4.398 -4.503,-4.398 z"
   id="path28"
   inkscape:connector-curvature="0"
   style="stroke:none;fill:#000000" />
<path
   d="m 145.5015,214.4745 v -34.678 h 16.305 v 4.865 h -11.336 v 8.746 h 7.195 v 4.763 h -7.195 v 11.438 h 12.682 v 4.865 h -17.651 z"
   id="path30"
   inkscape:connector-curvature="0"
   style="stroke:none;fill:#000000" />
<path
   d="m 167.7065,214.4745 v -34.678 h 16.305 v 4.865 h -11.336 v 8.746 h 7.195 v 4.763 h -7.195 v 11.438 h 12.682 v 4.865 h -17.651 z"
   id="path32"
   inkscape:connector-curvature="0"
   style="stroke:none;fill:#000000" />
<path
   d="m 198.5545,184.4035 v 30.071 h -5.02 v -30.071 h -6.314 v -4.606 h 17.648 v 4.606 h -6.314 z"
   id="path34"
   inkscape:connector-curvature="0"
   style="stroke:none;fill:#000000" />
</svg>