<?xml version="1.0" encoding="UTF-8" standalone="no"?>
<!-- Generator: Adobe Illustrator 12.0.1, SVG Export Plug-In  -->

<svg
   xmlns:dc="http://purl.org/dc/elements/1.1/"
   xmlns:cc="http://creativecommons.org/ns#"
   xmlns:rdf="http://www.w3.org/1999/02/22-rdf-syntax-ns#"
   xmlns:svg="http://www.w3.org/2000/svg"
   xmlns="http://www.w3.org/2000/svg"
   xmlns:sodipodi="http://sodipodi.sourceforge.net/DTD/sodipodi-0.dtd"
   xmlns:inkscape="http://www.inkscape.org/namespaces/inkscape"
   version="1.1"
   width="286.6615"
   height="286.66476"
   viewBox="-1 0 286.6615 286.66476"
   enable-background="new -1 0 289 288"
   xml:space="preserve"
   id="svg2"
   inkscape:version="0.48.2 r9819"
   sodipodi:docname="AJAX1.svg"><metadata
   id="metadata70"><rdf:RDF><cc:Work
       rdf:about=""><dc:format>image/svg+xml</dc:format><dc:type
         rdf:resource="http://purl.org/dc/dcmitype/StillImage" /></cc:Work></rdf:RDF></metadata><sodipodi:namedview
   pagecolor="#ffffff"
   bordercolor="#666666"
   borderopacity="1"
   objecttolerance="10"
   gridtolerance="10"
   guidetolerance="10"
   inkscape:pageopacity="0"
   inkscape:pageshadow="2"
   inkscape:window-width="1280"
   inkscape:window-height="1004"
   id="namedview68"
   showgrid="false"
   fit-margin-top="0"
   fit-margin-left="0"
   fit-margin-right="0"
   fit-margin-bottom="0"
   inkscape:zoom="2.3177389"
   inkscape:cx="88.620333"
   inkscape:cy="137.09514"
   inkscape:window-x="-8"
   inkscape:window-y="-8"
   inkscape:window-maximized="1"
   inkscape:current-layer="svg2" />
<defs
   id="defs4">
</defs>
<path
   d="M 3.098,133.3875 132.38,4.1054973 c 5.471,-5.474 14.421,-5.474 19.895,0 L 281.559,133.3875 c 5.47,5.471 5.47,14.423 0,19.889 l -129.285,129.285 c -5.474,5.471 -14.424,5.471 -19.895,0 L 3.098,153.2755 c -5.464,-5.465 -5.464,-14.418 0,-19.888 z"
   id="path6"
   style="fill:#ffd033;stroke:none;fill-opacity:1"
   inkscape:connector-curvature="0" />

<path
   clip-rule="evenodd"
   d="M 6.221,135.4405 134.44,7.2204973 c 4.339,-4.339 11.442,-4.339 15.785,0 L 278.44,135.4405 c 4.343,4.343 4.343,11.438 0,15.777 l -128.215,128.224 c -4.343,4.336 -11.446,4.336 -15.785,0 L 6.221,151.2175 c -4.338,-4.339 -4.338,-11.435 0,-15.777"
   id="path10"
   inkscape:connector-curvature="0"
   style="fill-rule:evenodd;stroke:none;fill:#000000" />
<path
   clip-rule="evenodd"
   d="M 10.224,139.3905 138.387,11.228497 c 2.162,-2.1689997 5.724,-2.1689997 7.889,0 L 274.436,139.3905 c 2.166,2.166 2.166,5.716 0,7.883 l -128.161,128.161 c -2.165,2.168 -5.727,2.168 -7.889,0 L 10.224,147.2735 c -2.165,-2.167 -2.165,-5.717 0,-7.883"
   id="path12"
   inkscape:connector-curvature="0"
   style="fill:#ffd033;fill-rule:evenodd;stroke:none;fill-opacity:1" />
<path
   d="m 66.819,156.0735 -2.096,-8.159 h -6.42 l -1.962,8.159 h -4.325 l 7.446,-29.873 h 4.19 l 7.446,29.873 h -4.279 z m -5.35,-20.955 -2.096,8.605 h 4.28 l -2.184,-8.605 z"
   id="path14"
   inkscape:connector-curvature="0"
   style="stroke:none;fill:#000000" />
<path
   d="m 75.825,156.0735 v -29.873 h 4.191 v 29.873 h -4.191 z"
   id="path16"
   inkscape:connector-curvature="0"
   style="stroke:none;fill:#000000" />
<path
   d="m 99.589,156.0735 -3.968,-14.044 h -4.102 v 14.044 h -4.28 v -29.873 h 8.917 c 4.682,0 7.847,3.166 7.847,7.981 0,3.567 -1.471,6.153 -4.28,7.223 l 4.28,14.669 h -4.414 z m -3.656,-25.681 h -4.414 v 7.535 h 4.414 c 2.496,0 3.879,-1.338 3.879,-3.745 0,-2.319 -1.56,-3.79 -3.879,-3.79 z"
   id="path18"
   inkscape:connector-curvature="0"
   style="stroke:none;fill:#000000" />
<path
   d="m 118.583,142.9655 h -4.637 v 13.108 h -4.28 v -29.873 h 8.917 c 4.682,0 7.847,3.344 7.847,8.382 -0.001,5.441 -2.809,8.383 -7.847,8.383 z m -0.223,-12.573 h -4.414 v 8.471 h 4.414 c 2.496,0 3.879,-1.561 3.879,-4.28 0,-2.497 -1.56,-4.191 -3.879,-4.191 z"
   id="path20"
   inkscape:connector-curvature="0"
   style="stroke:none;fill:#000000" />
<path
   d="m 131.156,156.0735 v -29.873 h 4.28 v 25.905 h 10.924 v 3.968 h -15.204 z"
   id="path22"
   inkscape:connector-curvature="0"
   style="stroke:none;fill:#000000" />
<path
   d="m 163.66,156.0735 -2.096,-8.159 h -6.421 l -1.962,8.159 h -4.324 l 7.445,-29.873 h 4.191 l 7.446,29.873 h -4.279 z m -5.351,-20.955 -2.096,8.605 h 4.28 l -2.184,-8.605 z"
   id="path24"
   inkscape:connector-curvature="0"
   style="stroke:none;fill:#000000" />
<path
   d="m 186.176,156.0735 -9.229,-20.019 v 20.019 h -4.28 v -29.873 h 4.28 l 8.204,17.923 v -17.923 h 4.28 v 29.873 h -3.255 z"
   id="path26"
   inkscape:connector-curvature="0"
   style="stroke:none;fill:#000000" />
<path
   d="m 196.563,156.0735 v -29.873 h 14.045 v 4.191 h -9.765 v 7.535 h 6.197 v 4.102 h -6.197 v 9.853 h 10.924 v 4.191 h -15.204 z"
   id="path28"
   inkscape:connector-curvature="0"
   style="stroke:none;fill:#000000" />
<path
   d="m 224.341,156.6085 c -5.262,0 -8.383,-4.414 -8.383,-9.318 h 4.191 c 0,2.496 1.248,5.127 4.191,5.127 2.318,0 4.19,-2.096 4.19,-4.503 0,-1.694 -0.624,-2.942 -2.407,-4.325 -0.624,-0.624 1.07,0.535 -5.038,-3.566 -2.408,-1.65 -3.656,-3.968 -3.656,-6.599 0,-4.28 3.344,-7.758 7.624,-7.758 4.235,0 7.446,3.255 7.58,7.758 h -4.103 c -0.089,-2.095 -1.561,-3.433 -3.478,-3.433 -1.962,0 -3.522,1.472 -3.522,3.433 0,1.472 0.624,2.319 2.81,3.567 5.751,3.344 8.293,6.599 8.293,10.924 10e-4,4.815 -3.701,8.693 -8.292,8.693 z"
   id="path30"
   inkscape:connector-curvature="0"
   style="stroke:none;fill:#000000" />
<path
   d="m 103.646,175.0665 c -0.445,-2.943 -1.604,-4.325 -3.566,-4.325 -3.478,0 -4.727,2.72 -4.727,10.478 0,8.605 1.472,12.083 5.128,12.083 2.496,0 3.165,-2.096 3.165,-4.324 h 4.28 c -0.089,4.948 -3.255,8.516 -7.445,8.516 -6.376,0 -9.229,-5.128 -9.229,-16.141 0,-9.675 3.031,-14.803 8.917,-14.803 2.407,0 4.503,1.07 5.886,3.032 1.114,1.472 1.561,2.765 1.872,5.484 h -4.281 z"
   id="path32"
   inkscape:connector-curvature="0"
   style="stroke:none;fill:#000000" />
<path
   d="m 126.073,196.9585 -3.968,-14.045 h -4.103 v 14.045 h -4.28 v -29.873 h 8.917 c 4.682,0 7.848,3.166 7.848,7.981 0,3.566 -1.472,6.152 -4.28,7.223 l 4.28,14.669 h -4.414 z m -3.656,-25.682 h -4.414 v 7.535 h 4.414 c 2.497,0 3.879,-1.338 3.879,-3.745 0,-2.318 -1.561,-3.79 -3.879,-3.79 z"
   id="path34"
   inkscape:connector-curvature="0"
   style="stroke:none;fill:#000000" />
<path
   d="m 150.639,192.3655 c -1.471,3.522 -3.655,5.128 -7,5.128 -3.566,0 -5.662,-1.605 -7.133,-5.128 -1.249,-2.942 -1.694,-5.796 -1.694,-10.388 0,-4.504 0.445,-7.535 1.694,-10.389 1.561,-3.567 3.656,-5.039 7.133,-5.039 3.434,0 5.529,1.472 7,5.128 1.249,2.942 1.694,5.796 1.694,10.3 0.001,4.592 -0.445,7.535 -1.694,10.388 z m -3.343,-17.834 c -0.758,-2.631 -1.872,-3.79 -3.656,-3.79 -1.917,0 -3.076,1.159 -3.789,3.701 -0.714,2.273 -0.937,4.28 -0.937,7.624 0,3.255 0.313,5.127 0.937,7.535 0.713,2.541 1.872,3.7 3.789,3.7 1.784,0 2.898,-1.159 3.656,-3.7 0.714,-2.408 0.937,-4.191 0.937,-7.624 -0.001,-3.344 -0.313,-5.261 -0.937,-7.446 z"
   id="path36"
   inkscape:connector-curvature="0"
   style="stroke:none;fill:#000000" />
<path
   d="m 165.042,197.4935 c -5.262,0 -8.383,-4.414 -8.383,-9.318 h 4.191 c 0,2.496 1.248,5.127 4.191,5.127 2.318,0 4.19,-2.096 4.19,-4.503 0,-1.694 -0.624,-2.942 -2.407,-4.325 -0.624,-0.624 1.07,0.535 -5.038,-3.566 -2.408,-1.65 -3.656,-3.969 -3.656,-6.599 0,-4.28 3.344,-7.759 7.624,-7.759 4.235,0 7.446,3.255 7.58,7.759 h -4.103 c -0.089,-2.096 -1.561,-3.434 -3.478,-3.434 -1.962,0 -3.522,1.472 -3.522,3.434 0,1.471 0.624,2.318 2.81,3.566 5.751,3.344 8.293,6.599 8.293,10.924 0.001,4.815 -3.7,8.694 -8.292,8.694 z"
   id="path38"
   inkscape:connector-curvature="0"
   style="stroke:none;fill:#000000" />
<path
   d="m 185.105,197.4935 c -5.262,0 -8.383,-4.414 -8.383,-9.318 h 4.191 c 0,2.496 1.248,5.127 4.191,5.127 2.318,0 4.19,-2.096 4.19,-4.503 0,-1.694 -0.624,-2.942 -2.407,-4.325 -0.624,-0.624 1.07,0.535 -5.038,-3.566 -2.408,-1.65 -3.656,-3.969 -3.656,-6.599 0,-4.28 3.344,-7.759 7.624,-7.759 4.235,0 7.446,3.255 7.58,7.759 h -4.103 c -0.089,-2.096 -1.561,-3.434 -3.478,-3.434 -1.962,0 -3.522,1.472 -3.522,3.434 0,1.471 0.624,2.318 2.81,3.566 5.751,3.344 8.293,6.599 8.293,10.924 0.001,4.815 -3.7,8.694 -8.292,8.694 z"
   id="path40"
   inkscape:connector-curvature="0"
   style="stroke:none;fill:#000000" />
<path
   d="m 111.159,73.087497 v -29.873 h 4.28 v 25.904 h 10.924 v 3.968 h -15.204 z"
   id="path42"
   inkscape:connector-curvature="0"
   style="stroke:none;fill:#000000" />
<path
   d="m 145.491,68.495497 c -1.472,3.522 -3.656,5.127 -7.001,5.127 -3.566,0 -5.662,-1.605 -7.134,-5.127 -1.248,-2.943 -1.694,-5.796 -1.694,-10.389 0,-4.503 0.446,-7.535 1.694,-10.389 1.561,-3.567 3.656,-5.038 7.134,-5.038 3.434,0 5.529,1.471 7.001,5.127 1.248,2.942 1.693,5.796 1.693,10.299 0,4.593 -0.445,7.536 -1.693,10.39 z m -3.345,-17.835 c -0.758,-2.631 -1.873,-3.79 -3.656,-3.79 -1.917,0 -3.076,1.159 -3.79,3.701 -0.713,2.274 -0.936,4.28 -0.936,7.625 0,3.254 0.312,5.127 0.936,7.535 0.714,2.542 1.873,3.701 3.79,3.701 1.783,0 2.898,-1.159 3.656,-3.701 0.714,-2.407 0.937,-4.191 0.937,-7.624 0,-3.345 -0.313,-5.262 -0.937,-7.447 z"
   id="path44"
   inkscape:connector-curvature="0"
   style="stroke:none;fill:#000000" />
<path
   d="m 168.676,73.087497 h -3.656 l -2.854,-15.605 -2.809,15.605 h -3.79 l -4.726,-29.873 h 4.19 l 2.542,15.917 2.898,-15.917 h 3.388 l 2.81,15.917 2.63,-15.917 h 4.191 l -4.814,29.873 z"
   id="path46"
   inkscape:connector-curvature="0"
   style="stroke:none;fill:#000000" />
<path
   d="m 93.304,88.617497 v 7.535 h 5.975 v 4.102003 h -5.975 v 14.044 h -4.28 V 84.426497 h 15.204 v 4.191 H 93.304 z"
   id="path48"
   inkscape:connector-curvature="0"
   style="stroke:none;fill:#000000" />
<path
   d="M 108.864,114.2995 V 84.426497 h 4.28 V 110.3305 h 10.923 v 3.968 h -15.203 z"
   id="path50"
   inkscape:connector-curvature="0"
   style="stroke:none;fill:#000000" />
<path
   d="m 134.501,100.7895 v 13.51 h -4.28 v -13.51 l -7.356,-16.363003 h 4.503 l 5.038,10.79 4.949,-10.79 h 4.592 l -7.446,16.363003 z"
   id="path52"
   inkscape:connector-curvature="0"
   style="stroke:none;fill:#000000" />
<path
   d="M 145.87,114.2995 V 84.426497 h 4.191 V 114.2995 h -4.191 z"
   id="path54"
   inkscape:connector-curvature="0"
   style="stroke:none;fill:#000000" />
<path
   d="M 170.17,114.2995 160.941,94.280497 V 114.2995 h -4.28 V 84.426497 h 4.28 l 8.204,17.923003 V 84.426497 h 4.28 V 114.2995 h -3.255 z"
   id="path56"
   inkscape:connector-curvature="0"
   style="stroke:none;fill:#000000" />
<path
   d="m 194.78,110.6435 c -1.159,2.586 -3.566,4.191 -6.599,4.191 -3.567,0 -6.197,-1.784 -7.669,-5.127 -0.937,-2.229 -1.561,-6.42 -1.561,-10.299003 0,-4.191 0.313,-7.223 1.382,-10.077 1.025,-3.121 4.058,-5.439 7.535,-5.439 4.28,0 7.535,3.166 7.758,7.58 h -4.28 c -0.133,-2.006 -1.471,-3.389 -3.566,-3.389 -1.472,0 -2.631,0.758 -3.389,2.229 -0.803,1.471 -1.338,4.815 -1.338,8.382 0,2.497003 0.224,5.127003 0.625,7.446003 0.624,2.898 2.095,4.503 4.414,4.503 2.185,0 3.254,-1.471 3.254,-4.637 v -1.962 h -3.388 v -4.191003 h 7.668 v 6.153003 c 0.001,2.096 -0.222,3.389 -0.846,4.637 z"
   id="path58"
   inkscape:connector-curvature="0"
   style="stroke:none;fill:#000000" />
<path
   d="m 114.548,238.1705 v -13.51 h -8.204 v 13.51 h -4.28 v -29.873 h 4.28 v 12.172 h 8.204 v -12.172 h 4.28 v 29.873 h -4.28 z"
   id="path60"
   inkscape:connector-curvature="0"
   style="stroke:none;fill:#000000" />
<path
   d="m 125.337,238.1705 v -29.873 h 14.044 v 4.191 h -9.764 v 7.535 h 6.197 v 4.102 h -6.197 v 9.854 h 10.923 v 4.191 h -15.203 z"
   id="path62"
   inkscape:connector-curvature="0"
   style="stroke:none;fill:#000000" />
<path
   d="m 157.93,238.1705 -3.969,-14.045 h -4.102 v 14.045 h -4.281 v -29.873 h 8.918 c 4.682,0 7.848,3.166 7.848,7.981 0,3.566 -1.473,6.152 -4.281,7.223 l 4.281,14.669 h -4.414 z m -3.656,-25.682 h -4.414 v 7.535 h 4.414 c 2.496,0 3.879,-1.338 3.879,-3.745 0,-2.318 -1.56,-3.79 -3.879,-3.79 z"
   id="path64"
   inkscape:connector-curvature="0"
   style="stroke:none;fill:#000000" />
<path
   d="m 167.382,238.1705 v -29.873 h 14.045 v 4.191 h -9.764 v 7.535 h 6.197 v 4.102 h -6.197 v 9.854 h 10.924 v 4.191 h -15.205 z"
   id="path66"
   inkscape:connector-curvature="0"
   style="stroke:none;fill:#000000" />
</svg>