<?xml version="1.0" encoding="UTF-8" standalone="no"?>
<!-- Generator: Adobe Illustrator 12.0.1, SVG Export Plug-In  -->

<svg
   xmlns:dc="http://purl.org/dc/elements/1.1/"
   xmlns:cc="http://creativecommons.org/ns#"
   xmlns:rdf="http://www.w3.org/1999/02/22-rdf-syntax-ns#"
   xmlns:svg="http://www.w3.org/2000/svg"
   xmlns="http://www.w3.org/2000/svg"
   xmlns:sodipodi="http://sodipodi.sourceforge.net/DTD/sodipodi-0.dtd"
   xmlns:inkscape="http://www.inkscape.org/namespaces/inkscape"
   version="1.1"
   width="286.66125"
   height="286.664"
   viewBox="-1 -1 286.66125 286.664"
   enable-background="new -1 -1 289 289"
   xml:space="preserve"
   id="svg2"
   inkscape:version="0.48.2 r9819"
   sodipodi:docname="AJAX1.svg"><metadata
   id="metadata46"><rdf:RDF><cc:Work
       rdf:about=""><dc:format>image/svg+xml</dc:format><dc:type
         rdf:resource="http://purl.org/dc/dcmitype/StillImage" /></cc:Work></rdf:RDF></metadata><sodipodi:namedview
   pagecolor="#ffffff"
   bordercolor="#666666"
   borderopacity="1"
   objecttolerance="10"
   gridtolerance="10"
   guidetolerance="10"
   inkscape:pageopacity="0"
   inkscape:pageshadow="2"
   inkscape:window-width="1280"
   inkscape:window-height="1004"
   id="namedview44"
   showgrid="false"
   fit-margin-top="0"
   fit-margin-left="0"
   fit-margin-right="0"
   fit-margin-bottom="0"
   inkscape:zoom="1.633218"
   inkscape:cx="182.51811"
   inkscape:cy="108.09925"
   inkscape:window-x="-8"
   inkscape:window-y="-8"
   inkscape:window-maximized="1"
   inkscape:current-layer="svg2" />
<defs
   id="defs4">
</defs>
<path
   d="M 3.0994983,132.38775 132.3805,3.10475 c 5.471,-5.473 14.419,-5.473 19.894,0 l 129.282,129.283 c 5.473,5.47 5.473,14.423 0,19.89 l -129.282,129.283 c -5.475,5.471 -14.423,5.471 -19.894,0 L 3.0994983,152.27775 c -5.466,-5.467 -5.466,-14.42 0,-19.89 z"
   id="path6"
   style="fill:#ffd033;stroke:none;fill-opacity:1"
   inkscape:connector-curvature="0" />

<path
   clip-rule="evenodd"
   d="M 6.2214983,134.43975 134.4415,6.22075 c 4.339,-4.339 11.44,-4.339 15.784,0 l 128.213,128.219 c 4.343,4.343 4.343,11.439 0,15.779 l -128.213,128.225 c -4.344,4.334 -11.445,4.334 -15.784,0 L 6.2214983,150.21875 c -4.338,-4.34 -4.338,-11.436 0,-15.779"
   id="path10"
   inkscape:connector-curvature="0"
   style="fill:#000000;fill-rule:evenodd;stroke:none" />
<path
   clip-rule="evenodd"
   d="M 10.224498,138.39075 138.3885,10.22975 c 2.162,-2.17 5.721,-2.17 7.887,0 l 128.158,128.161 c 2.168,2.166 2.168,5.715 0,7.883 l -128.158,128.16 c -2.166,2.168 -5.726,2.168 -7.887,0 l -128.164002,-128.16 c -2.1649997,-2.168 -2.1649997,-5.717 0,-7.883"
   id="path12"
   inkscape:connector-curvature="0"
   style="fill:#ffd033;fill-rule:evenodd;stroke:none;fill-opacity:1" />
<path
   d="m 81.693498,118.73375 v 8.747 h 6.937 v 4.763 h -6.937 v 16.304 h -4.969 v -34.679 h 17.65 v 4.866 h -12.681 z"
   id="path14"
   inkscape:connector-curvature="0"
   style="fill:#000000;stroke:none" />
<path
   d="m 100.2225,148.54675 v -34.679 h 4.969 v 30.071 h 12.681 v 4.607 h -17.65 z"
   id="path16"
   inkscape:connector-curvature="0"
   style="fill:#000000;stroke:none" />
<path
   d="m 134.5385,132.86375 v 15.684 h -4.969 v -15.684 l -8.54,-18.995 h 5.228 l 5.85,12.525 5.745,-12.525 h 5.33 l -8.644,18.995 z"
   id="path18"
   inkscape:connector-curvature="0"
   style="fill:#000000;stroke:none" />
<path
   d="m 148.9285,148.54675 v -34.679 h 4.864 v 34.679 h -4.864 z"
   id="path20"
   inkscape:connector-curvature="0"
   style="fill:#000000;stroke:none" />
<path
   d="m 178.1195,148.54675 -10.715,-23.24 v 23.24 h -4.968 v -34.679 h 4.968 l 9.523,20.807 v -20.807 h 4.969 v 34.679 h -3.777 z"
   id="path22"
   inkscape:connector-curvature="0"
   style="fill:#000000;stroke:none" />
<path
   d="m 208.1905,144.30275 c -1.347,3 -4.141,4.863 -7.661,4.863 -4.141,0 -7.195,-2.068 -8.901,-5.951 -1.087,-2.587 -1.813,-7.454 -1.813,-11.956 0,-4.866 0.362,-8.384 1.604,-11.697 1.191,-3.624 4.71,-6.314 8.748,-6.314 4.969,0 8.746,3.674 9.005,8.799 h -4.968 c -0.155,-2.329 -1.708,-3.935 -4.141,-3.935 -1.709,0 -3.054,0.881 -3.935,2.59 -0.931,1.707 -1.553,5.589 -1.553,9.729 0,2.899 0.26,5.951 0.725,8.644 0.726,3.363 2.434,5.228 5.125,5.228 2.536,0 3.778,-1.709 3.778,-5.384 v -2.278 h -3.935 v -4.864 h 8.902 v 7.142 c 0.002,2.433 -0.257,3.934 -0.98,5.384 z"
   id="path24"
   inkscape:connector-curvature="0"
   style="fill:#000000;stroke:none" />
<path
   d="m 79.882498,186.21875 h -5.383 v 15.217 h -4.969 v -34.678 h 10.352 c 5.436,0 9.109,3.883 9.109,9.73 0,6.315 -3.26,9.731 -9.109,9.731 z m -0.259,-14.595 h -5.125 v 9.834 h 5.125 c 2.898,0 4.502,-1.813 4.502,-4.969 0,-2.899 -1.812,-4.865 -4.502,-4.865 z"
   id="path26"
   inkscape:connector-curvature="0"
   style="fill:#000000;stroke:none" />
<path
   d="m 95.047498,201.43575 v -34.678 h 4.969002 v 30.07 h 12.681 v 4.607 H 95.047498 z"
   id="path28"
   inkscape:connector-curvature="0"
   style="fill:#000000;stroke:none" />
<path
   d="m 133.3485,201.43575 -2.434,-9.471 h -7.451 l -2.279,9.471 h -5.021 l 8.646,-34.678 h 4.864 l 8.645,34.678 h -4.97 z m -6.211,-24.326 -2.432,9.988 h 4.967 l -2.535,-9.988 z"
   id="path30"
   inkscape:connector-curvature="0"
   style="fill:#000000;stroke:none" />
<path
   d="m 160.0565,201.43575 -10.716,-23.238 v 23.238 h -4.967 v -34.678 h 4.967 l 9.523,20.807 v -20.807 h 4.97 v 34.678 h -3.777 z"
   id="path32"
   inkscape:connector-curvature="0"
   style="fill:#000000;stroke:none" />
<path
   d="m 172.6845,201.43575 v -34.678 h 16.303 v 4.865 h -11.336 v 8.746 h 7.195 v 4.762 h -7.195 v 11.439 h 12.682 v 4.865 h -17.649 z"
   id="path34"
   inkscape:connector-curvature="0"
   style="fill:#000000;stroke:none" />
<path
   d="m 205.4955,202.05675 c -6.106,0 -9.729,-5.123 -9.729,-10.818 h 4.866 c 0,2.898 1.448,5.953 4.863,5.953 2.692,0 4.866,-2.432 4.866,-5.227 0,-1.969 -0.726,-3.416 -2.796,-5.021 -0.725,-0.725 1.242,0.621 -5.848,-4.141 -2.795,-1.916 -4.243,-4.605 -4.243,-7.66 0,-4.969 3.88,-9.008 8.849,-9.008 4.919,0 8.644,3.779 8.799,9.008 h -4.761 c -0.104,-2.432 -1.812,-3.986 -4.038,-3.986 -2.276,0 -4.088,1.709 -4.088,3.986 0,1.709 0.725,2.689 3.26,4.141 6.678,3.883 9.627,7.66 9.627,12.682 0,5.587 -4.294,10.091 -9.627,10.091 z"
   id="path36"
   inkscape:connector-curvature="0"
   style="fill:#000000;stroke:none" />
<path
   d="m 107.6195,94.74675 v -34.678 h 4.969 v 30.07 h 12.681 v 4.607 h -17.65 z"
   id="path38"
   inkscape:connector-curvature="0"
   style="fill:#000000;stroke:none" />
<path
   d="m 147.8885,89.41675 c -1.709,4.088 -4.244,5.951 -8.126,5.951 -4.141,0 -6.573,-1.862 -8.282,-5.951 -1.448,-3.416 -1.967,-6.729 -1.967,-12.061 0,-5.228 0.519,-8.746 1.967,-12.059 1.812,-4.141 4.244,-5.85 8.282,-5.85 3.985,0 6.417,1.708 8.126,5.953 1.448,3.416 1.967,6.728 1.967,11.956 0,5.332 -0.519,8.748 -1.967,12.061 z m -3.883,-20.705 c -0.878,-3.054 -2.173,-4.399 -4.243,-4.399 -2.226,0 -3.571,1.345 -4.399,4.296 -0.828,2.64 -1.087,4.969 -1.087,8.851 0,3.777 0.362,5.951 1.087,8.747 0.828,2.951 2.173,4.296 4.399,4.296 2.07,0 3.365,-1.345 4.243,-4.296 0.829,-2.796 1.089,-4.866 1.089,-8.852 0,-3.88 -0.363,-6.105 -1.089,-8.643 z"
   id="path40"
   inkscape:connector-curvature="0"
   style="fill:#000000;stroke:none" />
<path
   d="m 174.8015,94.74675 h -4.244 l -3.313,-18.115 -3.26,18.115 h -4.399 l -5.486,-34.678 h 4.864 l 2.951,18.478 3.363,-18.478 h 3.935 l 3.26,18.478 3.055,-18.478 h 4.865 l -5.591,34.678 z"
   id="path42"
   inkscape:connector-curvature="0"
   style="fill:#000000;stroke:none" />
</svg>