<?xml version="1.0" encoding="UTF-8" standalone="no"?>
<!-- Generator: Adobe Illustrator 16.0.0, SVG Export Plug-In . SVG Version: 6.00 Build 0)  -->

<svg
   xmlns:dc="http://purl.org/dc/elements/1.1/"
   xmlns:cc="http://creativecommons.org/ns#"
   xmlns:rdf="http://www.w3.org/1999/02/22-rdf-syntax-ns#"
   xmlns:svg="http://www.w3.org/2000/svg"
   xmlns="http://www.w3.org/2000/svg"
   xmlns:sodipodi="http://sodipodi.sourceforge.net/DTD/sodipodi-0.dtd"
   xmlns:inkscape="http://www.inkscape.org/namespaces/inkscape"
   version="1.1"
   id="Layer_1"
   x="0px"
   y="0px"
   width="89.96344"
   height="89.414398"
   viewBox="0 0 89.963441 89.414398"
   enable-background="new 0 0 850.394 425.197"
   xml:space="preserve"
   inkscape:version="0.48.2 r9819"
   sodipodi:docname="MUTCD W10-1aP.svg"><metadata
   id="metadata37"><rdf:RDF><cc:Work
       rdf:about=""><dc:format>image/svg+xml</dc:format><dc:type
         rdf:resource="http://purl.org/dc/dcmitype/StillImage" /><dc:title></dc:title></cc:Work></rdf:RDF></metadata><defs
   id="defs35" /><sodipodi:namedview
   pagecolor="#ffffff"
   bordercolor="#666666"
   borderopacity="1"
   objecttolerance="10"
   gridtolerance="10"
   guidetolerance="10"
   inkscape:pageopacity="0"
   inkscape:pageshadow="2"
   inkscape:window-width="1280"
   inkscape:window-height="1004"
   id="namedview33"
   showgrid="false"
   fit-margin-top="0"
   fit-margin-left="0"
   fit-margin-right="0"
   fit-margin-bottom="0"
   inkscape:zoom="8.0000001"
   inkscape:cx="43.055046"
   inkscape:cy="45.837421"
   inkscape:window-x="-8"
   inkscape:window-y="-8"
   inkscape:window-maximized="1"
   inkscape:current-layer="Layer_1"
   showguides="true"
   inkscape:guide-bbox="true" />













<path
   inkscape:connector-curvature="0"
   d="m 47.897501,88.241565 40.86875,-40.627501 c 1.59875,-1.58 1.59375,-4.2225 0,-5.805 L 47.897501,1.1840639 c -1.59,-1.57499997 -4.247497,-1.58249997 -5.838747,0 L 1.188753,41.809064 c -1.58000004,1.57875 -1.59000004,4.22875 0,5.805 l 40.870001,40.627501 c 1.7125,1.70125 4.091247,1.42 5.838747,0"
   style="fill:#ffd033;fill-opacity:1;fill-rule:nonzero;stroke:none"
   id="path3735" /><path
   inkscape:connector-curvature="0"
   d="M 42.800004,87.509075 1.931253,46.877824 c -1.18750004,-1.18 -1.18375004,-3.1475 0,-4.3325 L 42.800004,1.9203239 c 1.19125,-1.17624997 3.168747,-1.18499997 4.359997,0 l 40.87375,40.6250001 c 1.1775,1.1775 1.1825,3.16 0,4.3325 l -40.87375,40.631251 c -1.18625,1.175 -3.176247,1.17875 -4.359997,0"
   style="fill:#000000;fill-opacity:1;fill-rule:evenodd;stroke:none"
   id="path3739" /><path
   inkscape:connector-curvature="0"
   d="m 44.028884,86.290825 c 0.5175,0.50875 1.39125,0.50875 1.911247,0 l 40.86375,-40.633751 c 0.51,-0.51375 0.5225,-1.3775 0,-1.88875 L 45.940131,3.1408239 c -0.532497,-0.51125 -1.382497,-0.52125 -1.911247,0 L 3.160134,43.768324 c -0.520001,0.5175 -0.517501,1.37 0,1.88875 l 40.86875,40.633751"
   style="fill:#ffd033;fill-opacity:1;fill-rule:evenodd;stroke:none"
   id="path3743" /><path
   inkscape:connector-curvature="0"
   d="m 39.130004,27.844824 5.1975,4.57375 -1.10625,0 6.732497,5.49875 -3.33875,-4.70125 1.7325,0.12625 -9.217497,-5.4975 z m 13.638747,13.63875 5.1975,4.57375 -1.1075,0 6.735,5.497501 -3.34,-4.700001 1.73375,0.1275 -9.21875,-5.49875 z m -11.919997,-0.1325 -0.09875,0.60875 -1.3775,0 -0.37,1.18125 1.56125,0 -0.0975,0.60875 -1.65,0 -0.46875,1.47625 1.87875,0 -0.13125,0.75375 -1.9875,0 -0.54,1.735 2.245,0 -0.1275,0.7925 -2.37375,0 -0.65375,2.090001 2.67375,0 -0.15625,1.0075 -2.84375,0 -0.70875,2.25875 3.16875,0 -0.215,1.335 -3.37875,0 -0.88125,2.79625 3.79125,0 -0.3425,2.105 -4.116251,0 -1.26625,4.00375 4.716251,0 -0.6225,3.82 2.79875,0 0.43875,-3.82 13.211247,0 0.56875,3.82 2.79875,0 -0.72375,-3.82 4.91125,0 -1.405,-4.00375 -4.275,0 -0.39875,-2.105 3.95,0 -0.96625,-2.79625 -3.5225,0 -0.2575,-1.335 3.31125,0 -0.77,-2.25875 -2.965,0 -0.20125,-1.0075 2.8125,0 -0.7225,-2.090001 -2.48625,0 -0.15875,-0.7925 2.375,0 -0.5975,-1.735 -2.10125,0 -0.14125,-0.75375 1.9725,0 -0.51125,-1.47625 -1.74875,0 -0.11125,-0.60875 1.66,0 -0.41125,-1.18125 -1.47625,0 -0.115,-0.60875 27.23,4.755 0,-1.37625 -5.07,-0.92125 -0.1275,-0.03 -0.11,-0.035 -0.0988,-0.0425 -0.0425,-0.0225 -0.0388,-0.02625 -0.0362,-0.0275 -0.0325,-0.0275 -0.0312,-0.03125 -0.0275,-0.0275 -0.0487,-0.065 -0.0375,-0.06625 -0.0275,-0.07 -0.0213,-0.07375 -0.015,-0.0775 -0.006,-0.07375 -0.004,-0.07625 0,-0.0775 0.009,-0.14375 0.0487,-0.08875 0.0213,-0.0475 0.0138,-0.05 0.085,-0.05875 0.0837,-0.05875 0.0763,-0.0625 0.0763,-0.06375 0.0738,-0.06875 0.07,-0.07 0.0675,-0.075 0.0675,-0.075 0.0637,-0.0775 0.0588,-0.07875 0.055,-0.0825 0.055,-0.08625 0.0513,-0.08875 0.05,-0.08875 0.0475,-0.0925 0.0413,-0.0925 0.0737,-0.02875 0.07,-0.0275 0.0637,-0.02125 0.0337,-0.0063 0.03,-0.0037 3.565,0 -0.26875,-1.63375 -3.45125,-0.1275 -0.0325,-0.11 -0.0362,-0.105 -0.0412,-0.1075 -0.0463,-0.10375 -0.0487,-0.10125 -0.055,-0.0975 -0.055,-0.0975 -0.0625,-0.09 -0.0637,-0.0925 -0.0687,-0.08875 -0.0688,-0.085 -0.0775,-0.08125 -0.0775,-0.08 -0.0787,-0.07625 -0.085,-0.0725 -0.0875,-0.06875 -0.0862,-0.06625 -0.0925,-0.06125 -0.0975,-0.0575 -0.0962,-0.05625 -0.0988,-0.04875 -0.10125,-0.04875 -0.10375,-0.04625 -0.10625,-0.0375 -0.10375,-0.03375 -0.1125,-0.0325 -0.11125,-0.02375 -0.1125,-0.0225 -0.11375,-0.015 -0.11375,-0.01125 -0.11875,-0.0087 -0.1175,-0.0013 -0.11125,0.0013 -0.11,0.0062 -0.1075,0.01 -0.10875,0.0125 -0.10625,0.02 -0.105,0.02625 -0.10375,0.0225 -0.10125,0.03375 -0.0987,0.03125 -0.0988,0.03875 -0.0962,0.03875 -0.0937,0.045 -0.0913,0.05125 -0.09,0.04875 -0.0888,0.05375 -0.085,0.05875 -0.085,0.05875 -0.08,0.065 -0.0787,0.06625 -0.0775,0.07 -0.0725,0.07125 -0.0712,0.07625 -0.0637,0.0775 -0.0688,0.08125 -0.06,0.0825 -0.0587,0.0825 -0.0575,0.08875 -0.0525,0.08875 -0.0488,0.09125 -0.0463,0.09375 -0.0425,0.095 -0.0388,0.1 -12.515,-0.51 5.68,-3.7375 -1.43125,-0.95 3.125,-5.525 -5.99625,5.81 0.75375,0.9375 -3.61125,3.41875 -9.628747,-0.38125 -0.09,-0.005 -0.09,-0.01375 -0.08625,-0.01375 -0.085,-0.01625 -0.08375,-0.025 -0.0825,-0.02625 -0.0825,-0.03625 -0.07875,-0.035 -0.0775,-0.04375 -0.07375,-0.04375 -0.0725,-0.04875 -0.06875,-0.05375 -0.06875,-0.05875 -0.0625,-0.05875 -0.05875,-0.0675 -0.05875,-0.065 -3.555,-4.4175 -0.03375,-0.04 -0.04,-0.03875 -0.03875,-0.03875 -0.0425,-0.0325 -0.0425,-0.03125 -0.04125,-0.0275 -0.09,-0.05125 -0.09625,-0.03875 -0.0975,-0.0325 -0.10125,-0.02125 -0.105,-0.01875 -0.10625,-0.01 -0.1075,-0.0087 -0.10875,-0.0012 -0.11,0.0012 -0.21625,0.01 -0.21,0.0125 -4.58875,0.19875 -0.555001,1.39 3.098751,0.31375 0.0925,0.0075 0.09625,0.01375 0.08875,0.0225 0.08375,0.02375 0.0825,0.0325 0.07875,0.03375 0.0725,0.04 0.06875,0.04625 0.06375,0.04875 0.05375,0.0525 0.0525,0.055 0.04125,0.0575 0.03625,0.06125 0.02625,0.06625 0.01625,0.06625 0.01,0.0675 -4.743751,0 -0.07125,-0.0025 -0.075,-0.0038 -0.07625,-0.01 -0.0725,-0.0125 -0.07625,-0.0175 -0.07,-0.02125 -0.07125,-0.0275 -0.06375,-0.02875 -0.06,-0.03875 -0.05625,-0.0425 -0.04875,-0.04625 -0.045,-0.055 -0.03375,-0.05875 -0.02375,-0.06625 -0.0175,-0.07125 -0.0037,-0.03875 -0.0025,-0.03875 -0.025,-4.61875 -0.0012,-0.09125 -0.0063,-0.08 -0.0125,-0.0825 -0.015,-0.07125 -0.015,-0.06875 -0.02,-0.065 -0.02875,-0.055 -0.02375,-0.05625 -0.0325,-0.04875 -0.03125,-0.045 -0.03625,-0.03875 -0.04,-0.03875 -0.04125,-0.03 -0.04,-0.03 -0.0425,-0.02875 -0.04875,-0.01875 -0.045,-0.02125 -0.05125,-0.01875 -0.09875,-0.02 -0.1025,-0.01875 -0.1075,-0.01 -0.105,-0.0012 -0.105,0.0012 -0.2,0.01625 -2.1475,0 -0.05375,0.0025 -0.05625,0.0075 -0.0575,0.01 -0.05625,0.01625 -0.05625,0.0225 -0.05875,0.02625 -0.0575,0.02625 -0.05875,0.0375 -0.05875,0.03875 -0.06125,0.04125 -0.06125,0.0525 -0.06,0.05125 -0.12375,0.11875 -0.12375,0.135 -0.1275,0.15375 -0.12625,0.17125 -0.13125,0.185 -0.1275,0.2025 -0.1325,0.21875 -0.13125,0.235 -0.1325,0.2525 -0.135,0.2675 -0.09375,0.18875 -0.10125,0.175 -0.10375,0.16375 -0.1075,0.1525 -0.1125,0.14125 -0.11,0.12875 -0.11375,0.1175 -0.11375,0.105 -0.10875,0.09375 -0.11,0.08125 -0.1125,0.06875 -0.105,0.05875 -0.10375,0.045 -0.095,0.035 -0.0975,0.0225 -0.0875,0.01125 -2.685,0 -0.05875,0.0037 -0.05875,0.005 -0.0575,0.01 -0.055,0.01 -0.05125,0.01875 -0.05125,0.02125 -0.0475,0.0225 -0.0475,0.02625 -0.0425,0.02875 -0.04375,0.0325 -0.04125,0.03625 -0.03875,0.0375 -0.03625,0.03625 -0.035,0.0425 -0.0625,0.09 -0.0575,0.09625 -0.04625,0.10375 -0.04375,0.105 -0.0325,0.1075 -0.025,0.1125 -0.02,0.1125 -0.01,0.10875 -0.0038,0.11125 0,4.6775 -0.015,0.01 -0.0062,0.01375 -0.0063,0.015 -0.0038,0.01625 0,0.03 0.0038,0.03125 0.0063,0.03125 0,0.0325 -0.01375,0.02875 -0.01,0.015 -0.015,0.015 -0.0825,0.0925 -0.07875,0.085 -0.0675,0.0825 -0.05875,0.07625 -0.04875,0.07 -0.03625,0.065 -0.025,0.05875 -0.0125,0.05125 -0.005,0.04625 0,0.04625 0.0062,0.045 0.0087,0.04875 0.01875,0.0525 0.02125,0.05125 0.0275,0.05125 0.0325,0.05 0.03625,0.0575 0.04625,0.05375 0.05125,0.055 0.0525,0.0575 0.0575,0.05875 0.06625,0.05875 0.07375,0.05875 0.075,0.06 0.67,0.56875 0.04,0.1175 0.05125,0.115 0.05875,0.12 0.0675,0.11375 0.0775,0.1125 0.08,0.11125 0.08875,0.10625 0.09125,0.1 0.09125,0.1 0.0975,0.09125 0.09625,0.0825 0.0975,0.08 0.095,0.06875 0.09125,0.06375 0.085,0.05125 0.08375,0.04375 -12.88625,2.24375 -0.01375,0.865 30.468751,-4.755 z m -14.330001,1.0825 0.10375,-0.13625 0.09875,-0.1275 0.0825,-0.12625 0.075,-0.1175 0.06625,-0.11625 0.055,-0.11375 0.05,-0.1125 0.03875,-0.11 0.03625,-0.1125 0.02625,-0.11125 0.0225,-0.115 0.01625,-0.11625 0.01,-0.12375 0.01,-0.12375 0.005,-0.13375 0,-0.13625 6.732501,-1.32 0.1225,0.29875 0.115,0.25625 0.0525,0.11125 0.05625,0.10875 0.06375,0.1 0.06375,0.095 0.0675,0.0925 0.07375,0.09125 0.085,0.0875 0.0925,0.08875 0.10625,0.09375 0.11625,0.09125 0.13125,0.10125 0.14625,0.1025 -8.721251,1.53375 z m 14.045001,-5.6475 2.55375,3.2625 0.01875,0.0325 0.01,0.0325 0,0.0325 -0.01,0.02625 -0.015,0.02625 -0.02625,0.0275 -0.02875,0.025 -0.0375,0.02125 -0.0425,0.02 -0.04375,0.0175 -0.04875,0.01375 -0.05,0.01125 -0.1075,0.01875 -0.05375,0.005 -0.05375,0.0025 -3.2475,0 -1.28625,0.21875 0.095,-0.1275 0.09,-0.12125 0.08125,-0.11875 0.07,-0.12125 0.06625,-0.1175 0.05875,-0.11125 0.0525,-0.11 0.045,-0.11 0.04,-0.10375 0.0325,-0.105 0.02875,-0.10125 0.02125,-0.10125 0.01875,-0.09875 0.01125,-0.09625 0.0087,-0.09375 0.0025,-0.09125 0.0025,-0.09 -0.005,-0.0875 -0.0075,-0.08625 -0.0087,-0.0875 -0.03,-0.1625 -0.03875,-0.16 -0.04625,-0.1525 -0.05125,-0.1475 -0.0525,-0.14375 -0.0575,-0.13625 2.04125,-0.81125 z m 29.586247,5.9675 -0.12375,-0.115 -0.1175,-0.1225 -0.11375,-0.13125 -0.1025,-0.13625 -0.0975,-0.14625 -0.0875,-0.1475 -0.0812,-0.15125 -0.0725,-0.16 -0.045,0 -7.00125,0 -0.0562,0.0063 -0.0487,0.0125 -0.045,0.01875 -0.0325,0.0275 -0.0288,0.03125 -0.0162,0.035 -0.0125,0.035 -0.005,0.0425 0.005,0.03875 0.0125,0.04 0.0162,0.03875 0.0288,0.035 0.0325,0.0325 0.045,0.02625 0.0487,0.02375 0.0562,0.01375 7.08875,1.2575 0.11125,0.0175 0.0975,0.0062 0.0888,-0.0012 0.0812,-0.0125 0.075,-0.0175 0.0637,-0.0275 0.055,-0.03375 0.0487,-0.04125 0.04,-0.04625 0.0338,-0.05125 0.0275,-0.05625 0.02,-0.06375 0.0112,-0.065 0.005,-0.06875 0,-0.0725 -0.005,-0.07125 z m -27.856247,-1.39875 7.258747,0 0.0837,0.61 -7.412497,0 0.07,-0.61 z m 7.613747,2.39875 -7.882497,0 0.07,-0.61 7.727497,0 0.085,0.61 z m -8.054997,1.47375 8.281247,0 0.11625,0.75625 -8.482497,0 0.085,-0.75625 z m -0.28375,2.485 8.936247,0 0.11375,0.795 -9.132497,0 0.0825,-0.795 z m -0.32625,2.882501 9.687497,0 0.14125,1.00875 -9.941247,0 0.1125,-1.00875 z m -0.37,3.26625 10.539997,0 0.20125,1.33625 -10.894997,0 0.15375,-1.33625 z m -0.46875,4.13375 11.621247,0 0.3125,2.1 -12.174997,0 0.24125,-2.1 z"
   style="fill:#000000;fill-opacity:1;fill-rule:evenodd;stroke:none"
   id="path3747" /></svg>