<?xml version="1.0" encoding="UTF-8" standalone="no"?>
<!-- Generator: Adobe Illustrator 12.0.1, SVG Export Plug-In  -->

<svg
   xmlns:dc="http://purl.org/dc/elements/1.1/"
   xmlns:cc="http://creativecommons.org/ns#"
   xmlns:rdf="http://www.w3.org/1999/02/22-rdf-syntax-ns#"
   xmlns:svg="http://www.w3.org/2000/svg"
   xmlns="http://www.w3.org/2000/svg"
   xmlns:sodipodi="http://sodipodi.sourceforge.net/DTD/sodipodi-0.dtd"
   xmlns:inkscape="http://www.inkscape.org/namespaces/inkscape"
   version="1.1"
   width="286.66199"
   height="286.66324"
   viewBox="-1 0 286.66199 286.66324"
   enable-background="new -1 0 289 288"
   xml:space="preserve"
   id="svg2"
   inkscape:version="0.48.2 r9819"
   sodipodi:docname="AJAX1.svg"><metadata
   id="metadata42"><rdf:RDF><cc:Work
       rdf:about=""><dc:format>image/svg+xml</dc:format><dc:type
         rdf:resource="http://purl.org/dc/dcmitype/StillImage" /></cc:Work></rdf:RDF></metadata><sodipodi:namedview
   pagecolor="#ffffff"
   bordercolor="#666666"
   borderopacity="1"
   objecttolerance="10"
   gridtolerance="10"
   guidetolerance="10"
   inkscape:pageopacity="0"
   inkscape:pageshadow="2"
   inkscape:window-width="1280"
   inkscape:window-height="1004"
   id="namedview40"
   showgrid="false"
   fit-margin-top="0"
   fit-margin-left="0"
   fit-margin-right="0"
   fit-margin-bottom="0"
   inkscape:zoom="2.3177389"
   inkscape:cx="111.31683"
   inkscape:cy="129.76717"
   inkscape:window-x="-8"
   inkscape:window-y="-8"
   inkscape:window-maximized="1"
   inkscape:current-layer="svg2" />
<defs
   id="defs4">
</defs>
<path
   d="M 3.09875,133.38675 132.37975,4.1047494 c 5.471,-5.473 14.421,-5.473 19.896,0 l 129.283,129.2820006 c 5.471,5.47 5.471,14.423 0,19.89 l -129.284,129.284 c -5.475,5.47 -14.425,5.47 -19.896,0 l -129.28,-129.285 c -5.465,-5.466 -5.465,-14.419 0,-19.889 z"
   id="path6"
   style="fill:#ffd033;stroke:none;fill-opacity:1"
   inkscape:connector-curvature="0" />

<path
   clip-rule="evenodd"
   d="M 6.22175,135.43975 134.43975,7.2207494 c 4.339,-4.339 11.442,-4.339 15.785,0 l 128.215,128.2190006 c 4.343,4.343 4.343,11.438 0,15.777 l -128.215,128.225 c -4.343,4.335 -11.446,4.335 -15.785,0 l -128.218,-128.225 c -4.338,-4.339 -4.338,-11.434 0,-15.777"
   id="path10"
   inkscape:connector-curvature="0"
   style="fill-rule:evenodd;fill:#000000;stroke:none" />
<path
   clip-rule="evenodd"
   d="m 10.22475,139.38975 128.161,-128.160001 c 2.162,-2.1699996 5.724,-2.1699996 7.889,0 l 128.16,128.160001 c 2.165,2.166 2.165,5.716 0,7.883 l -128.16,128.161 c -2.165,2.167 -5.727,2.167 -7.889,0 l -128.161,-128.161 c -2.166,-2.167 -2.166,-5.717 0,-7.883"
   id="path12"
   inkscape:connector-curvature="0"
   style="fill:#ffd033;fill-rule:evenodd;stroke:none;fill-opacity:1" />
<path
   d="m 119.07775,95.330749 v -20.953 l -8.371,20.952 -8.37,-20.952 v 20.952 h -5.724 v -36.18 h 5.724 l 8.37,20.304 8.371,-20.304 h 5.724 v 36.18 h -5.724 z"
   id="path14"
   inkscape:connector-curvature="0"
   style="stroke:none;fill:#000000" />
<path
   d="m 153.42275,95.330749 -3.564,-10.152 h -11.286 l -3.564,10.152 h -6.103 l 12.475,-36.18 h 5.669 l 12.475,36.18 h -6.102 z m -9.127,-26.136 -3.726,10.152 h 7.235 l -3.509,-10.152 z"
   id="path16"
   inkscape:connector-curvature="0"
   style="stroke:none;fill:#000000" />
<path
   d="m 175.45375,79.562749 v 15.768 h -5.725 v -15.768 l -12.689,-20.412 h 6.857 l 8.641,13.986 8.748,-13.986 h 6.75 l -12.582,20.412 z"
   id="path18"
   inkscape:connector-curvature="0"
   style="stroke:none;fill:#000000" />
<path
   d="m 80.95475,147.31275 c -1.296,0.486 -3.456,0.864 -5.076,0.864 h -13.716 v -36.18 h 13.716 c 5.725,0 10.045,3.942 10.045,9.126 0,3.564 -1.675,6.21 -5.076,8.154 3.78,1.782 5.939,4.806 5.939,8.748 0,3.942 -2.43,7.883 -5.832,9.288 z m -4.698,-29.592 h -8.37 v 8.856 h 6.858 c 1.62,0 2.376,-0.216 3.402,-0.972 1.296,-1.026 2.052,-2.538 2.052,-4.212 0,-2.43 -1.404,-3.672 -3.942,-3.672 z m 1.242,14.958 c -0.756,-0.27 -1.134,-0.27 -2.376,-0.27 h -7.236 v 9.936 h 8.641 c 2.916,0 4.428,-1.404 4.428,-4.212 -10e-4,-2.376 -1.404,-4.698 -3.457,-5.454 z"
   id="path20"
   inkscape:connector-curvature="0"
   style="stroke:none;fill:#000000" />
<path
   d="m 91.53875,148.17675 v -36.18 h 21.33 v 5.724 h -15.606 v 8.856 h 10.53 v 5.832 h -10.53 v 9.936 h 16.74 v 5.832 h -22.464 z"
   id="path22"
   inkscape:connector-curvature="0"
   style="stroke:none;fill:#000000" />
<path
   d="m 150.50475,148.17675 v -36.18 h 5.832 v 36.18 h -5.832 z"
   id="path24"
   inkscape:connector-curvature="0"
   style="stroke:none;fill:#000000" />
<path
   d="m 176.58675,148.82375 c -5.346,0 -8.748,-2.051 -11.07,-6.479 -1.619,-3.186 -2.645,-7.776 -2.645,-12.312 0,-5.724 1.512,-11.448 4.049,-14.634 2.16,-2.646 5.184,-4.05 9.289,-4.05 5.453,0 8.855,2.322 11.285,7.398 l -5.346,2.268 c -1.998,-3.078 -3.186,-3.834 -5.939,-3.834 -2.916,0 -4.861,1.296 -6.104,4.482 -0.918,2.16 -1.402,5.292 -1.402,8.37 0,3.942 0.863,7.884 2.268,10.152 1.295,1.89 2.916,2.808 5.453,2.808 2.43,0 4.213,-1.296 5.617,-4.212 l 5.453,2.052 c -2.16,5.292 -5.723,7.991 -10.908,7.991 z"
   id="path26"
   inkscape:connector-curvature="0"
   style="stroke:none;fill:#000000" />
<path
   d="m 209.90475,132.40875 v 15.768 h -5.723 v -15.768 l -12.691,-20.412 h 6.859 l 8.639,13.986 8.748,-13.986 h 6.75 l -12.582,20.412 z"
   id="path28"
   inkscape:connector-curvature="0"
   style="stroke:none;fill:#000000" />
<path
   d="m 91.83575,201.00775 -3.564,-10.152 h -11.287 l -3.563,10.152 h -6.103 l 12.475,-36.181 h 5.67 l 12.474,36.181 h -6.102 z m -9.126,-26.137 -3.727,10.152 h 7.236 l -3.509,-10.152 z"
   id="path30"
   inkscape:connector-curvature="0"
   style="stroke:none;fill:#000000" />
<path
   d="m 120.94075,201.00775 v -15.769 h -13.176 v 15.769 h -5.725 v -36.181 h 5.725 v 14.58 h 13.176 v -14.58 h 5.725 v 36.181 h -5.725 z"
   id="path32"
   inkscape:connector-curvature="0"
   style="stroke:none;fill:#000000" />
<path
   d="m 133.95475,201.00775 v -36.181 h 21.33 v 5.724 h -15.605 v 8.856 h 10.529 v 5.832 h -10.529 v 9.937 h 16.74 v 5.832 h -22.465 z"
   id="path34"
   inkscape:connector-curvature="0"
   style="stroke:none;fill:#000000" />
<path
   d="m 182.50175,201.00775 -3.564,-10.152 h -11.286 l -3.564,10.152 h -6.103 l 12.475,-36.181 h 5.67 l 12.475,36.181 h -6.103 z m -9.127,-26.137 -3.726,10.152 h 7.236 l -3.51,-10.152 z"
   id="path36"
   inkscape:connector-curvature="0"
   style="stroke:none;fill:#000000" />
<path
   d="m 210.95875,198.95475 c -1.35,1.297 -3.294,1.944 -5.184,2.053 -0.378,0 -1.135,0 -2.053,0 h -11.016 v -36.181 h 11.664 c 3.672,0 5.076,0.378 7.02,1.89 3.78,3.295 5.94,9.019 5.94,16.146 0.001,7.237 -2.267,12.96 -6.371,16.092 z m -2.376,-26.891 c -0.918,-0.864 -2.16,-1.513 -3.672,-1.513 h -6.48 v 24.625 h 5.725 c 1.89,0 3.023,-0.379 4.05,-1.404 2.16,-2.16 3.294,-6.102 3.294,-10.908 -0.001,-4.86 -1.135,-8.911 -2.917,-10.8 z"
   id="path38"
   inkscape:connector-curvature="0"
   style="stroke:none;fill:#000000" />
</svg>