<?xml version="1.0" encoding="UTF-8" standalone="no"?>
<svg
   xmlns:dc="http://purl.org/dc/elements/1.1/"
   xmlns:cc="http://creativecommons.org/ns#"
   xmlns:rdf="http://www.w3.org/1999/02/22-rdf-syntax-ns#"
   xmlns:svg="http://www.w3.org/2000/svg"
   xmlns="http://www.w3.org/2000/svg"
   xmlns:sodipodi="http://sodipodi.sourceforge.net/DTD/sodipodi-0.dtd"
   xmlns:inkscape="http://www.inkscape.org/namespaces/inkscape"
   width="73.833832"
   height="74.380936"
   viewBox="0 0 208.37553 209.91952"
   version="1.1"
   id="svg2"
   inkscape:version="0.48.2 r9819"
   sodipodi:docname="AJAX1.svg">
  <metadata
     id="metadata62">
    <rdf:RDF>
      <cc:Work
         rdf:about="">
        <dc:format>image/svg+xml</dc:format>
        <dc:type
           rdf:resource="http://purl.org/dc/dcmitype/StillImage" />
        <dc:title></dc:title>
      </cc:Work>
    </rdf:RDF>
  </metadata>
  <defs
     id="defs60" />
  <sodipodi:namedview
     pagecolor="#ffffff"
     bordercolor="#666666"
     borderopacity="1"
     objecttolerance="10"
     gridtolerance="10"
     guidetolerance="10"
     inkscape:pageopacity="0"
     inkscape:pageshadow="2"
     inkscape:window-width="1280"
     inkscape:window-height="1004"
     id="namedview58"
     showgrid="false"
     fit-margin-top="0"
     fit-margin-left="0"
     fit-margin-right="0"
     fit-margin-bottom="0"
     inkscape:zoom="8"
     inkscape:cx="32.511774"
     inkscape:cy="33.026741"
     inkscape:window-x="-8"
     inkscape:window-y="-8"
     inkscape:window-maximized="1"
     inkscape:current-layer="svg2"
     showguides="true"
     inkscape:guide-bbox="true" />
  <!-- draw the bicycle -->
  <!-- RIGHT -->
  <!-- LANE -->
  <!-- ONLY -->
  <path
     d="M 205.06536,96.737335 112.38709,3.3782051 c -4.45912,-4.51203 -11.91331,-4.49792 -16.379479,0.004 L 3.3505109,96.730755 c -4.45912,4.487345 -4.47323,11.990925 -0.007,16.478265 l 92.6712201,93.35561 c 4.444999,4.45911 11.927409,4.48733 16.372419,0 l 92.67827,-93.35914 c 4.80483,-4.82953 4.00403,-11.53584 0,-16.467685"
     style="fill:#fecf33;fill-opacity:1;fill-rule:nonzero;stroke:none"
     id="path3236"
     inkscape:connector-curvature="0" />
  <path
     d="m 202.99808,111.1201 -92.68533,93.35208 c -3.32669,3.34786 -8.89,3.34081 -12.230799,0 L 5.4248409,111.11658 c -3.32317,-3.35845 -3.35139,-8.9394 -0.0106,-12.301375 L 98.088981,5.4490151 c 3.316109,-3.3267 8.914699,-3.33728 12.223749,-0.004 l 92.67828,93.3697099 c 3.31611,3.351395 3.33022,8.960565 0.007,12.304895"
     style="fill:#000000;fill-opacity:1;fill-rule:evenodd;stroke:none"
     id="path3240"
     inkscape:connector-curvature="0" />
  <path
     d="m 199.56203,107.64911 c 1.43227,-1.4605 1.43227,-3.92642 0,-5.39045 L 106.86611,8.9171551 c -1.44639,-1.43933 -3.88408,-1.47461 -5.33047,0.004 L 8.8609009,102.25913 c -1.43228,1.49931 -1.4605,3.8982 0.007,5.39398 l 92.6747291,93.35208 c 1.45345,1.4605 3.85587,1.4605 5.32342,0 l 92.69592,-93.35561"
     style="fill:#fecf33;fill-opacity:1;fill-rule:evenodd;stroke:none"
     id="path3244"
     inkscape:connector-curvature="0" />
  <path
     d="m 166.63075,91.432043 c 0,-2.9845 -1.74978,-5.245806 -5.75028,-7.57414 -1.53106,-0.874889 -1.97203,-1.456973 -1.97203,-2.476501 0,-1.382889 1.09714,-2.402417 2.48003,-2.402417 1.30881,0 2.32833,0.945445 2.40595,2.402417 l 2.83633,0 c -0.0741,-3.132667 -2.32833,-5.390445 -5.24228,-5.390445 -2.99156,0 -5.31989,2.402417 -5.31989,5.390445 0,1.823862 0.87489,3.421946 2.55058,4.586113 4.22276,2.846917 3.05859,2.042583 3.49251,2.480028 1.24177,0.948972 1.68275,1.820333 1.68275,2.9845 0,1.672167 -1.30881,3.132668 -2.91395,3.132668 -2.04258,0 -2.91747,-1.816806 -2.91747,-3.566584 l -2.91395,0 c 0,3.418417 2.1837,6.491112 5.83142,6.491112 3.20322,0 5.75028,-2.705806 5.75028,-6.057196 m -17.54717,-4.586112 c 0,1.601612 -0.1517,3.055057 -0.29633,4.36739 -0.28928,1.601612 -1.24178,2.988029 -2.98451,2.988029 l -2.48002,0 0,-14.933087 2.48002,0 c 1.30881,0 2.1837,0.656167 2.69523,2.113139 0.36336,0.871362 0.58561,3.132668 0.58561,5.464529 m 2.90689,-0.148166 c 0,-1.598084 -0.21167,-3.425473 -0.508,-4.949474 -0.35984,-2.113139 -1.23472,-3.718278 -2.4765,-4.593167 -0.73025,-0.578556 -1.60514,-0.800806 -3.35492,-0.800806 l -5.31284,0 0,20.760977 5.75381,0 c 1.16417,0 2.1837,-0.289278 2.91395,-0.9525 2.03905,-1.598084 2.9845,-4.656668 2.9845,-9.46503 m -16.09373,10.41753 0,-20.760977 -2.99156,0 0,12.460114 -5.67619,-12.460114 -2.9845,0 0,20.760977 2.9845,0 0,-13.910031 6.40644,13.910031 2.26131,0 z m -15.15181,0 0,-2.913945 -7.57414,0 0,-6.850946 4.29331,0 0,-2.836334 -4.29331,0 0,-5.245807 6.77334,0 0,-2.913945 -9.75784,0 0,20.760977 10.55864,0 z m -24.398116,0 0,-2.913945 -7.581196,0 0,-6.850946 4.300362,0 0,-2.836334 -4.300362,0 0,-5.245807 6.773335,0 0,-2.913945 -9.757836,0 0,20.760977 10.565697,0 z m -15.028337,0 0,-20.760977 -2.998611,0 0,12.460114 -5.711474,-12.460114 -2.984501,0 0,20.760977 2.984501,0 0,-13.910031 6.441724,13.910031 2.268361,0 z m -19.706171,-8.597197 -2.984501,0 1.453445,-5.969001 1.531056,5.969001 z m 5.168196,8.597197 -5.168196,-20.760977 -2.913945,0 -5.168196,20.760977 2.984501,0 1.382889,-5.683252 4.445001,0 1.453445,5.683252 2.984501,0 z m -14.492115,0 0,-2.769306 -7.577668,0 0,-17.991671 -2.984501,0 0,20.760977 10.562169,0 z"
     style="fill:#000000;fill-opacity:1;fill-rule:evenodd;stroke:none"
     id="path3284"
     inkscape:connector-curvature="0" />
  <path
     d="m 140.77919,133.44789 0,-2.91395 -7.57062,0 0,-6.84742 4.30037,0 0,-2.83633 -4.30037,0 0,-5.24933 6.77334,0 0,-2.91395 -9.76489,0 0,20.76098 10.56217,0 z m -14.63323,-5.75381 0,-4.29683 -5.31989,0 0,2.91041 2.32128,0 0,1.38642 c 0,2.1837 -0.7232,3.20322 -2.25072,3.20322 -1.60514,0 -2.62114,-1.09008 -3.06212,-3.12914 -0.28927,-1.60514 -0.44097,-3.42194 -0.44097,-5.17172 0,-2.4765 0.37395,-4.81189 0.9525,-5.83142 0.508,-1.016 1.31586,-1.52753 2.32834,-1.52753 1.4605,0 2.40594,0.94898 2.47297,2.33187 l 2.99861,0 c -0.15169,-3.05506 -2.413,-5.24581 -5.39397,-5.24581 -2.40595,0 -4.52262,1.60514 -5.24581,3.78883 -0.73025,1.9685 -0.94192,4.08164 -0.94192,6.99206 0,2.69522 0.43392,5.60917 1.08656,7.14022 1.01953,2.33187 2.84692,3.5807 5.31989,3.5807 2.10961,0 3.78883,-1.10772 4.58964,-2.92806 0.43392,-0.87136 0.58561,-1.74625 0.58561,-3.20322 m -17.56481,-9.46856 c 0,1.6757 -0.93486,2.62467 -2.69169,2.62467 l -3.05506,0 0,-5.24933 3.05506,0 c 1.60514,0 2.69169,1.01952 2.69169,2.62466 m 2.92453,15.22237 -2.99156,-10.19881 c 1.96145,-0.73025 2.99156,-2.54706 2.99156,-5.02356 0,-3.34786 -2.19428,-5.53861 -5.46453,-5.53861 l -6.187724,0 0,20.76098 2.980974,0 0,-9.76137 2.83986,0 2.76225,9.76137 3.06917,0 z m -15.158866,0 0,-2.91395 -7.57414,0 0,-6.84742 4.300362,0 0,-2.83633 -4.300362,0 0,-5.24933 6.773334,0 0,-2.91395 -9.757835,0 0,20.76098 10.558641,0 z m -15.098892,0 0,-20.76098 -2.995084,0 -3.880557,11.65931 -3.873501,-11.65931 -2.980973,0 0,20.76098 2.980973,0 0,-11.65226 3.873501,11.65226 3.880557,-11.65226 0,11.65226 2.995084,0 z"
     style="fill:#000000;fill-opacity:1;fill-rule:evenodd;stroke:none"
     id="path3288"
     inkscape:connector-curvature="0" />
  <path
     d="m 129.1481,151.78881 0,-2.76931 -10.56217,0 0,2.76931 3.79236,0 0,17.99167 2.98098,0 0,-17.99167 3.78883,0 z m -11.80042,0.14464 0,-2.91395 -10.56217,0 0,20.76098 2.98803,0 0,-9.76136 4.14867,0 0,-2.84339 -4.14867,0 0,-5.24228 7.57414,0 z m -14.0582,17.84703 0,-2.91395 -7.577666,0 0,-6.84741 4.307416,0 0,-2.84339 -4.307416,0 0,-5.24228 6.780396,0 0,-2.91395 -9.764897,0 0,20.76098 10.562167,0 z m -13.398501,0 0,-2.76578 -7.595307,0 0,-17.9952 -2.995084,0 0,20.76098 10.590391,0 z"
     style="fill:#000000;fill-opacity:1;fill-rule:evenodd;stroke:none"
     id="path3292"
     inkscape:connector-curvature="0" />
</svg>
