<?xml version="1.0" encoding="UTF-8" standalone="no"?>
<svg
   xmlns:dc="http://purl.org/dc/elements/1.1/"
   xmlns:cc="http://creativecommons.org/ns#"
   xmlns:rdf="http://www.w3.org/1999/02/22-rdf-syntax-ns#"
   xmlns:svg="http://www.w3.org/2000/svg"
   xmlns="http://www.w3.org/2000/svg"
   xmlns:sodipodi="http://sodipodi.sourceforge.net/DTD/sodipodi-0.dtd"
   xmlns:inkscape="http://www.inkscape.org/namespaces/inkscape"
   width="90.000313"
   height="90.000313"
   viewBox="0 0 254.00095 254.00087"
   version="1.1"
   id="svg2"
   inkscape:version="0.48.2 r9819"
   sodipodi:docname="AJAX1.svg">
  <metadata
     id="metadata62">
    <rdf:RDF>
      <cc:Work
         rdf:about="">
        <dc:format>image/svg+xml</dc:format>
        <dc:type
           rdf:resource="http://purl.org/dc/dcmitype/StillImage" />
        <dc:title></dc:title>
      </cc:Work>
    </rdf:RDF>
  </metadata>
  <defs
     id="defs60" />
  <sodipodi:namedview
     pagecolor="#ffffff"
     bordercolor="#666666"
     borderopacity="1"
     objecttolerance="10"
     gridtolerance="10"
     guidetolerance="10"
     inkscape:pageopacity="0"
     inkscape:pageshadow="2"
     inkscape:window-width="1280"
     inkscape:window-height="1004"
     id="namedview58"
     showgrid="false"
     fit-margin-top="0"
     fit-margin-left="0"
     fit-margin-right="0"
     fit-margin-bottom="0"
     inkscape:zoom="5.6568542"
     inkscape:cx="70.588624"
     inkscape:cy="47.775129"
     inkscape:window-x="-8"
     inkscape:window-y="-8"
     inkscape:window-maximized="1"
     inkscape:current-layer="svg2"
     showguides="true"
     inkscape:guide-bbox="true" />
  <!-- draw the bicycle -->
  <!-- RIGHT -->
  <!-- LANE -->
  <!-- ONLY -->
  <path
     d="M 250.38145,118.22288 135.77803,3.619461 c -4.82953,-4.8260013 -12.7247,-4.8260013 -17.55423,0 L 3.6168525,118.22288 c -4.82247,4.82953 -4.82247,12.7247 0,17.55775 L 118.2238,250.38406 c 4.82953,4.82247 12.7247,4.82247 17.55423,0 L 250.38145,135.78063 c 4.826,-4.83305 4.826,-12.72822 0,-17.55775"
     style="fill:#fecf33;fill-opacity:1;fill-rule:nonzero;stroke:none"
     id="path3532"
     inkscape:connector-curvature="0" />
  <path
     d="M 247.04804,119.29779 134.70239,6.9556814 c -4.23686,-4.2368623 -11.16894,-4.2368623 -15.40581,0 L 6.9544725,119.29779 c -4.24039,4.23687 -4.24039,11.16895 0,15.40581 L 119.29658,247.04925 c 4.23687,4.23686 11.16895,4.23686 15.40581,0 L 247.04804,134.7036 c 4.23686,-4.23686 4.23686,-11.16894 0,-15.40581"
     style="fill:#000000;fill-opacity:1;fill-rule:evenodd;stroke:none"
     id="path3552"
     inkscape:connector-curvature="0" />
  <path
     d="M 242.99781,121.85402 132.14794,11.007688 c -2.8328,-2.8328063 -7.46125,-2.8328063 -10.29405,0 L 11.004023,121.85402 c -2.8328005,2.83281 -2.8328005,7.46125 0,10.29406 L 121.85389,242.99794 c 2.8328,2.83281 7.46125,2.83281 10.29405,0 L 242.99781,132.14808 c 2.82928,-2.83281 2.82928,-7.46125 0,-10.29406"
     style="fill:#fecf33;fill-opacity:1;fill-rule:evenodd;stroke:none"
     id="path3556"
     inkscape:connector-curvature="0" />
  <path
     d="m 127.36461,188.19637 c -0.889,-19.685 -0.254,-45.97401 -21.336,-67.94502 l -7.489477,13.58901 c -1.14652,1.905 -2.03552,3.175 -3.94405,3.55953 -2.79047,0.50447 -5.45748,-1.27353 -6.096,-4.06753 L 76.434073,70.59434 139.17562,82.659343 c 2.79047,0.511528 4.699,3.302001 4.064,6.096002 -0.254,1.778001 -1.651,2.797529 -3.30553,3.813529 l -14.22048,7.743476 66.5445,66.42102 -19.68501,19.812 -30.47648,-30.47648 c 2.032,9.77548 3.17853,21.59001 3.556,31.87348 l 0,32.13101 -18.28801,0 0,-31.87701 z"
     style="fill:#000000;fill-opacity:1;fill-rule:evenodd;stroke:none"
     id="path3560"
     inkscape:connector-curvature="0" />
</svg>
