<?xml version="1.0" encoding="UTF-8" standalone="no"?>
<!-- Generator: Adobe Illustrator 12.0.1, SVG Export Plug-In  -->

<svg
   xmlns:dc="http://purl.org/dc/elements/1.1/"
   xmlns:cc="http://creativecommons.org/ns#"
   xmlns:rdf="http://www.w3.org/1999/02/22-rdf-syntax-ns#"
   xmlns:svg="http://www.w3.org/2000/svg"
   xmlns="http://www.w3.org/2000/svg"
   xmlns:sodipodi="http://sodipodi.sourceforge.net/DTD/sodipodi-0.dtd"
   xmlns:inkscape="http://www.inkscape.org/namespaces/inkscape"
   version="1.1"
   width="286.004"
   height="285.99625"
   viewBox="0 0 286.004 285.99625"
   enable-background="new 0 0 288 288"
   xml:space="preserve"
   id="svg2"
   inkscape:version="0.48.2 r9819"
   sodipodi:docname="AJAX1.svg"><metadata
   id="metadata28"><rdf:RDF><cc:Work
       rdf:about=""><dc:format>image/svg+xml</dc:format><dc:type
         rdf:resource="http://purl.org/dc/dcmitype/StillImage" /></cc:Work></rdf:RDF></metadata><sodipodi:namedview
   pagecolor="#ffffff"
   bordercolor="#666666"
   borderopacity="1"
   objecttolerance="10"
   gridtolerance="10"
   guidetolerance="10"
   inkscape:pageopacity="0"
   inkscape:pageshadow="2"
   inkscape:window-width="1280"
   inkscape:window-height="1004"
   id="namedview26"
   showgrid="false"
   fit-margin-top="0"
   fit-margin-left="0"
   fit-margin-right="0"
   fit-margin-bottom="0"
   inkscape:zoom="2.3177389"
   inkscape:cx="53.619262"
   inkscape:cy="130.33097"
   inkscape:window-x="-8"
   inkscape:window-y="-8"
   inkscape:window-maximized="1"
   inkscape:current-layer="svg2" />
<defs
   id="defs4">
</defs>
<path
   d="M 4.0904993,133.0755 133.0735,4.0935 c 5.462,-5.458 14.391,-5.458 19.853,0 l 128.981,128.982 c 5.462,5.458 5.462,14.388 0,19.846 l -128.981,128.982 c -5.462,5.457 -14.391,5.457 -19.853,0 L 4.0904993,152.9215 c -5.454,-5.458 -5.454,-14.388 0,-19.846 z"
   id="path6"
   style="fill:#ffd033;fill-opacity:1;stroke:none"
   inkscape:connector-curvature="0" />

<path
   clip-rule="evenodd"
   d="M 7.2014993,135.1275 135.1295,7.2085 c 4.329,-4.329 11.412,-4.329 15.741,0 l 127.926,127.919 c 4.329,4.333 4.329,11.413 0,15.742 l -127.926,127.924 c -4.329,4.329 -11.412,4.329 -15.741,0 L 7.2014993,150.8695 c -4.325,-4.329 -4.325,-11.409 0,-15.742"
   id="path10"
   inkscape:connector-curvature="0"
   style="fill:#000000;fill-rule:evenodd;stroke:none" />
<path
   clip-rule="evenodd"
   d="M 11.197499,139.0645 139.0625,11.2045 c 2.165,-2.161 5.71,-2.161 7.867,0 l 127.872,127.861 c 2.164,2.161 2.164,5.706 0,7.863 l -127.872,127.865 c -2.156,2.169 -5.702,2.169 -7.867,0 L 11.197499,146.9285 c -2.1649997,-2.158 -2.1649997,-5.703 0,-7.864"
   id="path12"
   inkscape:connector-curvature="0"
   style="fill:#ffd033;fill-opacity:1;fill-rule:evenodd;stroke:none" />
<path
   clip-rule="evenodd"
   d="m 160.5915,100.9645 -35.059,-0.039 0.062,-28.729 -31.110001,6.505 c -1.011,0.206 -1.41,0.33 -1.744,0.33 -2.083,-0.004 -3.99,-2.005 -3.99,-4.088 0,-0.83 -0.062,-1.451 0.923,-2.324 l 53.353001,-47.483 53.214,47.573 c 0.846,0.756 0.916,1.505 0.916,2.335 -0.008,2.165 -1.925,4.069 -4.093,4.065 -0.322,0 -0.384,-0.074 -1.16,-0.248 l -31.242,-7.091 -0.07,29.194"
   id="path14"
   inkscape:connector-curvature="0"
   style="fill:#000000;fill-rule:evenodd;stroke:none" />
<path
   clip-rule="evenodd"
   d="m 160.5915,185.2375 -35.059,0.038 0.062,28.729 -31.110001,-6.502 c -1.011,-0.209 -1.41,-0.334 -1.744,-0.334 -2.083,0.008 -3.99,2.01 -3.99,4.089 0,0.83 -0.062,1.451 0.923,2.328 l 53.353001,47.479 53.214,-47.572 c 0.846,-0.752 0.916,-1.501 0.916,-2.331 -0.008,-2.169 -1.925,-4.073 -4.093,-4.069 -0.322,0 -0.384,0.077 -1.16,0.248 l -31.242,7.091 -0.07,-29.194"
   id="path16"
   inkscape:connector-curvature="0"
   style="fill:#000000;fill-rule:evenodd;stroke:none" />
<path
   d="m 78.026499,178.5265 c -11.329,0 -19.209,-8.13 -19.702,-19.705 h 9.851 c 0.493,5.667 4.432,9.853 9.851,9.853 5.664,0 9.851,-4.434 9.851,-10.342 0,-7.39 -4.188,-13.546 -9.112,-13.546 h -4.927 v -9.604 h 4.188 c 2.463,0 3.447,-0.741 5.171,-2.708 1.971,-2.219 2.956,-4.926 2.956,-7.882 0,-5.419 -3.202,-8.868 -8.127,-8.868 -4.434,0 -7.143,2.711 -7.636,7.39 l -9.849,-1.23 c 0.983,-9.36 8.126,-16.009 17.485,-16.009 10.098,0 17.731,7.878 17.731,17.976 0,5.912 -1.724,10.59 -6.402,16.009 5.417,4.926 8.127,11.327 8.127,18.472 0,11.575 -8.127,20.194 -19.456,20.194"
   id="path18"
   inkscape:connector-curvature="0"
   style="fill:#000000;stroke:none" />
<path
   d="m 110.0385,178.0295 c -2.956,0 -5.666,-2.707 -5.666,-5.663 0,-2.955 2.709,-5.663 5.666,-5.663 2.957,0 5.664,2.708 5.664,5.663 0,2.956 -2.707,5.663 -5.664,5.663"
   id="path20"
   inkscape:connector-curvature="0"
   style="fill:#000000;stroke:none" />
<path
   d="m 152.1505,156.6065 c 0,7.141 -3.941,12.067 -9.849,12.067 -5.912,0 -9.853,-4.927 -9.853,-12.067 0,-7.635 3.941,-12.561 9.853,-12.561 5.908,0.001 9.849,4.927 9.849,12.561 m 9.605,0 c 0,-6.894 -2.215,-13.298 -6.648,-17.483 3.692,-3.697 5.663,-8.868 5.663,-14.531 0,-10.838 -7.634,-18.717 -18.468,-18.717 -11.083,0 -18.717,7.878 -18.717,18.717 0,5.663 1.971,10.589 5.664,14.531 -4.434,4.434 -6.649,10.59 -6.649,17.483 0,5.419 1.722,10.59 4.426,14.531 3.452,4.921 8.379,7.389 15.276,7.389 5.412,0 9.605,-1.482 12.805,-4.679 4.185,-3.94 6.648,-10.588 6.648,-17.241 z m -10.834,-32.014 c 0,5.663 -3.701,9.356 -8.62,9.356 -5.179,0 -8.868,-3.693 -8.868,-9.356 0,-5.171 3.689,-8.868 8.868,-8.868 4.919,10e-4 8.62,3.697 8.62,8.868 z"
   id="path22"
   inkscape:connector-curvature="0"
   style="fill:#000000;stroke:none" />
<path
   clip-rule="evenodd"
   d="m 232.4015,178.4335 v -35.318 c 0,-11.73 -7.149,-16.734 -14.302,-17.161 -4.718,-0.287 -10.152,0.14 -13.872,6.148 -2.859,-4.29 -6.292,-6.148 -10.722,-6.148 -2.289,0 -5.722,0 -10.443,4.146 v -3.006 h -9.577 v 51.338 h 9.864 v -35.318 c 0,-5.865 3.003,-7.867 6.575,-8.15 5.008,0 8.011,1.571 8.011,8.15 v 35.318 h 9.864 v -35.318 c 0,-5.865 2.863,-8.15 6.583,-8.15 5.147,0 7.863,1.571 7.863,8.15 v 35.318 h 10.156"
   id="path24"
   inkscape:connector-curvature="0"
   style="fill:#000000;fill-rule:evenodd;stroke:none" />
</svg>