<?xml version="1.0" encoding="UTF-8" standalone="no"?>
<!-- Generator: Adobe Illustrator 12.0.1, SVG Export Plug-In  -->

<svg
   xmlns:dc="http://purl.org/dc/elements/1.1/"
   xmlns:cc="http://creativecommons.org/ns#"
   xmlns:rdf="http://www.w3.org/1999/02/22-rdf-syntax-ns#"
   xmlns:svg="http://www.w3.org/2000/svg"
   xmlns="http://www.w3.org/2000/svg"
   xmlns:sodipodi="http://sodipodi.sourceforge.net/DTD/sodipodi-0.dtd"
   xmlns:inkscape="http://www.inkscape.org/namespaces/inkscape"
   version="1.1"
   width="2942.8635"
   height="2942.8538"
   viewBox="0 -0.764 2942.8636 2942.8538"
   enable-background="new 0 -0.764 289 256"
   xml:space="preserve"
   id="svg2"
   inkscape:version="0.48.2 r9819"
   sodipodi:docname="AJAX5.svg"><metadata
   id="metadata26"><rdf:RDF><cc:Work
       rdf:about=""><dc:format>image/svg+xml</dc:format><dc:type
         rdf:resource="http://purl.org/dc/dcmitype/StillImage" /><dc:title></dc:title></cc:Work></rdf:RDF></metadata><sodipodi:namedview
   pagecolor="#ffffff"
   bordercolor="#666666"
   borderopacity="1"
   objecttolerance="10"
   gridtolerance="10"
   guidetolerance="10"
   inkscape:pageopacity="0"
   inkscape:pageshadow="2"
   inkscape:window-width="1280"
   inkscape:window-height="1004"
   id="namedview24"
   showgrid="false"
   fit-margin-top="0"
   fit-margin-left="0"
   fit-margin-right="0"
   fit-margin-bottom="0"
   inkscape:zoom="0.20811725"
   inkscape:cx="35.913651"
   inkscape:cy="1051.2344"
   inkscape:window-x="-8"
   inkscape:window-y="-8"
   inkscape:window-maximized="1"
   inkscape:current-layer="svg2" />
<defs
   id="defs4">
</defs>









<path
   inkscape:connector-curvature="0"
   style="fill:#ffd033;fill-rule:nonzero;stroke:none"
   d="m 1566.8824,2902.5554 c -52.7125,52.7125 -138.2,52.7125 -190.9125,0 L 39.540806,1566.1179 c -52.720875,-52.7125 -52.720875,-138.2 -0.0012,-190.9125 L 1375.9699,38.777708 c 52.7125,-52.7223 138.2,-52.7223 190.9125,0 L 2903.3199,1375.2054 c 52.725,52.7125 52.725,138.2 0,190.9125 L 1566.8824,2902.5554 z"
   id="path11" /><path
   inkscape:connector-curvature="0"
   style="fill:#000000;fill-rule:nonzero;stroke:none"
   d="M 2839.6906,1502.4885 1503.2531,2838.926 c -17.5375,17.5375 -46.0875,17.5375 -63.6375,0 L 103.17969,1502.4885 c -17.545134,-17.55 -17.545134,-46.0875 0,-63.6375 L 1439.6156,102.41521 c 17.55,-17.543802 46.1,-17.543802 63.6375,0 L 2839.6906,1438.851 c 17.5375,17.55 17.5375,46.0875 0,63.6375 z M 2879.4656,1399.076 1543.0281,62.641108 c -39.475,-39.4776 -103.7125,-39.4776 -143.1875,0 L 63.404306,1399.076 c -39.47625,39.475 -39.47625,103.7125 0.0013,143.1875 L 1399.8406,2878.701 c 39.475,39.475 103.7125,39.475 143.1875,0 L 2879.4656,1542.2635 c 39.475,-39.475 39.475,-103.7125 0,-143.1875 z"
   id="path13" /><path
   style="fill:#000000;fill-rule:evenodd;stroke:none"
   d="m 1124.6548,1135.7679 c 3.2138,11.1688 19.6363,11.0125 28.5325,9.3275 15.2838,-2.9 30.4125,-4.2725 45.775,-6.1137 13.835,-1.6475 25.28,-8.505 37.8988,-13.835 12.62,-5.2913 23.5887,-10.66 32.5262,-21.36 8.3125,-9.9538 16.8125,-21.8288 28.45,-28.1788 12.7375,-6.9362 25.325,-11.5612 36.45,-21.2025 10.9,-9.445 21.95,-19.595 32.025,-29.8637 9.8,-9.915 14.4625,-21.32 20.3,-33.66502 5.8375,-12.38375 13.4,-21.83 13.8,-35.93875 0.1125,-3.72375 -1.225,-29.7075 -5.8,-29.62875 -3.3375,0.0387 -7.525,29.35375 -8.6625,33.43 -3.8875,13.6 -8.9375,26.415 -15.8,38.8 -6.8125,12.22752 -16.7,23.31872 -25.1625,34.44872 -6.1875,8.1913 -18.575,19.8713 -29.3875,21.0863 -14.9375,1.6837 16.8125,-60.31627 9.9875,-62.04127 -5.2875,-1.33125 -17.325,22.92747 -19.275,26.96497 -6.1125,12.6975 -10.1125,26.18 -15.875,39.0338 -5.4875,12.3075 -14.5375,24.455 -25.1625,32.7637 -9.8375,7.7213 -24.1412,6.8588 -24.8862,-7.6812 -0.3538,-6.9375 1.6062,-13.3638 0.5087,-20.34 -1.1762,-7.055 -3.4487,-13.9525 -5.8387,-20.6538 -2.47,-6.8587 -5.9963,-17.755 -6.7413,-4.0762 -1.5275,26.5712 1.1363,56.1225 -18.145,77.9125 -14.5412,16.46 -20.7712,5.6825 -22.8875,-11.0913 -0.7062,-5.1737 -8.82,-33.9787 -12.5425,-19.4387 -4.31,17.01 7.055,28.845 -9.7587,41.5437 -7.21,5.525 -12.8163,6.8963 -21.79,6.23 -4.625,-0.3125 -17.1263,-3.2125 -18.5388,3.5675 z m -142.61621,-11.64 c 3.2525,-11.0125 -9.525,-16.1475 -18.10625,-15.795 -13.875,0.6663 -26.8075,-0.5087 -40.60375,-2.0762 -12.30625,-1.4113 -22.69125,-5.2125 -28.72625,-16.7738 -3.64501,-7.0162 -8.03501,-32.6862 -19.28251,-32.9212 -7.25,-0.1575 1.01875,21.2025 2.66375,25.8662 3.45,9.6013 13.40375,25.2 6.9775,35.2713 -6.6625,10.4262 -23.985,7.9962 -33.50875,3.9987 -5.64375,-2.39 -10.385,-5.605 -14.50125,-10.0725 -3.09625,-3.41 -5.36875,-12.2287 -9.6025,-14.07 -9.95375,-4.35 -5.29125,10.8963 -3.2125,15.325 4.78,10.0325 9.015,24.1413 -6.2325,27.5513 -12.38375,2.8212 -24.06375,-7.6038 -34.2925,-12.6588 -5.2125,-2.5475 -26.885,-5.1737 -18.69375,6.5438 8.19125,11.7187 19.2025,15.8337 32.49,19.2437 14.30375,3.6063 23.51375,8.1913 38.0925,2.3125 14.30625,-5.7612 28.33625,-11.7587 42.87625,-16.735 13.87375,-4.7425 28.45376,-5.135 42.60251,-8.23 10.77625,-2.3512 21.43625,-6.545 32.5275,-6.9375 7.21125,-0.2737 23.24125,5.8013 28.5325,0.1575 z m 311.72371,-26.5325 c 29.7875,-1.8825 58.7125,-6.075 88.6125,-4.1162 28.775,1.8812 55.3375,12.4637 80.9375,25.005 28.1,13.7962 55.6125,28.7662 84.1,41.8175 27.75,12.6975 57.15,19.0862 86.4125,27.3562 27.7125,7.7975 52.4001,11.6788 81.175,7.7975 29.5875,-3.9575 60.7875,-6.3487 89.5875,-14.1475 28.4125,-7.76 52.9875,-18.6937 83.25,-16.0687 28.8375,2.47 55.9975,7.6825 80.1725,24.495 47.3875,32.9212 89.2,84.6887 110.4,138.1512 10.125,25.475 21.9125,55.5 11.8,81.95 -10.65,27.825 -2.7,58.4375 3.0625,86.3375 5.8,28.175 11.2,56.7875 13.6,85.4375 2.2375,27.4 -3.525,61.5625 9.325,86.6125 12.3125,23.9875 38.8,42.0875 42.6375,70.5 1.9625,14.7375 -2.15,29.325 -1.05,44.0625 1.0125,13.7126 4.8125,26.9251 7.2,40.4376 5.4125,30.5375 10.425,61.4125 18.7375,91.325 4.0375,14.575 9.1,28.4125 15.7625,42.0125 5.5625,11.4375 14.4125,24.175 12.4625,37.4625 -1.725,11.3625 -13.1,18.4625 -15.0125,30.6125 -2.075,13.4425 0.5875,26.3425 3.2875,39.3925 5.25,25.5125 -24.1,47.7375 -47.8875,44.4375 -8.625,-1.25 -29.0875,2 -35.1125,-4.975 -7.3375,-8.5875 -0.675,-27.5125 1.4,-37.075 5.7625,-26.575 26.5375,-46.9925 29.0125,-74.555 2.575,-28.6 -12.6625,-56.625 -20.6625,-83.5125 -8.8125,-29.75 -17.0875,-59.65 -26.1375,-89.3125 -4.2375,-13.9875 -8.7,-26.3 -17.325,-38.2876 -8.575,-11.875 -17.1625,-22.575 -22.1375,-36.575 -4.825,-13.6375 -4.2375,-29.075 -9.9625,-42.4 -5.9125,-13.6375 -14.15,-23.55 -24.6125,-33.9 -20.4875,-20.1875 -36.4875,-43.1875 -51.0625,-68 -5.3625,-9.1375 -31.7375,-67.9625 -47.3725,-46.6 -5.725,7.875 -3.225,27.9875 -3.225,37.15 0,14.55 0.2375,29.2375 2.275,43.7875 4.35,30.25 9.6,57.65 27.1975,83.125 7.2875,10.6125 19.7875,21.35 20.15,34.9125 0.3125,12.3125 -7.175,24.775 -11.325,36.0626 -10.8625,29.55 -18.225,59.25 -23.3975,90.2875 -2.35,14.3125 -4.2375,28.7375 -6.3125,43.075 -2.075,14.425 -5.9125,29.0875 -5.95,43.7 -0.087,15.9125 0.9,28.65 -8.275,42.325 -7.525,11.1375 -21.4,17.7625 -21.7125,32.4175 -0.275,15.4 1.8,25.125 -7.2875,38.875 -5.6875,8.5125 -21.7125,17.725 -31.625,20.025 -10.15,2.325 -29.9125,6.9375 -37.0375,-2.1125 -2.55,-3.2125 -2.2375,-9.325 -7.2875,-9.25 -3.725,0.075 -5.3,5.175 -10.1125,4.1625 -11.25,-2.275 -7.3375,-15.675 -2.0875,-21.4375 10.3875,-11.325 20.9375,-22.075 30.5375,-34.1 15.7875,-19.8425 37.7375,-44.0925 40.25,-70.3175 3.0125,-31.35 4.5,-62.9 6.4625,-94.375 1.6875,-27.5875 3.725,-56.475 -3.1375,-83.55 -7.1625,-28.3751 -19.9875,-55.1126 -35.275,-80.0001 -14.4125,-23.35 -34.4375,-45.9625 -42.475,-72.4625 -1.9625,-6.625 -3.5625,-13.325 -5.0125,-20.0625 -0.4375,-1.9625 -0.2,-8.3875 -1.5375,-9.45 -1.6,-1.175 -11.3625,1.575 -13.3625,1.85 -14.0625,1.9125 -28.175,3.9125 -42.4,4.8125 -31.825,2.125 -61.9625,-0.5875 -93.6,-3.8 -29.4625,-2.9375 -56.9,3.45 -84.6875,12.4625 -13.675,4.475 -28.3375,10.3875 -42.875,11.0625 -14.5,0.6625 -28.8875,-1.5375 -43.3125,-0.7125 -11.9875,0.6625 -21.275,7.6 -22.1375,19.825 -0.975,14.55 0.7125,26.8125 -5.0125,40.7625 -11.2125,27.1625 -24.15,48.2875 -19.125,78.8125 4.6625,28.0626 17.05,55.4626 25.7875,82.3876 9.675,29.7 17.7875,59.7625 26.4875,89.6625 4.3125,14.825 8.4625,29.675 13.7125,44.1375 3.375,9.325 14.975,21.675 14.275,31.35 -0.4,5.4875 -4.825,11.4875 -6.7,16.5425 -2.5875,6.8625 -2.75,14.7375 -2.55,21.95 0.3125,9.875 7.05,32.8 0.3125,40.8 -6.7875,8.15 -24.1375,10.225 -34.1,10.025 -15.2,-0.15 -18.4125,2.4 -24.925,16.775 -12.7375,28.15 -36.45,28.65 -63.8375,29.95 -8.825,0.3875 -22.65,6.775 -26.3375,-4.15 -4.975,-14.9 -7.9625,-2.7875 -18.075,-5.65 -18.4125,-5.1 19.175,-55.375 26.575,-60.3875 10.9,-7.375 28.3375,-9.575 35.975,-20.7375 6.975,-10.1875 6.4,-25.5875 6.7125,-37.43 0.8625,-31.1625 -2.3625,-61.375 -7.025,-92.0625 -8.85,-58.875 -17.275,-118.9875 -31.4625,-176.8001 -7.1,-28.8375 -15.325,-57.25 -19.675,-86.65 -2.2,-14.8875 7.4875,-27.275 6.35,-40.9875 -1.025,-12.7375 -8.35,-27.9125 -17.8,-36.65 -8.975,-8.3125 -19.0875,-16.375 -25.75,-26.9625 -2.775,-4.475 -8.85,-27.0875 -16.775,-24.775 -8.0625,2.4375 0.6,25.1625 3.1,29.5125 6.825,12.1125 18.425,20.625 26.8125,31.55 5.9125,7.7625 20.2625,21.2 19.75,31.475 -0.625,11.6 -11.45,11.7625 -18.85,6.8125 -11.525,-7.675 -19.4,-19.6625 -30.3375,-27.825 -9.9125,-7.4 -24.575,-4.5 -32.8375,-13.275 -19.6,-20.9375 0.4625,-52.25 -19.6,-72.3125 -8.935,-8.975 -3.0175,23.7125 -2.7037,26.6125 0.9787,9.2875 6.2312,28.1 -2.0775,35.225 -11.17,9.525 -24.6513,-7.3625 -29.825,-15.55 -7.8775,-12.4625 -8.1125,-26.0625 -10.8163,-40.1 -2.6262,-13.5125 -8.5437,-28.6125 -13.2462,-41.625 -4.35,-12.1 -19.6363,-22.4125 -29.4725,-30.05 -23.9463,-18.625 -31.8625,-51.775 -43.3075,-78.975 -4.6238,-11.175 -10.6988,-17.7875 2.3912,-23.125 12.7363,-5.1375 23.005,-15.2 27.7075,-28.5625 1.295,-3.725 2.94,-22.8125 -3.2525,-20.85 -2.2725,0.7 -5.7612,14.8125 -7.3687,17.75 -3.1738,5.5625 -7.4063,10.85 -12.305,15.0125 -10.15,8.7 -23.8675,12.4625 -34.41,20.85 -11.6,9.2 -13.0113,17.2 -9.4063,31.3125 2.5475,10.1125 5.3313,22.175 -1.3312,31.35 -7.3688,10.1125 -22.5363,10.975 -32.8425,17.4 -11.0138,6.8625 -21.4763,18.025 -35.58751,14.2625 -13.95125,-3.675 -22.69125,-13.55 -38.3675,-12.15 -13.835,1.225 -14.8925,2.5875 -19.98875,-11.475 -2.39,-6.55 -4.34875,-10.6625 -10.81625,-13.875 -5.4875,-2.7 -11.20875,-3.375 -14.69625,-8.975 -7.09375,-11.4 2.82125,-27.2375 3.91875,-39.275 1.25375,-13.675 -0.98,-27.55 0.39125,-41.225 1.41125,-13.7125 6.6625,-27.2375 13.13,-39.425 6.975,-13.2125 14.54,-21.1625 14.81375,-36.8 0.31375,-13.6425 6.4275,-26.5362 9.79875,-39.5862 3.80125,-14.5788 0.90125,-29.59 2.86,-44.4038 0.785,-6.0362 13.05125,-26.4937 10.3075,-30.4512 -4.27125,-6.1538 -30.60875,4.9362 -36.48625,5.8775 -6.78125,1.0975 -13.64,-0.5088 -20.42,-0.5875 -7.91625,-0.04 -14.4225,2.665 -22.02501,4.0762 -15.3625,2.8213 -29.2375,7.72 -43.69875,13.52 -12.61875,5.0563 -25.39625,10.5038 -39.1525,7.4075 -12.11,-2.7037 -27.12,-6.5437 -37.50625,-13.4037 -10.9725,-7.2888 -22.41625,-12.8538 -33.43,-19.7525 -5.80125,-3.6838 -10.62125,-8.3863 -16.77375,-11.5225 -5.44875,-2.8213 -12.07,-4.4675 -15.285,-10.2675 -5.8,-10.465 1.17625,-22.8488 11.875,-26.3763 12.4625,-4.0762 21.28125,5.7225 31.35375,10.8563 5.72125,2.94 11.9525,4.82 17.75375,7.485 5.8775,2.6662 13.285,7.9175 19.63375,8.5837 4.35,0.51 3.60625,2.155 4.23375,-0.5875 0.78375,-3.41 -7.4075,-15.2075 -9.6025,-18.0287 -16.695,-21.3988 -34.60625,-43.11 -49.3425,-66.155 -9.0525,-14.1488 -11.05125,-27.9425 -13.95125,-44.24752 -1.135,-6.035 -1.41125,-12.345 -2.86125,-18.3025 -1.29375,-5.25125 -4.82125,-9.71875 -6.075,-14.85375 -1.41125,-6.035 0.0788,-11.7175 -2.155,-17.83125 -2.5475,-6.82 -6.7025,-12.7375 -8.23,-19.94875 -1.45125,-6.74125 -3.0175,-25.35625 7.68125,-25.59125 3.88,-0.08 8.54375,4.545 11.67875,6.23 3.60625,1.92125 7.015,0.70625 10.73875,1.56875 11.09125,2.4675 15.52,14.1075 15.285,24.49375 -0.1175,4.86 -3.29125,10.7 -1.255,15.4425 1.9225,4.50625 7.95625,7.3675 11.0125,11.2075 5.88,7.4075 17.32375,23.71125 14.30625,4.19375 -2.03875,-13.365 -4.35125,-25.5125 -10.54375,-37.74125 -3.33125,-6.58375 -7.21,-13.2075 -9.83625,-20.105 -1.48875,-3.95875 -5.17375,-13.83375 -5.09625,-17.63625 0.11875,-6.38875 10.3475,-19.0475 17.01,-17.3625 8.3475,2.11625 14.89375,25.59375 18.185,32.64625 2.23375,4.74375 12.2275,18.695 15.6375,6.9375 3.0175,-10.425 -2.195,-29.82375 -5.29125,-40.0925 -3.64375,-12.07125 -26.7275,-58.43501 5.645,-52.83001 26.45375,4.54626 19.4375,44.52126 41.11,55.10376 7.83875,3.80125 1.29375,-15.56 1.49,-19.165 0.31375,-5.76125 -1.37125,-23.555 5.72125,-26.10125 10.85625,-3.92 16.93125,5.84 16.97125,15.3625 0.0387,4.5075 2.43,24.18 9.87625,12.54125 4.74125,-7.36875 -5.645,-19.87 -3.48875,-29.2375 3.33125,-14.61876 8.81875,-7.36751 17.165,-2.0375 7.9575,5.095 13.20876,-2.625 20.89001,0.19625 9.915,3.605 9.0925,19.4 13.99125,26.885 4.43,-5.48625 -1.3325,-21.32 7.76,-24.1425 9.915,-3.05625 14.6175,17.3225 16.42125,23.00625 4.19375,13.16875 8.7,24.5725 6.46625,38.56375 -2.07625,13.01125 -4.42875,26.2975 -6.74,39.27125 -2.35125,13.12875 -11.99375,22.92625 -15.71625,35.54625 -3.80125,12.89375 -5.05625,25.82625 -5.87875,39.15125 -0.62625,10.38627 -4.42875,27.15997 0.74375,36.56627 5.68375,10.5037 3.25375,22.6525 6.78125,33.705 1.215,3.88 11.9925,24.7687 18.4975,17.5962 2.50875,-2.7425 -1.92,-8.3475 -2.625,-10.6987 -1.725,-5.9175 -1.92,-12.8938 -2.15625,-19.0075 -0.5475,-13.9138 -2.5075,-27.3175 1.2175,-40.8775 1.21375,-4.1925 3.40875,-8.3088 3.525,-12.61877 0.15625,-5.84 -4.15375,-10.8175 -1.5675,-16.89125 3.80125,-8.89625 20.69375,-9.015 28.4525,-5.91875 13.09,5.2125 17.48,17.4 25.3575,27.86497 8.07376,10.7388 12.38496,21.8688 17.47996,34.2138 2.195,5.4087 2.7425,11.2487 5.1725,16.54 1.5288,3.37 8.3875,14.03 12.2275,14.9312 4.43,1.0588 5.4875,-2.43 9.0138,-4.7812 3.255,-2.155 6.6237,-1.685 10.1125,-2.2338 10.9737,-1.645 18.3025,-7.6425 29.9812,-7.7987 5.9963,-0.1175 10.8175,0.3912 16.6563,1.8412 5.1737,1.2938 4.3112,-2.7425 5.2525,-6.4662 2.2725,-9.4063 3.4875,-20.4575 6.3087,-29.4713 1.2938,-4.2737 5.0563,-6.585 7.055,-10.6212 2.195,-4.5075 1.6863,-9.44502 5.4475,-13.32502 7.33,-7.6425 7.25,-21.4375 14.0313,-30.33375 10.0312,-13.20875 42.2475,-52.55625 57.2187,-22.92875 5.2913,10.46375 -5.4487,21.86875 -2.39,33.235 1.4888,5.52625 5.6438,9.79875 7.6025,15.09 2.4688,6.6625 2.9788,13.95122 4,20.96502 1.8388,12.66 5.1713,25.5537 -1.06,37.4687 -2.8225,5.4475 -6.1537,8.935 -5.33,15.3225 0.3913,3.0188 3.84,12.9738 8.2688,12.5425 3.1362,-0.3137 7.2112,-9.6025 8.6625,-12.0325 3.9175,-6.7012 2.3112,-13.5987 2.6637,-20.9675 0.5875,-13.52 2.0388,-25.8262 -0.9012,-39.2687 -1.9588,-9.01502 -6.5838,-26.69002 6.2325,-31.08002 14.3437,-4.9375 10.62,12.9725 11.1287,19.91 0.51,7.79872 3.4875,26.10122 13.64,26.96252 15.0125,1.255 17.325,-21.31877 17.9875,-31.15627 0.475,-6.46625 -2.975,-11.7575 -4.1875,-17.87125 -1.3,-6.38875 -0.4,-12.9725 -2,-19.32125 -3.375,-13.44375 -10.625,-26.25875 -12.4275,-39.8975 -2.0787,-15.71625 0.9,-28.88375 5.8,-43.7375 1.6025,-4.9775 1.7275,-9.3275 1.965,-14.50125 0.3125,-5.72125 3.325,-9.95375 4.7,-15.36125 1.4875,-5.645 0.825,-11.72 2.075,-17.44125 1.1375,-5.25125 5.5625,-10.03251 7.9125,-14.85376 2.675,-5.525 2.825,-12.34499 9.5625,-10.54375 4.4375,1.1775 10.5875,10.81875 13.325,14.62 5.9625,8.19126 8.825,-13.7175 10.15,-15.4425 7.175,-9.01375 22.025,-5.29 32.2625,-7.99375 11.25,-3.01875 22.9625,-5.9575 27.475,8.66 3.6,11.60125 -9.375,7.44625 -9.875,15.6375 -0.325,4.90001 6.975,13.48251 8.3,5.44876 0.9,-5.84001 10.4625,-20.96876 17.875,-17.40126 24.725,11.91375 -1.1,54.75001 -2.425,72.23001 -0.9875,12.58 10.3,11.83625 15.7875,3.05625 2.475,-4.07625 2.2,-6.81875 6.7375,-9.24875 3.6125,-1.96 7.6875,-0.47125 10.0375,-4.46875 1.65,-2.9775 -0.5125,-8.425 0,-11.79625 0.7,-5.25125 3.4125,-11.9925 7.4,-15.55875 8.1625,-7.29 12.625,0.5875 15.4875,8.77875 9.7625,27.9825 -2,59.2975 -6.5,87.67125 -4.5125,28.375 -13.45,57.18 -28.5,81.71372 -11.5625,18.93 -29.6625,33.5888 -45.1875,49.0688 -7.3625,7.3287 -19.2375,9.3662 -28.175,14.4612 -10.15,5.7613 -17.7125,14.3063 -25.9125,22.4575 z M 1170.3536,990.32793 c -21.9875,-12.58 -27.9838,37.58377 -27.63,49.69497 0.1175,3.5263 1.92,23.75 7.9162,22.495 6.8588,-1.41 1.8413,-21.2025 3.0575,-25.6312 7.72,-27.7075 23.0838,17.0875 29.8238,13.6787 5.2912,-2.665 -1.0188,-23.5537 -2.7038,-27.7475 -3.6062,-8.8962 -3.135,-26.41497 -10.4637,-32.48997 z m -217.27876,33.86127 c -8.3075,11.2087 -2.58625,33.6662 -1.0175,47.1087 1.17375,10.4638 3.64375,8.935 10.5025,13.795 5.055,3.5663 7.565,14.11 13.95125,14.6575 1.68625,0.1175 5.09625,3.41 6.115,3.0563 1.99875,-0.665 2.82125,-8.5038 2.7425,-10.3063 -0.5875,-12.8162 -14.10875,-26.69 -18.81125,-38.055 -4.27125,-10.465 -8.54375,-19.9875 -13.4825,-30.2562 z m 128.86126,169.0725 c -8.1513,-5.7213 -14.6563,-5.8013 -23.1225,-0.98 -6.27,3.5675 -11.4038,9.4062 -6.505,16.8925 8.975,13.5987 28.7275,-4.7038 29.6275,-15.9125 z m 350.4887,737.4613 c 2.7125,-8.4625 -4,-7.8375 -5.3625,0 -2.275,12.5875 2.5,29.2375 3.6,41.975 1.4125,15.45 7.9125,30.0625 13.8375,43.7 0.6625,1.4875 6,15.055 7.3625,9.1 2.4,-10.3875 -3.8,-27.675 -6.0375,-37.9 -3.675,-16.8125 -16.1375,-39.3125 -13.4,-56.875 z m -403.7487,-539.6251 c -7.2113,-3.725 -11.6,-0.625 -12.895,6.7875 -0.5088,2.7 -2.0763,5.1625 0.7462,6.925 2.8213,1.775 3.33,-2.15 5.6825,-1.7625 3.8013,0.6 9.3263,7.4875 12.9725,2.1625 2.5863,-3.7625 -4.0362,-11.45 -6.5062,-14.1125 z m -26.3763,-283.1562 c 14.0313,4.82 12.0325,-24.0238 5.565,-28.845 -5.055,-3.7625 -5.1337,-0.6663 -5.2125,5.5262 -0.077,5.76 -4.42871,19.125 -0.3525,23.3188"
   id="path15"
   inkscape:connector-curvature="0" /></svg>