<?xml version="1.0" encoding="UTF-8" standalone="no"?>
<!-- Generator: Adobe Illustrator 12.0.1, SVG Export Plug-In  -->

<svg
   xmlns:dc="http://purl.org/dc/elements/1.1/"
   xmlns:cc="http://creativecommons.org/ns#"
   xmlns:rdf="http://www.w3.org/1999/02/22-rdf-syntax-ns#"
   xmlns:svg="http://www.w3.org/2000/svg"
   xmlns="http://www.w3.org/2000/svg"
   xmlns:sodipodi="http://sodipodi.sourceforge.net/DTD/sodipodi-0.dtd"
   xmlns:inkscape="http://www.inkscape.org/namespaces/inkscape"
   version="1.1"
   width="286.66074"
   height="286.66476"
   viewBox="-1 -0.999 286.66074 286.66476"
   enable-background="new -1 -0.999 289 290"
   xml:space="preserve"
   id="svg2"
   inkscape:version="0.48.2 r9819"
   sodipodi:docname="AJAX1.svg"><metadata
   id="metadata30"><rdf:RDF><cc:Work
       rdf:about=""><dc:format>image/svg+xml</dc:format><dc:type
         rdf:resource="http://purl.org/dc/dcmitype/StillImage" /></cc:Work></rdf:RDF></metadata><sodipodi:namedview
   pagecolor="#ffffff"
   bordercolor="#666666"
   borderopacity="1"
   objecttolerance="10"
   gridtolerance="10"
   guidetolerance="10"
   inkscape:pageopacity="0"
   inkscape:pageshadow="2"
   inkscape:window-width="1280"
   inkscape:window-height="1004"
   id="namedview28"
   showgrid="false"
   fit-margin-top="0"
   fit-margin-left="0"
   fit-margin-right="0"
   fit-margin-bottom="0"
   inkscape:zoom="1.6275862"
   inkscape:cx="146.76633"
   inkscape:cy="139.0328"
   inkscape:window-x="-8"
   inkscape:window-y="-8"
   inkscape:window-maximized="1"
   inkscape:current-layer="svg2" />
<defs
   id="defs4">
</defs>
<path
   d="M 3.09875,132.38875 132.37975,3.1057458 c 5.469,-5.473 14.42,-5.473 19.894,0 l 129.283,129.2830042 c 5.472,5.47 5.472,14.423 0,19.89 l -129.283,129.283 c -5.474,5.472 -14.425,5.472 -19.894,0 l -129.281,-129.284 c -5.465,-5.466 -5.465,-14.419 0,-19.889 z"
   id="path6"
   style="fill:#ffd033;stroke:none;fill-opacity:1"
   inkscape:connector-curvature="0" />

<path
   clip-rule="evenodd"
   d="M 6.22175,134.44075 134.44075,6.2207458 c 4.337,-4.338 11.442,-4.338 15.786,0 l 128.212,128.2200042 c 4.344,4.344 4.344,11.44 0,15.777 l -128.213,128.227 c -4.344,4.335 -11.448,4.335 -15.786,0 l -128.218,-128.227 c -4.339,-4.337 -4.339,-11.433 0,-15.777"
   id="path10"
   inkscape:connector-curvature="0"
   style="fill:#000000;fill-rule:evenodd;stroke:none" />
<path
   clip-rule="evenodd"
   d="m 10.22475,138.39175 128.163,-128.162004 c 2.16,-2.1690002 5.722,-2.1690002 7.889,0 l 128.157,128.162004 c 2.167,2.166 2.167,5.716 0,7.882 l -128.158,128.162 c -2.167,2.167 -5.729,2.167 -7.889,0 l -128.162,-128.162 c -2.167,-2.166 -2.167,-5.717 0,-7.882"
   id="path12"
   inkscape:connector-curvature="0"
   style="fill:#ffd033;fill-rule:evenodd;stroke:none;fill-opacity:1" />
<path
   d="m 178.49275,129.75775 c -0.194,-0.31 -1.365,-2.16 -1.672,-2.648 -6.916,5.927 -10.323,14.548 -10.323,26.37 0,0.264 0.003,0.531 0.007,0.799 0.132,-0.02 0.975,-0.148 1.322,-0.2 -0.026,-0.521 -0.048,-1.039 -0.048,-1.558 0,-8.673 4.011,-17.225 10.714,-22.763 z"
   id="path14"
   inkscape:connector-curvature="0"
   style="fill:none" />
<path
   d="m 197.21175,132.06675 c -2.813,0 -5.841,0.713 -8.588,1.955 0.401,0.583 5.214,7.561 5.408,7.843 0.415,-0.069 3.312,-0.553 3.312,-0.553 6.026,0 10.93,4.903 10.93,10.93 0,6.026 -4.903,10.932 -10.93,10.932 -4.032,0 -7.675,-2.216 -9.597,-5.768 -0.32,0.05 -9.124,1.394 -9.844,1.501 2.737,8.131 10.768,14.027 19.309,14.036 5.439,0.007 10.563,-2.116 14.43,-5.98 3.877,-3.871 6.009,-9.008 6.009,-14.46 -10e-4,-11.269 -9.168,-20.436 -20.439,-20.436 z"
   id="path16"
   inkscape:connector-curvature="0"
   style="fill:none" />
<path
   d="m 176.76375,152.31375 c 0,0.131 0.005,0.263 0.009,0.395 0.614,-0.093 9.362,-1.417 9.725,-1.471 0.208,-2.242 1.08,-4.312 2.545,-6.035 -0.199,-0.292 -4.973,-7.424 -5.349,-7.989 -4.251,3.701 -6.93,9.507 -6.93,15.1 z"
   id="path18"
   inkscape:connector-curvature="0"
   style="fill:none" />
<path
   d="m 92.86475,131.70475 c -0.367,0.576 -7.801,12.155 -7.992,12.453 1.385,1.561 2.184,3.532 2.184,5.619 0,4.691 -3.82,8.513 -8.516,8.513 -4.695,0 -8.516,-3.821 -8.516,-8.513 0,-4.696 3.821,-8.517 8.516,-8.517 0,0 1.996,0.319 2.39,0.381 0.197,-0.299 7.766,-11.805 8.146,-12.384 -3.246,-1.674 -6.869,-2.592 -10.536,-2.592 -12.744,0 -23.112,10.368 -23.112,23.113 0,12.744 10.368,23.112 23.112,23.112 12.744,0 23.113,-10.368 23.113,-23.112 0,-7.092 -3.216,-13.645 -8.789,-18.073 z"
   id="path20"
   inkscape:connector-curvature="0"
   style="fill:none" />
<path
   d="m 147.01375,54.169746 c 2.681,1.062 3.465,3.362 4.292,5.796 0,0 0.145,0.425 0.151,0.441 1.378,3.372 3.392,5.13 6.062,5.214 6.553,-1.48 9.901,-5.342 9.962,-11.47 l -0.002,-0.028 c -0.607,-7.161 -4.634,-11.128 -11.997,-11.796 -5.174,0.084 -8.833,2.597 -11.191,7.695 -0.419,1.01 -0.449,1.865 -0.091,2.538 0.426,0.789 1.36,1.322 2.814,1.61 z"
   id="path22"
   inkscape:connector-curvature="0"
   style="fill:#000000;stroke:none" />
<path
   d="m 197.21175,123.06775 c -4.613,0 -9.344,1.182 -13.721,3.367 -0.209,-0.299 -1.598,-2.263 -1.9,-2.689 0.36,-0.2 1.11,-0.61 1.11,-0.61 12.204,-6.021 23.934,-6.345 35.135,-0.963 l 4.035,-2.153 -0.393,-0.281 c -5.258,-3.742 -11.865,-6.248 -19.631,-7.463 -0.061,-0.594 -0.456,-4.358 -0.465,-4.401 -0.239,-0.883 -0.641,-1.485 -1.194,-1.792 -0.496,-0.279 -1.11,-0.311 -1.81,-0.103 0,0 -8.908,2.17 -9.513,2.319 -0.519,-15.466004 -3.042,-32.909004 -17.435,-45.582004 -1.868,-1.285 -2.952,-0.678 -3.467,0 0,0 -7.698,5.294 -7.709,5.303 -2.456,1.887 -3.082,3.81 -3.463,5.408 0,0 -4.795,10.739 -4.961,11.108 -8.484,-1.255 -17.078,-1.9 -25.567,-1.9 -0.003,0 -0.005,0 -0.008,0 -4.542,0.248 -6.594,2.424 -8.17,4.458 0,0 -16.854,24.348004 -17.162,24.791004 -7.201,-4.832 -18.685,-9.195 -32.995,-3.002 -1.01,0.43 -1.442,1.292 -1.096,2.174 0.454,1.145 2.058,1.939 3.964,1.269 10.441,-3.667 19.298,-2.849 27.849,2.486 -0.348,0.525 -4.066,6.1 -4.066,6.1 0,0 -0.737,1.115 -0.942,1.423 -4.655,-2.595 -9.915,-3.999 -15.255,-3.999 -17.365,0 -31.494,14.13 -31.494,31.497 0,17.364 14.129,31.493 31.494,31.493 17.364,0 31.494,-14.129 31.494,-31.493 0,-9.792 -4.475,-18.82 -12.242,-24.854 0.218,-0.292 0.815,-1.099 0.815,-1.099 0,0 3.92,-5.565 4.29,-6.089 6.867,5.564 10.474,12.42 10.965,20.974 0.143,2.503 1.989,4.944 3.024,4.999 0.367,0.021 0.626,-0.217 0.697,-0.635 1.587,-9.545 -2.223,-18.291 -11.543,-26.506 0.041,-1.985 0.441,-3.218 1.188,-3.665 0.57,-0.34 1.402,-0.234 2.331,0.167 l 19.723,44.983 c 0.608,1.478 1.912,2.268 4.124,2.353 0,0 32.959,0.239 33.006,0.235 0,0 2.188,-0.331 2.564,-0.385 3.506,12.727 15.131,21.618 28.394,21.633 7.83,0.009 15.209,-3.048 20.78,-8.612 5.583,-5.577 8.657,-12.973 8.657,-20.827 0,-16.231 -13.204,-29.437 -29.437,-29.437 z m 0,49.875 c -8.541,-0.009 -16.571,-5.905 -19.309,-14.036 0.72,-0.107 9.523,-1.451 9.844,-1.501 1.922,3.552 5.564,5.768 9.597,5.768 6.026,0 10.93,-4.905 10.93,-10.932 0,-6.027 -4.903,-10.93 -10.93,-10.93 0,0 -2.896,0.484 -3.312,0.553 -0.194,-0.283 -5.007,-7.26 -5.408,-7.843 2.747,-1.242 5.775,-1.955 8.588,-1.955 11.271,0 20.438,9.167 20.438,20.436 0,5.452 -2.132,10.589 -6.009,14.46 -3.867,3.864 -8.99,5.987 -14.429,5.98 z m -8.169,-27.741 c -1.465,1.724 -2.337,3.793 -2.545,6.035 -0.362,0.054 -9.11,1.378 -9.725,1.471 -0.004,-0.132 -0.009,-0.264 -0.009,-0.395 0,-5.593 2.679,-11.399 6.93,-15.1 0.376,0.565 5.15,7.697 5.349,7.989 z m -21.216,8.876 c -0.348,0.052 -1.19,0.181 -1.322,0.2 -0.004,-0.268 -0.007,-0.535 -0.007,-0.799 0,-11.822 3.407,-20.443 10.323,-26.37 0.307,0.488 1.478,2.338 1.672,2.648 -6.703,5.538 -10.714,14.09 -10.714,22.763 0,0.519 0.022,1.038 0.048,1.558 z m -23.372,-45.219 -12.296,-6.75 c -5.843,-3.437004 -11.661,-3.960004 -17.75,-1.73 0.819,-1.175004 4.982,-7.161004 4.982,-7.161004 0,0 2.192,-3.154 2.192,-3.17 0.405,-0.34 0.915,-0.718 1.285,-0.632 0.237,0.054 0.461,0.313 0.709,0.842 1.177,1.339 2.225,1.944 3.202,1.849 0.875,-0.08 1.645,-0.702 2.365,-1.93 0.648,-1.556 2.22,-1.885 4.952,-1.037 l 9.772,2.776 c 0,0 9.77,2.772 9.834,2.783 0.7,0.043 1.447,-0.029 2.113,-0.771 0,0 5.123,-3.413 5.54,-3.693 0.309,0.472 8.72,13.400004 9.355,14.377004 -0.413,0.002 -0.994,0.052 -1.91,0.17 -2.857,0.375 -20.205,3.572 -20.205,4.579 l 0.229,-0.289 c -1.674,0.406 -3.073,0.336 -4.369,-0.213 z m -18.314,19.884 0.789,8.146 c 0,0 0.385,4.007 0.394,4.007 -0.043,0.319 -0.127,0.457 -0.187,0.479 -0.023,0.007 -0.248,0.058 -0.821,-0.46 l -3.38,-7.766 c 0,0 -5.294,-12.147 -5.272,-12.075 l -0.103,-0.454 -0.038,-0.833 c 0,0 1.125,-0.423 1.125,-0.435 l 16.994,0.294 0.038,-0.011 c 0.554,-0.138 1.11,0.065 1.647,0.564 l 2.244,3.502 c 0.076,0.176 0.146,0.416 0.062,0.576 -0.086,0.169 -0.342,0.256 -0.47,0.292 0,0 -8.181,-0.198 -8.192,-0.198 -2.043,0.019 -3.469,0.497 -4.236,1.415 -0.451,0.54 -0.675,1.231 -0.675,2.052 0,0.287 0.027,0.587 0.081,0.905 z m 25.36,14.016 c -0.734,-0.063 -2.237,-0.189 -2.652,-0.225 0.045,-0.423 0.255,-2.411 0.369,-3.464 0.583,0.94 1.866,3.011 2.283,3.689 z m -72.96,30.131 c -12.744,0 -23.112,-10.368 -23.112,-23.112 0,-12.745 10.368,-23.113 23.112,-23.113 3.667,0 7.29,0.918 10.536,2.592 -0.38,0.58 -7.949,12.085 -8.146,12.384 -0.394,-0.062 -2.39,-0.381 -2.39,-0.381 -4.695,0 -8.516,3.821 -8.516,8.517 0,4.691 3.821,8.513 8.516,8.513 4.696,0 8.516,-3.821 8.516,-8.513 0,-2.087 -0.799,-4.059 -2.184,-5.619 0.191,-0.298 7.625,-11.877 7.992,-12.453 5.573,4.428 8.789,10.98 8.789,18.072 0,12.745 -10.369,23.113 -23.113,23.113 z"
   id="path24"
   inkscape:connector-curvature="0"
   style="fill:#000000;stroke:none" />
<path
   d="m 101.87975,105.06375 c 0.708,0.443 1.496,0.413 2.3,-0.068 2.585,-1.04 4.013,-3.456 4.243,-7.244004 -0.462,-3.06 -1.798,-5.12 -4.205,-6.483 -1.574,-0.904 -2.443,-0.245 -2.9,0.48 -1.131,1.996 -1.566,4.134 -1.331,6.51 0.006,2.468004 0.592,4.660004 1.893,6.805004 z"
   id="path26"
   inkscape:connector-curvature="0"
   style="fill:#000000;stroke:none" />
</svg>