<?xml version="1.0" encoding="UTF-8" standalone="no"?>
<!-- Generator: Adobe Illustrator 12.0.1, SVG Export Plug-In  -->

<svg
   xmlns:dc="http://purl.org/dc/elements/1.1/"
   xmlns:cc="http://creativecommons.org/ns#"
   xmlns:rdf="http://www.w3.org/1999/02/22-rdf-syntax-ns#"
   xmlns:svg="http://www.w3.org/2000/svg"
   xmlns="http://www.w3.org/2000/svg"
   xmlns:sodipodi="http://sodipodi.sourceforge.net/DTD/sodipodi-0.dtd"
   xmlns:inkscape="http://www.inkscape.org/namespaces/inkscape"
   version="1.1"
   width="286.66125"
   height="286.66476"
   viewBox="-1 0 286.66125 286.66476"
   enable-background="new -1 0 289 288"
   xml:space="preserve"
   id="svg2"
   inkscape:version="0.48.2 r9819"
   sodipodi:docname="AJAX1.svg"><metadata
   id="metadata50"><rdf:RDF><cc:Work
       rdf:about=""><dc:format>image/svg+xml</dc:format><dc:type
         rdf:resource="http://purl.org/dc/dcmitype/StillImage" /></cc:Work></rdf:RDF></metadata><sodipodi:namedview
   pagecolor="#ffffff"
   bordercolor="#666666"
   borderopacity="1"
   objecttolerance="10"
   gridtolerance="10"
   guidetolerance="10"
   inkscape:pageopacity="0"
   inkscape:pageshadow="2"
   inkscape:window-width="1280"
   inkscape:window-height="1004"
   id="namedview48"
   showgrid="false"
   fit-margin-top="0"
   fit-margin-left="0"
   fit-margin-right="0"
   fit-margin-bottom="0"
   inkscape:zoom="2.3177389"
   inkscape:cx="23.993822"
   inkscape:cy="130.4827"
   inkscape:window-x="-8"
   inkscape:window-y="-8"
   inkscape:window-maximized="1"
   inkscape:current-layer="svg2" />
<defs
   id="defs4">
</defs>
<path
   d="M 3.0987498,133.3875 132.37975,4.1055 c 5.471,-5.474 14.421,-5.474 19.895,0 l 129.284,129.282 c 5.47,5.471 5.47,14.423 0,19.889 l -129.284,129.285 c -5.474,5.471 -14.424,5.471 -19.895,0 L 3.0987498,153.2755 c -5.465,-5.465 -5.465,-14.418 0,-19.888 z"
   id="path6"
   style="fill:#ffd033;stroke:none;fill-opacity:1"
   inkscape:connector-curvature="0" />

<path
   clip-rule="evenodd"
   d="M 6.2217498,135.4405 134.44075,7.2205 c 4.339,-4.339 11.442,-4.339 15.785,0 l 128.215,128.22 c 4.343,4.343 4.343,11.438 0,15.777 l -128.215,128.224 c -4.343,4.336 -11.446,4.336 -15.785,0 L 6.2217498,151.2175 c -4.339,-4.339 -4.339,-11.435 0,-15.777"
   id="path10"
   inkscape:connector-curvature="0"
   style="fill:#000000;fill-rule:evenodd;stroke:none" />
<path
   clip-rule="evenodd"
   d="m 10.22475,139.3905 128.162,-128.162 c 2.162,-2.169 5.724,-2.169 7.889,0 l 128.16,128.162 c 2.166,2.166 2.166,5.716 0,7.883 l -128.16,128.161 c -2.165,2.168 -5.727,2.168 -7.889,0 l -128.162,-128.161 c -2.1660002,-2.167 -2.1660002,-5.717 0,-7.883"
   id="path12"
   inkscape:connector-curvature="0"
   style="fill:#ffd033;fill-rule:evenodd;stroke:none;fill-opacity:1" />
<path
   d="m 89.57375,163.9905 h -3.937 l -3.072,-16.8 -3.024,16.8 h -4.08 l -5.088,-32.161 h 4.513 l 2.735,17.136 3.12,-17.136 h 3.648 l 3.024,17.136 2.832,-17.136 h 4.512 l -5.183,32.161 z"
   id="path14"
   inkscape:connector-curvature="0"
   style="fill:#000000;stroke:none" />
<path
   d="m 99.17275,163.9905 v -32.161 h 4.513 v 32.161 h -4.513 z"
   id="path16"
   inkscape:connector-curvature="0"
   style="fill:#000000;stroke:none" />
<path
   d="m 125.33275,163.9905 -9.937,-21.552 v 21.552 h -4.608 v -32.161 h 4.608 l 8.832,19.296 v -19.296 h 4.608 v 32.161 h -3.503 z"
   id="path18"
   inkscape:connector-curvature="0"
   style="fill:#000000;stroke:none" />
<path
   d="m 149.28375,162.5025 c -1.152,1.057 -2.736,1.488 -4.512,1.488 h -8.928 v -32.161 h 8.208 c 2.735,0 4.079,0.336 5.231,1.248 1.92,1.344 3.266,3.84 3.84,7.104 0.434,2.353 0.77,5.185 0.77,7.681 0.001,7.44 -1.487,12.193 -4.609,14.64 z m -0.814,-22.896 c -0.77,-2.257 -2.113,-3.265 -4.178,-3.265 h -3.839 v 23.137 h 3.839 c 2.736,0 4.178,-2.16 4.656,-4.608 0.193,-2.063 0.432,-4.32 0.432,-6.768 0,-3.648 -0.336,-7.152 -0.91,-8.496 z"
   id="path20"
   inkscape:connector-curvature="0"
   style="fill:#000000;stroke:none" />
<path
   d="m 160.22775,163.9905 v -32.161 h 4.514 v 32.161 h -4.514 z"
   id="path22"
   inkscape:connector-curvature="0"
   style="fill:#000000;stroke:none" />
<path
   d="m 186.38975,163.9905 -9.938,-21.552 v 21.552 h -4.607 v -32.161 h 4.607 l 8.832,19.296 v -19.296 h 4.609 v 32.161 h -3.503 z"
   id="path24"
   inkscape:connector-curvature="0"
   style="fill:#000000;stroke:none" />
<path
   d="m 213.36675,160.0555 c -1.248,2.783 -3.84,4.512 -7.105,4.512 -3.84,0 -6.672,-1.92 -8.256,-5.521 -1.008,-2.399 -1.68,-6.912 -1.68,-11.088 0,-4.512 0.336,-7.777 1.488,-10.848 1.104,-3.36 4.367,-5.856 8.111,-5.856 4.609,0 8.113,3.408 8.354,8.16 h -4.609 c -0.143,-2.16 -1.584,-3.648 -3.84,-3.648 -1.584,0 -2.832,0.816 -3.648,2.4 -0.863,1.584 -1.439,5.184 -1.439,9.025 0,2.688 0.24,5.52 0.672,8.016 0.672,3.12 2.256,4.849 4.752,4.849 2.352,0 3.504,-1.585 3.504,-4.992 v -2.112 h -3.648 v -4.512 h 8.258 v 6.624 c -0.002,2.254 -0.243,3.646 -0.914,4.991 z"
   id="path26"
   inkscape:connector-curvature="0"
   style="fill:#000000;stroke:none" />
<path
   d="m 111.26875,208.8055 -4.272,-15.12 h -4.416 v 15.12 h -4.608 v -32.161 h 9.601 c 5.04,0 8.448,3.408 8.448,8.592 0,3.841 -1.584,6.625 -4.608,7.777 l 4.608,15.792 h -4.753 z m -3.937,-27.65 h -4.752 v 8.113 h 4.752 c 2.688,0 4.176,-1.441 4.176,-4.033 0,-2.496 -1.68,-4.08 -4.176,-4.08 z"
   id="path28"
   inkscape:connector-curvature="0"
   style="fill:#000000;stroke:none" />
<path
   d="m 137.90875,203.8605 c -1.584,3.792 -3.937,5.521 -7.536,5.521 -3.841,0 -6.097,-1.729 -7.681,-5.521 -1.344,-3.168 -1.824,-6.24 -1.824,-11.184 0,-4.85 0.48,-8.113 1.824,-11.186 1.681,-3.84 3.937,-5.424 7.681,-5.424 3.696,0 5.952,1.584 7.536,5.521 1.344,3.168 1.824,6.239 1.824,11.089 10e-4,4.944 -0.48,8.113 -1.824,11.184 z m -3.6,-19.201 c -0.815,-2.832 -2.016,-4.08 -3.936,-4.08 -2.064,0 -3.313,1.248 -4.08,3.984 -0.769,2.448 -1.009,4.609 -1.009,8.209 0,3.504 0.337,5.521 1.009,8.112 0.768,2.736 2.016,3.983 4.08,3.983 1.92,0 3.12,-1.247 3.936,-3.983 0.769,-2.592 1.008,-4.512 1.008,-8.208 0,-3.6 -0.336,-5.664 -1.008,-8.017 z"
   id="path30"
   inkscape:connector-curvature="0"
   style="fill:#000000;stroke:none" />
<path
   d="m 159.60675,208.8055 -2.256,-8.784 h -6.912 l -2.114,8.784 h -4.656 l 8.018,-32.161 h 4.512 l 8.016,32.161 h -4.608 z m -5.76,-22.562 -2.256,9.266 h 4.607 l -2.351,-9.266 z"
   id="path32"
   inkscape:connector-curvature="0"
   style="fill:#000000;stroke:none" />
<path
   d="m 182.06975,207.3165 c -1.152,1.057 -2.736,1.488 -4.512,1.488 h -8.928 v -32.161 h 8.207 c 2.736,0 4.08,0.336 5.232,1.248 1.92,1.344 3.266,3.84 3.84,7.104 0.434,2.353 0.77,5.186 0.77,7.682 0,7.439 -1.488,12.191 -4.609,14.639 z m -0.815,-22.896 c -0.77,-2.257 -2.113,-3.265 -4.178,-3.265 h -3.84 v 23.138 h 3.84 c 2.736,0 4.178,-2.16 4.656,-4.608 0.193,-2.064 0.432,-4.32 0.432,-6.768 0,-3.648 -0.336,-7.153 -0.91,-8.497 z"
   id="path34"
   inkscape:connector-curvature="0"
   style="fill:#000000;stroke:none" />
<path
   d="m 86.33275,117.5905 -9.937,-21.552 v 21.552 h -4.608 v -32.161 h 4.608 l 8.832,19.296 v -19.296 h 4.608 v 32.161 h -3.503 z"
   id="path36"
   inkscape:connector-curvature="0"
   style="fill:#000000;stroke:none" />
<path
   d="m 110.28475,117.5905 -2.256,-8.784 h -6.912 l -2.112,8.784 h -4.656 l 8.017,-32.161 h 4.512 l 8.017,32.161 h -4.61 z m -5.76,-22.561 -2.256,9.265 h 4.607 l -2.351,-9.265 z"
   id="path38"
   inkscape:connector-curvature="0"
   style="fill:#000000;stroke:none" />
<path
   d="m 132.60475,117.5905 -4.272,-15.12 h -4.416 v 15.12 h -4.608 v -32.161 h 9.601 c 5.04,0 8.448,3.408 8.448,8.592 0,3.84 -1.584,6.624 -4.608,7.777 l 4.608,15.792 h -4.753 z m -3.936,-27.649 h -4.752 v 8.112 h 4.752 c 2.688,0 4.176,-1.44 4.176,-4.032 0,-2.496 -1.68,-4.08 -4.176,-4.08 z"
   id="path40"
   inkscape:connector-curvature="0"
   style="fill:#000000;stroke:none" />
<path
   d="m 156.07675,117.5905 -4.271,-15.12 h -4.416 v 15.12 h -4.609 v -32.161 h 9.601 c 5.039,0 8.447,3.408 8.447,8.592 0,3.84 -1.584,6.624 -4.607,7.777 l 4.607,15.792 h -4.752 z m -3.935,-27.649 h -4.752 v 8.112 h 4.752 c 2.688,0 4.176,-1.44 4.176,-4.032 0,-2.496 -1.68,-4.08 -4.176,-4.08 z"
   id="path42"
   inkscape:connector-curvature="0"
   style="fill:#000000;stroke:none" />
<path
   d="m 182.71775,112.6465 c -1.584,3.792 -3.936,5.521 -7.535,5.521 -3.842,0 -6.098,-1.729 -7.682,-5.521 -1.344,-3.168 -1.824,-6.24 -1.824,-11.184 0,-4.849 0.48,-8.113 1.824,-11.185 1.682,-3.84 3.938,-5.424 7.682,-5.424 3.695,0 5.951,1.584 7.535,5.521 1.344,3.168 1.824,6.239 1.824,11.088 0,4.943 -0.48,8.112 -1.824,11.184 z m -3.6,-19.201 c -0.816,-2.832 -2.016,-4.08 -3.936,-4.08 -2.064,0 -3.313,1.248 -4.08,3.984 -0.77,2.448 -1.01,4.608 -1.01,8.208 0,3.504 0.338,5.521 1.01,8.112 0.768,2.736 2.016,3.983 4.08,3.983 1.92,0 3.119,-1.247 3.936,-3.983 0.768,-2.592 1.008,-4.512 1.008,-8.208 0,-3.6 -0.336,-5.664 -1.008,-8.016 z"
   id="path44"
   inkscape:connector-curvature="0"
   style="fill:#000000;stroke:none" />
<path
   d="m 207.67875,117.5905 h -3.936 l -3.072,-16.8 -3.023,16.8 h -4.082 l -5.088,-32.161 h 4.514 l 2.734,17.136 3.121,-17.136 h 3.648 l 3.023,17.136 2.832,-17.136 h 4.512 l -5.183,32.161 z"
   id="path46"
   inkscape:connector-curvature="0"
   style="fill:#000000;stroke:none" />
</svg>