<?xml version="1.0" encoding="UTF-8" standalone="no"?>
<!-- Created with Inkscape (http://www.inkscape.org/) -->

<svg
   xmlns:dc="http://purl.org/dc/elements/1.1/"
   xmlns:cc="http://creativecommons.org/ns#"
   xmlns:rdf="http://www.w3.org/1999/02/22-rdf-syntax-ns#"
   xmlns:svg="http://www.w3.org/2000/svg"
   xmlns="http://www.w3.org/2000/svg"
   xmlns:sodipodi="http://sodipodi.sourceforge.net/DTD/sodipodi-0.dtd"
   xmlns:inkscape="http://www.inkscape.org/namespaces/inkscape"
   width="90.71875"
   height="90.71875"
   id="svg2"
   sodipodi:version="0.32"
   inkscape:version="0.48.2 r9819"
   version="1.0"
   sodipodi:docname="MUTCD R14-3.svg"
   inkscape:output_extension="org.inkscape.output.svg.inkscape">
  <defs
     id="defs4">
    <inkscape:perspective
       sodipodi:type="inkscape:persp3d"
       inkscape:vp_x="0 : 300.5 : 1"
       inkscape:vp_y="0 : 1000 : 0"
       inkscape:vp_z="601 : 300.5 : 1"
       inkscape:persp3d-origin="300.5 : 200.33333 : 1"
       id="perspective3380" />
    <inkscape:perspective
       id="perspective3990"
       inkscape:persp3d-origin="375 : 250 : 1"
       inkscape:vp_z="750 : 375 : 1"
       inkscape:vp_y="0 : 1000 : 0"
       inkscape:vp_x="0 : 375 : 1"
       sodipodi:type="inkscape:persp3d" />
  </defs>
  <sodipodi:namedview
     id="base"
     pagecolor="#ffffff"
     bordercolor="#666666"
     borderopacity="1.0"
     gridtolerance="10000"
     guidetolerance="10"
     objecttolerance="10"
     inkscape:pageopacity="0.0"
     inkscape:pageshadow="2"
     inkscape:zoom="5.1466668"
     inkscape:cx="42.38116"
     inkscape:cy="29.542808"
     inkscape:document-units="px"
     inkscape:current-layer="layer1"
     width="601px"
     height="601px"
     inkscape:window-width="1280"
     inkscape:window-height="1004"
     inkscape:window-x="-8"
     inkscape:window-y="-8"
     showgrid="false"
     fit-margin-top="0"
     fit-margin-left="0"
     fit-margin-right="0"
     fit-margin-bottom="0"
     inkscape:window-maximized="1" />
  <metadata
     id="metadata7">
    <rdf:RDF>
      <cc:Work
         rdf:about="">
        <dc:format>image/svg+xml</dc:format>
        <dc:type
           rdf:resource="http://purl.org/dc/dcmitype/StillImage" />
        <dc:title></dc:title>
      </cc:Work>
    </rdf:RDF>
  </metadata>
  <g
     inkscape:label="Layer 1"
     inkscape:groupmode="layer"
     id="layer1"
     transform="translate(-7332.375,12844.031)">
    <rect
       style="color:#000000;fill:#000000;fill-opacity:1;fill-rule:nonzero;stroke:none;stroke-width:0.8735441;marker:none;visibility:visible;display:inline;overflow:visible"
       id="rect3653"
       width="0"
       height="27.202072"
       x="578.73834"
       y="298.1684"
       rx="249.48199"
       ry="27.202072" />
    <path
       inkscape:connector-curvature="0"
       d="m 7338.3644,-12843.67 78.7487,0 c 3.0988,0 5.625,2.527 5.625,5.625 l 0,78.75 c 0,3.098 -2.5262,5.625 -5.625,5.625 l -78.7487,0 c -3.0975,0 -5.625,-2.527 -5.625,-5.625 l 0,-78.75 c 0,-3.058 2.5662,-5.625 5.625,-5.625"
       style="fill:#ffffff;fill-opacity:1;fill-rule:nonzero;stroke:#000000;stroke-width:0.69999999;stroke-linecap:butt;stroke-linejoin:miter;stroke-miterlimit:4;stroke-opacity:1;stroke-dasharray:none"
       id="path16779" />
    <path
       inkscape:connector-curvature="0"
       style="fill:#000000;fill-opacity:1;fill-rule:evenodd;stroke:none"
       d="m 7338.375,-12842.25 c -2.3163,0 -4.2151,1.905 -4.2188,4.219 l 0,78.718 c 0,2.318 1.9025,4.24 4.2188,4.25 l 78.7187,0 c 2.3188,-0.01 4.2425,-1.932 4.25,-4.25 l 0,-78.718 c -0.01,-2.314 -1.9312,-4.215 -4.25,-4.219 l -78.7187,0 z m 0.031,2.344 78.6563,0 c 1.055,-0.02 1.9575,0.848 1.9375,1.906 l 0,78.656 c 0.02,1.056 -0.8825,1.954 -1.9375,1.938 l -78.6563,0 c -1.0576,0.02 -1.9213,-0.882 -1.9062,-1.938 l 0,-78.656 c -0.014,-1.058 0.8475,-1.923 1.9062,-1.906 z"
       id="path16783" />
    <path
       inkscape:connector-curvature="0"
       d="m 7364.4381,-12785.43 1.2837,0 c 0.6863,0 1.2788,0.415 1.5475,1.005 0.2688,-0.59 0.8625,-1.005 1.5488,-1.005 l 1.2837,0 c 0.935,0 1.6988,0.768 1.6988,1.706 l 0,5.686 c 0,0.938 -0.7638,1.704 -1.6988,1.704 l -1.2837,0 c -0.6863,0 -1.28,-0.412 -1.5488,-1.004 -0.2687,0.592 -0.8612,1.004 -1.5475,1.004 l -1.2837,0 c -0.935,0 -1.7,-0.766 -1.7,-1.704 l 0,-5.686 c 0,-0.938 0.7651,-1.706 1.7,-1.706"
       style="fill:#000000;fill-opacity:1;fill-rule:evenodd;stroke:none"
       id="path16795" />
    <path
       inkscape:connector-curvature="0"
       d="m 7385.2869,-12785.43 1.2849,0 c 0.6864,0 1.2788,0.415 1.5475,1.005 0.2663,-0.59 0.8613,-1.005 1.5475,-1.005 l 1.285,0 c 0.9325,0 1.6963,0.768 1.6963,1.706 l 0,5.686 c 0,0.938 -0.7638,1.704 -1.6963,1.704 l -1.285,0 c -0.6862,0 -1.2812,-0.412 -1.5475,-1.004 -0.2687,0.592 -0.8612,1.004 -1.5475,1.004 l -1.2849,0 c -0.9351,0 -1.6987,-0.766 -1.6987,-1.704 l 0,-5.686 c 0,-0.938 0.7637,-1.706 1.6987,-1.706"
       style="fill:#000000;fill-opacity:1;fill-rule:evenodd;stroke:none"
       id="path16799" />
    <path
       inkscape:connector-curvature="0"
       d="m 7362.6962,-12821.334 30,0 0,34.649 -30,0 0,-34.649 z"
       style="fill:#000000;fill-opacity:1;fill-rule:evenodd;stroke:none"
       id="path16801" />
    <path
       inkscape:connector-curvature="0"
       d="m 7377.7381,-12836.17 c 20.6551,0 37.5,16.845 37.5,37.5 0,20.654 -16.8449,37.5 -37.5,37.5 -20.6537,0 -37.4987,-16.846 -37.4987,-37.5 0,-20.655 16.845,-37.5 37.4987,-37.5 m 0,7.5 c 16.5238,0 30,13.476 30,30 0,16.524 -13.4762,30 -30,30 -16.5225,0 -30,-13.476 -30,-30 0,-16.524 13.4775,-30 30,-30"
       style="fill:#00674c;fill-opacity:1;fill-rule:evenodd;stroke:none"
       id="path16791" />
  </g>
</svg>
