<?xml version="1.0" encoding="UTF-8" standalone="no"?>
<!-- Created with Inkscape (http://www.inkscape.org/) -->

<svg
   xmlns:dc="http://purl.org/dc/elements/1.1/"
   xmlns:cc="http://creativecommons.org/ns#"
   xmlns:rdf="http://www.w3.org/1999/02/22-rdf-syntax-ns#"
   xmlns:svg="http://www.w3.org/2000/svg"
   xmlns="http://www.w3.org/2000/svg"
   xmlns:sodipodi="http://sodipodi.sourceforge.net/DTD/sodipodi-0.dtd"
   xmlns:inkscape="http://www.inkscape.org/namespaces/inkscape"
   width="90.71875"
   height="90.71875"
   id="svg2"
   sodipodi:version="0.32"
   inkscape:version="0.48.2 r9819"
   version="1.0"
   sodipodi:docname="MUTCD R14-4.svg"
   inkscape:output_extension="org.inkscape.output.svg.inkscape">
  <defs
     id="defs4">
    <inkscape:perspective
       sodipodi:type="inkscape:persp3d"
       inkscape:vp_x="0 : 300.5 : 1"
       inkscape:vp_y="0 : 1000 : 0"
       inkscape:vp_z="601 : 300.5 : 1"
       inkscape:persp3d-origin="300.5 : 200.33333 : 1"
       id="perspective3380" />
    <inkscape:perspective
       id="perspective3990"
       inkscape:persp3d-origin="375 : 250 : 1"
       inkscape:vp_z="750 : 375 : 1"
       inkscape:vp_y="0 : 1000 : 0"
       inkscape:vp_x="0 : 375 : 1"
       sodipodi:type="inkscape:persp3d" />
  </defs>
  <sodipodi:namedview
     id="base"
     pagecolor="#ffffff"
     bordercolor="#666666"
     borderopacity="1.0"
     gridtolerance="10000"
     guidetolerance="10"
     objecttolerance="10"
     inkscape:pageopacity="0.0"
     inkscape:pageshadow="2"
     inkscape:zoom="5.1466668"
     inkscape:cx="47.150758"
     inkscape:cy="53.190316"
     inkscape:document-units="px"
     inkscape:current-layer="layer1"
     width="601px"
     height="601px"
     inkscape:window-width="1280"
     inkscape:window-height="1004"
     inkscape:window-x="-8"
     inkscape:window-y="-8"
     showgrid="false"
     fit-margin-top="0"
     fit-margin-left="0"
     fit-margin-right="0"
     fit-margin-bottom="0"
     inkscape:window-maximized="1" />
  <metadata
     id="metadata7">
    <rdf:RDF>
      <cc:Work
         rdf:about="">
        <dc:format>image/svg+xml</dc:format>
        <dc:type
           rdf:resource="http://purl.org/dc/dcmitype/StillImage" />
        <dc:title></dc:title>
      </cc:Work>
    </rdf:RDF>
  </metadata>
  <g
     inkscape:label="Layer 1"
     inkscape:groupmode="layer"
     id="layer1"
     transform="translate(-7837.1875,12916.313)">
    <rect
       style="color:#000000;fill:#000000;fill-opacity:1;fill-rule:nonzero;stroke:none;stroke-width:0.8735441;marker:none;visibility:visible;display:inline;overflow:visible"
       id="rect3653"
       width="0"
       height="27.202072"
       x="578.73834"
       y="298.1684"
       rx="249.48199"
       ry="27.202072" />
    <path
       inkscape:connector-curvature="0"
       d="m 7843.1669,-12915.951 78.75,0 c 3.0987,0 5.625,2.527 5.625,5.625 l 0,78.75 c 0,3.098 -2.5263,5.625 -5.625,5.625 l -78.75,0 c -3.0975,0 -5.625,-2.527 -5.625,-5.625 l 0,-78.75 c 0,-3.059 2.5662,-5.625 5.625,-5.625"
       style="fill:#ffffff;fill-opacity:1;fill-rule:nonzero;stroke:#000000;stroke-width:0.69999999;stroke-linecap:butt;stroke-linejoin:miter;stroke-miterlimit:4;stroke-opacity:1;stroke-dasharray:none"
       id="path16809" />
    <path
       inkscape:connector-curvature="0"
       style="fill:#000000;fill-opacity:1;fill-rule:evenodd;stroke:none"
       d="m 7843.1875,-12914.531 c -2.315,0 -4.2475,1.905 -4.25,4.218 l 0,78.719 c 0,2.319 1.935,4.241 4.25,4.25 l 78.7187,0 c 2.3163,0 4.2088,-1.931 4.2188,-4.25 l 0,-78.719 c -0.01,-2.313 -1.9025,-4.213 -4.2188,-4.218 l -78.7187,0 z m 0.031,2.343 78.6563,0 c 1.0574,-0.01 1.9237,0.848 1.9062,1.907 l 0,78.656 c 0.017,1.055 -0.8488,1.955 -1.9062,1.937 l -78.6563,0 c -1.0563,0.02 -1.9538,-0.882 -1.9375,-1.937 l 0,-78.656 c -0.014,-1.059 0.8787,-1.921 1.9375,-1.907 z"
       id="path16813" />
    <path
       inkscape:connector-curvature="0"
       d="m 7869.2394,-12857.711 1.2837,0 c 0.6863,0 1.2813,0.414 1.5475,1.004 0.2688,-0.59 0.8625,-1.004 1.5488,-1.004 l 1.2837,0 c 0.935,0 1.6988,0.768 1.6988,1.706 l 0,5.686 c 0,0.938 -0.7638,1.705 -1.6988,1.705 l -1.2837,0 c -0.6863,0 -1.28,-0.414 -1.5488,-1.005 -0.2662,0.591 -0.8612,1.005 -1.5475,1.005 l -1.2837,0 c -0.9325,0 -1.7,-0.767 -1.7,-1.705 l 0,-5.686 c 0,-0.938 0.7675,-1.706 1.7,-1.706"
       style="fill:#000000;fill-opacity:1;fill-rule:evenodd;stroke:none"
       id="path16821" />
    <path
       inkscape:connector-curvature="0"
       d="m 7890.0906,-12857.711 1.2825,0 c 0.6863,0 1.2813,0.414 1.5475,1.004 0.2688,-0.59 0.8638,-1.004 1.55,-1.004 l 1.2825,0 c 0.935,0 1.6988,0.768 1.6988,1.706 l 0,5.686 c 0,0.938 -0.7638,1.705 -1.6988,1.705 l -1.2825,0 c -0.6862,0 -1.2812,-0.414 -1.55,-1.005 -0.2662,0.591 -0.8612,1.005 -1.5475,1.005 l -1.2825,0 c -0.935,0 -1.6987,-0.767 -1.6987,-1.705 l 0,-5.686 c 0,-0.938 0.7637,-1.706 1.6987,-1.706"
       style="fill:#000000;fill-opacity:1;fill-rule:evenodd;stroke:none"
       id="path16825" />
    <path
       inkscape:connector-curvature="0"
       d="m 7867.5,-12893.614 30,0 0,34.648 -30,0 0,-34.648 z"
       style="fill:#000000;fill-opacity:1;fill-rule:evenodd;stroke:none"
       id="path16827" />
    <path
       inkscape:connector-curvature="0"
       d="m 7856.0231,-12897.467 c 14.6075,-14.606 38.4313,-14.606 53.035,0 14.605,14.603 14.605,38.427 0,53.032 -14.6037,14.604 -38.4275,14.604 -53.035,0 -14.6037,-14.605 -14.6037,-38.429 0,-53.032 m 44.915,50.215 -42.0975,-42.096 c -9.1962,11.849 -8.2025,28.92 2.4888,39.609 10.6875,10.689 27.7587,11.684 39.6087,2.487 m 5.3025,-5.303 -42.095,-42.095 c 11.8488,-9.2 28.9188,-8.205 39.61,2.485 10.6888,10.69 11.6825,27.759 2.485,39.61"
       style="fill:#c4122e;fill-opacity:1;fill-rule:evenodd;stroke:none"
       id="path16831" />
  </g>
</svg>
