<?xml version="1.0" encoding="UTF-8" standalone="no"?>
<!-- Generator: Adobe Illustrator 12.0.1, SVG Export Plug-In  -->

<svg
   xmlns:dc="http://purl.org/dc/elements/1.1/"
   xmlns:cc="http://creativecommons.org/ns#"
   xmlns:rdf="http://www.w3.org/1999/02/22-rdf-syntax-ns#"
   xmlns:svg="http://www.w3.org/2000/svg"
   xmlns="http://www.w3.org/2000/svg"
   xmlns:sodipodi="http://sodipodi.sourceforge.net/DTD/sodipodi-0.dtd"
   xmlns:inkscape="http://www.inkscape.org/namespaces/inkscape"
   version="1.1"
   width="286.66251"
   height="286.66351"
   viewBox="-1 0 286.66251 286.66351"
   enable-background="new -1 0 289 288"
   xml:space="preserve"
   id="svg2"
   inkscape:version="0.48.2 r9819"
   sodipodi:docname="AJAX1.svg"><metadata
   id="metadata44"><rdf:RDF><cc:Work
       rdf:about=""><dc:format>image/svg+xml</dc:format><dc:type
         rdf:resource="http://purl.org/dc/dcmitype/StillImage" /></cc:Work></rdf:RDF></metadata><sodipodi:namedview
   pagecolor="#ffffff"
   bordercolor="#666666"
   borderopacity="1"
   objecttolerance="10"
   gridtolerance="10"
   guidetolerance="10"
   inkscape:pageopacity="0"
   inkscape:pageshadow="2"
   inkscape:window-width="1280"
   inkscape:window-height="1004"
   id="namedview42"
   showgrid="false"
   fit-margin-top="0"
   fit-margin-left="0"
   fit-margin-right="0"
   fit-margin-bottom="0"
   inkscape:zoom="2.3177389"
   inkscape:cx="79.684108"
   inkscape:cy="151.92797"
   inkscape:window-x="-8"
   inkscape:window-y="-8"
   inkscape:window-maximized="1"
   inkscape:current-layer="svg2" />
<defs
   id="defs4">
</defs>
<path
   d="M 3.0995,133.38675 132.3795,4.1047465 c 5.471,-5.473 14.421,-5.473 19.896,0 L 281.5585,133.38675 c 5.472,5.47 5.472,14.423 0,19.889 l -129.284,129.286 c -5.475,5.469 -14.424,5.469 -19.896,0 L 3.0995,153.27475 c -5.466,-5.465 -5.466,-14.418 0,-19.888 z"
   id="path6"
   style="fill:#ffd033;stroke:none;fill-opacity:1"
   inkscape:connector-curvature="0" />

<path
   clip-rule="evenodd"
   d="M 6.2225,135.43975 134.4405,7.2197465 c 4.338,-4.338 11.442,-4.338 15.786,0 L 278.4405,135.43875 c 4.343,4.343 4.343,11.438 0,15.777 l -128.215,128.226 c -4.344,4.334 -11.447,4.334 -15.786,0 L 6.2225,151.21675 c -4.339,-4.34 -4.339,-11.434 0,-15.777"
   id="path10"
   inkscape:connector-curvature="0"
   style="fill:#000000;fill-rule:evenodd;stroke:none" />
<path
   clip-rule="evenodd"
   d="M 10.2255,139.38975 138.3865,11.229746 c 2.163,-2.1699995 5.724,-2.1699995 7.889,0 l 128.16,128.160004 c 2.165,2.166 2.165,5.716 0,7.882 l -128.161,128.161 c -2.165,2.168 -5.726,2.168 -7.889,0 l -128.16,-128.161 c -2.167,-2.166 -2.167,-5.716 0,-7.882"
   id="path12"
   inkscape:connector-curvature="0"
   style="fill:#ffd033;fill-rule:evenodd;stroke:none;stroke-opacity:1;fill-opacity:1" />
<path
   d="m 121.4145,104.02075 -11.188,-19.839004 v 19.839004 h -4.632 V 74.741746 h 4.632 l 10.663,18.703 v -18.703 h 4.632 v 29.278004 h -4.107 z"
   id="path14"
   inkscape:connector-curvature="0"
   style="fill:#000000;stroke:none" />
<path
   d="M 132.5135,104.02075 V 74.741746 h 17.262 v 4.632 h -12.63 v 7.167 h 8.522 v 4.719 h -8.522 v 8.041 h 13.548 v 4.720004 h -18.18 z"
   id="path16"
   inkscape:connector-curvature="0"
   style="fill:#000000;stroke:none" />
<path
   d="m 174.7275,104.02075 h -4.108 l -4.632,-18.791004 -4.501,18.791004 h -4.107 l -4.326,-29.278004 h 4.719 l 2.272,15.426 3.715,-15.426 h 4.501 l 3.802,15.426 2.272,-15.426 h 4.72 l -4.327,29.278004 z"
   id="path18"
   inkscape:connector-curvature="0"
   style="fill:#000000;stroke:none" />
<path
   d="m 92.3765,152.71375 c -1.617,1.442 -3.889,2.272 -6.38,2.272 -5.025,0 -8.696,-2.972 -10.663,-7.429 l 4.414,-1.617 c 1.224,2.753 3.496,4.326 6.249,4.326 2.709,0 4.545,-1.879 4.545,-4.326 0,-3.889 -4.545,-4.544 -8.347,-6.074 -1.748,-0.699 -5.637,-2.447 -5.637,-7.298 0,-5.725 3.889,-7.909 9.133,-7.909 4.108,0 6.904,2.359 8.347,5.987 l -4.108,1.223 c 0,0 -1.049,-2.491 -4.326,-2.578 -0.131,0 -0.219,0 -0.306,0 -2.01,0 -4.195,0.787 -4.195,3.103 0,0.087 0,0.219 0,0.306 0.393,5.418 14.159,1.835 14.159,13.329 0,2.664 -1.049,5.025 -2.885,6.685 z"
   id="path20"
   inkscape:connector-curvature="0"
   style="fill:#000000;stroke:none" />
<path
   d="m 100.1985,154.46175 v -29.278 h 4.719 v 29.278 h -4.719 z"
   id="path22"
   inkscape:connector-curvature="0"
   style="fill:#000000;stroke:none" />
<path
   d="m 121.9605,154.98575 c -4.414,0 -6.992,-1.66 -8.74,-5.331 -1.224,-2.578 -1.923,-6.206 -1.923,-9.789 0,-4.719 1.311,-9.352 3.277,-11.93 1.748,-2.141 4.195,-3.277 7.516,-3.277 4.501,0 7.167,1.879 9.133,6.467 l -4.414,1.748 c -1.224,-2.535 -2.491,-3.496 -4.72,-3.496 -2.36,0 -3.933,1.049 -4.938,3.627 -0.743,1.748 -1.136,4.414 -1.136,6.861 0,3.103 0.524,6.162 1.442,8.041 0.917,1.616 2.272,2.359 4.02,2.359 2.972,0 5.113,-1.879 5.113,-4.545 v -1.224 h -5.331 v -4.632 h 9.963 v 5.855 c 0.002,5.334 -3.887,9.266 -9.262,9.266 z"
   id="path24"
   inkscape:connector-curvature="0"
   style="fill:#000000;stroke:none" />
<path
   d="m 153.4245,154.46175 -11.187,-19.839 v 19.839 h -4.632 v -29.278 h 4.632 l 10.664,18.703 v -18.703 h 4.631 v 29.278 h -4.108 z"
   id="path26"
   inkscape:connector-curvature="0"
   style="fill:#000000;stroke:none" />
<path
   d="m 181.7855,154.46175 -2.885,-8.216 h -9.133 l -2.885,8.216 h -4.938 l 10.096,-29.278 h 4.588 l 10.094,29.278 h -4.937 z m -7.385,-21.15 -3.016,8.215 h 5.855 l -2.839,-8.215 z"
   id="path28"
   inkscape:connector-curvature="0"
   style="fill:#000000;stroke:none" />
<path
   d="m 191.1375,154.46175 v -29.278 h 4.631 v 24.952 h 13.547 v 4.326 h -18.178 z"
   id="path30"
   inkscape:connector-curvature="0"
   style="fill:#000000;stroke:none" />
<path
   d="m 99.2815,203.65275 -2.884,-8.216 h -9.133 l -2.884,8.216 h -4.938 l 10.095,-29.278 h 4.587 l 10.095,29.278 h -4.938 z m -7.386,-21.15 -3.015,8.216 h 5.855 l -2.84,-8.216 z"
   id="path32"
   inkscape:connector-curvature="0"
   style="fill:#000000;stroke:none" />
<path
   d="m 123.9275,203.65275 v -12.76 h -10.663 v 12.76 h -4.632 v -29.278 h 4.632 v 11.799 h 10.663 v -11.799 h 4.632 v 29.278 h -4.632 z"
   id="path34"
   inkscape:connector-curvature="0"
   style="fill:#000000;stroke:none" />
<path
   d="m 135.5515,203.65275 v -29.278 h 17.261 v 4.632 h -12.629 v 7.167 h 8.522 v 4.72 h -8.522 v 8.04 h 13.547 v 4.72 h -18.179 z"
   id="path36"
   inkscape:connector-curvature="0"
   style="fill:#000000;stroke:none" />
<path
   d="m 175.9285,203.65275 -2.883,-8.216 h -9.133 l -2.885,8.216 h -4.938 l 10.094,-29.278 h 4.588 l 10.096,29.278 h -4.939 z m -7.385,-21.15 -3.016,8.216 h 5.857 l -2.841,-8.216 z"
   id="path38"
   inkscape:connector-curvature="0"
   style="fill:#000000;stroke:none" />
<path
   d="m 200.0515,201.99275 c -1.092,1.049 -2.666,1.573 -4.195,1.66 -0.305,0 -0.918,0 -1.66,0 h -8.914 v -29.278 h 9.438 c 2.973,0 4.109,0.306 5.682,1.529 3.059,2.666 4.807,7.298 4.807,13.066 -0.002,5.856 -1.836,10.488 -5.158,13.023 z m -1.922,-21.762 c -0.744,-0.699 -1.748,-1.224 -2.973,-1.224 h -5.244 v 19.927 h 4.633 c 1.529,0 2.447,-0.306 3.277,-1.136 1.748,-1.748 2.666,-4.938 2.666,-8.827 0,-3.934 -0.918,-7.211 -2.359,-8.74 z"
   id="path40"
   inkscape:connector-curvature="0"
   style="fill:#000000;stroke:none" />
</svg>