<?xml version="1.0" encoding="UTF-8" standalone="no"?>
<svg
   xmlns:dc="http://purl.org/dc/elements/1.1/"
   xmlns:cc="http://creativecommons.org/ns#"
   xmlns:rdf="http://www.w3.org/1999/02/22-rdf-syntax-ns#"
   xmlns:svg="http://www.w3.org/2000/svg"
   xmlns="http://www.w3.org/2000/svg"
   xmlns:sodipodi="http://sodipodi.sourceforge.net/DTD/sodipodi-0.dtd"
   xmlns:inkscape="http://www.inkscape.org/namespaces/inkscape"
   width="48.091492"
   height="36.068874"
   viewBox="0 0 135.7249 101.79438"
   version="1.1"
   id="svg2"
   inkscape:version="0.48.2 r9819"
   sodipodi:docname="MUTCD W7-3P.svg">
  <metadata
     id="metadata62">
    <rdf:RDF>
      <cc:Work
         rdf:about="">
        <dc:format>image/svg+xml</dc:format>
        <dc:type
           rdf:resource="http://purl.org/dc/dcmitype/StillImage" />
        <dc:title></dc:title>
      </cc:Work>
    </rdf:RDF>
  </metadata>
  <defs
     id="defs60" />
  <sodipodi:namedview
     pagecolor="#ffffff"
     bordercolor="#666666"
     borderopacity="1"
     objecttolerance="10"
     gridtolerance="10"
     guidetolerance="10"
     inkscape:pageopacity="0"
     inkscape:pageshadow="2"
     inkscape:window-width="1280"
     inkscape:window-height="1004"
     id="namedview58"
     showgrid="false"
     fit-margin-top="0"
     fit-margin-left="0"
     fit-margin-right="0"
     fit-margin-bottom="0"
     inkscape:zoom="11.313709"
     inkscape:cx="33.196363"
     inkscape:cy="17.20417"
     inkscape:window-x="-8"
     inkscape:window-y="-8"
     inkscape:window-maximized="1"
     inkscape:current-layer="svg2" />
  <!-- draw the bicycle -->
  <!-- RIGHT -->
  <!-- LANE -->
  <!-- ONLY -->
  <path
     inkscape:connector-curvature="0"
     d="m 11.6284,-8.1584959e-6 112.7937,0 0.4903,0 0,0.0099999985 c 5.8455,0.2611 10.5587,4.98120006 10.7985,10.82680016 l 0.014,0.011 0,0.4657 0,79.1739 0,0.1024 0,0 c -0.049,5.7185 -4.3885,10.449198 -9.9412,11.126598 l -0.078,0.078 -1.2877,0 -113.1041,0 -0.2963,0 0,0 C 5.094,101.64199 0.275,96.900692 0.014,91.002192 l -0.014,-0.011 0,-0.5045 0,-78.6377 0.014,-0.01 C 0,11.666092 0,11.489692 0,11.313292 0,5.0832919 5.08,0.00329184 11.3136,0.00329184 c 0.099,0 0.201,0 0.3034,0 l 0.01,0 z"
     style="fill:#ffd033;fill-opacity:1;fill-rule:nonzero;stroke:none"
     id="path3416" />
  <path
     inkscape:connector-curvature="0"
     d="m 12.4504,2.2598919 110.8357,0 c 5.6057,0 10.1812,4.572 10.1812,10.1812001 l 0,76.9161 c 0,5.6021 -4.5755,10.1776 -10.1812,10.1776 l -110.8357,0 c -5.6092,0 -10.1847,-4.5755 -10.1847,-10.1776 l 0,-76.9161 c 0,-5.6092001 4.5755,-10.1812001 10.1847,-10.1812001"
     style="fill:#000000;fill-opacity:1;fill-rule:evenodd;stroke:none"
     id="path3424" />
  <path
     inkscape:connector-curvature="0"
     d="m 12.5456,5.6221919 110.6417,0 c 3.8242,0 6.9462,3.1186 6.9462,6.9427001 l 0,76.7044 c 0,3.8242 -3.122,6.9392 -6.9462,6.9392 l -110.6417,0 c -3.8241,0 -6.9462,-3.115 -6.9462,-6.9392 l 0,-76.7044 c 0,-3.8241001 3.1221,-6.9427001 6.9462,-6.9427001"
     style="fill:#ffd033;fill-opacity:1;fill-rule:evenodd;stroke:none"
     id="path3428" />
  <path
     inkscape:connector-curvature="0"
     d="m 96.5103,24.008592 0,-3.0127 -11.5005,0 0,3.0127 4.1204,0 0,19.5933 3.2526,0 0,-19.5933 4.1275,0 z m -12.8517,19.5933 -4.9177,-11.7405 4.5191,-10.8655 -3.4114,0 -2.854,6.8192 -2.8575,-6.8192 -3.4113,0 4.6037,10.8655 -4.9212,11.7405 3.4113,0 3.175,-7.6941 3.1786,7.6941 3.4854,0 z m -15.3105,0 0,-3.175 -8.255,0 0,-7.4542 4.6884,0 0,-3.0939 -4.6884,0 0,-5.7114 7.3801,0 0,-3.1715 -10.6292,0 0,22.606 11.5041,0 z m -16.3442,0 0,-22.606 -3.2491,0 0,13.5608 -6.1877,-13.5608 -3.2527,0 0,22.606 3.2527,0 0,-15.1518 6.9779,15.1518 2.4589,0 z"
     style="fill:#000000;fill-opacity:1;fill-rule:evenodd;stroke:none"
     id="path3432" />
  <path
     inkscape:connector-curvature="0"
     d="m 116.9749,74.392992 c 0,-3.2526 -1.905,-5.7114 -6.2653,-8.2514 -1.6687,-0.949 -2.1414,-1.5875 -2.1414,-2.6988 0,-1.5063 1.1854,-2.6211 2.6917,-2.6211 1.4288,0 2.5365,1.0372 2.6212,2.6211 l 3.0938,0 c -0.085,-3.4078 -2.5365,-5.8702 -5.715,-5.8702 -3.2526,0 -5.7855,2.6211 -5.7855,5.8702 0,1.9862 0.9489,3.7289 2.7763,4.9989 4.5967,3.0938 3.3267,2.219 3.803,2.6987 1.3511,1.0301 1.8274,1.9826 1.8274,3.2526 0,1.8239 -1.4288,3.4114 -3.1715,3.4114 -2.226,0 -3.175,-1.9861 -3.175,-3.8876 l -3.1715,0 c 0,3.7253 2.3777,7.0732 6.3465,7.0732 3.4854,0 6.2653,-2.9492 6.2653,-6.597 m -15.3105,6.1878 0,-3.175 -8.248,0 0,-7.4578 4.6779,0 0,-3.0938 -4.6779,0 0,-5.7115 7.3731,0 0,-3.1715 -10.6327,0 0,22.6096 11.5076,0 z m -14.6015,0 0,-3.0128 -8.248,0 0,-19.5968 -3.2526,0 0,22.6096 11.5006,0 z m -16.4183,-22.6096 -3.1715,0 0,22.6096 3.1715,0 0,-22.6096 z m -8.0892,22.6096 0,-22.6096 -3.2526,0 -4.2122,12.6895 -4.2015,-12.6895 -3.2527,0 0,22.6096 3.2527,0 0,-12.6965 4.2015,12.6965 4.2122,-12.6965 0,12.6965 3.2526,0 z m -30.6211,-19.4381 0,-3.1715 -12.6153,0 0,3.1715 8.4949,0 c -2.2261,3.5701 -3.4185,6.2689 -4.3674,9.9201 -0.7938,3.0127 -1.3441,6.7416 -1.3441,9.0417 l 0,0.4763 3.1679,0 c 0.1588,-4.124 0.635,-7.1438 1.8274,-10.6328 1.2665,-3.6477 2.854,-6.5052 4.8366,-8.8053"
     style="fill:#000000;fill-opacity:1;fill-rule:evenodd;stroke:none"
     id="path3436" />
</svg>
