<?xml version="1.0" encoding="UTF-8" standalone="no"?>
<!-- Created with Inkscape (http://www.inkscape.org/) -->

<svg
   xmlns:dc="http://purl.org/dc/elements/1.1/"
   xmlns:cc="http://creativecommons.org/ns#"
   xmlns:rdf="http://www.w3.org/1999/02/22-rdf-syntax-ns#"
   xmlns:svg="http://www.w3.org/2000/svg"
   xmlns="http://www.w3.org/2000/svg"
   xmlns:sodipodi="http://sodipodi.sourceforge.net/DTD/sodipodi-0.dtd"
   xmlns:inkscape="http://www.inkscape.org/namespaces/inkscape"
   width="752.5"
   height="752.5"
   id="svg2"
   sodipodi:version="0.32"
   inkscape:version="0.48.2 r9819"
   version="1.0"
   sodipodi:docname="AJAX1.svg">
  <defs
     id="defs4" />
  <sodipodi:namedview
     id="base"
     pagecolor="#ffffff"
     bordercolor="#666666"
     borderopacity="1.0"
     gridtolerance="10000"
     guidetolerance="10"
     objecttolerance="10"
     inkscape:pageopacity="0.0"
     inkscape:pageshadow="2"
     inkscape:zoom="0.72784856"
     inkscape:cx="326.35528"
     inkscape:cy="531.15287"
     inkscape:document-units="px"
     inkscape:current-layer="layer1"
     width="751px"
     height="751px"
     inkscape:window-width="1280"
     inkscape:window-height="1004"
     inkscape:window-x="-8"
     inkscape:window-y="-8"
     showgrid="false"
     fit-margin-top="0"
     fit-margin-left="0"
     fit-margin-right="0"
     fit-margin-bottom="0"
     inkscape:window-maximized="1" />
  <metadata
     id="metadata7">
    <rdf:RDF>
      <cc:Work
         rdf:about="">
        <dc:format>image/svg+xml</dc:format>
        <dc:type
           rdf:resource="http://purl.org/dc/dcmitype/StillImage" />
      </cc:Work>
    </rdf:RDF>
  </metadata>
  <g
     inkscape:label="Layer 1"
     inkscape:groupmode="layer"
     id="layer1"
     transform="translate(-65.1875,-184.71875)">
    <path
       style="color:#000000;fill:#ffffff;fill-opacity:1;fill-rule:nonzero;stroke:#000000;stroke-width:2.5;stroke-opacity:1;marker:none;visibility:visible;display:inline;overflow:visible"
       d="m 113.32278,185.97814 656.25,0 c 25.96875,0 46.875,20.90625 46.875,46.875 l 0,656.25 c 0,25.96875 -20.90625,46.875 -46.875,46.875 l -656.25,0 c -25.968745,0 -46.874995,-20.90625 -46.874995,-46.875 l 0,-656.25 c 0,-25.96875 20.90625,-46.875 46.874995,-46.875 z"
       id="rect1872"
       inkscape:connector-curvature="0" />
    <path
       style="color:#000000;fill:#af1e2d;fill-opacity:1;fill-rule:nonzero;stroke:none;stroke-width:0.87354410000000005;marker:none;visibility:visible;display:inline;overflow:visible"
       d="m 441.44778,198.47814 c 200.825,0 362.5,161.675 362.5,362.5 0,200.825 -161.675,362.5 -362.5,362.5 -200.825,0 -362.499995,-161.675 -362.499995,-362.5 0,-200.825 161.674995,-362.5 362.499995,-362.5 z"
       id="rect2762"
       inkscape:connector-curvature="0" />
    <path
       style="color:#000000;fill:#ffffff;fill-opacity:1;fill-rule:nonzero;stroke:none;stroke-width:0.8735441;marker:none;visibility:visible;display:inline;overflow:visible"
       d="m 141.44778,498.47814 600,0 c 6.925,0 12.5,27.875 12.5,62.5 0,34.625 -5.575,62.5 -12.5,62.5 l -600,0 c -6.925,0 -12.5,-27.875 -12.5,-62.5 0,-34.625 5.575,-62.5 12.5,-62.5 z"
       id="rect4692"
       inkscape:connector-curvature="0" />
    <path
       style="font-size:149.25px;font-style:normal;font-variant:normal;font-weight:normal;font-stretch:normal;text-align:center;line-height:125%;writing-mode:lr-tb;text-anchor:middle;fill:#ffffff;fill-opacity:1;font-family:Roadgeek 2005 Series D"
       d="m 415.16221,448.47814 -38.20523,-67.76099 0,67.76099 -15.8232,0 0,-99.9995 15.8232,0 36.41521,63.88034 0,-63.88034 15.8232,0 0,99.9995 z"
       id="text2778"
       inkscape:connector-curvature="0"
       sodipodi:nodetypes="ccccccccccc" />
    <path
       style="font-size:150.83633423px;font-style:normal;font-variant:normal;font-weight:normal;font-stretch:normal;text-align:center;line-height:125%;writing-mode:lr-tb;text-anchor:middle;fill:#ffffff;fill-opacity:1;font-family:Roadgeek 2005 Series D"
       d="m 244.57281,773.47786 0,-99.99899 60.21691,0 0,15.82312 -44.05548,0 0,24.47709 29.72698,0 0,16.11917 -29.72698,0 0,27.46044 47.25613,0 0,16.11917 z"
       id="text2784"
       inkscape:connector-curvature="0"
       sodipodi:nodetypes="ccccccccccccc" />
    <path
       inkscape:connector-curvature="0"
       style="font-size:150.83633423px;font-style:normal;font-variant:normal;font-weight:normal;font-stretch:normal;text-align:center;line-height:125%;writing-mode:lr-tb;text-anchor:middle;fill:#ffffff;fill-opacity:1;font-family:Roadgeek 2005 Series D"
       d="m 380.44232,773.47786 -39.02189,-67.76064 0,67.76064 -16.16143,0 0,-99.99899 16.16143,0 37.19362,63.88003 0,-63.88003 16.16143,0 0,99.99899 z"
       id="text2784-1"
       sodipodi:nodetypes="ccccccccccc" />
    <path
       inkscape:connector-curvature="0"
       style="font-size:150.83633423px;font-style:normal;font-variant:normal;font-weight:normal;font-stretch:normal;text-align:center;line-height:125%;writing-mode:lr-tb;text-anchor:middle;fill:#ffffff;fill-opacity:1;font-family:Roadgeek 2005 Series D"
       d="m 449.53546,687.51198 0,85.96588 -16.15677,0 0,-85.96588 -23.32569,0 0,-14.03311 63.11053,0 0,14.03311 z"
       id="text2784-7"
       sodipodi:nodetypes="ccccccccc" />
    <path
       inkscape:connector-curvature="0"
       style="font-size:150.83633423px;font-style:normal;font-variant:normal;font-weight:normal;font-stretch:normal;text-align:center;line-height:125%;writing-mode:lr-tb;text-anchor:middle;fill:#ffffff;fill-opacity:1;font-family:Roadgeek 2005 Series D"
       d="m 568.80578,773.47786 0,-99.99899 60.21691,0 0,15.82312 -44.05549,0 0,24.47709 29.72698,0 0,16.11917 -29.72698,0 0,27.46044 47.25614,0 0,16.11917 z"
       id="text2784-4"
       sodipodi:nodetypes="ccccccccccccc" />
    <path
       inkscape:connector-curvature="0"
       style="font-size:150.83633423px;font-style:normal;font-variant:normal;font-weight:normal;font-stretch:normal;text-align:center;line-height:125%;writing-mode:lr-tb;text-anchor:middle;fill:#ffffff;fill-opacity:1;font-family:Roadgeek 2005 Series D"
       d="m 540.10245,773.47786 -16.46382,-43.57961 -19.35743,0 0,43.57961 -16.16142,0 0,-99.99899 33.69058,0 c 3.96354,10e-5 7.3681,0.22404 10.21371,0.67183 2.84548,0.44797 5.53827,1.2701 8.07838,2.46638 2.23605,1.09322 4.29461,2.5105 6.17568,4.25184 1.88093,1.74151 3.50684,3.73116 4.87773,5.96896 1.37075,2.23797 2.43763,4.62617 3.20065,7.16459 0.76287,2.53857 1.14434,5.05126 1.14442,7.53807 -8e-5,2.68735 -0.38155,5.29948 -1.14442,7.83639 -0.76302,2.53706 -1.8299,4.92449 -3.20065,7.16231 -1.37089,2.23794 -3.0472,4.25265 -5.02893,6.04413 -1.98187,1.79157 -4.14199,3.18532 -6.48039,4.18124 l 17.98971,46.71325 z m -0.76295,-71.93732 c -6e-5,-2.08903 -0.55831,-4.07868 -1.67475,-5.96897 -1.11657,-1.89013 -2.69209,-3.38332 -4.72655,-4.47958 -1.32126,-0.69526 -2.54088,-1.16744 -3.65888,-1.41651 -1.11811,-0.24892 -2.99833,-0.37341 -5.64069,-0.37349 l -19.35743,0 0,24.47709 19.35743,0 c 2.5431,6e-5 4.39853,-0.0994 5.56625,-0.29833 1.16763,-0.19883 2.41206,-0.64747 3.73332,-1.34592 2.03446,-1.09308 3.60998,-2.6098 4.72655,-4.55018 1.11644,-1.94024 1.67469,-3.95495 1.67475,-6.04411 z"
       id="text2784-0"
       sodipodi:nodetypes="cccccccccccccccscccccccccccccccc" />
    <path
       sodipodi:nodetypes="cccsscssscccccccccccccccssccccccccc"
       inkscape:connector-curvature="0"
       id="path3795"
       d="m 521.76154,398.62642 c -8e-5,7.96174 -0.94519,15.57424 -2.83533,22.83751 -1.89029,7.26332 -4.57683,13.13439 -8.05962,17.61321 -5.57204,7.46068 -13.6309,11.19101 -24.17661,11.19102 -7.06597,-1e-5 -12.88693,-1.44234 -17.46291,-4.32701 -4.57602,-2.88467 -8.35646,-7.41209 -11.34132,-13.58227 -2.08913,-4.2784 -3.78045,-9.47688 -5.07399,-15.59545 -1.29356,-6.11851 -1.94033,-12.16418 -1.94032,-18.13701 -1e-5,-8.25619 0.97015,-15.91651 2.91048,-22.98099 1.94031,-7.06433 4.6018,-12.98474 7.98448,-17.76124 2.98485,-3.78035 6.54211,-6.59138 10.67177,-8.43312 4.12961,-1.84153 9.07909,-2.76235 14.84848,-2.76245 6.36749,10e-5 11.78991,1.4432 16.26729,4.32929 4.47725,2.88629 8.30855,7.41294 11.4939,13.57998 2.08904,4.47892 3.73027,9.70321 4.92369,15.67289 1.19326,5.96982 1.78993,12.08836 1.79001,18.35564 z m -15.81864,0 c -6e-5,-5.66909 -0.49729,-10.91692 -1.49168,-15.74349 -0.99451,-4.82645 -2.48771,-8.93103 -4.47959,-12.31376 -1.59119,-2.58702 -3.40625,-4.47724 -5.44521,-5.67067 -2.03906,-1.19325 -4.551,-1.89013 -7.53583,-2.09063 -3.88068,-0.19728 -7.11455,0.69848 -9.70161,2.68731 -2.58713,1.98898 -4.72634,5.22285 -6.41764,9.70161 -1.29358,2.98495 -2.26374,6.59155 -2.91049,10.81981 -0.6468,4.22838 -0.97018,8.43165 -0.97016,12.60982 -2e-5,5.37465 0.4972,10.54959 1.49168,15.52486 0.99443,4.97533 2.48611,9.0541 4.47504,12.23633 1.59413,2.58712 3.48511,4.52744 5.67294,5.82097 2.18776,1.29356 4.8743,1.94034 8.05963,1.94032 3.68019,2e-5 6.73946,-0.99444 9.17782,-2.98336 2.43825,-1.98889 4.50307,-5.22275 6.19446,-9.70161 0.49792,-1.29352 0.99591,-2.86036 1.49395,-4.7005 0.49793,-1.84009 0.92076,-3.78041 1.2685,-5.82097 0.34762,-2.04049 0.6209,-4.10531 0.81986,-6.19446 0.19882,-2.08907 0.29827,-4.12959 0.29833,-6.12158 z"
       style="font-size:149.25px;font-style:normal;font-variant:normal;font-weight:normal;font-stretch:normal;text-align:center;line-height:125%;writing-mode:lr-tb;text-anchor:middle;fill:#ffffff;fill-opacity:1;font-family:Roadgeek 2005 Series D" />
  </g>
</svg>
