<?xml version="1.0" encoding="UTF-8" standalone="no"?>
<svg
   xmlns:dc="http://purl.org/dc/elements/1.1/"
   xmlns:cc="http://creativecommons.org/ns#"
   xmlns:rdf="http://www.w3.org/1999/02/22-rdf-syntax-ns#"
   xmlns:svg="http://www.w3.org/2000/svg"
   xmlns="http://www.w3.org/2000/svg"
   version="1.1"
   width="301.43332"
   height="301.43332"
   viewBox="0 0 282.59375 282.59375"
   enable-background="new -1 0 289 288"
   xml:space="preserve"
   id="svg2">
<path
   d="m 280.84588,264.26949 c 0,9.66251 -7.90625,17.56876 -17.56876,17.56876 H 17.314615 c -9.66249,0 -17.56874,-7.90625 -17.56874,-17.56876 V 18.30695 c 0,-9.6625 7.90625,-17.56874 17.56876,-17.56874 H 263.27712 c 9.66251,0 17.56876,7.90624 17.56876,17.56874 z"
   style="fill:#ffffff;fill-opacity:1;fill-rule:nonzero;stroke:#000000;stroke-width:1.5;stroke-miterlimit:4;stroke-dasharray:none;stroke-opacity:1"
   id="path3830" /><path
   d="M 263.27714,5.13045 H 17.314635 c -7.24625,0 -13.17625,5.93 -13.17625,13.17625 v 245.96252 c 0,7.2475 5.93,13.17625 13.17625,13.17625 H 263.27714 c 7.2475,0 13.17625,-5.92875 13.17625,-13.17625 V 18.30671 c 0,-7.24626 -5.92875,-13.17626 -13.17625,-13.17626 m 5.85625,259.13877 c 0,3.22125 -2.635,5.85625 -5.85625,5.85625 H 17.314635 c -3.22125,0 -5.85625,-2.635 -5.85625,-5.85625 V 18.30671 c 0,-3.22 2.635,-5.85625 5.85625,-5.85625 H 263.27714 c 3.22125,0 5.85625,2.63625 5.85625,5.85625 z"
   style="fill:#000000;fill-opacity:1;fill-rule:nonzero;stroke:none"
   id="path3838" /><path
   d="m 107.98714,70.604575 c 0.95,-0.665 2.1075,-1.055 3.355,-1.055 3.23375,0 5.85625,2.62125 5.85625,5.85625 0,0.60625 -0.0925,1.19125 -0.26375,1.74125 l -5.18875,17.29125 h 75.4 V 217.4196 h -29.28125 v -93.69999 h -46.11875 l 5.18875,17.29124 c 0.17125,0.55 0.26375,1.13498 0.26375,1.74125 0,3.23374 -2.6225,5.85625 -5.85625,5.85625 -1.2475,0 -2.405,-0.39 -3.355,-1.05503 L 52.452135,109.07836 Z"
   style="fill:#000000;fill-opacity:1;fill-rule:nonzero;stroke:none"
   id="path3842" /><path
   d="m 140.29612,18.30696 c -67.921245,0 -122.981245,55.059995 -122.981245,122.98129 0,67.92 55.06,122.98124 122.981245,122.98124 67.92126,0 122.98126,-55.06125 122.98126,-122.98124 0,-67.921295 -55.06,-122.98129 -122.98126,-122.98129 M 40.739875,141.28825 c 0,-23.27126 7.985,-44.676295 21.36375,-61.628795 L 201.92488,219.48075 c -16.95125,13.37871 -38.35751,21.36374 -61.62876,21.36374 -54.983745,0 -99.556245,-44.5725 -99.556245,-99.55624 M 218.48863,202.917 78.667375,63.095705 c 16.9525,-13.37875 38.357495,-21.36375 61.628745,-21.36375 54.98376,0 99.55626,44.5725 99.55626,99.556295 0,23.27123 -7.985,44.67623 -21.36375,61.62871"
   style="fill:#bf2033;fill-opacity:1;fill-rule:nonzero;stroke:none"
   id="path3846" /></svg>
