<?xml version="1.0" encoding="UTF-8" standalone="no"?>
<!-- Generator: Adobe Illustrator 16.0.0, SVG Export Plug-In . SVG Version: 6.00 Build 0)  -->

<svg
   xmlns:dc="http://purl.org/dc/elements/1.1/"
   xmlns:cc="http://creativecommons.org/ns#"
   xmlns:rdf="http://www.w3.org/1999/02/22-rdf-syntax-ns#"
   xmlns:svg="http://www.w3.org/2000/svg"
   xmlns="http://www.w3.org/2000/svg"
   xmlns:sodipodi="http://sodipodi.sourceforge.net/DTD/sodipodi-0.dtd"
   xmlns:inkscape="http://www.inkscape.org/namespaces/inkscape"
   version="1.1"
   id="Layer_1"
   x="0px"
   y="0px"
   width="90"
   height="112.365"
   viewBox="0 0 90.000002 112.365"
   enable-background="new 0 0 850.394 425.197"
   xml:space="preserve"
   inkscape:version="0.48.2 r9819"
   sodipodi:docname="AJAX1.svg"><metadata
   id="metadata37"><rdf:RDF><cc:Work
       rdf:about=""><dc:format>image/svg+xml</dc:format><dc:type
         rdf:resource="http://purl.org/dc/dcmitype/StillImage" /><dc:title></dc:title></cc:Work></rdf:RDF></metadata><defs
   id="defs35" /><sodipodi:namedview
   pagecolor="#ffffff"
   bordercolor="#666666"
   borderopacity="1"
   objecttolerance="10"
   gridtolerance="10"
   guidetolerance="10"
   inkscape:pageopacity="0"
   inkscape:pageshadow="2"
   inkscape:window-width="1280"
   inkscape:window-height="1004"
   id="namedview33"
   showgrid="false"
   fit-margin-top="0"
   fit-margin-left="0"
   fit-margin-right="0"
   fit-margin-bottom="0"
   inkscape:zoom="3.3302211"
   inkscape:cx="58.183611"
   inkscape:cy="34.147036"
   inkscape:window-x="-8"
   inkscape:window-y="-8"
   inkscape:window-maximized="1"
   inkscape:current-layer="Layer_1"
   showguides="true"
   inkscape:guide-bbox="true" />













<path
   inkscape:connector-curvature="0"
   d="M 90.000003,112.365 0,112.365 0,-1.8038472e-7 l 90.000003,0 L 90.000003,112.365 z"
   style="fill:#000000;fill-opacity:1;fill-rule:evenodd;stroke:none"
   id="path3045" /><path
   inkscape:connector-curvature="0"
   d="m 54.630502,11.2945 c 0,1.17 -0.27,2.61 -0.585,3.42 -0.49625,1.305 -1.17,1.89 -2.295,1.89 -0.945,0 -1.575,-0.36 -2.07,-1.17 -0.54,-0.945 -0.855,-2.565 -0.855,-4.14 0,-1.26 0.18,-2.6550002 0.54,-3.5100002 0.53875,-1.35 1.26,-1.89 2.42875,-1.845 0.90125,0.045 1.48625,0.36 1.93625,1.125 0.58375,1.035 0.9,2.52 0.9,4.2300002 m 2.38375,0 c 0,-1.8900002 -0.35875,-3.7800002 -0.98875,-5.0850002 -0.945,-1.845 -2.295,-2.7 -4.185,-2.7 -1.71125,0 -2.925,0.54 -3.825,1.665 -0.99,1.44 -1.62125,3.645 -1.62125,6.1200002 0,1.8 0.405,3.78 1.035,5.04 0.90125,1.845 2.20625,2.7 4.32125,2.7 1.575,0 2.79,-0.54 3.645,-1.71 1.035,-1.305 1.61875,-3.69 1.61875,-6.03 m -13.770001,7.47 0,-14.9850002 -2.385,0 0,9.5400002 -5.44375,-9.5400002 -2.38625,0 0,14.9850002 2.38625,0 0,-10.1700002 5.715,10.1700002 2.11375,0 z"
   style="fill:#ffffff;fill-opacity:1;fill-rule:evenodd;stroke:none"
   id="path3405" /><path
   inkscape:connector-curvature="0"
   d="m 68.940502,63.62964 0,-14.94 -2.385,0 0,9.54 -5.445,-9.54 -2.385,0 0,14.94 2.385,0 0,-10.08 5.715,10.08 2.115,0 z m -15.345,-10.71 c 0,0.63 -0.36125,1.26 -0.945,1.575 -0.36,0.18 -0.63125,0.27 -1.35,0.27 l -2.83625,0 0,-3.69 2.83625,0 c 0.765,0 0.99,0.045 1.35,0.27 0.58375,0.315 0.945,0.945 0.945,1.575 m 2.69875,10.71 -2.65375,-6.975 c 1.39375,-0.63 2.33875,-2.16 2.33875,-3.735 0,-1.53 -0.945,-3.105 -2.295,-3.735 -0.71875,-0.36 -1.52875,-0.495 -2.65375,-0.495 l -4.95125,0 0,14.94 2.385,0 0,-6.525 2.83625,0 2.38375,6.525 2.61,0 z m -13.680001,-5.355 0,-9.585 -2.385,0 0,9.585 c 0,1.935 -1.07875,3.195 -2.74375,3.195 -1.62125,0 -2.7,-1.26 -2.7,-3.195 l 0,-9.585 -2.385,0 0,9.585 c 0,1.17 0.27,2.20375 0.675,3.105 0.80875,1.485 2.61,2.52 4.41,2.52 1.845,0 3.645,-1.035 4.455,-2.52 0.405,-0.90125 0.67375,-1.935 0.67375,-3.105 m -12.41875,-7.47 0,-2.115 -9.22625,0 0,2.115 3.37625,0 0,12.825 2.385,0 0,-12.825 3.465,0 z"
   style="fill:#ffffff;fill-opacity:1;fill-rule:evenodd;stroke:none"
   id="path3413" /><path
   inkscape:connector-curvature="0"
   d="m 82.529253,81.80964 c 0,-5.895 -7.018751,-4.05 -7.243751,-6.84 -0.09,-1.35 1.21375,-1.8 2.295001,-1.71 1.70875,0.045 2.24875,1.305 2.24875,1.305 l 2.07,-0.63 c -0.72,-1.845 -2.15875,-3.06 -4.22875,-3.06 -2.700001,0 -4.680001,1.125 -4.680001,4.05 0,2.475 1.98,3.375 2.87875,3.735 1.936251,0.765 4.275001,1.08 4.275001,3.105 0,1.26 -0.945,2.205 -2.33875,2.205 -1.395001,0 -2.566251,-0.81 -3.196251,-2.205 l -2.24875,0.855 c 0.98875,2.25 2.87875,3.78 5.445001,3.78 1.26,0 2.42875,-0.45 3.285,-1.17 0.945,-0.855 1.43875,-2.07 1.43875,-3.42 m -11.608751,0 c 0,-5.895 -7.02,-4.05 -7.24625,-6.84 -0.09,-1.35 1.21625,-1.8 2.295,-1.71 1.71125,0.045 2.20625,1.305 2.20625,1.305 l 2.115,-0.63 c -0.72,-1.845 -2.16,-3.06 -4.23125,-3.06 -2.7,0 -4.68,1.125 -4.68,4.05 0,2.475 1.98,3.375 2.88125,3.735 1.935,0.765 4.23,1.08 4.23,3.105 0,1.26 -0.94625,2.205 -2.295,2.205 -1.39625,0 -2.565,-0.81 -3.195,-2.205 l -2.25125,0.855 c 0.99125,2.25 2.88125,3.78 5.44625,3.78 1.26,0 2.43,-0.45 3.24,-1.17 0.945,-0.855 1.485,-2.07 1.485,-3.42 m -14.76125,-3.15 c 0,1.17 -0.26875,2.61 -0.58375,3.42 -0.54125,1.305 -1.215,1.89 -2.295,1.89 -0.94625,0 -1.57625,-0.36 -2.07,-1.17 -0.585,-0.945 -0.9,-2.565 -0.9,-4.14 0,-1.26 0.22375,-2.61 0.585,-3.51 0.54,-1.35 1.26,-1.89 2.43,-1.845 0.89875,0.045 1.48375,0.36 1.935,1.17 0.58375,0.99 0.89875,2.52 0.89875,4.185 m 2.38625,0 c 0,-1.89 -0.40625,-3.78 -1.03625,-5.085 -0.94375,-1.84625 -2.24875,-2.7 -4.14,-2.7 -1.70875,0 -2.925,0.54 -3.82375,1.665 -0.99125,1.44 -1.62125,3.645 -1.62125,6.12 0,1.8 0.40625,3.78 1.03625,5.04 0.9,1.845 2.20375,2.7 4.32,2.7 1.575,0 2.78875,-0.54 3.6,-1.71 1.07875,-1.305 1.665,-3.69 1.665,-6.03 m -15.435001,-3.33 c 0,0.63 -0.36125,1.26 -0.945,1.575 -0.36125,0.225 -0.63,0.27 -1.35,0.27 l -2.835,0 0,-3.69 2.835,0 c 0.76375,0 0.98875,0.09 1.35,0.27 0.58375,0.315 0.945,0.945 0.945,1.575 m 2.653751,10.8 -2.610001,-7.02 c 1.39625,-0.63 2.295001,-2.205 2.295001,-3.78 0,-1.53 -0.898751,-3.105 -2.205001,-3.735 -0.76375,-0.36 -1.52875,-0.45 -2.7,-0.45 l -4.94875,0 0,14.985 2.385,0 0,-6.525 2.835,0 2.42875,6.525 2.520001,0 z m -13.408751,-3.06 -2.25,-0.855 c -0.58625,1.215 -1.35,1.755 -2.34,1.755 -1.035,0 -1.71125,-0.36 -2.25,-1.17 -0.58625,-0.945 -0.945,-2.565 -0.945,-4.185 0,-1.26125 0.225,-2.565 0.585,-3.465 0.54,-1.35 1.305,-1.845 2.52,-1.845 1.17,0 1.61875,0.315 2.475,1.575 l 2.205,-0.945 c -0.99125,-2.115 -2.43125,-3.06 -4.68,-3.06 -1.665,0 -2.925,0.585 -3.825,1.665 -1.08,1.35 -1.71,3.69 -1.71,6.075 0,1.89 0.45,3.78 1.12375,5.085 0.945,1.845 2.34125,2.7 4.54625,2.7 2.16,0 3.645,-1.125 4.545,-3.33 m -16.965,-3.555 -3.015001,0 1.53,-4.23 1.485001,4.23 z m 4.815,6.615 -5.13,-14.985 -2.385001,0 -5.129999,14.985 2.519999,0 1.44,-4.23 4.680001,0 1.485,4.23 2.52,0 z"
   style="fill:#ffffff;fill-opacity:1;fill-rule:evenodd;stroke:none"
   id="path3417" /><path
   inkscape:connector-curvature="0"
   d="m 81.494253,104.3095 c 0,-5.894994 -7.018751,-4.05 -7.243751,-6.83999 -0.09,-1.395 1.215,-1.8 2.338751,-1.755 1.665,0.045 2.205,1.305 2.205,1.305 l 2.07,-0.63 c -0.72,-1.8 -2.11375,-3.015 -4.22875,-3.015 -2.700001,0 -4.680001,1.08 -4.680001,4.05 0,2.429996 1.98,3.32999 2.87875,3.73499 1.936251,0.765 4.276251,1.08 4.276251,3.06 0,1.26 -0.94625,2.205 -2.34,2.205 -1.395001,0 -2.566251,-0.765 -3.196251,-2.205 l -2.24875,0.855 c 0.98875,2.25 2.87875,3.78 5.445001,3.78 1.25875,0 2.42875,-0.405 3.285,-1.17 0.945,-0.81 1.43875,-2.025 1.43875,-3.375 m -11.653751,4.275 -4.95,-9.134994 4.635,-5.804996 -3.015,0 -4.77,5.894996 0,-5.894996 -2.34125,0 0,14.93999 2.34125,0 0,-5.13 1.575,-1.935 3.825,7.065 2.7,0 z m -13.725,-3.015 -2.25125,-0.855 c -0.58375,1.215 -1.30375,1.71 -2.295,1.71 -1.07875,0 -1.755,-0.36 -2.24875,-1.125 -0.585,-0.945 -0.94625,-2.565 -0.94625,-4.23 0,-1.259994 0.18,-2.564994 0.54125,-3.46499 0.54,-1.305 1.35,-1.845 2.56375,-1.845 1.12625,0 1.62125,0.315 2.43125,1.575 l 2.205,-0.945 c -0.99125,-2.07 -2.385,-3.015 -4.63625,-3.015 -1.70875,0 -2.96875,0.585 -3.87,1.665 -1.035,1.305 -1.665,3.689996 -1.665,6.02999 0,1.89 0.40625,3.78 1.08125,5.13 0.945,1.845 2.38375,2.655 4.59,2.655 2.15875,0 3.645,-1.08 4.5,-3.285 m -16.921251,-3.6 -2.96875,0 1.53,-4.18499 1.43875,4.18499 z m 4.86125,6.615 -5.17625,-14.93999 -2.33875,0 -5.17625,14.93999 2.52,0 1.485,-4.185 4.68125,0 1.485,4.185 2.52,0 z M 27.539251,97.82951 c 0,0.629996 -0.35875,1.259996 -0.945,1.574996 -0.35875,0.225 -0.63,0.27 -1.35,0.27 l -2.835,0 0,-3.689996 2.835,0 c 0.76625,0 0.99125,0.045 1.35,0.27 0.58625,0.315 0.945,0.945 0.945,1.575 m 2.7,10.75499 -2.65375,-6.975 c 1.35,-0.63 2.33875,-2.204994 2.33875,-3.77999 0,-1.53 -0.98875,-3.105 -2.295,-3.735 -0.72,-0.36 -1.53,-0.45 -2.65375,-0.45 l -4.95125,0 0,14.93999 2.385,0 0,-6.48 2.835,0 2.385,6.48 2.61,0 z m -12.42,-12.86999 0,-2.07 -9.27,0 0,2.07 3.421249,0 0,12.86999 2.385001,0 0,-12.86999 3.46375,0 z"
   style="fill:#ffffff;fill-opacity:1;fill-rule:evenodd;stroke:none"
   id="path3421" /><path
   d="m 66.375377,28.394125 0,-2.11375 -9.22375,0 0,2.11375 3.41875,0 0,12.87 2.34,0 0,-12.87 3.465,0 z m -10.125,0.27 0,-2.38375 -9.31375,0 0,14.98375 2.38375,0 0,-6.525 4.365,0 0,-2.385 -4.365,0 0,-3.69 6.93,0 z m -11.745001,12.6 0,-2.43 -6.92875,0 0,-4.095 4.365,0 0,-2.385 -4.365,0 0,-3.69 6.47875,0 0,-2.38375 -8.82,0 0,14.98375 9.27,0 z m -11.475,0 0,-2.205 -6.93,0 0,-12.77875 -2.38375,0 0,14.98375 9.31375,0 z"
   style="fill:#ffffff;fill-opacity:1;fill-rule:evenodd;stroke:none"
   id="path3443"
   inkscape:connector-curvature="0" /></svg>