<?xml version="1.0" encoding="UTF-8" standalone="no"?>
<svg
   xmlns:dc="http://purl.org/dc/elements/1.1/"
   xmlns:cc="http://creativecommons.org/ns#"
   xmlns:rdf="http://www.w3.org/1999/02/22-rdf-syntax-ns#"
   xmlns:svg="http://www.w3.org/2000/svg"
   xmlns="http://www.w3.org/2000/svg"
   xmlns:sodipodi="http://sodipodi.sourceforge.net/DTD/sodipodi-0.dtd"
   xmlns:inkscape="http://www.inkscape.org/namespaces/inkscape"
   width="73.83329"
   height="74.383438"
   viewBox="0 0 208.374 209.92658"
   version="1.1"
   id="svg2"
   inkscape:version="0.48.2 r9819"
   sodipodi:docname="MUTCD W14-1aL.svg">
  <metadata
     id="metadata62">
    <rdf:RDF>
      <cc:Work
         rdf:about="">
        <dc:format>image/svg+xml</dc:format>
        <dc:type
           rdf:resource="http://purl.org/dc/dcmitype/StillImage" />
        <dc:title></dc:title>
      </cc:Work>
    </rdf:RDF>
  </metadata>
  <defs
     id="defs60" />
  <sodipodi:namedview
     pagecolor="#ffffff"
     bordercolor="#666666"
     borderopacity="1"
     objecttolerance="10"
     gridtolerance="10"
     guidetolerance="10"
     inkscape:pageopacity="0"
     inkscape:pageshadow="2"
     inkscape:window-width="1280"
     inkscape:window-height="1004"
     id="namedview58"
     showgrid="false"
     fit-margin-top="0"
     fit-margin-left="0"
     fit-margin-right="0"
     fit-margin-bottom="0"
     inkscape:zoom="5.6568543"
     inkscape:cx="28.938941"
     inkscape:cy="38.523194"
     inkscape:window-x="-8"
     inkscape:window-y="-8"
     inkscape:window-maximized="1"
     inkscape:current-layer="svg2" />
  <!-- draw the bicycle -->
  <!-- RIGHT -->
  <!-- LANE -->
  <!-- ONLY -->
  <path
     d="M 205.06273,96.734307 112.38793,3.3787032 c -4.4555,-4.51203 -11.9133,-4.49792 -16.3759,0 L 3.3443297,96.734307 c -4.4485,4.483813 -4.4697,11.987393 0,16.474723 L 96.01203,206.56817 c 4.452,4.46263 11.9345,4.49086 16.3759,0.007 l 92.6748,-93.36619 c 4.8013,-4.82952 4.0111,-11.54289 0,-16.474723"
     style="fill:#ffd033;fill-opacity:1;fill-rule:nonzero;stroke:none"
     id="path3558"
     inkscape:connector-curvature="0" />
  <path
     d="m 202.99543,111.12059 -92.6783,93.35913 c -3.3372,3.34786 -8.89,3.34081 -12.2308,0 L 5.4186297,111.12059 c -3.3196,-3.36197 -3.3408,-8.94292 0,-12.304894 L 98.08633,5.4459832 c 3.3197,-3.31964 8.9147,-3.33375 12.2308,0 l 92.6783,93.3697128 c 3.3126,3.347864 3.3267,8.964084 0,12.304894"
     style="fill:#000000;fill-opacity:1;fill-rule:evenodd;stroke:none"
     id="path3562"
     inkscape:connector-curvature="0" />
  <path
     d="m 199.55583,107.65631 c 1.4429,-1.4605 1.4429,-3.92994 0,-5.3975 L 106.87053,8.9173132 c -1.4535,-1.43933 -3.8947,-1.47461 -5.334,0 L 8.8653297,102.25881 c -1.4429,1.50283 -1.4676,3.90172 0,5.3975 l 92.6712003,93.35913 c 1.4605,1.4605 3.8664,1.45345 5.334,0 l 92.6853,-93.35913"
     style="fill:#ffd033;fill-opacity:1;fill-rule:evenodd;stroke:none"
     id="path3566"
     inkscape:connector-curvature="0" />
  <path
     d="m 123.66983,63.216533 c 0,2.33186 -0.5327,5.305776 -1.1712,6.896804 -1.0619,2.65289 -2.4413,3.817057 -4.6744,3.817057 -1.9085,0 -3.175,-0.740834 -4.138,-2.328334 -1.1642,-1.912056 -1.7992,-5.203477 -1.7992,-8.385527 0,-2.55059 0.4198,-5.30578 1.1642,-7.11553 1.0689,-2.65642 2.5505,-3.82059 4.8859,-3.7077 1.7957,0.10231 2.974,0.74436 3.9265,2.33186 1.1712,2.01437 1.8062,5.09412 1.8062,8.49137 m 4.7731,0 c 0,-3.82059 -0.7444,-7.64823 -2.0109,-10.30112 -1.9156,-3.71122 -4.5684,-5.40808 -8.3926,-5.40808 -3.4995,0 -5.9407,1.06186 -7.7434,3.39725 -2.0215,2.86456 -3.295,7.31661 -3.295,12.31195 0,3.60892 0.8537,7.641166 2.1237,10.184694 1.8027,3.718278 4.4556,5.436307 8.6995,5.436307 3.1927,0 5.6304,-1.083028 7.3343,-3.418418 2.1131,-2.652889 3.2844,-7.425973 3.2844,-12.202583 m -27.9118,15.070667 0,-30.250697 -4.7802,0 0,19.32164 -11.0313,-19.32164 -4.7766,0 0,30.250697 4.7766,0 0,-20.485807 11.5676,20.485807 4.2439,0 z"
     style="fill:#000000;fill-opacity:1;fill-rule:evenodd;stroke:none"
     id="path3570"
     inkscape:connector-curvature="0" />
  <path
     d="m 173.81713,104.13559 0,-4.240394 -18.6795,0 0,4.240394 6.8968,0 0,26.00678 4.773,0 0,-26.00678 7.0097,0 z m -21.0185,26.00678 0,-4.87892 -13.9982,0 0,-8.28322 8.7983,0 0,-4.88597 -8.7983,0 0,-7.42598 13.0422,0 0,-4.773084 -17.8259,0 0,30.247174 18.7819,0 z m -23.2304,0 0,-4.45558 -14.0158,0 0,-25.791594 -4.7767,0 0,30.247174 18.7925,0 z m -23.248,-26.00678 0,-4.240394 -18.6796,0 0,4.240394 6.8968,0 0,26.00678 4.7731,0 0,-26.00678 7.0097,0 z m -23.1387,15.1765 0,-19.416894 -4.7802,0 0,19.416894 c 0,3.93347 -2.219,6.477 -5.521,6.477 -3.2843,0 -5.5174,-2.54353 -5.5174,-6.477 l 0,-19.416894 -4.7766,0 0,19.416894 c 0,2.33892 0.5397,4.46617 1.3794,6.26534 1.598,2.97744 5.207,5.11175 8.9146,5.11175 3.7219,0 7.3308,-2.13431 8.9183,-5.11175 0.8537,-1.79917 1.3829,-3.92642 1.3829,-6.26534 m -31.9511,-4.24392 c 0,2.33187 -0.5221,5.30931 -1.1642,6.89681 -1.0583,2.65995 -2.4447,3.82411 -4.6708,3.82411 -1.9156,0 -3.182,-0.7373 -4.1345,-2.33539 -1.1713,-1.91205 -1.8098,-5.19641 -1.8098,-8.38553 0,-2.54352 0.4339,-5.3093 1.1712,-7.10494 1.0584,-2.65289 2.5471,-3.82764 4.8754,-3.72181 1.8133,0.10936 2.9775,0.74436 3.937,2.33539 1.1642,2.01789 1.7957,5.09411 1.7957,8.49136 m 4.7766,0 c 0,-3.82058 -0.7373,-7.63764 -2.0108,-10.29405 -1.9086,-3.71475 -4.5615,-5.415146 -8.3856,-5.415146 -3.5066,0 -5.9478,1.065396 -7.747,3.397256 -2.0179,2.86808 -3.2914,7.32719 -3.2914,12.31194 0,3.60892 0.8467,7.6447 2.1202,10.19528 1.8062,3.71123 4.4591,5.42573 8.703,5.42573 3.1856,0 5.6233,-1.07598 7.3237,-3.41136 2.1237,-2.65289 3.2879,-7.43303 3.2879,-12.20965"
     style="fill:#000000;fill-opacity:1;fill-rule:evenodd;stroke:none"
     id="path3574"
     inkscape:connector-curvature="0" />
</svg>
