<?xml version="1.0" encoding="utf-8"?>
<!-- Generator: Adobe Illustrator 12.0.1, SVG Export Plug-In  -->
<!DOCTYPE svg PUBLIC "-//W3C//DTD SVG 1.1//EN" "http://www.w3.org/Graphics/SVG/1.1/DTD/svg11.dtd" [
	<!ENTITY ns_flows "http://ns.adobe.com/Flows/1.0/">
	<!ENTITY ns_svg "http://www.w3.org/2000/svg">
	<!ENTITY ns_xlink "http://www.w3.org/1999/xlink">
]>
<svg  version="1.1" xmlns="&ns_svg;" xmlns:xlink="&ns_xlink;" xmlns:a="http://ns.adobe.com/AdobeSVGViewerExtensions/3.0/"
	 width="194" height="288" viewBox="-0.77 0 194 288" enable-background="new -0.77 0 194 288" xml:space="preserve">
<defs>
</defs>
<path fill="#FFFFFF" d="M167.876,1.396H24.582c-12.568,0-23.185,10.617-23.185,23.185v238.837c0,6.176,2.417,11.994,6.805,16.381
	c4.386,4.387,10.204,6.804,16.38,6.804h143.295c6.176,0,11.992-2.417,16.384-6.804c4.387-4.387,6.804-10.205,6.804-16.381V24.582
	C191.064,11.798,180.66,1.396,167.876,1.396z"/>
<path d="M167.876,0H24.582C11.257,0,0,11.258,0,24.582v238.837c0,6.55,2.562,12.715,7.212,17.368
	C11.865,285.438,18.033,288,24.582,288h143.295c6.547,0,12.718-2.562,17.371-7.213c4.648-4.653,7.213-10.818,7.213-17.368V24.582
	C192.46,11.026,181.434,0,167.876,0z M191.064,263.419c0,6.176-2.417,11.994-6.804,16.381c-4.392,4.387-10.208,6.804-16.384,6.804
	H24.582c-6.176,0-11.994-2.417-16.38-6.804c-4.388-4.387-6.805-10.205-6.805-16.381V24.582c0-12.568,10.617-23.185,23.185-23.185
	h143.295c12.783,0,23.188,10.402,23.188,23.185V263.419z"/>
<path fill-rule="evenodd" clip-rule="evenodd" fill="#BF2F37" d="M24.654,6.667h143.151c9.864,0.041,17.929,8.14,17.982,17.991
	V263.34c-0.054,9.858-8.118,17.938-17.982,17.993H24.654c-9.841-0.055-17.956-8.135-17.987-17.993V24.658
	C6.701,14.807,14.813,6.708,24.654,6.667"/>
<path fill-rule="evenodd" clip-rule="evenodd" fill="#FFFFFF" d="M24.744,13.643h142.969c6.149,0.035,11.07,4.957,11.103,11.103
	v238.507c-0.032,6.119-4.953,11.108-11.103,11.103H24.744c-6.141,0.006-11.07-4.983-11.101-11.103V24.745
	C13.671,18.599,18.603,13.678,24.744,13.643"/>
<path d="M111.435,67.606H84.083v21.685h27.352c7.338,0,12.009-4.337,12.009-11.01C123.444,72.277,118.441,67.606,111.435,67.606
	 M127.443,104.303c-5.669,3.001-9.668,4-18.343,4H84.083V144H65.4V48.59h44.698c8.01,0,12.014,1.001,17.345,4.004
	c9.008,5.333,14.676,15.012,14.676,25.687C142.119,89.291,136.451,99.297,127.443,104.303z"/>
<path fill-rule="evenodd" clip-rule="evenodd" fill="#BF2F37" d="M96.163,18.575c42.743,0,77.617,34.869,77.617,77.621
	c0,42.755-34.874,77.621-77.617,77.621c-42.752,0-77.624-34.866-77.624-77.621C18.539,53.443,53.41,18.575,96.163,18.575
	 M145.142,132.262c18.495-23.799,16.269-58.094-5.576-79.937c-21.84-21.843-55.862-23.798-79.658-5.317L145.142,132.262z
	 M132.347,144.794c-23.798,18.495-57.743,16.193-79.591-5.655c-21.847-21.848-24.149-55.794-5.659-79.596L132.347,144.794z"/>
<path fill-rule="evenodd" clip-rule="evenodd" fill="#BF2F37" d="M135.175,238.194c-0.242,0.16-0.604,0.226-0.893,0.226
	c-0.78,0-1.45-0.19-1.896-0.857c-0.228-0.351-0.288-0.727-0.303-1.136c-0.004-0.065-0.022-0.093-0.027-0.158
	c-0.014-0.093,0.014-0.19,0.027-0.288l2.217-7.518H58.159l1.988,7.518c0.047,0.049,0.098,0.081,0.112,0.142
	c0.049,0.098,0.081,0.195,0.111,0.305c-0.047,0.43-0.145,0.824-0.414,1.18c-0.474,0.655-1.129,0.846-1.909,0.813
	c-0.256-0.019-0.561-0.084-0.765-0.226l-22.784-15.702l22.784-15.487c0.318-0.226,0.541-0.335,0.938-0.409
	c0.672-0.148,1.401,0.377,1.787,0.916c0.218,0.315,0.332,0.655,0.362,1.048c-0.03,0.127-0.03,0.276-0.093,0.401
	c-0.033,0.098-0.084,0.177-0.131,0.251l-1.988,7.313h76.143l-2.217-7.313c-0.014-0.093-0.027-0.207-0.027-0.297
	c0-0.126,0.023-0.242,0.027-0.355c0.01-0.36,0.084-0.677,0.27-0.999c0.354-0.6,1.213-1.155,1.947-0.955
	c0.316,0.086,0.604,0.223,0.874,0.399l22.786,15.487L135.175,238.194"/>
</svg>
