<?xml version="1.0" encoding="UTF-8" standalone="no"?>
<!-- Generator: Adobe Illustrator 14.0.0, SVG Export Plug-In  -->

<svg
   xmlns:dc="http://purl.org/dc/elements/1.1/"
   xmlns:cc="http://creativecommons.org/ns#"
   xmlns:rdf="http://www.w3.org/1999/02/22-rdf-syntax-ns#"
   xmlns:svg="http://www.w3.org/2000/svg"
   xmlns="http://www.w3.org/2000/svg"
   xmlns:sodipodi="http://sodipodi.sourceforge.net/DTD/sodipodi-0.dtd"
   xmlns:inkscape="http://www.inkscape.org/namespaces/inkscape"
   version="1.1"
   x="0px"
   y="0px"
   width="86.218727"
   height="128.93747"
   viewBox="0 -0.321 86.218731 128.9375"
   enable-background="new 0 -0.321 144 120"
   xml:space="preserve"
   id="svg2"
   inkscape:version="0.48.2 r9819"
   sodipodi:docname="MUTCD R7-2.svg"><metadata
   id="metadata44"><rdf:RDF><cc:Work
       rdf:about=""><dc:format>image/svg+xml</dc:format><dc:type
         rdf:resource="http://purl.org/dc/dcmitype/StillImage" /><dc:title></dc:title></cc:Work></rdf:RDF></metadata><sodipodi:namedview
   pagecolor="#ffffff"
   bordercolor="#666666"
   borderopacity="1"
   objecttolerance="10"
   gridtolerance="10"
   guidetolerance="10"
   inkscape:pageopacity="0"
   inkscape:pageshadow="2"
   inkscape:window-width="1280"
   inkscape:window-height="1004"
   id="namedview42"
   showgrid="false"
   fit-margin-top="0"
   fit-margin-left="0"
   fit-margin-right="0"
   fit-margin-bottom="0"
   inkscape:zoom="3.7904688"
   inkscape:cx="29.000366"
   inkscape:cy="74.841024"
   inkscape:window-x="-8"
   inkscape:window-y="-8"
   inkscape:window-maximized="1"
   inkscape:current-layer="svg2" />
<defs
   id="defs4">
</defs>


















<path
   inkscape:connector-curvature="0"
   d="m 11.046538,0.03319 64.12501,0 c 5.88625,0 10.68751,4.80125 10.68751,10.6875 l 0,106.87503 c 0,5.88625 -4.80126,10.68625 -10.68751,10.68625 l -64.12501,0 c -5.8862512,0 -10.68750104,-4.8 -10.68750104,-10.68625 l 0,-106.87503 c 0,-5.8125 4.87499984,-10.6875 10.68750104,-10.6875"
   style="fill:#ffffff;fill-opacity:1;fill-rule:nonzero;stroke:#000000;stroke-width:0.70000017;stroke-linecap:butt;stroke-linejoin:miter;stroke-miterlimit:4;stroke-opacity:1;stroke-dasharray:none"
   id="path3081" /><path
   inkscape:connector-curvature="0"
   d="m 11.080288,2.70469 64.05751,0 c 4.41375,0.0175 8.02251,3.6425 8.04876,8.05 l 0,106.80628 c -0.0263,4.41 -3.63501,8.0275 -8.04876,8.05 l -64.05751,0 c -4.4050012,-0.0225 -8.0350012,-3.64 -8.0487512,-8.05 l 0,-106.80628 c 0.0138,-4.4075 3.64375,-8.0325 8.0487512,-8.05"
   style="fill:#bf2519;fill-opacity:1;fill-rule:evenodd;stroke:none"
   id="path3085" /><path
   inkscape:connector-curvature="0"
   d="m 11.120288,5.82557 63.97626,0 c 2.75125,0.0163 4.9525,2.2175 4.97,4.96875 l 0,106.72753 c -0.0175,2.7375 -2.21875,4.97 -4.97,4.9675 l -63.97626,0 c -2.7500012,0.003 -4.9550012,-2.23 -4.9687512,-4.9675 l 0,-106.72753 c 0.0138,-2.75125 2.21875,-4.9525 4.9687512,-4.96875"
   style="fill:#ffffff;fill-opacity:1;fill-rule:evenodd;stroke:none"
   id="path3089" /><path
   inkscape:connector-curvature="0"
   d="m 15.424038,113.0986 44.63501,0 -0.89125,3.36249 c -0.02,0.0225 -0.0425,0.0363 -0.05,0.065 -0.0213,0.0425 -0.035,0.0863 -0.05,0.135 0.0225,0.1925 0.0662,0.37125 0.18625,0.5275 0.2125,0.2925 0.505,0.37875 0.85375,0.3625 0.115,-0.006 0.24875,-0.0337 0.3425,-0.1 l 10.19625,-7.025 -10.19625,-6.9325 c -0.1425,-0.0987 -0.2425,-0.1475 -0.42,-0.185 -0.29875,-0.0625 -0.62625,0.17125 -0.7975,0.41375 -0.0987,0.1425 -0.15,0.2925 -0.165,0.47 0.015,0.0575 0.015,0.12125 0.0437,0.1775 0.0138,0.0438 0.0362,0.08 0.0562,0.115 l 0.89125,3.27 -44.63501,0 0,5.34376 z"
   style="fill:#bf2519;fill-opacity:1;fill-rule:evenodd;stroke:none"
   id="path3093" /><path
   inkscape:connector-curvature="0"
   d="m 77.977798,44.85258 c -0.28875,-2.69125 -1.73,-4.19625 -4.06875,-4.19625 -2.01875,0 -3.26875,0.89625 -3.975,2.81875 -0.73375,1.98625 -0.96,3.87625 -0.96,8.20125 0,4.3575 0.22625,6.24875 0.8975,8.23375 0.705,1.98625 1.92375,2.825 4.0375,2.825 1.89,0 3.33,-0.93375 3.7475,-2.44 0.1925,-0.6725 0.32125,-1.79375 0.32125,-2.7875 l 0,-5.47875 -3.8775,0 0,2.78875 1.2175,0 0,2.81875 c 0,1.47375 -0.54375,2.30625 -1.50625,2.30625 -0.9275,0 -1.47375,-0.705 -1.69625,-2.115 -0.29,-1.79375 -0.38625,-3.235 -0.38625,-6.15125 0,-2.9475 0.0962,-4.38875 0.4175,-6.11875 0.25625,-1.40875 0.865,-2.115 1.82625,-2.115 0.7375,0 1.2175,0.5125 1.345,1.41 l 2.66,0 z"
   style="fill:#bf2519;fill-opacity:1;fill-rule:evenodd;stroke:none"
   id="path3097" /><path
   inkscape:connector-curvature="0"
   d="m 66.552798,41.00733 -2.65875,0 0,10.66875 -3.68375,-10.66875 -2.65875,0 0,21.375 2.65875,0 0,-12.6925 4.1,12.6925 2.2425,0 0,-21.375 z"
   style="fill:#bf2519;fill-opacity:1;fill-rule:evenodd;stroke:none"
   id="path3101" /><path
   inkscape:connector-curvature="0"
   d="m 55.131298,41.00733 -2.66,0 0,21.375 2.66,0 0,-21.375 z"
   style="fill:#bf2519;fill-opacity:1;fill-rule:evenodd;stroke:none"
   id="path3103" /><path
   inkscape:connector-curvature="0"
   d="m 47.040298,48.3767 3.46125,-7.37 -3.04625,0 -3.3,6.82625 0,-6.82625 -2.65875,0 0,21.37625 2.65875,0 0,-8.015 0.99375,-2.11375 2.81875,10.12875 2.885,0 -3.8125,-14.00625 z"
   style="fill:#bf2519;fill-opacity:1;fill-rule:evenodd;stroke:none"
   id="path3107" /><path
   inkscape:connector-curvature="0"
   style="fill:#bf2519;fill-opacity:1;fill-rule:evenodd;stroke:none"
   d="m 30.062538,41.01983 0,21.375 2.65625,0 0,-10 1.21875,0 2.34375,10 2.71875,0 -2.09375,-10.6875 c 1.56875,-0.99375 2.15625,-2.315 2.15625,-4.75 0,-3.94 -1.63875,-5.9375 -4.90625,-5.9375 l -4.09375,0 z m 2.65625,2.78125 1.3125,0 c 1.795,0 2.3125,0.69125 2.3125,3.125 0,2.02 -0.43375,2.65625 -1.875,2.65625 l -1.75,0 0,-5.78125 z"
   id="path3111" /><path
   inkscape:connector-curvature="0"
   style="fill:#bf2519;fill-opacity:1;fill-rule:evenodd;stroke:none"
   d="m 21.406288,41.01983 -4.28125,21.375 2.78125,0 1.15625,-5.6875 3.4375,0 1.15625,5.6875 2.8125,0 -4.3125,-21.375 -2.75,0 z m 1.375,7.25 1.15625,5.65625 -2.3125,0 1.15625,-5.65625 z"
   id="path3115" /><path
   inkscape:connector-curvature="0"
   style="fill:#bf2519;fill-opacity:1;fill-rule:evenodd;stroke:none"
   d="m 8.4062868,41.01983 0,21.375 2.6562512,0 0,-9.34375 1.40625,0 c 2.94625,0 4.9375,-2.32125 4.9375,-5.84375 0,-2.275 -0.75125,-4.35125 -1.96875,-5.34375 -0.6725,-0.545 -1.7525,-0.84375 -2.96875,-0.84375 l -4.0625012,0 z m 2.6562512,2.78125 1.40625,0 c 1.505,0 2.21875,1.06625 2.21875,3.4375 0,2.2425 -0.585,3.03125 -2.21875,3.03125 l -1.40625,0 0,-6.46875 z"
   id="path3119" /><path
   inkscape:connector-curvature="0"
   style="fill:#bf2519;fill-opacity:1;fill-rule:evenodd;stroke:none"
   d="m 51.156298,12.89482 c -2.40375,0 -3.87875,1.06375 -4.96875,3.5625 -0.865,2.01875 -1.21875,4.17 -1.21875,7.4375 0,3.26875 0.3225,5.32376 1.1875,7.40626 1.05875,2.5625 2.5325,3.65625 5,3.65625 2.40375,0 3.91,-1.09375 4.96875,-3.625 0.865,-2.0825 1.1875,-4.13751 1.1875,-7.43751 0,-3.2675 -0.3225,-5.26125 -1.1875,-7.34375 -1.09,-2.595 -2.53375,-3.65625 -4.96875,-3.65625 z m 0,2.96875 c 1.25,0 2.04875,0.79875 2.59375,2.65625 0.48,1.57 0.65625,3.0025 0.65625,5.40625 0,2.43375 -0.17625,3.73875 -0.65625,5.43751 -0.51125,1.79375 -1.34375,2.625 -2.59375,2.625 -1.3125,0 -2.11,-0.83 -2.625,-2.65625 -0.47875,-1.66626 -0.625,-3.03626 -0.625,-5.37501 0,-2.4025 0.14625,-3.83375 0.625,-5.5 0.515,-1.79375 1.34375,-2.59375 2.625,-2.59375 z"
   id="path3123" /><path
   inkscape:connector-curvature="0"
   d="m 31.779038,20.29019 6.4075,14.32626 2.275,0 0,-21.37501 -3.01125,0 0,12.7825 -5.67125,-12.7825 -3.0125,0 0,21.37501 3.0125,0 0,-14.32626 z"
   style="fill:#bf2519;fill-opacity:1;fill-rule:evenodd;stroke:none"
   id="path3127" /><path
   inkscape:connector-curvature="0"
   d="m 23.497788,68.44895 c -0.7,0 -0.99875,0.8 -0.99875,2.29876 0,1.3 0.29875,1.89875 0.99875,1.89875 0.65125,0 0.95,-0.59875 0.95,-1.89875 0,-1.49876 -0.29875,-2.29876 -0.95,-2.29876 m 0,6.04626 c -0.79875,0 -1.24875,0.85 -1.24875,2.44875 0,1.59875 0.45,2.54875 1.24875,2.54875 0.75,0 1.2,-0.95 1.2,-2.54875 0,-1.59875 -0.45,-2.44875 -1.2,-2.44875 m 2.14875,5.8475 c -0.5,0.64875 -1.19875,0.9975 -2.14875,0.9975 -1.24875,0 -1.99875,-0.49875 -2.4975,-1.5475 -0.35125,-0.75 -0.6,-1.8 -0.6,-2.84875 0,-1.44875 0.4,-2.6475 1.09875,-3.5475 -0.59875,-0.7 -0.85,-1.5 -0.85,-2.74875 0,-2.44751 1.1,-4.04751 2.79875,-4.04751 1.75,0 2.8475,1.6 2.8475,4.04751 0,1.19875 -0.24875,2.09875 -0.8475,2.74875 0.69875,0.9 1.09875,2.04875 1.09875,3.5475 0,1.34875 -0.35,2.6475 -0.9,3.39875"
   style="fill:#bf2519;fill-opacity:1;fill-rule:nonzero;stroke:none"
   id="path3147" /><path
   inkscape:connector-curvature="0"
   d="m 36.489038,80.39222 c -0.54875,0.65 -1.14875,0.94875 -2.3475,0.94875 -1.05,0 -1.85,-0.49875 -2.45,-1.49875 -0.29875,-0.45 -0.44875,-0.95 -0.44875,-1.4 l 1.84875,0 c 0.05,0.6 0.5,1.05 1.1,1.05 0.95,0 1.29875,-0.69875 1.29875,-2.3975 0,-2.25 -0.34875,-2.84875 -1.55,-2.84875 l -0.59875,0 0,-1.84875 0.44875,0 c 1,0 1.35125,-0.55 1.35125,-2.2 0,-1.19876 -0.35125,-1.74876 -1.1,-1.74876 -0.55,0 -0.9,0.35125 -0.95,0.95 l -1.84875,0 c 0.1,-1.74875 1.19875,-2.79875 2.79875,-2.79875 1.94875,0 2.9475,1.2 2.9475,3.59751 0,1.25 -0.2,2.09875 -0.75,3.09875 0.35,0.35125 0.55,0.6 0.7,0.9 0.3,0.7 0.39875,1.64875 0.39875,2.89875 0,1.3975 -0.29875,2.5975 -0.84875,3.2975"
   style="fill:#bf2519;fill-opacity:1;fill-rule:nonzero;stroke:none"
   id="path3151" /><path
   inkscape:connector-curvature="0"
   d="m 42.535298,68.44895 c -1.65001,0.05 -1.49876,4.49751 -1.49876,5.49626 0,1 -0.15125,5.4975 1.49876,5.4975 1.59875,0 1.39875,-4.4475 1.39875,-5.4975 0,-0.99875 0.25,-5.44626 -1.39875,-5.49626 m 0,12.84251 c -3.54876,0 -3.34876,-4.9475 -3.34876,-7.34625 0,-2.4975 0.05,-7.34501 3.34876,-7.34501 3.4975,0 3.2975,4.84751 3.2975,7.34501 -0.05,2.39875 0.2,7.34625 -3.2975,7.34625"
   style="fill:#bf2519;fill-opacity:1;fill-rule:nonzero;stroke:none"
   id="path3155" /><path
   inkscape:connector-curvature="0"
   d="m 53.005298,71.59959 -0.79875,3.7475 1.54875,0 -0.75,-3.7475 z m 1.94875,9.395 -0.79875,-3.79875 -2.3475,0 -0.8,3.79875 -1.85,0 2.89875,-14.24251 1.84875,0 2.94875,14.24251 -1.9,0 z"
   style="fill:#bf2519;fill-opacity:1;fill-rule:nonzero;stroke:none"
   id="path3159" /><path
   inkscape:connector-curvature="0"
   d="m 64.047798,80.99396 0,-8.445 -1.69875,5.34625 -1.7475,-5.34625 0,8.445 -1.8,0 0,-14.24251 1.8,0 1.7475,5.04751 1.69875,-5.04751 1.8,0 0,14.24251 -1.8,0 z"
   style="fill:#bf2519;fill-opacity:1;fill-rule:nonzero;stroke:none"
   id="path3163" /><path
   inkscape:connector-curvature="0"
   d="m 15.477788,87.39547 0,12.3925 -1.79875,0 0,-12.3925 -1.74875,0 0,-1.85 5.3975,0 0,1.85 -1.85,0 z"
   style="fill:#bf2519;fill-opacity:1;fill-rule:nonzero;stroke:none"
   id="path3167" /><path
   inkscape:connector-curvature="0"
   d="m 22.224038,87.19509 c -1.65,0 -1.45,4.4475 -1.45,5.4475 0,0.94875 -0.2,5.54625 1.45,5.54625 1.59875,0 1.3975,-4.5975 1.3975,-5.54625 0,-1.15 -0.05,-5.4475 -1.3975,-5.4475 m 0,12.8425 c -3.5475,0 -3.29875,-5.0475 -3.29875,-7.395 0,-2.44875 -0.2,-7.29625 3.29875,-7.29625 3.49625,0 3.2975,4.8975 3.2975,7.29625 0,2.3475 0.19875,7.395 -3.2975,7.395"
   style="fill:#bf2519;fill-opacity:1;fill-rule:nonzero;stroke:none"
   id="path3171" /><path
   inkscape:connector-curvature="0"
   d="m 34.552788,98.08872 c -0.69875,1.29875 -1.69875,1.94875 -3.0475,1.94875 -0.75,0 -1.45,-0.2 -2.14875,-0.65 l 0.94875,-1.59875 c 0.5,0.3 0.8,0.4 1.2,0.4 0.69875,0 1.14875,-0.4 1.49875,-1.34875 0.35,-0.8 0.59875,-2.04875 0.59875,-2.99875 0,-1.1 -0.44875,-1.79875 -1.19875,-1.79875 -0.4,0 -0.64875,0.19875 -1,0.6 l -1.84875,-0.2 0.25125,-6.89625 5.24625,0 0,1.84875 -3.4975,0 -0.05,2.89875 c 0.39875,-0.05 0.64875,-0.1 0.94875,-0.1 1.09875,0 1.79875,0.4 2.34875,1.29875 0.39875,0.65 0.65,1.65 0.65,2.64875 0,1.34875 -0.3,2.74875 -0.9,3.9475"
   style="fill:#bf2519;fill-opacity:1;fill-rule:nonzero;stroke:none"
   id="path3175" /><path
   inkscape:connector-curvature="0"
   d="m 45.445298,99.08859 c -0.55,0.64875 -1.15,0.94875 -2.34875,0.94875 -1.04875,0 -1.84875,-0.49875 -2.44876,-1.49875 -0.3,-0.45 -0.44875,-0.95 -0.44875,-1.4 l 1.84876,0 c 0.0488,0.6 0.49875,1.05 1.09875,1.05 0.95,0 1.29875,-0.69875 1.29875,-2.39875 0,-2.24875 -0.34875,-2.8475 -1.54875,-2.8475 l -0.59875,0 0,-1.85 0.44875,0 c 0.99875,0 1.35,-0.54875 1.35,-2.19875 0,-1.19875 -0.35125,-1.74875 -1.1,-1.74875 -0.55,0 -0.9,0.35125 -0.94875,0.95 l -1.84876,0 c 0.1,-1.74875 1.19876,-2.79875 2.79751,-2.79875 1.94875,0 2.94875,1.2 2.94875,3.5975 0,1.25 -0.2,2.09875 -0.75,3.09875 0.35,0.35 0.55,0.6 0.69875,0.9 0.3,0.69875 0.4,1.64875 0.4,2.8975 0,1.39875 -0.29875,2.5975 -0.84875,3.29875"
   style="fill:#bf2519;fill-opacity:1;fill-rule:nonzero;stroke:none"
   id="path3179" /><path
   inkscape:connector-curvature="0"
   d="m 51.491548,87.14521 c -1.65,0.05 -1.50125,4.4975 -1.50125,5.49625 0,1 -0.14875,5.4975 1.50125,5.4975 1.59875,0 1.3975,-4.4475 1.3975,-5.4975 0,-0.99875 0.25125,-5.44625 -1.3975,-5.49625 m 0,12.8425 c -3.5475,0 -3.34875,-4.9475 -3.34875,-7.34625 0,-2.4975 0.05,-7.345 3.34875,-7.345 3.49625,0 3.29625,4.8475 3.29625,7.345 -0.0487,2.39875 0.2,7.34625 -3.29625,7.34625"
   style="fill:#bf2519;fill-opacity:1;fill-rule:nonzero;stroke:none"
   id="path3183" /><path
   inkscape:connector-curvature="0"
   d="m 61.931548,87.39547 -1,0 0,4.3475 1,0 c 1.09875,0 1.4975,-0.54875 1.4975,-2.04875 0,-1.59875 -0.49875,-2.29875 -1.4975,-2.29875 m 0,6.19625 -1,0 0,6.19625 -1.7975,0 0,-14.2425 2.7975,0 c 0.79875,0 1.5475,0.20125 1.9975,0.6 0.8,0.65125 1.35,2 1.35,3.54875 0,2.34875 -1.35,3.8975 -3.3475,3.8975"
   style="fill:#bf2519;fill-opacity:1;fill-rule:nonzero;stroke:none"
   id="path3187" /><path
   inkscape:connector-curvature="0"
   d="m 72.474048,99.78746 0,-8.44375 -1.7,5.345 -1.7475,-5.345 0,8.44375 -1.8,0 0,-14.24125 1.8,0 1.7475,5.0475 1.7,-5.0475 1.79875,0 0,14.24125 -1.79875,0 z"
   style="fill:#bf2519;fill-opacity:1;fill-rule:nonzero;stroke:none"
   id="path3191" /><path
   inkscape:connector-curvature="0"
   d="m 30.044038,71.11846 c 0,-0.59875 -0.44875,-1.04875 -1.04875,-1.04875 -0.55,0 -1.05,0.45 -1.05,1.04875 0,0.59875 0.5,1.05 1.05,1.05 0.6,0 1.04875,-0.45125 1.04875,-1.05"
   style="fill:#bf2519;fill-opacity:1;fill-rule:evenodd;stroke:none"
   id="path5165" /><path
   inkscape:connector-curvature="0"
   d="m 30.044038,76.81421 c 0,-0.60125 -0.44875,-1.05125 -1.04875,-1.05125 -0.55,0 -1.05,0.45 -1.05,1.05125 0,0.55 0.5,1.0575 1.05,1.0575 0.6,0 1.04875,-0.5075 1.04875,-1.0575"
   style="fill:#bf2519;fill-opacity:1;fill-rule:evenodd;stroke:none"
   id="path5169" /><path
   inkscape:connector-curvature="0"
   d="m 39.000288,89.81484 c 0,-0.6 -0.44875,-1.04875 -1.05,-1.04875 -0.54875,0 -1.05,0.44875 -1.05,1.04875 0,0.59875 0.50125,1.05 1.05,1.05 0.60125,0 1.05,-0.45125 1.05,-1.05"
   style="fill:#bf2519;fill-opacity:1;fill-rule:evenodd;stroke:none"
   id="path5173" /><path
   inkscape:connector-curvature="0"
   d="m 39.000288,95.51071 c 0,-0.6025 -0.44875,-1.05125 -1.05,-1.05125 -0.54875,0 -1.05,0.44875 -1.05,1.05125 0,0.54875 0.50125,1.0575 1.05,1.0575 0.60125,0 1.05,-0.50875 1.05,-1.0575"
   style="fill:#bf2519;fill-opacity:1;fill-rule:evenodd;stroke:none"
   id="path5177" /></svg>