<?xml version="1.0" encoding="UTF-8" standalone="no"?>
<!-- Generator: Adobe Illustrator 14.0.0, SVG Export Plug-In  -->

<svg
   xmlns:dc="http://purl.org/dc/elements/1.1/"
   xmlns:cc="http://creativecommons.org/ns#"
   xmlns:rdf="http://www.w3.org/1999/02/22-rdf-syntax-ns#"
   xmlns:svg="http://www.w3.org/2000/svg"
   xmlns="http://www.w3.org/2000/svg"
   xmlns:sodipodi="http://sodipodi.sourceforge.net/DTD/sodipodi-0.dtd"
   xmlns:inkscape="http://www.inkscape.org/namespaces/inkscape"
   version="1.1"
   x="0px"
   y="0px"
   width="86.218727"
   height="128.93747"
   viewBox="0 -0.321 86.21873 128.9375"
   enable-background="new 0 -0.321 144 120"
   xml:space="preserve"
   id="svg2"
   inkscape:version="0.48.2 r9819"
   sodipodi:docname="MUTCD R7-23a.svg"><metadata
   id="metadata44"><rdf:RDF><cc:Work
       rdf:about=""><dc:format>image/svg+xml</dc:format><dc:type
         rdf:resource="http://purl.org/dc/dcmitype/StillImage" /><dc:title></dc:title></cc:Work></rdf:RDF></metadata><sodipodi:namedview
   pagecolor="#ffffff"
   bordercolor="#666666"
   borderopacity="1"
   objecttolerance="10"
   gridtolerance="10"
   guidetolerance="10"
   inkscape:pageopacity="0"
   inkscape:pageshadow="2"
   inkscape:window-width="1280"
   inkscape:window-height="1004"
   id="namedview42"
   showgrid="false"
   fit-margin-top="0"
   fit-margin-left="0"
   fit-margin-right="0"
   fit-margin-bottom="0"
   inkscape:zoom="3.5451037"
   inkscape:cx="48.962298"
   inkscape:cy="99.792162"
   inkscape:window-x="-8"
   inkscape:window-y="-8"
   inkscape:window-maximized="1"
   inkscape:current-layer="svg2" />
<defs
   id="defs4">
</defs>


















<path
   d="m 0.35436497,117.58582 c 0,2.815 1.10499983,5.5925 3.10874983,7.5875 1.99375,2.0025 4.7725,3.105 7.5849992,3.105 l 64.10752,0 c 2.83,0 5.5425,-1.1025 7.54375,-3.105 1.995,-1.995 3.1575,-4.75875 3.1575,-7.5875 l 0,-106.875027 c 0,-2.8000013 -1.1825,-5.557502 -3.1575,-7.5387525 -1.98625,-1.9875004 -4.72875,-3.14250071 -7.54375,-3.14250071 l -64.10752,0 c -2.8274992,0 -5.5837492,1.13500031 -7.5849992,3.14250071 -1.99625,1.9937505 -3.10874983,4.7237511 -3.10874983,7.5387525 l 0,106.875027 z"
   style="fill:#ffffff;fill-opacity:1;fill-rule:nonzero;stroke:#000000;stroke-width:0.70000017;stroke-miterlimit:4;stroke-opacity:1;stroke-dasharray:none"
   id="path4111"
   inkscape:connector-curvature="0" /><path
   d="m 3.0168648,117.58581 0,-106.875028 c 0,-2.1025002 0.86875,-4.1412507 2.36625,-5.6150011 1.51,-1.4975003 3.54125,-2.2950005 5.6637492,-2.2950005 l 64.11127,0 c 2.1025,0 4.13875,0.8050002 5.6275,2.2950005 1.49625,1.4887504 2.3025,3.5200009 2.3025,5.6150011 l 0,106.875028 c 0,2.11375 -0.79875,4.175 -2.3025,5.67625 -1.475,1.48875 -3.5325,2.35375 -5.6275,2.35375 l -64.11127,0 c -2.6512492,0 -5.1862492,-1.3625 -6.6624992,-3.565 -0.96125,-1.43 -1.26125,-2.79 -1.3675,-4.465"
   style="fill:#bf2519;fill-opacity:1;fill-rule:evenodd;stroke:none"
   id="path4119"
   inkscape:connector-curvature="0" /><path
   d="m 5.7031148,39.084669 0,78.501271 c 0,1.4325 0.52,2.785 1.53875,3.80375 1.02,1.02 2.37375,1.54 3.8049992,1.54 l 64.11127,0 c 1.39625,0 2.7225,-0.5125 3.71875,-1.48125 1.0425,-1.01375 1.6325,-2.415 1.6325,-3.8625 l 0,-78.501271 -74.8062692,0 z"
   style="fill:#ffffff;fill-opacity:1;fill-rule:evenodd;stroke:none"
   id="path4123"
   inkscape:connector-curvature="0" /><path
   d="m 80.509384,10.710912 0,0 c 0,-1.41125 -0.59,-2.7587504 -1.58875,-3.7550006 -0.99875,-0.9987502 -2.34375,-1.5750004 -3.7625,-1.5750004 l -47.19626,0 0,32.021258 52.54751,0 0,-26.691257 z"
   style="fill:#ffffff;fill-opacity:1;fill-rule:evenodd;stroke:none"
   id="path4127"
   inkscape:connector-curvature="0" /><path
   d="m 20.868124,13.032038 c 1.56875,0 2.11375,2.14625 2.11375,8.267502 0,2.9775 -0.095,4.357501 -0.4175,6.120001 -0.22375,1.377501 -0.8325,2.111251 -1.69625,2.111251 -0.8675,0 -1.47375,-0.73375 -1.7,-2.111251 -0.32001,-1.73125 -0.41501,-3.173751 -0.41501,-6.155001 0,-2.946251 0.095,-4.418751 0.41501,-6.117502 0.25625,-1.3775 0.8325,-2.115 1.7,-2.115 m 0,-2.787501 c -1.34625,0 -2.43751,0.44875 -3.07626,1.313751 -0.865,1.08875 -1.50625,3.23625 -1.63375,5.477501 -0.0975,1.2825 -0.13,2.8525 -0.13,4.228751 0,4.392501 0.225,6.216251 0.93125,8.235002 0.705,1.92125 1.9525,2.825 3.90876,2.825 1.95375,0 3.2025,-0.90375 3.9075,-2.825 0.70375,-1.985001 0.93,-3.877501 0.93,-8.235002 0,-4.326251 -0.22625,-6.215002 -0.93,-8.200002 -0.705,-1.956251 -1.92375,-2.820001 -3.9075,-2.820001 m -6.59751,0.35125 -2.65875,0 0,10.668753 -3.6837492,-10.668753 -2.65875,0 0,21.375005 2.65875,0 0,-12.691253 4.1012492,12.691253 2.24125,0 0,-21.375005 z"
   style="fill:#ffffff;fill-opacity:1;fill-rule:evenodd;stroke:none"
   id="path4147"
   inkscape:connector-curvature="0" /><path
   d="m 78.784384,16.907164 c -0.19125,-1.792501 -1.1525,-2.797501 -2.7125,-2.797501 -1.34625,0 -2.17875,0.6 -2.6475,1.87875 -0.49,1.323751 -0.64125,2.586251 -0.64125,5.468752 0,2.90375 0.15125,4.165001 0.5975,5.491251 0.47125,1.32375 1.2825,1.8825 2.69125,1.8825 1.26125,0 2.22125,-0.6225 2.5,-1.62875 0.12625,-0.44625 0.2125,-1.19375 0.2125,-1.8575 l 0,-3.652501 -2.58375,0 0,1.86 0.81375,0 0,1.877501 c 0,0.98375 -0.36375,1.53875 -1.00625,1.53875 -0.6175,0 -0.98125,-0.47125 -1.13,-1.40875 -0.19375,-1.198751 -0.25875,-2.158751 -0.25875,-4.102501 0,-1.965001 0.065,-2.926251 0.2775,-4.078751 0.17125,-0.94 0.57625,-1.411251 1.21875,-1.411251 0.49,0 0.8125,0.343751 0.89875,0.940001 l 1.77,0 z m -8.13125,-2.563751 -1.7725,0 0,7.113752 -2.45875,-7.113752 -1.7725,0 0,14.250003 1.7725,0 0,-8.458752 2.73375,8.458752 1.4975,0 0,-14.250003 z m -8.1325,0 -1.77376,0 0,14.250003 1.77376,0 0,-14.250003 z m -5.91126,4.915001 2.30625,-4.915001 -2.0275,0 -2.2025,4.551251 0,-4.551251 -1.7725,0 0,14.250003 1.7725,0 0,-5.341251 0.66375,-1.40875 1.8775,6.750001 1.92375,0 -2.54125,-9.335002 z m -10.055,0.81 0,-3.865 0.87625,0 c 1.19625,0 1.5375,0.46875 1.5375,2.0925 0,1.345 -0.2975,1.7725 -1.26125,1.7725 l -1.1525,0 z m 2.77625,1.411251 c 1.04625,-0.66125 1.45125,-1.537501 1.45125,-3.161251 0,-2.627501 -1.10875,-3.975001 -3.28875,-3.975001 l -2.7125,0 0,14.250003 1.77375,0 0,-6.665001 0.8125,0 1.5575,6.665001 1.81625,0 -1.41,-7.113751 z m -9.1575,1.475 -1.5375,0 0.77,-3.760001 0.7675,3.760001 z m 0.38375,1.857501 0.77,3.78125 1.85875,0 -2.8625,-14.250003 -1.83625,0 -2.8625,14.250003 1.85875,0 0.76875,-3.78125 2.305,0 z m -9.05,-4.293751 0,-4.315001 0.94,0 c 1.005,0 1.475,0.70375 1.475,2.285 0,1.4975 -0.385,2.030001 -1.475,2.030001 l -0.94,0 z m 0,1.8575 0.94,0 c 1.965,0 3.28875,-1.5575 3.28875,-3.906251 0,-1.51875 -0.5125,-2.883751 -1.32375,-3.547501 -0.44875,-0.36125 -1.1525,-0.57875 -1.965,-0.57875 l -2.7125,0 0,14.250003 1.7725,0 0,-6.217501 z"
   style="fill:#bf2519;fill-opacity:1;fill-rule:evenodd;stroke:none"
   id="path4131"
   inkscape:connector-curvature="0" /><path
   d="m 63.033134,85.624555 0,-6.056252 3.07625,0 c 1.60125,0 2.69,1.217501 2.69,3.012501 0,1.952501 -0.96,3.043751 -2.69,3.043751 l -3.07625,0 z m 0,2.981251 3.23625,0 c 3.52375,0 5.445,-2.148751 5.445,-6.025002 0,-3.586251 -2.1775,-5.988751 -5.445,-5.988751 l -6.24751,0 0,21.373755 3.01126,0 0,-9.360002 z m -13.79876,-9.390003 c 1.25,0 2.04125,0.80625 2.595,2.661251 0.47,1.5725 0.64,2.978751 0.64,5.383751 0,2.431251 -0.15875,3.747501 -0.64,5.445001 -0.51,1.793751 -1.345,2.626251 -2.595,2.626251 -1.31375,0 -2.11,-0.835 -2.6275,-2.658751 -0.475,-1.6675 -0.64125,-3.04375 -0.64125,-5.383751 0,-2.40125 0.1625,-3.810001 0.64125,-5.477501 0.5125,-1.792501 1.34625,-2.596251 2.6275,-2.596251 m 0,-2.9775 c -2.40375,0 -3.885,1.05125 -4.96625,3.55375 -0.8725,2.017501 -1.2175,4.200001 -1.2175,7.468752 0,3.266251 0.3225,5.315001 1.18625,7.397502 1.05875,2.563751 2.52875,3.660001 4.9975,3.660001 2.4025,0 3.91125,-1.09375 4.965,-3.628751 0.8675,-2.080001 1.185,-4.132501 1.185,-7.428752 0,-3.268751 -0.315,-5.290001 -1.185,-7.372502 -1.085,-2.59625 -2.53125,-3.65 -4.965,-3.65 m -9.33125,3.2025 0,-2.84875 -10.66625,0 0,2.84875 3.87625,0 0,18.525005 3.01125,0 0,-18.525005 3.77875,0 z m -13.61625,2.307501 c -0.1275,-3.206251 -2.37,-5.510001 -5.34875,-5.510001 -2.94626,0 -5.35126,2.465 -5.35126,5.510001 0,1.92125 0.89875,3.522501 2.62625,4.741251 4.19876,2.948751 3.04501,2.116251 3.52626,2.531251 1.18375,1.02375 1.6325,1.89 1.6325,3.07375 0,1.762501 -1.3125,3.237501 -2.91625,3.237501 -1.6975,0 -2.94626,-1.475 -2.94626,-3.430001 l 0,-0.25375 -2.915,0 0,0.2875 c 0,3.586251 2.5625,6.382502 5.86126,6.382502 3.20625,0 5.83125,-2.796251 5.83125,-6.223752 0,-3.04125 -1.7925,-5.412501 -5.83125,-7.782502 -1.505,-0.89875 -1.95375,-1.475 -1.95375,-2.56375 0,-1.3775 1.09125,-2.500001 2.43625,-2.500001 1.345,0 2.37125,1.025001 2.43375,2.500001 l 2.915,0 z"
   style="fill:#bf2519;fill-opacity:1;fill-rule:evenodd;stroke:none"
   id="path4135"
   inkscape:connector-curvature="0" /><path
   d="m 65.779384,53.249547 c -0.12625,-3.205001 -2.37,-5.510001 -5.34876,-5.510001 -2.94625,0 -5.35,2.46375 -5.35,5.510001 0,1.918751 0.89625,3.522501 2.62625,4.741251 4.1975,2.946251 3.04375,2.113751 3.525,2.528751 1.185,1.02625 1.63251,1.89 1.63251,3.076251 0,1.76375 -1.31376,3.2375 -2.91501,3.2375 -1.69875,0 -2.94625,-1.47375 -2.94625,-3.4275 l 0,-0.25875 -2.91625,0 0,0.2875 c 0,3.5925 2.5625,6.385001 5.8625,6.385001 3.20501,0 5.83001,-2.792501 5.83001,-6.223751 0,-3.043751 -1.7925,-5.415002 -5.83001,-7.785002 -1.50625,-0.89625 -1.9525,-1.475001 -1.9525,-2.561251 0,-1.37875 1.08625,-2.5 2.43375,-2.5 1.345,0 2.37001,1.025 2.43376,2.5 l 2.915,0 z m -19.82126,-5.158751 0,15.376254 c 0,2.02125 -1.1225,3.36625 -2.78875,3.36625 -1.7275,0 -2.8825,-1.345 -2.8825,-3.36625 l 0,-15.376254 -3.01125,0 0,14.961253 c 0,1.760001 0.19375,2.658751 0.80125,3.750001 1.02375,1.823751 3.075,3.017501 5.0925,3.017501 1.9875,0 4.00625,-1.22625 4.99875,-3.017501 0.60875,-1.09125 0.8,-1.99 0.8,-3.750001 l 0,-14.961253 -3.01,0 z m -22.51375,11.695003 3.01125,0 c 1.53875,0 2.75625,1.59875 2.75625,3.620001 0,1.8575 -1.12125,3.07375 -2.7875,3.07375 l -2.98,0 0,-6.693751 z m 0,-8.716252 3.14,0 c 1.57,0 2.275,0.80125 2.275,2.56125 0,1.955001 -0.865,3.173751 -2.275,3.173751 l -3.14,0 0,-5.735001 z m -3.01125,-2.978751 0,21.375005 6.15125,0 c 3.075,0 5.5425,-2.632501 5.5425,-5.870001 0,-2.145001 -0.8975,-3.940001 -2.5625,-5.318752 1.72875,-1.76125 2.21,-2.7225 2.21,-4.646251 0,-3.2675 -1.95375,-5.540001 -4.7725,-5.540001 l -6.56875,0 z"
   style="fill:#bf2519;fill-opacity:1;fill-rule:evenodd;stroke:none"
   id="path4139"
   inkscape:connector-curvature="0" /><path
   d="m 15.358114,113.22956 0,-5.5225 44.27751,0 -1.0225,-3.37875 c -0.007,-0.0437 -0.0137,-0.095 -0.0137,-0.13875 0,-0.0613 0.006,-0.1125 0.0137,-0.16375 0,-0.16875 0.0375,-0.315 0.125,-0.46375 0.16125,-0.27125 0.56,-0.53 0.89,-0.44 0.1475,0.045 0.2875,0.10125 0.41375,0.18375 l 10.53376,7.1625 -10.53376,7.26124 c -0.11125,0.0712 -0.28,0.1 -0.41375,0.1 -0.36,0 -0.67,-0.0875 -0.87625,-0.395 -0.10125,-0.16125 -0.13875,-0.3325 -0.13875,-0.525 -0.007,-0.0275 -0.007,-0.0438 -0.0137,-0.0738 0,-0.0437 0.006,-0.0875 0.0137,-0.13125 l 1.0225,-3.47499 -44.27751,0 z"
   style="fill:#bf2519;fill-opacity:1;fill-rule:evenodd;stroke:none"
   id="path4143"
   inkscape:connector-curvature="0" /></svg>