<?xml version="1.0" encoding="utf-8"?>
<!-- Generator: Adobe Illustrator 12.0.1, SVG Export Plug-In  -->
<!DOCTYPE svg PUBLIC "-//W3C//DTD SVG 1.1//EN" "http://www.w3.org/Graphics/SVG/1.1/DTD/svg11.dtd" [
	<!ENTITY ns_flows "http://ns.adobe.com/Flows/1.0/">
	<!ENTITY ns_svg "http://www.w3.org/2000/svg">
	<!ENTITY ns_xlink "http://www.w3.org/1999/xlink">
]>
<svg  version="1.1" xmlns="&ns_svg;" xmlns:xlink="&ns_xlink;" xmlns:a="http://ns.adobe.com/AdobeSVGViewerExtensions/3.0/"
	 width="194" height="288" viewBox="-0.764 0 194 288" enable-background="new -0.764 0 194 288" xml:space="preserve">
<defs>
</defs>
<path fill="#FFFFFF" d="M0.697,263.411c0,6.286,2.469,12.494,6.946,16.955c4.456,4.472,10.666,6.937,16.955,6.937h143.252
	c6.329,0,12.393-2.465,16.867-6.937c4.456-4.461,7.053-10.637,7.053-16.955V24.568c0-6.256-2.644-12.42-7.053-16.846
	c-4.442-4.442-10.576-7.023-16.867-7.023H24.599c-6.324,0-12.485,2.532-16.955,7.023c-4.46,4.456-6.946,10.554-6.946,16.846V263.411
	z"/>
<path fill="#FFFFFF" d="M167.851,1.398H24.599c-6.147,0-12.144,2.484-16.462,6.816c-4.284,4.277-6.739,10.239-6.739,16.354v238.843
	c0,6.193,2.455,12.192,6.739,16.457c4.266,4.284,10.264,6.735,16.462,6.735h143.252c6.217,0,12.03-2.391,16.37-6.735
	c4.354-4.354,6.854-10.352,6.854-16.457V24.568c0-6.024-2.5-11.981-6.854-16.354C179.89,3.882,173.929,1.398,167.851,1.398z"/>
<path d="M167.851,0H24.599C18.084,0,11.723,2.637,7.146,7.228C2.607,11.765,0,18.086,0,24.568v238.843
	c0,6.561,2.607,12.919,7.151,17.447c4.521,4.54,10.882,7.142,17.448,7.142h143.252c6.594,0,12.755-2.537,17.354-7.142
	c4.619-4.614,7.268-10.978,7.268-17.447V24.568c0-6.389-2.648-12.708-7.263-17.341C180.614,2.637,174.291,0,167.851,0z
	 M191.074,263.411c0,6.105-2.5,12.104-6.854,16.457c-4.34,4.345-10.153,6.735-16.37,6.735H24.599
	c-6.198,0-12.197-2.451-16.462-6.735c-4.284-4.265-6.739-10.264-6.739-16.457V24.568c0-6.115,2.455-12.076,6.739-16.354
	c4.319-4.333,10.315-6.816,16.462-6.816h143.252c6.078,0,12.039,2.484,16.37,6.816c4.354,4.373,6.854,10.33,6.854,16.354V263.411z"
	/>
<path fill-rule="evenodd" clip-rule="evenodd" fill="#BF2F37" d="M6.649,263.411V24.568c0-4.695,1.938-9.253,5.283-12.548
	c3.375-3.346,7.917-5.127,12.657-5.127H167.86c4.697,0,9.251,1.8,12.578,5.127c3.345,3.325,5.147,7.867,5.147,12.548v238.843
	c0,4.721-1.784,9.325-5.147,12.685c-3.295,3.322-7.895,5.253-12.578,5.253H24.589c-5.924,0-11.593-3.041-14.887-7.962
	C7.553,270.189,6.886,267.148,6.649,263.411"/>
<path fill-rule="evenodd" clip-rule="evenodd" fill="#FFFFFF" d="M12.648,87.977v175.434c0,3.196,1.162,6.217,3.443,8.498
	c2.277,2.279,5.297,3.438,8.499,3.438H167.86c3.127,0,6.082-1.146,8.313-3.311c2.327-2.261,3.647-5.397,3.647-8.626V87.977H12.648"
	/>
<path fill-rule="evenodd" clip-rule="evenodd" fill="#FFFFFF" d="M179.82,24.568L179.82,24.568c0-3.152-1.32-6.164-3.55-8.392
	c-2.23-2.23-5.237-3.522-8.41-3.522H62.391v71.563H179.82V24.568"/>
<path fill-rule="evenodd" clip-rule="evenodd" fill="#BF2F37" d="M175.968,38.417c-0.432-4.008-2.578-6.254-6.063-6.254
	c-3.006,0-4.865,1.341-5.92,4.201c-1.092,2.958-1.431,5.78-1.431,12.22c0,6.491,0.339,9.309,1.338,12.269
	c1.055,2.96,2.862,4.212,6.013,4.212c2.82,0,4.963-1.396,5.585-3.641c0.284-0.999,0.479-2.669,0.479-4.151v-8.164h-5.775v4.154
	h1.813v4.201c0,2.195-0.813,3.436-2.244,3.436c-1.38,0-2.193-1.05-2.532-3.15c-0.423-2.674-0.572-4.821-0.572-9.165
	c0-4.391,0.149-6.54,0.623-9.114c0.381-2.1,1.287-3.155,2.723-3.155c1.097,0,1.813,0.767,2.003,2.103H175.968 M157.796,32.688
	h-3.959v15.896l-5.497-15.896h-3.959v31.845h3.959V45.626l6.115,18.907h3.341V32.688z M135.655,64.533h3.968V32.688h-3.968V64.533z
	 M126.408,43.67l5.158-10.982h-4.53l-4.921,10.169V32.688h-3.959v31.845h3.959V52.596l1.482-3.148l4.2,15.085h4.293L126.408,43.67z
	 M103.942,45.482v-8.64h1.956c2.672,0,3.438,1.048,3.438,4.679c0,3.004-0.669,3.961-2.82,3.961H103.942z M110.146,48.633
	c2.337-1.478,3.248-3.434,3.248-7.061c0-5.873-2.481-8.884-7.351-8.884h-6.06v31.845h3.959V49.636h1.813l3.484,14.897h4.062
	L110.146,48.633z M89.68,51.932h-3.436l1.719-8.403L89.68,51.932z M90.542,56.083l1.715,8.45h4.154l-6.394-31.845h-4.105
	l-6.398,31.845h4.156l1.714-8.45H90.542z M70.316,46.486v-9.644h2.1c2.244,0,3.294,1.575,3.294,5.104c0,3.35-0.86,4.54-3.294,4.54
	H70.316z M70.316,50.638h2.1c4.389,0,7.351-3.482,7.351-8.733c0-3.389-1.147-6.444-2.962-7.924
	c-1.001-0.809-2.574-1.292-4.389-1.292h-6.059v31.845h3.959V50.638z"/>
<path fill-rule="evenodd" clip-rule="evenodd" fill="#FFFFFF" d="M46.535,29.751c3.51,0,4.728,4.802,4.728,18.477
	c0,6.656-0.216,9.739-0.934,13.677c-0.495,3.081-1.861,4.721-3.793,4.721c-1.933,0-3.29-1.64-3.794-4.721
	c-0.713-3.868-0.93-7.088-0.93-13.751c0-6.582,0.216-9.879,0.93-13.672C43.315,31.406,44.602,29.751,46.535,29.751 M46.535,23.527
	c-3.006,0-5.441,1.004-6.87,2.935c-1.935,2.435-3.366,7.23-3.652,12.241c-0.216,2.869-0.286,6.375-0.286,9.451
	c0,9.813,0.502,13.893,2.077,18.402c1.575,4.296,4.363,6.314,8.731,6.314c4.37,0,7.16-2.019,8.74-6.314
	c1.571-4.44,2.072-8.664,2.072-18.402c0-9.669-0.501-13.891-2.072-18.324C53.695,25.458,50.972,23.527,46.535,23.527z
	 M31.796,24.313h-5.943v23.841L17.62,24.313h-5.938v47.766h5.938V43.714l9.167,28.365h5.009V24.313z"/>
<path fill-rule="evenodd" clip-rule="evenodd" fill="#BF2F37" d="M134.833,263.194c-0.242,0.16-0.604,0.226-0.893,0.226
	c-0.78,0-1.45-0.19-1.896-0.857c-0.228-0.351-0.288-0.727-0.303-1.136c-0.004-0.065-0.022-0.093-0.027-0.158
	c-0.014-0.093,0.014-0.19,0.027-0.288l2.217-7.518H57.817l1.988,7.518c0.047,0.049,0.098,0.081,0.112,0.142
	c0.049,0.098,0.081,0.195,0.111,0.305c-0.046,0.43-0.144,0.824-0.414,1.18c-0.474,0.655-1.129,0.846-1.91,0.813
	c-0.255-0.019-0.56-0.084-0.764-0.226l-22.784-15.702l22.784-15.487c0.318-0.226,0.541-0.335,0.938-0.409
	c0.671-0.148,1.401,0.377,1.787,0.916c0.218,0.315,0.332,0.655,0.362,1.048c-0.03,0.127-0.03,0.276-0.093,0.401
	c-0.033,0.098-0.083,0.177-0.13,0.251l-1.988,7.313h76.142l-2.217-7.313c-0.014-0.093-0.027-0.207-0.027-0.297
	c0-0.126,0.023-0.242,0.027-0.355c0.01-0.36,0.084-0.677,0.27-0.999c0.354-0.6,1.213-1.155,1.947-0.955
	c0.316,0.086,0.604,0.223,0.874,0.399l22.786,15.487L134.833,263.194"/>
<path fill="#BF2F37" d="M77.793,146.451l-2.236-8.707h-6.852l-2.093,8.707h-4.616l7.946-31.879h4.473l7.946,31.879H77.793z
	 M72.083,124.088l-2.236,9.183h4.568L72.083,124.088z"/>
<path fill="#BF2F37" d="M101.154,146.451l-9.849-21.364v21.364h-4.568v-31.879h4.568l8.755,19.127v-19.127h4.567v31.879H101.154z"/>
<path fill="#BF2F37" d="M121.519,132.034v14.417h-4.568v-14.417l-7.851-17.462h4.806l5.377,11.514l5.281-11.514h4.9L121.519,132.034
	z"/>
<path fill="#BF2F37" d="M67.15,177.117v27.645h-4.615v-27.645h-5.805v-4.234h16.225v4.234H67.15z"/>
<path fill="#BF2F37" d="M78.521,204.762v-31.879h4.472v31.879H78.521z"/>
<path fill="#BF2F37" d="M107.641,204.762v-17.891l-5.9,17.891l-5.948-17.891v17.891h-4.568v-31.879h4.568l5.948,17.891l5.9-17.891
	h4.615v31.879H107.641z"/>
<path fill="#BF2F37" d="M120.392,204.762v-31.879h14.987v4.473h-10.42v8.041h6.614v4.377h-6.614v10.516h11.657v4.473H120.392z"/>
</svg>
