<?xml version="1.0" encoding="UTF-8" standalone="no"?>
<!-- Created with Inkscape (http://www.inkscape.org/) -->

<svg
   xmlns:dc="http://purl.org/dc/elements/1.1/"
   xmlns:cc="http://creativecommons.org/ns#"
   xmlns:rdf="http://www.w3.org/1999/02/22-rdf-syntax-ns#"
   xmlns:svg="http://www.w3.org/2000/svg"
   xmlns="http://www.w3.org/2000/svg"
   xmlns:sodipodi="http://sodipodi.sourceforge.net/DTD/sodipodi-0.dtd"
   xmlns:inkscape="http://www.inkscape.org/namespaces/inkscape"
   width="90.71875"
   height="113.1875"
   id="svg2"
   sodipodi:version="0.32"
   inkscape:version="0.48.2 r9819"
   version="1.0"
   sodipodi:docname="AJAX1.svg"
   inkscape:output_extension="org.inkscape.output.svg.inkscape">
  <defs
     id="defs4">
    <inkscape:perspective
       sodipodi:type="inkscape:persp3d"
       inkscape:vp_x="0 : 300.5 : 1"
       inkscape:vp_y="0 : 1000 : 0"
       inkscape:vp_z="601 : 300.5 : 1"
       inkscape:persp3d-origin="300.5 : 200.33333 : 1"
       id="perspective3380" />
    <inkscape:perspective
       id="perspective3990"
       inkscape:persp3d-origin="375 : 250 : 1"
       inkscape:vp_z="750 : 375 : 1"
       inkscape:vp_y="0 : 1000 : 0"
       inkscape:vp_x="0 : 375 : 1"
       sodipodi:type="inkscape:persp3d" />
  </defs>
  <sodipodi:namedview
     id="base"
     pagecolor="#ffffff"
     bordercolor="#666666"
     borderopacity="1.0"
     gridtolerance="10000"
     guidetolerance="10"
     objecttolerance="10"
     inkscape:pageopacity="0.0"
     inkscape:pageshadow="2"
     inkscape:zoom="3.639243"
     inkscape:cx="39.432272"
     inkscape:cy="54.898887"
     inkscape:document-units="px"
     inkscape:current-layer="layer1"
     width="601px"
     height="601px"
     inkscape:window-width="1280"
     inkscape:window-height="1004"
     inkscape:window-x="-8"
     inkscape:window-y="-8"
     showgrid="false"
     fit-margin-top="0"
     fit-margin-left="0"
     fit-margin-right="0"
     fit-margin-bottom="0"
     inkscape:window-maximized="1" />
  <metadata
     id="metadata7">
    <rdf:RDF>
      <cc:Work
         rdf:about="">
        <dc:format>image/svg+xml</dc:format>
        <dc:type
           rdf:resource="http://purl.org/dc/dcmitype/StillImage" />
      </cc:Work>
    </rdf:RDF>
  </metadata>
  <g
     inkscape:label="Layer 1"
     inkscape:groupmode="layer"
     id="layer1"
     transform="translate(-75.5625,313.75)">
    <rect
       style="color:#000000;fill:#000000;fill-opacity:1;fill-rule:nonzero;stroke:none;stroke-width:0.8735441;marker:none;visibility:visible;display:inline;overflow:visible"
       id="rect3653"
       width="0"
       height="27.202072"
       x="578.73834"
       y="298.1684"
       rx="249.48199"
       ry="27.202072" />
    <path
       inkscape:connector-curvature="0"
       d="m 81.541,-200.89812 78.75,0 c 3.07,-0.001 5.625,-2.55375 5.625,-5.625 l 0,-101.25 c -0.001,-3.07 -2.55375,-5.625 -5.625,-5.625 l -78.75,0 c -3.07125,0.001 -5.625,2.55375 -5.625,5.625 l 0,101.25 c 0,3.2925 2.56375,5.31625 5.625,5.625"
       style="fill:#ffffff;fill-opacity:1;fill-rule:evenodd;stroke:#000000;stroke-width:0.69999999;stroke-miterlimit:4;stroke-opacity:1;stroke-dasharray:none"
       id="path3765" />
    <path
       inkscape:connector-curvature="0"
       style="fill:#bf2519;fill-opacity:1;fill-rule:evenodd;stroke:none"
       d="m 81.53125,-311.96875 c -2.29125,0 -4.1875,1.89625 -4.1875,4.1875 l 0,101.25 c 0,2.29125 1.89625,4.21875 4.1875,4.21875 l 78.75,0 c 2.29,0 4.21875,-1.92875 4.21875,-4.21875 l 0,-101.25 c 0,-2.29125 -1.92875,-4.1875 -4.21875,-4.1875 l -78.75,0 z m 0,2.375 78.75,0 c 0.99625,0 1.83875,0.82 1.84375,1.8125 l 0,101.25 c 0,0.9925 -0.85375,1.83125 -1.84375,1.84375 l -78.75,0 c -1.00375,0 -1.8125,-0.85125 -1.8125,-1.84375 l 0,-101.25 c 0,-1.00625 0.81,-1.8075 1.8125,-1.8125 z"
       id="path3789" />
    <path
       inkscape:connector-curvature="0"
       d="m 117.0525,-283.39888 -5.73125,-10.14875 0,10.14875 -2.36625,0 0,-14.98625 2.36625,0 5.46875,9.57 0,-9.57 2.36625,0 0,14.98625 -2.10375,0 z"
       style="fill:#bf2519;fill-opacity:1;fill-rule:evenodd;stroke:none"
       id="path3797" />
    <path
       inkscape:connector-curvature="0"
       d="m 132.98512,-290.866 c 0,-1.8925 -0.3675,-3.78625 -0.99875,-5.10125 -0.9475,-1.84 -2.26125,-2.68125 -4.15375,-2.68125 -1.73625,0 -2.94625,0.52625 -3.83875,1.6825 -1,1.42 -1.63,3.62875 -1.63,6.1 0,1.7875 0.42,3.78625 1.05125,5.04875 0.89375,1.84 2.2075,2.68125 4.31125,2.68125 1.5775,0 2.7875,-0.52625 3.62875,-1.6825 1.05125,-1.315 1.63,-3.68125 1.63,-6.0475 m -2.36625,0 c 0,1.15625 -0.2625,2.63 -0.57875,3.4175 -0.525,1.315 -1.20875,1.89375 -2.31375,1.89375 -0.94625,0 -1.5775,-0.3675 -2.05125,-1.1575 -0.5775,-0.94625 -0.89375,-2.57625 -0.89375,-4.15375 0,-1.2625 0.21125,-2.63 0.57875,-3.5225 0.52625,-1.315 1.2625,-1.89375 2.42,-1.84125 0.8925,0.0525 1.47125,0.3675 1.945,1.1575 0.5775,0.99875 0.89375,2.52375 0.89375,4.20625"
       style="fill:#bf2519;fill-opacity:1;fill-rule:evenodd;stroke:none"
       id="path3801" />
    <path
       inkscape:connector-curvature="0"
       d="m 95.52425,-267.16475 c 0,-2.52375 -1.5775,-4.20625 -3.94375,-4.20625 l -4.46875,0 0,14.98625 2.155,0 0,-6.5725 2.31375,0 c 2.52375,0 3.94375,-1.4725 3.94375,-4.2075 m -2.10375,0 c 0,1.3675 -0.68375,2.15625 -1.945,2.15625 l -2.20875,0 0,-4.26 2.20875,0 c 1.15625,0 1.945,0.8425 1.945,2.10375"
       style="fill:#bf2519;fill-opacity:1;fill-rule:evenodd;stroke:none"
       id="path3805" />
    <path
       inkscape:connector-curvature="0"
       d="m 105.93563,-256.38475 -3.73375,-14.98625 -2.1025,0 -3.733755,14.98625 2.155,0 1,-4.10125 3.207505,0 1.05125,4.10125 2.15625,0 z m -3.73375,-6.205 -2.15625,0 1.0525,-4.3125 1.10375,4.3125 z"
       style="fill:#bf2519;fill-opacity:1;fill-rule:evenodd;stroke:none"
       id="path3809" />
    <path
       inkscape:connector-curvature="0"
       d="m 116.34637,-256.38475 -2.15625,-7.3625 c 1.42001,-0.525 2.15625,-1.84 2.15625,-3.6275 0,-2.41875 -1.57749,-3.99625 -3.94374,-3.99625 l -4.46875,0 0,14.98625 2.155,0 0,-7.04625 2.05125,0 1.9975,7.04625 2.20875,0 z m -2.10374,-10.99 c 0,1.20875 -0.6825,1.8925 -1.945,1.8925 l -2.20875,0 0,-3.78625 2.20875,0 c 1.1575,0 1.945,0.73625 1.945,1.89375"
       style="fill:#bf2519;fill-opacity:1;fill-rule:evenodd;stroke:none"
       id="path3813" />
    <path
       inkscape:connector-curvature="0"
       d="m 124.97,-256.38475 -2.63,-7.30875 -1.36625,2.52375 0,4.785 -2.15625,0 0,-14.98625 2.15625,0 0,5.995 3.4175,-5.995 2.4725,0 -3.10375,5.2575 3.47125,9.72875 -2.26125,0 z"
       style="fill:#bf2519;fill-opacity:1;fill-rule:evenodd;stroke:none"
       id="path3817" />
    <path
       inkscape:connector-curvature="0"
       d="m 129.7025,-271.37125 2.10375,0 0,14.98625 -2.10375,0 0,-14.98625 z"
       style="fill:#bf2519;fill-opacity:1;fill-rule:evenodd;stroke:none"
       id="path3819" />
    <path
       inkscape:connector-curvature="0"
       d="m 141.84862,-256.38475 -4.6275,-10.04375 0,10.04375 -2.15625,0 0,-14.98625 2.15625,0 4.1025,8.99125 0,-8.99125 2.155,0 0,14.98625 -1.63,0 z"
       style="fill:#bf2519;fill-opacity:1;fill-rule:evenodd;stroke:none"
       id="path3823" />
    <path
       inkscape:connector-curvature="0"
       d="m 154.36338,-258.225 c -0.57875,1.31375 -1.78875,2.10375 -3.3125,2.10375 -1.78875,0 -3.1025,-0.895 -3.83875,-2.5775 -0.47375,-1.10375 -0.79,-3.2075 -0.79,-5.1525 0,-2.10375 0.15875,-3.62875 0.68375,-5.04875 0.52625,-1.5775 2.05125,-2.73375 3.78625,-2.73375 2.15625,0 3.78625,1.5775 3.89125,3.785 l -2.15625,0 c -0.0525,-0.99875 -0.73625,-1.6825 -1.7875,-1.6825 -0.73625,0 -1.315,0.36875 -1.6825,1.105 -0.42,0.73625 -0.68375,2.41875 -0.68375,4.20625 0,1.2625 0.105,2.5775 0.315,3.73375 0.31625,1.4725 1.0525,2.26125 2.21,2.26125 1.10375,0 1.62875,-0.73625 1.62875,-2.31375 l 0,-0.99875 -1.68125,0 0,-2.10375 3.8375,0 0,3.1025 c 0,1.05125 -0.105,1.6825 -0.42,2.31375"
       style="fill:#bf2519;fill-opacity:1;fill-rule:evenodd;stroke:none"
       id="path3827" />
    <path
       inkscape:connector-curvature="0"
       d="m 120.02125,-239.31938 c 0,-1.2625 -0.245,-2.52375 -0.66625,-3.4 -0.63125,-1.2275 -1.5075,-1.7875 -2.76875,-1.7875 -1.1575,0 -1.96375,0.35 -2.55875,1.12125 -0.6675,0.94625 -1.0875,2.41875 -1.0875,4.06625 0,1.1925 0.28125,2.525 0.70125,3.365 0.59625,1.2275 1.4725,1.78875 2.875,1.78875 1.05125,0 1.8575,-0.35125 2.41875,-1.1225 0.7,-0.87625 1.08625,-2.45375 1.08625,-4.03125 m -1.5775,0 c 0,0.77125 -0.175,1.7525 -0.385,2.27875 -0.35125,0.87625 -0.80625,1.2625 -1.5425,1.2625 -0.63125,0 -1.0525,-0.24625 -1.3675,-0.77125 -0.38625,-0.63125 -0.59625,-1.71875 -0.59625,-2.77 0,-0.84125 0.14,-1.7525 0.38625,-2.34875 0.35,-0.87625 0.84125,-1.2625 1.6125,-1.22625 0.595,0.0337 0.98125,0.245 1.29625,0.77 0.38625,0.6675 0.59625,1.68375 0.59625,2.805"
       style="fill:#bf2519;fill-opacity:1;fill-rule:evenodd;stroke:none"
       id="path3831" />
    <path
       inkscape:connector-curvature="0"
       d="m 127.59262,-234.34125 -3.82125,-6.76625 0,6.76625 -1.5775,0 0,-9.99125 1.5775,0 3.64625,6.38 0,-6.38 1.5775,0 0,9.99125 -1.4025,0 z"
       style="fill:#bf2519;fill-opacity:1;fill-rule:evenodd;stroke:none"
       id="path3835" />
    <path
       inkscape:connector-curvature="0"
       d="m 94.995,-221.55325 c 0,-1.01625 -0.66625,-2.06875 -1.5425,-2.48875 -0.49,-0.24625 -1.01625,-0.31625 -1.8225,-0.31625 l -3.435,0 0,9.99125 1.57625,0 0,-4.3475 1.85875,0 c 0.77125,0 1.36625,-0.14 1.8225,-0.35 0.87625,-0.385 1.5425,-1.4375 1.5425,-2.48875 m -1.6125,0 c 0,0.42 -0.245,0.87625 -0.59625,1.05125 -0.28,0.14 -0.455,0.17625 -0.94625,0.17625 l -2.06875,0 0,-2.455 2.06875,0 c 0.49125,0 0.66625,0.035 0.94625,0.17625 0.35125,0.21 0.59625,0.63 0.59625,1.05125"
       style="fill:#bf2519;fill-opacity:1;fill-rule:evenodd;stroke:none"
       id="path3839" />
    <path
       inkscape:connector-curvature="0"
       d="m 104.00438,-214.36688 -3.43625,-9.99125 -1.577505,0 -3.435,9.99125 1.6825,0 0.9825,-2.805 3.119995,0 0.98126,2.805 1.68249,0 z m -3.225,-4.4175 -1.998755,0 1.01625,-2.80375 0.982505,2.80375 z"
       style="fill:#bf2519;fill-opacity:1;fill-rule:evenodd;stroke:none"
       id="path3843" />
    <path
       inkscape:connector-curvature="0"
       d="m 108.98188,-214.36688 -1.2275,0 -3.155,-9.99125 1.6475,0 2.13875,6.66125 2.10249,-6.66125 1.68376,0 -3.19,9.99125 z"
       style="fill:#bf2519;fill-opacity:1;fill-rule:evenodd;stroke:none"
       id="path3847" />
    <path
       inkscape:connector-curvature="0"
       d="m 113.60825,-214.36688 0,-9.99125 5.89,0 0,1.5775 -4.3125,0 0,2.45375 2.91,0 0,1.6125 -2.91,0 0,2.735 4.6275,0 0,1.6125 -6.205,0 z"
       style="fill:#bf2519;fill-opacity:1;fill-rule:evenodd;stroke:none"
       id="path3851" />
    <path
       inkscape:connector-curvature="0"
       d="m 127.66538,-214.36688 0,-5.78375 -2.31375,5.78375 -2.31375,-5.78375 0,5.78375 -1.5775,0 0,-9.99125 1.5775,0 2.31375,5.61 2.31375,-5.61 1.5775,0 0,9.99125 -1.5775,0 z"
       style="fill:#bf2519;fill-opacity:1;fill-rule:evenodd;stroke:none"
       id="path3855" />
    <path
       inkscape:connector-curvature="0"
       d="m 131.59175,-214.36688 0,-9.99125 5.88875,0 0,1.5775 -4.31125,0 0,2.45375 2.90875,0 0,1.6125 -2.90875,0 0,2.735 4.6275,0 0,1.6125 -6.205,0 z"
       style="fill:#bf2519;fill-opacity:1;fill-rule:evenodd;stroke:none"
       id="path3859" />
    <path
       inkscape:connector-curvature="0"
       d="m 144.8425,-214.36688 -3.82125,-6.76625 0,6.76625 -1.5775,0 0,-9.99125 1.5775,0 3.645,6.38 0,-6.38 1.5775,0 0,9.99125 -1.40125,0 z"
       style="fill:#bf2519;fill-opacity:1;fill-rule:evenodd;stroke:none"
       id="path3863" />
    <path
       inkscape:connector-curvature="0"
       d="m 151.57275,-222.95575 0,8.58875 -1.5775,0 0,-8.58875 -2.27875,0 0,-1.4025 6.17,0 0,1.4025 -2.31375,0 z"
       style="fill:#bf2519;fill-opacity:1;fill-rule:evenodd;stroke:none"
       id="path3867" />
  </g>
</svg>
