<?xml version="1.0" encoding="UTF-8" standalone="no"?>
<!-- Generator: Adobe Illustrator 14.0.0, SVG Export Plug-In  -->

<svg
   xmlns:dc="http://purl.org/dc/elements/1.1/"
   xmlns:cc="http://creativecommons.org/ns#"
   xmlns:rdf="http://www.w3.org/1999/02/22-rdf-syntax-ns#"
   xmlns:svg="http://www.w3.org/2000/svg"
   xmlns="http://www.w3.org/2000/svg"
   xmlns:sodipodi="http://sodipodi.sourceforge.net/DTD/sodipodi-0.dtd"
   xmlns:inkscape="http://www.inkscape.org/namespaces/inkscape"
   version="1.1"
   x="0px"
   y="0px"
   width="86.218727"
   height="128.93747"
   viewBox="0 -0.321 86.218731 128.9375"
   enable-background="new 0 -0.321 144 120"
   xml:space="preserve"
   id="svg2"
   inkscape:version="0.48.2 r9819"
   sodipodi:docname="MUTCD R7-2a.svg"><metadata
   id="metadata44"><rdf:RDF><cc:Work
       rdf:about=""><dc:format>image/svg+xml</dc:format><dc:type
         rdf:resource="http://purl.org/dc/dcmitype/StillImage" /><dc:title></dc:title></cc:Work></rdf:RDF></metadata><sodipodi:namedview
   pagecolor="#ffffff"
   bordercolor="#666666"
   borderopacity="1"
   objecttolerance="10"
   gridtolerance="10"
   guidetolerance="10"
   inkscape:pageopacity="0"
   inkscape:pageshadow="2"
   inkscape:window-width="1280"
   inkscape:window-height="1004"
   id="namedview42"
   showgrid="false"
   fit-margin-top="0"
   fit-margin-left="0"
   fit-margin-right="0"
   fit-margin-bottom="0"
   inkscape:zoom="3.7904688"
   inkscape:cx="29.000366"
   inkscape:cy="74.841024"
   inkscape:window-x="-8"
   inkscape:window-y="-8"
   inkscape:window-maximized="1"
   inkscape:current-layer="svg2" />
<defs
   id="defs4">
</defs>


















<path
   inkscape:connector-curvature="0"
   d="m 11.046538,0.03319 64.12501,0 c 5.88625,0 10.68751,4.80125 10.68751,10.6875 l 0,106.87503 c 0,5.88625 -4.80126,10.68625 -10.68751,10.68625 l -64.12501,0 c -5.8862512,0 -10.68750104,-4.8 -10.68750104,-10.68625 l 0,-106.87503 c 0,-5.8125 4.87499984,-10.6875 10.68750104,-10.6875"
   style="fill:#ffffff;fill-opacity:1;fill-rule:nonzero;stroke:#000000;stroke-width:0.70000017;stroke-linecap:butt;stroke-linejoin:miter;stroke-miterlimit:4;stroke-opacity:1;stroke-dasharray:none"
   id="path3081" /><path
   inkscape:connector-curvature="0"
   d="m 11.080288,2.70469 64.05751,0 c 4.41375,0.0175 8.02251,3.6425 8.04876,8.05 l 0,106.80628 c -0.0263,4.41 -3.63501,8.0275 -8.04876,8.05 l -64.05751,0 c -4.4050012,-0.0225 -8.0350012,-3.64 -8.0487512,-8.05 l 0,-106.80628 c 0.0138,-4.4075 3.64375,-8.0325 8.0487512,-8.05"
   style="fill:#bf2519;fill-opacity:1;fill-rule:evenodd;stroke:none"
   id="path3085" /><path
   inkscape:connector-curvature="0"
   d="m 11.120288,5.82557 63.97626,0 c 2.75125,0.0163 4.9525,2.2175 4.97,4.96875 l 0,106.72753 c -0.0175,2.7375 -2.21875,4.97 -4.97,4.9675 l -63.97626,0 c -2.7500012,0.003 -4.9550012,-2.23 -4.9687512,-4.9675 l 0,-106.72753 c 0.0138,-2.75125 2.21875,-4.9525 4.9687512,-4.96875"
   style="fill:#ffffff;fill-opacity:1;fill-rule:evenodd;stroke:none"
   id="path3089" /><path
   d="m 77.985947,44.8421 c -0.29,-2.69125 -1.73125,-4.196251 -4.070001,-4.196251 -2.01875,0 -3.267501,0.896251 -3.972501,2.818751 -0.7375,1.98625 -0.96125,3.876251 -0.96125,8.201252 0,4.357501 0.22375,6.248751 0.8975,8.233752 0.70375,1.98625 1.922501,2.825001 4.036251,2.825001 1.890001,0 3.332501,-0.933751 3.750001,-2.440001 0.19,-0.6725 0.32,-1.79375 0.32,-2.787501 l 0,-5.478751 -3.877501,0 0,2.788751 1.216251,0 0,2.81875 c 0,1.473751 -0.545001,2.306251 -1.505001,2.306251 -0.92875,0 -1.47375,-0.705 -1.6975,-2.115001 -0.28875,-1.79375 -0.385,-3.235 -0.385,-6.151251 0,-2.947501 0.09625,-4.388751 0.4175,-6.118752 0.255,-1.40875 0.865,-2.115 1.825,-2.115 0.7375,0 1.217501,0.5125 1.345001,1.41 l 2.66125,0 z"
   style="fill:#bf2519;fill-opacity:1;fill-rule:evenodd;stroke:none"
   id="path3379"
   inkscape:connector-curvature="0" /><path
   d="m 66.560945,40.996849 -2.658751,0 0,10.668753 -3.685001,-10.668753 -2.658751,0 0,21.375005 2.658751,0 0,-12.692503 4.101251,12.692503 2.242501,0 0,-21.375005 z"
   style="fill:#bf2519;fill-opacity:1;fill-rule:evenodd;stroke:none"
   id="path3383"
   inkscape:connector-curvature="0" /><path
   d="m 55.139444,40.996852 -2.658751,0 0,21.375005 2.658751,0 0,-21.375005 z"
   style="fill:#bf2519;fill-opacity:1;fill-rule:evenodd;stroke:none"
   id="path3385"
   inkscape:connector-curvature="0" /><path
   d="m 47.04844,48.366226 3.460001,-7.370002 -3.045001,0 -3.300001,6.826252 0,-6.826252 -2.66,0 0,21.376255 2.66,0 0,-8.015001 0.99375,-2.113751 2.818751,10.128752 2.883751,0 -3.811251,-14.006253 z"
   style="fill:#bf2519;fill-opacity:1;fill-rule:evenodd;stroke:none"
   id="path3389"
   inkscape:connector-curvature="0" /><path
   d="m 31.787186,21.32422 6.406252,14.326253 2.275,0 0,-21.373755 -3.01125,0 0,12.782503 -5.670002,-12.782503 -3.0125,0 0,21.373755 3.0125,0 0,-14.326253 z"
   style="fill:#bf2519;fill-opacity:1;fill-rule:evenodd;stroke:none"
   id="path3393"
   inkscape:connector-curvature="0" /><path
   d="m 51.169691,16.902594 c -1.2825,0 -2.115001,0.80125 -2.628751,2.595 -0.48,1.666251 -0.64,3.076251 -0.64,5.478752 0,2.33875 0.16,3.71625 0.64,5.382501 0.51375,1.82625 1.315001,2.658751 2.628751,2.658751 1.25,0 2.0825,-0.832501 2.595,-2.626251 0.480001,-1.698751 0.640001,-3.012501 0.640001,-5.446251 0,-2.403751 -0.16,-3.813751 -0.640001,-5.382502 -0.545,-1.85875 -1.345,-2.66 -2.595,-2.66 m 0,-2.978751 c 2.435,0 3.876251,1.0575 4.965001,3.651251 0.865,2.0825 1.185,4.101251 1.185,7.370002 0,3.29875 -0.32,5.348751 -1.185,7.432501 -1.05625,2.530001 -2.562501,3.625001 -4.965001,3.625001 -2.467501,0 -3.941251,-1.095 -4.997501,-3.657501 -0.867501,-2.08125 -1.186251,-4.132501 -1.186251,-7.400001 0,-3.268751 0.3525,-5.447502 1.217501,-7.466252 1.09,-2.497501 2.56375,-3.555001 4.966251,-3.555001"
   style="fill:#bf2519;fill-opacity:1;fill-rule:evenodd;stroke:none"
   id="path3397"
   inkscape:connector-curvature="0" /><path
   d="m 32.739686,49.583477 1.730001,0 c 1.44375,0 1.89,-0.64 1.89,-2.66 0,-2.433751 -0.5125,-3.138751 -2.3075,-3.138751 l -1.312501,0 0,5.798751 z m 4.166251,2.115001 2.112501,10.673752 -2.722501,0 -2.33875,-10.001252 -1.217501,0 0,10.001252 -2.6575,0 0,-21.375005 4.068751,0 c 3.266251,0 4.933751,2.018751 4.933751,5.958752 0,2.435 -0.61,3.748751 -2.178751,4.742501"
   style="fill:#bf2519;fill-opacity:1;fill-rule:evenodd;stroke:none"
   id="path3401"
   inkscape:connector-curvature="0" /><path
   d="m 23.945934,53.908978 -1.155,-5.638751 -1.15375,5.638751 2.30875,0 z m 0.573751,2.787501 -3.458751,0 -1.153751,5.676251 -2.78625,0 4.292501,-21.376255 2.75375,0 4.295001,21.376255 -2.78875,0 -1.15375,-5.676251 z"
   style="fill:#bf2519;fill-opacity:1;fill-rule:evenodd;stroke:none"
   id="path3405"
   inkscape:connector-curvature="0" /><path
   d="m 11.079682,50.256728 1.41,0 c 1.632501,0 2.210001,-0.801251 2.210001,-3.043751 0,-2.371251 -0.705,-3.427501 -2.210001,-3.427501 l -1.41,0 0,6.471252 z m 0,2.7875 0,9.327502 -2.6600008,0 0,-21.375005 4.0700008,0 c 1.21625,0 2.273751,0.32125 2.947501,0.866251 1.2175,0.9925 1.98625,3.04375 1.98625,5.317501 0,3.523751 -1.98625,5.863751 -4.933751,5.863751 l -1.41,0 z"
   style="fill:#bf2519;fill-opacity:1;fill-rule:evenodd;stroke:none"
   id="path3409"
   inkscape:connector-curvature="0" /><path
   d="m 58.210942,68.669106 0,-0.95 -3.626251,0 0,0.95 1.30125,0 0,6.172501 1.025,0 0,-6.172501 1.300001,0 z m -5.580002,1.05 c 0,0.64875 -0.325,1.025 -0.925,1.025 l -1.04875,0 0,-2.025 1.04875,0 c 0.55,0 0.925,0.4 0.925,1 m 1,0 c 0,-1.2 -0.75,-2 -1.875,-2 l -2.125001,0 0,7.122501 1.026251,0 0,-3.12375 1.09875,0 c 1.2,0 1.875,-0.7 1.875,-1.998751 m -5.730001,5.122501 0,-1 -2.600001,0 0,-2.34875 1.475001,0 0,-0.973751 -1.475001,0 0,-1.8 2.323751,0 0,-1 -3.347501,0 0,7.122501 3.623751,0 z m -5.556251,-5.222501 c -0.07375,-0.65 -0.17375,-0.95 -0.45,-1.29875 -0.325,-0.47625 -0.822501,-0.72625 -1.397501,-0.72625 -1.4,0 -2.125,1.225 -2.125,3.522501 0,2.625 0.67625,3.85375 2.19875,3.85375 0.998751,0 1.751251,-0.855 1.773751,-2.0275 l -1.02375,0 c 0,0.52375 -0.148751,1.0225 -0.750001,1.0225 -0.87375,0 -1.225,-0.82375 -1.225,-2.8725 0,-1.850001 0.3,-2.498751 1.125,-2.498751 0.47625,0 0.750001,0.325 0.850001,1.025 l 1.02375,0 z m -5.353751,5.222501 -1.548751,-3.69875 1.4225,-3.423751 -1.0725,0 -0.9,2.15125 -0.9,-2.15125 -1.075,0 1.44875,3.423751 -1.54875,3.69875 1.075,0 1,-2.42375 0.99875,2.42375 1.100001,0 z m -5.353752,0 0,-1 -2.59875,0 0,-2.34875 1.47375,0 0,-0.973751 -1.47375,0 0,-1.8 2.32375,0 0,-1 -3.350001,0 0,7.122501 3.625001,0 z"
   style="fill:#bf2519;fill-opacity:1;fill-rule:evenodd;stroke:none"
   id="path3413"
   inkscape:connector-curvature="0" /><path
   d="m 48.88719,85.38611 c 0,-1.0225 -0.6,-1.797501 -1.9725,-2.597501 -0.52625,-0.3 -0.6775,-0.5 -0.6775,-0.84875 0,-0.47625 0.375,-0.82625 0.85,-0.82625 0.45,0 0.80125,0.325 0.825,0.82625 l 0.975,0 c -0.025,-1.075 -0.80125,-1.85 -1.8,-1.85 -1.02375,0 -1.823751,0.82375 -1.823751,1.85 0,0.62375 0.300001,1.17375 0.873751,1.57125 1.45125,0.976251 1.05,0.701251 1.2,0.852501 0.42375,0.32375 0.575,0.62375 0.575,1.0225 0,0.575 -0.44875,1.075 -0.9975,1.075 -0.70125,0 -1.00125,-0.625 -1.00125,-1.22375 l -0.998751,0 c 0,1.17375 0.748751,2.22625 2.000001,2.22625 1.0975,0 1.9725,-0.9275 1.9725,-2.0775 m -4.597501,-5.171251 -1.1,0 -1.175,2.57375 -1.200001,-2.57375 -1.07625,0 1.751251,3.897501 0,3.2225 1.025,0 0,-3.2225 1.775,-3.897501 z m -6.748751,4.172501 -1.025001,0 0.500001,-2.048751 0.525,2.048751 z m 1.7725,2.9475 -1.7725,-7.120001 -1.000001,0 -1.775,7.120001 1.025,0 0.47375,-1.94875 1.526251,0 0.49875,1.94875 1.02375,0 z m -6.397501,-3.52125 c 0,0.55 -0.05,1.0475 -0.1,1.4975 -0.09875,0.55 -0.423751,1.02625 -1.023751,1.02625 l -0.85,0 0,-5.123751 0.85,0 c 0.44875,0 0.74875,0.225 0.925,0.72625 0.125001,0.29875 0.198751,1.07375 0.198751,1.873751 m 1,-0.05125 c 0,-0.550001 -0.07375,-1.173751 -0.175,-1.698751 -0.125,-0.725 -0.425,-1.275 -0.85,-1.57375 -0.248751,-0.2 -0.550001,-0.275 -1.147501,-0.275 l -1.82625,0 0,7.120001 1.97375,0 c 0.40125,0 0.75125,-0.1 1.000001,-0.32375 0.7,-0.55 1.025,-1.6 1.025,-3.24875 m -5.522502,3.5725 0,-7.120001 -1.025,0 0,4.272501 -1.95125,-4.272501 -1.02375,0 0,7.120001 1.02375,0 0,-4.771251 2.2,4.771251 0.77625,0 z m -5.525001,-2.1225 0,-4.997501 -1.025,0 0,5.122501 c 0,0.67375 -0.3975,1.12375 -0.94875,1.12375 -0.6,0 -1.000001,-0.45 -1.000001,-1.12375 l 0,-5.122501 -1.025,0 0,4.997501 c 0,0.575 0.075,0.87375 0.27625,1.24875 0.34875,0.59875 1.050001,1.0025 1.748751,1.0025 0.675,0 1.35,-0.42875 1.69875,-1.0025 0.20125,-0.375 0.275,-0.67375 0.275,-1.24875 m -5.197501,0.17375 c 0,-1.0225 -0.6,-1.797501 -1.975,-2.597501 -0.525,-0.3 -0.67375,-0.5 -0.67375,-0.84875 0,-0.47625 0.37375,-0.82625 0.85,-0.82625 0.44875,0 0.79875,0.325 0.82375,0.82625 l 0.975,0 c -0.02625,-1.075 -0.80125,-1.85 -1.79875,-1.85 -1.02625,0 -1.82625,0.82375 -1.82625,1.85 0,0.62375 0.3,1.17375 0.87375,1.57125 1.45,0.976251 1.0525,0.701251 1.20125,0.852501 0.425,0.32375 0.575,0.62375 0.575,1.0225 0,0.575 -0.45125,1.075 -1,1.075 -0.70125,0 -1.00125,-0.625 -1.00125,-1.22375 l -0.998751,0 c 0,1.17375 0.750001,2.22625 2.000001,2.22625 1.1,0 1.975,-0.9275 1.975,-2.0775"
   style="fill:#bf2519;fill-opacity:1;fill-rule:evenodd;stroke:none"
   id="path3417"
   inkscape:connector-curvature="0" /><path
   d="m 61.627193,97.880739 c 0,-1.02375 -0.6,-1.798751 -1.975,-2.598751 -0.52625,-0.29875 -0.675,-0.49875 -0.675,-0.84875 0,-0.475 0.375,-0.825 0.85,-0.825 0.45,0 0.8,0.32625 0.825,0.825 l 0.975,0 c -0.025,-1.07375 -0.8,-1.84875 -1.8,-1.84875 -1.02625,0 -1.825001,0.82375 -1.825001,1.84875 0,0.625 0.301251,1.17375 0.875001,1.57375 1.45,0.976251 1.05,0.698751 1.20125,0.850001 0.425,0.325 0.57375,0.625 0.57375,1.02375 0,0.575 -0.45,1.075 -1,1.075 -0.7,0 -1,-0.625 -1,-1.22375 l -1.000001,0 c 0,1.17375 0.751251,2.2275 2.000001,2.2275 1.1,0 1.975,-0.92875 1.975,-2.07875 m -4.600001,-5.171251 -1.1,0 -1.17375,2.5725 -1.200001,-2.5725 -1.0725,0 1.747501,3.897501 0,3.22375 1.025,0 0,-3.22375 1.77375,-3.897501 z m -6.747501,4.172501 -1.023751,0 0.498751,-2.050001 0.525,2.050001 z m 1.77375,2.94875 -1.77375,-7.121251 -1.000001,0 -1.775,7.121251 1.025,0 0.475,-1.95 1.525001,0 0.5,1.95 1.02375,0 z M 45.65719,96.308238 c 0,0.548751 -0.05125,1.047501 -0.1,1.497501 -0.10125,0.55 -0.426251,1.025 -1.026251,1.025 l -0.84875,0 0,-5.122501 0.84875,0 c 0.45,0 0.75,0.22625 0.925001,0.725 0.125,0.3 0.20125,1.07375 0.20125,1.875 m 0.9975,-0.05125 c 0,-0.55 -0.0725,-1.17375 -0.17375,-1.6975 -0.12625,-0.72625 -0.42625,-1.27625 -0.85125,-1.57625 -0.248751,-0.19875 -0.548751,-0.27375 -1.148751,-0.27375 l -1.825,0 0,7.121251 1.975,0 c 0.40125,0 0.75,-0.1 0.998751,-0.325 0.70125,-0.55 1.025,-1.6 1.025,-3.248751 m -5.548752,-3.5475 -0.99875,0 0,7.121251 0.99875,0 0,-7.121251 z m -1.9725,7.121251 0,-0.95 -2.600001,0 0,-6.171251 -1.025,0 0,7.121251 3.625001,0 z m -6.025001,-3.573751 c 0,0.825001 -0.04875,1.250001 -0.225,1.825001 -0.173751,0.59875 -0.448751,0.87375 -0.873751,0.87375 -0.45,0 -0.725,-0.275 -0.90125,-0.87375 -0.14875,-0.575 -0.225,-1.025 -0.225,-1.800001 0,-0.8 0.05125,-1.27375 0.225,-1.8225 0.17625,-0.60125 0.45125,-0.87625 0.90125,-0.87625 0.425,0 0.7,0.275 0.873751,0.9 0.15125,0.525 0.225,0.97375 0.225,1.77375 m 0.97625,0 c 0,-1.07375 -0.1,-1.74875 -0.4,-2.44875 -0.35125,-0.87375 -0.85,-1.22375 -1.675001,-1.22375 -0.825,0 -1.325,0.35 -1.70125,1.19875 -0.29875,0.67625 -0.39875,1.4 -0.39875,2.47375 0,1.098751 0.1,1.773751 0.39875,2.475001 0.35125,0.84875 0.85125,1.2275 1.70125,1.2275 0.800001,0 1.323751,-0.37875 1.675001,-1.2275 0.3,-0.675 0.4,-1.37625 0.4,-2.475001 m -5.575002,3.573751 0,-7.121251 -1.02375,0 0,2.8975 -1.95,0 0,-2.8975 -1.025,0 0,7.121251 1.025,0 0,-3.22375 1.95,0 0,3.22375 1.02375,0 z"
   style="fill:#bf2519;fill-opacity:1;fill-rule:evenodd;stroke:none"
   id="path3421"
   inkscape:connector-curvature="0" /><path
   d="m 71.452196,83.813236 c 0,0.55 -0.04875,1.04875 -0.1,1.49875 -0.1,0.55 -0.425,1.025 -1.025001,1.025 l -0.85,0 0,-5.123751 0.85,0 c 0.44875,0 0.750001,0.225 0.925001,0.72625 0.125,0.29875 0.2,1.07375 0.2,1.873751 m 0.99875,-0.05125 c 0,-0.550001 -0.0725,-1.172501 -0.1725,-1.698751 -0.12625,-0.72375 -0.425,-1.275 -0.85,-1.57375 -0.25,-0.19875 -0.55125,-0.27375 -1.150001,-0.27375 l -1.82625,0 0,7.120001 1.975,0 c 0.400001,0 0.751251,-0.1 1.001251,-0.325 0.6975,-0.55 1.0225,-1.6 1.0225,-3.24875 m -5.522501,3.57375 0,-7.120001 -1.025001,0 0,4.271251 -1.95125,-4.271251 -1.0225,0 0,7.120001 1.0225,0 0,-4.772501 2.2025,4.772501 0.773751,0 z m -6.747502,-2.94875 -1.02625,0 0.50125,-2.048751 0.525,2.048751 z m 1.77375,2.94875 -1.77375,-7.120001 -1.00125,0 -1.773751,7.120001 1.023751,0 0.475,-1.95 1.525,0 0.5,1.95 1.025,0 z"
   style="fill:#bf2519;fill-opacity:1;fill-rule:evenodd;stroke:none"
   id="path3425"
   inkscape:connector-curvature="0" /><path
   d="m 59.970943,113.08812 -0.89125,3.36249 c -0.02,0.0225 -0.04125,0.0362 -0.0475,0.065 -0.02375,0.0425 -0.0375,0.0862 -0.05125,0.135 0.02125,0.1925 0.065,0.37125 0.185,0.5275 0.21375,0.2925 0.50625,0.37875 0.85625,0.3625 0.11375,-0.006 0.24875,-0.0337 0.34125,-0.1 l 10.196252,-7.02499 -10.196252,-6.9325 c -0.14125,-0.0987 -0.24125,-0.1475 -0.42,-0.185 -0.3,-0.0625 -0.6275,0.17125 -0.7975,0.41375 -0.1,0.1425 -0.15125,0.2925 -0.165,0.47 0.01375,0.0575 0.01375,0.12125 0.04375,0.1775 0.01375,0.0438 0.035,0.08 0.055,0.115 l 0.89125,3.27 -33.952508,0 0.89125,-3.27 c 0.02125,-0.035 0.0425,-0.0712 0.0575,-0.115 0.0275,-0.0562 0.0275,-0.12 0.0425,-0.1775 -0.015,-0.1775 -0.065,-0.3275 -0.16375,-0.47 -0.17125,-0.2425 -0.5,-0.47625 -0.79875,-0.41375 -0.1775,0.0375 -0.2775,0.0863 -0.42125,0.185 l -10.196252,6.9325 10.196252,7.02499 c 0.0925,0.0662 0.22875,0.0937 0.34375,0.1 0.34875,0.0162 0.63875,-0.07 0.85375,-0.3625 0.12125,-0.15625 0.16375,-0.335 0.18625,-0.5275 -0.015,-0.0487 -0.03,-0.0925 -0.04875,-0.135 -0.0088,-0.0288 -0.03,-0.0425 -0.05125,-0.065 l -0.89125,-3.36249 33.952508,0 z"
   style="fill:#bf2519;fill-opacity:1;fill-rule:evenodd;stroke:none"
   id="path3429"
   inkscape:connector-curvature="0" /></svg>