<?xml version="1.0" encoding="utf-8"?>
<!-- Generator: Adobe Illustrator 12.0.1, SVG Export Plug-In  -->
<!DOCTYPE svg PUBLIC "-//W3C//DTD SVG 1.1//EN" "http://www.w3.org/Graphics/SVG/1.1/DTD/svg11.dtd" [
	<!ENTITY ns_flows "http://ns.adobe.com/Flows/1.0/">
	<!ENTITY ns_svg "http://www.w3.org/2000/svg">
	<!ENTITY ns_xlink "http://www.w3.org/1999/xlink">
]>
<svg  version="1.1" xmlns="&ns_svg;" xmlns:xlink="&ns_xlink;" xmlns:a="http://ns.adobe.com/AdobeSVGViewerExtensions/3.0/"
	 width="288" height="288" viewBox="0 0 288 288" enable-background="new 0 0 288 288" xml:space="preserve">
<defs>
</defs>
<path fill="#FFFFFF" d="M24.584,0.698h238.832c13.158,0,23.887,10.729,23.887,23.883v238.837c0,13.154-10.729,23.883-23.887,23.883
	H24.584c-13.157,0-23.886-10.729-23.886-23.883V24.581C0.699,11.591,11.591,0.698,24.584,0.698"/>
<path fill="#FFFFFF" d="M263.416,1.396H24.584c-12.57,0-23.188,10.617-23.188,23.185v238.837c0,6.176,2.417,11.994,6.803,16.381
	c4.39,4.387,10.208,6.805,16.384,6.805h238.832c6.176,0,11.996-2.418,16.385-6.805c4.387-4.387,6.803-10.205,6.803-16.381V24.581
	C286.604,11.798,276.203,1.396,263.416,1.396z"/>
<path d="M263.416,0H24.584C11.258,0,0,11.258,0,24.581v238.837c0,6.551,2.562,12.715,7.213,17.369
	c4.651,4.65,10.822,7.213,17.372,7.213h238.832c6.551,0,12.719-2.563,17.373-7.213c4.65-4.654,7.211-10.818,7.211-17.369V24.581
	C288,11.026,276.973,0,263.416,0z M286.604,263.418c0,6.176-2.416,11.994-6.803,16.381c-4.389,4.387-10.209,6.805-16.385,6.805
	H24.584c-6.176,0-11.995-2.418-16.384-6.805c-4.386-4.387-6.803-10.205-6.803-16.381V24.581c0-12.567,10.617-23.185,23.188-23.185
	h238.832c12.787,0,23.188,10.401,23.188,23.185V263.418z"/>
<path fill="#BF2F37" d="M263.338,6.667H24.658c-9.843,0.041-17.956,8.14-17.988,17.99V263.34
	c0.033,9.857,8.146,17.938,17.988,17.992h238.68c9.869-0.055,17.93-8.135,17.992-17.992V24.657
	C281.268,14.807,273.207,6.708,263.338,6.667z M24.746,13.643h238.506c6.145,0.035,11.07,4.956,11.104,11.103v41.056H13.646V24.745
	C13.675,18.599,18.605,13.678,24.746,13.643z M263.252,274.354H24.746c-6.141,0.006-11.07-4.982-11.1-11.102V157.604h84.702V71.802
	h176.008v191.45C274.322,269.371,269.396,274.359,263.252,274.354z"/>
<path fill="#FFFFFF" d="M98.348,71.802v85.802H13.646v105.647c0.03,6.119,4.959,11.107,11.1,11.102h238.506
	c6.145,0.006,11.07-4.982,11.104-11.102V71.802H98.348z"/>
<path fill="#FFFFFF" d="M274.355,65.801V24.745c-0.033-6.146-4.959-11.067-11.104-11.103H24.746
	c-6.141,0.035-11.07,4.956-11.1,11.103v41.056H274.355z"/>
<path fill="#FFFFFF" d="M46.115,141.475l-16.56-35.92v35.92h-7.68v-53.6h7.68l14.72,32.16v-32.16h7.68v53.6H46.115z"/>
<path fill="#FFFFFF" d="M87.074,133.234c-2.64,6.32-6.56,9.2-12.56,9.2c-6.4,0-10.16-2.88-12.8-9.2c-2.24-5.28-3.04-10.4-3.04-18.64
	c0-8.08,0.8-13.52,3.04-18.64c2.8-6.4,6.56-9.04,12.8-9.04c6.16,0,9.92,2.64,12.56,9.2c2.24,5.28,3.04,10.4,3.04,18.48
	C90.114,122.834,89.314,128.115,87.074,133.234z M81.074,101.235c-1.36-4.72-3.36-6.8-6.56-6.8c-3.44,0-5.52,2.08-6.8,6.64
	c-1.28,4.08-1.68,7.68-1.68,13.68c0,5.84,0.56,9.2,1.68,13.52c1.28,4.56,3.36,6.64,6.8,6.64c3.2,0,5.2-2.08,6.56-6.64
	c1.28-4.32,1.68-7.52,1.68-13.68C82.754,108.595,82.194,105.155,81.074,101.235z"/>
<path fill="#BF2F37" d="M126.035,103.27h-4.68v13.23h-4.32V86.35h9c4.725,0,7.92,3.375,7.92,8.46
	C133.955,100.3,131.12,103.27,126.035,103.27z M125.81,90.58h-4.455v8.55h4.455c2.52,0,3.915-1.575,3.915-4.32
	C129.725,92.29,128.15,90.58,125.81,90.58z"/>
<path fill="#BF2F37" d="M151.82,116.5l-2.115-8.235h-6.48l-1.98,8.235h-4.365l7.515-30.15h4.23l7.515,30.15H151.82z M146.42,95.35
	l-2.115,8.685h4.32L146.42,95.35z"/>
<path fill="#BF2F37" d="M173.869,116.5l-4.006-14.175h-4.14V116.5h-4.319V86.35h9c4.725,0,7.92,3.195,7.92,8.055
	c0,3.6-1.485,6.21-4.32,7.291l4.32,14.805H173.869z M170.179,90.58h-4.455v7.605h4.455c2.521,0,3.915-1.35,3.915-3.78
	C174.094,92.065,172.519,90.58,170.179,90.58z"/>
<path fill="#BF2F37" d="M196.908,116.5l-5.31-14.715l-2.745,5.085v9.63h-4.32V86.35h4.32v12.06l6.885-12.06h4.995l-6.255,10.575
	l6.975,19.575H196.908z"/>
<path fill="#BF2F37" d="M207.664,116.5V86.35h4.23v30.15H207.664z"/>
<path fill="#BF2F37" d="M233.313,116.5l-9.314-20.205V116.5h-4.32V86.35h4.32l8.28,18.09V86.35h4.319v30.15H233.313z"/>
<path fill="#BF2F37" d="M259.729,112.81c-1.171,2.61-3.601,4.23-6.66,4.23c-3.601,0-6.256-1.8-7.74-5.175
	c-0.945-2.25-1.575-6.48-1.575-10.396c0-4.23,0.315-7.29,1.396-10.17c1.034-3.15,4.094-5.49,7.604-5.49
	c4.319,0,7.604,3.195,7.83,7.65h-4.32c-0.135-2.025-1.485-3.42-3.601-3.42c-1.484,0-2.654,0.765-3.42,2.25
	c-0.81,1.485-1.35,4.86-1.35,8.46c0,2.52,0.225,5.175,0.631,7.515c0.629,2.926,2.114,4.545,4.455,4.545
	c2.204,0,3.284-1.484,3.284-4.68v-1.979h-3.42v-4.23h7.74v6.21C260.583,110.245,260.357,111.55,259.729,112.81z"/>
<path fill="#BF2F37" d="M119.637,160.5c0.09-3.51,0.854-6.344,2.52-9.225c1.26-2.295,3.195-4.23,5.311-5.805
	c0.54-0.314,0.944-0.63,1.35-0.945l1.62-0.855l1.485-0.854l1.439-0.811c1.17-0.765,2.025-2.025,2.025-3.285
	c0-2.25-2.521-4.05-5.49-4.05c-3.06,0-4.995,1.485-5.49,4.23l-4.77-1.035c1.035-4.995,4.95-8.056,10.26-8.056
	c5.715,0,10.26,4.051,10.26,9c0,2.341-1.08,4.681-3.06,6.436c-0.45,0.359-0.855,0.674-1.26,0.854l-1.485,0.945l-1.62,0.855
	l-1.485,0.855c-2.835,1.709-4.409,3.51-5.895,6.885h14.805v4.859H119.637z"/>
<path fill="#BF2F37" d="M222.961,152.988v7.515h-4.725v-7.515h-14.94v-2.835l14.94-19.801h4.725v18.315h2.881v4.32H222.961z
	 M218.236,137.328l-8.596,11.34h8.596V137.328z"/>
<path fill="#BF2F37" d="M155.536,154.085l-1.452-4.136h-4.598l-1.452,4.136h-2.486l5.082-14.74h2.31l5.082,14.74H155.536z
	 M151.818,143.438l-1.519,4.136h2.948L151.818,143.438z"/>
<path fill="#BF2F37" d="M169.396,154.085v-8.536l-3.41,8.536l-3.41-8.536v8.536h-2.332v-14.74h2.332l3.41,8.272l3.41-8.272h2.332
	v14.74H169.396z"/>
<path fill="#BF2F37" d="M238.612,147.155c-0.683,0.308-1.563,0.506-2.706,0.506h-2.729v6.424h-2.332v-14.74h5.061
	c1.188,0,1.979,0.11,2.706,0.462c1.275,0.616,2.266,2.179,2.266,3.675C240.878,145.043,239.888,146.583,238.612,147.155z
	 M237.622,141.941c-0.418-0.221-0.683-0.265-1.408-0.265h-3.036v3.608h3.036c0.726,0,0.99-0.044,1.408-0.242
	c0.506-0.264,0.88-0.946,0.88-1.562C238.502,142.865,238.128,142.249,237.622,141.941z"/>
<path fill="#BF2F37" d="M252.208,154.085v-8.536l-3.41,8.536l-3.41-8.536v8.536h-2.332v-14.74h2.332l3.41,8.272l3.41-8.272h2.332
	v14.74H252.208z"/>
<path fill="#BF2F37" d="M182.248,146.93v-4.77h10.576v4.77H182.248z"/>
<path fill="#BF2F37" d="M86.189,188.493v-8.998l-4.334,8.998l-4.29-8.998v8.998h-2.596v-14.74h2.596l4.29,8.734l4.334-8.734h2.596
	v14.74H86.189z"/>
<path fill="#BF2F37" d="M99.5,188.757c-4.334,0-6.248-3.938-6.248-7.655c0-4.708,2.376-7.612,6.248-7.612
	c3.63,0,6.115,3.058,6.115,7.546C105.615,185.655,103.239,188.757,99.5,188.757z M99.5,176.129c-2.223,0-3.564,1.87-3.564,4.973
	c0,3.146,1.342,5.016,3.564,5.016c2.794,0,3.476-2.75,3.476-5.016C102.975,177.999,101.721,176.129,99.5,176.129z"/>
<path fill="#BF2F37" d="M119.739,188.493l-7.019-10.142v10.142h-2.596v-14.74h2.596l6.754,9.725v-9.725h2.552v14.74H119.739z"/>
<path fill="#BF2F37" d="M180.652,176.392v2.991h4.6v2.685h-4.6v6.424h-2.684v-14.74h11.021v2.641H180.652z"/>
<path fill="#BF2F37" d="M201.576,188.491l-2.377-5.786h-3.938v5.786h-2.641v-14.74h6.775c1.078,0,1.762,0.154,2.531,0.616
	c1.408,0.771,2.287,2.222,2.287,3.895c0,1.649-0.879,3.102-2.396,3.916l2.705,6.313H201.576z M199.441,176.392h-4.18v3.674h4.18
	c1.299,0,2.135-0.727,2.135-1.804C201.576,177.117,200.74,176.392,199.441,176.392z"/>
<path fill="#BF2F37" d="M208.57,188.491v-14.74h2.641v14.74H208.57z"/>
<path fill="#BF2F37" d="M47.302,215.491v-14.74H58.06v2.641h-8.074v2.728h4.4v2.706h-4.4v4.026h8.338v2.64H47.302z"/>
<path fill="#BF2F37" d="M71.172,215.491l-3.322-5.214l-3.256,5.214h-3.102l4.817-7.766l-4.399-6.975h3.146l2.794,4.511l2.794-4.511
	h3.168l-4.355,6.975l4.817,7.766H71.172z"/>
<path fill="#BF2F37" d="M84.108,215.755c-3.872,0-6.248-3.058-6.248-7.655c0-4.664,2.376-7.612,6.248-7.612
	c2.376,0,4.554,1.188,5.697,3.256l-2.332,1.254c-0.418-0.616-0.615-0.836-1.033-1.1c-0.572-0.462-1.54-0.771-2.332-0.771
	c-2.685,0-3.564,2.641-3.564,4.906c0,3.212,1.342,5.082,3.564,5.082c1.342,0,2.067-0.462,3.365-1.87l2.332,1.254
	C88.728,214.567,86.484,215.755,84.108,215.755z"/>
<path fill="#BF2F37" d="M94.272,215.491v-14.74h10.758v2.641h-8.074v2.728h4.4v2.706h-4.4v4.026h8.338v2.64H94.272z"/>
<path fill="#BF2F37" d="M118.867,209.133c-0.836,0.463-1.518,0.572-2.64,0.572h-4.202v5.786h-2.684v-14.74h6.886
	c1.122,0,1.804,0.154,2.64,0.616c1.387,0.771,2.267,2.222,2.267,3.895C121.133,206.801,120.253,208.363,118.867,209.133z
	 M116.315,203.392h-4.29v3.674h4.29c1.298,0,2.178-0.727,2.178-1.804C118.493,204.117,117.613,203.392,116.315,203.392z"/>
<path fill="#BF2F37" d="M130.197,203.348v12.144h-2.573v-12.144h-4.246v-2.597h11.065v2.597H130.197z"/>
<path fill="#BF2F37" d="M155.869,203.348v12.144h-2.572v-12.144h-4.246v-2.597h11.064v2.597H155.869z"/>
<path fill="#BF2F37" d="M172.656,215.491l-2.375-5.786h-3.939v5.786h-2.639v-14.74h6.775c1.078,0,1.76,0.154,2.529,0.616
	c1.408,0.771,2.289,2.222,2.289,3.895c0,1.649-0.881,3.102-2.398,3.916l2.705,6.313H172.656z M170.523,203.392h-4.182v3.674h4.182
	c1.297,0,2.133-0.727,2.133-1.804C172.656,204.117,171.82,203.392,170.523,203.392z"/>
<path fill="#BF2F37" d="M185.592,215.755c-3.453,0-5.939-2.596-5.939-6.204v-8.8h2.639v8.8c0,0.881,0.111,1.343,0.463,1.914
	c0.572,0.969,1.65,1.606,2.838,1.606s2.287-0.638,2.859-1.606c0.352-0.571,0.463-1.1,0.463-1.914v-8.8h2.639v8.8
	C191.553,213.159,189.068,215.755,185.592,215.755z"/>
<path fill="#BF2F37" d="M202.268,215.755c-3.871,0-6.248-3.058-6.248-7.655c0-4.664,2.377-7.612,6.248-7.612
	c2.377,0,4.555,1.188,5.697,3.256l-2.332,1.254c-0.418-0.616-0.615-0.836-1.033-1.1c-0.572-0.462-1.539-0.771-2.332-0.771
	c-2.684,0-3.564,2.641-3.564,4.906c0,3.212,1.342,5.082,3.564,5.082c1.342,0,2.068-0.462,3.365-1.87l2.332,1.254
	C206.889,214.567,204.645,215.755,202.268,215.755z"/>
<path fill="#BF2F37" d="M221.629,215.491l-3.764-7.656l-2.793,3.521v4.136h-2.641v-14.74h2.641v6.424l5.213-6.424h3.41l-3.916,4.818
	l4.863,9.922H221.629z"/>
<path fill="#BF2F37" d="M237.072,214.655c-1.035,0.638-2.377,0.99-3.74,0.99c-2.531,0-4.445-0.924-6.094-2.838l2.111-1.65
	c1.1,1.276,2.287,1.848,3.938,1.848c1.871,0,3.213-0.813,3.213-1.914c0-0.571-0.309-1.033-0.924-1.342
	c-0.529-0.198-1.102-0.418-1.76-0.571l-0.684-0.198l-0.682-0.154l-0.703-0.22c-1.518-0.353-2.289-0.727-2.904-1.431
	c-0.615-0.682-0.924-1.562-0.924-2.485c0-2.442,2.068-4.092,5.061-4.092c2.178,0,3.98,0.726,5.477,2.266l-1.957,1.76
	c-0.924-0.968-2.135-1.452-3.52-1.452c-1.496,0-2.377,0.572-2.377,1.519c0,0.813,0.506,1.188,2.332,1.605
	c1.957,0.396,3.256,0.814,4.07,1.232c1.297,0.682,2.133,2.068,2.133,3.674C239.139,212.697,238.457,213.841,237.072,214.655z"/>
<path fill="#BF2F37" d="M138.369,178.593v6.624h-1.404v-6.624h-2.316v-1.416h6.036v1.416H138.369z"/>
<path fill="#BF2F37" d="M147.692,185.217v-3.504h-3.611v3.504h-1.44v-8.04h1.44v3.108h3.611v-3.108h1.44v8.04H147.692z"/>
<path fill="#BF2F37" d="M156.704,185.217l-1.296-3.156h-2.147v3.156h-1.44v-8.04h3.696c0.588,0,0.96,0.084,1.38,0.336
	c0.768,0.42,1.248,1.212,1.248,2.124c0,0.9-0.48,1.692-1.309,2.136l1.477,3.444H156.704z M155.54,178.617h-2.279v2.004h2.279
	c0.708,0,1.164-0.396,1.164-0.984C156.704,179.013,156.248,178.617,155.54,178.617z"/>
<path fill="#BF2F37" d="M163.761,185.36c-1.884,0-3.24-1.416-3.24-3.384v-4.8h1.44v4.8c0,0.48,0.06,0.732,0.252,1.044
	c0.312,0.528,0.899,0.876,1.548,0.876c0.647,0,1.248-0.348,1.56-0.876c0.192-0.312,0.252-0.6,0.252-1.044v-4.8h1.44v4.8
	C167.013,183.944,165.656,185.36,163.761,185.36z"/>
<path fill="#BF2F37" d="M21.552,271.91c-0.329,0.202-0.756,0.314-1.19,0.314c-0.805,0-1.414-0.294-1.939-0.903l0.672-0.524
	c0.35,0.406,0.728,0.588,1.253,0.588c0.595,0,1.022-0.259,1.022-0.609c0-0.182-0.098-0.329-0.294-0.427
	c-0.168-0.063-0.35-0.133-0.56-0.182l-0.217-0.063l-0.217-0.049l-0.224-0.07c-0.483-0.111-0.728-0.23-0.924-0.454
	c-0.196-0.218-0.294-0.497-0.294-0.791c0-0.777,0.658-1.303,1.61-1.303c0.693,0,1.267,0.231,1.743,0.722l-0.623,0.56
	c-0.294-0.308-0.679-0.462-1.12-0.462c-0.476,0-0.756,0.182-0.756,0.483c0,0.259,0.161,0.378,0.742,0.511
	c0.623,0.126,1.036,0.259,1.295,0.392c0.413,0.217,0.679,0.658,0.679,1.169C22.21,271.287,21.993,271.65,21.552,271.91z"/>
<path fill="#BF2F37" d="M26.529,270.152c-0.266,0.147-0.483,0.183-0.84,0.183h-1.337v1.841h-0.854v-4.69h2.191
	c0.357,0,0.574,0.05,0.84,0.196c0.441,0.245,0.721,0.707,0.721,1.239C27.25,269.411,26.97,269.908,26.529,270.152z M25.717,268.326
	h-1.365v1.169h1.365c0.413,0,0.693-0.231,0.693-0.574C26.41,268.557,26.13,268.326,25.717,268.326z"/>
<path fill="#BF2F37" d="M27.929,270.286v-0.841h1.645v0.841H27.929z"/>
<path fill="#BF2F37" d="M32.325,272.26c-0.574,0-1.148-0.196-1.561-0.581c-0.119-0.098-0.196-0.175-0.364-0.378l0.672-0.504
	c0.329,0.427,0.763,0.609,1.302,0.609c0.574,0,0.973-0.267,0.973-0.665c0-0.225-0.147-0.49-0.364-0.609
	c-0.133-0.063-0.28-0.098-0.462-0.098H32.29v-0.841h0.203c0.357,0,0.623-0.195,0.623-0.454c0-0.28-0.329-0.497-0.826-0.497
	c-0.392,0-0.756,0.168-1.036,0.462l-0.623-0.574c0.462-0.477,1.036-0.729,1.708-0.729c0.938,0,1.631,0.561,1.631,1.316
	c0,0.315-0.098,0.532-0.378,0.889c0.462,0.413,0.595,0.658,0.595,1.106C34.187,271.581,33.382,272.26,32.325,272.26z"/>
<path fill="#BF2F37" d="M38.765,271.224v0.952h-0.819v-0.952h-2.898v-0.756l2.898-2.982h0.819v2.982h0.693v0.756H38.765z
	 M37.946,268.592l-1.827,1.876h1.827V268.592z"/>
<path fill="#BF2F37" d="M42.867,272.26c-0.553,0-1.05-0.182-1.428-0.511s-0.56-0.791-0.56-1.436c0-0.986,0.441-1.841,1.232-2.387
	c0.546-0.378,1.085-0.525,1.897-0.525v0.841h-0.084c-0.497,0-0.84,0.084-1.169,0.279c-0.427,0.245-0.672,0.525-0.903,1.022
	c0.406-0.119,0.672-0.147,1.05-0.147c1.022,0,1.764,0.588,1.764,1.414C44.666,271.65,43.923,272.26,42.867,272.26z M42.838,270.236
	c-0.581,0-0.973,0.231-0.973,0.574c0,0.364,0.392,0.596,0.973,0.596c0.588,0,0.987-0.231,0.987-0.581
	C43.826,270.468,43.427,270.236,42.838,270.236z"/>
<path fill="#BF2F37" d="M48.075,272.26c-1.232,0-1.988-0.973-1.988-2.436c0-1.484,0.756-2.423,1.988-2.423
	c0.756,0,1.449,0.379,1.813,1.036l-0.742,0.399c-0.133-0.196-0.196-0.267-0.329-0.351c-0.182-0.146-0.49-0.244-0.742-0.244
	c-0.854,0-1.134,0.84-1.134,1.561c0,1.022,0.427,1.617,1.134,1.617c0.427,0,0.658-0.147,1.071-0.595l0.742,0.398
	C49.544,271.882,48.831,272.26,48.075,272.26z"/>
<path fill="#BF2F37" d="M79.11,272.301h-1.47v-3.35h1.47c0.93,0,1.68,0.75,1.68,1.67C80.79,271.551,80.04,272.301,79.11,272.301z
	 M79.11,269.586h-0.835v2.08h0.835c0.575,0,1.035-0.471,1.035-1.045C80.146,270.056,79.686,269.586,79.11,269.586z"/>
<path fill="#BF2F37" d="M84.341,272.301v-3.35h2.67v0.635h-2.035v0.609h1.175v0.646h-1.175v0.825h2.08v0.635H84.341z"/>
<path fill="#BF2F37" d="M92.71,271.041h-1.47v1.26h-0.635v-3.35h2.104c0.575,0,1.045,0.47,1.045,1.045
	C93.755,270.57,93.285,271.041,92.71,271.041z M92.71,269.586h-1.47v0.825h1.47c0.225,0,0.4-0.19,0.4-0.415
	C93.11,269.775,92.935,269.586,92.71,269.586z"/>
<path fill="#BF2F37" d="M98.75,269.586v2.715h-0.635v-2.715h-1.15v-0.635h2.88v0.635H98.75z"/>
<path fill="#BF2F37" d="M108.76,272.36c-0.95,0-1.75-0.79-1.75-1.739c0-0.976,0.766-1.73,1.75-1.73c0.93,0,1.75,0.79,1.75,1.715
	C110.51,271.57,109.715,272.36,108.76,272.36z M109.875,270.621c0-0.601-0.505-1.08-1.115-1.08c-0.609,0-1.115,0.47-1.115,1.064
	c0,0.615,0.506,1.105,1.115,1.105c0.61,0,1.115-0.49,1.115-1.105V270.621z"/>
<path fill="#BF2F37" d="M114.695,269.586v0.609h1.245v0.646h-1.245v1.46h-0.635v-3.35h2.715v0.635H114.695z"/>
<path fill="#BF2F37" d="M125.725,269.586v2.715h-0.635v-2.715h-1.15v-0.635h2.88v0.635H125.725z"/>
<path fill="#BF2F37" d="M132.58,272.301l-0.74-1.26h-1.035v1.26h-0.635v-3.35h2.045c0.59,0,1.061,0.47,1.061,1.045
	c0,0.449-0.285,0.835-0.721,0.989l0.766,1.315H132.58z M132.215,269.586h-1.41v0.825h1.41c0.235,0,0.425-0.19,0.425-0.415
	C132.64,269.775,132.45,269.586,132.215,269.586z"/>
<path fill="#BF2F37" d="M139.63,272.301l-0.34-0.73h-1.705l-0.351,0.73h-0.705l1.585-3.35h0.636l1.59,3.35H139.63z M138.435,269.761
	l-0.555,1.165h1.104L138.435,269.761z"/>
<path fill="#BF2F37" d="M146.199,272.301l-1.88-2.315v2.315h-0.635v-3.35h0.625l1.88,2.34v-2.34h0.646v3.35H146.199z"/>
<path fill="#BF2F37" d="M152.055,272.36c-0.686,0-1.166-0.14-1.67-0.505l0.364-0.52c0.4,0.27,0.75,0.375,1.28,0.375
	c0.564,0,0.87-0.125,0.87-0.385c0-0.141-0.13-0.285-0.32-0.355c-0.16-0.055-0.36-0.104-0.795-0.185
	c-0.51-0.105-0.755-0.2-0.931-0.375c-0.174-0.181-0.26-0.365-0.26-0.591c0-0.354,0.19-0.609,0.565-0.765
	c0.235-0.104,0.53-0.165,0.81-0.165c0.471,0,0.896,0.13,1.34,0.4l-0.34,0.529c-0.34-0.21-0.635-0.279-1.045-0.279
	c-0.47,0-0.695,0.08-0.695,0.27c0,0.29,0.611,0.34,0.826,0.375c0.385,0.07,0.76,0.186,0.975,0.295
	c0.305,0.165,0.495,0.505,0.495,0.87C153.524,271.985,152.979,272.36,152.055,272.36z"/>
<path fill="#BF2F37" d="M159.174,271.041h-1.47v1.26h-0.635v-3.35h2.104c0.575,0,1.045,0.47,1.045,1.045
	C160.219,270.57,159.749,271.041,159.174,271.041z M159.174,269.586h-1.47v0.825h1.47c0.225,0,0.4-0.19,0.4-0.415
	C159.574,269.775,159.398,269.586,159.174,269.586z"/>
<path fill="#BF2F37" d="M165.379,272.36c-0.949,0-1.75-0.79-1.75-1.739c0-0.976,0.766-1.73,1.75-1.73c0.93,0,1.75,0.79,1.75,1.715
	C167.129,271.57,166.334,272.36,165.379,272.36z M166.494,270.621c0-0.601-0.505-1.08-1.115-1.08c-0.609,0-1.115,0.47-1.115,1.064
	c0,0.615,0.506,1.105,1.115,1.105c0.61,0,1.115-0.49,1.115-1.105V270.621z"/>
<path fill="#BF2F37" d="M173.09,272.301l-0.74-1.26h-1.035v1.26h-0.635v-3.35h2.045c0.59,0,1.06,0.47,1.06,1.045
	c0,0.449-0.285,0.835-0.72,0.989l0.765,1.315H173.09z M172.725,269.586h-1.41v0.825h1.41c0.234,0,0.425-0.19,0.425-0.415
	C173.149,269.775,172.959,269.586,172.725,269.586z"/>
<path fill="#BF2F37" d="M178.824,269.586v2.715h-0.635v-2.715h-1.15v-0.635h2.88v0.635H178.824z"/>
<path fill="#BF2F37" d="M186.029,272.301l-0.341-0.73h-1.705l-0.35,0.73h-0.705l1.585-3.35h0.635l1.591,3.35H186.029z
	 M184.834,269.761l-0.555,1.165h1.104L184.834,269.761z"/>
<path fill="#BF2F37" d="M191.529,269.586v2.715h-0.635v-2.715h-1.15v-0.635h2.88v0.635H191.529z"/>
<path fill="#BF2F37" d="M195.974,272.301v-3.35h0.636c0,0,0.01,3.35,0,3.35C196.619,272.301,195.974,272.301,195.974,272.301z"/>
<path fill="#BF2F37" d="M201.909,272.36c-0.95,0-1.75-0.79-1.75-1.739c0-0.976,0.765-1.73,1.75-1.73c0.93,0,1.75,0.79,1.75,1.715
	C203.659,271.57,202.864,272.36,201.909,272.36z M203.024,270.621c0-0.601-0.505-1.08-1.115-1.08s-1.115,0.47-1.115,1.064
	c0,0.615,0.505,1.105,1.115,1.105s1.115-0.49,1.115-1.105V270.621z"/>
<path fill="#BF2F37" d="M209.725,272.301l-1.88-2.315v2.315h-0.636v-3.35h0.625l1.88,2.34v-2.34h0.646v3.35H209.725z"/>
<path fill="#BF2F37" d="M34.837,49.917c-0.858,1.914-2.64,3.103-4.884,3.103c-2.64,0-4.587-1.32-5.676-3.796
	c-0.693-1.649-1.155-4.752-1.155-7.623c0-3.102,0.231-5.346,1.023-7.458c0.759-2.31,3.003-4.026,5.577-4.026
	c3.168,0,5.577,2.343,5.742,5.609h-3.168c-0.099-1.484-1.089-2.507-2.64-2.507c-1.089,0-1.947,0.561-2.508,1.65
	c-0.594,1.089-0.99,3.563-0.99,6.204c0,1.848,0.165,3.795,0.462,5.511c0.462,2.146,1.551,3.333,3.267,3.333
	c1.617,0,2.409-1.089,2.409-3.432v-1.452h-2.508v-3.103h5.676v4.555C35.464,48.037,35.299,48.994,34.837,49.917z"/>
<path fill="#BF2F37" d="M48.3,52.624l-1.551-6.039h-4.752l-1.452,6.039h-3.201l5.511-22.11h3.102l5.511,22.11H48.3z M44.34,37.114
	l-1.551,6.369h3.168L44.34,37.114z"/>
<path fill="#BF2F37" d="M63.678,52.624l-6.831-14.817v14.817h-3.168v-22.11h3.168l6.072,13.266V30.514h3.168v22.11H63.678z"/>
<path fill="#BF2F37" d="M75.194,53.02c-3.894,0-6.204-3.268-6.204-6.897h3.102c0,1.848,0.924,3.795,3.102,3.795
	c1.716,0,3.102-1.551,3.102-3.333c0-1.254-0.462-2.178-1.782-3.201c-0.462-0.462,0.792,0.396-3.729-2.64
	c-1.782-1.221-2.706-2.938-2.706-4.884c0-3.168,2.475-5.742,5.643-5.742c3.135,0,5.511,2.409,5.61,5.742h-3.036
	c-0.066-1.551-1.155-2.542-2.574-2.542c-1.452,0-2.607,1.089-2.607,2.542c0,1.089,0.462,1.716,2.079,2.64
	c4.257,2.475,6.138,4.884,6.138,8.085C81.333,50.149,78.593,53.02,75.194,53.02z"/>
<path fill="#BF2F37" d="M84.237,52.624v-22.11h10.395v3.102h-7.227v5.577h4.587v3.036h-4.587v7.293h8.085v3.102H84.237z"/>
<path fill="#BF2F37" d="M104.664,52.624h-2.409l-5.577-22.11h3.201l3.63,14.355l3.663-14.355h3.168L104.664,52.624z"/>
<path fill="#BF2F37" d="M123.935,49.224c-1.089,2.607-2.706,3.796-5.181,3.796c-2.64,0-4.191-1.188-5.28-3.796
	c-0.924-2.178-1.254-4.29-1.254-7.688c0-3.333,0.33-5.577,1.254-7.689c1.155-2.64,2.706-3.729,5.28-3.729
	c2.541,0,4.092,1.089,5.181,3.795c0.924,2.178,1.254,4.29,1.254,7.623C125.189,44.934,124.859,47.113,123.935,49.224z
	 M121.46,36.025c-0.561-1.947-1.386-2.805-2.706-2.805c-1.419,0-2.277,0.858-2.805,2.739c-0.528,1.683-0.693,3.168-0.693,5.643
	c0,2.409,0.231,3.796,0.693,5.577c0.528,1.881,1.386,2.739,2.805,2.739c1.32,0,2.145-0.858,2.706-2.739
	c0.528-1.781,0.693-3.102,0.693-5.643C122.153,39.06,121.922,37.641,121.46,36.025z"/>
<path fill="#BF2F37" d="M140.105,49.224c-1.089,2.607-2.706,3.796-5.181,3.796c-2.64,0-4.191-1.188-5.28-3.796
	c-0.924-2.178-1.254-4.29-1.254-7.688c0-3.333,0.33-5.577,1.254-7.689c1.155-2.64,2.706-3.729,5.28-3.729
	c2.541,0,4.092,1.089,5.181,3.795c0.924,2.178,1.254,4.29,1.254,7.623C141.359,44.934,141.029,47.113,140.105,49.224z
	 M137.63,36.025c-0.561-1.947-1.386-2.805-2.706-2.805c-1.419,0-2.277,0.858-2.805,2.739c-0.528,1.683-0.693,3.168-0.693,5.643
	c0,2.409,0.231,3.796,0.693,5.577c0.528,1.881,1.386,2.739,2.805,2.739c1.32,0,2.145-0.858,2.706-2.739
	c0.528-1.781,0.693-3.102,0.693-5.643C138.323,39.06,138.092,37.641,137.63,36.025z"/>
<path fill="#BF2F37" d="M154.097,52.624l-2.938-10.395h-3.035v10.395h-3.168v-22.11h6.6c3.465,0,5.809,2.343,5.809,5.907
	c0,2.64-1.09,4.554-3.168,5.346l3.168,10.857H154.097z M151.392,33.616h-3.268v5.577h3.268c1.848,0,2.87-0.99,2.87-2.772
	C154.262,34.705,153.106,33.616,151.392,33.616z"/>
<path fill="#BF2F37" d="M165.778,33.451v19.173h-3.201V33.451h-4.025v-2.937h11.253v2.937H165.778z"/>
<path fill="#BF2F37" d="M188.747,52.624V40.215l-4.092,12.408l-4.125-12.408v12.408h-3.168v-22.11h3.168l4.125,12.408l4.092-12.408
	h3.201v22.11H188.747z"/>
<path fill="#BF2F37" d="M205.181,52.624l-1.551-6.039h-4.752l-1.452,6.039h-3.201l5.511-22.11h3.103l5.511,22.11H205.181z
	 M201.221,37.114l-1.551,6.369h3.168L201.221,37.114z"/>
<path fill="#BF2F37" d="M219.7,52.624l-2.938-10.395h-3.035v10.395h-3.168v-22.11h6.6c3.465,0,5.809,2.343,5.809,5.907
	c0,2.64-1.09,4.554-3.168,5.346l3.168,10.857H219.7z M216.995,33.616h-3.268v5.577h3.268c1.848,0,2.87-0.99,2.87-2.772
	C219.865,34.705,218.71,33.616,216.995,33.616z"/>
<path fill="#BF2F37" d="M234.946,52.624l-3.895-10.791l-2.012,3.729v7.063h-3.168v-22.11h3.168v8.844l5.049-8.844h3.662
	l-4.586,7.754l5.115,14.355H234.946z"/>
<path fill="#BF2F37" d="M241.183,52.624v-22.11h10.395v3.102h-7.227v5.577h4.588v3.036h-4.588v7.293h8.086v3.102H241.183z"/>
<path fill="#BF2F37" d="M260.851,33.451v19.173h-3.201V33.451h-4.025v-2.937h11.254v2.937H260.851z"/>
<path fill-rule="evenodd" clip-rule="evenodd" fill="#BF2F37" d="M182.944,258.652c-0.242,0.16-0.604,0.226-0.893,0.226
	c-0.779,0-1.449-0.19-1.895-0.857c-0.229-0.351-0.289-0.727-0.303-1.136c-0.004-0.065-0.023-0.093-0.027-0.158
	c-0.014-0.093,0.014-0.19,0.027-0.288l2.217-7.518h-76.143l1.988,7.518c0.047,0.049,0.098,0.081,0.112,0.142
	c0.049,0.098,0.081,0.195,0.111,0.305c-0.046,0.43-0.144,0.824-0.413,1.18c-0.475,0.655-1.129,0.846-1.91,0.813
	c-0.256-0.019-0.561-0.084-0.764-0.226L82.269,242.95l22.785-15.487c0.318-0.226,0.541-0.335,0.938-0.409
	c0.672-0.148,1.401,0.377,1.787,0.916c0.219,0.315,0.332,0.655,0.362,1.048c-0.03,0.127-0.03,0.276-0.093,0.401
	c-0.033,0.098-0.084,0.177-0.131,0.251l-1.988,7.313h76.143l-2.217-7.313c-0.014-0.093-0.027-0.207-0.027-0.297
	c0-0.126,0.023-0.242,0.027-0.355c0.01-0.36,0.084-0.677,0.27-0.999c0.354-0.6,1.213-1.155,1.947-0.955
	c0.316,0.086,0.604,0.223,0.873,0.399l22.787,15.487L182.944,258.652"/>
</svg>
