<?xml version="1.0" encoding="utf-8"?>
<!-- Generator: Adobe Illustrator 12.0.1, SVG Export Plug-In  -->
<!DOCTYPE svg PUBLIC "-//W3C//DTD SVG 1.1//EN" "http://www.w3.org/Graphics/SVG/1.1/DTD/svg11.dtd" [
	<!ENTITY ns_flows "http://ns.adobe.com/Flows/1.0/">
	<!ENTITY ns_svg "http://www.w3.org/2000/svg">
	<!ENTITY ns_xlink "http://www.w3.org/1999/xlink">
]>
<svg  version="1.1" xmlns="&ns_svg;" xmlns:xlink="&ns_xlink;" xmlns:a="http://ns.adobe.com/AdobeSVGViewerExtensions/3.0/"
	 width="194" height="288" viewBox="-0.764 0 194 288" enable-background="new -0.764 0 194 288" xml:space="preserve">
<defs>
</defs>
<path fill="#FFFFFF" d="M0.697,24.589c0-6.286,2.469-12.494,6.946-16.955C12.1,3.162,18.31,0.697,24.599,0.697h143.252
	c6.329,0,12.393,2.465,16.867,6.937c4.456,4.461,7.053,10.637,7.053,16.955v238.843c0,6.256-2.644,12.42-7.053,16.846
	c-4.442,4.442-10.576,7.023-16.867,7.023H24.599c-6.324,0-12.485-2.532-16.955-7.023c-4.46-4.456-6.946-10.555-6.946-16.846V24.589z
	"/>
<path fill="#FFFFFF" d="M167.851,286.602H24.599c-6.147,0-12.144-2.484-16.462-6.816c-4.284-4.277-6.739-10.238-6.739-16.354V24.589
	c0-6.193,2.455-12.192,6.739-16.457C12.402,3.848,18.4,1.396,24.599,1.396h143.252c6.217,0,12.03,2.391,16.37,6.735
	c4.354,4.354,6.854,10.352,6.854,16.457v238.843c0,6.023-2.5,11.98-6.854,16.354C179.89,284.117,173.929,286.602,167.851,286.602z"
	/>
<path d="M185.21,280.772c4.614-4.633,7.263-10.952,7.263-17.341V24.589c0-6.47-2.648-12.833-7.268-17.447
	C180.605,2.537,174.444,0,167.851,0H24.599C18.033,0,11.672,2.602,7.151,7.142C2.607,11.67,0,18.028,0,24.589v238.843
	c0,6.482,2.607,12.803,7.146,17.341C11.723,285.363,18.084,288,24.599,288h143.252C174.291,288,180.614,285.363,185.21,280.772z
	 M191.074,263.432c0,6.023-2.5,11.98-6.854,16.354c-4.331,4.332-10.292,6.816-16.37,6.816H24.599
	c-6.147,0-12.144-2.484-16.462-6.816c-4.284-4.277-6.739-10.238-6.739-16.354V24.589c0-6.193,2.455-12.192,6.739-16.457
	C12.402,3.848,18.4,1.396,24.599,1.396h143.252c6.217,0,12.03,2.391,16.37,6.735c4.354,4.354,6.854,10.352,6.854,16.457V263.432z"/>
<path fill-rule="evenodd" clip-rule="evenodd" fill="#BF2F37" d="M6.649,24.589v238.843c0,4.695,1.938,9.254,5.283,12.548
	c3.375,3.346,7.917,5.128,12.657,5.128H167.86c4.697,0,9.251-1.801,12.578-5.128c3.345-3.325,5.147-7.866,5.147-12.548V24.589
	c0-4.721-1.784-9.325-5.147-12.685c-3.295-3.322-7.895-5.253-12.578-5.253H24.589c-5.924,0-11.593,3.041-14.887,7.962
	C7.553,17.811,6.886,20.852,6.649,24.589"/>
<path fill-rule="evenodd" clip-rule="evenodd" fill="#FFFFFF" d="M12.648,229.023V24.589c0-3.196,1.162-6.217,3.443-8.498
	c2.277-2.279,5.297-3.438,8.499-3.438H167.86c3.127,0,6.082,1.146,8.313,3.311c2.327,2.261,3.647,5.397,3.647,8.626v204.435H12.648"
	/>
<path fill="#FFFFFF" d="M25.213,239.617v29.149h-4.25v-29.149h-4.101v-4.351h12.7v4.351H25.213z"/>
<path fill="#FFFFFF" d="M51.313,253.967c0,5.949-0.4,15.4-7.75,15.4c-7.3,0-7.75-9.101-7.75-15.051c0-0.85,0-1.65,0-2.35
	c0-0.551,0-1.2,0-1.85c0-6.051,0.35-15.301,7.75-15.301c7.35,0,7.75,9.15,7.75,15.15c0,0.699,0,1.4,0,2
	S51.313,253.217,51.313,253.967z M43.563,239.166c-3.15,0-3.4,6.851-3.4,10.701c0,0.899,0,1.649,0,2.1c0,0.4,0,1.15,0,2.05
	c0,3.899,0.25,11,3.4,11c3,0,3.3-7.05,3.3-10.95c0-0.9,0-1.65,0-2.1C46.862,249.267,46.763,239.166,43.563,239.166z"/>
<path fill="#FFFFFF" d="M74.861,268.767h-3.65l-3.149-18.8l-3.051,18.8h-3.649l-3.9-33.5h4.351l1.75,15.5l2.699-15.5h3.65l2.7,15.5
	l1.8-15.5h4.35L74.861,268.767z"/>
<path fill="#FFFFFF" d="M93.011,268.767v-4.7l9.75-24.449h-8.95v-4.351h13.649v4.351l-9.75,24.449h9.75v4.7H93.011z"/>
<path fill="#FFFFFF" d="M129.812,253.967c0,5.949-0.4,15.4-7.75,15.4c-7.301,0-7.75-9.101-7.75-15.051c0-0.85,0-1.65,0-2.35
	c0-0.551,0-1.2,0-1.85c0-6.051,0.35-15.301,7.75-15.301c7.35,0,7.75,9.15,7.75,15.15c0,0.699,0,1.4,0,2
	S129.812,253.217,129.812,253.967z M122.062,239.166c-3.15,0-3.4,6.851-3.4,10.701c0,0.899,0,1.649,0,2.1c0,0.4,0,1.15,0,2.05
	c0,3.899,0.25,11,3.4,11c3,0,3.299-7.05,3.299-10.95c0-0.9,0-1.65,0-2.1C125.36,249.267,125.261,239.166,122.062,239.166z"/>
<path fill="#FFFFFF" d="M149.36,268.767l-6.551-19.851v19.851h-4.25v-33.5h4.25l5.949,16.7v-16.7h4.25v33.5H149.36z"/>
<path fill="#FFFFFF" d="M162.81,268.767v-33.5h12.35v4.351h-8.1v8.6h5.4v4.449h-5.4v11.75h8.551v4.351H162.81z"/>
<path fill="#221E1F" d="M111.587,67.234H84.101v21.79h27.486c7.373,0,12.066-4.358,12.066-11.063
	C123.653,71.927,118.626,67.234,111.587,67.234 M127.673,104.109c-5.697,3.016-9.717,4.019-18.434,4.019H84.101V144H65.327V48.125
	h44.916c8.049,0,12.072,1.006,17.43,4.024c9.051,5.359,14.746,15.085,14.746,25.812C142.419,89.024,136.724,99.079,127.673,104.109z
	"/>
<path fill-rule="evenodd" clip-rule="evenodd" fill="#BF2F37" d="M96.239,17.963c42.951,0,77.996,35.039,77.996,77.999
	c0,42.963-35.045,78-77.996,78c-42.961,0-78.002-35.036-78.002-78C18.237,53.002,53.278,17.963,96.239,17.963 M145.458,132.205
	c18.584-23.915,16.348-58.377-5.604-80.327c-21.947-21.949-56.135-23.915-80.046-5.343L145.458,132.205z M132.601,144.798
	c-23.914,18.585-58.025,16.271-79.979-5.683c-21.954-21.955-24.267-56.067-5.687-79.984L132.601,144.798z"/>
<path fill-rule="evenodd" clip-rule="evenodd" fill="#BF2F37" d="M34.539,206.671v-12.342h98.946l-2.286-7.551
	c-0.017-0.099-0.029-0.213-0.029-0.311c0-0.132,0.013-0.246,0.029-0.36c0-0.382,0.085-0.704,0.278-1.037
	c0.365-0.61,1.25-1.189,1.991-0.987c0.333,0.099,0.645,0.229,0.923,0.409l23.542,16.008l-23.542,16.227
	c-0.246,0.163-0.625,0.229-0.923,0.229c-0.807,0-1.494-0.196-1.956-0.884c-0.229-0.365-0.313-0.742-0.313-1.173
	c-0.017-0.065-0.017-0.099-0.029-0.164c0-0.098,0.013-0.196,0.029-0.294l2.286-7.77H34.539"/>
<path fill="#FFFFFF" d="M80.883,275.387c-0.061-0.396-0.216-0.582-0.48-0.582c-0.468,0-0.636,0.366-0.636,1.41
	c0,1.158,0.198,1.626,0.69,1.626c0.336,0,0.426-0.282,0.426-0.582h0.576c-0.013,0.666-0.438,1.146-1.002,1.146
	c-0.858,0-1.242-0.689-1.242-2.172c0-1.301,0.408-1.991,1.2-1.991c0.323,0,0.605,0.144,0.792,0.407
	c0.149,0.199,0.21,0.373,0.252,0.738H80.883z"/>
<path fill="#FFFFFF" d="M82.112,278.333v-4.021h0.564v4.021H82.112z"/>
<path fill="#FFFFFF" d="M84.417,274.848v3.485h-0.582v-3.485h-0.732v-0.535h2.046v0.535H84.417z"/>
<path fill="#FFFFFF" d="M86.805,276.516v1.817h-0.576v-1.817l-0.99-2.203h0.606l0.678,1.453l0.666-1.453h0.618L86.805,276.516z"/>
<path fill="#FFFFFF" d="M91.238,277.715c-0.198,0.475-0.492,0.689-0.942,0.689c-0.479,0-0.762-0.215-0.96-0.689
	c-0.168-0.396-0.228-0.779-0.228-1.398c0-0.605,0.06-1.014,0.228-1.397c0.21-0.479,0.492-0.678,0.96-0.678
	c0.462,0,0.744,0.198,0.942,0.69c0.168,0.396,0.228,0.779,0.228,1.385C91.466,276.936,91.406,277.331,91.238,277.715z
	 M90.788,275.314c-0.102-0.354-0.252-0.51-0.492-0.51c-0.258,0-0.414,0.156-0.51,0.498c-0.096,0.307-0.126,0.576-0.126,1.026
	c0,0.438,0.042,0.69,0.126,1.014c0.096,0.343,0.252,0.498,0.51,0.498c0.24,0,0.391-0.155,0.492-0.498
	c0.096-0.323,0.126-0.563,0.126-1.026C90.914,275.867,90.872,275.609,90.788,275.314z"/>
<path fill="#FFFFFF" d="M92.696,274.877v1.014h0.805v0.553h-0.805v1.89H92.12v-4.021h2.047v0.564H92.696z"/>
<path fill="#FFFFFF" d="M97.148,275.387c-0.061-0.396-0.216-0.582-0.48-0.582c-0.468,0-0.636,0.366-0.636,1.41
	c0,1.158,0.198,1.626,0.69,1.626c0.336,0,0.426-0.282,0.426-0.582h0.576c-0.013,0.666-0.438,1.146-1.002,1.146
	c-0.858,0-1.242-0.689-1.242-2.172c0-1.301,0.408-1.991,1.2-1.991c0.323,0,0.605,0.144,0.792,0.407
	c0.149,0.199,0.21,0.373,0.252,0.738H97.148z"/>
<path fill="#FFFFFF" d="M100.059,278.333v-1.817h-1.104v1.817h-0.576v-4.021h0.576v1.639h1.104v-1.639h0.576v4.021H100.059z"/>
<path fill="#FFFFFF" d="M101.36,278.333v-4.021h0.563v4.021H101.36z"/>
<path fill="#FFFFFF" d="M104.258,275.387c-0.061-0.396-0.216-0.582-0.48-0.582c-0.468,0-0.636,0.366-0.636,1.41
	c0,1.158,0.198,1.626,0.69,1.626c0.336,0,0.426-0.282,0.426-0.582h0.576c-0.013,0.666-0.438,1.146-1.002,1.146
	c-0.858,0-1.242-0.689-1.242-2.172c0-1.301,0.408-1.991,1.2-1.991c0.323,0,0.605,0.144,0.792,0.407
	c0.149,0.199,0.21,0.373,0.252,0.738H104.258z"/>
<path fill="#FFFFFF" d="M107.168,278.333l-0.282-1.099h-0.864l-0.264,1.099h-0.582l1.002-4.021h0.564l1.002,4.021H107.168z
	 M106.448,275.514l-0.282,1.157h0.576L106.448,275.514z"/>
<path fill="#FFFFFF" d="M110.204,277.841c-0.156,0.349-0.48,0.563-0.888,0.563c-0.48,0-0.834-0.239-1.032-0.689
	c-0.126-0.3-0.21-0.863-0.21-1.386c0-0.563,0.042-0.972,0.186-1.356c0.139-0.42,0.546-0.731,1.015-0.731
	c0.575,0,1.014,0.426,1.044,1.02h-0.576c-0.019-0.27-0.198-0.456-0.48-0.456c-0.197,0-0.354,0.103-0.456,0.301
	c-0.107,0.197-0.18,0.647-0.18,1.127c0,0.336,0.03,0.69,0.084,1.002c0.084,0.391,0.282,0.606,0.594,0.606
	c0.294,0,0.438-0.198,0.438-0.624v-0.264h-0.456v-0.564h1.032v0.828C110.318,277.499,110.288,277.673,110.204,277.841z"/>
<path fill="#FFFFFF" d="M113.03,277.715c-0.198,0.475-0.492,0.689-0.942,0.689c-0.479,0-0.762-0.215-0.96-0.689
	c-0.168-0.396-0.228-0.779-0.228-1.398c0-0.605,0.06-1.014,0.228-1.397c0.21-0.479,0.492-0.678,0.96-0.678
	c0.462,0,0.744,0.198,0.942,0.69c0.168,0.396,0.228,0.779,0.228,1.385C113.258,276.936,113.198,277.331,113.03,277.715z
	 M112.58,275.314c-0.102-0.354-0.252-0.51-0.492-0.51c-0.258,0-0.414,0.156-0.51,0.498c-0.096,0.307-0.126,0.576-0.126,1.026
	c0,0.438,0.042,0.69,0.126,1.014c0.096,0.343,0.252,0.498,0.51,0.498c0.24,0,0.391-0.155,0.492-0.498
	c0.096-0.323,0.126-0.563,0.126-1.026C112.706,275.867,112.664,275.609,112.58,275.314z"/>
</svg>
