<?xml version="1.0" encoding="UTF-8" standalone="no"?>
<!-- Generator: Adobe Illustrator 12.0.1, SVG Export Plug-In  -->

<svg
   xmlns:dc="http://purl.org/dc/elements/1.1/"
   xmlns:cc="http://creativecommons.org/ns#"
   xmlns:rdf="http://www.w3.org/1999/02/22-rdf-syntax-ns#"
   xmlns:svg="http://www.w3.org/2000/svg"
   xmlns="http://www.w3.org/2000/svg"
   xmlns:sodipodi="http://sodipodi.sourceforge.net/DTD/sodipodi-0.dtd"
   xmlns:inkscape="http://www.inkscape.org/namespaces/inkscape"
   version="1.1"
   width="282.59375"
   height="282.59375"
   viewBox="-1 0 282.59375 282.59374"
   enable-background="new -1 0 289 288"
   xml:space="preserve"
   id="svg2"
   inkscape:version="0.48.2 r9819"
   sodipodi:docname="AJAX1.svg"><metadata
   id="metadata22"><rdf:RDF><cc:Work
       rdf:about=""><dc:format>image/svg+xml</dc:format><dc:type
         rdf:resource="http://purl.org/dc/dcmitype/StillImage" /><dc:title /></cc:Work></rdf:RDF></metadata><sodipodi:namedview
   pagecolor="#ffffff"
   bordercolor="#666666"
   borderopacity="1"
   objecttolerance="10"
   gridtolerance="10"
   guidetolerance="10"
   inkscape:pageopacity="0"
   inkscape:pageshadow="2"
   inkscape:window-width="1280"
   inkscape:window-height="1004"
   id="namedview20"
   showgrid="false"
   fit-margin-top="0"
   fit-margin-left="0"
   fit-margin-right="0"
   fit-margin-bottom="0"
   inkscape:zoom="1.1588695"
   inkscape:cx="36.380079"
   inkscape:cy="82.849114"
   inkscape:window-x="-8"
   inkscape:window-y="-8"
   inkscape:window-maximized="1"
   inkscape:current-layer="svg2"
   showguides="true"
   inkscape:guide-bbox="true"><sodipodi:guide
     orientation="0,1"
     position="-34.676279,-923.94298"
     id="guide2987" /></sodipodi:namedview>
<defs
   id="defs4">
</defs>







<path
   inkscape:connector-curvature="0"
   d="m 280.84588,264.26949 c 0,9.66251 -7.90625,17.56876 -17.56876,17.56876 l -245.9625,0 c -9.6625,0 -17.568745,-7.90625 -17.568745,-17.56876 l 0,-245.96252 c 0,-9.6625 7.906245,-17.56874 17.568755,-17.56874 l 245.96249,0 c 9.66251,0 17.56876,7.90624 17.56876,17.56874 l 0,245.96252 z"
   style="fill:#ffffff;fill-opacity:1;fill-rule:nonzero;stroke:#000000;stroke-width:1.5;stroke-miterlimit:4;stroke-opacity:1;stroke-dasharray:none"
   id="path3830" /><path
   inkscape:connector-curvature="0"
   d="m 263.27714,5.13047 -245.9625,0 c -7.24625,0 -13.17625,5.93 -13.17625,13.17625 l 0,245.9625 c 0,7.2475 5.93,13.17625 13.17625,13.17625 l 245.9625,0 c 7.2475,0 13.17625,-5.92875 13.17625,-13.17625 l 0,-245.96249 c 0,-7.24626 -5.92875,-13.17626 -13.17625,-13.17626 m 5.85625,259.13875 c 0,3.22125 -2.635,5.85625 -5.85625,5.85625 l -245.9625,0 c -3.22125,0 -5.85625,-2.635 -5.85625,-5.85625 l 0,-245.96249 c 0,-3.22 2.635,-5.85625 5.85625,-5.85625 l 245.9625,0 c 3.22125,0 5.85625,2.63625 5.85625,5.85625 l 0,245.96249 z"
   style="fill:#000000;fill-opacity:1;fill-rule:nonzero;stroke:none"
   id="path3838" /><path
   inkscape:connector-curvature="0"
   d="m 172.60462,70.604595 c -0.95,-0.665 -2.1075,-1.055 -3.355,-1.055 -3.23375,0 -5.85625,2.62125 -5.85625,5.85625 0,0.60625 0.0925,1.19125 0.26375,1.74125 l 5.18875,17.29125 -75.4,0 0,122.981255 29.28125,0 0,-93.69999 46.11875,0 -5.18875,17.29124 c -0.17125,0.55 -0.26375,1.13498 -0.26375,1.74125 0,3.23374 2.6225,5.85625 5.85625,5.85625 1.2475,0 2.405,-0.39 3.355,-1.05503 l 55.535,-38.47496 -55.535,-38.473765 z"
   style="fill:#000000;fill-opacity:1;fill-rule:nonzero;stroke:none"
   id="path3842" /><path
   inkscape:connector-curvature="0"
   d="m 140.29613,18.30698 c -67.92125,0 -122.98125,55.059995 -122.98125,122.98127 0,67.92 55.06,122.98124 122.98125,122.98124 67.92125,0 122.98125,-55.06125 122.98125,-122.98124 0,-67.921275 -55.06,-122.98127 -122.98125,-122.98127 M 40.73988,141.28825 c 0,-23.27126 7.985,-44.676275 21.36375,-61.628775 L 201.92488,219.48075 c -16.95125,13.37871 -38.3575,21.36374 -61.62875,21.36374 -54.98375,0 -99.55625,-44.5725 -99.55625,-99.55624 M 218.48863,202.917 78.66738,63.095725 c 16.9525,-13.37875 38.3575,-21.36375 61.62875,-21.36375 54.98375,0 99.55625,44.5725 99.55625,99.556275 0,23.27123 -7.985,44.67623 -21.36375,61.62871"
   style="fill:#bf2033;fill-opacity:1;fill-rule:nonzero;stroke:none"
   id="path3846" /></svg>