<?xml version="1.0" encoding="utf-8"?>
<!-- Generator: Adobe Illustrator 12.0.1, SVG Export Plug-In  -->
<!DOCTYPE svg PUBLIC "-//W3C//DTD SVG 1.1//EN" "http://www.w3.org/Graphics/SVG/1.1/DTD/svg11.dtd" [
	<!ENTITY ns_flows "http://ns.adobe.com/Flows/1.0/">
	<!ENTITY ns_svg "http://www.w3.org/2000/svg">
	<!ENTITY ns_xlink "http://www.w3.org/1999/xlink">
]>
<svg  version="1.1" xmlns="&ns_svg;" xmlns:xlink="&ns_xlink;" xmlns:a="http://ns.adobe.com/AdobeSVGViewerExtensions/3.0/"
	 width="194" height="288" viewBox="-0.764 0 194 288" enable-background="new -0.764 0 194 288" xml:space="preserve">
<defs>
</defs>
<path fill="#FFFFFF" d="M0.697,263.411c0,6.286,2.469,12.494,6.946,16.955c4.456,4.472,10.666,6.937,16.955,6.937h143.252
	c6.329,0,12.393-2.465,16.867-6.937c4.456-4.461,7.053-10.637,7.053-16.955V24.568c0-6.256-2.644-12.42-7.053-16.846
	c-4.442-4.442-10.576-7.023-16.867-7.023H24.599c-6.323,0-12.485,2.532-16.955,7.023c-4.46,4.456-6.946,10.554-6.946,16.846V263.411
	z"/>
<path fill="#FFFFFF" d="M167.851,1.398H24.599c-6.147,0-12.144,2.484-16.462,6.816c-4.285,4.277-6.739,10.239-6.739,16.354v238.843
	c0,6.193,2.454,12.192,6.739,16.457c4.266,4.284,10.264,6.735,16.462,6.735h143.252c6.217,0,12.03-2.391,16.37-6.735
	c4.354-4.354,6.854-10.352,6.854-16.457V24.568c0-6.024-2.5-11.981-6.854-16.354C179.89,3.882,173.929,1.398,167.851,1.398z"/>
<path d="M167.851,0H24.599C18.084,0,11.723,2.637,7.146,7.228C2.607,11.765,0,18.086,0,24.568v238.843
	c0,6.561,2.607,12.919,7.15,17.447c4.521,4.54,10.883,7.142,17.448,7.142h143.252c6.594,0,12.755-2.537,17.354-7.142
	c4.619-4.614,7.268-10.978,7.268-17.447V24.568c0-6.389-2.648-12.708-7.263-17.341C180.614,2.637,174.291,0,167.851,0z
	 M191.074,263.411c0,6.105-2.5,12.104-6.854,16.457c-4.34,4.345-10.153,6.735-16.37,6.735H24.599
	c-6.198,0-12.196-2.451-16.462-6.735c-4.285-4.265-6.739-10.264-6.739-16.457V24.568c0-6.115,2.454-12.076,6.739-16.354
	c4.318-4.333,10.314-6.816,16.462-6.816h143.252c6.078,0,12.039,2.484,16.37,6.816c4.354,4.373,6.854,10.33,6.854,16.354V263.411z"
	/>
<path fill-rule="evenodd" clip-rule="evenodd" fill="#BF2F37" d="M6.649,263.411V24.568c0-4.695,1.938-9.253,5.283-12.548
	c3.376-3.346,7.917-5.127,12.657-5.127H167.86c4.697,0,9.251,1.8,12.578,5.127c3.345,3.325,5.147,7.867,5.147,12.548v238.843
	c0,4.721-1.784,9.325-5.147,12.685c-3.295,3.322-7.895,5.253-12.578,5.253H24.59c-5.925,0-11.594-3.041-14.888-7.962
	C7.553,270.189,6.887,267.148,6.649,263.411"/>
<path fill="#FFFFFF" d="M176.272,16.177c-2.23-2.23-5.237-3.522-8.41-3.522H87.736V92H12.65v171.411
	c0,3.196,1.161,6.217,3.442,8.498c2.276,2.279,5.298,3.438,8.499,3.438h143.271c3.127,0,6.082-1.146,8.313-3.311
	c2.327-2.261,3.647-5.397,3.647-8.626V24.568C179.822,21.416,178.502,18.405,176.272,16.177z"/>
<path fill-rule="evenodd" clip-rule="evenodd" fill="#BF2F37" d="M157.938,234.366H58.194l1.991,7.518
	c0.046,0.05,0.093,0.082,0.106,0.146c0.049,0.092,0.082,0.19,0.114,0.303c-0.046,0.425-0.145,0.826-0.412,1.176
	c-0.478,0.651-1.132,0.845-1.915,0.813c-0.253-0.017-0.554-0.079-0.761-0.224l-22.784-15.699l22.784-15.492
	c0.319-0.224,0.537-0.333,0.938-0.417c0.668-0.14,1.399,0.382,1.781,0.927c0.224,0.319,0.336,0.652,0.368,1.048
	c-0.032,0.131-0.032,0.272-0.098,0.401c-0.03,0.095-0.077,0.177-0.123,0.253l-1.991,7.312h99.744V234.366"/>
<path fill="#BF2F37" d="M37.438,198.638l-1.862-8.771h-5.39l-1.862,8.771h-4.263l6.713-32.83h4.214l6.811,32.83H37.438z
	 M32.93,176.98l-1.813,8.623h3.528L32.93,176.98z"/>
<path fill="#BF2F37" d="M56.891,198.638l-6.419-19.453v19.453h-4.165v-32.83h4.165l5.831,16.366v-16.366h4.165v32.83H56.891z"/>
<path fill="#BF2F37" d="M76.001,183.791v14.847h-4.214v-14.847l-6.713-17.983h4.508l4.361,11.515l4.263-11.515h4.508L76.001,183.791
	z"/>
<path fill="#BF2F37" d="M112.21,170.07v28.567h-4.164V170.07h-4.018v-4.263h12.445v4.263H112.21z"/>
<path fill="#BF2F37" d="M121.079,198.638v-32.83h4.164v32.83H121.079z"/>
<path fill="#BF2F37" d="M144.599,198.638v-19.453l-3.92,12.3l-4.018-12.3v19.453h-4.166v-32.83h4.166l4.018,11.613l3.92-11.613
	h4.115v32.83H144.599z"/>
<path fill="#BF2F37" d="M155.868,198.638v-32.83h12.102v4.263h-7.938v8.429h5.293v4.36h-5.293v11.516h8.379v4.263H155.868z"/>
<path fill="#FFFFFF" d="M39.15,78.004l-10.48-31.76v31.76h-6.8v-53.6h6.8l9.521,26.72v-26.72h6.8v53.6H39.15z"/>
<path fill="#FFFFFF" d="M77.95,54.324c0,9.52-0.641,24.64-12.4,24.64c-11.68,0-12.399-14.56-12.399-24.08c0-1.36,0-2.64,0-3.76
	c0-0.88,0-1.92,0-2.96c0-9.68,0.56-24.48,12.399-24.48c11.76,0,12.4,14.64,12.4,24.24c0,1.12,0,2.24,0,3.2
	S77.95,53.124,77.95,54.324z M65.549,30.644c-5.04,0-5.439,10.96-5.439,17.12c0,1.44,0,2.64,0,3.36c0,0.64,0,1.84,0,3.28
	c0,6.24,0.399,17.6,5.439,17.6c4.8,0,5.28-11.28,5.28-17.52c0-1.44,0-2.64,0-3.36C70.83,46.804,70.669,30.644,65.549,30.644z"/>
<path fill="#BF2F37" d="M32.998,146.52c-1.428,1.292-3.535,2.107-5.916,2.107c-6.393,0-9.725-4.147-10.064-12.171h5.916
	c0,1.768,0.137,2.38,0.477,3.332c0.477,1.768,1.904,2.924,3.672,2.924c2.244,0,3.672-1.768,3.672-4.624
	c0-4.012-1.428-7.412-4.963-11.56c-2.041-2.38-3.537-4.148-4.014-4.76c-2.516-3.06-3.672-6.256-3.672-9.452
	c0-6.256,3.877-10.676,9.316-10.676c5.576,0,8.637,3.468,9.248,10.676h-5.916c-0.137-3.536-1.088-4.964-3.195-4.964
	c-2.244,0-3.537,1.904-3.537,4.964c0,2.108,0.816,3.672,3.197,6.256c4.963,5.576,5.779,6.732,7.207,9.588
	c1.293,2.856,2.244,6.732,2.244,9.928S35.242,144.615,32.998,146.52z"/>
<path fill="#BF2F37" d="M48.297,108.167v39.645h-5.779v-39.645h-5.576v-5.916h17.271v5.916H48.297z"/>
<path fill="#BF2F37" d="M76.992,127.683c0,8.092-0.543,20.944-10.539,20.944c-9.928,0-10.541-12.375-10.541-20.468
	c0-1.156,0-2.244,0-3.196c0-0.748,0-1.632,0-2.516c0-8.228,0.477-20.808,10.541-20.808c9.996,0,10.539,12.444,10.539,20.604
	c0,0.952,0,1.904,0,2.72S76.992,126.663,76.992,127.683z M66.453,107.555c-4.285,0-4.625,9.316-4.625,14.552
	c0,1.224,0,2.244,0,2.856c0,0.544,0,1.564,0,2.788c0,5.304,0.34,14.96,4.625,14.96c4.08,0,4.488-9.588,4.488-14.892
	c0-1.224,0-2.244,0-2.856C70.941,121.291,70.805,107.555,66.453,107.555z"/>
<path fill="#BF2F37" d="M89.369,127.955h-3.197v19.856h-5.779v-45.561h8.977c2.516,0,4.895,0.612,6.391,1.904
	c2.518,2.108,4.285,6.392,4.285,11.356C100.045,123.059,95.76,127.955,89.369,127.955z M89.369,108.167h-3.197v13.94h3.197
	c3.467,0,4.76-1.768,4.76-6.596C94.129,110.411,92.564,108.167,89.369,108.167z"/>
<path fill="#BF2F37" d="M110.176,127.955h-3.195v19.856h-5.781v-45.561h8.977c2.516,0,4.896,0.612,6.393,1.904
	c2.516,2.108,4.283,6.392,4.283,11.356C120.852,123.059,116.568,127.955,110.176,127.955z M110.176,108.167h-3.195v13.94h3.195
	c3.469,0,4.76-1.768,4.76-6.596C114.936,110.411,113.371,108.167,110.176,108.167z"/>
<path fill="#BF2F37" d="M123.227,147.812v-45.561h5.779v45.561H123.227z"/>
<path fill="#BF2F37" d="M147.439,147.812l-8.908-26.996v26.996h-5.781v-45.561h5.781l8.092,22.712v-22.712h5.779v45.561H147.439z"/>
<path fill="#BF2F37" d="M174.773,143.323c-0.951,3.196-3.943,5.304-8.092,5.304c-4.691,0-7.412-1.768-8.84-6.12
	c-1.428-4.148-1.904-8.296-1.904-17.544c0-9.112,0.477-13.125,2.109-17.408c1.428-4.216,4.146-5.916,8.635-5.916
	c5.102,0,8.092,3.196,8.773,8.772h-5.781c-0.271-1.904-1.291-2.856-2.855-2.856c-2.107,0-3.535,1.428-4.012,4.42
	c-0.613,3.672-0.953,6.732-0.953,12.988c0,6.256,0.34,9.248,0.816,13.124c0.613,2.992,1.768,4.624,3.809,4.624
	c2.107,0,3.195-1.904,3.195-4.964v-6.052h-2.719v-5.916h8.5v11.628C175.455,139.516,175.115,141.896,174.773,143.323z"/>
</svg>
