<?xml version="1.0" encoding="utf-8"?>
<!-- Generator: Adobe Illustrator 12.0.1, SVG Export Plug-In  -->
<!DOCTYPE svg PUBLIC "-//W3C//DTD SVG 1.1//EN" "http://www.w3.org/Graphics/SVG/1.1/DTD/svg11.dtd" [
	<!ENTITY ns_flows "http://ns.adobe.com/Flows/1.0/">
	<!ENTITY ns_svg "http://www.w3.org/2000/svg">
	<!ENTITY ns_xlink "http://www.w3.org/1999/xlink">
]>
<svg  version="1.1" xmlns="&ns_svg;" xmlns:xlink="&ns_xlink;" xmlns:a="http://ns.adobe.com/AdobeSVGViewerExtensions/3.0/"
	 width="194" height="288" viewBox="-0.768 0 194 288" enable-background="new -0.768 0 194 288" xml:space="preserve">
<defs>
</defs>
<path fill="#FFFFFF" d="M24.582,0.697H167.89c13.154,0,23.878,10.731,23.878,23.885V263.42c0,13.154-10.724,23.883-23.878,23.883
	H24.582c-13.154,0-23.884-10.729-23.884-23.883V24.582C0.698,11.593,11.593,0.697,24.582,0.697"/>
<path fill="#231F20" d="M24.582,0v1.396H167.89c12.777,0,23.177,10.401,23.177,23.186V263.42c0,6.176-2.412,11.993-6.798,16.379
	c-4.387,4.387-10.204,6.808-16.379,6.808H24.582c-6.177,0-11.992-2.421-16.381-6.808c-4.386-4.386-6.804-10.203-6.804-16.379V24.582
	c0-12.566,10.618-23.186,23.185-23.186V0C11.258,0,0,11.258,0,24.582V263.42c0,6.547,2.56,12.713,7.211,17.369
	c4.651,4.65,10.821,7.211,17.371,7.211H167.89c6.547,0,12.713-2.561,17.364-7.211c4.65-4.656,7.211-10.822,7.211-17.369V24.582
	C192.465,11.028,181.443,0,167.89,0H24.582z"/>
<path fill-rule="evenodd" clip-rule="evenodd" fill="#BF2F37" d="M24.659,6.667h143.147c9.869,0.042,17.931,8.141,17.991,17.991
	v238.683c-0.061,9.859-8.122,17.939-17.991,17.99H24.659c-9.843-0.051-17.956-8.131-17.989-17.99V24.659
	C6.703,14.808,14.815,6.709,24.659,6.667"/>
<path fill-rule="evenodd" clip-rule="evenodd" fill="#FFFFFF" d="M24.747,13.644h142.971c6.147,0.035,11.067,4.956,11.109,11.103
	v238.506c-0.042,6.119-4.962,11.109-11.109,11.101H24.747c-6.145,0.009-11.068-4.981-11.105-11.101V24.747
	C13.679,18.6,18.602,13.679,24.747,13.644"/>
<path fill-rule="evenodd" clip-rule="evenodd" fill="#BF2F37" d="M114.229,31.763c-5.367,0-8.661,2.365-11.096,7.945
	c-1.929,4.512-2.724,9.381-2.724,16.685c0,7.302,0.721,11.886,2.653,16.537c2.36,5.727,5.655,8.173,11.166,8.173
	c5.375,0,8.734-2.446,11.096-8.101c1.938-4.656,2.657-9.237,2.657-16.609c0-7.304-0.72-11.815-2.657-16.471
	C122.894,34.128,119.674,31.763,114.229,31.763"/>
<polyline fill-rule="evenodd" clip-rule="evenodd" fill="#BF2F37" points="70.914,48.3 85.232,80.316 90.317,80.316 90.317,32.551 
	83.585,32.551 83.585,61.117 70.914,32.551 64.186,32.551 64.186,80.316 70.914,80.316 70.914,48.3 "/>
<path fill-rule="evenodd" clip-rule="evenodd" fill="#FFFFFF" d="M114.229,38.419c2.792,0,4.581,1.792,5.798,5.945
	c1.078,3.506,1.437,6.658,1.437,12.029c0,5.439-0.358,8.373-1.437,12.169c-1.138,4.01-3.006,5.871-5.798,5.871
	c-2.933,0-4.726-1.861-5.869-5.943c-1.078-3.724-1.431-6.802-1.431-12.027c0-5.369,0.353-8.519,1.431-12.243
	C109.503,40.21,111.366,38.419,114.229,38.419"/>
<path fill-rule="evenodd" clip-rule="evenodd" fill="#BF2F37" d="M133.901,253.365l-1.989,7.519
	c-0.051,0.051-0.093,0.083-0.111,0.144c-0.046,0.093-0.084,0.195-0.116,0.307c0.052,0.423,0.148,0.827,0.418,1.176
	c0.475,0.65,1.13,0.846,1.915,0.813c0.251-0.02,0.548-0.079,0.757-0.224l22.781-15.7l-22.781-15.491
	c-0.315-0.228-0.539-0.335-0.938-0.418c-0.669-0.14-1.403,0.381-1.779,0.925c-0.224,0.32-0.34,0.655-0.372,1.05
	c0.032,0.13,0.032,0.274,0.103,0.399c0.032,0.098,0.074,0.177,0.125,0.256l1.989,7.309c-25.291,0-50.586,0-75.872,0l1.989-7.309
	c0.042-0.079,0.095-0.158,0.121-0.256c0.067-0.125,0.067-0.27,0.103-0.399c-0.035-0.395-0.149-0.729-0.372-1.05
	c-0.381-0.544-1.111-1.064-1.785-0.925c-0.397,0.083-0.62,0.19-0.934,0.418l-22.786,15.491l22.786,15.7
	c0.207,0.145,0.511,0.204,0.762,0.224c0.781,0.032,1.434-0.163,1.91-0.813c0.27-0.349,0.367-0.753,0.418-1.176
	c-0.035-0.111-0.07-0.214-0.114-0.307c-0.014-0.061-0.067-0.093-0.109-0.144l-1.989-7.519
	C83.315,253.365,108.61,253.365,133.901,253.365"/>
<path fill="#BF2F37" d="M70.933,153.534l-2.235,9.156h4.581L70.933,153.534 M76.622,175.867l-2.232-8.707h-6.807l-2.126,8.707
	h-4.574l7.927-31.825h4.47l7.922,31.825H76.622z"/>
<polyline fill="#BF2F37" points="101.738,175.867 91.911,154.54 91.911,175.867 87.334,175.867 87.334,144.042 91.911,144.042 
	100.623,163.141 100.623,144.042 105.2,144.042 105.2,175.867 101.738,175.867 "/>
<polyline fill="#BF2F37" points="123.837,161.464 123.837,175.867 119.265,175.867 119.265,161.464 111.449,144.042 
	116.244,144.042 121.602,155.544 126.848,144.042 131.764,144.042 123.837,161.464 "/>
<polyline fill="#BF2F37" points="68.677,196.033 68.677,223.614 64.098,223.614 64.098,196.033 58.294,196.033 58.294,191.781 
	74.482,191.781 74.482,196.033 68.677,196.033 "/>
<rect x="78.836" y="191.781" fill="#BF2F37" width="4.465" height="31.828"/>
<polyline fill="#BF2F37" points="106.738,223.614 106.738,205.744 100.823,223.614 94.911,205.744 94.911,223.614 90.332,223.614 
	90.332,191.781 94.911,191.781 100.823,209.656 106.738,191.781 111.319,191.781 111.319,223.614 106.738,223.614 "/>
<polyline fill="#BF2F37" points="118.238,223.614 118.238,191.781 133.19,191.781 133.19,196.256 122.814,196.256 122.814,204.295 
	129.398,204.295 129.398,208.648 122.814,208.648 122.814,219.145 134.422,219.145 134.422,223.614 118.238,223.614 "/>
<path fill="#BF2F37" d="M27.502,128.752c-5.605,0-8.93-4.702-8.93-9.927h4.465c0,2.66,1.33,5.462,4.465,5.462
	c2.469,0,4.465-2.232,4.465-4.797c0-1.805-0.666-3.135-2.566-4.607c-0.664-0.665,1.141,0.57-5.367-3.8
	c-2.564-1.757-3.895-4.227-3.895-7.03c0-4.56,3.563-8.265,8.123-8.265c4.512,0,7.932,3.467,8.074,8.265h-4.369
	c-0.096-2.232-1.662-3.657-3.705-3.657c-2.09,0-3.752,1.567-3.752,3.657c0,1.567,0.664,2.47,2.992,3.8
	c6.127,3.563,8.834,7.03,8.834,11.638C36.336,124.62,32.395,128.752,27.502,128.752z"/>
<path fill="#BF2F37" d="M48.449,100.585v27.597H43.84v-27.597h-5.795v-4.228h16.199v4.228H48.449z"/>
<path fill="#BF2F37" d="M73.719,123.29c-1.568,3.752-3.895,5.462-7.457,5.462c-3.801,0-6.033-1.71-7.602-5.462
	c-1.33-3.135-1.805-6.175-1.805-11.067c0-4.797,0.475-8.027,1.805-11.067c1.664-3.8,3.896-5.367,7.602-5.367
	c3.656,0,5.889,1.567,7.457,5.462c1.33,3.135,1.805,6.175,1.805,10.972C75.523,117.115,75.049,120.25,73.719,123.29z M70.156,104.29
	c-0.809-2.802-1.996-4.037-3.895-4.037c-2.043,0-3.277,1.235-4.039,3.942c-0.76,2.422-0.996,4.56-0.996,8.123
	c0,3.467,0.332,5.462,0.996,8.027c0.762,2.708,1.996,3.942,4.039,3.942c1.898,0,3.086-1.235,3.895-3.942
	c0.76-2.565,0.998-4.465,0.998-8.123C71.154,108.66,70.82,106.617,70.156,104.29z"/>
<path fill="#BF2F37" d="M90.201,114.217h-4.939v13.965h-4.561V96.357h9.5c4.988,0,8.359,3.563,8.359,8.93
	C98.561,111.082,95.568,114.217,90.201,114.217z M89.963,100.822h-4.701v9.025h4.701c2.66,0,4.133-1.663,4.133-4.56
	C94.096,102.627,92.434,100.822,89.963,100.822z"/>
<path fill="#BF2F37" d="M111.242,114.217h-4.939v13.965h-4.561V96.357h9.5c4.988,0,8.359,3.563,8.359,8.93
	C119.602,111.082,116.609,114.217,111.242,114.217z M111.004,100.822h-4.701v9.025h4.701c2.66,0,4.133-1.663,4.133-4.56
	C115.137,102.627,113.475,100.822,111.004,100.822z"/>
<path fill="#BF2F37" d="M122.785,128.182V96.357h4.465v31.825H122.785z"/>
<path fill="#BF2F37" d="M147.484,128.182l-9.832-21.327v21.327h-4.561V96.357h4.561l8.74,19.095V96.357h4.559v31.825H147.484z"/>
<path fill="#BF2F37" d="M172.99,124.287c-1.234,2.755-3.799,4.465-7.029,4.465c-3.801,0-6.602-1.9-8.17-5.462
	c-0.998-2.375-1.662-6.84-1.662-10.972c0-4.465,0.332-7.695,1.473-10.735c1.092-3.325,4.322-5.795,8.027-5.795
	c4.559,0,8.027,3.372,8.264,8.075h-4.559c-0.143-2.138-1.568-3.61-3.801-3.61c-1.566,0-2.803,0.808-3.609,2.375
	c-0.855,1.567-1.426,5.13-1.426,8.93c0,2.66,0.238,5.462,0.666,7.933c0.664,3.087,2.232,4.797,4.701,4.797
	c2.328,0,3.469-1.567,3.469-4.94v-2.09h-3.611v-4.465h8.17v6.555C173.893,121.58,173.656,122.957,172.99,124.287z"/>
</svg>
