<?xml version="1.0" encoding="utf-8"?>
<!-- Generator: Adobe Illustrator 12.0.1, SVG Export Plug-In  -->
<!DOCTYPE svg PUBLIC "-//W3C//DTD SVG 1.1//EN" "http://www.w3.org/Graphics/SVG/1.1/DTD/svg11.dtd" [
	<!ENTITY ns_flows "http://ns.adobe.com/Flows/1.0/">
	<!ENTITY ns_svg "http://www.w3.org/2000/svg">
	<!ENTITY ns_xlink "http://www.w3.org/1999/xlink">
]>
<svg  version="1.1" xmlns="&ns_svg;" xmlns:xlink="&ns_xlink;" xmlns:a="http://ns.adobe.com/AdobeSVGViewerExtensions/3.0/"
	 width="194" height="288" viewBox="-0.768 0 194 288" enable-background="new -0.768 0 194 288" xml:space="preserve">
<defs>
</defs>
<path fill="#FFFFFF" d="M24.582,0.698H167.89c13.154,0,23.875,10.729,23.875,23.883v238.837c0,13.153-10.721,23.883-23.875,23.883
	H24.582c-13.154,0-23.883-10.729-23.883-23.883V24.582C0.698,11.591,11.594,0.698,24.582,0.698"/>
<path d="M24.582,0v1.396H167.89c12.777,0,23.177,10.402,23.177,23.185v238.837c0,6.176-2.412,11.994-6.798,16.381
	c-4.387,4.387-10.203,6.804-16.379,6.804H24.582c-6.176,0-11.992-2.417-16.381-6.804c-4.387-4.387-6.803-10.205-6.803-16.381V24.582
	c0-12.568,10.617-23.185,23.185-23.185V0C11.258,0,0,11.258,0,24.582v238.837c0,6.55,2.562,12.715,7.213,17.368
	C11.864,285.438,18.032,288,24.582,288H167.89c6.547,0,12.712-2.562,17.366-7.213c4.648-4.653,7.207-10.818,7.207-17.368V24.582
	C192.463,11.026,181.443,0,167.89,0H24.582z"/>
<path fill-rule="evenodd" clip-rule="evenodd" fill="#BF2F37" d="M24.658,6.667h143.15c9.87,0.041,17.928,8.14,17.988,17.991V263.34
	c-0.061,9.858-8.118,17.938-17.988,17.993H24.658c-9.842-0.055-17.955-8.135-17.988-17.993V24.658
	C6.703,14.807,14.815,6.708,24.658,6.667"/>
<polygon fill="#FFFFFF" points="13.643,37.799 13.643,257.548 24.745,257.548 167.715,257.548 178.824,257.548 178.824,37.799 "/>
<path fill="#FFFFFF" d="M33.281,17.375v13.248h-2.809V17.375H25.84v-2.832h12.072v2.832H33.281z"/>
<path fill="#FFFFFF" d="M49.336,30.911c-4.729,0-6.816-4.296-6.816-8.352c0-5.136,2.592-8.304,6.816-8.304
	c3.96,0,6.672,3.336,6.672,8.232C56.008,27.527,53.417,30.911,49.336,30.911z M49.336,17.135c-2.425,0-3.889,2.04-3.889,5.424
	c0,3.432,1.464,5.472,3.889,5.472c3.048,0,3.792-3,3.792-5.472C53.128,19.175,51.76,17.135,49.336,17.135z"/>
<path fill="#FFFFFF" d="M74.825,30.623h-3.048l-2.592-10.776L66.64,30.623h-3.048l-2.928-16.08h2.976l1.752,10.392l2.377-10.392
	h2.88l2.472,10.392l1.656-10.392h2.928L74.825,30.623z"/>
<path fill="#FFFFFF" d="M102.616,30.623l-1.584-3.792h-7.009l-1.56,3.792h-3.168l6.768-16.08h2.93l6.719,16.08H102.616z
	 M97.528,18.551l-2.257,5.424h4.513L97.528,18.551z"/>
<path fill="#FFFFFF" d="M123.569,30.623h-3.049l-2.592-10.776l-2.545,10.776h-3.047l-2.928-16.08h2.975l1.752,10.392l2.377-10.392
	h2.881l2.471,10.392l1.656-10.392h2.928L123.569,30.623z"/>
<path fill="#FFFFFF" d="M143.417,30.623l-1.584-3.792h-7.01l-1.559,3.792h-3.168l6.768-16.08h2.928l6.721,16.08H143.417z
	 M138.329,18.551l-2.258,5.424h4.514L138.329,18.551z"/>
<path fill="#FFFFFF" d="M159.856,24.071v6.552h-2.881v-6.552l-6.768-9.528h3.553l4.68,6.552l4.633-6.552h3.551L159.856,24.071z"/>
<polygon fill="none" points="62.311,100.244 66.886,100.244 64.541,91.086 "/>
<path fill="none" d="M109.189,86.059h-3.797v22.896h3.797c2.674,0,4.131-2.122,4.578-4.58c0.219-2.011,0.441-4.242,0.441-6.7
	c0-3.573-0.326-7.035-0.889-8.375C112.535,87.064,111.203,86.059,109.189,86.059z"/>
<path fill="#BF2F37" d="M28.599,85.613c2.011,0,3.574,1.451,3.688,3.686h4.35c-0.112-4.801-3.571-8.263-8.037-8.263
	c-4.572,0-8.148,3.683-8.148,8.263c0,2.791,1.337,5.249,3.912,7.035c6.471,4.357,4.682,3.127,5.352,3.798
	c1.898,1.451,2.572,2.79,2.572,4.577c0,2.567-2.016,4.802-4.471,4.802c-3.126,0-4.463-2.794-4.463-5.473h-4.469
	c0,5.251,3.354,9.94,8.932,9.94c4.916,0,8.82-4.133,8.82-9.27c0-4.577-2.677-8.039-8.82-11.612c-2.34-1.343-3.012-2.234-3.012-3.798
	C24.804,87.177,26.48,85.613,28.599,85.613z"/>
<polygon fill="#BF2F37" points="37.975,85.838 43.781,85.838 43.781,113.42 48.361,113.42 48.361,85.838 54.166,85.838 
	54.166,81.593 37.975,81.593 "/>
<path fill="#BF2F37" d="M62.417,81.593l-7.922,31.827h4.578l2.116-8.711h6.812l2.234,8.711h4.572l-7.922-31.827H62.417z
	 M62.311,100.244l2.229-9.158l2.346,9.158H62.311z"/>
<polygon fill="#BF2F37" points="90.88,100.691 82.179,81.593 77.601,81.593 77.601,113.42 82.179,113.42 82.179,92.09 
	92.001,113.42 95.458,113.42 95.458,81.593 90.88,81.593 "/>
<path fill="#BF2F37" d="M114.099,82.82c-1.117-0.895-2.455-1.228-5.139-1.228h-8.146v31.827h8.818c1.789,0,3.35-0.447,4.467-1.451
	c3.127-2.458,4.578-7.147,4.578-14.516c0-2.458-0.338-5.252-0.785-7.595C117.335,86.621,115.998,84.162,114.099,82.82z
	 M113.767,104.374c-0.447,2.458-1.904,4.58-4.578,4.58h-3.797V86.059h3.797c2.014,0,3.346,1.006,4.131,3.24
	c0.563,1.34,0.889,4.802,0.889,8.375C114.208,100.132,113.986,102.363,113.767,104.374z"/>
<rect x="123.359" y="81.593" fill="#BF2F37" width="4.469" height="31.824"/>
<polygon fill="#BF2F37" points="146.583,100.691 137.876,81.593 133.298,81.593 133.298,113.42 137.876,113.42 137.876,92.09 
	147.697,113.42 151.156,113.42 151.156,81.593 146.583,81.593 "/>
<path fill="#BF2F37" d="M165.429,102.475h3.572v2.123c0,3.35-1.111,4.913-3.459,4.913c-2.455,0-4.02-1.675-4.691-4.802
	c-0.441-2.457-0.666-5.248-0.666-7.93c0-3.797,0.557-7.368,1.451-8.934c0.781-1.561,2.008-2.344,3.574-2.344
	c2.227,0,3.678,1.454,3.791,3.574h4.578c-0.223-4.689-3.682-8.04-8.26-8.04c-3.684,0-6.924,2.455-8.037,5.808
	c-1.117,3.015-1.451,6.253-1.451,10.719c0,4.133,0.666,8.598,1.676,10.944c1.561,3.573,4.354,5.472,8.145,5.472
	c3.236,0,5.805-1.678,7.033-4.468c0.672-1.34,0.895-2.679,0.895-4.913V98.01h-8.15V102.475z"/>
<path fill="#BF2F37" d="M89.178,75.417l-9.832-21.327v21.327h-4.56V43.592h4.56l8.74,19.095V43.592h4.56v31.825H89.178z"/>
<path fill="#BF2F37" d="M115.873,70.524c-1.566,3.752-3.895,5.462-7.457,5.462c-3.801,0-6.033-1.71-7.6-5.462
	c-1.33-3.135-1.805-6.175-1.805-11.067c0-4.797,0.475-8.027,1.805-11.067c1.662-3.8,3.895-5.368,7.6-5.368
	c3.658,0,5.891,1.568,7.457,5.463c1.33,3.135,1.805,6.175,1.805,10.972C117.677,64.349,117.203,67.484,115.873,70.524z
	 M112.31,51.524c-0.807-2.803-1.994-4.038-3.895-4.038c-2.043,0-3.277,1.235-4.037,3.942c-0.76,2.422-0.998,4.56-0.998,8.123
	c0,3.467,0.332,5.462,0.998,8.027c0.76,2.708,1.994,3.942,4.037,3.942c1.9,0,3.088-1.235,3.895-3.942
	c0.76-2.565,0.998-4.465,0.998-8.123C113.308,55.894,112.976,53.852,112.31,51.524z"/>
<path fill="#BF2F37" d="M34.844,138.788c-1.71,4.892-2.375,9.167-2.612,14.962h-4.465v-0.665c0-3.229,0.808-8.503,1.9-12.729
	c1.377-5.13,3.04-8.93,6.175-13.965h-11.97v-4.465h17.765v4.465C38.834,129.62,36.602,133.658,34.844,138.788z"/>
<path fill="#BF2F37" d="M44.344,140.688v-4.228h11.162v4.228H44.344z"/>
<path fill="#BF2F37" d="M64.009,153.75l-2.565-3.563c2.708-2.043,5.605-5.938,6.697-8.93c-0.76,0.095-1.329,0.095-1.994,0.095
	c-5.463,0-8.931-3.895-8.931-10.07c0-5.985,3.468-9.927,8.931-9.927c5.795,0,8.835,3.942,8.835,11.4
	C74.982,140.593,70.944,148.287,64.009,153.75z M66.147,125.82c-2.803,0-4.466,2.137-4.466,5.462c0,3.467,1.663,5.605,4.466,5.605
	c2.659,0,4.465-1.995,4.465-5.13C70.612,128.195,68.806,125.82,66.147,125.82z"/>
<path fill="#BF2F37" d="M80.159,136.688c-1.472,0-2.564-1.141-2.564-2.47c0-1.425,1.093-2.565,2.564-2.565
	c1.33,0,2.471,1.14,2.471,2.565C82.629,135.547,81.489,136.688,80.159,136.688z M80.159,150.178c-1.472,0-2.564-1.093-2.564-2.565
	c0-1.329,1.093-2.565,2.564-2.565c1.33,0,2.471,1.236,2.471,2.565C82.629,149.085,81.489,150.178,80.159,150.178z"/>
<path fill="#BF2F37" d="M94.266,154.32c-5.131,0-8.692-3.705-8.931-8.93H89.8c0.238,2.564,1.995,4.465,4.466,4.465
	c2.564,0,4.465-2.043,4.465-4.703c0-3.372-1.9-6.127-4.133-6.127h-2.232v-4.37h1.9c1.14,0,1.567-0.333,2.327-1.235
	c0.902-0.997,1.377-2.232,1.377-3.563c0-2.47-1.472-4.037-3.704-4.037c-1.995,0-3.23,1.235-3.468,3.373l-4.465-0.57
	c0.475-4.228,3.705-7.267,7.933-7.267c4.56,0,8.026,3.562,8.026,8.17c0,2.66-0.76,4.797-2.896,7.267
	c2.469,2.233,3.705,5.129,3.705,8.36C103.101,150.377,99.396,154.32,94.266,154.32z"/>
<path fill="#BF2F37" d="M123.572,148.857c-1.566,3.752-3.895,5.463-7.457,5.463c-3.799,0-6.031-1.711-7.6-5.463
	c-1.33-3.135-1.805-6.175-1.805-11.067c0-4.797,0.475-8.027,1.805-11.067c1.662-3.8,3.895-5.367,7.6-5.367
	c3.658,0,5.891,1.567,7.457,5.462c1.33,3.135,1.807,6.175,1.807,10.972C125.378,142.683,124.902,145.817,123.572,148.857z
	 M120.009,129.857c-0.807-2.802-1.994-4.037-3.895-4.037c-2.043,0-3.277,1.235-4.037,3.942c-0.76,2.422-0.998,4.56-0.998,8.123
	c0,3.467,0.334,5.462,0.998,8.027c0.76,2.708,1.994,3.943,4.037,3.943c1.9,0,3.088-1.235,3.895-3.943
	c0.762-2.564,0.998-4.465,0.998-8.122C121.007,134.228,120.675,132.185,120.009,129.857z"/>
<path fill="#BF2F37" d="M143.855,153.75l-2.232-8.692h-6.84l-2.09,8.692h-4.607l7.932-31.825h4.465l7.934,31.825H143.855z
	 M138.156,131.425l-2.232,9.167h4.559L138.156,131.425z"/>
<path fill="#BF2F37" d="M167.984,153.75v-17.86l-5.891,17.86l-5.938-17.86v17.86h-4.559v-31.825h4.559l5.938,17.86l5.891-17.86
	h4.607v31.825H167.984z"/>
<path fill="#BF2F37" d="M37.637,184.055v7.695h-4.561v-7.695H19.873v-3.229l13.204-20.9h4.561v19.855h1.899v4.274H37.637z
	 M33.077,167.857l-7.6,11.923h7.6V167.857z"/>
<path fill="#BF2F37" d="M42.245,178.688v-4.228h11.162v4.228H42.245z"/>
<path fill="#BF2F37" d="M64.949,192.32c-5.795,0-8.835-4.275-8.835-11.495c0-7.742,4.037-15.77,10.973-21.138l2.564,3.61
	c-2.707,1.995-5.604,5.795-6.697,8.787c0.76-0.095,1.425-0.095,1.995-0.095c5.462,0,8.93,4.133,8.93,10.165
	S70.411,192.32,64.949,192.32z M64.949,176.36c-2.708,0-4.465,2.327-4.465,5.319c0,3.61,1.757,6.176,4.465,6.176
	c2.66,0,4.465-2.375,4.465-5.7C69.414,178.782,67.609,176.36,64.949,176.36z"/>
<path fill="#BF2F37" d="M80.053,174.688c-1.473,0-2.565-1.14-2.565-2.47c0-1.425,1.093-2.565,2.565-2.565
	c1.33,0,2.47,1.141,2.47,2.565C82.523,173.548,81.383,174.688,80.053,174.688z M80.053,188.178c-1.473,0-2.565-1.093-2.565-2.565
	c0-1.33,1.093-2.564,2.565-2.564c1.33,0,2.47,1.234,2.47,2.564C82.523,187.085,81.383,188.178,80.053,188.178z"/>
<path fill="#BF2F37" d="M94.161,192.32c-5.131,0-8.692-3.705-8.931-8.931h4.465c0.238,2.565,1.995,4.466,4.466,4.466
	c2.564,0,4.464-2.043,4.464-4.703c0-3.372-1.899-6.127-4.132-6.127H92.26v-4.37h1.9c1.14,0,1.567-0.333,2.327-1.235
	c0.902-0.997,1.377-2.232,1.377-3.563c0-2.47-1.472-4.037-3.704-4.037c-1.995,0-3.23,1.235-3.468,3.372l-4.465-0.569
	c0.475-4.228,3.705-7.268,7.933-7.268c4.56,0,8.026,3.563,8.026,8.17c0,2.66-0.76,4.797-2.896,7.268
	c2.469,2.232,3.705,5.13,3.705,8.359C102.996,188.378,99.291,192.32,94.161,192.32z"/>
<path fill="#BF2F37" d="M123.466,186.857c-1.566,3.753-3.895,5.463-7.457,5.463c-3.801,0-6.033-1.71-7.6-5.463
	c-1.33-3.135-1.805-6.175-1.805-11.067c0-4.798,0.475-8.027,1.805-11.067c1.662-3.8,3.895-5.367,7.6-5.367
	c3.658,0,5.891,1.567,7.457,5.462c1.33,3.136,1.805,6.175,1.805,10.973C125.271,180.683,124.796,183.817,123.466,186.857z
	 M119.904,167.857c-0.807-2.802-1.994-4.037-3.895-4.037c-2.043,0-3.277,1.235-4.037,3.942c-0.76,2.423-0.998,4.56-0.998,8.122
	c0,3.468,0.332,5.463,0.998,8.027c0.76,2.708,1.994,3.943,4.037,3.943c1.9,0,3.088-1.235,3.895-3.943
	c0.76-2.564,0.998-4.465,0.998-8.122C120.902,172.228,120.57,170.186,119.904,167.857z"/>
<path fill="#BF2F37" d="M139.949,177.785h-4.939v13.965h-4.561v-31.825h9.5c4.988,0,8.359,3.563,8.359,8.931
	C148.308,174.65,145.316,177.785,139.949,177.785z M139.712,164.391h-4.703v9.024h4.703c2.658,0,4.131-1.662,4.131-4.56
	C143.843,166.195,142.181,164.391,139.712,164.391z"/>
<path fill="#BF2F37" d="M167.878,191.75v-17.86l-5.891,17.86l-5.938-17.86v17.86h-4.559v-31.825h4.559l5.938,17.86l5.891-17.86
	h4.607v31.825H167.878z"/>
<path fill="#BF2F37" d="M47.493,214.437v-7.52l-2.48,7.52l-2.5-7.52v7.52h-1.92v-13.4h1.92l2.5,7.521l2.48-7.521h1.94v13.4H47.493z"
	/>
<path fill="#BF2F37" d="M58.712,212.377c-0.66,1.579-1.64,2.3-3.14,2.3c-1.6,0-2.54-0.721-3.2-2.3c-0.56-1.32-0.76-2.601-0.76-4.66
	c0-2.021,0.2-3.38,0.76-4.66c0.7-1.601,1.64-2.26,3.2-2.26c1.54,0,2.48,0.659,3.14,2.3c0.56,1.32,0.76,2.6,0.76,4.62
	C59.473,209.776,59.272,211.097,58.712,212.377z M57.212,204.377c-0.34-1.181-0.84-1.7-1.64-1.7c-0.86,0-1.38,0.52-1.7,1.66
	c-0.32,1.02-0.42,1.92-0.42,3.42c0,1.46,0.14,2.3,0.42,3.38c0.32,1.14,0.84,1.66,1.7,1.66c0.8,0,1.3-0.521,1.64-1.66
	c0.32-1.08,0.42-1.88,0.42-3.42C57.633,206.217,57.493,205.356,57.212,204.377z"/>
<path fill="#BF2F37" d="M67.713,214.437l-4.14-8.98v8.98h-1.92v-13.4h1.92l3.68,8.04v-8.04h1.92v13.4H67.713z"/>
<path fill="#BF2F37" d="M77.192,213.816c-0.48,0.44-1.14,0.62-1.88,0.62h-3.72v-13.4h3.42c1.14,0,1.7,0.141,2.18,0.521
	c0.8,0.56,1.36,1.6,1.6,2.96c0.181,0.979,0.32,2.16,0.32,3.2C79.112,210.816,78.492,212.797,77.192,213.816z M76.853,204.276
	c-0.32-0.939-0.88-1.359-1.74-1.359h-1.6v9.64h1.6c1.14,0,1.74-0.9,1.94-1.92c0.08-0.86,0.18-1.8,0.18-2.82
	C77.232,206.297,77.092,204.837,76.853,204.276z"/>
<path fill="#BF2F37" d="M86.852,214.437l-0.939-3.66h-2.88l-0.88,3.66h-1.94l3.34-13.4h1.88l3.34,13.4H86.852z M84.452,205.036
	l-0.94,3.86h1.92L84.452,205.036z"/>
<path fill="#BF2F37" d="M94.292,208.377v6.06h-1.92v-6.06l-3.3-7.341h2.021l2.26,4.841l2.22-4.841h2.06L94.292,208.377z"/>
<path fill="#BF2F37" d="M97.931,208.937v-1.78h4.701v1.78H97.931z"/>
<path fill="#BF2F37" d="M105.931,202.917v3.38h2.68v1.84h-2.68v6.3h-1.92v-13.4h6.82v1.881H105.931z"/>
<path fill="#BF2F37" d="M117.751,214.437l-1.779-6.3h-1.84v6.3h-1.92v-13.4h4c2.1,0,3.52,1.42,3.52,3.58
	c0,1.601-0.66,2.761-1.92,3.24l1.92,6.58H117.751z M116.113,202.917h-1.98v3.38h1.98c1.119,0,1.738-0.601,1.738-1.681
	C117.851,203.576,117.152,202.917,116.113,202.917z"/>
<path fill="#BF2F37" d="M121.492,214.437v-13.4h1.879v13.4H121.492z"/>
<path fill="#BF2F37" d="M131.431,213.816c-0.48,0.44-1.141,0.62-1.881,0.62h-3.719v-13.4h3.42c1.139,0,1.699,0.141,2.18,0.521
	c0.801,0.56,1.359,1.6,1.6,2.96c0.18,0.979,0.32,2.16,0.32,3.2C133.351,210.816,132.732,212.797,131.431,213.816z M131.091,204.276
	c-0.32-0.939-0.881-1.359-1.74-1.359h-1.6v9.64h1.6c1.141,0,1.74-0.9,1.939-1.92c0.08-0.86,0.18-1.8,0.18-2.82
	C131.47,206.297,131.332,204.837,131.091,204.276z"/>
<path fill="#BF2F37" d="M141.091,214.437l-0.939-3.66h-2.881l-0.879,3.66h-1.941l3.34-13.4h1.881l3.34,13.4H141.091z
	 M138.691,205.036l-0.939,3.86h1.92L138.691,205.036z"/>
<path fill="#BF2F37" d="M148.531,208.377v6.06h-1.92v-6.06l-3.301-7.341h2.021l2.26,4.841l2.219-4.841h2.061L148.531,208.377z"/>
<path fill-rule="evenodd" clip-rule="evenodd" fill="#BF2F37" d="M134.171,242.366l-1.99,7.518c-0.051,0.05-0.088,0.082-0.109,0.146
	c-0.049,0.092-0.082,0.19-0.115,0.303c0.049,0.425,0.146,0.826,0.414,1.176c0.475,0.651,1.135,0.845,1.916,0.813
	c0.25-0.017,0.551-0.079,0.758-0.224l22.783-15.699l-22.783-15.492c-0.316-0.224-0.539-0.333-0.938-0.417
	c-0.666-0.14-1.402,0.382-1.779,0.927c-0.225,0.319-0.338,0.652-0.371,1.048c0.033,0.131,0.033,0.272,0.098,0.401
	c0.039,0.095,0.076,0.177,0.127,0.253l1.99,7.312c-25.293,0-50.586,0-75.871,0l1.988-7.312c0.045-0.076,0.096-0.158,0.123-0.253
	c0.066-0.129,0.066-0.271,0.102-0.401c-0.035-0.396-0.148-0.729-0.371-1.048c-0.383-0.545-1.113-1.066-1.785-0.927
	c-0.396,0.084-0.621,0.193-0.936,0.417l-22.785,15.492l22.785,15.699c0.209,0.145,0.512,0.207,0.764,0.224
	c0.781,0.032,1.434-0.161,1.91-0.813c0.27-0.35,0.365-0.751,0.418-1.176c-0.035-0.112-0.07-0.211-0.115-0.303
	c-0.014-0.063-0.064-0.096-0.109-0.146l-1.988-7.518C83.585,242.366,108.878,242.366,134.171,242.366"/>
<path fill="#FFFFFF" d="M24.018,275.855v-14.74h2.067v14.74H24.018z"/>
<path fill="#FFFFFF" d="M30.903,263.184v3.718h2.948v2.024h-2.948v6.93h-2.111v-14.74h7.502v2.068H30.903z"/>
<path fill="#FFFFFF" d="M45.049,263.073v12.782h-2.135v-12.782h-2.684v-1.958h7.502v1.958H45.049z"/>
<path fill="#FFFFFF" d="M56.753,273.59c-0.727,1.737-1.805,2.529-3.454,2.529c-1.761,0-2.794-0.792-3.521-2.529
	c-0.616-1.452-0.836-2.86-0.836-5.126c0-2.223,0.22-3.719,0.836-5.126c0.771-1.761,1.805-2.486,3.521-2.486
	c1.693,0,2.728,0.726,3.454,2.53c0.615,1.452,0.836,2.859,0.836,5.082C57.589,270.729,57.369,272.182,56.753,273.59z
	 M55.103,264.789c-0.374-1.298-0.924-1.869-1.804-1.869c-0.946,0-1.519,0.571-1.87,1.825c-0.353,1.122-0.462,2.112-0.462,3.763
	c0,1.605,0.153,2.529,0.462,3.718c0.352,1.254,0.924,1.826,1.87,1.826c0.88,0,1.43-0.572,1.804-1.826
	c0.352-1.188,0.462-2.068,0.462-3.762C55.565,266.813,55.411,265.867,55.103,264.789z"/>
<path fill="#FFFFFF" d="M67.643,275.855h-1.804l-1.408-7.7l-1.386,7.7h-1.87l-2.332-14.74h2.068l1.254,7.854l1.43-7.854h1.672
	l1.386,7.854l1.299-7.854h2.067L67.643,275.855z"/>
<path fill="#FFFFFF" d="M71.494,275.855v-14.74h6.93v2.068h-4.818v3.718h3.059v2.024h-3.059v4.861h5.391v2.068H71.494z"/>
<path fill="#FFFFFF" d="M87.09,275.174c-0.527,0.483-1.254,0.682-2.067,0.682h-4.092v-14.74h3.762c1.254,0,1.87,0.154,2.397,0.572
	c0.88,0.616,1.496,1.76,1.761,3.256c0.197,1.078,0.352,2.376,0.352,3.521C89.203,271.873,88.521,274.052,87.09,275.174z
	 M86.716,264.68c-0.352-1.034-0.968-1.496-1.914-1.496h-1.76v10.604h1.76c1.255,0,1.914-0.989,2.135-2.111
	c0.088-0.946,0.197-1.98,0.197-3.103C87.134,266.901,86.981,265.296,86.716,264.68z"/>
<path fill="#FFFFFF" d="M99.058,268.926c-0.792,2.266-1.1,4.246-1.21,6.93H95.78v-0.308c0-1.496,0.374-3.938,0.88-5.896
	c0.639-2.376,1.408-4.136,2.86-6.468h-5.544v-2.068h8.228v2.068C100.906,264.68,99.873,266.55,99.058,268.926z"/>
<path fill="#FFFFFF" d="M103.876,275.855c0.11-2.024,0.264-2.75,0.727-4.026c0.615-1.562,1.386-2.75,2.376-3.674
	c0.352-0.308,0.682-0.571,1.869-1.408c0.969-0.659,1.232-1.033,1.232-1.76c0-1.122-0.924-2.067-2.068-2.067
	c-1.144,0-2.067,0.945-2.067,2.067h-2.068c0.044-2.31,1.804-4.136,4.136-4.136c2.267,0,4.093,1.87,4.093,4.136
	c0,1.188-0.419,2.134-1.255,2.904c-0.153,0.11-0.308,0.198-0.462,0.352l-0.506,0.374l-0.527,0.353l-0.572,0.418
	c-0.924,0.682-1.914,2.023-2.311,3.256c-0.176,0.374-0.22,0.616-0.33,1.144h5.963v2.068H103.876z"/>
<path fill="#FFFFFF" d="M117.978,268.926c-0.792,2.266-1.1,4.246-1.21,6.93H114.7v-0.308c0-1.496,0.374-3.938,0.88-5.896
	c0.639-2.376,1.408-4.136,2.86-6.468h-5.544v-2.068h8.228v2.068C119.826,264.68,118.792,266.55,117.978,268.926z"/>
<path fill="#FFFFFF" d="M122.378,269.806v-1.958h5.17v1.958H122.378z"/>
<path fill="#FFFFFF" d="M131.97,276.119c-1.298,0-2.552-0.462-3.63-1.298l1.386-1.496c0.727,0.506,1.299,0.727,2.024,0.727
	c1.605,0,2.75-1.452,2.75-3.477c0-1.605-0.792-2.573-2.024-2.573c-0.682,0-1.231,0.241-1.76,0.726l-1.649-0.264v-7.349h6.93v2.068
	h-4.972l-0.154,3.102c0.726-0.264,1.1-0.308,1.649-0.308c2.398,0,4.049,1.914,4.049,4.708
	C136.569,273.787,134.588,276.119,131.97,276.119z"/>
<path fill="#FFFFFF" d="M146.05,273.59c-0.727,1.737-1.805,2.529-3.454,2.529c-1.761,0-2.794-0.792-3.521-2.529
	c-0.616-1.452-0.836-2.86-0.836-5.126c0-2.223,0.22-3.719,0.836-5.126c0.771-1.761,1.805-2.486,3.521-2.486
	c1.693,0,2.728,0.726,3.454,2.53c0.615,1.452,0.836,2.859,0.836,5.082C146.886,270.729,146.666,272.182,146.05,273.59z
	 M144.4,264.789c-0.374-1.298-0.924-1.869-1.804-1.869c-0.946,0-1.519,0.571-1.87,1.825c-0.353,1.122-0.462,2.112-0.462,3.763
	c0,1.605,0.153,2.529,0.462,3.718c0.352,1.254,0.924,1.826,1.87,1.826c0.88,0,1.43-0.572,1.804-1.826
	c0.352-1.188,0.462-2.068,0.462-3.762C144.862,266.813,144.708,265.867,144.4,264.789z"/>
<path fill="#FFFFFF" d="M156.831,273.59c-0.727,1.737-1.805,2.529-3.454,2.529c-1.761,0-2.794-0.792-3.521-2.529
	c-0.616-1.452-0.836-2.86-0.836-5.126c0-2.223,0.22-3.719,0.836-5.126c0.771-1.761,1.805-2.486,3.521-2.486
	c1.693,0,2.728,0.726,3.454,2.53c0.615,1.452,0.836,2.859,0.836,5.082C157.667,270.729,157.446,272.182,156.831,273.59z
	 M155.18,264.789c-0.374-1.298-0.924-1.869-1.804-1.869c-0.946,0-1.519,0.571-1.87,1.825c-0.353,1.122-0.462,2.112-0.462,3.763
	c0,1.605,0.153,2.529,0.462,3.718c0.352,1.254,0.924,1.826,1.87,1.826c0.88,0,1.43-0.572,1.804-1.826
	c0.352-1.188,0.462-2.068,0.462-3.762C155.642,266.813,155.488,265.867,155.18,264.789z"/>
<path fill="#FFFFFF" d="M167.61,273.59c-0.727,1.737-1.805,2.529-3.454,2.529c-1.761,0-2.794-0.792-3.521-2.529
	c-0.616-1.452-0.836-2.86-0.836-5.126c0-2.223,0.22-3.719,0.836-5.126c0.771-1.761,1.805-2.486,3.521-2.486
	c1.693,0,2.728,0.726,3.454,2.53c0.615,1.452,0.836,2.859,0.836,5.082C168.446,270.729,168.225,272.182,167.61,273.59z
	 M165.959,264.789c-0.374-1.298-0.924-1.869-1.804-1.869c-0.946,0-1.519,0.571-1.87,1.825c-0.353,1.122-0.462,2.112-0.462,3.763
	c0,1.605,0.153,2.529,0.462,3.718c0.352,1.254,0.924,1.826,1.87,1.826c0.88,0,1.43-0.572,1.804-1.826
	c0.352-1.188,0.462-2.068,0.462-3.762C166.421,266.813,166.267,265.867,165.959,264.789z"/>
</svg>
