<?xml version="1.0" encoding="utf-8"?>
<!-- Generator: Adobe Illustrator 12.0.1, SVG Export Plug-In  -->
<!DOCTYPE svg PUBLIC "-//W3C//DTD SVG 1.1//EN" "http://www.w3.org/Graphics/SVG/1.1/DTD/svg11.dtd" [
	<!ENTITY ns_flows "http://ns.adobe.com/Flows/1.0/">
	<!ENTITY ns_svg "http://www.w3.org/2000/svg">
	<!ENTITY ns_xlink "http://www.w3.org/1999/xlink">
]>
<svg  version="1.1" xmlns="&ns_svg;" xmlns:xlink="&ns_xlink;" xmlns:a="http://ns.adobe.com/AdobeSVGViewerExtensions/3.0/"
	 width="226" height="288" viewBox="-0.818 0 226 288" enable-background="new -0.818 0 226 288" xml:space="preserve">
<defs>
</defs>
<path fill="#C41230" d="M219.988,274.11v-89.131h0.002V13.89c0-5.19-4.32-9.514-9.518-9.514H13.891h-0.006
	c-5.187,0-9.509,4.323-9.509,9.514v171.09H4.373v89.131c0,5.19,4.321,9.514,9.518,9.514h196.588
	C215.666,283.624,219.988,279.301,219.988,274.11z"/>
<path fill="#231F20" d="M220.44,4.345C217.893,1.688,214.342,0,210.479,0h-0.006H13.891h-0.006C6.36,0,0,6.36,0,13.89v0.002v171.088
	v89.131c0,7.472,5.536,13.048,13.778,13.881L13.891,288h196.588c7.525,0,13.885-6.36,13.885-13.89v-89.131V13.892V13.89
	C224.363,10.092,222.929,6.789,220.44,4.345z M2.268,274.11v-89.131V13.892V13.89c0-6.298,5.319-11.622,11.617-11.622
	c0,0,0.005,0,0.006,0h196.49c5.836,0.603,11.715,4.421,11.715,11.622v0.004v171.085v89.131c0,6.298-5.318,11.622-11.617,11.622
	c0,0-196.317,0-196.496,0C8.147,285.13,2.268,281.312,2.268,274.11z"/>
<path fill="#FFFFFF" d="M25.466,48.354l-8.704-15.436v15.436h-3.604v-22.78h3.604l8.296,14.552V25.573h3.604v22.78H25.466z"/>
<path fill="#FFFFFF" d="M48.144,46.211c-1.292,1.734-3.128,2.55-5.508,2.55c-3.196,0-5.202-1.292-6.563-4.08
	c-0.952-1.938-1.598-4.964-1.598-7.684c0-3.74,0.952-7.106,2.481-9.282c1.36-1.734,3.196-2.55,5.814-2.55
	c2.89,0,4.896,1.292,6.324,4.08c0.952,2.006,1.53,4.896,1.53,7.752C50.626,40.602,49.742,44.206,48.144,46.211z M45.662,30.605
	c-0.714-1.19-1.598-1.666-2.958-1.768c-0.067,0-0.136,0-0.203,0c-1.633,0-2.721,0.884-3.469,2.822
	c-0.578,1.36-0.884,3.434-0.884,5.338c0,2.414,0.476,4.896,1.36,6.324c0.714,1.19,1.666,1.768,3.128,1.768
	c1.666,0,2.72-0.884,3.502-2.89c0.476-1.19,0.884-3.434,0.884-5.202C47.022,34.447,46.546,32.135,45.662,30.605z"/>
<path fill="#FFFFFF" d="M76.534,46.994c-1.258,1.122-3.025,1.768-4.964,1.768c-3.91,0-6.766-2.312-8.296-5.78l3.434-1.258
	c0.952,2.142,2.721,3.366,4.862,3.366c2.108,0,3.536-1.462,3.536-3.366c0-3.026-3.536-3.536-6.494-4.726
	c-1.36-0.544-4.386-1.904-4.386-5.678c0-4.454,3.025-6.154,7.105-6.154c3.196,0,5.372,1.836,6.494,4.658l-3.195,0.952
	c0,0-0.816-1.938-3.366-2.006c-0.103,0-0.17,0-0.238,0c-1.563,0-3.264,0.612-3.264,2.414c0,0.068,0,0.17,0,0.238
	c0.306,4.216,11.016,1.428,11.016,10.37C78.778,43.865,77.962,45.702,76.534,46.994z"/>
<path fill="#FFFFFF" d="M90.27,28.77v19.584h-3.604V28.77h-5.202v-3.196H95.54v3.196H90.27z"/>
<path fill="#FFFFFF" d="M113.186,48.354l-2.245-6.392h-7.106l-2.244,6.392h-3.842l7.854-22.78h3.569l7.855,22.78H113.186z
	 M107.439,31.897l-2.347,6.392h4.557L107.439,31.897z"/>
<path fill="#FFFFFF" d="M133.619,48.354l-8.705-15.436v15.436h-3.604v-22.78h3.604l8.297,14.552V25.573h3.604v22.78H133.619z"/>
<path fill="#FFFFFF" d="M154.596,47.062c-0.85,0.816-2.074,1.224-3.264,1.292c-0.238,0-0.713,0-1.291,0h-6.938v-22.78h7.346
	c2.311,0,3.195,0.238,4.42,1.19c2.379,2.074,3.74,5.678,3.74,10.166C158.609,41.485,157.18,45.089,154.596,47.062z M153.1,30.129
	c-0.578-0.544-1.359-0.952-2.311-0.952h-4.08v15.504h3.604c1.189,0,1.904-0.238,2.551-0.884c1.359-1.36,2.072-3.842,2.072-6.868
	C154.936,33.869,154.223,31.319,153.1,30.129z"/>
<path fill="#FFFFFF" d="M164.422,48.354v-22.78h3.672v22.78H164.422z"/>
<path fill="#FFFFFF" d="M186.691,48.354l-8.703-15.436v15.436h-3.605v-22.78h3.605l8.295,14.552V25.573h3.605v22.78H186.691z"/>
<path fill="#FFFFFF" d="M203.998,48.762c-3.434,0-5.441-1.292-6.801-4.148c-0.951-2.006-1.496-4.828-1.496-7.616
	c0-3.672,1.02-7.276,2.551-9.282c1.359-1.666,3.264-2.55,5.848-2.55c3.502,0,5.576,1.462,7.105,5.032l-3.434,1.36
	c-0.951-1.972-1.938-2.72-3.672-2.72c-1.836,0-3.061,0.816-3.842,2.822c-0.578,1.36-0.885,3.434-0.885,5.338
	c0,2.414,0.408,4.794,1.123,6.256c0.713,1.258,1.768,1.836,3.127,1.836c2.313,0,3.979-1.462,3.979-3.536v-0.952h-4.148v-3.604h7.752
	v4.556C211.205,45.702,208.18,48.762,203.998,48.762z"/>
<path fill="#FFFFFF" d="M12.714,277.228c-0.296,0.265-0.712,0.416-1.168,0.416c-0.92,0-1.592-0.544-1.952-1.359l0.808-0.296
	c0.224,0.504,0.64,0.792,1.144,0.792c0.496,0,0.832-0.345,0.832-0.792c0-0.712-0.832-0.832-1.528-1.112
	c-0.32-0.128-1.032-0.448-1.032-1.336c0-1.048,0.712-1.448,1.672-1.448c0.752,0,1.264,0.432,1.528,1.096l-0.752,0.225
	c0,0-0.192-0.456-0.792-0.473c-0.024,0-0.04,0-0.056,0c-0.368,0-0.768,0.145-0.768,0.568c0,0.016,0,0.04,0,0.056
	c0.072,0.992,2.592,0.336,2.592,2.44C13.243,276.492,13.05,276.924,12.714,277.228z"/>
<path fill="#FFFFFF" d="M17.37,275.028c-0.248,0.111-0.568,0.184-0.984,0.184h-0.992v2.336h-0.848v-5.36h1.84
	c0.432,0,0.72,0.04,0.984,0.168c0.464,0.225,0.824,0.792,0.824,1.337C18.194,274.26,17.834,274.82,17.37,275.028z M17.01,273.132
	c-0.152-0.08-0.248-0.096-0.512-0.096h-1.104v1.312h1.104c0.264,0,0.36-0.016,0.512-0.088c0.184-0.096,0.32-0.344,0.32-0.567
	C17.33,273.468,17.194,273.244,17.01,273.132z"/>
<path fill="#FFFFFF" d="M18.915,275.332v-0.849h1.88v0.849H18.915z"/>
<path fill="#FFFFFF" d="M23.202,277.644c-0.464,0-0.936-0.111-1.312-0.304l0.416-0.752c0.224,0.112,0.616,0.192,1.008,0.192
	c0.776,0,1.376-0.513,1.376-1.208c0-0.528-0.432-0.937-0.96-0.937c-0.376,0-0.544,0.112-0.864,0.561l-0.712-0.24v-2.769h3.08v0.849
	h-2.256l-0.056,0.88c0.392-0.112,0.568-0.152,0.832-0.152c0.976,0,1.784,0.832,1.784,1.809
	C25.538,276.756,24.562,277.644,23.202,277.644z"/>
<path fill="#FFFFFF" d="M28.57,277.644l-0.408-0.72c0.64-0.504,0.976-0.936,1.296-1.632c-0.304,0.056-0.432,0.072-0.64,0.072
	c-1,0-1.824-0.729-1.824-1.633c0-0.92,0.808-1.64,1.824-1.64c1.032,0,1.824,0.736,1.824,1.712
	C30.642,275.276,29.81,276.796,28.57,277.644z M28.818,272.956c-0.528,0-0.96,0.344-0.96,0.775c0,0.433,0.432,0.769,0.96,0.769
	c0.544,0,0.976-0.336,0.976-0.769C29.794,273.315,29.346,272.956,28.818,272.956z"/>
<path fill="#FFFFFF" d="M32.098,277.548c0.016-0.624,0.152-1.128,0.448-1.64c0.224-0.408,0.568-0.752,0.944-1.032
	c0.096-0.056,0.168-0.112,0.24-0.168l0.288-0.152l0.264-0.151l0.256-0.145c0.208-0.136,0.36-0.36,0.36-0.584
	c0-0.399-0.448-0.72-0.976-0.72c-0.544,0-0.888,0.264-0.976,0.752l-0.848-0.185c0.184-0.888,0.88-1.432,1.824-1.432
	c1.016,0,1.824,0.72,1.824,1.601c0,0.415-0.192,0.831-0.544,1.144c-0.08,0.063-0.152,0.12-0.224,0.152l-0.264,0.168l-0.288,0.151
	l-0.264,0.152c-0.504,0.304-0.784,0.624-1.048,1.224h2.632v0.864H32.098z"/>
<path fill="#FFFFFF" d="M40.098,277.42c-0.192,0.072-0.512,0.128-0.752,0.128h-2.032v-5.36h2.032c0.848,0,1.488,0.584,1.488,1.353
	c0,0.528-0.248,0.92-0.752,1.208c0.56,0.264,0.88,0.712,0.88,1.296S40.602,277.212,40.098,277.42z M39.402,273.036h-1.24v1.312
	h1.016c0.24,0,0.352-0.032,0.504-0.144c0.192-0.152,0.304-0.376,0.304-0.624C39.986,273.22,39.778,273.036,39.402,273.036z
	 M39.586,275.252c-0.112-0.04-0.168-0.04-0.352-0.04h-1.072v1.472h1.28c0.432,0,0.656-0.208,0.656-0.624
	C40.098,275.708,39.89,275.364,39.586,275.252z"/>
<path fill="#FFFFFF" d="M56.684,278.5h-1.617v-3.685h1.617c1.023,0,1.848,0.824,1.848,1.837
	C58.532,277.675,57.707,278.5,56.684,278.5z M56.684,275.514h-0.918v2.288h0.918c0.633,0,1.139-0.518,1.139-1.149
	C57.823,276.03,57.317,275.514,56.684,275.514z"/>
<path fill="#FFFFFF" d="M60.925,278.5v-3.685h2.937v0.698h-2.239v0.671h1.292v0.709h-1.292v0.908h2.288v0.698H60.925z"/>
<path fill="#FFFFFF" d="M68.619,277.114h-1.617v1.386h-0.698v-3.685h2.315c0.632,0,1.149,0.517,1.149,1.149
	C69.769,276.597,69.251,277.114,68.619,277.114z M68.619,275.514h-1.617v0.907h1.617c0.248,0,0.44-0.209,0.44-0.456
	C69.059,275.723,68.867,275.514,68.619,275.514z"/>
<path fill="#FFFFFF" d="M73.75,275.514v2.986h-0.698v-2.986h-1.265v-0.698h3.168v0.698H73.75z"/>
<path fill="#FFFFFF" d="M81.737,278.566c-1.045,0-1.925-0.869-1.925-1.914c0-1.073,0.842-1.903,1.925-1.903
	c1.023,0,1.925,0.869,1.925,1.887C83.662,277.697,82.787,278.566,81.737,278.566z M82.963,276.652c0-0.66-0.556-1.188-1.227-1.188
	s-1.227,0.518-1.227,1.172c0,0.676,0.556,1.215,1.227,1.215s1.227-0.539,1.227-1.215V276.652z"/>
<path fill="#FFFFFF" d="M86.752,275.514v0.671h1.37v0.709h-1.37v1.606h-0.698v-3.685h2.986v0.698H86.752z"/>
<path fill="#FFFFFF" d="M95.86,275.514v2.986h-0.698v-2.986h-1.265v-0.698h3.168v0.698H95.86z"/>
<path fill="#FFFFFF" d="M101.888,278.5l-0.814-1.386h-1.139v1.386h-0.698v-3.685h2.25c0.649,0,1.166,0.517,1.166,1.149
	c0,0.495-0.313,0.918-0.792,1.089l0.841,1.446H101.888z M101.487,275.514h-1.551v0.907h1.551c0.258,0,0.467-0.209,0.467-0.456
	C101.954,275.723,101.745,275.514,101.487,275.514z"/>
<path fill="#FFFFFF" d="M108.13,278.5l-0.374-0.803h-1.875l-0.385,0.803h-0.775l1.744-3.685h0.698l1.749,3.685H108.13z
	 M106.816,275.706l-0.61,1.281h1.215L106.816,275.706z"/>
<path fill="#FFFFFF" d="M113.845,278.5l-2.068-2.547v2.547h-0.698v-3.685h0.688l2.068,2.573v-2.573h0.71v3.685H113.845z"/>
<path fill="#FFFFFF" d="M118.772,278.566c-0.753,0-1.281-0.154-1.836-0.556l0.401-0.572c0.44,0.297,0.825,0.412,1.407,0.412
	c0.623,0,0.957-0.137,0.957-0.423c0-0.154-0.143-0.313-0.352-0.391c-0.176-0.061-0.396-0.115-0.875-0.203
	c-0.561-0.116-0.83-0.221-1.022-0.413c-0.192-0.198-0.286-0.401-0.286-0.648c0-0.391,0.209-0.672,0.621-0.842
	c0.26-0.115,0.584-0.182,0.893-0.182c0.516,0,0.984,0.143,1.473,0.44l-0.373,0.583c-0.375-0.231-0.699-0.309-1.15-0.309
	c-0.517,0-0.764,0.088-0.764,0.297c0,0.319,0.67,0.374,0.906,0.413c0.424,0.077,0.836,0.203,1.072,0.324
	c0.336,0.182,0.545,0.556,0.545,0.957C120.39,278.153,119.79,278.566,118.772,278.566z"/>
<path fill="#FFFFFF" d="M125.093,277.114h-1.617v1.386h-0.699v-3.685h2.316c0.633,0,1.15,0.517,1.15,1.149
	C126.243,276.597,125.726,277.114,125.093,277.114z M125.093,275.514h-1.617v0.907h1.617c0.248,0,0.439-0.209,0.439-0.456
	C125.532,275.723,125.341,275.514,125.093,275.514z"/>
<path fill="#FFFFFF" d="M130.405,278.566c-1.045,0-1.924-0.869-1.924-1.914c0-1.073,0.84-1.903,1.924-1.903
	c1.023,0,1.926,0.869,1.926,1.887C132.331,277.697,131.456,278.566,130.405,278.566z M131.632,276.652
	c0-0.66-0.555-1.188-1.227-1.188c-0.67,0-1.227,0.518-1.227,1.172c0,0.676,0.557,1.215,1.227,1.215c0.672,0,1.227-0.539,1.227-1.215
	V276.652z"/>
<path fill="#FFFFFF" d="M137.374,278.5l-0.814-1.386h-1.139v1.386h-0.699v-3.685h2.25c0.648,0,1.166,0.517,1.166,1.149
	c0,0.495-0.313,0.918-0.791,1.089l0.842,1.446H137.374z M136.972,275.514h-1.551v0.907h1.551c0.26,0,0.469-0.209,0.469-0.456
	C137.44,275.723,137.231,275.514,136.972,275.514z"/>
<path fill="#FFFFFF" d="M142.169,275.514v2.986h-0.697v-2.986h-1.266v-0.698h3.168v0.698H142.169z"/>
<path fill="#FFFFFF" d="M148.583,278.5l-0.375-0.803h-1.875l-0.385,0.803h-0.775l1.744-3.685h0.697l1.75,3.685H148.583z
	 M147.269,275.706l-0.611,1.281h1.217L147.269,275.706z"/>
<path fill="#FFFFFF" d="M153.12,275.514v2.986h-0.697v-2.986h-1.266v-0.698h3.168v0.698H153.12z"/>
<path fill="#FFFFFF" d="M156.497,278.5v-3.685h0.699c0,0,0.01,3.685,0,3.685C157.206,278.5,156.497,278.5,156.497,278.5z"/>
<path fill="#FFFFFF" d="M161.513,278.566c-1.045,0-1.924-0.869-1.924-1.914c0-1.073,0.84-1.903,1.924-1.903
	c1.023,0,1.926,0.869,1.926,1.887C163.438,277.697,162.563,278.566,161.513,278.566z M162.739,276.652
	c0-0.66-0.555-1.188-1.227-1.188c-0.67,0-1.227,0.518-1.227,1.172c0,0.676,0.557,1.215,1.227,1.215c0.672,0,1.227-0.539,1.227-1.215
	V276.652z"/>
<path fill="#FFFFFF" d="M168.597,278.5l-2.066-2.547v2.547h-0.699v-3.685h0.688l2.068,2.573v-2.573h0.709v3.685H168.597z"/>
<path fill="none" d="M218.99,188.809c0-2.088,0.005-3.242,0.086-3.914c-0.014,0.013-0.086,0.085-0.086,0.085V13.89
	c0-2.244-0.894-4.373-2.517-5.996c-1.624-1.624-3.755-2.518-6.001-2.518H13.885c-2.241,0-4.369,0.894-5.992,2.518
	s-2.517,3.753-2.517,5.996L5.373,274.11c0,2.243,0.894,4.373,2.517,5.996c1.624,1.624,3.755,2.518,6.001,2.518h196.588
	c2.242,0,4.37-0.894,5.993-2.518s2.517-3.753,2.517-5.996L218.99,188.809z"/>
<path fill="#FFFFFF" d="M210.381,2.268H13.891c-0.001,0-0.006,0-0.006,0c-6.298,0-11.617,5.324-11.617,11.622v0.002v171.088v89.131
	c0,7.201,5.88,11.02,11.715,11.622c0.179,0,196.496,0,196.496,0c6.299,0,11.617-5.324,11.617-11.622v-89.131V13.894V13.89
	C222.096,6.688,216.217,2.87,210.381,2.268z M210.479,282.624H13.891c-2.246,0-4.377-0.894-6.001-2.518
	c-1.623-1.623-2.517-3.753-2.517-5.996L5.376,13.89c0-2.243,0.894-4.373,2.517-5.996s3.751-2.518,5.992-2.518h196.588
	c2.246,0,4.377,0.894,6.001,2.518c1.623,1.623,2.517,3.752,2.517,5.996v171.09c0,0,0.072-0.072,0.086-0.085
	c-0.081,0.672-0.086,1.826-0.086,3.914l-0.002,85.302c0,2.243-0.894,4.372-2.517,5.996S212.721,282.624,210.479,282.624z"/>
<path fill-rule="evenodd" clip-rule="evenodd" fill="#FFFFFF" d="M56.653,260.389V249.28h89.054l-2.058-6.795
	c-0.015-0.088-0.026-0.192-0.026-0.28c0-0.123,0.012-0.226,0.026-0.329c0-0.339,0.076-0.633,0.253-0.933
	c0.324-0.545,1.125-1.066,1.789-0.884c0.296,0.089,0.578,0.201,0.833,0.368l21.186,14.407l-21.186,14.603
	c-0.227,0.143-0.564,0.201-0.833,0.201c-0.724,0-1.347-0.177-1.762-0.795c-0.204-0.324-0.28-0.668-0.28-1.056
	c-0.015-0.054-0.015-0.089-0.026-0.147c0-0.088,0.012-0.177,0.026-0.265l2.058-6.987H56.653z"/>
<path fill="#FFFFFF" d="M41.979,87.377c-2.686,0-5.1-0.884-6.936-2.482c-1.836-1.598-2.72-3.842-2.72-6.97
	c0-4.794,2.142-8.942,5.984-11.594c2.652-1.836,5.271-2.55,9.214-2.55v4.08h-0.408c-2.414,0-4.08,0.408-5.678,1.36
	c-2.074,1.19-3.264,2.55-4.386,4.964c1.972-0.578,3.264-0.714,5.1-0.714c4.964,0,8.568,2.856,8.568,6.868
	C50.717,84.419,47.113,87.377,41.979,87.377z M41.843,77.551c-2.822,0-4.726,1.122-4.726,2.788c0,1.768,1.904,2.89,4.726,2.89
	c2.856,0,4.794-1.122,4.794-2.822C46.637,78.673,44.699,77.551,41.843,77.551z"/>
<rect x="107.46" y="73.709" fill="#FFFFFF" width="18.257" height="4.08"/>
<path fill="#FFFFFF" d="M152.851,70.989c-1.531,2.074-2.959,5.1-3.842,7.752c-0.885,2.72-1.191,4.794-1.26,8.228h-4.08
	c0.068-3.434,0.307-5.372,1.021-8.16c0.816-2.856,1.938-5.508,3.297-7.752c0.375-0.714,0.852-1.428,1.836-2.856H136.87v-4.012
	h18.463v4.08C153.802,69.697,153.394,70.105,152.851,70.989z"/>
<path fill="#FFFFFF" d="M69.763,87.146l-1.716-4.888h-5.434l-1.716,4.888h-2.938l6.006-17.42h2.73l6.006,17.42H69.763z
	 M65.369,74.563l-1.794,4.888h3.484L65.369,74.563z"/>
<path fill="#FFFFFF" d="M90.043,87.146V77.059l-4.03,10.088l-4.03-10.088v10.088h-2.756v-17.42h2.756l4.03,9.776l4.03-9.776h2.756
	v17.42H90.043z"/>
<path fill="#FFFFFF" d="M169.003,87.146l-1.716-4.888h-5.434l-1.716,4.888h-2.938l6.006-17.42h2.73l6.006,17.42H169.003z
	 M164.609,74.563l-1.794,4.888h3.484L164.609,74.563z"/>
<path fill="#FFFFFF" d="M189.284,87.146V77.059l-4.03,10.088l-4.03-10.088v10.088h-2.756v-17.42h2.756l4.03,9.776l4.03-9.776h2.756
	v17.42H189.284z"/>
<path fill="#FFFFFF" d="M41.979,120.373c-2.687,0-5.101-0.884-6.937-2.482c-1.836-1.598-2.72-3.842-2.72-6.97
	c0-4.794,2.142-8.942,5.983-11.594c2.652-1.836,5.271-2.55,9.215-2.55v4.08h-0.408c-2.414,0-4.08,0.408-5.678,1.36
	c-2.074,1.19-3.265,2.55-4.387,4.964c1.973-0.578,3.265-0.714,5.101-0.714c4.964,0,8.567,2.856,8.567,6.868
	C50.717,117.415,47.113,120.373,41.979,120.373z M41.843,110.547c-2.821,0-4.726,1.122-4.726,2.788c0,1.768,1.904,2.89,4.726,2.89
	c2.856,0,4.794-1.122,4.794-2.822C46.637,111.669,44.699,110.547,41.843,110.547z"/>
<rect x="105.485" y="106.705" fill="#FFFFFF" width="18.258" height="4.08"/>
<path fill="#FFFFFF" d="M152.849,103.985c-1.53,2.074-2.958,5.1-3.842,7.752c-0.885,2.72-1.19,4.794-1.259,8.228h-4.08
	c0.068-3.434,0.307-5.372,1.021-8.16c0.816-2.856,1.938-5.508,3.298-7.752c0.374-0.714,0.851-1.428,1.836-2.856h-12.954v-4.012
	h18.463v4.08C153.801,102.693,153.393,103.101,152.849,103.985z"/>
<path fill="#FFFFFF" d="M68.696,111.952c-0.806,0.364-1.846,0.598-3.198,0.598h-3.224v7.592h-2.756v-17.42h5.979
	c1.404,0,2.341,0.13,3.198,0.546c1.508,0.728,2.678,2.574,2.678,4.342C71.374,109.456,70.204,111.276,68.696,111.952z
	 M67.526,105.79c-0.494-0.26-0.806-0.312-1.664-0.312h-3.588v4.264h3.588c0.858,0,1.17-0.052,1.664-0.286
	c0.598-0.312,1.04-1.118,1.04-1.846S68.124,106.154,67.526,105.79z"/>
<path fill="#FFFFFF" d="M88.665,120.142v-10.088l-4.03,10.088l-4.03-10.088v10.088h-2.756v-17.42h2.756l4.03,9.776l4.03-9.776h2.756
	v17.42H88.665z"/>
<path fill="#FFFFFF" d="M167.818,111.952c-0.807,0.364-1.846,0.598-3.199,0.598h-3.223v7.592h-2.756v-17.42h5.979
	c1.404,0,2.342,0.13,3.199,0.546c1.508,0.728,2.678,2.574,2.678,4.342C170.496,109.456,169.326,111.276,167.818,111.952z
	 M166.648,105.79c-0.494-0.26-0.807-0.312-1.664-0.312h-3.588v4.264h3.588c0.857,0,1.17-0.052,1.664-0.286
	c0.598-0.312,1.039-1.118,1.039-1.846S167.246,106.154,166.648,105.79z"/>
<path fill="#FFFFFF" d="M189.284,120.142v-10.088l-4.029,10.088l-4.031-10.088v10.088h-2.756v-17.42h2.756l4.031,9.776l4.029-9.776
	h2.756v17.42H189.284z"/>
<path fill="#FFFFFF" d="M30.855,136.713v14.976H28.1v-14.976h-3.979v-2.444h10.764v2.444H30.855z"/>
<path fill="#FFFFFF" d="M50.459,149.063c-0.91,1.716-2.99,2.938-5.122,2.938s-4.212-1.223-5.147-2.938
	c-0.469-1.04-0.78-2.263-0.78-3.614v-11.18h2.756v11.18c0,2.262,1.274,3.744,3.172,3.744c1.898,0,3.172-1.482,3.172-3.744v-11.18
	h2.756v11.18C51.265,146.801,50.953,148.023,50.459,149.063z"/>
<path fill="#FFFFFF" d="M57.375,151.689v-17.42h10.27v2.756h-7.514v4.264h5.07v2.808h-5.07v4.783h8.061v2.809H57.375z"/>
<path fill="#FFFFFF" d="M81.997,150.649c-0.962,0.858-2.314,1.353-3.796,1.353c-2.99,0-5.174-1.769-6.344-4.42l2.626-0.963
	c0.728,1.639,2.08,2.574,3.718,2.574c1.612,0,2.704-1.118,2.704-2.574c0-2.313-2.704-2.704-4.966-3.614
	c-1.04-0.416-3.354-1.456-3.354-4.342c0-3.406,2.314-4.706,5.434-4.706c2.444,0,4.108,1.404,4.967,3.562l-2.444,0.728
	c0,0-0.624-1.482-2.574-1.534c-0.078,0-0.13,0-0.182,0c-1.196,0-2.496,0.468-2.496,1.846c0,0.052,0,0.13,0,0.182
	c0.234,3.224,8.424,1.092,8.424,7.931C83.713,148.258,83.089,149.662,81.997,150.649z"/>
<path fill="#FFFFFF" d="M107.735,151.689l-1.481-1.846c-1.534,1.611-2.86,2.209-4.836,2.209c-3.225,0-5.486-2.079-5.486-5.069
	c0-1.403,0.546-2.574,1.638-3.614c0.494-0.546,0.858-1.04,2.028-1.638c-1.222-1.664-1.586-2.522-1.586-3.796
	c0-2.262,1.769-3.9,4.395-3.9c2.443,0,4.159,1.638,4.159,3.952c0,1.846-0.857,3.068-2.886,4.42l2.522,3.12
	c0.233-0.754,0.416-1.482,0.494-2.262h2.626c-0.183,1.871-0.494,2.99-1.353,4.316l3.483,4.107H107.735z M101.366,143.812
	c-1.769,0.962-2.496,1.897-2.496,3.12c0,1.404,1.222,2.548,2.678,2.548c1.17,0,2.028-0.416,3.068-1.69L101.366,143.812z
	 M102.354,136.35c-0.936,0-1.664,0.676-1.664,1.534c0,0.416,0.13,0.78,0.442,1.274c0.052,0.182,0.286,0.442,0.546,0.806
	c0.052,0.052,0.13,0.182,0.182,0.286c0.183,0.182,0.234,0.26,0.234,0.26c1.353-0.858,1.846-1.534,1.846-2.444
	C103.939,137.025,103.264,136.35,102.354,136.35z"/>
<path fill="#FFFFFF" d="M128.379,136.713v14.976h-2.756v-14.976h-3.979v-2.444h10.764v2.444H128.379z"/>
<path fill="#FFFFFF" d="M146.033,151.689v-7.592h-6.344v7.592h-2.756v-17.42h2.756v7.02h6.344v-7.02h2.756v17.42H146.033z"/>
<path fill="#FFFFFF" d="M165.949,149.063c-0.91,1.716-2.99,2.938-5.123,2.938c-2.131,0-4.211-1.223-5.146-2.938
	c-0.469-1.04-0.781-2.263-0.781-3.614v-11.18h2.756v11.18c0,2.262,1.275,3.744,3.172,3.744c1.898,0,3.172-1.482,3.172-3.744v-11.18
	h2.756v11.18C166.754,146.801,166.443,148.023,165.949,149.063z"/>
<path fill="#FFFFFF" d="M181.732,151.689l-2.809-7.592h-3.303v7.592h-2.756v-17.42h5.746c1.352,0,2.262,0.13,3.121,0.546
	c1.533,0.728,2.625,2.574,2.625,4.342c0,1.846-1.092,3.666-2.703,4.394l3.066,8.138H181.732z M180.51,137.337
	c-0.469-0.26-0.676-0.312-1.586-0.312h-3.303v4.264h3.303c0.857,0,1.145-0.052,1.586-0.286c0.676-0.39,1.092-1.118,1.092-1.846
	S181.186,137.702,180.51,137.337z"/>
<path fill="#FFFFFF" d="M198.527,150.649c-0.963,0.858-2.314,1.353-3.797,1.353c-2.99,0-5.174-1.769-6.344-4.42l2.627-0.963
	c0.727,1.639,2.08,2.574,3.717,2.574c1.613,0,2.705-1.118,2.705-2.574c0-2.313-2.705-2.704-4.967-3.614
	c-1.039-0.416-3.354-1.456-3.354-4.342c0-3.406,2.314-4.706,5.434-4.706c2.443,0,4.107,1.404,4.967,3.562l-2.445,0.728
	c0,0-0.623-1.482-2.574-1.534c-0.078,0-0.129,0-0.182,0c-1.195,0-2.496,0.468-2.496,1.846c0,0.052,0,0.13,0,0.182
	c0.234,3.224,8.424,1.092,8.424,7.931C200.242,148.258,199.619,149.662,198.527,150.649z"/>
<path fill="#FFFFFF" d="M62.418,181.805v-17.42h10.27v2.756h-7.514v4.264h5.07v2.809h-5.07v4.783h8.061v2.809H62.418z"/>
<path fill="#FFFFFF" d="M87.585,181.805l-2.808-5.798l-2.809,5.798H78.85l4.342-8.996l-4.03-8.424h3.12l2.496,5.199l2.496-5.199
	h3.12l-4.082,8.424l4.394,8.996H87.585z"/>
<path fill="#FFFFFF" d="M103.784,182.117c-2.574,0-4.212-0.988-5.33-3.121c-0.78-1.533-1.274-3.744-1.274-5.928
	c0-2.756,0.729-5.512,1.95-7.046c1.04-1.274,2.496-1.95,4.472-1.95c2.626,0,4.265,1.118,5.435,3.563l-2.574,1.092
	c-0.962-1.482-1.534-1.846-2.86-1.846c-1.403,0-2.34,0.624-2.938,2.158c-0.442,1.039-0.676,2.548-0.676,4.029
	c0,1.898,0.416,3.797,1.092,4.889c0.624,0.91,1.403,1.352,2.626,1.352c1.17,0,2.027-0.624,2.704-2.027l2.626,0.987
	C107.996,180.816,106.28,182.117,103.784,182.117z"/>
<path fill="#FFFFFF" d="M116.732,181.805v-17.42h10.27v2.756h-7.514v4.264h5.07v2.809h-5.07v4.783h8.061v2.809H116.732z"/>
<path fill="#FFFFFF" d="M143.563,173.615c-0.805,0.363-1.846,0.598-3.197,0.598h-3.225v7.592h-2.756v-17.42h5.98
	c1.404,0,2.34,0.13,3.197,0.546c1.508,0.728,2.678,2.574,2.678,4.342C146.24,171.119,145.07,172.938,143.563,173.615z
	 M142.393,167.453c-0.494-0.26-0.805-0.313-1.664-0.313h-3.588v4.264h3.588c0.859,0,1.17-0.052,1.664-0.285
	c0.598-0.313,1.041-1.119,1.041-1.847S142.99,167.816,142.393,167.453z"/>
<path fill="#FFFFFF" d="M157.916,166.828v14.977h-2.756v-14.977h-3.979v-2.443h10.764v2.443H157.916z"/>
<path fill="#FFFFFF" d="M52.772,193.799v4.264h5.07v2.809h-5.07v7.592h-2.756v-17.42h10.816v2.756H52.772z"/>
<path fill="#FFFFFF" d="M77.576,208.463l-1.716-4.889h-5.434l-1.716,4.889h-2.938l6.006-17.42h2.73l6.006,17.42H77.576z
	 M73.183,195.879l-1.794,4.889h3.483L73.183,195.879z"/>
<path fill="#FFFFFF" d="M95.906,208.463l-2.809-7.592h-3.302v7.592H87.04v-17.42h5.746c1.352,0,2.262,0.13,3.12,0.546
	c1.534,0.728,2.626,2.574,2.626,4.342c0,1.847-1.092,3.666-2.704,4.394l3.067,8.139H95.906z M94.684,194.111
	c-0.468-0.26-0.676-0.313-1.586-0.313h-3.302v4.264h3.302c0.858,0,1.145-0.052,1.586-0.285c0.677-0.391,1.093-1.119,1.093-1.847
	S95.36,194.475,94.684,194.111z"/>
<path fill="#FFFFFF" d="M116.552,208.463v-10.088l-4.031,10.088l-4.03-10.088v10.088h-2.756v-17.42h2.756l4.03,9.775l4.031-9.775
	h2.756v17.42H116.552z"/>
<path fill="#FFFFFF" d="M127.366,208.463v-17.42h10.27v2.756h-7.514v4.264h5.07v2.809h-5.07v4.783h8.061v2.809H127.366z"/>
<path fill="#FFFFFF" d="M153.886,208.463l-2.809-7.592h-3.301v7.592h-2.756v-17.42h5.746c1.352,0,2.262,0.13,3.119,0.546
	c1.535,0.728,2.627,2.574,2.627,4.342c0,1.847-1.092,3.666-2.705,4.394l3.068,8.139H153.886z M152.663,194.111
	c-0.467-0.26-0.676-0.313-1.586-0.313h-3.301v4.264h3.301c0.859,0,1.145-0.052,1.586-0.285c0.678-0.391,1.094-1.119,1.094-1.847
	S153.341,194.475,152.663,194.111z"/>
<path fill="#FFFFFF" d="M172.632,207.423c-0.963,0.858-2.314,1.353-3.797,1.353c-2.99,0-5.174-1.769-6.344-4.42l2.627-0.963
	c0.727,1.639,2.08,2.574,3.717,2.574c1.613,0,2.705-1.118,2.705-2.574c0-2.313-2.705-2.703-4.967-3.613
	c-1.039-0.416-3.354-1.457-3.354-4.342c0-3.406,2.314-4.707,5.434-4.707c2.443,0,4.107,1.404,4.967,3.563l-2.445,0.729
	c0,0-0.623-1.482-2.574-1.535c-0.078,0-0.129,0-0.182,0c-1.195,0-2.496,0.469-2.496,1.847c0,0.052,0,0.13,0,0.182
	c0.234,3.224,8.424,1.093,8.424,7.931C174.347,205.031,173.724,206.436,172.632,207.423z"/>
<path fill="#FFFFFF" d="M69.998,234.493v-10.088l-4.03,10.088l-4.03-10.088v10.088h-2.756v-17.42h2.756l4.03,9.776l4.03-9.776h2.756
	v17.42H69.998z"/>
<path fill="#FFFFFF" d="M91.083,234.493l-1.716-4.888h-5.434l-1.716,4.888h-2.938l6.006-17.42h2.73l6.006,17.42H91.083z
	 M86.689,221.909l-1.794,4.888h3.483L86.689,221.909z"/>
<path fill="#FFFFFF" d="M109.413,234.493l-2.809-7.592h-3.302v7.592h-2.756v-17.42h5.746c1.352,0,2.262,0.13,3.12,0.546
	c1.534,0.729,2.626,2.574,2.626,4.342c0,1.846-1.092,3.666-2.704,4.395l3.067,8.138H109.413z M108.19,220.141
	c-0.468-0.26-0.676-0.312-1.586-0.312h-3.302v4.265h3.302c0.858,0,1.145-0.053,1.586-0.287c0.677-0.39,1.093-1.117,1.093-1.846
	S108.867,220.506,108.19,220.141z"/>
<path fill="#FFFFFF" d="M128.237,234.493l-4.42-8.242l-1.82,2.263v5.979h-2.756v-17.42h2.756v6.916l5.486-6.916h3.562l-5.382,6.786
	l5.746,10.634H128.237z"/>
<path fill="#FFFFFF" d="M138.299,234.493v-17.42h10.27v2.756h-7.514v4.265h5.07v2.808h-5.07v4.784h8.061v2.808H138.299z"/>
<path fill="#FFFFFF" d="M161.152,219.518v14.976h-2.756v-14.976h-3.979v-2.444h10.764v2.444H161.152z"/>
</svg>
