<?xml version="1.0" encoding="utf-8"?>
<!-- Generator: Adobe Illustrator 12.0.1, SVG Export Plug-In  -->
<!DOCTYPE svg PUBLIC "-//W3C//DTD SVG 1.1//EN" "http://www.w3.org/Graphics/SVG/1.1/DTD/svg11.dtd" [
	<!ENTITY ns_flows "http://ns.adobe.com/Flows/1.0/">
	<!ENTITY ns_svg "http://www.w3.org/2000/svg">
	<!ENTITY ns_xlink "http://www.w3.org/1999/xlink">
]>
<svg  version="1.1" xmlns="&ns_svg;" xmlns:xlink="&ns_xlink;" xmlns:a="http://ns.adobe.com/AdobeSVGViewerExtensions/3.0/"
	 width="194" height="288" viewBox="-0.765 0 194 288" enable-background="new -0.765 0 194 288" xml:space="preserve">
<defs>
</defs>
<path fill="#FFFFFF" d="M0.698,263.408c0,6.289,2.468,12.494,6.946,16.957c4.456,4.473,10.666,6.938,16.954,6.938H167.85
	c6.329,0,12.393-2.465,16.866-6.938c4.456-4.463,7.054-10.638,7.054-16.957V24.57c0-6.257-2.644-12.42-7.054-16.849
	c-4.441-4.441-10.575-7.022-16.866-7.022H24.599c-6.323,0-12.484,2.532-16.954,7.022C3.184,12.181,0.698,18.276,0.698,24.57V263.408
	z"/>
<path fill="#FFFFFF" d="M167.85,1.398H24.599c-6.146,0-12.143,2.483-16.462,6.816c-4.284,4.279-6.739,10.24-6.739,16.355v238.838
	c0,6.194,2.455,12.194,6.739,16.458c4.266,4.286,10.264,6.737,16.462,6.737H167.85c6.217,0,12.029-2.391,16.369-6.737
	c4.354-4.354,6.854-10.353,6.854-16.458V24.57c0-6.024-2.499-11.983-6.854-16.355C179.889,3.882,173.928,1.398,167.85,1.398z"/>
<path d="M167.85,0H24.599C18.085,0,11.724,2.637,7.147,7.228C2.607,11.767,0,18.086,0,24.57v238.838
	c0,6.561,2.607,12.922,7.15,17.447C11.673,285.397,18.034,288,24.599,288H167.85c6.594,0,12.755-2.537,17.354-7.145
	c4.618-4.611,7.267-10.975,7.267-17.447V24.57c0-6.39-2.648-12.708-7.262-17.343C180.613,2.637,174.29,0,167.85,0z M191.072,263.408
	c0,6.105-2.499,12.104-6.854,16.458c-4.34,4.347-10.152,6.737-16.369,6.737H24.599c-6.198,0-12.196-2.451-16.462-6.737
	c-4.284-4.264-6.739-10.264-6.739-16.458V24.57c0-6.115,2.455-12.076,6.739-16.355c4.319-4.333,10.315-6.816,16.462-6.816H167.85
	c6.078,0,12.039,2.483,16.369,6.816c4.354,4.372,6.854,10.331,6.854,16.355V263.408z"/>
<path fill-rule="evenodd" clip-rule="evenodd" fill="#BF2F37" d="M6.65,263.408V24.57c0-4.695,1.938-9.256,5.282-12.551
	c3.376-3.345,7.918-5.127,12.657-5.127h143.27c4.697,0,9.251,1.801,12.577,5.127c3.346,3.327,5.148,7.869,5.148,12.551v238.838
	c0,4.721-1.784,9.328-5.148,12.688c-3.294,3.322-7.894,5.25-12.577,5.25H24.59c-5.924,0-11.593-3.041-14.887-7.959
	C7.554,270.188,6.887,267.148,6.65,263.408"/>
<path fill-rule="evenodd" clip-rule="evenodd" fill="#FFFFFF" d="M12.648,87.977v175.432c0,3.199,1.162,6.217,3.443,8.498
	c2.276,2.279,5.297,3.441,8.498,3.441h143.27c3.127,0,6.082-1.147,8.313-3.311c2.327-2.263,3.647-5.399,3.647-8.629V87.977H12.648"
	/>
<path fill-rule="evenodd" clip-rule="evenodd" fill="#FFFFFF" d="M179.819,24.57L179.819,24.57c0-3.153-1.32-6.166-3.55-8.395
	c-2.23-2.229-5.237-3.521-8.41-3.521H62.391v71.563h117.429V24.57"/>
<path fill-rule="evenodd" clip-rule="evenodd" fill="#FFFFFF" d="M46.535,29.753c3.51,0,4.728,4.8,4.728,18.477
	c0,6.656-0.217,9.738-0.935,13.677c-0.494,3.08-1.86,4.721-3.793,4.721c-1.934,0-3.29-1.641-3.794-4.721
	c-0.714-3.868-0.93-7.088-0.93-13.751c0-6.582,0.216-9.879,0.93-13.672C43.314,31.407,44.602,29.753,46.535,29.753 M46.535,23.529
	c-3.007,0-5.441,1.004-6.87,2.932c-1.936,2.438-3.366,7.232-3.652,12.243c-0.216,2.869-0.285,6.375-0.285,9.451
	c0,9.813,0.502,13.893,2.076,18.401c1.575,4.296,4.363,6.314,8.731,6.314c4.369,0,7.16-2.019,8.739-6.314
	c1.572-4.439,2.072-8.663,2.072-18.401c0-9.669-0.5-13.891-2.072-18.323C53.695,25.457,50.972,23.529,46.535,23.529z M31.796,24.314
	h-5.942v23.841L17.62,24.314h-5.938v47.765h5.938V43.716l9.167,28.363h5.009V24.314z"/>
<path fill-rule="evenodd" clip-rule="evenodd" fill="#BF2F37" d="M134.833,263.192c-0.243,0.16-0.604,0.228-0.893,0.228
	c-0.78,0-1.451-0.192-1.896-0.857c-0.228-0.353-0.288-0.727-0.304-1.138c-0.003-0.063-0.021-0.091-0.026-0.158
	c-0.014-0.091,0.013-0.188,0.026-0.286l2.218-7.518H57.817l1.987,7.518c0.048,0.049,0.098,0.079,0.113,0.14
	c0.048,0.098,0.08,0.195,0.11,0.305c-0.047,0.43-0.145,0.824-0.414,1.18c-0.473,0.657-1.129,0.846-1.909,0.815
	c-0.255-0.021-0.561-0.086-0.765-0.228l-22.784-15.7l22.784-15.489c0.319-0.225,0.541-0.334,0.938-0.408
	c0.672-0.148,1.401,0.379,1.786,0.918c0.219,0.313,0.333,0.652,0.363,1.045c-0.03,0.128-0.03,0.279-0.092,0.402
	c-0.034,0.098-0.084,0.176-0.132,0.25l-1.987,7.313h76.142l-2.218-7.313c-0.014-0.092-0.026-0.206-0.026-0.297
	c0-0.125,0.023-0.242,0.026-0.355c0.011-0.359,0.084-0.676,0.27-0.996c0.354-0.602,1.213-1.157,1.948-0.957
	c0.316,0.086,0.604,0.223,0.874,0.398l22.785,15.489L134.833,263.192"/>
<path fill="#BF2F37" d="M77.582,63.553c-0.997,0.904-2.47,1.474-4.132,1.474c-4.465,0-6.792-2.899-7.03-8.503h4.133
	c0,1.235,0.096,1.663,0.333,2.327c0.332,1.234,1.33,2.043,2.564,2.043c1.568,0,2.566-1.234,2.566-3.229
	c0-2.802-0.998-5.179-3.469-8.075c-1.425-1.661-2.47-2.897-2.802-3.325c-1.759-2.137-2.566-4.37-2.566-6.603
	c0-4.37,2.708-7.457,6.509-7.457c3.894,0,6.032,2.421,6.459,7.457h-4.131c-0.097-2.47-0.762-3.466-2.234-3.466
	c-1.566,0-2.47,1.329-2.47,3.466c0,1.474,0.57,2.565,2.232,4.37c3.468,3.896,4.037,4.702,5.036,6.698
	c0.901,1.993,1.566,4.702,1.566,6.935S79.151,62.225,77.582,63.553z"/>
<path fill="#BF2F37" d="M88.27,36.765v27.692h-4.036V36.765h-3.895v-4.133h12.063v4.133H88.27z"/>
<path fill="#BF2F37" d="M107.127,50.395c0,5.654-0.381,14.632-7.363,14.632c-6.934,0-7.361-8.645-7.361-14.297
	c0-0.809,0-1.568,0-2.233c0-0.522,0-1.141,0-1.756c0-5.75,0.333-14.536,7.361-14.536c6.982,0,7.363,8.691,7.363,14.392
	c0,0.665,0,1.332,0,1.9C107.127,49.065,107.127,49.684,107.127,50.395z M99.764,36.337c-2.992,0-3.229,6.507-3.229,10.164
	c0,0.854,0,1.568,0,1.995c0,0.379,0,1.093,0,1.947c0,3.705,0.237,10.45,3.229,10.45c2.851,0,3.137-6.698,3.137-10.401
	c0-0.857,0-1.568,0-1.996C102.9,45.93,102.805,36.337,99.764,36.337z"/>
<path fill="#BF2F37" d="M115.771,50.585h-2.232v13.872h-4.037V32.632h6.27c1.758,0,3.42,0.427,4.466,1.331
	c1.757,1.471,2.992,4.463,2.992,7.931C123.229,47.165,120.237,50.585,115.771,50.585z M115.771,36.765h-2.232v9.736h2.232
	c2.422,0,3.325-1.233,3.325-4.607C119.097,38.33,118.005,36.765,115.771,36.765z"/>
<path fill="#BF2F37" d="M130.306,50.585h-2.232v13.872h-4.038V32.632h6.271c1.759,0,3.42,0.427,4.465,1.331
	c1.758,1.471,2.994,4.463,2.994,7.931C137.765,47.165,134.771,50.585,130.306,50.585z M130.306,36.765h-2.232v9.736h2.232
	c2.423,0,3.326-1.233,3.326-4.607C133.632,38.33,132.538,36.765,130.306,36.765z"/>
<path fill="#BF2F37" d="M138.57,64.457V32.632h4.038v31.825H138.57z"/>
<path fill="#BF2F37" d="M156.335,64.457L150.112,45.6v18.857h-4.038V32.632h4.038l5.652,15.864V32.632h4.039v31.825H156.335z"/>
<path fill="#BF2F37" d="M175.431,61.32c-0.665,2.232-2.756,3.706-5.652,3.706c-3.278,0-5.179-1.236-6.175-4.275
	c-0.998-2.896-1.33-5.796-1.33-12.255c0-6.365,0.332-9.167,1.474-12.159c0.994-2.946,2.895-4.133,6.031-4.133
	c3.562,0,5.652,2.232,6.126,6.126h-4.035c-0.19-1.329-0.904-1.993-1.996-1.993c-1.473,0-2.47,0.997-2.804,3.088
	c-0.428,2.564-0.664,4.702-0.664,9.071c0,4.37,0.236,6.459,0.571,9.168c0.427,2.088,1.233,3.229,2.657,3.229
	c1.474,0,2.235-1.329,2.235-3.467v-4.229h-1.9v-4.133h5.936v8.122C175.904,58.66,175.67,60.324,175.431,61.32z"/>
<path fill="#BF2F37" d="M26.581,131.938h-4.139c0.333-11.609,2.236-20.126,6.138-27.738h-9.611v-4.14h13.75v4.14
	C28.484,112.812,26.914,119.949,26.581,131.938z"/>
<path fill="#BF2F37" d="M53.13,131.938l-1.808-8.517h-5.234l-1.808,8.517h-4.14l6.519-31.878h4.092l6.613,31.878H53.13z
	 M48.753,110.909l-1.761,8.374h3.426L48.753,110.909z"/>
<path fill="#BF2F37" d="M72.304,131.938V113.05l-3.806,11.942l-3.901-11.942v18.889h-4.045v-31.878h4.045l3.901,11.276l3.806-11.276
	h3.997v31.878H72.304z"/>
<path fill="#BF2F37" d="M89.67,119.092v-4.14h9.944v4.14H89.67z"/>
<path fill="#BF2F37" d="M114.363,132.509l-2.236-3.473c3.568-3.045,5.947-6.042,7.612-10.182c-0.238,0.095-0.429,0.095-0.809,0.095
	c-1.999,0-3.901-0.904-5.139-2.426c-0.999-1.38-1.665-4.282-1.665-7.185c0-3.806,0.903-6.804,2.474-8.278
	c1.237-1,2.665-1.57,4.473-1.57c4.377,0,6.709,3.378,6.709,9.516C125.782,118.521,121.976,126.324,114.363,132.509z
	 M120.738,104.628c-0.428-0.667-1.094-1-1.808-1c-1.855,0-2.665,1.903-2.665,6.186c0,3.425,0.904,4.996,2.665,4.996
	c1.903,0,2.712-1.665,2.712-5.472C121.643,106.864,121.404,105.294,120.738,104.628z"/>
<path fill="#BF2F37" d="M150.332,131.938l-1.809-8.517h-5.233l-1.808,8.517h-4.14l6.519-31.878h4.092l6.613,31.878H150.332z
	 M145.954,110.909l-1.76,8.374h3.426L145.954,110.909z"/>
<path fill="#BF2F37" d="M169.506,131.938V113.05l-3.807,11.942l-3.901-11.942v18.889h-4.044v-31.878h4.044l3.901,11.276
	l3.807-11.276h3.996v31.878H169.506z"/>
<path fill="#BF2F37" d="M32.826,168.547v7.945h-4.044v-7.945H18.743v-4.234l9.706-19.698h4.377v20.125h1.666v3.807H32.826z
	 M28.782,152.322l-5.995,12.418h5.995V152.322z"/>
<path fill="#BF2F37" d="M50.114,162.6h-2.236v13.893h-4.044v-31.877h6.28c1.761,0,3.426,0.428,4.473,1.333
	c1.76,1.475,2.997,4.472,2.997,7.945C57.584,159.174,54.587,162.6,50.114,162.6z M50.114,148.754h-2.236v9.754h2.236
	c2.427,0,3.33-1.237,3.33-4.615C53.444,150.324,52.351,148.754,50.114,148.754z"/>
<path fill="#BF2F37" d="M72.523,176.492v-18.889l-3.806,11.942l-3.901-11.942v18.889h-4.045v-31.877h4.045l3.901,11.276
	l3.806-11.276h3.997v31.877H72.523z"/>
<path fill="#BF2F37" d="M89.895,163.646v-4.14h9.943v4.14H89.895z"/>
<path fill="#BF2F37" d="M123.439,175.493c-1.143,0.999-2.712,1.57-4.378,1.57c-4.329,0-6.708-3.378-6.708-9.516
	c0-9.516,3.807-17.462,11.419-23.504l2.236,3.473c-3.568,2.902-5.947,6.043-7.613,10.183c0.571-0.19,1.095-0.238,1.618-0.238
	c1.761,0,3.235,0.951,4.187,2.474c1.047,1.57,1.809,4.378,1.809,7.28C126.009,171.021,125.104,174.019,123.439,175.493z
	 M119.205,161.743c-1.903,0-2.712,1.665-2.712,5.472c0,2.331,0.237,3.901,0.903,4.71c0.429,0.523,1.095,0.999,1.809,0.999
	c0.856,0,1.522-0.476,1.998-1.237c0.333-0.809,0.666-3.045,0.666-5.043C121.869,163.313,120.965,161.743,119.205,161.743z"/>
<path fill="#BF2F37" d="M147.321,162.6h-2.236v13.893h-4.044v-31.877h6.28c1.761,0,3.426,0.428,4.473,1.333
	c1.76,1.475,2.997,4.472,2.997,7.945C154.791,159.174,151.794,162.6,147.321,162.6z M147.321,148.754h-2.236v9.754h2.236
	c2.427,0,3.33-1.237,3.33-4.615C150.651,150.324,149.558,148.754,147.321,148.754z"/>
<path fill="#BF2F37" d="M169.73,176.492v-18.889l-3.806,11.942l-3.901-11.942v18.889h-4.045v-31.877h4.045l3.901,11.276
	l3.806-11.276h3.997v31.877H169.73z"/>
<path fill="#BF2F37" d="M38.618,219.248h-3.474l-2.997-17.89l-2.902,17.89h-3.474l-3.711-31.878h4.14l1.665,14.749l2.569-14.749
	h3.473l2.569,14.749l1.713-14.749h4.14L38.618,219.248z"/>
<path fill="#BF2F37" d="M46.801,219.248V187.37h11.752v4.14h-7.707v8.184h5.138v4.234h-5.138v11.182h8.136v4.139H46.801z"/>
<path fill="#BF2F37" d="M64.024,219.248V187.37h11.752v4.14h-7.707v8.184h5.138v4.234h-5.138v11.182h8.136v4.139H64.024z"/>
<path fill="#BF2F37" d="M91.097,219.248l-4.282-15.082l-1.522,3.092v11.99h-4.044V187.37h4.044v10.183l4.996-10.183h4.71
	l-5.233,10.943l5.662,20.935H91.097z"/>
<path fill="#BF2F37" d="M111.461,217.678c-0.904,1-2.475,1.57-4.234,1.57h-6.614V187.37h6.614c2.235,0,3.806,0.761,4.805,2.331
	c0.762,1.237,1.428,3.379,1.666,5.377c0.428,2.569,0.666,5.471,0.666,8.184C114.363,210.731,113.363,215.537,111.461,217.678z
	 M109.891,196.077c-0.333-3.474-0.999-4.567-2.664-4.567h-2.569v23.6h2.569c1.427,0,2.235-1,2.664-3.379
	c0.095-1.094,0.333-4.662,0.333-7.47C110.224,201.93,109.985,198.313,109.891,196.077z"/>
<path fill="#BF2F37" d="M130.825,219.248l-1.809-8.517h-5.233l-1.808,8.517h-4.14l6.519-31.878h4.092l6.613,31.878H130.825z
	 M126.447,198.219l-1.76,8.373h3.426L126.447,198.219z"/>
<path fill="#BF2F37" d="M147.572,204.832v14.416h-4.092v-14.416l-6.519-17.462h4.378l4.234,11.181l4.14-11.181h4.377
	L147.572,204.832z"/>
<path fill="#BF2F37" d="M167.841,218.344c-0.999,0.904-2.475,1.475-4.14,1.475c-4.473,0-6.804-2.902-7.041-8.516h4.139
	c0,1.236,0.096,1.665,0.333,2.331c0.333,1.237,1.332,2.046,2.569,2.046c1.57,0,2.569-1.237,2.569-3.235
	c0-2.808-0.999-5.187-3.474-8.089c-1.427-1.665-2.474-2.902-2.807-3.33c-1.761-2.141-2.569-4.377-2.569-6.613
	c0-4.377,2.712-7.471,6.519-7.471c3.901,0,6.042,2.428,6.471,7.471h-4.14c-0.095-2.475-0.761-3.474-2.236-3.474
	c-1.57,0-2.474,1.333-2.474,3.474c0,1.475,0.57,2.568,2.236,4.377c3.473,3.901,4.044,4.711,5.043,6.709
	c0.904,1.998,1.57,4.71,1.57,6.946S169.411,217.012,167.841,218.344z"/>
</svg>
