<?xml version="1.0" encoding="utf-8"?>
<!-- Generator: Adobe Illustrator 12.0.1, SVG Export Plug-In  -->
<!DOCTYPE svg PUBLIC "-//W3C//DTD SVG 1.1//EN" "http://www.w3.org/Graphics/SVG/1.1/DTD/svg11.dtd" [
	<!ENTITY ns_flows "http://ns.adobe.com/Flows/1.0/">
	<!ENTITY ns_svg "http://www.w3.org/2000/svg">
	<!ENTITY ns_xlink "http://www.w3.org/1999/xlink">
]>
<svg  version="1.1" xmlns="&ns_svg;" xmlns:xlink="&ns_xlink;" xmlns:a="http://ns.adobe.com/AdobeSVGViewerExtensions/3.0/"
	 width="194" height="288" viewBox="-0.765 0 194 288" enable-background="new -0.765 0 194 288" xml:space="preserve">
<defs>
</defs>
<path fill="#FFFFFF" d="M0.698,263.41c0,6.29,2.469,12.494,6.943,16.957c4.46,4.474,10.666,6.935,16.954,6.935h143.258
	c6.326,0,12.39-2.461,16.864-6.935c4.457-4.463,7.055-10.64,7.055-16.957V24.568c0-6.258-2.646-12.42-7.055-16.848
	c-4.441-4.441-10.574-7.021-16.864-7.021H24.596c-6.321,0-12.48,2.534-16.954,7.021c-4.461,4.455-6.943,10.558-6.943,16.848V263.41z
	"/>
<path d="M24.596,0C18.084,0,11.725,2.635,7.147,7.226C2.605,11.763,0,18.083,0,24.568V263.41c0,6.563,2.605,12.919,7.15,17.447
	c4.52,4.54,10.882,7.143,17.445,7.143h143.258c6.591,0,12.753-2.537,17.355-7.143c4.615-4.615,7.262-10.977,7.262-17.447V24.568
	c0-6.389-2.646-12.709-7.26-17.342C180.617,2.635,174.291,0,167.854,0H24.596z M8.138,279.87c-4.286-4.267-6.741-10.268-6.741-16.46
	V24.568c0-6.116,2.455-12.077,6.738-16.354c4.318-4.332,10.317-6.817,16.461-6.817h143.258c6.072,0,12.035,2.485,16.367,6.817
	c4.354,4.37,6.853,10.331,6.853,16.354V263.41c0,6.104-2.498,12.106-6.853,16.46c-4.337,4.343-10.153,6.732-16.367,6.732H24.596
	C18.4,286.603,12.401,284.153,8.138,279.87z"/>
<path fill-rule="evenodd" clip-rule="evenodd" fill="#BF2F37" d="M6.648,263.41V24.568c0-4.697,1.939-9.256,5.284-12.549
	c3.374-3.347,7.913-5.128,12.657-5.128h143.269c4.7,0,9.254,1.8,12.582,5.128c3.344,3.326,5.145,7.868,5.145,12.549V263.41
	c0,4.725-1.784,9.329-5.145,12.685c-3.296,3.323-7.896,5.254-12.582,5.254H24.59c-5.925,0-11.594-3.039-14.889-7.96
	C7.554,270.191,6.886,267.147,6.648,263.41"/>
<path fill-rule="evenodd" clip-rule="evenodd" fill="#FFFFFF" d="M12.647,87.977V263.41c0,3.196,1.162,6.22,3.442,8.5
	c2.277,2.28,5.301,3.438,8.5,3.438h143.269c3.126,0,6.086-1.146,8.315-3.313c2.326-2.259,3.649-5.396,3.649-8.625V87.977H12.647"/>
<path fill="#FFFFFF" d="M29.301,84.751c-5.664,0-9.024-4.752-9.024-10.032h4.512c0,2.688,1.345,5.52,4.513,5.52
	c2.496,0,4.512-2.256,4.512-4.848c0-1.824-0.672-3.168-2.592-4.656c-0.672-0.672,1.151,0.576-5.424-3.84
	c-2.593-1.776-3.937-4.272-3.937-7.104c0-4.608,3.601-8.352,8.208-8.352c4.561,0,8.017,3.504,8.16,8.352h-4.416
	c-0.096-2.256-1.68-3.696-3.744-3.696c-2.112,0-3.792,1.584-3.792,3.696c0,1.584,0.672,2.496,3.024,3.84
	c6.191,3.6,8.928,7.104,8.928,11.76C38.229,80.575,34.245,84.751,29.301,84.751z"/>
<path fill="#FFFFFF" d="M49.75,56.287v27.888h-4.656V56.287h-5.856v-4.272h16.368v4.272H49.75z"/>
<path fill="#FFFFFF" d="M74.564,79.231c-1.584,3.792-3.936,5.52-7.536,5.52c-3.84,0-6.096-1.728-7.68-5.52
	c-1.344-3.168-1.824-6.24-1.824-11.184c0-4.848,0.48-8.112,1.824-11.184c1.68-3.84,3.937-5.424,7.68-5.424
	c3.696,0,5.952,1.584,7.536,5.52c1.345,3.168,1.824,6.24,1.824,11.088C76.388,72.991,75.909,76.159,74.564,79.231z M70.964,60.031
	c-0.816-2.832-2.016-4.08-3.937-4.08c-2.063,0-3.312,1.248-4.079,3.984c-0.769,2.448-1.009,4.608-1.009,8.208
	c0,3.504,0.336,5.52,1.009,8.112c0.768,2.736,2.016,3.984,4.079,3.984c1.921,0,3.12-1.248,3.937-3.984
	c0.768-2.592,1.008-4.512,1.008-8.208C71.972,64.447,71.636,62.383,70.964,60.031z"/>
<path fill="#FFFFFF" d="M90.501,70.063h-4.992v14.112h-4.608v-32.16h9.601c5.04,0,8.447,3.6,8.447,9.024
	C98.948,66.895,95.925,70.063,90.501,70.063z M90.261,56.527h-4.752v9.12h4.752c2.688,0,4.176-1.68,4.176-4.608
	C94.437,58.351,92.757,56.527,90.261,56.527z"/>
<path fill="#FFFFFF" d="M111.044,70.063h-4.992v14.112h-4.607v-32.16h9.6c5.041,0,8.447,3.6,8.447,9.024
	C119.491,66.895,116.468,70.063,111.044,70.063z M110.804,56.527h-4.752v9.12h4.752c2.688,0,4.176-1.68,4.176-4.608
	C114.979,58.351,113.3,56.527,110.804,56.527z"/>
<path fill="#FFFFFF" d="M121.987,84.175v-32.16h4.512v32.16H121.987z"/>
<path fill="#FFFFFF" d="M146.228,84.175l-9.936-21.552v21.552h-4.609v-32.16h4.609l8.832,19.296V52.015h4.607v32.16H146.228z"/>
<path fill="#FFFFFF" d="M171.282,80.239c-1.248,2.784-3.84,4.512-7.104,4.512c-3.84,0-6.672-1.92-8.256-5.52
	c-1.01-2.4-1.682-6.912-1.682-11.088c0-4.512,0.336-7.776,1.488-10.848c1.105-3.36,4.369-5.856,8.113-5.856
	c4.607,0,8.111,3.408,8.352,8.16h-4.607c-0.145-2.16-1.584-3.648-3.842-3.648c-1.584,0-2.832,0.816-3.646,2.4
	c-0.865,1.584-1.441,5.184-1.441,9.024c0,2.688,0.24,5.52,0.672,8.016c0.674,3.12,2.258,4.848,4.754,4.848
	c2.352,0,3.504-1.584,3.504-4.992v-2.112h-3.648v-4.512h8.256v6.624C172.194,77.503,171.954,78.895,171.282,80.239z"/>
<path fill="#FFFFFF" d="M90.067,48.509l-9.936-21.552v21.552h-4.608v-32.16h4.608l8.832,19.296V16.349h4.607v32.16H90.067z"/>
<path fill="#FFFFFF" d="M115.123,43.565c-1.584,3.792-3.936,5.52-7.536,5.52c-3.84,0-6.096-1.728-7.68-5.52
	c-1.344-3.168-1.824-6.24-1.824-11.184c0-4.848,0.48-8.112,1.824-11.184c1.68-3.84,3.937-5.424,7.68-5.424
	c3.696,0,5.952,1.584,7.536,5.52c1.345,3.168,1.824,6.24,1.824,11.088C116.947,37.325,116.468,40.493,115.123,43.565z
	 M111.523,24.365c-0.816-2.832-2.016-4.08-3.937-4.08c-2.063,0-3.312,1.248-4.079,3.984c-0.769,2.448-1.009,4.608-1.009,8.208
	c0,3.504,0.336,5.52,1.009,8.112c0.768,2.736,2.016,3.984,4.079,3.984c1.921,0,3.12-1.248,3.937-3.984
	c0.768-2.592,1.008-4.512,1.008-8.208C112.531,28.781,112.195,26.717,111.523,24.365z"/>
<path fill-rule="evenodd" clip-rule="evenodd" fill="#BF2F37" d="M134.832,263.194c-0.242,0.16-0.604,0.226-0.893,0.226
	c-0.78,0-1.45-0.19-1.896-0.857c-0.228-0.351-0.288-0.727-0.303-1.136c-0.004-0.065-0.022-0.093-0.027-0.158
	c-0.014-0.093,0.014-0.19,0.027-0.288l2.217-7.518H57.816l1.988,7.518c0.047,0.049,0.098,0.081,0.112,0.142
	c0.049,0.098,0.081,0.195,0.111,0.305c-0.046,0.43-0.144,0.824-0.414,1.18c-0.474,0.655-1.129,0.846-1.91,0.813
	c-0.255-0.019-0.56-0.084-0.764-0.226l-22.784-15.702l22.784-15.487c0.318-0.226,0.541-0.335,0.938-0.409
	c0.671-0.148,1.401,0.377,1.787,0.916c0.218,0.315,0.332,0.655,0.362,1.048c-0.03,0.127-0.03,0.276-0.093,0.401
	c-0.033,0.098-0.083,0.177-0.13,0.251l-1.988,7.313h76.142l-2.217-7.313c-0.014-0.093-0.027-0.207-0.027-0.297
	c0-0.126,0.023-0.242,0.027-0.355c0.01-0.36,0.084-0.677,0.27-0.999c0.354-0.6,1.213-1.155,1.947-0.955
	c0.316,0.086,0.604,0.223,0.874,0.399l22.786,15.487L134.832,263.194"/>
<path fill="#BF2F37" d="M70.646,147.101l-3.96-11.281h-12.54l-3.96,11.281h-6.78l13.86-40.201h6.3l13.86,40.201H70.646z
	 M60.506,118.06l-4.14,11.28h8.04L60.506,118.06z"/>
<path fill="#BF2F37" d="M103.706,147.101l-15.361-27.241v27.241h-6.359v-40.201h6.359l14.642,25.681v-25.681h6.359v40.201H103.706z"
	/>
<path fill="#BF2F37" d="M135.087,129.58v17.521h-6.361V129.58l-14.1-22.681h7.619l9.602,15.54l9.719-15.54h7.5L135.087,129.58z"/>
<path fill="#BF2F37" d="M57.657,174.54v34.561h-6.36V174.54h-9.181v-5.641h24.841v5.641H57.657z"/>
<path fill="#BF2F37" d="M71.396,209.101v-40.201h6.48v40.201H71.396z"/>
<path fill="#BF2F37" d="M110.937,209.101v-23.281l-9.301,23.281l-9.3-23.281v23.281h-6.36v-40.201h6.36l9.3,22.561l9.301-22.561
	h6.359v40.201H110.937z"/>
<path fill="#BF2F37" d="M125.396,209.101v-40.201h23.699v6.36h-17.34v9.841h11.701v6.479h-11.701v11.04h18.6v6.48H125.396z"/>
</svg>
