<?xml version="1.0" encoding="utf-8"?>
<!-- Generator: Adobe Illustrator 12.0.1, SVG Export Plug-In  -->
<!DOCTYPE svg PUBLIC "-//W3C//DTD SVG 1.1//EN" "http://www.w3.org/Graphics/SVG/1.1/DTD/svg11.dtd" [
	<!ENTITY ns_flows "http://ns.adobe.com/Flows/1.0/">
	<!ENTITY ns_svg "http://www.w3.org/2000/svg">
	<!ENTITY ns_xlink "http://www.w3.org/1999/xlink">
]>
<svg  version="1.1" xmlns="&ns_svg;" xmlns:xlink="&ns_xlink;" xmlns:a="http://ns.adobe.com/AdobeSVGViewerExtensions/3.0/"
	 width="288" height="194" viewBox="0 -0.768 288 194" enable-background="new 0 -0.768 288 194" xml:space="preserve">
<defs>
</defs>
<path fill="#FFFFFF" d="M0.698,167.883V24.573c0-13.154,10.729-23.875,23.883-23.875h238.837c13.153,0,23.883,10.721,23.883,23.875
	v143.31c0,13.154-10.729,23.883-23.883,23.883H24.582C11.591,191.766,0.698,180.871,0.698,167.883"/>
<path d="M0,167.883h1.396V24.573c0-12.777,10.402-23.177,23.185-23.177h238.837c6.176,0,11.994,2.412,16.381,6.798
	c4.387,4.387,6.804,10.203,6.804,16.379v143.31c0,6.176-2.417,11.992-6.804,16.381c-4.387,4.387-10.205,6.803-16.381,6.803H24.582
	c-12.568,0-23.185-10.615-23.185-23.184H0c0,13.322,11.258,24.582,24.582,24.582h238.837c6.55,0,12.715-2.563,17.368-7.213
	c4.651-4.652,7.213-10.82,7.213-17.369V24.573c0-6.547-2.562-12.712-7.213-17.366C276.134,2.559,269.969,0,263.419,0H24.582
	C11.026,0,0,11.021,0,24.573V167.883z"/>
<path fill-rule="evenodd" clip-rule="evenodd" fill="#BF2F37" d="M6.667,167.807V24.655c0.041-9.87,8.14-17.928,17.991-17.988
	H263.34c9.858,0.061,17.938,8.118,17.993,17.988v143.151c-0.055,9.842-8.135,17.955-17.993,17.988H24.658
	C14.807,185.762,6.708,177.648,6.667,167.807"/>
<path fill="#FFFFFF" d="M263.252,13.64H84.391v61.421H13.643v92.658c0.035,6.143,4.957,11.068,11.103,11.104h238.507
	c6.119-0.035,11.108-4.961,11.103-11.104V24.748C274.36,18.6,269.371,13.678,263.252,13.64z"/>
<path fill="#FFFFFF" d="M39.397,63.915l-15.36-27.24v27.24h-6.36v-40.2h6.36l14.64,25.68v-25.68h6.36v40.2H39.397z"/>
<path fill="#FFFFFF" d="M74.917,60.135c-2.28,3.06-5.52,4.5-9.72,4.5c-5.64,0-9.18-2.28-11.58-7.2c-1.68-3.42-2.82-8.76-2.82-13.56
	c0-6.6,1.68-12.54,4.38-16.38c2.4-3.06,5.64-4.5,10.26-4.5c5.1,0,8.64,2.28,11.16,7.2c1.68,3.54,2.7,8.64,2.7,13.68
	C79.298,50.235,77.738,56.595,74.917,60.135z M70.538,32.595c-1.26-2.1-2.82-2.94-5.22-3.12c-0.12,0-0.24,0-0.36,0
	c-2.88,0-4.8,1.56-6.12,4.98c-1.02,2.4-1.56,6.06-1.56,9.42c0,4.26,0.84,8.64,2.4,11.16c1.26,2.1,2.94,3.12,5.52,3.12
	c2.94,0,4.8-1.56,6.18-5.1c0.84-2.1,1.56-6.06,1.56-9.18C72.938,39.375,72.098,35.295,70.538,32.595z"/>
<path fill="#BF2F37" d="M99.222,64.637c-7.08,0-11.28-5.94-11.28-12.541h5.64c0,3.36,1.68,6.9,5.64,6.9c3.12,0,5.64-2.82,5.64-6.06
	c0-2.28-0.84-3.96-3.24-5.82c-0.84-0.84,1.44,0.72-6.78-4.8c-3.24-2.22-4.92-5.34-4.92-8.88c0-5.76,4.5-10.44,10.26-10.44
	c5.7,0,10.02,4.38,10.2,10.44h-5.52c-0.12-2.82-2.1-4.62-4.68-4.62c-2.64,0-4.74,1.98-4.74,4.62c0,1.98,0.84,3.12,3.78,4.8
	c7.74,4.5,11.16,8.88,11.16,14.7C110.382,59.417,105.402,64.637,99.222,64.637z"/>
<path fill="#BF2F37" d="M124.182,29.056v34.86h-5.82v-34.86h-7.32v-5.34h20.46v5.34H124.182z"/>
<path fill="#BF2F37" d="M147.822,63.917l-2.82-10.98h-8.64l-2.64,10.98h-5.82l10.021-40.2h5.64l10.021,40.2H147.822z
	 M140.622,35.716l-2.82,11.58h5.76L140.622,35.716z"/>
<path fill="#BF2F37" d="M174.281,63.917l-12.42-26.94v26.94h-5.761v-40.2h5.761l11.039,24.12v-24.12h5.76v40.2H174.281z"/>
<path fill="#BF2F37" d="M199.721,62.057c-1.44,1.32-3.42,1.86-5.641,1.86h-11.16v-40.2h10.26c3.42,0,5.101,0.42,6.541,1.56
	c2.399,1.68,4.08,4.8,4.799,8.88c0.541,2.94,0.961,6.48,0.961,9.6C205.48,53.057,203.62,58.997,199.721,62.057z M198.7,33.436
	c-0.96-2.82-2.64-4.08-5.22-4.08h-4.801v28.92h4.801c3.42,0,5.22-2.7,5.82-5.76c0.239-2.58,0.539-5.4,0.539-8.46
	C199.84,39.496,199.42,35.116,198.7,33.436z"/>
<path fill="#BF2F37" d="M208.899,63.917v-40.2h5.64v40.2H208.899z"/>
<path fill="#BF2F37" d="M237.1,63.917l-12.42-26.94v26.94h-5.761v-40.2h5.761l11.039,24.12v-24.12h5.76v40.2H237.1z"/>
<path fill="#BF2F37" d="M267.818,58.997c-1.561,3.48-4.801,5.64-8.879,5.64c-4.801,0-8.342-2.4-10.32-6.9
	c-1.26-3-2.102-8.64-2.102-13.86c0-5.64,0.42-9.72,1.861-13.56c1.379-4.2,5.459-7.32,10.139-7.32c5.762,0,10.141,4.26,10.441,10.2
	h-5.76c-0.182-2.7-1.98-4.56-4.801-4.56c-1.98,0-3.539,1.02-4.561,3c-1.08,1.98-1.799,6.48-1.799,11.28c0,3.36,0.299,6.9,0.84,10.02
	c0.84,3.9,2.82,6.06,5.939,6.06c2.939,0,4.381-1.98,4.381-6.24v-2.64h-4.561v-5.64h10.32v8.28
	C268.959,55.577,268.658,57.316,267.818,58.997z"/>
<path fill="#BF2F37" d="M104.661,104.598c-7.04,0-11.36-5.56-11.36-13.919c0-8.48,4.32-13.84,11.36-13.84
	c4.32,0,8.28,2.16,10.36,5.92l-4.24,2.28c-0.76-1.12-1.12-1.52-1.88-2c-1.04-0.84-2.8-1.4-4.24-1.4c-4.88,0-6.48,4.8-6.48,8.92
	c0,5.84,2.44,9.241,6.48,9.241c2.44,0,3.76-0.841,6.12-3.401l4.24,2.28C113.061,102.438,108.98,104.598,104.661,104.598z"/>
<path fill="#BF2F37" d="M139.9,104.118l-2.64-6.319h-11.68l-2.6,6.319h-5.28l11.28-26.8h4.88l11.2,26.8H139.9z M131.42,83.998
	l-3.76,9.04h7.52L131.42,83.998z"/>
<path fill="#BF2F37" d="M164.939,104.118l-4.32-10.52h-7.16v10.52h-4.799v-26.8h12.319c1.96,0,3.2,0.28,4.601,1.12
	c2.56,1.4,4.16,4.04,4.16,7.08c0,3-1.601,5.64-4.36,7.12l4.92,11.48H164.939z M161.06,82.118h-7.601v6.68h7.601
	c2.36,0,3.88-1.32,3.88-3.28C164.939,83.438,163.42,82.118,161.06,82.118z"/>
<path fill="#BF2F37" d="M190.939,102.598c-1.881,1.16-4.32,1.801-6.801,1.801c-4.6,0-8.08-1.68-11.08-5.16l3.841-3
	c2,2.32,4.159,3.359,7.159,3.359c3.4,0,5.84-1.479,5.84-3.479c0-1.04-0.559-1.88-1.68-2.44c-0.959-0.36-2-0.76-3.199-1.04
	l-1.24-0.36l-1.24-0.28l-1.279-0.4c-2.761-0.64-4.16-1.32-5.281-2.6c-1.119-1.24-1.68-2.84-1.68-4.52c0-4.44,3.76-7.44,9.2-7.44
	c3.96,0,7.24,1.32,9.96,4.12l-3.561,3.2c-1.68-1.76-3.879-2.64-6.399-2.64c-2.72,0-4.319,1.04-4.319,2.76
	c0,1.48,0.92,2.16,4.239,2.92c3.56,0.72,5.921,1.48,7.4,2.24c2.36,1.24,3.88,3.76,3.88,6.68
	C194.699,99.038,193.459,101.118,190.939,102.598z"/>
<path fill="#BF2F37" d="M31.101,112.648v22.08h-4.68v-22.08h-7.72v-4.719h20.12v4.719H31.101z"/>
<path fill="#BF2F37" d="M52.86,135.209c-7.88,0-11.359-7.16-11.359-13.92c0-8.561,4.319-13.84,11.359-13.84
	c6.601,0,11.12,5.56,11.12,13.721C63.98,129.568,59.66,135.209,52.86,135.209z M52.86,112.249c-4.04,0-6.479,3.399-6.479,9.04
	c0,5.721,2.439,9.119,6.479,9.119c5.08,0,6.32-5,6.32-9.119C59.181,115.648,56.9,112.249,52.86,112.249z"/>
<path fill="#BF2F37" d="M90.341,134.729h-5.08l-4.32-17.959l-4.24,17.959h-5.08l-4.88-26.799h4.96l2.92,17.318l3.96-17.318h4.801
	l4.119,17.318l2.761-17.318h4.88L90.341,134.729z"/>
<path fill="#BF2F37" d="M98.66,134.729V107.93h19.561v4.799H103.54v4.961h8v4.92h-8v7.32h15.16v4.799H98.66z"/>
<path fill="#BF2F37" d="M138.02,133.129c-1.88,1.041-4.16,1.6-6.319,1.6h-8.641V107.93h8.641c2.279,0,4.439,0.56,6.399,1.68
	c4.16,2.359,6.4,6.399,6.4,11.68C144.5,126.648,142.26,130.77,138.02,133.129z M135.74,113.77c-1.2-0.681-2.601-1.041-4.04-1.041
	h-3.761v17.201h3.761c1.439,0,2.72-0.361,3.88-1.041c2.8-1.48,4.12-3.92,4.12-7.6C139.7,117.689,138.38,115.249,135.74,113.77z"/>
<path fill="#BF2F37" d="M177.619,134.729l-2.64-6.32h-11.681l-2.6,6.32h-5.279l11.279-26.799h4.881l11.199,26.799H177.619z
	 M169.139,114.609l-3.76,9.039h7.521L169.139,114.609z"/>
<path fill="#BF2F37" d="M207.539,134.729h-5.08l-4.32-17.959l-4.24,17.959h-5.08l-4.879-26.799h4.959l2.92,17.318l3.961-17.318h4.8
	l4.12,17.318l2.76-17.318h4.88L207.539,134.729z"/>
<path fill="#BF2F37" d="M235.619,134.729l-2.641-6.32h-11.68l-2.601,6.32h-5.28l11.281-26.799h4.879l11.201,26.799H235.619z
	 M227.139,114.609l-3.76,9.039h7.52L227.139,114.609z"/>
<path fill="#BF2F37" d="M258.018,123.809v10.92h-4.799v-10.92l-11.281-15.879h5.92l7.801,10.92l7.719-10.92h5.922L258.018,123.809z"
	/>
<path fill-rule="evenodd" clip-rule="evenodd" fill="#BF2F37" d="M187.432,165.771l-2.279,8.605c-0.057,0.057-0.1,0.094-0.125,0.166
	c-0.056,0.105-0.094,0.218-0.131,0.347c0.057,0.486,0.168,0.945,0.474,1.347c0.544,0.745,1.3,0.966,2.192,0.929
	c0.288-0.019,0.632-0.09,0.869-0.255l26.082-17.972l-26.082-17.735c-0.362-0.257-0.618-0.382-1.074-0.478
	c-0.763-0.16-1.605,0.438-2.036,1.061c-0.257,0.366-0.388,0.747-0.425,1.2c0.037,0.149,0.037,0.312,0.112,0.459
	c0.044,0.108,0.087,0.203,0.144,0.29l2.279,8.37c-28.955,0-57.908,0-86.854,0l2.276-8.37c0.05-0.087,0.109-0.182,0.14-0.29
	c0.075-0.147,0.075-0.31,0.116-0.459c-0.041-0.453-0.169-0.834-0.425-1.2c-0.437-0.623-1.273-1.221-2.042-1.061
	c-0.455,0.096-0.711,0.221-1.071,0.478l-26.085,17.735l26.085,17.972c0.237,0.165,0.584,0.236,0.875,0.255
	c0.892,0.037,1.639-0.184,2.186-0.929c0.309-0.401,0.418-0.86,0.478-1.347c-0.041-0.129-0.081-0.241-0.131-0.347
	c-0.016-0.072-0.075-0.109-0.125-0.166l-2.276-8.605C129.523,165.771,158.477,165.771,187.432,165.771"/>
</svg>
