<?xml version="1.0" encoding="UTF-8" standalone="no"?>
<!-- Generator: Adobe Illustrator 14.0.0, SVG Export Plug-In  -->

<svg
   xmlns:dc="http://purl.org/dc/elements/1.1/"
   xmlns:cc="http://creativecommons.org/ns#"
   xmlns:rdf="http://www.w3.org/1999/02/22-rdf-syntax-ns#"
   xmlns:svg="http://www.w3.org/2000/svg"
   xmlns="http://www.w3.org/2000/svg"
   xmlns:sodipodi="http://sodipodi.sourceforge.net/DTD/sodipodi-0.dtd"
   xmlns:inkscape="http://www.inkscape.org/namespaces/inkscape"
   version="1.1"
   x="0px"
   y="0px"
   width="86.218727"
   height="128.93747"
   viewBox="0 -0.321 86.218731 128.9375"
   enable-background="new 0 -0.321 144 120"
   xml:space="preserve"
   id="svg2"
   inkscape:version="0.48.2 r9819"
   sodipodi:docname="MUTCD R7-3.svg"><metadata
   id="metadata44"><rdf:RDF><cc:Work
       rdf:about=""><dc:format>image/svg+xml</dc:format><dc:type
         rdf:resource="http://purl.org/dc/dcmitype/StillImage" /><dc:title></dc:title></cc:Work></rdf:RDF></metadata><sodipodi:namedview
   pagecolor="#ffffff"
   bordercolor="#666666"
   borderopacity="1"
   objecttolerance="10"
   gridtolerance="10"
   guidetolerance="10"
   inkscape:pageopacity="0"
   inkscape:pageshadow="2"
   inkscape:window-width="1280"
   inkscape:window-height="1004"
   id="namedview42"
   showgrid="false"
   fit-margin-top="0"
   fit-margin-left="0"
   fit-margin-right="0"
   fit-margin-bottom="0"
   inkscape:zoom="3.7904688"
   inkscape:cx="29.000366"
   inkscape:cy="74.841024"
   inkscape:window-x="-8"
   inkscape:window-y="-8"
   inkscape:window-maximized="1"
   inkscape:current-layer="svg2" />
<defs
   id="defs4">
</defs>


















<path
   inkscape:connector-curvature="0"
   d="m 11.046538,0.03319 64.12501,0 c 5.88625,0 10.68751,4.80125 10.68751,10.6875 l 0,106.87503 c 0,5.88625 -4.80126,10.68625 -10.68751,10.68625 l -64.12501,0 c -5.8862512,0 -10.68750104,-4.8 -10.68750104,-10.68625 l 0,-106.87503 c 0,-5.8125 4.87499984,-10.6875 10.68750104,-10.6875"
   style="fill:#ffffff;fill-opacity:1;fill-rule:nonzero;stroke:#000000;stroke-width:0.70000017;stroke-linecap:butt;stroke-linejoin:miter;stroke-miterlimit:4;stroke-opacity:1;stroke-dasharray:none"
   id="path3081" /><path
   inkscape:connector-curvature="0"
   d="m 11.080288,2.70469 64.05751,0 c 4.41375,0.0175 8.02251,3.6425 8.04876,8.05 l 0,106.80628 c -0.0263,4.41 -3.63501,8.0275 -8.04876,8.05 l -64.05751,0 c -4.4050012,-0.0225 -8.0350012,-3.64 -8.0487512,-8.05 l 0,-106.80628 c 0.0138,-4.4075 3.64375,-8.0325 8.0487512,-8.05"
   style="fill:#bf2519;fill-opacity:1;fill-rule:evenodd;stroke:none"
   id="path3085" /><path
   inkscape:connector-curvature="0"
   d="m 11.120288,5.82557 63.97626,0 c 2.75125,0.0163 4.9525,2.2175 4.97,4.96875 l 0,106.72753 c -0.0175,2.7375 -2.21875,4.97 -4.97,4.9675 l -63.97626,0 c -2.7500012,0.003 -4.9550012,-2.23 -4.9687512,-4.9675 l 0,-106.72753 c 0.0138,-2.75125 2.21875,-4.9525 4.9687512,-4.96875"
   style="fill:#ffffff;fill-opacity:1;fill-rule:evenodd;stroke:none"
   id="path3089" /><path
   style="fill:#bf2519;fill-opacity:1;fill-rule:evenodd;stroke:none"
   d="M 51.15625 14.25 C 48.75375 14.25 47.31 15.315 46.21875 17.8125 C 45.354999 19.83125 45 22.0125 45 25.28125 C 45 28.548749 45.322499 30.575 46.1875 32.65625 C 47.24375 35.22 48.69 36.3125 51.15625 36.3125 C 53.559999 36.3125 55.06875 35.21875 56.125 32.6875 C 56.99125 30.605 57.3125 28.581249 57.3125 25.28125 C 57.3125 22.0125 56.99125 19.98875 56.125 17.90625 C 55.03625 15.3125 53.592499 14.25 51.15625 14.25 z M 51.15625 17.21875 C 52.40625 17.21875 53.205 18.01625 53.75 19.875 C 54.231251 21.443751 54.40625 22.877501 54.40625 25.28125 C 54.40625 27.715 54.231251 29.02 53.75 30.71875 C 53.23875 32.512501 52.40625 33.34375 51.15625 33.34375 C 49.84375 33.34375 49.04375 32.513751 48.53125 30.6875 C 48.05 29.02125 47.90625 27.65125 47.90625 25.3125 C 47.90625 22.910001 48.05 21.478751 48.53125 19.8125 C 49.04375 18.01875 49.875 17.21875 51.15625 17.21875 z "
   transform="translate(-8.2592523e-6,-0.321)"
   id="path3477" /><path
   d="m 31.787187,21.324229 6.407502,14.326253 2.275,0 0,-21.373755 -3.0125,0 0,12.782503 -5.670002,-12.782503 -3.01125,0 0,21.373755 3.01125,0 0,-14.326253 z"
   style="fill:#bf2519;fill-opacity:1;fill-rule:evenodd;stroke:none"
   id="path3481"
   inkscape:connector-curvature="0" /><path
   d="m 59.972194,113.08813 -0.89,3.36249 c -0.0225,0.0225 -0.04125,0.0362 -0.04875,0.065 -0.0225,0.0425 -0.03875,0.0863 -0.05125,0.135 0.02125,0.1925 0.06375,0.37125 0.185,0.5275 0.2125,0.2925 0.505,0.37875 0.85625,0.3625 0.11375,-0.006 0.2475,-0.0337 0.34,-0.1 l 10.195002,-7.02499 -10.195002,-6.9325 c -0.14125,-0.0988 -0.24125,-0.1475 -0.42,-0.185 -0.29875,-0.0625 -0.6275,0.17125 -0.7975,0.41375 -0.1,0.1425 -0.15125,0.2925 -0.16375,0.47 0.0125,0.0575 0.0125,0.12125 0.04375,0.1775 0.015,0.0438 0.03375,0.08 0.05625,0.115 l 0.89,3.27 -33.951258,0 0.89,-3.27 c 0.02,-0.035 0.0425,-0.0712 0.055,-0.115 0.03,-0.0563 0.03,-0.12 0.045,-0.1775 -0.015,-0.1775 -0.065,-0.3275 -0.165,-0.47 -0.17125,-0.2425 -0.49875,-0.47625 -0.79875,-0.41375 -0.17875,0.0375 -0.27875,0.0862 -0.41875,0.185 l -10.196253,6.9325 10.196253,7.02499 c 0.0925,0.0663 0.2275,0.0937 0.34125,0.1 0.35,0.0162 0.64125,-0.07 0.855,-0.3625 0.12125,-0.15625 0.16375,-0.335 0.18625,-0.5275 -0.015,-0.0487 -0.03125,-0.0925 -0.05,-0.135 -0.0075,-0.0288 -0.03,-0.0425 -0.05,-0.065 l -0.89,-3.36249 33.951258,0 z"
   style="fill:#bf2519;fill-opacity:1;fill-rule:evenodd;stroke:none"
   id="path3489"
   inkscape:connector-curvature="0" /><path
   d="m 12.609682,57.320238 c -2.49625,0 -3.9962507,-2.09875 -3.9962507,-4.447501 l 1.9987507,0 c 0,1.198751 0.59875,2.448751 1.9975,2.448751 1.09875,0 2.000001,-1 2.000001,-2.148751 0,-0.8 -0.30125,-1.4 -1.150001,-2.05 -0.3,-0.29875 0.500001,0.25125 -2.39625,-1.697501 -1.1512505,-0.8 -1.7500006,-1.9 -1.7500006,-3.14875 0,-2.048751 1.6000006,-3.697501 3.6462506,-3.697501 1.998751,0 3.546251,1.54875 3.596251,3.697501 l -1.94625,0 c -0.05125,-1.000001 -0.75,-1.648751 -1.650001,-1.648751 -0.9475,0 -1.6975,0.69875 -1.6975,1.648751 0,0.7 0.3,1.09875 1.3475,1.69875 2.748751,1.6 3.946251,3.147501 3.946251,5.197501 0,2.297501 -1.74625,4.147501 -3.946251,4.147501"
   style="fill:#bf2519;fill-opacity:1;fill-rule:nonzero;stroke:none"
   id="path3493"
   inkscape:connector-curvature="0" /><path
   d="m 21.802185,44.727484 0,12.342503 -2.048751,0 0,-12.342503 -2.597501,0 0,-1.89875 7.243752,0 0,1.89875 -2.5975,0 z"
   style="fill:#bf2519;fill-opacity:1;fill-rule:nonzero;stroke:none"
   id="path3497"
   inkscape:connector-curvature="0" /><path
   d="m 29.043437,47.076111 -0.998751,4.097501 2.047501,0 -1.04875,-4.097501 z m 2.5475,9.993752 -0.99875,-3.897501 -3.048751,0 -0.9475,3.897501 -2.0475,0 3.545,-14.241253 1.998751,0 3.545001,14.241253 -2.046251,0 z"
   style="fill:#bf2519;fill-opacity:1;fill-rule:nonzero;stroke:none"
   id="path3501"
   inkscape:connector-curvature="0" /><path
   d="m 41.330939,57.069862 -4.395001,-9.545002 0,9.545002 -2.04875,0 0,-14.241253 2.04875,0 3.893751,8.545002 0,-8.545002 2.048751,0 0,14.241253 -1.547501,0 z"
   style="fill:#bf2519;fill-opacity:1;fill-rule:nonzero;stroke:none"
   id="path3505"
   inkscape:connector-curvature="0" /><path
   d="m 50.868443,46.27661 c -0.34875,-1.000001 -0.94625,-1.450001 -1.846251,-1.450001 l -1.6975,0 0,10.245003 1.6975,0 c 1.197501,0 1.846251,-0.95 2.047501,-2.050001 0.1,-0.89875 0.2,-1.89875 0.2,-2.9975 0,-1.598751 -0.14875,-3.148751 -0.40125,-3.747501 m 0.3525,10.143752 c -0.50125,0.45 -1.2,0.65 -2.000001,0.65 l -3.945001,0 0,-14.242503 3.645001,0 c 1.200001,0 1.798751,0.15 2.300001,0.55 0.8475,0.6 1.4475,1.69875 1.69625,3.148751 0.2,1.04875 0.35,2.2975 0.35,3.397501 0,3.29875 -0.64875,5.397501 -2.04625,6.496251"
   style="fill:#bf2519;fill-opacity:1;fill-rule:nonzero;stroke:none"
   id="path3509"
   inkscape:connector-curvature="0" /><path
   d="m 55.363196,42.828112 2,0 0,14.241253 -2,0 0,-14.241253 z"
   style="fill:#bf2519;fill-opacity:1;fill-rule:nonzero;stroke:none"
   id="path3511"
   inkscape:connector-curvature="0" /><path
   d="m 66.253446,57.069862 -4.396251,-9.545002 0,9.545002 -2.04625,0 0,-14.241253 2.04625,0 3.897501,8.545002 0,-8.545002 2.047501,0 0,14.241253 -1.548751,0 z"
   style="fill:#bf2519;fill-opacity:1;fill-rule:nonzero;stroke:none"
   id="path3515"
   inkscape:connector-curvature="0" /><path
   d="m 77.435948,55.321238 c -0.54875,1.24875 -1.69875,1.99875 -3.146251,1.99875 -1.69875,0 -2.9475,-0.85 -3.646251,-2.44875 -0.45125,-1.050001 -0.74875,-3.047501 -0.74875,-4.897501 0,-1.997501 0.14875,-3.447501 0.65,-4.796252 0.497501,-1.5 1.947501,-2.59875 3.595001,-2.59875 2.047501,0 3.596251,1.49875 3.696251,3.597501 l -2.04875,0 c -0.05,-0.948751 -0.700001,-1.598751 -1.697501,-1.598751 -0.69875,0 -1.24875,0.35 -1.5975,1.048751 -0.4,0.7 -0.64875,2.29875 -0.64875,3.9975 0,1.200001 0.09875,2.448751 0.2975,3.548751 0.3,1.398751 1.00125,2.148751 2.09875,2.148751 1.048751,0 1.547501,-0.7 1.547501,-2.198751 l 0,-0.94875 -1.597501,0 0,-2 3.646251,0 0,2.94875 c 0,0.998751 -0.1,1.598751 -0.4,2.198751"
   style="fill:#bf2519;fill-opacity:1;fill-rule:nonzero;stroke:none"
   id="path3519"
   inkscape:connector-curvature="0" /><path
   d="m 31.794688,68.413991 -0.99875,4.097501 2.04875,0 -1.05,-4.097501 z m 2.547501,9.993752 -1,-3.897501 -3.047501,0 -0.94875,3.897501 -2.047501,0 3.547501,-14.241253 1.99875,0 3.545001,14.241253 -2.0475,0 z"
   style="fill:#bf2519;fill-opacity:1;fill-rule:nonzero;stroke:none"
   id="path3523"
   inkscape:connector-curvature="0" /><path
   d="m 45.580941,78.407868 -4.397501,-9.543752 0,9.543752 -2.0475,0 0,-14.242503 2.0475,0 3.897501,8.546252 0,-8.546252 2.047501,0 0,14.242503 -1.547501,0 z"
   style="fill:#bf2519;fill-opacity:1;fill-rule:nonzero;stroke:none"
   id="path3527"
   inkscape:connector-curvature="0" /><path
   d="m 55.468443,71.961367 0,6.446251 -2.046251,0 0,-6.446251 -3.4975,-7.795002 2.1475,0 2.397501,5.146251 2.3475,-5.146251 2.198751,0 -3.547501,7.795002 z"
   style="fill:#bf2519;fill-opacity:1;fill-rule:nonzero;stroke:none"
   id="path3531"
   inkscape:connector-curvature="0" /><path
   d="m 30.785937,87.43012 0,12.342503 -2.04875,0 0,-12.342503 -2.597501,0 0,-1.89875 7.243752,0 0,1.89875 -2.597501,0 z"
   style="fill:#bf2519;fill-opacity:1;fill-rule:nonzero;stroke:none"
   id="path3535"
   inkscape:connector-curvature="0" /><path
   d="m 35.331941,85.530622 1.996251,0 0,14.242503 -1.996251,0 0,-14.242503 z"
   style="fill:#bf2519;fill-opacity:1;fill-rule:nonzero;stroke:none"
   id="path3537"
   inkscape:connector-curvature="0" /><path
   d="m 47.818441,99.773125 0,-7.996252 -2.647501,7.996252 -2.64625,-7.996252 0,7.996252 -2.048751,0 0,-14.242503 2.048751,0 2.64625,7.996252 2.647501,-7.996252 2.048751,0 0,14.242503 -2.048751,0 z"
   style="fill:#bf2519;fill-opacity:1;fill-rule:nonzero;stroke:none"
   id="path3541"
   inkscape:connector-curvature="0" /><path
   d="m 52.963442,99.773125 0,-14.242503 6.692502,0 0,2 -4.645001,0 0,3.597501 2.9475,0 0,1.948751 -2.9475,0 0,4.696251 5.195001,0 0,2 -7.242502,0 z"
   style="fill:#bf2519;fill-opacity:1;fill-rule:nonzero;stroke:none"
   id="path3545"
   inkscape:connector-curvature="0" /></svg>