<?xml version="1.0" encoding="utf-8"?>
<!-- Generator: Adobe Illustrator 12.0.1, SVG Export Plug-In  -->
<!DOCTYPE svg PUBLIC "-//W3C//DTD SVG 1.1//EN" "http://www.w3.org/Graphics/SVG/1.1/DTD/svg11.dtd" [
	<!ENTITY ns_flows "http://ns.adobe.com/Flows/1.0/">
	<!ENTITY ns_svg "http://www.w3.org/2000/svg">
	<!ENTITY ns_xlink "http://www.w3.org/1999/xlink">
]>
<svg  version="1.1" xmlns="&ns_svg;" xmlns:xlink="&ns_xlink;" xmlns:a="http://ns.adobe.com/AdobeSVGViewerExtensions/3.0/"
	 width="194" height="288" viewBox="-0.764 0 194 288" enable-background="new -0.764 0 194 288" xml:space="preserve">
<defs>
</defs>
<path fill="#FFFFFF" d="M0.697,263.411c0,6.286,2.469,12.494,6.946,16.955c4.456,4.472,10.666,6.937,16.955,6.937h143.252
	c6.329,0,12.393-2.465,16.867-6.937c4.456-4.461,7.053-10.637,7.053-16.955V24.568c0-6.256-2.644-12.42-7.053-16.846
	c-4.442-4.442-10.576-7.023-16.867-7.023H24.599c-6.323,0-12.485,2.532-16.955,7.023c-4.46,4.456-6.946,10.554-6.946,16.846V263.411
	z"/>
<path fill="#FFFFFF" d="M167.851,1.398H24.599c-6.147,0-12.144,2.484-16.462,6.816c-4.285,4.277-6.739,10.239-6.739,16.354v238.843
	c0,6.193,2.454,12.192,6.739,16.457c4.266,4.284,10.264,6.735,16.462,6.735h143.252c6.217,0,12.03-2.391,16.37-6.735
	c4.354-4.354,6.854-10.352,6.854-16.457V24.568c0-6.024-2.5-11.981-6.854-16.354C179.89,3.882,173.929,1.398,167.851,1.398z"/>
<path d="M167.851,0H24.599C18.084,0,11.723,2.637,7.146,7.228C2.607,11.765,0,18.086,0,24.568v238.843
	c0,6.561,2.607,12.919,7.15,17.447c4.521,4.54,10.883,7.142,17.448,7.142h143.252c6.594,0,12.755-2.537,17.354-7.142
	c4.619-4.614,7.268-10.978,7.268-17.447V24.568c0-6.389-2.648-12.708-7.263-17.341C180.614,2.637,174.291,0,167.851,0z
	 M191.074,263.411c0,6.105-2.5,12.104-6.854,16.457c-4.34,4.345-10.153,6.735-16.37,6.735H24.599
	c-6.198,0-12.196-2.451-16.462-6.735c-4.285-4.265-6.739-10.264-6.739-16.457V24.568c0-6.115,2.454-12.076,6.739-16.354
	c4.318-4.333,10.314-6.816,16.462-6.816h143.252c6.078,0,12.039,2.484,16.37,6.816c4.354,4.373,6.854,10.33,6.854,16.354V263.411z"
	/>
<path fill-rule="evenodd" clip-rule="evenodd" fill="#BF2F37" d="M6.649,263.411V24.568c0-4.695,1.938-9.253,5.283-12.548
	c3.376-3.346,7.917-5.127,12.657-5.127H167.86c4.697,0,9.251,1.8,12.578,5.127c3.345,3.325,5.147,7.867,5.147,12.548v238.843
	c0,4.721-1.784,9.325-5.147,12.685c-3.295,3.322-7.895,5.253-12.578,5.253H24.59c-5.925,0-11.594-3.041-14.888-7.962
	C7.553,270.189,6.887,267.148,6.649,263.411"/>
<path fill="#FFFFFF" d="M43.874,60.928L27.746,32.326v28.602h-6.678v-42.21h6.678l15.372,26.964V18.718h6.678v42.21H43.874z"/>
<path fill="#FFFFFF" d="M81.17,56.959c-2.394,3.213-5.796,4.725-10.206,4.725c-5.922,0-9.639-2.394-12.159-7.56
	c-1.764-3.591-2.961-9.198-2.961-14.238c0-6.93,1.764-13.167,4.599-17.199c2.52-3.213,5.922-4.725,10.773-4.725
	c5.355,0,9.072,2.394,11.718,7.56c1.764,3.717,2.835,9.072,2.835,14.364C85.769,46.564,84.131,53.242,81.17,56.959z M76.571,28.042
	c-1.323-2.205-2.961-3.087-5.481-3.276c-0.126,0-0.252,0-0.378,0c-3.024,0-5.04,1.638-6.426,5.229
	c-1.071,2.52-1.638,6.363-1.638,9.891c0,4.473,0.882,9.072,2.52,11.718c1.323,2.205,3.087,3.276,5.796,3.276
	c3.087,0,5.04-1.638,6.489-5.355c0.882-2.205,1.638-6.363,1.638-9.639C79.091,35.161,78.209,30.877,76.571,28.042z"/>
<path fill="#FFFFFF" d="M179.822,24.568c0-3.152-1.32-6.164-3.55-8.392c-2.23-2.23-5.237-3.522-8.41-3.522H94.736V67H12.65v75.167
	h167.172V24.568z"/>
<path fill="#FFFFFF" d="M12.65,263.411c0,3.196,1.161,6.217,3.442,8.498c2.276,2.279,5.298,3.438,8.499,3.438h143.271
	c3.127,0,6.082-1.146,8.313-3.311c2.327-2.261,3.647-5.397,3.647-8.626V148.184H12.65V263.411z"/>
<path fill="#BF2F37" d="M45.635,121.48c-2.331,2.079-5.607,3.276-9.198,3.276c-7.245,0-12.537-4.284-15.372-10.71l6.363-2.331
	c1.764,3.969,5.04,6.237,9.009,6.237c3.906,0,6.552-2.709,6.552-6.237c0-5.607-6.552-6.552-12.033-8.757
	c-2.52-1.008-8.127-3.528-8.127-10.521c0-8.253,5.607-11.403,13.167-11.403c5.922,0,9.954,3.402,12.033,8.631l-5.922,1.764
	c0,0-1.512-3.591-6.237-3.717c-0.189,0-0.315,0-0.441,0c-2.898,0-6.048,1.134-6.048,4.473c0,0.126,0,0.315,0,0.441
	c0.567,7.812,20.412,2.646,20.412,19.215C49.793,115.684,48.281,119.086,45.635,121.48z"/>
<path fill="#BF2F37" d="M66.362,87.712V124h-6.678V87.712h-9.639V81.79h26.082v5.922H66.362z"/>
<path fill="#BF2F37" d="M103.657,120.031c-2.394,3.213-5.796,4.725-10.206,4.725c-5.922,0-9.639-2.394-12.159-7.56
	c-1.764-3.591-2.961-9.198-2.961-14.238c0-6.93,1.764-13.167,4.599-17.199c2.52-3.213,5.922-4.725,10.773-4.725
	c5.355,0,9.072,2.394,11.719,7.56c1.764,3.717,2.834,9.072,2.834,14.364C108.256,109.636,106.618,116.314,103.657,120.031z
	 M99.059,91.114c-1.323-2.205-2.961-3.087-5.481-3.276c-0.126,0-0.252,0-0.378,0c-3.024,0-5.04,1.638-6.426,5.229
	c-1.071,2.52-1.638,6.363-1.638,9.891c0,4.473,0.882,9.072,2.52,11.718c1.323,2.205,3.087,3.276,5.796,3.276
	c3.087,0,5.04-1.638,6.489-5.355c0.882-2.205,1.638-6.363,1.638-9.639C101.578,98.233,100.696,93.949,99.059,91.114z"/>
<path fill="#BF2F37" d="M136.668,104.155c-1.953,0.882-4.473,1.449-7.748,1.449h-7.813V124h-6.678V81.79h14.49
	c3.402,0,5.67,0.315,7.748,1.323c3.654,1.764,6.49,6.237,6.49,10.521C143.158,98.107,140.322,102.517,136.668,104.155z
	 M133.834,89.224c-1.197-0.63-1.953-0.756-4.032-0.756h-8.694V98.8h8.694c2.079,0,2.835-0.126,4.032-0.693
	c1.449-0.756,2.52-2.709,2.52-4.473C136.354,91.87,135.283,90.106,133.834,89.224z"/>
<path fill="#BF2F37" d="M167.854,121.48c-2.331,2.079-5.607,3.276-9.198,3.276c-7.245,0-12.536-4.284-15.372-10.71l6.363-2.331
	c1.764,3.969,5.04,6.237,9.009,6.237c3.906,0,6.552-2.709,6.552-6.237c0-5.607-6.552-6.552-12.033-8.757
	c-2.52-1.008-8.127-3.528-8.127-10.521c0-8.253,5.607-11.403,13.168-11.403c5.922,0,9.954,3.402,12.032,8.631l-5.922,1.764
	c0,0-1.512-3.591-6.236-3.717c-0.189,0-0.315,0-0.441,0c-2.897,0-6.048,1.134-6.048,4.473c0,0.126,0,0.315,0,0.441
	c0.566,7.812,20.412,2.646,20.412,19.215C172.012,115.684,170.499,119.086,167.854,121.48z"/>
<path fill="#BF2F37" d="M37.128,166.492v23.821h-3.977v-23.821h-5.002v-3.649h13.981v3.649H37.128z"/>
<path fill="#BF2F37" d="M57.916,186.091c-1.353,3.238-3.362,4.715-6.437,4.715c-3.28,0-5.207-1.477-6.56-4.715
	c-1.148-2.706-1.558-5.33-1.558-9.554c0-4.141,0.41-6.929,1.558-9.553c1.435-3.28,3.362-4.633,6.56-4.633
	c3.157,0,5.084,1.353,6.437,4.715c1.148,2.706,1.558,5.33,1.558,9.471C59.474,180.761,59.063,183.467,57.916,186.091z M54.84,169.69
	c-0.697-2.419-1.722-3.485-3.362-3.485c-1.763,0-2.829,1.066-3.485,3.403c-0.656,2.091-0.861,3.936-0.861,7.011
	c0,2.993,0.287,4.715,0.861,6.93c0.656,2.337,1.722,3.402,3.485,3.402c1.64,0,2.665-1.065,3.362-3.402
	c0.656-2.215,0.861-3.854,0.861-7.012C55.702,173.462,55.415,171.699,54.84,169.69z"/>
<path fill="#BF2F37" d="M77.186,190.313h-3.362l-2.624-14.351l-2.583,14.351h-3.485l-4.346-27.471h3.854l2.337,14.638l2.665-14.638
	h3.116l2.583,14.638l2.419-14.638h3.854L77.186,190.313z"/>
<path fill="#BF2F37" d="M81.203,179.038v-3.648h9.635v3.648H81.203z"/>
<path fill="#BF2F37" d="M104.121,190.313l-1.927-7.503h-5.904l-1.804,7.503h-3.977l6.847-27.471h3.854l6.847,27.471H104.121z
	 M99.201,171.043l-1.927,7.913h3.937L99.201,171.043z"/>
<path fill="#BF2F37" d="M124.047,190.313h-3.361l-2.625-14.351l-2.582,14.351h-3.485l-4.347-27.471h3.854l2.337,14.638l2.666-14.638
	h3.115l2.583,14.638l2.419-14.638h3.854L124.047,190.313z"/>
<path fill="#BF2F37" d="M141.677,190.313l-1.927-7.503h-5.904l-1.805,7.503h-3.977l6.848-27.471h3.854l6.848,27.471H141.677z
	 M136.757,171.043l-1.927,7.913h3.936L136.757,171.043z"/>
<path fill="#BF2F37" d="M155.903,177.891v12.423h-3.937v-12.423l-6.765-15.048h4.142l4.633,9.923l4.551-9.923h4.223L155.903,177.891
	z"/>
<path fill="#BF2F37" d="M61.182,229.313v-4.223l10.209-19.476h-9.143v-3.854h14.063v2.502l-11.069,21.278h11.069v3.772H61.182z"/>
<path fill="#BF2F37" d="M92.956,225.091c-1.353,3.238-3.361,4.715-6.437,4.715c-3.28,0-5.207-1.477-6.561-4.715
	c-1.147-2.706-1.558-5.33-1.558-9.554c0-4.141,0.41-6.929,1.558-9.553c1.436-3.28,3.362-4.633,6.561-4.633
	c3.157,0,5.084,1.353,6.437,4.715c1.148,2.706,1.559,5.33,1.559,9.471C94.515,219.761,94.104,222.467,92.956,225.091z
	 M89.881,208.69c-0.696-2.419-1.722-3.485-3.361-3.485c-1.764,0-2.829,1.066-3.485,3.403c-0.656,2.091-0.861,3.936-0.861,7.011
	c0,2.993,0.287,4.715,0.861,6.93c0.656,2.337,1.722,3.402,3.485,3.402c1.64,0,2.665-1.065,3.361-3.402
	c0.656-2.215,0.861-3.854,0.861-7.012C90.742,212.462,90.455,210.699,89.881,208.69z"/>
<path fill="#BF2F37" d="M110.381,229.313l-8.486-18.409v18.409h-3.936v-27.471h3.936l7.544,16.482v-16.482h3.937v27.471H110.381z"/>
<path fill="#BF2F37" d="M117.311,229.313v-27.471h12.914v3.854h-8.979v6.929h5.699v3.772h-5.699v9.061h10.045v3.854H117.311z"/>
<path fill="#BF2F37" d="M32.554,252.536h-0.799v4.964h-1.445v-11.39h2.244c0.629,0,1.224,0.152,1.598,0.476
	c0.629,0.527,1.071,1.598,1.071,2.839C35.224,251.312,34.152,252.536,32.554,252.536z M32.554,247.589h-0.799v3.485h0.799
	c0.867,0,1.19-0.442,1.19-1.649C33.745,248.149,33.354,247.589,32.554,247.589z"/>
<path fill="#BF2F37" d="M39.916,257.5v-5.712c0-0.851-0.085-1.326-0.595-1.326c-0.527,0-0.561,0.68-0.561,1.326v5.712h-1.445
	v-10.676l1.445-0.918v3.399c0.221-0.221,0.527-0.34,0.85-0.34c0.816,0,1.751,0.765,1.751,2.771v5.763H39.916z"/>
<path fill="#BF2F37" d="M45.729,257.653c-1.717,0-2.159-2.193-2.159-4.302c0-2.329,0.204-4.369,2.159-4.369
	c1.717,0,2.04,1.955,2.04,4.318C47.77,255.426,47.327,257.653,45.729,257.653z M46.341,252.434c0-0.85-0.085-1.921-0.612-1.921
	c-0.612,0-0.697,1.055-0.697,1.888c0,0.391,0.017,0.73,0.017,0.9c0,0.051,0,0.103,0,0.17c0,0.748,0.034,2.703,0.68,2.703
	c0.561-0.034,0.595-1.887,0.595-2.669c0-0.085,0-0.153,0-0.204C46.324,253.131,46.341,252.808,46.341,252.434z"/>
<path fill="#BF2F37" d="M52.733,257.5v-5.712c0-0.851-0.085-1.326-0.595-1.326c-0.527,0-0.561,0.68-0.561,1.326v5.712h-1.445v-8.313
	h1.445v0.357c0.289-0.493,0.748-0.578,1.02-0.578c0.136,0,0.221,0.017,0.221,0.017c1.071,0.119,1.36,1.326,1.36,4.284v4.233H52.733z
	"/>
<path fill="#BF2F37" d="M57.782,254.185c0.051,1.599,0.238,1.989,0.765,1.989c0.323,0,0.561-0.238,0.799-1.071l0.918,1.326
	c-0.289,0.748-0.833,1.225-1.513,1.225c-1.853,0-2.363-1.666-2.363-4.268c0-2.635,0.476-4.403,2.125-4.403
	c1.802,0,1.989,2.737,1.989,4.472c0,0.271,0,0.527,0,0.73H57.782z M58.462,250.547c-0.476,0-0.68,0.527-0.68,2.159h1.394
	C59.176,251.022,58.938,250.547,58.462,250.547z"/>
<path fill="#BF2F37" d="M112.054,257.114c-0.408,0.357-0.969,0.562-1.563,0.562c-1.547,0-2.397-1.207-2.397-3.4
	c0-3.399,1.36-6.239,4.08-8.397l0.799,1.24c-1.274,1.037-2.125,2.159-2.72,3.639c0.204-0.068,0.391-0.085,0.578-0.085
	c0.629,0,1.156,0.34,1.496,0.884c0.374,0.561,0.646,1.563,0.646,2.601C112.972,255.517,112.648,256.588,112.054,257.114z
	 M110.541,252.201c-0.68,0-0.969,0.596-0.969,1.955c0,0.833,0.084,1.395,0.322,1.684c0.153,0.187,0.392,0.356,0.646,0.356
	c0.306,0,0.544-0.17,0.714-0.441c0.119-0.289,0.238-1.088,0.238-1.802C111.493,252.763,111.17,252.201,110.541,252.201z"/>
<path fill="#BF2F37" d="M119.5,256.877c-0.408,0.51-0.969,0.799-1.717,0.799c-1.003,0-1.598-0.408-2.006-1.241
	c-0.272-0.595-0.477-1.445-0.477-2.278c0-1.155,0.323-2.125,0.885-2.839c-0.493-0.561-0.681-1.207-0.681-2.192
	c0-1.973,0.867-3.247,2.228-3.247c1.411,0,2.278,1.274,2.278,3.247c0,0.951-0.188,1.666-0.681,2.192
	c0.562,0.714,0.884,1.632,0.884,2.839C120.214,255.228,119.942,256.265,119.5,256.877z M117.783,252.201
	c-0.646,0-1.003,0.681-1.003,1.955c0,1.275,0.357,2.04,1.003,2.04c0.595,0,0.952-0.765,0.952-2.04
	C118.735,252.882,118.378,252.201,117.783,252.201z M117.783,247.356c-0.561,0-0.799,0.646-0.799,1.836
	c0,1.037,0.238,1.53,0.799,1.53c0.51,0,0.748-0.493,0.748-1.53C118.531,248.003,118.293,247.356,117.783,247.356z"/>
<path fill="#BF2F37" d="M127.218,254.633v2.839h-1.444v-2.839h-3.588v-1.514l3.469-7.037h1.563v7.19h0.596v1.36H127.218z
	 M125.773,248.836l-2.143,4.437h2.143V248.836z"/>
<path fill="#BF2F37" d="M129.938,252.882v-1.479h3.553v1.479H129.938z"/>
<path fill="#BF2F37" d="M139.798,256.111c-0.561,1.037-1.36,1.564-2.448,1.564c-0.595,0-1.156-0.17-1.717-0.527l0.765-1.274
	c0.392,0.237,0.63,0.322,0.952,0.322c0.562,0,0.918-0.322,1.207-1.088c0.272-0.629,0.477-1.632,0.477-2.396
	c0-0.867-0.357-1.429-0.97-1.429c-0.306,0-0.51,0.153-0.799,0.477l-1.274-0.17v-5.508h4.198v1.479H137.4l-0.051,2.313
	c0.323-0.034,0.527-0.068,0.766-0.068c0.884,0,1.428,0.306,1.87,1.037c0.322,0.51,0.526,1.309,0.526,2.107
	C140.512,254.038,140.273,255.159,139.798,256.111z"/>
<path fill="#BF2F37" d="M147.55,254.633v2.839h-1.444v-2.839h-3.588v-1.514l3.469-7.037h1.563v7.19h0.596v1.36H147.55z
	 M146.105,248.836l-2.143,4.437h2.143V248.836z"/>
<path fill="#BF2F37" d="M155.505,254.633v2.839h-1.444v-2.839h-3.588v-1.514l3.469-7.037h1.563v7.19h0.596v1.36H155.505z
	 M154.061,248.836l-2.143,4.437h2.143V248.836z"/>
<path fill="#BF2F37" d="M163.461,254.633v2.839h-1.444v-2.839h-3.588v-1.514l3.469-7.037h1.563v7.19h0.596v1.36H163.461z
	 M162.017,248.836l-2.143,4.437h2.143V248.836z"/>
</svg>
