<?xml version="1.0" encoding="utf-8"?>
<!-- Generator: Adobe Illustrator 12.0.1, SVG Export Plug-In  -->
<!DOCTYPE svg PUBLIC "-//W3C//DTD SVG 1.1//EN" "http://www.w3.org/Graphics/SVG/1.1/DTD/svg11.dtd" [
	<!ENTITY ns_flows "http://ns.adobe.com/Flows/1.0/">
	<!ENTITY ns_svg "http://www.w3.org/2000/svg">
	<!ENTITY ns_xlink "http://www.w3.org/1999/xlink">
]>
<svg  version="1.1" xmlns="&ns_svg;" xmlns:xlink="&ns_xlink;" xmlns:a="http://ns.adobe.com/AdobeSVGViewerExtensions/3.0/"
	 width="288" height="288" viewBox="0 0 288 288" enable-background="new 0 0 288 288" xml:space="preserve">
<defs>
</defs>
<path fill="#FFFFFF" d="M24.584,0.698h238.832c13.158,0,23.887,10.729,23.887,23.883v238.837c0,13.154-10.729,23.883-23.887,23.883
	H24.584c-13.157,0-23.886-10.729-23.886-23.883V24.581C0.699,11.591,11.591,0.698,24.584,0.698"/>
<path fill="#FFFFFF" d="M263.416,1.396H24.584c-12.57,0-23.188,10.617-23.188,23.185v238.837c0,6.176,2.417,11.994,6.803,16.381
	c4.39,4.387,10.208,6.805,16.384,6.805h238.832c6.176,0,11.996-2.418,16.385-6.805c4.387-4.387,6.803-10.205,6.803-16.381V24.581
	C286.604,11.798,276.203,1.396,263.416,1.396z"/>
<path d="M263.416,0H24.584C11.258,0,0,11.258,0,24.581v238.837c0,6.551,2.562,12.715,7.213,17.369
	c4.651,4.65,10.822,7.213,17.372,7.213h238.832c6.551,0,12.719-2.563,17.373-7.213c4.65-4.654,7.211-10.818,7.211-17.369V24.581
	C288,11.026,276.973,0,263.416,0z M286.604,263.418c0,6.176-2.416,11.994-6.803,16.381c-4.389,4.387-10.209,6.805-16.385,6.805
	H24.584c-6.176,0-11.995-2.418-16.384-6.805c-4.386-4.387-6.803-10.205-6.803-16.381V24.581c0-12.567,10.617-23.185,23.188-23.185
	h238.832c12.787,0,23.188,10.401,23.188,23.185V263.418z"/>
<path fill="#BF2F37" d="M263.338,6.667H24.658c-9.843,0.041-17.956,8.14-17.988,17.99V263.34
	c0.033,9.857,8.146,17.938,17.988,17.992h238.68c9.869-0.055,17.93-8.135,17.992-17.992V24.657
	C281.268,14.807,273.207,6.708,263.338,6.667z"/>
<path fill="#FFFFFF" d="M98.348,48.802v85.802H13.645v128.647c0.03,6.119,4.96,11.107,11.101,11.102h238.507
	c6.145,0.006,11.07-4.982,11.104-11.102V48.802H98.348z"/>
<path fill="#FFFFFF" d="M46.115,118.475l-16.56-35.92v35.92h-7.68v-53.6h7.68l14.72,32.16v-32.16h7.68v53.6H46.115z"/>
<path fill="#FFFFFF" d="M87.074,110.234c-2.64,6.32-6.56,9.2-12.56,9.2c-6.4,0-10.16-2.88-12.8-9.2c-2.24-5.28-3.04-10.4-3.04-18.64
	c0-8.08,0.8-13.52,3.04-18.64c2.8-6.4,6.56-9.04,12.8-9.04c6.16,0,9.92,2.64,12.56,9.2c2.24,5.28,3.04,10.4,3.04,18.48
	C90.114,99.834,89.314,105.115,87.074,110.234z M81.074,78.235c-1.36-4.72-3.36-6.8-6.56-6.8c-3.44,0-5.52,2.08-6.8,6.64
	c-1.28,4.08-1.68,7.68-1.68,13.68c0,5.84,0.56,9.2,1.68,13.52c1.28,4.56,3.36,6.64,6.8,6.64c3.2,0,5.2-2.08,6.56-6.64
	c1.28-4.32,1.68-7.52,1.68-13.68C82.754,85.595,82.194,82.155,81.074,78.235z"/>
<path fill="#BF2F37" d="M111.207,110.763c-6.49,0-10.34-5.445-10.34-11.495h5.17c0,3.08,1.54,6.325,5.17,6.325
	c2.86,0,5.17-2.585,5.17-5.556c0-2.09-0.77-3.63-2.97-5.335c-0.77-0.77,1.32,0.66-6.215-4.399c-2.97-2.035-4.51-4.896-4.51-8.141
	c0-5.279,4.125-9.569,9.405-9.569c5.225,0,9.185,4.015,9.35,9.569h-5.06c-0.11-2.585-1.925-4.234-4.29-4.234
	c-2.42,0-4.345,1.814-4.345,4.234c0,1.815,0.77,2.86,3.465,4.4c7.095,4.125,10.23,8.14,10.23,13.475
	C121.437,105.978,116.872,110.763,111.207,110.763z"/>
<path fill="#BF2F37" d="M134.086,78.147v31.955h-5.335V78.147h-6.71v-4.896h18.755v4.896H134.086z"/>
<path fill="#BF2F37" d="M161.971,104.438c-1.814,4.345-4.51,6.325-8.635,6.325c-4.4,0-6.984-1.98-8.8-6.325
	c-1.54-3.63-2.09-7.15-2.09-12.815c0-5.555,0.55-9.295,2.09-12.814c1.925-4.4,4.51-6.215,8.8-6.215c4.234,0,6.82,1.814,8.635,6.324
	c1.54,3.631,2.09,7.15,2.09,12.705C164.061,97.287,163.511,100.918,161.971,104.438z M157.846,82.438
	c-0.935-3.245-2.31-4.675-4.51-4.675c-2.365,0-3.795,1.43-4.676,4.564c-0.879,2.806-1.154,5.28-1.154,9.405
	c0,4.015,0.385,6.325,1.154,9.295c0.881,3.135,2.311,4.565,4.676,4.565c2.2,0,3.575-1.431,4.51-4.565
	c0.881-2.97,1.155-5.17,1.155-9.405C159.001,87.497,158.615,85.133,157.846,82.438z"/>
<path fill="#BF2F37" d="M179.682,93.933h-5.721v16.17h-5.279V73.252h11c5.774,0,9.68,4.125,9.68,10.341
	C189.361,90.303,185.896,93.933,179.682,93.933z M179.406,78.422h-5.445v10.45h5.445c3.08,0,4.785-1.925,4.785-5.279
	C184.191,80.513,182.266,78.422,179.406,78.422z"/>
<path fill="#BF2F37" d="M202.67,93.933h-5.72v16.17h-5.28V73.252h11c5.775,0,9.681,4.125,9.681,10.341
	C212.351,90.303,208.885,93.933,202.67,93.933z M202.396,78.422h-5.445v10.45h5.445c3.08,0,4.784-1.925,4.784-5.279
	C207.18,80.513,205.256,78.422,202.396,78.422z"/>
<path fill="#BF2F37" d="M214.66,110.103V73.252h5.17v36.851H214.66z"/>
<path fill="#BF2F37" d="M241.885,110.103l-11.386-24.695v24.695h-5.28V73.252h5.28l10.12,22.11v-22.11h5.28v36.851H241.885z"/>
<path fill="#BF2F37" d="M268.043,105.593c-1.43,3.189-4.4,5.17-8.14,5.17c-4.4,0-7.646-2.2-9.46-6.325
	c-1.155-2.75-1.926-7.92-1.926-12.705c0-5.17,0.386-8.91,1.705-12.43c1.266-3.851,5.006-6.71,9.295-6.71
	c5.281,0,9.295,3.904,9.57,9.35h-5.279c-0.166-2.475-1.815-4.18-4.4-4.18c-1.814,0-3.245,0.935-4.18,2.75
	c-0.99,1.814-1.65,5.939-1.65,10.34c0,3.08,0.275,6.325,0.77,9.185c0.771,3.575,2.586,5.556,5.445,5.556
	c2.695,0,4.016-1.815,4.016-5.721v-2.42h-4.181v-5.17h9.46v7.59C269.088,102.457,268.813,104.053,268.043,105.593z"/>
<path fill="#FFFFFF" d="M41.661,19.253v22.08H36.98v-22.08h-7.72v-4.72h20.12v4.72H41.661z"/>
<path fill="#FFFFFF" d="M67.421,41.813c-7.88,0-11.36-7.16-11.36-13.92c0-8.56,4.32-13.84,11.36-13.84c6.6,0,11.12,5.56,11.12,13.72
	C78.541,36.173,74.221,41.813,67.421,41.813z M67.421,18.854c-4.04,0-6.48,3.4-6.48,9.04c0,5.72,2.44,9.12,6.48,9.12
	c5.08,0,6.319-5,6.319-9.12C73.74,22.253,71.461,18.854,67.421,18.854z"/>
<path fill="#FFFFFF" d="M108.9,41.333h-5.08l-4.32-17.96l-4.239,17.96h-5.08l-4.88-26.8h4.96l2.92,17.32l3.96-17.32h4.8l4.12,17.32
	l2.76-17.32h4.88L108.9,41.333z"/>
<path fill="#FFFFFF" d="M118.58,30.534v-4.8h9.4v4.8H118.58z"/>
<path fill="#FFFFFF" d="M155.061,41.333l-2.641-6.32h-11.68l-2.6,6.32h-5.28l11.28-26.8h4.88l11.2,26.8H155.061z M146.58,21.213
	l-3.76,9.04h7.52L146.58,21.213z"/>
<path fill="#FFFFFF" d="M188.979,41.333h-5.08l-4.319-17.96l-4.24,17.96h-5.08l-4.88-26.8h4.96l2.92,17.32l3.96-17.32h4.8
	l4.12,17.32l2.76-17.32h4.881L188.979,41.333z"/>
<path fill="#FFFFFF" d="M221.06,41.333l-2.641-6.32h-11.68l-2.6,6.32h-5.28l11.28-26.8h4.88l11.2,26.8H221.06z M212.579,21.213
	l-3.76,9.04h7.52L212.579,21.213z"/>
<path fill="#FFFFFF" d="M247.459,30.414v10.92h-4.8v-10.92l-11.28-15.88h5.92l7.8,10.92l7.72-10.92h5.921L247.459,30.414z"/>
<path fill="#BF2F37" d="M116.623,177l-3.433-9.776h-10.868L98.891,177h-5.876l12.012-34.84h5.46L122.499,177H116.623z
	 M107.835,151.832l-3.588,9.776h6.968L107.835,151.832z"/>
<path fill="#BF2F37" d="M150.474,177l-13.312-23.608V177h-5.512v-34.84h5.512l12.688,22.256V142.16h5.512V177H150.474z"/>
<path fill="#BF2F37" d="M182.87,161.816V177h-5.512v-15.184l-12.221-19.656h6.604l8.32,13.468l8.424-13.468h6.5L182.87,161.816z"/>
<path fill="#BF2F37" d="M102.765,196.048V226h-5.512v-29.952h-7.956v-4.888h21.528v4.888H102.765z"/>
<path fill="#BF2F37" d="M119.873,226v-34.84h5.616V226H119.873z"/>
<path fill="#BF2F37" d="M159.34,226v-20.176L151.279,226l-8.06-20.176V226h-5.512v-34.84h5.512l8.06,19.552l8.061-19.552h5.512V226
	H159.34z"/>
<path fill="#BF2F37" d="M177.072,226v-34.84h20.539v5.512h-15.027v8.528h10.141v5.616h-10.141v9.567h16.119V226H177.072z"/>
<path fill="#BF2F37" d="M96.365,239.692v1.64h1.95v1.08h-1.95v2.92h-1.06v-6.7h4.16v1.061H96.365z"/>
<path fill="#BF2F37" d="M106.335,244.702c-0.38,0.51-0.92,0.75-1.62,0.75c-0.94,0-1.53-0.38-1.93-1.2
	c-0.28-0.57-0.47-1.46-0.47-2.26c0-1.101,0.28-2.09,0.73-2.73c0.4-0.51,0.94-0.75,1.71-0.75c0.85,0,1.44,0.38,1.86,1.2
	c0.28,0.59,0.45,1.44,0.45,2.28C107.065,243.052,106.805,244.112,106.335,244.702z M105.605,240.112
	c-0.21-0.351-0.47-0.49-0.87-0.521c-0.02,0-0.04,0-0.06,0c-0.48,0-0.8,0.26-1.02,0.83c-0.17,0.4-0.26,1.01-0.26,1.57
	c0,0.71,0.14,1.439,0.4,1.859c0.21,0.351,0.49,0.521,0.92,0.521c0.49,0,0.8-0.26,1.03-0.85c0.14-0.351,0.26-1.011,0.26-1.53
	C106.005,241.242,105.865,240.563,105.605,240.112z"/>
<path fill="#BF2F37" d="M113.955,245.332l-1.08-2.92h-1.27v2.92h-1.06v-6.7h2.21c0.52,0,0.87,0.05,1.2,0.21
	c0.59,0.28,1.01,0.99,1.01,1.67c0,0.71-0.42,1.41-1.04,1.69l1.18,3.13H113.955z M113.485,239.813c-0.18-0.101-0.26-0.12-0.61-0.12
	h-1.27v1.64h1.27c0.33,0,0.44-0.02,0.61-0.11c0.26-0.149,0.42-0.43,0.42-0.71C113.905,240.232,113.745,239.952,113.485,239.813z"/>
<path fill="#BF2F37" d="M124.445,239.572v5.76h-1.06v-5.76h-1.53v-0.94h4.14v0.94H124.445z"/>
<path fill="#BF2F37" d="M132.865,244.702c-0.38,0.51-0.92,0.75-1.62,0.75c-0.94,0-1.53-0.38-1.93-1.2
	c-0.28-0.57-0.47-1.46-0.47-2.26c0-1.101,0.28-2.09,0.73-2.73c0.4-0.51,0.94-0.75,1.71-0.75c0.85,0,1.44,0.38,1.86,1.2
	c0.28,0.59,0.45,1.44,0.45,2.28C133.595,243.052,133.335,244.112,132.865,244.702z M132.135,240.112
	c-0.21-0.351-0.47-0.49-0.87-0.521c-0.02,0-0.04,0-0.06,0c-0.48,0-0.8,0.26-1.02,0.83c-0.17,0.4-0.26,1.01-0.26,1.57
	c0,0.71,0.14,1.439,0.4,1.859c0.21,0.351,0.49,0.521,0.92,0.521c0.49,0,0.8-0.26,1.03-0.85c0.14-0.351,0.26-1.011,0.26-1.53
	C132.535,241.242,132.395,240.563,132.135,240.112z"/>
<path fill="#BF2F37" d="M141.445,245.332h-0.94l-1.06-4.3l-1.03,4.3h-0.94l-0.99-6.7h1.08l0.52,3.53l0.85-3.53h1.03l0.87,3.53
	l0.52-3.53h1.08L141.445,245.332z"/>
<path fill="#BF2F37" d="M145.426,245.332v-6.7h3.949v1.061h-2.891v1.64h1.951v1.08h-1.951v1.84h3.102v1.08H145.426z"/>
<path fill="#BF2F37" d="M156.096,244.952c-0.25,0.24-0.611,0.36-0.961,0.38c-0.07,0-0.209,0-0.379,0h-2.041v-6.7h2.16
	c0.68,0,0.939,0.07,1.301,0.351c0.699,0.609,1.1,1.67,1.1,2.989C157.275,243.313,156.855,244.372,156.096,244.952z M155.654,239.972
	c-0.17-0.159-0.398-0.279-0.68-0.279h-1.199v4.56h1.061c0.35,0,0.559-0.07,0.75-0.26c0.398-0.4,0.609-1.13,0.609-2.021
	C156.195,241.072,155.984,240.322,155.654,239.972z"/>
<path fill="#BF2F37" d="M167.346,245.452c-0.99,0-1.621-0.38-2.051-1.2c-0.301-0.59-0.49-1.439-0.49-2.28
	c0-1.06,0.279-2.12,0.75-2.71c0.4-0.489,0.961-0.75,1.721-0.75c1.01,0,1.639,0.431,2.09,1.37l-0.99,0.42
	c-0.371-0.569-0.59-0.71-1.1-0.71c-0.541,0-0.9,0.24-1.131,0.83c-0.17,0.4-0.26,0.98-0.26,1.55c0,0.73,0.16,1.46,0.42,1.88
	c0.24,0.351,0.541,0.521,1.01,0.521c0.451,0,0.781-0.24,1.041-0.78l1.01,0.38C168.965,244.952,168.305,245.452,167.346,245.452z"/>
<path fill="#BF2F37" d="M176.775,245.332l-0.66-1.88h-2.09l-0.66,1.88h-1.131l2.311-6.7h1.049l2.311,6.7H176.775z M175.084,240.492
	l-0.689,1.88h1.34L175.084,240.492z"/>
<path fill="#BF2F37" d="M184.324,245.332l-1.08-2.92h-1.27v2.92h-1.061v-6.7h2.211c0.52,0,0.869,0.05,1.199,0.21
	c0.59,0.28,1.012,0.99,1.012,1.67c0,0.71-0.422,1.41-1.041,1.69l1.18,3.13H184.324z M183.855,239.813
	c-0.18-0.101-0.26-0.12-0.611-0.12h-1.27v1.64h1.27c0.33,0,0.441-0.02,0.611-0.11c0.26-0.149,0.42-0.43,0.42-0.71
	C184.275,240.232,184.115,239.952,183.855,239.813z"/>
<path fill="#BF2F37" d="M192.035,244.932c-0.371,0.33-0.891,0.521-1.461,0.521c-1.15,0-1.99-0.68-2.439-1.7l1.01-0.37
	c0.279,0.63,0.801,0.99,1.43,0.99c0.621,0,1.041-0.43,1.041-0.99c0-0.89-1.041-1.04-1.91-1.39c-0.4-0.16-1.291-0.561-1.291-1.67
	c0-1.311,0.891-1.811,2.09-1.811c0.941,0,1.58,0.54,1.91,1.37l-0.939,0.28c0,0-0.24-0.57-0.99-0.59c-0.029,0-0.051,0-0.07,0
	c-0.459,0-0.959,0.18-0.959,0.71c0,0.02,0,0.05,0,0.069c0.09,1.24,3.24,0.421,3.24,3.051
	C192.695,244.012,192.455,244.552,192.035,244.932z"/>
<path fill="#BF2F37" d="M99.051,254.535c-0.311,0.141-0.71,0.23-1.23,0.23h-1.24v2.92h-1.06v-6.7h2.3c0.54,0,0.9,0.05,1.23,0.21
	c0.58,0.28,1.029,0.99,1.029,1.67C100.08,253.575,99.631,254.275,99.051,254.535z M98.601,252.166c-0.19-0.101-0.311-0.12-0.64-0.12
	H96.58v1.64h1.381c0.329,0,0.449-0.02,0.64-0.11c0.229-0.12,0.399-0.43,0.399-0.71C99,252.586,98.83,252.306,98.601,252.166z"/>
<path fill="#BF2F37" d="M106.57,257.686v-2.92h-2.44v2.92h-1.06v-6.7h1.06v2.7h2.44v-2.7h1.06v6.7H106.57z"/>
<path fill="#BF2F37" d="M115.11,257.056c-0.38,0.51-0.92,0.75-1.62,0.75c-0.939,0-1.53-0.38-1.93-1.2
	c-0.28-0.57-0.47-1.46-0.47-2.26c0-1.101,0.279-2.09,0.729-2.73c0.4-0.51,0.94-0.75,1.71-0.75c0.851,0,1.44,0.38,1.86,1.2
	c0.28,0.59,0.45,1.44,0.45,2.28C115.841,255.405,115.58,256.466,115.11,257.056z M114.381,252.466
	c-0.21-0.351-0.471-0.49-0.87-0.521c-0.021,0-0.04,0-0.061,0c-0.479,0-0.8,0.26-1.02,0.83c-0.17,0.4-0.26,1.01-0.26,1.57
	c0,0.71,0.14,1.439,0.399,1.859c0.21,0.351,0.49,0.521,0.92,0.521c0.49,0,0.8-0.26,1.03-0.85c0.14-0.351,0.26-1.011,0.26-1.53
	C114.78,253.596,114.641,252.916,114.381,252.466z"/>
<path fill="#BF2F37" d="M122.94,257.686l-2.561-4.54v4.54h-1.06v-6.7h1.06l2.44,4.28v-4.28h1.06v6.7H122.94z"/>
<path fill="#BF2F37" d="M127.48,257.686v-6.7h3.95v1.061h-2.891v1.64h1.95v1.08h-1.95v1.84h3.101v1.08H127.48z"/>
<path fill="#BF2F37" d="M140.479,257.806c-0.579,0-1.17-0.14-1.64-0.38l0.521-0.94c0.279,0.141,0.77,0.24,1.26,0.24
	c0.97,0,1.72-0.64,1.72-1.51c0-0.66-0.54-1.17-1.2-1.17c-0.47,0-0.68,0.14-1.08,0.699l-0.89-0.3v-3.46h3.85v1.061H140.2l-0.07,1.1
	c0.49-0.14,0.71-0.19,1.04-0.19c1.22,0,2.23,1.04,2.23,2.261C143.4,256.695,142.18,257.806,140.479,257.806z"/>
<path fill="#BF2F37" d="M148.359,257.806c-0.579,0-1.17-0.14-1.639-0.38l0.52-0.94c0.279,0.141,0.77,0.24,1.26,0.24
	c0.971,0,1.721-0.64,1.721-1.51c0-0.66-0.541-1.17-1.201-1.17c-0.469,0-0.68,0.14-1.08,0.699l-0.889-0.3v-3.46h3.85v1.061h-2.82
	l-0.07,1.1c0.49-0.14,0.711-0.19,1.041-0.19c1.219,0,2.229,1.04,2.229,2.261C151.28,256.695,150.061,257.806,148.359,257.806z"/>
<path fill="#BF2F37" d="M156.71,257.806c-1.08,0-1.95-0.71-2.229-1.79l1.039-0.3c0.16,0.649,0.61,1.01,1.24,1.01
	c0.71,0,1.2-0.5,1.2-1.18c0-0.351-0.14-0.681-0.38-0.851c-0.16-0.109-0.18-0.109-0.68-0.14c-0.021,0-0.07,0-0.121,0v-1.08v0.03
	h0.031h0.229c0.43,0,0.659-0.24,0.659-0.66c0-0.521-0.42-0.9-0.959-0.9c-0.45,0-0.78,0.221-1.01,0.66l-0.99-0.37
	c0.35-0.85,1.1-1.37,1.97-1.37c1.13,0,2.05,0.92,2.05,2.051c0,0.399-0.09,0.68-0.38,1.1c0.5,0.45,0.64,0.8,0.64,1.46
	C159.02,256.836,158.08,257.806,156.71,257.806z"/>
<path fill="#BF2F37" d="M161.91,254.916v-1.061h2.35v1.061H161.91z"/>
<path fill="#BF2F37" d="M167.74,257.686v-5.43h-0.61v-0.851h0.069c0.28,0,0.59-0.16,0.771-0.42h0.851v6.7H167.74z"/>
<path fill="#BF2F37" d="M172.279,257.686c0.021-0.78,0.19-1.41,0.561-2.05c0.279-0.51,0.71-0.94,1.18-1.29
	c0.12-0.07,0.21-0.141,0.301-0.21l0.359-0.19l0.33-0.189l0.32-0.181c0.26-0.17,0.449-0.449,0.449-0.729c0-0.5-0.56-0.9-1.22-0.9
	c-0.681,0-1.11,0.33-1.22,0.94l-1.061-0.23c0.23-1.109,1.1-1.79,2.28-1.79c1.271,0,2.28,0.9,2.28,2c0,0.521-0.24,1.04-0.68,1.431
	c-0.101,0.08-0.19,0.149-0.281,0.189l-0.329,0.21l-0.36,0.19l-0.33,0.189c-0.63,0.38-0.98,0.78-1.31,1.53h3.29v1.08H172.279z"/>
<path fill="#BF2F37" d="M182.27,257.806c-1.08,0-1.95-0.71-2.23-1.79l1.041-0.3c0.16,0.649,0.609,1.01,1.239,1.01
	c0.71,0,1.2-0.5,1.2-1.18c0-0.351-0.141-0.681-0.38-0.851c-0.16-0.109-0.181-0.109-0.681-0.14c-0.02,0-0.069,0-0.119,0v-1.08v0.03
	h0.029h0.23c0.43,0,0.66-0.24,0.66-0.66c0-0.521-0.42-0.9-0.961-0.9c-0.449,0-0.779,0.221-1.01,0.66l-0.99-0.37
	c0.351-0.85,1.101-1.37,1.971-1.37c1.13,0,2.05,0.92,2.05,2.051c0,0.399-0.09,0.68-0.38,1.1c0.5,0.45,0.641,0.8,0.641,1.46
	C184.58,256.836,183.64,257.806,182.27,257.806z"/>
<path fill="#BF2F37" d="M189.559,257.806c-0.579,0-1.17-0.14-1.639-0.38l0.52-0.94c0.279,0.141,0.77,0.24,1.26,0.24
	c0.971,0,1.721-0.64,1.721-1.51c0-0.66-0.541-1.17-1.201-1.17c-0.469,0-0.68,0.14-1.08,0.699l-0.889-0.3v-3.46h3.85v1.061h-2.82
	l-0.07,1.1c0.49-0.14,0.711-0.19,1.041-0.19c1.219,0,2.229,1.04,2.229,2.261C192.479,256.695,191.26,257.806,189.559,257.806z"/>
<path fill="#BF2F37" d="M180.813,271.922l-0.356-0.63c0.56-0.441,0.854-0.819,1.134-1.428c-0.267,0.049-0.378,0.063-0.561,0.063
	c-0.875,0-1.596-0.637-1.596-1.428c0-0.805,0.707-1.436,1.596-1.436c0.903,0,1.597,0.645,1.597,1.498
	C182.626,269.85,181.897,271.18,180.813,271.922z M181.029,267.82c-0.462,0-0.84,0.301-0.84,0.679s0.378,0.672,0.84,0.672
	c0.477,0,0.854-0.294,0.854-0.672C181.884,268.135,181.491,267.82,181.029,267.82z"/>
<path fill="#BF2F37" d="M185.622,266.546l-1.834,5.894h-0.609l1.834-5.894H185.622z"/>
<path fill="#BF2F37" d="M188.996,271.396c-0.267,0.357-0.645,0.525-1.135,0.525c-0.657,0-1.07-0.266-1.351-0.84
	c-0.196-0.399-0.329-1.022-0.329-1.582c0-0.771,0.196-1.463,0.511-1.911c0.28-0.357,0.658-0.525,1.197-0.525
	c0.595,0,1.008,0.267,1.302,0.841c0.196,0.413,0.315,1.008,0.315,1.596C189.507,270.242,189.325,270.983,188.996,271.396z
	 M188.484,268.184c-0.146-0.245-0.329-0.343-0.608-0.363c-0.015,0-0.028,0-0.042,0c-0.336,0-0.561,0.182-0.714,0.581
	c-0.119,0.279-0.183,0.706-0.183,1.099c0,0.497,0.099,1.008,0.28,1.302c0.146,0.245,0.343,0.364,0.644,0.364
	c0.344,0,0.561-0.183,0.722-0.595c0.098-0.245,0.182-0.707,0.182-1.071C188.765,268.975,188.667,268.499,188.484,268.184z"/>
<path fill="#BF2F37" d="M193.14,270.669v1.169h-0.735v-1.169h-2.324v-0.441l2.324-3.08h0.735v2.85h0.447v0.672H193.14z
	 M192.404,268.232l-1.337,1.765h1.337V268.232z"/>
<path fill="#BF2F37" d="M201.749,271.558c-0.259,0.231-0.623,0.364-1.021,0.364c-0.806,0-1.394-0.476-1.708-1.19l0.706-0.259
	c0.196,0.441,0.561,0.693,1.002,0.693c0.434,0,0.728-0.301,0.728-0.693c0-0.623-0.728-0.728-1.337-0.973
	c-0.28-0.112-0.903-0.393-0.903-1.169c0-0.917,0.623-1.268,1.463-1.268c0.658,0,1.106,0.379,1.337,0.959l-0.657,0.196
	c0,0-0.168-0.398-0.693-0.413c-0.021,0-0.035,0-0.049,0c-0.322,0-0.672,0.126-0.672,0.497c0,0.015,0,0.035,0,0.049
	c0.063,0.868,2.268,0.294,2.268,2.136C202.211,270.914,202.043,271.292,201.749,271.558z"/>
<path fill="#BF2F37" d="M205.753,271.558c-0.259,0.231-0.623,0.364-1.021,0.364c-0.806,0-1.394-0.476-1.708-1.19l0.706-0.259
	c0.196,0.441,0.561,0.693,1.002,0.693c0.434,0,0.728-0.301,0.728-0.693c0-0.623-0.728-0.728-1.337-0.973
	c-0.28-0.112-0.903-0.393-0.903-1.169c0-0.917,0.623-1.268,1.463-1.268c0.658,0,1.106,0.379,1.337,0.959l-0.657,0.196
	c0,0-0.168-0.398-0.693-0.413c-0.021,0-0.035,0-0.049,0c-0.322,0-0.672,0.126-0.672,0.497c0,0.015,0,0.035,0,0.049
	c0.063,0.868,2.268,0.294,2.268,2.136C206.215,270.914,206.047,271.292,205.753,271.558z"/>
<path fill="#BF2F37" d="M209.036,271.922c-0.693,0-1.134-0.266-1.436-0.84c-0.21-0.413-0.343-1.008-0.343-1.596
	c0-0.742,0.196-1.484,0.525-1.897c0.279-0.343,0.672-0.525,1.204-0.525c0.707,0,1.147,0.302,1.463,0.959l-0.693,0.295
	c-0.259-0.399-0.413-0.497-0.77-0.497c-0.379,0-0.631,0.168-0.791,0.581c-0.119,0.279-0.183,0.686-0.183,1.085
	c0,0.511,0.112,1.021,0.294,1.315c0.168,0.245,0.378,0.364,0.707,0.364c0.315,0,0.546-0.168,0.729-0.546l0.707,0.266
	C210.17,271.572,209.708,271.922,209.036,271.922z"/>
<path fill="#BF2F37" d="M217.296,271.922c-0.693,0-1.134-0.266-1.436-0.84c-0.21-0.413-0.343-1.008-0.343-1.596
	c0-0.742,0.196-1.484,0.525-1.897c0.279-0.343,0.672-0.525,1.204-0.525c0.707,0,1.147,0.302,1.463,0.959l-0.693,0.295
	c-0.259-0.399-0.413-0.497-0.77-0.497c-0.379,0-0.631,0.168-0.791,0.581c-0.119,0.279-0.183,0.686-0.183,1.085
	c0,0.511,0.112,1.021,0.294,1.315c0.168,0.245,0.378,0.364,0.707,0.364c0.315,0,0.546-0.168,0.729-0.546l0.707,0.266
	C218.43,271.572,217.968,271.922,217.296,271.922z"/>
<path fill="#BF2F37" d="M223.162,271.838l-0.398-0.497c-0.413,0.434-0.771,0.595-1.302,0.595c-0.868,0-1.478-0.56-1.478-1.364
	c0-0.378,0.147-0.693,0.441-0.974c0.133-0.146,0.23-0.279,0.546-0.44c-0.329-0.448-0.427-0.68-0.427-1.022
	c0-0.608,0.476-1.05,1.183-1.05c0.658,0,1.12,0.441,1.12,1.063c0,0.497-0.231,0.826-0.777,1.19l0.679,0.84
	c0.063-0.203,0.112-0.398,0.134-0.608h0.707c-0.05,0.504-0.134,0.805-0.364,1.161l0.938,1.106H223.162z M221.447,269.717
	c-0.476,0.259-0.672,0.511-0.672,0.84c0,0.378,0.329,0.687,0.721,0.687c0.315,0,0.546-0.112,0.826-0.455L221.447,269.717z
	 M221.714,267.708c-0.252,0-0.448,0.182-0.448,0.413c0,0.111,0.035,0.21,0.119,0.343c0.014,0.049,0.077,0.119,0.146,0.217
	c0.015,0.015,0.035,0.049,0.049,0.077c0.05,0.049,0.063,0.07,0.063,0.07c0.364-0.231,0.497-0.413,0.497-0.658
	C222.141,267.89,221.958,267.708,221.714,267.708z"/>
<path fill="#BF2F37" d="M226.753,271.922c-0.693,0-1.134-0.266-1.436-0.84c-0.21-0.413-0.343-1.008-0.343-1.596
	c0-0.742,0.196-1.484,0.525-1.897c0.279-0.343,0.672-0.525,1.204-0.525c0.707,0,1.147,0.302,1.463,0.959l-0.693,0.295
	c-0.259-0.399-0.413-0.497-0.77-0.497c-0.379,0-0.631,0.168-0.791,0.581c-0.119,0.279-0.183,0.686-0.183,1.085
	c0,0.511,0.112,1.021,0.294,1.315c0.168,0.245,0.378,0.364,0.707,0.364c0.315,0,0.546-0.168,0.729-0.546l0.707,0.266
	C227.887,271.572,227.425,271.922,226.753,271.922z"/>
<path fill="#BF2F37" d="M234.152,271.396c-0.267,0.357-0.645,0.525-1.135,0.525c-0.657,0-1.07-0.266-1.351-0.84
	c-0.196-0.399-0.329-1.022-0.329-1.582c0-0.771,0.196-1.463,0.511-1.911c0.28-0.357,0.658-0.525,1.197-0.525
	c0.595,0,1.008,0.267,1.302,0.841c0.196,0.413,0.315,1.008,0.315,1.596C234.663,270.242,234.481,270.983,234.152,271.396z
	 M233.641,268.184c-0.146-0.245-0.329-0.343-0.608-0.363c-0.015,0-0.028,0-0.042,0c-0.336,0-0.561,0.182-0.714,0.581
	c-0.119,0.279-0.183,0.706-0.183,1.099c0,0.497,0.099,1.008,0.28,1.302c0.146,0.245,0.343,0.364,0.644,0.364
	c0.344,0,0.561-0.183,0.722-0.595c0.098-0.245,0.182-0.707,0.182-1.071C233.921,268.975,233.823,268.499,233.641,268.184z"/>
<path fill="#BF2F37" d="M236.791,267.89v1.148h1.365v0.756h-1.365v2.044h-0.742v-4.69h2.912v0.742H236.791z"/>
<path fill="#BF2F37" d="M244.302,271.558c-0.259,0.231-0.623,0.364-1.021,0.364c-0.806,0-1.394-0.476-1.708-1.19l0.706-0.259
	c0.196,0.441,0.561,0.693,1.002,0.693c0.434,0,0.728-0.301,0.728-0.693c0-0.623-0.728-0.728-1.337-0.973
	c-0.28-0.112-0.903-0.393-0.903-1.169c0-0.917,0.623-1.268,1.463-1.268c0.658,0,1.106,0.379,1.337,0.959l-0.657,0.196
	c0,0-0.168-0.398-0.693-0.413c-0.021,0-0.035,0-0.049,0c-0.322,0-0.672,0.126-0.672,0.497c0,0.015,0,0.035,0,0.049
	c0.063,0.868,2.268,0.294,2.268,2.136C244.764,270.914,244.596,271.292,244.302,271.558z"/>
<path fill="#BF2F37" d="M245.954,271.887c-0.231,0-0.428-0.196-0.428-0.427c0-0.231,0.196-0.413,0.428-0.413
	c0.23,0,0.413,0.182,0.413,0.413C246.367,271.69,246.185,271.887,245.954,271.887z"/>
<path fill="#BF2F37" d="M248.215,267.89v1.148h1.365v0.756h-1.365v2.044h-0.742v-4.69h2.912v0.742H248.215z"/>
<path fill="#BF2F37" d="M251.478,271.887c-0.231,0-0.428-0.196-0.428-0.427c0-0.231,0.196-0.413,0.428-0.413
	c0.23,0,0.413,0.182,0.413,0.413C251.891,271.69,251.708,271.887,251.478,271.887z"/>
<path fill="#BF2F37" d="M258.169,271.922c-0.757,0-1.365-0.497-1.562-1.253l0.729-0.21c0.111,0.455,0.427,0.707,0.867,0.707
	c0.497,0,0.841-0.351,0.841-0.826c0-0.245-0.099-0.476-0.267-0.595c-0.112-0.077-0.126-0.077-0.476-0.099c-0.015,0-0.049,0-0.084,0
	v-0.756v0.021h0.021h0.161c0.301,0,0.462-0.168,0.462-0.462c0-0.364-0.294-0.63-0.672-0.63c-0.315,0-0.546,0.153-0.707,0.462
	l-0.693-0.26c0.245-0.595,0.771-0.959,1.38-0.959c0.791,0,1.435,0.645,1.435,1.436c0,0.28-0.063,0.476-0.266,0.77
	c0.35,0.315,0.447,0.561,0.447,1.022C259.785,271.243,259.128,271.922,258.169,271.922z"/>
<path fill="#BF2F37" d="M264.083,271.838v-2.716l-1.085,2.716l-1.085-2.716v2.716h-0.742v-4.69h0.742l1.085,2.633l1.085-2.633h0.742
	v4.69H264.083z"/>
</svg>
