<?xml version="1.0" encoding="UTF-8" standalone="no"?>
<!-- Generator: Adobe Illustrator 12.0.1, SVG Export Plug-In  -->

<svg
   xmlns:dc="http://purl.org/dc/elements/1.1/"
   xmlns:cc="http://creativecommons.org/ns#"
   xmlns:rdf="http://www.w3.org/1999/02/22-rdf-syntax-ns#"
   xmlns:svg="http://www.w3.org/2000/svg"
   xmlns="http://www.w3.org/2000/svg"
   xmlns:sodipodi="http://sodipodi.sourceforge.net/DTD/sodipodi-0.dtd"
   xmlns:inkscape="http://www.inkscape.org/namespaces/inkscape"
   version="1.1"
   width="191.15625"
   height="286.6875"
   viewBox="-0.764 -1 191.15625 286.6875"
   enable-background="new -0.764 -1 194 289"
   xml:space="preserve"
   id="svg2"
   inkscape:version="0.48.2 r9819"
   sodipodi:docname="AJAX1.svg"><metadata
   id="metadata106"><rdf:RDF><cc:Work
       rdf:about=""><dc:format>image/svg+xml</dc:format><dc:type
         rdf:resource="http://purl.org/dc/dcmitype/StillImage" /></cc:Work></rdf:RDF></metadata><sodipodi:namedview
   pagecolor="#ffffff"
   bordercolor="#666666"
   borderopacity="1"
   objecttolerance="10"
   gridtolerance="10"
   guidetolerance="10"
   inkscape:pageopacity="0"
   inkscape:pageshadow="2"
   inkscape:window-width="1280"
   inkscape:window-height="1004"
   id="namedview104"
   showgrid="false"
   fit-margin-top="0"
   fit-margin-left="0"
   fit-margin-right="0"
   fit-margin-bottom="0"
   inkscape:zoom="2.309719"
   inkscape:cx="119.55763"
   inkscape:cy="158.21258"
   inkscape:window-x="-8"
   inkscape:window-y="-8"
   inkscape:window-maximized="1"
   inkscape:current-layer="svg2" />
<defs
   id="defs4">
</defs>
<path
   d="m -0.7275,261.75475 c 0,6.287 2.469,12.494 6.946,16.955 4.456,4.473 10.666,6.938 16.955,6.938 h 143.252 c 6.329,0 12.393,-2.465 16.867,-6.938 4.456,-4.461 7.053,-10.637 7.053,-16.955 v -238.843 c 0,-6.257 -2.644,-12.42 -7.053,-16.846 -4.442,-4.442 -10.576,-7.023 -16.867,-7.023 H 23.1745 c -6.323,0 -12.485,2.532 -16.955,7.023 -4.46,4.456 -6.946,10.554 -6.946,16.846 v 238.843 z"
   id="path6"
   inkscape:connector-curvature="0"
   style="fill:#ffffff" />
<path
   d="M 166.4265,-0.25825 H 23.1745 c -6.147,0 -12.144,2.484 -16.462,6.816 -4.285,4.277 -6.739,10.239 -6.739,16.354 v 238.842 c 0,6.193 2.454,12.193 6.739,16.457 4.266,4.285 10.264,6.736 16.462,6.736 h 143.252 c 6.217,0 12.03,-2.391 16.37,-6.736 4.354,-4.354 6.854,-10.352 6.854,-16.457 v -238.842 c 0,-6.024 -2.5,-11.981 -6.854,-16.354 -4.331,-4.332 -10.292,-6.816 -16.37,-6.816 z"
   id="path8"
   style="fill:#ffffff;stroke:#000000;stroke-width:1.50000000000000000;stroke-miterlimit:4;stroke-opacity:1;stroke-dasharray:none"
   inkscape:connector-curvature="0" />

<path
   d="m 184.1615,22.91175 c 0,-4.681 -1.803,-9.224 -5.147,-12.548 -3.327,-3.327 -7.881,-5.127 -12.578,-5.127 H 23.1655 c -4.74,0 -9.281,1.782 -12.657,5.127 -3.346,3.295 -5.283,7.853 -5.283,12.548 v 62.432 h 178.937 v -62.432 z"
   id="path12"
   inkscape:connector-curvature="0"
   style="fill:#bf2f37;stroke:none" />
<path
   d="m 5.2245,261.75475 c 0.237,3.738 0.903,6.779 3.053,9.977 3.294,4.92 8.963,7.961 14.888,7.961 h 143.27 c 4.684,0 9.283,-1.93 12.578,-5.252 3.363,-3.359 5.147,-7.965 5.147,-12.686 V 88.34375 H 5.2245 v 173.411 z"
   id="path14"
   inkscape:connector-curvature="0"
   style="fill:#005a9c;stroke:none" />
<path
   clip-rule="evenodd"
   d="m 127.8305,73.19175 v -7.405 h -51.368 l 1.372,-4.531 c 0.01,-0.059 0.018,-0.127 0.018,-0.186 0,-0.079 -0.007,-0.148 -0.018,-0.216 0,-0.229 -0.051,-0.422 -0.167,-0.622 -0.219,-0.366 -0.75,-0.714 -1.194,-0.593 -0.2,0.06 -0.387,0.138 -0.554,0.246 l -14.125,9.605 14.125,9.736 c 0.147,0.098 0.375,0.137 0.554,0.137 0.484,0 0.896,-0.118 1.173,-0.53 0.137,-0.219 0.188,-0.445 0.188,-0.704 0.01,-0.039 0.01,-0.059 0.018,-0.098 0,-0.059 -0.007,-0.118 -0.018,-0.176 l -1.372,-4.662 h 51.368"
   id="path16"
   inkscape:connector-curvature="0"
   style="fill:#ffffff;fill-rule:evenodd;stroke:none" />
<path
   d="m 87.8185,140.98675 c -1.074,0 -1.984,0.374 -2.73,1.12 -0.746,0.747 -1.119,1.658 -1.119,2.73 0,1.074 0.385,1.984 1.154,2.73 0.769,0.746 1.691,1.119 2.765,1.119 1.074,0 1.972,-0.373 2.695,-1.119 0.723,-0.746 1.085,-1.656 1.085,-2.73 0,-1.072 -0.374,-1.983 -1.12,-2.73 -0.746,-0.746 -1.657,-1.12 -2.73,-1.12 z"
   id="path18"
   inkscape:connector-curvature="0"
   style="fill:none" />
<path
   d="m 131.2585,140.98675 c -1.073,0 -1.983,0.374 -2.729,1.12 -0.747,0.747 -1.12,1.658 -1.12,2.73 0,1.074 0.361,1.984 1.085,2.73 0.723,0.746 1.621,1.119 2.695,1.119 1.073,0 1.995,-0.373 2.765,-1.119 0.77,-0.746 1.155,-1.656 1.155,-2.73 0,-1.072 -0.374,-1.983 -1.12,-2.73 -0.748,-0.746 -1.658,-1.12 -2.731,-1.12 z"
   id="path20"
   inkscape:connector-curvature="0"
   style="fill:none" />
<circle
   clip-rule="evenodd"
   cx="96.236"
   cy="154.089"
   r="54"
   id="circle22"
   sodipodi:cx="96.236"
   sodipodi:cy="154.089"
   sodipodi:rx="54"
   sodipodi:ry="54"
   style="fill:#ffffff;fill-rule:evenodd;stroke:none"
   transform="translate(-1.4245,-1.65625)" />
<path
   d="m 54.4985,166.26875 v 2.415 c -0.934,0.63 -1.68,1.459 -2.24,2.484 -0.561,1.027 -0.84,2.124 -0.84,3.291 0,1.937 0.688,3.594 2.064,4.97 1.376,1.376 3.034,2.065 4.971,2.065 1.727,0 3.249,-0.561 4.567,-1.68 1.318,-1.121 2.106,-2.521 2.362,-4.201 l 1.295,2.87 c -0.77,1.493 -1.879,2.694 -3.324,3.605 -1.447,0.909 -3.045,1.364 -4.795,1.364 -2.498,0 -4.633,-0.887 -6.406,-2.659 -1.773,-1.773 -2.659,-3.908 -2.659,-6.405 0,-1.75 0.46,-3.354 1.382,-4.813 0.922,-1.456 2.13,-2.559 3.623,-3.306 z m 1.015,5.111 -0.806,-12.601 c -0.163,-0.42 -0.245,-0.77 -0.245,-1.05 0,-0.63 0.222,-1.166 0.665,-1.609 0.443,-0.443 0.979,-0.666 1.61,-0.666 0.629,0 1.166,0.223 1.609,0.666 0.443,0.443 0.666,0.979 0.666,1.609 0,0.63 -0.217,1.161 -0.648,1.593 -0.431,0.432 -0.951,0.659 -1.557,0.683 l 0.35,5.459 h 6.475 v 2.031 h -6.334 l 0.209,1.994 h 8.61 l 3.78,8.295 2.975,-1.26 0.63,1.471 -4.864,2.17 -3.92,-8.785 h -9.205 z"
   id="path24"
   inkscape:connector-curvature="0"
   style="fill:#005a9c;stroke:none;fill-opacity:1" />
<path
   d="m 137.7325,141.08275 c -0.232,-2.684 -0.652,-6.043 -1.26,-10.08 -0.606,-4.039 -1.621,-7.607 -3.045,-10.711 -1.424,-3.104 -3.139,-4.865 -5.146,-5.287 -5.133,-1.119 -11.316,-1.68 -18.55,-1.68 -1.024,0 -2.219,0.012 -3.52,0.035 -1.301,-0.023 -2.495,-0.035 -3.52,-0.035 -7.233,0 -13.417,0.561 -18.55,1.68 -2.007,0.422 -3.722,2.184 -5.146,5.287 -1.424,3.103 -2.438,6.672 -3.045,10.711 -0.607,4.037 -1.027,7.396 -1.26,10.08 -0.233,2.684 -0.35,4.654 -0.35,5.914 v 25.83 c 0,0.559 0.187,1.025 0.56,1.4 0.373,0.371 0.724,0.605 1.05,0.699 l 0.561,0.07 h 4.27 l 0.043,6.656 c 0,0.708 2.137,1.282 4.773,1.282 2.635,0 4.772,-0.574 4.773,-1.282 v -1.402 c 0,-0.002 0,-0.003 0,-0.004 v -5.041 h 15.84 15.84 v 5.041 1.406 c 0.001,0.708 2.138,1.282 4.773,1.282 2.635,0 4.773,-0.574 4.773,-1.282 l 0.043,-6.656 h 4.27 l 0.561,-0.07 c 0.326,-0.094 0.677,-0.328 1.05,-0.699 0.373,-0.375 0.56,-0.842 0.56,-1.4 v -25.83 c 0.002,-1.26 -0.114,-3.231 -0.348,-5.914 z m -6.36,18.023 c 0,1.074 -0.385,1.984 -1.154,2.73 -0.769,0.746 -1.691,1.119 -2.765,1.119 -1.074,0 -1.972,-0.373 -2.695,-1.119 -0.723,-0.746 -1.085,-1.656 -1.085,-2.73 0,-1.072 0.374,-1.982 1.12,-2.73 0.746,-0.746 1.656,-1.119 2.729,-1.119 1.074,0 1.984,0.373 2.73,1.119 0.747,0.748 1.12,1.658 1.12,2.73 z m -38.06,-41.693 h 12.9 12.9 c 0.622,0 1.126,0.756 1.126,1.688 0,0.932 -0.504,1.688 -1.126,1.688 h -12.9 -12.9 c -0.622,0 -1.126,-0.756 -1.126,-1.688 0,-0.932 0.504,-1.688 1.126,-1.688 z m -11.139,38.963 c 0.746,-0.746 1.656,-1.119 2.73,-1.119 1.073,0 1.983,0.373 2.729,1.119 0.746,0.748 1.12,1.658 1.12,2.73 0,1.074 -0.362,1.984 -1.085,2.73 -0.724,0.746 -1.622,1.119 -2.695,1.119 -1.073,0 -1.995,-0.373 -2.765,-1.119 -0.77,-0.746 -1.154,-1.656 -1.154,-2.73 0.001,-1.072 0.374,-1.982 1.12,-2.73 z m 24.04,-9.643 h -17.429 c -3.977,0 -7.2,-0.518 -7.2,-4.494 l 2,-12.057 c 0.5,-3.977 2.224,-5.201 6.2,-5.201 h 16.429 16.429 c 3.977,0 5.7,1.225 6.2,5.201 l 2,12.057 c 0,3.977 -3.224,4.494 -7.2,4.494 h -17.429 z"
   id="path26"
   inkscape:connector-curvature="0"
   style="fill:#005a9c;stroke:none;fill-opacity:1" />
<path
   d="m 50.4035,278.15275 h -1.235 v -2.814 h 1.235 c 0.781,0 1.412,0.63 1.412,1.403 0,0.78 -0.631,1.411 -1.412,1.411 z m 0,-2.281 h -0.701 v 1.748 h 0.701 c 0.483,0 0.87,-0.396 0.87,-0.878 0,-0.476 -0.386,-0.87 -0.87,-0.87 z"
   id="path28"
   inkscape:connector-curvature="0"
   style="fill:#ffffff;stroke:none" />
<path
   d="m 53.7465,278.15275 v -2.814 h 2.243 v 0.533 h -1.709 v 0.513 h 0.987 v 0.542 h -0.987 v 0.693 h 1.747 v 0.533 h -2.281 z"
   id="path30"
   inkscape:connector-curvature="0"
   style="fill:#ffffff;stroke:none" />
<path
   d="m 59.7275,277.09375 h -1.235 v 1.059 h -0.533 v -2.814 h 1.768 c 0.483,0 0.878,0.395 0.878,0.878 0,0.482 -0.395,0.877 -0.878,0.877 z m 0,-1.222 h -1.235 v 0.693 h 1.235 c 0.189,0 0.336,-0.16 0.336,-0.349 0,-0.184 -0.147,-0.344 -0.336,-0.344 z"
   id="path32"
   inkscape:connector-curvature="0"
   style="fill:#ffffff;stroke:none" />
<path
   d="m 63.7505,275.87175 v 2.281 h -0.533 v -2.281 h -0.966 v -0.533 h 2.419 v 0.533 h -0.92 z"
   id="path34"
   inkscape:connector-curvature="0"
   style="fill:#ffffff;stroke:none" />
<path
   d="m 70.0595,278.20275 c -0.798,0 -1.47,-0.663 -1.47,-1.461 0,-0.819 0.643,-1.453 1.47,-1.453 0.781,0 1.47,0.663 1.47,1.44 0,0.811 -0.667,1.474 -1.47,1.474 z m 0.936,-1.461 c 0,-0.505 -0.424,-0.908 -0.937,-0.908 -0.512,0 -0.937,0.396 -0.937,0.896 0,0.517 0.424,0.928 0.937,0.928 0.513,0 0.937,-0.411 0.937,-0.928 v 0.012 z"
   id="path36"
   inkscape:connector-curvature="0"
   style="fill:#ffffff;stroke:none" />
<path
   d="m 73.9945,275.87175 v 0.513 h 1.045 v 0.542 h -1.045 v 1.227 h -0.534 v -2.814 h 2.28 v 0.533 h -1.746 z"
   id="path38"
   inkscape:connector-curvature="0"
   style="fill:#ffffff;stroke:none" />
<path
   d="m 83.0125,275.87175 v 2.281 h -0.533 v -2.281 h -0.967 v -0.533 h 2.42 v 0.533 h -0.92 z"
   id="path40"
   inkscape:connector-curvature="0"
   style="fill:#ffffff;stroke:none" />
<path
   d="m 87.7215,278.15275 -0.622,-1.059 h -0.87 v 1.059 h -0.533 v -2.814 h 1.718 c 0.496,0 0.891,0.395 0.891,0.878 0,0.378 -0.239,0.701 -0.605,0.831 l 0.643,1.105 h -0.622 z m -0.308,-2.281 h -1.185 v 0.693 h 1.185 c 0.198,0 0.357,-0.16 0.357,-0.349 0,-0.184 -0.159,-0.344 -0.357,-0.344 z"
   id="path42"
   inkscape:connector-curvature="0"
   style="fill:#ffffff;stroke:none" />
<path
   d="m 92.5925,278.15275 -0.286,-0.613 h -1.432 l -0.294,0.613 h -0.592 l 1.332,-2.814 h 0.533 l 1.335,2.814 h -0.596 z m -1.004,-2.134 -0.466,0.979 h 0.928 l -0.462,-0.979 z"
   id="path44"
   inkscape:connector-curvature="0"
   style="fill:#ffffff;stroke:none" />
<path
   d="m 97.0615,278.15275 -1.58,-1.945 v 1.945 h -0.534 v -2.814 h 0.525 l 1.58,1.966 v -1.966 h 0.542 v 2.814 h -0.533 z"
   id="path46"
   inkscape:connector-curvature="0"
   style="fill:#ffffff;stroke:none" />
<path
   d="m 100.9295,278.20275 c -0.575,0 -0.979,-0.117 -1.402,-0.424 l 0.306,-0.438 c 0.337,0.228 0.631,0.315 1.076,0.315 0.475,0 0.73,-0.105 0.73,-0.323 0,-0.117 -0.109,-0.239 -0.269,-0.298 -0.135,-0.047 -0.303,-0.088 -0.668,-0.156 -0.428,-0.088 -0.635,-0.167 -0.781,-0.314 -0.147,-0.151 -0.219,-0.307 -0.219,-0.495 0,-0.299 0.16,-0.513 0.475,-0.643 0.198,-0.089 0.446,-0.139 0.681,-0.139 0.395,0 0.752,0.109 1.126,0.335 l -0.286,0.446 c -0.286,-0.178 -0.533,-0.236 -0.878,-0.236 -0.395,0 -0.584,0.068 -0.584,0.228 0,0.244 0.513,0.285 0.693,0.314 0.323,0.06 0.639,0.155 0.819,0.248 0.256,0.139 0.415,0.424 0.415,0.731 0,0.534 -0.458,0.849 -1.234,0.849 z"
   id="path48"
   inkscape:connector-curvature="0"
   style="fill:#ffffff;stroke:none" />
<path
   d="m 105.8595,277.09375 h -1.234 v 1.059 h -0.534 v -2.814 h 1.769 c 0.483,0 0.879,0.395 0.879,0.878 -0.001,0.482 -0.396,0.877 -0.88,0.877 z m 0,-1.222 h -1.234 v 0.693 h 1.234 c 0.189,0 0.336,-0.16 0.336,-0.349 0,-0.184 -0.146,-0.344 -0.336,-0.344 z"
   id="path50"
   inkscape:connector-curvature="0"
   style="fill:#ffffff;stroke:none" />
<path
   d="m 110.0225,278.20275 c -0.799,0 -1.47,-0.663 -1.47,-1.461 0,-0.819 0.643,-1.453 1.47,-1.453 0.78,0 1.47,0.663 1.47,1.44 0,0.811 -0.668,1.474 -1.47,1.474 z m 0.937,-1.461 c 0,-0.505 -0.424,-0.908 -0.937,-0.908 -0.513,0 -0.937,0.396 -0.937,0.896 0,0.517 0.424,0.928 0.937,0.928 0.513,0 0.937,-0.411 0.937,-0.928 v 0.012 z"
   id="path52"
   inkscape:connector-curvature="0"
   style="fill:#ffffff;stroke:none" />
<path
   d="m 115.4485,278.15275 -0.622,-1.059 h -0.869 v 1.059 h -0.533 v -2.814 h 1.718 c 0.495,0 0.891,0.395 0.891,0.878 0,0.378 -0.239,0.701 -0.605,0.831 l 0.644,1.105 h -0.624 z m -0.307,-2.281 h -1.185 v 0.693 h 1.185 c 0.197,0 0.356,-0.16 0.356,-0.349 0.001,-0.184 -0.158,-0.344 -0.356,-0.344 z"
   id="path54"
   inkscape:connector-curvature="0"
   style="fill:#ffffff;stroke:none" />
<path
   d="m 119.2155,275.87175 v 2.281 h -0.533 v -2.281 h -0.966 v -0.533 h 2.419 v 0.533 h -0.92 z"
   id="path56"
   inkscape:connector-curvature="0"
   style="fill:#ffffff;stroke:none" />
<path
   d="m 124.2185,278.15275 -0.286,-0.613 h -1.432 l -0.294,0.613 h -0.593 l 1.331,-2.814 h 0.533 l 1.336,2.814 h -0.595 z m -1.004,-2.134 -0.466,0.979 h 0.928 l -0.462,-0.979 z"
   id="path58"
   inkscape:connector-curvature="0"
   style="fill:#ffffff;stroke:none" />
<path
   d="m 127.7875,275.87175 v 2.281 h -0.533 v -2.281 h -0.966 v -0.533 h 2.419 v 0.533 h -0.92 z"
   id="path60"
   inkscape:connector-curvature="0"
   style="fill:#ffffff;stroke:none" />
<path
   d="m 130.4715,278.15275 v -2.814 h 0.534 c 0,0 0.009,2.814 0,2.814 0.008,0 -0.534,0 -0.534,0 z"
   id="path62"
   inkscape:connector-curvature="0"
   style="fill:#ffffff;stroke:none" />
<path
   d="m 134.4075,278.20275 c -0.799,0 -1.471,-0.663 -1.471,-1.461 0,-0.819 0.644,-1.453 1.471,-1.453 0.78,0 1.47,0.663 1.47,1.44 0,0.811 -0.669,1.474 -1.47,1.474 z m 0.937,-1.461 c 0,-0.505 -0.425,-0.908 -0.937,-0.908 -0.513,0 -0.937,0.396 -0.937,0.896 0,0.517 0.424,0.928 0.937,0.928 0.512,0 0.937,-0.411 0.937,-0.928 v 0.012 z"
   id="path64"
   inkscape:connector-curvature="0"
   style="fill:#ffffff;stroke:none" />
<path
   d="m 139.9215,278.15275 -1.579,-1.945 v 1.945 h -0.533 v -2.814 h 0.525 l 1.579,1.966 v -1.966 h 0.541 v 2.814 h -0.533 z"
   id="path66"
   inkscape:connector-curvature="0"
   style="fill:#ffffff;stroke:none" />
<path
   d="m 20.7535,278.11375 -0.432,-1.168 h -0.508 v 1.168 h -0.424 v -2.68 h 0.884 c 0.208,0 0.348,0.02 0.48,0.084 0.236,0.111 0.404,0.396 0.404,0.668 0,0.284 -0.168,0.563 -0.416,0.676 l 0.472,1.252 h -0.46 z m -0.188,-2.208 c -0.072,-0.04 -0.104,-0.048 -0.244,-0.048 h -0.508 v 0.656 h 0.508 c 0.132,0 0.176,-0.009 0.244,-0.044 0.104,-0.061 0.168,-0.173 0.168,-0.284 0,-0.112 -0.064,-0.224 -0.168,-0.28 z"
   id="path68"
   inkscape:connector-curvature="0"
   style="fill:#ffffff;stroke:none" />
<path
   d="m 23.1135,276.17775 c -0.236,0.392 -0.412,0.844 -0.5,1.275 -0.036,0.229 -0.056,0.396 -0.056,0.66 h -0.432 c 0.008,-0.62 0.124,-1.136 0.388,-1.704 0.092,-0.204 0.204,-0.404 0.3,-0.552 h -1.28 v -0.424 h 1.816 v 0.424 c -0.096,0.121 -0.152,0.177 -0.236,0.321 z"
   id="path70"
   inkscape:connector-curvature="0"
   style="fill:#ffffff;stroke:none" />
<path
   d="m 23.6215,277.00575 v -0.424 h 0.94 v 0.424 h -0.94 z"
   id="path72"
   inkscape:connector-curvature="0"
   style="fill:#ffffff;stroke:none" />
<path
   d="m 25.8215,278.16175 c -0.516,0 -0.912,-0.376 -0.912,-0.855 0,-0.744 0.412,-1.504 1.032,-1.92 l 0.216,0.359 c -0.328,0.252 -0.496,0.468 -0.656,0.809 0.152,-0.028 0.216,-0.028 0.32,-0.028 0.496,0 0.912,0.364 0.912,0.815 0,0.46 -0.396,0.82 -0.912,0.82 z m 0,-1.216 c -0.264,0 -0.48,0.18 -0.48,0.388 0,0.216 0.216,0.396 0.48,0.396 0.264,0 0.488,-0.181 0.488,-0.396 0,-0.208 -0.216,-0.388 -0.488,-0.388 z"
   id="path74"
   inkscape:connector-curvature="0"
   style="fill:#ffffff;stroke:none" />
<path
   d="m 27.5055,278.11375 v -2.172 h -0.244 v -0.34 h 0.028 c 0.112,0 0.236,-0.064 0.308,-0.168 h 0.34 v 2.68 h -0.432 z"
   id="path76"
   inkscape:connector-curvature="0"
   style="fill:#ffffff;stroke:none" />
<path
   d="m 43.8725,53.28875 c -1.11,0.99 -2.67,1.561 -4.38,1.561 -3.45,0 -5.97,-2.04 -7.32,-5.101 l 3.03,-1.109 c 0.84,1.89 2.4,2.97 4.29,2.97 1.86,0 3.12,-1.29 3.12,-2.97 0,-2.671 -3.12,-3.12 -5.73,-4.171 -1.2,-0.479 -3.87,-1.68 -3.87,-5.01 0,-3.93 2.67,-5.43 6.27,-5.43 2.82,0 4.74,1.62 5.73,4.109 l -2.82,0.841 c 0,0 -0.72,-1.71 -2.97,-1.771 -0.09,0 -0.15,0 -0.21,0 -1.38,0 -2.88,0.54 -2.88,2.13 0,0.061 0,0.15 0,0.21 0.27,3.721 9.72,1.261 9.72,9.15 0,1.831 -0.72,3.451 -1.98,4.591 z"
   id="path78"
   inkscape:connector-curvature="0"
   style="fill:#ffffff;stroke:none" />
<path
   d="m 55.2425,37.20875 v 17.28 h -3.18 v -17.28 h -4.59 v -2.82 h 12.42 v 2.82 h -4.65 z"
   id="path80"
   inkscape:connector-curvature="0"
   style="fill:#ffffff;stroke:none" />
<path
   d="m 74.7115,54.48875 -1.98,-5.64 h -6.27 l -1.98,5.64 h -3.39 l 6.93,-20.101 h 3.15 l 6.93,20.101 h -3.39 z m -5.07,-14.52 -2.07,5.641 h 4.02 l -1.95,-5.641 z"
   id="path82"
   inkscape:connector-curvature="0"
   style="fill:#ffffff;stroke:none" />
<path
   d="m 91.9925,54.48875 -7.68,-13.62 v 13.62 h -3.18 v -20.101 h 3.18 l 7.32,12.841 v -12.841 h 3.18 v 20.101 h -2.82 z"
   id="path84"
   inkscape:connector-curvature="0"
   style="fill:#ffffff;stroke:none" />
<path
   d="m 109.7515,53.34875 c -0.75,0.72 -1.83,1.08 -2.879,1.14 -0.211,0 -0.631,0 -1.141,0 h -6.121 v -20.101 h 6.48 c 2.041,0 2.82,0.21 3.9,1.051 2.1,1.83 3.301,5.01 3.301,8.97 0.001,4.02 -1.259,7.2 -3.54,8.94 z m -1.321,-14.94 c -0.51,-0.48 -1.199,-0.84 -2.039,-0.84 h -3.6 v 13.68 h 3.18 c 1.049,0 1.68,-0.21 2.25,-0.78 1.199,-1.199 1.83,-3.39 1.83,-6.06 10e-4,-2.7 -0.63,-4.95 -1.621,-6 z"
   id="path86"
   inkscape:connector-curvature="0"
   style="fill:#ffffff;stroke:none" />
<path
   d="m 117.6715,54.48875 v -20.101 h 3.24 v 20.101 h -3.24 z"
   id="path88"
   inkscape:connector-curvature="0"
   style="fill:#ffffff;stroke:none" />
<path
   d="m 136.5715,54.48875 -7.682,-13.62 v 13.62 h -3.18 v -20.101 h 3.18 l 7.32,12.841 v -12.841 h 3.18 v 20.101 h -2.818 z"
   id="path90"
   inkscape:connector-curvature="0"
   style="fill:#ffffff;stroke:none" />
<path
   d="m 151.0915,54.84875 c -3.031,0 -4.801,-1.141 -6,-3.66 -0.84,-1.771 -1.32,-4.261 -1.32,-6.721 0,-3.239 0.9,-6.42 2.25,-8.189 1.199,-1.47 2.879,-2.25 5.16,-2.25 3.09,0 4.92,1.29 6.27,4.439 l -3.029,1.2 c -0.84,-1.74 -1.711,-2.399 -3.24,-2.399 -1.621,0 -2.701,0.72 -3.391,2.489 -0.51,1.2 -0.779,3.03 -0.779,4.71 0,2.131 0.359,4.23 0.99,5.521 0.629,1.11 1.559,1.62 2.76,1.62 2.039,0 3.51,-1.29 3.51,-3.12 v -0.84 h -3.66 v -3.181 h 6.84 v 4.021 c -0.002,3.66 -2.672,6.36 -6.361,6.36 z"
   id="path92"
   inkscape:connector-curvature="0"
   style="fill:#ffffff;stroke:none" />
<path
   d="m 87.5525,30.48875 -11.28,-13.89 v 13.89 h -3.811 v -20.101 h 3.75 l 11.28,14.041 v -14.041 h 3.87 v 20.101 h -3.809 z"
   id="path94"
   inkscape:connector-curvature="0"
   style="fill:#ffffff;stroke:none" />
<path
   d="m 106.6625,30.84875 c -5.7,0 -10.5,-4.74 -10.5,-10.44 0,-5.85 4.59,-10.38 10.5,-10.38 5.58,0 10.5,4.74 10.5,10.29 0,5.79 -4.771,10.53 -10.5,10.53 z m 6.689,-10.44 c 0,-3.6 -3.029,-6.48 -6.689,-6.48 -3.66,0 -6.69,2.82 -6.69,6.391 0,3.689 3.03,6.63 6.69,6.63 3.66,0 6.689,-2.94 6.689,-6.63 v 0.089 z"
   id="path96"
   inkscape:connector-curvature="0"
   style="fill:#ffffff;stroke:none" />
<path
   d="m 76.3195,245.53075 c -0.72,0.271 -1.92,0.48 -2.819,0.48 h -7.62 v -20.101 h 7.62 c 3.18,0 5.579,2.19 5.579,5.07 0,1.98 -0.93,3.45 -2.819,4.53 2.1,0.99 3.3,2.67 3.3,4.86 -0.001,2.191 -1.35,4.382 -3.241,5.161 z m -2.609,-16.439 h -4.65 v 4.92 h 3.81 c 0.9,0 1.32,-0.12 1.891,-0.54 0.72,-0.57 1.14,-1.41 1.14,-2.34 -0.002,-1.351 -0.782,-2.04 -2.191,-2.04 z m 0.689,8.309 c -0.42,-0.149 -0.63,-0.149 -1.32,-0.149 h -4.02 v 5.52 h 4.8 c 1.62,0 2.46,-0.78 2.46,-2.34 0,-1.321 -0.779,-2.611 -1.92,-3.031 z"
   id="path98"
   inkscape:connector-curvature="0"
   style="fill:#ffffff;stroke:none" />
<path
   d="m 87.4495,246.37175 c -1.74,0 -3.511,-0.42 -4.92,-1.141 l 1.56,-2.819 c 0.84,0.42 2.31,0.72 3.78,0.72 2.91,0 5.16,-1.92 5.16,-4.53 0,-1.979 -1.62,-3.51 -3.601,-3.51 -1.41,0 -2.04,0.42 -3.24,2.1 l -2.67,-0.899 v -10.381 h 11.551 v 3.181 h -8.461 l -0.21,3.3 c 1.471,-0.42 2.131,-0.57 3.12,-0.57 3.66,0 6.69,3.12 6.69,6.78 0.001,4.439 -3.659,7.769 -8.759,7.769 z"
   id="path100"
   inkscape:connector-curvature="0"
   style="fill:#ffffff;stroke:none" />
<path
   d="m 100.1695,246.01075 c 0.06,-2.34 0.569,-4.23 1.68,-6.15 0.84,-1.529 2.13,-2.819 3.54,-3.87 0.359,-0.21 0.63,-0.42 0.899,-0.63 l 1.08,-0.569 0.99,-0.57 0.96,-0.54 c 0.78,-0.51 1.351,-1.35 1.351,-2.19 0,-1.5 -1.681,-2.699 -3.66,-2.699 -2.04,0 -3.33,0.989 -3.66,2.819 l -3.18,-0.689 c 0.689,-3.33 3.3,-5.37 6.84,-5.37 3.81,0 6.84,2.7 6.84,6 0,1.56 -0.72,3.12 -2.04,4.29 -0.3,0.24 -0.57,0.45 -0.84,0.57 l -0.99,0.63 -1.08,0.569 -0.99,0.57 c -1.89,1.14 -2.939,2.34 -3.93,4.59 h 9.87 v 3.24 h -13.68 z"
   id="path102"
   inkscape:connector-curvature="0"
   style="fill:#ffffff;stroke:none" />
</svg>