<?xml version="1.0" encoding="utf-8"?>
<!-- Generator: Adobe Illustrator 12.0.1, SVG Export Plug-In  -->
<!DOCTYPE svg PUBLIC "-//W3C//DTD SVG 1.1//EN" "http://www.w3.org/Graphics/SVG/1.1/DTD/svg11.dtd" [
	<!ENTITY ns_flows "http://ns.adobe.com/Flows/1.0/">
	<!ENTITY ns_svg "http://www.w3.org/2000/svg">
	<!ENTITY ns_xlink "http://www.w3.org/1999/xlink">
]>
<svg  version="1.1" xmlns="&ns_svg;" xmlns:xlink="&ns_xlink;" xmlns:a="http://ns.adobe.com/AdobeSVGViewerExtensions/3.0/"
	 width="288" height="194" viewBox="0 -0.764 288 194" enable-background="new 0 -0.764 288 194" xml:space="preserve">
<defs>
</defs>
<path fill="#FFFFFF" d="M263.411,191.775c6.286,0,12.494-2.469,16.955-6.946c4.472-4.456,6.937-10.666,6.937-16.955V24.622
	c0-6.329-2.465-12.393-6.937-16.867c-4.461-4.456-10.637-7.053-16.955-7.053H24.568c-6.256,0-12.42,2.644-16.846,7.053
	C3.28,12.197,0.699,18.331,0.699,24.622v143.252c0,6.324,2.532,12.485,7.023,16.955c4.456,4.461,10.554,6.946,16.846,6.946H263.411z
	"/>
<path fill="#FFFFFF" d="M1.398,24.622v143.252c0,6.147,2.484,12.144,6.816,16.463c4.277,4.284,10.239,6.738,16.354,6.738h238.843
	c6.193,0,12.192-2.454,16.457-6.738c4.284-4.266,6.735-10.265,6.735-16.463V24.622c0-6.217-2.391-12.03-6.735-16.37
	c-4.354-4.354-10.352-6.854-16.457-6.854H24.568c-6.024,0-11.981,2.5-16.354,6.854C3.882,12.583,1.398,18.544,1.398,24.622z"/>
<path d="M0,24.622v143.252c0,6.515,2.637,12.876,7.228,17.452c4.538,4.54,10.859,7.146,17.341,7.146h238.843
	c6.561,0,12.919-2.606,17.447-7.15c4.54-4.521,7.142-10.883,7.142-17.448V24.622c0-6.594-2.537-12.755-7.142-17.354
	C276.244,2.648,269.881,0,263.411,0H24.568C18.18,0,11.86,2.648,7.228,7.263C2.637,11.858,0,18.182,0,24.622z M263.411,1.398
	c6.105,0,12.104,2.5,16.457,6.854c4.345,4.34,6.735,10.153,6.735,16.37v143.252c0,6.198-2.451,12.197-6.735,16.463
	c-4.265,4.284-10.264,6.738-16.457,6.738H24.568c-6.115,0-12.076-2.454-16.354-6.738c-4.333-4.319-6.816-10.315-6.816-16.463V24.622
	c0-6.078,2.484-12.039,6.816-16.37c4.373-4.354,10.33-6.854,16.354-6.854H263.411z"/>
<path fill-rule="evenodd" clip-rule="evenodd" fill="#BF2F37" d="M263.411,185.823H24.568c-4.695,0-9.253-1.938-12.548-5.283
	c-3.346-3.375-5.127-7.917-5.127-12.656V24.612c0-4.697,1.8-9.251,5.127-12.578c3.325-3.345,7.867-5.147,12.548-5.147h238.843
	c4.721,0,9.325,1.784,12.685,5.147c3.322,3.295,5.253,7.895,5.253,12.578v143.271c0,5.924-3.041,11.593-7.962,14.887
	C270.189,184.92,267.148,185.587,263.411,185.823"/>
<path fill-rule="evenodd" clip-rule="evenodd" fill="#FFFFFF" d="M105.055,125.7c0.242-0.16,0.604-0.226,0.893-0.226
	c0.78,0,1.45,0.19,1.896,0.857c0.228,0.351,0.288,0.727,0.303,1.136c0.004,0.065,0.022,0.093,0.027,0.158
	c0.014,0.093-0.014,0.19-0.027,0.288l-2.217,7.518h76.144l-1.988-7.518c-0.047-0.049-0.098-0.081-0.113-0.142
	c-0.049-0.098-0.08-0.195-0.111-0.305c0.047-0.43,0.145-0.824,0.414-1.18c0.475-0.655,1.129-0.846,1.91-0.813
	c0.256,0.019,0.561,0.084,0.764,0.226l22.785,15.702l-22.785,15.487c-0.318,0.226-0.541,0.335-0.938,0.409
	c-0.672,0.148-1.402-0.377-1.787-0.916c-0.219-0.315-0.332-0.655-0.363-1.048c0.031-0.127,0.031-0.276,0.094-0.401
	c0.033-0.098,0.084-0.177,0.131-0.251l1.988-7.313h-76.144l2.217,7.313c0.014,0.093,0.027,0.207,0.027,0.297
	c0,0.126-0.023,0.242-0.027,0.355c-0.01,0.36-0.084,0.677-0.27,0.999c-0.354,0.6-1.213,1.155-1.947,0.955
	c-0.316-0.086-0.604-0.223-0.874-0.399l-22.786-15.487L105.055,125.7"/>
<path fill="#FFFFFF" d="M20.718,182.32c-0.376,0.231-0.864,0.359-1.36,0.359c-0.92,0-1.616-0.336-2.216-1.031l0.768-0.601
	c0.4,0.464,0.832,0.672,1.433,0.672c0.68,0,1.168-0.296,1.168-0.695c0-0.208-0.112-0.376-0.336-0.488
	c-0.192-0.072-0.4-0.152-0.641-0.208l-0.248-0.072l-0.248-0.056l-0.256-0.08c-0.552-0.128-0.832-0.264-1.056-0.521
	c-0.224-0.247-0.336-0.567-0.336-0.903c0-0.889,0.752-1.488,1.84-1.488c0.792,0,1.448,0.264,1.992,0.824l-0.712,0.64
	c-0.336-0.352-0.776-0.527-1.28-0.527c-0.544,0-0.864,0.208-0.864,0.552c0,0.296,0.185,0.432,0.849,0.584
	c0.712,0.144,1.184,0.296,1.479,0.448c0.473,0.247,0.776,0.752,0.776,1.336C21.47,181.608,21.222,182.024,20.718,182.32z"/>
<path fill="#FFFFFF" d="M26.774,182.624h-1.016l-0.864-3.592l-0.848,3.592H23.03l-0.976-5.36h0.992l0.584,3.465l0.792-3.465h0.96
	l0.824,3.465l0.552-3.465h0.976L26.774,182.624z"/>
<path fill="#FFFFFF" d="M28.11,180.464v-0.96h1.88v0.96H28.11z"/>
<path fill="#FFFFFF" d="M31.381,182.624v-4.008h-0.68l-0.016-0.769c0.416-0.096,0.64-0.248,0.848-0.584h0.768v5.36H31.381z"/>
<path fill="#FFFFFF" d="M35.95,182.72c-1.601,0-2.256-1.376-2.256-2.783c0-1.408,0.68-2.769,2.256-2.769
	c1.6,0,2.24,1.393,2.24,2.744C38.19,181.288,37.566,182.72,35.95,182.72z M37.23,179.937c0-1.129-0.473-1.809-1.28-1.809
	c-0.96,0-1.296,1-1.296,1.784c0,1.192,0.487,1.848,1.296,1.848c0.792,0,1.28-0.735,1.28-1.848V179.937z"/>
<path fill="#FFFFFF" d="M39.054,180.464v-0.96h1.88v0.96H39.054z"/>
<path fill="#FFFFFF" d="M45.318,182.4c-0.264,0.151-0.552,0.224-0.832,0.224h-2.688v-5.36h2.504c0.464,0,0.64,0.04,0.92,0.192
	c0.448,0.256,0.735,0.712,0.735,1.216c0,0.433-0.176,0.809-0.527,1.112c0.464,0.336,0.696,0.752,0.696,1.264
	C46.126,181.592,45.806,182.136,45.318,182.4z M44.302,178.224h-1.528v1.072h1.528c0.408,0,0.695-0.224,0.695-0.544
	S44.734,178.224,44.302,178.224z M44.302,180.256h-1.528v1.408h1.528c0.504,0,0.863-0.28,0.863-0.68
	C45.166,180.576,44.79,180.256,44.302,180.256z"/>
<path fill="#FFFFFF" d="M38.652,58.925l-10.35-22.45v22.45h-4.801v-33.5h4.801l9.199,20.1v-20.1h4.801v33.5H38.652z"/>
<path fill="#FFFFFF" d="M66.752,53.775c-1.65,3.95-4.1,5.75-7.85,5.75c-4,0-6.351-1.8-8-5.75c-1.4-3.3-1.9-6.5-1.9-11.65
	c0-5.05,0.5-8.45,1.9-11.65c1.75-4,4.1-5.65,8-5.65c3.85,0,6.199,1.65,7.85,5.75c1.4,3.3,1.9,6.5,1.9,11.55
	C68.652,47.275,68.152,50.575,66.752,53.775z M63.002,33.775c-0.85-2.95-2.1-4.25-4.1-4.25c-2.15,0-3.45,1.3-4.25,4.15
	c-0.801,2.55-1.051,4.8-1.051,8.55c0,3.65,0.351,5.75,1.051,8.45c0.8,2.85,2.1,4.15,4.25,4.15c2,0,3.25-1.3,4.1-4.15
	c0.8-2.7,1.05-4.7,1.05-8.55C64.052,38.375,63.702,36.225,63.002,33.775z"/>
<path fill="#FFFFFF" d="M101.801,59.525c-5.899,0-9.399-4.95-9.399-10.45h4.7c0,2.8,1.399,5.75,4.699,5.75
	c2.601,0,4.7-2.35,4.7-5.05c0-1.9-0.7-3.3-2.7-4.85c-0.699-0.7,1.2,0.6-5.649-4c-2.7-1.85-4.101-4.45-4.101-7.4
	c0-4.8,3.75-8.7,8.551-8.7c4.75,0,8.35,3.65,8.5,8.7h-4.601c-0.1-2.35-1.75-3.85-3.899-3.85c-2.2,0-3.95,1.65-3.95,3.85
	c0,1.65,0.7,2.6,3.149,4c6.45,3.75,9.301,7.4,9.301,12.25C111.102,55.175,106.951,59.525,101.801,59.525z"/>
<path fill="#FFFFFF" d="M125.101,29.875v29.05h-4.85v-29.05h-6.101v-4.45h17.05v4.45H125.101z"/>
<path fill="#FFFFFF" d="M149.801,58.925l-2.35-9.15h-7.201l-2.199,9.15H133.2l8.351-33.5h4.699l8.352,33.5H149.801z M143.801,35.425
	l-2.351,9.65h4.8L143.801,35.425z"/>
<path fill="#FFFFFF" d="M174.35,58.925L164,36.475v22.45h-4.799v-33.5H164l9.201,20.1v-20.1H178v33.5H174.35z"/>
<path fill="#FFFFFF" d="M199.301,57.375c-1.201,1.1-2.852,1.55-4.701,1.55h-9.299v-33.5h8.549c2.85,0,4.25,0.35,5.451,1.3
	c2,1.4,3.398,4,4,7.4c0.449,2.45,0.799,5.4,0.799,8C204.1,49.875,202.551,54.825,199.301,57.375z M198.449,33.525
	c-0.799-2.35-2.199-3.4-4.35-3.4h-4v24.1h4c2.85,0,4.35-2.25,4.85-4.8c0.201-2.15,0.451-4.5,0.451-7.05
	C199.4,38.575,199.051,34.925,198.449,33.525z"/>
<path fill="#FFFFFF" d="M209.449,58.925v-33.5h4.699v33.5H209.449z"/>
<path fill="#FFFFFF" d="M235.449,58.925l-10.35-22.45v22.45h-4.801v-33.5h4.801l9.199,20.1v-20.1h4.801v33.5H235.449z"/>
<path fill="#FFFFFF" d="M263.549,54.825c-1.301,2.9-4,4.7-7.4,4.7c-4,0-6.949-2-8.6-5.75c-1.051-2.5-1.75-7.2-1.75-11.55
	c0-4.7,0.35-8.1,1.549-11.3c1.15-3.5,4.551-6.1,8.451-6.1c4.799,0,8.449,3.55,8.699,8.5h-4.799c-0.15-2.25-1.65-3.8-4-3.8
	c-1.65,0-2.951,0.85-3.801,2.5c-0.9,1.65-1.5,5.4-1.5,9.4c0,2.8,0.25,5.75,0.699,8.35c0.701,3.25,2.352,5.05,4.951,5.05
	c2.449,0,3.65-1.65,3.65-5.2v-2.2h-3.801v-4.7h8.6v6.9C264.498,51.975,264.248,53.425,263.549,54.825z"/>
<path fill="#FFFFFF" d="M74.301,108.089l-3.3-9.4h-10.45l-3.3,9.4h-5.65l11.55-33.5h5.25l11.55,33.5H74.301z M65.851,83.889
	l-3.45,9.4h6.7L65.851,83.889z"/>
<path fill="#FFFFFF" d="M103.101,108.089l-12.8-22.7v22.7h-5.3v-33.5h5.3l12.2,21.4v-21.4h5.3v33.5H103.101z"/>
<path fill="#FFFFFF" d="M130.501,93.489v14.6h-5.3v-14.6l-11.75-18.9h6.35l8,12.95l8.1-12.95h6.25L130.501,93.489z"/>
<path fill="#FFFFFF" d="M157.9,79.289v28.8h-5.299v-28.8h-7.651v-4.7h20.7v4.7H157.9z"/>
<path fill="#FFFFFF" d="M170.6,108.089v-33.5h5.4v33.5H170.6z"/>
<path fill="#FFFFFF" d="M204.799,108.089v-19.4l-7.75,19.4l-7.75-19.4v19.4H184v-33.5h5.299l7.75,18.8l7.75-18.8h5.301v33.5H204.799
	z"/>
<path fill="#FFFFFF" d="M215.6,108.089v-33.5h19.75v5.3h-14.451v8.2h9.75v5.4h-9.75v9.2h15.5v5.4H215.6z"/>
<path fill="#FFFFFF" d="M80.56,180.686h-1.764v-4.021h1.764c1.116,0,2.016,0.9,2.016,2.005
	C82.576,179.785,81.676,180.686,80.56,180.686z M80.56,177.428h-1.002v2.496h1.002c0.69,0,1.242-0.564,1.242-1.254
	C81.802,177.991,81.25,177.428,80.56,177.428z"/>
<path fill="#FFFFFF" d="M85.336,180.686v-4.021h3.204v0.763h-2.442v0.731h1.41v0.774h-1.41v0.99h2.496v0.762H85.336z"/>
<path fill="#FFFFFF" d="M93.88,179.174h-1.764v1.512h-0.762v-4.021h2.526c0.69,0,1.254,0.564,1.254,1.255
	C95.134,178.609,94.57,179.174,93.88,179.174z M93.88,177.428h-1.764v0.99h1.764c0.27,0,0.48-0.229,0.48-0.498
	C94.36,177.655,94.15,177.428,93.88,177.428z"/>
<path fill="#FFFFFF" d="M99.627,177.428v3.258h-0.762v-3.258h-1.38v-0.763h3.456v0.763H99.627z"/>
<path fill="#FFFFFF" d="M108.64,180.758c-1.14,0-2.1-0.948-2.1-2.088c0-1.17,0.918-2.076,2.1-2.076c1.116,0,2.1,0.948,2.1,2.058
	C110.74,179.81,109.786,180.758,108.64,180.758z M109.978,178.67c0-0.721-0.606-1.297-1.338-1.297s-1.338,0.564-1.338,1.278
	c0,0.738,0.606,1.326,1.338,1.326s1.338-0.588,1.338-1.326V178.67z"/>
<path fill="#FFFFFF" d="M114.262,177.428v0.731h1.494v0.774h-1.494v1.752H113.5v-4.021h3.258v0.763H114.262z"/>
<path fill="#FFFFFF" d="M127.144,177.428v3.258h-0.762v-3.258h-1.38v-0.763h3.456v0.763H127.144z"/>
<path fill="#FFFFFF" d="M133.87,180.686l-0.888-1.512h-1.242v1.512h-0.762v-4.021h2.454c0.708,0,1.272,0.564,1.272,1.255
	c0,0.54-0.342,1.002-0.864,1.188l0.918,1.578H133.87z M133.432,177.428h-1.692v0.99h1.692c0.282,0,0.51-0.229,0.51-0.498
	C133.941,177.655,133.713,177.428,133.432,177.428z"/>
<path fill="#FFFFFF" d="M140.83,180.686l-0.408-0.876h-2.046l-0.42,0.876h-0.846l1.902-4.021h0.762l1.908,4.021H140.83z
	 M139.396,177.638l-0.666,1.397h1.326L139.396,177.638z"/>
<path fill="#FFFFFF" d="M147.214,180.686l-2.256-2.778v2.778h-0.763v-4.021h0.75l2.256,2.809v-2.809h0.774v4.021H147.214z"/>
<path fill="#FFFFFF" d="M152.739,180.758c-0.822,0-1.398-0.168-2.004-0.606l0.438-0.624c0.48,0.324,0.9,0.45,1.537,0.45
	c0.678,0,1.043-0.15,1.043-0.462c0-0.168-0.156-0.342-0.384-0.426c-0.192-0.066-0.432-0.126-0.954-0.223
	c-0.611-0.126-0.906-0.239-1.115-0.449c-0.211-0.217-0.313-0.438-0.313-0.708c0-0.427,0.229-0.732,0.678-0.918
	c0.282-0.127,0.637-0.198,0.973-0.198c0.563,0,1.074,0.156,1.607,0.479l-0.408,0.637c-0.408-0.253-0.762-0.337-1.254-0.337
	c-0.563,0-0.834,0.097-0.834,0.324c0,0.349,0.732,0.408,0.99,0.45c0.462,0.084,0.912,0.222,1.17,0.354
	c0.366,0.197,0.594,0.605,0.594,1.044C154.503,180.308,153.849,180.758,152.739,180.758z"/>
<path fill="#FFFFFF" d="M159.783,179.174h-1.764v1.512h-0.763v-4.021h2.526c0.69,0,1.255,0.564,1.255,1.255
	C161.038,178.609,160.474,179.174,159.783,179.174z M159.783,177.428h-1.764v0.99h1.764c0.271,0,0.479-0.229,0.479-0.498
	C160.263,177.655,160.054,177.428,159.783,177.428z"/>
<path fill="#FFFFFF" d="M165.729,180.758c-1.141,0-2.1-0.948-2.1-2.088c0-1.17,0.918-2.076,2.1-2.076c1.115,0,2.1,0.948,2.1,2.058
	C167.829,179.81,166.876,180.758,165.729,180.758z M167.067,178.67c0-0.721-0.605-1.297-1.338-1.297s-1.338,0.564-1.338,1.278
	c0,0.738,0.605,1.326,1.338,1.326s1.338-0.588,1.338-1.326V178.67z"/>
<path fill="#FFFFFF" d="M173.481,180.686l-0.889-1.512h-1.242v1.512h-0.762v-4.021h2.454c0.708,0,1.272,0.564,1.272,1.255
	c0,0.54-0.342,1.002-0.865,1.188l0.919,1.578H173.481z M173.043,177.428h-1.692v0.99h1.692c0.282,0,0.51-0.229,0.51-0.498
	C173.553,177.655,173.325,177.428,173.043,177.428z"/>
<path fill="#FFFFFF" d="M178.862,177.428v3.258h-0.762v-3.258h-1.38v-0.763h3.456v0.763H178.862z"/>
<path fill="#FFFFFF" d="M186.009,180.686l-0.408-0.876h-2.046l-0.42,0.876h-0.847l1.902-4.021h0.762l1.908,4.021H186.009z
	 M184.575,177.638l-0.666,1.397h1.326L184.575,177.638z"/>
<path fill="#FFFFFF" d="M191.108,177.428v3.258h-0.762v-3.258h-1.38v-0.763h3.456v0.763H191.108z"/>
<path fill="#FFFFFF" d="M194.942,180.686v-4.021h0.763c0,0,0.012,4.021,0,4.021C195.717,180.686,194.942,180.686,194.942,180.686z"
	/>
<path fill="#FFFFFF" d="M200.565,180.758c-1.141,0-2.101-0.948-2.101-2.088c0-1.17,0.919-2.076,2.101-2.076
	c1.115,0,2.1,0.948,2.1,2.058C202.665,179.81,201.71,180.758,200.565,180.758z M201.903,178.67c0-0.721-0.607-1.297-1.338-1.297
	c-0.732,0-1.338,0.564-1.338,1.278c0,0.738,0.605,1.326,1.338,1.326c0.73,0,1.338-0.588,1.338-1.326V178.67z"/>
<path fill="#FFFFFF" d="M208.442,180.686l-2.256-2.778v2.778h-0.762v-4.021h0.75l2.256,2.809v-2.809h0.773v4.021H208.442z"/>
</svg>
