<?xml version="1.0" encoding="utf-8"?>
<!-- Generator: Adobe Illustrator 12.0.1, SVG Export Plug-In  -->
<!DOCTYPE svg PUBLIC "-//W3C//DTD SVG 1.1//EN" "http://www.w3.org/Graphics/SVG/1.1/DTD/svg11.dtd" [
	<!ENTITY ns_flows "http://ns.adobe.com/Flows/1.0/">
	<!ENTITY ns_svg "http://www.w3.org/2000/svg">
	<!ENTITY ns_xlink "http://www.w3.org/1999/xlink">
]>
<svg  version="1.1" xmlns="&ns_svg;" xmlns:xlink="&ns_xlink;" xmlns:a="http://ns.adobe.com/AdobeSVGViewerExtensions/3.0/"
	 width="288" height="288" viewBox="0 0 288 288" enable-background="new 0 0 288 288" xml:space="preserve">
<defs>
</defs>
<path fill="#FFFFFF" d="M263.411,287.303c6.286,0,12.494-2.469,16.955-6.946c4.472-4.456,6.937-10.666,6.937-16.955V24.622
	c0-6.329-2.465-12.393-6.937-16.867c-4.461-4.456-10.637-7.053-16.955-7.053H24.568c-6.256,0-12.42,2.644-16.846,7.053
	C3.28,12.197,0.699,18.331,0.699,24.622v238.779c0,6.324,2.532,12.485,7.023,16.955c4.456,4.461,10.554,6.946,16.846,6.946H263.411z
	"/>
<path fill="#FFFFFF" d="M1.398,24.622v238.779c0,6.147,2.484,12.144,6.816,16.463c4.277,4.284,10.239,6.738,16.354,6.738h238.843
	c6.193,0,12.192-2.454,16.457-6.738c4.284-4.266,6.735-10.265,6.735-16.463V24.622c0-6.217-2.391-12.03-6.735-16.37
	c-4.354-4.354-10.352-6.854-16.457-6.854H24.568c-6.024,0-11.981,2.5-16.354,6.854C3.882,12.583,1.398,18.544,1.398,24.622z"/>
<path d="M0,24.622v238.779c0,6.515,2.637,12.876,7.228,17.452c4.538,4.54,10.859,7.146,17.341,7.146h238.843
	c6.561,0,12.919-2.606,17.447-7.15c4.54-4.521,7.142-10.883,7.142-17.448V24.622c0-6.594-2.537-12.755-7.142-17.354
	C276.244,2.648,269.881,0,263.411,0H24.568C18.18,0,11.86,2.648,7.228,7.263C2.637,11.858,0,18.182,0,24.622z M263.411,1.398
	c6.105,0,12.104,2.5,16.457,6.854c4.345,4.34,6.735,10.153,6.735,16.37v238.779c0,6.198-2.451,12.197-6.735,16.463
	c-4.265,4.284-10.264,6.738-16.457,6.738H24.568c-6.115,0-12.076-2.454-16.354-6.738c-4.333-4.319-6.816-10.315-6.816-16.463V24.622
	c0-6.078,2.484-12.039,6.816-16.37c4.373-4.354,10.33-6.854,16.354-6.854H263.411z"/>
<path fill-rule="evenodd" clip-rule="evenodd" fill="#BF2F37" d="M263.411,281.351H24.568c-4.695,0-9.253-1.938-12.548-5.283
	c-3.346-3.375-5.127-7.917-5.127-12.656V24.612c0-4.697,1.8-9.251,5.127-12.578c3.325-3.345,7.867-5.147,12.548-5.147h238.843
	c4.721,0,9.325,1.784,12.685,5.147c3.322,3.295,5.253,7.895,5.253,12.578v238.799c0,5.924-3.041,11.593-7.962,14.887
	C270.189,280.447,267.148,281.114,263.411,281.351"/>
<path fill-rule="evenodd" clip-rule="evenodd" fill="#FFFFFF" d="M105.055,230.228c0.242-0.16,0.604-0.226,0.893-0.226
	c0.78,0,1.45,0.19,1.896,0.857c0.228,0.351,0.288,0.727,0.303,1.136c0.004,0.065,0.022,0.093,0.027,0.158
	c0.014,0.093-0.014,0.19-0.027,0.288l-2.217,7.518h76.144l-1.988-7.518c-0.047-0.049-0.098-0.081-0.113-0.142
	c-0.049-0.098-0.08-0.195-0.111-0.305c0.047-0.43,0.145-0.824,0.414-1.18c0.475-0.655,1.129-0.846,1.91-0.813
	c0.256,0.019,0.561,0.084,0.764,0.226l22.785,15.702l-22.785,15.487c-0.318,0.226-0.541,0.335-0.938,0.409
	c-0.672,0.148-1.402-0.377-1.787-0.916c-0.219-0.315-0.332-0.655-0.363-1.048c0.031-0.127,0.031-0.276,0.094-0.401
	c0.033-0.098,0.084-0.177,0.131-0.251l1.988-7.313h-76.144l2.217,7.313c0.014,0.093,0.027,0.207,0.027,0.297
	c0,0.126-0.023,0.242-0.027,0.355c-0.01,0.36-0.084,0.677-0.27,0.999c-0.354,0.6-1.213,1.155-1.947,0.955
	c-0.316-0.086-0.604-0.223-0.874-0.399L82.269,245.93L105.055,230.228"/>
<path fill="#FFFFFF" d="M80.56,276.213h-1.764v-4.021h1.764c1.116,0,2.016,0.9,2.016,2.005
	C82.576,275.313,81.676,276.213,80.56,276.213z M80.56,272.955h-1.002v2.496h1.002c0.69,0,1.242-0.564,1.242-1.254
	C81.802,273.519,81.25,272.955,80.56,272.955z"/>
<path fill="#FFFFFF" d="M85.336,276.213v-4.021h3.204v0.763h-2.442v0.731h1.41v0.774h-1.41v0.99h2.496v0.762H85.336z"/>
<path fill="#FFFFFF" d="M93.88,274.701h-1.764v1.512h-0.762v-4.021h2.526c0.69,0,1.254,0.564,1.254,1.255
	C95.134,274.137,94.57,274.701,93.88,274.701z M93.88,272.955h-1.764v0.99h1.764c0.27,0,0.48-0.229,0.48-0.498
	C94.36,273.183,94.15,272.955,93.88,272.955z"/>
<path fill="#FFFFFF" d="M99.627,272.955v3.258h-0.762v-3.258h-1.38v-0.763h3.456v0.763H99.627z"/>
<path fill="#FFFFFF" d="M108.64,276.285c-1.14,0-2.1-0.948-2.1-2.088c0-1.17,0.918-2.076,2.1-2.076c1.116,0,2.1,0.948,2.1,2.058
	C110.74,275.337,109.786,276.285,108.64,276.285z M109.978,274.197c0-0.721-0.606-1.297-1.338-1.297s-1.338,0.564-1.338,1.278
	c0,0.738,0.606,1.326,1.338,1.326s1.338-0.588,1.338-1.326V274.197z"/>
<path fill="#FFFFFF" d="M114.262,272.955v0.731h1.494v0.774h-1.494v1.752H113.5v-4.021h3.258v0.763H114.262z"/>
<path fill="#FFFFFF" d="M127.144,272.955v3.258h-0.762v-3.258h-1.38v-0.763h3.456v0.763H127.144z"/>
<path fill="#FFFFFF" d="M133.87,276.213l-0.888-1.512h-1.242v1.512h-0.762v-4.021h2.454c0.708,0,1.272,0.564,1.272,1.255
	c0,0.54-0.342,1.002-0.864,1.188l0.918,1.578H133.87z M133.432,272.955h-1.692v0.99h1.692c0.282,0,0.51-0.229,0.51-0.498
	C133.941,273.183,133.713,272.955,133.432,272.955z"/>
<path fill="#FFFFFF" d="M140.83,276.213l-0.408-0.876h-2.046l-0.42,0.876h-0.846l1.902-4.021h0.762l1.908,4.021H140.83z
	 M139.396,273.165l-0.666,1.397h1.326L139.396,273.165z"/>
<path fill="#FFFFFF" d="M147.214,276.213l-2.256-2.778v2.778h-0.763v-4.021h0.75l2.256,2.809v-2.809h0.774v4.021H147.214z"/>
<path fill="#FFFFFF" d="M152.739,276.285c-0.822,0-1.398-0.168-2.004-0.606l0.438-0.624c0.48,0.324,0.9,0.45,1.537,0.45
	c0.678,0,1.043-0.15,1.043-0.462c0-0.168-0.156-0.342-0.384-0.426c-0.192-0.066-0.432-0.126-0.954-0.223
	c-0.611-0.126-0.906-0.239-1.115-0.449c-0.211-0.217-0.313-0.438-0.313-0.708c0-0.427,0.229-0.732,0.678-0.918
	c0.282-0.127,0.637-0.198,0.973-0.198c0.563,0,1.074,0.156,1.607,0.479l-0.408,0.637c-0.408-0.253-0.762-0.337-1.254-0.337
	c-0.563,0-0.834,0.097-0.834,0.324c0,0.349,0.732,0.408,0.99,0.45c0.462,0.084,0.912,0.222,1.17,0.354
	c0.366,0.197,0.594,0.605,0.594,1.044C154.503,275.835,153.849,276.285,152.739,276.285z"/>
<path fill="#FFFFFF" d="M159.783,274.701h-1.764v1.512h-0.763v-4.021h2.526c0.69,0,1.255,0.564,1.255,1.255
	C161.038,274.137,160.474,274.701,159.783,274.701z M159.783,272.955h-1.764v0.99h1.764c0.271,0,0.479-0.229,0.479-0.498
	C160.263,273.183,160.054,272.955,159.783,272.955z"/>
<path fill="#FFFFFF" d="M165.729,276.285c-1.141,0-2.1-0.948-2.1-2.088c0-1.17,0.918-2.076,2.1-2.076c1.115,0,2.1,0.948,2.1,2.058
	C167.829,275.337,166.876,276.285,165.729,276.285z M167.067,274.197c0-0.721-0.605-1.297-1.338-1.297s-1.338,0.564-1.338,1.278
	c0,0.738,0.605,1.326,1.338,1.326s1.338-0.588,1.338-1.326V274.197z"/>
<path fill="#FFFFFF" d="M173.481,276.213l-0.889-1.512h-1.242v1.512h-0.762v-4.021h2.454c0.708,0,1.272,0.564,1.272,1.255
	c0,0.54-0.342,1.002-0.865,1.188l0.919,1.578H173.481z M173.043,272.955h-1.692v0.99h1.692c0.282,0,0.51-0.229,0.51-0.498
	C173.553,273.183,173.325,272.955,173.043,272.955z"/>
<path fill="#FFFFFF" d="M178.862,272.955v3.258h-0.762v-3.258h-1.38v-0.763h3.456v0.763H178.862z"/>
<path fill="#FFFFFF" d="M186.009,276.213l-0.408-0.876h-2.046l-0.42,0.876h-0.847l1.902-4.021h0.762l1.908,4.021H186.009z
	 M184.575,273.165l-0.666,1.397h1.326L184.575,273.165z"/>
<path fill="#FFFFFF" d="M191.108,272.955v3.258h-0.762v-3.258h-1.38v-0.763h3.456v0.763H191.108z"/>
<path fill="#FFFFFF" d="M194.942,276.213v-4.021h0.763c0,0,0.012,4.021,0,4.021C195.717,276.213,194.942,276.213,194.942,276.213z"
	/>
<path fill="#FFFFFF" d="M200.565,276.285c-1.141,0-2.101-0.948-2.101-2.088c0-1.17,0.919-2.076,2.101-2.076
	c1.115,0,2.1,0.948,2.1,2.058C202.665,275.337,201.71,276.285,200.565,276.285z M201.903,274.197c0-0.721-0.607-1.297-1.338-1.297
	c-0.732,0-1.338,0.564-1.338,1.278c0,0.738,0.605,1.326,1.338,1.326c0.73,0,1.338-0.588,1.338-1.326V274.197z"/>
<path fill="#FFFFFF" d="M208.442,276.213l-2.256-2.778v2.778h-0.762v-4.021h0.75l2.256,2.809v-2.809h0.773v4.021H208.442z"/>
<path fill="#FFFFFF" d="M39.827,58.929l-10.35-22.45v22.45h-4.801v-33.5h4.801l9.199,20.1v-20.1h4.801v33.5H39.827z"/>
<path fill="#FFFFFF" d="M67.927,53.778c-1.65,3.95-4.1,5.75-7.85,5.75c-4,0-6.351-1.8-8-5.75c-1.4-3.3-1.9-6.5-1.9-11.65
	c0-5.049,0.5-8.449,1.9-11.649c1.75-4,4.1-5.649,8-5.649c3.85,0,6.199,1.649,7.85,5.75c1.4,3.299,1.9,6.5,1.9,11.549
	C69.827,47.278,69.327,50.579,67.927,53.778z M64.177,33.778c-0.85-2.949-2.1-4.25-4.1-4.25c-2.15,0-3.45,1.301-4.25,4.15
	c-0.801,2.55-1.051,4.8-1.051,8.55c0,3.649,0.351,5.75,1.051,8.45c0.8,2.85,2.1,4.15,4.25,4.15c2,0,3.25-1.301,4.1-4.15
	c0.8-2.7,1.05-4.7,1.05-8.551C65.227,38.378,64.877,36.229,64.177,33.778z"/>
<path fill="#FFFFFF" d="M102.976,59.528c-5.899,0-9.399-4.949-9.399-10.449h4.7c0,2.8,1.399,5.75,4.699,5.75
	c2.601,0,4.7-2.351,4.7-5.051c0-1.899-0.7-3.3-2.7-4.85c-0.699-0.7,1.2,0.6-5.649-4c-2.7-1.85-4.101-4.45-4.101-7.4
	c0-4.8,3.75-8.699,8.551-8.699c4.75,0,8.35,3.649,8.5,8.699h-4.601c-0.1-2.35-1.75-3.85-3.899-3.85c-2.2,0-3.95,1.65-3.95,3.85
	c0,1.65,0.7,2.6,3.149,4c6.45,3.75,9.301,7.4,9.301,12.25C112.276,55.179,108.126,59.528,102.976,59.528z"/>
<path fill="#FFFFFF" d="M126.275,29.878v29.051h-4.85V29.878h-6.101v-4.449h17.05v4.449H126.275z"/>
<path fill="#FFFFFF" d="M154.126,53.778c-1.65,3.95-4.1,5.75-7.85,5.75c-4,0-6.352-1.8-8-5.75c-1.401-3.3-1.901-6.5-1.901-11.65
	c0-5.049,0.5-8.449,1.901-11.649c1.75-4,4.1-5.649,8-5.649c3.85,0,6.199,1.649,7.85,5.75c1.4,3.299,1.9,6.5,1.9,11.549
	C156.026,47.278,155.526,50.579,154.126,53.778z M150.376,33.778c-0.85-2.949-2.1-4.25-4.1-4.25c-2.15,0-3.451,1.301-4.25,4.15
	c-0.801,2.55-1.051,4.8-1.051,8.55c0,3.649,0.35,5.75,1.051,8.45c0.799,2.85,2.1,4.15,4.25,4.15c2,0,3.25-1.301,4.1-4.15
	c0.799-2.7,1.049-4.7,1.049-8.551C151.425,38.378,151.075,36.229,150.376,33.778z"/>
<path fill="#FFFFFF" d="M172.726,44.229h-5.199v14.7h-4.801v-33.5h10c5.25,0,8.801,3.75,8.801,9.4
	C181.526,40.929,178.376,44.229,172.726,44.229z M172.476,30.128h-4.949v9.5h4.949c2.801,0,4.35-1.75,4.35-4.799
	C176.825,32.028,175.075,30.128,172.476,30.128z"/>
<path fill="#FFFFFF" d="M196.126,44.229h-5.201v14.7h-4.799v-33.5h10c5.25,0,8.799,3.75,8.799,9.4
	C204.925,40.929,201.774,44.229,196.126,44.229z M195.876,30.128h-4.951v9.5h4.951c2.799,0,4.35-1.75,4.35-4.799
	C200.226,32.028,198.476,30.128,195.876,30.128z"/>
<path fill="#FFFFFF" d="M208.274,58.929v-33.5h4.699v33.5H208.274z"/>
<path fill="#FFFFFF" d="M234.274,58.929l-10.35-22.45v22.45h-4.801v-33.5h4.801l9.199,20.1v-20.1h4.801v33.5H234.274z"/>
<path fill="#FFFFFF" d="M262.374,54.829c-1.301,2.899-4,4.699-7.4,4.699c-4,0-6.949-2-8.6-5.75c-1.051-2.5-1.75-7.199-1.75-11.55
	c0-4.7,0.35-8.101,1.549-11.3c1.15-3.5,4.551-6.1,8.451-6.1c4.799,0,8.449,3.549,8.699,8.5h-4.799c-0.15-2.25-1.65-3.801-4-3.801
	c-1.65,0-2.951,0.85-3.801,2.5c-0.9,1.65-1.5,5.4-1.5,9.4c0,2.8,0.25,5.75,0.699,8.35c0.701,3.25,2.352,5.051,4.951,5.051
	c2.449,0,3.65-1.65,3.65-5.2v-2.2h-3.801v-4.7h8.6v6.9C263.323,51.979,263.073,53.429,262.374,54.829z"/>
<path fill="#FFFFFF" d="M24.701,102V76.54h15.01v4.028H28.728V86.8h7.41v4.104h-7.41v6.991h11.781V102H24.701z"/>
<path fill="#FFFFFF" d="M54.15,102l-4.104-8.474L45.943,102h-4.561l6.346-13.148l-5.89-12.312h4.56l3.648,7.6l3.648-7.6h4.56
	l-5.966,12.312L58.71,102H54.15z"/>
<path fill="#FFFFFF" d="M70.49,102.456c-3.762,0-6.156-1.444-7.789-4.561c-1.141-2.241-1.863-5.472-1.863-8.663
	c0-4.028,1.064-8.057,2.851-10.299c1.521-1.861,3.647-2.85,6.536-2.85c3.838,0,6.232,1.634,7.941,5.206l-3.762,1.596
	c-1.406-2.166-2.242-2.698-4.18-2.698c-2.053,0-3.42,0.912-4.294,3.154c-0.646,1.521-0.988,3.725-0.988,5.891
	c0,2.773,0.608,5.548,1.597,7.144c0.912,1.33,2.052,1.976,3.838,1.976c1.709,0,2.964-0.911,3.951-2.964l3.838,1.444
	C76.646,100.556,74.138,102.456,70.49,102.456z"/>
<path fill="#FFFFFF" d="M82.08,102V76.54h15.01v4.028H86.107V86.8h7.41v4.104h-7.41v6.991h11.781V102H82.08z"/>
<path fill="#FFFFFF" d="M113.961,90.03c-1.179,0.531-2.698,0.874-4.674,0.874h-4.712V102h-4.028V76.54h8.74
	c2.052,0,3.42,0.189,4.674,0.798c2.204,1.064,3.914,3.762,3.914,6.346C117.875,86.382,116.166,89.042,113.961,90.03z
	 M112.251,81.024c-0.723-0.381-1.178-0.456-2.432-0.456h-5.244V86.8h5.244c1.254,0,1.709-0.076,2.432-0.418
	c0.874-0.456,1.52-1.634,1.52-2.698C113.771,82.62,113.125,81.556,112.251,81.024z"/>
<path fill="#FFFFFF" d="M127.603,80.112V102h-4.027V80.112h-5.814V76.54h15.732v3.572H127.603z"/>
<path fill="#FFFFFF" d="M156.748,80.112V102h-4.027V80.112h-5.814V76.54h15.732v3.572H156.748z"/>
<path fill="#FFFFFF" d="M177.725,102l-4.104-11.096h-4.826V102h-4.029V76.54h8.398c1.977,0,3.307,0.189,4.561,0.798
	c2.242,1.064,3.838,3.762,3.838,6.346c0,2.698-1.596,5.358-3.953,6.422L182.094,102H177.725z M175.938,81.024
	c-0.684-0.381-0.986-0.456-2.316-0.456h-4.826V86.8h4.826c1.254,0,1.672-0.076,2.316-0.418c0.988-0.57,1.598-1.634,1.598-2.698
	C177.535,82.62,176.926,81.556,175.938,81.024z"/>
<path fill="#FFFFFF" d="M200.904,98.162c-1.33,2.508-4.371,4.294-7.486,4.294s-6.156-1.786-7.523-4.294
	c-0.684-1.521-1.141-3.306-1.141-5.282V76.54h4.027v16.34c0,3.306,1.863,5.472,4.637,5.472s4.637-2.166,4.637-5.472V76.54h4.027
	v16.34C202.082,94.856,201.627,96.642,200.904,98.162z"/>
<path fill="#FFFFFF" d="M215.648,102.456c-3.762,0-6.156-1.444-7.791-4.561c-1.139-2.241-1.861-5.472-1.861-8.663
	c0-4.028,1.064-8.057,2.85-10.299c1.52-1.861,3.648-2.85,6.537-2.85c3.838,0,6.23,1.634,7.941,5.206l-3.762,1.596
	c-1.406-2.166-2.242-2.698-4.18-2.698c-2.053,0-3.42,0.912-4.295,3.154c-0.646,1.521-0.988,3.725-0.988,5.891
	c0,2.773,0.609,5.548,1.596,7.144c0.912,1.33,2.053,1.976,3.838,1.976c1.711,0,2.965-0.911,3.953-2.964l3.838,1.444
	C221.805,100.556,219.297,102.456,215.648,102.456z"/>
<path fill="#FFFFFF" d="M240.385,102l-6.459-12.046l-2.66,3.306V102h-4.027V76.54h4.027v10.108l8.018-10.108h5.207l-7.867,9.918
	L245.021,102H240.385z"/>
<path fill="#FFFFFF" d="M260.791,100.48c-1.406,1.254-3.381,1.976-5.547,1.976c-4.371,0-7.563-2.584-9.273-6.46l3.838-1.406
	c1.064,2.395,3.041,3.762,5.436,3.762c2.355,0,3.951-1.634,3.951-3.762c0-3.382-3.951-3.952-7.258-5.282
	c-1.52-0.607-4.902-2.128-4.902-6.346c0-4.978,3.383-6.878,7.943-6.878c3.57,0,6.004,2.052,7.258,5.206l-3.572,1.063
	c0,0-0.912-2.166-3.762-2.241c-0.115,0-0.191,0-0.268,0c-1.748,0-3.646,0.684-3.646,2.697c0,0.076,0,0.19,0,0.267
	c0.342,4.712,12.311,1.596,12.311,11.59C263.299,96.984,262.387,99.036,260.791,100.48z"/>
<path fill="#FFFFFF" d="M24.738,136v-21.439h3.072v18.592h7.84V136H24.738z"/>
<path fill="#FFFFFF" d="M48.13,132.704c-1.056,2.528-2.624,3.68-5.024,3.68c-2.56,0-4.064-1.151-5.12-3.68
	c-0.896-2.112-1.216-4.16-1.216-7.456c0-3.231,0.32-5.408,1.216-7.456c1.12-2.56,2.624-3.616,5.12-3.616
	c2.464,0,3.968,1.057,5.024,3.681c0.896,2.111,1.216,4.16,1.216,7.392C49.346,128.544,49.026,130.656,48.13,132.704z M45.73,119.904
	c-0.544-1.888-1.344-2.72-2.624-2.72c-1.376,0-2.208,0.832-2.72,2.655c-0.512,1.633-0.672,3.072-0.672,5.473
	c0,2.336,0.224,3.68,0.672,5.407c0.512,1.824,1.344,2.656,2.72,2.656c1.28,0,2.08-0.832,2.624-2.656
	c0.512-1.728,0.672-3.008,0.672-5.472C46.402,122.849,46.178,121.473,45.73,119.904z"/>
<path fill="#FFFFFF" d="M61.09,136l-1.504-5.855h-4.608L53.57,136h-3.104l5.344-21.439h3.008L64.162,136H61.09z M57.25,120.96
	l-1.504,6.176h3.072L57.25,120.96z"/>
<path fill="#FFFFFF" d="M74.562,135.008c-0.768,0.704-1.824,0.992-3.008,0.992h-5.952v-21.439h5.472c1.824,0,2.72,0.224,3.488,0.832
	c1.28,0.896,2.176,2.56,2.56,4.735c0.288,1.568,0.512,3.456,0.512,5.12C77.633,130.208,76.642,133.376,74.562,135.008z
	 M74.018,119.744c-0.512-1.504-1.408-2.176-2.784-2.176h-2.56v15.424h2.56c1.824,0,2.784-1.44,3.104-3.072
	c0.128-1.376,0.288-2.88,0.288-4.512C74.625,122.977,74.401,120.641,74.018,119.744z"/>
<path fill="#FFFFFF" d="M80.354,136v-21.439h3.008V136H80.354z"/>
<path fill="#FFFFFF" d="M96.289,136l-6.624-14.368V136h-3.072v-21.439h3.072l5.888,12.863v-12.863h3.072V136H96.289z"/>
<path fill="#FFFFFF" d="M112.769,133.376c-0.832,1.856-2.56,3.008-4.736,3.008c-2.56,0-4.448-1.28-5.504-3.68
	c-0.672-1.6-1.12-4.608-1.12-7.392c0-3.009,0.224-5.185,0.992-7.232c0.736-2.24,2.912-3.904,5.408-3.904
	c3.072,0,5.408,2.272,5.568,5.44h-3.072c-0.096-1.44-1.056-2.432-2.56-2.432c-1.056,0-1.888,0.544-2.432,1.6
	c-0.576,1.056-0.96,3.456-0.96,6.016c0,1.792,0.16,3.681,0.448,5.345c0.448,2.079,1.504,3.231,3.168,3.231
	c1.568,0,2.336-1.056,2.336-3.328v-1.408h-2.432v-3.008h5.504v4.416C113.377,131.552,113.217,132.48,112.769,133.376z"/>
<path fill="#FFFFFF" d="M135.232,136l-2.272-2.624c-1.504,1.792-3.904,3.008-6.24,3.008c-3.744,0-6.464-2.655-6.464-6.176
	c0-2.624,1.44-4.736,4.448-6.24c-0.608-0.672-0.832-1.119-1.216-1.6c-0.672-0.96-1.056-2.176-1.056-3.296
	c0-2.784,2.048-4.8,4.96-4.8c3.008,0,5.056,1.952,5.056,4.735c0,2.177-1.28,4.192-3.456,5.473l3.68,4.384
	c0.448-1.056,0.608-1.729,0.608-3.328h2.56c0,2.048-0.16,3.616-1.28,5.408l4.352,5.056H135.232z M126.432,125.856
	c-2.176,1.056-3.168,2.399-3.168,4.191c0,2.176,1.504,3.681,3.616,3.681c1.504,0,2.848-0.736,4.352-2.4L126.432,125.856z
	 M127.552,116.96c-1.088,0-2.112,0.736-2.112,1.952c0,0.032,0,0.064,0,0.096c0,1.568,0.992,2.561,1.888,3.521
	c1.728-1.12,2.4-2.017,2.4-3.296C129.728,117.952,128.768,116.96,127.552,116.96z"/>
<path fill="#FFFFFF" d="M155.424,133.376c-1.056,1.728-3.072,3.008-5.119,3.008c-2.113,0-4.192-1.216-5.248-3.008
	c-0.608-1.152-0.833-2.048-0.833-3.776v-15.039h3.072v15.424c0,2.016,1.216,3.392,3.009,3.392c1.664,0,2.879-1.376,2.879-3.392
	v-15.424h3.072V129.6C156.256,131.328,156.032,132.224,155.424,133.376z"/>
<path fill="#FFFFFF" d="M169.119,136l-6.623-14.368V136h-3.072v-21.439h3.072l5.888,12.863v-12.863h3.071V136H169.119z"/>
<path fill="#FFFFFF" d="M174.623,136v-21.439h3.072v18.592h7.84V136H174.623z"/>
<path fill="#FFFFFF" d="M198.016,132.704c-1.057,2.528-2.625,3.68-5.024,3.68c-2.56,0-4.063-1.151-5.12-3.68
	c-0.896-2.112-1.216-4.16-1.216-7.456c0-3.231,0.319-5.408,1.216-7.456c1.12-2.56,2.624-3.616,5.12-3.616
	c2.464,0,3.968,1.057,5.024,3.681c0.896,2.111,1.215,4.16,1.215,7.392C199.23,128.544,198.911,130.656,198.016,132.704z
	 M195.615,119.904c-0.545-1.888-1.344-2.72-2.624-2.72c-1.376,0-2.208,0.832-2.72,2.655c-0.512,1.633-0.672,3.072-0.672,5.473
	c0,2.336,0.224,3.68,0.672,5.407c0.512,1.824,1.344,2.656,2.72,2.656c1.28,0,2.079-0.832,2.624-2.656
	c0.512-1.728,0.672-3.008,0.672-5.472C196.287,122.849,196.063,121.473,195.615,119.904z"/>
<path fill="#FFFFFF" d="M210.975,136l-1.504-5.855h-4.607L203.455,136h-3.104l5.344-21.439h3.008L214.047,136H210.975z
	 M207.135,120.96l-1.504,6.176h3.072L207.135,120.96z"/>
<path fill="#FFFFFF" d="M224.447,135.008c-0.769,0.704-1.824,0.992-3.008,0.992h-5.953v-21.439h5.473
	c1.824,0,2.72,0.224,3.488,0.832c1.279,0.896,2.176,2.56,2.56,4.735c0.288,1.568,0.512,3.456,0.512,5.12
	C227.519,130.208,226.527,133.376,224.447,135.008z M223.902,119.744c-0.512-1.504-1.408-2.176-2.783-2.176h-2.561v15.424h2.561
	c1.824,0,2.783-1.44,3.104-3.072c0.128-1.376,0.288-2.88,0.288-4.512C224.511,122.977,224.287,120.641,223.902,119.744z"/>
<path fill="#FFFFFF" d="M230.238,136v-21.439h3.008V136H230.238z"/>
<path fill="#FFFFFF" d="M246.174,136l-6.623-14.368V136h-3.072v-21.439h3.072l5.888,12.863v-12.863h3.071V136H246.174z"/>
<path fill="#FFFFFF" d="M262.654,133.376c-0.832,1.856-2.561,3.008-4.736,3.008c-2.56,0-4.447-1.28-5.504-3.68
	c-0.672-1.6-1.119-4.608-1.119-7.392c0-3.009,0.223-5.185,0.991-7.232c0.736-2.24,2.912-3.904,5.408-3.904
	c3.071,0,5.407,2.272,5.567,5.44h-3.072c-0.096-1.44-1.055-2.432-2.559-2.432c-1.057,0-1.889,0.544-2.433,1.6
	c-0.576,1.056-0.96,3.456-0.96,6.016c0,1.792,0.16,3.681,0.447,5.345c0.449,2.079,1.505,3.231,3.168,3.231
	c1.568,0,2.336-1.056,2.336-3.328v-1.408h-2.432v-3.008h5.504v4.416C263.262,131.552,263.102,132.48,262.654,133.376z"/>
<path fill="#FFFFFF" d="M18.18,277.845c-0.376,0.231-0.864,0.359-1.36,0.359c-0.92,0-1.616-0.336-2.216-1.031l0.768-0.601
	c0.4,0.464,0.832,0.672,1.433,0.672c0.68,0,1.168-0.296,1.168-0.695c0-0.208-0.112-0.376-0.336-0.488
	c-0.192-0.072-0.4-0.152-0.641-0.208l-0.248-0.072l-0.248-0.056l-0.256-0.08c-0.552-0.128-0.832-0.264-1.056-0.521
	c-0.224-0.247-0.336-0.567-0.336-0.903c0-0.889,0.752-1.488,1.84-1.488c0.792,0,1.448,0.264,1.992,0.824l-0.712,0.64
	c-0.336-0.352-0.776-0.527-1.28-0.527c-0.544,0-0.864,0.208-0.864,0.552c0,0.296,0.185,0.432,0.849,0.584
	c0.712,0.144,1.184,0.296,1.479,0.448c0.473,0.247,0.776,0.752,0.776,1.336C18.932,277.133,18.684,277.549,18.18,277.845z"/>
<path fill="#FFFFFF" d="M23.468,275.837c-0.305,0.168-0.552,0.208-0.96,0.208H20.98v2.104h-0.976v-5.36h2.504
	c0.408,0,0.655,0.057,0.96,0.225c0.504,0.28,0.824,0.808,0.824,1.416C24.292,274.988,23.972,275.557,23.468,275.837z
	 M22.541,273.748H20.98v1.336h1.561c0.472,0,0.792-0.264,0.792-0.655C23.333,274.013,23.012,273.748,22.541,273.748z"/>
<path fill="#FFFFFF" d="M24.667,275.988v-0.96h1.88v0.96H24.667z"/>
<path fill="#FFFFFF" d="M29.164,278.244c-0.736,0-1.393-0.191-2.072-0.6l0.504-0.816c0.472,0.288,1.016,0.44,1.568,0.44
	c0.808,0,1.296-0.36,1.296-0.96c0-0.288-0.136-0.568-0.336-0.736c-0.192-0.151-0.473-0.224-0.872-0.224
	c-0.353,0-0.641,0.056-1.032,0.208l-0.96-0.248l0.168-2.521h3.56v0.944h-2.655l-0.057,0.768c0.433-0.096,0.696-0.136,1.032-0.136
	c1.225,0,2.112,0.832,2.112,1.944C31.419,277.437,30.475,278.244,29.164,278.244z"/>
<path fill="#FFFFFF" d="M34.332,278.244c-1.313,0-2.16-0.72-2.16-1.808c0-0.504,0.208-0.937,0.6-1.296
	c-0.336-0.4-0.432-0.624-0.432-0.977c0-0.888,0.808-1.472,1.992-1.472c1.208,0,2,0.584,2,1.472c0,0.353-0.097,0.576-0.416,0.977
	c0.392,0.359,0.584,0.792,0.584,1.296C36.5,277.717,35.444,278.244,34.332,278.244z M34.332,275.612c-0.769,0-1.2,0.296-1.2,0.824
	c0,0.264,0.152,0.528,0.392,0.68c0.152,0.088,0.488,0.152,0.809,0.152c0.456,0,0.735-0.064,0.928-0.232
	c0.185-0.168,0.28-0.376,0.28-0.6C35.54,275.908,35.107,275.612,34.332,275.612z M34.332,273.652c-0.656,0-1.032,0.192-1.032,0.488
	c0,0.32,0.376,0.512,1.032,0.512c0.664,0,1.04-0.191,1.04-0.512C35.372,273.845,34.996,273.652,34.332,273.652z"/>
<path fill="#FFFFFF" d="M41.332,277.061v1.088h-0.937v-1.088h-3.312v-0.864l3.312-3.408h0.937v3.408h0.792v0.864H41.332z
	 M40.395,274.053l-2.088,2.144h2.088V274.053z"/>
<path fill="#FFFFFF" d="M46.868,277.925c-0.264,0.151-0.552,0.224-0.832,0.224h-2.688v-5.36h2.504c0.464,0,0.64,0.04,0.92,0.192
	c0.448,0.256,0.735,0.712,0.735,1.216c0,0.433-0.176,0.809-0.527,1.112c0.464,0.336,0.696,0.752,0.696,1.264
	C47.676,277.116,47.356,277.66,46.868,277.925z M45.852,273.748h-1.528v1.072h1.528c0.408,0,0.695-0.224,0.695-0.544
	S46.284,273.748,45.852,273.748z M45.852,275.78h-1.528v1.408h1.528c0.504,0,0.863-0.28,0.863-0.68
	C46.715,276.101,46.339,275.78,45.852,275.78z"/>
<path fill="#FFFFFF" d="M33.518,186.333v-29.322h-3.294v-4.59h0.378c1.513,0,3.187-0.864,4.158-2.268h4.59v36.18H33.518z"/>
<path fill="#FFFFFF" d="M66.619,182.931c-2.052,2.754-4.968,4.051-8.748,4.051c-5.076,0-8.262-2.053-10.422-6.48
	c-1.512-3.078-2.538-7.884-2.538-12.204c0-5.939,1.513-11.286,3.942-14.742c2.16-2.754,5.076-4.05,9.233-4.05
	c4.591,0,7.776,2.052,10.045,6.48c1.512,3.186,2.43,7.775,2.43,12.312C70.562,174.021,69.157,179.745,66.619,182.931z
	 M62.678,158.146c-1.135-1.891-2.538-2.646-4.698-2.809c-0.108,0-0.216,0-0.324,0c-2.592,0-4.32,1.404-5.508,4.482
	c-0.918,2.16-1.404,5.454-1.404,8.478c0,3.834,0.756,7.776,2.16,10.044c1.134,1.891,2.646,2.809,4.968,2.809
	c2.646,0,4.32-1.404,5.563-4.591c0.756-1.89,1.403-5.453,1.403-8.262C64.837,164.247,64.081,160.575,62.678,158.146z"/>
<path fill="#FFFFFF" d="M97.561,186.333l-3.563-10.152H82.711l-3.564,10.152h-6.102l12.474-36.18h5.67l12.475,36.18H97.561z
	 M88.435,160.197l-3.726,10.151h7.236L88.435,160.197z"/>
<path fill="#FFFFFF" d="M129.259,186.333v-20.952l-8.37,20.952l-8.37-20.952v20.952h-5.725v-36.18h5.725l8.37,20.304l8.37-20.304
	h5.724v36.18H129.259z"/>
<path fill="#FFFFFF" d="M147.726,171.375v-5.724h12.69v5.724H147.726z"/>
<path fill="#FFFFFF" d="M183.798,186.981c-5.832,0-10.53-3.834-12.043-9.666l5.616-1.62c0.864,3.51,3.294,5.454,6.696,5.454
	c3.834,0,6.48-2.7,6.48-6.372c0-1.891-0.756-3.672-2.053-4.59c-0.863-0.595-0.972-0.595-3.672-0.757c-0.107,0-0.378,0-0.648,0
	v-5.832v0.162h0.162h1.242c2.322,0,3.564-1.296,3.564-3.563c0-2.809-2.268-4.86-5.184-4.86c-2.431,0-4.213,1.188-5.455,3.564
	l-5.346-1.998c1.891-4.59,5.939-7.398,10.639-7.398c6.102,0,11.069,4.968,11.069,11.07c0,2.16-0.485,3.672-2.052,5.939
	c2.699,2.431,3.456,4.32,3.456,7.885C196.271,181.743,191.195,186.981,183.798,186.981z"/>
<path fill="#FFFFFF" d="M221.003,169.323c-1.674,0.756-3.834,1.242-6.643,1.242h-6.695v15.768h-5.725v-36.18h12.42
	c2.916,0,4.86,0.27,6.643,1.134c3.132,1.512,5.562,5.346,5.562,9.018C226.564,164.139,224.135,167.919,221.003,169.323z
	 M218.573,156.525c-1.027-0.54-1.675-0.648-3.457-0.648h-7.451v8.856h7.451c1.782,0,2.43-0.108,3.457-0.595
	c1.241-0.647,2.159-2.321,2.159-3.834C220.732,158.793,219.814,157.281,218.573,156.525z"/>
<path fill="#FFFFFF" d="M252.052,186.333v-20.952l-8.369,20.952l-8.371-20.952v20.952h-5.724v-36.18h5.724l8.371,20.304
	l8.369-20.304h5.725v36.18H252.052z"/>
<path fill="#FFFFFF" d="M62.387,220.334v-12.271l-5.91,12.271l-5.85-12.271v12.271h-3.54v-20.102h3.54l5.85,11.91l5.91-11.91h3.54
	v20.102H62.387z"/>
<path fill="#FFFFFF" d="M77.746,220.693c-5.91,0-8.52-5.369-8.52-10.439c0-6.42,3.24-10.381,8.52-10.381
	c4.95,0,8.34,4.17,8.34,10.291C86.086,216.463,82.846,220.693,77.746,220.693z M77.746,203.473c-3.03,0-4.86,2.551-4.86,6.781
	c0,4.289,1.83,6.84,4.86,6.84c3.81,0,4.74-3.75,4.74-6.84C82.486,206.023,80.776,203.473,77.746,203.473z"/>
<path fill="#FFFFFF" d="M102.556,220.334l-9.57-13.83v13.83h-3.54v-20.102h3.54l9.21,13.262v-13.262h3.48v20.102H102.556z"/>
<path fill="#FFFFFF" d="M128.355,203.773v16.561h-3.51v-16.561h-5.79v-3.541h15.09v3.541H128.355z"/>
<path fill="#FFFFFF" d="M148.875,220.334v-8.76h-9.03v8.76h-3.6v-20.102h3.6v7.771h9.03v-7.771h3.602v20.102H148.875z"/>
<path fill="#FFFFFF" d="M168.615,220.334l-3.24-7.891h-5.369v7.891h-3.602v-20.102h9.24c1.471,0,2.4,0.211,3.451,0.842
	c1.92,1.049,3.119,3.029,3.119,5.309c0,2.25-1.199,4.23-3.27,5.34l3.689,8.611H168.615z M165.705,203.834h-5.699v5.01h5.699
	c1.77,0,2.91-0.99,2.91-2.461C168.615,204.824,167.475,203.834,165.705,203.834z"/>
<path fill="#FFFFFF" d="M183.465,220.693c-4.711,0-8.1-3.539-8.1-8.459v-12.002h3.6v12.002c0,1.199,0.15,1.828,0.629,2.609
	c0.781,1.32,2.25,2.189,3.871,2.189c1.619,0,3.119-0.869,3.9-2.189c0.48-0.781,0.629-1.5,0.629-2.609v-12.002h3.602v12.002
	C191.596,217.154,188.205,220.693,183.465,220.693z"/>
<path fill="#FFFFFF" d="M204.824,203.834v4.08h6.27v3.66h-6.27v8.76h-3.66v-20.102h15.031v3.602H204.824z"/>
<path fill="#FFFFFF" d="M230.564,220.334l-3.24-7.891h-5.369v7.891h-3.602v-20.102h9.24c1.471,0,2.4,0.211,3.451,0.842
	c1.92,1.049,3.119,3.029,3.119,5.309c0,2.25-1.199,4.23-3.27,5.34l3.689,8.611H230.564z M227.654,203.834h-5.699v5.01h5.699
	c1.77,0,2.91-0.99,2.91-2.461C230.564,204.824,229.424,203.834,227.654,203.834z"/>
<path fill="#FFFFFF" d="M237.314,220.334v-20.102h3.6v20.102H237.314z"/>
</svg>
