<?xml version="1.0" encoding="UTF-8" standalone="no"?>
<!-- Generator: Adobe Illustrator 14.0.0, SVG Export Plug-In  -->

<svg
   xmlns:dc="http://purl.org/dc/elements/1.1/"
   xmlns:cc="http://creativecommons.org/ns#"
   xmlns:rdf="http://www.w3.org/1999/02/22-rdf-syntax-ns#"
   xmlns:svg="http://www.w3.org/2000/svg"
   xmlns="http://www.w3.org/2000/svg"
   xmlns:sodipodi="http://sodipodi.sourceforge.net/DTD/sodipodi-0.dtd"
   xmlns:inkscape="http://www.inkscape.org/namespaces/inkscape"
   version="1.1"
   x="0px"
   y="0px"
   width="90.687477"
   height="90.687477"
   viewBox="0 -0.321 90.68748 90.687496"
   enable-background="new 0 -0.321 144 120"
   xml:space="preserve"
   id="svg2"
   inkscape:version="0.48.2 r9819"
   sodipodi:docname="MUTCD R3-8 (OK).svg"><metadata
   id="metadata44"><rdf:RDF><cc:Work
       rdf:about=""><dc:format>image/svg+xml</dc:format><dc:type
         rdf:resource="http://purl.org/dc/dcmitype/StillImage" /><dc:title></dc:title></cc:Work></rdf:RDF></metadata><sodipodi:namedview
   pagecolor="#ffffff"
   bordercolor="#666666"
   borderopacity="1"
   objecttolerance="10"
   gridtolerance="10"
   guidetolerance="10"
   inkscape:pageopacity="0"
   inkscape:pageshadow="2"
   inkscape:window-width="1280"
   inkscape:window-height="1004"
   id="namedview42"
   showgrid="false"
   fit-margin-top="0"
   fit-margin-left="0"
   fit-margin-right="0"
   fit-margin-bottom="0"
   inkscape:zoom="5.3605324"
   inkscape:cx="62.900456"
   inkscape:cy="54.211215"
   inkscape:window-x="-8"
   inkscape:window-y="-8"
   inkscape:window-maximized="1"
   inkscape:current-layer="svg2" />
<defs
   id="defs4">
</defs>


















<path
   inkscape:connector-curvature="0"
   d="m 90.335782,84.392843 c 0,3.10625 -2.51875,5.625001 -5.625,5.625001 l -78.75002,0 c -3.1075,0 -5.625,-2.518751 -5.625,-5.625001 l 0,-78.750013 c 0,-3.10625 2.5175,-5.62501 5.625,-5.62501 l 78.75002,0 c 3.10625,0 5.625,2.51876 5.625,5.62501 l 0,78.750013 z"
   style="fill:#ffffff;fill-opacity:1;fill-rule:nonzero;stroke:#000000;stroke-width:0.70000017;stroke-miterlimit:4;stroke-opacity:1;stroke-dasharray:none"
   id="path6538" /><path
   inkscape:connector-curvature="0"
   d="m 86.585782,84.392842 c 0,1.03375 -0.84125,1.875001 -1.875,1.875001 l -78.75002,0 c -1.03375,0 -1.875,-0.841251 -1.875,-1.875001 l 0,-78.750012 c 0,-1.03375 0.84125,-1.875 1.875,-1.875 l 78.75002,0 c 1.03375,0 1.875,0.84125 1.875,1.875 l 0,78.750012 z m -1.875,-82.968772 -78.75002,0 c -2.32625,0 -4.21875,1.89376 -4.21875,4.21876 l 0,78.750012 c 0,2.325001 1.8925,4.218751 4.21875,4.218751 l 78.75002,0 c 2.32625,0 4.21875,-1.89375 4.21875,-4.218751 l 0,-78.750012 c 0,-2.325 -1.8925,-4.21876 -4.21875,-4.21876"
   style="fill:#000000;fill-opacity:1;fill-rule:nonzero;stroke:none"
   id="path6546" /><path
   inkscape:connector-curvature="0"
   d="m 33.230642,31.506591 12.105,-17.895003 12.12376,17.895003 c 0.53625,0.78875 0.33125,1.868751 -0.4575,2.405001 -0.52751,0.3575 -1.07376,0.29375 -1.72126,0.12875 l -5.25375,-1.577501 0,43.023759 -9.375,0 0,-43.023759 -5.16875,1.540001 c -0.71375,0.20125 -1.2425,0.28375 -1.79375,-0.09125 -0.78875,-0.53625 -0.995,-1.616251 -0.45875,-2.405001"
   style="fill:#000000;fill-opacity:1;fill-rule:nonzero;stroke:none"
   id="path6550" /><path
   inkscape:connector-curvature="0"
   d="m 76.952032,48.864091 c -0.36375,2.957501 -1.13,5.863751 -2.2675,8.620002 -1.06875,2.59 -2.705,4.947501 -4.31375,7.222501 L 25.623272,19.981585 c 1.6,-1.125 3.20875,-2.275 4.9325,-3.193751 8.53626,-4.547501 19.15251,-4.768751 27.93751,-0.79375 6.9925,3.160001 12.705,8.878752 15.87,15.863753 2.405,5.302502 3.30125,11.228753 2.58875,17.006254 m -16.83375,24.395005 c -6.775,3.598751 -14.9575,4.512501 -22.39125,2.705001 -7.53001,-1.828751 -14.23626,-6.431252 -18.64001,-12.801253 -3.33,-4.813751 -5.27,-10.526252 -5.58125,-16.371253 -0.25375,-4.860001 0.61625,-9.760002 2.48,-14.255003 1.07375,-2.598751 2.7125,-4.958751 4.3225,-7.246252 l 44.74251,44.777509 c -1.59375,1.121251 -3.2025,2.272501 -4.9325,3.191251 m 23.8225,-36.050007 c -1.51875,-7.566252 -5.29625,-14.577503 -10.75375,-20.033755 -5.46125,-5.458751 -12.48,-9.246254 -20.06125,-10.745004 -7.63,-1.50375 -15.92,-0.9575 -23.04751,2.277502 -4.62625,2.100001 -8.8925,4.975001 -12.57875,8.465002 -1.88,1.772501 -3.455,3.857501 -4.91875,5.976252 -2.90875,4.206251 -4.84625,9.181252 -5.84875,14.160003 -1.53625,7.602501 -0.75875,15.573753 2.20125,22.741254 2.95125,7.151252 8.015,13.348753 14.44,17.660004 6.4675,4.338751 14.17251,6.671251 21.96001,6.671251 7.7875,0 15.49625,-2.33125 21.965,-6.668751 6.43,-4.307501 11.4975,-10.507502 14.4475,-17.657504 2.9675,-7.198751 3.72876,-15.217503 2.195,-22.846254"
   style="fill:#bf2033;fill-opacity:1;fill-rule:evenodd;stroke:none"
   id="path6554" /></svg>