<?xml version="1.0" encoding="utf-8"?>
<!-- Generator: Adobe Illustrator 12.0.1, SVG Export Plug-In  -->
<!DOCTYPE svg PUBLIC "-//W3C//DTD SVG 1.1//EN" "http://www.w3.org/Graphics/SVG/1.1/DTD/svg11.dtd" [
	<!ENTITY ns_flows "http://ns.adobe.com/Flows/1.0/">
	<!ENTITY ns_svg "http://www.w3.org/2000/svg">
	<!ENTITY ns_xlink "http://www.w3.org/1999/xlink">
]>
<svg  version="1.1" xmlns="&ns_svg;" xmlns:xlink="&ns_xlink;" xmlns:a="http://ns.adobe.com/AdobeSVGViewerExtensions/3.0/"
	 width="232" height="288" viewBox="-0.652 0 232 288" enable-background="new -0.652 0 232 288" xml:space="preserve">
<defs>
</defs>
<path fill="#FFFFFF" d="M15.116,0.795h200.465c7.884,0,14.32,6.432,14.32,14.32v257.768c0,7.885-6.437,14.321-14.32,14.321H15.116
	c-7.887,0-14.32-6.437-14.32-14.321V15.116C0.795,7.327,7.328,0.795,15.116,0.795"/>
<path fill="#221E1F" d="M15.116,0v1.591h200.465c7.458,0,13.525,6.067,13.525,13.525v257.768c0,7.458-6.067,13.525-13.525,13.525
	H15.116c-7.458,0-13.525-6.067-13.525-13.525V15.116c0-7.332,6.194-13.525,13.525-13.525V0C6.922,0,0,6.922,0,15.116v257.768
	C0,281.22,6.781,288,15.116,288h200.465c4.025,0,7.817-1.575,10.679-4.437c2.862-2.86,4.438-6.654,4.438-10.68V15.116
	c0-8.335-6.78-15.116-15.116-15.116H15.116z"/>
<path fill-rule="evenodd" clip-rule="evenodd" fill="#221E1F" d="M15.156,4.375H215.54c5.903,0.009,10.763,4.892,10.782,10.786
	v257.676c-0.02,5.902-4.879,10.766-10.782,10.788H15.156c-5.889-0.022-10.769-4.886-10.781-10.788V15.161
	C4.388,9.267,9.267,4.385,15.156,4.375"/>
<path fill-rule="evenodd" clip-rule="evenodd" fill="#FFFFFF" d="M15.24,10.342h200.222c2.686-0.042,4.94,2.199,4.893,4.895v257.526
	c0.048,2.684-2.207,4.941-4.893,4.895H15.24c-2.698,0.047-4.935-2.211-4.898-4.895V15.237C10.305,12.538,12.542,10.3,15.24,10.342"
	/>
<path fill="#231F20" d="M102.912,70.266L89.064,44.26v26.006h-6.424V31.461h6.424l12.307,23.283V31.461h6.424v38.805H102.912z"/>
<path fill="#231F20" d="M145.522,64.301c-2.208,4.575-5.486,6.66-10.504,6.66c-5.351,0-8.496-2.085-10.702-6.66
	c-1.874-3.823-2.543-7.53-2.543-13.496c0-5.85,0.669-9.788,2.543-13.495c2.341-4.632,5.485-6.545,10.702-6.545
	c5.153,0,8.296,1.913,10.504,6.662c1.871,3.823,2.543,7.529,2.543,13.379C148.065,56.771,147.393,60.593,145.522,64.301z
	 M140.503,41.132c-1.137-3.417-2.809-4.923-5.485-4.923c-2.877,0-4.615,1.506-5.688,4.808c-1.067,2.954-1.404,5.56-1.404,9.905
	c0,4.228,0.471,6.66,1.404,9.788c1.072,3.3,2.811,4.808,5.688,4.808c2.677,0,4.349-1.507,5.485-4.808
	c1.072-3.128,1.404-5.445,1.404-9.904C141.908,46.462,141.44,43.971,140.503,41.132z"/>
<path fill="#231F20" d="M69.128,96.004v33.651H62.64V96.004h-8.162V90.85h22.811v5.154H69.128z"/>
<path fill="#231F20" d="M106.856,124.906c-2.207,3.127-6.42,5.443-10.704,5.443c-4.416,0-8.764-2.2-10.97-5.443
	c-1.271-2.085-1.74-3.708-1.74-6.835V90.85h6.424v27.917c0,3.649,2.542,6.139,6.287,6.139c3.478,0,6.02-2.49,6.02-6.139V90.85h6.424
	v27.221C108.597,121.198,108.127,122.821,106.856,124.906z"/>
<path fill="#231F20" d="M136.892,129.655l-5.955-18.244h-6.153v18.244h-6.423V90.85h13.379c7.027,0,11.776,4.111,11.776,10.367
	c0,4.634-2.207,7.992-6.426,9.382l6.426,19.055H136.892z M131.408,96.295h-6.624v9.788h6.624c3.744,0,5.821-1.739,5.821-4.865
	C137.229,98.206,134.884,96.295,131.408,96.295z"/>
<path fill="#231F20" d="M171.346,129.655l-13.85-26.006v26.006h-6.423V90.85h6.423l12.307,23.283V90.85h6.424v38.805H171.346z"/>
<path fill="#231F20" d="M53.643,184.372c-2.21,4.575-5.489,6.661-10.504,6.661c-5.352,0-8.497-2.086-10.703-6.661
	c-1.874-3.822-2.542-7.529-2.542-13.493c0-5.853,0.668-9.789,2.542-13.497c2.34-4.634,5.485-6.545,10.703-6.545
	c5.153,0,8.294,1.911,10.504,6.66c1.871,3.823,2.542,7.529,2.542,13.382C56.185,176.843,55.514,180.665,53.643,184.372z
	 M48.624,161.204c-1.138-3.415-2.81-4.923-5.485-4.923c-2.878,0-4.615,1.508-5.687,4.809c-1.069,2.952-1.405,5.56-1.405,9.903
	c0,4.229,0.469,6.661,1.405,9.787c1.072,3.3,2.809,4.811,5.687,4.811c2.676,0,4.348-1.511,5.485-4.811
	c1.072-3.126,1.405-5.444,1.405-9.901C50.028,166.534,49.559,164.042,48.624,161.204z"/>
<path fill="#231F20" d="M85.419,190.339l-13.848-26.005v26.005h-6.423v-38.806h6.423l12.307,23.283v-23.283h6.424v38.806H85.419z"/>
<path fill="#BF2F37" d="M131.106,190.339l-5.955-18.245h-6.153v18.245h-6.423v-38.806h13.379c7.027,0,11.774,4.111,11.774,10.367
	c0,4.634-2.207,7.99-6.424,9.383l6.424,19.056H131.106z M125.622,156.978h-6.624v9.787h6.624c3.744,0,5.82-1.738,5.82-4.864
	C131.442,158.889,129.098,156.978,125.622,156.978z"/>
<path fill="#BF2F37" d="M145.288,190.339v-38.806h21.072v5.444H151.71v9.787h9.298v5.329h-9.298v12.801h16.39v5.444H145.288z"/>
<path fill="#BF2F37" d="M194.385,188.544c-1.604,1.273-3.811,1.795-6.287,1.795h-12.442v-38.806h11.438
	c3.814,0,5.688,0.407,7.291,1.508c2.677,1.621,4.55,4.63,5.352,8.57c0.604,2.838,1.072,6.253,1.072,9.268
	C200.809,179.854,198.737,185.591,194.385,188.544z M193.251,160.916c-1.072-2.724-2.946-3.938-5.821-3.938h-5.352v27.917h5.352
	c3.813,0,5.821-2.607,6.489-5.563c0.269-2.489,0.603-5.212,0.603-8.167C194.522,166.765,194.053,162.538,193.251,160.916z"/>
<path fill="#231F20" d="M54.979,251.056l-3.143-10.602h-9.634l-2.943,10.602h-6.489l11.172-38.807h6.288l11.172,38.807H54.979z
	 M46.952,223.835L43.81,235.01h6.421L46.952,223.835z"/>
<path fill="#231F20" d="M86.087,251.056l-5.955-18.246h-6.153v18.246h-6.423v-38.807h13.378c7.027,0,11.775,4.114,11.775,10.367
	c0,4.638-2.206,7.993-6.423,9.386l6.423,19.054H86.087z M80.602,217.694h-6.623v9.789h6.623c3.745,0,5.818-1.74,5.818-4.867
	C86.42,219.608,84.08,217.694,80.602,217.694z"/>
<path fill="#231F20" d="M118.799,251.056l-5.955-18.246h-6.153v18.246h-6.423v-38.807h13.378c7.028,0,11.775,4.114,11.775,10.367
	c0,4.638-2.207,7.993-6.424,9.386l6.424,19.054H118.799z M113.314,217.694h-6.623v9.789h6.623c3.745,0,5.817-1.74,5.817-4.867
	C119.131,219.608,116.792,217.694,113.314,217.694z"/>
<path fill="#231F20" d="M155.923,245.092c-2.208,4.574-5.487,6.656-10.504,6.656c-5.352,0-8.496-2.082-10.702-6.656
	c-1.875-3.822-2.543-7.533-2.543-13.497c0-5.852,0.668-9.787,2.543-13.496c2.341-4.631,5.485-6.546,10.702-6.546
	c5.153,0,8.296,1.915,10.504,6.663c1.873,3.822,2.543,7.527,2.543,13.379C158.466,237.559,157.796,241.381,155.923,245.092z
	 M150.905,221.921c-1.137-3.416-2.809-4.923-5.485-4.923c-2.877,0-4.615,1.507-5.688,4.81c-1.068,2.953-1.404,5.558-1.404,9.902
	c0,4.229,0.471,6.662,1.404,9.789c1.072,3.301,2.811,4.808,5.688,4.808c2.677,0,4.349-1.507,5.485-4.808
	c1.072-3.127,1.406-5.445,1.406-9.904C152.311,227.254,151.844,224.761,150.905,221.921z"/>
<path fill="#231F20" d="M190.708,251.056h-5.484l-4.283-20.272l-4.213,20.272h-5.686l-7.091-38.807h6.287l3.813,20.679l4.351-20.679
	h5.081l4.217,20.679l3.947-20.679h6.287L190.708,251.056z"/>
</svg>
