<?xml version="1.0" encoding="UTF-8" standalone="no"?>
<!-- Generator: Adobe Illustrator 16.0.0, SVG Export Plug-In . SVG Version: 6.00 Build 0)  -->

<svg
   xmlns:dc="http://purl.org/dc/elements/1.1/"
   xmlns:cc="http://creativecommons.org/ns#"
   xmlns:rdf="http://www.w3.org/1999/02/22-rdf-syntax-ns#"
   xmlns:svg="http://www.w3.org/2000/svg"
   xmlns="http://www.w3.org/2000/svg"
   xmlns:sodipodi="http://sodipodi.sourceforge.net/DTD/sodipodi-0.dtd"
   xmlns:inkscape="http://www.inkscape.org/namespaces/inkscape"
   version="1.1"
   id="Layer_1"
   x="0px"
   y="0px"
   width="89.999062"
   height="90.001251"
   viewBox="0 0 89.999062 90.001251"
   enable-background="new 0 0 850.394 425.197"
   xml:space="preserve"
   inkscape:version="0.48.2 r9819"
   sodipodi:docname="MUTCD W10-7.svg"><metadata
   id="metadata37"><rdf:RDF><cc:Work
       rdf:about=""><dc:format>image/svg+xml</dc:format><dc:type
         rdf:resource="http://purl.org/dc/dcmitype/StillImage" /><dc:title></dc:title></cc:Work></rdf:RDF></metadata><defs
   id="defs35" /><sodipodi:namedview
   pagecolor="#ffffff"
   bordercolor="#666666"
   borderopacity="1"
   objecttolerance="10"
   gridtolerance="10"
   guidetolerance="10"
   inkscape:pageopacity="0"
   inkscape:pageshadow="2"
   inkscape:window-width="1280"
   inkscape:window-height="1004"
   id="namedview33"
   showgrid="false"
   fit-margin-top="0"
   fit-margin-left="0"
   fit-margin-right="0"
   fit-margin-bottom="0"
   inkscape:zoom="7.0089287"
   inkscape:cx="39.123765"
   inkscape:cy="35.331672"
   inkscape:window-x="-8"
   inkscape:window-y="-8"
   inkscape:window-maximized="1"
   inkscape:current-layer="Layer_1"
   showguides="true"
   inkscape:guide-bbox="true" />













<path
   inkscape:connector-curvature="0"
   d="m 1.288125,41.877188 40.5875,-40.5900005 c 1.71875,-1.71625 4.53,-1.71625 6.245,0 l 40.59125,40.5900005 c 1.71625,1.71875 1.71625,4.527499 0,6.246249 l -40.59125,40.58875 c -1.715,1.71875 -4.52625,1.71875 -6.245,0 l -40.5875,-40.58875 c -1.7175,-1.71875 -1.7175,-4.527499 0,-6.246249"
   style="fill:#ffd033;fill-opacity:1;fill-rule:nonzero;stroke:none"
   id="path3411" /><path
   inkscape:connector-curvature="0"
   d="M 2.264375,42.523437 42.520625,2.2684375 c 1.36125,-1.36375 3.59125,-1.36375 4.955,0 l 40.255,40.2550005 c 1.36125,1.3625 1.36125,3.592499 0,4.953749 l -40.255,40.256251 c -1.36375,1.362501 -3.59375,1.362501 -4.955,0 L 2.264375,47.477187 c -1.3625,-1.36125 -1.3625,-3.591249 0,-4.953749"
   style="fill:#000000;fill-opacity:1;fill-rule:evenodd;stroke:none"
   id="path3419" /><path
   inkscape:connector-curvature="0"
   d="M 3.521875,43.762188 43.760625,3.5259375 c 0.67875,-0.68125 1.795,-0.68125 2.475,0 l 40.2375,40.2362505 c 0.68125,0.682499 0.68125,1.794998 0,2.476249 l -40.2375,40.2375 c -0.68,0.681251 -1.79625,0.681251 -2.475,0 l -40.23875,-40.2375 c -0.68,-0.681251 -0.68,-1.79375 0,-2.476249"
   style="fill:#ffd033;fill-opacity:1;fill-rule:evenodd;stroke:none"
   id="path3423" /><path
   inkscape:connector-curvature="0"
   d="m 42.656995,29.245938 -3.37625,-5.979999 0,5.98 -1.39375,0 0,-8.83 1.39375,0 3.22125,5.6375 0,-5.6375 1.39625,0 0,8.83 -1.24125,0 z"
   style="fill:#000000;fill-opacity:1;fill-rule:nonzero;stroke:none"
   id="path4031" /><path
   inkscape:connector-curvature="0"
   d="m 50.186875,22.379688 c -0.28125,-0.466251 -0.62125,-0.652501 -1.15,-0.6825 -0.6825,-0.03 -1.11875,0.30875 -1.42875,1.085 -0.21625,0.525 -0.34125,1.33125 -0.34125,2.07375 0,0.93125 0.185,1.89125 0.5275,2.447499 0.27875,0.466251 0.6525,0.68125 1.2125,0.68125 0.65125,0 1.055,-0.338749 1.365,-1.11375 0.1875,-0.465 0.3425,-1.33375 0.3425,-2.015 0,-0.99125 -0.1875,-1.8875 -0.5275,-2.47625 m 0.96125,6.04 c -0.49625,0.68125 -1.21,0.99125 -2.14125,0.99125 -1.2425,0 -2.02,-0.49625 -2.5475,-1.58 -0.3725,-0.74375 -0.62,-1.92 -0.62,-2.975 0,-1.45625 0.37125,-2.75625 0.9625,-3.59375 0.5275,-0.68125 1.24125,-0.99125 2.26625,-0.99125 1.11875,0 1.895,0.49625 2.4525,1.58125 0.37375,0.77375 0.59125,1.89 0.59125,3.00375 0,1.395 -0.34125,2.79 -0.96375,3.56375"
   style="fill:#000000;fill-opacity:1;fill-rule:nonzero;stroke:none"
   id="path4035" /><path
   inkscape:connector-curvature="0"
   d="m 58.605625,64.564687 -3.37625,-5.98 0,5.98 -1.395,0 0,-8.83 1.395,0 3.22125,5.63875 0,-5.63875 1.395,0 0,8.83 -1.24,0 z"
   style="fill:#000000;fill-opacity:1;fill-rule:nonzero;stroke:none"
   id="path4039" /><path
   inkscape:connector-curvature="0"
   d="m 42.453125,57.698438 c -0.27875,-0.465 -0.62125,-0.65125 -1.15,-0.6825 -0.68125,-0.03 -1.1175,0.31 -1.4275,1.085 -0.2175,0.525 -0.34125,1.33125 -0.34125,2.075 0,0.92875 0.18625,1.89 0.52625,2.4475 0.28125,0.465 0.65375,0.68 1.21375,0.68 0.65125,0 1.055,-0.33875 1.365,-1.11375 0.18625,-0.46375 0.3425,-1.3325 0.3425,-2.01375 0,-0.99125 -0.1875,-1.88875 -0.52875,-2.4775 m 0.9625,6.04 c -0.4975,0.68125 -1.21125,0.99125 -2.14125,0.99125 -1.2425,0 -2.02,-0.49625 -2.54875,-1.58 -0.3725,-0.74375 -0.61875,-1.92 -0.61875,-2.97375 0,-1.4575 0.37125,-2.7575 0.96125,-3.595 0.5275,-0.68125 1.2425,-0.99 2.2675,-0.99 1.1175,0 1.89375,0.49625 2.45375,1.58125 0.3725,0.77375 0.58875,1.88875 0.58875,3.00375 0,1.39375 -0.34125,2.78875 -0.9625,3.5625"
   style="fill:#000000;fill-opacity:1;fill-rule:nonzero;stroke:none"
   id="path4043" /><path
   inkscape:connector-curvature="0"
   d="m 50.194375,57.285937 c -0.21625,-0.12625 -0.3425,-0.15625 -0.80625,-0.15625 l -1.67375,0 0,2.1675 1.67375,0 c 0.435,0 0.59,-0.03 0.80625,-0.15625 0.34,-0.185 0.55625,-0.55625 0.55625,-0.9275 0,-0.37125 -0.21625,-0.7425 -0.55625,-0.9275 m 0.61875,7.2775 -1.425,-3.84125 -1.67375,0 0,3.84125 -1.39375,0 0,-8.82875 2.9125,0 c 0.6825,0 1.14625,0.0625 1.58,0.2775 0.77625,0.372499 1.3325,1.3025 1.3325,2.20125 0,0.9275 -0.55625,1.85875 -1.3625,2.23 l 1.54875,4.12 -1.51875,0 z"
   style="fill:#000000;fill-opacity:1;fill-rule:nonzero;stroke:none"
   id="path4047" /><path
   inkscape:connector-curvature="0"
   d="m 34.769375,64.563438 0,-3.84125 -3.22,0 0,3.84125 -1.395,0 0,-8.82875 1.395,0 0,3.5625 3.22,0 0,-3.5625 1.39375,0 0,8.82875 -1.39375,0 z"
   style="fill:#000000;fill-opacity:1;fill-rule:nonzero;stroke:none"
   id="path4051" /><path
   inkscape:connector-curvature="0"
   d="m 59.708245,46.905937 -3.3775,-5.981249 0,5.981249 -1.39375,0 0,-8.831249 1.39375,0 3.22125,5.64 0,-5.64 1.395,0 0,8.831249 -1.23875,0 z"
   style="fill:#000000;fill-opacity:1;fill-rule:nonzero;stroke:none"
   id="path4055" /><path
   inkscape:connector-curvature="0"
   d="m 51.404875,38.074188 1.41125,0 0,8.83125 -1.41125,0 0,-8.83125 z"
   style="fill:#000000;fill-opacity:1;fill-rule:nonzero;stroke:none"
   id="path4057" /><path
   inkscape:connector-curvature="0"
   d="m 32.474505,39.315939 0,7.588749 -1.4,0 0,-7.588749 -2.0225,0 0,-1.24 5.47625,0 0,1.24 -2.05375,0 z"
   style="fill:#000000;fill-opacity:1;fill-rule:nonzero;stroke:none"
   id="path4061" /><path
   inkscape:connector-curvature="0"
   d="m 39.725625,39.624569 c -0.2175,-0.12375 -0.34125,-0.155 -0.80625,-0.155 l -1.6725,0 0,2.16875 1.6725,0 c 0.43375,0 0.58875,-0.03125 0.80625,-0.15625 0.34,-0.185 0.5575,-0.55625 0.5575,-0.92875 0,-0.371251 -0.2175,-0.7425 -0.5575,-0.92875 m 0.62,7.279998 -1.42625,-3.841249 -1.6725,0 0,3.841249 -1.39375,0 0,-8.828748 2.91125,0 c 0.68125,0 1.14625,0.06125 1.58125,0.277499 0.77375,0.371251 1.33125,1.301251 1.33125,2.200001 0,0.92875 -0.5575,1.85875 -1.3625,2.23125 l 1.54875,4.119998 -1.5175,0 z"
   style="fill:#000000;fill-opacity:1;fill-rule:nonzero;stroke:none"
   id="path4065" /><path
   inkscape:connector-curvature="0"
   d="m 46.339375,40.523319 -0.90375,2.47875 1.77625,0 -0.8725,-2.47875 z m 2.24375,6.378748 -0.87375,-2.474998 -2.77125,0 -0.87375,2.474998 -1.495,0 3.05375,-8.827498 1.4025,0 3.0525,8.827498 -1.495,0 z"
   style="fill:#000000;fill-opacity:1;fill-rule:nonzero;stroke:none"
   id="path4069" /></svg>