<?xml version="1.0" encoding="UTF-8" standalone="no"?>
<!-- Generator: Adobe Illustrator 12.0.1, SVG Export Plug-In  -->

<svg
   xmlns:dc="http://purl.org/dc/elements/1.1/"
   xmlns:cc="http://creativecommons.org/ns#"
   xmlns:rdf="http://www.w3.org/1999/02/22-rdf-syntax-ns#"
   xmlns:svg="http://www.w3.org/2000/svg"
   xmlns="http://www.w3.org/2000/svg"
   xmlns:sodipodi="http://sodipodi.sourceforge.net/DTD/sodipodi-0.dtd"
   xmlns:inkscape="http://www.inkscape.org/namespaces/inkscape"
   version="1.1"
   width="286.66125"
   height="286.66476"
   viewBox="-1 0 286.66125 286.66476"
   enable-background="new -1 0 289 288"
   xml:space="preserve"
   id="svg2"
   inkscape:version="0.48.2 r9819"
   sodipodi:docname="AJAX1.svg"><metadata
   id="metadata40"><rdf:RDF><cc:Work
       rdf:about=""><dc:format>image/svg+xml</dc:format><dc:type
         rdf:resource="http://purl.org/dc/dcmitype/StillImage" /></cc:Work></rdf:RDF></metadata><sodipodi:namedview
   pagecolor="#ffffff"
   bordercolor="#666666"
   borderopacity="1"
   objecttolerance="10"
   gridtolerance="10"
   guidetolerance="10"
   inkscape:pageopacity="0"
   inkscape:pageshadow="2"
   inkscape:window-width="1280"
   inkscape:window-height="1004"
   id="namedview38"
   showgrid="false"
   fit-margin-top="0"
   fit-margin-left="0"
   fit-margin-right="0"
   fit-margin-bottom="0"
   inkscape:zoom="2.3177389"
   inkscape:cx="113.28268"
   inkscape:cy="124.04903"
   inkscape:window-x="-8"
   inkscape:window-y="-8"
   inkscape:window-maximized="1"
   inkscape:current-layer="svg2" />
<defs
   id="defs4">
</defs>
<path
   d="m 3.09875,133.3875 129.281,-129.282 c 5.471,-5.474 14.421,-5.474 19.895,0 l 129.284,129.282 c 5.47,5.471 5.47,14.423 0,19.889 l -129.284,129.285 c -5.474,5.471 -14.424,5.471 -19.895,0 L 3.09875,153.2755 c -5.465,-5.465 -5.465,-14.418 0,-19.888 z"
   id="path6"
   style="fill:#ffd033;stroke:none;fill-opacity:1"
   inkscape:connector-curvature="0" />

<path
   clip-rule="evenodd"
   d="m 6.22175,135.4405 128.219,-128.22 c 4.339,-4.339 11.442,-4.339 15.785,0 l 128.215,128.22 c 4.343,4.343 4.343,11.438 0,15.777 l -128.215,128.224 c -4.343,4.336 -11.446,4.336 -15.785,0 L 6.22175,151.2175 c -4.339,-4.339 -4.339,-11.435 0,-15.777"
   id="path10"
   inkscape:connector-curvature="0"
   style="fill-rule:evenodd;stroke:none;fill:#000000" />
<path
   clip-rule="evenodd"
   d="m 10.22475,139.3905 128.162,-128.162 c 2.162,-2.169 5.724,-2.169 7.889,0 l 128.16,128.162 c 2.166,2.166 2.166,5.716 0,7.883 l -128.16,128.161 c -2.165,2.168 -5.727,2.168 -7.889,0 l -128.162,-128.161 c -2.166,-2.167 -2.166,-5.717 0,-7.883"
   id="path12"
   inkscape:connector-curvature="0"
   style="fill:#ffd033;fill-rule:evenodd;stroke:none;fill-opacity:1" />
<path
   d="m 106.56075,128.9195 v 30.071 h -5.021 v -30.071 h -6.314 v -4.606 h 17.649 v 4.606 h -6.314 z"
   id="path14"
   inkscape:connector-curvature="0"
   style="stroke:none;fill:#000000" />
<path
   d="m 132.12875,158.9905 v -15.683 h -9.523 v 15.683 h -4.969 v -34.677 h 4.969 v 14.129 h 9.523 v -14.129 h 4.969 v 34.677 h -4.969 z"
   id="path16"
   inkscape:connector-curvature="0"
   style="stroke:none;fill:#000000" />
<path
   d="m 158.99175,158.9905 -4.606,-16.304 h -4.762 v 16.304 h -4.969 v -34.677 h 10.352 c 5.435,0 9.109,3.675 9.109,9.264 0,4.141 -1.708,7.143 -4.969,8.385 l 4.969,17.029 h -5.124 z m -4.245,-29.812 h -5.124 v 8.746 h 5.124 c 2.898,0 4.503,-1.553 4.503,-4.348 0,-2.69 -1.811,-4.398 -4.503,-4.398 z"
   id="path18"
   inkscape:connector-curvature="0"
   style="stroke:none;fill:#000000" />
<path
   d="m 188.07875,154.7465 c -1.708,2.795 -4.969,4.865 -8.281,4.865 -3.416,0 -6.78,-1.967 -8.488,-4.865 -0.983,-1.863 -1.346,-3.313 -1.346,-6.107 v -24.326 h 4.969 v 24.947 c 0,3.261 1.967,5.486 4.865,5.486 2.691,0 4.658,-2.226 4.658,-5.486 v -24.947 h 4.969 v 24.326 c 0,2.795 -0.362,4.244 -1.346,6.107 z"
   id="path20"
   inkscape:connector-curvature="0"
   style="stroke:none;fill:#000000" />
<path
   d="m 85.96075,207.4265 c -6.107,0 -9.73,-5.124 -9.73,-10.817 h 4.865 c 0,2.898 1.449,5.952 4.865,5.952 2.691,0 4.865,-2.433 4.865,-5.228 0,-1.967 -0.725,-3.416 -2.795,-5.021 -0.725,-0.725 1.242,0.621 -5.849,-4.141 -2.795,-1.916 -4.244,-4.607 -4.244,-7.661 0,-4.968 3.882,-9.005 8.851,-9.005 4.917,0 8.644,3.778 8.799,9.005 h -4.762 c -0.104,-2.432 -1.812,-3.984 -4.037,-3.984 -2.277,0 -4.089,1.708 -4.089,3.984 0,1.708 0.725,2.691 3.261,4.141 6.677,3.883 9.627,7.661 9.627,12.682 0,5.59 -4.296,10.093 -9.627,10.093 z"
   id="path22"
   inkscape:connector-curvature="0"
   style="stroke:none;fill:#000000" />
<path
   d="m 110.07975,176.7335 v 30.071 h -5.021 v -30.071 h -6.314 v -4.606 h 17.649 v 4.606 h -6.314 z"
   id="path24"
   inkscape:connector-curvature="0"
   style="stroke:none;fill:#000000" />
<path
   d="m 135.49275,206.8055 -4.606,-16.304 h -4.762 v 16.304 h -4.969 v -34.678 h 10.352 c 5.435,0 9.109,3.675 9.109,9.264 0,4.141 -1.708,7.144 -4.969,8.386 l 4.969,17.028 h -5.124 z m -4.244,-29.813 h -5.124 v 8.746 h 5.124 c 2.898,0 4.503,-1.553 4.503,-4.348 0,-2.69 -1.812,-4.398 -4.503,-4.398 z"
   id="path26"
   inkscape:connector-curvature="0"
   style="stroke:none;fill:#000000" />
<path
   d="m 146.46575,206.8055 v -34.678 h 16.305 v 4.865 h -11.336 v 8.746 h 7.195 v 4.763 h -7.195 v 11.438 h 12.682 v 4.865 h -17.651 z"
   id="path28"
   inkscape:connector-curvature="0"
   style="stroke:none;fill:#000000" />
<path
   d="m 169.96375,206.8055 v -34.678 h 16.305 v 4.865 h -11.336 v 8.746 h 7.195 v 4.763 h -7.195 v 11.438 h 12.682 v 4.865 h -17.651 z"
   id="path30"
   inkscape:connector-curvature="0"
   style="stroke:none;fill:#000000" />
<path
   d="m 202.10675,176.7335 v 30.071 h -5.021 v -30.071 h -6.314 v -4.606 h 17.65 v 4.606 h -6.315 z"
   id="path32"
   inkscape:connector-curvature="0"
   style="stroke:none;fill:#000000" />
<path
   d="m 135.93275,109.5905 -10.714,-23.24 v 23.24 h -4.969 v -34.677 h 4.969 l 9.523,20.806 v -20.806 h 4.969 v 34.677 h -3.778 z"
   id="path34"
   inkscape:connector-curvature="0"
   style="stroke:none;fill:#000000" />
<path
   d="m 162.43275,104.2595 c -1.707,4.089 -4.244,5.952 -8.125,5.952 -4.141,0 -6.574,-1.863 -8.281,-5.952 -1.449,-3.416 -1.967,-6.729 -1.967,-12.06 0,-5.228 0.518,-8.747 1.967,-12.059 1.811,-4.141 4.244,-5.849 8.281,-5.849 3.984,0 6.418,1.708 8.125,5.952 1.449,3.415 1.967,6.728 1.967,11.955 0,5.332 -0.518,8.748 -1.967,12.061 z m -3.881,-20.704 c -0.881,-3.053 -2.174,-4.398 -4.244,-4.398 -2.227,0 -3.572,1.346 -4.4,4.295 -0.828,2.64 -1.086,4.969 -1.086,8.851 0,3.779 0.361,5.953 1.086,8.748 0.828,2.95 2.174,4.296 4.4,4.296 2.07,0 3.363,-1.346 4.244,-4.296 0.828,-2.795 1.086,-4.865 1.086,-8.851 0,-3.883 -0.361,-6.109 -1.086,-8.645 z"
   id="path36"
   inkscape:connector-curvature="0"
   style="stroke:none;fill:#000000" />
</svg>