<?xml version="1.0" encoding="UTF-8" standalone="no"?>
<!-- Generator: Adobe Illustrator 12.0.1, SVG Export Plug-In  -->

<svg
   xmlns:dc="http://purl.org/dc/elements/1.1/"
   xmlns:cc="http://creativecommons.org/ns#"
   xmlns:rdf="http://www.w3.org/1999/02/22-rdf-syntax-ns#"
   xmlns:svg="http://www.w3.org/2000/svg"
   xmlns="http://www.w3.org/2000/svg"
   xmlns:sodipodi="http://sodipodi.sourceforge.net/DTD/sodipodi-0.dtd"
   xmlns:inkscape="http://www.inkscape.org/namespaces/inkscape"
   version="1.1"
   width="282.59375"
   height="282.59375"
   viewBox="-1 0 282.59375 282.59374"
   enable-background="new -1 0 289 288"
   xml:space="preserve"
   id="svg2"
   inkscape:version="0.48.2 r9819"
   sodipodi:docname="AJAX1.svg"><metadata
   id="metadata22"><rdf:RDF><cc:Work
       rdf:about=""><dc:format>image/svg+xml</dc:format><dc:type
         rdf:resource="http://purl.org/dc/dcmitype/StillImage" /><dc:title /></cc:Work></rdf:RDF></metadata><sodipodi:namedview
   pagecolor="#ffffff"
   bordercolor="#666666"
   borderopacity="1"
   objecttolerance="10"
   gridtolerance="10"
   guidetolerance="10"
   inkscape:pageopacity="0"
   inkscape:pageshadow="2"
   inkscape:window-width="1280"
   inkscape:window-height="1004"
   id="namedview20"
   showgrid="false"
   fit-margin-top="0"
   fit-margin-left="0"
   fit-margin-right="0"
   fit-margin-bottom="0"
   inkscape:zoom="1.638889"
   inkscape:cx="52.564196"
   inkscape:cy="158.92701"
   inkscape:window-x="-8"
   inkscape:window-y="-8"
   inkscape:window-maximized="1"
   inkscape:current-layer="svg2"
   showguides="true"
   inkscape:guide-bbox="true"><sodipodi:guide
     orientation="0,1"
     position="-125.17628,-1642.9742"
     id="guide2987" /></sodipodi:namedview>
<defs
   id="defs4">
</defs>







<path
   inkscape:connector-curvature="0"
   d="m 280.83975,264.28323 c 0,9.66251 -7.90625,17.56876 -17.56875,17.56876 l -245.9625,0 c -9.6625,0 -17.56875,-7.90625 -17.56875,-17.56876 l 0,-245.962515 c 0,-9.6625 7.90625,-17.56875 17.56875,-17.56875 l 245.9625,0 c 9.6625,0 17.56875,7.90625 17.56875,17.56875 l 0,245.962515 z"
   style="fill:#ffffff;fill-opacity:1;fill-rule:nonzero;stroke:#000000;stroke-width:1.5;stroke-miterlimit:4;stroke-opacity:1;stroke-dasharray:none"
   id="path6430" /><path
   inkscape:connector-curvature="0"
   d="m 263.27088,5.144345 -245.962505,0 c -7.24625,0 -13.17625,5.92999 -13.17625,13.17624 l 0,245.962505 c 0,7.2475 5.93,13.17624 13.17625,13.17624 l 245.962505,0 c 7.24749,0 13.17625,-5.92874 13.17625,-13.17624 l 0,-245.962505 c 0,-7.24625 -5.92876,-13.17624 -13.17625,-13.17624 m 5.85624,259.138745 c 0,3.22125 -2.635,5.85625 -5.85624,5.85625 l -245.962505,0 c -3.22125,0 -5.85625,-2.635 -5.85625,-5.85625 l 0,-245.962505 c 0,-3.22 2.635,-5.85624 5.85625,-5.85624 l 245.962505,0 c 3.22124,0 5.85624,2.63624 5.85624,5.85624 l 0,245.962505 z"
   style="fill:#000000;fill-opacity:1;fill-rule:nonzero;stroke:none"
   id="path6438" /><path
   inkscape:connector-curvature="0"
   d="m 123.78961,123.73338 -26.86125,-47.578775 0,47.578765 -11.13875,0 0,-70.275025 11.13875,0 25.6125,44.87125 0,-44.87125 11.035,0 0,70.275025 -9.78625,0 z"
   style="fill:#000000;fill-opacity:1;fill-rule:nonzero;stroke:none"
   id="path6442" /><path
   inkscape:connector-curvature="0"
   d="m 191.14812,117.07026 c -4.06,5.31 -9.57875,7.9125 -16.97,7.9125 -9.89125,0 -15.92875,-3.95625 -20.1975,-12.5975 -2.915,-5.93375 -4.9975,-15.303775 -4.9975,-23.633785 0,-11.66 2.915,-22.07124 7.70376,-28.63 4.06125,-5.51749 9.89125,-7.9125 18.01124,-7.9125 19.46875,0 24.15375,20.8225 24.15375,36.5425 0,11.03625 -2.81,22.072535 -7.70375,28.318775 m -16.45,-53.512515 c -6.24625,0 -9.16125,2.49875 -11.66,8.64124 -1.66624,4.16376 -2.70625,10.61875 -2.70625,16.5525 0,7.39251 1.56125,14.992535 4.2675,19.468775 2.18625,3.645 5.1025,5.41375 9.57875,5.41375 5.205,0 8.4325,-2.70625 10.8275,-8.84874 1.4575,-3.74876 2.70625,-10.618785 2.70625,-16.033775 0,-8.12 -1.76875,-25.19375 -13.01375,-25.19375"
   style="fill:#000000;fill-opacity:1;fill-rule:nonzero;stroke:none"
   id="path6446" /><path
   inkscape:connector-curvature="0"
   d="m 47.995878,178.82696 0,50.31624 -9.2825,0 0,-50.31624 -13.36,0 0,-8.24125 36.176252,0 0,8.24125 -13.533752,0 z"
   style="fill:#000000;fill-opacity:1;fill-rule:nonzero;stroke:none"
   id="path6450" /><path
   inkscape:connector-curvature="0"
   d="m 105.3385,220.29472 c -3.03625,5.8125 -10.06375,9.89001 -17.26375,9.89001 -7.2,0 -14.31375,-4.0775 -17.26375,-9.89 -1.735,-3.3825 -2.69,-7.5475 -2.69,-12.145 l 0,-37.56375 9.2825,0 0,37.56375 c 0,7.63374 4.25125,12.57874 10.67125,12.57874 6.3325,0 10.67,-4.94498 10.67,-12.57875 l 0,-37.56375 9.19625,0 0,37.56375 c 0,4.59748 -0.8675,8.76249 -2.6025,12.145"
   style="fill:#000000;fill-opacity:1;fill-rule:nonzero;stroke:none"
   id="path6454" /><path
   inkscape:connector-curvature="0"
   d="m 146.97937,229.14357 -9.45625,-25.50496 -11.0175,0 0,25.50497 -9.2825,0 0,-58.5575 21.255,0 c 13.44625,0 17.35,10.75626 17.35,16.39502 0,6.24751 -3.64375,12.40625 -9.0225,14.83501 l 10.2375,27.32749 -10.06375,0 z m -8.155,-49.27499 -12.31875,0 0,14.31375 12.2325,0 c 4.51125,0 7.89375,-3.21 7.89375,-7.20124 0,-3.81624 -3.29624,-7.11251 -7.8075,-7.11251"
   style="fill:#000000;fill-opacity:1;fill-rule:nonzero;stroke:none"
   id="path6458" /><path
   inkscape:connector-curvature="0"
   d="m 196.51488,229.14357 -22.3825,-39.64625 0,39.64625 -9.2825,0 0,-58.5575 9.2825,0 21.34125,37.39001 0,-37.39 9.19625,0 0,58.5575 -8.155,0 z"
   style="fill:#000000;fill-opacity:1;fill-rule:nonzero;stroke:none"
   id="path6462" /><path
   inkscape:connector-curvature="0"
   d="m 233.81812,230.18473 c -10.06375,0 -17.4375,-5.98626 -21.34125,-14.83502 l 8.84875,-3.29624 c 2.42875,5.5525 6.94,8.675 12.4925,8.675 5.37875,0 9.02251,-3.72998 9.02251,-8.675 0,-7.80752 -9.02251,-9.02252 -16.65625,-12.05874 -3.47,-1.47501 -11.27876,-4.945 -11.27876,-14.575 0,-11.53751 7.80876,-15.875 18.30501,-15.875 8.24125,0 13.79374,4.77127 16.65625,11.97125 l -8.24125,2.43 c -0.86751,-2.60373 -4.5975,-5.11875 -8.76126,-5.11875 -4.42499,0 -9.28249,1.3875 -8.93624,6.76626 0.8675,10.845 28.36874,3.73124 28.36874,26.72 0,10.67124 -7.98124,17.87125 -18.47875,17.87125"
   style="fill:#000000;fill-opacity:1;fill-rule:nonzero;stroke:none"
   id="path6466" /></svg>