<?xml version="1.0" encoding="UTF-8" standalone="no"?>
<svg
   xmlns:dc="http://purl.org/dc/elements/1.1/"
   xmlns:cc="http://creativecommons.org/ns#"
   xmlns:rdf="http://www.w3.org/1999/02/22-rdf-syntax-ns#"
   xmlns:svg="http://www.w3.org/2000/svg"
   xmlns="http://www.w3.org/2000/svg"
   version="1.1"
   width="301.43332"
   height="301.43332"
   viewBox="0 0 282.59375 282.59375"
   enable-background="new -1 0 289 288"
   xml:space="preserve"
   id="svg2">

<path
   d="m 280.83975,264.26949 c 0,9.66251 -7.90625,17.56876 -17.56875,17.56876 H 17.3085 c -9.6625,0 -17.56875,-7.90625 -17.56875,-17.56876 V 18.306965 c 0,-9.6625 7.90625,-17.56874 17.56875,-17.56874 H 263.271 c 9.6625,0 17.56875,7.90624 17.56875,17.56874 z"
   style="fill:#ffffff;fill-opacity:1;fill-rule:nonzero;stroke:#000000;stroke-width:1.5;stroke-miterlimit:4;stroke-dasharray:none;stroke-opacity:1"
   id="path3830" /><path
   d="M 263.27088,5.130465 H 17.308375 c -7.24625,0 -13.17625,5.93 -13.17625,13.17625 V 264.26922 c 0,7.2475 5.93,13.17625 13.17625,13.17625 H 263.27088 c 7.24749,0 13.17625,-5.92875 13.17625,-13.17625 V 18.306725 c 0,-7.24626 -5.92876,-13.17626 -13.17625,-13.17626 m 5.85624,259.138755 c 0,3.22125 -2.635,5.85625 -5.85624,5.85625 H 17.308375 c -3.22125,0 -5.85625,-2.635 -5.85625,-5.85625 V 18.306725 c 0,-3.22 2.635,-5.85625 5.85625,-5.85625 H 263.27088 c 3.22124,0 5.85624,2.63625 5.85624,5.85625 z"
   style="fill:#000000;fill-opacity:1;fill-rule:nonzero;stroke:none"
   id="path3838" /><path
   d="m 140.28987,56.37272 c -32.34375,0 -58.5625,26.21875 -58.5625,58.56253 v 37.33374 l -17.29125,-5.18875 c -0.55,-0.17125 -1.135,-0.26375 -1.74125,-0.26375 -3.23375,0 -5.85625,2.6225 -5.85625,5.85625 0,1.2475 0.39,2.405 1.055,3.35498 l 38.47375,55.535 38.475,-55.535 c 0.665,-0.94999 1.055,-2.10624 1.055,-3.35498 0,-3.23375 -2.62125,-5.85625 -5.85625,-5.85625 -0.60625,0 -1.19125,0.0925 -1.74125,0.26375 l -17.29125,5.18875 v -37.33375 c 0,-16.17127 13.11,-29.28127 29.28125,-29.28127 16.17125,0 29.28125,13.11 29.28125,29.28127 v 96.62748 h 29.28125 v -96.62748 c 0,-32.34377 -26.21875,-58.56252 -58.5625,-58.56252"
   style="fill:#000000;fill-opacity:1;fill-rule:nonzero;stroke:none"
   id="path3842" /><path
   d="m 140.28987,18.306975 c -67.92124,0 -122.981245,55.059995 -122.981245,122.981275 0,67.92 55.060005,122.98124 122.981245,122.98124 67.92125,0 122.98125,-55.06125 122.98125,-122.98124 0,-67.92128 -55.06,-122.981275 -122.98125,-122.981275 M 40.733625,141.28825 c 0,-23.27126 7.985,-44.67628 21.363755,-61.62878 l 139.82125,139.82128 c -16.95126,13.37871 -38.35751,21.36374 -61.62876,21.36374 -54.98375,0 -99.556245,-44.5725 -99.556245,-99.55624 M 218.48238,202.917 78.66112,63.09572 c 16.95251,-13.37875 38.35751,-21.36375 61.62875,-21.36375 54.98375,0 99.55626,44.5725 99.55626,99.55628 0,23.27123 -7.985,44.67623 -21.36376,61.62871"
   style="fill:#bf2033;fill-opacity:1;fill-rule:nonzero;stroke:none"
   id="path3846" /></svg>
