<?xml version="1.0" encoding="utf-8"?>
<!-- Generator: Adobe Illustrator 12.0.1, SVG Export Plug-In  -->
<!DOCTYPE svg PUBLIC "-//W3C//DTD SVG 1.1//EN" "http://www.w3.org/Graphics/SVG/1.1/DTD/svg11.dtd" [
	<!ENTITY ns_flows "http://ns.adobe.com/Flows/1.0/">
	<!ENTITY ns_svg "http://www.w3.org/2000/svg">
	<!ENTITY ns_xlink "http://www.w3.org/1999/xlink">
]>
<svg  version="1.1" xmlns="&ns_svg;" xmlns:xlink="&ns_xlink;" xmlns:a="http://ns.adobe.com/AdobeSVGViewerExtensions/3.0/"
	 width="216" height="288" viewBox="0 0 216 288" enable-background="new 0 0 216 288" xml:space="preserve">
<defs>
</defs>
<path fill="none" d="M195.215,4.631H108h-3.275H80.275H30.725h-9.947c-8.777,0-15.891,7.11-15.891,15.897v246.609
	c0,8.768,7.12,15.892,15.891,15.892h9.947h49.551h24.449H108h87.215c8.777,0,15.897-7.111,15.897-15.892V20.529
	C211.112,11.742,203.992,4.631,195.215,4.631z"/>
<path fill="#FFFFFF" d="M195.28,1.657H108h-3.275H80.275H30.725H20.707c-10.506,0-19.051,8.551-19.051,19.056v246.58
	c0,10.503,8.545,19.05,19.051,19.05h59.568h24.449H108h87.28c10.512,0,19.063-8.547,19.063-19.05V20.713
	C214.343,10.208,205.792,1.657,195.28,1.657z M211.112,267.138c0,8.78-7.12,15.892-15.897,15.892H20.777
	c-8.771,0-15.891-7.124-15.891-15.892V20.529c0-8.787,7.113-15.897,15.891-15.897h174.438c8.777,0,15.897,7.11,15.897,15.897
	V267.138z"/>
<path d="M195.28,0H20.707C9.289,0,0,9.292,0,20.713v246.58C0,278.711,9.289,288,20.707,288H195.28
	c11.424,0,20.72-9.289,20.72-20.707V20.713C216,9.292,206.704,0,195.28,0z M214.343,267.293c0,10.503-8.551,19.05-19.063,19.05
	H20.707c-10.506,0-19.051-8.547-19.051-19.05V20.713c0-10.505,8.545-19.056,19.051-19.056H195.28
	c10.512,0,19.063,8.551,19.063,19.056V267.293z"/>
<path d="M195.215,4.631H20.777c-8.777,0-15.891,7.11-15.891,15.897v246.609c0,8.768,7.12,15.892,15.891,15.892h174.438
	c8.777,0,15.897-7.111,15.897-15.892V20.529C211.112,11.742,203.992,4.631,195.215,4.631z M205.132,267.164
	c0,5.479-4.44,9.923-9.93,9.923H20.791c-5.489,0-9.924-4.438-9.924-9.923V20.542c0-5.492,4.447-9.93,9.924-9.93h174.411
	c5.489,0,9.93,4.438,9.93,9.93V267.164z"/>
<path fill="#FFFFFF" d="M195.202,10.612H20.791c-5.477,0-9.924,4.438-9.924,9.93v246.622c0,5.485,4.435,9.923,9.924,9.923h174.411
	c5.489,0,9.93-4.444,9.93-9.923V20.542C205.132,15.05,200.691,10.612,195.202,10.612z"/>
<path fill="#010101" d="M36.699,201.32v-23.953h3.432v20.771h8.759v3.182H36.699z"/>
<path fill="#010101" d="M53.476,201.32v-23.953h11.261v3.36h-7.829v6.042h4.969v3.289h-4.969v7.901h8.759v3.36H53.476z"/>
<path fill="#010101" d="M74.283,180.728v6.042h4.791v3.289h-4.791v11.262h-3.432v-23.953h12.191v3.36H74.283z"/>
<path fill="#010101" d="M93.598,180.549v20.771H90.13v-20.771h-4.361v-3.182h12.19v3.182H93.598z"/>
<path fill="#010101" d="M116.367,180.549v20.771h-3.469v-20.771h-4.361v-3.182h12.191v3.182H116.367z"/>
<path fill="#010101" d="M137.088,198.389c-1.18,1.931-3.432,3.36-5.719,3.36c-2.359,0-4.684-1.358-5.863-3.36
	c-0.68-1.287-0.93-2.288-0.93-4.219v-16.803h3.432v17.231c0,2.253,1.359,3.79,3.361,3.79c1.859,0,3.217-1.537,3.217-3.79v-17.231
	h3.432v16.803C138.018,196.101,137.768,197.102,137.088,198.389z"/>
<path fill="#010101" d="M154.65,201.32l-3.182-11.262h-3.289v11.262h-3.432v-23.953h7.15c3.754,0,6.291,2.538,6.291,6.399
	c0,2.86-1.18,4.934-3.432,5.792l3.432,11.762H154.65z M151.719,180.728h-3.539v6.042h3.539c2.002,0,3.111-1.072,3.111-3.003
	C154.83,181.907,153.578,180.728,151.719,180.728z"/>
<path fill="#010101" d="M175.154,201.32l-7.4-16.052v16.052h-3.434v-23.953h3.434l6.578,14.372v-14.372h3.432v23.953H175.154z"/>
<path fill="#010101" d="M51.757,233.188c-1.18,2.824-2.932,4.111-5.613,4.111c-2.86,0-4.54-1.287-5.72-4.111
	c-1.001-2.36-1.358-4.648-1.358-8.33c0-3.611,0.357-6.042,1.358-8.33c1.251-2.86,2.932-4.04,5.72-4.04
	c2.753,0,4.433,1.18,5.613,4.111c1.001,2.359,1.358,4.647,1.358,8.259C53.115,228.54,52.758,230.9,51.757,233.188z M49.076,218.888
	c-0.608-2.109-1.501-3.038-2.932-3.038c-1.537,0-2.467,0.929-3.039,2.967c-0.572,1.823-0.751,3.432-0.751,6.113
	c0,2.609,0.25,4.111,0.751,6.042c0.572,2.038,1.501,2.967,3.039,2.967c1.43,0,2.324-0.929,2.932-2.967
	c0.572-1.931,0.75-3.36,0.75-6.113C49.826,222.177,49.576,220.64,49.076,218.888z"/>
<path fill="#010101" d="M69.701,236.87l-7.4-16.052v16.052h-3.432v-23.952H62.3l6.578,14.371v-14.371h3.432v23.952H69.701z"/>
<path fill="#010101" d="M100.29,233.938c-0.929,2.074-2.86,3.361-5.291,3.361c-2.86,0-4.969-1.431-6.149-4.111
	c-0.751-1.788-1.251-5.148-1.251-8.259c0-3.36,0.25-5.792,1.108-8.079c0.822-2.503,3.253-4.362,6.042-4.362
	c3.432,0,6.042,2.539,6.22,6.078h-3.432c-0.107-1.609-1.18-2.717-2.86-2.717c-1.18,0-2.109,0.607-2.717,1.787
	c-0.644,1.18-1.073,3.861-1.073,6.721c0,2.002,0.179,4.111,0.5,5.971c0.5,2.323,1.68,3.61,3.54,3.61c1.751,0,2.609-1.18,2.609-3.718
	v-1.573H94.82v-3.36h6.149v4.934C100.969,231.901,100.79,232.938,100.29,233.938z"/>
<path fill="#010101" d="M117.104,236.87l-3.182-11.261h-3.289v11.261h-3.432v-23.952h7.151c3.752,0,6.291,2.538,6.291,6.399
	c0,2.859-1.18,4.933-3.432,5.791l3.432,11.762H117.104z M114.172,216.278h-3.539v6.042h3.539c2.002,0,3.109-1.073,3.109-3.003
	C117.281,217.458,116.031,216.278,114.172,216.278z"/>
<path fill="#010101" d="M126.773,236.87v-23.952h11.262v3.36h-7.83v6.042h4.969v3.289h-4.969v7.9h8.76v3.36H126.773z"/>
<path fill="#010101" d="M144.148,236.87v-23.952h11.262v3.36h-7.828v6.042h4.969v3.289h-4.969v7.9h8.758v3.36H144.148z"/>
<path fill="#010101" d="M172.559,236.87l-7.4-16.052v16.052h-3.434v-23.952h3.434l6.578,14.371v-14.371h3.432v23.952H172.559z"/>
<path fill="#010101" d="M31.332,272.821l-1.681-6.542h-5.148l-1.573,6.542h-3.468l5.97-23.953h3.36l5.97,23.953H31.332z
	 M27.042,256.019l-1.681,6.899h3.432L27.042,256.019z"/>
<path fill="#010101" d="M49.397,272.821l-3.182-11.262h-3.289v11.262h-3.432v-23.953h7.15c3.754,0,6.292,2.538,6.292,6.399
	c0,2.86-1.18,4.934-3.432,5.792l3.432,11.762H49.397z M46.466,252.229h-3.539v6.042h3.539c2.002,0,3.11-1.072,3.11-3.003
	C49.576,253.408,48.325,252.229,46.466,252.229z"/>
<path fill="#010101" d="M68.97,272.821l-3.182-11.262H62.5v11.262h-3.432v-23.953h7.15c3.754,0,6.292,2.538,6.292,6.399
	c0,2.86-1.18,4.934-3.432,5.792l3.432,11.762H68.97z M66.039,252.229H62.5v6.042h3.539c2.002,0,3.11-1.072,3.11-3.003
	C69.149,253.408,67.897,252.229,66.039,252.229z"/>
<path fill="#010101" d="M90.304,269.139c-1.18,2.824-2.932,4.111-5.613,4.111c-2.86,0-4.54-1.287-5.72-4.111
	c-1.001-2.359-1.358-4.647-1.358-8.33c0-3.61,0.357-6.041,1.358-8.329c1.251-2.86,2.932-4.04,5.72-4.04
	c2.753,0,4.433,1.18,5.613,4.111c1.001,2.359,1.358,4.647,1.358,8.258C91.662,264.491,91.305,266.851,90.304,269.139z
	 M87.623,254.839c-0.608-2.109-1.501-3.039-2.932-3.039c-1.537,0-2.467,0.93-3.039,2.968c-0.572,1.823-0.751,3.432-0.751,6.113
	c0,2.609,0.25,4.111,0.751,6.042c0.572,2.037,1.501,2.967,3.039,2.967c1.43,0,2.324-0.93,2.932-2.967
	c0.572-1.931,0.75-3.361,0.75-6.114C88.373,258.128,88.123,256.591,87.623,254.839z"/>
<path fill="#010101" d="M109.256,272.821h-2.931l-2.288-12.513l-2.252,12.513h-3.039l-3.79-23.953h3.36l2.038,12.763l2.324-12.763
	h2.717l2.252,12.763l2.11-12.763h3.359L109.256,272.821z"/>
<path fill="#010101" d="M139.635,269.139c-1.18,2.824-2.932,4.111-5.611,4.111c-2.861,0-4.541-1.287-5.721-4.111
	c-1.002-2.359-1.359-4.647-1.359-8.33c0-3.61,0.357-6.041,1.359-8.329c1.252-2.86,2.932-4.04,5.721-4.04
	c2.752,0,4.432,1.18,5.611,4.111c1.002,2.359,1.359,4.647,1.359,8.258C140.994,264.491,140.637,266.851,139.635,269.139z
	 M136.953,254.839c-0.607-2.109-1.5-3.039-2.93-3.039c-1.539,0-2.467,0.93-3.039,2.968c-0.572,1.823-0.752,3.432-0.752,6.113
	c0,2.609,0.25,4.111,0.752,6.042c0.572,2.037,1.5,2.967,3.039,2.967c1.43,0,2.322-0.93,2.93-2.967
	c0.572-1.931,0.752-3.361,0.752-6.114C137.705,258.128,137.455,256.591,136.953,254.839z"/>
<path fill="#010101" d="M157.777,272.821l-7.4-16.052v16.052h-3.432v-23.953h3.432l6.578,14.372v-14.372h3.432v23.953H157.777z"/>
<path fill="#010101" d="M167.316,272.821v-23.953h3.434v20.771h8.758v3.182H167.316z"/>
<path fill="#010101" d="M190.568,261.988v10.833h-3.434v-10.833l-5.898-13.12h3.611l4.039,8.651l3.969-8.651h3.682L190.568,261.988z
	"/>
<path fill-rule="evenodd" clip-rule="evenodd" fill="#BF2F37" d="M53.274,35.583c7.247-6.856,15.633-12.507,24.722-16.636
	c14.014-6.358,30.308-7.444,45.31-4.481c14.901,2.943,28.7,10.388,39.435,21.117c10.729,10.724,18.151,24.502,21.143,39.376
	c3.015,14.999,1.517,30.77-4.316,44.914c-5.795,14.062-15.756,26.239-28.395,34.712c-12.715,8.521-27.866,13.11-43.176,13.11
	c-15.309,0-30.454-4.585-43.169-13.11c-12.631-8.473-22.587-20.665-28.387-34.712c-5.818-14.091-7.343-29.764-4.331-44.707
	c1.969-9.787,5.78-19.57,11.499-27.836C46.482,43.171,49.582,39.067,53.274,35.583"/>
<path fill-rule="evenodd" clip-rule="evenodd" fill="#FFFFFF" d="M146.753,139.553L58.799,51.547
	c-3.166,4.486-6.387,9.136-8.498,14.237c-3.666,8.835-5.374,18.469-4.875,28.026c0.614,11.481,4.426,22.718,10.975,32.175
	c8.656,12.519,21.839,21.564,36.64,25.173c14.616,3.546,30.697,1.754,44.013-5.33C140.454,144.022,143.618,141.768,146.753,139.553"
	/>
<path fill-rule="evenodd" clip-rule="evenodd" fill="#FFFFFF" d="M157.209,129.018c3.164-4.474,6.38-9.102,8.479-14.201
	c2.237-5.411,3.739-11.13,4.458-16.945c1.398-11.35-0.363-23.001-5.092-33.42c-6.222-13.737-17.451-24.979-31.196-31.19
	c-17.272-7.814-38.142-7.377-54.916,1.564c-3.394,1.812-6.553,4.076-9.695,6.284L157.209,129.018"/>
<path fill-rule="evenodd" clip-rule="evenodd" d="M144.843,116.658l-18.44-18.425V73.736c0-4.863-1.969-9.58-5.416-13.017
	c-4.21-4.208-10.308-6.168-16.178-5.145c-3.634,0.634-7.047,2.398-9.703,4.955c-1.104,1.067-1.982,2.297-2.856,3.573L79.038,50.899
	c1.43-1.622,2.876-3.266,4.474-4.734c2.478-2.271,5.324-4.128,8.349-5.586c5.017-2.41,10.538-3.699,16.106-3.699
	c9.72,0.007,19.193,3.927,26.064,10.801c6.874,6.863,10.812,16.342,10.812,26.055V116.658"/>
<path fill-rule="evenodd" clip-rule="evenodd" d="M100.867,93.643l4.287,4.287c-0.086,0.269-0.158,0.533-0.261,0.788
	c-0.089,0.216-0.224,0.414-0.357,0.601l-24.264,35.208l-24.33-35.304c-0.375-0.547-0.526-1.341-0.507-2.009
	c0.051-1.745,1.15-3.196,2.907-3.552c0.595-0.125,1.22-0.091,1.795,0.082l10.857,3.326l0.05-23.333
	c0.01-1.502,0.105-3.016,0.278-4.503c0.188-1.475,0.478-2.913,0.809-4.357L89.54,82.3V97.17l10.794-3.427
	c0.067-0.024,0.192-0.038,0.247-0.053C100.675,93.672,100.771,93.657,100.867,93.643"/>
<polyline fill-rule="evenodd" clip-rule="evenodd" points="141.731,134.526 126.402,134.526 126.402,119.186 141.731,134.526 "/>
</svg>
