<?xml version="1.0" encoding="UTF-8" standalone="no"?>
<!-- Created with Inkscape (http://www.inkscape.org/) -->

<svg
   xmlns:dc="http://purl.org/dc/elements/1.1/"
   xmlns:cc="http://creativecommons.org/ns#"
   xmlns:rdf="http://www.w3.org/1999/02/22-rdf-syntax-ns#"
   xmlns:svg="http://www.w3.org/2000/svg"
   xmlns="http://www.w3.org/2000/svg"
   xmlns:sodipodi="http://sodipodi.sourceforge.net/DTD/sodipodi-0.dtd"
   xmlns:inkscape="http://www.inkscape.org/namespaces/inkscape"
   width="817.53003"
   height="817.53101"
   id="svg2"
   sodipodi:version="0.32"
   inkscape:version="0.48.2 r9819"
   version="1.0"
   sodipodi:docname="AJAX1.svg"
   inkscape:output_extension="org.inkscape.output.svg.inkscape"
   sodipodi:modified="true">
  <defs
     id="defs4" />
  <sodipodi:namedview
     id="base"
     pagecolor="#ffffff"
     bordercolor="#666666"
     borderopacity="1.0"
     gridtolerance="10000"
     guidetolerance="10"
     objecttolerance="10"
     inkscape:pageopacity="0.0"
     inkscape:pageshadow="2"
     inkscape:zoom="0.59067514"
     inkscape:cx="155.45999"
     inkscape:cy="470.58529"
     inkscape:document-units="px"
     inkscape:current-layer="layer1"
     width="600px"
     height="600px"
     units="px"
     inkscape:window-width="792"
     inkscape:window-height="590"
     inkscape:window-x="312"
     inkscape:window-y="54"
     showgrid="false"
     inkscape:window-maximized="0" />
  <metadata
     id="metadata7">
    <rdf:RDF>
      <cc:Work
         rdf:about="">
        <dc:format>image/svg+xml</dc:format>
        <dc:type
           rdf:resource="http://purl.org/dc/dcmitype/StillImage" />
      </cc:Work>
    </rdf:RDF>
  </metadata>
  <g
     inkscape:label="Layer 1"
     inkscape:groupmode="layer"
     id="layer1">
    <path
       transform="matrix(0.707107,-0.707107,0.707107,0.707107,0,0)"
       style="color:black;fill:#ffd033;fill-opacity:1;fill-rule:nonzero;stroke:none;stroke-width:0.87354410000000005;stroke-linecap:butt;stroke-linejoin:miter;stroke-miterlimit:4;stroke-dashoffset:0;stroke-opacity:1;marker:none;marker-start:none;marker-mid:none;marker-end:none;visibility:visible;display:inline;overflow:visible"
       d="M -262.50039,278.08163 L 262.49977,278.08163 C 283.27478,278.08163 299.99979,294.80664 299.99979,315.58165 L 299.99979,840.58181 C 299.99979,861.35681 283.27478,878.08182 262.49977,878.08182 L -262.50039,878.08182 C -283.27539,878.08182 -300.0004,861.35681 -300.0004,840.58181 L -300.0004,315.58165 C -300.0004,294.80664 -283.27539,278.08163 -262.50039,278.08163 z "
       id="rect2777" />
    <path
       transform="matrix(0.707107,-0.707107,0.707107,0.707107,0,0)"
       style="color:black;fill:#000000;fill-opacity:1;fill-rule:nonzero;stroke:none;stroke-width:0.87354410000000005;stroke-linecap:butt;stroke-linejoin:miter;stroke-miterlimit:4;stroke-dashoffset:0;stroke-opacity:1;marker:none;marker-start:none;marker-mid:none;marker-end:none;visibility:visible;display:inline;overflow:visible"
       d="M -262.51244,287.45663 L 262.48772,287.45663 C 278.06898,287.45663 290.61273,300.00039 290.61273,315.58164 L 290.61273,840.58181 C 290.61273,856.16306 278.06898,868.70682 262.48772,868.70682 L -262.51244,868.70682 C -278.0937,868.70682 -290.63745,856.16306 -290.63745,840.58181 L -290.63745,315.58164 C -290.63745,300.00039 -278.0937,287.45663 -262.51244,287.45663 z "
       id="rect4551" />
    <path
       style="color:black;fill:#ffd033;fill-opacity:1;fill-rule:nonzero;stroke:none;stroke-width:0.87354410000000005;stroke-linecap:butt;stroke-linejoin:miter;stroke-miterlimit:4;stroke-dashoffset:0;stroke-opacity:1;marker:none;marker-start:none;marker-mid:none;marker-end:none;visibility:visible;display:inline;overflow:visible"
       d="M -262.53253,303.08163 L 262.46765,303.08163 C 269.39265,303.08163 274.96765,308.65664 274.96765,315.58164 L 274.96765,840.58181 C 274.96765,847.50682 269.39265,853.08182 262.46765,853.08182 L -262.53253,853.08182 C -269.45753,853.08182 -275.03253,847.50682 -275.03253,840.58181 L -275.03253,315.58164 C -275.03253,308.65664 -269.45753,303.08163 -262.53253,303.08163 z "
       id="rect5438"
       transform="matrix(0.707107,-0.707107,0.707107,0.707107,0,0)" />
    <path
       style="font-size:110.65194702000001000px;font-style:normal;font-weight:normal;text-align:center;text-anchor:middle;fill:#000000;fill-opacity:1;stroke:none;stroke-width:1px;stroke-linecap:butt;stroke-linejoin:miter;stroke-opacity:1;font-family:Roadgeek 2005 Series D"
       d="M 313.42274,299.04129 L 285.09584,248.80531 L 285.09584,299.04129 L 273.36674,299.04129 L 273.36674,224.90449 L 285.09584,224.90449 L 312.09492,272.26352 L 312.09492,224.90449 L 323.82402,224.90449 L 323.82402,299.04129 L 313.42274,299.04129 M 392.45417,262.08354 C 392.45411,267.98501 391.75331,273.62825 390.35178,279.01329 C 388.95013,284.39836 386.9584,288.75067 384.37657,292.07022 C 380.24552,297.60282 374.27032,300.36911 366.45096,300.36911 C 361.2134,300.36911 356.89798,299.29948 353.50468,297.16021 C 350.11134,295.02094 347.30816,291.6645 345.09513,287.09088 C 343.54599,283.91887 342.29194,280.08294 341.33297,275.58308 C 340.37398,271.00949 339.89448,266.50965 339.89449,262.08354 C 339.89448,255.96084 340.59528,250.28071 341.99688,245.04314 C 343.47223,239.80567 345.46396,235.41648 347.97208,231.87556 C 350.1851,229.07245 352.80386,227.00694 355.82837,225.67905 C 358.9266,224.27753 362.61499,223.57674 366.89357,223.57666 C 371.61468,223.57674 375.63503,224.64637 378.95463,226.78557 C 382.27414,228.92491 385.1142,232.28135 387.47483,236.8549 C 389.0239,240.17451 390.24107,244.04733 391.12634,248.47335 C 392.0115,252.89947 392.45411,257.4362 392.45417,262.08354 M 380.72506,262.08354 C 380.72501,257.87881 380.35617,254.00599 379.61854,250.46509 C 378.88081,246.85051 377.7743,243.78914 376.29898,241.28097 C 375.11865,239.36307 373.75395,237.96148 372.20486,237.0762 C 370.72946,236.19105 368.88527,235.67467 366.67226,235.52707 C 363.79528,235.3796 361.39782,236.04351 359.47989,237.51881 C 357.56189,238.99423 355.97588,241.39168 354.72185,244.71118 C 353.76285,246.92428 353.02517,249.6168 352.50881,252.78878 C 352.06619,255.88707 351.84488,258.98533 351.8449,262.08354 C 351.84488,266.06704 352.21372,269.90297 352.95142,273.59134 C 353.68908,277.27976 354.7956,280.30425 356.27098,282.6648 C 357.45124,284.58278 358.85283,286.02126 360.47575,286.98023 C 362.09862,287.93922 364.09035,288.41871 366.45096,288.4187 C 369.18034,288.41871 371.43026,287.68104 373.20073,286.20566 C 375.04488,284.73032 376.59401,282.33286 377.84811,279.01329 C 378.2169,278.05433 378.58574,276.91092 378.95463,275.58308 C 379.32342,274.18151 379.61849,272.74304 379.83984,271.26765 C 380.13487,269.71855 380.35617,268.16943 380.50376,266.62027 C 380.65124,265.07118 380.72501,263.55893 380.72506,262.08354 M 431.00253,235.30577 L 431.00253,299.04129 L 419.27342,299.04129 L 419.27342,235.30577 L 402.34367,235.30577 L 402.34367,224.90449 L 448.15358,224.90449 L 448.15358,235.30577 L 431.00253,235.30577 M 527.14005,299.04129 L 519.83702,278.23872 L 496.71077,278.23872 L 489.40774,299.04129 L 476.90407,299.04129 L 502.46467,224.90449 L 514.08312,224.90449 L 539.64372,299.04129 L 527.14005,299.04129 M 508.43987,245.48575 L 500.80489,266.28831 L 515.63225,266.28831 L 508.43987,245.48575 M 209.37447,373.6207 L 209.37447,437.35622 L 197.64536,437.35622 L 197.64536,373.6207 L 180.71561,373.6207 L 180.71561,363.21942 L 226.52552,363.21942 L 226.52552,373.6207 L 209.37447,373.6207 M 276.11142,437.35622 L 276.11142,405.04586 L 249.11235,405.04586 L 249.11235,437.35622 L 237.38324,437.35622 L 237.38324,363.21942 L 249.11235,363.21942 L 249.11235,393.09545 L 276.11142,393.09545 L 276.11142,363.21942 L 287.84053,363.21942 L 287.84053,437.35622 L 276.11142,437.35622 M 343.19244,437.35622 L 331.24203,405.04586 L 317.18923,405.04586 L 317.18923,437.35622 L 305.46013,437.35622 L 305.46013,363.21942 L 329.91421,363.21942 C 332.79112,363.21949 335.26235,363.40391 337.32789,363.77268 C 339.39335,364.06782 341.3482,364.65797 343.19244,365.54311 C 344.81529,366.35463 346.29065,367.42426 347.61852,368.75202 C 349.02006,370.00614 350.20035,371.4815 351.15938,373.17809 C 352.19208,374.80105 352.96664,376.57148 353.48307,378.48939 C 354.07316,380.33364 354.36823,382.17784 354.36829,384.02199 C 354.36823,386.01377 354.07316,387.96862 353.48307,389.88654 C 352.96664,391.73078 352.19208,393.50121 351.15938,395.19783 C 350.20035,396.82077 348.98318,398.29613 347.50787,399.62391 C 346.10623,400.95177 344.5571,401.98452 342.86049,402.72216 L 355.91742,437.35622 L 343.19244,437.35622 M 342.63918,384.02199 C 342.63914,382.47291 342.23341,380.99756 341.42201,379.59591 C 340.61052,378.19438 339.46712,377.08786 337.9918,376.27635 C 337.03278,375.76004 336.14756,375.42808 335.33615,375.28048 C 334.52467,375.05924 333.15996,374.94859 331.24203,374.94853 L 317.18923,374.94853 L 317.18923,393.09545 L 331.24203,393.09545 C 333.08619,393.09549 334.41402,393.02172 335.2255,392.87414 C 336.11068,392.72665 337.03278,392.39469 337.9918,391.87827 C 339.46712,391.06687 340.61052,389.96035 341.42201,388.55872 C 342.23341,387.08341 342.63914,385.57116 342.63918,384.02199 M 419.36074,400.39847 C 419.36068,406.29994 418.65988,411.94319 417.25835,417.32822 C 415.8567,422.7133 413.86497,427.0656 411.28314,430.38515 C 407.15209,435.91775 401.17689,438.68405 393.35753,438.68405 C 388.11997,438.68405 383.80455,437.61441 380.41125,435.47514 C 377.01791,433.33587 374.21473,429.97943 372.0017,425.40581 C 370.45256,422.23381 369.19851,418.39788 368.23954,413.89801 C 367.28055,409.32443 366.80105,404.82458 366.80106,400.39847 C 366.80105,394.27578 367.50185,388.59565 368.90345,383.35807 C 370.3788,378.12061 372.37053,373.73142 374.87865,370.19049 C 377.09167,367.38738 379.71044,365.32188 382.73494,363.99398 C 385.83317,362.59247 389.52156,361.89167 393.80014,361.8916 C 398.52125,361.89167 402.5416,362.96131 405.8612,365.1005 C 409.18071,367.23984 412.02077,370.59628 414.3814,375.16983 C 415.93047,378.48945 417.14764,382.36226 418.03291,386.78828 C 418.91807,391.21441 419.36068,395.75113 419.36074,400.39847 M 407.63163,400.39847 C 407.63158,396.19374 407.26274,392.32093 406.52511,388.78002 C 405.78738,385.16544 404.68087,382.10407 403.20555,379.59591 C 402.02522,377.678 400.66052,376.27641 399.11143,375.39113 C 397.63603,374.50598 395.79184,373.98961 393.57883,373.84201 C 390.70185,373.69453 388.30439,374.35845 386.38646,375.83374 C 384.46846,377.30916 382.88245,379.70662 381.62842,383.02612 C 380.66942,385.23921 379.93174,387.93174 379.41538,391.10371 C 378.97276,394.20201 378.75145,397.30026 378.75147,400.39847 C 378.75145,404.38198 379.12029,408.21791 379.85799,411.90628 C 380.59565,415.5947 381.70217,418.61918 383.17755,420.97974 C 384.35781,422.89772 385.7594,424.33619 387.38232,425.29516 C 389.00519,426.25416 390.99692,426.73365 393.35753,426.73364 C 396.08691,426.73365 398.33683,425.99597 400.1073,424.5206 C 401.95145,423.04525 403.50058,420.6478 404.75468,417.32822 C 405.12347,416.36926 405.49231,415.22586 405.8612,413.89801 C 406.22999,412.49644 406.52506,411.05797 406.74641,409.58259 C 407.04144,408.03349 407.26274,406.48436 407.41033,404.9352 C 407.55781,403.38611 407.63158,401.87387 407.63163,400.39847 M 486.236,410.79976 C 486.23595,413.67673 485.90399,416.40614 485.24014,418.988 C 484.64994,421.5699 483.83849,423.96735 482.80579,426.18038 C 481.84676,428.02459 480.5927,429.72125 479.04363,431.27037 C 477.49445,432.74573 475.7609,434.03667 473.84299,435.14319 C 471.92497,436.24971 469.85947,437.09804 467.64648,437.68818 C 465.50717,438.35209 463.29413,438.68405 461.00736,438.68405 C 458.72052,438.68405 456.4706,438.35209 454.25759,437.68818 C 452.1183,437.09804 450.08968,436.24971 448.17173,435.14319 C 446.25375,434.03667 444.48332,432.74573 442.86044,431.27037 C 441.3113,429.72125 440.05725,428.02459 439.09827,426.18038 C 438.06551,423.96735 437.25407,421.5699 436.66393,418.988 C 436.07378,416.40614 435.77871,413.67673 435.77872,410.79976 L 435.77872,363.21942 L 447.50782,363.21942 L 447.50782,410.79976 C 447.5078,415.66846 448.72497,419.54128 451.15934,422.41821 C 453.66742,425.29517 456.95009,426.73365 461.00736,426.73364 C 465.06456,426.73365 468.31035,425.29517 470.74473,422.41821 C 473.2528,419.54128 474.50685,415.66846 474.5069,410.79976 L 474.5069,363.21942 L 486.236,363.21942 L 486.236,410.79976 L 486.236,410.79976 M 552.76375,415.22583 C 552.76369,418.61918 552.17355,421.75432 550.99332,424.63125 C 549.81298,427.43444 548.19008,429.90567 546.12463,432.04493 C 544.05908,434.11044 541.58786,435.73333 538.71095,436.91362 C 535.83396,438.0939 532.69883,438.68405 529.30554,438.68405 C 523.69914,438.68405 519.16242,437.61441 515.69535,435.47514 C 512.22824,433.26211 509.38817,429.8319 507.17515,425.18451 C 505.62601,421.86497 504.40884,418.06592 503.52363,413.78736 C 502.71218,409.43508 502.30646,404.97212 502.30646,400.39847 C 502.30646,397.4478 502.49088,394.53396 502.85972,391.65697 C 503.30232,388.7063 503.85558,385.94 504.5195,383.35807 C 505.25717,380.70248 506.14239,378.26814 507.17515,376.05505 C 508.20789,373.7683 509.35129,371.81345 510.60536,370.19049 C 512.81838,367.46115 515.47402,365.39565 518.5723,363.99398 C 521.7443,362.59247 525.43269,361.89167 529.63749,361.8916 C 535.31759,361.89167 539.96496,363.18261 543.57964,365.76441 C 547.19422,368.27259 550.25558,372.44048 552.76375,378.26808 L 541.5879,382.69416 C 540.03873,379.44843 538.34207,377.16163 536.49791,375.83374 C 534.72744,374.50598 532.44064,373.84207 529.63749,373.84201 C 526.61298,373.84207 524.06798,374.54286 522.00251,375.94439 C 520.01075,377.34604 518.38786,379.70662 517.13382,383.02612 C 516.17482,385.23921 515.43714,387.93174 514.92079,391.10371 C 514.47816,394.20201 514.25685,397.30026 514.25687,400.39847 C 514.25685,404.38198 514.55193,408.18102 515.14209,411.79562 C 515.80598,415.41028 516.72808,418.39788 517.90839,420.75843 C 520.19517,424.74191 523.58849,426.73365 528.08837,426.73364 C 531.8505,426.73365 534.94875,425.66401 537.38313,423.52473 C 539.81743,421.38548 541.0346,418.61918 541.03464,415.22583 L 541.03464,412.12758 L 527.53511,412.12758 L 527.53511,400.39847 L 552.76375,400.39847 L 552.76375,415.22583 L 552.76375,415.22583 M 607.63504,437.35622 L 607.63504,405.04586 L 580.63597,405.04586 L 580.63597,437.35622 L 568.90686,437.35622 L 568.90686,363.21942 L 580.63597,363.21942 L 580.63597,393.09545 L 607.63504,393.09545 L 607.63504,363.21942 L 619.36415,363.21942 L 619.36415,437.35622 L 607.63504,437.35622 M 288.36699,554.31533 C 288.36694,557.70868 287.73991,560.84381 286.48591,563.72075 C 285.2318,566.59771 283.42449,569.10582 281.06396,571.24508 C 278.99842,573.08928 276.56407,574.52776 273.76093,575.56051 C 271.03148,576.51949 268.08077,576.99898 264.90878,576.99898 C 258.49094,576.99898 252.99523,575.30232 248.42164,571.90899 C 243.92178,568.4419 240.41781,563.8683 237.9097,558.18815 L 249.08555,554.09403 C 250.63466,557.63491 252.77393,560.36432 255.50336,562.28227 C 258.23275,564.12648 261.36789,565.04858 264.90878,565.04857 C 268.37584,565.04858 271.14214,564.01583 273.20767,561.95032 C 275.3469,559.81106 276.41654,557.1923 276.41658,554.09403 C 276.41654,551.65971 275.75263,549.66798 274.42485,548.11882 C 273.17075,546.56972 271.51097,545.27879 269.44551,544.246 C 267.37997,543.13952 265.09317,542.18054 262.58509,541.36905 C 260.15072,540.55764 257.71638,539.67243 255.28206,538.71341 C 254.17552,538.27084 252.81081,537.64381 251.18794,536.83232 C 249.56503,536.02092 247.97902,534.9144 246.4299,533.51277 C 244.95453,532.03745 243.6636,530.23014 242.55709,528.09082 C 241.52433,525.9516 241.00795,523.33284 241.00796,520.23453 C 241.00795,516.61996 241.59809,513.55859 242.77839,511.05042 C 243.95867,508.46861 245.54468,506.40311 247.53642,504.85391 C 249.60191,503.23109 252.03625,502.0508 254.83945,501.31305 C 257.71638,500.57544 260.81463,500.20661 264.13422,500.20653 C 269.37171,500.20661 273.72401,501.57131 277.19115,504.30065 C 280.73196,507.03014 283.42449,510.71853 285.26874,515.36585 L 274.86745,518.4641 C 274.27727,517.28387 273.50271,516.21424 272.54376,515.25519 C 271.73228,514.44381 270.58888,513.70613 269.11355,513.04216 C 267.71193,512.37831 265.97838,512.00947 263.91291,511.93564 C 262.58506,511.86193 261.18347,511.97258 259.70814,512.26759 C 258.30652,512.48896 257.05247,512.93157 255.94597,513.59542 C 254.83943,514.25939 253.95422,515.18149 253.29032,516.36171 C 252.62639,517.46829 252.36821,518.86988 252.51576,520.56649 C 252.66328,522.85335 253.65914,524.62378 255.50336,525.87778 C 257.34754,527.05812 259.59746,528.09087 262.25313,528.97604 C 264.90875,529.8613 267.74881,530.7834 270.77333,531.74233 C 273.87155,532.62759 276.71161,533.95542 279.29353,535.7258 C 281.87536,537.42251 284.01463,539.74619 285.71134,542.69688 C 287.48172,545.57386 288.36694,549.44667 288.36699,554.31533 M 322.944,511.93564 L 322.944,575.67116 L 311.21489,575.67116 L 311.21489,511.93564 L 294.28514,511.93564 L 294.28514,501.53435 L 340.09505,501.53435 L 340.09505,511.93564 L 322.944,511.93564 M 388.68508,575.67116 L 376.73467,543.36079 L 362.68187,543.36079 L 362.68187,575.67116 L 350.95277,575.67116 L 350.95277,501.53435 L 375.40685,501.53435 C 378.28376,501.53443 380.75499,501.71885 382.82053,502.08761 C 384.88599,502.38276 386.84084,502.9729 388.68508,503.85804 C 390.30793,504.66956 391.78329,505.7392 393.11116,507.06695 C 394.5127,508.32107 395.69298,509.79643 396.65202,511.49303 C 397.68472,513.11599 398.45928,514.88642 398.97571,516.80432 C 399.5658,518.64858 399.86087,520.49278 399.86093,522.33692 C 399.86087,524.32871 399.5658,526.28355 398.97571,528.20147 C 398.45928,530.04572 397.68472,531.81615 396.65202,533.51277 C 395.69298,535.1357 394.47581,536.61106 393.00051,537.93884 C 391.59887,539.2667 390.04974,540.29945 388.35313,541.0371 L 401.41006,575.67116 L 388.68508,575.67116 M 388.13182,522.33692 C 388.13178,520.78785 387.72605,519.31249 386.91465,517.91084 C 386.10316,516.50931 384.95976,515.40279 383.48444,514.59128 C 382.52542,514.07497 381.6402,513.74301 380.82879,513.59542 C 380.01731,513.37417 378.6526,513.26352 376.73467,513.26346 L 362.68187,513.26346 L 362.68187,531.41038 L 376.73467,531.41038 C 378.57883,531.41042 379.90666,531.33666 380.71814,531.18908 C 381.60332,531.04158 382.52542,530.70963 383.48444,530.19321 C 384.95976,529.38181 386.10316,528.27529 386.91465,526.87365 C 387.72605,525.39834 388.13178,523.8861 388.13182,522.33692 M 413.84284,575.67116 L 413.84284,501.53435 L 457.55036,501.53435 L 457.55036,513.26346 L 425.57195,513.26346 L 425.57195,531.41038 L 447.14908,531.41038 L 447.14908,543.36079 L 425.57195,543.36079 L 425.57195,563.72075 L 459.87405,563.72075 L 459.87405,575.67116 L 413.84284,575.67116 M 472.41058,575.67116 L 472.41058,501.53435 L 516.1181,501.53435 L 516.1181,513.26346 L 484.13968,513.26346 L 484.13968,531.41038 L 505.71681,531.41038 L 505.71681,543.36079 L 484.13968,543.36079 L 484.13968,563.72075 L 518.44179,563.72075 L 518.44179,575.67116 L 472.41058,575.67116 M 553.10869,511.93564 L 553.10869,575.67116 L 541.37958,575.67116 L 541.37958,511.93564 L 524.44983,511.93564 L 524.44983,501.53435 L 570.25974,501.53435 L 570.25974,511.93564 L 553.10869,511.93564"
       id="text9883" />
  </g>
</svg>
