<?xml version="1.0" encoding="utf-8"?>
<!-- Generator: Adobe Illustrator 12.0.1, SVG Export Plug-In  -->
<!DOCTYPE svg PUBLIC "-//W3C//DTD SVG 1.1//EN" "http://www.w3.org/Graphics/SVG/1.1/DTD/svg11.dtd" [
	<!ENTITY ns_flows "http://ns.adobe.com/Flows/1.0/">
	<!ENTITY ns_svg "http://www.w3.org/2000/svg">
	<!ENTITY ns_xlink "http://www.w3.org/1999/xlink">
]>
<svg  version="1.1" xmlns="&ns_svg;" xmlns:xlink="&ns_xlink;" xmlns:a="http://ns.adobe.com/AdobeSVGViewerExtensions/3.0/"
	 width="288" height="252" viewBox="0 -0.552 288 252" enable-background="new 0 -0.552 288 252" xml:space="preserve">
<defs>
</defs>
<path fill="#FFFFFF" d="M17.722,0.878h252.558c9.26,0,16.845,7.581,16.845,16.848v215.446c0,9.27-7.585,16.848-16.845,16.848H17.722
	c-9.267,0-16.845-7.578-16.845-16.848V17.726C0.877,8.459,8.455,0.878,17.722,0.878z"/>
<path fill="#231F20" d="M17.722,0C7.951,0,0,7.951,0,17.726v215.446c0,9.773,7.951,17.725,17.722,17.725h252.558
	c9.77,0,17.721-7.951,17.721-17.725V17.726C288,7.951,280.049,0,270.279,0H17.722z M1.755,233.172V17.726
	c0-8.808,7.162-15.971,15.967-15.971h252.558c8.804,0,15.966,7.163,15.966,15.971v215.446c0,8.808-7.162,15.97-15.966,15.97H17.722
	C8.917,249.142,1.755,241.979,1.755,233.172z"/>
<path fill-rule="evenodd" clip-rule="evenodd" fill="#231F20" d="M18.619,5.258h250.755c7.359,0,13.365,6.015,13.365,13.369v213.646
	c0,7.349-6.006,13.365-13.365,13.365H18.619c-7.347,0-13.362-6.017-13.362-13.365V18.627C5.257,11.272,11.272,5.258,18.619,5.258"/>
<path fill-rule="evenodd" clip-rule="evenodd" fill="#FFFFFF" d="M18.674,11.995h250.651c3.676,0,6.682,3.003,6.682,6.676v213.551
	c0,3.675-3.006,6.681-6.682,6.681H18.674c-3.673,0-6.683-3.006-6.683-6.681V18.671C11.991,14.998,15.001,11.995,18.674,11.995"/>
<path fill="#221E1F" d="M94.095,62.86c-8.702,0-12.545-7.907-12.545-15.372c0-9.453,4.771-15.284,12.545-15.284
	c7.288,0,12.28,6.14,12.28,15.151C106.375,56.632,101.604,62.86,94.095,62.86z M94.095,37.505c-4.461,0-7.156,3.754-7.156,9.983
	c0,6.316,2.695,10.071,7.156,10.071c5.61,0,6.979-5.521,6.979-10.071C101.074,41.26,98.556,37.505,94.095,37.505z"/>
<path fill="#221E1F" d="M133.761,61.093c-1.458,0.839-3.048,1.237-4.594,1.237h-14.842V32.735h13.826c2.562,0,3.534,0.221,5.08,1.06
	c2.474,1.414,4.064,3.931,4.064,6.714c0,2.385-0.972,4.461-2.916,6.14c2.562,1.855,3.843,4.152,3.843,6.979
	C138.222,56.632,136.455,59.636,133.761,61.093z M128.151,38.035h-8.437v5.919h8.437c2.253,0,3.843-1.237,3.843-3.004
	S130.536,38.035,128.151,38.035z M128.151,49.255h-8.437v7.774h8.437c2.783,0,4.771-1.546,4.771-3.754
	C132.921,51.022,130.845,49.255,128.151,49.255z"/>
<path fill="#221E1F" d="M145.244,62.33V32.735h21.602v5.3h-16.211v5.478h8.834v5.433h-8.834v8.083h16.74v5.301H145.244z"/>
<path fill="#221E1F" d="M189.461,50.271V62.33h-5.301V50.271l-12.457-17.536h6.537l8.615,12.059l8.525-12.059h6.537L189.461,50.271z
	"/>
<path fill="#221E1F" d="M76.083,110.221h-4.152l-4.683-18.994l-4.55,18.994h-4.152l-4.373-29.595h4.771l2.297,15.593l3.755-15.593
	h4.549l3.843,15.593l2.297-15.593h4.771L76.083,110.221z"/>
<path fill="#221E1F" d="M103.381,110.221l-2.916-8.304h-9.232l-2.916,8.304h-4.991l10.204-29.595h4.638l10.204,29.595H103.381z
	 M95.916,88.842l-3.048,8.304h5.919L95.916,88.842z"/>
<path fill="#221E1F" d="M129,110.221l-4.771-12.898h-5.61v12.898h-4.682V80.626h9.762c2.297,0,3.843,0.221,5.301,0.927
	c2.606,1.237,4.461,4.373,4.461,7.377c0,3.136-1.855,6.228-4.594,7.465l5.212,13.826H129z M126.924,85.838
	c-0.795-0.441-1.148-0.53-2.695-0.53h-5.61v7.244h5.61c1.458,0,1.944-0.088,2.695-0.486c1.148-0.663,1.855-1.899,1.855-3.136
	S128.073,86.457,126.924,85.838z"/>
<path fill="#221E1F" d="M156.166,110.221l-11.309-20.054v20.054h-4.682V80.626h4.682l10.778,18.906V80.626h4.684v29.595H156.166z"/>
<path fill="#221E1F" d="M168.49,110.221V80.626h4.77v29.595H168.49z"/>
<path fill="#221E1F" d="M197.422,110.221l-11.309-20.054v20.054h-4.682V80.626h4.682l10.777,18.906V80.626h4.684v29.595H197.422z"/>
<path fill="#221E1F" d="M219.904,110.751c-4.461,0-7.066-1.679-8.834-5.389c-1.236-2.606-1.943-6.272-1.943-9.895
	c0-4.771,1.324-9.453,3.313-12.059c1.768-2.165,4.24-3.313,7.598-3.313c4.551,0,7.244,1.899,9.232,6.538l-4.461,1.767
	c-1.238-2.562-2.518-3.534-4.771-3.534c-2.385,0-3.975,1.06-4.992,3.667c-0.75,1.767-1.148,4.461-1.148,6.935
	c0,3.136,0.531,6.228,1.459,8.127c0.928,1.634,2.297,2.385,4.063,2.385c3.004,0,5.17-1.899,5.17-4.594v-1.237h-5.391v-4.682h10.072
	v5.919C229.27,106.776,225.338,110.751,219.904,110.751z"/>
<path fill="#221E1F" d="M103.324,157.298c-1.635,1.457-3.932,2.297-6.449,2.297c-5.08,0-8.791-3.004-10.778-7.51l4.461-1.635
	c1.237,2.783,3.534,4.373,6.317,4.373c2.739,0,4.594-1.898,4.594-4.373c0-3.932-4.594-4.594-8.437-6.141
	c-1.767-0.705-5.698-2.473-5.698-7.375c0-5.787,3.932-7.996,9.232-7.996c4.152,0,6.979,2.385,8.437,6.051l-4.152,1.238
	c0,0-1.061-2.518-4.373-2.607c-0.133,0-0.221,0-0.31,0c-2.032,0-4.24,0.795-4.24,3.137c0,0.088,0,0.221,0,0.309
	c0.397,5.479,14.312,1.855,14.312,13.473C106.239,153.233,105.179,155.618,103.324,157.298z"/>
<path fill="#221E1F" d="M112.334,159.063v-29.596h4.771v29.596H112.334z"/>
<path fill="#221E1F" d="M135.436,159.595c-4.461,0-7.067-1.68-8.834-5.391c-1.237-2.605-1.943-6.271-1.943-9.895
	c0-4.77,1.325-9.451,3.313-12.059c1.767-2.164,4.24-3.313,7.597-3.313c4.55,0,7.245,1.898,9.232,6.537l-4.461,1.768
	c-1.237-2.563-2.518-3.533-4.771-3.533c-2.385,0-3.975,1.059-4.991,3.666c-0.751,1.766-1.148,4.461-1.148,6.934
	c0,3.137,0.53,6.229,1.458,8.129c0.928,1.635,2.297,2.385,4.064,2.385c3.004,0,5.168-1.898,5.168-4.594v-1.236h-5.389v-4.684H144.8
	v5.92C144.8,155.618,140.869,159.595,135.436,159.595z"/>
<path fill="#221E1F" d="M168.344,159.063l-11.309-20.055v20.055h-4.682v-29.596h4.682l10.779,18.906v-18.906h4.682v29.596H168.344z"
	/>
<path fill="#221E1F" d="M195.818,157.298c-1.635,1.457-3.932,2.297-6.449,2.297c-5.08,0-8.791-3.004-10.777-7.51l4.461-1.635
	c1.236,2.783,3.533,4.373,6.316,4.373c2.738,0,4.594-1.898,4.594-4.373c0-3.932-4.594-4.594-8.438-6.141
	c-1.766-0.705-5.697-2.473-5.697-7.375c0-5.787,3.932-7.996,9.232-7.996c4.152,0,6.979,2.385,8.436,6.051l-4.152,1.238
	c0,0-1.059-2.518-4.373-2.607c-0.131,0-0.221,0-0.309,0c-2.031,0-4.24,0.795-4.24,3.137c0,0.088,0,0.221,0,0.309
	c0.396,5.479,14.313,1.855,14.313,13.473C198.734,153.233,197.674,155.618,195.818,157.298z"/>
<path fill="#221E1F" d="M42.548,218.692c-6.255,0-9.965-5.248-9.965-11.078h4.983c0,2.969,1.484,6.096,4.982,6.096
	c2.756,0,4.982-2.492,4.982-5.354c0-2.016-0.742-3.498-2.862-5.143c-0.742-0.742,1.272,0.637-5.99-4.24
	c-2.862-1.961-4.346-4.717-4.346-7.844c0-5.09,3.975-9.225,9.064-9.225c5.036,0,8.852,3.871,9.011,9.225H47.53
	c-0.106-2.492-1.855-4.082-4.134-4.082c-2.333,0-4.188,1.748-4.188,4.082c0,1.748,0.742,2.756,3.339,4.24
	c6.838,3.975,9.859,7.844,9.859,12.986C52.407,214.081,48.007,218.692,42.548,218.692z"/>
<path fill="#221E1F" d="M69.899,187.259v30.797h-5.142v-30.797h-6.467v-4.717h18.075v4.717H69.899z"/>
<path fill="#221E1F" d="M98.734,218.056l-2.491-9.699H88.61l-2.332,9.699h-5.142l8.852-35.514h4.982l8.852,35.514H98.734z
	 M92.374,193.144l-2.491,10.23h5.088L92.374,193.144z"/>
<path fill="#221E1F" d="M120.201,187.259v30.797h-5.142v-30.797h-6.467v-4.717h18.075v4.717H120.201z"/>
<path fill="#221E1F" d="M134.194,218.056v-35.514h16.696v4.982h-11.608v8.959h7.368v4.875h-7.368v11.715h12.987v4.982H134.194z"/>
<path fill="#221E1F" d="M178.082,218.056v-35.514h5.09v30.797h12.986v4.717H178.082z"/>
<path fill="#221E1F" d="M218.633,218.056l-2.492-9.699h-7.633l-2.332,9.699h-5.141l8.852-35.514h4.982l8.852,35.514H218.633z
	 M212.271,193.144l-2.49,10.23h5.088L212.271,193.144z"/>
<path fill="#221E1F" d="M249.693,218.056h-4.348l-3.391-18.551l-3.34,18.551h-4.506l-5.619-35.514h4.982l3.021,18.924l3.445-18.924
	h4.029l3.34,18.924l3.127-18.924h4.982L249.693,218.056z"/>
</svg>
