<?xml version="1.0" encoding="UTF-8" standalone="no"?>
<!-- Created with Inkscape (http://www.inkscape.org/) -->

<svg
   xmlns:dc="http://purl.org/dc/elements/1.1/"
   xmlns:cc="http://creativecommons.org/ns#"
   xmlns:rdf="http://www.w3.org/1999/02/22-rdf-syntax-ns#"
   xmlns:svg="http://www.w3.org/2000/svg"
   xmlns="http://www.w3.org/2000/svg"
   xmlns:sodipodi="http://sodipodi.sourceforge.net/DTD/sodipodi-0.dtd"
   xmlns:inkscape="http://www.inkscape.org/namespaces/inkscape"
   width="2160"
   height="1080"
   id="svg2"
   version="1.1"
   inkscape:version="0.48.2 r9819"
   sodipodi:docname="AJAX1.svg">
  <defs
     id="defs4">
    <inkscape:perspective
       sodipodi:type="inkscape:persp3d"
       inkscape:vp_x="0 : 526.18109 : 1"
       inkscape:vp_y="0 : 1000 : 0"
       inkscape:vp_z="744.09448 : 526.18109 : 1"
       inkscape:persp3d-origin="372.04724 : 350.78739 : 1"
       id="perspective10" />
    <inkscape:perspective
       sodipodi:type="inkscape:persp3d"
       inkscape:vp_x="0 : 389.58661 : 1"
       inkscape:vp_y="0 : 1000 : 0"
       inkscape:vp_z="708.66144 : 389.58661 : 1"
       inkscape:persp3d-origin="354.33072 : 259.72441 : 1"
       id="perspective470" />
    <style
       type="text/css"
       id="style561">.str2 {stroke:black}
    .str0 {stroke:#1F1A17;stroke-width:0.0762}
    .str1 {stroke:black;stroke-width:1.214}
    .fil0 {fill:#00923F}
    .fil1 {fill:#1F1A17}
    .fil9 {fill:#838281}
    .fil4 {fill:#C2C1C1}
    .fil3 {fill:#DA251D}
    .fil6 {fill:#DEDEDD}
    .fil5 {fill:white}
    .fil8 {fill:black}
    .fil2 {fill:#DC3623}
    .fil7 {fill:#1F1A17;fill-rule:nonzero}</style>
    <sodipodi:namedview
       showgrid="false"
       pagecolor="#ffffff"
       inkscape:zoom="1.0000000"
       inkscape:window-y="32"
       inkscape:window-x="191"
       inkscape:window-width="808"
       inkscape:window-height="696"
       inkscape:pageshadow="2"
       inkscape:pageopacity="0.0"
       inkscape:cy="154.09689"
       inkscape:cx="155.32397"
       id="base-3"
       borderopacity="1.0"
       bordercolor="#666666" />
    <sodipodi:namedview
       showgrid="false"
       pagecolor="#ffffff"
       inkscape:zoom="1.0000000"
       inkscape:window-y="32"
       inkscape:window-x="191"
       inkscape:window-width="808"
       inkscape:window-height="696"
       inkscape:pageshadow="2"
       inkscape:pageopacity="0.0"
       inkscape:cy="154.09689"
       inkscape:cx="155.32397"
       id="namedview567"
       borderopacity="1.0"
       bordercolor="#666666" />
    <sodipodi:namedview
       inkscape:window-y="-4"
       inkscape:window-x="-4"
       inkscape:window-height="712"
       inkscape:window-width="1024"
       inkscape:current-layer="layer1"
       inkscape:document-units="px"
       inkscape:cy="343.05707"
       inkscape:cx="440.71565"
       inkscape:zoom="0.54140796"
       inkscape:pageshadow="2"
       inkscape:pageopacity="0.0"
       borderopacity="1.0"
       bordercolor="#666666"
       pagecolor="#ffffff"
       id="namedview568" />
    <inkscape:perspective
       sodipodi:type="inkscape:persp3d"
       inkscape:vp_x="0 : 0.5 : 1"
       inkscape:vp_y="0 : 1000 : 0"
       inkscape:vp_z="1 : 0.5 : 1"
       inkscape:persp3d-origin="0.5 : 0.33333333 : 1"
       id="perspective4457" />
    <inkscape:perspective
       sodipodi:type="inkscape:persp3d"
       inkscape:vp_x="0 : 0.5 : 1"
       inkscape:vp_y="0 : 1000 : 0"
       inkscape:vp_z="1 : 0.5 : 1"
       inkscape:persp3d-origin="0.5 : 0.33333333 : 1"
       id="perspective4391" />
    <inkscape:perspective
       sodipodi:type="inkscape:persp3d"
       inkscape:vp_x="0 : 0.5 : 1"
       inkscape:vp_y="0 : 1000 : 0"
       inkscape:vp_z="1 : 0.5 : 1"
       inkscape:persp3d-origin="0.5 : 0.33333333 : 1"
       id="perspective4377" />
    <inkscape:perspective
       sodipodi:type="inkscape:persp3d"
       inkscape:vp_x="0 : 0.5 : 1"
       inkscape:vp_y="0 : 1000 : 0"
       inkscape:vp_z="1 : 0.5 : 1"
       inkscape:persp3d-origin="0.5 : 0.33333333 : 1"
       id="perspective4046" />
    <style
       id="style6"
       type="text/css">
   
    .str0 {stroke:black;stroke-width:0.2646}
    .str1 {stroke:#D4AE05;stroke-width:0.3969}
    .fil4 {fill:none}
    .fil0 {fill:#005121}
    .fil2 {fill:#00722E}
    .fil1 {fill:#00923F}
    .fil5 {fill:#0A73B9}
    .fil3 {fill:white}
   
  </style>
    <inkscape:perspective
       id="perspective119"
       inkscape:persp3d-origin="380.90552 : 253.93701 : 1"
       inkscape:vp_z="761.81104 : 380.90552 : 1"
       inkscape:vp_y="0 : 1000 : 0"
       inkscape:vp_x="0 : 380.90552 : 1"
       sodipodi:type="inkscape:persp3d" />
    <inkscape:perspective
       id="perspective3141"
       inkscape:persp3d-origin="0.5 : 0.33333333 : 1"
       inkscape:vp_z="1 : 0.5 : 1"
       inkscape:vp_y="0 : 1000 : 0"
       inkscape:vp_x="0 : 0.5 : 1"
       sodipodi:type="inkscape:persp3d" />
    <inkscape:perspective
       id="perspective3536"
       inkscape:persp3d-origin="0.5 : 0.33333333 : 1"
       inkscape:vp_z="1 : 0.5 : 1"
       inkscape:vp_y="0 : 1000 : 0"
       inkscape:vp_x="0 : 0.5 : 1"
       sodipodi:type="inkscape:persp3d" />
    <inkscape:perspective
       id="perspective3829"
       inkscape:persp3d-origin="52.5 : 19.333333 : 1"
       inkscape:vp_z="105 : 29 : 1"
       inkscape:vp_y="0 : 1000 : 0"
       inkscape:vp_x="0 : 29 : 1"
       sodipodi:type="inkscape:persp3d" />
    <inkscape:perspective
       id="perspective7279"
       inkscape:persp3d-origin="0.5 : 0.33333333 : 1"
       inkscape:vp_z="1 : 0.5 : 1"
       inkscape:vp_y="0 : 1000 : 0"
       inkscape:vp_x="0 : 0.5 : 1"
       sodipodi:type="inkscape:persp3d" />
    <inkscape:perspective
       id="perspective9993"
       inkscape:persp3d-origin="177 : 215.66667 : 1"
       inkscape:vp_z="354 : 323.5 : 1"
       inkscape:vp_y="0 : 1000 : 0"
       inkscape:vp_x="0 : 323.5 : 1"
       sodipodi:type="inkscape:persp3d" />
    <clipPath
       id="Clip0">
      <path
         inkscape:connector-curvature="0"
         d="m 0,0 0,864.5 1728.5,0 L 1728.5,0 0,0 z"
         transform="translate(0,0.5)"
         id="path7" />
    </clipPath>
  </defs>
  <sodipodi:namedview
     id="base"
     pagecolor="#ffffff"
     bordercolor="#666666"
     borderopacity="1.0"
     inkscape:pageopacity="0.0"
     inkscape:pageshadow="2"
     inkscape:zoom="0.24748737"
     inkscape:cx="546.02665"
     inkscape:cy="170.23519"
     inkscape:document-units="px"
     inkscape:current-layer="layer1"
     showgrid="false"
     inkscape:window-width="1280"
     inkscape:window-height="1004"
     inkscape:window-x="-8"
     inkscape:window-y="-8"
     inkscape:window-maximized="1"
     showguides="true"
     inkscape:guide-bbox="true"
     fit-margin-top="0"
     fit-margin-left="0"
     fit-margin-right="0"
     fit-margin-bottom="0">
    <inkscape:grid
       type="xygrid"
       id="grid3542"
       empspacing="5"
       visible="true"
       enabled="true"
       snapvisiblegridlinesonly="true" />
  </sodipodi:namedview>
  <metadata
     id="metadata7">
    <rdf:RDF>
      <cc:Work
         rdf:about="">
        <dc:format>image/svg+xml</dc:format>
        <dc:type
           rdf:resource="http://purl.org/dc/dcmitype/StillImage" />
        <dc:title></dc:title>
      </cc:Work>
    </rdf:RDF>
  </metadata>
  <g
     inkscape:label="Layer 1"
     inkscape:groupmode="layer"
     id="layer1"
     transform="translate(1576.9322,417.84697)">
    <path
       inkscape:connector-curvature="0"
       style="fill:#ffd033;fill-rule:nonzero;stroke:none"
       d="m 583.0678,527.15303 c 0,74.5575 -60.4375,135 -135,135 l -1890,0 c -74.5594,0 -135,-60.4425 -135,-135 l 0,-810 c 0,-74.55938 60.4406,-135 135,-135 l 1890,0 c 74.5625,0 135,60.44062 135,135 l 0,810 z"
       id="path11" />
    <path
       inkscape:connector-curvature="0"
       style="fill:#000000;fill-rule:nonzero;stroke:none"
       d="m -1441.9322,628.40303 c -55.8301,0 -101.25,-45.42125 -101.25,-101.25 l 0,-810 c 0,-55.83013 45.4199,-101.25 101.25,-101.25 l 1890,0 c 55.825,0 101.25,45.41987 101.25,101.25 l 0,810 c 0,55.82875 -45.425,101.25 -101.25,101.25 l -1890,0 z"
       id="path13" />
    <path
       inkscape:connector-curvature="0"
       style="fill:#ffd033;fill-rule:nonzero;stroke:none"
       d="m -1441.9322,572.15303 c -24.8132,0 -45,-20.18625 -45,-45 l 0,-810 c 0,-24.81325 20.1868,-45 45,-45 l 1890,0 c 24.8125,0 45,20.18675 45,45 l 0,810 c 0,24.81375 -20.1875,45 -45,45 l -1890,0 z"
       id="path15" />
    <g
       transform="matrix(1.25,0,0,1.25,-1577.2447,-418.78447)"
       id="Background"
       style="fill:#000000;stroke:none">
      <g
         id="Group1"
         clip-path="url(#Clip0)"
         style="fill:#000000;stroke:none">
        <path
           inkscape:connector-curvature="0"
           style="fill:#000000;fill-rule:nonzero;stroke:none"
           d="M 63.532,39.221 C 59.562,27.852 52.755,22.736 42.544,22.736 l -19.286,0 0,116.526 19.286,0 c 13.614,0 20.988,-10.799 23.258,-23.305 1.134,-10.232 2.268,-21.6 2.268,-34.105 0,-18.19 -1.701,-35.811 -4.538,-42.631 z m 3.971,115.388 C 61.831,159.726 53.889,162 44.813,162 L 0,162 0,0 41.41,0 c 13.614,0 20.421,1.704 26.093,6.252 9.643,6.82 16.45,19.326 19.287,35.811 2.269,11.936 3.971,26.146 3.971,38.652 0,37.515 -7.375,61.39 -23.258,73.894 z"
           transform="translate(153.297,495.75)"
           id="path17" />
        <path
           inkscape:connector-curvature="0"
           style="fill:#000000;fill-rule:nonzero;stroke:none"
           d="M 0,162 0,0 l 76.389,0 0,22.736 -53.016,0 0,40.926 33.635,0 0,22.169 -33.635,0 0,53.431 59.287,0 0,22.738 L 0,162 z"
           transform="translate(401.238,495.75)"
           id="path19" />
        <path
           inkscape:connector-curvature="0"
           style="fill:#000000;fill-rule:nonzero;stroke:none"
           d="M 73.176,162.001 23.258,53.433 l 0,108.568 L 0,162.001 0,0 l 23.258,0 44.245,97.2 0,-97.2 23.257,0 0,162.001 -17.584,0 z"
           transform="translate(711.099,495.749)"
           id="path21" />
        <path
           inkscape:connector-curvature="0"
           style="fill:#000000;fill-rule:nonzero;stroke:none"
           d="M 68.137,43.201 C 64.129,28.99 57.831,22.738 48.097,22.738 c -10.306,0 -16.605,6.252 -20.613,19.895 -4.008,12.504 -5.153,23.305 -5.153,41.494 0,17.621 1.718,27.854 5.153,40.926 4.008,13.643 10.307,19.895 20.613,19.895 9.734,0 16.032,-6.252 20.04,-19.895 4.008,-13.072 5.154,-22.736 5.154,-41.494 0,-18.19 -1.719,-28.422 -5.154,-40.358 z m 18.322,96.631 c -8.016,19.326 -20.039,27.854 -38.362,27.854 -19.468,0 -30.919,-8.528 -38.935,-27.854 C 2.29,123.916 0,108.569 0,83.559 0,59.116 2.29,42.633 9.162,27.285 17.75,7.959 29.202,0 48.097,0 c 18.895,0 30.346,7.959 38.362,27.854 6.872,15.916 9.162,31.262 9.162,55.705 0,25.01 -2.29,40.926 -9.162,56.273 z"
           transform="translate(273.217,492.906)"
           id="path23" />
        <path
           inkscape:connector-curvature="0"
           style="fill:#000000;fill-rule:nonzero;stroke:none"
           d="M 68.136,43.201 C 64.129,28.99 57.83,22.738 48.097,22.738 c -10.306,0 -16.605,6.252 -20.613,19.895 -4.01,12.504 -5.154,23.305 -5.154,41.494 0,17.621 1.719,27.854 5.154,40.926 4.008,13.643 10.307,19.895 20.613,19.895 9.733,0 16.032,-6.252 20.039,-19.895 4.008,-13.072 5.155,-22.736 5.155,-41.494 0,-18.19 -1.719,-28.422 -5.155,-40.358 z m 18.323,96.631 c -8.016,19.326 -20.039,27.854 -38.362,27.854 -19.468,0 -30.919,-8.528 -38.935,-27.854 C 2.289,123.916 0,108.569 0,83.559 0,59.116 2.289,42.633 9.162,27.285 17.75,7.959 29.201,0 48.097,0 c 18.895,0 30.346,7.959 38.362,27.854 6.871,15.916 9.162,31.262 9.162,55.705 0,25.01 -2.291,40.926 -9.162,56.273 z"
           transform="translate(834.26,492.906)"
           id="path25" />
        <path
           inkscape:connector-curvature="0"
           style="fill:#000000;fill-rule:nonzero;stroke:none"
           d="M 68.14,43.201 C 64.13,28.99 57.83,22.738 48.1,22.738 c -10.31,0 -16.61,6.252 -20.61,19.895 -4.01,12.504 -5.16,23.305 -5.16,41.494 0,17.621 1.72,27.854 5.16,40.926 4,13.643 10.3,19.895 20.61,19.895 9.73,0 16.03,-6.252 20.04,-19.895 4.01,-13.072 5.15,-22.736 5.15,-41.494 0,-18.19 -1.72,-28.422 -5.15,-40.358 z m 18.32,96.631 c -8.01,19.326 -20.04,27.854 -38.36,27.854 -19.47,0 -30.92,-8.528 -38.94,-27.854 C 2.29,123.916 0,108.569 0,83.559 0,59.116 2.29,42.633 9.16,27.285 17.75,7.959 29.2,0 48.1,0 c 18.89,0 30.35,7.959 38.36,27.854 6.87,15.916 9.16,31.262 9.16,55.705 0,25.01 -2.29,40.926 -9.16,56.273 z"
           transform="translate(1356.42,492.906)"
           id="path27" />
        <path
           inkscape:connector-curvature="0"
           style="fill:#000000;fill-rule:nonzero;stroke:none"
           d="m 47.09,22.736 -23.83,0 0,46.043 23.83,0 c 13.61,0 20.98,-8.527 20.98,-23.305 0,-13.642 -8.51,-22.738 -20.98,-22.738 z m 1.13,68.211 -24.96,0 0,71.053 L 0,162 0,0 48.22,0 c 25.53,0 42.54,18.189 42.54,45.474 0,29.557 -15.31,45.473 -42.54,45.473 z"
           transform="translate(1484.44,495.75)"
           id="path29" />
        <path
           inkscape:connector-curvature="0"
           style="fill:#000000;fill-rule:nonzero;stroke:none"
           d="M 46.129,90.029 C 39.12,85.489 32.315,80.932 27.971,77.874 14.91,68.681 7.992,56.275 7.992,42.064 7.992,18.758 26.258,0 49.662,0 72.495,0 90.19,17.621 90.761,42.064 l -22.263,0 C 67.928,30.695 59.937,23.306 49.662,23.306 c -10.846,0 -19.408,7.958 -19.408,18.758 0,7.958 3.425,12.505 15.412,19.326 31.395,18.189 45.095,35.81 45.095,59.116 0,26.148 -19.979,47.179 -45.095,47.179 C 17.125,167.685 0,143.811 0,117.095 l 22.833,0 c 0,13.644 6.85,27.853 22.833,27.853 12.559,0 22.832,-11.369 22.832,-24.442 0,-10.151 -4.194,-18.702 -22.369,-30.477 z"
           transform="translate(503.338,492.907)"
           id="path31" />
        <path
           inkscape:connector-curvature="0"
           style="fill:#000000;fill-rule:nonzero;stroke:none"
           d="M 46.13,90.029 C 39.12,85.489 32.32,80.932 27.97,77.874 14.91,68.681 7.99,56.275 7.99,42.064 7.99,18.758 26.26,0 49.66,0 72.49,0 90.19,17.621 90.76,42.064 l -22.26,0 C 67.93,30.695 59.94,23.306 49.66,23.306 c -10.84,0 -19.41,7.958 -19.41,18.758 0,7.958 3.43,12.505 15.42,19.326 31.39,18.189 45.09,35.81 45.09,59.116 0,26.148 -19.98,47.179 -45.09,47.179 C 17.13,167.685 0,143.811 0,117.095 l 22.83,0 c 0,13.644 6.85,27.853 22.84,27.853 12.56,0 22.83,-11.369 22.83,-24.442 0,-10.151 -4.19,-18.702 -22.37,-30.477 z"
           transform="translate(1148.98,492.907)"
           id="path33" />
        <path
           inkscape:connector-curvature="0"
           style="fill:#000000;fill-rule:nonzero;stroke:none"
           d="m 53.02,21.601 0,140.4 -23.375,0 0,-140.4 L 0,21.601 0,0 l 82.66,0 0,21.601 -29.64,0 z"
           transform="translate(949.32,495.749)"
           id="path35" />
        <path
           inkscape:connector-curvature="0"
           style="fill:#000000;fill-rule:nonzero;stroke:none"
           d="m 53.02,21.601 0,140.4 -23.38,0 0,-140.4 L 0,21.601 0,0 l 82.66,0 0,21.601 -29.64,0 z"
           transform="translate(1254.32,495.749)"
           id="path37" />
        <path
           inkscape:connector-curvature="0"
           style="fill:#000000;fill-rule:nonzero;stroke:none"
           d="m 43.76,55.137 -9.09,42.631 17.62,0 -8.53,-42.631 z M 65.93,162 l -9.1,-43.201 -26.71,0 L 21.03,162 0,162 32.96,0 53.99,0 87.52,162 65.93,162 z"
           transform="translate(1175.93,207.75)"
           id="path39" />
        <path
           inkscape:connector-curvature="0"
           style="fill:#000000;fill-rule:nonzero;stroke:none"
           d="M 67.42,147.79 C 63.88,159.541 53.14,167.116 38.85,167.116 22.28,167.116 12,160.295 6.86,145.517 2.29,131.874 0,109.706 0,83.558 0,68.779 1.72,47.179 4,34.673 8.57,9.663 18.29,0 37.71,0 55.99,0 67.99,11.369 69.7,31.263 l -21.13,0 C 47.99,24.442 44,21.031 38.28,21.031 c -7.43,0 -11.43,5.117 -13.71,15.916 -2.86,13.074 -3.43,25.011 -3.43,46.611 0,22.737 0.57,32.4 3.43,46.043 2.28,10.798 6.28,16.484 13.14,16.484 7.43,0 10.86,-5.686 10.86,-19.895 l 21.13,0 c 0,12.504 -0.57,15.915 -2.28,21.6 z"
           transform="translate(1506.53,205.476)"
           id="path41" />
        <path
           inkscape:connector-curvature="0"
           style="fill:#000000;fill-rule:nonzero;stroke:none"
           d="m 20.35,21.031 0,41.495 23.73,0 0,21.599 -23.73,0 0,77.875 L 0,162 0,0 l 61.6,0 0,21.031 -41.25,0 z"
           transform="translate(1286.13,207.75)"
           id="path43" />
        <path
           inkscape:connector-curvature="0"
           style="fill:#000000;fill-rule:nonzero;stroke:none"
           d="m 20.35,21.031 0,41.495 23.73,0 0,21.599 -23.73,0 0,77.875 L 0,162 0,0 l 61.6,0 0,21.031 -41.25,0 z"
           transform="translate(1370.41,207.75)"
           id="path45" />
        <path
           inkscape:connector-curvature="0"
           style="fill:#000000;fill-rule:nonzero;stroke:none"
           d="M 0,162 0,0 21.06,0 21.06,162 0,162 z"
           transform="translate(1454.69,207.75)"
           id="path47" />
        <path
           inkscape:connector-curvature="0"
           style="fill:#000000;fill-rule:nonzero;stroke:none"
           d="m 30.44,21.032 -9.96,0 0,44.337 13.38,0 c 11.38,0 14.79,-5.116 14.79,-20.464 0,-18.189 -3.98,-23.873 -18.21,-23.873 z M 52.63,81.285 69.13,162 48.08,162 29.87,86.401 l -9.39,0 0,75.599 L 0,162 0,0 31.58,0 c 25.04,0 38.12,15.348 38.12,45.474 0,18.19 -5.12,28.422 -17.07,35.811 z"
           transform="translate(1093.27,207.75)"
           id="path49" />
        <path
           inkscape:connector-curvature="0"
           style="fill:#000000;fill-rule:nonzero;stroke:none"
           d="m 40.45,21.032 0,140.968 -20.44,0 0,-140.968 L 0,21.032 0,0 l 61.6,0 0,21.032 -21.15,0 z"
           transform="translate(1008.99,207.75)"
           id="path51" />
        <path
           inkscape:connector-curvature="0"
           style="fill:#000000;fill-rule:nonzero;stroke:none"
           d="m 67.415,147.789 c -3.543,11.752 -14.283,19.326 -28.564,19.326 -16.57,0 -26.853,-6.821 -31.995,-21.599 C 2.285,131.873 0,109.705 0,83.558 0,68.778 1.715,47.178 4,34.673 8.57,9.662 18.282,0 37.707,0 55.989,0 67.987,11.368 69.7,31.263 l -21.139,0 C 47.99,24.441 43.991,21.031 38.278,21.031 c -7.427,0 -11.427,5.116 -13.712,15.916 -2.856,13.074 -3.427,25.01 -3.427,46.611 0,22.736 0.571,32.399 3.427,46.042 2.285,10.799 6.285,16.484 13.141,16.484 7.427,0 10.854,-5.685 10.854,-19.895 l 21.139,0 c 0,12.505 -0.57,15.916 -2.285,21.6 z"
           transform="translate(358.087,205.477)"
           id="path53" />
        <path
           inkscape:connector-curvature="0"
           style="fill:#000000;fill-rule:nonzero;stroke:none"
           d="m 67.415,148.357 c -3.726,11.275 -14.283,18.758 -29.137,18.758 -16.568,0 -26.281,-6.252 -31.422,-21.599 C 1.714,130.736 0,115.957 0,82.989 0,50.589 1.714,36.378 7.427,21.031 12.569,6.252 22.282,0 38.278,0 56.56,0 67.415,11.368 69.7,31.263 l -20.567,0 C 47.991,24.441 44.564,21.031 38.849,21.031 c -7.426,0 -12.569,5.116 -14.282,15.916 -2.285,13.074 -3.428,23.873 -3.428,46.042 0,22.168 1.143,32.968 2.856,46.611 2.285,10.799 6.285,16.484 13.712,16.484 7.427,0 11.426,-6.821 11.426,-17.621 l 0,-21.601 -9.712,0 0,-21.031 30.279,0 0,41.495 c 0,7.39 -0.644,16.069 -2.285,21.031 z"
           transform="translate(831.29,205.477)"
           id="path55" />
        <path
           inkscape:connector-curvature="0"
           style="fill:#000000;fill-rule:nonzero;stroke:none"
           d="M 0,162 0,0 21.06,0 21.06,162 0,162 z"
           transform="translate(674.11,207.75)"
           id="path57" />
        <path
           inkscape:connector-curvature="0"
           style="fill:#000000;fill-rule:nonzero;stroke:none"
           d="m 58.964,162 0,-96.062 -18.759,60.82 -19.748,-60.82 0,96.062 L 0,162 0,0 20.457,0 40.205,57.411 58.964,0 l 20.457,0 0,162 -20.457,0 z"
           transform="translate(559.05,207.75)"
           id="path59" />
        <path
           inkscape:connector-curvature="0"
           style="fill:#000000;fill-rule:nonzero;stroke:none"
           d="M 52.134,162 20.401,65.938 20.401,162 0,162 0,0 l 20.401,0 28.9,80.716 0,-80.716 20.401,0 0,162 -17.568,0 z"
           transform="translate(257.606,207.75)"
           id="path61" />
        <path
           inkscape:connector-curvature="0"
           style="fill:#000000;fill-rule:nonzero;stroke:none"
           d="M 52.133,162 20.4,65.938 20.4,162 0,162 0,0 20.4,0 49.3,80.716 49.3,0 l 20.401,0 0,162 -17.568,0 z"
           transform="translate(730.81,207.75)"
           id="path63" />
        <path
           inkscape:connector-curvature="0"
           style="fill:#000000;fill-rule:nonzero;stroke:none"
           d="m 40.36,21.032 c -18.759,0 -16.204,50.589 -16.204,61.958 0,10.8 -2.555,63.095 16.204,63.095 18.189,0 15.634,-52.295 15.634,-63.095 0,-13.074 -0.287,-61.958 -15.634,-61.958 z m 0,146.084 C 0,167.116 3.123,109.706 3.123,82.99 3.123,55.138 0.569,0 40.36,0 c 39.79,0 37.234,55.706 37.234,82.99 0,26.716 2.556,84.126 -37.234,84.126 z"
           transform="translate(149.198,205.476)"
           id="path65" />
        <path
           inkscape:connector-curvature="0"
           style="fill:#000000;fill-rule:nonzero;stroke:none"
           d="m 40.359,21.032 c -18.758,0 -16.203,50.589 -16.203,61.958 0,10.8 -2.555,63.095 16.203,63.095 18.189,0 15.635,-52.295 15.635,-63.095 0,-13.074 -0.287,-61.958 -15.635,-61.958 z m 0,146.084 C 0,167.116 3.123,109.706 3.123,82.99 3.123,55.138 0.568,0 40.359,0 80.15,0 77.593,55.706 77.593,82.99 c 0,26.716 2.557,84.126 -37.234,84.126 z"
           transform="translate(450.641,205.476)"
           id="path67" />
      </g>
    </g>
  </g>
</svg>
