<?xml version="1.0" encoding="UTF-8" standalone="no"?>
<!-- Generator: Adobe Illustrator 12.0.1, SVG Export Plug-In  -->

<svg
   xmlns:dc="http://purl.org/dc/elements/1.1/"
   xmlns:cc="http://creativecommons.org/ns#"
   xmlns:rdf="http://www.w3.org/1999/02/22-rdf-syntax-ns#"
   xmlns:svg="http://www.w3.org/2000/svg"
   xmlns="http://www.w3.org/2000/svg"
   xmlns:sodipodi="http://sodipodi.sourceforge.net/DTD/sodipodi-0.dtd"
   xmlns:inkscape="http://www.inkscape.org/namespaces/inkscape"
   version="1.1"
   width="285.99426"
   height="286.01501"
   viewBox="-1 0 285.99426 286.01501"
   enable-background="new -1 0 289 288"
   xml:space="preserve"
   id="svg2"
   inkscape:version="0.48.2 r9819"
   sodipodi:docname="AJAX1.svg"><metadata
   id="metadata20"><rdf:RDF><cc:Work
       rdf:about=""><dc:format>image/svg+xml</dc:format><dc:type
         rdf:resource="http://purl.org/dc/dcmitype/StillImage" /></cc:Work></rdf:RDF></metadata><sodipodi:namedview
   pagecolor="#ffffff"
   bordercolor="#666666"
   borderopacity="1"
   objecttolerance="10"
   gridtolerance="10"
   guidetolerance="10"
   inkscape:pageopacity="0"
   inkscape:pageshadow="2"
   inkscape:window-width="1280"
   inkscape:window-height="1004"
   id="namedview18"
   showgrid="false"
   fit-margin-top="0"
   fit-margin-left="0"
   fit-margin-right="0"
   fit-margin-bottom="0"
   inkscape:zoom="1.6388889"
   inkscape:cx="97.375122"
   inkscape:cy="138.06989"
   inkscape:window-x="-8"
   inkscape:window-y="-8"
   inkscape:window-maximized="1"
   inkscape:current-layer="svg2" />
<defs
   id="defs4">
</defs>
<path
   d="m 3.09275,133.0865 128.98,-128.993001 c 5.458,-5.458 14.393,-5.458 19.847,0 l 128.981,128.993001 c 5.458,5.458 5.458,14.39 0,19.844 l -128.981,128.991 c -5.454,5.458 -14.389,5.458 -19.847,0 l -128.98,-128.991 c -5.457,-5.454 -5.457,-14.386 0,-19.844 z"
   id="path6"
   style="fill:#ffd033;stroke:none;fill-opacity:1"
   inkscape:connector-curvature="0" />

<path
   clip-rule="evenodd"
   d="M 6.20075,135.1365 134.12675,7.204499 c 4.329,-4.329 11.412,-4.329 15.745,0 l 127.919,127.932001 c 4.329,4.329 4.329,11.413 0,15.742 l -127.919,127.932 c -4.333,4.33 -11.416,4.33 -15.745,0 L 6.20075,150.8785 c -4.326,-4.329 -4.326,-11.413 0,-15.742"
   id="path10"
   inkscape:connector-curvature="0"
   style="fill-rule:evenodd;stroke:none;fill:#000000" />
<path
   clip-rule="evenodd"
   d="m 10.19975,139.0775 127.862,-127.873001 c 2.163,-2.165 5.708,-2.165 7.868,0 l 127.862,127.873001 c 2.164,2.161 2.164,5.702 0,7.863 l -127.861,127.87 c -2.16,2.164 -5.706,2.164 -7.868,0 l -127.863,-127.869 c -2.161,-2.162 -2.161,-5.703 0,-7.864"
   id="path12"
   inkscape:connector-curvature="0"
   style="fill:#ffd033;fill-rule:evenodd;stroke:none;fill-opacity:1" />
<path
   d="M 149.20475,75.367499 V 116.2825 c 0,0 18.891,22.969 22.84,27.772 0,7.002 0,67.996 0,67.996 h 21.847 v -75.827 c 0.004,0 -18.888,-22.967 -22.84,-27.77 0,-6.261 0,-33.086001 0,-33.086001 h -21.847"
   id="path14"
   inkscape:connector-curvature="0"
   style="stroke:none;fill:#000000" />
<path
   d="M 133.45375,75.370499 V 116.2855 c 0,0 -18.891,22.969 -22.84,27.772 0,7.002 0,67.996 0,67.996 h -21.846 v -75.826 c -0.004,0 18.888,-22.967 22.84,-27.77 0,-6.261 0,-33.086001 0,-33.086001 h 21.846"
   id="path16"
   inkscape:connector-curvature="0"
   style="stroke:none;fill:#000000" />
</svg>