<?xml version="1.0" encoding="UTF-8" standalone="no"?>
<svg
   xmlns:dc="http://purl.org/dc/elements/1.1/"
   xmlns:cc="http://creativecommons.org/ns#"
   xmlns:rdf="http://www.w3.org/1999/02/22-rdf-syntax-ns#"
   xmlns:svg="http://www.w3.org/2000/svg"
   xmlns="http://www.w3.org/2000/svg"
   xmlns:sodipodi="http://sodipodi.sourceforge.net/DTD/sodipodi-0.dtd"
   xmlns:inkscape="http://www.inkscape.org/namespaces/inkscape"
   width="105.69981"
   height="52.826061"
   viewBox="0 0 298.30838 149.08688"
   version="1.1"
   id="svg2"
   inkscape:version="0.48.2 r9819"
   sodipodi:docname="AJAX1.svg">
  <metadata
     id="metadata62">
    <rdf:RDF>
      <cc:Work
         rdf:about="">
        <dc:format>image/svg+xml</dc:format>
        <dc:type
           rdf:resource="http://purl.org/dc/dcmitype/StillImage" />
      </cc:Work>
    </rdf:RDF>
  </metadata>
  <defs
     id="defs60" />
  <sodipodi:namedview
     pagecolor="#ffffff"
     bordercolor="#666666"
     borderopacity="1"
     objecttolerance="10"
     gridtolerance="10"
     guidetolerance="10"
     inkscape:pageopacity="0"
     inkscape:pageshadow="2"
     inkscape:window-width="1280"
     inkscape:window-height="1004"
     id="namedview58"
     showgrid="false"
     fit-margin-top="0"
     fit-margin-left="0"
     fit-margin-right="0"
     fit-margin-bottom="0"
     inkscape:zoom="4.6745195"
     inkscape:cx="44.400659"
     inkscape:cy="-2.0541332"
     inkscape:window-x="-8"
     inkscape:window-y="-8"
     inkscape:window-maximized="1"
     inkscape:current-layer="svg2" />
  <!-- draw the bicycle -->
  <!-- RIGHT -->
  <!-- LANE -->
  <!-- ONLY -->
  <path
     inkscape:connector-curvature="0"
     d="m 286.65664,149.08389 -275.000858,0.003 C 5.2316923,149.08689 2.2904377e-6,143.85872 2.2904377e-6,137.43816 l 0,-125.786452 C -0.00399771,5.2352185 5.2316923,-1.1485106e-5 11.655782,-1.1485106e-5 L 286.65664,0.00398851 c 6.42056,0 11.64873,5.22816999 11.64873,11.64871949 l 0.003,125.779402 c -0.003,6.34647 -5.30931,11.6593 -11.65225,11.65225"
     style="fill:#ffd033;fill-opacity:1;fill-rule:nonzero;stroke:none"
     id="path3573" />
  <path
     inkscape:connector-curvature="0"
     d="m 286.61434,145.85597 -274.923258,-0.004 c -4.6213897,-0.003 -8.4454997,-3.83422 -8.4560797,-8.45561 l 0.004,-125.701782 c -0.004,-4.6213895 3.83469,-8.4419695 8.4560797,-8.4560895 l 274.916198,0.004 c 4.62845,0.007 8.45609,3.82412 8.45961,8.4560895 l 0,125.701782 c -0.0113,4.61433 -3.82411,8.45608 -8.45608,8.45608"
     style="fill:#000000;fill-opacity:1;fill-rule:evenodd;stroke:none"
     id="path3577" />
  <path
     inkscape:connector-curvature="0"
     d="m 286.55434,141.32631 -274.803308,-0.004 c -2.1872297,0.0423 -4.0216697,-1.79564 -3.9863897,-3.98639 l 0.004,-125.581372 c -0.0388,-2.1836895 1.79564,-4.0251895 3.9828697,-3.9828595 l 274.799778,0.004 c 2.19428,-0.0459 4.02872,1.79564 3.98286,3.9828595 l 0.008,125.581842 c 0.0389,2.18722 -1.79564,4.02166 -3.98639,3.98639"
     style="fill:#ffd033;fill-opacity:1;fill-rule:evenodd;stroke:none"
     id="path3581" />
  <path
     inkscape:connector-curvature="0"
     d="m 270.38301,95.338188 -158.47131,0 7.75758,24.511002 c 0.25047,0.7867 0.42686,1.5875 0.44097,2.42006 0.0882,3.87703 -2.93158,7.39422 -6.68514,8.12094 -2.2225,0.43745 -4.49791,-0.0318 -6.34647,-1.30175 L 27.929422,74.623078 106.99045,20.256488 c 1.40758,-0.97013 3.02683,-1.54516 4.7378,-1.55575 3.87703,-0.0388 7.39422,2.8187 8.12447,6.62164 0.25753,1.37584 0.24342,2.75167 -0.18344,4.07812 l -7.75758,24.50747 158.47131,0 0,41.43022 z"
     style="fill:#000000;fill-opacity:1;fill-rule:evenodd;stroke:none"
     id="path3585" />
</svg>
