<?xml version="1.0" encoding="UTF-8" standalone="no"?>
<svg
   xmlns:dc="http://purl.org/dc/elements/1.1/"
   xmlns:cc="http://creativecommons.org/ns#"
   xmlns:rdf="http://www.w3.org/1999/02/22-rdf-syntax-ns#"
   xmlns:svg="http://www.w3.org/2000/svg"
   xmlns="http://www.w3.org/2000/svg"
   xmlns:sodipodi="http://sodipodi.sourceforge.net/DTD/sodipodi-0.dtd"
   xmlns:inkscape="http://www.inkscape.org/namespaces/inkscape"
   width="89.985153"
   height="90.000923"
   viewBox="0 0 253.95815 254.0026"
   version="1.1"
   id="svg2"
   inkscape:version="0.48.2 r9819"
   sodipodi:docname="AJAX1.svg">
  <metadata
     id="metadata62">
    <rdf:RDF>
      <cc:Work
         rdf:about="">
        <dc:format>image/svg+xml</dc:format>
        <dc:type
           rdf:resource="http://purl.org/dc/dcmitype/StillImage" />
        <dc:title></dc:title>
      </cc:Work>
    </rdf:RDF>
  </metadata>
  <defs
     id="defs60" />
  <sodipodi:namedview
     pagecolor="#ffffff"
     bordercolor="#666666"
     borderopacity="1"
     objecttolerance="10"
     gridtolerance="10"
     guidetolerance="10"
     inkscape:pageopacity="0"
     inkscape:pageshadow="2"
     inkscape:window-width="1280"
     inkscape:window-height="1004"
     id="namedview58"
     showgrid="false"
     fit-margin-top="0"
     fit-margin-left="0"
     fit-margin-right="0"
     fit-margin-bottom="0"
     inkscape:zoom="5.6568543"
     inkscape:cx="34.617272"
     inkscape:cy="34.584827"
     inkscape:window-x="-8"
     inkscape:window-y="-8"
     inkscape:window-maximized="1"
     inkscape:current-layer="svg2" />
  <!-- draw the bicycle -->
  <!-- RIGHT -->
  <!-- LANE -->
  <!-- ONLY -->
  <path
     inkscape:connector-curvature="0"
     d="M 3.3615301,118.7608 118.71636,3.4024968 c 4.54025,-4.5367 11.94153,-4.5367 16.48178,0 L 250.55297,118.7608 c 4.54025,4.5368 4.54025,11.938 0,16.4783 L 135.19814,250.5974 c -4.54025,4.5403 -11.94153,4.5403 -16.48178,0 L 3.3615301,135.2391 c -4.48028,-4.4803 -4.4838,-11.998 0,-16.4783"
     style="fill:#ffd033;fill-opacity:1;fill-rule:nonzero;stroke:none"
     id="path3202" />
  <path
     inkscape:connector-curvature="0"
     d="M 5.6799901,121.0207 120.97838,5.7222968 c 3.27025,-3.2702 8.68891,-3.2631 11.95916,0 L 248.23593,121.0207 c 3.27377,3.2738 3.25966,8.6819 0,11.9592 L 132.93754,248.2783 c -3.27377,3.2632 -8.68186,3.2667 -11.95916,0 L 5.6799901,132.9799 c -3.25967,-3.2773 -3.27378,-8.6854 0,-11.9592"
     style="fill:#000000;fill-opacity:1;fill-rule:evenodd;stroke:none"
     id="path3214" />
  <path
     inkscape:connector-curvature="0"
     d="M 8.9255401,124.1834 124.14279,8.9661968 c 1.52047,-1.577 4.10986,-1.5734 5.63386,0 L 244.99037,124.1834 c 1.57339,1.5205 1.57339,4.1134 0,5.6339 L 129.77665,245.031 c -1.52047,1.5769 -4.11691,1.5804 -5.63386,0 L 8.9255401,129.8173 c -1.57339,-1.524 -1.57339,-4.1134 0,-5.6339"
     style="fill:#ffd033;fill-opacity:1;fill-rule:evenodd;stroke:none"
     id="path3218" />
  <path
     d="m 108.4492,127.134 0,-4.35681 -11.33475,0 0,-10.24467 6.42761,0 0,-4.24744 -6.42761,0 0,-7.84578 10.13531,0 0,-4.360337 -14.608533,0 0,31.055037 15.807973,0 z m -22.447252,0 0,-31.055037 -4.473223,0 0,18.633727 -8.494891,-18.633727 -4.473223,0 0,31.055037 4.473223,0 0,-20.81037 9.584974,20.81037 3.38314,0 z m -27.9012,-15.5822 c 0,3.59833 -0.218722,5.45042 -0.98425,7.95514 -0.758473,2.61408 -1.957917,3.81353 -3.810001,3.81353 -1.964973,0 -3.16089,-1.19945 -3.926418,-3.81353 -0.649111,-2.50472 -0.980722,-4.46617 -0.980722,-7.84578 0,-3.48897 0.22225,-5.55625 0.980722,-7.95514 0.765528,-2.61408 1.961445,-3.813529 3.926418,-3.813529 1.852084,0 3.051528,1.199449 3.810001,3.922889 0.656167,2.28953 0.98425,4.25097 0.98425,7.73642 m 4.254501,0 c 0,-4.68489 -0.440973,-7.62706 -1.746251,-10.67859 -1.527528,-3.813525 -3.704167,-5.341053 -7.302501,-5.341053 -3.594806,0 -5.774974,1.527528 -7.411863,5.231693 -1.305278,2.94217 -1.74625,6.10306 -1.74625,10.78795 0,4.79425 0.440972,7.73642 1.74625,10.78795 1.527528,3.70416 3.704168,5.35869 7.411863,5.35869 3.485445,0 5.774973,-1.65453 7.302501,-5.35869 1.305278,-2.94217 1.746251,-5.9937 1.746251,-10.78795"
     style="fill:#000000;fill-opacity:1;fill-rule:evenodd;stroke:none"
     id="path3286"
     inkscape:connector-curvature="0" />
  <path
     d="m 186.89994,178.77256 0,-4.36033 -11.33476,0 0,-10.24115 6.43114,0 0,-4.25097 -6.43114,0 0,-7.84578 10.13531,0 0,-4.36033 -14.605,0 0,31.05856 15.80445,0 z m -22.10154,-8.60778 0,-6.43114 -7.95866,0 0,4.36033 3.48544,0 0,2.07081 c 0,3.26672 -1.09008,4.79072 -3.37608,4.79072 -2.39889,0 -3.92642,-1.63336 -4.58259,-4.68489 -0.43391,-2.39889 -0.64558,-5.1188 -0.64558,-7.73289 0,-3.70416 0.54328,-7.19314 1.41111,-8.72066 0.76553,-1.52401 1.96497,-2.28953 3.48545,-2.28953 2.18369,0 3.59833,1.42169 3.70769,3.48897 l 4.47322,0 c -0.22225,-4.57553 -3.59833,-7.84578 -8.07155,-7.84578 -3.59481,0 -6.75217,2.39889 -7.84578,5.66561 -1.09009,2.94217 -1.41464,6.10306 -1.41464,10.45987 0,4.03225 0.65617,8.39258 1.63336,10.68211 1.524,3.48544 4.25097,5.35517 7.95867,5.35517 3.15736,0 5.66561,-1.651 6.86506,-4.37798 0.65263,-1.30527 0.87488,-2.61055 0.87488,-4.79072 m -27.45316,-6.75922 c 0,2.39889 -0.21167,4.57553 -0.43392,6.5405 -0.43392,2.39889 -1.85208,4.46617 -4.46264,4.46617 l -3.7077,0 0,-22.3379 3.7077,0 c 1.95439,0 3.26319,0.98072 4.02872,3.16089 0.54681,1.30528 0.86784,4.68489 0.86784,8.17034 m 4.36386,-0.21873 c 0,-2.39536 -0.33161,-5.1188 -0.76553,-7.40833 -0.54328,-3.16089 -1.85561,-5.55978 -3.7077,-6.86506 -1.08655,-0.87136 -2.39183,-1.19944 -5.00944,-1.19944 l -7.95867,0 0,31.05856 8.61484,0 c 1.74272,0 3.26672,-0.43744 4.35327,-1.41817 3.05153,-2.39889 4.47323,-6.97441 4.47323,-14.16756 m -24.39106,-15.47283 -4.36386,0 0,31.05856 4.36386,0 0,-31.05856 z m -14.04409,8.28322 c 0,2.50472 -1.41817,3.92289 -4.028722,3.92289 l -4.582584,0 0,-7.84578 4.582584,0 c 2.395362,0 4.028722,1.52753 4.028722,3.92289 m 4.35681,22.77534 -4.46617,-15.25411 c 2.94217,-1.09009 4.46617,-3.81706 4.46617,-7.52123 0,-5.01297 -3.26673,-8.28322 -8.173865,-8.28322 l -9.260418,0 0,31.05856 4.466167,0 0,-14.60148 4.250973,0 4.141613,14.60148 4.57553,0 z m -27.114508,-8.8265 c 0,2.71992 -1.640417,4.46617 -4.141612,4.46617 l -4.469695,0 0,-9.69434 4.469695,0 c 2.289529,0 4.141612,2.286 4.141612,5.22817 M 79.972975,155.7785 c 0,2.83281 -1.308806,4.57553 -3.38314,4.57553 l -4.68489,0 0,-8.2797 4.68489,0 c 2.395362,0 3.38314,1.08656 3.38314,3.70417 m 4.896556,14.49211 c 0,-3.15736 -1.411111,-5.77497 -3.810001,-7.73289 2.501195,-2.61761 3.266723,-3.92641 3.266723,-6.75922 0,-4.79425 -2.942167,-8.0645 -7.083779,-8.0645 l -9.803696,0 0,31.05856 9.151057,0 c 4.582584,0 8.279696,-3.81706 8.279696,-8.50195"
     style="fill:#000000;fill-opacity:1;fill-rule:evenodd;stroke:none"
     id="path3290"
     inkscape:connector-curvature="0" />
  <path
     d="m 205.96052,126.9823 0,-4.36033 -11.33475,0 0,-10.24114 6.43467,0 0,-4.25098 -6.43467,0 0,-7.84578 10.13531,0 0,-4.356802 -14.60148,0 0,31.055032 15.80092,0 z m -22.45078,0 0,-31.055032 -4.46264,0 0,18.633722 -8.50194,-18.633722 -4.46617,0 0,31.055032 4.46617,0 0,-20.81389 9.5885,20.81389 3.37608,0 z m -29.42167,-12.85875 -4.4697,0 2.1837,-8.93586 2.286,8.93586 z m 7.73994,12.85875 -7.73994,-31.055032 -4.36034,0 -7.73641,31.055032 4.46969,0 2.06728,-8.49842 6.64986,0 2.17664,8.49842 4.47322,0 z m -21.6923,0 0,-4.14161 -11.3277,0 0,-26.913422 -4.46969,0 0,31.055032 15.79739,0 z"
     style="fill:#000000;fill-opacity:1;fill-rule:evenodd;stroke:none"
     id="path3294"
     inkscape:connector-curvature="0" />
</svg>
