<svg version="1.1" viewBox="0 0 86 50" xmlns="http://www.w3.org/2000/svg">
 <rect x="1" y="1" width="84" height="48" ry="3" fill="#fff" stroke="#000" stroke-width=".1"/>
 <path d="m31 2.5v45h-27l-1.5-1.5v-42.5l1-1z"/>
 <rect x="2.375" y="2.375" width="81.25" height="45.25" ry="1.625" fill="none" stroke="#000" stroke-width="1.25"/>
 <path d="M 16.375,11.515625 23.1171875,25 16.375,38.484375 9.6328125,25 Z" fill="none" stroke="#fff" stroke-width="2.25"/>
 <path transform="matrix(.008 0 0 -.008 37.108 16)" d="m4860.125-2748q0-310-175-445-58-51-144-57h-361v1e3h322q75 0 114.5-10t78.5-43q165-142 165-445zm-161 0q0 212-81 298-43 43-102 43h-179v-682h158q72 0 111 39 93 93 93 302zm-675-502h-168l-99 281h-312l-98-281h-169l344 1e3h158zm-322 442-99 281-101-281zm-607.625-442h-620v1e3h589v-157h-432v-247h292v-161h-292v-274h463zm-861.375 0h-158v435h-365v-435h-157v1e3h157v-404h365v404h158zm-836.875 0h-168l-99 281h-312l-98-281h-169l344 1e3h158zm-322 442-99 281-101-281zm3238.25 1183h-620v1e3h589v-157h-432v-247h292v-161h-292v-274h463zm-860.375 0h-141l-382 677v-677h-157v1e3h157l365-639v639h158zm-831 0h-168l-99 281h-312l-98-281h-169l344 1e3h158zm-322 442-99 281-101-281zm-588.375-442h-620v1e3h157v-853h463zm3357.375 2036h-257v-250h-157v250h-257v161h257v248h157v-248h257zm-800.25-411h-681q5 173 84 305 58 104 176 193 26 15 46 31l52 29 49 28 50 27q65 39 65 110 0 55-54 94t-128 39q-156 0-181-140l-159 34q26 123 118 195 90 72 222 72 142 0 241.5-87t99.5-211q0-122-102-214-27-21-42-27l-49-33-53-27-48-29q-72-43-116.5-93.5t-80.5-134.5h491zm-1431 1e3 -321-1e3h-121l-317 1e3h166l214-666 209 666zm-894.75-502q0-122-28.5-231t-79.5-173q-82-111-243-111-104 0-174 43t-114 135q-70 137-70 337 0 252 109 406 87 113 255 113 185 0 278-179 67-138 67-340zm-158 0q0 180-60 281-41 72-130 77-111 5-161-123-38-94-38-235 0-183 59-277 45-77 137-77 104 0 154 127 39 100 39 227zm-769-498h-158v435h-365v-435h-157v1e3h157v-404h365v404h158z"/>
</svg>
