<?xml version="1.0" encoding="UTF-8" standalone="no"?>
<!-- Generator: Adobe Illustrator 14.0.0, SVG Export Plug-In  -->

<svg
   xmlns:dc="http://purl.org/dc/elements/1.1/"
   xmlns:cc="http://creativecommons.org/ns#"
   xmlns:rdf="http://www.w3.org/1999/02/22-rdf-syntax-ns#"
   xmlns:svg="http://www.w3.org/2000/svg"
   xmlns="http://www.w3.org/2000/svg"
   xmlns:sodipodi="http://sodipodi.sourceforge.net/DTD/sodipodi-0.dtd"
   xmlns:inkscape="http://www.inkscape.org/namespaces/inkscape"
   version="1.1"
   x="0px"
   y="0px"
   width="173.24995"
   height="130.18747"
   viewBox="0 -0.321 173.24996 130.1875"
   enable-background="new 0 -0.321 144 120"
   xml:space="preserve"
   id="svg2"
   inkscape:version="0.48.2 r9819"
   sodipodi:docname="MUTCD R7-7.svg"><metadata
   id="metadata44"><rdf:RDF><cc:Work
       rdf:about=""><dc:format>image/svg+xml</dc:format><dc:type
         rdf:resource="http://purl.org/dc/dcmitype/StillImage" /><dc:title></dc:title></cc:Work></rdf:RDF></metadata><sodipodi:namedview
   pagecolor="#ffffff"
   bordercolor="#666666"
   borderopacity="1"
   objecttolerance="10"
   gridtolerance="10"
   guidetolerance="10"
   inkscape:pageopacity="0"
   inkscape:pageshadow="2"
   inkscape:window-width="1280"
   inkscape:window-height="1004"
   id="namedview42"
   showgrid="false"
   fit-margin-top="0"
   fit-margin-left="0"
   fit-margin-right="0"
   fit-margin-bottom="0"
   inkscape:zoom="2.6802662"
   inkscape:cx="102.01939"
   inkscape:cy="78.517875"
   inkscape:window-x="-8"
   inkscape:window-y="-8"
   inkscape:window-maximized="1"
   inkscape:current-layer="svg2" />
<defs
   id="defs4">
</defs>


















<path
   d="m 172.75459,118.59766 c 0,5.945 -4.82,10.765 -10.76375,10.765 l -150.713769,0 c -5.9450115,0 -10.76501152,-4.82 -10.76501152,-10.765 l 0,-107.65127 c 0,-5.94501 4.82000002,-10.76376 10.76501152,-10.76376 l 150.713769,0 c 5.94375,0 10.76375,4.81875 10.76375,10.76376 l 0,107.65127 z"
   style="fill:#ffffff;fill-opacity:1;fill-rule:nonzero;stroke:#000000;stroke-width:1.00000024;stroke-miterlimit:4;stroke-opacity:1;stroke-dasharray:none"
   id="path4777"
   inkscape:connector-curvature="0" /><path
   d="m 4.1003095,118.59766 0,-107.65127 c 0,-3.95751 3.22,-7.17626 7.1775115,-7.17626 l 150.712519,0 c 3.955,0 7.175,3.21875 7.175,7.17626 l 0,107.65127 c 0,3.95875 -3.22,7.17625 -7.175,7.17625 l -150.712519,0 c -3.9575115,0 -7.1775115,-3.2175 -7.1775115,-7.17625"
   style="fill:#00674c;fill-opacity:1;fill-rule:nonzero;stroke:none"
   id="path4801"
   inkscape:connector-curvature="0" /><path
   d="m 126.10708,118.59766 0,-48.44251 c 0,-1.97875 1.60875,-3.58875 3.58625,-3.58875 l 32.29751,0 c 1.9775,0 3.58625,1.61 3.58625,3.58875 l 0,48.44251 c 0,1.97875 -1.60875,3.59 -3.58625,3.59 l -32.29751,0 c -1.9775,0 -3.58625,-1.61125 -3.58625,-3.59"
   style="fill:#ffffff;fill-opacity:1;fill-rule:nonzero;stroke:none"
   id="path4805"
   inkscape:connector-curvature="0" /><path
   d="m 7.6891795,118.59766 0,-107.65127 c 0,-1.97876 1.61,-3.58751 3.5887615,-3.58751 l 107.651259,0 c 1.9775,0 3.58875,1.60875 3.58875,3.58751 l 0,107.65127 c 0,1.97875 -1.61125,3.59 -3.58875,3.59 l -107.651259,0 c -1.9787615,0 -3.5887615,-1.61125 -3.5887615,-3.59"
   style="fill:#ffffff;fill-opacity:1;fill-rule:nonzero;stroke:none"
   id="path4809"
   inkscape:connector-curvature="0" /><path
   d="m 150.15459,52.21377 -8.62626,0 0,-29.26751 -4.29625,0 0,-8.625 c 0.8325,0 1.81875,-0.595 2.96625,-1.7875 1.145,-1.19125 1.71875,-2.31875 1.71875,-3.38126 l 8.23751,0 0,43.06127 z"
   style="fill:#ffffff;fill-opacity:1;fill-rule:nonzero;stroke:none"
   id="path4833"
   inkscape:connector-curvature="0" /><path
   d="m 137.54458,62.80252 -1.26,0 0,-3.08125 -3.15125,0 0,3.08125 -1.26,0 0,-7.00125 1.26,0 0,2.66125 3.15125,0 0,-2.66125 1.26,0 0,7.00125 z"
   style="fill:#ffffff;fill-opacity:1;fill-rule:nonzero;stroke:none"
   id="path4837"
   inkscape:connector-curvature="0" /><path
   d="m 143.81208,59.3014 c 0,-0.625 -0.145,-1.16 -0.4275,-1.6075 -0.3225,-0.50375 -0.7525,-0.755 -1.28875,-0.755 -0.5325,0 -0.96,0.25125 -1.2825,0.755 -0.2875,0.4475 -0.43375,0.9825 -0.43375,1.6075 0,0.62125 0.14625,1.1525 0.43375,1.6 0.3225,0.50375 0.75,0.755 1.2825,0.755 0.53625,0 0.96625,-0.25125 1.28875,-0.755 0.2825,-0.4475 0.4275,-0.97875 0.4275,-1.6 m 1.225,0 c 0,0.9575 -0.26375,1.7825 -0.79125,2.4775 -0.56625,0.74125 -1.28125,1.1125 -2.15,1.1125 -0.87,0 -1.585,-0.37125 -2.14875,-1.1125 -0.5275,-0.695 -0.79125,-1.52 -0.79125,-2.4775 0,-0.955 0.26375,-1.78 0.79125,-2.475 0.56375,-0.7425 1.27875,-1.11375 2.14875,-1.11375 0.86875,0 1.58375,0.37125 2.15,1.11375 0.5275,0.695 0.79125,1.52 0.79125,2.475"
   style="fill:#ffffff;fill-opacity:1;fill-rule:nonzero;stroke:none"
   id="path4841"
   inkscape:connector-curvature="0" /><path
   d="m 152.31709,60.0739 c 0,0.80625 -0.26875,1.47375 -0.8075,2.00375 -0.54,0.53 -1.21625,0.79625 -2.02625,0.79625 -0.80875,0 -1.48251,-0.26875 -2.02376,-0.8025 -0.5425,-0.53375 -0.81375,-1.20125 -0.81375,-1.9975 l 0,-4.2725 1.26,0 0,4.2725 c 0,0.44125 0.15875,0.8125 0.47626,1.11125 0.305,0.285 0.67125,0.4275 1.10125,0.4275 0.43375,0 0.805,-0.145 1.1125,-0.43375 0.3075,-0.29 0.4625,-0.65875 0.4625,-1.105 l 0,-4.2725 1.25875,0 0,4.2725 z"
   style="fill:#ffffff;fill-opacity:1;fill-rule:nonzero;stroke:none"
   id="path4845"
   inkscape:connector-curvature="0" /><path
   d="m 158.47959,57.95015 c 0,-0.2275 -0.0975,-0.4325 -0.29,-0.61625 -0.19375,-0.18 -0.40625,-0.2725 -0.6375,-0.2725 l -2.15375,0 0,1.75125 2.16625,0 c 0.23375,0 0.44375,-0.0863 0.63125,-0.26 0.18875,-0.1725 0.28375,-0.37375 0.28375,-0.6025 m 0.0825,1.89875 1.2475,2.95375 -1.37125,0 -1.155,-2.72875 -1.885,0 0,2.72875 -1.26,0 0,-7.00125 3.4525,0 c 0.58875,0 1.09375,0.2075 1.51875,0.62375 0.425,0.415 0.635,0.92375 0.63,1.525 -0.005,0.43 -0.1125,0.8125 -0.325,1.145 -0.2125,0.33375 -0.495,0.585 -0.8525,0.75375"
   style="fill:#ffffff;fill-opacity:1;fill-rule:nonzero;stroke:none"
   id="path4849"
   inkscape:connector-curvature="0" /><path
   d="m 80.941201,62.97015 c -3.1,3.10125 -6.2675,6.2675 -9.28125,9.28125 l 9.12375,9.12501 c 2.56375,2.56125 6.71875,2.56125 9.28125,0 2.56375,-2.5625 2.5625,-6.7175 0,-9.28126 l -9.12375,-9.125 z"
   style="fill:#00674c;fill-opacity:1;fill-rule:nonzero;stroke:none"
   id="path4813"
   inkscape:connector-curvature="0" /><path
   d="m 82.739201,61.8414 6.0825,6.08375 c 2.5625,2.56375 6.71876,2.56375 9.28126,0 1.65,-1.65 2.236239,-3.9625 1.76125,-6.08375 l -17.12501,0 z"
   style="fill:#00674c;fill-opacity:1;fill-rule:nonzero;stroke:none"
   id="path4817"
   inkscape:connector-curvature="0" /><path
   d="m 63.261701,11.84376 c -2.6025,0 -5.205,0.99375 -7.19,2.97875 l -29.58501,29.58376 c -1.98625,1.98625 -2.97875,4.58875 -2.97875,7.19125 l 0,10.5875 c 4.38,-2.96875 9.54125,-4.565 14.94875,-4.565 1.8325,0 3.63625,0.185 5.39,0.54125 l 0,-2.35 14.65251,-14.65375 12.9275,0 -19.8775,19.87625 -1.33751,1.33875 -11.26375,11.26251 c -3.41375,3.41375 -3.89,8.6475 -1.43625,12.5725 0.325,0.52 0.69875,1.01875 1.12625,1.485 0.10125,0.11 0.20375,0.22 0.31,0.325 3.97125,3.97125 10.41,3.97125 14.38251,0 l 9.385,-9.385 1.49,-1.48875 17.11375,-17.11376 22.536249,0 c 2.8075,0 5.35125,-1.13875 7.1925,-2.97875 l 6.9825,-6.985 0,-38.22251 -54.768749,0 z"
   style="fill:#00674c;fill-opacity:1;fill-rule:nonzero;stroke:none"
   id="path4821"
   inkscape:connector-curvature="0" /><path
   d="m 54.608701,89.29641 c -4.67001,4.67 -12.26876,4.67 -16.93876,0 l -0.365,-0.38375 c -0.49125,-0.53375 -0.9375,-1.1225 -1.3275,-1.745 -1.18625,-1.9 -1.81375,-4.11625 -1.81375,-6.3575 0,-0.425 0.0225,-0.85 0.0675,-1.27375 0.29125,-2.7025 1.51125,-5.2525 3.4375,-7.17876 0,0 4.93625,-4.935 10.82375,-10.82375 -3.07125,-1.3525 -6.465,-2.105 -10.03625,-2.105 -13.76125,0 -24.91625,11.155 -24.91625,24.91626 0,13.7625 11.155,24.9175 24.91625,24.9175 13.76126,0 24.91751,-11.155 24.91751,-24.9175 0,-1.20875 -0.0875,-2.3975 -0.25375,-3.56 -4.7575,4.75875 -8.51125,8.51125 -8.51125,8.51125"
   style="fill:#00674c;fill-opacity:1;fill-rule:nonzero;stroke:none"
   id="path4825"
   inkscape:connector-curvature="0" /><path
   d="m 65.181831,84.34516 c 0,0.9325 -0.0488,1.8575 -0.1425,2.77375 l 1.96625,1.9675 c 2.5625,2.56125 6.7175,2.56125 9.28125,-0.002 2.5625,-2.56125 2.5625,-6.71625 0,-9.28 l -6.09,-6.0875 c -1.9275,1.92625 -3.7725,3.77125 -5.47875,5.4775 l 0.19125,1.335 c 0.18125,1.265 0.2725,2.54875 0.2725,3.81625"
   style="fill:#00674c;fill-opacity:1;fill-rule:nonzero;stroke:none"
   id="path4829"
   inkscape:connector-curvature="0" /><path
   d="m 158.12835,97.89253 -12.28752,18.16625 -12.305,-18.16625 c -0.545,-0.79875 -0.3375,-1.8975 0.46375,-2.43875 0.535,-0.36375 1.08875,-0.2975 1.7475,-0.1325 l 5.3325,1.605 0,-21.83875 9.51626,0 0,21.83875 5.24501,-1.565 c 0.725,-0.2025 1.26125,-0.28875 1.82125,0.0925 0.8,0.54125 1.0075,1.64 0.46625,2.43875"
   style="fill:#00674c;fill-opacity:1;fill-rule:evenodd;stroke:none"
   id="path4853"
   inkscape:connector-curvature="0" /></svg>