<?xml version="1.0" encoding="utf-8"?>
<!-- Generator: Adobe Illustrator 12.0.1, SVG Export Plug-In  -->
<!DOCTYPE svg PUBLIC "-//W3C//DTD SVG 1.1//EN" "http://www.w3.org/Graphics/SVG/1.1/DTD/svg11.dtd" [
	<!ENTITY ns_flows "http://ns.adobe.com/Flows/1.0/">
	<!ENTITY ns_svg "http://www.w3.org/2000/svg">
	<!ENTITY ns_xlink "http://www.w3.org/1999/xlink">
]>
<svg  version="1.1" xmlns="&ns_svg;" xmlns:xlink="&ns_xlink;" xmlns:a="http://ns.adobe.com/AdobeSVGViewerExtensions/3.0/"
	 width="194" height="288" viewBox="-0.769 0 194 288" enable-background="new -0.769 0 194 288" xml:space="preserve">
<defs>
</defs>
<path fill="#FFFFFF" d="M191.769,263.417c0,13.197-10.692,23.89-23.888,23.89H24.578c-13.189,0-23.884-10.692-23.884-23.89V24.578
	c0-13.189,10.695-23.884,23.884-23.884h143.304c13.195,0,23.888,10.695,23.888,23.884V263.417z"/>
<path d="M24.578,0C11.025,0,0,11.025,0,24.578v238.839C0,276.972,11.025,288,24.578,288h143.304
	c13.553,0,24.581-11.028,24.581-24.583V24.578c0-6.565-2.557-12.737-7.199-17.379C180.622,2.557,174.447,0,167.881,0H24.578z
	 M1.387,263.417V24.578c0-12.789,10.402-23.191,23.191-23.191h143.304c6.197,0,12.02,2.413,16.401,6.792
	c4.38,4.382,6.793,10.205,6.793,16.398v238.839c0,12.791-10.405,23.196-23.194,23.196H24.578
	C11.789,286.613,1.387,276.208,1.387,263.417z"/>
<path fill="#006F53" d="M167.881,6.665H24.578c-9.877,0-17.913,8.036-17.913,17.913v238.839c0,9.883,8.036,17.915,17.913,17.915
	h143.304c9.88,0,17.913-8.032,17.913-17.915V24.578C185.794,14.701,177.761,6.665,167.881,6.665 M178.829,263.417
	c0,6.042-4.907,10.949-10.947,10.949H24.578c-6.031,0-10.947-4.907-10.947-10.949V24.578c0-6.037,4.916-10.947,10.947-10.947
	h143.304c6.04,0,10.947,4.91,10.947,10.947V263.417z"/>
<path fill="#221E1F" d="M120.762,86.557c-4.295,2.264-7.328,3.017-13.898,3.017H87.903v26.882H73.75V44.6h33.872
	c6.067,0,9.101,0.753,13.141,3.017c6.825,4.019,11.126,11.305,11.126,19.345C131.888,75.252,127.587,82.792,120.762,86.557
	 M108.629,58.922H87.903v16.331h20.727c5.563,0,9.1-3.266,9.1-8.29C117.729,62.44,113.938,58.922,108.629,58.922"/>
<path fill-rule="evenodd" clip-rule="evenodd" fill="#006F53" d="M96.231,20.678c-32.89,0-59.71,26.82-59.71,59.71
	c0,32.884,26.82,59.707,59.71,59.707s59.71-26.823,59.71-59.707C155.941,47.498,129.121,20.678,96.231,20.678 M96.231,128.156
	c-26.379,0-47.766-21.39-47.766-47.769c0-26.384,21.387-47.769,47.766-47.769c26.384,0,47.769,21.385,47.769,47.769
	C144,106.767,122.615,128.156,96.231,128.156"/>
<path fill-rule="evenodd" clip-rule="evenodd" fill="#006F53" d="M135.135,235.161c-1.005-0.683-2.38-0.423-3.063,0.585
	c-0.477,0.704-0.371,1.376-0.119,2.286l1.966,6.581l-75.377,0.016l2.012-6.689c0.208-0.828,0.29-1.521-0.166-2.193
	c-0.682-1.002-2.058-1.268-3.063-0.585l-22.795,15.448l22.795,15.415c1.005,0.683,2.381,0.423,3.063-0.585
	c0.477-0.698,0.371-1.375,0.117-2.285l-1.963-6.581l75.377-0.017l-2.012,6.695c-0.212,0.823-0.29,1.517,0.165,2.188
	c0.683,1.008,2.058,1.268,3.063,0.585l22.796-15.442L135.135,235.161z"/>
<path fill="#006F53" d="M54.369,173.472c-0.067,6.587-2.348,9.88-6.841,9.88c-2.275,0-4.003-0.927-5.189-2.773
	c-1.105-1.723-1.657-4.09-1.657-7.106c0-3.997,0.748-6.587,2.234-7.778c-1.156-1.04-1.733-3.125-1.733-6.245
	c0-2.763,0.574-4.892,1.72-6.375c1.146-1.49,2.687-2.232,4.618-2.232c1.996,0,3.559,0.774,4.683,2.324
	c1.127,1.555,1.704,3.646,1.723,6.283c0.019,2.887-0.572,4.962-1.777,6.213c0.593,0.422,1.097,1.316,1.522,2.676
	C54.155,169.848,54.388,171.56,54.369,173.472 M50.22,173.461c0-3.781-0.899-5.677-2.692-5.677c-1.801,0-2.7,1.896-2.7,5.677
	c0,3.829,0.899,5.741,2.7,5.741C49.321,179.202,50.22,177.29,50.22,173.461 M49.917,159.442c0-2.968-0.799-4.458-2.392-4.458
	c-1.576,0-2.364,1.49-2.364,4.458c0,2.909,0.788,4.36,2.364,4.36C49.118,163.803,49.917,162.352,49.917,159.442"/>
<path fill="#006F53" d="M58.502,172.497c0-0.612,0.219-1.138,0.666-1.571c0.444-0.434,0.967-0.65,1.557-0.65
	c0.615,0,1.143,0.223,1.574,0.667c0.436,0.444,0.653,0.964,0.653,1.555c0,0.596-0.217,1.115-0.653,1.56
	c-0.431,0.444-0.959,0.666-1.574,0.666s-1.137-0.217-1.573-0.649C58.718,173.64,58.502,173.114,58.502,172.497 M58.502,181.125
	c0-0.617,0.219-1.143,0.666-1.576c0.444-0.433,0.967-0.649,1.557-0.649c0.615,0,1.143,0.222,1.574,0.666
	c0.436,0.444,0.653,0.964,0.653,1.56c0,0.591-0.217,1.11-0.653,1.555c-0.431,0.444-0.959,0.672-1.574,0.672
	s-1.137-0.222-1.573-0.655C58.718,182.263,58.502,181.737,58.502,181.125"/>
<path fill="#006F53" d="M80.16,173.055c0,3.206-0.631,5.726-1.891,7.556c-1.262,1.826-2.955,2.741-5.075,2.741
	c-4.157,0-6.4-2.193-6.714-6.581h4.13c-0.021,1.619,0.84,2.432,2.579,2.432c1.882,0,2.825-1.793,2.825-5.384
	c0-2.763-0.506-4.588-1.53-5.481c-0.466-0.406-1.165-0.606-2.102-0.606h-1.146v-4.145c1.208,0,2.072-0.184,2.581-0.541
	c1.04-0.764,1.565-2.399,1.565-4.907c0-2.103-0.899-3.153-2.694-3.153c-0.507,0-0.948,0.228-1.327,0.672
	c-0.379,0.444-0.572,0.932-0.572,1.457h-4.146c0-1.018,0.3-2.102,0.894-3.244c1.059-2.021,2.779-3.028,5.151-3.028
	c1.95,0,3.561,0.661,4.834,1.978c1.338,1.381,2.004,3.239,2.004,5.573c0,3.592-0.767,5.932-2.292,7.015
	C79.188,166.489,80.16,169.041,80.16,173.055"/>
<path fill="#006F53" d="M84.298,167.097c0-6.246,0.536-10.541,1.62-12.878c1.04-2.251,2.941-3.378,5.701-3.378
	s4.675,1.159,5.736,3.473c1.059,2.318,1.593,6.575,1.593,12.783c0,6.288-0.545,10.589-1.628,12.907
	c-1.016,2.231-2.919,3.348-5.701,3.348c-2.819,0-4.75-1.138-5.779-3.412C84.81,177.664,84.298,173.385,84.298,167.097
	 M88.445,167.097c0,4.203,0.208,7.209,0.631,9.013c0.466,2.063,1.319,3.093,2.543,3.093c1.552,0,2.532-1.679,2.96-5.032
	c0.146-1.126,0.222-3.482,0.222-7.073c0-3.548-0.076-5.904-0.222-7.074c-0.428-3.358-1.409-5.038-2.96-5.038
	c-1.224,0-2.077,1.035-2.543,3.094C88.653,159.882,88.445,162.885,88.445,167.097"/>
<path fill="#006F53" d="M132.371,183.016h-4.269l-1.625-7.957h-5.414l-1.651,7.957h-4.239l6.527-31.844h4.144L132.371,183.016z
	 M125.622,170.909l-1.848-9.008l-1.879,9.008H125.622z"/>
<polygon fill="#006F53" points="152.444,183.016 148.298,183.016 148.298,164.545 144.65,176.012 141,164.545 141,183.016 
	136.853,183.016 136.853,151.172 140.988,151.172 144.65,162.952 148.593,151.172 152.444,151.172 "/>
<polygon fill="#006F53" points="32.069,199.108 28.085,199.108 28.085,226.804 23.938,226.804 23.938,199.108 19.958,199.108 
	19.958,194.959 32.069,194.959 "/>
<path fill="#006F53" d="M42.896,194.629c2.952,0,4.97,1.495,6.053,4.49c0.848,2.34,1.273,6.262,1.273,11.765
	c0,5.373-0.379,9.197-1.146,11.473c-1.081,3.185-3.142,4.777-6.18,4.777c-3.098,0-5.178-1.652-6.243-4.97
	c-0.72-2.229-1.083-5.993-1.083-11.28c0-5.4,0.458-9.316,1.37-11.765C38.07,196.124,40.053,194.629,42.896,194.629 M42.896,198.772
	c-1.246,0-2.118,1.116-2.605,3.348c-0.379,1.804-0.571,4.729-0.571,8.764c0,3.548,0.076,5.926,0.222,7.134
	c0.447,3.315,1.43,4.973,2.955,4.973c1.484,0,2.451-1.657,2.898-4.973c0.187-1.402,0.282-3.78,0.282-7.134
	c0-4.035-0.189-6.96-0.572-8.764C45.017,199.889,44.148,198.772,42.896,198.772"/>
<path fill="#006F53" d="M78.551,214.059c0,4.371-1.089,7.745-3.274,10.118c-1.825,1.972-4.033,2.957-6.622,2.957
	c-1.761,0-3.022-0.487-3.784-1.468l2.126-3.607c0.509,0.623,1.124,0.932,1.844,0.932c1.845,0,3.285-1.105,4.325-3.31
	c0.829-1.717,1.238-3.603,1.238-5.66c0-3.033-0.991-4.55-2.987-4.55c-0.932,0-1.565,0.471-1.907,1.413l-4.355-0.704l0.604-15.221
	h12.006v4.149h-7.927l-0.29,6.3c0.469-0.108,1.116-0.163,1.942-0.163C76.2,205.245,78.551,208.181,78.551,214.059"/>
<path fill="#006F53" d="M82.703,216.284c0-0.612,0.222-1.138,0.669-1.57c0.444-0.434,0.961-0.65,1.555-0.65
	c0.617,0,1.14,0.222,1.573,0.666c0.439,0.444,0.653,0.965,0.653,1.555c0,0.596-0.214,1.116-0.653,1.561
	c-0.433,0.443-0.956,0.666-1.573,0.666c-0.615,0-1.138-0.217-1.571-0.65C82.92,217.428,82.703,216.902,82.703,216.284
	 M82.703,224.913c0-0.617,0.222-1.143,0.669-1.576c0.444-0.434,0.961-0.65,1.555-0.65c0.617,0,1.14,0.223,1.573,0.666
	c0.439,0.444,0.653,0.965,0.653,1.561c0,0.59-0.214,1.11-0.653,1.555c-0.433,0.444-0.956,0.666-1.573,0.666
	c-0.615,0-1.138-0.217-1.571-0.65C82.92,226.051,82.703,225.525,82.703,224.913"/>
<path fill="#006F53" d="M104.367,216.842c0,3.207-0.634,5.726-1.898,7.551c-1.26,1.831-2.949,2.741-5.075,2.741
	c-4.157,0-6.392-2.188-6.714-6.576h4.135c-0.021,1.62,0.834,2.433,2.573,2.433c1.888,0,2.833-1.793,2.833-5.384
	c0-2.763-0.512-4.588-1.53-5.482c-0.471-0.406-1.173-0.606-2.107-0.606h-1.148v-4.144c1.213,0,2.072-0.185,2.583-0.542
	c1.04-0.764,1.565-2.399,1.565-4.907c0-2.102-0.898-3.152-2.689-3.152c-0.509,0-0.951,0.222-1.333,0.672
	c-0.382,0.444-0.571,0.932-0.571,1.457h-4.146c0-1.019,0.298-2.102,0.891-3.25c1.062-2.015,2.779-3.022,5.156-3.022
	c1.95,0,3.562,0.655,4.834,1.977c1.335,1.382,2.001,3.239,2.001,5.574c0,3.591-0.764,5.931-2.291,7.015
	C103.386,210.277,104.367,212.828,104.367,216.842"/>
<path fill="#006F53" d="M108.5,210.884c0-6.251,0.539-10.54,1.625-12.875c1.04-2.253,2.938-3.38,5.701-3.38
	c2.76,0,4.666,1.159,5.728,3.472c1.062,2.318,1.593,6.576,1.593,12.783c0,6.289-0.542,10.587-1.622,12.908
	c-1.021,2.231-2.917,3.342-5.698,3.342c-2.825,0-4.753-1.132-5.782-3.407C109.014,221.452,108.5,217.173,108.5,210.884
	 M112.643,210.884c0,4.203,0.211,7.21,0.64,9.014c0.466,2.063,1.311,3.093,2.543,3.093c1.544,0,2.532-1.68,2.954-5.032
	c0.146-1.127,0.223-3.488,0.223-7.074c0-3.548-0.076-5.909-0.223-7.074c-0.422-3.357-1.41-5.037-2.954-5.037
	c-1.232,0-2.077,1.034-2.543,3.093C112.854,203.669,112.643,206.676,112.643,210.884"/>
<path fill="#006F53" d="M152.417,204.232c0,3.591-1.103,6.137-3.307,7.648c-1.232,0.828-2.495,1.24-3.789,1.24h-2.446v13.683h-4.144
	v-31.845h6.359c1.558,0,2.896,0.374,4.014,1.116C151.315,197.543,152.417,200.262,152.417,204.232 M148.274,204.232
	c0-3.548-1.063-5.254-3.183-5.124h-2.216v9.869h2.216C147.211,208.912,148.274,207.331,148.274,204.232"/>
<polygon fill="#006F53" points="172.502,226.804 168.358,226.804 168.358,208.333 164.708,219.8 161.062,208.333 161.062,226.804 
	156.913,226.804 156.913,194.959 161.051,194.959 164.708,206.74 168.656,194.959 172.502,194.959 "/>
</svg>
