<?xml version="1.0" encoding="utf-8"?>
<!-- Generator: Adobe Illustrator 12.0.1, SVG Export Plug-In  -->
<!DOCTYPE svg PUBLIC "-//W3C//DTD SVG 1.1//EN" "http://www.w3.org/Graphics/SVG/1.1/DTD/svg11.dtd" [
	<!ENTITY ns_flows "http://ns.adobe.com/Flows/1.0/">
	<!ENTITY ns_svg "http://www.w3.org/2000/svg">
	<!ENTITY ns_xlink "http://www.w3.org/1999/xlink">
]>
<svg  version="1.1" xmlns="&ns_svg;" xmlns:xlink="&ns_xlink;" xmlns:a="http://ns.adobe.com/AdobeSVGViewerExtensions/3.0/"
	 width="264" height="288" viewBox="-0.267 0 264 288" enable-background="new -0.267 0 264 288" xml:space="preserve">
<defs>
</defs>
<path fill="#FFFFFF" d="M0.699,263.396c0,6.293,2.466,12.508,6.942,16.965c4.457,4.469,10.666,6.939,16.951,6.939h214.258
	c6.321,0,12.388-2.471,16.86-6.939c4.455-4.457,7.059-10.639,7.059-16.965V24.564c0-6.25-2.646-12.415-7.059-16.839
	c-4.443-4.444-10.572-7.027-16.86-7.027H24.593c-6.318,0-12.478,2.537-16.951,7.027c-4.458,4.457-6.942,10.554-6.942,16.839V263.396
	z"/>
<path d="M24.593,0C18.086,0,11.728,2.635,7.145,7.231C2.605,11.773,0,18.091,0,24.564v238.832c0,6.571,2.605,12.936,7.147,17.459
	C11.676,285.395,18.034,288,24.593,288h214.258c6.579,0,12.741-2.537,17.354-7.145c4.615-4.618,7.262-10.98,7.262-17.459V24.564
	c0-6.386-2.646-12.704-7.262-17.333C251.609,2.635,245.283,0,238.851,0H24.593z M8.132,279.868
	c-4.279-4.265-6.734-10.269-6.734-16.472V24.564c0-6.107,2.455-12.065,6.734-16.346c4.324-4.337,10.323-6.822,16.461-6.822h214.258
	c6.067,0,12.032,2.488,16.368,6.822c4.354,4.367,6.852,10.325,6.852,16.346v238.832c0,6.11-2.498,12.115-6.852,16.472
	c-4.35,4.343-10.162,6.734-16.368,6.734H24.593C18.405,286.603,12.404,284.147,8.132,279.868z"/>
<path fill-rule="evenodd" clip-rule="evenodd" fill="#006F53" d="M6.646,263.396V24.564c0-4.692,1.942-9.248,5.284-12.548
	c3.377-3.34,7.916-5.123,12.663-5.123h214.261c4.703,0,9.256,1.8,12.58,5.123c3.346,3.33,5.143,7.872,5.143,12.548v238.832
	c0,4.738-1.781,9.329-5.143,12.696c-3.295,3.33-7.896,5.248-12.58,5.248H24.593c-5.926,0-11.594-3.036-14.89-7.957
	C7.554,270.187,6.886,267.14,6.646,263.396"/>
<path fill="#FFFFFF" d="M247.26,16.173c-2.229-2.226-5.235-3.519-8.407-3.519H90.389v71.504h-77.74v179.235
	c0,3.208,1.162,6.228,3.438,8.506c2.277,2.277,5.303,3.439,8.506,3.439h214.261c3.126,0,6.086-1.146,8.317-3.314
	c2.323-2.256,3.644-5.393,3.644-8.631V125.326v-17.168v-4.25v-7.053V24.562C250.813,21.413,249.493,18.402,247.26,16.173z"/>
<path fill="#FFFFFF" d="M29.976,71.44c0-6.4,1.28-11.12,4.32-16.4c4.72-7.84,11.44-12.72,21.28-15.36c6-1.68,8.08-3.6,8.08-6.8
	c0-3.92-3.76-6.24-10.56-6.24c-6.96,0-12,1.76-16.56,5.84l-6.56-7.28c6.24-5.44,13.92-8.32,22.56-8.32c12.64,0,20.72,6.24,20.72,16
	c0,4.48-1.92,8.64-5.44,11.68c-1.76,1.28-4.16,2.64-7.92,3.76c-7.2,2.08-9.2,2.96-12.4,5.84c-2.48,2.08-4,4.08-5.84,7.68h31.6v9.6
	H29.976z"/>
<path fill="#006F53" d="M138.659,44.773v-11.68h-9.76v11.68h-4.24v-26.8h4.24v10.8h9.76v-10.8h4.239v26.8H138.659z"/>
<path fill="#006F53" d="M164.818,42.253c-1.52,2.039-3.68,3-6.479,3c-3.76,0-6.12-1.521-7.72-4.801c-1.12-2.279-1.88-5.84-1.88-9.04
	c0-4.399,1.12-8.359,2.92-10.92c1.601-2.04,3.76-3,6.84-3c3.399,0,5.761,1.521,7.44,4.8c1.119,2.36,1.8,5.761,1.8,9.12
	C167.739,35.653,166.699,39.893,164.818,42.253z M161.898,23.893c-0.84-1.4-1.879-1.96-3.479-2.08c-0.08,0-0.159,0-0.239,0
	c-1.92,0-3.201,1.04-4.08,3.32c-0.681,1.6-1.041,4.04-1.041,6.279c0,2.841,0.561,5.761,1.601,7.44c0.84,1.4,1.96,2.08,3.68,2.08
	c1.96,0,3.2-1.04,4.12-3.4c0.561-1.399,1.04-4.04,1.04-6.12C163.499,28.413,162.939,25.693,161.898,23.893z"/>
<path fill="#006F53" d="M190.658,40.733c-1.4,2.64-4.6,4.521-7.88,4.521s-6.479-1.881-7.92-4.521c-0.72-1.6-1.2-3.479-1.2-5.56
	v-17.2h4.24v17.2c0,3.479,1.96,5.76,4.88,5.76s4.88-2.28,4.88-5.76v-17.2h4.24v17.2C191.898,37.253,191.418,39.133,190.658,40.733z"
	/>
<path fill="#006F53" d="M211.938,44.773l-4.319-11.68h-5.08v11.68h-4.24v-26.8h8.84c2.08,0,3.48,0.2,4.8,0.84
	c2.36,1.12,4.04,3.96,4.04,6.68c0,2.84-1.68,5.641-4.16,6.761l4.721,12.52H211.938z M210.059,22.693
	c-0.721-0.4-1.04-0.479-2.439-0.479h-5.08v6.56h5.08c1.319,0,1.76-0.08,2.439-0.44c1.04-0.6,1.68-1.72,1.68-2.84
	S211.099,23.253,210.059,22.693z"/>
<path fill="#006F53" d="M111.879,66.84c-1.24,0.56-2.84,0.92-4.92,0.92H102v11.68h-4.24v-26.8h9.2c2.16,0,3.6,0.2,4.92,0.84
	c2.32,1.12,4.12,3.96,4.12,6.68C116,62.999,114.2,65.8,111.879,66.84z M110.08,57.359c-0.76-0.4-1.24-0.479-2.56-0.479H102v6.56
	h5.52c1.32,0,1.8-0.08,2.56-0.44c0.92-0.479,1.6-1.72,1.6-2.84S111,57.92,110.08,57.359z"/>
<path fill="#006F53" d="M135.76,79.439l-2.64-7.52h-8.361l-2.64,7.52h-4.52l9.24-26.8h4.2l9.241,26.8H135.76z M128.999,60.079
	l-2.76,7.521h5.36L128.999,60.079z"/>
<path fill="#006F53" d="M157.96,79.439l-4.32-11.68h-5.08v11.68h-4.24v-26.8h8.84c2.08,0,3.48,0.2,4.801,0.84
	c2.359,1.12,4.039,3.96,4.039,6.68c0,2.84-1.68,5.641-4.159,6.761l4.72,12.52H157.96z M156.079,57.359
	c-0.72-0.4-1.039-0.479-2.439-0.479h-5.08v6.56h5.08c1.32,0,1.76-0.08,2.439-0.44c1.041-0.6,1.681-1.72,1.681-2.84
	S157.12,57.92,156.079,57.359z"/>
<path fill="#006F53" d="M180.919,79.439l-6.8-12.68l-2.8,3.479v9.2h-4.24v-26.8h4.24v10.64l8.439-10.64h5.48l-8.28,10.439
	l8.84,16.36H180.919z"/>
<path fill="#006F53" d="M190.399,79.439v-26.8h4.319v26.8H190.399z"/>
<path fill="#006F53" d="M215.599,79.439l-10.24-18.16v18.16h-4.24v-26.8h4.24l9.76,17.12V52.64h4.24v26.8H215.599z"/>
<path fill="#006F53" d="M234.958,79.92c-4.04,0-6.4-1.521-8-4.881c-1.12-2.359-1.76-5.68-1.76-8.96c0-4.319,1.199-8.56,3-10.92
	c1.6-1.96,3.84-3,6.88-3c4.12,0,6.56,1.721,8.36,5.92l-4.041,1.601c-1.119-2.32-2.279-3.2-4.319-3.2c-2.16,0-3.601,0.96-4.521,3.32
	c-0.68,1.6-1.039,4.04-1.039,6.279c0,2.841,0.479,5.641,1.319,7.36c0.841,1.48,2.08,2.16,3.681,2.16c2.72,0,4.68-1.72,4.68-4.16
	v-1.12h-4.881v-4.24h9.121v5.36C243.438,76.319,239.878,79.92,234.958,79.92z"/>
<path fill="#006F53" d="M46.117,131.458c-1.8,1.86-4.2,2.7-7.32,2.7c-3.96,0-6.78-1.439-8.76-4.26
	c-1.561-2.22-2.521-5.22-2.521-8.28c0-3.96,1.261-7.5,3.78-10.02c-2.1-2.28-3.24-5.101-3.24-8.34c0-6.24,4.38-10.74,10.74-10.74
	c6.181,0,10.561,4.5,10.561,10.74c0,3.24-1.08,6.18-3.24,8.34c2.58,2.399,3.84,6.06,3.84,10.02
	C49.957,125.399,48.518,129.179,46.117,131.458z M38.797,114.418c-3.359,0-5.64,2.82-5.64,7.2c0,4.08,2.28,6.9,5.64,6.9
	c3.36,0,5.641-2.82,5.641-6.9C44.438,117.239,42.157,114.418,38.797,114.418z M38.797,98.159c-2.939,0-5.1,2.16-5.1,5.1
	c0,3.24,2.16,5.34,5.1,5.34c2.82,0,4.92-2.101,4.92-5.34C43.717,100.319,41.617,98.159,38.797,98.159z"/>
<path fill="#006F53" d="M170.431,133.44l-3.24-4.5c3.42-2.58,7.08-7.5,8.46-11.28c-0.96,0.12-1.681,0.12-2.521,0.12
	c-6.899,0-11.279-4.92-11.279-12.72c0-7.56,4.38-12.54,11.279-12.54c7.32,0,11.16,4.98,11.16,14.4
	C184.29,116.82,179.19,126.54,170.431,133.44z M173.13,98.16c-3.539,0-5.64,2.7-5.64,6.9c0,4.38,2.101,7.081,5.64,7.081
	c3.36,0,5.641-2.521,5.641-6.48C178.771,101.16,176.49,98.16,173.13,98.16z"/>
<path fill="#006F53" d="M41.32,175.772v-15.52l-6.2,15.52l-6.2-15.52v15.52h-4.24v-26.8h4.24l6.2,15.04l6.2-15.04h4.24v26.8H41.32z"
	/>
<path fill="#006F53" d="M71.48,173.253c-1.52,2.039-3.68,3-6.48,3c-3.76,0-6.12-1.521-7.72-4.801c-1.12-2.279-1.88-5.84-1.88-9.04
	c0-4.399,1.12-8.359,2.92-10.92c1.6-2.04,3.76-3,6.84-3c3.4,0,5.76,1.521,7.44,4.801c1.12,2.359,1.8,5.76,1.8,9.119
	C74.4,166.652,73.36,170.893,71.48,173.253z M68.56,154.893c-0.84-1.4-1.88-1.96-3.48-2.08c-0.08,0-0.16,0-0.24,0
	c-1.92,0-3.2,1.04-4.08,3.32c-0.68,1.6-1.04,4.04-1.04,6.279c0,2.841,0.56,5.761,1.6,7.44c0.84,1.4,1.96,2.08,3.68,2.08
	c1.96,0,3.2-1.04,4.12-3.4c0.56-1.399,1.04-4.04,1.04-6.12C70.16,159.412,69.6,156.692,68.56,154.893z"/>
<path fill="#006F53" d="M98.8,175.772l-10.24-18.16v18.16h-4.24v-26.8h4.24l9.76,17.12v-17.12h4.24v26.8H98.8z"/>
<path fill="#006F53" d="M193.067,174.175c-1.48,1.319-3.561,2.08-5.84,2.08c-4.602,0-7.961-2.721-9.76-6.801l4.039-1.479
	c1.119,2.52,3.199,3.96,5.721,3.96c2.479,0,4.16-1.72,4.16-3.96c0-3.561-4.16-4.16-7.641-5.561c-1.6-0.64-5.16-2.239-5.16-6.68
	c0-5.24,3.561-7.24,8.359-7.24c3.76,0,6.32,2.16,7.641,5.48l-3.76,1.12c0,0-0.961-2.28-3.961-2.36c-0.119,0-0.199,0-0.279,0
	c-1.84,0-3.84,0.72-3.84,2.84c0,0.08,0,0.2,0,0.28c0.359,4.96,12.959,1.68,12.959,12.2
	C195.706,170.494,194.747,172.654,193.067,174.175z"/>
<path fill="#006F53" d="M216.026,175.774l-2.639-7.52h-8.361l-2.639,7.52h-4.521l9.24-26.8h4.201l9.238,26.8H216.026z
	 M209.267,156.414l-2.76,7.521h5.359L209.267,156.414z"/>
<path fill="#006F53" d="M232.587,152.734v23.04h-4.24v-23.04h-6.121v-3.76h16.561v3.76H232.587z"/>
<path fill="#006F53" d="M70.374,133.948l-1.41-5.49h-4.32l-1.319,5.49h-2.91l5.01-20.1h2.82l5.01,20.1H70.374z M66.774,119.848
	l-1.41,5.79h2.88L66.774,119.848z"/>
<path fill="#006F53" d="M76.224,134.158c-0.84,0-1.62-0.78-1.62-1.62c0-0.84,0.78-1.62,1.62-1.62s1.62,0.78,1.62,1.62
	C77.844,133.378,77.063,134.158,76.224,134.158z"/>
<path fill="#006F53" d="M91.163,133.948v-11.28l-3.72,11.28l-3.75-11.28v11.28h-2.88v-20.1h2.88l3.75,11.28l3.72-11.28h2.91v20.1
	H91.163z"/>
<path fill="#006F53" d="M98.663,134.158c-0.84,0-1.62-0.78-1.62-1.62c0-0.84,0.78-1.62,1.62-1.62s1.62,0.78,1.62,1.62
	C100.283,133.378,99.503,134.158,98.663,134.158z"/>
<path fill="#006F53" d="M203.641,125.128h-3.12v8.82h-2.88v-20.1h6c3.149,0,5.28,2.25,5.28,5.64
	C208.921,123.147,207.03,125.128,203.641,125.128z M203.491,116.667h-2.971v5.7h2.971c1.68,0,2.609-1.05,2.609-2.88
	C206.101,117.808,205.051,116.667,203.491,116.667z"/>
<path fill="#006F53" d="M211.89,134.158c-0.84,0-1.619-0.78-1.619-1.62c0-0.84,0.779-1.62,1.619-1.62c0.841,0,1.621,0.78,1.621,1.62
	C213.511,133.378,212.73,134.158,211.89,134.158z"/>
<path fill="#006F53" d="M226.83,133.948v-11.28l-3.72,11.28l-3.75-11.28v11.28h-2.881v-20.1h2.881l3.75,11.28l3.72-11.28h2.91v20.1
	H226.83z"/>
<path fill="#006F53" d="M234.329,134.158c-0.84,0-1.619-0.78-1.619-1.62c0-0.84,0.779-1.62,1.619-1.62
	c0.841,0,1.621,0.78,1.621,1.62C235.95,133.378,235.17,134.158,234.329,134.158z"/>
<rect x="11.244" y="185.439" fill="#006F53" width="241.824" height="4"/>
<path fill="#006F53" d="M31.044,209.441v-13.4h6.3v1.881h-4.38v3.38h2.78v1.84h-2.78v4.42h4.9v1.88H31.044z"/>
<path fill="#006F53" d="M46.365,209.441l-1.88-4.56l-1.88,4.56h-2.02l2.92-6.96l-2.72-6.44h2.02l1.68,4.04l1.7-4.04h2.02l-2.68,6.44
	l2.92,6.96H46.365z"/>
<path fill="#006F53" d="M57.104,199.621c-0.2-1.319-0.72-1.939-1.6-1.939c-1.56,0-2.12,1.22-2.12,4.7c0,3.859,0.66,5.42,2.3,5.42
	c1.12,0,1.42-0.94,1.42-1.94h1.92c-0.04,2.22-1.46,3.82-3.34,3.82c-2.86,0-4.14-2.3-4.14-7.24c0-4.34,1.36-6.64,4-6.64
	c1.08,0,2.02,0.479,2.64,1.359c0.5,0.66,0.7,1.24,0.84,2.46H57.104z"/>
<path fill="#006F53" d="M63.204,209.441v-13.4h6.3v1.881h-4.38v3.38h2.78v1.84h-2.78v4.42h4.9v1.88H63.204z"/>
<path fill="#006F53" d="M77.784,203.562h-2.08v5.88h-1.92v-13.4h4c2.1,0,3.52,1.5,3.52,3.761
	C81.304,202.241,80.044,203.562,77.784,203.562z M77.684,197.922h-1.98v3.8h1.98c1.12,0,1.74-0.7,1.74-1.92
	C79.424,198.682,78.724,197.922,77.684,197.922z"/>
<path fill="#006F53" d="M87.983,197.821v11.62h-1.94v-11.62h-2.44v-1.78h6.82v1.78H87.983z"/>
<path fill="#006F53" d="M108.043,209.441h-1.46l-3.38-13.4h1.94l2.2,8.7l2.22-8.7h1.92L108.043,209.441z"/>
<path fill="#006F53" d="M114.863,209.441v-13.4h6.3v1.881h-4.38v3.38h2.78v1.84h-2.78v4.42h4.9v1.88H114.863z"/>
<path fill="#006F53" d="M131.043,209.441v-6.06h-3.68v6.06h-1.92v-13.4h1.92v5.46h3.68v-5.46h1.92v13.4H131.043z"/>
<path fill="#006F53" d="M137.382,209.441v-13.4h1.881v13.4H137.382z"/>
<path fill="#006F53" d="M149.042,199.621c-0.199-1.319-0.719-1.939-1.6-1.939c-1.561,0-2.119,1.22-2.119,4.7
	c0,3.859,0.66,5.42,2.299,5.42c1.121,0,1.42-0.94,1.42-1.94h1.92c-0.039,2.22-1.459,3.82-3.34,3.82c-2.859,0-4.139-2.3-4.139-7.24
	c0-4.34,1.359-6.64,4-6.64c1.078,0,2.02,0.479,2.639,1.359c0.5,0.66,0.701,1.24,0.84,2.46H149.042z"/>
<path fill="#006F53" d="M155.142,209.441v-13.4h1.92v11.62h4.9v1.78H155.142z"/>
<path fill="#006F53" d="M165.343,209.441v-13.4h6.299v1.881h-4.379v3.38h2.779v1.84h-2.779v4.42h4.898v1.88H165.343z"/>
<path fill="#006F53" d="M179.022,209.682c-2.359,0-3.76-1.98-3.76-4.181h1.879c0,1.12,0.561,2.301,1.881,2.301
	c1.039,0,1.879-0.94,1.879-2.021c0-0.76-0.279-1.32-1.08-1.939c-0.279-0.28,0.48,0.239-2.26-1.601c-1.08-0.74-1.639-1.78-1.639-2.96
	c0-1.92,1.5-3.479,3.42-3.479c1.898,0,3.34,1.46,3.4,3.479h-1.842c-0.039-0.939-0.699-1.54-1.559-1.54c-0.881,0-1.58,0.66-1.58,1.54
	c0,0.66,0.279,1.04,1.26,1.601c2.58,1.5,3.721,2.96,3.721,4.899C182.743,207.941,181.083,209.682,179.022,209.682z"/>
<path fill="#006F53" d="M203.942,209.441h-1.641l-1.279-7l-1.26,7h-1.701l-2.119-13.4h1.879l1.141,7.141l1.301-7.141h1.52
	l1.26,7.141l1.18-7.141h1.881L203.942,209.441z"/>
<path fill="#006F53" d="M209.442,209.441v-13.4h1.879v13.4H209.442z"/>
<path fill="#006F53" d="M219.122,197.821v11.62h-1.939v-11.62h-2.441v-1.78h6.82v1.78H219.122z"/>
<path fill="#006F53" d="M230.501,209.441v-6.06h-3.68v6.06h-1.92v-13.4h1.92v5.46h3.68v-5.46h1.922v13.4H230.501z"/>
<path fill="#006F53" d="M29.535,258.441l-0.94-3.66h-2.88l-0.88,3.66h-1.94l3.34-13.4h1.88l3.34,13.4H29.535z M27.135,249.041
	l-0.94,3.86h1.92L27.135,249.041z"/>
<path fill="#006F53" d="M40.334,258.441l-1.78-6.3h-1.84v6.3h-1.92v-13.4h4c2.1,0,3.52,1.42,3.52,3.58c0,1.601-0.66,2.761-1.92,3.24
	l1.92,6.58H40.334z M38.694,246.922h-1.98v3.38h1.98c1.12,0,1.74-0.601,1.74-1.681C40.435,247.581,39.734,246.922,38.694,246.922z"
	/>
<path fill="#006F53" d="M46.074,258.441v-13.4h6.3v1.881h-4.38v3.38h2.78v1.84h-2.78v4.42h4.9v1.88H46.074z"/>
<path fill="#006F53" d="M62.254,258.441l-0.94-3.66h-2.88l-0.88,3.66h-1.94l3.34-13.4h1.88l3.34,13.4H62.254z M59.854,249.041
	l-0.94,3.86h1.92L59.854,249.041z"/>
<path fill="#006F53" d="M176.313,252.562h-2.08v5.88h-1.92v-13.4h4c2.1,0,3.52,1.5,3.52,3.761
	C179.832,251.241,178.572,252.562,176.313,252.562z M176.213,246.922h-1.98v3.8h1.98c1.119,0,1.739-0.7,1.739-1.92
	C177.952,247.682,177.253,246.922,176.213,246.922z"/>
<path fill="#006F53" d="M183.172,258.441v-13.4h6.3v1.881h-4.38v3.38h2.78v1.84h-2.78v4.42h4.9v1.88H183.172z"/>
<path fill="#006F53" d="M199.292,258.441l-1.78-6.3h-1.84v6.3h-1.92v-13.4h4c2.1,0,3.52,1.42,3.52,3.58
	c0,1.601-0.659,2.761-1.92,3.24l1.92,6.58H199.292z M197.652,246.922h-1.98v3.38h1.98c1.119,0,1.739-0.601,1.739-1.681
	C199.392,247.581,198.692,246.922,197.652,246.922z"/>
<path fill="#006F53" d="M211.933,258.441v-7.52l-2.48,7.52l-2.5-7.52v7.52h-1.92v-13.4h1.92l2.5,7.521l2.48-7.521h1.939v13.4
	H211.933z"/>
<path fill="#006F53" d="M218.292,258.441v-13.4h1.88v13.4H218.292z"/>
<path fill="#006F53" d="M227.972,246.821v11.62h-1.939v-11.62h-2.44v-1.78h6.82v1.78H227.972z"/>
<path fill="#006F53" d="M236.852,258.682c-2.359,0-3.76-1.98-3.76-4.181h1.88c0,1.12,0.561,2.301,1.88,2.301
	c1.04,0,1.881-0.94,1.881-2.021c0-0.76-0.28-1.32-1.08-1.939c-0.28-0.28,0.479,0.239-2.261-1.601c-1.08-0.74-1.64-1.78-1.64-2.96
	c0-1.92,1.5-3.479,3.42-3.479c1.9,0,3.34,1.46,3.4,3.479h-1.84c-0.04-0.939-0.7-1.54-1.561-1.54c-0.88,0-1.58,0.66-1.58,1.54
	c0,0.66,0.28,1.04,1.26,1.601c2.58,1.5,3.721,2.96,3.721,4.899C240.572,256.941,238.912,258.682,236.852,258.682z"/>
<circle fill="#F7921E" cx="125.733" cy="242.391" r="30.618"/>
<path fill="#FFFFFF" d="M131.648,232.248c-0.649-4.29-2.34-6.306-5.2-6.306c-5.07,0-6.89,3.966-6.89,15.275
	c0,12.545,2.145,17.615,7.475,17.615c3.64,0,4.615-3.055,4.615-6.305h6.24c-0.131,7.215-4.745,12.415-10.855,12.415
	c-9.295,0-13.455-7.476-13.455-23.53c0-14.105,4.42-21.58,13-21.58c3.51,0,6.565,1.56,8.58,4.42c1.625,2.145,2.275,4.03,2.73,7.995
	H131.648z"/>
<path fill="#006F53" d="M122.28,151.486v11.62h-1.94v-11.62h-2.44v-1.78h6.82v1.78H122.28z"/>
<path fill="#006F53" d="M133.661,163.106v-6.06h-3.681v6.06h-1.92v-13.4h1.92v5.46h3.681v-5.46h1.92v13.4H133.661z"/>
<path fill="#006F53" d="M145.54,163.106l-1.779-6.3h-1.842v6.3h-1.92v-13.4h4c2.102,0,3.521,1.42,3.521,3.58
	c0,1.601-0.66,2.761-1.92,3.24l1.92,6.58H145.54z M143.899,151.587h-1.98v3.38h1.98c1.121,0,1.74-0.601,1.74-1.681
	C145.64,152.246,144.94,151.587,143.899,151.587z"/>
<path fill="#006F53" d="M158.28,161.467c-0.66,1.08-1.92,1.88-3.201,1.88c-1.318,0-2.619-0.76-3.279-1.88
	c-0.379-0.721-0.52-1.28-0.52-2.36v-9.4h1.92v9.641c0,1.26,0.76,2.12,1.879,2.12c1.041,0,1.801-0.86,1.801-2.12v-9.641h1.92v9.4
	C158.8,160.187,158.659,160.746,158.28,161.467z"/>
<path fill="#006F53" d="M117.444,113.579v10.86h-2.54v-10.86h-4.601v-2.54h11.521v2.54H117.444z"/>
<path fill="#006F53" d="M132.163,124.68c-3.8,0-7-3.16-7-6.96c0-3.9,3.061-6.92,7-6.92c3.721,0,7,3.159,7,6.859
	C139.163,121.52,135.983,124.68,132.163,124.68z M136.624,117.72c0-2.4-2.021-4.32-4.461-4.32c-2.439,0-4.46,1.88-4.46,4.26
	c0,2.46,2.021,4.42,4.46,4.42c2.44,0,4.461-1.96,4.461-4.42V117.72z"/>
</svg>
