<?xml version="1.0" encoding="UTF-8" standalone="no"?>
<!-- Generator: Adobe Illustrator 14.0.0, SVG Export Plug-In  -->

<svg
   xmlns:dc="http://purl.org/dc/elements/1.1/"
   xmlns:cc="http://creativecommons.org/ns#"
   xmlns:rdf="http://www.w3.org/1999/02/22-rdf-syntax-ns#"
   xmlns:svg="http://www.w3.org/2000/svg"
   xmlns="http://www.w3.org/2000/svg"
   xmlns:sodipodi="http://sodipodi.sourceforge.net/DTD/sodipodi-0.dtd"
   xmlns:inkscape="http://www.inkscape.org/namespaces/inkscape"
   version="1.1"
   x="0px"
   y="0px"
   width="86.187477"
   height="128.96872"
   viewBox="0 -0.321 86.18748 128.96875"
   enable-background="new 0 -0.321 144 120"
   xml:space="preserve"
   id="svg2"
   inkscape:version="0.48.2 r9819"
   sodipodi:docname="MUTCD R7-107a.svg"><metadata
   id="metadata44"><rdf:RDF><cc:Work
       rdf:about=""><dc:format>image/svg+xml</dc:format><dc:type
         rdf:resource="http://purl.org/dc/dcmitype/StillImage" /><dc:title></dc:title></cc:Work></rdf:RDF></metadata><sodipodi:namedview
   pagecolor="#ffffff"
   bordercolor="#666666"
   borderopacity="1"
   objecttolerance="10"
   gridtolerance="10"
   guidetolerance="10"
   inkscape:pageopacity="0"
   inkscape:pageshadow="2"
   inkscape:window-width="1280"
   inkscape:window-height="1004"
   id="namedview42"
   showgrid="false"
   fit-margin-top="0"
   fit-margin-left="0"
   fit-margin-right="0"
   fit-margin-bottom="0"
   inkscape:zoom="5.0135337"
   inkscape:cx="63.59108"
   inkscape:cy="79.171077"
   inkscape:window-x="-8"
   inkscape:window-y="-8"
   inkscape:window-maximized="1"
   inkscape:current-layer="svg2" />
<defs
   id="defs4">
</defs>


















<path
   d="m 0.34691642,117.5977 c 0,2.8175 1.10374978,5.595 3.10624978,7.59 1.99375,2.0025 4.7725,3.105 7.5874988,3.105 l 64.10377,0 c 2.83,0 5.545,-1.1025 7.54625,-3.105 1.995,-1.995 3.1575,-4.76 3.1575,-7.59 l 0,-106.87503 c 0,-2.797501 -1.185,-5.556252 -3.1575,-7.536253 -1.9875,-1.9875 -4.73125,-3.1425 -7.54625,-3.1425 l -64.10377,0 c -2.8299988,0 -5.5862488,1.1325 -7.5874988,3.1425 -1.995,1.993751 -3.10624978,4.723752 -3.10624978,7.536253 l 0,106.87503 z"
   style="fill:#ffffff;stroke:#000000;stroke-width:0.70000017;stroke-linecap:butt;stroke-linejoin:miter;stroke-miterlimit:4;stroke-opacity:1;stroke-dasharray:none"
   id="path4175"
   inkscape:connector-curvature="0" /><path
   d="m 3.0081662,117.5977 0,-106.875031 c 0,-2.1 0.86875,-4.138751 2.36625,-5.615001 1.51125,-1.495 3.54,-2.292501 5.6637488,-2.292501 l 64.10877,0 c 2.105,0 4.14,0.805001 5.63,2.292501 1.49625,1.48875 2.3025,3.522501 2.3025,5.615001 l 0,106.875031 c 0,2.11875 -0.79875,4.175 -2.3025,5.68125 -1.475,1.48875 -3.5325,2.34875 -5.63,2.34875 l -64.10877,0 c -2.6512488,0 -5.1887488,-1.3575 -6.6624988,-3.5625 -0.9625,-1.43 -1.26,-2.7925 -1.3675,-4.4675"
   style="fill:#00674c;fill-opacity:1;fill-rule:evenodd;stroke:none"
   id="path4187"
   inkscape:connector-curvature="0" /><path
   d="m 5.6931662,48.13018 0,69.46752 c 0,1.435 0.52,2.785 1.54125,3.80625 1.0175,1.0175 2.37,1.5375 3.8037488,1.5375 l 64.10877,0 c 1.39875,0 2.725,-0.5125 3.72125,-1.48125 1.04,-1.01125 1.6325,-2.415 1.6325,-3.8625 l 0,-69.46752 -74.8075188,0 z"
   style="fill:#ffffff;fill-opacity:1;fill-rule:evenodd;stroke:none"
   id="path4191"
   inkscape:connector-curvature="0" /><path
   d="m 80.500685,10.722549 0,0 c 0,-1.40875 -0.5925,-2.75625 -1.59125,-3.755001 -0.99625,-0.99625 -2.34125,-1.575 -3.7625,-1.575 l -47.19502,0 0,40.835012 52.54877,0 0,-35.505011 z"
   style="fill:#ffffff;fill-opacity:1;fill-rule:evenodd;stroke:none"
   id="path4195"
   inkscape:connector-curvature="0" /><path
   d="m 7.4781662,40.22018 c 0.2,-3.8975 0.50125,-5.29875 1.40125,-7.79625 1.1987488,-3 2.6987488,-5.2975 4.5949988,-7.095 0.70125,-0.6 1.30125,-1.1 3.59875,-2.7 1.9,-1.29875 2.4,-1.99875 2.4,-3.39875 0,-2.19875 -1.8,-3.99625 -3.99875,-3.99625 -2.1975,0 -3.9975,1.7975 -3.9975,3.99625 l -3.9987488,0 c 0.1025,-4.49625 3.4987488,-7.995006 7.9962488,-7.995006 4.39625,0 7.895,3.598756 7.895,7.995006 0,2.2975 -0.80125,4.1 -2.3975,5.59625 -0.3,0.2 -0.6,0.4025 -0.90125,0.70125 l -0.9975,0.6975 -1.00125,0.70125 -1.09875,0.8 c -1.8,1.29875 -3.69625,3.8975 -4.4975,6.295 -0.3,0.7 -0.3975,1.2 -0.6,2.19875 l 11.49375,0 0,4 -15.8912488,0 z"
   style="fill:#ffffff;fill-opacity:1;fill-rule:nonzero;stroke:none"
   id="path4253"
   inkscape:connector-curvature="0" /><path
   d="m 52.263175,23.28643 0,-6.44625 -3.89625,0 0,6.44625 -2.04875,0 0,-14.241256 2.04875,0 0,5.796256 3.89625,0 0,-5.796256 2.04875,0 0,14.241256 -2.04875,0 z"
   style="fill:#00674c;fill-opacity:1;fill-rule:nonzero;stroke:none"
   id="path4199"
   inkscape:connector-curvature="0" /><path
   d="m 61.553175,11.045049 -2.0975,0 0,3.596251 2.0975,0 c 1.20125,0 1.85,-0.65 1.85,-1.8 0,-1.10125 -0.74875,-1.796251 -1.85,-1.796251 m 1.7475,12.241251 -1.89625,-6.6975 -1.94875,0 0,6.6975 -2.0475,0 0,-14.241251 4.245,0 c 2.24875,0 3.7475,1.49625 3.7475,3.796251 0,1.7 -0.7,2.95 -2.04875,3.4475 l 2.04875,6.9975 -2.1,0 z"
   style="fill:#00674c;fill-opacity:1;fill-rule:nonzero;stroke:none"
   id="path4203"
   inkscape:connector-curvature="0" /><path
   d="m 32.956925,30.41518 -0.99875,0 0,4.345 0.99875,0 c 1.09875,0 1.49875,-0.54875 1.49875,-2.0475 0,-1.6 -0.5,-2.2975 -1.49875,-2.2975 m 0,6.19375 -0.99875,0 0,6.19875 -1.79875,0 0,-14.24125 2.7975,0 c 0.79875,0 1.5475,0.1975 1.9975,0.59875 0.8,0.64875 1.35,1.99875 1.35,3.5475 0,2.35125 -1.35,3.89625 -3.3475,3.89625"
   style="fill:#00674c;fill-opacity:1;fill-rule:nonzero;stroke:none"
   id="path4207"
   inkscape:connector-curvature="0" /><path
   d="m 40.178175,33.41268 -0.7975,3.7475 1.5475,0 -0.75,-3.7475 z m 1.94875,9.395 -0.79875,-3.79625 -2.34875,0 -0.7975,3.79625 -1.84875,0 2.89875,-14.24125 1.8475,0 2.94625,14.24125 -1.89875,0 z"
   style="fill:#00674c;fill-opacity:1;fill-rule:nonzero;stroke:none"
   id="path4211"
   inkscape:connector-curvature="0" /><path
   d="m 47.871925,30.41518 -0.89875,0 0,3.89625 1.19875,0 c 0.99875,0 1.29875,-0.44875 1.29875,-1.7975 0,-1.60125 -0.34875,-2.09875 -1.59875,-2.09875 m 1.9475,5.2975 1.4475,7.095 -1.8475,0 -1.59625,-6.64625 -0.85,0 0,6.64625 -1.8,0 0,-14.24125 2.79875,0 c 2.1975,0 3.34625,1.3475 3.34625,3.9975 0,1.59875 -0.44875,2.5 -1.49875,3.14875"
   style="fill:#00674c;fill-opacity:1;fill-rule:nonzero;stroke:none"
   id="path4215"
   inkscape:connector-curvature="0" /><path
   d="m 57.160675,42.80768 -1.89625,-6.74875 -0.70125,1.40125 0,5.3475 -1.79625,0 0,-14.24125 1.79625,0 0,4.54625 2.24875,-4.54625 2.0975,0 -2.34625,4.895 2.54625,9.34625 -1.94875,0 z"
   style="fill:#00674c;fill-opacity:1;fill-rule:nonzero;stroke:none"
   id="path4219"
   inkscape:connector-curvature="0" /><path
   d="m 60.607925,28.5663 1.7975,0 0,14.24126 -1.7975,0 0,-14.24126 z"
   style="fill:#00674c;fill-opacity:1;fill-rule:nonzero;stroke:none"
   id="path4221"
   inkscape:connector-curvature="0" /><path
   d="m 69.348185,42.80768 -2.795,-8.445 0,8.445 -1.79876,0 0,-14.24125 1.79876,0 2.54625,7.095 0,-7.095 1.8,0 0,14.24125 -1.55125,0 z"
   style="fill:#00674c;fill-opacity:1;fill-rule:nonzero;stroke:none"
   id="path4225"
   inkscape:connector-curvature="0" /><path
   d="m 78.689435,41.40881 c -0.2975,0.99875 -1.2475,1.6475 -2.54625,1.6475 -1.45,0 -2.2975,-0.54875 -2.74875,-1.89875 -0.45,-1.3 -0.59875,-2.59875 -0.59875,-5.49625 0,-2.84876 0.14875,-4.09876 0.65,-5.44626 0.44875,-1.30125 1.29875,-1.85125 2.6975,-1.85125 1.59875,0 2.54625,1.00125 2.74625,2.74875 l -1.79625,0 c -0.1,-0.5975 -0.40125,-0.8975 -0.90125,-0.8975 -0.65,0 -1.09875,0.45125 -1.2475,1.39875 -0.2,1.1475 -0.3,2.09875 -0.3,4.04751 0,1.94875 0.1,2.8975 0.24875,4.09625 0.2,0.95 0.54875,1.45125 1.19875,1.45125 0.64875,0 1.00125,-0.60125 1.00125,-1.54875 l 0,-1.89875 -0.85,0 0,-1.85125 2.64625,0 0,3.65 c 0,0.65 -0.1,1.39875 -0.2,1.84875"
   style="fill:#00674c;fill-opacity:1;fill-rule:nonzero;stroke:none"
   id="path4229"
   inkscape:connector-curvature="0" /><path
   d="m 65.786925,72.23381 0,-14.24125 -1.7975,0 -1.69875,5.04875 -1.74875,-5.04875 -1.79625,0 0,14.24125 1.79625,0 0,-8.445 1.74875,5.34625 1.69875,-5.34625 0,8.445 1.7975,0 z m -12.0875,-5.645 -1.54875,0 0.79875,-3.7475 0.75,3.7475 z m 3.0975,5.645 -2.94625,-14.24125 -1.85125,0 -2.895,14.24125 1.84875,0 0.7975,-3.79625 2.34875,0 0.79875,3.79625 1.89875,0 z m -13.1875,-7.14625 c 0,1.0525 0.2,5.4975 -1.4,5.4975 -1.6475,0 -1.49625,-4.49625 -1.49625,-5.4975 0,-0.99875 -0.15125,-5.44375 1.49625,-5.495 1.64875,0.0512 1.4,4.49625 1.4,5.495 m 1.89625,0 c 0,-2.4975 0.2025,-7.34375 -3.29625,-7.34375 -3.295,0 -3.34375,4.84625 -3.34375,7.34375 0,2.4 -0.20125,7.35625 3.34375,7.35625 3.49875,0 3.2475,-4.95625 3.29625,-7.35625 m -8.48875,3.1525 c 0,-1.2525 -0.1,-2.2 -0.4,-2.90125 -0.14875,-0.3 -0.35,-0.54875 -0.69875,-0.9 0.55,-0.99875 0.75,-1.84875 0.75,-3.09875 0,-2.3975 -1.00125,-3.59625 -2.9475,-3.59625 -1.59875,0 -2.6975,1.05 -2.7975,2.7975 l 1.84875,0 c 0.0488,-0.6 0.3975,-0.94875 0.94875,-0.94875 0.7475,0 1.09625,0.54875 1.09625,1.7475 0,1.65 -0.34875,2.2 -1.3475,2.2 l -0.44875,0 0,1.85 0.5975,0 c 1.19875,0 1.55125,0.59875 1.55125,2.85 0,1.69625 -0.3525,2.39625 -1.3,2.39625 -0.6,0 -1.04875,-0.44875 -1.0975,-1.05125 l -1.84875,0 c 0,0.45125 0.14875,0.95125 0.44875,1.40125 0.59875,0.99875 1.4,1.50875 2.44625,1.50875 1.19875,0 1.8,-0.31 2.34875,-0.96 0.55,-0.6975 0.85,-1.89875 0.85,-3.295 m -12.13876,-0.1525 c 0,1.5975 -0.44875,2.54875 -1.19875,2.54875 -0.79875,0 -1.2475,-0.95125 -1.2475,-2.54875 0,-1.59875 0.44875,-2.44875 1.2475,-2.44875 0.75,0 1.19875,0.85 1.19875,2.44875 m -0.24875,-6.19875 c 0,1.30125 -0.3,1.9 -0.95,1.9 -0.6975,0 -0.99875,-0.59875 -0.99875,-1.9 0,-1.49625 0.30125,-2.29625 0.99875,-2.29625 0.65,0 0.95,0.8 0.95,2.29625 m 2.0975,6.19875 c 0,-1.49875 -0.40125,-2.64875 -1.09875,-3.54875 0.6,-0.65 0.84875,-1.54875 0.84875,-2.7475 0,-2.44875 -1.0975,-4.0475 -2.84625,-4.0475 -1.69875,0 -2.7975,1.59875 -2.7975,4.0475 0,1.25 0.24875,2.04875 0.84875,2.7475 -0.7,0.9 -1.0975,2.09875 -1.0975,3.54875 0,1.0475 0.24875,2.1 0.5975,2.8475 0.5,1.05 1.25,1.56 2.4975,1.56 0.95,0 1.64875,-0.35875 2.14875,-1.00875 0.54875,-0.74875 0.89875,-2.0475 0.89875,-3.39875"
   style="fill:#00674c;fill-opacity:1;fill-rule:evenodd;stroke:none"
   id="path4233"
   inkscape:connector-curvature="0" /><path
   d="m 23.191915,88.24394 c 0,0.9525 0.2,5.55001 -1.4,5.55001 -1.6475,0 -1.4475,-4.59751 -1.4475,-5.55001 0,-0.995 -0.2,-5.44375 1.4475,-5.44375 1.35,0 1.4,4.29625 1.4,5.44375 m 1.89875,0 c 0,-2.3975 0.2,-7.295 -3.29875,-7.295 -3.495,0 -3.295,4.84875 -3.295,7.295 0,2.35125 -0.25,7.40751 3.295,7.40751 3.49875,0 3.29875,-5.05626 3.29875,-7.40751 m -8.19375,-5.24625 0,-1.8475 -5.3925,0 0,1.8475 1.7475,0 0,12.39251 1.7975,0 0,-12.39251 1.8475,0 z"
   style="fill:#00674c;fill-opacity:1;fill-rule:evenodd;stroke:none"
   id="path4237"
   inkscape:connector-curvature="0" /><path
   d="m 51.850675,88.24394 c 0,1.0525 0.1975,5.49876 -1.39875,5.49876 -1.6475,0 -1.49875,-4.49751 -1.49875,-5.49876 0,-0.995 -0.14875,-5.44375 1.49875,-5.495 1.6475,0.0513 1.39875,4.5 1.39875,5.495 m 1.8975,0 c 0,-2.4975 0.2,-7.34375 -3.29625,-7.34375 -3.29625,0 -3.3475,4.84625 -3.3475,7.34375 0,2.4 -0.2,7.35626 3.3475,7.35626 3.49625,0 3.2475,-4.95626 3.29625,-7.35626 m -8.49125,3.15 c 0,-1.25 -0.1,-2.1975 -0.4,-2.8975 -0.15,-0.30125 -0.35,-0.55 -0.69875,-0.90125 0.54875,-0.99625 0.75,-1.84875 0.75,-3.09625 0,-2.4 -0.99875,-3.59875 -2.9475,-3.59875 -1.59875,0 -2.6975,1.05 -2.7975,2.79875 l 1.8475,0 c 0.0512,-0.60125 0.40125,-0.95 0.95,-0.95 0.75,0 1.09875,0.55125 1.09875,1.75 0,1.64875 -0.34875,2.2 -1.3475,2.2 l -0.45125,0 0,1.84875 0.6,0 c 1.19875,0 1.5475,0.5975 1.5475,2.84625 0,1.69876 -0.34875,2.40001 -1.29875,2.40001 -0.5975,0 -1.0475,-0.45125 -1.09875,-1.05 l -1.8475,0 c 0,0.44875 0.14875,0.95 0.44875,1.39875 0.60125,1.00125 1.39875,1.50875 2.44875,1.50875 1.19875,0 1.7975,-0.31 2.34625,-0.95875 0.55,-0.70125 0.85,-1.9 0.85,-3.29876 m -9.79,-1.6475 c 0,-1.00125 -0.24875,-2 -0.65,-2.65 -0.54875,-0.9 -1.2475,-1.29875 -2.34625,-1.29875 -0.3,0 -0.54875,0.0487 -0.94875,0.1 l 0.0488,-2.9 3.49625,0 0,-1.8475 -5.245,0 -0.24875,6.89625 1.84875,0.1975 c 0.34875,-0.3975 0.5975,-0.5975 0.9975,-0.5975 0.75,0 1.19875,0.7 1.19875,1.79875 0,0.95 -0.24875,2.2 -0.5975,2.99876 -0.34875,0.95 -0.80125,1.35 -1.49875,1.35 -0.40125,0 -0.69875,-0.1 -1.19875,-0.4 l -0.95,1.59875 c 0.7,0.45875 1.39875,0.65875 2.14875,0.65875 1.3475,0 2.34625,-0.65875 3.04625,-1.9575 0.59875,-1.19875 0.89875,-2.59751 0.89875,-3.94751"
   style="fill:#00674c;fill-opacity:1;fill-rule:evenodd;stroke:none"
   id="path4241"
   inkscape:connector-curvature="0" /><path
   d="m 73.750685,95.39007 0,-14.24 -1.8,0 -1.69625,5.04625 -1.74875,-5.04625 -1.79875,0 0,14.24 1.79875,0 0,-8.445 1.74875,5.35 1.69625,-5.35 0,8.445 1.8,0 z m -10.84001,-10.0925 c 0,1.49875 -0.3975,2.05125 -1.49625,2.05125 l -0.99875,0 0,-4.35125 0.99875,0 c 0.9975,0 1.49625,0.70125 1.49625,2.3 m 1.8475,0 c 0,-1.55 -0.54875,-2.8975 -1.3475,-3.5475 -0.44875,-0.4 -1.19875,-0.6 -1.99625,-0.6 l -2.79875,0 0,14.24 1.8,0 0,-6.19375 0.99875,0 c 1.99625,0 3.34375,-1.55 3.34375,-3.89875"
   style="fill:#00674c;fill-opacity:1;fill-rule:evenodd;stroke:none"
   id="path4245"
   inkscape:connector-curvature="0" /><path
   d="m 26.289415,107.7202 1.025,-3.38 c 0.005,-0.0437 0.0125,-0.095 0.0125,-0.13875 0,-0.0588 -0.0125,-0.1075 -0.0125,-0.16125 -0.007,-0.17125 -0.0387,-0.315 -0.12625,-0.46375 -0.16125,-0.27125 -0.55875,-0.535 -0.89125,-0.44125 -0.14625,0.0412 -0.28625,0.1025 -0.4125,0.1825 l -10.535,7.16501 10.535,7.25875 c 0.1125,0.0763 0.28,0.1025 0.4125,0.1025 0.36125,0 0.67375,-0.085 0.87625,-0.395 0.105,-0.16125 0.13375,-0.3325 0.14125,-0.5225 0,-0.0325 0.01,-0.0437 0.0125,-0.0737 0.005,-0.0463 -0.007,-0.09 -0.0125,-0.13375 l -1.025,-3.4775 33.33751,0 -1.0225,3.4775 c -0.008,0.0438 -0.015,0.0875 -0.015,0.13375 0.007,0.0275 0.007,0.0438 0.015,0.0737 0,0.19 0.0362,0.35875 0.13875,0.5225 0.2075,0.3075 0.515,0.395 0.87625,0.395 0.1325,0 0.3025,-0.0262 0.4125,-0.1025 l 10.53501,-7.25875 -10.53501,-7.16501 c -0.12375,-0.08 -0.26375,-0.13875 -0.4125,-0.1825 -0.3325,-0.0888 -0.7275,0.17 -0.89125,0.44125 -0.0875,0.14875 -0.12375,0.2925 -0.12375,0.46375 -0.008,0.0513 -0.015,0.1025 -0.015,0.16125 0,0.0437 0.007,0.095 0.015,0.13875 l 1.0225,3.38 -33.33751,0 z"
   style="fill:#00674c;fill-opacity:1;fill-rule:evenodd;stroke:none"
   id="path4249"
   inkscape:connector-curvature="0" /><path
   d="m 30.224425,62.26894 c 0,-0.6 -0.44875,-1.05 -1.04875,-1.05 -0.55,0 -1.05,0.45 -1.05,1.05 0,0.59875 0.5,1.05 1.05,1.05 0.6,0 1.04875,-0.45125 1.04875,-1.05"
   style="fill:#00674c;fill-opacity:1;fill-rule:evenodd;stroke:none"
   id="path5197"
   inkscape:connector-curvature="0" /><path
   d="m 30.224425,67.96269 c 0,-0.60125 -0.44875,-1.05 -1.04875,-1.05 -0.55,0 -1.05,0.44875 -1.05,1.05 0,0.54875 0.5,1.0575 1.05,1.0575 0.6,0 1.04875,-0.50875 1.04875,-1.0575"
   style="fill:#00674c;fill-opacity:1;fill-rule:evenodd;stroke:none"
   id="path5201"
   inkscape:connector-curvature="0" /><path
   d="m 38.965675,85.45007 c 0,-0.6 -0.45,-1.05 -1.05,-1.05 -0.55,0 -1.05,0.45 -1.05,1.05 0,0.59875 0.5,1.05 1.05,1.05 0.6,0 1.05,-0.45125 1.05,-1.05"
   style="fill:#00674c;fill-opacity:1;fill-rule:evenodd;stroke:none"
   id="path5205"
   inkscape:connector-curvature="0" /><path
   d="m 38.965675,91.14394 c 0,-0.60125 -0.45,-1.05 -1.05,-1.05 -0.55,0 -1.05,0.44875 -1.05,1.05 0,0.54875 0.5,1.05626 1.05,1.05626 0.6,0 1.05,-0.50751 1.05,-1.05626"
   style="fill:#00674c;fill-opacity:1;fill-rule:evenodd;stroke:none"
   id="path5209"
   inkscape:connector-curvature="0" /></svg>