<?xml version="1.0" encoding="utf-8"?>
<!-- Generator: Adobe Illustrator 12.0.1, SVG Export Plug-In  -->
<!DOCTYPE svg PUBLIC "-//W3C//DTD SVG 1.1//EN" "http://www.w3.org/Graphics/SVG/1.1/DTD/svg11.dtd" [
	<!ENTITY ns_flows "http://ns.adobe.com/Flows/1.0/">
	<!ENTITY ns_svg "http://www.w3.org/2000/svg">
	<!ENTITY ns_xlink "http://www.w3.org/1999/xlink">
]>
<svg  version="1.1" xmlns="&ns_svg;" xmlns:xlink="&ns_xlink;" xmlns:a="http://ns.adobe.com/AdobeSVGViewerExtensions/3.0/"
	 width="288" height="194" viewBox="0 -0.766 288 194" enable-background="new 0 -0.766 288 194" xml:space="preserve">
<defs>
</defs>
<path fill="#FFFFFF" d="M0.698,167.883V24.584c0-13.157,10.729-23.886,23.883-23.886h238.837c13.153,0,23.883,10.729,23.883,23.886
	v143.299c0,13.158-10.729,23.887-23.883,23.887H24.582C11.591,191.77,0.698,180.877,0.698,167.883"/>
<path fill="#FFFFFF" d="M1.396,24.584v143.299c0,12.57,10.617,23.188,23.185,23.188h238.837c6.176,0,11.994-2.416,16.381-6.803
	c4.387-4.389,6.804-10.207,6.804-16.385V24.584c0-6.176-2.417-11.995-6.804-16.384c-4.387-4.387-10.205-6.804-16.381-6.804H24.582
	C11.798,1.396,1.396,11.798,1.396,24.584z"/>
<path d="M0,24.584v143.299c0,13.326,11.258,24.586,24.582,24.586h238.837c6.55,0,12.715-2.563,17.368-7.213
	c4.651-4.652,7.213-10.822,7.213-17.373V24.584c0-6.55-2.562-12.718-7.213-17.372C276.134,2.562,269.969,0,263.419,0H24.582
	C11.026,0,0,11.028,0,24.584z M263.419,1.396c6.176,0,11.994,2.417,16.381,6.804c4.387,4.389,6.804,10.208,6.804,16.384v143.299
	c0,6.178-2.417,11.996-6.804,16.385c-4.387,4.387-10.205,6.803-16.381,6.803H24.582c-12.568,0-23.185-10.617-23.185-23.188V24.584
	c0-12.786,10.402-23.188,23.185-23.188H263.419z"/>
<path fill-rule="evenodd" clip-rule="evenodd" fill="#006F53" d="M6.667,167.811V24.663c0.041-9.87,8.14-17.931,17.991-17.993
	H263.34c9.858,0.063,17.938,8.123,17.993,17.993v143.147c-0.055,9.842-8.135,17.955-17.993,17.988H24.658
	C14.807,185.766,6.708,177.652,6.667,167.811"/>
<path fill="#FFFFFF" d="M263.252,13.645H72.651v73.908H13.643v80.17c0.035,6.141,4.957,11.07,11.103,11.1h238.507
	c6.119-0.029,11.108-4.959,11.103-11.1V24.748C274.36,18.604,269.371,13.678,263.252,13.645z"/>
<path fill-rule="evenodd" clip-rule="evenodd" fill="#006F53" d="M105.055,132.698c0.242-0.16,0.604-0.226,0.893-0.226
	c0.78,0,1.45,0.19,1.896,0.857c0.228,0.351,0.288,0.727,0.303,1.136c0.004,0.065,0.022,0.093,0.027,0.158
	c0.014,0.093-0.014,0.19-0.027,0.288l-2.217,7.518h76.144l-1.988-7.518c-0.047-0.049-0.098-0.081-0.113-0.142
	c-0.049-0.098-0.08-0.195-0.111-0.305c0.047-0.43,0.145-0.824,0.414-1.18c0.475-0.655,1.129-0.846,1.91-0.813
	c0.256,0.019,0.561,0.084,0.764,0.226l22.785,15.702l-22.785,15.487c-0.318,0.226-0.541,0.335-0.938,0.409
	c-0.672,0.148-1.402-0.377-1.787-0.916c-0.219-0.315-0.332-0.655-0.363-1.048c0.031-0.127,0.031-0.276,0.094-0.401
	c0.033-0.098,0.084-0.177,0.131-0.251l1.988-7.313h-76.144l2.217,7.313c0.014,0.093,0.027,0.207,0.027,0.297
	c0,0.126-0.023,0.242-0.027,0.355c-0.01,0.36-0.084,0.677-0.27,0.999c-0.354,0.6-1.213,1.155-1.947,0.955
	c-0.316-0.086-0.604-0.223-0.874-0.399L82.269,148.4L105.055,132.698"/>
<path fill="#006F53" d="M24.719,177.622l-0.864-2.104h-1.432v2.104h-0.96v-5.36h2.464c0.392,0,0.64,0.057,0.92,0.225
	c0.512,0.28,0.832,0.808,0.832,1.416c0,0.6-0.32,1.128-0.872,1.424l0.984,2.296H24.719z M23.942,173.222h-1.52v1.336h1.52
	c0.472,0,0.776-0.264,0.776-0.655C24.719,173.486,24.414,173.222,23.942,173.222z"/>
<path fill="#006F53" d="M30.134,173.862c-0.359,0.488-0.696,1.2-0.904,1.824c-0.208,0.64-0.279,1.128-0.296,1.936h-0.96
	c0.017-0.808,0.072-1.264,0.24-1.92c0.192-0.672,0.456-1.296,0.776-1.824c0.088-0.168,0.2-0.336,0.432-0.672h-3.048v-0.944h4.344
	v0.96C30.358,173.559,30.262,173.654,30.134,173.862z"/>
<path fill="#006F53" d="M31.414,175.462v-0.96h1.88v0.96H31.414z"/>
<path fill="#006F53" d="M34.687,177.622v-4.008h-0.68l-0.016-0.769c0.416-0.096,0.64-0.248,0.848-0.584h0.768v5.36H34.687z"/>
<path fill="#006F53" d="M38.839,177.718c-1.313,0-2.16-0.72-2.16-1.808c0-0.504,0.208-0.937,0.6-1.296
	c-0.336-0.4-0.432-0.624-0.432-0.977c0-0.888,0.808-1.472,1.992-1.472c1.208,0,2,0.584,2,1.472c0,0.353-0.097,0.576-0.416,0.977
	c0.392,0.359,0.584,0.792,0.584,1.296C41.007,177.19,39.951,177.718,38.839,177.718z M38.839,175.086c-0.769,0-1.2,0.296-1.2,0.824
	c0,0.264,0.152,0.528,0.392,0.68c0.152,0.088,0.488,0.152,0.809,0.152c0.456,0,0.735-0.064,0.928-0.232
	c0.185-0.168,0.28-0.376,0.28-0.6C40.047,175.382,39.614,175.086,38.839,175.086z M38.839,173.126c-0.656,0-1.032,0.192-1.032,0.488
	c0,0.32,0.376,0.512,1.032,0.512c0.664,0,1.04-0.191,1.04-0.512C39.879,173.318,39.503,173.126,38.839,173.126z"/>
<path fill="#006F53" d="M41.759,177.622c0-0.64,0.128-1.112,0.432-1.64c0.473-0.784,1.145-1.272,2.128-1.536
	c0.601-0.168,0.809-0.36,0.809-0.68c0-0.393-0.376-0.624-1.057-0.624c-0.695,0-1.199,0.176-1.655,0.584l-0.656-0.729
	c0.624-0.544,1.392-0.832,2.256-0.832c1.264,0,2.072,0.624,2.072,1.601c0,0.447-0.192,0.863-0.544,1.168
	c-0.176,0.128-0.416,0.264-0.792,0.376c-0.72,0.208-0.92,0.296-1.24,0.584c-0.248,0.208-0.4,0.407-0.584,0.768h3.16v0.96H41.759z"/>
<path fill="#006F53" d="M50.414,177.622l-0.864-2.104h-1.432v2.104h-0.96v-5.36h2.464c0.392,0,0.64,0.057,0.92,0.225
	c0.512,0.28,0.832,0.808,0.832,1.416c0,0.6-0.32,1.128-0.872,1.424l0.984,2.296H50.414z M49.638,173.222h-1.52v1.336h1.52
	c0.472,0,0.776-0.264,0.776-0.655C50.414,173.486,50.109,173.222,49.638,173.222z"/>
<path fill="#FFFFFF" d="M24.835,79.394c0.425-7.82,1.02-10.625,2.805-15.555c2.38-6.035,5.355-10.625,9.18-14.195
	c1.36-1.19,2.635-2.21,7.225-5.44c3.74-2.55,4.76-3.995,4.76-6.8c0-4.335-3.57-7.99-7.99-7.99s-7.99,3.655-7.99,7.99h-7.99
	c0.17-8.925,6.97-15.979,15.98-15.979c8.755,0,15.81,7.225,15.81,15.979c0,4.59-1.615,8.245-4.845,11.22
	c-0.595,0.425-1.19,0.765-1.785,1.36l-1.955,1.445L46,52.789l-2.21,1.615c-3.57,2.635-7.395,7.82-8.925,12.58
	c-0.68,1.445-0.85,2.38-1.275,4.42h23.035v7.99H24.835z"/>
<path fill="#006F53" d="M37.549,122.693v-23.45h11.025v3.29h-7.665v5.914h4.864v3.221h-4.864v7.734h8.574v3.291H37.549z"/>
<path fill="#006F53" d="M62.784,122.693l-3.29-7.98l-3.29,7.98h-3.535l5.11-12.18l-4.761-11.271h3.535l2.94,7.069l2.975-7.069h3.535
	l-4.69,11.271l5.11,12.18H62.784z"/>
<path fill="#006F53" d="M80.003,105.508c-0.35-2.311-1.26-3.395-2.8-3.395c-2.729,0-3.71,2.135-3.71,8.225
	c0,6.756,1.155,9.484,4.025,9.484c1.96,0,2.484-1.645,2.484-3.395h3.36c-0.07,3.885-2.555,6.686-5.845,6.686
	c-5.005,0-7.245-4.025-7.245-12.67c0-7.596,2.38-11.621,7-11.621c1.89,0,3.535,0.841,4.62,2.381c0.875,1.154,1.225,2.17,1.47,4.305
	H80.003z"/>
<path fill="#006F53" d="M89.104,122.693v-23.45h11.024v3.29h-7.665v5.914h4.865v3.221h-4.865v7.734h8.575v3.291H89.104z"/>
<path fill="#006F53" d="M113.043,112.402h-3.64v10.291h-3.36v-23.45h7c3.675,0,6.16,2.625,6.16,6.579
	C119.203,110.094,116.998,112.402,113.043,112.402z M112.868,102.533h-3.465v6.65h3.465c1.96,0,3.045-1.226,3.045-3.361
	C115.913,103.863,114.688,102.533,112.868,102.533z"/>
<path fill="#006F53" d="M129.318,102.357v20.336h-3.396v-20.336h-4.27v-3.114h11.935v3.114H129.318z"/>
<path fill="#006F53" d="M150.877,123.113c-4.13,0-6.579-3.465-6.579-7.314h3.29c0,1.959,0.979,4.023,3.289,4.023
	c1.82,0,3.29-1.645,3.29-3.535c0-1.33-0.489-2.309-1.89-3.395c-0.49-0.49,0.84,0.42-3.955-2.799c-1.89-1.295-2.87-3.115-2.87-5.181
	c0-3.36,2.625-6.091,5.985-6.091c3.325,0,5.845,2.556,5.95,6.091h-3.221c-0.069-1.646-1.225-2.695-2.729-2.695
	c-1.54,0-2.765,1.155-2.765,2.695c0,1.155,0.489,1.819,2.204,2.8c4.516,2.625,6.511,5.18,6.511,8.574
	C157.388,120.068,154.482,123.113,150.877,123.113z"/>
<path fill="#006F53" d="M174.642,119.822c-1.154,1.891-3.359,3.291-5.6,3.291c-2.311,0-4.585-1.33-5.74-3.291
	c-0.665-1.26-0.91-2.24-0.91-4.129v-16.45h3.36v16.87c0,2.205,1.33,3.709,3.29,3.709c1.82,0,3.149-1.504,3.149-3.709v-16.87h3.36
	v16.45C175.552,117.582,175.307,118.563,174.642,119.822z"/>
<path fill="#006F53" d="M192.317,122.693l-7.245-15.715v15.715h-3.36v-23.45h3.36l6.439,14.069V99.243h3.36v23.45H192.317z"/>
<path fill="#006F53" d="M210.831,121.607c-0.84,0.77-1.994,1.086-3.289,1.086h-6.511v-23.45h5.985c1.995,0,2.975,0.245,3.814,0.909
	c1.4,0.98,2.381,2.801,2.801,5.181c0.314,1.715,0.56,3.78,0.56,5.601C214.191,116.357,213.106,119.822,210.831,121.607z
	 M210.236,104.913c-0.56-1.646-1.54-2.38-3.045-2.38h-2.8v16.869h2.8c1.995,0,3.045-1.574,3.396-3.359
	c0.14-1.506,0.314-3.15,0.314-4.936C210.901,108.447,210.656,105.893,210.236,104.913z"/>
<path fill="#006F53" d="M229.661,122.693l-1.645-6.406h-5.04l-1.54,6.406h-3.395l5.845-23.45h3.29l5.845,23.45H229.661z
	 M225.462,106.243l-1.646,6.755h3.36L225.462,106.243z"/>
<path fill="#006F53" d="M244.606,112.088v10.605h-3.36v-10.605l-5.774-12.845h3.534l3.955,8.47l3.886-8.47h3.604L244.606,112.088z"
	/>
<path fill="#006F53" d="M81.645,176.684h-1.764v-4.021h1.764c1.116,0,2.016,0.9,2.016,2.005
	C83.661,175.783,82.761,176.684,81.645,176.684z M81.645,173.426h-1.002v2.496h1.002c0.69,0,1.242-0.564,1.242-1.254
	C82.887,173.989,82.335,173.426,81.645,173.426z"/>
<path fill="#006F53" d="M86.421,176.684v-4.021h3.204v0.763h-2.442v0.731h1.41v0.774h-1.41v0.99h2.496v0.762H86.421z"/>
<path fill="#006F53" d="M94.965,175.172h-1.764v1.512h-0.762v-4.021h2.526c0.69,0,1.254,0.564,1.254,1.255
	C96.219,174.607,95.655,175.172,94.965,175.172z M94.965,173.426h-1.764v0.99h1.764c0.27,0,0.48-0.229,0.48-0.498
	C95.445,173.653,95.235,173.426,94.965,173.426z"/>
<path fill="#006F53" d="M100.712,173.426v3.258h-0.762v-3.258h-1.38v-0.763h3.456v0.763H100.712z"/>
<path fill="#006F53" d="M109.725,176.756c-1.14,0-2.1-0.948-2.1-2.088c0-1.17,0.918-2.076,2.1-2.076c1.116,0,2.1,0.948,2.1,2.058
	C111.825,175.808,110.871,176.756,109.725,176.756z M111.063,174.668c0-0.721-0.606-1.297-1.338-1.297s-1.338,0.564-1.338,1.278
	c0,0.738,0.606,1.326,1.338,1.326s1.338-0.588,1.338-1.326V174.668z"/>
<path fill="#006F53" d="M115.347,173.426v0.731h1.494v0.774h-1.494v1.752h-0.762v-4.021h3.258v0.763H115.347z"/>
<path fill="#006F53" d="M128.229,173.426v3.258h-0.762v-3.258h-1.38v-0.763h3.456v0.763H128.229z"/>
<path fill="#006F53" d="M134.955,176.684l-0.888-1.512h-1.242v1.512h-0.762v-4.021h2.454c0.708,0,1.272,0.564,1.272,1.255
	c0,0.54-0.342,1.002-0.864,1.188l0.918,1.578H134.955z M134.517,173.426h-1.692v0.99h1.692c0.282,0,0.51-0.229,0.51-0.498
	C135.026,173.653,134.798,173.426,134.517,173.426z"/>
<path fill="#006F53" d="M141.915,176.684l-0.408-0.876h-2.046l-0.42,0.876h-0.846l1.902-4.021h0.762l1.908,4.021H141.915z
	 M140.48,173.636l-0.666,1.397h1.326L140.48,173.636z"/>
<path fill="#006F53" d="M148.299,176.684l-2.256-2.778v2.778h-0.763v-4.021h0.75l2.256,2.809v-2.809h0.774v4.021H148.299z"/>
<path fill="#006F53" d="M153.824,176.756c-0.822,0-1.398-0.168-2.004-0.606l0.438-0.624c0.48,0.324,0.9,0.45,1.537,0.45
	c0.678,0,1.043-0.15,1.043-0.462c0-0.168-0.156-0.342-0.384-0.426c-0.192-0.066-0.432-0.126-0.954-0.223
	c-0.611-0.126-0.906-0.239-1.115-0.449c-0.211-0.217-0.313-0.438-0.313-0.708c0-0.427,0.229-0.732,0.678-0.918
	c0.282-0.127,0.637-0.198,0.973-0.198c0.563,0,1.074,0.156,1.607,0.479l-0.408,0.637c-0.408-0.253-0.762-0.337-1.254-0.337
	c-0.563,0-0.834,0.097-0.834,0.324c0,0.349,0.732,0.408,0.99,0.45c0.462,0.084,0.912,0.222,1.17,0.354
	c0.366,0.197,0.594,0.605,0.594,1.044C155.588,176.306,154.934,176.756,153.824,176.756z"/>
<path fill="#006F53" d="M160.868,175.172h-1.764v1.512h-0.763v-4.021h2.526c0.69,0,1.255,0.564,1.255,1.255
	C162.123,174.607,161.559,175.172,160.868,175.172z M160.868,173.426h-1.764v0.99h1.764c0.271,0,0.479-0.229,0.479-0.498
	C161.348,173.653,161.139,173.426,160.868,173.426z"/>
<path fill="#006F53" d="M166.814,176.756c-1.141,0-2.1-0.948-2.1-2.088c0-1.17,0.918-2.076,2.1-2.076c1.115,0,2.1,0.948,2.1,2.058
	C168.914,175.808,167.961,176.756,166.814,176.756z M168.152,174.668c0-0.721-0.605-1.297-1.338-1.297s-1.338,0.564-1.338,1.278
	c0,0.738,0.605,1.326,1.338,1.326s1.338-0.588,1.338-1.326V174.668z"/>
<path fill="#006F53" d="M174.566,176.684l-0.889-1.512h-1.242v1.512h-0.762v-4.021h2.454c0.708,0,1.272,0.564,1.272,1.255
	c0,0.54-0.342,1.002-0.865,1.188l0.919,1.578H174.566z M174.128,173.426h-1.692v0.99h1.692c0.282,0,0.51-0.229,0.51-0.498
	C174.638,173.653,174.41,173.426,174.128,173.426z"/>
<path fill="#006F53" d="M179.947,173.426v3.258h-0.762v-3.258h-1.38v-0.763h3.456v0.763H179.947z"/>
<path fill="#006F53" d="M187.094,176.684l-0.408-0.876h-2.046l-0.42,0.876h-0.847l1.902-4.021h0.762l1.908,4.021H187.094z
	 M185.66,173.636l-0.666,1.397h1.326L185.66,173.636z"/>
<path fill="#006F53" d="M192.193,173.426v3.258h-0.762v-3.258h-1.38v-0.763h3.456v0.763H192.193z"/>
<path fill="#006F53" d="M196.027,176.684v-4.021h0.763c0,0,0.012,4.021,0,4.021C196.802,176.684,196.027,176.684,196.027,176.684z"
	/>
<path fill="#006F53" d="M201.65,176.756c-1.141,0-2.101-0.948-2.101-2.088c0-1.17,0.919-2.076,2.101-2.076
	c1.115,0,2.1,0.948,2.1,2.058C203.75,175.808,202.795,176.756,201.65,176.756z M202.988,174.668c0-0.721-0.607-1.297-1.338-1.297
	c-0.732,0-1.338,0.564-1.338,1.278c0,0.738,0.605,1.326,1.338,1.326c0.73,0,1.338-0.588,1.338-1.326V174.668z"/>
<path fill="#006F53" d="M209.527,176.684l-2.256-2.778v2.778h-0.762v-4.021h0.75l2.256,2.809v-2.809h0.773v4.021H209.527z"/>
<path fill="#006F53" d="M99.705,40.902v-5.84h-6.02v5.84h-2.4v-13.4h2.4v5.18h6.02v-5.18h2.4v13.4H99.705z"/>
<path fill="#006F53" d="M112.845,41.142c-3.94,0-5.68-3.58-5.68-6.96c0-4.28,2.16-6.92,5.68-6.92c3.3,0,5.56,2.78,5.56,6.86
	C118.405,38.322,116.245,41.142,112.845,41.142z M112.845,29.662c-2.02,0-3.24,1.7-3.24,4.52c0,2.86,1.22,4.56,3.24,4.56
	c2.54,0,3.16-2.5,3.16-4.56C116.005,31.362,114.865,29.662,112.845,29.662z"/>
<path fill="#006F53" d="M128.905,41.142c-3.14,0-5.4-2.36-5.4-5.64v-8h2.4v8c0,0.8,0.1,1.22,0.42,1.74c0.52,0.88,1.5,1.46,2.58,1.46
	s2.08-0.58,2.6-1.46c0.32-0.52,0.42-1,0.42-1.74v-8h2.4v8C134.325,38.782,132.064,41.142,128.905,41.142z"/>
<path fill="#006F53" d="M147.945,40.902l-2.16-5.26h-3.58v5.26h-2.4v-13.4h6.16c0.98,0,1.6,0.14,2.301,0.56
	c1.279,0.7,2.079,2.02,2.079,3.54c0,1.5-0.8,2.82-2.18,3.56l2.46,5.74H147.945z M146.005,29.902h-3.8v3.34h3.8
	c1.181,0,1.94-0.66,1.94-1.64C147.945,30.562,147.186,29.902,146.005,29.902z"/>
<path fill="#006F53" d="M170.584,35.122c-0.76,0.42-1.38,0.52-2.4,0.52h-3.819v5.26h-2.44v-13.4h6.26c1.021,0,1.641,0.14,2.4,0.56
	c1.26,0.7,2.061,2.02,2.061,3.54C172.645,33.002,171.844,34.422,170.584,35.122z M168.264,29.902h-3.899v3.34h3.899
	c1.18,0,1.98-0.66,1.98-1.64C170.244,30.562,169.443,29.902,168.264,29.902z"/>
<path fill="#006F53" d="M186.784,40.902l-1.32-3.16h-5.84l-1.3,3.16h-2.641l5.641-13.4h2.439l5.601,13.4H186.784z M182.544,30.842
	l-1.88,4.52h3.76L182.544,30.842z"/>
<path fill="#006F53" d="M201.804,40.902l-2.159-5.26h-3.58v5.26h-2.4v-13.4h6.16c0.979,0,1.6,0.14,2.3,0.56
	c1.28,0.7,2.079,2.02,2.079,3.54c0,1.5-0.799,2.82-2.18,3.56l2.461,5.74H201.804z M199.863,29.902h-3.799v3.34h3.799
	c1.181,0,1.94-0.66,1.94-1.64C201.804,30.562,201.044,29.902,199.863,29.902z"/>
<path fill="#006F53" d="M217.523,40.902l-3.42-6.96l-2.539,3.2v3.76h-2.4v-13.4h2.4v5.84l4.739-5.84h3.101l-3.561,4.38l4.42,9.02
	H217.523z"/>
<path fill="#006F53" d="M224.424,40.902v-13.4h2.4v13.4H224.424z"/>
<path fill="#006F53" d="M241.043,40.902l-6.379-9.22v9.22h-2.36v-13.4h2.36l6.14,8.84v-8.84h2.319v13.4H241.043z"/>
<path fill="#006F53" d="M259.043,34.222v1.74c0,2.92-2.359,5.18-5.32,5.18c-3.939,0-5.539-3.48-5.539-6.96
	c0-4.1,2.199-6.92,5.539-6.92c2.4,0,4.041,1.28,4.98,3.34l-2.439,0.84c-0.521-1.12-1.36-1.78-2.541-1.78
	c-1.879,0-3.139,1.88-3.139,4.52c0,2.16,0.659,4.56,3.139,4.56c1.32,0,2.5-0.9,2.82-2.12h-2.199v-2.4H259.043z"/>
<path fill="#006F53" d="M116.098,87.453l-2.346-4.14c3.68-2.898,5.612-5.382,7.452-9.384c-1.748,0.321-2.484,0.413-3.68,0.413
	c-5.75,0-10.488-4.186-10.488-9.384c0-5.29,4.646-9.43,10.488-9.43c5.934,0,10.488,4.231,10.488,9.844
	C128.012,73.836,123.228,82.577,116.098,87.453z M117.524,60.497c-3.036,0-5.52,1.978-5.52,4.462s2.484,4.416,5.52,4.416
	c3.128,0,5.612-1.932,5.612-4.416C123.136,62.567,120.56,60.497,117.524,60.497z"/>
<path fill="#006F53" d="M170.145,74.159v-4.876h12.811v4.876H170.145z"/>
<path fill="#006F53" d="M210.619,64.636c-2.715,4.509-4.738,9.706-5.75,14.675c-0.414,2.622-0.645,4.554-0.645,7.59h-4.968
	c0.092-7.13,1.426-13.064,4.462-19.597c1.059-2.346,2.346-4.646,3.45-6.348h-14.72v-4.876h20.884v4.876
	C212.229,62.336,211.585,62.981,210.619,64.636z"/>
<path fill="#006F53" d="M142.617,77.401l-1.452-4.136h-4.598l-1.453,4.136h-2.486l5.082-14.74h2.31l5.082,14.74H142.617z
	 M138.899,66.753l-1.519,4.136h2.948L138.899,66.753z"/>
<path fill="#006F53" d="M157.577,77.401v-8.536l-3.41,8.536l-3.41-8.536v8.536h-2.332v-14.74h2.332l3.41,8.272l3.41-8.272h2.332
	v14.74H157.577z"/>
<path fill="#006F53" d="M226.951,70.471c-0.683,0.308-1.563,0.506-2.706,0.506h-2.729v6.424h-2.332v-14.74h5.061
	c1.188,0,1.979,0.11,2.706,0.462c1.275,0.616,2.266,2.178,2.266,3.674C229.217,68.359,228.227,69.899,226.951,70.471z
	 M225.961,65.257c-0.418-0.22-0.683-0.264-1.408-0.264h-3.036v3.608h3.036c0.726,0,0.99-0.044,1.408-0.242
	c0.506-0.264,0.88-0.946,0.88-1.562C226.841,66.182,226.467,65.565,225.961,65.257z"/>
<path fill="#006F53" d="M241.647,77.401v-8.536l-3.41,8.536l-3.41-8.536v8.536h-2.332v-14.74h2.332l3.41,8.272l3.41-8.272h2.332
	v14.74H241.647z"/>
</svg>
