<?xml version="1.0" encoding="utf-8"?>
<!-- Generator: Adobe Illustrator 12.0.1, SVG Export Plug-In  -->
<!DOCTYPE svg PUBLIC "-//W3C//DTD SVG 1.1//EN" "http://www.w3.org/Graphics/SVG/1.1/DTD/svg11.dtd" [
	<!ENTITY ns_flows "http://ns.adobe.com/Flows/1.0/">
	<!ENTITY ns_svg "http://www.w3.org/2000/svg">
	<!ENTITY ns_xlink "http://www.w3.org/1999/xlink">
]>
<svg  version="1.1" xmlns="&ns_svg;" xmlns:xlink="&ns_xlink;" xmlns:a="http://ns.adobe.com/AdobeSVGViewerExtensions/3.0/"
	 width="194" height="288" viewBox="-0.764 0 194 288" enable-background="new -0.764 0 194 288" xml:space="preserve">
<defs>
</defs>
<path fill="#FFFFFF" d="M0.697,263.411c0,6.286,2.469,12.494,6.946,16.955c4.456,4.472,10.666,6.937,16.955,6.937h143.252
	c6.329,0,12.393-2.465,16.867-6.937c4.456-4.461,7.053-10.637,7.053-16.955V24.568c0-6.256-2.644-12.42-7.053-16.846
	c-4.442-4.442-10.576-7.023-16.867-7.023H24.599c-6.323,0-12.485,2.532-16.955,7.023c-4.46,4.456-6.946,10.554-6.946,16.846V263.411
	z"/>
<path fill="#FFFFFF" d="M167.851,1.398H24.599c-6.147,0-12.144,2.484-16.462,6.816c-4.285,4.277-6.739,10.239-6.739,16.354v238.843
	c0,6.193,2.454,12.192,6.739,16.457c4.266,4.284,10.264,6.735,16.462,6.735h143.252c6.217,0,12.03-2.391,16.37-6.735
	c4.354-4.354,6.854-10.352,6.854-16.457V24.568c0-6.024-2.5-11.981-6.854-16.354C179.89,3.882,173.929,1.398,167.851,1.398z"/>
<path d="M167.851,0H24.599C18.084,0,11.723,2.637,7.146,7.228C2.607,11.765,0,18.086,0,24.568v238.843
	c0,6.561,2.607,12.919,7.15,17.447c4.521,4.54,10.883,7.142,17.448,7.142h143.252c6.594,0,12.755-2.537,17.354-7.142
	c4.619-4.614,7.268-10.978,7.268-17.447V24.568c0-6.389-2.648-12.708-7.263-17.341C180.614,2.637,174.291,0,167.851,0z
	 M191.074,263.411c0,6.105-2.5,12.104-6.854,16.457c-4.34,4.345-10.153,6.735-16.37,6.735H24.599
	c-6.198,0-12.196-2.451-16.462-6.735c-4.285-4.265-6.739-10.264-6.739-16.457V24.568c0-6.115,2.454-12.076,6.739-16.354
	c4.318-4.333,10.314-6.816,16.462-6.816h143.252c6.078,0,12.039,2.484,16.37,6.816c4.354,4.373,6.854,10.33,6.854,16.354V263.411z"
	/>
<path fill-rule="evenodd" clip-rule="evenodd" fill="#006F53" d="M6.649,263.411V24.568c0-4.695,1.938-9.253,5.283-12.548
	c3.376-3.346,7.917-5.127,12.657-5.127H167.86c4.697,0,9.251,1.8,12.578,5.127c3.345,3.325,5.147,7.867,5.147,12.548v238.843
	c0,4.721-1.784,9.325-5.147,12.685c-3.295,3.322-7.895,5.253-12.578,5.253H24.59c-5.925,0-11.594-3.041-14.888-7.962
	C7.553,270.189,6.887,267.148,6.649,263.411"/>
<path fill="#FFFFFF" d="M179.822,24.568c0-3.152-1.32-6.164-3.55-8.392c-2.23-2.23-5.237-3.522-8.41-3.522H64.736V54H12.65v105.168
	h167.172V24.568z"/>
<path fill="#FFFFFF" d="M12.65,263.411c0,3.196,1.161,6.217,3.442,8.498c2.276,2.279,5.298,3.438,8.499,3.438h143.271
	c3.127,0,6.082-1.146,8.313-3.311c2.327-2.261,3.647-5.397,3.647-8.626v-98.228H12.65V263.411z"/>
<path fill="#FFFFFF" d="M27.036,46.5c0.1-3.9,0.95-7.05,2.8-10.25c1.4-2.55,3.55-4.7,5.9-6.45c0.6-0.35,1.05-0.7,1.5-1.05l1.8-0.95
	l1.65-0.95l1.6-0.9c1.3-0.85,2.25-2.25,2.25-3.65c0-2.5-2.8-4.5-6.1-4.5c-3.4,0-5.55,1.65-6.1,4.7l-5.3-1.15
	c1.15-5.55,5.5-8.95,11.4-8.95c6.35,0,11.4,4.5,11.4,10c0,2.6-1.2,5.2-3.4,7.15c-0.5,0.4-0.95,0.75-1.4,0.95l-1.65,1.05l-1.8,0.95
	l-1.65,0.95c-3.15,1.9-4.9,3.9-6.55,7.65h16.45v5.4H27.036z"/>
<path fill="#006F53" d="M88.992,49.5v-9.344H79.36V49.5h-3.84V28.06h3.84v8.288h9.632V28.06h3.84V49.5H88.992z"/>
<path fill="#006F53" d="M106.816,49.884c-6.305,0-9.088-5.728-9.088-11.136c0-6.848,3.455-11.072,9.088-11.072
	c5.279,0,8.896,4.448,8.896,10.976C115.712,45.372,112.256,49.884,106.816,49.884z M106.816,31.516c-3.232,0-5.184,2.72-5.184,7.232
	c0,4.576,1.951,7.296,5.184,7.296c4.063,0,5.056-4,5.056-7.296C111.872,34.236,110.048,31.516,106.816,31.516z"/>
<path fill="#006F53" d="M129.313,49.884c-5.024,0-8.641-3.776-8.641-9.023v-12.8h3.84v12.8c0,1.28,0.16,1.952,0.672,2.784
	c0.832,1.408,2.4,2.336,4.129,2.336c1.728,0,3.328-0.928,4.16-2.336c0.512-0.832,0.672-1.6,0.672-2.784v-12.8h3.84v12.8
	C137.984,46.108,134.368,49.884,129.313,49.884z"/>
<path fill="#006F53" d="M156.576,49.5l-3.456-8.416h-5.728V49.5h-3.84V28.06h9.855c1.568,0,2.56,0.224,3.68,0.896
	c2.048,1.12,3.328,3.232,3.328,5.664c0,2.4-1.28,4.512-3.488,5.696l3.936,9.184H156.576z M153.472,31.9h-6.079v5.344h6.079
	c1.888,0,3.104-1.056,3.104-2.624C156.576,32.956,155.359,31.9,153.472,31.9z"/>
<path fill="#006F53" d="M37.604,76.159c-1.178,0.532-2.698,0.874-4.674,0.874h-4.712v11.096h-4.028v-25.46h8.74
	c2.052,0,3.42,0.19,4.674,0.798c2.204,1.064,3.914,3.762,3.914,6.346C41.518,72.511,39.808,75.171,37.604,76.159z M35.894,67.153
	c-0.722-0.38-1.178-0.456-2.432-0.456h-5.244v6.232h5.244c1.254,0,1.71-0.076,2.432-0.418c0.874-0.456,1.52-1.634,1.52-2.698
	S36.768,67.685,35.894,67.153z"/>
<path fill="#006F53" d="M61.239,88.129l-2.508-7.144h-7.942l-2.508,7.144h-4.294l8.778-25.46h3.99l8.777,25.46H61.239z
	 M54.817,69.737l-2.622,7.144h5.092L54.817,69.737z"/>
<path fill="#006F53" d="M83.279,88.129l-4.104-11.096H74.35v11.096h-4.028v-25.46h8.398c1.976,0,3.306,0.19,4.56,0.798
	c2.242,1.064,3.838,3.762,3.838,6.346c0,2.698-1.596,5.358-3.952,6.422l4.484,11.894H83.279z M81.493,67.153
	c-0.684-0.38-0.988-0.456-2.318-0.456H74.35v6.232h4.825c1.255,0,1.673-0.076,2.318-0.418c0.988-0.57,1.596-1.634,1.596-2.698
	S82.481,67.685,81.493,67.153z"/>
<path fill="#006F53" d="M106.041,88.129L99.58,76.083l-2.659,3.306v8.74h-4.028v-25.46h4.028v10.108l8.019-10.108h5.205
	l-7.865,9.918l8.398,15.542H106.041z"/>
<path fill="#006F53" d="M115.996,88.129v-25.46h4.104v25.46H115.996z"/>
<path fill="#006F53" d="M140.887,88.129l-9.729-17.252v17.252h-4.027v-25.46h4.027l9.271,16.264V62.669h4.029v25.46H140.887z"/>
<path fill="#006F53" d="M160.229,88.585c-3.838,0-6.08-1.444-7.602-4.636c-1.063-2.242-1.672-5.396-1.672-8.512
	c0-4.104,1.141-8.132,2.852-10.374c1.52-1.862,3.646-2.85,6.535-2.85c3.914,0,6.232,1.634,7.941,5.624l-3.838,1.52
	c-1.064-2.204-2.166-3.04-4.104-3.04c-2.053,0-3.42,0.912-4.295,3.154c-0.645,1.52-0.986,3.838-0.986,5.966
	c0,2.698,0.455,5.358,1.254,6.992c0.797,1.406,1.975,2.052,3.496,2.052c2.584,0,4.445-1.634,4.445-3.952v-1.064h-4.637v-4.028h8.664
	v5.092C168.283,85.165,164.902,88.585,160.229,88.585z"/>
<path fill="#006F53" d="M35.931,107.677c-2.242,3.724-3.914,8.018-4.75,12.122c-0.342,2.166-0.532,3.762-0.532,6.27h-4.104
	c0.076-5.89,1.178-10.792,3.686-16.188c0.874-1.938,1.938-3.838,2.851-5.244h-12.16v-4.028h17.252v4.028
	C37.261,105.777,36.729,106.309,35.931,107.677z"/>
<path fill="#006F53" d="M58.958,126.069l-2.508-7.144h-7.942L46,126.069h-4.294l8.778-25.46h3.99l8.777,25.46H58.958z
	 M52.536,107.677l-2.622,7.144h5.092L52.536,107.677z"/>
<path fill="#006F53" d="M83.848,126.069v-14.744l-5.89,14.744l-5.89-14.744v14.744H68.04v-25.46h4.028l5.89,14.288l5.89-14.288
	h4.028v25.46H83.848z"/>
<path fill="#006F53" d="M92.664,115.543v-4.028h8.931v4.028H92.664z"/>
<path fill="#006F53" d="M114.515,126.525c-4.902,0-8.664-3.572-8.664-8.132c0-7.068,3.914-14.288,9.805-18.24l2.051,3.42
	c-3.115,2.394-4.711,4.446-6.232,7.676c1.445-0.266,2.053-0.266,3.041-0.266c4.711,0,8.664,3.458,8.664,7.752
	C123.179,123.105,119.417,126.525,114.515,126.525z M114.515,114.973c-2.508,0-4.561,1.71-4.561,3.686
	c0,2.052,2.053,3.762,4.561,3.762s4.635-1.71,4.635-3.762C119.149,116.683,117.099,114.973,114.515,114.973z"/>
<path fill="#006F53" d="M143.091,114.099c-1.178,0.532-2.699,0.874-4.674,0.874h-4.713v11.096h-4.027v-25.46h8.74
	c2.051,0,3.42,0.19,4.674,0.798c2.203,1.064,3.914,3.762,3.914,6.346C147.005,110.451,145.294,113.111,143.091,114.099z
	 M141.38,105.093c-0.721-0.38-1.178-0.456-2.432-0.456h-5.244v6.232h5.244c1.254,0,1.711-0.076,2.432-0.418
	c0.875-0.456,1.52-1.634,1.52-2.698S142.255,105.625,141.38,105.093z"/>
<path fill="#006F53" d="M167.522,126.069v-14.744l-5.889,14.744l-5.891-14.744v14.744h-4.027v-25.46h4.027l5.891,14.288
	l5.889-14.288h4.029v25.46H167.522z"/>
<path fill="#006F53" d="M27.388,152.135v-12.061h7.11v1.908h-5.202v2.952h3.51v1.945h-3.51v3.311h5.58v1.945H27.388z"/>
<path fill="#006F53" d="M42.562,152.135l-1.944-4.014l-1.944,4.014h-2.159l3.006-6.229l-2.79-5.832h2.16l1.728,3.6l1.729-3.6h2.159
	l-2.825,5.832l3.042,6.229H42.562z"/>
<path fill="#006F53" d="M51.525,152.35c-1.782,0-2.916-0.684-3.69-2.16c-0.54-1.061-0.882-2.592-0.882-4.104
	c0-1.908,0.504-3.816,1.351-4.878c0.72-0.882,1.728-1.35,3.096-1.35c1.818,0,2.952,0.774,3.763,2.466l-1.782,0.756
	c-0.666-1.026-1.063-1.278-1.98-1.278c-0.972,0-1.62,0.432-2.034,1.494c-0.306,0.72-0.468,1.764-0.468,2.79
	c0,1.314,0.288,2.629,0.756,3.385c0.433,0.629,0.973,0.936,1.818,0.936c0.81,0,1.404-0.432,1.872-1.404l1.818,0.684
	C54.441,151.451,53.254,152.35,51.525,152.35z"/>
<path fill="#006F53" d="M58.24,152.135v-12.061h7.109v1.908h-5.202v2.952h3.511v1.945h-3.511v3.311h5.58v1.945H58.24z"/>
<path fill="#006F53" d="M74.565,146.465c-0.558,0.252-1.278,0.414-2.214,0.414h-2.232v5.256h-1.907v-12.061h4.14
	c0.972,0,1.62,0.09,2.214,0.378c1.044,0.504,1.854,1.782,1.854,3.006C76.42,144.736,75.609,145.996,74.565,146.465z M73.756,142.198
	c-0.343-0.18-0.559-0.216-1.152-0.216h-2.484v2.952h2.484c0.594,0,0.81-0.036,1.152-0.198c0.414-0.216,0.72-0.774,0.72-1.278
	C74.476,142.954,74.17,142.45,73.756,142.198z"/>
<path fill="#006F53" d="M82.251,141.766v10.369h-1.908v-10.369h-2.754v-1.692h7.452v1.692H82.251z"/>
<path fill="#006F53" d="M86.211,147.148v-1.908h4.23v1.908H86.211z"/>
<path fill="#006F53" d="M98.882,151.414c-0.666,0.594-1.602,0.936-2.627,0.936c-2.07,0-3.582-1.223-4.393-3.059l1.818-0.666
	c0.504,1.133,1.439,1.781,2.574,1.781c1.115,0,1.871-0.773,1.871-1.781c0-1.603-1.871-1.873-3.438-2.503
	c-0.72-0.288-2.322-1.008-2.322-3.006c0-2.358,1.603-3.258,3.763-3.258c1.69,0,2.843,0.972,3.437,2.466l-1.691,0.504
	c0,0-0.432-1.026-1.781-1.062c-0.055,0-0.09,0-0.126,0c-0.828,0-1.729,0.324-1.729,1.278c0,0.036,0,0.09,0,0.126
	c0.162,2.232,5.831,0.756,5.831,5.49C100.069,149.758,99.638,150.73,98.882,151.414z"/>
<path fill="#006F53" d="M110.204,150.316c-0.631,1.188-2.07,2.033-3.547,2.033c-1.475,0-2.916-0.846-3.563-2.033
	c-0.324-0.721-0.541-1.566-0.541-2.502v-7.74h1.908v7.74c0,1.566,0.883,2.592,2.195,2.592c1.314,0,2.197-1.025,2.197-2.592v-7.74
	h1.908v7.74C110.763,148.75,110.546,149.596,110.204,150.316z"/>
<path fill="#006F53" d="M120.608,152.135l-4.609-8.172v8.172h-1.906v-12.061h1.906l4.393,7.704v-7.704h1.908v12.061H120.608z"/>
<path fill="#006F53" d="M125.757,152.26c-0.596,0-1.1-0.504-1.1-1.098s0.504-1.063,1.1-1.063c0.594,0,1.061,0.469,1.061,1.063
	S126.351,152.26,125.757,152.26z"/>
<path fill="#006F53" d="M128.149,147.148v-1.908h4.23v1.908H128.149z"/>
<path fill="#006F53" d="M140.948,152.135v-5.256h-4.393v5.256h-1.908v-12.061h1.908v4.86h4.393v-4.86h1.908v12.061H140.948z"/>
<path fill="#006F53" d="M153.169,151c-0.684,0.918-1.656,1.35-2.916,1.35c-1.691,0-2.754-0.684-3.473-2.16
	c-0.504-1.025-0.846-2.627-0.846-4.067c0-1.98,0.504-3.762,1.313-4.914c0.721-0.918,1.693-1.35,3.078-1.35
	c1.531,0,2.592,0.684,3.348,2.16c0.504,1.062,0.811,2.592,0.811,4.104C154.483,148.029,154.017,149.938,153.169,151z
	 M151.856,142.738c-0.379-0.63-0.848-0.882-1.566-0.936c-0.037,0-0.072,0-0.107,0c-0.865,0-1.441,0.468-1.838,1.494
	c-0.305,0.72-0.467,1.818-0.467,2.826c0,1.278,0.252,2.593,0.719,3.349c0.379,0.629,0.883,0.936,1.656,0.936
	c0.883,0,1.441-0.469,1.855-1.529c0.252-0.631,0.467-1.818,0.467-2.755C152.575,144.772,152.323,143.548,151.856,142.738z"/>
<path fill="#006F53" d="M157.599,152.135v-12.061h1.906v10.277h5.58v1.783H157.599z"/>
<path fill="#006F53" d="M35.151,231.871v-3.382l11.628-18.05H36.14v-4.028h16.34v2.394l-11.78,18.963h11.78v4.104H35.151z"/>
<path fill="#006F53" d="M73.417,229.477c-1.444,1.938-3.496,2.851-6.156,2.851c-3.572,0-5.813-1.444-7.334-4.56
	c-1.063-2.166-1.786-5.549-1.786-8.588c0-4.181,1.064-7.943,2.774-10.375c1.52-1.938,3.572-2.85,6.498-2.85
	c3.229,0,5.472,1.443,7.067,4.561c1.064,2.241,1.71,5.471,1.71,8.664C76.19,223.207,75.203,227.234,73.417,229.477z M70.643,212.035
	c-0.798-1.33-1.786-1.862-3.306-1.977c-0.076,0-0.152,0-0.229,0c-1.823,0-3.04,0.988-3.876,3.154
	c-0.646,1.52-0.987,3.838-0.987,5.967c0,2.697,0.531,5.471,1.52,7.067c0.798,1.33,1.862,1.976,3.496,1.976
	c1.862,0,3.04-0.988,3.914-3.229c0.532-1.33,0.988-3.838,0.988-5.813C72.163,216.329,71.631,213.745,70.643,212.035z"/>
<path fill="#006F53" d="M97.471,231.871l-9.728-17.252v17.252h-4.028v-25.46h4.028l9.271,16.265v-16.265h4.028v25.46H97.471z"/>
<path fill="#006F53" d="M109.022,231.871v-25.46h15.01v4.028h-10.98v6.231h7.41v4.104h-7.41v6.992h11.779v4.104H109.022z"/>
<path fill="#006F53" d="M155.079,213.479c-2.242,3.725-3.914,8.019-4.75,12.123c-0.342,2.166-0.533,3.762-0.533,6.27h-4.104
	c0.076-5.891,1.178-10.792,3.686-16.188c0.875-1.938,1.939-3.838,2.852-5.244h-12.16v-4.028h17.252v4.028
	C156.409,211.579,155.876,212.111,155.079,213.479z"/>
<path fill="#006F53" d="M27.721,196.903v-18.76h11.061v2.968h-8.092v4.592h5.46v3.024h-5.46v5.151h8.68v3.024H27.721z"/>
<path fill="#006F53" d="M52.025,196.903l-3.024-6.244l-3.023,6.244h-3.36l4.676-9.688l-4.34-9.072h3.36l2.688,5.6l2.688-5.6h3.359
	l-4.396,9.072l4.731,9.688H52.025z"/>
<path fill="#006F53" d="M66.669,197.239c-2.772,0-4.536-1.063-5.74-3.36c-0.84-1.651-1.372-4.031-1.372-6.384
	c0-2.968,0.784-5.936,2.1-7.588c1.12-1.372,2.688-2.1,4.816-2.1c2.828,0,4.592,1.204,5.852,3.836l-2.771,1.176
	c-1.036-1.596-1.652-1.988-3.08-1.988c-1.512,0-2.52,0.672-3.164,2.324c-0.476,1.12-0.728,2.744-0.728,4.34
	c0,2.044,0.447,4.088,1.176,5.265c0.672,0.979,1.512,1.455,2.828,1.455c1.26,0,2.184-0.672,2.912-2.184l2.827,1.064
	C71.205,195.839,69.356,197.239,66.669,197.239z"/>
<path fill="#006F53" d="M77.813,196.903v-18.76h11.06v2.968H80.78v4.592h5.46v3.024h-5.46v5.151h8.68v3.024H77.813z"/>
<path fill="#006F53" d="M103.908,188.083c-0.867,0.393-1.988,0.645-3.443,0.645h-3.473v8.176h-2.968v-18.76h6.44
	c1.512,0,2.52,0.14,3.443,0.588c1.625,0.784,2.885,2.771,2.885,4.676C106.793,185.396,105.533,187.355,103.908,188.083z
	 M102.648,181.447c-0.531-0.28-0.867-0.336-1.791-0.336h-3.865v4.592h3.865c0.924,0,1.26-0.056,1.791-0.308
	c0.645-0.336,1.121-1.204,1.121-1.988S103.293,181.84,102.648,181.447z"/>
<path fill="#006F53" d="M116.564,180.775v16.128h-2.969v-16.128h-4.283v-2.632h11.592v2.632H116.564z"/>
<path fill="#006F53" d="M142.408,196.455c-0.672,0.252-1.791,0.448-2.633,0.448h-7.111v-18.76h7.111
	c2.969,0,5.209,2.044,5.209,4.731c0,1.849-0.867,3.221-2.633,4.229c1.961,0.924,3.08,2.492,3.08,4.536
	S144.172,195.728,142.408,196.455z M139.973,181.111h-4.34v4.592h3.555c0.84,0,1.232-0.111,1.766-0.504
	c0.672-0.532,1.063-1.315,1.063-2.184C142.016,181.756,141.289,181.111,139.973,181.111z M140.617,188.867
	c-0.393-0.14-0.59-0.14-1.232-0.14h-3.752v5.151h4.479c1.514,0,2.297-0.728,2.297-2.184
	C142.408,190.463,141.68,189.26,140.617,188.867z"/>
<path fill="#006F53" d="M158.227,188.728v8.176h-2.967v-8.176l-6.58-10.584h3.557l4.479,7.252l4.537-7.252h3.5L158.227,188.728z"/>
<path fill="#006F53" d="M61.209,253.332c-0.868,0.393-1.988,0.645-3.444,0.645h-3.472v8.176h-2.968v-18.76h6.44
	c1.512,0,2.52,0.14,3.444,0.588c1.624,0.784,2.884,2.771,2.884,4.676C64.093,250.645,62.833,252.604,61.209,253.332z
	 M59.949,246.696c-0.532-0.28-0.868-0.336-1.792-0.336h-3.864v4.592h3.864c0.924,0,1.26-0.056,1.792-0.308
	c0.644-0.336,1.12-1.204,1.12-1.988S60.593,247.089,59.949,246.696z"/>
<path fill="#006F53" d="M68.265,262.152v-18.76h11.06v2.968h-8.092v4.592h5.46v3.024h-5.46v5.151h8.68v3.024H68.265z"/>
<path fill="#006F53" d="M94.024,262.152L91,253.977h-3.556v8.176h-2.968v-18.76h6.188c1.456,0,2.437,0.14,3.36,0.588
	c1.651,0.784,2.828,2.771,2.828,4.676c0,1.988-1.177,3.948-2.912,4.732l3.304,8.764H94.024z M92.708,246.696
	c-0.504-0.28-0.728-0.336-1.708-0.336h-3.556v4.592H91c0.924,0,1.232-0.056,1.708-0.308c0.729-0.42,1.177-1.204,1.177-1.988
	S93.437,247.089,92.708,246.696z"/>
<path fill="#006F53" d="M113.456,262.152v-10.864l-4.34,10.864l-4.34-10.864v10.864h-2.968v-18.76h2.968l4.34,10.527l4.34-10.527
	h2.968v18.76H113.456z"/>
<path fill="#006F53" d="M122.304,262.152v-18.76h3.023v18.76H122.304z"/>
<path fill="#006F53" d="M136.808,246.024v16.128h-2.968v-16.128h-4.284v-2.632h11.592v2.632H136.808z"/>
</svg>
