<?xml version="1.0" encoding="utf-8"?>
<!-- Generator: Adobe Illustrator 12.0.1, SVG Export Plug-In  -->
<!DOCTYPE svg PUBLIC "-//W3C//DTD SVG 1.1//EN" "http://www.w3.org/Graphics/SVG/1.1/DTD/svg11.dtd" [
	<!ENTITY ns_flows "http://ns.adobe.com/Flows/1.0/">
	<!ENTITY ns_svg "http://www.w3.org/2000/svg">
	<!ENTITY ns_xlink "http://www.w3.org/1999/xlink">
]>
<svg  version="1.1" xmlns="&ns_svg;" xmlns:xlink="&ns_xlink;" xmlns:a="http://ns.adobe.com/AdobeSVGViewerExtensions/3.0/"
	 width="194" height="288" viewBox="-0.764 0 194 288" enable-background="new -0.764 0 194 288" xml:space="preserve">
<defs>
</defs>
<path fill="#FFFFFF" d="M0.697,263.411c0,6.286,2.469,12.494,6.946,16.955c4.456,4.472,10.666,6.937,16.955,6.937h143.252
	c6.329,0,12.393-2.465,16.867-6.937c4.456-4.461,7.053-10.637,7.053-16.955V24.568c0-6.256-2.644-12.42-7.053-16.846
	c-4.442-4.442-10.576-7.023-16.867-7.023H24.599c-6.323,0-12.485,2.532-16.955,7.023c-4.46,4.456-6.946,10.554-6.946,16.846V263.411
	z"/>
<path fill="#FFFFFF" d="M167.851,1.398H24.599c-6.147,0-12.144,2.484-16.462,6.816c-4.285,4.277-6.739,10.239-6.739,16.354v238.843
	c0,6.193,2.454,12.192,6.739,16.457c4.266,4.284,10.264,6.735,16.462,6.735h143.252c6.217,0,12.03-2.391,16.37-6.735
	c4.354-4.354,6.854-10.352,6.854-16.457V24.568c0-6.024-2.5-11.981-6.854-16.354C179.89,3.882,173.929,1.398,167.851,1.398z"/>
<path d="M167.851,0H24.599C18.084,0,11.723,2.637,7.146,7.228C2.607,11.765,0,18.086,0,24.568v238.843
	c0,6.561,2.607,12.919,7.15,17.447c4.521,4.54,10.883,7.142,17.448,7.142h143.252c6.594,0,12.755-2.537,17.354-7.142
	c4.619-4.614,7.268-10.978,7.268-17.447V24.568c0-6.389-2.648-12.708-7.263-17.341C180.614,2.637,174.291,0,167.851,0z
	 M191.074,263.411c0,6.105-2.5,12.104-6.854,16.457c-4.34,4.345-10.153,6.735-16.37,6.735H24.599
	c-6.198,0-12.196-2.451-16.462-6.735c-4.285-4.265-6.739-10.264-6.739-16.457V24.568c0-6.115,2.454-12.076,6.739-16.354
	c4.318-4.333,10.314-6.816,16.462-6.816h143.252c6.078,0,12.039,2.484,16.37,6.816c4.354,4.373,6.854,10.33,6.854,16.354V263.411z"
	/>
<path fill-rule="evenodd" clip-rule="evenodd" fill="#006F53" d="M6.649,263.411V24.568c0-4.695,1.938-9.253,5.283-12.548
	c3.376-3.346,7.917-5.127,12.657-5.127H167.86c4.697,0,9.251,1.8,12.578,5.127c3.345,3.325,5.147,7.867,5.147,12.548v238.843
	c0,4.721-1.784,9.325-5.147,12.685c-3.295,3.322-7.895,5.253-12.578,5.253H24.59c-5.925,0-11.594-3.041-14.888-7.962
	C7.553,270.189,6.887,267.148,6.649,263.411"/>
<path fill="#FFFFFF" d="M176.272,16.177c-2.23-2.23-5.237-3.522-8.41-3.522H72.736V89H12.65v174.411
	c0,3.196,1.161,6.217,3.442,8.498c2.276,2.279,5.298,3.438,8.499,3.438h143.271c3.127,0,6.082-1.146,8.313-3.311
	c2.327-2.261,3.647-5.397,3.647-8.626V24.568C179.822,21.416,178.502,18.405,176.272,16.177z"/>
<path fill="#006F53" d="M28.355,141.004h-3.261v20.813h-5.896v-47.755h9.157c2.566,0,4.995,0.641,6.521,1.996
	c2.567,2.209,4.371,6.7,4.371,11.904C39.247,135.873,34.875,141.004,28.355,141.004z M28.355,120.263h-3.261v14.611h3.261
	c3.538,0,4.855-1.853,4.855-6.913C33.21,122.615,31.616,120.263,28.355,120.263z"/>
<path fill="#006F53" d="M57.492,161.817l-2.637-12.759h-7.631l-2.637,12.759h-6.035l9.504-47.755h5.967l9.643,47.755H57.492z
	 M51.109,130.313l-2.566,12.545h4.995L51.109,130.313z"/>
<path fill="#006F53" d="M81.772,138.011l4.718,23.806h-6.036l-5.272-22.309h-2.705v22.309H66.58v-47.755h9.157
	c7.146,0,10.892,4.49,10.892,13.4C86.628,132.808,85.171,135.873,81.772,138.011z M75.39,120.263h-2.914v13.044h3.885
	c3.261,0,4.231-1.497,4.231-5.987C80.592,121.903,79.483,120.263,75.39,120.263z"/>
<path fill="#006F53" d="M104.873,161.817l-6.244-22.594l-2.219,4.633v17.961h-5.896v-47.755h5.896v15.253l7.284-15.253h6.869
	l-7.631,16.394l8.254,31.362H104.873z"/>
<path fill="#006F53" d="M115.279,161.817v-47.755h5.896v47.755H115.279z"/>
<path fill="#006F53" d="M142.959,161.817l-9.088-28.296v28.296h-5.896v-47.755h5.896l8.256,23.807v-23.807h5.896v47.755H142.959z"/>
<path fill="#006F53" d="M172.58,157.113c-0.971,3.35-4.023,5.56-8.254,5.56c-4.787,0-7.563-1.854-9.02-6.415
	c-1.457-4.348-1.943-8.696-1.943-18.389c0-9.552,0.486-13.757,2.152-18.247c1.455-4.419,4.23-6.201,8.811-6.201
	c5.201,0,8.254,3.35,8.949,9.194h-5.898c-0.277-1.995-1.316-2.993-2.912-2.993c-2.152,0-3.607,1.497-4.094,4.633
	c-0.625,3.85-0.971,7.057-0.971,13.614s0.346,9.693,0.832,13.756c0.625,3.136,1.803,4.847,3.885,4.847c2.15,0,3.26-1.996,3.26-5.203
	v-6.343h-2.773v-6.201h8.672v12.188C173.275,153.121,172.928,155.616,172.58,157.113z"/>
<path fill="#006F53" d="M95.672,73.203V55.114h-7.62v18.089h-5.442V34.481h5.442v15.604h7.62V34.481h5.443v38.721H95.672z"/>
<path fill="#006F53" d="M125.896,56.096c0,6.877-0.512,17.8-9.925,17.8c-9.349,0-9.925-10.518-9.925-17.396c0-0.982,0-1.907,0-2.716
	c0-0.636,0-1.387,0-2.138c0-6.993,0.448-17.685,9.925-17.685c9.413,0,9.925,10.576,9.925,17.511c0,0.809,0,1.618,0,2.312
	C125.896,54.478,125.896,55.229,125.896,56.096z M115.971,38.989c-4.034,0-4.354,7.917-4.354,12.368c0,1.041,0,1.907,0,2.427
	c0,0.462,0,1.33,0,2.37c0,4.508,0.32,12.714,4.354,12.714c3.842,0,4.227-8.149,4.227-12.657c0-1.04,0-1.907,0-2.427
	C120.197,50.664,120.068,38.989,115.971,38.989z"/>
<path fill="#006F53" d="M147.858,69.793c-1.665,2.89-4.098,4.103-7.812,4.103c-4.419,0-7.108-1.792-8.581-5.317
	c-0.448-1.213-0.769-2.601-0.769-4.912V34.481h5.443V64.36c0,2.89,1.345,4.508,3.906,4.508c2.369,0,3.714-1.618,3.714-4.508V34.481
	h5.442v29.186C149.203,66.383,148.755,68.29,147.858,69.793z"/>
<path fill="#006F53" d="M169.374,53.9l4.354,19.303h-5.571l-4.866-18.089h-2.498v18.089h-5.442V34.481h8.452
	c6.596,0,10.054,3.641,10.054,10.865C173.856,49.681,172.512,52.166,169.374,53.9z M163.482,39.509h-2.689v10.576h3.586
	c3.01,0,3.906-1.213,3.906-4.854C168.285,40.839,167.261,39.509,163.482,39.509z"/>
<path fill="#006F53" d="M33.964,210.394c-2.056,5.881-2.855,11.02-3.14,17.986h-5.368v-0.8c0-3.883,0.971-10.22,2.285-15.302
	c1.656-6.167,3.654-10.735,7.422-16.788H20.773v-5.367h21.355v5.367C38.76,199.373,36.077,204.228,33.964,210.394z"/>
<path fill="#006F53" d="M54.612,228.38l-1.858-7.233h-5.692l-1.739,7.233h-3.835l6.603-26.486h3.715l6.602,26.486H54.612z
	 M49.869,209.8l-1.858,7.63h3.795L49.869,209.8z"/>
<path fill="#006F53" d="M74.75,228.38v-14.864l-4.902,14.864l-4.941-14.864v14.864h-3.795v-26.486h3.795l4.941,14.864l4.902-14.864
	h3.834v26.486H74.75z"/>
<path fill="#006F53" d="M119.766,229.064c-6.967,0-10.621-5.139-10.621-13.817c0-9.308,4.854-18.958,13.19-25.409l3.083,4.339
	c-3.254,2.398-6.737,6.967-8.051,10.564c0.914-0.114,1.713-0.114,2.398-0.114c6.566,0,10.734,4.967,10.734,12.219
	S126.332,229.064,119.766,229.064z M119.766,209.88c-3.256,0-5.368,2.797-5.368,6.395c0,4.34,2.112,7.423,5.368,7.423
	c3.198,0,5.367-2.855,5.367-6.852C125.133,212.792,122.964,209.88,119.766,209.88z"/>
<path fill="#006F53" d="M145.442,216.758h-4.11v11.622h-3.796v-26.486h7.906c4.15,0,6.958,2.966,6.958,7.434
	C152.4,214.148,149.908,216.758,145.442,216.758z M145.245,205.61h-3.913v7.51h3.913c2.213,0,3.438-1.383,3.438-3.793
	C148.683,207.112,147.301,205.61,145.245,205.61z"/>
<path fill="#006F53" d="M167.865,228.38v-14.864l-4.902,14.864l-4.941-14.864v14.864h-3.794v-26.486h3.794l4.941,14.864
	l4.902-14.864h3.834v26.486H167.865z"/>
<path fill="#006F53" d="M90.377,210.354v10.121h-1.862v-10.121h-2.688v-1.65h7.274v1.65H90.377z"/>
<path fill="#006F53" d="M101.587,219.368c-0.667,0.895-1.617,1.317-2.846,1.317c-1.653,0-2.689-0.668-3.392-2.108
	c-0.492-1.002-0.826-2.566-0.826-3.972c0-1.933,0.493-3.672,1.282-4.795c0.703-0.896,1.652-1.318,3.003-1.318
	c1.494,0,2.531,0.668,3.27,2.108c0.492,1.037,0.79,2.53,0.79,4.005C102.869,216.469,102.412,218.33,101.587,219.368z
	 M100.304,211.304c-0.368-0.616-0.826-0.861-1.528-0.914c-0.034,0-0.07,0-0.104,0c-0.845,0-1.405,0.457-1.792,1.458
	c-0.299,0.703-0.457,1.775-0.457,2.758c0,1.248,0.246,2.531,0.703,3.269c0.368,0.615,0.86,0.914,1.617,0.914
	c0.86,0,1.404-0.458,1.809-1.494c0.246-0.615,0.457-1.774,0.457-2.688C101.007,213.289,100.761,212.094,100.304,211.304z"/>
<path fill="#006F53" d="M43.719,257.178v-5.809h4.7v1.041h-3.527v1.074h1.922v1.066h-1.922v1.587h3.643v1.04H43.719z"/>
<path fill="#006F53" d="M55.591,257.178l-1.452-2.055l-1.423,2.055H51.36l2.105-3.061l-1.923-2.748h1.375l1.221,1.777l1.221-1.777
	h1.385l-1.903,2.748l2.104,3.061H55.591z"/>
<path fill="#006F53" d="M62.685,257.282c-1.691,0-2.73-1.205-2.73-3.018c0-1.838,1.039-2.999,2.73-2.999
	c1.038,0,1.99,0.468,2.489,1.283l-1.019,0.494c-0.183-0.243-0.27-0.33-0.452-0.434c-0.25-0.183-0.673-0.304-1.019-0.304
	c-1.173,0-1.558,1.04-1.558,1.934c0,1.266,0.587,2.002,1.558,2.002c0.586,0,0.903-0.182,1.471-0.736l1.019,0.494
	C64.703,256.813,63.723,257.282,62.685,257.282z"/>
<path fill="#006F53" d="M68.567,257.178v-5.809h4.701v1.041H69.74v1.074h1.923v1.066H69.74v1.587h3.644v1.04H68.567z"/>
<path fill="#006F53" d="M80.757,254.673c-0.365,0.182-0.663,0.225-1.153,0.225h-1.836v2.28h-1.173v-5.809h3.009
	c0.49,0,0.788,0.062,1.153,0.243c0.605,0.304,0.99,0.876,0.99,1.534C81.747,253.754,81.362,254.369,80.757,254.673z M79.642,252.41
	h-1.874v1.447h1.874c0.567,0,0.952-0.286,0.952-0.711C80.594,252.696,80.209,252.41,79.642,252.41z"/>
<path fill="#006F53" d="M87.149,252.393v4.785h-1.125v-4.785h-1.855v-1.023h4.835v1.023H87.149z"/>
<path fill="#006F53" d="M103.496,256.849c-0.451,0.251-1.038,0.39-1.634,0.39c-1.105,0-1.941-0.364-2.663-1.118l0.923-0.65
	c0.481,0.503,1,0.729,1.721,0.729c0.817,0,1.404-0.321,1.404-0.754c0-0.226-0.135-0.408-0.404-0.529
	c-0.23-0.078-0.48-0.165-0.769-0.226l-0.299-0.078l-0.298-0.061l-0.308-0.086c-0.663-0.14-0.999-0.286-1.269-0.564
	c-0.27-0.269-0.403-0.615-0.403-0.979c0-0.962,0.903-1.612,2.211-1.612c0.951,0,1.739,0.286,2.394,0.894l-0.855,0.693
	c-0.404-0.382-0.933-0.572-1.538-0.572c-0.654,0-1.039,0.226-1.039,0.598c0,0.321,0.222,0.469,1.02,0.633
	c0.855,0.156,1.423,0.321,1.778,0.486c0.567,0.269,0.933,0.814,0.933,1.447C104.4,256.077,104.103,256.527,103.496,256.849z"/>
<path fill="#006F53" d="M110.206,257.282c-1.509,0-2.595-1.023-2.595-2.445v-3.468h1.153v3.468c0,0.347,0.048,0.529,0.202,0.755
	c0.25,0.381,0.721,0.633,1.239,0.633c0.52,0,1-0.252,1.25-0.633c0.154-0.226,0.202-0.434,0.202-0.755v-3.468h1.153v3.468
	C112.812,256.259,111.726,257.282,110.206,257.282z"/>
<path fill="#006F53" d="M120.607,257.178l-3.066-3.996v3.996h-1.135v-5.809h1.135l2.951,3.832v-3.832h1.114v5.809H120.607z"/>
<path fill="#006F53" d="M128.798,256.831c-0.452,0.226-1,0.347-1.52,0.347h-2.076v-5.809h2.076c0.548,0,1.067,0.122,1.538,0.364
	c1,0.512,1.538,1.388,1.538,2.531C130.354,255.427,129.816,256.319,128.798,256.831z M128.25,252.635
	c-0.289-0.146-0.625-0.225-0.972-0.225h-0.903v3.728h0.903c0.347,0,0.654-0.078,0.933-0.226c0.673-0.32,0.99-0.85,0.99-1.647
	C129.201,253.484,128.884,252.956,128.25,252.635z"/>
<path fill="#006F53" d="M138.497,257.178l-0.635-1.37h-2.807l-0.625,1.37h-1.269l2.711-5.809h1.172l2.692,5.809H138.497z
	 M136.459,252.817l-0.903,1.959h1.807L136.459,252.817z"/>
<path fill="#006F53" d="M146.043,254.812v2.366h-1.153v-2.366l-2.711-3.442h1.423l1.874,2.367l1.855-2.367h1.423L146.043,254.812z"
	/>
<path fill="#FFFFFF" d="M21.791,74.168c0.167-6.161,1.583-11.137,4.665-16.191c2.332-4.028,5.914-7.425,9.829-10.189
	c1-0.553,1.749-1.106,2.499-1.659l2.999-1.5l2.749-1.501l2.666-1.421c2.166-1.343,3.748-3.555,3.748-5.766
	c0-3.949-4.665-7.108-10.162-7.108c-5.664,0-9.246,2.606-10.162,7.424l-8.829-1.816c1.916-8.767,9.163-14.138,18.991-14.138
	c10.579,0,18.992,7.108,18.992,15.797c0,4.107-1.999,8.214-5.664,11.294c-0.833,0.632-1.583,1.185-2.333,1.5l-2.749,1.659
	l-2.999,1.501l-2.749,1.5c-5.248,3.001-8.163,6.161-10.912,12.084h27.404v8.53H21.791z"/>
</svg>
