<?xml version="1.0" encoding="UTF-8" standalone="no"?>
<svg
   xmlns:dc="http://purl.org/dc/elements/1.1/"
   xmlns:cc="http://creativecommons.org/ns#"
   xmlns:rdf="http://www.w3.org/1999/02/22-rdf-syntax-ns#"
   xmlns:svg="http://www.w3.org/2000/svg"
   xmlns="http://www.w3.org/2000/svg"
   xmlns:sodipodi="http://sodipodi.sourceforge.net/DTD/sodipodi-0.dtd"
   xmlns:inkscape="http://www.inkscape.org/namespaces/inkscape"
   width="74.429893"
   height="74.431252"
   viewBox="0 0 210.05775 210.06152"
   version="1.1"
   id="svg2"
   inkscape:version="0.48.2 r9819"
   sodipodi:docname="AJAX1.svg">
  <metadata
     id="metadata62">
    <rdf:RDF>
      <cc:Work
         rdf:about="">
        <dc:format>image/svg+xml</dc:format>
        <dc:type
           rdf:resource="http://purl.org/dc/dcmitype/StillImage" />
        <dc:title></dc:title>
      </cc:Work>
    </rdf:RDF>
  </metadata>
  <defs
     id="defs60" />
  <sodipodi:namedview
     pagecolor="#ffffff"
     bordercolor="#666666"
     borderopacity="1"
     objecttolerance="10"
     gridtolerance="10"
     guidetolerance="10"
     inkscape:pageopacity="0"
     inkscape:pageshadow="2"
     inkscape:window-width="1280"
     inkscape:window-height="1004"
     id="namedview58"
     showgrid="false"
     fit-margin-top="0"
     fit-margin-left="0"
     fit-margin-right="0"
     fit-margin-bottom="0"
     inkscape:zoom="8.0000001"
     inkscape:cx="41.235759"
     inkscape:cy="28.494524"
     inkscape:window-x="-8"
     inkscape:window-y="-8"
     inkscape:window-maximized="1"
     inkscape:current-layer="svg2" />
  <!-- draw the bicycle -->
  <!-- RIGHT -->
  <!-- LANE -->
  <!-- ONLY -->
  <path
     d="M 206.65025,96.805734 113.26995,3.43602 C 111.11095,1.262908 108.10881,-3.6983694e-5 105.03611,-3.6983694e-5 101.97047,-3.6983694e-5 98.97892,1.262908 96.79522,3.43602 L 3.4113897,96.805734 C 1.2418097,98.978844 -0.00702031,101.95982 2.9689291e-5,105.04663 0.02122969,108.11227 1.2488597,111.11088 3.4113897,113.28046 L 96.79522,206.64665 c 2.16253,2.16253 5.19289,3.41136 8.24795,3.41489 3.05153,-0.003 6.07483,-1.25236 8.23383,-3.41489 l 93.37325,-93.36266 c 2.79752,-2.79753 3.98991,-7.0097 3.13619,-10.86203 -0.50094,-2.21897 -1.72861,-3.866446 -3.13619,-5.616226"
     style="fill:#ffd033;fill-opacity:1;fill-rule:nonzero;stroke:none"
     id="path6132"
     inkscape:connector-curvature="0" />
  <path
     d="m 204.34308,110.97329 -93.36972,93.36619 c -1.56986,1.56281 -3.71828,2.45534 -5.93019,2.45534 -2.21192,0 -4.35681,-0.89253 -5.92667,-2.45534 L 5.7079797,110.96977 c -1.55223,-1.55223 -2.43417,-3.72886 -2.43417,-5.92667 0.007,-2.19781 0.889,-4.37797 2.43769,-5.930196 L 99.10944,5.718492 c 1.56281,-1.545167 3.73592,-2.430639 5.92667,-2.430639 2.19781,0 4.3815,0.885472 5.93725,2.430639 l 93.36972,93.397942 c 1.56633,1.569856 2.45181,3.714746 2.45181,5.926666 0,2.21544 -0.88548,4.36033 -2.45181,5.93019"
     style="fill:#000000;fill-opacity:1;fill-rule:evenodd;stroke:none"
     id="path6140"
     inkscape:connector-curvature="0" />
  <path
     d="m 201.12575,107.74891 c 0.70908,-0.70203 1.12183,-1.71451 1.12183,-2.70581 0,-0.98072 -0.41275,-2.02142 -1.12183,-2.71992 L 107.74192,8.94641 c -0.69497,-0.6985 -1.7145,-1.111251 -2.69875,-1.111251 -0.98778,0 -2.02142,0.412751 -2.72345,1.111251 L 8.9323697,102.32318 c -0.70556,0.70909 -1.09714,1.71803 -1.09714,2.71639 0.007,0.99836 0.39158,1.9932 1.10419,2.70581 l 93.3803003,93.39088 c 0.70203,0.6985 1.74272,1.11125 2.72345,1.11125 0.9913,0 2.00378,-0.41275 2.7058,-1.11125 l 93.37678,-93.38735 z"
     style="fill:#ffd033;fill-opacity:1;fill-rule:evenodd;stroke:none"
     id="path6144"
     inkscape:connector-curvature="0" />
  <path
     d="m 177.33582,88.917628 0,-3.453696 -13.1692,0 0,3.453696 4.7237,0 0,22.426092 3.71828,0 0,-22.426092 4.72722,0 z m -16.98978,22.426092 0,-25.879788 -3.72533,0 0,15.532808 -7.08026,-15.532808 -3.72886,0 0,25.879788 3.72886,0 0,-17.342563 7.99395,17.342563 2.81164,0 z m -19.16642,0 0,-3.63009 -9.44387,0 0,-8.537222 5.35517,0 0,-3.54189 -5.35517,0 0,-6.533446 8.44551,0 0,-3.63714 -12.17084,0 0,25.879788 13.1692,0 z m -19.07823,0 0,-25.879788 -3.72181,0 -4.81894,14.534449 -4.80837,-14.534449 -3.7218,0 0,25.879788 3.7218,0 0,-14.527396 4.80837,14.527396 4.81894,-14.527396 0,14.527396 3.72181,0 z m -21.70995,0 0,-3.63009 -9.443864,0 0,-8.537222 5.35164,0 0,-3.54189 -5.35164,0 0,-6.533446 8.445502,0 0,-3.63714 -12.174364,0 0,25.879788 13.172726,0 z m -16.989783,-25.879788 -3.721806,0 -4.27214,16.799278 -4.261557,-16.799278 -3.728862,0 6.536974,25.879788 2.818695,0 6.628696,-25.879788 z m -24.253478,15.165918 -3.721806,0 1.813278,-7.44361 1.908528,7.44361 z m 6.448779,10.71387 -6.448779,-25.879788 -3.63714,0 -6.445251,25.879788 3.721806,0 1.725084,-7.08026 5.54214,0 1.820334,7.08026 3.721806,0 z M 43.611842,92.731156 c 0,2.360084 -1.178279,3.725335 -3.361974,3.725335 l -3.81,0 0,-7.355419 3.81,0 c 1.996723,0 3.361974,1.449917 3.361974,3.630084 m 3.630084,0 c 0,-4.356806 -2.723445,-7.267224 -6.808613,-7.267224 l -7.722307,0 0,25.879788 3.728862,0 0,-11.345339 3.993445,0 c 4.360335,0 6.808613,-2.547057 6.808613,-7.267225"
     style="fill:#000000;fill-opacity:1;fill-rule:evenodd;stroke:none"
     id="path6112"
     inkscape:connector-curvature="0" />
  <path
     d="m 140.34953,145.26331 c 0,-3.72181 -2.18369,-6.53698 -7.17197,-9.44387 -1.91206,-1.09008 -2.45534,-1.8168 -2.45534,-3.0868 0,-1.72509 1.36172,-2.99509 3.08681,-2.99509 1.63336,0 2.90336,1.17475 2.99509,2.99509 l 3.54541,0 c -0.0917,-3.90878 -2.90689,-6.72042 -6.5405,-6.72042 -3.71828,0 -6.62517,2.99508 -6.62517,6.72042 0,2.26836 1.08303,4.26861 3.175,5.72205 5.27051,3.54189 3.81706,2.54353 4.35328,3.08681 1.5487,1.17828 2.09198,2.26836 2.09198,3.72181 0,2.08844 -1.63689,3.90525 -3.62656,3.90525 -2.54353,0 -3.63362,-2.27189 -3.63362,-4.45206 l -3.63714,0 c 0,4.26861 2.7305,8.09978 7.27076,8.09978 3.98992,0 7.17197,-3.37608 7.17197,-7.55297 M 118.756,139.54125 c 0,2.00025 -0.17992,3.81706 -0.36689,5.45042 -0.35631,1.99672 -1.54164,3.72181 -3.71828,3.72181 l -3.08681,0 0,-18.61256 3.08681,0 c 1.63689,0 2.71992,0.81138 3.36197,2.63172 0.45156,1.08655 0.7232,3.90525 0.7232,6.80861 m 3.63008,-0.17992 c 0,-2.00025 -0.26811,-4.26508 -0.635,-6.17361 -0.45156,-2.63525 -1.54164,-4.6355 -3.08328,-5.72206 -0.90664,-0.72319 -2.00025,-1.00188 -4.18042,-1.00188 l -6.62516,0 0,25.88331 7.17197,0 c 1.44992,0 2.72697,-0.36336 3.63361,-1.18181 2.54,-1.99672 3.71828,-5.81025 3.71828,-11.80395 m -19.7732,12.98576 0,-25.88331 -3.721805,0 0,15.5328 -7.08378,-15.5328 -3.725334,0 0,25.88331 3.725334,0 0,-17.34609 7.993947,17.34609 2.811638,0 z m -18.598448,0 0,-3.63361 -9.443863,0 0,-8.53723 5.362223,0 0,-3.53836 -5.362223,0 0,-6.53697 8.445502,0 0,-3.63714 -12.167309,0 0,25.88331 13.16567,0 z"
     style="fill:#000000;fill-opacity:1;fill-rule:evenodd;stroke:none"
     id="path6116"
     inkscape:connector-curvature="0" />
</svg>
