<?xml version="1.0" encoding="UTF-8" standalone="no"?>
<svg
   xmlns:dc="http://purl.org/dc/elements/1.1/"
   xmlns:cc="http://creativecommons.org/ns#"
   xmlns:rdf="http://www.w3.org/1999/02/22-rdf-syntax-ns#"
   xmlns:svg="http://www.w3.org/2000/svg"
   xmlns="http://www.w3.org/2000/svg"
   xmlns:sodipodi="http://sodipodi.sourceforge.net/DTD/sodipodi-0.dtd"
   xmlns:inkscape="http://www.inkscape.org/namespaces/inkscape"
   width="48.095001"
   height="24.020004"
   viewBox="0 0 135.7348 67.789789"
   version="1.1"
   id="svg2"
   inkscape:version="0.48.2 r9819"
   sodipodi:docname="MUTCD W7-4eP.svg">
  <metadata
     id="metadata62">
    <rdf:RDF>
      <cc:Work
         rdf:about="">
        <dc:format>image/svg+xml</dc:format>
        <dc:type
           rdf:resource="http://purl.org/dc/dcmitype/StillImage" />
        <dc:title></dc:title>
      </cc:Work>
    </rdf:RDF>
  </metadata>
  <defs
     id="defs60" />
  <sodipodi:namedview
     pagecolor="#ffffff"
     bordercolor="#666666"
     borderopacity="1"
     objecttolerance="10"
     gridtolerance="10"
     guidetolerance="10"
     inkscape:pageopacity="0"
     inkscape:pageshadow="2"
     inkscape:window-width="1280"
     inkscape:window-height="1004"
     id="namedview58"
     showgrid="false"
     fit-margin-top="0"
     fit-margin-left="0"
     fit-margin-right="0"
     fit-margin-bottom="0"
     inkscape:zoom="12.265625"
     inkscape:cx="18.311233"
     inkscape:cy="5.0476318"
     inkscape:window-x="-8"
     inkscape:window-y="-8"
     inkscape:window-maximized="1"
     inkscape:current-layer="svg2" />
  <!-- draw the bicycle -->
  <!-- RIGHT -->
  <!-- LANE -->
  <!-- ONLY -->
  <path
     inkscape:connector-curvature="0"
     d="m 11.33475,-5.1067202e-6 113.0653,0 c 6.24769,0 11.33475,4.9530000067202 11.33475,11.0560001067202 l 0,45.7447 c 0,6.0361 -5.08706,10.9891 -11.33475,10.9891 l -113.0653,0 C 5.09059,67.789795 0,62.836795 0,56.800695 l 0,-45.7447 C 0,4.9529949 5.09059,-5.1067202e-6 11.33475,-5.1067202e-6"
     style="fill:#ffd033;fill-opacity:1;fill-rule:evenodd;stroke:none"
     id="path3624" />
  <path
     inkscape:connector-curvature="0"
     d="m 124.33198,2.3000949 c 0.47625,0 0.94897,0 1.42522,0.067 0.47625,0.071 0.88547,0.2081 1.35819,0.2786 0.4057,0.1976 0.81492,0.3352 1.22061,0.4728 0.40923,0.2011 0.74436,0.4092 1.15359,0.6773 0.6103,0.4057 1.08655,0.8819 1.62983,1.3582 0.33867,0.4727 0.67733,0.8819 1.016,1.3547 0.20461,0.4092 0.40922,0.7443 0.61031,1.1571 0.13758,0.4092 0.27164,0.8149 0.40922,1.2206 0.13758,0.4057 0.20108,0.8149 0.20108,1.2876001 l 0.0706,0.882 0,46.2209 c -0.0706,0.4057 -0.0706,0.8114 -0.20461,1.2877 -0.067,0.4057 -0.20461,0.8149 -0.33867,1.2206 -0.13758,0.4057 -0.33867,0.7443 -0.54328,1.1571 -0.20461,0.3386 -0.40569,0.7443 -0.67733,1.083 -0.47625,0.5433 -0.9525,1.0195 -1.49225,1.4923 -0.3422,0.2716 -0.68086,0.5468 -1.09009,0.7443 -0.53975,0.2787 -1.016,0.5468 -1.55927,0.7514 -0.47273,0.1306 -0.87842,0.2681 -1.28764,0.3387 -0.47625,0.071 -0.88195,0.1305 -1.3582,0.2011 l -113.47098,0 c -0.47625,0 -0.9525,-0.071 -1.42523,-0.1305 -0.47629,-0.071 -0.88198,-0.1412 -1.35823,-0.2787 -0.4057,-0.1306 -0.81492,-0.2681 -1.22061,-0.4728 -0.40922,-0.201 -0.74789,-0.4092 -1.15711,-0.6067 -0.61031,-0.4763 -1.08303,-0.882 -1.62631,-1.4288 -0.34219,-0.4057 -0.67733,-0.8819 -1.01953,-1.3547 -0.20461,-0.3386 -0.40569,-0.7514 -0.6103,-1.09 -0.13406,-0.4057 -0.27164,-0.8114 -0.4057,-1.2206 -0.13758,-0.4057 -0.20461,-0.882 -0.20461,-1.2877 l -0.067,-0.8819 0,-46.2175 c 0.067,-0.4762 0.067,-0.8819001 0.20109,-1.2911001 0.0706,-0.4057 0.20461,-0.8114 0.34219,-1.2171 0.13406,-0.4092 0.33867,-0.822 0.53975,-1.1571 0.20461,-0.4092 0.41275,-0.7444 0.68086,-1.083 0.47625,-0.6139 0.94898,-1.0901 1.49578,-1.5628 0.33514,-0.2717 0.67381,-0.4763 1.08303,-0.6774 0.54328,-0.3457 1.016,-0.5433 1.5628,-0.7514 0.47273,-0.1976 0.88195,-0.2681 1.28764,-0.4057 0.47625,-0.071 0.88195,-0.1376 1.3582,-0.1376 l 113.47099,0 z"
     style="fill:#000000;fill-opacity:1;fill-rule:evenodd;stroke:none"
     id="path3632" />
  <path
     inkscape:connector-curvature="0"
     d="m 11.33475,5.6972949 113.0653,0 c 3.12208,0 5.63386,2.5083 5.63386,5.6304001 l 0,45.1979 c 0,3.1221 -2.51178,5.6374 -5.63386,5.6374 l -113.0653,0 c -3.12208,0 -5.63386,-2.5153 -5.63386,-5.6374 l 0,-45.1979 c 0,-3.1221001 2.51178,-5.6304001 5.63386,-5.6304001"
     style="fill:#ffd033;fill-opacity:1;fill-rule:evenodd;stroke:none"
     id="path3636" />
  <path
     d="m 36.367866,27.594291 c 0,-4.755445 -2.970389,-7.92339 -7.425973,-7.92339 l -8.420807,0 0,28.236337 4.056945,0 0,-12.382502 4.363862,0 c 4.751917,0 7.425973,-2.776361 7.425973,-7.930445 m -3.961695,0 c 0,2.575278 -1.287639,4.064 -3.665361,4.064 l -4.162779,0 0,-8.025695 4.162779,0 c 2.183694,0 3.665361,1.583973 3.665361,3.961695"
     style="fill:#000000;fill-opacity:1;fill-rule:evenodd;stroke:none"
     id="path3704"
     inkscape:connector-curvature="0" />
  <path
     d="m 46.972367,28.08818 -1.986139,8.124473 4.067529,0 -2.08139,-8.124473 z m 5.051779,19.819058 -1.986139,-7.73289 -6.043084,0 -1.880306,7.73289 -4.064001,0 7.03439,-28.236337 3.968751,0 7.034389,28.236337 -4.064,0 z"
     style="fill:#000000;fill-opacity:1;fill-rule:evenodd;stroke:none"
     id="path3708"
     inkscape:connector-curvature="0" />
  <path
     d="m 67.973231,47.907238 -3.072694,0 -7.133168,-28.236337 4.060473,0 4.656667,18.326808 4.660195,-18.326808 4.064001,0 -7.235474,28.236337 z"
     style="fill:#000000;fill-opacity:1;fill-rule:evenodd;stroke:none"
     id="path3712"
     inkscape:connector-curvature="0" />
  <path
     d="m 79.1704,47.907238 0,-28.236337 13.278557,0 0,3.961695 -9.221612,0 0,7.12964 5.849056,0 0,3.866445 -5.849056,0 0,9.316862 10.308168,0 0,3.961695 -14.365113,0 z"
     style="fill:#000000;fill-opacity:1;fill-rule:evenodd;stroke:none"
     id="path3716"
     inkscape:connector-curvature="0" />
  <path
     d="m 114.14479,33.739681 c 0,-2.183695 -0.29633,-4.656667 -0.69497,-6.738056 -0.49036,-2.87514 -1.68275,-5.058834 -3.36903,-6.244168 -0.98777,-0.790222 -2.18016,-1.086556 -4.55436,-1.086556 l -7.235472,0 0,28.236337 7.828142,0 c 1.58397,0 2.97392,-0.395111 3.96169,-1.291167 2.77636,-2.176639 4.064,-6.335889 4.064,-12.87639 m -3.96169,0.194027 c 0,2.183695 -0.20108,4.159251 -0.39864,5.944307 -0.39511,2.183695 -1.68275,4.067528 -4.06047,4.067528 l -3.36903,0 0,-20.312947 3.36903,0 c 1.78505,0 2.97039,0.889 3.66536,2.871612 0.49742,1.185333 0.79375,4.258028 0.79375,7.4295"
     style="fill:#000000;fill-opacity:1;fill-rule:evenodd;stroke:none"
     id="path3720"
     inkscape:connector-curvature="0" />
</svg>
