<?xml version="1.0" encoding="UTF-8" standalone="no"?>
<!-- Generator: Adobe Illustrator 12.0.1, SVG Export Plug-In  -->

<svg
   xmlns:dc="http://purl.org/dc/elements/1.1/"
   xmlns:cc="http://creativecommons.org/ns#"
   xmlns:rdf="http://www.w3.org/1999/02/22-rdf-syntax-ns#"
   xmlns:svg="http://www.w3.org/2000/svg"
   xmlns="http://www.w3.org/2000/svg"
   xmlns:sodipodi="http://sodipodi.sourceforge.net/DTD/sodipodi-0.dtd"
   xmlns:inkscape="http://www.inkscape.org/namespaces/inkscape"
   version="1.1"
   width="286.35663"
   height="286.3775"
   viewBox="0 0 286.35663 286.3775"
   enable-background="new 0 0 289 288"
   xml:space="preserve"
   id="svg2"
   inkscape:version="0.48.2 r9819"
   sodipodi:docname="AJAX1.svg"><metadata
   id="metadata42"><rdf:RDF><cc:Work
       rdf:about=""><dc:format>image/svg+xml</dc:format><dc:type
         rdf:resource="http://purl.org/dc/dcmitype/StillImage" /></cc:Work></rdf:RDF></metadata><sodipodi:namedview
   pagecolor="#ffffff"
   bordercolor="#666666"
   borderopacity="1"
   objecttolerance="10"
   gridtolerance="10"
   guidetolerance="10"
   inkscape:pageopacity="0"
   inkscape:pageshadow="2"
   inkscape:window-width="1280"
   inkscape:window-height="1004"
   id="namedview40"
   showgrid="false"
   fit-margin-top="0"
   fit-margin-left="0"
   fit-margin-right="0"
   fit-margin-bottom="0"
   inkscape:zoom="2.3177389"
   inkscape:cx="107.88118"
   inkscape:cy="145.36227"
   inkscape:window-x="-8"
   inkscape:window-y="-8"
   inkscape:window-maximized="1"
   inkscape:current-layer="svg2" />
<defs
   id="defs4">
</defs>
<path
   d="m 135.50625,283.24575 -132.339,-132.36 c -4.223,-4.231 -4.223,-11.124 0,-15.347 L 135.50625,3.1707482 c 4.219,-4.227 11.115,-4.227 15.345,-0.004 l 132.331,132.3730018 c 4.231,4.236 4.231,11.115 0.009,15.347 l -132.34,132.36 c -4.182,4.17 -11.17,4.179 -15.345,-0.001"
   id="path6"
   style="fill:#ffd033;stroke:none;fill-opacity:1"
   inkscape:connector-curvature="0" />

<path
   clip-rule="evenodd"
   d="m 137.60225,281.08875 -132.274,-132.307 c -3.042,-3.056 -3.038,-8.086 0,-11.142 L 137.60225,5.3317482 c 3.056,-3.042 8.09,-3.042 11.139,0 l 132.283,132.3160018 c 3.043,3.051 3.043,8.077 0,11.133 l -132.283,132.308 c -3.048,3.033 -8.083,3.047 -11.139,0"
   id="path10"
   inkscape:connector-curvature="0"
   style="fill:#000000;fill-rule:evenodd;stroke:none" />
<path
   clip-rule="evenodd"
   d="m 140.56325,278.07675 -132.214,-132.243 c -1.467,-1.419 -1.467,-3.833 0,-5.248 L 140.55425,8.3577482 c 1.411,-1.472 3.828,-1.472 5.243,0 l 132.207,132.2290018 c 1.458,1.415 1.458,3.837 0,5.256 l -132.207,132.234 c -1.415,1.459 -3.824,1.459 -5.234,0"
   id="path12"
   style="fill:#ffd033;fill-rule:evenodd;stroke:none;fill-opacity:1"
   inkscape:connector-curvature="0" />
<path
   d="m 95.65925,95.413748 h -5.547 v 15.680002 h -5.12 V 75.360748 h 10.667 c 5.6,0 9.387,4 9.387,10.027 0,6.506 -3.36,10.026 -9.387,10.026 z m -0.266,-15.04 h -5.28 v 10.134 h 5.28 c 2.986,0 4.64,-1.867 4.64,-5.12 -10e-4,-2.987 -1.867,-5.014 -4.64,-5.014 z"
   id="path14"
   inkscape:connector-curvature="0"
   style="fill:#000000;stroke:none" />
<path
   d="M 109.95225,111.09475 V 75.360748 h 5.119 v 30.987002 h 13.067 v 4.747 h -18.186 z"
   id="path16"
   inkscape:connector-curvature="0"
   style="fill:#000000;stroke:none" />
<path
   d="m 148.08525,111.09475 -2.507,-9.76 h -7.68 l -2.347,9.76 h -5.173 l 8.907,-35.734002 h 5.013 l 8.907,35.734002 h -5.12 z m -6.4,-25.068002 -2.507,10.294 h 5.12 l -2.613,-10.294 z"
   id="path18"
   inkscape:connector-curvature="0"
   style="fill:#000000;stroke:none" />
<path
   d="m 174.27225,111.09475 -11.04,-23.947002 v 23.947002 h -5.12 V 75.360748 h 5.12 l 9.813,21.44 v -21.44 h 5.12 v 35.734002 h -3.893 z"
   id="path20"
   inkscape:connector-curvature="0"
   style="fill:#000000;stroke:none" />
<path
   d="m 194.85725,80.106748 v 30.987002 h -5.173 V 80.106748 h -6.507 v -4.747 h 18.187 v 4.747 h -6.507 z"
   id="path22"
   inkscape:connector-curvature="0"
   style="fill:#000000;stroke:none" />
<path
   d="m 45.23325,170.46075 v -35.734 h 16.8 v 5.014 h -11.68 v 9.013 h 7.413 v 4.907 h -7.413 v 11.786 h 13.066 v 5.014 h -18.186 z"
   id="path24"
   inkscape:connector-curvature="0"
   style="fill:#000000;stroke:none" />
<path
   d="m 85.60625,170.46075 -11.04,-23.946 v 23.946 h -5.12 v -35.734 h 5.12 l 9.813,21.441 v -21.441 h 5.12 v 35.734 h -3.893 z"
   id="path26"
   inkscape:connector-curvature="0"
   style="fill:#000000;stroke:none" />
<path
   d="m 106.19225,139.47375 v 30.987 h -5.174 v -30.987 h -6.506 v -4.747 h 18.187 v 4.747 h -6.507 z"
   id="path28"
   inkscape:connector-curvature="0"
   style="fill:#000000;stroke:none" />
<path
   d="m 132.37825,170.46075 -4.747,-16.8 h -4.906 v 16.8 h -5.12 v -35.734 h 10.667 c 5.6,0 9.387,3.787 9.387,9.547 0,4.267 -1.761,7.36 -5.12,8.64 l 5.12,17.547 h -5.281 z m -4.373,-30.72 h -5.28 v 9.013 h 5.28 c 2.986,0 4.64,-1.6 4.64,-4.479 0,-2.774 -1.866,-4.534 -4.64,-4.534 z"
   id="path30"
   inkscape:connector-curvature="0"
   style="fill:#000000;stroke:none" />
<path
   d="m 158.61825,170.46075 -2.507,-9.76 h -7.68 l -2.347,9.76 h -5.174 l 8.907,-35.734 h 5.013 l 8.907,35.734 h -5.119 z m -6.4,-25.066 -2.506,10.293 h 5.119 l -2.613,-10.293 z"
   id="path32"
   inkscape:connector-curvature="0"
   style="fill:#000000;stroke:none" />
<path
   d="m 184.80525,170.46075 -11.04,-23.946 v 23.946 h -5.12 v -35.734 h 5.12 l 9.813,21.441 v -21.441 h 5.12 v 35.734 h -3.893 z"
   id="path34"
   inkscape:connector-curvature="0"
   style="fill:#000000;stroke:none" />
<path
   d="m 210.67025,144.27475 c -0.533,-3.521 -1.92,-5.174 -4.267,-5.174 -4.16,0 -5.653,3.253 -5.653,12.534 0,10.293 1.76,14.453 6.133,14.453 2.987,0 3.787,-2.507 3.787,-5.174 h 5.12 c -0.106,5.92 -3.894,10.187 -8.907,10.187 -7.626,0 -11.04,-6.133 -11.04,-19.307 0,-11.573 3.627,-17.707 10.667,-17.707 2.88,0 5.387,1.28 7.04,3.627 1.333,1.76 1.866,3.307 2.24,6.561 h -5.12 z"
   id="path36"
   inkscape:connector-curvature="0"
   style="fill:#000000;stroke:none" />
<path
   d="m 222.93725,170.46075 v -35.734 h 16.8 v 5.014 h -11.68 v 9.013 h 7.413 v 4.907 h -7.413 v 11.786 h 13.066 v 5.014 h -18.186 z"
   id="path38"
   inkscape:connector-curvature="0"
   style="fill:#000000;stroke:none" />
</svg>