<svg version="1.1" viewBox="0 0 32 32" xmlns="http://www.w3.org/2000/svg">
 <path d="M9.787109375 1L1 9.787109375L1 22.212890625L9.787109375 31L22.212890625 31L31 22.212890625L31 9.787109375L22.212890625 1L9.787109375 1z" fill="#fff" stroke="#000" stroke-width=".1"/>
 <path d="m10.09765625 1.75-8.34765625 8.34765625v11.8046875l8.34765625 8.34765625h11.8046875l8.34765625-8.34765625v-11.8046875l-8.34765625-8.34765625h-11.8046875z" fill="#af1e2d"/>
 <path transform="matrix(.01 0 0 -.01 21.78 21)" d="m672 719q0-135-68-208t-194-73h-156v-438h-144v1e3h300q118 0 190-77t72-204zm-141 0q0 63-36 102t-94 39h-147v-284h147q63 0 96.5 37t33.5 106zm-573-217q0-223-57-348-70-171-235-171-89 0-144.5 40t-93.5 131q-57 128-56 348 0 223 56 348 39 89 95 128t143.5 39 142-39 92.5-132q57-128 57-344zm-137 0q0 139-31 248-34 127-123.5 127t-125.5-123q-33-104-32-256 0-127 32-253 34-122 125-122 89 0 124 122 31 103 31 257zm-1092-228q0-122-80.5-206.5t-195.5-84.5q-127 0-204 91.5t-77 220.5h140q0-70 36-121t105-51q58 0 99 45.5t41 105.5q0 81-82 144-5 5-5 7-3 3-75 53-51 34-88 58-123 87-123 221 0 108 74.5 184t182.5 76q106 0 178-73.5t74-186.5h-136q-2 51-35 84t-81 33q-50 0-85-33.5t-35-83.5q0-38 19.5-62t76.5-56q146-86 211-171.5t65-193.5zm552 593h-182v-867h-144v867h-183v133h509z" fill="#fff"/>
</svg>
