<?xml version="1.0" encoding="UTF-8" standalone="no"?>
<svg
   xmlns:dc="http://purl.org/dc/elements/1.1/"
   xmlns:cc="http://creativecommons.org/ns#"
   xmlns:rdf="http://www.w3.org/1999/02/22-rdf-syntax-ns#"
   xmlns:svg="http://www.w3.org/2000/svg"
   xmlns="http://www.w3.org/2000/svg"
   xmlns:sodipodi="http://sodipodi.sourceforge.net/DTD/sodipodi-0.dtd"
   xmlns:inkscape="http://www.inkscape.org/namespaces/inkscape"
   height="1629.9993"
   width="2170.0027"
   viewBox="82.992 45.607 6356.5159 5257.3749"
   id="svg2"
   version="1.1"
   inkscape:version="0.48.2 r9819"
   sodipodi:docname="AJAX1.svg">
  <metadata
     id="metadata2508">
    <rdf:RDF>
      <cc:Work
         rdf:about="">
        <dc:format>image/svg+xml</dc:format>
        <dc:type
           rdf:resource="http://purl.org/dc/dcmitype/StillImage" />
      </cc:Work>
    </rdf:RDF>
  </metadata>
  <sodipodi:namedview
     pagecolor="#ffffff"
     bordercolor="#666666"
     borderopacity="1"
     objecttolerance="10"
     gridtolerance="10"
     guidetolerance="10"
     inkscape:pageopacity="0"
     inkscape:pageshadow="2"
     inkscape:window-width="1280"
     inkscape:window-height="1004"
     id="namedview2506"
     showgrid="false"
     inkscape:zoom="0.23047301"
     inkscape:cx="1220.6919"
     inkscape:cy="1106.7408"
     inkscape:window-x="-8"
     inkscape:window-y="-8"
     inkscape:window-maximized="1"
     inkscape:current-layer="svg2"
     showguides="true"
     inkscape:guide-bbox="true"
     fit-margin-top="0"
     fit-margin-left="0"
     fit-margin-right="0"
     fit-margin-bottom="0" />
  <defs
     id="defs4">
    <linearGradient
       id="linearGradient6324">
      <stop
         style="stop-color:#ec8028;stop-opacity:1;"
         offset="0"
         id="stop6326" />
      <stop
         style="stop-color:#ec8028;stop-opacity:0;"
         offset="1"
         id="stop6328" />
    </linearGradient>
    <clipPath
       id="SVG_CP_1">
      <path
         inkscape:connector-curvature="0"
         d="M 598.41107,0 0,0 l 0,392.15871 598.41107,0 0,-392.15871 z"
         id="path21406" />
    </clipPath>
    <clipPath
       id="clipPath6506">
      <path
         inkscape:connector-curvature="0"
         d="M 598.41107,0 0,0 l 0,392.15871 598.41107,0 0,-392.15871 z"
         id="path6508" />
    </clipPath>
    <clipPath
       id="clipPath6510">
      <path
         inkscape:connector-curvature="0"
         d="M 598.41107,0 0,0 l 0,392.15871 598.41107,0 0,-392.15871 z"
         id="path6512" />
    </clipPath>
    <clipPath
       id="clipPath6514">
      <path
         inkscape:connector-curvature="0"
         d="M 598.41107,0 0,0 l 0,392.15871 598.41107,0 0,-392.15871 z"
         id="path6516" />
    </clipPath>
    <clipPath
       id="clipPath6518">
      <path
         inkscape:connector-curvature="0"
         d="M 598.41107,0 0,0 l 0,392.15871 598.41107,0 0,-392.15871 z"
         id="path6520-6" />
    </clipPath>
    <clipPath
       id="clipPath6522">
      <path
         inkscape:connector-curvature="0"
         d="M 598.41107,0 0,0 l 0,392.15871 598.41107,0 0,-392.15871 z"
         id="path6524-5" />
    </clipPath>
    <clipPath
       id="clipPath6526">
      <path
         inkscape:connector-curvature="0"
         d="M 598.41107,0 0,0 l 0,392.15871 598.41107,0 0,-392.15871 z"
         id="path6528-2" />
    </clipPath>
    <clipPath
       id="SVG_CP_1-9">
      <path
         inkscape:connector-curvature="0"
         d="M 598.41107,0 0,0 l 0,392.15871 598.41107,0 0,-392.15871 z"
         id="path21406-3" />
    </clipPath>
    <clipPath
       id="SVG_CP_1-0">
      <path
         inkscape:connector-curvature="0"
         d="M 598.41107,0 0,0 l 0,392.15871 598.41107,0 0,-392.15871 z"
         id="path21406-1" />
    </clipPath>
    <clipPath
       id="clipPath6597">
      <path
         inkscape:connector-curvature="0"
         d="M 598.41107,0 0,0 l 0,392.15871 598.41107,0 0,-392.15871 z"
         id="path6599" />
    </clipPath>
    <clipPath
       id="clipPath6601">
      <path
         inkscape:connector-curvature="0"
         d="M 598.41107,0 0,0 l 0,392.15871 598.41107,0 0,-392.15871 z"
         id="path6603" />
    </clipPath>
  </defs>
  <style
     id="style_css_sheet"
     type="text/css"> 
/*
 * Below are Cascading Style Sheet (CSS) definitions in use in this file,
 * which allow easily changing how countries are displayed.
 *
 */

/*
 * Circles around small countries
 *
 * Change opacity to 1 to display all circles.
 *
 */
.circlexx
{
   opacity:1;
   fill:#e0e0e0;
   stroke:#000000;
   stroke-width:0.5;
}

/*
 * Smaller circles around French DOMs and Chinese SARs
 *
 * Change opacity to 1 to display all subnational circles.
 *
 */
.subxx
{
   opacity:1;
   stroke-width:0.3;
}

/*
 * Circles around small, unrecognized countries
 *
 * Change opacity to 1 to display all circles.
 *
 */
.unxx
{
   opacity:0;
   fill:#e0e0e0;
   stroke:#000000;
   stroke-width:0.3;
}

/*
 * Circles around small countries, but with no permanent residents 
 *
 * Change opacity to 1 to display all circles.
 *
 */
.noxx
{
   opacity:0;
   fill:#e0e0e0;
   stroke:#000000;
   stroke-width:0.5;
}

/*
 * land
 */
.landxx
{
   fill: #e0e0e0;
   stroke:#ffffff;
   stroke-width:0.5;
   fill-rule:evenodd;
}

/*
 * Styles for coastlines of islands with no borders
 */
.coastxx
{
   fill: #e0e0e0;
   stroke:#ffffff;
   stroke-width:0.3;
   fill-rule:evenodd;
}

/*
 * Styles for nations with limited recognition
 */
.limitxx
{
   fill: #e0e0e0;
   stroke:#ffffff;
   stroke-width:0;
   fill-rule:evenodd;
}

/*
 * Styles for nations with no permanent population.
 */
.antxx
{
   fill: #e0e0e0;
   stroke:#ffffff;
   stroke-width:0;
   fill-rule:evenodd;
}

/*
 * Ocean
 */
.oceanxx
{
   opacity: 1;
   color: #000000;
   fill:#ffffff;
   stroke:#000;
   stroke-width:0.5;
   stroke-miterlimit:1;
}

/*
 * Additional style rules
 *
 * The following are examples of colouring countries.  You can substitute these with your own styles to colour the countries on the map.
 *
 * Color a few countries:
 *
 * .gb, .au, .nc
 * {
 *    fill:       #ff0000;
 * }
 *
 * Color a few small country circles (and the countries):
 *
 * .ms, .ky
 * {
 *    opacity:    1;
 *    fill:       #ff0000;
 * }
 *
 */

/* Same-sex marriage */
.ar, .be, .ca, .dk, .es, .is, .nl, .no, .pt, .se, .za
{ fill: #002255; }

/* Civil unions etc. */
.ad, .at, .au, .bl, .br, .ch, .co, .cz, .de, .ec, .fi, .fr, .gb, .gf, .gl, .hr, .hu, .ie, .il, .im, .je, .li, .lu, .mf, .nc, .nf, .nz, .pm, .re, .si, .uy, .wf
{ fill: #0066ff; }

/* Recognition of foreign marriages */
.aw, .cw, .sx, .mx
{ fill: #7fbcff; }

/* Legal but no recognition */
.ai, .al, .am, .as, .az, .ba, .bg, .bf, .by, .bj, .bm, .bo, .bs, .cd, .cg, .cf, .ci, .cl, .cn, .cr, .cu, .cv, .cy, .dj, .do, .ee, .fk, .fj, .fm, .fo, .ga, .ge, .gg, .gi, .gq, .gr, .gs, .gt, .gu, .gw, .hn, .ht, .id, .in, .iq, .it, .jo, .jp, .kg, .kh, .kp, .kr, .ky, .kz, .la, .lk, .lt, .lv, .mc, .md, .me, .mg, .mh, .mk, .ml, .mn, .mp, .mt, .ms, .mz, .ne, .ni, .np, .pa, .pe, .pf, .ph, .pl, .pn, .pr, .py, .ro, .rs, .ru, .rw, .sh, .sk, .sm, .sr, .st, .sv, .tc, .td, .th, .tj, .tk, .tl, .tr, .tw, .ua, .us, .va, .ve, .vg, .vi, .vn, .vu, .xk, .ps_west_bank
{ fill: #cccccc; }

/* Illegal, minimal penalty */
.bt, .lb, .lr
{ fill: #f9dc36; }

/* Illegal, large penalty */
.ag, .ao, .bh, .bi, .bn, .bw, .bz, .cm, .ck, .dm, .dz, .eg, .eh, .er, .et, .gd, .gh, .gm, .gn, .jm, .ke, .ki, .km, .kn, .kw, .lc, .ls, .ly, .ma, .mu, .mv, .mw, .my, .na, .ng, .nr, .nu, .om, .pg, .pw, .qa, .sb, .sc, .sg, .sn, .so, .ss, .sy, .sz, .tg, .tm, .tn, .to, .tt, .tv, .uz, .vc, .ws, .zm, .zw, .xc, .ps_gaza_strip
{ fill: #ec8028; }

/* Illegal, life imprisonment */
.bb, .bd, .gy, .mm, .pk, .sl, .tz, .ug
{ fill: #e73e21; }

/* Illegal, death penalty */
.ae, .af, .ir, .mr, .sa, .sd, .ye
{ fill: #8c201f; }

/* SUB-NATIONAL UNITS */

/* Same-sex marriage */
.br_al, .mx_dif, .us_ct, .us_dc, .us_ia, .us_ma, .us_md, .us_nh, .us_ny, .us_vt, .us_wa
{ fill: #002255; }

/* Civil unions etc. */
.mx_coa, .uk_je, .us_ca, .us_co, .us_de, .us_hi, .us_il, .us_me, .us_nj, .us_nv, .us_or, .us_ri, .us_wi, .ve_l
{ fill: #0066ff; }

/* Recognition of foreign marriages */
.bq
{ fill: #7fbcff; }

/* Illegal, large penalty */
.id_ac
{ fill: #ec8028; }

/* Illegal, death penalty */
.ng_sharia, .so_shabaab
{ fill: #8c201f; }

</style>
  <path
     inkscape:connector-curvature="0"
     style="fill:#ffffff;fill-rule:nonzero;stroke:#000000;stroke-width:32.25384903;stroke-linecap:butt;stroke-linejoin:miter;stroke-miterlimit:4;stroke-opacity:1;stroke-dasharray:none"
     d="m 6744.6742,4851.4195 c 0,240.4927 -194.9342,435.4269 -435.427,435.4269 l -6095.9773,0 c -240.482688,0 -435.42695,-194.9342 -435.42695,-435.4269 l 0,-4354.2695 c 0,-240.4826 194.944262,-435.4269 435.42695,-435.4269 l 6095.9773,0 c 240.4928,0 435.427,194.9443 435.427,435.4269 l 0,4354.2695 z"
     id="path11" />
  <path
     inkscape:connector-curvature="0"
     style="fill:#000000;fill-rule:nonzero;stroke:none"
     d="m 213.2699,5177.9896 c -180.073648,0 -326.57021,-146.5131 -326.57021,-326.5702 l 0,-4354.2694 c 0,-180.0736 146.496562,-326.5702 326.57021,-326.5702 l 6095.9773,0 c 180.0571,0 326.5702,146.4966 326.5702,326.5702 l 0,4354.2694 c 0,180.0571 -146.5131,326.5702 -326.5702,326.5702 l -6095.9773,0 z"
     id="path13" />
  <path
     inkscape:connector-curvature="0"
     style="fill:#ffffff;fill-rule:nonzero;stroke:none"
     d="m 213.26989,4996.5617 c -80.03227,0 -145.142318,-65.1124 -145.142318,-145.1423 l 0,-4354.2694 c 0,-80.0322 65.110048,-145.1423 145.142318,-145.1423 l 6095.97731,0 c 80.0299,0 145.1424,65.1101 145.1424,145.1423 l 0,4354.2694 c 0,80.0299 -65.1125,145.1423 -145.1424,145.1423 l -6095.97731,0 z"
     id="path15" />
  <path
     inkscape:connector-curvature="0"
     style="fill:#000000;fill-rule:nonzero;stroke:none"
     d="m 4505.8941,4561.1348 -333.0612,-589.7334 0,589.7334 -137.5223,0 0,-870.8539 137.5223,0 317.7809,556.137 0,-556.137 137.5224,0 0,870.8539 -122.2421,0 z"
     id="path17" />
  <path
     inkscape:connector-curvature="0"
     style="fill:#000000;fill-rule:nonzero;stroke:none"
     d="m 3045.698,4429.741 c -45.8407,85.5534 -149.7304,146.6744 -256.6922,146.6744 -106.9538,0 -210.8595,-61.121 -256.6923,-146.6744 -24.4443,-51.9287 -39.7286,-113.0497 -39.7286,-180.299 l 0,-559.1569 137.5102,0 0,559.1569 c 0,113.0901 64.1731,186.4273 158.9107,186.4273 94.7295,0 158.9026,-73.3372 158.9026,-186.4273 l 0,-559.1569 137.5143,0 0,559.1569 c 0,67.2493 -15.2803,128.3703 -39.7247,180.299 z"
     id="path19" />
  <path
     inkscape:connector-curvature="0"
     style="fill:#000000;fill-rule:nonzero;stroke:none"
     d="m 2159.3946,3812.503 0,748.6321 -138.0949,0 0,-748.6321 -199.49,0 0,-122.226 540.1471,0 0,122.226 -202.5622,0 z"
     id="path21" />
  <path
     inkscape:connector-curvature="0"
     style="fill:#000000;fill-rule:nonzero;stroke:none"
     d="m 3676.398,3843.0676 c -21.3843,-12.2323 -33.6085,-15.2884 -79.4453,-15.2884 l -165.0187,0 0,213.8955 165.0187,0 c 42.7807,0 58.061,-3.0561 79.4453,-15.268 33.6246,-18.3406 55.013,-55.0091 55.013,-91.6737 0,-36.6726 -21.3884,-73.3372 -55.013,-91.6654 z m 61.121,718.0675 -140.5663,-378.902 -165.0187,0 0,378.902 -137.5062,0 0,-870.8581 287.2407,0 c 67.2291,0 113.0698,6.1122 155.8505,27.5045 76.4094,36.6726 131.4022,128.33 131.4022,216.9515 0,91.6737 -54.9928,183.3149 -134.4582,220.0036 l 152.8026,406.3985 -149.7466,0 z"
     id="path23" />
  <path
     inkscape:connector-curvature="0"
     style="fill:#000000;fill-rule:nonzero;stroke:none"
     d="m 4480.6153,940.2171 c -24.4323,-12.2202 -39.7126,-15.2802 -82.5295,-15.2802 l -180.2587,0 0,213.8993 180.2587,0 c 42.8169,0 58.0972,-3.0601 82.5295,-15.2762 30.5603,-15.2803 51.9688,-55.0009 51.9688,-91.6735 0,-36.6685 -21.4085,-73.3331 -51.9688,-91.6694 z m 58.0571,308.6209 c -39.7126,18.3322 -91.6817,30.5565 -158.8907,30.5565 l -161.9546,0 0,378.898 -137.5224,0 0,-870.8538 299.477,0 c 70.2731,0 116.1137,6.1121 158.8904,27.4964 76.4016,36.6726 134.4585,128.3421 134.4585,216.9514 0,91.6735 -58.0569,183.343 -134.4585,216.9515 z"
     id="path25" />
  <path
     inkscape:connector-curvature="0"
     style="fill:#000000;fill-rule:nonzero;stroke:none"
     d="m 5062.9584,909.6606 0,748.6319 -138.0868,0 0,-748.6319 -199.4898,0 0,-122.2259 540.131,0 0,122.2259 -202.5544,0 z"
     id="path27" />
  <path
     inkscape:connector-curvature="0"
     style="fill:#000000;fill-rule:nonzero;stroke:none"
     d="m 2321.2081,1658.2925 -140.5663,-290.2846 -140.5704,290.2846 -155.8506,0 216.9677,-449.1792 -201.6914,-421.6786 155.8546,0 125.2901,259.732 125.29,-259.732 155.8506,0 -204.7434,421.6786 220.0197,449.1792 -155.8506,0 z"
     id="path29" />
  <path
     inkscape:connector-curvature="0"
     style="fill:#000000;fill-rule:nonzero;stroke:none"
     d="m 1256.9924,1658.2925 0,-870.8538 512.6789,0 0,137.5022 -375.3541,0 0,213.8953 253.2935,0 0,140.5583 -253.2935,0 0,238.3398 402.8263,0 0,140.5582 -540.1511,0 z"
     id="path31" />
  <path
     inkscape:connector-curvature="0"
     style="fill:#000000;fill-rule:nonzero;stroke:none"
     d="m 3392.1086,1658.2925 0,-870.8538 512.695,0 0,137.5022 -375.3703,0 0,213.8953 253.2895,0 0,140.5583 -253.2895,0 0,238.3398 402.8264,0 0,140.5582 -540.1511,0 z"
     id="path33" />
  <path
     inkscape:connector-curvature="0"
     style="fill:#000000;fill-rule:nonzero;stroke:none"
     d="m 2937.7122,1673.5768 c -128.3421,0 -210.8515,-48.8928 -265.8524,-155.8425 -39.7287,-76.3892 -64.1731,-186.395 -64.1731,-296.3968 0,-137.5022 36.6646,-275.0083 97.7816,-351.3975 51.9489,-64.169 125.2941,-97.7775 223.0797,-97.7775 131.4022,0 213.9075,55.0008 271.9725,177.2268 l -128.3461,55.0008 c -48.8968,-73.3371 -76.4013,-91.6694 -143.6264,-91.6694 -70.2851,0 -116.1219,30.5565 -146.6784,106.9496 -21.3923,51.9408 -33.6165,128.3341 -33.6165,201.6672 0,94.7255 21.3883,189.4511 55.0049,244.4519 30.5564,45.8328 70.2851,67.2251 131.4021,67.2251 58.061,0 100.8417,-30.5565 134.4583,-100.8376 l 131.4021,48.8928 c -51.9488,128.334 -137.5142,192.5071 -262.8083,192.5071 z"
     id="path35" />
  <path
     inkscape:connector-curvature="0"
     style="fill:#000000;fill-rule:nonzero;stroke:none"
     d="m 2442.2285,3109.7197 0,-870.8579 139.3286,0 0,870.8579 -139.3286,0 z"
     id="path37" />
  <path
     inkscape:connector-curvature="0"
     style="fill:#000000;fill-rule:nonzero;stroke:none"
     d="m 4618.6213,2361.0837 0,748.636 -138.0866,0 0,-748.636 -199.5304,0 0,-122.2259 540.1711,0 0,122.2259 -202.5541,0 z"
     id="path39" />
  <path
     inkscape:connector-curvature="0"
     style="fill:#000000;fill-rule:nonzero;stroke:none"
     d="m 2083.3158,2391.6442 c -21.3843,-12.2282 -33.6085,-15.2802 -79.4493,-15.2802 l -165.0147,0 0,213.8914 165.0147,0 c 42.7847,0 58.065,-3.0521 79.4493,-15.2722 33.6246,-18.3363 55.021,-55.0049 55.021,-91.6695 0,-36.6686 -21.3964,-73.3412 -55.021,-91.6695 z m 61.121,718.0755 -140.5703,-378.9061 -165.0147,0 0,378.9061 -137.5062,0 0,-870.8619 287.2406,0 c 67.2332,0 113.0699,6.1161 155.8506,27.5044 76.3973,36.6686 131.4022,128.3341 131.4022,216.9515 0,91.6695 -55.0049,183.3349 -134.4582,220.0035 l 152.7986,406.4025 -149.7426,0 z"
     id="path41" />
  <path
     inkscape:connector-curvature="0"
     style="fill:#000000;fill-rule:nonzero;stroke:none"
     d="m 4012.8943,3109.7197 0,-378.9061 -317.8052,0 0,378.9061 -137.5183,0 0,-870.8579 137.5183,0 0,351.3936 317.8052,0 0,-351.3936 137.5224,0 0,870.8579 -137.5224,0 z"
     id="path43" />
  <path
     inkscape:connector-curvature="0"
     style="fill:#000000;fill-rule:nonzero;stroke:none"
     d="m 3090.9582,3124.9959 c -131.4021,0 -207.7994,-48.8928 -259.7483,-158.8905 -36.6726,-76.3892 -58.0569,-183.3429 -58.0569,-290.2886 0,-140.5583 39.7166,-278.0645 97.7856,-354.4537 51.9448,-64.169 125.2901,-97.7775 223.0757,-97.7775 134.4623,0 213.9075,55.0008 271.9725,192.5071 l -131.4062,51.9407 c -36.6726,-76.3892 -73.3372,-103.8896 -140.5663,-103.8896 -70.2811,0 -116.1259,30.5565 -146.6784,106.9497 -21.3964,51.9408 -33.6166,131.3901 -33.6166,204.7233 0,91.6694 15.2763,183.3429 42.7807,238.3398 27.4964,48.8928 67.2332,70.2811 119.182,70.2811 88.6094,0 152.7946,-55.0049 152.7946,-134.4502 l 0,-36.6644 -158.9147,0 0,-137.5062 296.4249,0 0,174.1708 c 0,158.8986 -116.1219,275.0084 -275.0286,275.0084 z"
     id="path45" />
</svg>
