<svg version="1.1" viewBox="0 0 36 36" xmlns="http://www.w3.org/2000/svg">
 <g fill="none" stroke-linejoin="round" stroke-width="2.5" stroke="#fff">
  <path d="m32.53589838 6.5h-29.07179677l14.53589838 25.17691454z" stroke="#000" stroke-width="4.2"/>
  <path d="m32.53589838 6.5h-29.07179677l14.53589838 25.17691454z" stroke-width="4"/>
  <path d="m32.53589838 6.5h-29.07179677l14.53589838 25.17691454z" fill="#af1e2d" stroke="#af1e2d"/>
  <path d="m12.12435565 11.5h11.75128869l-5.875644347 10.17691454z" fill="#fff"/>
 </g>
 <path transform="matrix(.003 0 0 -.003 20.359 15.25)" d="m672 502q0-343-144-456-51-46-141-46h-277v1e3h257q111 0 161-39 94-67 120-221 24-128 24-238zm-141-7q0 194-27 262-34 103-130 103h-120v-720h120q60 0 96 40.5t48 103.5q13 127 13 211zm-559-495h-509v1e3h144v-866h365zm-677 0h-509v1e3h471v-140h-327v-254h207v-137h-207v-329h365zm-729 0h-140v1e3h140zm-276 1e3 -249-548v-452h-144v452l-246 548h151l169-361 165 361z" fill="#af1e2d"/>
</svg>
