<?xml version="1.0" encoding="UTF-8" standalone="no"?>
<!-- Created with Inkscape (http://www.inkscape.org/) -->

<svg
   xmlns:dc="http://purl.org/dc/elements/1.1/"
   xmlns:cc="http://creativecommons.org/ns#"
   xmlns:rdf="http://www.w3.org/1999/02/22-rdf-syntax-ns#"
   xmlns:svg="http://www.w3.org/2000/svg"
   xmlns="http://www.w3.org/2000/svg"
   xmlns:sodipodi="http://sodipodi.sourceforge.net/DTD/sodipodi-0.dtd"
   xmlns:inkscape="http://www.inkscape.org/namespaces/inkscape"
   width="502.90005"
   height="377.89999"
   id="svg2"
   version="1.1"
   inkscape:version="0.48.4 r9939"
   sodipodi:docname="Ajax.svg">
  <defs
     id="defs4" />
  <sodipodi:namedview
     id="base"
     pagecolor="#ffffff"
     bordercolor="#666666"
     borderopacity="1.0"
     inkscape:pageopacity="0.0"
     inkscape:pageshadow="2"
     inkscape:zoom="1.1457031"
     inkscape:cx="227.28587"
     inkscape:cy="159.79736"
     inkscape:document-units="px"
     inkscape:current-layer="layer1"
     showgrid="false"
     fit-margin-top="1.45"
     fit-margin-left="1.45"
     fit-margin-bottom="1.45"
     fit-margin-right="1.45"
     inkscape:window-width="1280"
     inkscape:window-height="1001"
     inkscape:window-x="-8"
     inkscape:window-y="-8"
     inkscape:window-maximized="1"
     showguides="true"
     inkscape:guide-bbox="true">
    <sodipodi:guide
       orientation="-0.70710678,0.70710678"
       position="1972.8786,-1987.1213"
       id="guide3845" />
  </sodipodi:namedview>
  <metadata
     id="metadata7">
    <rdf:RDF>
      <cc:Work
         rdf:about="">
        <dc:format>image/svg+xml</dc:format>
        <dc:type
           rdf:resource="http://purl.org/dc/dcmitype/StillImage" />
        <dc:title />
      </cc:Work>
    </rdf:RDF>
  </metadata>
  <g
     inkscape:label="Layer 1"
     inkscape:groupmode="layer"
     id="layer1"
     transform="translate(-2.9999999e-7,-674.4623)">
    <path
       inkscape:connector-curvature="0"
       style="fill:#ffffff;fill-opacity:1;fill-rule:nonzero;stroke:#000000;stroke-opacity:1;stroke-width:2.50000000000000000;stroke-miterlimit:4;stroke-dasharray:none"
       d="m 501.45005,707.1623 c 0,-17.2593 -13.9907,-31.25 -31.25,-31.25 l -437.50005,0 c -17.259,0 -31.2499997,13.9907 -31.2499997,31.25 l 0,312.5 c 0,17.2589 13.9909997,31.25 31.2499997,31.25 l 437.50005,0 c 17.2593,0 31.25,-13.9911 31.25,-31.25 z"
       id="path11"
       sodipodi:nodetypes="sssssssss" />
    <path
       inkscape:connector-curvature="0"
       style="fill:#000000;fill-rule:nonzero;stroke:none"
       d="m 470.20005,1042.579 c 12.6364,0 22.9167,-10.2801 22.9167,-22.9167 l 0,-312.5 c 0,-12.6364 -10.2803,-22.9167 -22.9167,-22.9167 l -437.50005,0 c -12.6366,0 -22.9166996,10.2803 -22.9166996,22.9167 l 0,312.5 c 0,12.6366 10.2800996,22.9167 22.9166996,22.9167 z"
       id="path13"
       sodipodi:nodetypes="sssssssss" />
    <path
       inkscape:connector-curvature="0"
       style="fill:#ffffff;fill-opacity:1;fill-rule:nonzero;stroke:none"
       d="m 470.20005,1030.079 c 5.7438,0 10.4167,-4.6736 10.4167,-10.4167 l 0,-312.5 c 0,-5.7438 -4.6729,-10.4167 -10.4167,-10.4167 l -437.50005,0 c -5.743,0 -10.4167,4.6729 -10.4167,10.4167 l 0,312.5 c 0,5.7431 4.6737,10.4167 10.4167,10.4167 z"
       id="path15"
       sodipodi:nodetypes="sssssssss" />
    <g
       transform="matrix(0.07176864,0,0,0.07176864,15.736145,676.26885)"
       id="text3613"
       style="font-size:1290.15393066px;font-style:normal;font-variant:normal;font-weight:normal;font-stretch:normal;text-align:center;line-height:125%;letter-spacing:0px;word-spacing:0px;text-anchor:middle;fill:#000000;fill-opacity:1;stroke:none;font-family:Roadgeek 2005 Series D;-inkscape-font-specification:Roadgeek 2005 Series D">
      <path
         inkscape:connector-curvature="0"
         id="path3781"
         d="m 3190.732,694.2928 0,-121.27543 -534.128,0 0,121.27543 197.3951,0 0,743.1347 136.7574,0 0,-743.1347 z"
         style="fill:#000000;stroke:none" />
      <path
         inkscape:connector-curvature="0"
         id="path3783"
         d="m 3912.1103,1006.5125 c -0.162,-54.91203 -5.3226,-107.97 -15.482,-159.17394 -10.1608,-51.20278 -24.3526,-96.19721 -42.5754,-134.98346 -26.8522,-52.73469 -59.9126,-91.76213 -99.1814,-117.08243 -39.27,-25.3186 -86.1996,-37.89768 -140.7892,-37.73728 -49.4298,-0.0798 -92.1664,7.82249 -128.2101,23.70677 -36.0442,15.88597 -66.8469,40.2378 -92.408,73.05554 -29.3245,41.9311 -52.2787,93.2151 -68.8626,153.85213 -16.5841,60.63828 -25.0239,126.75914 -25.3194,198.36267 0.2687,52.709 5.8594,105.0144 16.7722,156.9163 10.9124,51.9024 25.5343,96.7894 43.8655,134.6608 25.3731,52.7357 58.1647,91.7631 98.375,117.0825 40.2099,25.3194 90.4187,37.8986 150.6267,37.7373 45.1554,0.081 85.1504,-7.8216 119.9853,-23.7068 34.834,-15.8851 64.5077,-40.2369 89.0214,-73.0555 30.4525,-39.3231 53.7292,-90.0157 69.8301,-152.0781 16.0995,-62.062 24.2168,-127.9141 24.3519,-197.5565 z m -136.7575,0 c -0.2693,34.7543 -3.6022,70.395 -9.9987,106.9224 -6.3976,36.528 -14.2461,66.6857 -23.5455,90.4728 -14.5686,37.8719 -32.5234,65.6641 -53.8644,83.3768 -21.342,17.713 -47.6827,26.4754 -79.0226,26.2872 -27.5239,0.027 -50.8544,-5.5099 -69.9915,-16.6109 -19.1377,-11.1006 -35.3722,-27.9266 -48.7036,-50.4777 -16.8261,-27.9802 -29.6203,-63.2985 -38.3824,-105.9548 -8.7626,-42.6557 -13.1707,-87.3276 -13.2242,-134.0158 0.027,-36.82288 2.8758,-73.16248 8.5474,-109.01881 5.6711,-35.85525 14.0034,-67.03419 24.9969,-93.5369 14.0302,-36.63463 31.77,-63.67431 53.2193,-81.1191 21.4486,-17.44337 47.5744,-26.09821 78.3775,-25.96456 2.58,7.4e-4 5.1602,7.4e-4 7.741,0 25.5609,1.6672 47.3325,7.68797 65.3145,18.06231 17.9812,10.37579 33.6244,26.71785 46.9298,49.02625 16.8254,29.45939 29.6194,65.04638 38.3823,106.76111 8.7619,41.71585 13.1699,86.97908 13.2242,135.7897 z"
         style="fill:#000000;stroke:none" />
      <path
         inkscape:connector-curvature="0"
         id="path3785"
         d="m 1031.5241,2608.8888 c -0.1619,-54.9114 -5.3225,-107.9686 -15.4817,-159.1719 -10.1606,-51.2021 -24.35215,-96.1959 -42.57476,-134.9816 -26.8518,-52.734 -59.9118,-91.7608 -99.18,-117.0808 -39.2694,-25.3183 -86.1984,-37.8972 -140.7873,-37.7368 -49.4291,-0.08 -92.1652,7.8224 -128.2084,23.7065 -36.0437,15.8857 -66.8459,40.2373 -92.4067,73.0545 -29.3241,41.9305 -52.278,93.2138 -68.8616,153.85 -16.5839,60.6375 -25.0236,126.7574 -25.3191,198.3601 0.2687,52.7082 5.8593,105.0129 16.7719,156.9141 10.9124,51.9018 25.534,96.788 43.865,134.659 25.3727,52.7349 58.1639,91.7617 98.3737,117.0808 40.2093,25.3191 90.4174,37.8981 150.6246,37.7368 45.1547,0.081 85.1492,-7.8215 119.9837,-23.7065 34.8334,-15.8849 64.5067,-40.2364 89.0201,-73.0545 30.4522,-39.3225 53.72851,-90.0145 69.82916,-152.076 16.0992,-62.0612 24.2163,-127.9123 24.3514,-197.5537 z m -136.75546,0 c -0.2693,34.7537 -3.6022,70.394 -9.9986,106.9209 -6.3975,36.5275 -14.2459,66.6847 -23.5452,90.4715 -14.5684,37.8714 -32.5229,65.6633 -53.8636,83.3757 -21.3417,17.7128 -47.6821,26.475 -79.0215,26.2868 -27.5235,0.027 -50.8536,-5.5099 -69.9905,-16.6106 -19.1375,-11.1005 -35.3718,-27.9262 -48.703,-50.477 -16.8259,-27.9799 -29.6198,-63.2977 -38.3819,-105.9534 -8.7625,-42.6551 -13.1704,-87.3264 -13.224,-134.0139 0.027,-36.8225 2.8758,-73.1616 8.5473,-109.0174 5.671,-35.8548 14.0032,-67.0333 24.9966,-93.5356 14.03,-36.6342 31.7695,-63.6735 53.2185,-81.118 21.4484,-17.4431 47.5738,-26.0979 78.3764,-25.9642 2.5799,7e-4 5.1602,7e-4 7.7409,0 25.5606,1.6671 47.3318,7.6879 65.3137,18.062 17.9809,10.3756 33.6239,26.7175 46.9291,49.0256 16.8251,29.459 29.619,65.0455 38.3818,106.7597 8.7617,41.7152 13.1697,86.9778 13.224,135.7879 z"
         style="fill:#000000;stroke:none" />
      <path
         inkscape:connector-curvature="0"
         id="path3787"
         d="m 1811.2667,3039.7978 0,-864.3983 -136.7556,0 0,552.1827 -314.7958,-552.1827 -136.7555,0 0,864.3983 136.7555,0 0,-585.7267 330.2776,585.7267 z"
         style="fill:#000000;stroke:none" />
      <path
         inkscape:connector-curvature="0"
         id="path3789"
         d="m 2586.9367,2864.3378 -130.3048,-49.0255 c -16.638,34.6728 -35.9365,60.1532 -57.8953,76.4411 -21.9599,16.2882 -47.3865,24.3517 -76.28,24.1903 -30.0231,0.027 -55.4498,-5.5099 -76.2799,-16.6106 -20.8308,-11.1005 -38.839,-27.9262 -54.0248,-50.477 -16.9335,-27.9261 -30.1575,-63.3514 -39.6721,-106.2759 -9.5151,-42.9239 -14.3531,-88.3478 -14.5141,-136.2718 0.027,-37.2793 2.8757,-73.3496 8.5472,-108.2109 5.6711,-34.8604 14.0032,-65.4475 24.9966,-91.7617 14.702,-37.7631 34.0005,-65.1249 57.8953,-82.0857 23.8943,-16.9593 53.1913,-25.2915 87.8913,-24.9965 31.7156,-0.7788 57.6261,5.2956 77.7312,18.2233 20.1044,12.929 41.4993,37.388 64.1849,73.3771 l 127.7245,-54.1862 c -28.4914,-60.4211 -64.4004,-105.0387 -107.7272,-133.8527 -43.328,-28.8124 -97.299,-43.1115 -161.9134,-42.8974 -48.9185,0.082 -91.7083,8.3063 -128.3696,24.6741 -36.662,16.3696 -67.8404,40.3985 -93.5356,72.0869 -30.5605,39.3234 -54.267,90.0154 -71.1194,152.0761 -16.8527,62.062 -25.3998,127.9131 -25.6416,197.5536 0.2149,54.9123 5.913,107.9695 17.0944,159.1719 11.1811,51.203 26.5554,96.1968 46.1227,134.9816 27.3079,52.7349 62.3569,91.7617 105.147,117.0808 42.7895,25.3191 95.9005,37.8981 159.3331,37.7368 61.819,-0.054 114.285,-16.073 157.3979,-48.0579 43.1118,-31.9849 77.5157,-79.6127 103.2117,-142.8838 z"
         style="fill:#000000;stroke:none" />
      <path
         inkscape:connector-curvature="0"
         id="path3791"
         d="m 3369.9245,2608.8888 c -0.162,-54.9114 -5.3225,-107.9686 -15.4818,-159.1719 -10.1606,-51.2021 -24.3522,-96.1959 -42.5748,-134.9816 -26.8518,-52.734 -59.9118,-91.7608 -99.18,-117.0808 -39.2694,-25.3183 -86.1984,-37.8972 -140.7873,-37.7368 -49.4291,-0.08 -92.1652,7.8224 -128.2084,23.7065 -36.0436,15.8857 -66.8459,40.2373 -92.4066,73.0545 -29.3242,41.9305 -52.278,93.2138 -68.8616,153.85 -16.584,60.6375 -25.0236,126.7574 -25.3192,198.3601 0.2687,52.7082 5.8593,105.0129 16.7719,156.9141 10.9124,51.9018 25.5341,96.788 43.865,134.659 25.3727,52.7349 58.1639,91.7617 98.3737,117.0808 40.2093,25.3191 90.4175,37.8981 150.6246,37.7368 45.1548,0.081 85.1492,-7.8215 119.9837,-23.7065 34.8334,-15.8849 64.5068,-40.2364 89.02,-73.0545 30.4523,-39.3225 53.7286,-90.0145 69.8293,-152.076 16.0993,-62.0612 24.2164,-127.9123 24.3515,-197.5537 z m -136.7556,0 c -0.2693,34.7537 -3.6022,70.394 -9.9986,106.9209 -6.3975,36.5275 -14.2459,66.6847 -23.5452,90.4715 -14.5684,37.8714 -32.5229,65.6633 -53.8636,83.3757 -21.3417,17.7128 -47.6821,26.475 -79.0215,26.2868 -27.5235,0.027 -50.8536,-5.5099 -69.9905,-16.6106 -19.1374,-11.1005 -35.3717,-27.9262 -48.7029,-50.477 -16.826,-27.9799 -29.62,-63.2977 -38.3819,-105.9534 -8.7626,-42.6551 -13.1705,-87.3264 -13.224,-134.0139 0.027,-36.8225 2.8757,-73.1616 8.5473,-109.0174 5.671,-35.8548 14.0032,-67.0333 24.9964,-93.5356 14.0301,-36.6342 31.7697,-63.6735 53.2186,-81.118 21.4484,-17.4431 47.5738,-26.0979 78.3764,-25.9642 2.5799,7e-4 5.1602,7e-4 7.7409,0 25.5606,1.6671 47.3318,7.6879 65.3137,18.062 17.9809,10.3756 33.624,26.7175 46.9291,49.0256 16.8251,29.459 29.6191,65.0455 38.3818,106.7597 8.7617,41.7152 13.1697,86.9778 13.224,135.7879 z"
         style="fill:#000000;stroke:none" />
      <path
         inkscape:connector-curvature="0"
         id="path3793"
         d="m 4234.8166,3039.7978 0,-864.3983 -136.7555,0 -199.9727,485.0951 -199.9728,-485.0951 -136.7555,0 0,864.3983 136.7555,0 0,-500.5769 199.9728,500.5769 199.9727,-500.5769 0,500.5769 z"
         style="fill:#000000;stroke:none" />
      <path
         inkscape:connector-curvature="0"
         id="path3795"
         d="m 4580.1237,3039.7978 0,-864.3983 -139.3359,0 0,864.3983 z"
         style="fill:#000000;stroke:none" />
      <path
         inkscape:connector-curvature="0"
         id="path3797"
         d="m 5374.3143,3039.7978 0,-864.3983 -136.7556,0 0,552.1827 -314.7958,-552.1827 -136.7555,0 0,864.3983 136.7555,0 0,-585.7267 330.2776,585.7267 z"
         style="fill:#000000;stroke:none" />
      <path
         inkscape:connector-curvature="0"
         id="path3799"
         d="m 6150.0051,2781.7684 0,-172.8796 -294.1535,0 0,136.7556 157.3979,0 0,36.124 c -0.8069,40.0217 -14.9984,72.2215 -42.5748,96.5997 -27.5774,24.3786 -63.7015,36.9038 -108.3724,37.5756 -25.8301,0.081 -48.6764,-5.5637 -68.539,-16.9332 -19.8631,-11.3693 -36.5813,-28.9475 -50.1544,-52.7347 -13.6275,-28.4368 -24.1099,-63.4858 -31.4474,-105.147 -7.3379,-41.6607 -11.047,-85.7406 -11.1274,-132.24 0.027,-36.8225 2.8757,-73.1616 8.5472,-109.0174 5.6711,-35.8548 14.0032,-67.0333 24.9965,-93.5356 14.7021,-37.7631 34.0004,-65.1249 57.8954,-82.0857 23.8942,-16.9593 53.1913,-25.2915 87.8913,-24.9965 32.3338,-0.3756 59.2655,7.4728 80.7953,23.5452 21.5288,16.0737 41.0422,42.6292 58.5405,79.6665 l 130.3048,-51.6059 c -28.3302,-67.2212 -63.9167,-115.978 -106.7597,-146.2704 -42.8441,-30.2907 -97.1378,-45.1811 -162.8809,-44.6713 -48.9185,0.082 -91.7083,8.3063 -128.3697,24.6741 -36.6619,16.3696 -67.8405,40.3985 -93.5357,72.0869 -29.4316,39.2696 -52.8154,90.0691 -70.1517,152.3986 -17.3364,62.3308 -26.2062,128.9345 -26.6093,199.8115 0.1075,53.5682 5.0531,105.4428 14.8367,155.6239 9.7835,50.1816 23.7601,94.6378 41.9299,133.369 25.1845,53.9711 58.352,93.7506 99.5025,119.3385 41.1501,25.5879 93.9923,38.2743 158.5267,38.0593 80.8219,-1.5589 146.243,-27.4694 196.2637,-77.7314 50.0193,-50.2618 75.7685,-115.5216 77.2475,-195.7797 z"
         style="fill:#000000;stroke:none" />
      <path
         inkscape:connector-curvature="0"
         id="path3801"
         d="m 1605.3873,3899.036 0,-121.2753 -534.1276,0 0,121.2753 197.395,0 0,743.134 136.7573,0 0,-743.134 z"
         style="fill:#000000;stroke:none" />
      <path
         inkscape:connector-curvature="0"
         id="path3803"
         d="m 2320.3065,4642.17 -152.2392,-403.8211 c 40.5857,-19.1639 72.9472,-48.5688 97.0847,-88.2149 24.1361,-39.6452 36.5002,-82.9193 37.0922,-129.8227 -0.6726,-45.1013 -12.8754,-87.4616 -36.6084,-127.081 -23.7342,-39.618 -54.9669,-69.0767 -93.698,-88.3762 -20.8851,-10.1592 -43.6242,-17.2551 -68.2174,-21.2877 -24.5942,-4.0309 -53.4616,-5.9661 -86.6022,-5.8057 l -285.1262,0 0,864.4093 136.7574,0 0,-376.7277 163.8507,0 139.3377,376.7277 z m -154.8196,-621.8587 c -0.1618,18.4123 -4.9999,35.7757 -14.5144,52.0904 -9.5154,16.3157 -22.7395,29.4861 -39.6725,39.5113 -10.2142,5.6718 -20.7506,9.4885 -31.609,11.4501 -10.8593,1.9626 -26.5562,2.8765 -47.0909,2.7416 l -163.8507,0 0,-211.5868 163.8507,0 c 21.5829,-0.1605 37.4412,0.8071 47.5748,2.903 10.1327,2.0971 20.5077,6.2902 31.1251,12.579 16.933,9.4081 30.1571,22.2023 39.6725,38.3824 9.5145,16.1814 14.3526,33.4911 14.5144,51.929 z"
         style="fill:#000000;stroke:none" />
      <path
         inkscape:connector-curvature="0"
         id="path3805"
         d="m 3120.6808,4642.17 -298.0278,-864.4093 -135.4671,0 -298.0277,864.4093 145.7884,0 85.1508,-242.5507 269.6441,0 85.1508,242.5507 z m -279.9654,-381.8884 -172.8819,0 89.0212,-242.5506 z"
         style="fill:#000000;stroke:none" />
      <path
         inkscape:connector-curvature="0"
         id="path3807"
         d="m 3788.189,3914.5179 0,-136.7572 -536.7079,0 0,864.4093 136.7573,0 0,-376.7277 251.5818,0 0,-139.3376 -251.5818,0 0,-211.5868 z"
         style="fill:#000000;stroke:none" />
      <path
         inkscape:connector-curvature="0"
         id="path3809"
         d="m 4453.4379,3914.5179 0,-136.7572 -536.7079,0 0,864.4093 136.7574,0 0,-376.7277 251.5817,0 0,-139.3376 -251.5817,0 0,-211.5868 z"
         style="fill:#000000;stroke:none" />
      <path
         inkscape:connector-curvature="0"
         id="path3811"
         d="m 4721.3166,4642.17 0,-864.4093 -139.3376,0 0,864.4093 z"
         style="fill:#000000;stroke:none" />
      <path
         inkscape:connector-curvature="0"
         id="path3813"
         d="m 5497.455,4466.7078 -130.3064,-49.0262 c -16.6383,34.6733 -35.9369,60.154 -57.8962,76.4421 -21.96,16.2884 -47.387,24.352 -76.2808,24.1906 -30.0236,0.027 -55.4505,-5.5099 -76.2809,-16.6108 -20.831,-11.1006 -38.8396,-27.9265 -54.0256,-50.4776 -16.9336,-27.9265 -30.1578,-63.3522 -39.6725,-106.2773 -9.5152,-42.9244 -14.3533,-88.3489 -14.5144,-136.2734 0.027,-37.2799 2.8759,-73.3507 8.5474,-108.2125 5.6711,-34.8607 14.0035,-65.4483 24.9969,-91.7628 14.7022,-37.7636 34.0009,-65.1257 57.896,-82.0867 23.8946,-16.9595 53.1921,-25.2919 87.8924,-24.9969 31.7161,-0.7787 57.6269,5.2959 77.7324,18.2236 20.1045,12.9292 41.4997,37.3886 64.1855,73.378 l 127.7262,-54.1868 c -28.4918,-60.4219 -64.4013,-105.04 -107.7287,-133.8545 -43.3284,-28.8128 -97.3002,-43.112 -161.9154,-42.8979 -48.919,0.082 -91.7094,8.3063 -128.3712,24.6743 -36.6624,16.3699 -67.8413,40.3992 -93.5368,72.0879 -30.561,39.3239 -54.2676,90.0165 -71.1203,152.078 -16.8528,62.0628 -25.4002,127.9148 -25.642,197.5563 0.215,54.9129 5.9132,107.9708 17.0947,159.1738 11.1813,51.2036 26.5557,96.198 46.1233,134.9834 27.3083,52.7355 62.3577,91.7628 105.1483,117.0822 42.7901,25.3196 95.9018,37.8986 159.3352,37.7373 61.8198,-0.054 114.2864,-16.0732 157.3998,-48.0586 43.1124,-31.9852 77.5167,-79.6137 103.2131,-142.8855 z"
         style="fill:#000000;stroke:none" />
    </g>
  </g>
</svg>
