<?xml version="1.0" encoding="UTF-8" standalone="no"?>
<svg
   xmlns:dc="http://purl.org/dc/elements/1.1/"
   xmlns:cc="http://creativecommons.org/ns#"
   xmlns:rdf="http://www.w3.org/1999/02/22-rdf-syntax-ns#"
   xmlns:svg="http://www.w3.org/2000/svg"
   xmlns="http://www.w3.org/2000/svg"
   xmlns:sodipodi="http://sodipodi.sourceforge.net/DTD/sodipodi-0.dtd"
   xmlns:inkscape="http://www.inkscape.org/namespaces/inkscape"
   width="407.15918"
   height="291.3927"
   viewBox="0 0 1149.0937 822.37493"
   version="1.1"
   id="svg2"
   inkscape:version="0.48.2 r9819"
   sodipodi:docname="AJAX1.svg">
  <metadata
     id="metadata62">
    <rdf:RDF>
      <cc:Work
         rdf:about="">
        <dc:format>image/svg+xml</dc:format>
        <dc:type
           rdf:resource="http://purl.org/dc/dcmitype/StillImage" />
        <dc:title></dc:title>
      </cc:Work>
    </rdf:RDF>
  </metadata>
  <defs
     id="defs60" />
  <sodipodi:namedview
     pagecolor="#ffffff"
     bordercolor="#666666"
     borderopacity="1"
     objecttolerance="10"
     gridtolerance="10"
     guidetolerance="10"
     inkscape:pageopacity="0"
     inkscape:pageshadow="2"
     inkscape:window-width="1280"
     inkscape:window-height="1004"
     id="namedview58"
     showgrid="false"
     fit-margin-top="0"
     fit-margin-left="0"
     fit-margin-right="0"
     fit-margin-bottom="0"
     inkscape:zoom="0.82634611"
     inkscape:cx="209.30122"
     inkscape:cy="-11.790101"
     inkscape:window-x="-8"
     inkscape:window-y="-8"
     inkscape:window-maximized="1"
     inkscape:current-layer="svg2" />
  <!-- draw the bicycle -->
  <!-- RIGHT -->
  <!-- LANE -->
  <!-- ONLY -->
  <path
     inkscape:connector-curvature="0"
     d="m 1146.2594,737.88865 c 0,45.10265 -36.5654,81.67159 -81.6751,81.67159 l -980.07318,0 c -45.1097,0 -81.67865,-36.56894 -81.67865,-81.67159 l 0,-653.386808 c 0,-45.10617 36.56895,-81.6715915 81.67865,-81.6715915 l 980.07318,0 c 45.1097,0 81.6751,36.5654215 81.6751,81.6715915 l 0,653.386808 z"
     style="fill:#ffffff;stroke:#000000;stroke-width:5.64444494;stroke-linecap:butt;stroke-linejoin:miter;stroke-miterlimit:4;stroke-opacity:1;stroke-dasharray:none"
     id="path3027" />
  <path
     inkscape:connector-curvature="0"
     d="m 1125.8367,737.88865 c 0,33.82787 -27.4214,61.25281 -61.2528,61.25281 l -980.07315,0 c -33.83139,0 -61.25634,-27.42494 -61.25634,-61.25281 l 0,-653.386808 c 0,-33.83139 27.42495,-61.25633 61.25634,-61.25633 l 980.07315,0 c 33.8314,0 61.2528,27.42494 61.2528,61.25633 l 0,653.386808 z"
     style="fill:#000000;fill-opacity:1;fill-rule:nonzero;stroke:none"
     id="path3031" />
  <path
     inkscape:connector-curvature="0"
     d="m 1091.8131,737.88865 c 0,15.03539 -12.1955,27.22387 -27.2309,27.22387 l -980.0732,0 c -15.03186,0 -27.22386,-12.18848 -27.22386,-27.22387 l 0,-653.386808 c 0,-15.03539 12.192,-27.22386 27.22386,-27.22386 l 980.0732,0 c 15.0354,0 27.2309,12.18847 27.2309,27.22386 l 0,653.386808 z"
     style="fill:#ffffff;fill-opacity:1;fill-rule:nonzero;stroke:none"
     id="path3035" />
  <path
     inkscape:connector-curvature="0"
     d="m 543.17657,169.73048 -49.82986,0 0,189.61806 -34.39584,0 0,-189.61806 -50.27083,0 0,-31.30903 134.49653,0 0,31.30903 z"
     style="fill:#000000;fill-opacity:1;fill-rule:nonzero;stroke:none"
     id="path3039" />
  <path
     inkscape:connector-curvature="0"
     d="m 705.9553,248.88498 c 0,-53.06131 -14.44272,-79.59725 -43.32464,-79.59725 -8.44903,0 -15.88911,2.40594 -22.33083,7.20725 -6.44525,4.81189 -10.922,11.19716 -13.43731,19.177 -5.18936,16.41122 -7.77875,34.14889 -7.77875,53.213 0,53.06836 14.50975,79.59725 43.54689,79.59725 8.29381,0 15.65981,-2.36361 22.10153,-7.09083 6.44525,-4.72722 10.922,-11.0878 13.44436,-19.07469 5.18231,-16.54881 7.77875,-34.36056 7.77875,-53.43173 m 34.39584,-0.10936 c 0,22.40492 -3.10092,43.49045 -9.30275,63.24248 -4.73075,15.18708 -13.3597,27.46022 -25.90448,36.81589 -12.5483,9.36272 -26.78994,14.04408 -42.7355,14.04408 -15.94203,0 -30.19072,-4.75544 -42.73903,-14.26281 -12.5483,-9.51089 -21.18078,-21.85811 -25.90094,-37.04166 -6.0572,-19.74851 -9.0805,-40.68234 -9.0805,-62.79798 0,-22.25675 3.0233,-43.18706 9.0805,-62.79798 4.72016,-15.33172 13.35264,-27.67894 25.90094,-37.04166 12.54831,-9.35567 26.797,-14.04409 42.73903,-14.04409 15.94556,0 30.22248,4.68842 42.84486,14.04409 12.62239,9.36272 21.29014,21.63586 26.01737,36.81589 6.05014,19.60739 9.0805,40.6153 9.0805,63.02375"
     style="fill:#000000;fill-opacity:1;fill-rule:nonzero;stroke:none"
     id="path3043" />
  <path
     inkscape:connector-curvature="0"
     d="m 214.19045,553.78626 48.48578,0 c 7.67645,0 14.20636,-2.68111 19.59681,-8.04686 5.38691,-5.36223 8.08214,-11.86745 8.08214,-19.51567 0,-7.49653 -2.69523,-13.95942 -8.08214,-19.40278 -5.39045,-5.43631 -11.92036,-8.15622 -19.59681,-8.15622 l -48.48578,0 0,55.12153 z m 114.1977,131.40973 -37.11575,0 -35.60939,-97.0139 -41.47256,0 0,97.0139 -34.39583,0 0,-220.9271 82.93806,0 c 17.09914,0 31.72883,6.07836 43.89614,18.23156 12.16025,12.15319 18.24566,26.76878 18.24566,43.85028 0,11.77925 -3.12913,22.72242 -9.36977,32.80833 -6.25123,10.08945 -14.59442,17.70945 -25.02606,22.86353 l 37.9095,103.1734 z"
     style="fill:#000000;fill-opacity:1;fill-rule:nonzero;stroke:none"
     id="path3047" />
  <path
     inkscape:connector-curvature="0"
     d="m 484.9252,588.62306 -22.53192,-67.58517 -23.46678,67.58517 45.9987,0 z m 69.6595,96.57293 -35.86339,0 -21.62175,-62.17709 -69.41256,0 -21.62175,62.17709 -36.32906,0 75.16989,-220.9271 34.5052,0 75.17342,220.9271 z"
     style="fill:#000000;fill-opacity:1;fill-rule:nonzero;stroke:none"
     id="path3051" />
  <path
     inkscape:connector-curvature="0"
     d="m 767.02994,685.19599 -34.39583,0 0,-127.80787 -51.12456,127.80787 -51.181,-127.80787 0,127.80787 -34.39584,0 0,-220.9271 34.61809,0 51.17042,127.77259 51.11397,-127.77259 34.19475,0 0,220.9271 z"
     style="fill:#000000;fill-opacity:1;fill-rule:nonzero;stroke:none"
     id="path3055" />
  <path
     inkscape:connector-curvature="0"
     d="m 853.44004,498.66473 0,55.12153 52.10528,0 c 7.53534,0 14.0335,-2.68111 19.50509,-8.04686 5.47158,-5.36223 8.20561,-11.86745 8.20561,-19.51214 0,-7.49653 -2.73403,-13.96295 -8.20561,-19.40278 -5.47159,-5.43984 -11.96975,-8.15975 -19.50509,-8.15975 l -52.10528,0 z m -34.39583,-34.39584 86.46584,0 c 17.09913,0 31.72883,6.0572 43.89614,18.161 12.16025,12.10734 18.24566,26.66648 18.24566,43.68448 0,17.16969 -6.09247,31.80644 -18.25978,43.91378 -12.17436,12.1038 -26.82169,18.15394 -43.93847,18.15394 l -52.01356,0 0,97.0139 -34.39583,0 0,-220.9271 z"
     style="fill:#000000;fill-opacity:1;fill-rule:nonzero;stroke:none"
     id="path3059" />
</svg>
