<?xml version="1.0" encoding="UTF-8" standalone="no"?>
<!-- Generator: Adobe Illustrator 12.0.1, SVG Export Plug-In  -->

<svg
   xmlns:dc="http://purl.org/dc/elements/1.1/"
   xmlns:cc="http://creativecommons.org/ns#"
   xmlns:rdf="http://www.w3.org/1999/02/22-rdf-syntax-ns#"
   xmlns:svg="http://www.w3.org/2000/svg"
   xmlns="http://www.w3.org/2000/svg"
   xmlns:sodipodi="http://sodipodi.sourceforge.net/DTD/sodipodi-0.dtd"
   xmlns:inkscape="http://www.inkscape.org/namespaces/inkscape"
   version="1.1"
   width="302.875"
   height="106.71875"
   viewBox="-1 0 302.875 106.71875"
   enable-background="new -1 0 289 288"
   xml:space="preserve"
   id="svg2"
   inkscape:version="0.48.2 r9819"
   sodipodi:docname="R1-3-2-DE.svg"><metadata
   id="metadata22"><rdf:RDF><cc:Work
       rdf:about=""><dc:format>image/svg+xml</dc:format><dc:type
         rdf:resource="http://purl.org/dc/dcmitype/StillImage" /><dc:title></dc:title></cc:Work></rdf:RDF></metadata><sodipodi:namedview
   pagecolor="#ffffff"
   bordercolor="#666666"
   borderopacity="1"
   objecttolerance="10"
   gridtolerance="10"
   guidetolerance="10"
   inkscape:pageopacity="0"
   inkscape:pageshadow="2"
   inkscape:window-width="1280"
   inkscape:window-height="1004"
   id="namedview20"
   showgrid="false"
   fit-margin-top="0"
   fit-margin-left="0"
   fit-margin-right="0"
   fit-margin-bottom="0"
   inkscape:zoom="1.6388889"
   inkscape:cx="177.9664"
   inkscape:cy="-4.4750245"
   inkscape:window-x="-8"
   inkscape:window-y="-8"
   inkscape:window-maximized="1"
   inkscape:current-layer="svg2"
   showguides="true"
   inkscape:guide-bbox="true" />
<defs
   id="defs4">
</defs>







<path
   inkscape:connector-curvature="0"
   d="m 301.12425,88.426 c 0,9.645 -7.89125,17.5375 -17.5375,17.5375 l -266.305,0 c -9.645,0 -17.5375,-7.8925 -17.5375,-17.5375 l 0,-70.14875 c 0,-9.645 7.8925,-17.5375 17.5375,-17.5375 l 266.305,0 c 9.64625,0 17.5375,7.8925 17.5375,17.5375 l 0,70.14875 z"
   style="fill:#ffffff;stroke:#000000;stroke-width:1.5;stroke-linecap:butt;stroke-linejoin:miter;stroke-miterlimit:4;stroke-opacity:1;stroke-dasharray:none"
   id="path7359" /><path
   inkscape:connector-curvature="0"
   d="m 295.27849,88.426 c 0,6.43 -5.26125,11.69125 -11.69125,11.69125 l -266.305,0 c -6.43125,0 -11.6925,-5.26125 -11.6925,-11.69125 l 0,-70.14875 c 0,-6.43 5.26125,-11.69125 11.6925,-11.69125 l 266.305,0 c 6.43,0 11.69125,5.26125 11.69125,11.69125 l 0,70.14875 z"
   style="fill:#bf2033;fill-opacity:1;fill-rule:nonzero;stroke:none"
   id="path7371" /><path
   inkscape:connector-curvature="0"
   d="m 41.67714,42.33324 -3.90875,16.1725 8.04875,0 -4.14,-16.1725 z m 10.1175,39.6325 -3.98875,-15.43875 -12.1075,0 -3.7575,15.43875 -8.16125,0 14.14,-56.495 7.8975,0 14.06375,56.495 -8.08625,0 z"
   style="fill:#ffffff;fill-opacity:1;fill-rule:nonzero;stroke:none"
   id="path7375" /><path
   inkscape:connector-curvature="0"
   d="m 67.83237,81.9655 0,-56.49375 8.10625,0 0,48.90375 20.62125,0 0,7.59 -28.7275,0 z"
   style="fill:#ffffff;fill-opacity:1;fill-rule:nonzero;stroke:none"
   id="path7379" /><path
   inkscape:connector-curvature="0"
   d="m 104.56488,81.9655 0,-56.49375 8.10625,0 0,48.90375 20.62,0 0,7.59 -28.72625,0 z"
   style="fill:#ffffff;fill-opacity:1;fill-rule:nonzero;stroke:none"
   id="path7383" /><path
   inkscape:connector-curvature="0"
   d="m 193.11625,81.9655 -6.9375,0 -5.3275,-29.4925 -5.32375,29.4925 -7.24625,0 -8.92625,-56.49375 8.01125,0 4.71,30.14375 5.55875,-30.14375 6.36,0 5.32625,30.14375 5.01875,-30.14375 7.86,0 -9.08375,56.49375 z"
   style="fill:#ffffff;fill-opacity:1;fill-rule:nonzero;stroke:none"
   id="path7387" /><path
   inkscape:connector-curvature="0"
   d="m 223.41825,42.33324 -3.91,16.1725 8.04875,0 -4.13875,-16.1725 z m 10.1175,39.6325 -3.9875,-15.43875 -12.10875,0 -3.7575,15.43875 -8.16125,0 14.14,-56.495 7.89625,0 14.06625,56.495 -8.0875,0 z"
   style="fill:#ffffff;fill-opacity:1;fill-rule:nonzero;stroke:none"
   id="path7391" /><path
   inkscape:connector-curvature="0"
   d="m 266.9965,56.38089 0,25.585 -8.02125,0 0,-25.585 -13.99,-30.91 8.62125,0 9.4925,20.415 9.3425,-20.415 8.61875,0 -14.06375,30.91 z"
   style="fill:#ffffff;fill-opacity:1;fill-rule:nonzero;stroke:none"
   id="path7395" /></svg>