<?xml version="1.0" encoding="UTF-8" standalone="no"?>
<!-- Generator: Adobe Illustrator 12.0.1, SVG Export Plug-In  -->

<svg
   xmlns:dc="http://purl.org/dc/elements/1.1/"
   xmlns:cc="http://creativecommons.org/ns#"
   xmlns:rdf="http://www.w3.org/1999/02/22-rdf-syntax-ns#"
   xmlns:svg="http://www.w3.org/2000/svg"
   xmlns="http://www.w3.org/2000/svg"
   xmlns:sodipodi="http://sodipodi.sourceforge.net/DTD/sodipodi-0.dtd"
   xmlns:inkscape="http://www.inkscape.org/namespaces/inkscape"
   version="1.1"
   width="280.5"
   height="280.5"
   viewBox="-1 0 280.5 280.5"
   enable-background="new -1 0 289 288"
   xml:space="preserve"
   id="svg2"
   inkscape:version="0.48.2 r9819"
   sodipodi:docname="AJAX1.svg"><metadata
   id="metadata22"><rdf:RDF><cc:Work
       rdf:about=""><dc:format>image/svg+xml</dc:format><dc:type
         rdf:resource="http://purl.org/dc/dcmitype/StillImage" /><dc:title /></cc:Work></rdf:RDF></metadata><sodipodi:namedview
   pagecolor="#ffffff"
   bordercolor="#666666"
   borderopacity="1"
   objecttolerance="10"
   gridtolerance="10"
   guidetolerance="10"
   inkscape:pageopacity="0"
   inkscape:pageshadow="2"
   inkscape:window-width="1280"
   inkscape:window-height="1004"
   id="namedview20"
   showgrid="false"
   fit-margin-top="0"
   fit-margin-left="0"
   fit-margin-right="0"
   fit-margin-bottom="0"
   inkscape:zoom="1.1588695"
   inkscape:cx="94.507428"
   inkscape:cy="76.56904"
   inkscape:window-x="-8"
   inkscape:window-y="-8"
   inkscape:window-maximized="1"
   inkscape:current-layer="svg2"
   showguides="true"
   inkscape:guide-bbox="true" />
<defs
   id="defs4">
</defs>







<path
   inkscape:connector-curvature="0"
   d="m 278.75938,256.50463 c 0,12.7875 -10.4625,23.25 -23.25,23.25 l -232.4975,0 c -12.7875,0 -23.25,-10.4625 -23.25,-23.25 l 0,-232.4975 c 0,-12.7875 10.4625,-23.25 23.25,-23.25 l 232.4975,0 c 12.7875,0 23.25,10.4625 23.25,23.25 l 0,232.4975 z"
   style="fill:#ffffff;fill-opacity:1;fill-rule:nonzero;stroke:#000000;stroke-width:1.5;stroke-miterlimit:4;stroke-opacity:1;stroke-dasharray:none"
   id="path4642" /><path
   inkscape:connector-curvature="0"
   d="m 255.5095,6.56925 -232.49875,0 c -9.59,0 -17.43625,7.84625 -17.43625,17.4375 l 0,232.4975 c 0,9.59125 7.84625,17.4375 17.43625,17.4375 l 232.49875,0 c 9.59,0 17.4375,-7.84625 17.4375,-17.4375 l 0,-232.4975 c 0,-9.59125 -7.8475,-17.4375 -17.4375,-17.4375 m 7.75,249.935 c 0,4.2625 -3.4875,7.75 -7.75,7.75 l -232.4975,0 c -4.2625,0 -7.75,-3.4875 -7.75,-7.75 l 0,-232.4975 c 0,-4.2625 3.4875,-7.75 7.75,-7.75 l 232.4975,0 c 4.2625,0 7.75,3.4875 7.75,7.75 l 0,232.4975 z"
   style="fill:#000000;fill-opacity:1;fill-rule:nonzero;stroke:none"
   id="path4650" /><path
   inkscape:connector-curvature="0"
   d="m 204.42811,151.80475 c 4.87125,0 8.8475,-3.97125 8.8475,-8.8425 0,-4.87125 -3.97625,-8.845 -8.8475,-8.845 -4.86875,0 -8.845,3.97375 -8.845,8.845 0,4.87125 3.97625,8.8425 8.845,8.8425 m 26.05,51.60875 c 2.675,-7.64 0.96875,-19.23375 -3.6875,-31.265 2.12875,0.42375 4.26,0.8575 6.39,1.28625 l 2.2125,22.36 5.65125,0.98125 0,-28.01125 c -0.1525,-0.15875 -26.2175,-19.35875 -33.28625,-14.69 -7.13875,3.72625 -10.69875,19.825 -11.55875,23.4475 l -18.5525,12.37625 2.94375,4.42 20.15375,-6.6325 4.305,-5.6075 4.04625,13.96 -10.56375,18.92375 -9.08875,33.91125 10.07125,3.68 10.565,-32.185 7.62125,-8.10875 16.46375,42.76125 7.61625,-5.41125 -11.3025,-46.19625 z"
   style="fill:#000000;fill-opacity:1;fill-rule:evenodd;stroke:none"
   id="path4662" /><path
   inkscape:connector-curvature="0"
   d="m 67.15387,212.95663 16.625,6.46375 c 1.62,0.59 2.68875,2.17625 2.60125,3.9025 -0.10375,2.03125 -1.76375,3.6625 -3.78625,3.71125 l -45.76375,6.30375 -0.0863,-0.0913 8.17625,-45.4625 c 0.13125,-2.02 1.835,-3.615 3.87,-3.6325 1.72875,-0.015 3.2675,1.12 3.7875,2.76 l 5.5875,16.23625 c 20.55875,-18.3525 47.15125,-28.37875 74.61125,-28.37375 8.2875,0 17.4375,1.31 25.2175,3.11875 l -0.41375,24.83125 c -10.71625,-4.27125 -23.68875,-6.94 -35.52,-6.94 -19.45625,0 -38.91625,6.49125 -54.90625,17.1725"
   style="fill:#000000;fill-opacity:1;fill-rule:evenodd;stroke:none"
   id="path4666" /><path
   inkscape:connector-curvature="0"
   d="m 49.68826,165.1175 0,-14.05125 -8.495,0 0,14.05125 -4.45375,0 0,-30.995 4.45375,0 0,12.6275 8.495,0 0,-12.6275 4.45375,0 0,30.995 -4.45375,0 z"
   style="fill:#000000;fill-opacity:1;fill-rule:nonzero;stroke:none"
   id="path4670" /><path
   inkscape:connector-curvature="0"
   d="m 60.93788,165.1175 0,-30.995 14.6025,0 0,4.3625 -10.14875,0 0,7.80625 6.42875,0 0,4.27 -6.42875,0 0,10.19375 11.3425,0 0,4.3625 -15.79625,0 z"
   style="fill:#000000;fill-opacity:1;fill-rule:nonzero;stroke:none"
   id="path4674" /><path
   inkscape:connector-curvature="0"
   d="m 94.82512,165.1175 -4.1325,-14.55625 -4.27,0 0,14.55625 -4.455,0 0,-30.995 9.27625,0 c 4.8675,0 8.1275,3.26 8.1275,8.265 0,3.72 -1.515,6.42875 -4.455,7.485 l 4.455,15.245 -4.54625,0 z m -3.81125,-26.6325 -4.59125,0 0,7.80625 4.59125,0 c 2.6175,0 3.995,-1.42375 3.995,-3.90375 0,-2.3875 -1.6075,-3.9025 -3.995,-3.9025"
   style="fill:#000000;fill-opacity:1;fill-rule:nonzero;stroke:none"
   id="path4678" /><path
   inkscape:connector-curvature="0"
   d="m 104.65126,165.1175 0,-30.995 14.6025,0 0,4.3625 -10.14875,0 0,7.80625 6.42875,0 0,4.27 -6.42875,0 0,10.19375 11.3425,0 0,4.3625 -15.79625,0 z"
   style="fill:#000000;fill-opacity:1;fill-rule:nonzero;stroke:none"
   id="path4682" /><path
   inkscape:connector-curvature="0"
   d="m 130.87288,215.80175 0,26.8625 -4.5,0 0,-26.8625 -5.6475,0 0,-4.1325 15.79625,0 0,4.1325 -5.64875,0 z"
   style="fill:#000000;fill-opacity:1;fill-rule:nonzero;stroke:none"
   id="path4686" /><path
   inkscape:connector-curvature="0"
   d="m 156.63262,237.88812 c -1.56125,3.67375 -3.81125,5.32625 -7.255,5.32625 -3.72,0 -5.8775,-1.6525 -7.3925,-5.32625 -1.28625,-3.07625 -1.745,-5.96875 -1.745,-10.79125 0,-4.6825 0.4125,-7.805 1.745,-10.74375 1.6075,-3.72 3.81125,-5.235 7.3925,-5.235 3.58125,0 5.69375,1.56125 7.255,5.32625 1.28625,3.07625 1.745,5.97 1.745,10.6525 0,4.8225 -0.45875,7.80625 -1.745,10.79125 m -3.44375,-18.505 c -0.78,-2.70875 -1.975,-3.9025 -3.81125,-3.9025 -1.975,0 -3.1225,1.19375 -3.94875,3.81125 -0.68875,2.3875 -0.965,4.45375 -0.965,7.94375 0,3.35125 0.27625,5.32625 0.965,7.805 0.73375,2.6175 1.97375,3.8125 3.94875,3.8125 1.83625,0 3.03125,-1.195 3.81125,-3.8125 0.735,-2.47875 0.96375,-4.36125 0.96375,-7.94375 0,-3.44375 -0.32125,-5.4175 -0.96375,-7.71375"
   style="fill:#000000;fill-opacity:1;fill-rule:nonzero;stroke:none"
   id="path4690" /><path
   inkscape:connector-curvature="0"
   d="m 200.02512,32.77186 c -1.27375,-5.03125 -5.91125,-7.25875 -10.67125,-7.25875 -20.475,-0.005 -40.945,-0.008 -61.42,-0.0163 -10.5575,0 -21.115,-0.005 -31.6725,-0.007 l -7.625,0 c -7.42125,-0.002 -12.87875,7.22125 -9.29625,14.23625 2.7,4.67125 5.40125,9.335 8.09875,14.00125 11.84625,20.48375 23.69125,40.9675 35.53375,61.45 2.73625,4.7275 5.37,9.52875 8.20875,14.1925 3.77625,6.19375 13.0925,5.95625 16.6725,-0.275 1.04,-1.80625 2.07375,-3.605 3.11125,-5.40625 11.29625,-19.65875 22.59625,-39.31625 33.895,-58.97625 4.315,-7.5075 8.62875,-15.01625 12.9425,-22.52375 1.7125,-2.98125 3.085,-5.72875 2.2225,-9.41625 m -27.435,17.56125 -28.825,50.135 c -0.845,1.565 -2.54125,2.5825 -4.335,2.5825 -1.79625,0 -3.49375,-1.0175 -4.34125,-2.5825 l -29.025,-50.1525 c -0.44125,-0.755 -0.69375,-1.65875 -0.69375,-2.5475 0,-2.7175 2.2175,-4.93375 4.94,-4.93375 l 57.3125,0 c 3.46375,0 5.68125,2.21625 5.68125,4.93375 0,0.88875 -0.27,1.81375 -0.71375,2.565"
   style="fill:#af1e2d;fill-opacity:1;fill-rule:nonzero;stroke:none"
   id="path4654" /><path
   inkscape:connector-curvature="0"
   d="m 128.61038,51.48324 -1.9175,0 -2.04875,4.48375 -2.09125,-4.48375 -1.86875,0 3.0475,6.79375 0,5.61625 1.78625,0 0,-5.61625 3.0925,-6.79375 z m 1.6925,12.41 1.74375,0 0,-12.41 -1.74375,0 0,12.41 z m 10.7575,0 0,-1.74125 -4.52875,0 0,-4.095 2.56875,0 0,-1.69375 -2.56875,0 0,-3.13875 4.04625,0 0,-1.74125 -5.8325,0 0,12.41 6.315,0 z m 8.40125,0 0,-1.6525 -4.52625,0 0,-10.7575 -1.78875,0 0,12.41 6.315,0 z m 8.665,-6.225 c 0,-0.95875 -0.13125,-2.04875 -0.3025,-2.96375 -0.2225,-1.25875 -0.74125,-2.21625 -1.48125,-2.74125 -0.43625,-0.34625 -0.96125,-0.48 -2.005,-0.48 l -3.17375,0 0,12.41 3.43625,0 c 0.69625,0 1.30625,-0.17625 1.7425,-0.5625 1.21875,-0.95875 1.78375,-2.79125 1.78375,-5.6625 m -1.74,0.0863 c 0,0.95875 -0.0862,1.82625 -0.175,2.61 -0.17625,0.95625 -0.73875,1.7875 -1.78875,1.7875 l -1.4775,0 0,-8.9275 1.4775,0 c 0.7875,0 1.3125,0.39125 1.6125,1.26625 0.2175,0.5175 0.35125,1.8725 0.35125,3.26375"
   style="fill:#af1e2d;fill-opacity:1;fill-rule:evenodd;stroke:none"
   id="path4658" /></svg>