<?xml version="1.0" encoding="UTF-8" standalone="no"?>
<!-- Generator: Adobe Illustrator 14.0.0, SVG Export Plug-In  -->

<svg
   xmlns:dc="http://purl.org/dc/elements/1.1/"
   xmlns:cc="http://creativecommons.org/ns#"
   xmlns:rdf="http://www.w3.org/1999/02/22-rdf-syntax-ns#"
   xmlns:svg="http://www.w3.org/2000/svg"
   xmlns="http://www.w3.org/2000/svg"
   xmlns:sodipodi="http://sodipodi.sourceforge.net/DTD/sodipodi-0.dtd"
   xmlns:inkscape="http://www.inkscape.org/namespaces/inkscape"
   version="1.1"
   x="0px"
   y="0px"
   width="165.84372"
   height="165.84372"
   viewBox="0 -0.321 165.84373 165.84375"
   enable-background="new 0 -0.321 144 120"
   xml:space="preserve"
   id="svg2"
   inkscape:version="0.48.2 r9819"
   sodipodi:docname="AJAX1.svg"><metadata
   id="metadata44"><rdf:RDF><cc:Work
       rdf:about=""><dc:format>image/svg+xml</dc:format><dc:type
         rdf:resource="http://purl.org/dc/dcmitype/StillImage" /><dc:title /></cc:Work></rdf:RDF></metadata><sodipodi:namedview
   pagecolor="#ffffff"
   bordercolor="#666666"
   borderopacity="1"
   objecttolerance="10"
   gridtolerance="10"
   guidetolerance="10"
   inkscape:pageopacity="0"
   inkscape:pageshadow="2"
   inkscape:window-width="1280"
   inkscape:window-height="1004"
   id="namedview42"
   showgrid="false"
   fit-margin-top="0"
   fit-margin-left="0"
   fit-margin-right="0"
   fit-margin-bottom="0"
   inkscape:zoom="3.7904688"
   inkscape:cx="78.734013"
   inkscape:cy="90.239855"
   inkscape:window-x="-8"
   inkscape:window-y="-8"
   inkscape:window-maximized="1"
   inkscape:current-layer="svg2" />
<defs
   id="defs4">
</defs>


















<path
   inkscape:connector-curvature="0"
   d="m 10.794966,165.02596 144.241324,0 c 2.70739,0 5.37233,-1.09644 7.283,-3.0096 1.91816,-1.92316 3.01959,-4.58559 3.01959,-7.29298 l 0,-144.233822 c 0,-2.7073964 -1.10143,-5.369836 -3.01959,-7.2879913 -1.91067,-1.9181546 -4.57561,-3.0146002 -7.283,-3.0146002 l -144.241324,0 c -2.7073969,0 -5.3698365,1.0964456 -7.2780014,3.0146002 C 1.5988099,5.119722 0.49736912,7.7771664 0.49736912,10.489558 l 0,144.233822 c 0,3.5216 1.86820268,6.86838 4.84284208,8.75657 1.6933715,1.08146 3.4891445,1.34121 5.4547548,1.54601 z"
   style="fill:#ffffff;stroke:#000000;stroke-width:0.99951243;stroke-linecap:butt;stroke-linejoin:miter;stroke-miterlimit:2.61299992;stroke-opacity:1;stroke-dasharray:none"
   id="path6704" /><path
   inkscape:connector-curvature="0"
   d="m 3.1068787,154.71837 0,-144.223817 c 0,-2.0305472 0.8142172,-4.0111424 2.2528335,-5.4447637 1.431124,-1.4086455 3.4242071,-2.2578287 5.4347728,-2.2578287 l 144.236325,0 c 2.01057,0 4.02114,0.8491832 5.43978,2.2578287 1.41863,1.4161381 2.25782,3.4292021 2.25782,5.4447637 l 0,144.223817 c 0,2.01557 -0.8342,4.02364 -2.25782,5.44477 -1.41864,1.40865 -3.42921,2.25783 -5.43978,2.25783 l -144.236325,0 c -2.0105657,0 -4.0036488,-0.84918 -5.4347728,-2.25783 -1.4436116,-1.43362 -2.2528335,-3.40672 -2.2528335,-5.44477"
   style="fill:#000000;fill-opacity:1;fill-rule:evenodd;stroke:none"
   id="path6708" /><path
   inkscape:connector-curvature="0"
   d="m 7.438713,154.71837 c 0,0.90164 0.3521614,1.74084 0.9890489,2.38022 0.6343899,0.6244 1.4785781,0.98655 2.3677221,0.98655 l 144.236326,0 c 0.88914,0 1.74083,-0.36215 2.37023,-0.98655 0.63938,-0.63938 0.99653,-1.47858 0.99653,-2.38022 l 0,-144.223817 c 0,-0.8941399 -0.36714,-1.7458209 -0.99653,-2.3802108 -0.6294,-0.6243995 -1.48109,-0.9865513 -2.37023,-0.9865513 l -144.236326,0 c -0.889144,0 -1.7333322,0.3571566 -2.3677221,0.9865513 C 7.7958696,8.7487321 7.438713,9.6004131 7.438713,10.494553 l 0,144.223817 z"
   style="fill:#ffffff;fill-opacity:1;fill-rule:evenodd;stroke:none"
   id="path6712" /><path
   inkscape:connector-curvature="0"
   style="fill:#000000;fill-opacity:1;fill-rule:evenodd;stroke:none"
   d="m 57.134702,74.332182 -41.834789,43.520648 0,11.30163 41.834789,0 0,13.86167 11.738711,0 0,-13.86167 9.678192,0 0,-11.30163 -9.678192,0 0,-43.520648 -11.738711,0 z m 0,16.421709 0,27.098939 -26.03746,0 26.03746,-27.098939 z"
   id="path6716" /><path
   inkscape:connector-curvature="0"
   style="fill:#000000;fill-opacity:1;fill-rule:evenodd;stroke:none"
   d="m 121.19811,73.582903 c -7.78753,0 -15.42518,3.254371 -20.48032,9.241114 -3.906244,4.608068 -5.989241,10.432466 -7.055716,16.296827 -1.703361,9.303546 -1.126416,19.009216 2.372719,27.848216 3.062055,7.71259 9.703167,13.96158 17.795377,16.10951 6.9858,1.85322 14.7883,1.11892 21.04229,-2.62248 8.18962,-4.89779 12.13083,-12.78021 13.79923,-21.91643 1.14639,-6.27396 1.27627,-12.76272 0.12489,-19.044176 -1.12142,-6.121615 -3.30433,-12.18828 -7.36792,-16.983668 -4.8828,-5.771949 -12.73025,-8.928913 -20.23054,-8.928913 z m 0,12.238231 c 4.5806,0 8.69164,1.850719 11.67627,5.369836 2.54755,2.979634 3.70144,6.950816 4.3708,10.73967 1.15139,6.56119 0.55697,13.92412 -1.81076,20.16811 -1.70087,4.50816 -5.5147,7.97233 -10.17771,9.17867 -5.77944,1.48107 -11.82865,-0.21229 -15.73489,-4.80788 -2.55755,-2.99961 -3.76887,-6.93083 -4.43323,-10.73966 -0.8342,-4.70299 -0.63689,-9.54832 0.18721,-14.23632 0.96158,-5.469737 2.98713,-10.827087 8.11719,-13.611907 2.38022,-1.293758 5.09263,-2.060519 7.80502,-2.060519 z"
   id="path6720" /><path
   inkscape:connector-curvature="0"
   d="m 123.99566,54.709554 -7.12065,-12.845169 -2.55257,3.464168 0,9.381001 -4.28337,0 0,-27.473599 4.28337,0 0,10.844569 7.95738,-10.844569 5.27242,0 -7.88741,10.814598 9.26358,16.659001 -4.93275,0 z"
   style="fill:#000000;fill-opacity:1;fill-rule:evenodd;stroke:none"
   id="path6732" /><path
   inkscape:connector-curvature="0"
   style="fill:#000000;fill-opacity:1;fill-rule:evenodd;stroke:none"
   d="m 36.654397,27.252438 0,27.473599 4.308356,0 0,-12.050931 4.932758,0 4.558116,12.050931 4.620557,0 -4.870317,-12.73777 c 1.371181,-0.716812 2.390201,-1.478577 3.246878,-2.809799 1.640922,-2.555042 1.625936,-5.966761 -0.06234,-8.491833 -1.423632,-2.137944 -3.856292,-3.434197 -6.431317,-3.434197 l -10.302591,0 z m 4.308356,4.245917 5.994236,0.06234 c 1.141404,0.01001 2.177906,0.546974 2.809799,1.498559 0.741785,1.121422 0.741785,2.679923 0,3.808838 -0.629396,0.944092 -1.668395,1.498557 -2.809799,1.498557 l -5.994236,0 0,-6.868393 z"
   id="path6736" /><path
   inkscape:connector-curvature="0"
   d="m 80.015438,45.425961 c 0,3.624014 -2.332757,6.950836 -5.68703,8.289547 -2.245342,0.886648 -4.865322,0.886648 -7.098175,0 -3.371758,-1.338711 -5.687031,-4.660537 -5.687031,-8.289547 l 0,-18.180016 4.290874,0 0,18.180016 c 0,1.61095 0.869164,3.107012 2.225359,3.976176 1.628435,1.043995 3.813833,1.048991 5.439769,0 1.341211,-0.869164 2.217868,-2.37022 2.217868,-3.976176 l 0,-18.180016 4.298366,0 0,18.180016 z"
   style="fill:#000000;fill-opacity:1;fill-rule:evenodd;stroke:none"
   id="path6740" /><path
   inkscape:connector-curvature="0"
   d="m 105.0064,32.465923 -4.29337,0.876657 c -0.25226,-0.452065 -0.52699,-0.856674 -0.91162,-1.198847 -1.136407,-0.976559 -2.737367,-1.253793 -4.175984,-0.991545 -2.025551,0.372142 -3.204417,1.775791 -3.901248,3.733909 -1.328722,3.661478 -1.28876,10.427472 1.433622,13.526991 1.233813,1.408645 3.671469,1.705859 5.359844,1.051489 1.001538,-0.38463 1.688376,-1.039002 2.195386,-1.960615 l 4.29337,0.809221 c -0.32219,0.756774 -0.67435,1.528532 -1.18136,2.172911 -0.93161,1.183882 -2.15543,2.130471 -3.55159,2.687437 -2.190387,0.866665 -4.775401,0.896637 -6.985774,0.102308 -5.682037,-2.040537 -7.095677,-9.176194 -6.681076,-14.528547 0.242268,-3.144476 1.156388,-6.848414 3.456675,-9.168683 3.054563,-3.084534 8.224592,-3.459173 11.801145,-1.068972 1.61095,1.08146 2.40019,2.222862 3.14198,3.956195"
   style="fill:#000000;fill-opacity:1;fill-rule:evenodd;stroke:none"
   id="path6744" /><path
   inkscape:connector-curvature="0"
   d="m 147.24082,33.909536 c -0.31719,-0.834199 -0.70182,-1.526033 -1.4486,-2.068012 -1.39615,-1.024015 -3.26935,-1.058982 -4.71796,-0.122283 -1.11643,0.721806 -1.84323,1.985591 -1.83324,3.321806 0.004,1.131411 0.78424,2.230356 1.94563,2.435159 l 4.32334,0.774255 c 1.88819,0.337176 3.60403,1.361191 4.83285,2.819789 1.561,1.853217 2.21538,4.385781 1.72834,6.765993 -0.66436,3.199443 -3.29433,5.732008 -6.49376,6.316445 -2.65245,0.48953 -5.62958,-0.184822 -7.83496,-1.720845 -2.04803,-1.438617 -2.98463,-2.92221 -3.88127,-5.152565 l 3.91124,-1.823247 c 0.46955,1.408646 1.03901,2.467628 2.26283,3.394236 1.49855,1.141403 3.65898,1.748319 5.46474,1.024015 1.21384,-0.487031 2.10298,-1.583477 2.36023,-2.867241 0.40461,-2.078002 -1.01402,-4.288377 -3.13198,-4.658022 l -4.18098,-0.736792 c -2.56504,-0.449566 -4.683,-2.37022 -5.39482,-4.867819 -0.75677,-2.664937 0.33718,-5.587125 2.27281,-7.460324 2.85476,-2.769835 7.39539,-3.194427 10.67974,-0.946589 1.53103,1.043996 2.33525,2.255331 3.06205,3.903744 l -3.92623,1.668397 z"
   style="fill:#000000;fill-opacity:1;fill-rule:evenodd;stroke:none"
   id="path6748" /><path
   inkscape:connector-curvature="0"
   d="m 25.253601,31.561793 0,23.147761 -4.288396,0 0,-23.147761 -6.204034,0 0,-4.325838 16.73143,0 0,4.325838 -6.239,0 z"
   style="fill:#000000;fill-opacity:1;fill-rule:evenodd;stroke:none"
   id="path6752" /></svg>