<?xml version="1.0" encoding="UTF-8" standalone="no"?>
<!-- Generator: Adobe Illustrator 14.0.0, SVG Export Plug-In  -->

<svg
   xmlns:dc="http://purl.org/dc/elements/1.1/"
   xmlns:cc="http://creativecommons.org/ns#"
   xmlns:rdf="http://www.w3.org/1999/02/22-rdf-syntax-ns#"
   xmlns:svg="http://www.w3.org/2000/svg"
   xmlns="http://www.w3.org/2000/svg"
   xmlns:sodipodi="http://sodipodi.sourceforge.net/DTD/sodipodi-0.dtd"
   xmlns:inkscape="http://www.inkscape.org/namespaces/inkscape"
   version="1.1"
   x="0px"
   y="0px"
   width="165.99997"
   height="166.03122"
   viewBox="0 -0.321 165.99998 166.03125"
   enable-background="new 0 -0.321 144 120"
   xml:space="preserve"
   id="svg2"
   inkscape:version="0.48.2 r9819"
   sodipodi:docname="AJAX1.svg"><metadata
   id="metadata44"><rdf:RDF><cc:Work
       rdf:about=""><dc:format>image/svg+xml</dc:format><dc:type
         rdf:resource="http://purl.org/dc/dcmitype/StillImage" /><dc:title /></cc:Work></rdf:RDF></metadata><sodipodi:namedview
   pagecolor="#ffffff"
   bordercolor="#666666"
   borderopacity="1"
   objecttolerance="10"
   gridtolerance="10"
   guidetolerance="10"
   inkscape:pageopacity="0"
   inkscape:pageshadow="2"
   inkscape:window-width="1280"
   inkscape:window-height="1004"
   id="namedview42"
   showgrid="false"
   fit-margin-top="0"
   fit-margin-left="0"
   fit-margin-right="0"
   fit-margin-bottom="0"
   inkscape:zoom="2.6802662"
   inkscape:cx="87.255526"
   inkscape:cy="55.597173"
   inkscape:window-x="-8"
   inkscape:window-y="-8"
   inkscape:window-maximized="1"
   inkscape:current-layer="svg2" />
<defs
   id="defs4">
</defs>


















<path
   inkscape:connector-curvature="0"
   d="m 10.80916,0.192639 144.37607,0 c 5.68015,0 10.31276,4.632613 10.31276,10.312752 l 0,144.381079 c 0,5.67764 -4.63261,10.31276 -10.31276,10.31276 l -144.37607,0 c -5.6776394,0 -10.31275321,-4.63512 -10.31275321,-10.31276 l 0,-144.381079 c 0,-5.680139 4.63511381,-10.312752 10.31275321,-10.312752"
   style="fill:#ffffff;fill-opacity:1;fill-rule:nonzero;stroke:#000000;stroke-width:1.0000248;stroke-miterlimit:4;stroke-opacity:1;stroke-dasharray:none"
   id="path7296" /><path
   inkscape:connector-curvature="0"
   d="m 10.849161,3.630223 16.655408,0 39.018477,0 44.968594,0 34.50088,0 8.19769,0 c 2.44007,0 4.75013,0.552514 6.34765,2.577562 1.42004,1.802545 1.52255,3.800094 1.52255,5.957647 l 0,9.262727 0,35.773378 0,45.083623 0,37.98344 0,11.20277 c 0,1.63504 0.17259,3.43508 -0.20001,5.04012 -0.73251,3.1701 -3.70509,5.25015 -6.87517,5.25015 l -6.03014,0 -31.8358,0 -44.511094,0 -40.783522,0 -20.625505,0 c -2.9050707,0 -5.6526382,-1.49503 -6.7626655,-4.2876 -0.6675163,-1.70006 -0.5025123,-3.56261 -0.5025123,-5.35515 l 0,-27.20067 0,-43.253562 0,-42.883573 0,-26.09814 c 0,-1.260031 -0.092402,-2.570063 0.1950049,-3.805094 C 4.8390135,5.802776 7.7390846,3.642723 10.849161,3.630223"
   style="fill:#000000;fill-opacity:1;fill-rule:evenodd;stroke:none"
   id="path7304" /><path
   inkscape:connector-curvature="0"
   d="M 46.630057,54.819219 36.1273,36.223763 l 0,18.595456 -4.335107,0 0,-27.458175 4.335107,0 10.020246,17.535432 0,-17.535432 4.335106,0 0,27.458175 -3.852595,0 z"
   style="fill:#ffffff;fill-opacity:1;fill-rule:nonzero;stroke:none"
   id="path7308" /><path
   inkscape:connector-curvature="0"
   d="m 57.997597,27.360046 4.435108,0 0,27.458173 -4.435108,0 0,-27.458173 z"
   style="fill:#ffffff;fill-opacity:1;fill-rule:nonzero;stroke:none"
   id="path7310" /><path
   inkscape:connector-curvature="0"
   d="m 79.385882,55.301731 c -4.140102,0 -6.547661,-1.542539 -8.187702,-5.010123 -1.157527,-2.407559 -1.832544,-5.782642 -1.832544,-9.150225 0,-4.43511 1.255031,-8.770215 3.085075,-11.177774 1.637542,-2.02505 3.952597,-3.085075 7.032674,-3.085075 4.237604,0 6.742664,1.737543 8.57521,6.067647 l -4.142603,1.642541 c -1.155028,-2.407559 -2.312555,-3.277581 -4.432607,-3.277581 -2.217555,0 -3.66259,0.962525 -4.625114,3.375084 -0.672517,1.63504 -1.057526,4.140102 -1.057526,6.455158 0,2.890071 0.482511,5.775141 1.347533,7.515185 0.867521,1.537538 2.117552,2.210053 3.760092,2.210053 2.792569,0 4.812619,-1.732542 4.812619,-4.237603 l 0,-1.157529 -5.010123,0 0,-4.330106 9.347729,0 0,5.487635 c 0,5.010122 -3.662591,8.672713 -8.672713,8.672713"
   style="fill:#ffffff;fill-opacity:1;fill-rule:nonzero;stroke:none"
   id="path7314" /><path
   inkscape:connector-curvature="0"
   d="m 109.35161,54.819219 0,-11.945294 -10.020239,0 0,11.945294 -4.335106,0 0,-27.458175 4.335106,0 0,11.080273 10.020239,0 0,-11.080273 4.33512,0 0,27.458175 -4.33512,0 z"
   style="fill:#ffffff;fill-opacity:1;fill-rule:nonzero;stroke:none"
   id="path7318" /><path
   inkscape:connector-curvature="0"
   d="m 129.38461,31.213639 0,23.60558 -4.33012,0 0,-23.60558 -6.26516,0 0,-3.852595 16.95793,0 0,3.852595 -6.36265,0 z"
   style="fill:#ffffff;fill-opacity:1;fill-rule:nonzero;stroke:none"
   id="path7322" /><path
   inkscape:connector-curvature="0"
   d="m 80.753395,128.8958 0,-10.88277 -9.947744,0 0,-42.838552 -11.83529,0 -41.666041,42.838552 0,10.88277 41.666041,0 0,13.72783 11.83529,0 0,-13.72783 9.947744,0 z m -21.783034,-10.88277 -26.280645,0 26.280645,-26.983163 0,26.983163 z"
   style="fill:#ffffff;fill-opacity:1;fill-rule:nonzero;stroke:none"
   id="path7326" /><path
   inkscape:connector-curvature="0"
   d="m 118.15432,143.80868 c -9.23272,0 -17.51792,-2.36756 -26.038126,-7.57268 l 6.390158,-10.17525 c 5.920148,3.55008 12.785308,5.43763 19.647968,5.43763 10.18028,0 16.33793,-4.49511 16.33793,-12.0703 0,-3.55008 -1.66004,-7.10017 -4.26261,-9.22772 -2.36755,-1.89005 -5.91767,-2.83757 -10.89028,-2.83757 -4.50012,0 -8.0477,0.70752 -13.02032,2.60256 l -12.075294,-3.07507 2.130053,-31.715782 44.983621,0 -0.24001,11.832791 -33.37584,0 -0.71251,9.705237 c 5.44013,-1.185028 8.75771,-1.66004 13.02031,-1.66004 15.3904,0 26.51317,10.415254 26.51317,24.375594 0,14.20535 -11.83528,24.3806 -28.40822,24.3806"
   style="fill:#ffffff;fill-opacity:1;fill-rule:nonzero;stroke:none"
   id="path7330" /></svg>