<?xml version="1.0" encoding="UTF-8" standalone="no"?>
<!-- Created with Inkscape (http://www.inkscape.org/) -->
<svg
   xmlns:dc="http://purl.org/dc/elements/1.1/"
   xmlns:cc="http://web.resource.org/cc/"
   xmlns:rdf="http://www.w3.org/1999/02/22-rdf-syntax-ns#"
   xmlns:svg="http://www.w3.org/2000/svg"
   xmlns="http://www.w3.org/2000/svg"
   xmlns:sodipodi="http://sodipodi.sourceforge.net/DTD/sodipodi-0.dtd"
   xmlns:inkscape="http://www.inkscape.org/namespaces/inkscape"
   width="601"
   height="1201"
   id="svg2"
   sodipodi:version="0.32"
   inkscape:version="0.44"
   version="1.0"
   sodipodi:docbase="C:\Documents and Settings\ltljltlj\Desktop\Signs\Speed Limit Signs"
   sodipodi:docname="Speed Limit 55 Minimum 30 sign (Outline).svg">
  <defs
     id="defs4" />
  <sodipodi:namedview
     id="base"
     pagecolor="#ffffff"
     bordercolor="#666666"
     borderopacity="1.0"
     gridtolerance="10000"
     guidetolerance="10"
     objecttolerance="10"
     inkscape:pageopacity="0.0"
     inkscape:pageshadow="2"
     inkscape:zoom="0.64333333"
     inkscape:cx="300"
     inkscape:cy="600"
     inkscape:document-units="px"
     inkscape:current-layer="layer1"
     width="601px"
     height="1201px"
     inkscape:window-width="1280"
     inkscape:window-height="968"
     inkscape:window-x="-4"
     inkscape:window-y="-4" />
  <metadata
     id="metadata7">
    <rdf:RDF>
      <cc:Work
         rdf:about="">
        <dc:format>image/svg+xml</dc:format>
        <dc:type
           rdf:resource="http://purl.org/dc/dcmitype/StillImage" />
      </cc:Work>
    </rdf:RDF>
  </metadata>
  <g
     inkscape:label="Layer 1"
     inkscape:groupmode="layer"
     id="layer1">
    <path
       style="color:black;fill:white;fill-opacity:1;fill-rule:nonzero;stroke:black;stroke-width:1;stroke-linecap:butt;stroke-linejoin:miter;marker:none;marker-start:none;marker-mid:none;marker-end:none;stroke-miterlimit:4;stroke-dashoffset:0;stroke-opacity:1;visibility:visible;display:inline;overflow:visible"
       d="M 38,0.5 L 563,0.5 C 583.775,0.5 600.5,17.225 600.5,38 L 600.5,1163 C 600.5,1183.775 583.775,1200.5 563,1200.5 L 38,1200.5 C 17.225,1200.5 0.5,1183.775 0.5,1163 L 0.5,38 C 0.5,17.225 17.225,0.5 38,0.5 z "
       id="rect1872" />
    <path
       style="color:black;fill:black;fill-opacity:1;fill-rule:nonzero;stroke:none;stroke-width:0.8735441;stroke-linecap:butt;stroke-linejoin:miter;marker:none;marker-start:none;marker-mid:none;marker-end:none;stroke-miterlimit:4;stroke-dashoffset:0;stroke-opacity:1;visibility:visible;display:inline;overflow:visible"
       d="M 38,9.875 L 563,9.875 C 578.58125,9.875 591.125,22.41875 591.125,38 L 591.125,1163 C 591.125,1178.5813 578.58125,1191.125 563,1191.125 L 38,1191.125 C 22.41875,1191.125 9.875,1178.5813 9.875,1163 L 9.875,38 C 9.875,22.41875 22.41875,9.875 38,9.875 z "
       id="rect2760" />
    <path
       style="color:black;fill:white;fill-opacity:1;fill-rule:nonzero;stroke:none;stroke-width:0.8735441;stroke-linecap:butt;stroke-linejoin:miter;marker:none;marker-start:none;marker-mid:none;marker-end:none;stroke-miterlimit:4;stroke-dashoffset:0;stroke-opacity:1;visibility:visible;display:inline;overflow:visible"
       d="M 38,25.5 L 563,25.5 C 569.925,25.5 575.5,31.075 575.5,38 L 575.5,1163 C 575.5,1169.925 569.925,1175.5 563,1175.5 L 38,1175.5 C 31.075,1175.5 25.5,1169.925 25.5,1163 L 25.5,38 C 25.5,31.075 31.075,25.5 38,25.5 z "
       id="rect2762" />
    <path
       style="font-size:151.5161438px;font-style:normal;font-variant:normal;font-weight:normal;font-stretch:normal;text-align:center;line-height:125%;writing-mode:lr-tb;text-anchor:middle;font-family:Roadgeek 2005 Series E"
       d="M 143.09229,171.39508 C 143.0922,181.54611 138.27134,189.35749 128.62972,194.82925 C 125.04334,197.01857 120.99388,198.68484 116.48135,199.82808 C 111.96868,200.97132 107.30274,201.54294 102.4835,201.54294 C 93.561507,201.54294 85.69105,199.97611 78.872097,196.84244 C 72.053093,193.70879 65.720739,188.85799 59.875014,182.29003 L 74.6427,171.09903 C 78.538789,175.47464 82.640659,178.65764 86.948322,180.64804 C 91.255917,182.63849 96.331033,183.6337 102.17368,183.63368 C 108.736,183.6337 114.11936,182.41531 118.32379,179.9785 C 122.52808,177.54173 124.63026,174.4316 124.63033,170.6481 C 124.63026,166.67032 122.47723,163.63686 118.17123,161.54772 C 116.32481,160.84937 114.4018,160.15173 112.40216,159.45481 C 110.40241,158.75798 108.22434,158.16207 105.86796,157.66708 L 101.09873,156.32343 L 96.329512,155.27584 L 91.410079,153.78643 C 86.077531,152.5901 81.898207,151.27074 78.872097,149.82836 C 75.845935,148.38607 73.25635,146.47156 71.103337,144.08482 C 68.950287,141.79537 67.335513,139.20751 66.259011,136.32126 C 65.18248,133.43514 64.644222,130.40092 64.644235,127.2186 C 64.644222,123.04045 65.515762,119.25927 67.258856,115.875 C 69.001922,112.49092 71.411565,109.58044 74.487794,107.14355 C 77.563979,104.70686 81.280932,102.81664 85.638664,101.4729 C 89.996331,100.12935 94.791365,99.457528 100.02378,99.45742 C 107.71269,99.457528 114.71082,100.70097 121.01821,103.18776 C 127.32547,105.67475 133.09374,109.55538 138.32307,114.82969 L 124.63033,126.77224 C 118.17117,120.20437 109.96899,116.9204 100.02378,116.92032 C 94.791365,116.9204 90.714529,117.84046 87.793263,119.68049 C 84.871927,121.52069 83.411276,124.03339 83.411307,127.2186 C 83.411276,128.61243 83.667105,129.83158 84.178795,130.87606 C 84.690421,131.92068 85.561961,132.86579 86.793417,133.71139 C 88.024804,134.55712 89.691214,135.32839 91.79265,136.0252 C 93.894007,136.72214 96.534444,137.41826 99.713969,138.11355 C 106.58297,139.50737 112.32543,140.90036 116.94137,142.29253 C 121.55718,143.68483 125.29995,145.07781 128.16969,146.47151 C 132.78549,148.76108 136.42656,152.11944 139.0929,156.54661 C 141.75907,160.97386 143.0922,165.92334 143.09229,171.39508 L 143.09229,171.39508 z M 246.10933,131.09925 C 246.10924,133.6864 245.75092,136.2735 245.03439,138.86053 C 244.31765,141.44769 243.26696,143.88523 241.88229,146.17317 C 240.49744,148.46123 238.83102,150.57539 236.88306,152.51566 C 234.93491,154.45602 232.72946,156.07296 230.2667,157.36646 C 227.29368,158.95763 224.44827,160.00218 221.73045,160.50013 C 219.01249,160.99815 215.70549,161.24715 211.80943,161.24711 L 182.43366,161.24711 L 182.43366,200.49991 L 163.6666,200.49991 L 163.6666,100.50046 L 211.80943,100.50046 C 215.70549,100.50056 219.01249,100.79965 221.73045,101.39775 C 224.44827,101.99603 227.29368,103.09069 230.2667,104.68171 C 235.18917,107.26891 239.06025,110.90056 241.87993,115.57667 C 244.69945,120.25296 246.10924,125.42714 246.10933,131.09925 L 246.10933,131.09925 z M 227.65208,131.09925 C 227.652,127.21867 226.26802,124.13435 223.50013,121.84627 C 220.7321,119.55835 217.04018,118.41436 212.42437,118.41428 L 182.43366,118.41428 L 182.43366,143.33784 L 212.42437,143.33784 C 217.04018,143.3379 220.7321,142.2182 223.50013,139.97872 C 226.26802,137.73936 227.652,134.77954 227.65208,131.09925 L 227.65208,131.09925 z M 263.40715,200.49991 L 263.40715,100.50046 L 338.62096,100.50046 L 338.62096,118.41428 L 282.17423,118.41428 L 282.17423,136.92021 L 312.93476,136.92021 L 312.93476,155.27584 L 282.17423,155.27584 L 282.17423,182.59065 L 340.47044,182.59065 L 340.47044,200.49991 L 263.40715,200.49991 z M 361.04473,200.49991 L 361.04473,100.50046 L 436.25853,100.50046 L 436.25853,118.41428 L 379.8118,118.41428 L 379.8118,136.92021 L 410.57234,136.92021 L 410.57234,155.27584 L 379.8118,155.27584 L 379.8118,182.59065 L 438.10802,182.59065 L 438.10802,200.49991 L 361.04473,200.49991 z M 541.12507,150.35216 C 541.12498,160.403 539.0228,169.15949 534.81853,176.62165 C 530.61408,184.08386 524.41082,190.05285 516.20871,194.52864 C 512.61921,196.52058 508.72232,198.01378 504.51801,199.00823 C 500.3136,200.00268 496.11003,200.49991 491.90728,200.49991 L 458.68232,200.49991 L 458.68232,100.50046 L 491.90728,100.50046 C 500.7259,100.50056 508.92964,102.59119 516.51852,106.77235 C 524.51408,111.24823 530.61408,117.14282 534.81853,124.45615 C 539.0228,131.76962 541.12498,140.40161 541.12507,150.35216 L 541.12507,150.35216 z M 522.66781,150.35216 C 522.66774,143.58689 521.41206,137.91548 518.90079,133.3379 C 516.38936,128.76045 512.56914,125.07946 507.4401,122.29492 C 502.72402,119.7079 497.54642,118.41436 491.90728,118.41428 L 477.4494,118.41428 L 477.4494,182.59065 L 491.90728,182.59065 C 497.33988,182.59067 502.31251,181.29712 506.82517,178.71 C 517.38686,173.33543 522.66774,163.88283 522.66781,150.35216 L 522.66781,150.35216 z "
       id="text2778" />
    <path
       style="font-size:149.25358582px;font-style:normal;font-variant:normal;font-weight:normal;font-stretch:normal;text-align:center;line-height:125%;writing-mode:lr-tb;text-anchor:middle;font-family:Roadgeek 2005 Series E"
       d="M 117.675,363 L 117.675,263.00049 L 135.58513,263.00049 L 135.58513,347.62772 L 192.45391,347.62772 L 192.45391,363 L 117.675,363 z M 209.50315,363 L 209.50315,263.00049 L 227.41328,263.00049 L 227.41328,363 L 209.50315,363 z M 329.64041,363 L 329.64041,301.95725 L 300.23809,363 L 271.13186,301.95725 L 271.13186,363 L 253.52235,363 L 253.52235,263.00049 L 271.13186,263.00049 L 300.23809,322.25322 L 329.64041,263.00049 L 347.25447,263.00049 L 347.25447,363 L 329.64041,363 z M 373.3362,363 L 373.3362,263.00049 L 391.24633,263.00049 L 391.24633,363 L 373.3362,363 z M 454.5194,280.61371 L 454.5194,363 L 437.05565,363 L 437.05565,280.61371 L 408.25004,280.61371 L 408.25004,263.00049 L 483.32501,263.00049 L 483.32501,280.61371 L 454.5194,280.61371 z "
       id="text2784" />
    <path
       style="font-size:147.64976501px;font-style:normal;font-variant:normal;font-weight:normal;font-stretch:normal;text-align:center;line-height:125%;writing-mode:lr-tb;text-anchor:middle;font-family:Roadgeek 2005 Series C"
       d="M 121.1932,838.00072 L 121.1932,781.88161 L 103.08197,838.00072 L 84.823634,781.88161 L 84.823634,838.00072 L 70.800022,838.00072 L 70.800022,738.00112 L 84.823634,738.00112 L 103.08197,794.12023 L 121.1932,738.00112 L 135.36392,738.00112 L 135.36392,838.00072 L 121.1932,838.00072 z M 156.67124,838.00072 L 156.67124,738.00112 L 170.40065,738.00112 L 170.40065,838.00072 L 156.67124,838.00072 z M 236.30628,838.00072 L 206.07038,770.98664 L 206.07038,838.00072 L 192.04676,838.00072 L 192.04676,738.00112 L 206.07038,738.00112 L 232.94525,798.00088 L 232.94525,738.00112 L 246.96886,738.00112 L 246.96886,838.00072 L 236.30628,838.00072 z M 268.21825,838.00072 L 268.21825,738.00112 L 281.94766,738.00112 L 281.94766,838.00072 L 268.21825,838.00072 z M 353.98694,838.00072 L 353.98694,781.88161 L 335.8757,838.00072 L 317.61737,781.88161 L 317.61737,838.00072 L 303.59376,838.00072 L 303.59376,738.00112 L 317.61737,738.00112 L 335.8757,794.12023 L 353.98694,738.00112 L 368.15765,738.00112 L 368.15765,838.00072 L 353.98694,838.00072 z M 444.38708,808.14887 C 444.38701,810.14084 444.31421,811.93238 444.16866,813.52348 C 444.02298,815.11463 443.80381,816.58201 443.51116,817.92564 C 443.21838,819.26932 442.82834,820.58792 442.34104,821.88145 C 441.85361,823.17501 441.26967,824.46856 440.5892,825.7621 C 438.15529,829.84316 434.82027,833.20153 430.58412,835.83721 C 426.34786,838.4729 421.89249,839.79074 417.218,839.79074 C 412.35027,839.79074 407.74929,838.49719 403.41504,835.91009 C 399.08075,833.32299 395.69669,829.94033 393.26285,825.7621 C 392.58231,824.46856 391.99837,823.17501 391.51102,821.88145 C 391.02364,820.58792 390.6336,819.26932 390.34089,817.92564 C 390.04817,816.58201 389.829,815.11463 389.6834,813.52348 C 389.53778,811.93238 389.46497,810.14084 389.46498,808.14887 L 389.46498,738.00112 L 403.48859,738.00112 L 403.48859,809.94344 C 403.48857,814.71684 404.75453,818.54663 407.28646,821.43281 C 409.81835,824.31902 413.12886,825.76211 417.218,825.7621 C 421.01583,825.76211 424.15622,824.31902 426.63914,821.43281 C 429.12198,818.54663 430.36341,814.71684 430.36347,809.94344 L 430.36347,738.00112 L 444.38708,738.00112 L 444.38708,808.14887 L 444.38708,808.14887 z M 516.02966,838.00072 L 516.02966,781.88161 L 497.91844,838.00072 L 479.66009,781.88161 L 479.66009,838.00072 L 465.63648,838.00072 L 465.63648,738.00112 L 479.66009,738.00112 L 497.91844,794.12023 L 516.02966,738.00112 L 530.20038,738.00112 L 530.20038,838.00072 L 516.02966,838.00072 z "
       id="text2790" />
    <path
       style="font-size:373.12701416px;font-style:normal;font-variant:normal;font-weight:normal;font-stretch:normal;text-align:center;line-height:125%;writing-mode:lr-tb;text-anchor:middle;font-family:Roadgeek 2005 Series E"
       d="M 283.00953,589.67669 C 283.00931,602.86283 280.39602,614.9899 275.16963,626.05794 C 269.94282,637.12607 262.66658,646.64175 253.34088,654.60498 C 244.0148,662.56825 232.88409,668.78741 219.9487,673.26247 C 207.013,677.73753 192.95774,679.97506 177.78289,679.97506 C 160.61889,679.97506 144.20084,677.6749 128.52871,673.07458 C 112.85645,668.47427 97.060888,661.44854 81.141989,651.99737 L 104.64462,613.93085 C 127.03886,627.618 151.41826,634.46154 177.78289,634.46149 C 196.68506,634.46154 211.48427,630.54254 222.18054,622.70449 C 232.8765,614.86654 238.22455,603.85729 238.22473,589.67669 C 238.22455,582.96608 236.79549,576.56284 233.93755,570.46693 C 231.07926,564.37124 227.28552,559.33442 222.55631,555.35647 C 213.84895,548.3878 200.29092,544.9034 181.88218,544.90327 C 173.67589,544.9034 165.90432,545.64924 158.56744,547.1408 C 151.23037,548.63262 142.95777,551.12066 133.74962,554.60493 L 88.976199,543.03581 L 96.810409,425.49989 L 263.6062,425.49989 L 262.85466,469.53316 L 138.97622,469.53316 L 136.36861,505.35645 C 146.56363,503.11719 155.14368,501.50025 162.10878,500.50562 C 169.07368,499.51133 176.5378,499.0141 184.50118,499.01393 C 198.68157,499.0141 211.8031,501.31426 223.86581,505.91441 C 235.92819,510.5149 246.37569,516.85741 255.20834,524.94197 C 264.0406,533.02684 270.88224,542.60324 275.73328,553.67121 C 280.5839,564.73942 283.00931,576.74123 283.00953,589.67669 L 283.00953,589.67669 z M 519.85774,589.67669 C 519.85752,602.86283 517.24422,614.9899 512.01784,626.05794 C 506.79103,637.12607 499.51479,646.64175 490.18909,654.60498 C 480.86301,662.56825 469.73229,668.78741 456.79691,673.26247 C 443.86121,677.73753 429.80595,679.97506 414.63109,679.97506 C 397.46709,679.97506 381.04905,677.6749 365.37692,673.07458 C 349.70465,668.47427 333.90909,661.44854 317.99019,651.99737 L 341.49282,613.93085 C 363.88706,627.618 388.26646,634.46154 414.63109,634.46149 C 433.53327,634.46154 448.33247,630.54254 459.02874,622.70449 C 469.7247,614.86654 475.07276,603.85729 475.07293,589.67669 C 475.07276,582.96608 473.6437,576.56284 470.78575,570.46693 C 467.92747,564.37124 464.13372,559.33442 459.40451,555.35647 C 450.69716,548.3878 437.13913,544.9034 418.73039,544.90327 C 410.5241,544.9034 402.75252,545.64924 395.41564,547.1408 C 388.07858,548.63262 379.80598,551.12066 370.59782,554.60493 L 325.8244,543.03581 L 333.65861,425.49989 L 500.45441,425.49989 L 499.70287,469.53316 L 375.82443,469.53316 L 373.21682,505.35645 C 383.41184,503.11719 391.99188,501.50025 398.95698,500.50562 C 405.92188,499.51133 413.38601,499.0141 421.34938,499.01393 C 435.52978,499.0141 448.65131,501.31426 460.71401,505.91441 C 472.7764,510.5149 483.2239,516.85741 492.05654,524.94197 C 500.88881,533.02684 507.73045,542.60324 512.58149,553.67121 C 517.43211,564.73942 519.85752,576.74123 519.85774,589.67669 L 519.85774,589.67669 z "
       id="text2796" />
    <path
       style="font-size:298.50100708px;font-style:normal;font-variant:normal;font-weight:normal;font-stretch:normal;text-align:center;line-height:125%;writing-mode:lr-tb;text-anchor:middle;font-family:Roadgeek 2005 Series D"
       d="M 277.34345,1034.5288 C 277.3433,1044.6769 275.65197,1054.0293 272.26944,1062.5861 C 268.88663,1071.1431 264.16031,1078.4565 258.09046,1084.5264 C 252.02036,1090.5964 244.75703,1095.3729 236.30047,1098.8557 C 227.84369,1102.3386 218.54136,1104.08 208.39344,1104.08 C 200.23122,1104.08 192.6187,1102.7865 185.55585,1100.1994 C 178.49288,1097.6123 172.02512,1094.0307 166.15255,1089.4547 C 160.27991,1084.8787 155.25449,1079.3067 151.07629,1072.7387 C 146.89803,1066.1708 143.81294,1058.8088 141.82101,1050.6527 L 172.86628,1041.698 C 175.259,1051.4452 179.63916,1058.9059 186.00677,1064.0801 C 192.37426,1069.2544 200.33446,1071.8415 209.8874,1071.8414 C 215.25586,1071.8415 220.12945,1070.9457 224.50819,1069.1541 C 228.88673,1067.3626 232.6186,1064.9258 235.7038,1061.8437 C 238.78878,1058.7617 241.22709,1055.0815 243.01875,1050.803 C 244.81017,1046.5246 245.70594,1041.7983 245.70606,1036.624 C 245.70594,1031.4498 244.70997,1026.5732 242.71814,1021.9941 C 240.72607,1017.4151 237.94159,1013.832 234.3647,1011.2448 C 233.16821,1010.4494 232.12213,1009.8026 231.22647,1009.3045 C 230.33059,1008.8066 229.23593,1008.4589 227.94248,1008.2615 C 226.64883,1008.0642 224.95749,1007.8653 222.86847,1007.6648 C 220.77926,1007.4645 217.84296,1007.2671 214.05956,1007.0727 L 210.47952,1007.0727 L 210.47952,974.83406 L 210.47952,975.7268 L 211.37225,975.7268 L 211.97348,975.7268 L 218.24083,975.7268 C 224.61133,975.72692 229.48796,974.03559 232.87074,970.65279 C 236.2533,967.27025 237.94463,962.39362 237.94474,956.02289 C 237.94463,948.26172 235.20874,941.84407 229.73706,936.7699 C 224.26517,931.69606 217.44821,929.15906 209.28617,929.15889 C 195.95582,929.15906 185.90499,935.72703 179.13363,948.8628 L 149.58232,937.81294 C 154.75651,925.078 162.56792,915.07878 173.01658,907.81527 C 183.46515,900.55214 195.25743,896.92048 208.39344,896.92027 C 216.74982,896.92048 224.65992,898.51312 232.12375,901.69822 C 239.58738,904.88371 246.10524,909.26236 251.67736,914.83416 C 257.24922,920.40633 261.62634,926.92268 264.80874,934.38321 C 267.99086,941.84407 269.58199,949.75568 269.58213,958.11808 C 269.58199,964.08799 268.78642,969.46109 267.19544,974.23739 C 265.60417,979.01394 262.61928,984.58441 258.24077,990.94882 C 262.02413,994.3316 265.10922,997.56548 267.49605,1000.6505 C 269.8826,1003.7357 271.82293,1006.9695 273.31704,1010.3521 C 274.81085,1013.7349 275.85541,1017.3665 276.45072,1021.2471 C 277.04572,1025.1278 277.3433,1029.5551 277.34345,1034.5288 L 277.34345,1034.5288 z M 459.17874,1000.7962 C 459.17857,1016.7198 457.28835,1031.9448 453.50805,1046.4714 C 449.72745,1060.9981 444.35435,1072.7403 437.38874,1081.6979 C 426.24463,1096.6193 410.12685,1104.08 389.03537,1104.08 C 374.90338,1104.08 363.26141,1101.1954 354.10944,1095.426 C 344.95736,1089.6566 337.39645,1080.6018 331.42672,1068.2614 C 327.24845,1059.7045 323.86578,1049.3075 321.2787,1037.0704 C 318.69158,1024.8333 317.39802,1012.7419 317.39804,1000.7962 C 317.39802,984.2838 319.33835,968.9631 323.21903,954.8341 C 327.09966,940.70538 332.42266,928.86452 339.18803,919.31149 C 345.15776,911.75077 352.2723,906.12868 360.53166,902.4452 C 368.79089,898.76212 378.6899,896.92048 390.22872,896.92027 C 402.96373,896.92048 413.80862,899.80668 422.7634,905.57888 C 431.71793,911.35147 439.38055,920.40482 445.75129,932.73894 C 449.92938,941.6968 453.21184,952.14542 455.59869,964.08482 C 457.98523,976.0245 459.17857,988.26162 459.17874,1000.7962 L 459.17874,1000.7962 z M 427.54135,1000.7962 C 427.54122,989.458 426.54676,978.96232 424.55797,969.30914 C 422.56894,959.65621 419.58253,951.44702 415.59875,944.68153 C 412.41638,939.50748 408.78623,935.72703 404.70831,933.34016 C 400.63018,930.95364 395.60628,929.55988 389.6366,929.15889 C 381.8752,928.76432 375.40744,930.55586 370.23331,934.53351 C 365.05903,938.5115 360.78059,944.97926 357.39798,953.93681 C 354.81082,959.90672 352.87049,967.11995 351.57699,975.57649 C 350.28339,984.03329 349.63661,992.43985 349.63666,1000.7962 C 349.63661,1011.5455 350.63107,1021.8955 352.62003,1031.846 C 354.60889,1041.7967 357.59226,1049.9543 361.57014,1056.3188 C 364.75841,1061.493 368.54038,1065.3737 372.91606,1067.9608 C 377.29159,1070.5479 382.66469,1071.8415 389.03537,1071.8414 C 396.39577,1071.8415 402.51433,1069.8525 407.39107,1065.8747 C 412.26759,1061.8969 416.39724,1055.4291 419.78003,1046.4714 C 420.77588,1043.8843 421.77185,1040.7507 422.76795,1037.0704 C 423.7638,1033.3902 424.60947,1029.5095 425.30496,1025.4284 C 426.00019,1021.3474 426.54676,1017.2177 426.94467,1013.0394 C 427.34232,1008.8613 427.54122,1004.7802 427.54135,1000.7962 L 427.54135,1000.7962 z "
       id="text2802" />
  </g>
</svg>
