<?xml version="1.0" encoding="UTF-8" standalone="no"?>
<!-- Generator: Adobe Illustrator 14.0.0, SVG Export Plug-In  -->

<svg
   xmlns:dc="http://purl.org/dc/elements/1.1/"
   xmlns:cc="http://creativecommons.org/ns#"
   xmlns:rdf="http://www.w3.org/1999/02/22-rdf-syntax-ns#"
   xmlns:svg="http://www.w3.org/2000/svg"
   xmlns="http://www.w3.org/2000/svg"
   xmlns:sodipodi="http://sodipodi.sourceforge.net/DTD/sodipodi-0.dtd"
   xmlns:inkscape="http://www.inkscape.org/namespaces/inkscape"
   version="1.1"
   x="0px"
   y="0px"
   width="180.93747"
   height="225.9062"
   viewBox="0 -0.321 180.93748 225.90625"
   enable-background="new 0 -0.321 144 120"
   xml:space="preserve"
   id="svg2"
   inkscape:version="0.48.2 r9819"
   sodipodi:docname="AJAX1.svg"><metadata
   id="metadata44"><rdf:RDF><cc:Work
       rdf:about=""><dc:format>image/svg+xml</dc:format><dc:type
         rdf:resource="http://purl.org/dc/dcmitype/StillImage" /><dc:title /></cc:Work></rdf:RDF></metadata><sodipodi:namedview
   pagecolor="#ffffff"
   bordercolor="#666666"
   borderopacity="1"
   objecttolerance="10"
   gridtolerance="10"
   guidetolerance="10"
   inkscape:pageopacity="0"
   inkscape:pageshadow="2"
   inkscape:window-width="1280"
   inkscape:window-height="1004"
   id="namedview42"
   showgrid="false"
   fit-margin-top="0"
   fit-margin-left="0"
   fit-margin-right="0"
   fit-margin-bottom="0"
   inkscape:zoom="1.8952344"
   inkscape:cx="53.033074"
   inkscape:cy="77.385915"
   inkscape:window-x="-8"
   inkscape:window-y="-8"
   inkscape:window-maximized="1"
   inkscape:current-layer="svg2" />
<defs
   id="defs4">
</defs>


















<path
   inkscape:connector-curvature="0"
   d="m 11.741647,225.09935 157.451123,0 c 2.97164,0 5.85828,-1.17716 7.96516,-3.28154 2.09938,-2.09688 3.29153,-4.99353 3.29153,-7.96515 l 0,-202.43539 c 0,-2.97163 -1.19215,-5.85578 -3.29153,-7.96515 -2.10688,-2.09938 -4.99352,-3.28653 -7.96516,-3.28653 l -157.451123,0 c -2.9741234,0 -5.8632721,1.18715 -7.9676521,3.28653 -2.0968824,2.10937 -3.27903403,4.99352 -3.27903403,7.96515 l 0,202.43539 c 0,3.86636 2.01940533,7.50778 5.28594273,9.58718 1.8444565,1.17715 3.8163751,1.45457 5.9607434,1.65951"
   style="fill:#ffffff;fill-opacity:1;fill-rule:nonzero;stroke:#000000;stroke-width:0.99970567;stroke-miterlimit:4;stroke-opacity:1;stroke-dasharray:none"
   id="path6456" /><path
   inkscape:connector-curvature="0"
   d="m 3.6340162,213.85266 0,-202.43039 c 0,-2.12187 0.8772415,-4.23626 2.3668026,-5.73831 1.5095552,-1.49957 3.6164345,-2.3693 5.7408082,-2.3693 l 157.446133,0 c 2.11937,0 4.23626,0.86973 5.73581,2.3693 1.50205,1.50205 2.3718,3.61644 2.3718,5.73831 l 0,202.43039 c 0,2.12437 -0.86975,4.23625 -2.3718,5.7408 -1.49955,1.48958 -3.61644,2.36681 -5.73581,2.36681 l -157.446133,0 c -2.1243737,0 -4.231253,-0.87723 -5.7408082,-2.36681 -1.4895611,-1.50455 -2.3668026,-3.61643 -2.3668026,-5.7408"
   style="fill:#000000;fill-opacity:1;fill-rule:evenodd;stroke:none"
   id="path6464" /><path
   inkscape:connector-curvature="0"
   d="m 8.0502349,213.84767 c 0,0.9897 0.3823874,1.92443 1.0746834,2.62171 0.7022935,0.69231 1.6345187,1.0772 2.6217277,1.0772 l 157.446124,0 c 0.97972,0 1.91694,-0.38489 2.61674,-1.0772 0.69729,-0.69728 1.07717,-1.63201 1.07717,-2.62171 l 0,-202.4279 c 0,-0.98722 -0.37988,-1.91444 -1.07717,-2.61173 -0.6998,-0.6998 -1.63702,-1.07969 -2.61674,-1.07969 l -157.446124,0 c -0.987209,0 -1.9194342,0.37989 -2.6217277,1.07969 -0.692296,0.69729 -1.0746834,1.62451 -1.0746834,2.61173 l 0,202.4279 z"
   style="fill:#ffffff;fill-opacity:1;fill-rule:evenodd;stroke:none"
   id="path6468" /><path
   inkscape:connector-curvature="0"
   style="fill:#000000;fill-opacity:1;fill-rule:evenodd;stroke:none"
   d="m 67.672403,132.09075 -33.80254,42.67493 0,9.80961 33.615095,0 0,17.49484 10.934278,0 0,-17.49484 6.810494,0 0,-9.80961 -6.872976,0 0.06239,-42.67493 -10.746833,0 z m -0.187344,16.12025 0,26.55468 -20.868852,0 20.868852,-26.55468 z"
   id="path6472" /><path
   inkscape:connector-curvature="0"
   style="fill:#000000;fill-opacity:1;fill-rule:evenodd;stroke:none"
   d="m 122.65621,130.96608 c -7.45531,0 -13.86592,2.61923 -17.93221,9.05983 -3.31903,5.25096 -5.023537,11.33166 -5.935768,17.43237 -0.967214,6.36562 -0.962216,12.8812 0,19.24433 0.907232,6.06321 2.646728,12.14642 5.935768,17.36988 1.24962,1.97192 2.79417,3.7414 4.62363,5.18597 5.62835,4.45869 14.49823,4.77859 21.11878,2.81167 7.43782,-2.21435 11.78654,-9.28726 13.9959,-16.30769 2.86165,-9.09732 3.48397,-18.88694 2.06189,-28.30416 -0.94722,-6.29065 -2.76918,-12.51381 -6.18568,-17.93222 -3.7189,-5.89076 -10.96179,-8.55998 -17.68231,-8.55998 z m 0,10.93428 c 4.60613,-0.004 7.95515,2.24434 9.99706,6.31064 1.92193,3.83137 2.79917,8.08512 3.31154,12.30888 0.78227,6.53557 0.38489,13.2286 -1.18718,19.61921 -1.02469,4.19127 -3.30152,9.64966 -7.7477,11.30917 -3.81888,1.42458 -8.76493,1.10218 -11.74655,-1.93693 -2.47926,-2.53425 -3.91384,-5.98073 -4.74859,-9.37224 -2.09439,-8.53748 -2.0844,-17.57982 0,-26.1173 0.48735,-2.00191 1.19464,-3.90385 2.12437,-5.74831 2.04938,-4.0663 5.38341,-6.37312 9.99705,-6.37312 z"
   id="path6476" /><path
   inkscape:connector-curvature="0"
   d="m 154.79202,35.398982 -5.4484,16.800051 -5.55835,-16.932511 0,16.932511 -4.19377,0 0,-29.983666 4.3687,0 5.34593,16.307695 5.31094,-16.307695 4.4087,0 0,29.983666 -4.23375,0 0,-16.800051 z"
   style="fill:#000000;fill-opacity:1;fill-rule:evenodd;stroke:none"
   id="path6488" /><path
   inkscape:connector-curvature="0"
   d="m 36.6668,35.398982 -5.458393,16.800051 -5.550865,-16.932511 0,16.932511 -4.196263,0 0,-29.983666 4.373711,0 5.343426,16.307695 5.305937,-16.307695 4.413699,0 0,29.983666 -4.231252,0 0,-16.800051 z"
   style="fill:#000000;fill-opacity:1;fill-rule:evenodd;stroke:none"
   id="path6492" /><path
   inkscape:connector-curvature="0"
   d="m 106.29629,35.398982 -5.45839,16.800051 -5.548374,-16.932511 0,16.932511 -4.203761,0 0,-29.983666 4.37371,0 5.350925,16.307695 5.31094,-16.307695 4.40621,0 0,29.983666 -4.23126,0 0,-16.800051 z"
   style="fill:#000000;fill-opacity:1;fill-rule:evenodd;stroke:none"
   id="path6496" /><path
   inkscape:connector-curvature="0"
   d="m 57.788055,52.200012 0,-29.986162 4.34372,0 7.820196,17.462352 0.03499,-17.462352 4.206261,0 0,29.986162 -3.269037,0 -8.934867,-19.891639 0,19.891639 -4.201263,0 z"
   style="fill:#000000;fill-opacity:1;fill-rule:evenodd;stroke:none"
   id="path6500" /><path
   inkscape:connector-curvature="0"
   d="m 133.25583,44.503041 c 0,3.274035 -2.02691,6.295644 -5.03851,7.56777 -1.98693,0.834754 -4.28375,0.834754 -6.26566,0 -3.0616,-1.289621 -5.02852,-4.253748 -5.02852,-7.56777 l 0,-22.288437 4.18877,0 0,22.288437 c 0,1.317111 0.68729,2.571741 1.78197,3.304026 1.31711,0.869744 3.08409,0.859746 4.39121,-0.01001 1.09967,-0.732284 1.75198,-1.986915 1.75198,-3.294029 l 0,-22.288437 4.21876,0 0,22.288437 z"
   style="fill:#000000;fill-opacity:1;fill-rule:evenodd;stroke:none"
   id="path6504" /><path
   inkscape:connector-curvature="0"
   d="m 47.223428,22.215605 4.236252,0 0,29.986167 -4.236252,0 0,-29.986167 z"
   style="fill:#000000;fill-opacity:1;fill-rule:evenodd;stroke:none"
   id="path6506" /><path
   inkscape:connector-curvature="0"
   d="m 80.523617,22.215605 4.236251,0 0,29.986167 -4.236251,0 0,-29.986167 z"
   style="fill:#000000;fill-opacity:1;fill-rule:evenodd;stroke:none"
   id="path6508" /><path
   inkscape:connector-curvature="0"
   d="m 136.68734,92.325948 c 0,2.314319 -0.20994,4.418699 -0.41988,6.310641 -0.42488,2.314321 -1.79199,4.316231 -4.31376,4.316231 l -3.57394,0 0,-21.561149 3.57394,0 c 1.89195,0 3.15657,0.94722 3.88888,3.046602 0.52734,1.264628 0.84476,4.523668 0.84476,7.887675 m 4.20875,-0.209937 c 0,-2.314319 -0.31739,-4.941044 -0.73727,-7.150392 -0.52735,-3.051602 -1.78698,-5.36592 -3.57895,-6.625549 -1.0497,-0.844752 -2.31434,-1.157159 -4.8361,-1.157159 l -7.68024,0 0,29.973669 8.30756,0 c 1.68451,0 3.15908,-0.41988 4.20878,-1.3671 2.94913,-2.31432 4.31622,-6.733014 4.31622,-13.673469 m -22.28345,15.040569 0,-4.20376 -10.93928,0 0,-9.889588 6.20817,0 0,-4.101291 -6.20817,0 0,-7.57027 9.78212,0 0,-4.20876 -14.09335,0 0,29.973669 15.25051,0 z m -20.703911,0 0,-4.20376 -10.939273,0 0,-9.889588 6.205672,0 0,-4.101291 -6.205672,0 0,-7.57027 9.784619,0 0,-4.20876 -14.098347,0 0,29.973669 15.253001,0 z M 73.945794,85.595433 c 0,2.736693 -1.372095,4.313728 -3.896351,4.313728 l -4.418698,0 0,-8.51749 4.418698,0 c 2.314317,0 3.896351,1.679505 3.896351,4.203762 m 4.201263,0 c 0,-5.048513 -3.154071,-8.412522 -7.887676,-8.412522 l -8.937366,0 0,29.973669 4.30873,0 0,-13.146127 4.628636,0 c 5.051011,0 7.887676,-2.944133 7.887676,-8.41502 M 55.86862,98.953996 c 0,-4.313729 -2.524256,-7.570269 -8.307552,-10.939277 -2.211848,-1.259628 -2.841662,-2.10188 -2.841662,-3.576446 0,-1.996911 1.577036,-3.471476 3.578946,-3.471476 1.889443,0 3.364008,1.372094 3.471477,3.471476 l 4.098791,0 c -0.107368,-4.521167 -3.369006,-7.782707 -7.570268,-7.782707 -4.316229,0 -7.677738,3.471478 -7.677738,7.782707 0,2.629226 1.257129,4.943544 3.678916,6.628047 6.098203,4.101292 4.418698,2.944133 5.048512,3.573947 1.786974,1.372096 2.421787,2.629226 2.421787,4.313729 0,2.416784 -1.894442,4.521164 -4.208761,4.521164 -2.94913,0 -4.208759,-2.62672 -4.208759,-5.150979 l -4.20626,0 c 0,4.941049 3.151571,9.377239 8.415019,9.377239 4.626138,0 8.307552,-3.90885 8.307552,-8.747424"
   style="fill:#000000;fill-opacity:1;fill-rule:evenodd;stroke:none"
   id="path6512" /></svg>