<?xml version="1.0" encoding="UTF-8" standalone="no"?>
<!-- Created with Inkscape (http://www.inkscape.org/) -->

<svg
   xmlns:ns="http://ns.adobe.com/SaveForWeb/1.0/"
   xmlns:dc="http://purl.org/dc/elements/1.1/"
   xmlns:cc="http://creativecommons.org/ns#"
   xmlns:rdf="http://www.w3.org/1999/02/22-rdf-syntax-ns#"
   xmlns:svg="http://www.w3.org/2000/svg"
   xmlns="http://www.w3.org/2000/svg"
   xmlns:sodipodi="http://sodipodi.sourceforge.net/DTD/sodipodi-0.dtd"
   xmlns:inkscape="http://www.inkscape.org/namespaces/inkscape"
   version="1.1"
   width="2170"
   height="1630"
   viewBox="0 0 2170 1630"
   id="svg2"
   xml:space="preserve"
   inkscape:version="0.48.2 r9819"
   sodipodi:docname="AJAX3.svg"><sodipodi:namedview
   pagecolor="#ffffff"
   bordercolor="#666666"
   borderopacity="1"
   objecttolerance="10"
   gridtolerance="10"
   guidetolerance="10"
   inkscape:pageopacity="0"
   inkscape:pageshadow="2"
   inkscape:window-width="1280"
   inkscape:window-height="1004"
   id="namedview9"
   showgrid="false"
   fit-margin-top="0"
   fit-margin-left="0"
   fit-margin-right="0"
   fit-margin-bottom="0"
   inkscape:zoom="0.25284425"
   inkscape:cx="1322.2505"
   inkscape:cy="56.847026"
   inkscape:window-x="-8"
   inkscape:window-y="-8"
   inkscape:window-maximized="1"
   inkscape:current-layer="svg2" /><defs
   id="defs11" />
<metadata
   id="metadata3">
	<ns:sfw>
		<ns:slices />
		<ns:sliceSourceBounds
   bottomLeftOrigin="true"
   x="-75"
   y="93"
   width="745"
   height="655" />
	</ns:sfw>
	<rdf:RDF>
		<cc:Work
   rdf:about="">
			<dc:format>image/svg+xml</dc:format>
			<dc:type
   rdf:resource="http://purl.org/dc/dcmitype/StillImage" />
			<dc:title></dc:title>
		</cc:Work>
	</rdf:RDF>
	<ns:sfw>
		<ns:slices />
		<ns:sliceSourceBounds
   bottomLeftOrigin="true"
   x="-75"
   y="93"
   width="745"
   height="655" />
	</ns:sfw>
</metadata>




<path
   inkscape:connector-curvature="0"
   style="fill:#ffffff;fill-rule:nonzero;stroke:#000000;stroke-width:10;stroke-linecap:butt;stroke-linejoin:miter;stroke-miterlimit:4;stroke-opacity:1;stroke-dasharray:none"
   d="m 2165,1490 c 0,74.5625 -60.4375,135 -135,135 l -1890,0 C 65.440625,1625 5,1564.5625 5,1490 L 5,140 C 5,65.4406 65.440625,5 140,5 l 1890,0 c 74.5625,0 135,60.4406 135,135 l 0,1350 z"
   id="path11" /><path
   inkscape:connector-curvature="0"
   style="fill:#000000;fill-rule:nonzero;stroke:none"
   d="M 140,1591.25 C 84.169875,1591.25 38.75,1545.825 38.75,1490 l 0,-1350 C 38.75,84.16988 84.169875,38.75 140,38.75 l 1890,0 c 55.825,0 101.25,45.41988 101.25,101.25 l 0,1350 c 0,55.825 -45.425,101.25 -101.25,101.25 l -1890,0 z"
   id="path13" /><path
   inkscape:connector-curvature="0"
   style="fill:#ffffff;fill-rule:nonzero;stroke:none"
   d="m 140,1535 c -24.81325,0 -45,-20.1875 -45,-45 L 95,140 c 0,-24.81325 20.18675,-45 45,-45 l 1890,0 c 24.8125,0 45,20.18675 45,45 l 0,1350 c 0,24.8125 -20.1875,45 -45,45 l -1890,0 z"
   id="path15" /><path
   inkscape:connector-curvature="0"
   style="fill:#000000;fill-rule:nonzero;stroke:none"
   d="M 832.38625,500.00125 729.115,317.15875 l 0,182.8425 -42.635,0 0,-270.00125 42.635,0 98.5325,172.4225 0,-172.4225 42.63375,0 0,270.00125 -37.895,0 z"
   id="path17" /><path
   inkscape:connector-curvature="0"
   style="fill:#000000;fill-rule:nonzero;stroke:none"
   d="m 935.08375,500.00125 0,-270.0025 42.57625,0 0,230.21375 124.8913,0 0,39.78875 -167.46755,0 z"
   id="path19" /><path
   inkscape:connector-curvature="0"
   style="fill:#000000;fill-rule:nonzero;stroke:none"
   d="m 609.36375,459.26375 c -14.2125,26.52625 -46.42375,45.475 -79.585,45.475 -33.16,0 -65.37375,-18.94875 -79.585,-45.475 -7.57875,-16.10375 -12.3175,-35.05125 -12.3175,-55.895 l 0,-173.36875 42.635,0 0,173.36875 c 0,35.05375 19.89625,57.79 49.2675,57.79 29.37,0 49.26625,-22.73625 49.26625,-57.79 l 0,-173.36875 42.635,0 0,173.36875 c 0,20.84375 -4.7375,39.79125 -12.31625,55.895 z"
   id="path21" /><path
   inkscape:connector-curvature="0"
   style="fill:#000000;fill-rule:nonzero;stroke:none"
   d="m 1494.7875,483.56375 c -15.15,13.26375 -36,20.8425 -58.7375,20.8425 -46.425,0 -80.525,-27.4725 -98.525,-68.21 l 40.7375,-15.1575 c 11.3625,25.5775 32.2125,39.78875 57.7875,39.78875 24.6375,0 41.6875,-17.0525 41.6875,-39.78875 0,-36 -41.6875,-41.68375 -76.7375,-55.895 -16.1125,-6.63125 -52.1125,-22.73625 -52.1125,-67.26375 0,-53.0525 36,-72.9475 84.325,-72.9475 37.8875,0 63.475,21.78875 76.7375,54.9475 l -37.9,11.3675 c 0,0 -9.475,-22.73625 -39.7875,-23.6825 -19.9,-0.9475 -43.5875,6.63 -41.6875,31.26375 3.7875,50.20875 130.75,17.0525 130.75,123.15625 0,24.63125 -9.475,46.42125 -26.5375,61.57875 z"
   id="path23" /><path
   inkscape:connector-curvature="0"
   style="fill:#000000;fill-rule:nonzero;stroke:none"
   d="m 1705.6,483.56375 c -15.1625,13.26375 -36.0125,20.8425 -58.75,20.8425 -46.4125,0 -80.525,-27.4725 -98.525,-68.21 l 40.7375,-15.1575 c 11.375,25.5775 32.2125,39.78875 57.7875,39.78875 24.6375,0 41.6875,-17.0525 41.6875,-39.78875 0,-36 -41.6875,-41.68375 -76.7375,-55.895 -16.1125,-6.63125 -52.1125,-22.73625 -52.1125,-67.26375 0,-53.0525 36,-72.9475 84.325,-72.9475 37.9,0 63.475,21.78875 76.7375,54.9475 l -37.8875,11.3675 c 0,0 -9.475,-22.73625 -39.8,-23.6825 -19.8875,-0.9475 -43.575,6.63 -41.6875,31.26375 3.7875,50.20875 130.75,17.0525 130.75,123.15625 0,24.63125 -9.475,46.42125 -26.525,61.57875 z"
   id="path25" /><path
   inkscape:connector-curvature="0"
   style="fill:#000000;fill-rule:nonzero;stroke:none"
   d="m 1143.0513,500.00125 0,-270.00125 158.9488,0 0,42.63125 -116.3725,0 0,66.31625 78.535,0 0,43.57875 -78.535,0 0,73.89625 124.8975,0 0,43.57875 -167.4738,0 z"
   id="path27" /><path
   inkscape:connector-curvature="0"
   style="fill:#000000;fill-rule:nonzero;stroke:none"
   d="m 805.96875,1190.0201 c -8.54625,-14.2125 -18.9925,-19.895 -35.13625,-20.8426 -20.895,-0.9475 -34.19,9.4726 -43.68625,33.1563 -6.64875,16.1063 -10.44625,40.7375 -10.44625,63.4788 0,28.4125 5.6975,57.7875 16.1425,74.8375 8.54875,14.2125 19.94375,20.85 37.03875,20.85 19.94375,0 32.28875,-10.425 41.78625,-34.1125 5.69875,-14.2125 10.44625,-40.7375 10.44625,-61.575 0,-30.3175 -5.6975,-57.7925 -16.145,-75.7925 z m 29.44125,184.73 c -15.19625,20.85 -37.03875,30.325 -65.52875,30.325 -37.98625,0 -61.73,-15.1625 -77.875,-48.325 -11.39375,-22.7375 -18.99125,-58.725 -18.99125,-90.9375 0,-44.5313 11.39375,-84.3188 29.44,-109.9 16.14375,-20.8413 37.9875,-30.3138 69.325,-30.3138 34.18875,0 57.93375,15.1575 75.02625,48.315 11.395,23.6838 18.0425,57.7875 18.0425,91.8988 0,42.625 -10.44625,85.2625 -29.43875,108.9375 z"
   id="path29" /><path
   inkscape:connector-curvature="0"
   style="fill:#000000;fill-rule:nonzero;stroke:none"
   d="m 578.22625,1177.37 c -7.5775,-3.7887 -12.315,-4.7387 -25.58,-4.7387 l -55.89875,0 0,66.3187 55.89875,0 c 13.265,0 18.0025,-0.95 25.58,-4.7362 9.47375,-4.7388 16.10875,-17.0525 16.10875,-28.4225 0,-11.3701 -6.635,-22.7375 -16.10875,-28.4213 z m 18.0025,95.68 c -12.31625,5.6875 -28.4225,9.475 -49.2675,9.475 l -50.21375,0 0,117.475 -42.63375,0 0,-269.9975 92.8475,0 c 21.79125,0 36.00125,1.895 49.2675,8.525 23.685,11.37 41.68625,39.79 41.68625,67.2638 0,28.4225 -18.00125,56.8462 -41.68625,67.2587 z"
   id="path31" /><path
   inkscape:connector-curvature="0"
   style="fill:#000000;fill-rule:nonzero;stroke:none"
   d="m 1215.415,1167.8951 0,232.105 -42.815,0 0,-232.105 -61.85,0 0,-37.8938 167.4625,0 0,37.8938 -62.7975,0 z"
   id="path33" /><path
   inkscape:connector-curvature="0"
   style="fill:#000000;fill-rule:nonzero;stroke:none"
   d="m 1062.6225,1383.5626 c -15.1588,13.2625 -36.0025,20.85 -58.7413,20.85 -46.42245,0 -80.5312,-27.475 -98.53245,-68.2125 l 40.74,-15.1625 c 11.37,25.575 32.21125,39.7875 57.79245,39.7875 24.6351,0 41.6876,-17.05 41.6876,-39.7875 0,-36 -41.6875,-41.6875 -76.74255,-55.8875 -16.10625,-6.6375 -52.1075,-22.74 -52.1075,-67.2688 0,-53.0512 36.00125,-72.9475 84.32125,-72.9475 37.895,0 63.4775,21.79 76.7413,54.9488 l -37.8963,11.3675 c 0,0 -9.475,-22.7363 -39.7937,-23.6838 -19.8963,-0.9475 -43.58255,6.63 -41.6863,31.2638 3.79,50.21 130.745,17.0512 130.745,123.1575 0,24.625 -9.4737,46.425 -26.5275,61.575 z"
   id="path35" /><path
   inkscape:connector-curvature="0"
   style="fill:#000000;fill-rule:nonzero;stroke:none"
   d="m 1650.5125,1184.0013 c -6.625,-6.6313 -16.1,-11.37 -27.475,-11.37 l -48.3125,0 0,183.7937 42.625,0 c 14.2125,0 22.7375,-2.8375 30.325,-10.425 16.1,-16.1 24.625,-45.475 24.625,-81.475 0,-35.9975 -8.525,-66.3125 -21.7875,-80.5237 z m 18,200.8487 c -10.425,9.475 -24.625,14.2 -38.8375,15.15 -2.85,0 -8.5375,0 -15.1625,0 l -82.425,0 0,-269.9975 87.1625,0 c 27.475,0 37.9,2.8413 52.1125,14.2112 28.425,24.6313 44.525,67.2638 44.525,120.3113 0,54 -17.05,96.6375 -47.375,120.325 z"
   id="path37" /><path
   inkscape:connector-curvature="0"
   style="fill:#000000;fill-rule:nonzero;stroke:none"
   d="m 1318.7125,1400 0,-269.9975 158.95,0 0,42.6313 -116.3625,0 0,66.3162 78.525,0 0,43.575 -78.525,0 0,73.9 124.8875,0 0,43.575 -167.475,0 z"
   id="path39" /><path
   inkscape:connector-curvature="0"
   style="fill:#000000;fill-rule:nonzero;stroke:none"
   d="m 317.23625,740.0175 c -8.5475,-14.21 -18.9925,-19.89375 -35.1375,-20.84125 -20.89375,-0.94875 -34.19,9.4725 -43.68625,33.15625 -6.6475,16.10625 -10.445,40.7375 -10.445,63.475 0,28.42125 5.69625,57.78875 16.1425,74.84375 8.54875,14.20875 19.94375,20.84 37.03875,20.84 19.94375,0 32.28875,-10.4225 41.78625,-34.105 5.6975,-14.21 10.44625,-40.7375 10.44625,-61.57875 0,-30.315 -5.69875,-57.78875 -16.145,-75.79 z m 29.44,184.7375 c -15.195,20.84375 -37.03875,30.31625 -65.5275,30.31625 -37.9875,0 -61.73125,-15.15875 -77.875,-48.31625 -11.395,-22.7375 -18.99125,-58.73625 -18.99125,-90.9475 0,-44.5275 11.39375,-84.31625 29.44,-109.89625 16.14375,-20.84125 37.98625,-30.315 69.325,-30.315 34.18875,0 57.93,15.15875 75.025,48.31625 11.395,23.68375 18.04375,57.78875 18.04375,91.895 0,42.63125 -10.44625,85.26125 -29.44,108.9475 z"
   id="path41" /><path
   inkscape:connector-curvature="0"
   style="fill:#000000;fill-rule:nonzero;stroke:none"
   d="m 1517.8125,950.00125 0,-270 43.2,0 0,270 -43.2,0 z"
   id="path43" /><path
   inkscape:connector-curvature="0"
   style="fill:#000000;fill-rule:nonzero;stroke:none"
   d="m 508.86,717.895 0,232.10625 -42.815,0 0,-232.10625 -61.85125,0 0,-37.895 167.4675,0 0,37.895 -62.80125,0 z"
   id="path45" /><path
   inkscape:connector-curvature="0"
   style="fill:#000000;fill-rule:nonzero;stroke:none"
   d="m 1162.3176,727.37 c -6.6288,-3.79125 -10.42,-4.7375 -24.6326,-4.7375 l -51.1599,0 0,66.315 51.1599,0 c 13.2663,0 18.0038,-0.94625 24.6326,-4.735 10.4237,-5.685 17.0574,-17.05375 17.0574,-28.42125 0,-11.36875 -6.6337,-22.73875 -17.0574,-28.42125 z m 18.95,222.63125 -43.5825,-117.475 -51.16,0 0,117.475 -42.6338,0 0,-270.00125 89.0563,0 c 20.845,0 35.0562,1.89625 48.32,8.5275 23.6862,11.36875 40.74,39.78875 40.74,67.26375 0,28.42125 -17.0538,56.84125 -41.6863,68.21 l 47.3725,126 -46.4262,0 z"
   id="path47" /><path
   inkscape:connector-curvature="0"
   style="fill:#000000;fill-rule:nonzero;stroke:none"
   d="m 1445.4876,950.00125 -38,0 -42.775,-173.36875 -41.8125,173.36875 -38.0126,0 L 1244.9738,680 l 43.7137,0 20.9126,142.10625 L 1343.8125,680 l 41.8125,0 35.1626,142.10625 20.9,-142.10625 43.725,0 -39.925,270.00125 z"
   id="path49" /><path
   inkscape:connector-curvature="0"
   style="fill:#000000;fill-rule:nonzero;stroke:none"
   d="m 1755,933.5675 c -15.1625,13.26125 -36,20.84 -58.7375,20.84 -46.425,0 -80.5375,-27.4725 -98.5375,-68.21 l 40.7375,-15.15875 c 11.375,25.57875 32.2125,39.79 57.8,39.79 24.6375,0 41.6875,-17.0525 41.6875,-39.79 0,-36 -41.6875,-41.68375 -76.75,-55.89375 -16.1,-6.6325 -52.1,-22.73625 -52.1,-67.26375 0,-53.0525 36,-72.9475 84.325,-72.9475 37.8875,0 63.475,21.78875 76.7375,54.9475 l -37.9,11.3675 c 0,0 -9.475,-22.73625 -39.7875,-23.6825 -19.9,-0.9475 -43.5875,6.62875 -41.6875,31.2625 3.7875,50.21 130.7375,17.05375 130.7375,123.1575 0,24.63125 -9.475,46.42125 -26.525,61.58125 z"
   id="path51" /><path
   inkscape:connector-curvature="0"
   style="fill:#000000;fill-rule:nonzero;stroke:none"
   d="m 745.2325,950.00125 0,-117.475 -98.53625,0 0,117.475 -42.63375,0 0,-270 42.63375,0 0,108.94625 98.53625,0 0,-108.94625 42.63375,0 0,270 -42.63375,0 z"
   id="path53" /><path
   inkscape:connector-curvature="0"
   style="fill:#000000;fill-rule:nonzero;stroke:none"
   d="m 839.70375,950.00125 0,-270 158.95125,0 0,42.63125 -116.37625,0 0,66.31625 78.53125,0 0,43.57875 -78.53125,0 0,73.895 124.89245,0 0,43.57875 -167.46745,0 z"
   id="path55" /><path
   inkscape:connector-curvature="0"
   style="fill:#000000;fill-rule:nonzero;stroke:none"
   d="m 1818.25,950.00125 0,-270 158.95,0 0,42.63125 -116.375,0 0,66.31625 78.525,0 0,43.57875 -78.525,0 0,73.895 124.8875,0 0,43.57875 -167.4625,0 z"
   id="path57" /></svg>