<svg version="1.1" viewBox="0 0 32 32" xmlns="http://www.w3.org/2000/svg" xmlns:xlink="http://www.w3.org/1999/xlink">
 <circle cx="16" cy="16" r="15" fill="#fc0"/>
 <g stroke="#000">
  <circle cx="16" cy="16" r="14.3125" fill="none" stroke-width=".625"/>
  <path d="m26 6-20 20m0-20 20 20" fill="none" stroke-width="3"/>
 </g>
 <path id="a" transform="matrix(.007 0 0 -.007 2.715 19.5)" d="m937 0h-200l-161 392h-268v-392h-178v1e3h459q98 0 172-42 72-41 113.5-110t41.5-152.5-42.5-154-119.5-113.5zm-200 695q0 58-39.5 91.5t-104.5 33.5h-285v-248h285q65 0 104.5 34t39.5 89z"/>
 <use x="19.5" xlink:href="#a"/>
</svg>
