<?xml version="1.0" encoding="UTF-8" standalone="no"?>
<svg
   xmlns:dc="http://purl.org/dc/elements/1.1/"
   xmlns:cc="http://creativecommons.org/ns#"
   xmlns:rdf="http://www.w3.org/1999/02/22-rdf-syntax-ns#"
   xmlns:svg="http://www.w3.org/2000/svg"
   xmlns="http://www.w3.org/2000/svg"
   xmlns:sodipodi="http://sodipodi.sourceforge.net/DTD/sodipodi-0.dtd"
   xmlns:inkscape="http://www.inkscape.org/namespaces/inkscape"
   width="86.747498"
   height="86.748123"
   viewBox="0 0 244.8207 244.82248"
   version="1.1"
   id="svg2"
   inkscape:version="0.48.2 r9819"
   sodipodi:docname="MUTCD W10-3R.svg">
  <metadata
     id="metadata62">
    <rdf:RDF>
      <cc:Work
         rdf:about="">
        <dc:format>image/svg+xml</dc:format>
        <dc:type
           rdf:resource="http://purl.org/dc/dcmitype/StillImage" />
        <dc:title></dc:title>
      </cc:Work>
    </rdf:RDF>
  </metadata>
  <defs
     id="defs60">
    <clipPath
       clipPathUnits="userSpaceOnUse"
       id="clipPath3564">
      <path
         inkscape:connector-curvature="0"
         d="m 63,43 512.622,0 0,313.129 L 63,356.129 63,43 z"
         id="path3566" />
    </clipPath>
  </defs>
  <sodipodi:namedview
     pagecolor="#ffffff"
     bordercolor="#666666"
     borderopacity="1"
     objecttolerance="10"
     gridtolerance="10"
     guidetolerance="10"
     inkscape:pageopacity="0"
     inkscape:pageshadow="2"
     inkscape:window-width="1280"
     inkscape:window-height="1004"
     id="namedview58"
     showgrid="false"
     fit-margin-top="0"
     fit-margin-left="0"
     fit-margin-right="0"
     fit-margin-bottom="0"
     inkscape:zoom="6.9051741"
     inkscape:cx="45.858878"
     inkscape:cy="30.487383"
     inkscape:window-x="-8"
     inkscape:window-y="-8"
     inkscape:window-maximized="1"
     inkscape:current-layer="svg2"
     showguides="true"
     inkscape:guide-bbox="true" />
  <polygon
     points="235,375 315,205 395,375 315,545 "
     id="polygon10"
     style="fill:none;stroke:#ffffff;stroke-width:40"
     transform="translate(21091.025,14379.66)" />
  <!-- draw the bicycle -->
  <!-- RIGHT -->
  <!-- LANE -->
  <!-- ONLY -->
  <path
     inkscape:connector-curvature="0"
     d="M 241.31499,113.91812 130.90613,3.505725 c -4.67784,-4.6743 -12.319,-4.6743 -16.98978,0 L 3.5004317,113.91812 c -4.66725,4.67077 -4.66725,12.31547 0,16.98625 L 113.91635,241.31675 c 4.67078,4.67431 12.31194,4.67431 16.98978,0 L 241.31499,130.90437 c 4.6743,-4.67078 4.6743,-12.31548 0,-16.98625"
     style="fill:#ffd033;fill-opacity:1;fill-rule:nonzero;stroke:none"
     id="path3471" />
  <path
     inkscape:connector-curvature="0"
     d="M 238.65892,115.67145 129.14964,6.169225 c -3.71121,-3.70769 -9.77546,-3.70769 -13.4761,0 L 6.1677817,115.67145 c -3.70769,3.70769 -3.70769,9.77194 0,13.47611 L 115.67354,238.65331 c 3.70064,3.70417 9.76489,3.70417 13.4761,0 L 238.65892,129.14756 c 3.70417,-3.70417 3.70417,-9.76842 0,-13.47611"
     style="fill:#000000;fill-opacity:1;fill-rule:evenodd;stroke:none"
     id="path3479" />
  <path
     inkscape:connector-curvature="0"
     d="M 235.23239,119.04434 125.77956,9.591515 c -1.85208,-1.85209 -4.88597,-1.85209 -6.73805,0 L 9.5922017,119.04434 c -1.85561,1.85209 -1.85561,4.88245 0,6.73453 L 119.04151,235.23523 c 1.85208,1.85208 4.88597,1.85208 6.73805,0 L 235.23239,125.77887 c 1.85209,-1.85208 1.85209,-4.88244 0,-6.73453"
     style="fill:#ffd033;fill-opacity:1;fill-rule:evenodd;stroke:none"
     id="path3483" />
  <path
     inkscape:connector-curvature="0"
     d="m 167.43837,62.334945 -30.03197,0 0,45.042675 -30.02139,0 0,30.02844 30.02139,0 0,45.04267 30.03197,0 0,-120.113785 z"
     style="fill:#000000;fill-opacity:1;fill-rule:evenodd;stroke:none"
     id="path3487" />
  <path
     inkscape:connector-curvature="0"
     d="m 62.452072,107.37728 -30.02139,0 0,30.02844 30.02139,0 0,-30.02844 z"
     style="fill:#000000;fill-opacity:1;fill-rule:evenodd;stroke:none"
     id="path3489" />
  <path
     inkscape:connector-curvature="0"
     style="fill:#000000;fill-opacity:1;fill-rule:evenodd;stroke:none"
     d="m 95.098132,62.461615 0,7.761107 8.025688,0 0,8.113889 -8.025688,0 0,8.025694 8.025688,0 0,8.025694 -8.025688,0 0,7.849301 8.025688,0 0,8.11389 -8.025688,0 -0.0881,8.0257 8.113888,0 0,8.11389 -8.113888,0 0.0881,8.02569 8.025688,0 0,7.9375 -8.113888,0 0.088,8.11389 8.025698,0 0,7.9375 -8.113888,0 0.0881,8.02569 8.025698,0 0,7.9375 -8.113888,0 0.0881,8.11389 -3.88055,-0.088 0,-8.02569 -11.99445,0 -0.0881,8.11388 -3.88056,-0.0881 0,-8.02569 -8.11389,0 0,-7.9375 8.11389,-0.0881 0,-7.9375 -8.11389,0 0,-7.9375 8.11389,0 0,-8.11389 -8.11389,0 0,-7.9375 8.11389,-0.088 0,-7.9375 -8.11389,0 0,-8.11389 8.11389,0 0,-8.02569 -8.11389,0 0,-8.11389 8.11389,0 0,-7.849306 -8.11389,0 0,-8.025695 8.11389,0 0,-8.025694 -8.11389,0 0,-8.113889 8.11389,0 0,-7.761111 3.96875,0 0,7.761111 11.90625,0 0,-7.761111 3.96875,0 z m -3.88056,15.874996 -11.99444,0 0,8.113888 11.99444,0 0,-8.113888 z m 0,16.051388 -11.99444,0 0,7.849301 11.99444,0 0,-7.849301 z m 0,15.963191 -11.99444,0 0,8.0257 11.99444,0 0,-8.0257 z m 0,16.13959 -11.99444,0 0,7.9375 11.99444,0 0,-7.9375 z m 0,15.96319 -11.99444,0 0,8.11389 11.99444,0 0,-8.11389 z m 0,16.05139 -11.99444,0 0,7.9375 11.99444,0 0,-7.9375 z"
     id="path3493" />
</svg>
