<?xml version="1.0" encoding="UTF-8" standalone="no"?>
<!-- Generator: Adobe Illustrator 12.0.1, SVG Export Plug-In  -->

<svg
   xmlns:dc="http://purl.org/dc/elements/1.1/"
   xmlns:cc="http://creativecommons.org/ns#"
   xmlns:rdf="http://www.w3.org/1999/02/22-rdf-syntax-ns#"
   xmlns:svg="http://www.w3.org/2000/svg"
   xmlns="http://www.w3.org/2000/svg"
   xmlns:sodipodi="http://sodipodi.sourceforge.net/DTD/sodipodi-0.dtd"
   xmlns:inkscape="http://www.inkscape.org/namespaces/inkscape"
   version="1.1"
   width="2942.8635"
   height="2942.8538"
   viewBox="0 -0.764 2942.8636 2942.8538"
   enable-background="new 0 -0.764 289 256"
   xml:space="preserve"
   id="svg2"
   inkscape:version="0.48.2 r9819"
   sodipodi:docname="AJAX2.svg"><metadata
   id="metadata26"><rdf:RDF><cc:Work
       rdf:about=""><dc:format>image/svg+xml</dc:format><dc:type
         rdf:resource="http://purl.org/dc/dcmitype/StillImage" /><dc:title></dc:title></cc:Work></rdf:RDF></metadata><sodipodi:namedview
   pagecolor="#ffffff"
   bordercolor="#666666"
   borderopacity="1"
   objecttolerance="10"
   gridtolerance="10"
   guidetolerance="10"
   inkscape:pageopacity="0"
   inkscape:pageshadow="2"
   inkscape:window-width="1280"
   inkscape:window-height="1004"
   id="namedview24"
   showgrid="false"
   fit-margin-top="0"
   fit-margin-left="0"
   fit-margin-right="0"
   fit-margin-bottom="0"
   inkscape:zoom="0.20811725"
   inkscape:cx="35.913651"
   inkscape:cy="1051.2344"
   inkscape:window-x="-8"
   inkscape:window-y="-8"
   inkscape:window-maximized="1"
   inkscape:current-layer="svg2" />
<defs
   id="defs4">
</defs>









<path
   inkscape:connector-curvature="0"
   style="fill:#ffd033;fill-rule:nonzero;stroke:none"
   d="m 1566.8824,2902.5554 c -52.7125,52.7125 -138.2,52.7125 -190.9125,0 L 39.540806,1566.1179 c -52.720875,-52.7125 -52.720875,-138.2 -0.0012,-190.9125 L 1375.9699,38.777708 c 52.7125,-52.7223 138.2,-52.7223 190.9125,0 L 2903.3199,1375.2054 c 52.725,52.7125 52.725,138.2 0,190.9125 L 1566.8824,2902.5554 z"
   id="path11" /><path
   inkscape:connector-curvature="0"
   style="fill:#000000;fill-rule:nonzero;stroke:none"
   d="M 2839.6906,1502.4885 1503.2531,2838.926 c -17.5375,17.5375 -46.0875,17.5375 -63.6375,0 L 103.17969,1502.4885 c -17.545134,-17.55 -17.545134,-46.0875 0,-63.6375 L 1439.6156,102.41521 c 17.55,-17.543802 46.1,-17.543802 63.6375,0 L 2839.6906,1438.851 c 17.5375,17.55 17.5375,46.0875 0,63.6375 z M 2879.4656,1399.076 1543.0281,62.641108 c -39.475,-39.4776 -103.7125,-39.4776 -143.1875,0 L 63.404306,1399.076 c -39.47625,39.475 -39.47625,103.7125 0.0013,143.1875 L 1399.8406,2878.701 c 39.475,39.475 103.7125,39.475 143.1875,0 L 2879.4656,1542.2635 c 39.475,-39.475 39.475,-103.7125 0,-143.1875 z"
   id="path13" /><path
   style="fill:#000000;fill-rule:evenodd;stroke:none"
   d="m 2073.2923,2049.8167 c -2.9875,-6.4375 -5.75,-12.85 -9.375,-18.9875 -3.375,-5.55 -1.65,-14.4375 -1.65,-20.6875 0,-13.8125 -0.7,-28.6062 -2.2875,-42.2687 -0.85,-8.4625 -1.8,-16.925 -2.7625,-25.35 -0.4625,-4.35 3.0875,-17.85 0.65,-19.05 -5.925,-2.95 -2.0625,-35.4375 -1.4125,-42 0.925,-9.0875 1.95,-12.1125 -2.525,-19.525 -3.7125,-6.2875 -6,-11.45 -6.55,-18.5625 -1.1,-14.3875 -4.475,-31.5125 -2.525,-45.8375 0.9625,-7.1375 1.65,-13.85 3.8625,-20.65 1.575,-4.725 7.25,-16.7625 5.825,-21.775 -1,-3.6 -12.4375,-11.5625 -15.9125,-13.5375 -6.2125,-3.5375 -12.4375,-6.9875 -18.5875,-10.7625 -8.975,-5.4625 -22.6875,-10.7125 -28.275,-20.375 -8.5,-14.9375 -17.03,-29.85 -25.605,-44.825 -6.2375,-10.875 -12.3875,-21.775 -18.825,-32.4875 -7.3375,-12.2625 -3.8625,-27.9875 -3.325,-41.9625 0.2375,-5.8625 6.3125,-10.95 9.6875,-15.5625 3.8625,-5.0875 6.7875,-11.1375 10.0875,-16.6125 5.825,-9.75 17.98,-17.35 23.6425,-26.0875 8.5,-13.1625 13.0125,-20.1 13.0125,-35.9375 0,-15.2625 1.875,-27.3625 5.5125,-42.1125 0,0.7375 0,1.475 0,2.175 3.2125,-12.7375 8.725,-28.3375 11.0125,-39.75 3.225,-15.375 3.15,-29.7375 2.45,-45.725 -0.5625,-13.975 -8.6,-26.5125 -15.45,-38.275 -7.725,-13.15 -17.25,-21.2625 -27.0925,-32.525 -19.55,-22.275 -37.1875,-45.95 -56.425,-68.3525 -19.6,-22.8613 -54.1,-29.305 -82.55,-33.38 -15.05,-2.1738 -30.0125,-6.25 -45.225,-8.5013 -12.675,-1.9012 -23.875,0.155 -36.5375,1.6313 -16.075,1.8625 -31.7499,3.415 -47.9874,4.0362 -12.525,0.465 -28.525,1.63 -39.85,-3.9975 -13.1625,-6.5987 -27.8125,-15.8762 -42.075,-19.9512 -6.1625,-1.7463 -13.4,-0.2725 -19.475,-2.445 -8.1125,-2.9888 -16.225,-5.59 -24.5625,-8.035 -28.6125,-8.385 -57.525,-16.03 -86.575,-22.4738 -15.45,-3.415 -31.2875,-13.0025 -45.8625,-19.0962 -12.775,-5.3575 -21.6625,-14.2075 -31.9875,-23.2513 -10.6375,-9.3537 -30.175,-9.315 -43.4875,-11.2562 -13.475,-2.0175 -26.9375,-4.3863 -40.25,-6.2875 -14.5001,-2.0575 -27.5876,-9.1213 -42.3126,-10.3638 -13.9375,-1.165 -28.275,4.7363 -42.3862,6.0163 -4.6388,0.4275 -15.2738,1.0087 -19.4463,-1.0488 -6.3075,-3.1037 -9.7812,-14.6712 -12.77,-20.2212 -5.92,-11.295 -14.0312,-23.5225 -21.9887,-33.4588 -10.5575,-13.1975 -26.705,-28.48999 -19.8538,-46.77124 5.8413,-15.565 32.9338,-16.53625 41.92,-30.0425 4.4825,-6.63875 4.7363,-17.81625 5.8225,-25.38625 0.485,-3.105 4.1913,-7.56875 3.475,-10.20875 -1.03,-3.4525 -1.8062,-12.61375 -4.3287,-14.9425 -9.6263,-8.96625 -44.2888,9.0825 -47.4325,0 11.6637,0.815 25.2887,-13.6625 36.9512,-16.03 11.4125,-2.2525 28.51,3.10375 37.6513,9.78125 5.9237,4.26875 7.9612,6.59875 11.6612,12.8475 2.7625,4.69625 9.7625,12.38125 9.7625,18.04875 0,16.65125 -1.4875,31.43875 -3.9375,47.85875 -1.8,11.99375 -7.55,25.035 -6.925,36.87379 0.875,14.1675 1.8,28.5287 4.575,42.4637 0.625,2.9113 1.8,17.04 4.4875,17.04 6.85,0 15.3625,-1.475 21.9625,0.077 8.6,1.9788 17.175,3.9588 25.775,5.9375 8.1126,1.8638 8.9126,5.7838 14.8126,-1.59 0,0.3488 0,0.7375 0,1.125 11.175,-26.1612 21.35,-54.1462 29.7625,-81.31749 3.95,-12.96375 10.1,-24.64625 11.125,-38.42625 1.025,-14.28375 3.0625,-30.15875 -0.075,-44.21 -3.7125,-16.65125 -9.7,-27.09375 -19.3125,-41.29875 -7.475,-10.94626 -19.2125,-19.44625 -26.2375,-30.35375 -3.7626,-5.86125 -6.9251,-12.8475 -12.4376,-17.195 -6.0625,-4.77375 -12.05,-9.35375 -17.4875,-14.78875 -10.875,-10.90625 -21.8125,-21.6975 -34.0375,-31.1675 -7.6375,-5.94 -27.7387,-16.2625 -37.9662,-13.46875 -14.2638,3.88125 -28.5288,8.2675 -43.2588,10.13 -6.7737,0.815 -13.2362,3.61 -19.9312,4.1925 -10.4025,0.85375 -13.3138,2.48375 -21.815,8.65625 -12.6925,9.19875 -23.0163,24.22 -33.6513,35.67125 -3.94,4.19125 -8.6562,8.2275 -12.0525,12.885 -3.455,4.81375 -5.5112,15.4875 -13.1587,15.4875 -15.9913,0 -20.7063,-19.52375 -27.48,-31.6725 -14.1875,-25.54 -43.4925,-39.2425 -67.51875,-53.33125 0,0.34875 0,0.69875 0,1.08625 -30.17875,-20.49376 -54.7475,4.735 -75.94126,24.10375 -10.8675,9.9375 -15.68125,23.56125 -22.5325,36.215 -7.64625,14.16625 -8.52,27.32375 -8.03375,42.89 0.155,7.1025 -0.64125,14.78875 1.64875,21.5425 2.52375,7.56875 -1.64875,17.66 -3.14375,25.345 -1.41625,7.22 -4.26875,11.52875 -8.21,17.93375 -4.01625,6.48125 -6.1325,14.08875 -8.8875,21.1925 -5.435,14.05 -12.8475,27.0925 -19.62125,40.6 -5.43375,10.8675 -13.235,24.88004 -22.29875,33.03124 -8.19125,7.4138 -8.1125,9.1613 -18.5925,6.1325 -8.42375,-2.3675 -12.36251,-7.685 -18.59251,-13.9337 -10.0725,-10.0925 -21.27,-18.39879 -31.82875,-27.90879 -3.37625,-2.98875 -14.01125,-10.5175 -17.87375,-4.1525 -2.3675,3.88125 2.67875,15.09875 4.87125,19.05749 4.81375,8.4613 9.54875,16.845 14.3425,25.2688 3.31875,5.8225 9.70375,9.0825 14.9825,13.0812 12.36375,9.1988 25.03501,17.6213 37.57251,26.51 14.01125,9.9363 22.22125,17.6613 39.86375,17.6613 15.52625,0 24.56875,-0.4663 37.18375,-10.6363 6.77375,-5.55 13.54625,-11.0612 20.3975,-16.535 4.6575,-3.765 6.07375,-11.4887 8.2675,-17 5.12375,-12.6937 16.63125,-20.9987 21.52251,-33.3812 5.27875,-13.19629 10.94625,-26.51004 12.90625,-40.60004 13.64375,5.8225 24.58875,13.04125 36.07875,22.2025 12.61375,10.09125 -4.0175,24.91874 -10.79125,34.23374 -6.365,8.6175 -19.60125,18.7863 -19.77625,30.78 -0.0775,12.46 12.8475,24.8813 18.845,35.3213 0,-0.7375 0,-1.435 0,-2.2113 3.14375,5.0838 8.035,10.635 9.21875,16.5738 2.2725,11.1787 -0.71875,10.2862 -5.92,19.8725 -8.03375,14.7112 -4.4825,28.335 -5.1225,44.365 -0.62125,14.595 -0.38875,29.2275 -0.38875,43.8225 0,13.43 -0.71875,30.12 2.2125,43.1975 2.6775,12.3125 13.54625,27.325 20.94125,37.5 8.9075,12.1875 22.37625,18.4375 30.48875,31.3625 3.085,4.8875 2.6,12.85 4.8125,18.325 3.2987,7.95 8.5012,15.525 12.595,23.0875 2.6025,4.7375 9.2962,6.9125 9.705,12.5 0.62,9.7875 1.26,19.6375 1.96,29.5 1.0275,15.4125 4.2487,25.425 17.175,34.6625 7.18,5.1625 7.2587,7.5625 9.9362,15.6 2.4263,7.375 6.9288,14.2125 11.5675,20.4125 8.0338,10.675 14.73,25.2 24.5113,34.2375 11.4887,10.7125 22.9975,19.5625 36.08,28.2625 13.2337,8.8125 21.8125,13.925 28.8375,28.6875 5.2012,10.9375 11.4112,22.075 14.965,33.525 4.6362,15.025 7.8775,31.675 14.5737,45.925 5.2788,11.4125 16.7863,28.8 15.6813,41.875 -2.4463,29.35 -4.25,60.9375 4.25,89.35 8.19,27.325 20.96,52.675 27.9687,80.6625 3.3875,13.625 5.7375,26.3125 7.5625,40.2875 1.65,12.7375 5.2875,29.075 3.15,41.85 -2.2875,13.7375 -10,27.125 -15.275,39.825 -5.3575,12.8312 -13.4112,25.0562 -16.5562,38.7812 -2.9113,12.7875 -7.4913,16.5125 -19.6975,20.9375 -11.49,4.0875 -16.1475,6.925 -20.0875,18.675 10.17,-0.1875 19.6987,1.1 29.8675,0 -3.0075,4.4 -5.9188,8.825 -8.9075,13.25 7.6475,3.7625 12.925,7.2125 21.5812,7.7625 8.91,0.575 17.7125,1.15 26.625,1.6625 8.45,0.55 16.8625,0.5 25.2875,0.5 6.85,0 16,-5.4625 22.6125,-7.7125 -2.1875,-5.0125 -4.0125,-6.5625 -1.5,-11.1875 3.95,-7.0625 7.9625,-14.175 11.9,-21.275 3.1501,-5.7375 3.1501,-5.1125 9.8376,-5.425 2.0625,-0.075 16.95,0.425 17.4375,-1.25 3.375,-12.9125 5.5125,-21.5875 3.45,-34.8125 -1.65,-10.8375 -9.225,-21.9687 -13.55,-32.0187 -4.8875,-11.15 -7.2375,-19.725 -9.0625,-31.675 -1.575,-10.95 -5.125,-21.6625 -5.5875,-32.6125 -1.0251,-24.8375 -0.9501,-47.8125 1.4125,-72.6125 0,0.35 0,0.7 0,1.0875 0.95,-11.875 2.6,-23.525 4.4125,-35.325 0,0.35 0,0.775 0,1.125 4.0875,-3.5375 4.7375,-9.975 7.8,-14.5125 3.8625,-5.7875 9.8625,-12.425 9.8625,-19.6875 0,-5.7375 2.75,-13.2 3.2125,-19.325 0.5625,-6.1375 -0.075,-12.8875 1.65,-18.75 8.0375,-27.325 13.2375,-58.3 29.3125,-82.2875 8.75,-13 11.975,-25.225 13,-40.9875 0.875,-13.2375 24.1,-12.15 30.4125,-2.6375 8.6,12.85 20.2375,18.2875 32.375,27.2125 11.8125,8.6875 24.275,15.675 39.0875,11.9875 -0.3875,0 -0.8,0 -1.1125,0 14.0375,-1.275 19.2125,0.275 31.9875,6.6 -0.7,-0.35 -1.5,-0.7 -2.2125,-1.0875 13.95,3.575 29.4,2.6 43.4125,0.5875 13.95,-1.9875 25.85,-12.15 38.2875,-0.5875 11.6625,10.9125 16.5375,21.7 31.9875,28.175 7.5625,3.15 13.1625,7.6125 19.7,12.5375 5.975,4.5125 13,5.6 18.975,10.1 22.7625,17.075 48.775,33.3375 74.5999,45.3375 14.35,6.675 27.5,11.2875 42.4625,15.875 18.4375,5.5875 24.3625,10.9375 36.575,25.9625 8.025,9.9 16.6875,19.75 25.2,29.2625 8.0375,9.0875 3.6125,16.9625 1.425,28.575 -6,32.6375 -9.5375,66.8375 -20.0125,98.35 -4.6625,13.9 -7.9625,25.15 -7.9625,40.3375 0.087,7.525 1.5,15.2937 2.2,22.7812 0.6375,7.1 -2.8375,16.3125 -4.175,23.3125 -2.45,13.675 -16.4625,22.0625 -26.2125,30.7875 -3.7875,3.3 -10.8875,10.125 -12.625,14.7125 -1.1,2.8375 0,8.125 0,11.225 0,3.4125 -2.525,5.8625 -4.4,8.6625 0.7,0.375 1.4125,0.7375 2.1875,1.075 -1.725,-1 -1.4125,0.775 -2.1875,-1.075 -10.1,7.7125 -29.15,17.5 -34.8125,28.725 -8.8375,17.6125 16.8375,15.4 27.4,15.4 16.7875,0 33.4,-0.1875 50.1875,-0.8875 8.0375,-0.3125 5.0375,-8.3625 5.35,-15.6 0.2375,-5.9125 -0.3125,-15.45 3.075,-20.575 4.5,-6.775 7.4875,-8.2 15.45,-8.2 10.1625,0 15.9125,-0.6875 25.3625,-4.15 4.5625,-1.6375 0.7125,-40.175 0.7125,-45.3375 0,-14.2875 6.2125,-25.7625 8.1125,-39.625 2.0375,-14.9812 4.325,-29.8937 6.7,-44.8312 1.65,-10.5625 3.375,-21.0875 5.025,-31.6 -0.7,0.7 -1.5,1.475 -2.2,2.2125 8.275,-24.8375 11.1875,-51.2 18.3625,-76.3875 3.6875,-13.075 6.775,-26.75 11.4125,-39.55 4.5875,-12.3125 12.6125,-23.7625 18.825,-35.325 20.1125,24.1875 39.255,51.0375 47.4425,81.7 0,-0.3375 0,-0.775 0,-1.125 2.2875,7.925 4.65,15.8375 6.925,23.7625 1.6625,5.55 -0.3125,12.3 -0.075,18.2375 0.6375,14.525 -0.7,28.65 -0.1625,43.05 0.4875,13.425 -1.3375,30 4.5875,42.5375 6.775,14.2937 11.9,26.9312 11.9,43.1187 0,16.7 -3.0125,30.3625 -7.575,46.4 -3.9375,13.575 -17.4125,21.075 -22.45,34.5375 -2.2125,5.9375 1.4125,11.5625 -3.075,17.7375 -4.43,6.0625 -12.13,11.925 -17.255,17.625 -4.65,5.1875 -8.9125,10.525 -13.2375,16.025 -1.1,1.45 3.6875,7.1875 4.725,8.7375 0.9375,1.55 5.675,0.55 7.25,0.5 19.78,-0.5 39.5425,-1.0375 59.3175,-1.7375 10.7875,-0.4 11.425,-2.375 10.0125,-13 -0.875,-6.15 -2.9125,-17.1625 0.625,-22.525 3.775,-5.625 9.0625,-18.775 14.825,-22.1625 2.9875,-1.825 9.125,-1.5625 12.675,-2.1375 1.975,-0.3125 3.625,-7.0875 4.325,-9.0125 1.6625,-4.9125 19.7,-47.1875 9.45,-47.4125"
   id="path15"
   inkscape:connector-curvature="0" /></svg>