<?xml version="1.0" encoding="UTF-8" standalone="no"?>
<svg
   xmlns:dc="http://purl.org/dc/elements/1.1/"
   xmlns:cc="http://creativecommons.org/ns#"
   xmlns:rdf="http://www.w3.org/1999/02/22-rdf-syntax-ns#"
   xmlns:svg="http://www.w3.org/2000/svg"
   xmlns="http://www.w3.org/2000/svg"
   xmlns:sodipodi="http://sodipodi.sourceforge.net/DTD/sodipodi-0.dtd"
   xmlns:inkscape="http://www.inkscape.org/namespaces/inkscape"
   width="90"
   height="89.993645"
   viewBox="0 0 254.00006 253.98205"
   version="1.1"
   id="svg2"
   inkscape:version="0.48.2 r9819"
   sodipodi:docname="MUTCD W3-7.svg">
  <metadata
     id="metadata62">
    <rdf:RDF>
      <cc:Work
         rdf:about="">
        <dc:format>image/svg+xml</dc:format>
        <dc:type
           rdf:resource="http://purl.org/dc/dcmitype/StillImage" />
        <dc:title></dc:title>
      </cc:Work>
    </rdf:RDF>
  </metadata>
  <defs
     id="defs60" />
  <sodipodi:namedview
     pagecolor="#ffffff"
     bordercolor="#666666"
     borderopacity="1"
     objecttolerance="10"
     gridtolerance="10"
     guidetolerance="10"
     inkscape:pageopacity="0"
     inkscape:pageshadow="2"
     inkscape:window-width="1280"
     inkscape:window-height="1004"
     id="namedview58"
     showgrid="false"
     fit-margin-top="0"
     fit-margin-left="0"
     fit-margin-right="0"
     fit-margin-bottom="0"
     inkscape:zoom="5.6568543"
     inkscape:cx="46.662167"
     inkscape:cy="38.551963"
     inkscape:window-x="-8"
     inkscape:window-y="-8"
     inkscape:window-maximized="1"
     inkscape:current-layer="svg2" />
  <!-- draw the bicycle -->
  <!-- RIGHT -->
  <!-- LANE -->
  <!-- ONLY -->
  <path
     inkscape:connector-curvature="0"
     d="m 135.22681,250.57459 115.34072,-115.3478 c 2.17311,-2.1625 3.43253,-5.1611 3.43253,-8.2338 0,-3.0657 -1.25942,-6.0643 -3.43253,-8.2339 L 135.22681,3.4113932 C 133.05017,1.2417932 130.0692,-0.00710688 126.98239,-6.8745622e-6 123.91675,0.01399312 120.92167,1.2487932 118.74856,3.4113932 L 3.41137,118.75909 C 1.25237,120.91109 0,123.94139 0,126.99299 c 0,3.0515 1.25237,6.0854 3.41137,8.2338 l 115.33719,115.3478 c 2.79752,2.7975 7.00969,3.9899 10.8585,3.1362 2.2225,-0.5045 3.86997,-1.7286 5.61975,-3.1362"
     style="fill:#ffd033;fill-opacity:1;fill-rule:nonzero;stroke:none"
     id="path6190" />
  <path
     inkscape:connector-curvature="0"
     d="M 121.05784,248.26779 5.72065,132.92709 c -1.56633,-1.5734 -2.45886,-3.7218 -2.45886,-5.9338 0,-2.2119 0.89253,-4.3532 2.45886,-5.9266 L 121.05784,5.7047932 c 1.55575,-1.5487 3.73592,-2.4307 5.93019,-2.4307 2.19428,0 4.37092,0.882 5.92667,2.4307 L 248.28012,121.06669 c 1.54869,1.5592 2.43417,3.7288 2.43417,5.9266 0,2.1978 -0.88548,4.3745 -2.43417,5.9338 L 132.9147,248.26779 c -1.56986,1.5628 -3.71475,2.4518 -5.92667,2.4518 -2.21191,0 -4.36033,-0.889 -5.93019,-2.4518"
     style="fill:#000000;fill-opacity:1;fill-rule:evenodd;stroke:none"
     id="path6198" />
  <path
     inkscape:connector-curvature="0"
     d="m 124.28257,245.05039 c 0.70203,0.7091 1.7145,1.1219 2.7058,1.1219 0.98073,0 2.02142,-0.4128 2.71992,-1.1219 l 115.34425,-115.3477 c 0.6985,-0.7021 1.11125,-1.7181 1.11125,-2.7094 0,-0.9772 -0.41275,-2.0179 -1.11125,-2.7199 L 129.70829,8.9291932 c -0.71261,-0.7021 -1.72156,-1.0936 -2.71992,-1.0936 -0.99836,0.01 -1.99319,0.3915 -2.7058,1.0936 L 8.92421,124.27339 c -0.6985,0.702 -1.11478,1.7427 -1.11478,2.7199 0,0.9913 0.41628,2.0073 1.11478,2.7094 l 115.35836,115.3477 z"
     style="fill:#ffd033;fill-opacity:1;fill-rule:evenodd;stroke:none"
     id="path6202" />
  <path
     d="m 105.31743,75.100786 -3.44664,0 -3.361975,-9.062863 -3.841751,0 0,9.062863 -3.231445,0 0,-20.662199 7.736418,0 c 1.598083,0 2.963333,0.567973 4.099283,1.707445 1.13594,1.135945 1.70039,2.501195 1.70039,4.099279 0,1.100667 -0.28928,2.120195 -0.88195,3.065639 -0.58561,0.941917 -1.36878,1.661584 -2.3495,2.137834 l 3.57717,9.652002 z m -10.650366,-12.294308 4.519085,0 c 0.716139,0 1.322921,-0.254 1.823861,-0.758472 0.50447,-0.500945 0.75142,-1.111251 0.75142,-1.830917 0,-0.702028 -0.24695,-1.308806 -0.75142,-1.820334 -0.50094,-0.508 -1.107722,-0.765528 -1.823861,-0.765528 l -4.519085,0 0,5.175251"
     style="fill:#000000;fill-opacity:1;fill-rule:nonzero;stroke:none"
     id="path6666"
     inkscape:connector-curvature="0" />
  <path
     d="m 126.45588,75.100786 -3.36903,0 -1.98261,-5.824362 -6.56873,0 -1.98261,5.824362 -3.36903,0 7.02028,-20.662199 3.22439,0 7.02734,20.662199 z m -6.43467,-9.017002 -2.20486,-6.473473 -2.19781,6.473473 4.40267,0 z"
     style="fill:#000000;fill-opacity:1;fill-rule:nonzero;stroke:none"
     id="path6670"
     inkscape:connector-curvature="0" />
  <path
     d="m 146.27846,75.100786 -3.2385,0 0,-11.945058 -4.72369,11.945058 -4.7625,-11.945058 0,11.945058 -3.2385,0 0,-20.662199 3.19616,0 4.79073,12.012086 4.75192,-12.012086 3.22438,0 0,20.662199 z"
     style="fill:#000000;fill-opacity:1;fill-rule:nonzero;stroke:none"
     id="path6674"
     inkscape:connector-curvature="0" />
  <path
     d="m 151.16444,54.438587 8.08214,0 c 1.59808,0 2.96333,0.567973 4.10633,1.700389 1.13242,1.135945 1.70392,2.501195 1.70392,4.092224 0,1.605139 -0.5715,2.977445 -1.70392,4.109862 -1.13594,1.132417 -2.50119,1.696861 -4.09928,1.696861 l -4.85069,0 0,9.062863 -3.2385,0 0,-20.662199 z m 3.2385,3.19264 0,5.175251 4.84364,0 c 0.69497,0 1.30175,-0.254 1.81328,-0.758472 0.508,-0.500945 0.75847,-1.111251 0.75847,-1.830917 0,-0.702028 -0.25047,-1.308806 -0.75847,-1.820334 -0.51153,-0.508 -1.11831,-0.765528 -1.81328,-0.765528 l -4.84364,0"
     style="fill:#000000;fill-opacity:1;fill-rule:nonzero;stroke:none"
     id="path6678"
     inkscape:connector-curvature="0" />
  <path
     d="m 86.302701,106.16641 -3.231445,0 0,-11.938008 -4.723696,11.938008 -4.762501,-11.938008 0,11.938008 -3.238501,0 0,-20.655149 3.199696,0 4.787195,12.015614 4.751918,-12.015614 3.217334,0 0,20.655149 z"
     style="fill:#000000;fill-opacity:1;fill-rule:nonzero;stroke:none"
     id="path6682"
     inkscape:connector-curvature="0" />
  <path
     d="m 103.78284,102.97729 0,3.18912 -12.583582,0 0,-20.655149 11.941532,0 0,3.189112 -8.703031,0 0,5.178779 5.947831,0 0,3.19264 -5.947831,0 0,5.905498 9.345081,0 z"
     style="fill:#000000;fill-opacity:1;fill-rule:nonzero;stroke:none"
     id="path6686"
     inkscape:connector-curvature="0" />
  <path
     d="m 118.95935,88.446373 -4.65667,0 0,17.720037 -3.23145,0 0,-17.720037 -4.70605,0 0,-2.935112 12.59417,0 0,2.935112 z"
     style="fill:#000000;fill-opacity:1;fill-rule:nonzero;stroke:none"
     id="path6690"
     inkscape:connector-curvature="0" />
  <path
     d="m 135.39174,102.97729 0,3.18912 -12.58006,0 0,-20.655149 11.94859,0 0,3.189112 -8.71009,0 0,5.178779 5.95489,0 0,3.19264 -5.95489,0 0,5.905498 9.34156,0 z"
     style="fill:#000000;fill-opacity:1;fill-rule:nonzero;stroke:none"
     id="path6694"
     inkscape:connector-curvature="0" />
  <path
     d="m 153.15058,106.16641 -3.4537,0 -3.36197,-9.052285 -3.83822,0 0,9.052285 -3.2385,0 0,-20.655149 7.74347,0 c 1.59456,0 2.96333,0.567972 4.10281,1.703917 1.12889,1.132417 1.70039,2.504723 1.70039,4.102807 0,1.100667 -0.29634,2.123722 -0.88195,3.065639 -0.58561,0.945445 -1.37231,1.654528 -2.35656,2.137834 l 3.58423,9.644952 z m -10.65389,-12.287258 4.51202,0 c 0.71967,0 1.32998,-0.250472 1.82739,-0.754945 0.50448,-0.508 0.75848,-1.114778 0.75848,-1.834445 0,-0.702028 -0.254,-1.312333 -0.75848,-1.820333 -0.49741,-0.515056 -1.10772,-0.769056 -1.82739,-0.769056 l -4.51202,0 0,5.178779"
     style="fill:#000000;fill-opacity:1;fill-rule:nonzero;stroke:none"
     id="path6698"
     inkscape:connector-curvature="0" />
  <path
     d="m 170.58839,102.97729 0,3.18912 -12.58712,0 0,-20.655149 11.94506,0 0,3.189112 -8.70656,0 0,5.178779 5.95137,0 0,3.19264 -5.95137,0 0,5.905498 9.34862,0 z"
     style="fill:#000000;fill-opacity:1;fill-rule:nonzero;stroke:none"
     id="path6702"
     inkscape:connector-curvature="0" />
  <path
     d="m 174.44778,106.16641 0,-20.655149 5.78556,0 c 2.70228,0 4.77661,1.100667 6.223,3.305529 1.25589,1.87325 1.8803,4.233334 1.8803,7.083779 0,2.741084 -0.64558,5.072951 -1.9438,6.985001 -1.4852,2.19075 -3.54542,3.28084 -6.17714,3.28084 l -5.76792,0 z m 3.2385,-3.18912 2.53295,0 c 1.78505,0 3.0868,-0.77964 3.91583,-2.34244 0.64558,-1.206502 0.97014,-2.783419 0.97014,-4.734281 0,-2.046112 -0.38453,-3.70064 -1.13595,-4.956529 -0.51152,-0.843139 -1.01247,-1.418167 -1.50283,-1.721556 -0.53622,-0.34925 -1.28764,-0.522111 -2.24719,-0.522111 l -2.53295,0 0,14.276917"
     style="fill:#000000;fill-opacity:1;fill-rule:nonzero;stroke:none"
     id="path6706"
     inkscape:connector-curvature="0" />
  <path
     d="m 109.71304,116.58041 -2.91395,20.6622 -2.85397,0 -3.27025,-13.4232 -3.280833,13.4232 -2.846917,0 -2.913945,-20.6622 3.224389,0 1.57339,11.16542 2.726972,-11.16542 3.030364,0 2.7305,11.16542 1.56986,-11.16542 3.22439,0 z"
     style="fill:#000000;fill-opacity:1;fill-rule:nonzero;stroke:none"
     id="path6710"
     inkscape:connector-curvature="0" />
  <path
     d="m 127.46129,137.24261 -3.23144,0 0,-9.05934 -7.41892,0 0,9.05934 -3.23145,0 0,-20.6622 3.23145,0 0,8.36789 7.41892,0 0,-8.36789 3.23144,0 0,20.6622 z"
     style="fill:#000000;fill-opacity:1;fill-rule:nonzero;stroke:none"
     id="path6714"
     inkscape:connector-curvature="0" />
  <path
     d="m 144.90263,134.0535 0,3.18911 -12.58359,0 0,-20.6622 11.94154,0 0,3.19617 -8.71009,0 0,5.17172 5.95489,0 0,3.19264 -5.95489,0 0,5.91256 9.35214,0 z"
     style="fill:#000000;fill-opacity:1;fill-rule:nonzero;stroke:none"
     id="path6718"
     inkscape:connector-curvature="0" />
  <path
     d="m 162.65089,137.24261 -2.87162,0 -7.78228,-13.77951 0,13.77951 -3.23144,0 0,-20.6622 3.01978,0 7.63411,13.53256 0,-13.53256 3.23145,0 0,20.6622 z"
     style="fill:#000000;fill-opacity:1;fill-rule:nonzero;stroke:none"
     id="path6722"
     inkscape:connector-curvature="0" />
  <path
     d="m 76.742421,150.84572 -9.348613,0 0,5.17525 5.951362,0 0,3.23497 -5.951362,0 0,9.05581 -3.238501,0 0,-20.65514 12.587114,0 0,3.18911 z"
     style="fill:#000000;fill-opacity:1;fill-rule:nonzero;stroke:none"
     id="path6726"
     inkscape:connector-curvature="0" />
  <path
     d="m 93.192453,168.31175 -12.590642,0 0,-20.65514 3.234973,0 0,17.59303 9.355669,0 0,3.06211 z"
     style="fill:#000000;fill-opacity:1;fill-rule:nonzero;stroke:none"
     id="path6730"
     inkscape:connector-curvature="0" />
  <path
     d="m 111.74504,168.31175 -3.37608,0 -1.97556,-5.82084 -6.575779,0 -1.975556,5.82084 -3.369029,0 7.020284,-20.65514 3.22438,0 7.02734,20.65514 z m -6.44172,-9.01348 -2.19781,-6.46994 -2.19781,6.46994 4.39562,0 z"
     style="fill:#000000;fill-opacity:1;fill-rule:nonzero;stroke:none"
     id="path6734"
     inkscape:connector-curvature="0" />
  <path
     d="m 115.60443,163.33405 3.03742,-1.11477 c 0.34572,0.95602 0.93133,1.72861 1.76389,2.31775 0.83608,0.59266 1.74977,0.889 2.75872,0.889 0.85372,0 1.58397,-0.30339 2.18369,-0.90312 0.60678,-0.59972 0.91017,-1.32291 0.91017,-2.16252 0,-0.96309 -0.32455,-1.71803 -0.98778,-2.25778 -0.49389,-0.41275 -1.23825,-0.73025 -2.22603,-0.94897 -0.8255,-0.1517 -1.651,-0.30339 -2.47297,-0.45862 -1.21003,-0.23283 -2.20486,-0.8255 -2.98097,-1.778 -0.77258,-0.9525 -1.1677,-2.04964 -1.1677,-3.29494 0,-1.73566 0.62089,-3.22439 1.84856,-4.45911 1.23472,-1.23472 2.71286,-1.85561 4.45206,-1.85561 1.34761,0 2.56822,0.40217 3.66536,1.19239 1.08655,0.79375 1.85914,1.83444 2.30011,3.11503 l -3.05153,1.03716 c -0.22225,-0.62794 -0.59972,-1.13241 -1.12889,-1.524 -0.53975,-0.38805 -1.13241,-0.58208 -1.778,-0.58208 -0.83608,0 -1.55928,0.29986 -2.16605,0.89958 -0.59973,0.59973 -0.90311,1.31939 -0.90311,2.16606 0,0.46567 0.14463,0.87841 0.43744,1.22766 0.28222,0.35278 0.65264,0.57503 1.10772,0.67381 0.71614,0.14111 1.79917,0.3563 3.24556,0.65264 1.45344,0.29633 2.65289,1.02305 3.60892,2.18369 0.95955,1.15711 1.4358,2.49061 1.4358,3.99345 0,1.73919 -0.62089,3.22791 -1.84855,4.46617 -1.2312,1.23119 -2.71992,1.84855 -4.45912,1.84855 -1.69333,0 -3.2385,-0.49036 -4.62844,-1.46755 -1.39347,-0.98073 -2.37772,-2.26484 -2.95628,-3.85587"
     style="fill:#000000;fill-opacity:1;fill-rule:nonzero;stroke:none"
     id="path6738"
     inkscape:connector-curvature="0" />
  <path
     d="m 148.23638,168.31175 -3.2385,0 0,-9.05581 -7.41186,0 0,9.05581 -3.2385,0 0,-20.65514 3.2385,0 0,8.36436 7.41186,0 0,-8.36436 3.2385,0 0,20.65514 z"
     style="fill:#000000;fill-opacity:1;fill-rule:nonzero;stroke:none"
     id="path6742"
     inkscape:connector-curvature="0" />
  <path
     d="m 153.08778,168.31245 3.2385,0 0,-20.65513 -3.2385,0 0,20.65513 z"
     style="fill:#000000;fill-opacity:1;fill-rule:nonzero;stroke:none"
     id="path6744"
     inkscape:connector-curvature="0" />
  <path
     d="m 175.05456,168.31175 -2.87514,0 -7.77875,-13.77598 0,13.77598 -3.23145,0 0,-20.65514 3.01978,0 7.63411,13.53255 0,-13.53255 3.23145,0 0,20.65514 z"
     style="fill:#000000;fill-opacity:1;fill-rule:nonzero;stroke:none"
     id="path6748"
     inkscape:connector-curvature="0" />
  <path
     d="m 193.79412,158.00711 0,3.18911 c -0.0141,0.37394 -0.0529,0.94192 -0.12347,1.70039 -0.22225,1.64394 -0.9525,3.01625 -2.19781,4.11339 -1.24883,1.10067 -2.70228,1.64747 -4.35328,1.64747 -1.46403,0 -2.77283,-0.42686 -3.92289,-1.28764 -1.15711,-0.86078 -1.95439,-1.98967 -2.39536,-3.37961 -0.59267,-1.85914 -0.889,-3.85939 -0.889,-5.9937 0,-2.0955 0.28928,-4.07458 0.86783,-5.93019 0.42686,-1.40405 1.21709,-2.54353 2.38125,-3.41136 1.1677,-0.86783 2.48356,-1.30175 3.95817,-1.30175 1.41817,0 2.70581,0.41275 3.86292,1.23825 1.15711,0.8255 1.95792,1.91206 2.39889,3.25614 l -3.05153,1.03011 c -0.22225,-0.69497 -0.635,-1.25589 -1.23472,-1.68628 -0.59267,-0.43039 -1.25236,-0.64558 -1.9685,-0.64558 -2.65289,0 -3.98287,2.4765 -3.98287,7.44008 0,4.95653 1.32998,7.44009 3.98287,7.44009 1.10066,0 1.96144,-0.4057 2.57528,-1.21003 0.57855,-0.73731 0.86783,-1.67217 0.86783,-2.81164 l 0,-0.20814 -3.54189,0 0,-3.18911 6.76628,0"
     style="fill:#000000;fill-opacity:1;fill-rule:nonzero;stroke:none"
     id="path6752"
     inkscape:connector-curvature="0" />
</svg>
