<?xml version="1.0" encoding="UTF-8" standalone="no"?>
<svg
   xmlns:dc="http://purl.org/dc/elements/1.1/"
   xmlns:cc="http://creativecommons.org/ns#"
   xmlns:rdf="http://www.w3.org/1999/02/22-rdf-syntax-ns#"
   xmlns:svg="http://www.w3.org/2000/svg"
   xmlns="http://www.w3.org/2000/svg"
   xmlns:sodipodi="http://sodipodi.sourceforge.net/DTD/sodipodi-0.dtd"
   xmlns:inkscape="http://www.inkscape.org/namespaces/inkscape"
   width="90"
   height="89.993645"
   viewBox="0 0 254.00006 253.98205"
   version="1.1"
   id="svg2"
   inkscape:version="0.48.2 r9819"
   sodipodi:docname="MUTCD W3-6.svg">
  <metadata
     id="metadata62">
    <rdf:RDF>
      <cc:Work
         rdf:about="">
        <dc:format>image/svg+xml</dc:format>
        <dc:type
           rdf:resource="http://purl.org/dc/dcmitype/StillImage" />
        <dc:title></dc:title>
      </cc:Work>
    </rdf:RDF>
  </metadata>
  <defs
     id="defs60" />
  <sodipodi:namedview
     pagecolor="#ffffff"
     bordercolor="#666666"
     borderopacity="1"
     objecttolerance="10"
     gridtolerance="10"
     guidetolerance="10"
     inkscape:pageopacity="0"
     inkscape:pageshadow="2"
     inkscape:window-width="1280"
     inkscape:window-height="1004"
     id="namedview58"
     showgrid="false"
     fit-margin-top="0"
     fit-margin-left="0"
     fit-margin-right="0"
     fit-margin-bottom="0"
     inkscape:zoom="5.6568543"
     inkscape:cx="46.662167"
     inkscape:cy="38.551963"
     inkscape:window-x="-8"
     inkscape:window-y="-8"
     inkscape:window-maximized="1"
     inkscape:current-layer="svg2" />
  <!-- draw the bicycle -->
  <!-- RIGHT -->
  <!-- LANE -->
  <!-- ONLY -->
  <path
     inkscape:connector-curvature="0"
     d="m 135.22681,250.57459 115.34072,-115.3478 c 2.17311,-2.1625 3.43253,-5.1611 3.43253,-8.2338 0,-3.0657 -1.25942,-6.0643 -3.43253,-8.2339 L 135.22681,3.4113932 C 133.05017,1.2417932 130.0692,-0.00710688 126.98239,-6.8745622e-6 123.91675,0.01399312 120.92167,1.2487932 118.74856,3.4113932 L 3.41137,118.75909 C 1.25237,120.91109 0,123.94139 0,126.99299 c 0,3.0515 1.25237,6.0854 3.41137,8.2338 l 115.33719,115.3478 c 2.79752,2.7975 7.00969,3.9899 10.8585,3.1362 2.2225,-0.5045 3.86997,-1.7286 5.61975,-3.1362"
     style="fill:#ffd033;fill-opacity:1;fill-rule:nonzero;stroke:none"
     id="path6190" />
  <path
     inkscape:connector-curvature="0"
     d="M 121.05784,248.26779 5.72065,132.92709 c -1.56633,-1.5734 -2.45886,-3.7218 -2.45886,-5.9338 0,-2.2119 0.89253,-4.3532 2.45886,-5.9266 L 121.05784,5.7047932 c 1.55575,-1.5487 3.73592,-2.4307 5.93019,-2.4307 2.19428,0 4.37092,0.882 5.92667,2.4307 L 248.28012,121.06669 c 1.54869,1.5592 2.43417,3.7288 2.43417,5.9266 0,2.1978 -0.88548,4.3745 -2.43417,5.9338 L 132.9147,248.26779 c -1.56986,1.5628 -3.71475,2.4518 -5.92667,2.4518 -2.21191,0 -4.36033,-0.889 -5.93019,-2.4518"
     style="fill:#000000;fill-opacity:1;fill-rule:evenodd;stroke:none"
     id="path6198" />
  <path
     inkscape:connector-curvature="0"
     d="m 124.28257,245.05039 c 0.70203,0.7091 1.7145,1.1219 2.7058,1.1219 0.98073,0 2.02142,-0.4128 2.71992,-1.1219 l 115.34425,-115.3477 c 0.6985,-0.7021 1.11125,-1.7181 1.11125,-2.7094 0,-0.9772 -0.41275,-2.0179 -1.11125,-2.7199 L 129.70829,8.9291932 c -0.71261,-0.7021 -1.72156,-1.0936 -2.71992,-1.0936 -0.99836,0.01 -1.99319,0.3915 -2.7058,1.0936 L 8.92421,124.27339 c -0.6985,0.702 -1.11478,1.7427 -1.11478,2.7199 0,0.9913 0.41628,2.0073 1.11478,2.7094 l 115.35836,115.3477 z"
     style="fill:#ffd033;fill-opacity:1;fill-rule:evenodd;stroke:none"
     id="path6202" />
  <path
     d="m 99.523941,93.201821 -4.307418,0 -4.123973,-11.278308 -4.878918,0 0,11.278308 -4.004029,0 0,-25.749256 9.673169,0 c 1.993195,0 3.70064,0.709084 5.118807,2.130779 1.421695,1.411111 2.130778,3.1115 2.130778,5.104695 0,1.375834 -0.366889,2.649362 -1.097139,3.824112 -0.723195,1.178278 -1.693334,2.067278 -2.90689,2.667001 l 4.395613,12.022669 z m -13.310309,-15.282337 5.655029,0 c 0.892528,0 1.654528,-0.3175 2.282473,-0.945444 0.624417,-0.624417 0.941917,-1.389945 0.941917,-2.286001 0,-0.874889 -0.3175,-1.633361 -0.941917,-2.275417 -0.627945,-0.631472 -1.389945,-0.9525 -2.282473,-0.9525 l -5.655029,0 0,6.459362"
     style="fill:#000000;fill-opacity:1;fill-rule:nonzero;stroke:none"
     id="path6586"
     inkscape:connector-curvature="0" />
  <path
     d="m 125.87997,93.201821 -4.2298,0 -2.50473,-7.235474 -8.0645,0 -2.50825,7.235474 -4.23333,0 8.763,-25.749256 4.01461,0 8.763,25.749256 z m -8.14564,-11.239503 -2.62466,-7.845779 -2.71287,7.845779 5.33753,0 z"
     style="fill:#000000;fill-opacity:1;fill-rule:nonzero;stroke:none"
     id="path6590"
     inkscape:connector-curvature="0" />
  <path
     d="m 150.63087,93.201821 -4.00403,0 0,-14.894281 -5.96195,14.894281 -5.96547,-14.774337 0,14.774337 -4.00403,0 0,-25.749256 3.96875,0 6.02192,14.918976 5.969,-14.918976 3.97581,0 0,25.749256 z"
     style="fill:#000000;fill-opacity:1;fill-rule:nonzero;stroke:none"
     id="path6594"
     inkscape:connector-curvature="0" />
  <path
     d="m 156.69159,67.452565 10.06828,0 c 1.98967,0 3.69359,0.709084 5.11175,2.123723 1.41817,1.411111 2.12372,3.115029 2.12372,5.09764 0,2.003778 -0.70555,3.714751 -2.12372,5.125862 -1.41816,1.414639 -3.12914,2.123723 -5.1188,2.123723 l -6.0572,0 0,11.278308 -4.00403,0 0,-25.749256 z m 4.00403,4.007557 0,6.459362 6.07131,0 c 0.87489,0 1.63336,-0.3175 2.27189,-0.945444 0.635,-0.624417 0.9525,-1.389945 0.9525,-2.286001 0,-0.874889 -0.3175,-1.633361 -0.9525,-2.275417 -0.63853,-0.631472 -1.397,-0.9525 -2.27189,-0.9525 l -6.07131,0"
     style="fill:#000000;fill-opacity:1;fill-rule:nonzero;stroke:none"
     id="path6598"
     inkscape:connector-curvature="0" />
  <path
     d="m 93.805411,181.27634 -4.229806,0 -2.508251,-7.23547 -8.064502,0 -2.504723,7.23547 -4.229806,0 8.755946,-25.74573 4.021668,0 8.759474,25.74573 z m -8.142113,-11.2395 -2.628195,-7.84931 -2.712862,7.84931 5.341057,0 z"
     style="fill:#000000;fill-opacity:1;fill-rule:nonzero;stroke:none"
     id="path6602"
     inkscape:connector-curvature="0" />
  <path
     d="m 115.93164,181.27634 -4.00756,0 0,-11.28184 -9.29922,0 0,11.28184 -4.004031,0 0,-25.74573 4.004031,0 0,10.45987 9.29922,0 0,-10.45987 4.00756,0 0,25.74573 z"
     style="fill:#000000;fill-opacity:1;fill-rule:nonzero;stroke:none"
     id="path6606"
     inkscape:connector-curvature="0" />
  <path
     d="m 137.67687,177.27231 0,4.00403 -15.69156,0 0,-25.74573 14.89075,0 0,4.00403 -10.88672,0 0,6.45584 7.44714,0 0,4.00402 -7.44714,0 0,7.27781 11.68753,0 z"
     style="fill:#000000;fill-opacity:1;fill-rule:nonzero;stroke:none"
     id="path6610"
     inkscape:connector-curvature="0" />
  <path
     d="m 162.43834,181.27634 -4.2298,0 -2.50825,-7.23547 -8.06803,0 -2.5012,7.23547 -4.2298,0 8.75594,-25.74573 4.01814,0 8.763,25.74573 z m -8.14211,-11.2395 -2.62819,-7.84931 -2.71992,7.84931 5.34811,0 z"
     style="fill:#000000;fill-opacity:1;fill-rule:nonzero;stroke:none"
     id="path6614"
     inkscape:connector-curvature="0" />
  <path
     d="m 167.25376,181.27634 0,-25.74573 7.20725,0 c 3.36903,0 5.95489,1.37231 7.75406,4.12045 1.5628,2.33186 2.34244,5.27403 2.34244,8.8265 0,3.41842 -0.80786,6.31825 -2.42005,8.70656 -1.85209,2.72344 -4.42384,4.09222 -7.70114,4.09222 l -7.18256,0 z m 4.00403,-4.00403 3.17853,0 c 2.23661,0 3.86997,-0.97014 4.90361,-2.91394 0.80786,-1.49578 1.21355,-3.45723 1.21355,-5.88081 0,-2.54353 -0.46919,-4.59669 -1.41816,-6.1595 -0.635,-1.04775 -1.27,-1.76036 -1.89089,-2.14136 -0.66675,-0.43039 -1.60514,-0.64206 -2.80811,-0.64206 l -3.17853,0 0,17.73767"
     style="fill:#000000;fill-opacity:1;fill-rule:nonzero;stroke:none"
     id="path6618"
     inkscape:connector-curvature="0" />
  <path
     d="m 87.257854,126.17597 5.961946,-14.81314 4.134557,0 0,25.89389 -4.134557,0 -0.02117,-14.83784 -5.958418,14.83784 -5.961946,-14.83784 0,14.83784 -4.134556,0 0,-25.89389 4.148668,0 5.965473,14.81314 z"
     style="fill:#000000;fill-opacity:1;fill-rule:nonzero;stroke:none"
     id="path6622"
     inkscape:connector-curvature="0" />
  <path
     d="m 119.61111,137.25672 -16.05492,0 0,-25.89389 15.53634,0 0,4.13455 -11.40178,0 0,6.223 7.88105,0 0,4.13456 -7.88105,0 0,7.2637 11.92036,0 0,4.13808 z"
     style="fill:#000000;fill-opacity:1;fill-rule:nonzero;stroke:none"
     id="path6626"
     inkscape:connector-curvature="0" />
  <path
     d="m 137.76506,115.49738 -5.95136,0 0,21.75934 -4.13456,0 0,-21.75934 -5.969,0 0,-4.13455 16.05492,0 0,4.13455 z"
     style="fill:#000000;fill-opacity:1;fill-rule:nonzero;stroke:none"
     id="path6630"
     inkscape:connector-curvature="0" />
  <path
     d="m 157.67231,137.25672 -16.05492,0 0,-25.89389 15.53634,0 0,4.13455 -11.40178,0 0,6.223 7.88106,0 0,4.13456 -7.88106,0 0,7.2637 11.92036,0 0,4.13808 z"
     style="fill:#000000;fill-opacity:1;fill-rule:nonzero;stroke:none"
     id="path6634"
     inkscape:connector-curvature="0" />
  <path
     d="m 175.19832,118.55597 c 0,-0.86431 -0.28928,-1.59103 -0.86784,-2.17664 -0.57855,-0.58561 -1.30175,-0.88195 -2.16252,-0.88195 l -5.95842,0 0,6.223 5.95842,0 c 0.86077,0 1.58397,-0.30691 2.16252,-0.92075 0.57856,-0.61383 0.86784,-1.36172 0.86784,-2.24366 m 4.48028,18.70075 -4.37445,0 -4.16983,-11.40178 -4.92478,0 0,11.40178 -4.13456,0 0,-25.89389 10.06475,0 c 1.98614,0 3.67948,0.70555 5.08706,2.10961 1.40406,1.40758 2.10608,3.10444 2.10608,5.08705 0,2.90337 -1.36878,5.07648 -4.10633,6.52639 l 4.45206,12.17084 z"
     style="fill:#000000;fill-opacity:1;fill-rule:nonzero;stroke:none"
     id="path6638"
     inkscape:connector-curvature="0" />
</svg>
