<?xml version="1.0" encoding="utf-8"?>
<!-- Generator: Adobe Illustrator 12.0.1, SVG Export Plug-In  -->
<!DOCTYPE svg PUBLIC "-//W3C//DTD SVG 1.1//EN" "http://www.w3.org/Graphics/SVG/1.1/DTD/svg11.dtd" [
	<!ENTITY ns_flows "http://ns.adobe.com/Flows/1.0/">
	<!ENTITY ns_svg "http://www.w3.org/2000/svg">
	<!ENTITY ns_xlink "http://www.w3.org/1999/xlink">
]>
<svg  version="1.1" xmlns="&ns_svg;" xmlns:xlink="&ns_xlink;" xmlns:a="http://ns.adobe.com/AdobeSVGViewerExtensions/3.0/"
	 width="244" height="288" viewBox="-0.453 0 244 288" enable-background="new -0.453 0 244 288" xml:space="preserve">
<defs>
</defs>
<path fill="#FFFFFF" d="M20.063,0.989h202.972c10.48,0,19.062,8.581,19.062,19.074v247.873c0,10.497-8.581,19.074-19.062,19.074
	H20.063c-10.493,0-19.066-8.577-19.066-19.074V20.063C0.997,9.57,9.57,0.989,20.063,0.989z"/>
<path fill="#231F20" d="M20.063,0C9.001,0,0,8.997,0,20.063v247.873C0,278.999,9.001,288,20.063,288h202.972
	c11.058,0,20.059-9.001,20.059-20.063V20.063C243.094,8.997,234.093,0,223.035,0H20.063z M1.99,267.937V20.063
	c0-9.97,8.107-18.077,18.073-18.077h202.972c9.965,0,18.072,8.107,18.072,18.077v247.873c0,9.97-8.107,18.077-18.072,18.077H20.063
	C10.098,286.014,1.99,277.906,1.99,267.937z"/>
<path fill-rule="evenodd" clip-rule="evenodd" fill="#231F20" d="M21.077,5.951h200.936c8.328,0,15.122,6.807,15.122,15.131v245.841
	c0,8.315-6.794,15.126-15.122,15.126H21.077c-8.315,0-15.122-6.811-15.122-15.126V21.082C5.955,12.758,12.762,5.951,21.077,5.951"/>
<path fill="#FFFFFF" d="M221.959,10.397H21.144c-5.93,0-10.755,4.816-10.755,10.742v245.733c0,5.926,4.825,10.746,10.755,10.746
	h200.815c5.922,0,10.746-4.82,10.746-10.746V21.14C232.705,15.214,227.881,10.397,221.959,10.397z"/>
<path fill="#231F20" d="M37.078,68.3l-4.826-13.047h-5.674V68.3h-4.736V38.364h9.875c2.324,0,3.887,0.224,5.362,0.938
	c2.636,1.251,4.513,4.423,4.513,7.461c0,3.172-1.876,6.3-4.647,7.551L42.216,68.3H37.078z M34.978,43.637
	c-0.804-0.447-1.162-0.536-2.726-0.536h-5.674v7.328h5.674c1.475,0,1.966-0.089,2.726-0.492c1.162-0.67,1.876-1.921,1.876-3.172
	S36.14,44.262,34.978,43.637z"/>
<path fill="#231F20" d="M48.382,68.3V38.364h17.649v4.736H53.118v7.328h8.713v4.825h-8.713v8.221h13.851V68.3H48.382z"/>
<path fill="#231F20" d="M88.237,66.603c-1.117,1.072-2.725,1.608-4.289,1.698c-0.313,0-0.938,0-1.698,0h-9.115V38.364h9.651
	c3.038,0,4.2,0.313,5.808,1.564c3.128,2.726,4.915,7.461,4.915,13.359C93.509,59.275,91.633,64.011,88.237,66.603z M86.271,44.352
	c-0.759-0.715-1.787-1.251-3.038-1.251h-5.362v20.374h4.736c1.563,0,2.502-0.313,3.351-1.162c1.787-1.787,2.726-5.049,2.726-9.025
	C88.684,49.267,87.746,45.916,86.271,44.352z"/>
<path fill="#231F20" d="M112.141,68.3V38.364h4.736v25.513h13.852V68.3H112.141z"/>
<path fill="#231F20" d="M136.269,68.3V38.364h4.826V68.3H136.269z"/>
<path fill="#231F20" d="M159.636,68.836c-4.513,0-7.148-1.698-8.936-5.451c-1.251-2.636-1.966-6.344-1.966-10.008
	c0-4.826,1.34-9.562,3.351-12.198c1.787-2.189,4.289-3.351,7.686-3.351c4.602,0,7.327,1.921,9.338,6.613l-4.513,1.787
	c-1.251-2.591-2.547-3.574-4.825-3.574c-2.413,0-4.021,1.072-5.049,3.708c-0.76,1.787-1.162,4.513-1.162,7.015
	c0,3.172,0.536,6.3,1.475,8.221c0.938,1.653,2.323,2.413,4.11,2.413c3.038,0,5.228-1.921,5.228-4.646v-1.251h-5.451v-4.736h10.188
	v5.987C169.108,64.815,165.132,68.836,159.636,68.836z"/>
<path fill="#231F20" d="M192.388,68.3V55.253h-10.902V68.3h-4.736V38.364h4.736v12.064h10.902V38.364h4.736V68.3H192.388z"/>
<path fill="#231F20" d="M214.326,42.564V68.3h-4.736V42.564h-6.836v-4.2h18.498v4.2H214.326z"/>
<path fill="#231F20" d="M36.497,121.491h-3.663l-9.473-29.936h4.96l6.389,19.972l6.3-19.972h5.05L36.497,121.491z"/>
<path fill="#231F20" d="M50.482,121.491V91.555h4.825v29.936H50.482z"/>
<path fill="#231F20" d="M79.793,118.676c-1.698,2.279-4.111,3.351-7.238,3.351c-4.2,0-6.837-1.698-8.624-5.362
	c-1.251-2.546-2.1-6.523-2.1-10.098c0-4.915,1.251-9.338,3.262-12.198c1.787-2.279,4.2-3.351,7.641-3.351
	c3.798,0,6.434,1.698,8.311,5.362c1.251,2.636,2.011,6.434,2.011,10.187C83.055,111.304,81.893,116.04,79.793,118.676z
	 M76.531,98.168c-0.938-1.564-2.101-2.189-3.888-2.323c-0.089,0-0.179,0-0.268,0c-2.146,0-3.575,1.162-4.558,3.708
	c-0.76,1.787-1.162,4.513-1.162,7.015c0,3.172,0.626,6.434,1.787,8.311c0.938,1.564,2.189,2.323,4.111,2.323
	c2.189,0,3.574-1.162,4.602-3.798c0.626-1.563,1.162-4.513,1.162-6.836C78.318,103.217,77.692,100.179,76.531,98.168z"/>
<path fill="#231F20" d="M89.667,121.491V91.555h4.736v25.513h13.851v4.423H89.667z"/>
<path fill="#231F20" d="M130.327,121.491l-2.949-8.4h-9.339l-2.948,8.4h-5.049l10.32-29.936h4.692l10.321,29.936H130.327z
	 M122.775,99.866l-3.083,8.4h5.987L122.775,99.866z"/>
<path fill="#231F20" d="M148.824,95.755v25.736h-4.736V95.755h-6.836v-4.2h18.498v4.2H148.824z"/>
<path fill="#231F20" d="M160.173,121.491V91.555h4.826v29.936H160.173z"/>
<path fill="#231F20" d="M189.483,118.676c-1.697,2.279-4.11,3.351-7.238,3.351c-4.199,0-6.836-1.698-8.623-5.362
	c-1.251-2.546-2.1-6.523-2.1-10.098c0-4.915,1.251-9.338,3.262-12.198c1.787-2.279,4.199-3.351,7.64-3.351
	c3.798,0,6.435,1.698,8.311,5.362c1.252,2.636,2.011,6.434,2.011,10.187C192.745,111.304,191.584,116.04,189.483,118.676z
	 M186.222,98.168c-0.938-1.564-2.1-2.189-3.887-2.323c-0.09,0-0.179,0-0.269,0c-2.145,0-3.574,1.162-4.557,3.708
	c-0.76,1.787-1.162,4.513-1.162,7.015c0,3.172,0.626,6.434,1.787,8.311c0.938,1.564,2.189,2.323,4.11,2.323
	c2.189,0,3.575-1.162,4.603-3.798c0.625-1.563,1.162-4.513,1.162-6.836C188.01,103.217,187.384,100.179,186.222,98.168z"/>
<path fill="#231F20" d="M215.532,121.491l-11.438-20.285v20.285h-4.736V91.555h4.736l10.902,19.124V91.555h4.736v29.936H215.532z"/>
<path fill="#231F20" d="M91.432,224.477v7.552h5.987v4.11h-5.987v14.074h-4.289v-29.936h15.236v4.199H91.432z"/>
<path fill="#231F20" d="M106.579,250.213v-29.936h4.199v29.936H106.579z"/>
<path fill="#231F20" d="M130.93,250.213l-9.249-20.062v20.062h-4.289v-29.936h4.289l8.222,17.961v-17.961h4.289v29.936H130.93z"/>
<path fill="#231F20" d="M140.715,250.213v-29.936h14.074v4.199h-9.785v7.552h6.211v4.11h-6.211v9.874h10.947v4.2H140.715z"/>
<path fill="#231F20" d="M56.218,192.896v7.531h-7.596v-7.659c-5.106-0.894-9.319-3.447-13.085-7.787l6.127-4.787
	c3.191,3.702,6.638,5.361,11.426,5.361c5.425,0,9.319-2.361,9.319-5.553s-3.511-4.532-7.787-5.554l-1.979-0.574l-4.021-1.085
	c-8.489-1.979-11.106-6.128-11.106-11.361c0-6,4.34-10.404,11.106-11.554v-6.638h7.596v6.638c4.532,0.702,8.425,2.809,11.873,6.256
	l-5.681,5.106c-2.681-2.809-6.191-4.213-10.212-4.213c-4.341,0-6.894,1.659-6.894,4.404c0,2.361,1.468,3.446,6.766,4.659
	c13.213,2.681,18,5.872,18,14.234C70.069,186.831,64.516,192.193,56.218,192.896z"/>
<path fill="#231F20" d="M108.622,184.087v8.681h-7.468v-8.681H74.729v-6.894l26.425-27.191h7.468v27.191h6.319v6.894H108.622z
	 M101.154,160.087l-16.66,17.106h16.66V160.087z"/>
<path fill="#231F20" d="M142.707,193.533c-12.766,0-18-10.979-18-22.212c0-11.234,5.426-22.085,18-22.085
	c12.766,0,17.871,11.105,17.871,21.893C160.578,182.108,155.6,193.533,142.707,193.533z M152.92,171.321
	c0-9-3.768-14.426-10.213-14.426c-7.66,0-10.342,7.979-10.342,14.233c0,9.511,3.895,14.745,10.342,14.745
	c6.318,0,10.213-5.872,10.213-14.745V171.321z"/>
<path fill="#231F20" d="M189.684,193.533c-12.766,0-18-10.979-18-22.212c0-11.234,5.426-22.085,18-22.085
	c12.768,0,17.873,11.105,17.873,21.893C207.557,182.108,202.578,193.533,189.684,193.533z M199.896,171.321
	c0-9-3.766-14.426-10.213-14.426c-7.658,0-10.34,7.979-10.34,14.233c0,9.511,3.895,14.745,10.34,14.745
	c6.32,0,10.213-5.872,10.213-14.745V171.321z"/>
</svg>
