<?xml version="1.0" encoding="UTF-8" standalone="no"?>
<!-- Generator: Adobe Illustrator 12.0.1, SVG Export Plug-In  -->

<svg
   xmlns:dc="http://purl.org/dc/elements/1.1/"
   xmlns:cc="http://creativecommons.org/ns#"
   xmlns:rdf="http://www.w3.org/1999/02/22-rdf-syntax-ns#"
   xmlns:svg="http://www.w3.org/2000/svg"
   xmlns="http://www.w3.org/2000/svg"
   xmlns:sodipodi="http://sodipodi.sourceforge.net/DTD/sodipodi-0.dtd"
   xmlns:inkscape="http://www.inkscape.org/namespaces/inkscape"
   version="1.1"
   width="187.8125"
   height="280.96875"
   viewBox="-0.999 0 187.8125 280.96875"
   enable-background="new -0.999 0 289 289"
   xml:space="preserve"
   id="svg2"
   inkscape:version="0.48.2 r9819"
   sodipodi:docname="AJAX1.svg"><metadata
   id="metadata18"><rdf:RDF><cc:Work
       rdf:about=""><dc:format>image/svg+xml</dc:format><dc:type
         rdf:resource="http://purl.org/dc/dcmitype/StillImage" /><dc:title /></cc:Work></rdf:RDF></metadata><sodipodi:namedview
   pagecolor="#ffffff"
   bordercolor="#666666"
   borderopacity="1"
   objecttolerance="10"
   gridtolerance="10"
   guidetolerance="10"
   inkscape:pageopacity="0"
   inkscape:pageshadow="2"
   inkscape:window-width="1280"
   inkscape:window-height="1004"
   id="namedview16"
   showgrid="false"
   fit-margin-top="0"
   fit-margin-left="0"
   fit-margin-right="0"
   fit-margin-bottom="0"
   inkscape:zoom="1.3365592"
   inkscape:cx="4.1790666"
   inkscape:cy="157.44593"
   inkscape:window-x="-8"
   inkscape:window-y="-8"
   inkscape:window-maximized="1"
   inkscape:current-layer="svg2"
   showguides="true"
   inkscape:guide-bbox="true" />
<defs
   id="defs4">
</defs>





<path
   inkscape:connector-curvature="0"
   d="m 186.06087,256.92937 c 0,12.80875 -10.48,23.28875 -23.28875,23.28875 l -139.72874,0 c -12.80876,0 -23.288755,-10.48 -23.288755,-23.28875 l 0,-232.8825 c 0,-12.80875 10.479995,-23.2875 23.288745,-23.2875 l 139.72875,0 c 12.80875,0 23.28875,10.47875 23.28875,23.2875 l 0,232.8825 z"
   style="fill:#ffffff;fill-opacity:1;fill-rule:nonzero;stroke:#000000;stroke-width:1.5;stroke-miterlimit:4;stroke-opacity:1;stroke-dasharray:none"
   id="path7723" /><path
   inkscape:connector-curvature="0"
   d="m 162.77263,6.58089 -139.73,0 c -9.60625,0 -17.465,7.86 -17.465,17.46625 l 0,232.8825 c 0,9.60625 7.85875,17.46625 17.465,17.46625 l 139.73,0 c 9.60625,0 17.46625,-7.86 17.46625,-17.46625 l 0,-232.8825 c 0,-9.60625 -7.86,-17.46625 -17.46625,-17.46625 m 11.64375,250.34875 c 0,6.40375 -5.24,11.64375 -11.64375,11.64375 l -139.73,0 c -6.40375,0 -11.64375,-5.24 -11.64375,-11.64375 l 0,-232.8825 c 0,-6.405 5.24,-11.64375 11.64375,-11.64375 l 139.73,0 c 6.40375,0 11.64375,5.23875 11.64375,11.64375 l 0,232.8825 z"
   style="fill:#00674c;fill-opacity:1;fill-rule:nonzero;stroke:none"
   id="path7731" /><path
   inkscape:connector-curvature="0"
   d="m 130.96376,226.08938 c -0.37375,-0.255 -0.82625,-0.405 -1.31375,-0.405 -1.285,0 -2.3275,1.0425 -2.3275,2.32875 0,0.2375 0.035,0.46625 0.1,0.68125 l 2.0675,6.8875 -73.16375,0 2.06625,-6.8875 c 0.0662,-0.215 0.10125,-0.44375 0.10125,-0.68125 0,-1.28625 -1.0425,-2.32875 -2.3275,-2.32875 -0.4875,0 -0.94,0.15 -1.31375,0.405 l -22.10625,15.315 22.10625,15.31375 c 0.37375,0.25625 0.82625,0.405 1.31375,0.405 1.285,0 2.3275,-1.0425 2.3275,-2.32875 0,-0.2375 -0.035,-0.46625 -0.10125,-0.68125 l -2.06625,-6.8875 73.16375,0 -2.0675,6.8875 c -0.065,0.215 -0.1,0.44375 -0.1,0.68125 0,1.28625 1.0425,2.32875 2.3275,2.32875 0.4875,0 0.94,-0.14875 1.31375,-0.405 l 22.105,-15.31375 -22.105,-15.315 z"
   style="fill:#00674c;fill-opacity:1;fill-rule:nonzero;stroke:none"
   id="path7735" /><path
   inkscape:connector-curvature="0"
   d="m 29.43764,62.85825 -4.14,-14.58 -4.2775,0 0,14.58 -4.46125,0 0,-31.04625 9.29125,0 c 4.875,0 8.14125,3.26625 8.14125,8.27875 0,3.72625 -1.51875,6.44 -4.46125,7.4975 l 4.46125,15.27 -4.55375,0 z m -3.8175,-26.67625 -4.6,0 0,7.81875 4.6,0 c 2.62125,0 4.00125,-1.42625 4.00125,-3.91 0,-2.39125 -1.61,-3.90875 -4.00125,-3.90875"
   style="fill:#00674c;fill-opacity:1;fill-rule:nonzero;stroke:none"
   id="path7739" /><path
   inkscape:connector-curvature="0"
   d="m 37.07226,62.85825 0,-31.04625 14.62625,0 0,4.37 -10.165,0 0,7.81875 6.43875,0 0,4.2775 -6.43875,0 0,10.21125 11.36125,0 0,4.36875 -15.8225,0 z"
   style="fill:#00674c;fill-opacity:1;fill-rule:nonzero;stroke:none"
   id="path7743" /><path
   inkscape:connector-curvature="0"
   d="m 63.10463,63.41026 c -5.4275,0 -8.73875,-4.6 -8.73875,-9.705 l 4.36875,0 c 0,2.62125 1.33375,5.335 4.37,5.335 2.39125,0 4.36875,-2.16125 4.36875,-4.69125 0,-3.67875 -3.1725,-4.92125 -7.72625,-8.14 -2.76,-1.97875 -3.8175,-4.14 -3.8175,-6.9 0,-4.46125 3.45,-8.04875 7.95625,-8.04875 4.32375,0 7.7275,3.40375 7.82,8.04875 l -4.2325,0 c -0.1375,-2.16125 -1.655,-3.5875 -3.5875,-3.5875 -2.06875,0 -3.725,1.5175 -3.725,3.5875 0,1.56375 0.64375,2.3925 2.94375,3.72625 5.97875,3.44875 8.60125,6.8525 8.60125,11.31375 0,5.01375 -3.8175,9.06125 -8.60125,9.06125"
   style="fill:#00674c;fill-opacity:1;fill-rule:nonzero;stroke:none"
   id="path7747" /><path
   inkscape:connector-curvature="0"
   d="m 74.7869,62.85825 0,-31.04625 14.62625,0 0,4.37 -10.165,0 0,7.81875 6.43875,0 0,4.2775 -6.43875,0 0,10.21125 11.36125,0 0,4.36875 -15.8225,0 z"
   style="fill:#00674c;fill-opacity:1;fill-rule:nonzero;stroke:none"
   id="path7751" /><path
   inkscape:connector-curvature="0"
   d="m 106.52238,62.85825 -4.13875,-14.58 -4.2775,0 0,14.58 -4.4625,0 0,-31.04625 9.29125,0 c 4.875,0 8.14125,3.26625 8.14125,8.27875 0,3.72625 -1.5175,6.44 -4.46125,7.4975 l 4.46125,15.27 -4.55375,0 z m -3.8175,-26.67625 -4.59875,0 0,7.81875 4.59875,0 c 2.62125,0 4.00125,-1.42625 4.00125,-3.91 0,-2.39125 -1.61,-3.90875 -4.00125,-3.90875"
   style="fill:#00674c;fill-opacity:1;fill-rule:nonzero;stroke:none"
   id="path7755" /><path
   inkscape:connector-curvature="0"
   d="m 122.89588,62.85825 -3.3575,0 -7.865,-31.04625 4.46125,0 5.15125,20.14625 5.105,-20.14625 4.4625,0 -7.9575,31.04625 z"
   style="fill:#00674c;fill-opacity:1;fill-rule:nonzero;stroke:none"
   id="path7759" /><path
   inkscape:connector-curvature="0"
   d="m 132.96801,62.85825 0,-31.04625 14.62625,0 0,4.37 -10.165,0 0,7.81875 6.43875,0 0,4.2775 -6.43875,0 0,10.21125 11.36125,0 0,4.36875 -15.8225,0 z"
   style="fill:#00674c;fill-opacity:1;fill-rule:nonzero;stroke:none"
   id="path7763" /><path
   inkscape:connector-curvature="0"
   d="m 164.79563,61.43238 c -1.15,0.92 -2.62125,1.42625 -4.37,1.42625 l -8.6,0 0,-31.04625 7.95625,0 c 2.6225,0 3.91,0.3675 5.01375,1.195 1.84,1.335 3.1275,3.72625 3.725,6.85375 0.41375,2.3 0.73625,5.01375 0.73625,7.405 0,7.22125 -1.47125,11.72875 -4.46125,14.16625 m -0.73625,-22.1225 c -0.8275,-2.1625 -2.07,-3.12875 -4.0475,-3.12875 l -3.725,0 0,22.3075 3.725,0 c 2.6225,0 4.09375,-2.02375 4.46125,-4.46125 0.27625,-1.93125 0.415,-4.14 0.415,-6.53125 0,-3.495 -0.36875,-6.8525 -0.82875,-8.18625"
   style="fill:#00674c;fill-opacity:1;fill-rule:nonzero;stroke:none"
   id="path7767" /><path
   inkscape:connector-curvature="0"
   d="m 36.49752,95.82036 -4.82875,0 0,13.61375 -4.4625,0 0,-31.045 9.29125,0 c 4.875,0 8.14125,3.495 8.14125,8.6925 0,5.70375 -2.94375,8.73875 -8.14125,8.73875 m -0.23,-13.0625 -4.59875,0 0,8.83125 4.59875,0 c 2.62125,0 4.00125,-1.65625 4.00125,-4.5075 0,-2.57625 -1.61,-4.32375 -4.00125,-4.32375"
   style="fill:#00674c;fill-opacity:1;fill-rule:nonzero;stroke:none"
   id="path7771" /><path
   inkscape:connector-curvature="0"
   d="m 59.12637,109.43462 -2.16125,-8.50875 -6.67,0 -2.06875,8.50875 -4.4625,0 7.7275,-31.04625 4.36875,0 7.7275,31.04625 -4.46125,0 z m -5.565,-21.80125 -2.1625,8.96875 4.46125,0 -2.29875,-8.96875 z"
   style="fill:#00674c;fill-opacity:1;fill-rule:nonzero;stroke:none"
   id="path7775" /><path
   inkscape:connector-curvature="0"
   d="m 79.45514,109.43462 -4.14,-14.58 -4.2775,0 0,14.58 -4.46125,0 0,-31.04625 9.29125,0 c 4.875,0 8.14125,3.26625 8.14125,8.27875 0,3.72625 -1.51875,6.44 -4.46125,7.4975 l 4.46125,15.27 -4.55375,0 z m -3.8175,-26.67625 -4.6,0 0,7.81875 4.6,0 c 2.62125,0 4.00125,-1.42625 4.00125,-3.91 0,-2.39125 -1.61,-3.90875 -4.00125,-3.90875"
   style="fill:#00674c;fill-opacity:1;fill-rule:nonzero;stroke:none"
   id="path7779" /><path
   inkscape:connector-curvature="0"
   d="m 100.65763,109.43462 -5.4275,-15.1325 -2.85125,5.1975 0,9.935 -4.46125,0 0,-31.04625 4.46125,0 0,12.41875 7.0825,-12.41875 5.15125,0 -6.43875,10.90125 7.175,20.145 -4.69125,0 z"
   style="fill:#00674c;fill-opacity:1;fill-rule:nonzero;stroke:none"
   id="path7783" /><path
   inkscape:connector-curvature="0"
   d="m 109.25751,78.38875 4.37,0 0,31.04625 -4.37,0 0,-31.04625 z"
   style="fill:#00674c;fill-opacity:1;fill-rule:nonzero;stroke:none"
   id="path7785" /><path
   inkscape:connector-curvature="0"
   d="m 133.12913,109.43462 -9.6125,-20.78875 0,20.78875 -4.46125,0 0,-31.04625 4.46125,0 8.50875,18.6275 0,-18.6275 4.46125,0 0,31.04625 -3.3575,0 z"
   style="fill:#00674c;fill-opacity:1;fill-rule:nonzero;stroke:none"
   id="path7789" /><path
   inkscape:connector-curvature="0"
   d="m 157.73563,105.61712 c -1.2425,2.71375 -3.68,4.37 -6.8525,4.37 -3.68,0 -6.44,-1.84 -7.9575,-5.33625 -0.96625,-2.29875 -1.61,-6.66875 -1.61,-10.67 0,-4.37 0.3675,-7.4975 1.42625,-10.48625 1.10375,-3.22 4.23125,-5.6575 7.81875,-5.6575 4.46125,0 7.865,3.265 8.04875,7.865 l -4.46125,0 c -0.0925,-2.07 -1.5175,-3.49625 -3.68,-3.49625 -1.5175,0 -2.7125,0.7825 -3.495,2.3 -0.8275,1.5175 -1.42625,5.01375 -1.42625,8.6925 0,2.6225 0.18375,5.33625 0.64375,7.7275 0.64375,3.08125 2.2075,4.69125 4.6,4.69125 2.3,0 3.3575,-1.5175 3.3575,-4.78375 l 0,-2.06875 -3.495,0 0,-4.37 7.95625,0 0,6.43875 c 0,2.1625 -0.23,3.45 -0.87375,4.78375"
   style="fill:#00674c;fill-opacity:1;fill-rule:nonzero;stroke:none"
   id="path7793" /><path
   inkscape:connector-curvature="0"
   d="m 139.48463,212.29363 c 0,3.2025 -2.62,5.8225 -5.8225,5.8225 l -81.50875,0 c -3.20125,0 -5.82125,-2.62 -5.82125,-5.8225 l 0,-81.50875 c 0,-3.2025 2.62,-5.8225 5.82125,-5.8225 l 81.50875,0 c 3.2025,0 5.8225,2.62 5.8225,5.8225 l 0,81.50875 z"
   style="fill:#005597;fill-opacity:1;fill-rule:nonzero;stroke:none"
   id="path7797" /><path
   inkscape:connector-curvature="0"
   d="m 106.42051,176.4685 8.3325,19.52375 10.94,-4.29 -1.69375,-4.035 -6.1225,2.21125 -8.0625,-18.61375 -18.88875,0.1275 -0.26,-3.51625 13.675,0.006 0,-5.20125 -14.19625,-0.005 -0.6275,-11.13625 c 2.81125,-0.26 4.995,-2.68125 4.995,-5.515 0,-3.04875 -2.48625,-5.535 -5.535,-5.535 -3.05,0 -5.53625,2.48625 -5.53625,5.535 0,0.93 0.26,1.88125 0.6925,2.6825 l 1.9725,27.75625 20.315,0.005 z m -35.14625,5.7075 c 0,11.24375 9.17,20.41375 20.41375,20.41375 7.655,0 14.8325,-4.46625 18.26125,-11.24375 l -3.6125,-7.39375 c -0.86875,7.34625 -7.23125,13.07375 -14.69375,13.07375 -8.15625,0 -14.80875,-6.6525 -14.80875,-14.80875 0,-5.0325 2.60375,-9.835 6.82625,-12.495 l -0.4625,-6.03 C 76.05926,166.94475 71.27426,174.281 71.27426,182.176"
   style="fill:#ffffff;fill-opacity:1;fill-rule:evenodd;stroke:none"
   id="path7805" /></svg>