<?xml version="1.0" encoding="UTF-8" standalone="no"?>
<svg
   xmlns:dc="http://purl.org/dc/elements/1.1/"
   xmlns:cc="http://creativecommons.org/ns#"
   xmlns:rdf="http://www.w3.org/1999/02/22-rdf-syntax-ns#"
   xmlns:svg="http://www.w3.org/2000/svg"
   xmlns="http://www.w3.org/2000/svg"
   xmlns:sodipodi="http://sodipodi.sourceforge.net/DTD/sodipodi-0.dtd"
   xmlns:inkscape="http://www.inkscape.org/namespaces/inkscape"
   width="90.002823"
   height="89.999992"
   viewBox="0 0 254.00798 253.99997"
   version="1.1"
   id="svg2"
   inkscape:version="0.48.2 r9819"
   sodipodi:docname="AJAX1.svg">
  <metadata
     id="metadata62">
    <rdf:RDF>
      <cc:Work
         rdf:about="">
        <dc:format>image/svg+xml</dc:format>
        <dc:type
           rdf:resource="http://purl.org/dc/dcmitype/StillImage" />
      </cc:Work>
    </rdf:RDF>
  </metadata>
  <defs
     id="defs60" />
  <sodipodi:namedview
     pagecolor="#ffffff"
     bordercolor="#666666"
     borderopacity="1"
     objecttolerance="10"
     gridtolerance="10"
     guidetolerance="10"
     inkscape:pageopacity="0"
     inkscape:pageshadow="2"
     inkscape:window-width="1280"
     inkscape:window-height="1004"
     id="namedview58"
     showgrid="false"
     fit-margin-top="0"
     fit-margin-left="0"
     fit-margin-right="0"
     fit-margin-bottom="0"
     inkscape:zoom="6.6107689"
     inkscape:cx="38.363392"
     inkscape:cy="41.114272"
     inkscape:window-x="-8"
     inkscape:window-y="-8"
     inkscape:window-maximized="1"
     inkscape:current-layer="svg2" />
  <!-- draw the bicycle -->
  <!-- RIGHT -->
  <!-- LANE -->
  <!-- ONLY -->
  <path
     inkscape:connector-curvature="0"
     d="M 250.61865,118.77494 135.22855,3.3919392 c -4.5296,-4.5226 -11.9274,-4.5226 -16.4535,0 L 3.39195,118.77494 c -4.5226,4.5226 -4.5226,11.9239 0,16.4536 l 115.3831,115.3795 c 4.5261,4.5226 11.9239,4.5226 16.4535,0 l 115.3901,-115.3795 c 4.5191,-4.5297 4.5191,-11.931 0,-16.4536"
     style="fill:#ffd033;fill-opacity:1;fill-rule:nonzero;stroke:none"
     id="path3195" />
  <path
     inkscape:connector-curvature="0"
     d="M 248.42085,120.97094 133.03085,5.5914392 c -3.3162,-3.3161 -8.7454,-3.3161 -12.058,0 L 5.58985,120.97094 c -3.3161,3.3162 -3.3161,8.7419 0,12.058 l 115.383,115.383 c 3.3126,3.3161 8.7418,3.3161 12.058,0 l 115.39,-115.383 c 3.3126,-3.3161 3.3126,-8.7418 0,-12.058"
     style="fill:#000000;fill-opacity:1;fill-rule:evenodd;stroke:none"
     id="path3211" />
  <path
     inkscape:connector-curvature="0"
     d="M 245.11885,124.26634 129.73585,8.8832392 c -1.5029,-1.4993 -3.9617,-1.4993 -5.4716,0 L 8.88825,124.26634 c -1.5028,1.5028 -1.5028,3.9652 0,5.4645 l 115.376,115.3795 c 1.5099,1.5064 3.9687,1.5064 5.4716,0 l 115.383,-115.3795 c 1.5099,-1.4993 1.5099,-3.9617 0,-5.4645"
     style="fill:#ffd033;fill-opacity:1;fill-rule:evenodd;stroke:none"
     id="path3215" />
  <path
     inkscape:connector-curvature="0"
     d="m 91.33595,94.245939 0,4.3815 c 0,11.694601 5.4857,23.241001 14.8414,30.328301 l 36.5266,27.6613 c 2.9351,2.2225 4.6849,5.6198 4.6849,9.2957 l 0,26.7653 26.9134,0 0,-26.7653 c 0,-7.0167 -1.9015,-14.0158 -5.5951,-19.9884 -2.2754,-3.6971 -5.1329,-7.179 -8.6077,-9.8142 l -37.1581,-28.187 c -1.7639,-1.3406 -3.2174,-3.108 -4.0111,-5.1894 -0.508,-1.337 -0.7832,-2.776301 -0.7832,-4.215701 l 0,-4.6884 17.8188,5.1294 c 0.2823,0.074 0.5645,0.1059 0.8396,0.1447 1.2595,0.1693 2.473,-0.1694 3.5208,-0.889 1.1218,-0.7797 1.9156,-1.9791 2.1625,-3.3162 0.2752,-1.4746 0.01,-2.8575 -0.8537,-4.064 l -36.8336,-51.7807 -33.535,51.9007 c -0.5398,0.8325 -0.8608,1.8838 -0.8537,2.8751 0,2.5294 1.8873,4.7308 4.3321,5.2458 0.896,0.1905 1.7568,0.053 2.6035,-0.2257 l 13.9876,-4.6038 z"
     style="fill:#000000;fill-opacity:1;fill-rule:evenodd;stroke:none"
     id="path3219" />
</svg>
