<?xml version="1.0" encoding="UTF-8" standalone="no"?>
<svg
   xmlns:dc="http://purl.org/dc/elements/1.1/"
   xmlns:cc="http://creativecommons.org/ns#"
   xmlns:rdf="http://www.w3.org/1999/02/22-rdf-syntax-ns#"
   xmlns:svg="http://www.w3.org/2000/svg"
   xmlns="http://www.w3.org/2000/svg"
   xmlns:sodipodi="http://sodipodi.sourceforge.net/DTD/sodipodi-0.dtd"
   xmlns:inkscape="http://www.inkscape.org/namespaces/inkscape"
   width="90.084061"
   height="89.999992"
   viewBox="0 0 254.23725 253.99997"
   version="1.1"
   id="svg2"
   inkscape:version="0.48.2 r9819"
   sodipodi:docname="AJAX1.svg">
  <metadata
     id="metadata62">
    <rdf:RDF>
      <cc:Work
         rdf:about="">
        <dc:format>image/svg+xml</dc:format>
        <dc:type
           rdf:resource="http://purl.org/dc/dcmitype/StillImage" />
      </cc:Work>
    </rdf:RDF>
  </metadata>
  <defs
     id="defs60" />
  <sodipodi:namedview
     pagecolor="#ffffff"
     bordercolor="#666666"
     borderopacity="1"
     objecttolerance="10"
     gridtolerance="10"
     guidetolerance="10"
     inkscape:pageopacity="0"
     inkscape:pageshadow="2"
     inkscape:window-width="1280"
     inkscape:window-height="1004"
     id="namedview58"
     showgrid="false"
     fit-margin-top="0"
     fit-margin-left="0"
     fit-margin-right="0"
     fit-margin-bottom="0"
     inkscape:zoom="6.6107689"
     inkscape:cx="27.527901"
     inkscape:cy="27.536083"
     inkscape:window-x="-8"
     inkscape:window-y="-8"
     inkscape:window-maximized="1"
     inkscape:current-layer="svg2" />
  <!-- draw the bicycle -->
  <!-- RIGHT -->
  <!-- LANE -->
  <!-- ONLY -->
  <path
     inkscape:connector-curvature="0"
     d="M 250.84268,118.77494 135.24098,3.3919397 c -4.5262,-4.5226 -11.9345,-4.5226 -16.4536,0 L 3.397275,118.77494 c -4.5297,4.5226 -4.5297,11.9239 0,16.4536 l 115.390105,115.3795 c 4.5191,4.5226 11.9274,4.5226 16.4536,0 l 115.6017,-115.3795 c 4.5261,-4.5297 4.5261,-11.931 0,-16.4536"
     style="fill:#ffd033;fill-opacity:1;fill-rule:nonzero;stroke:none"
     id="path3163" />
  <path
     inkscape:connector-curvature="0"
     d="M 248.65198,120.97104 133.04318,5.5914397 c -3.3232,-3.3161 -8.7454,-3.3161 -12.058,0 L 5.602175,120.97104 c -3.3232,3.3161 -3.3232,8.7418 0,12.0579 l 115.383005,115.383 c 3.3126,3.3161 8.7348,3.3161 12.058,0 l 115.6088,-115.383 c 3.3161,-3.3161 3.3161,-8.7418 0,-12.0579"
     style="fill:#000000;fill-opacity:1;fill-rule:evenodd;stroke:none"
     id="path3171" />
  <path
     inkscape:connector-curvature="0"
     d="M 245.35348,124.26634 129.74118,8.8832397 c -1.5029,-1.4993 -3.9617,-1.4993 -5.4646,0 L 8.893575,124.26634 c -1.5028,1.5028 -1.5028,3.9652 0,5.4645 l 115.383005,115.3795 c 1.5029,1.5064 3.9617,1.5064 5.4646,0 l 115.6123,-115.3795 c 1.4993,-1.4993 1.4993,-3.9617 0,-5.4645"
     style="fill:#ffd033;fill-opacity:1;fill-rule:evenodd;stroke:none"
     id="path3175" />
  <path
     inkscape:connector-curvature="0"
     d="m 150.20578,151.06754 0.042,40.3507 27.1604,0 -0.028,-55.0157 c 0,-10.1 -8.4209,-18.3938 -18.5703,-18.3938 l -34.484,0 c -3.6301,0 -6.5934,-2.9633 -6.5934,-6.5934 l 0.014,-22.1227 14.5238,4.3321 c 2.0109,0.5609 3.4996,0.7937 5.04479,-0.2575 2.21891,-1.5064 2.7975,-4.5438 1.28761,-6.7593 l -34.0254,-50.303 -34.078305,50.3026 c -1.5099,2.2154 -0.9314,5.2528 1.2806,6.7592 1.4816,1.0089 3.0197,0.8255 4.8436,0.3598 l 14.7673,-4.4344 0.021,36.7771 0,-0.074 c 0,10.0965 8.1492,18.3903 18.252805,18.4679 l 33.9337,0.01 c 3.63,0 6.6075,2.9633 6.6075,6.5934"
     style="fill:#000000;fill-opacity:1;fill-rule:evenodd;stroke:none"
     id="path3179" />
</svg>
