<?xml version="1.0" encoding="UTF-8" standalone="no"?>
<!-- Created with Inkscape (http://www.inkscape.org/) -->

<svg
   xmlns:dc="http://purl.org/dc/elements/1.1/"
   xmlns:cc="http://creativecommons.org/ns#"
   xmlns:rdf="http://www.w3.org/1999/02/22-rdf-syntax-ns#"
   xmlns:svg="http://www.w3.org/2000/svg"
   xmlns="http://www.w3.org/2000/svg"
   xmlns:sodipodi="http://sodipodi.sourceforge.net/DTD/sodipodi-0.dtd"
   xmlns:inkscape="http://www.inkscape.org/namespaces/inkscape"
   width="9730"
   height="4330"
   id="svg2934"
   version="1.1"
   inkscape:version="0.48.2 r9819"
   sodipodi:docname="MUTCD R3-1a.svg">
  <defs
     id="defs2936">
    <inkscape:perspective
       sodipodi:type="inkscape:persp3d"
       inkscape:vp_x="0 : 526.18109 : 1"
       inkscape:vp_y="0 : 1000 : 0"
       inkscape:vp_z="744.09448 : 526.18109 : 1"
       inkscape:persp3d-origin="372.04724 : 350.78739 : 1"
       id="perspective2942" />
    <inkscape:perspective
       id="perspective2924"
       inkscape:persp3d-origin="0.5 : 0.33333333 : 1"
       inkscape:vp_z="1 : 0.5 : 1"
       inkscape:vp_y="0 : 1000 : 0"
       inkscape:vp_x="0 : 0.5 : 1"
       sodipodi:type="inkscape:persp3d" />
  </defs>
  <sodipodi:namedview
     id="base"
     pagecolor="#ffffff"
     bordercolor="#666666"
     borderopacity="1.0"
     inkscape:pageopacity="0.0"
     inkscape:pageshadow="2"
     inkscape:zoom="0.15070591"
     inkscape:cx="832.12132"
     inkscape:cy="1886.1479"
     inkscape:document-units="px"
     inkscape:current-layer="g3018"
     showgrid="false"
     inkscape:window-width="1280"
     inkscape:window-height="1004"
     inkscape:window-x="-8"
     inkscape:window-y="-8"
     inkscape:window-maximized="1"
     fit-margin-top="0"
     fit-margin-left="0"
     fit-margin-right="0"
     fit-margin-bottom="0" />
  <metadata
     id="metadata2939">
    <rdf:RDF>
      <cc:Work
         rdf:about="">
        <dc:format>image/svg+xml</dc:format>
        <dc:type
           rdf:resource="http://purl.org/dc/dcmitype/StillImage" />
        <dc:title></dc:title>
      </cc:Work>
    </rdf:RDF>
  </metadata>
  <g
     inkscape:label="Ebene 1"
     inkscape:groupmode="layer"
     id="layer1"
     transform="translate(-55.40625,3750.5938)">
    <g
       id="g3018"
       transform="translate(2,-2)">
      <path
         inkscape:connector-curvature="0"
         style="fill:#ffffff;fill-rule:nonzero;stroke:#000000;stroke-width:10;stroke-linecap:butt;stroke-linejoin:miter;stroke-miterlimit:4;stroke-opacity:1;stroke-dasharray:none"
         d="m 9778.4075,306.40644 c 0,148.5 -121.5,270 -270,270 l -9180.00003,0 c -148.49975,0 -269.999999,-121.5 -269.999999,-270 l 0,-3780.00004 c 0,-148.4997 121.500249,-270 269.999999,-270 l 9180.00003,0 c 148.5,0 270,121.5003 270,270 l 0,3780.00004 z"
         id="path11" />
      <path
         inkscape:connector-curvature="0"
         style="fill:#000000;fill-rule:nonzero;stroke:none"
         d="m 9508.4075,-3676.0936 -9180.00003,0 c -111.375,0 -202.5,91.125 -202.5,202.5 l 0,3780.00004 c 0,111.375 91.125,202.5 202.5,202.5 l 9180.00003,0 c 111.375,0 202.5,-91.125 202.5,-202.5 l 0,-3780.00004 c 0,-111.375 -91.125,-202.5 -202.5,-202.5 z m 0,112.5 c 49.5,0 90,40.5 90,90 l 0,2581.87504 -3091.9,0 0,-2671.87504 3001.9,0 z m -3058.15,0 0,2671.87504 -3063.7,0 0,-2671.87504 3063.7,0 z m -6121.85003,0 3001.90003,0 0,2671.87504 -3091.90003,0 0,-2581.87504 c 0,-49.5 40.49875,-90 90,-90 z m 0,3960.00004 c -49.50125,0 -90,-40.5 -90,-90 l 0,-1141.875 3091.90003,0 0,1231.875 -3001.90003,0 z m 3058.15003,0 0,-1231.875 3063.7,0 0,1231.875 -3063.7,0 z m 6121.85,0 -3001.9,0 0,-1231.875 3091.9,0 0,1141.875 c 0,49.5 -40.5,90 -90,90 z"
         id="path13" />
      <path
         inkscape:connector-curvature="0"
         style="fill:#c00027;fill-rule:nonzero;stroke:none"
         d="m 2768.9637,-2961.3598 -222.7249,-222.7375 -747.7688,747.7663 -747.7688,-747.7663 -222.73748,222.7375 747.76878,747.7663 -747.76878,747.7587 222.73878,222.7375 747.7675,-747.7587 747.7688,747.7587 222.7249,-222.7375 -747.7562,-747.7587 747.7562,-747.7663 z"
         id="path27" />
      <path
         inkscape:connector-curvature="0"
         style="fill:#000000;fill-rule:nonzero;stroke:none"
         d="m 8686.3825,-2943.3198 c -5.0625,-6.835 -12.2,-12.235 -20.8875,-15.1375 -22.5,-7.515 -46.825,4.635 -54.3375,27.1363 -1.4125,4.2212 -2.125,8.5025 -2.225,12.73 l -4.075,132.355 -182.3,-61.1475 c -160.9875,-54.6525 -276.825,-207.0538 -276.825,-386.5063 l 0,-257.7325 -214.775,0 0,260.5588 0.037,0 c 1.2125,273.8825 179.175,506.0212 425.725,588.2012 l 180.1,60.3425 -76.275,108.2388 c -2.4625,3.4375 -4.475,7.2875 -5.875,11.5125 -7.5125,22.5 4.625,46.8375 27.1375,54.35 8.675,2.9 17.6375,2.875 25.7875,0.45 l 475.7625,-138.6363 -296.975,-396.715 z"
         id="path15" />
      <path
         inkscape:connector-curvature="0"
         style="fill:#000000;fill-rule:nonzero;stroke:none"
         d="m 7390.3075,-2407.6185 c 5.0625,6.825 12.2,12.2375 20.8875,15.125 22.5,7.525 46.8375,-4.625 54.35,-27.125 1.4125,-4.225 2.125,-8.5125 2.2125,-12.7375 l 4.075,-132.35 182.3125,61.1487 c 160.975,54.6513 276.8125,207.0513 276.8125,386.5138 l 0,257.725 214.775,0 0,-260.5625 -0.025,0 c -1.2125,-273.875 -179.1875,-506.02 -425.7375,-588.1963 l -180.0875,-60.345 76.2625,-108.2425 c 2.475,-3.4312 4.475,-7.2862 5.875,-11.505 7.525,-22.5025 -4.625,-46.835 -27.125,-54.3512 -8.6875,-2.9 -17.6375,-2.8725 -25.8,-0.4513 l -475.7625,138.6363 296.975,396.7175 z"
         id="path17" />
      <path
         inkscape:connector-curvature="0"
         style="fill:#000000;fill-rule:nonzero;stroke:none"
         d="m 7491.595,-1096.1936 c -29.7875,38.9375 -70.25,58.025 -124.475,58.025 -72.55,0 -116.8375,-29.0125 -148.15,-92.4 -21.3875,-43.5249 -36.65,-112.25 -36.65,-173.3374 0,-85.5376 21.375,-161.9001 56.5,-210.0126 29.7875,-40.4625 72.55,-58.0375 132.1125,-58.0375 142.8125,0 177.175,152.7376 177.175,268.0501 0,80.9499 -20.625,161.8874 -56.5125,207.7124 z m -120.6625,-392.525 c -45.8125,0 -67.2,18.325 -85.525,63.3875 -12.2125,30.5501 -19.85,77.8875 -19.85,121.4251 0,54.2124 11.45,109.9624 31.3,142.7999 16.05,26.725 37.425,39.7001 70.2625,39.7001 38.1875,0 61.85,-19.8501 79.425,-64.9001 10.6875,-27.5 19.85,-77.9 19.85,-117.5999 0,-59.5751 -12.9875,-184.8126 -95.4625,-184.8126 z"
         id="path19" />
      <path
         inkscape:connector-curvature="0"
         style="fill:#000000;fill-rule:nonzero;stroke:none"
         d="m 7941.3825,-1047.3311 -197.025,-348.9874 0,348.9874 -81.7125,0 0,-515.4499 81.7125,0 187.85,329.125 0,-329.125 80.95,0 0,515.4499 -71.775,0 z"
         id="path21" />
      <path
         inkscape:connector-curvature="0"
         style="fill:#000000;fill-rule:nonzero;stroke:none"
         d="m 8138.395,-1047.3311 0,-515.4499 81.7125,0 0,439.8625 238.25,0 0,75.5874 -319.9625,0 z"
         id="path23" />
      <path
         inkscape:connector-curvature="0"
         style="fill:#000000;fill-rule:nonzero;stroke:none"
         d="m 8722.57,-1271.8435 0,224.5124 -81.7125,0 0,-224.5124 -180.975,-290.9375 97.75,0 122.9375,198.5374 125.2375,-198.5374 95.4625,0 -178.7,290.9375 z"
         id="path25" />
      <path
         inkscape:connector-curvature="0"
         style="fill:#000000;fill-rule:nonzero;stroke:none"
         d="m 5626.5575,-2890.8973 -317.95,-458.9462 -317.9625,458.9462 c -5.4875,7.8513 -8.7125,17.41 -8.7125,27.7225 0,26.73 21.6625,48.3963 48.3875,48.3963 5.0125,0 9.85,-0.7613 14.4,-2.175 l 142.8875,-42.8788 0,590.0513 c -33.7875,-44.35 -70.6125,-86.2625 -110.2,-125.3875 -111.675,-110.385 -287.575,-254.7788 -403.9875,-327.82 l 116.525,-93.165 c 3.75,-2.935 7.125,-6.4788 9.975,-10.6013 15.2,-21.9875 9.6875,-52.13 -12.2875,-67.3312 -8.4875,-5.8625 -18.1875,-8.645 -27.775,-8.5888 l -558.3125,0.5913 196.7375,522.515 c 3.3375,8.975 9.3625,17.0749 17.8375,22.9375 21.9875,15.1999 52.1375,9.6875 67.3375,-12.3001 2.85,-4.1249 4.975,-8.5249 6.3875,-13.0749 l 45.9875,-141.9263 c 114.625,75.3638 268.925,199.8013 370.4625,299.8763 173.6625,171.15 281.3125,409.0875 281.3125,672.175 l 0,446.4625 241.9875,0 0,-1754.4138 142.8875,42.8788 c 4.55,1.4137 9.3875,2.1749 14.4,2.1749 26.725,0 48.3875,-21.6662 48.3875,-48.3962 0,-10.3125 -3.225,-19.8713 -8.7125,-27.7225 z"
         id="path29" />
      <path
         inkscape:connector-curvature="0"
         style="fill:#000000;fill-rule:nonzero;stroke:none"
         d="m 1001.6112,126.43154 -82.13873,0 c 6.53375,-229.625 44.8025,-397.625 121.34253,-547.9126 l -189.48003,0 0,-82.1375 271.61753,0 0,82.1375 c -84.0038,169.8876 -114.8063,311.7626 -121.3413,547.9126 z"
         id="path31" />
      <path
         inkscape:connector-curvature="0"
         style="fill:#000000;fill-rule:nonzero;stroke:none"
         d="m 1154.6888,-147.99356 0,-81.1999 196.9437,0 0,81.1999 -196.9437,0 z"
         id="path33" />
      <path
         inkscape:connector-curvature="0"
         style="fill:#000000;fill-rule:nonzero;stroke:none"
         d="m 1464.57,137.63144 -43.875,-69.074896 c 70.95,-59.7375999 117.6125,-118.5375 150.2875,-200.675104 0,0 -3.7375,1.8626 -15.875,1.8626 -39.2,0 -77.4625,-16.8001 -100.8,-48.5375 -20.5375,-26.1376 -33.6125,-84 -33.6125,-140.9375 0,-75.6125 16.8125,-136.275 48.55,-164.2875 23.325,-20.5376 53.2,-30.8 88.6625,-30.8 85.875,0 132.55,66.275 132.55,187.6125 0,188.55 -75.6125,342.562504 -225.8875,464.8374 z m 129.75,-545.0999 c -12.1375,-19.6125 -24.275,-25.2126 -39.2125,-25.2126 -37.325,0 -52.2625,37.3376 -52.2625,121.3501 0,68.1375 17.725,99.875 52.2625,99.875 38.275,0 53.2125,-33.6125 53.2125,-108.275 0,-34.5375 -0.9375,-69.0751 -14,-87.7375 z"
         id="path35" />
      <path
         inkscape:connector-curvature="0"
         style="fill:#000000;fill-rule:nonzero;stroke:none"
         d="m 2262.095,126.43154 -35.4625,-168.012596 -103.6125,0 -35.475,168.012596 -82.1375,0 128.8125,-630.0501 81.2125,0 130.675,630.0501 -84.0125,0 z m -85.875,-415.3626 -35.4625,165.2126 68.1375,0 -32.675,-165.2126 z"
         id="path37" />
      <path
         inkscape:connector-curvature="0"
         style="fill:#000000;fill-rule:nonzero;stroke:none"
         d="m 2666.2575,126.43154 0,-373.3626 -75.6,236.150104 -76.5375,-236.150104 0,373.3626 -80.275,0 0,-630.0501 80.275,0 76.5375,223.0876 75.6,-223.0876 79.3375,0 0,630.0501 -79.3375,0 z"
         id="path39" />
      <path
         inkscape:connector-curvature="0"
         style="fill:#000000;fill-rule:nonzero;stroke:none"
         d="m 4265.295,-30.380956 0,156.812496 -79.3375,0 0,-156.812496 -198.8125,0 0,-84.012604 192.275,-389.225 85.875,0 0,397.625 33.6125,0 0,75.612604 -33.6125,0 z m -79.3375,-321.087504 -119.475,245.4749 119.475,0 0,-245.4749 z"
         id="path41" />
      <path
         inkscape:connector-curvature="0"
         style="fill:#000000;fill-rule:nonzero;stroke:none"
         d="m 4339.97,-147.99356 0,-81.1999 196.95,0 0,81.1999 -196.95,0 z"
         id="path43" />
      <path
         inkscape:connector-curvature="0"
         style="fill:#000000;fill-rule:nonzero;stroke:none"
         d="m 4725.4575,137.63144 c -85.875,0 -132.5375,-66.274896 -132.5375,-187.612396 0,-188.550004 75.6,-345.362504 225.875,-464.837504 l 43.875,69.0749 c -70.9375,56.9375 -116.675,118.5376 -150.275,200.6751 48.5375,-14.9251 90.5375,4.675 114.8125,43.875 19.5875,31.7375 35.4625,86.8 35.4625,143.737504 0,96.1499 -28,195.087396 -137.2125,195.087396 z m 2.8,-303.3499 c -38.2625,0 -53.2,33.5999 -53.2,108.262504 0,46.675 4.6625,77.475 17.7375,93.35 9.325,11.2 22.4,19.6 35.4625,19.6 17.7375,0 30.8,-8.4 39.2,-24.275 6.5375,-14.9375 14.0125,-59.7375 14.0125,-98.9375 0,-66.275004 -17.7375,-98.000004 -53.2125,-98.000004 z"
         id="path45" />
      <path
         inkscape:connector-curvature="0"
         style="fill:#000000;fill-rule:nonzero;stroke:none"
         d="m 5301.77,-147.99356 -43.8625,0 0,274.4251 -80.275,0 0,-630.0501 124.1375,0 c 35.475,0 68.1375,9.3376 88.675,26.1375 34.5375,29.8625 59.7375,88.675 59.7375,157.75 0,103.6001 -59.7375,171.7375 -148.4125,171.7375 z m 0,-273.4875 -43.8625,0 0,192.2876 43.8625,0 c 48.5375,0 66.275,-24.275 66.275,-90.5376 0,-70.9375 -22.4,-101.75 -66.275,-101.75 z"
         id="path47" />
      <path
         inkscape:connector-curvature="0"
         style="fill:#000000;fill-rule:nonzero;stroke:none"
         d="m 5770.3325,126.43154 0,-373.3626 -75.6125,236.150104 -76.5375,-236.150104 0,373.3626 -80.275,0 0,-630.0501 80.275,0 76.5375,223.0876 75.6125,-223.0876 79.3375,0 0,630.0501 -79.3375,0 z"
         id="path49" />
      <path
         inkscape:connector-curvature="0"
         style="fill:#000000;fill-rule:nonzero;stroke:none"
         d="m 7430.0575,-295.48096 c -92.875,0 -133.9375,-84 -133.9375,-163.8125 0,-100.3375 50.8625,-162.4 133.9375,-162.4 77.4625,0 130.675,65.3375 130.675,161.475 0,98.4749 -50.875,164.7375 -130.675,164.7375 z m 0,-269.75 c -47.6,0 -76.075,39.6749 -76.075,105.9375 0,67.6749 28.475,107.35 76.075,107.35 59.7375,0 74.2,-58.3375 74.2,-107.35 0,-66.2626 -26.6,-105.9375 -74.2,-105.9375 z"
         id="path51" />
      <path
         inkscape:connector-curvature="0"
         style="fill:#000000;fill-rule:nonzero;stroke:none"
         d="m 7748.27,-561.03096 0,259.9499 -55.5375,0 0,-259.9499 -90.5375,0 0,-55.0625 236.6125,0 0,55.0625 -90.5375,0 z"
         id="path53" />
      <path
         inkscape:connector-curvature="0"
         style="fill:#000000;fill-rule:nonzero;stroke:none"
         d="m 8090.345,-301.08106 0,-137.1999 -141.4,0 0,137.1999 -56.475,0 0,-315.0124 56.475,0 0,121.8 141.4,0 0,-121.8 56.0125,0 0,315.0124 -56.0125,0 z"
         id="path55" />
      <path
         inkscape:connector-curvature="0"
         style="fill:#000000;fill-rule:nonzero;stroke:none"
         d="m 8228.4825,-301.08106 0,-315.0124 229.6125,0 0,56.4625 -172.2,0 0,58.3375 93.8,0 0,57.875 -93.8,0 0,85.8624 177.8,0 0,56.475 -235.2125,0 z"
         id="path57" />
      <path
         inkscape:connector-curvature="0"
         style="fill:#000000;fill-rule:nonzero;stroke:none"
         d="m 8717.5825,-301.08106 -50.4125,-123.6749 -84,0 0,123.6749 -56.475,0 0,-315.0124 149.35,0 c 53.2,0 98,41.0625 98,96.1374 0,35.4625 -18.6625,66.2626 -50.875,84 l 57.4125,134.875 -63,0 z m -45.275,-258.5499 -89.1375,0 0,78.4125 89.1375,0 c 28,0 45.275,-15.4001 45.275,-38.7376 0,-24.2749 -17.275,-39.6749 -45.275,-39.6749 z"
         id="path59" />
      <path
         inkscape:connector-curvature="0"
         style="fill:#000000;fill-rule:nonzero;stroke:none"
         d="m 7516.1575,-43.543556 0,259.950096 -55.5375,0 0,-259.950096 -90.5375,0 0,-55.075 236.6125,0 0,55.075 -90.5375,0 z"
         id="path61" />
      <path
         inkscape:connector-curvature="0"
         style="fill:#000000;fill-rule:nonzero;stroke:none"
         d="m 7660.3575,216.40654 0,-315.025096 56.475,0 0,315.025096 -56.475,0 z"
         id="path63" />
      <path
         inkscape:connector-curvature="0"
         style="fill:#000000;fill-rule:nonzero;stroke:none"
         d="m 8038.37,216.40654 0,-192.275096 -92.8625,192.275096 -91.9375,-192.275096 0,192.275096 -55.075,0 0,-315.025096 55.075,0 91.9375,186.6875 92.8625,-186.6875 55.075,0 0,315.025096 -55.075,0 z"
         id="path65" />
      <path
         inkscape:connector-curvature="0"
         style="fill:#000000;fill-rule:nonzero;stroke:none"
         d="m 8173.17,216.40654 0,-315.025096 229.6125,0 0,56.475 -172.2125,0 0,58.3375 93.8125,0 0,57.875 -93.8125,0 0,85.862596 177.8125,0 0,56.475 -235.2125,0 z"
         id="path67" />
      <path
         inkscape:connector-curvature="0"
         style="fill:#000000;fill-rule:nonzero;stroke:none"
         d="m 8582.92,219.66904 c -54.125,0 -95.2,-20.0625 -130.675,-60.6626 l 45.275,-35.4749 c 23.3375,27.5374 49,39.6624 84,39.6624 40.1375,0 68.6,-17.7249 68.6,-40.5999 0,-12.125 -6.525,-22.862496 -19.5875,-28.924996 -41.075,-18.675 -115.275,-22.4126 -143.75,-55.075 -13.0625,-14.9375 -20.0625,-33.1374999 -20.0625,-53.2 0,-51.8 44.3375,-87.275004 108.2625,-87.275004 46.675,0 85.4125,15.400004 117.15,48.537504 l -42.0125,37.8 c -19.5875,-21 -45.2625,-31.2626 -75.1375,-31.2626 -32.2,0 -50.8625,12.125 -50.8625,32.2001 0,17.7374001 11.2,26.1375 49.9375,34.0625 57.4,12.1375 132.5375,24.7374 132.5375,105.012496 0,65.3375 -67.2,95.2 -123.675,95.2 z"
         id="path69" />
    </g>
  </g>
</svg>
