<?xml version="1.0" encoding="UTF-8" standalone="no"?>
<!-- Generator: Adobe Illustrator 12.0.1, SVG Export Plug-In  -->

<svg
   xmlns:dc="http://purl.org/dc/elements/1.1/"
   xmlns:cc="http://creativecommons.org/ns#"
   xmlns:rdf="http://www.w3.org/1999/02/22-rdf-syntax-ns#"
   xmlns:svg="http://www.w3.org/2000/svg"
   xmlns="http://www.w3.org/2000/svg"
   xmlns:sodipodi="http://sodipodi.sourceforge.net/DTD/sodipodi-0.dtd"
   xmlns:inkscape="http://www.inkscape.org/namespaces/inkscape"
   version="1.1"
   width="286.66125"
   height="286.66476"
   viewBox="-1 0 286.66125 286.66476"
   enable-background="new -1 0 289 288"
   xml:space="preserve"
   id="svg2"
   inkscape:version="0.48.2 r9819"
   sodipodi:docname="AJAX1.svg"><metadata
   id="metadata64"><rdf:RDF><cc:Work
       rdf:about=""><dc:format>image/svg+xml</dc:format><dc:type
         rdf:resource="http://purl.org/dc/dcmitype/StillImage" /></cc:Work></rdf:RDF></metadata><sodipodi:namedview
   pagecolor="#ffffff"
   bordercolor="#666666"
   borderopacity="1"
   objecttolerance="10"
   gridtolerance="10"
   guidetolerance="10"
   inkscape:pageopacity="0"
   inkscape:pageshadow="2"
   inkscape:window-width="1280"
   inkscape:window-height="1004"
   id="namedview62"
   showgrid="false"
   fit-margin-top="0"
   fit-margin-left="0"
   fit-margin-right="0"
   fit-margin-bottom="0"
   inkscape:zoom="1.6388889"
   inkscape:cx="52.726895"
   inkscape:cy="127.18387"
   inkscape:window-x="-8"
   inkscape:window-y="-8"
   inkscape:window-maximized="1"
   inkscape:current-layer="svg2" />
<defs
   id="defs4">
</defs>
<path
   d="M 3.0987498,133.3875 132.37975,4.1055 c 5.471,-5.474 14.421,-5.474 19.895,0 l 129.284,129.282 c 5.47,5.471 5.47,14.423 0,19.889 l -129.284,129.285 c -5.474,5.471 -14.424,5.471 -19.895,0 L 3.0987498,153.2755 c -5.465,-5.465 -5.465,-14.418 0,-19.888 z"
   id="path6"
   style="fill:#ffd033;stroke:none;fill-opacity:1"
   inkscape:connector-curvature="0" />

<path
   clip-rule="evenodd"
   d="M 6.2217498,135.4405 134.44075,7.2205 c 4.339,-4.339 11.442,-4.339 15.785,0 l 128.215,128.22 c 4.343,4.343 4.343,11.438 0,15.777 l -128.215,128.224 c -4.343,4.336 -11.446,4.336 -15.785,0 L 6.2217498,151.2175 c -4.339,-4.339 -4.339,-11.435 0,-15.777"
   id="path10"
   inkscape:connector-curvature="0"
   style="fill-rule:evenodd;stroke:none;fill:#000000" />
<path
   clip-rule="evenodd"
   d="m 10.22475,139.3905 128.162,-128.162 c 2.162,-2.169 5.724,-2.169 7.889,0 l 128.16,128.162 c 2.166,2.166 2.166,5.716 0,7.883 l -128.16,128.161 c -2.165,2.168 -5.727,2.168 -7.889,0 l -128.162,-128.161 c -2.1660002,-2.167 -2.1660002,-5.717 0,-7.883"
   id="path12"
   inkscape:connector-curvature="0"
   style="fill:#ffd033;fill-rule:evenodd;stroke:none;fill-opacity:1" />
<path
   d="m 100.62475,159.7505 c -0.96,0.88 -2.28,1.24 -3.76,1.24 h -7.44 v -26.8 h 6.84 c 2.28,0 3.4,0.28 4.36,1.04 1.601,1.12 2.721,3.2 3.2,5.92 0.36,1.96 0.64,4.321 0.64,6.4 0,6.2 -1.24,10.16 -3.84,12.2 z m -0.68,-19.081 c -0.64,-1.88 -1.76,-2.72 -3.48,-2.72 h -3.2 v 19.281 h 3.2 c 2.28,0 3.48,-1.8 3.88,-3.84 0.16,-1.721 0.36,-3.601 0.36,-5.641 0,-3.039 -0.28,-5.959 -0.76,-7.08 z"
   id="path14"
   inkscape:connector-curvature="0"
   style="stroke:none;fill:#000000" />
<path
   d="m 123.74475,157.7105 c -1.319,2.16 -3.84,3.761 -6.399,3.761 -2.641,0 -5.24,-1.521 -6.561,-3.761 -0.76,-1.439 -1.04,-2.56 -1.04,-4.72 v -18.8 h 3.84 v 19.281 c 0,2.52 1.521,4.239 3.761,4.239 2.08,0 3.6,-1.72 3.6,-4.239 v -19.281 h 3.84 v 18.8 c -10e-4,2.16 -0.28,3.281 -1.041,4.72 z"
   id="path16"
   inkscape:connector-curvature="0"
   style="stroke:none;fill:#000000" />
<path
   d="m 141.70475,160.9905 -3.56,-12.6 h -3.681 v 12.6 h -3.84 v -26.8 h 8 c 4.2,0 7.041,2.84 7.041,7.16 0,3.2 -1.32,5.52 -3.84,6.48 l 3.84,13.16 h -3.96 z m -3.279,-23.04 h -3.961 v 6.76 h 3.961 c 2.239,0 3.479,-1.201 3.479,-3.36 0,-2.08 -1.4,-3.4 -3.479,-3.4 z"
   id="path18"
   inkscape:connector-curvature="0"
   style="stroke:none;fill:#000000" />
<path
   d="m 150.18475,160.9905 v -26.8 h 3.76 v 26.8 h -3.76 z"
   id="path20"
   inkscape:connector-curvature="0"
   style="stroke:none;fill:#000000" />
<path
   d="m 171.98575,160.9905 -8.279,-17.96 v 17.96 h -3.84 v -26.8 h 3.84 l 7.359,16.081 v -16.081 h 3.84 v 26.8 h -2.92 z"
   id="path22"
   inkscape:connector-curvature="0"
   style="stroke:none;fill:#000000" />
<path
   d="m 194.46575,157.7105 c -1.039,2.32 -3.199,3.761 -5.92,3.761 -3.199,0 -5.561,-1.601 -6.881,-4.601 -0.84,-2 -1.398,-5.76 -1.398,-9.24 0,-3.76 0.279,-6.48 1.238,-9.041 0.922,-2.8 3.641,-4.88 6.762,-4.88 3.84,0 6.76,2.84 6.959,6.8 h -3.84 c -0.119,-1.8 -1.32,-3.039 -3.199,-3.039 -1.32,0 -2.361,0.68 -3.041,2 -0.719,1.319 -1.199,4.319 -1.199,7.52 0,2.24 0.199,4.6 0.559,6.68 0.561,2.601 1.881,4.04 3.961,4.04 1.961,0 2.92,-1.319 2.92,-4.16 v -1.76 h -3.039 v -3.76 h 6.879 v 5.52 c -0.001,1.881 -0.2,3.04 -0.761,4.16 z"
   id="path24"
   inkscape:connector-curvature="0"
   style="stroke:none;fill:#000000" />
<path
   d="m 84.70475,204.6325 v -12.12 h -7.36 v 12.12 h -3.84 v -26.801 h 3.84 v 10.921 h 7.36 v -10.921 h 3.84 v 26.801 h -3.84 z"
   id="path26"
   inkscape:connector-curvature="0"
   style="stroke:none;fill:#000000" />
<path
   d="m 94.38475,204.6325 v -26.801 h 3.76 v 26.801 h -3.76 z"
   id="path28"
   inkscape:connector-curvature="0"
   style="stroke:none;fill:#000000" />
<path
   d="m 117.78475,201.3525 c -1.04,2.32 -3.2,3.761 -5.92,3.761 -3.2,0 -5.561,-1.601 -6.881,-4.601 -0.84,-2 -1.399,-5.76 -1.399,-9.24 0,-3.76 0.279,-6.479 1.239,-9.041 0.92,-2.8 3.641,-4.88 6.761,-4.88 3.84,0 6.76,2.84 6.96,6.801 h -3.84 c -0.12,-1.801 -1.32,-3.04 -3.2,-3.04 -1.32,0 -2.36,0.68 -3.04,2 -0.72,1.319 -1.2,4.32 -1.2,7.521 0,2.24 0.2,4.6 0.56,6.68 0.561,2.601 1.881,4.04 3.961,4.04 1.96,0 2.92,-1.319 2.92,-4.16 v -1.76 h -3.04 v -3.76 h 6.88 v 5.52 c -0.001,1.879 -0.201,3.039 -0.761,4.159 z"
   id="path30"
   inkscape:connector-curvature="0"
   style="stroke:none;fill:#000000" />
<path
   d="m 135.10475,204.6325 v -12.12 h -7.36 v 12.12 h -3.84 v -26.801 h 3.84 v 10.921 h 7.36 v -10.921 h 3.84 v 26.801 h -3.84 z"
   id="path32"
   inkscape:connector-curvature="0"
   style="stroke:none;fill:#000000" />
<path
   d="m 158.94675,181.3915 v 23.241 h -3.881 v -23.241 h -4.881 v -3.56 h 13.64 v 3.56 h -4.878 z"
   id="path34"
   inkscape:connector-curvature="0"
   style="stroke:none;fill:#000000" />
<path
   d="m 167.50475,204.6325 v -26.801 h 3.76 v 26.801 h -3.76 z"
   id="path36"
   inkscape:connector-curvature="0"
   style="stroke:none;fill:#000000" />
<path
   d="m 188.38575,203.3925 c -0.961,0.88 -2.281,1.24 -3.76,1.24 h -7.441 v -26.801 h 6.84 c 2.281,0 3.4,0.28 4.361,1.04 1.6,1.12 2.721,3.2 3.199,5.921 0.361,1.96 0.641,4.32 0.641,6.399 0,6.201 -1.24,10.161 -3.84,12.201 z m -0.68,-19.081 c -0.641,-1.88 -1.76,-2.72 -3.48,-2.72 h -3.201 v 19.281 h 3.201 c 2.279,0 3.48,-1.8 3.879,-3.84 0.16,-1.721 0.361,-3.601 0.361,-5.641 0,-3.039 -0.281,-5.959 -0.76,-7.08 z"
   id="path38"
   inkscape:connector-curvature="0"
   style="stroke:none;fill:#000000" />
<path
   d="m 197.50475,204.6325 v -26.801 h 12.602 v 3.76 h -8.762 v 6.761 h 5.561 v 3.681 h -5.561 v 8.84 h 9.801 v 3.76 h -13.641 z"
   id="path40"
   inkscape:connector-curvature="0"
   style="stroke:none;fill:#000000" />
<path
   d="m 119.44575,74.4205 -3.56,-12.6 h -3.68 v 12.6 h -3.84 v -26.8 h 8 c 4.2,0 7.04,2.84 7.04,7.16 0,3.2 -1.319,5.52 -3.84,6.48 l 3.84,13.16 h -3.96 z m -3.281,-23.041 h -3.96 v 6.76 h 3.96 c 2.24,0 3.48,-1.201 3.48,-3.36 0,-2.079 -1.4,-3.4 -3.48,-3.4 z"
   id="path42"
   inkscape:connector-curvature="0"
   style="stroke:none;fill:#000000" />
<path
   d="m 139.64575,70.3005 c -1.32,3.16 -3.28,4.601 -6.28,4.601 -3.2,0 -5.08,-1.44 -6.4,-4.601 -1.12,-2.64 -1.52,-5.2 -1.52,-9.32 0,-4.041 0.399,-6.76 1.52,-9.32 1.4,-3.2 3.28,-4.521 6.4,-4.521 3.08,0 4.96,1.32 6.28,4.601 1.12,2.64 1.52,5.199 1.52,9.24 0,4.12 -0.4,6.76 -1.52,9.32 z m -3,-16.001 c -0.681,-2.359 -1.681,-3.399 -3.28,-3.399 -1.72,0 -2.76,1.04 -3.4,3.319 -0.64,2.04 -0.84,3.84 -0.84,6.84 0,2.92 0.28,4.601 0.84,6.761 0.641,2.279 1.681,3.319 3.4,3.319 1.6,0 2.6,-1.04 3.28,-3.319 0.64,-2.16 0.84,-3.761 0.84,-6.841 0,-2.999 -0.28,-4.72 -0.84,-6.68 z"
   id="path44"
   inkscape:connector-curvature="0"
   style="stroke:none;fill:#000000" />
<path
   d="m 155.72575,74.4205 -1.879,-7.32 h -5.76 l -1.762,7.32 h -3.879 l 6.68,-26.8 h 3.76 l 6.68,26.8 h -3.84 z m -4.799,-18.8 -1.881,7.72 h 3.84 l -1.959,-7.72 z"
   id="path46"
   inkscape:connector-curvature="0"
   style="stroke:none;fill:#000000" />
<path
   d="m 172.44675,73.1805 c -0.961,0.88 -2.281,1.24 -3.76,1.24 h -7.441 v -26.8 h 6.84 c 2.281,0 3.4,0.28 4.361,1.04 1.6,1.12 2.721,3.2 3.199,5.92 0.361,1.96 0.641,4.321 0.641,6.4 -0.001,6.2 -1.241,10.16 -3.84,12.2 z m -0.68,-19.081 c -0.641,-1.88 -1.76,-2.72 -3.48,-2.72 h -3.201 v 19.281 h 3.201 c 2.279,0 3.48,-1.8 3.879,-3.84 0.16,-1.721 0.361,-3.601 0.361,-5.641 0,-3.039 -0.282,-5.96 -0.76,-7.08 z"
   id="path48"
   inkscape:connector-curvature="0"
   style="stroke:none;fill:#000000" />
<path
   d="m 91.18375,94.9415 v 6.76 h 5.36 v 3.681 h -5.36 v 12.6 h -3.84 v -26.8 h 13.641 v 3.76 h -9.801 z"
   id="path50"
   inkscape:connector-curvature="0"
   style="stroke:none;fill:#000000" />
<path
   d="m 104.74375,117.9825 v -26.8 h 3.84 v 23.241 h 9.801 v 3.56 h -13.641 z"
   id="path52"
   inkscape:connector-curvature="0"
   style="stroke:none;fill:#000000" />
<path
   d="m 135.86575,113.8615 c -1.32,3.16 -3.28,4.601 -6.28,4.601 -3.2,0 -5.08,-1.44 -6.4,-4.601 -1.12,-2.64 -1.52,-5.2 -1.52,-9.32 0,-4.041 0.399,-6.76 1.52,-9.32 1.4,-3.2 3.28,-4.521 6.4,-4.521 3.08,0 4.96,1.32 6.28,4.601 1.12,2.64 1.52,5.199 1.52,9.24 -0.001,4.12 -0.4,6.761 -1.52,9.32 z m -3,-16 c -0.681,-2.359 -1.681,-3.399 -3.28,-3.399 -1.72,0 -2.76,1.04 -3.4,3.319 -0.64,2.04 -0.84,3.84 -0.84,6.84 0,2.92 0.28,4.601 0.84,6.761 0.641,2.279 1.681,3.319 3.4,3.319 1.6,0 2.6,-1.04 3.28,-3.319 0.64,-2.16 0.84,-3.761 0.84,-6.841 -0.001,-3 -0.281,-4.72 -0.84,-6.68 z"
   id="path54"
   inkscape:connector-curvature="0"
   style="stroke:none;fill:#000000" />
<path
   d="m 156.46575,113.8615 c -1.32,3.16 -3.28,4.601 -6.28,4.601 -3.2,0 -5.08,-1.44 -6.4,-4.601 -1.12,-2.64 -1.52,-5.2 -1.52,-9.32 0,-4.041 0.399,-6.76 1.52,-9.32 1.4,-3.2 3.28,-4.521 6.4,-4.521 3.08,0 4.96,1.32 6.28,4.601 1.12,2.64 1.52,5.199 1.52,9.24 0,4.12 -0.4,6.761 -1.52,9.32 z m -3,-16 c -0.681,-2.359 -1.681,-3.399 -3.28,-3.399 -1.72,0 -2.76,1.04 -3.4,3.319 -0.64,2.04 -0.84,3.84 -0.84,6.84 0,2.92 0.28,4.601 0.84,6.761 0.641,2.279 1.681,3.319 3.4,3.319 1.6,0 2.6,-1.04 3.28,-3.319 0.64,-2.16 0.84,-3.761 0.84,-6.841 0,-3 -0.28,-4.72 -0.84,-6.68 z"
   id="path56"
   inkscape:connector-curvature="0"
   style="stroke:none;fill:#000000" />
<path
   d="m 174.54575,116.7415 c -0.96,0.88 -2.28,1.24 -3.76,1.24 h -7.44 v -26.8 h 6.84 c 2.28,0 3.4,0.28 4.36,1.04 1.601,1.12 2.721,3.2 3.2,5.92 0.36,1.96 0.64,4.321 0.64,6.4 0,6.2 -1.239,10.16 -3.84,12.2 z m -0.679,-19.08 c -0.64,-1.88 -1.76,-2.72 -3.48,-2.72 h -3.2 v 19.281 h 3.2 c 2.28,0 3.48,-1.8 3.88,-3.84 0.16,-1.721 0.36,-3.601 0.36,-5.641 -10e-4,-3.04 -0.281,-5.96 -0.76,-7.08 z"
   id="path58"
   inkscape:connector-curvature="0"
   style="stroke:none;fill:#000000" />
<path
   d="m 189.86675,118.4625 c -4.72,0 -7.521,-3.961 -7.521,-8.36 h 3.761 c 0,2.24 1.12,4.6 3.76,4.6 2.08,0 3.76,-1.88 3.76,-4.04 0,-1.52 -0.56,-2.64 -2.159,-3.88 -0.561,-0.56 0.96,0.48 -4.521,-3.2 -2.16,-1.479 -3.28,-3.56 -3.28,-5.92 0,-3.84 3,-6.96 6.84,-6.96 3.801,0 6.681,2.92 6.801,6.96 h -3.681 c -0.079,-1.88 -1.399,-3.08 -3.12,-3.08 -1.76,0 -3.159,1.32 -3.159,3.08 0,1.32 0.56,2.08 2.52,3.2 5.16,3 7.44,5.92 7.44,9.8 -0.001,4.32 -3.321,7.8 -7.441,7.8 z"
   id="path60"
   inkscape:connector-curvature="0"
   style="stroke:none;fill:#000000" />
</svg>