<?xml version="1.0" encoding="UTF-8" standalone="no"?>
<!-- Generator: Adobe Illustrator 12.0.1, SVG Export Plug-In  -->

<svg
   xmlns:dc="http://purl.org/dc/elements/1.1/"
   xmlns:cc="http://creativecommons.org/ns#"
   xmlns:rdf="http://www.w3.org/1999/02/22-rdf-syntax-ns#"
   xmlns:svg="http://www.w3.org/2000/svg"
   xmlns="http://www.w3.org/2000/svg"
   xmlns:sodipodi="http://sodipodi.sourceforge.net/DTD/sodipodi-0.dtd"
   xmlns:inkscape="http://www.inkscape.org/namespaces/inkscape"
   version="1.1"
   width="286.35876"
   height="286.38214"
   viewBox="0 -1 286.35876 286.38214"
   enable-background="new 0 -1 288 290"
   xml:space="preserve"
   id="svg2"
   inkscape:version="0.48.2 r9819"
   sodipodi:docname="AJAX1.svg"><metadata
   id="metadata32"><rdf:RDF><cc:Work
       rdf:about=""><dc:format>image/svg+xml</dc:format><dc:type
         rdf:resource="http://purl.org/dc/dcmitype/StillImage" /></cc:Work></rdf:RDF></metadata><sodipodi:namedview
   pagecolor="#ffffff"
   bordercolor="#666666"
   borderopacity="1"
   objecttolerance="10"
   gridtolerance="10"
   guidetolerance="10"
   inkscape:pageopacity="0"
   inkscape:pageshadow="2"
   inkscape:window-width="1280"
   inkscape:window-height="1004"
   id="namedview30"
   showgrid="false"
   fit-margin-top="0"
   fit-margin-left="0"
   fit-margin-right="0"
   fit-margin-bottom="0"
   inkscape:zoom="2.3017545"
   inkscape:cx="79.311107"
   inkscape:cy="134.22303"
   inkscape:window-x="-8"
   inkscape:window-y="-8"
   inkscape:window-maximized="1"
   inkscape:current-layer="svg2" />
<defs
   id="defs4">
</defs>
<path
   d="M 135.50575,282.24938 3.1687482,149.89038 c -4.225,-4.233 -4.225,-11.128 0,-15.351 L 135.50575,2.1723753 c 4.217,-4.229 11.118,-4.229 15.349,-0.005 l 132.328,132.3720047 c 4.233,4.237 4.233,11.117 0.01,15.351 l -132.338,132.359 c -4.184,4.173 -11.172,4.181 -15.349,0"
   id="path6"
   style="fill:#ffd033;stroke:none;fill-opacity:1"
   inkscape:connector-curvature="0" />

<path
   clip-rule="evenodd"
   d="M 137.60175,280.09538 5.3297482,147.78238 c -3.045,-3.052 -3.039,-8.083 0,-11.141 L 137.60175,4.3293753 c 3.056,-3.039 8.091,-3.039 11.139,0 l 132.283,132.3200047 c 3.044,3.053 3.044,8.081 0,11.132 l -132.283,132.314 c -3.048,3.033 -8.084,3.046 -11.139,0"
   id="path10"
   inkscape:connector-curvature="0"
   style="fill:#000000;fill-rule:evenodd;stroke:none" />
<path
   clip-rule="evenodd"
   d="M 140.56375,277.07938 8.3487482,144.83638 c -1.467,-1.419 -1.467,-3.833 0,-5.25 L 140.55575,7.3573753 c 1.41,-1.472 3.827,-1.472 5.238,0 l 132.211,132.2290047 c 1.456,1.417 1.456,3.839 0,5.259 l -132.211,132.234 c -1.411,1.459 -3.82,1.459 -5.23,0"
   id="path12"
   inkscape:connector-curvature="0"
   style="fill:#ffd033;fill-rule:evenodd;stroke:none;fill-opacity:1" />
<path
   d="m 93.199748,128.48538 -6.48,-17.52 h -7.62 v 17.52 h -6.36 V 88.285375 h 13.26 c 3.12,0 5.22,0.3 7.2,1.26 3.54,1.68 6.06,5.94 6.06,10.02 0,4.260005 -2.52,8.460005 -6.24,10.140005 l 7.080002,18.78 h -6.900002 z m -2.819,-33.120005 c -1.08,-0.6 -1.56,-0.72 -3.66,-0.72 h -7.62 v 9.840005 h 7.62 c 1.98,0 2.64,-0.12 3.66,-0.66 1.56,-0.9 2.52,-2.58 2.52,-4.260005 0,-1.68 -0.96,-3.36 -2.52,-4.2 z"
   id="path14"
   inkscape:connector-curvature="0"
   style="fill:#000000;stroke:none" />
<path
   d="m 132.25775,124.70538 c -2.28,3.061 -5.52,4.5 -9.72,4.5 -5.64,0 -9.18,-2.279 -11.58,-7.2 -1.68,-3.42 -2.82,-8.76 -2.82,-13.56 0,-6.6 1.68,-12.540005 4.38,-16.380005 2.4,-3.06 5.64,-4.5 10.26,-4.5 5.1,0 8.64,2.28 11.16,7.2 1.68,3.54 2.7,8.640005 2.7,13.680005 0,6.36 -1.56,12.72 -4.38,16.26 z m -4.38,-27.540005 c -1.26,-2.1 -2.82,-2.94 -5.22,-3.12 -0.12,0 -0.24,0 -0.36,0 -2.88,0 -4.8,1.56 -6.12,4.98 -1.02,2.400005 -1.56,6.060005 -1.56,9.420005 0,4.26 0.84,8.64 2.4,11.16 1.26,2.1 2.94,3.12 5.52,3.12 2.94,0 4.8,-1.561 6.18,-5.101 0.84,-2.1 1.56,-6.06 1.56,-9.18 0,-4.499 -0.84,-8.579005 -2.4,-11.279005 z"
   id="path16"
   inkscape:connector-curvature="0"
   style="fill:#000000;stroke:none" />
<path
   d="m 171.31675,128.48538 -3.959,-11.28 h -12.541 l -3.959,11.28 h -6.78 l 13.86,-40.200005 h 6.299 l 13.861,40.200005 h -6.781 z m -10.139,-29.040005 -4.141,11.280005 h 8.039 l -3.898,-11.280005 z"
   id="path18"
   inkscape:connector-curvature="0"
   style="fill:#000000;stroke:none" />
<path
   d="m 206.53475,126.20538 c -1.5,1.44 -3.658,2.16 -5.76,2.28 -0.42,0 -1.26,0 -2.279,0 h -12.24 V 88.285375 h 12.961 c 4.08,0 5.639,0.42 7.799,2.1 4.199,3.66 6.6,10.020005 6.6,17.940005 0,8.04 -2.52,14.4 -7.081,17.88 z m -2.638,-29.880005 c -1.02,-0.96 -2.4,-1.68 -4.08,-1.68 h -7.199 v 27.360005 h 6.359 c 2.1,0 3.359,-0.42 4.5,-1.56 2.398,-2.4 3.66,-6.78 3.66,-12.12 0,-5.4 -1.262,-9.900005 -3.24,-12.000005 z"
   id="path20"
   inkscape:connector-curvature="0"
   style="fill:#000000;stroke:none" />
<path
   d="m 75.350748,197.81838 v -40.2 h 23.7 v 6.36 h -17.34 v 9.84 h 11.7 v 6.48 h -11.7 v 11.039 h 18.600002 v 6.48 H 75.350748 z"
   id="path22"
   inkscape:connector-curvature="0"
   style="fill:#000000;stroke:none" />
<path
   d="m 130.90875,197.81838 -15.36,-27.24 v 27.24 h -6.36 v -40.2 h 6.36 l 14.64,25.681 v -25.681 h 6.36 v 40.2 h -5.64 z"
   id="path24"
   inkscape:connector-curvature="0"
   style="fill:#000000;stroke:none" />
<path
   d="m 168.52775,195.53838 c -1.5,1.44 -3.66,2.16 -5.761,2.28 -0.42,0 -1.26,0 -2.279,0 h -12.24 v -40.2 h 12.961 c 4.079,0 5.639,0.42 7.799,2.101 4.2,3.659 6.6,10.02 6.6,17.939 -0.001,8.04 -2.521,14.4 -7.08,17.88 z m -2.64,-29.88 c -1.021,-0.96 -2.4,-1.68 -4.08,-1.68 h -7.2 v 27.359 h 6.36 c 2.1,0 3.359,-0.42 4.5,-1.56 2.399,-2.4 3.659,-6.78 3.659,-12.12 0,-5.399 -1.26,-9.899 -3.239,-11.999 z"
   id="path26"
   inkscape:connector-curvature="0"
   style="fill:#000000;stroke:none" />
<path
   d="m 207.04575,195.41838 c -2.221,1.98 -5.34,3.12 -8.76,3.12 -6.9,0 -11.94,-4.08 -14.641,-10.2 l 6.061,-2.22 c 1.68,3.78 4.799,5.94 8.58,5.94 3.719,0 6.24,-2.58 6.24,-5.94 0,-5.34 -6.24,-6.239 -11.461,-8.34 -2.399,-0.96 -7.74,-3.36 -7.74,-10.021 0,-7.859 5.341,-10.859 12.541,-10.859 5.639,0 9.479,3.24 11.459,8.22 l -5.641,1.681 c 0,0 -1.439,-3.421 -5.939,-3.541 -0.18,0 -0.299,0 -0.42,0 -2.76,0 -5.76,1.08 -5.76,4.26 0,0.121 0,0.301 0,0.42 0.541,7.441 19.439,2.521 19.439,18.301 0.001,3.659 -1.438,6.9 -3.958,9.179 z"
   id="path28"
   inkscape:connector-curvature="0"
   style="fill:#000000;stroke:none" />
</svg>