<?xml version="1.0" encoding="UTF-8" standalone="no"?>
<svg
   xmlns:dc="http://purl.org/dc/elements/1.1/"
   xmlns:cc="http://creativecommons.org/ns#"
   xmlns:rdf="http://www.w3.org/1999/02/22-rdf-syntax-ns#"
   xmlns:svg="http://www.w3.org/2000/svg"
   xmlns="http://www.w3.org/2000/svg"
   xmlns:sodipodi="http://sodipodi.sourceforge.net/DTD/sodipodi-0.dtd"
   xmlns:inkscape="http://www.inkscape.org/namespaces/inkscape"
   width="74.429893"
   height="74.431252"
   viewBox="0 0 210.05775 210.06152"
   version="1.1"
   id="svg2"
   inkscape:version="0.48.2 r9819"
   sodipodi:docname="MUTCD W8-4.svg">
  <metadata
     id="metadata62">
    <rdf:RDF>
      <cc:Work
         rdf:about="">
        <dc:format>image/svg+xml</dc:format>
        <dc:type
           rdf:resource="http://purl.org/dc/dcmitype/StillImage" />
        <dc:title></dc:title>
      </cc:Work>
    </rdf:RDF>
  </metadata>
  <defs
     id="defs60" />
  <sodipodi:namedview
     pagecolor="#ffffff"
     bordercolor="#666666"
     borderopacity="1"
     objecttolerance="10"
     gridtolerance="10"
     guidetolerance="10"
     inkscape:pageopacity="0"
     inkscape:pageshadow="2"
     inkscape:window-width="1280"
     inkscape:window-height="1004"
     id="namedview58"
     showgrid="false"
     fit-margin-top="0"
     fit-margin-left="0"
     fit-margin-right="0"
     fit-margin-bottom="0"
     inkscape:zoom="8.0000001"
     inkscape:cx="41.235759"
     inkscape:cy="28.494524"
     inkscape:window-x="-8"
     inkscape:window-y="-8"
     inkscape:window-maximized="1"
     inkscape:current-layer="svg2" />
  <!-- draw the bicycle -->
  <!-- RIGHT -->
  <!-- LANE -->
  <!-- ONLY -->
  <path
     d="M 206.65025,96.805734 113.26995,3.43602 C 111.11095,1.262908 108.10881,-3.6983694e-5 105.03611,-3.6983694e-5 101.97047,-3.6983694e-5 98.97892,1.262908 96.79522,3.43602 L 3.4113897,96.805734 C 1.2418097,98.978844 -0.00702031,101.95982 2.9689291e-5,105.04663 0.02122969,108.11227 1.2488597,111.11088 3.4113897,113.28046 L 96.79522,206.64665 c 2.16253,2.16253 5.19289,3.41136 8.24795,3.41489 3.05153,-0.003 6.07483,-1.25236 8.23383,-3.41489 l 93.37325,-93.36266 c 2.79752,-2.79753 3.98991,-7.0097 3.13619,-10.86203 -0.50094,-2.21897 -1.72861,-3.866446 -3.13619,-5.616226"
     style="fill:#ffd033;fill-opacity:1;fill-rule:nonzero;stroke:none"
     id="path6132"
     inkscape:connector-curvature="0" />
  <path
     d="m 204.34308,110.97329 -93.36972,93.36619 c -1.56986,1.56281 -3.71828,2.45534 -5.93019,2.45534 -2.21192,0 -4.35681,-0.89253 -5.92667,-2.45534 L 5.7079797,110.96977 c -1.55223,-1.55223 -2.43417,-3.72886 -2.43417,-5.92667 0.007,-2.19781 0.889,-4.37797 2.43769,-5.930196 L 99.10944,5.718492 c 1.56281,-1.545167 3.73592,-2.430639 5.92667,-2.430639 2.19781,0 4.3815,0.885472 5.93725,2.430639 l 93.36972,93.397942 c 1.56633,1.569856 2.45181,3.714746 2.45181,5.926666 0,2.21544 -0.88548,4.36033 -2.45181,5.93019"
     style="fill:#000000;fill-opacity:1;fill-rule:evenodd;stroke:none"
     id="path6140"
     inkscape:connector-curvature="0" />
  <path
     d="m 201.12575,107.74891 c 0.70908,-0.70203 1.12183,-1.71451 1.12183,-2.70581 0,-0.98072 -0.41275,-2.02142 -1.12183,-2.71992 L 107.74192,8.94641 c -0.69497,-0.6985 -1.7145,-1.111251 -2.69875,-1.111251 -0.98778,0 -2.02142,0.412751 -2.72345,1.111251 L 8.9323697,102.32318 c -0.70556,0.70909 -1.09714,1.71803 -1.09714,2.71639 0.007,0.99836 0.39158,1.9932 1.10419,2.70581 l 93.3803003,93.39088 c 0.70203,0.6985 1.74272,1.11125 2.72345,1.11125 0.9913,0 2.00378,-0.41275 2.7058,-1.11125 l 93.37678,-93.38735 z"
     style="fill:#ffd033;fill-opacity:1;fill-rule:evenodd;stroke:none"
     id="path6144"
     inkscape:connector-curvature="0" />
  <path
     d="m 99.838288,64.578605 c -0.299861,-0.451555 -0.582083,-0.853722 -1.086555,-1.104194 -0.462139,-0.229306 -0.906639,-0.416278 -1.439334,-0.416278 -0.529167,0 -1.11125,0.0035 -1.5875,-0.268111 -0.444501,-0.257528 -0.814917,-0.493889 -1.181806,-0.857251 -0.331611,-0.335139 0.155222,-0.881944 0.363361,-1.143 0.243417,-0.303389 0.543278,-0.811389 0.543278,-1.210028 0,-0.261056 -0.05997,-0.497417 -0.0071,-0.754945 0.04939,-0.239889 0.151695,-0.45861 0.1905,-0.702027 0.08118,-0.504472 -0.144595,-0.970139 -0.105789,-1.449917 0.03175,-0.469195 0.08819,-0.906639 -0.03881,-1.379362 -0.292805,-1.086555 -0.963083,-1.665111 -1.897944,-2.197806 -1.696862,-0.970139 -4.519085,0.09878 -5.185835,1.929695 -0.370417,1.023056 -0.455084,2.067279 -0.271639,3.143251 0.169333,1.023055 0.881945,1.869722 1.04775,2.8575 0.02822,0.169334 0.151695,0.529167 0.102306,0.687917 -0.07408,0.246945 -0.345723,0.141111 -0.578556,0.08114 -0.388056,-0.09525 -1.061861,0.01411 -1.414639,0.1905 -0.416278,0.211667 -0.85725,0.384528 -1.347612,0.384528 -0.472722,0 -0.963083,-0.268111 -1.425222,-0.201083 -1.890889,0.268111 -2.853973,1.785056 -2.853973,3.608917 l -4.095751,0 0.726722,-13.387919 55.541346,0 0.94545,13.641919 -34.54049,0 c -0.0952,-0.493889 -0.10583,-1.012472 -0.402162,-1.453445 m 47.603852,74.640744 c -0.93134,-1.87325 -2.32481,-3.48898 -3.99345,-4.74134 -3.00214,-2.24719 -6.64634,-3.27378 -10.17059,-4.36739 -5.36575,-1.67569 -10.7315,-3.34786 -16.10078,-5.02003 -1.48872,-0.46566 -2.93158,-1.01952 -4.36033,-1.65453 -1.93323,-0.86077 -3.85587,-1.74272 -5.51745,-3.06916 -0.81139,-0.64911 -1.49931,-1.45345 -1.87325,-2.42006 -0.37747,-0.9913 -0.17286,-2.00025 0.381,-2.88572 0.53622,-0.86431 1.30881,-1.56281 1.98967,-2.31422 0.72672,-0.80434 1.57691,-1.37937 2.50472,-1.91912 1.82739,-1.07597 3.90525,-1.4993 5.93725,-1.99672 1.97556,-0.47625 3.96522,-0.91722 5.95136,-1.35114 4.37445,-0.9525 8.43845,-1.74625 12.80937,-2.68817 0.0353,-0.007 0.067,-0.0141 0.0952,-0.0212 1.50283,-0.35983 3.27378,-1.63689 3.56305,-3.25261 l 0.0282,-5.281083 c 0.007,-0.07761 0.0104,-0.15875 0.0104,-0.236361 l 5.15056,0 0,-0.79375 c 0,-0.254 -0.0706,-0.589139 0.0741,-0.800806 0.2787,-0.419806 0.45509,-0.85725 0.5327,-1.347611 0.0776,-0.529167 0.0388,-0.980723 -0.13053,-1.485195 -0.0811,-0.229306 -0.18697,-0.440973 -0.28222,-0.663223 -0.0564,-0.134055 0.15522,-0.585611 0.18697,-0.754944 0.23989,-1.107723 -0.003,-2.046112 -0.5327,-3.030362 -0.19755,-0.366889 -0.0953,-1.072445 -0.0564,-1.488723 0.0353,-0.352777 0.0282,-0.705555 0.0282,-1.065389 0,-2.409473 0.0175,-4.822473 -0.06,-7.231946 -0.0706,-1.989667 -0.20108,-4.074584 -1.18533,-5.842001 -0.508,-0.910167 -1.22061,-1.594556 -2.05317,-2.215445 -0.24342,-0.179916 -0.39158,-0.1905 -0.42686,-0.472722 -0.0423,-0.313972 -0.0847,-0.627945 -0.127,-0.941917 -0.35985,-2.79047 -0.72321,-5.584471 -1.08657,-8.374943 -0.3422,-2.635251 -0.68439,-5.266973 -1.02659,-7.902224 -0.0776,-0.606778 -0.15875,-1.072445 -0.43391,-1.626306 -0.4692,-0.938389 -1.55222,-1.456973 -2.56117,-1.527528 -0.70555,-0.04586 -52.662678,0 -56.642012,0 -1.019528,0 -2.099029,0.0035 -2.885723,0.790222 -0.536223,0.536223 -0.885473,1.132417 -0.98425,1.89089 -0.109362,0.867833 -0.222251,1.735667 -0.331612,2.6035 -0.652639,5.087056 -1.30175,10.174113 -1.954389,15.264698 -0.02469,0.1905 -0.804332,0.532694 -0.96661,0.694972 -0.34925,0.34925 -0.751417,0.670278 -1.051278,1.072445 -0.645583,0.85725 -0.9525,1.792111 -1.255889,2.804584 -0.275167,0.910167 -0.324556,2.014362 -0.356306,2.959806 -0.0388,1.0795 -0.05644,2.159 -0.08819,3.231445 -0.07408,2.215445 0.01764,4.43089 0.01764,6.642807 0,0.176389 0.0635,0.440972 0.03175,0.610306 -0.03528,0.211666 -0.299862,0.497416 -0.398639,0.709083 -0.225778,0.493889 -0.324556,0.98425 -0.324556,1.527528 0,0.553862 0.09878,1.054806 0.296333,1.57339 0.0635,0.162277 -0.179916,0.409222 -0.232833,0.578555 -0.09172,0.268112 -0.151694,0.518584 -0.197556,0.800806 -0.09525,0.617361 0.01764,1.252361 0.296334,1.813278 0.141111,0.275167 0.306917,0.440973 0.313972,0.758473 0.01411,0.41275 0.02117,0.8255 0.03175,1.23825 l 5.150555,-0.03881 0,3.725335 c 0,0.02117 0.0071,0.04586 0.0175,0.07408 l 0.0034,0.853726 c -0.670278,0.14816 -1.573388,0.34219 -2.144888,0.47272 -2.137834,0.4833 -4.279196,0.97014 -6.413502,1.44639 -2.106083,0.47272 -4.194528,1.01247 -6.290029,1.50283 -1.993195,0.46567 -4.095751,0.81845 -5.951363,1.7145 -2.049639,0.98778 -3.884084,2.10609 -5.499806,3.72181 -1.471084,1.47108 -2.564696,3.302 -3.00214,5.34106 -0.472723,2.1978 -0.169334,4.33211 0.769056,6.35705 0.878416,1.90148 2.50825,3.51367 4.279195,4.59317 1.756834,1.07597 3.746501,1.82033 5.655029,2.59997 1.957918,0.79728 3.919362,1.64395 5.937252,2.286 4.783668,1.53106 9.574391,3.05506 14.358057,4.58612 1.580445,0.50094 3.143251,1.03364 4.667252,1.67569 1.961444,0.8255 3.958167,1.67922 5.60564,3.048 1.693334,1.40759 1.883834,3.6195 1.548695,5.64445 -0.151695,0.91369 -0.571501,1.89089 -0.970139,2.72344 -0.483306,1.00542 -0.959556,1.9932 -1.545168,2.94922 -1.150055,1.8662 -2.472972,3.61598 -4.067528,5.13645 -1.601612,1.52753 -3.35139,2.81869 -5.242279,3.96875 -0.08467,0.0494 -0.176389,0.10583 -0.261056,0.15875 l 3.372556,5.47511 c 3.531307,-2.38478 6.910919,-5.21053 9.415642,-8.69597 1.312333,-1.82386 2.480028,-3.66536 3.485445,-5.6762 0.497417,-0.99483 0.973667,-1.98614 1.404056,-3.00919 0.373944,-0.89253 0.515055,-2.01436 0.620889,-2.96333 0.483285,-4.33211 -1.527548,-8.36083 -4.928327,-10.97492 -1.718028,-1.32291 -3.711223,-2.13783 -5.676196,-3.0233 -0.409222,-0.18698 -0.853722,-0.29281 -1.284111,-0.42686 -1.051278,-0.32456 -2.102556,-0.65617 -3.150306,-0.9772 -5.408085,-1.68275 -10.812641,-3.3655 -16.21367,-5.04472 -1.439333,-0.44803 -2.839861,-0.97014 -4.219223,-1.58045 -1.943806,-0.8643 -3.929945,-1.74272 -5.612696,-3.06211 -0.829028,-0.65264 -1.538111,-1.4605 -1.957917,-2.43417 -0.423333,-0.9913 -0.208139,-2.06022 0.324556,-2.95627 0.508,-0.84314 1.315861,-1.64395 2.010833,-2.33539 0.758473,-0.75848 1.580445,-1.37937 2.501196,-1.92264 1.834445,-1.07598 3.929945,-1.51695 5.972529,-1.99673 2.12725,-0.508 4.268612,-0.96661 6.402918,-1.44991 4.27214,-0.98073 8.576029,-1.82739 12.855224,-2.77989 0.08467,-0.0178 0.162278,-0.0423 0.22225,-0.0776 1.524,-0.47273 3.079751,-1.46403 3.090334,-3.10798 l 0.0071,-5.559776 45.444839,0 -0.007,4.533196 c -0.69144,0.15875 -1.6263,0.37394 -2.15547,0.49389 -2.13078,0.47978 -4.25097,0.97014 -6.38175,1.44992 -2.13078,0.47625 -4.25097,1.016 -6.38175,1.51341 -2.02847,0.4692 -4.04284,0.89959 -5.95842,1.74978 -2.03906,0.90664 -3.86644,2.13784 -5.44689,3.71475 -1.43228,1.43581 -2.716388,3.51367 -2.988027,5.5492 -0.144639,1.08303 -0.232834,2.09903 -0.07408,3.19264 0.144639,1.02658 0.469195,2.08492 0.956027,2.99508 1.00189,1.84856 2.44475,3.40431 4.24039,4.50498 1.72861,1.05127 3.65125,1.77447 5.51392,2.53647 1.99672,0.81844 4.00756,1.68275 6.06778,2.34244 4.72722,1.51342 9.45444,3.02684 14.1852,4.54025 1.59102,0.508 3.16794,1.02306 4.70958,1.66512 1.94028,0.8008 3.99697,1.64747 5.62328,3.00214 0.76906,0.63852 1.37936,1.5628 1.62278,2.53647 0.27164,1.09361 0.21872,2.04964 0.0212,3.1503 -0.18697,1.01248 -0.58561,1.94028 -1.00189,2.87514 -0.41981,0.93134 -0.87489,1.91559 -1.43228,2.76931 -1.22414,1.87325 -2.50119,3.6442 -4.10633,5.22111 -1.58045,1.54517 -3.36903,2.82928 -5.25287,3.97228 -0.0847,0.0564 -0.17639,0.10936 -0.26105,0.16228 l 3.37255,5.47864 c 3.53837,-2.39183 6.93209,-5.23875 9.44034,-8.72773 1.32997,-1.85913 2.51177,-3.75708 3.53483,-5.79966 0.96661,-1.9297 1.83797,-3.92289 1.95792,-6.10659 0.11289,-2.08139 -0.12347,-4.1663 -1.07245,-6.05719"
     style="fill:#000000;fill-opacity:1;fill-rule:nonzero;stroke:none"
     id="path7904"
     inkscape:connector-curvature="0" />
  <path
     d="m 78.417213,56.679909 -0.09172,1.710972 4.325056,4.201585 c 0.342195,-0.282222 0.740834,-0.500945 1.19239,-0.642056 l -5.425724,-5.270501 z"
     style="fill:#000000;fill-opacity:1;fill-rule:nonzero;stroke:none"
     id="path7908"
     inkscape:connector-curvature="0" />
</svg>
