<?xml version="1.0" encoding="UTF-8" standalone="no"?>
<!-- Created with Inkscape (http://www.inkscape.org/) -->

<svg
   xmlns:dc="http://purl.org/dc/elements/1.1/"
   xmlns:cc="http://creativecommons.org/ns#"
   xmlns:rdf="http://www.w3.org/1999/02/22-rdf-syntax-ns#"
   xmlns:svg="http://www.w3.org/2000/svg"
   xmlns="http://www.w3.org/2000/svg"
   xmlns:sodipodi="http://sodipodi.sourceforge.net/DTD/sodipodi-0.dtd"
   xmlns:inkscape="http://www.inkscape.org/namespaces/inkscape"
   width="49.251999in"
   height="49.251999in"
   viewBox="0 0 1251.0008 1251.0008"
   version="1.1"
   id="svg7045"
   inkscape:version="0.92.2 (5c3e80d, 2017-08-06)"
   sodipodi:docname="88.svg">
  <defs
     id="defs7039" />
  <sodipodi:namedview
     id="base"
     pagecolor="#ffffff"
     bordercolor="#666666"
     borderopacity="1.0"
     inkscape:pageopacity="0.0"
     inkscape:pageshadow="2"
     inkscape:zoom="0.14829203"
     inkscape:cx="-373.39451"
     inkscape:cy="2274.1738"
     inkscape:document-units="in"
     inkscape:current-layer="layer1"
     showgrid="false"
     units="in"
     fit-margin-top="0"
     fit-margin-left="0"
     fit-margin-right="0"
     fit-margin-bottom="0"
     inkscape:window-width="1920"
     inkscape:window-height="1057"
     inkscape:window-x="-8"
     inkscape:window-y="-8"
     inkscape:window-maximized="1" />
  <metadata
     id="metadata7042">
    <rdf:RDF>
      <cc:Work
         rdf:about="">
        <dc:format>image/svg+xml</dc:format>
        <dc:type
           rdf:resource="http://purl.org/dc/dcmitype/StillImage" />
        <dc:title></dc:title>
      </cc:Work>
    </rdf:RDF>
  </metadata>
  <g
     inkscape:label="Layer 1"
     inkscape:groupmode="layer"
     id="layer1"
     transform="translate(-7.6875851e-7,954.00082)">
    <rect
       style="opacity:1;fill:#ffd400;fill-opacity:1;stroke:none;stroke-width:36.29109955;stroke-linejoin:round;stroke-miterlimit:4;stroke-dasharray:none;stroke-opacity:1"
       id="rect2313"
       width="914.40002"
       height="914.40002"
       x="-667.21063"
       y="-1131.7772"
       rx="57.150002"
       ry="57.150002"
       transform="matrix(-0.70710678,-0.70710678,-0.70710678,0.70710678,0,0)" />
    <rect
       ry="41.274998"
       rx="41.274998"
       y="-1115.9021"
       x="-651.33557"
       height="882.64996"
       width="882.64996"
       id="rect2315"
       style="opacity:1;fill:#000000;fill-opacity:1;stroke:none;stroke-width:35.0309906;stroke-linejoin:round;stroke-miterlimit:4;stroke-dasharray:none;stroke-opacity:1"
       transform="matrix(-0.70710678,-0.70710678,-0.70710678,0.70710678,0,0)" />
    <rect
       ry="19.049999"
       rx="19.049999"
       y="-1093.6772"
       x="-629.11053"
       height="838.20001"
       width="838.20001"
       id="rect2317"
       style="opacity:1;fill:#ffd400;fill-opacity:1;stroke:none;stroke-width:33.26684189;stroke-linejoin:round;stroke-miterlimit:4;stroke-dasharray:none;stroke-opacity:1"
       transform="matrix(-0.70710678,-0.70710678,-0.70710678,0.70710678,0,0)" />
    <path
       inkscape:connector-curvature="0"
       d="m 476.72554,-486.77081 -20.0297,-70.90539 h -20.7125 v 70.90539 h -21.6082 V -637.5719 h 45.0212 c 23.6348,0 39.6072,15.9755 39.6072,40.2856 0,18.0153 -7.4275,31.0619 -21.604,36.4627 l 21.604,74.05279 z m -18.4598,-129.64169 h -22.2824 v 38.034 h 22.2824 c 12.6023,0 19.5817,-6.7535 19.5817,-18.9078 0,-11.7021 -7.8796,-19.1262 -19.5817,-19.1262 z"
       id="path12"
       style="fill:#000000;stroke:none;stroke-width:4.34861755" />
    <path
       inkscape:connector-curvature="0"
       d="m 601.63963,-509.9583 c -7.4275,17.78669 -18.45549,25.87959 -35.337,25.87959 -18.0076,0 -28.5833,-8.0929 -36.0065,-25.87959 -6.3011,-14.8464 -8.55809,-29.2622 -8.55809,-52.4481 0,-22.7306 2.25699,-38.0338 8.55809,-52.4398 7.87531,-18.0086 18.4512,-25.4392 36.0065,-25.4392 17.3294,0 27.9095,7.4306 35.337,25.8863 6.3012,14.8546 8.5582,29.2621 8.5582,51.9878 0,23.1957 -2.257,38.0503 -8.5582,52.453 z m -16.877,-90.0283 c -3.8312,-13.2867 -9.4583,-19.1345 -18.46,-19.1345 -9.6755,0 -15.5288,5.8527 -19.12949,18.6858 -3.60061,11.4853 -4.72691,21.608 -4.72691,38.4941 0,16.4242 1.57781,25.878 4.72691,38.03219 3.60069,12.833 9.4583,18.68741 19.12949,18.68741 9.0017,0 14.6288,-5.85441 18.46,-18.68741 3.6007,-12.15419 4.7269,-21.15599 4.7269,-38.49409 0,-16.8679 -1.5828,-26.5519 -4.7269,-37.5835 z"
       id="path14"
       style="fill:#000000;stroke:none;stroke-width:4.34861755" />
    <path
       inkscape:connector-curvature="0"
       d="m 700.22724,-597.2863 c -2.26142,-14.8562 -8.10152,-21.8348 -18.00762,-21.8348 -17.56399,0 -23.86529,13.7321 -23.86529,52.8967 0,43.43309 7.44059,60.9979 25.88739,60.9979 12.60221,0 15.98552,-10.57641 15.98552,-21.8349 h 21.60818 c -0.45199,24.98729 -16.44208,42.98599 -37.5937,42.98599 -32.17989,0 -46.58669,-25.87799 -46.58669,-81.46689 0,-48.8437 15.2983,-74.7349 45.008,-74.7349 12.16311,0 22.73031,5.4009 29.70991,15.3116 5.62258,7.4224 7.884,13.9539 9.46248,27.6793 z"
       id="path16"
       style="fill:#000000;stroke:none;stroke-width:4.34861755" />
    <path
       inkscape:connector-curvature="0"
       d="m 813.88703,-486.77081 -26.5483,-73.60579 -13.74161,25.4311 v 48.17469 H 751.99744 V -637.5719 h 21.59968 v 60.3142 l 34.441,-60.3109 h 24.97841 l -31.28819,52.8885 34.88888,97.91259 h -22.73019 z"
       id="path18"
       style="fill:#000000;stroke:none;stroke-width:4.34861755" />
    <path
       inkscape:connector-curvature="0"
       d="m 441.25524,-250.39541 c -26.5627,0 -42.3229,-22.27979 -42.3229,-47.03659 h 21.1615 c 0,12.602 6.3014,25.87948 21.1614,25.87948 11.6984,0 21.1529,-10.57709 21.1529,-22.73189 0,-8.56171 -3.153,-14.8554 -12.155,-21.83429 -3.1531,-3.14431 5.4012,2.70057 -25.4365,-18.00961 -12.155,-8.3317 -18.4609,-20.02631 -18.4609,-33.31199 0,-21.60921 16.8822,-39.16511 38.4917,-39.16511 21.3834,0 37.5915,16.4333 38.26979,39.16511 h -20.71349 c -0.452,-10.57701 -7.8801,-17.32581 -17.5563,-17.32581 -9.9024,0 -17.7824,7.4244 -17.7824,17.32581 0,7.4326 3.1529,11.70279 14.1859,18.0095 29.0372,16.88539 41.86629,33.3121 41.86629,55.15128 0,24.29672 -18.68259,43.88411 -41.86199,43.88411 z"
       id="path20"
       style="fill:#000000;stroke:none;stroke-width:4.34884548" />
    <path
       inkscape:connector-curvature="0"
       d="m 508.54944,-253.09601 v -150.8089 h 21.6093 v 130.76938 h 55.14769 v 20.03462 h -76.75699 z"
       id="path22"
       style="fill:#000000;stroke:none;stroke-width:4.34884548" />
    <path
       inkscape:connector-curvature="0"
       d="m 606.46363,-253.09601 v -150.8089 h 21.1659 v 150.8089 z"
       id="path24"
       style="fill:#000000;stroke:none;stroke-width:4.34884548" />
    <path
       inkscape:connector-curvature="0"
       d="m 723.99898,-260.06672 c -5.40129,4.94421 -12.82478,6.97571 -21.14849,6.97571 h -41.8663 v -150.8105 h 38.4873 c 12.8333,0 19.1262,1.5779 24.5318,5.8546 9.0021,6.3018 15.31231,18.0079 18.00849,33.31211 2.0396,11.02399 3.60101,24.3096 3.60101,36.01249 0,34.89161 -6.96701,57.16979 -21.61381,68.65559 z m -3.81839,-107.37358 c -3.60079,-10.57701 -9.90219,-15.30741 -19.58721,-15.30741 h -18.00849 v 108.48969 h 18.00849 c 12.83361,0 19.58721,-10.13158 21.83561,-21.60918 0.8908,-9.67621 2.03089,-20.25642 2.03089,-31.7423 0,-17.09902 -1.578,-33.52901 -4.27929,-39.8308 z"
       id="path26"
       style="fill:#000000;stroke:none;stroke-width:4.34884548" />
    <path
       inkscape:connector-curvature="0"
       d="m 775.30958,-253.09601 v -150.8089 h 70.8992 v 21.1572 h -49.29859 v 38.0343 h 31.28999 v 20.70999 h -31.28999 v 49.7454 h 55.15207 v 21.15711 h -76.75268 z"
       id="path28"
       style="fill:#000000;stroke:none;stroke-width:4.34884548" />
    <path
       inkscape:connector-curvature="0"
       d="m 488.52714,-16.710845 -10.9591,-42.66977 h -33.5709 l -10.2565,42.66977 h -22.6163 l 38.9356,-156.209965 h 21.9136 l 38.9356,156.209965 z m -27.9766,-109.577075 -10.9591,44.990305 h 22.3821 z"
       id="path30"
       style="fill:#000000;stroke:none;stroke-width:4.50434875" />
    <path
       inkscape:connector-curvature="0"
       d="m 596.92873,-16.710845 -20.747,-73.44288 h -21.4498 v 73.44288 H 532.34984 V -172.92081 h 46.62909 c 24.4812,0 41.0301,16.55779 41.0301,41.73678 0,18.65352 -7.6934,32.174205 -22.3777,37.770115 l 22.3777,76.70307 z m -19.1164,-134.287775 h -23.0804 v 39.3959 h 23.0804 c 13.0535,0 20.2831,-6.99529 20.2831,-19.5848 0,-12.1212 -8.162,-19.8111 -20.2831,-19.8111 z"
       id="path32"
       style="fill:#000000;stroke:none;stroke-width:4.50434875" />
    <path
       inkscape:connector-curvature="0"
       d="M 646.35953,-16.710845 V -172.92081 h 73.43431 v 21.92219 h -51.0613 v 39.3959 h 32.40889 v 21.448995 h -32.40889 v 51.5207 h 57.1242 v 21.92218 z"
       id="path34"
       style="fill:#000000;stroke:none;stroke-width:4.50434875" />
    <path
       inkscape:connector-curvature="0"
       d="m 817.47972,-16.710845 -10.96359,-42.66977 h -33.57099 l -10.25621,42.66977 h -22.612 l 38.93111,-156.209965 h 21.91379 l 38.9399,156.209965 z m -27.97648,-109.577075 -10.96362,44.990305 h 22.38221 z"
       id="path36"
       style="fill:#000000;stroke:none;stroke-width:4.50434875" />
  </g>
</svg>
