<?xml version="1.0" encoding="UTF-8" standalone="no"?>
<svg
   xmlns:dc="http://purl.org/dc/elements/1.1/"
   xmlns:cc="http://creativecommons.org/ns#"
   xmlns:rdf="http://www.w3.org/1999/02/22-rdf-syntax-ns#"
   xmlns:svg="http://www.w3.org/2000/svg"
   xmlns="http://www.w3.org/2000/svg"
   xmlns:sodipodi="http://sodipodi.sourceforge.net/DTD/sodipodi-0.dtd"
   xmlns:inkscape="http://www.inkscape.org/namespaces/inkscape"
   width="74.429893"
   height="74.431252"
   viewBox="0 0 210.05775 210.06152"
   version="1.1"
   id="svg2"
   inkscape:version="0.48.2 r9819"
   sodipodi:docname="MUTCD W8-7.svg">
  <metadata
     id="metadata62">
    <rdf:RDF>
      <cc:Work
         rdf:about="">
        <dc:format>image/svg+xml</dc:format>
        <dc:type
           rdf:resource="http://purl.org/dc/dcmitype/StillImage" />
        <dc:title></dc:title>
      </cc:Work>
    </rdf:RDF>
  </metadata>
  <defs
     id="defs60" />
  <sodipodi:namedview
     pagecolor="#ffffff"
     bordercolor="#666666"
     borderopacity="1"
     objecttolerance="10"
     gridtolerance="10"
     guidetolerance="10"
     inkscape:pageopacity="0"
     inkscape:pageshadow="2"
     inkscape:window-width="1280"
     inkscape:window-height="1004"
     id="namedview58"
     showgrid="false"
     fit-margin-top="0"
     fit-margin-left="0"
     fit-margin-right="0"
     fit-margin-bottom="0"
     inkscape:zoom="8.0000001"
     inkscape:cx="41.235759"
     inkscape:cy="28.494524"
     inkscape:window-x="-8"
     inkscape:window-y="-8"
     inkscape:window-maximized="1"
     inkscape:current-layer="svg2" />
  <!-- draw the bicycle -->
  <!-- RIGHT -->
  <!-- LANE -->
  <!-- ONLY -->
  <path
     d="M 206.65025,96.805734 113.26995,3.43602 C 111.11095,1.262908 108.10881,-3.6983694e-5 105.03611,-3.6983694e-5 101.97047,-3.6983694e-5 98.97892,1.262908 96.79522,3.43602 L 3.4113897,96.805734 C 1.2418097,98.978844 -0.00702031,101.95982 2.9689291e-5,105.04663 0.02122969,108.11227 1.2488597,111.11088 3.4113897,113.28046 L 96.79522,206.64665 c 2.16253,2.16253 5.19289,3.41136 8.24795,3.41489 3.05153,-0.003 6.07483,-1.25236 8.23383,-3.41489 l 93.37325,-93.36266 c 2.79752,-2.79753 3.98991,-7.0097 3.13619,-10.86203 -0.50094,-2.21897 -1.72861,-3.866446 -3.13619,-5.616226"
     style="fill:#ffd033;fill-opacity:1;fill-rule:nonzero;stroke:none"
     id="path6132"
     inkscape:connector-curvature="0" />
  <path
     d="m 204.34308,110.97329 -93.36972,93.36619 c -1.56986,1.56281 -3.71828,2.45534 -5.93019,2.45534 -2.21192,0 -4.35681,-0.89253 -5.92667,-2.45534 L 5.7079797,110.96977 c -1.55223,-1.55223 -2.43417,-3.72886 -2.43417,-5.92667 0.007,-2.19781 0.889,-4.37797 2.43769,-5.930196 L 99.10944,5.718492 c 1.56281,-1.545167 3.73592,-2.430639 5.92667,-2.430639 2.19781,0 4.3815,0.885472 5.93725,2.430639 l 93.36972,93.397942 c 1.56633,1.569856 2.45181,3.714746 2.45181,5.926666 0,2.21544 -0.88548,4.36033 -2.45181,5.93019"
     style="fill:#000000;fill-opacity:1;fill-rule:evenodd;stroke:none"
     id="path6140"
     inkscape:connector-curvature="0" />
  <path
     d="m 201.12575,107.74891 c 0.70908,-0.70203 1.12183,-1.71451 1.12183,-2.70581 0,-0.98072 -0.41275,-2.02142 -1.12183,-2.71992 L 107.74192,8.94641 c -0.69497,-0.6985 -1.7145,-1.111251 -2.69875,-1.111251 -0.98778,0 -2.02142,0.412751 -2.72345,1.111251 L 8.9323697,102.32318 c -0.70556,0.70909 -1.09714,1.71803 -1.09714,2.71639 0.007,0.99836 0.39158,1.9932 1.10419,2.70581 l 93.3803003,93.39088 c 0.70203,0.6985 1.74272,1.11125 2.72345,1.11125 0.9913,0 2.00378,-0.41275 2.7058,-1.11125 l 93.37678,-93.38735 z"
     style="fill:#ffd033;fill-opacity:1;fill-rule:evenodd;stroke:none"
     id="path6144"
     inkscape:connector-curvature="0" />
  <path
     d="m 159.73079,99.892547 0,-25.876256 -4.09222,0 0,10.442225 -9.44034,0 0,-10.442225 -4.08517,0 0,25.876256 4.08517,0 0,-11.257141 9.44034,0 0,11.257141 4.09222,0 z m -23.68198,-7.715252 0,-5.175251 -8.80533,0 0,4.085168 4.72016,0 0,1.090083 c 0,2.363612 -1.90853,3.996974 -4.54025,3.996974 -1.55222,0 -2.72344,-0.631473 -3.54894,-2.088445 -0.81492,-1.63689 -1.27,-4.360335 -1.27,-7.08378 0,-2.180167 0.36689,-4.540251 0.99836,-6.081891 0.91016,-2.275417 2.26836,-3.182056 4.36386,-3.182056 1.99672,0 3.08681,0.818445 4.17336,3.090334 l 3.90878,-1.545167 c -1.72861,-4.088695 -4.08517,-5.722057 -8.08214,-5.722057 -2.90689,0 -5.09411,0.998362 -6.6287,2.90689 -1.72861,2.264834 -2.90689,6.357057 -2.90689,10.533947 0,3.178529 0.63148,6.35353 1.72156,8.628947 1.54869,3.263195 3.81706,4.730749 7.71525,4.730749 4.72723,0 8.18092,-3.464277 8.18092,-8.184445 m -23.59378,-1.545167 0,-16.615837 -4.08517,0 0,16.615837 c 0,3.361973 -1.90853,5.542141 -4.72017,5.542141 -2.81869,0 -4.720166,-2.180168 -4.720166,-5.542141 l 0,-16.615837 -4.092223,0 0,16.615837 c 0,2.000251 0.455084,3.813529 1.185334,5.358696 1.358195,2.540001 4.445005,4.370916 7.627055,4.370916 3.17147,0 6.26534,-1.830915 7.62,-4.370916 0.73025,-1.545167 1.18534,-3.358445 1.18534,-5.358696 M 84.687882,87.002044 c 0,2.000251 -0.455083,4.540251 -0.998361,5.901974 -0.910167,2.271889 -2.088445,3.270251 -3.996973,3.270251 -1.633362,0 -2.719918,-0.631473 -3.54189,-2.000251 -0.998362,-1.633361 -1.541639,-4.448529 -1.541639,-7.171974 0,-2.180167 0.363361,-4.540251 0.998361,-6.081891 0.910167,-2.275417 2.176639,-3.273778 4.17689,-3.182056 1.541639,0.09525 2.54,0.638528 3.361973,1.996723 0.998361,1.728611 1.541639,4.360335 1.541639,7.267224 m 4.085168,0 c 0,-3.273778 -0.631473,-6.536974 -1.728612,-8.808863 -1.633361,-3.178529 -3.898195,-4.631974 -7.164918,-4.631974 -2.998612,0 -5.090585,0.906639 -6.635752,2.90689 -1.721556,2.451806 -2.811639,6.261807 -2.811639,10.533947 0,3.086807 0.73025,6.540502 1.813278,8.717141 1.541639,3.175001 3.817056,4.642555 7.447141,4.642555 2.7305,0 4.81189,-0.920748 6.265334,-2.920999 1.816806,-2.264834 2.815168,-6.353529 2.815168,-10.438697 M 61.640904,81.279987 c 0,1.093611 -0.635,2.180167 -1.633361,2.726973 -0.635,0.359834 -1.086556,0.451556 -2.363612,0.451556 l -4.896557,0 0,-6.357058 4.896557,0 c 1.36525,0 1.728612,0.09172 2.363612,0.455084 0.998361,0.543278 1.633361,1.636889 1.633361,2.723445 m 4.631974,18.61256 -4.543779,-12.075586 c 2.363611,-1.090083 3.996973,-3.810001 3.996973,-6.536974 0,-2.635251 -1.633362,-5.355168 -3.898195,-6.445252 -1.277056,-0.638528 -2.638779,-0.818444 -4.639029,-0.818444 l -8.530169,0 0,25.876256 4.088695,0 0,-11.257141 4.896557,0 4.183946,11.257141 4.445001,0 z"
     style="fill:#000000;fill-opacity:1;fill-rule:evenodd;stroke:none"
     id="path5992"
     inkscape:connector-curvature="0" />
  <path
     d="m 145.12931,134.38011 c 0,3.45017 -0.8255,6.26886 -2.36361,7.81403 -0.73025,0.72319 -1.54164,0.99836 -2.90689,0.99836 l -4.08517,0 0,-17.61772 4.62845,0 c 1.09008,0 2.00025,0.45508 2.63172,1.08655 1.27,1.36525 2.0955,4.26509 2.0955,7.71878 m 4.16984,0 c 0,-5.08 -1.54517,-9.17222 -4.26509,-11.52878 -1.35819,-1.08656 -2.35655,-1.36172 -4.99533,-1.36172 l -8.35025,0 0,25.87978 7.89516,0 1.45345,0 c 1.36525,-0.0917 2.71992,-0.5468 3.72181,-1.45697 2.90689,-2.26483 4.54025,-6.35 4.54025,-11.53231 m -30.67757,1.54164 -5.17172,0 2.63878,-7.26017 2.53294,7.26017 z m 8.35378,11.44764 -8.89705,-25.87978 -4.08517,0 -8.89706,25.87978 4.35681,0 2.54,-7.26369 8.08214,0 2.54353,7.26369 4.3568,0 z M 96.844607,134.47536 c 0,2.00025 -0.455083,4.54025 -1.001889,5.89845 -0.906639,2.27541 -2.077861,3.27378 -3.989917,3.27378 -1.63689,0 -2.726973,-0.635 -3.538362,-2.00026 -1.00189,-1.62983 -1.545167,-4.44852 -1.545167,-7.17197 0,-2.18369 0.359833,-4.54025 0.998361,-6.08189 0.903111,-2.27542 2.173111,-3.27378 4.169834,-3.18558 1.548695,0.0988 2.550584,0.64205 3.361973,2.00025 0.998362,1.72861 1.545167,4.36033 1.545167,7.26722 m 4.085163,0 c 0,-3.27378 -0.635,-6.53697 -1.725079,-8.81239 -1.629834,-3.175 -3.905251,-4.62845 -7.171974,-4.62845 -2.995084,0 -5.083529,0.90664 -6.628696,2.90689 -1.728611,2.45181 -2.815167,6.26181 -2.815167,10.53395 0,3.08681 0.73025,6.5405 1.816806,8.71714 1.545167,3.175 3.810001,4.64256 7.447141,4.64256 2.723445,0 4.81189,-0.92075 6.265334,-2.921 1.813279,-2.26484 2.811635,-6.35353 2.811635,-10.4387 m -27.491974,-5.71853 c 0,1.09009 -0.642056,2.16959 -1.640417,2.72345 -0.635,0.36336 -1.090084,0.44802 -2.356556,0.44802 l -4.90714,0 0,-6.35352 4.90714,0 c 1.358195,0 1.721556,0.0882 2.356556,0.45508 0.998361,0.54328 1.640417,1.63336 1.640417,2.72697 m 4.62139,18.61256 -4.540251,-12.07911 c 2.363612,-1.09009 3.996973,-3.81 3.996973,-6.53345 0,-2.63878 -1.633361,-5.35869 -3.905251,-6.44878 -1.27,-0.64205 -2.628195,-0.81844 -4.624918,-0.81844 l -8.537224,0 0,25.87978 4.085168,0 0,-11.26067 4.90714,0 4.169834,11.26067 4.448529,0 z"
     style="fill:#000000;fill-opacity:1;fill-rule:evenodd;stroke:none"
     id="path5996"
     inkscape:connector-curvature="0" />
</svg>
