<?xml version="1.0" encoding="UTF-8" standalone="no"?>
<!-- Generator: Adobe Illustrator 12.0.1, SVG Export Plug-In  -->

<svg
   xmlns:dc="http://purl.org/dc/elements/1.1/"
   xmlns:cc="http://creativecommons.org/ns#"
   xmlns:rdf="http://www.w3.org/1999/02/22-rdf-syntax-ns#"
   xmlns:svg="http://www.w3.org/2000/svg"
   xmlns="http://www.w3.org/2000/svg"
   xmlns:sodipodi="http://sodipodi.sourceforge.net/DTD/sodipodi-0.dtd"
   xmlns:inkscape="http://www.inkscape.org/namespaces/inkscape"
   version="1.1"
   width="286.66275"
   height="286.66599"
   viewBox="0 -0.999 286.66275 286.66599"
   enable-background="new 0 -0.999 288 290"
   xml:space="preserve"
   id="svg2"
   inkscape:version="0.48.2 r9819"
   sodipodi:docname="AJAX1.svg"><metadata
   id="metadata40"><rdf:RDF><cc:Work
       rdf:about=""><dc:format>image/svg+xml</dc:format><dc:type
         rdf:resource="http://purl.org/dc/dcmitype/StillImage" /></cc:Work></rdf:RDF></metadata><sodipodi:namedview
   pagecolor="#ffffff"
   bordercolor="#666666"
   borderopacity="1"
   objecttolerance="10"
   gridtolerance="10"
   guidetolerance="10"
   inkscape:pageopacity="0"
   inkscape:pageshadow="2"
   inkscape:window-width="1280"
   inkscape:window-height="1004"
   id="namedview38"
   showgrid="false"
   fit-margin-top="0"
   fit-margin-left="0"
   fit-margin-right="0"
   fit-margin-bottom="0"
   inkscape:zoom="2.3017545"
   inkscape:cx="101.05328"
   inkscape:cy="129.1349"
   inkscape:window-x="-8"
   inkscape:window-y="-8"
   inkscape:window-maximized="1"
   inkscape:current-layer="svg2" />
<defs
   id="defs4">
</defs>
<path
   d="M 4.0972474,132.38775 133.38125,3.10575 c 5.471,-5.473 14.42,-5.473 19.894,0 l 129.285,129.282 c 5.47,5.471 5.47,14.424 0,19.889 l -129.286,129.287 c -5.474,5.471 -14.423,5.471 -19.894,0 L 4.0972474,152.27675 c -5.463,-5.464 -5.463,-14.418 0,-19.889 z"
   id="path6"
   style="fill:#ffd033;stroke:none;fill-opacity:1"
   inkscape:connector-curvature="0" />

<path
   clip-rule="evenodd"
   d="M 7.2212474,134.44075 135.44025,6.22175 c 4.337,-4.339 11.443,-4.339 15.788,0 l 128.216,128.219 c 4.339,4.344 4.339,11.441 0,15.777 l -128.217,128.227 c -4.345,4.335 -11.451,4.335 -15.788,0 L 7.2212474,150.21775 c -4.337,-4.336 -4.337,-11.433 0,-15.777"
   id="path10"
   inkscape:connector-curvature="0"
   style="fill:#000000;fill-rule:evenodd;stroke:none" />
<path
   clip-rule="evenodd"
   d="M 11.225247,138.39075 139.39025,10.22975 c 2.154,-2.169 5.72,-2.169 7.883,0 l 128.163,128.162 c 2.167,2.167 2.167,5.716 0,7.882 l -128.163,128.163 c -2.163,2.167 -5.729,2.167 -7.883,0 L 11.225247,146.27375 c -2.1659996,-2.166 -2.1659996,-5.716 0,-7.883"
   id="path12"
   inkscape:connector-curvature="0"
   style="fill:#ffd033;fill-rule:evenodd;stroke:none;fill-opacity:1" />
<path
   d="m 84.314247,190.41775 c -1.915,1.708 -4.606,2.691 -7.557,2.691 -5.953,0 -10.3,-3.52 -12.629,-8.799 l 5.228,-1.915 c 1.449,3.261 4.141,5.124 7.402,5.124 3.209,0 5.383,-2.226 5.383,-5.124 0,-4.606 -5.383,-5.383 -9.886,-7.194 -2.07,-0.828 -6.677,-2.898 -6.677,-8.645 0,-6.78 4.606,-9.368 10.818,-9.368 4.865,0 8.178,2.795 9.886,7.091 l -4.865,1.449 c 0,0 -1.242,-2.95 -5.124,-3.054 -0.155,0 -0.259,0 -0.362,0 -2.381,0 -4.969,0.932 -4.969,3.675 0,0.104 0,0.26 0,0.363 0.466,6.418 16.77,2.174 16.77,15.786 -0.002,3.158 -1.244,5.953 -3.418,7.92 z"
   id="path14"
   inkscape:connector-curvature="0"
   style="fill:#000000;stroke:none" />
<path
   d="m 106.51825,162.67475 v 29.813 h -5.487 v -29.813 h -7.919003 v -4.865 h 21.428003 v 4.865 h -8.022 z"
   id="path16"
   inkscape:connector-curvature="0"
   style="fill:#000000;stroke:none" />
<path
   d="m 139.90225,192.48775 -5.59,-15.113 h -6.574 v 15.113 h -5.486 v -34.679 h 11.439 c 2.691,0 4.503,0.259 6.211,1.087 3.054,1.449 5.228,5.124 5.228,8.645 0,3.675 -2.174,7.298 -5.383,8.747 l 6.107,16.2 h -5.952 z m -2.432,-28.571 c -0.932,-0.518 -1.346,-0.621 -3.157,-0.621 h -6.574 v 8.489 h 6.574 c 1.708,0 2.277,-0.104 3.157,-0.569 1.346,-0.776 2.174,-2.226 2.174,-3.675 0,-1.449 -0.829,-2.899 -2.174,-3.624 z"
   id="path18"
   inkscape:connector-curvature="0"
   style="fill:#000000;stroke:none" />
<path
   d="m 154.29125,192.48775 v -34.679 h 5.59 v 34.679 h -5.59 z"
   id="path20"
   inkscape:connector-curvature="0"
   style="fill:#000000;stroke:none" />
<path
   d="m 189.01925,176.18475 c -1.604,0.725 -3.675,1.19 -6.366,1.19 h -6.418 v 15.113 h -5.486 v -34.679 h 11.904 c 2.795,0 4.658,0.259 6.366,1.087 3.002,1.449 5.332,5.124 5.332,8.645 0,3.675 -2.33,7.298 -5.332,8.644 z m -2.329,-12.268 c -0.983,-0.518 -1.604,-0.621 -3.313,-0.621 h -7.143 v 8.489 h 7.143 c 1.708,0 2.329,-0.104 3.313,-0.569 1.19,-0.621 2.07,-2.226 2.07,-3.675 0,-1.449 -0.879,-2.899 -2.07,-3.624 z"
   id="path22"
   inkscape:connector-curvature="0"
   style="fill:#000000;stroke:none" />
<path
   d="m 219.81625,190.41775 c -1.915,1.708 -4.606,2.691 -7.557,2.691 -5.952,0 -10.3,-3.52 -12.629,-8.799 l 5.228,-1.915 c 1.449,3.261 4.141,5.124 7.401,5.124 3.209,0 5.383,-2.226 5.383,-5.124 0,-4.606 -5.383,-5.383 -9.886,-7.194 -2.07,-0.828 -6.677,-2.898 -6.677,-8.645 0,-6.78 4.606,-9.368 10.817,-9.368 4.865,0 8.178,2.795 9.886,7.091 l -4.865,1.449 c 0,0 -1.242,-2.95 -5.124,-3.054 -0.155,0 -0.259,0 -0.362,0 -2.381,0 -4.969,0.932 -4.969,3.675 0,0.104 0,0.26 0,0.363 0.466,6.418 16.77,2.174 16.77,15.786 0,3.158 -1.242,5.953 -3.416,7.92 z"
   id="path24"
   inkscape:connector-curvature="0"
   style="fill:#000000;stroke:none" />
<path
   d="m 70.956247,139.99175 -5.59,-15.114 h -6.574 v 15.114 h -5.486 v -34.678 h 11.439 c 2.691,0 4.503,0.259 6.211,1.087 3.054,1.449 5.228,5.124 5.228,8.644 0,3.675 -2.174,7.298 -5.383,8.747 l 6.107,16.201 h -5.952 z m -2.432,-28.571 c -0.932,-0.518 -1.346,-0.621 -3.157,-0.621 h -6.574 v 8.488 h 6.574 c 1.708,0 2.277,-0.104 3.157,-0.569 1.346,-0.776 2.174,-2.226 2.174,-3.675 0,-1.449 -0.829,-2.898 -2.174,-3.623 z"
   id="path26"
   inkscape:connector-curvature="0"
   style="fill:#000000;stroke:none" />
<path
   d="m 106.04825,134.76375 c -1.812,3.416 -5.952,5.849 -10.196003,5.849 -4.245,0 -8.385,-2.433 -10.249,-5.849 -0.932,-2.07 -1.553,-4.503 -1.553,-7.194 v -22.256 h 5.486 v 22.256 c 0,4.503 2.536,7.453 6.315,7.453 3.778,0 6.314003,-2.95 6.314003,-7.453 v -22.256 h 5.486 v 22.256 c 0.002,2.691 -0.619,5.124 -1.603,7.194 z"
   id="path28"
   inkscape:connector-curvature="0"
   style="fill:#000000;stroke:none" />
<path
   d="m 138.76025,139.99175 v -20.083 l -8.022,20.083 -8.023,-20.083 v 20.083 h -5.486 v -34.678 h 5.486 l 8.023,19.461 8.022,-19.461 h 5.486 v 34.678 h -5.486 z"
   id="path30"
   inkscape:connector-curvature="0"
   style="fill:#000000;stroke:none" />
<path
   d="m 171.83225,139.16375 c -1.242,0.466 -3.313,0.828 -4.865,0.828 h -13.146 v -34.678 h 13.146 c 5.486,0 9.628,3.778 9.628,8.747 0,3.416 -1.605,5.952 -4.866,7.815 3.623,1.708 5.694,4.606 5.694,8.385 0,3.779 -2.33,7.557 -5.591,8.903 z m -4.503,-28.364 h -8.022 v 8.488 h 6.573 c 1.553,0 2.277,-0.207 3.261,-0.932 1.242,-0.983 1.967,-2.433 1.967,-4.037 -0.001,-2.329 -1.346,-3.519 -3.779,-3.519 z m 1.19,14.337 c -0.725,-0.259 -1.087,-0.259 -2.277,-0.259 h -6.936 v 9.524 h 8.281 c 2.795,0 4.244,-1.346 4.244,-4.037 10e-4,-2.278 -1.345,-4.504 -3.312,-5.228 z"
   id="path32"
   inkscape:connector-curvature="0"
   style="fill:#000000;stroke:none" />
<path
   d="m 184.56425,139.99175 v -34.678 h 5.486 v 29.554 h 16.045 v 5.124 h -21.531 z"
   id="path34"
   inkscape:connector-curvature="0"
   style="fill:#000000;stroke:none" />
<path
   d="m 212.51425,139.99175 v -34.678 h 20.444 v 5.486 h -14.958 v 8.488 h 10.093 v 5.59 h -10.093 v 9.524 h 16.045 v 5.59 h -21.531 z"
   id="path36"
   inkscape:connector-curvature="0"
   style="fill:#000000;stroke:none" />
</svg>