<?xml version="1.0" encoding="UTF-8" standalone="no"?>
<svg
   xmlns:dc="http://purl.org/dc/elements/1.1/"
   xmlns:cc="http://creativecommons.org/ns#"
   xmlns:rdf="http://www.w3.org/1999/02/22-rdf-syntax-ns#"
   xmlns:svg="http://www.w3.org/2000/svg"
   xmlns="http://www.w3.org/2000/svg"
   xmlns:sodipodi="http://sodipodi.sourceforge.net/DTD/sodipodi-0.dtd"
   xmlns:inkscape="http://www.inkscape.org/namespaces/inkscape"
   width="156.5025"
   height="82.072495"
   viewBox="0 0 441.68491 231.62682"
   version="1.1"
   id="svg2"
   inkscape:version="0.48.2 r9819"
   sodipodi:docname="AJAX1.svg">
  <metadata
     id="metadata62">
    <rdf:RDF>
      <cc:Work
         rdf:about="">
        <dc:format>image/svg+xml</dc:format>
        <dc:type
           rdf:resource="http://purl.org/dc/dcmitype/StillImage" />
        <dc:title />
      </cc:Work>
    </rdf:RDF>
  </metadata>
  <defs
     id="defs60" />
  <sodipodi:namedview
     pagecolor="#ffffff"
     bordercolor="#666666"
     borderopacity="1"
     objecttolerance="10"
     gridtolerance="10"
     guidetolerance="10"
     inkscape:pageopacity="0"
     inkscape:pageshadow="2"
     inkscape:window-width="1280"
     inkscape:window-height="1004"
     id="namedview58"
     showgrid="false"
     fit-margin-top="0.1"
     fit-margin-left="0.1"
     fit-margin-right="0.1"
     fit-margin-bottom="0.1"
     inkscape:zoom="4.3365533"
     inkscape:cx="72.880259"
     inkscape:cy="44.807564"
     inkscape:window-x="-8"
     inkscape:window-y="-8"
     inkscape:window-maximized="1"
     inkscape:current-layer="svg2" />
  <!-- draw the bicycle -->
  <!-- RIGHT -->
  <!-- LANE -->
  <!-- ONLY -->
  <path
     inkscape:connector-curvature="0"
     d="m 441.40267,210.3402 c 0,11.5499 -9.45092,21.0044 -21.00792,21.0044 l -399.108138,0 c -11.5534697,0 -21.00438974,-9.4545 -21.00438974,-21.0044 l 0,-189.053595 c 0,-11.5570001 9.45092004,-21.00440015 21.00438974,-21.00440015 l 399.108138,0 c 11.557,0 21.00792,9.44740005 21.00792,21.00440015 l 0,189.053595 z"
     style="fill:#ffd033;fill-opacity:1;fill-rule:nonzero;stroke:none"
     id="path3736" />
  <path
     inkscape:connector-curvature="0"
     d="m 21.284862,228.7199 c -2.46591,0 -4.86833,-0.4904 -7.12611,-1.4535 -2.19075,-0.9242 -4.15572,-2.2542 -5.8525797,-3.9511 -1.69334,-1.6933 -3.02331,-3.6618 -3.95464,-5.849 -0.95603,-2.2613 -1.44639,-4.6602 -1.44639,-7.1261 l 0,-189.053695 c 0,-2.4694 0.49036,-4.8683 1.44639,-7.1296 0.93133,-2.1908 2.2613,-4.1557 3.95464,-5.8491001 1.6968597,-1.6933 3.6618297,-3.0233 5.8525797,-3.9546 2.25778,-0.9631 4.6602,-1.4464 7.12611,-1.4464 l 399.108138,0 c 2.46945,0 4.86833,0.4833 7.13317,1.4464 2.18369,0.9313 4.15572,2.2613 5.84905,3.9546 1.69334,1.6934001 3.02331,3.6583001 3.95112,5.8491001 0.96308,2.2613 1.44639,4.6602 1.44639,7.1296 l 0,189.053695 c 0,2.4659 -0.48331,4.8648 -1.44639,7.1261 -0.92781,2.1872 -2.25778,4.1557 -3.95112,5.849 -1.69333,1.6969 -3.66536,3.0269 -5.84905,3.9511 -2.26484,0.9631 -4.66372,1.4535 -7.13317,1.4535 l -399.108138,0 z"
     style="fill:#000000;fill-opacity:1;fill-rule:nonzero;stroke:none"
     id="path3760" />
  <path
     inkscape:connector-curvature="0"
     d="m 21.284862,224.3419 c -1.87677,0 -3.70063,-0.3704 -5.41866,-1.1006 -1.66864,-0.7091 -3.17148,-1.7216 -4.46617,-3.0198 -1.29469,-1.2947 -2.3071697,-2.7976 -3.0162497,-4.4627 -0.73025,-1.7215 -1.1042,-3.5419 -1.1042,-5.4186 l 0,-189.053695 c 0,-1.8768 0.37395,-3.7006 1.1042,-5.4186 0.70908,-1.6687 1.7215597,-3.1715 3.0162497,-4.4662 1.29469,-1.2947 2.79753,-2.3107001 4.46617,-3.0198001 1.71803,-0.7302 3.54189,-1.1007 5.41866,-1.1007 l 399.108138,0 c 1.88031,0 3.70064,0.3705 5.4222,1.1007 1.66511,0.7091 3.16794,1.7251001 4.46264,3.0198001 1.29469,1.2947 2.31069,2.7975 3.0233,4.4662 0.73025,1.718 1.09714,3.5418 1.09714,5.4186 l 0,189.053695 c 0,1.8767 -0.36689,3.6971 -1.09714,5.4186 -0.71261,1.6651 -1.72861,3.168 -3.0233,4.4627 -1.2947,1.2982 -2.79753,2.3107 -4.46264,3.0198 -1.72156,0.7302 -3.54189,1.1006 -5.4222,1.1006 l -399.108138,0 z"
     style="fill:#ffd033;fill-opacity:1;fill-rule:nonzero;stroke:none"
     id="path3764" />
  <path
     inkscape:connector-curvature="0"
     d="m 273.50407,198.0847 0,-28.007 20.51051,0 0,5.0094 -15.38464,0 0,5.2105 8.38553,0 0,5.1083 -8.38553,0 0,7.6658 15.87853,0 0,5.013 -21.0044,0 z"
     style="fill:#000000;fill-opacity:1;fill-rule:nonzero;stroke:none"
     id="path3768" />
  <path
     inkscape:connector-curvature="0"
     d="m 235.41183,170.0766 5.0412,0 0,28.007 -5.0412,0 0,-28.007 z"
     style="fill:#000000;fill-opacity:1;fill-rule:nonzero;stroke:none"
     id="path3770" />
  <path
     inkscape:connector-curvature="0"
     d="m 247.7347,198.0847 0,-28.007 5.03061,0 0,23.6819 15.97731,0 0,4.3251 -21.00792,0 z"
     style="fill:#000000;fill-opacity:1;fill-rule:nonzero;stroke:none"
     id="path3774" />
  <path
     inkscape:connector-curvature="0"
     d="m 223.19866,198.0847 0,-17.1027 -8.29028,17.1027 -8.18797,-17.1027 0,17.1027 -4.92831,0 0,-28.007 4.92831,0 8.18797,16.6087 8.29028,-16.6087 4.93536,0 0,28.007 -4.93536,0 z"
     style="fill:#000000;fill-opacity:1;fill-rule:nonzero;stroke:none"
     id="path3778" />
  <path
     inkscape:connector-curvature="0"
     d="m 152.45048,205.0838 0.14464,-31.3972 -5.27403,0 -0.14817,-6.0431 c 3.22439,-0.7373 4.98475,-1.9156 6.59695,-4.5685 l 6.00781,0 0,42.0088 -7.3272,0 z"
     style="fill:#000000;fill-opacity:1;fill-rule:nonzero;stroke:none"
     id="path3782" />
  <path
     inkscape:connector-curvature="0"
     d="m 217.35596,45.762305 -4.9142,11.7933 9.82486,0 -4.91066,-11.7933 z m 11.05253,26.2855 -3.43959,-8.2304 -15.22942,0 -3.43958,8.2304 -6.87564,0 14.73906,-35.0062 6.38175,0 14.61558,35.0062 -6.75216,0 z"
     style="fill:#000000;fill-opacity:1;fill-rule:nonzero;stroke:none"
     id="path3786" />
  <path
     inkscape:connector-curvature="0"
     d="m 296.94791,45.762305 -4.91419,11.7933 9.82839,0 -4.9142,-11.7933 z m 11.05253,26.2855 -3.43958,-8.2304 -15.22589,0 -3.43959,8.2304 -6.87564,0 14.73553,-35.0062 6.38528,0 14.61559,35.0062 -6.7557,0 z"
     style="fill:#000000;fill-opacity:1;fill-rule:nonzero;stroke:none"
     id="path3790" />
  <path
     inkscape:connector-curvature="0"
     d="m 186.85301,72.047805 -16.77812,-24.0771 0,24.0771 -6.16655,0 0,-35.0062 6.16655,0 16.16076,23.0893 0,-23.0893 6.04661,0 0,35.0062 -5.42925,0 z"
     style="fill:#000000;fill-opacity:1;fill-rule:nonzero;stroke:none"
     id="path3794" />
  <path
     inkscape:connector-curvature="0"
     d="m 104.17425,43.303405 -10.082388,0 0,8.7242 10.082388,0 c 3.06916,0 5.03414,-1.7215 5.03414,-4.3003 0,-2.7023 -1.96498,-4.4239 -5.03414,-4.4239 m 5.03414,28.7444 -5.64798,-13.7549 -9.468548,0 0,13.7549 -6.26181,0 0,-35.0062 16.224248,0 c 2.57528,0 4.16984,0.3669 6.01486,1.4746 3.31259,1.8415 5.40103,5.2811 5.40103,9.2111 0,3.9299 -2.08844,7.373 -5.64797,9.3345 l 6.38528,14.986 -6.99911,0 z"
     style="fill:#000000;fill-opacity:1;fill-rule:nonzero;stroke:none"
     id="path3798" />
  <path
     inkscape:connector-curvature="0"
     d="m 138.79727,72.661605 c -8.26911,0 -14.18872,-6.1383 -14.18872,-14.7391 l 0,-20.8809 6.29356,0 0,20.8809 c 0,2.0885 0.24341,3.1962 1.10772,4.5473 1.35819,2.3319 3.94758,3.8065 6.78744,3.8065 2.83634,0 5.42573,-1.4746 6.78392,-3.8065 0.86431,-1.3511 1.10772,-2.5823 1.10772,-4.5473 l 0,-20.8809 6.29709,0 0,20.8809 c 0,8.6008 -5.92314,14.7391 -14.18873,14.7391"
     style="fill:#000000;fill-opacity:1;fill-rule:nonzero;stroke:none"
     id="path3802" />
  <path
     inkscape:connector-curvature="0"
     d="m 269.38716,72.047805 -6.64281,0 -5.65503,-23.4598 -5.53508,23.4598 -6.63928,0 -6.39233,-35.0062 6.51933,0 3.81,22.6025 5.16467,-22.6025 6.27239,0 5.40808,22.6025 3.56659,-22.6025 6.39233,0 -6.26886,35.0062 z"
     style="fill:#000000;fill-opacity:1;fill-rule:nonzero;stroke:none"
     id="path3806" />
  <path
     inkscape:connector-curvature="0"
     d="m 339.11581,57.799105 0,14.2487 -6.2618,0 0,-14.2487 -14.73906,-20.7575 7.73642,0 10.19527,14.2487 10.06476,-14.2487 7.73994,0 -14.73553,20.7575 z"
     style="fill:#000000;fill-opacity:1;fill-rule:nonzero;stroke:none"
     id="path3810" />
  <path
     inkscape:connector-curvature="0"
     d="m 302.88728,108.7829 -4.9142,11.7863 9.82487,0 -4.91067,-11.7863 z m 11.05253,26.2854 -3.43959,-8.2303 -15.22589,0 -3.43958,8.2303 -6.87917,0 14.73906,-35.00959 6.38528,0 14.61558,35.00959 -6.75569,0 z"
     style="fill:#000000;fill-opacity:1;fill-rule:nonzero;stroke:none"
     id="path3814" />
  <path
     inkscape:connector-curvature="0"
     d="m 164.70104,135.6818 c -9.21103,0 -14.86253,-7.2496 -14.86253,-18.1822 0,-11.056 5.6515,-18.055095 14.86253,-18.055095 5.6515,0 10.81264,2.825695 13.51139,7.736395 l -5.5245,2.9492 c -0.98777,-1.4746 -1.47461,-1.965 -2.46239,-2.5788 -1.34761,-1.1077 -3.67947,-1.845 -5.5245,-1.845 -6.38528,0 -8.47372,6.2688 -8.47372,11.6734 0,7.6129 3.19264,12.0368 8.47372,12.0368 3.19264,0 4.9142,-1.1042 7.98689,-4.4239 l 5.5245,2.9493 c -2.5788,4.9141 -7.85989,7.7399 -13.51139,7.7399"
     style="fill:#000000;fill-opacity:1;fill-rule:nonzero;stroke:none"
     id="path3818" />
  <path
     inkscape:connector-curvature="0"
     d="m 209.80439,135.068 -8.9923,-18.1822 -6.65692,8.3573 0,9.8249 -6.27945,0 0,-35.00969 6.27945,0 0,15.22939 12.446,-15.22939 8.13153,0 -9.36272,11.42289 11.57816,23.5868 -7.14375,0 z"
     style="fill:#000000;fill-opacity:1;fill-rule:nonzero;stroke:none"
     id="path3822" />
  <path
     inkscape:connector-curvature="0"
     d="m 354.59466,135.068 0,-21.3748 -10.35756,21.3748 -10.23761,-21.3748 0,21.3748 -6.16656,0 0,-35.00969 6.16656,0 10.23761,20.76099 10.35756,-20.76099 6.16655,0 0,35.00969 -6.16655,0 z"
     style="fill:#000000;fill-opacity:1;fill-rule:nonzero;stroke:none"
     id="path3826" />
  <path
     inkscape:connector-curvature="0"
     d="m 388.64122,106.3201 -10.57275,0 0,8.7242 10.57275,0 c 3.07269,0 5.15761,-1.718 5.15761,-4.3003 0,-2.6988 -2.08492,-4.4239 -5.15761,-4.4239 m 6.01486,13.6349 c -1.96144,1.1077 -3.556,1.3511 -6.25828,1.3511 l -10.32933,0 0,13.7619 -6.38175,0 0,-35.00969 16.71108,0 c 2.70228,0 4.29684,0.36689 6.25828,1.47459 3.31611,1.8415 5.40456,5.2811 5.40456,9.2111 0,3.6865 -2.08845,7.3695 -5.40456,9.211"
     style="fill:#000000;fill-opacity:1;fill-rule:nonzero;stroke:none"
     id="path3830" />
  <path
     inkscape:connector-curvature="0"
     d="m 91.365222,106.3201 -10.08239,0 0,8.7242 10.08239,0 c 3.06917,0 5.03414,-1.718 5.03414,-4.3003 0,-2.6988 -1.96497,-4.4239 -5.03414,-4.4239 m 5.03414,28.7479 -5.64797,-13.7619 -9.46856,0 0,13.7619 -6.2618,0 0,-35.00969 16.22072,0 c 2.57881,0 4.17336,0.36689 6.01839,1.47459 3.312578,1.8415 5.401028,5.2811 5.401028,9.2111 0,3.9299 -2.08845,7.3695 -5.647968,9.338 l 6.381748,14.986 -6.995588,0 z"
     style="fill:#000000;fill-opacity:1;fill-rule:nonzero;stroke:none"
     id="path3834" />
  <path
     inkscape:connector-curvature="0"
     d="m 268.30201,106.3201 -10.07886,0 0,8.7242 10.07886,0 c 3.0727,0 5.03767,-1.718 5.03767,-4.3003 0,-2.6988 -1.96497,-4.4239 -5.03767,-4.4239 m 5.03767,28.7479 -5.6515,-13.7619 -9.46503,0 0,13.7619 -6.26533,0 0,-35.00969 16.22425,0 c 2.57528,0 4.16983,0.36689 6.01486,1.47459 3.31258,1.8415 5.40103,5.2811 5.40103,9.2111 0,3.9299 -2.08845,7.3695 -5.64445,9.338 l 6.38175,14.986 -6.99558,0 z"
     style="fill:#000000;fill-opacity:1;fill-rule:nonzero;stroke:none"
     id="path3838" />
  <path
     inkscape:connector-curvature="0"
     d="m 57.820292,106.2002 0,28.8678 -6.13834,0 0,-28.8678 -10.06122,0 0,-6.14189 26.26078,0 0,6.14189 -10.06122,0 z"
     style="fill:#000000;fill-opacity:1;fill-rule:nonzero;stroke:none"
     id="path3842" />
  <path
     inkscape:connector-curvature="0"
     d="m 125.98509,135.6818 c -8.26559,0 -14.18873,-6.1419 -14.18873,-14.7391 l 0,-20.88439 6.29709,0 0,20.88439 c 0,2.0885 0.24341,3.1927 1.10772,4.5438 1.35819,2.3319 3.94758,3.8065 6.78392,3.8065 2.83986,0 5.42925,-1.4746 6.78744,-3.8065 0.86431,-1.3511 1.10773,-2.5823 1.10773,-4.5438 l 0,-20.88439 6.29355,0 0,20.88439 c 0,8.5972 -5.91961,14.7391 -14.18872,14.7391"
     style="fill:#000000;fill-opacity:1;fill-rule:nonzero;stroke:none"
     id="path3846" />
</svg>
