<?xml version="1.0" encoding="UTF-8" standalone="no"?>
<svg
   xmlns:dc="http://purl.org/dc/elements/1.1/"
   xmlns:cc="http://creativecommons.org/ns#"
   xmlns:rdf="http://www.w3.org/1999/02/22-rdf-syntax-ns#"
   xmlns:svg="http://www.w3.org/2000/svg"
   xmlns="http://www.w3.org/2000/svg"
   xmlns:sodipodi="http://sodipodi.sourceforge.net/DTD/sodipodi-0.dtd"
   xmlns:inkscape="http://www.inkscape.org/namespaces/inkscape"
   width="156.50375"
   height="96.95874"
   viewBox="0 0 441.68844 273.63911"
   version="1.1"
   id="svg2"
   inkscape:version="0.48.2 r9819"
   sodipodi:docname="AJAX1.svg">
  <metadata
     id="metadata62">
    <rdf:RDF>
      <cc:Work
         rdf:about="">
        <dc:format>image/svg+xml</dc:format>
        <dc:type
           rdf:resource="http://purl.org/dc/dcmitype/StillImage" />
        <dc:title />
      </cc:Work>
    </rdf:RDF>
  </metadata>
  <defs
     id="defs60" />
  <sodipodi:namedview
     pagecolor="#ffffff"
     bordercolor="#666666"
     borderopacity="1"
     objecttolerance="10"
     gridtolerance="10"
     guidetolerance="10"
     inkscape:pageopacity="0"
     inkscape:pageshadow="2"
     inkscape:window-width="1280"
     inkscape:window-height="1004"
     id="namedview58"
     showgrid="false"
     fit-margin-top="0.1"
     fit-margin-left="0.1"
     fit-margin-right="0.1"
     fit-margin-bottom="0.1"
     inkscape:zoom="24.53125"
     inkscape:cx="151.64902"
     inkscape:cy="8.8528405"
     inkscape:window-x="-8"
     inkscape:window-y="-8"
     inkscape:window-maximized="1"
     inkscape:current-layer="svg2" />
  <!-- draw the bicycle -->
  <!-- RIGHT -->
  <!-- LANE -->
  <!-- ONLY -->
  <path
     inkscape:connector-curvature="0"
     d="m 441.40622,252.3561 c 0,11.5464 -9.4545,21.0008 -21.0079,21.0008 l -399.111708,0 c -11.5534697,0 -21.00438973,-9.4544 -21.00438973,-21.0008 l 0,-231.069499 c 0,-11.5499006 9.45092003,-21.00440063 21.00438973,-21.00440063 l 399.111708,0 c 11.5534,0 21.0079,9.45450003 21.0079,21.00440063 l 0,231.069499 z"
     style="fill:#ffd033;fill-opacity:1;fill-rule:nonzero;stroke:none"
     id="path3850" />
  <path
     inkscape:connector-curvature="0"
     d="m 21.286612,270.7326 c -2.46591,0 -4.86833,-0.4903 -7.12964,-1.4499 -2.18722,-0.9278 -4.15219,-2.2578 -5.8490497,-3.9546 -1.69334,-1.6934 -3.02331,-3.6583 -3.95464,-5.8491 -0.95956,-2.2613 -1.44639,-4.6567 -1.44639,-7.1226 l 0,-231.069499 c 0,-2.4694 0.48683,-4.8648 1.44639,-7.1261 0.93133,-2.1907 2.2613,-4.155701 3.95464,-5.8526006 1.6968597,-1.6898 3.6618297,-3.0197 5.8490497,-3.9511 2.26131,-0.9595 4.66373,-1.4499 7.12964,-1.4499 l 399.111708,0 c 2.4659,0 4.8648,0.4904 7.1296,1.4499 2.1837,0.9314 4.1557,2.2613 5.8491,3.9511 1.6933,1.6968996 3.0233,3.6619006 3.9511,5.8526006 0.9631,2.2613 1.4499,4.6567 1.4499,7.1261 l 0,231.069499 c 0,2.4659 -0.4868,4.8613 -1.4499,7.1226 -0.9278,2.1908 -2.2578,4.1557 -3.9511,5.8491 -1.6934,1.6968 -3.6654,3.0268 -5.8491,3.9546 -2.2648,0.9596 -4.6637,1.4499 -7.1296,1.4499 l -399.111708,0 z"
     style="fill:#000000;fill-opacity:1;fill-rule:nonzero;stroke:none"
     id="path3858" />
  <path
     inkscape:connector-curvature="0"
     d="m 21.286612,266.3546 c -1.87677,0 -3.70064,-0.3704 -5.41866,-1.1006 -1.66864,-0.7091 -3.17148,-1.7251 -4.46617,-3.0198 -1.2947,-1.2947 -2.3071697,-2.7975 -3.0162497,-4.4626 -0.73378,-1.7181 -1.1042,-3.5419 -1.1042,-5.4152 l 0,-231.069499 c 0,-1.8767 0.37042,-3.7006 1.1042,-5.4186 0.70908,-1.6651 1.7215497,-3.168 3.0162497,-4.4627 1.29469,-1.294701 2.79753,-2.3142006 4.46617,-3.0197006 1.71802,-0.7303 3.54189,-1.1007 5.41866,-1.1007 l 399.111708,0 c 1.8767,0 3.6971,0.3704 5.4186,1.1007 1.6651,0.7055 3.168,1.7249996 4.4627,3.0197006 1.2947,1.2947 2.3142,2.7976 3.0233,4.4627 0.7302,1.718 1.0971,3.5419 1.0971,5.4186 l 0,231.069499 c 0,1.8733 -0.3669,3.6971 -1.0971,5.4152 -0.7091,1.6651 -1.7286,3.1679 -3.0233,4.4626 -1.2947,1.2947 -2.7976,2.3107 -4.4627,3.0198 -1.7215,0.7302 -3.5419,1.1006 -5.4186,1.1006 l -399.111708,0 z"
     style="fill:#ffd033;fill-opacity:1;fill-rule:nonzero;stroke:none"
     id="path3862" />
  <path
     inkscape:connector-curvature="0"
     d="m 217.35702,47.516001 -4.9142,11.7898 9.8213,0 -4.9071,-11.7898 z m 11.0525,26.2854 -3.4396,-8.2267 -15.2294,0 -3.4396,8.2267 -6.8756,0 14.739,-35.0096 6.3818,0 14.6156,35.0096 -6.7522,0 z"
     style="fill:#000000;fill-opacity:1;fill-rule:nonzero;stroke:none"
     id="path3866" />
  <path
     inkscape:connector-curvature="0"
     d="m 296.94722,47.516001 -4.9106,11.7898 9.8248,0 -4.9142,-11.7898 z m 11.0526,26.2854 -3.4361,-8.2267 -15.2294,0 -3.4361,8.2267 -6.8791,0 14.7355,-35.0096 6.3888,0 14.612,35.0096 -6.7556,0 z"
     style="fill:#000000;fill-opacity:1;fill-rule:nonzero;stroke:none"
     id="path3870" />
  <path
     inkscape:connector-curvature="0"
     d="m 186.85232,73.801501 -16.7746,-24.0736 0,24.0736 -6.1701,0 0,-35.0097 6.1701,0 16.1608,23.0964 0,-23.0964 6.043,0 0,35.0097 -5.4292,0 z"
     style="fill:#000000;fill-opacity:1;fill-rule:nonzero;stroke:none"
     id="path3874" />
  <path
     inkscape:connector-curvature="0"
     d="m 104.17532,45.057101 -10.085898,0 0,8.7207 10.085898,0 c 3.0691,0 5.0341,-1.7216 5.0341,-4.2968 0,-2.7023 -1.965,-4.4239 -5.0341,-4.4239 m 5.0341,28.7444 -5.648,-13.7584 -9.471998,0 0,13.7584 -6.25832,0 0,-35.0097 16.224218,0 c 2.5753,0 4.1699,0.3669 6.0149,1.4746 3.3126,1.8415 5.401,5.2776 5.401,9.2146 0,3.9264 -2.0884,7.373 -5.6515,9.3345 l 6.3888,14.986 -6.9991,0 z"
     style="fill:#000000;fill-opacity:1;fill-rule:nonzero;stroke:none"
     id="path3878" />
  <path
     inkscape:connector-curvature="0"
     d="m 138.79692,74.415301 c -8.2656,0 -14.1887,-6.1384 -14.1887,-14.7391 l 0,-20.8844 6.2935,0 0,20.8844 c 0,2.0885 0.2434,3.1927 1.1077,4.5403 1.3582,2.3389 3.9512,3.8135 6.7875,3.8135 2.8363,0 5.4257,-1.4746 6.7839,-3.8135 0.8643,-1.3476 1.1113,-2.5753 1.1113,-4.5403 l 0,-20.8844 6.2935,0 0,20.8844 c 0,8.6007 -5.9231,14.7391 -14.1887,14.7391"
     style="fill:#000000;fill-opacity:1;fill-rule:nonzero;stroke:none"
     id="path3882" />
  <path
     inkscape:connector-curvature="0"
     d="m 269.38822,73.801501 -6.6428,0 -5.655,-23.4598 -5.5351,23.4598 -6.6393,0 -6.3923,-35.0097 6.5193,0 3.81,22.6025 5.1612,-22.6025 6.2759,0 5.4081,22.6025 3.5665,-22.6025 6.3924,0 -6.2689,35.0097 z"
     style="fill:#000000;fill-opacity:1;fill-rule:nonzero;stroke:none"
     id="path3886" />
  <path
     inkscape:connector-curvature="0"
     d="m 339.11832,59.552801 0,14.2486 -6.2654,0 0,-14.2486 -14.739,-20.761 7.7399,0 10.1918,14.2487 10.0682,-14.2487 7.7365,0 -14.732,20.761 z"
     style="fill:#000000;fill-opacity:1;fill-rule:nonzero;stroke:none"
     id="path3890" />
  <path
     inkscape:connector-curvature="0"
     d="m 302.88802,110.5327 -4.9142,11.7898 9.8248,0 -4.9106,-11.7898 z m 11.0525,26.289 -3.4396,-8.2339 -15.2259,0 -3.4396,8.2339 -6.8791,0 14.739,-35.0097 6.3853,0 14.6156,35.0097 -6.7557,0 z"
     style="fill:#000000;fill-opacity:1;fill-rule:nonzero;stroke:none"
     id="path3894" />
  <path
     inkscape:connector-curvature="0"
     d="m 164.70142,137.432 c -9.2111,0 -14.8626,-7.2461 -14.8626,-18.1751 0,-11.0596 5.6515,-18.0587 14.8626,-18.0587 5.6515,0 10.8126,2.8257 13.5114,7.7364 l -5.5245,2.9492 c -0.9878,-1.4746 -1.4747,-1.9614 -2.4624,-2.5823 -1.3476,-1.1042 -3.6795,-1.8415 -5.5245,-1.8415 -6.3853,0 -8.4738,6.2653 -8.4738,11.6734 0,7.6129 3.1927,12.0368 8.4738,12.0368 3.1926,0 4.9142,-1.1077 7.9869,-4.4239 l 5.5245,2.9493 c -2.5788,4.9142 -7.8599,7.7364 -13.5114,7.7364"
     style="fill:#000000;fill-opacity:1;fill-rule:nonzero;stroke:none"
     id="path3898" />
  <path
     inkscape:connector-curvature="0"
     d="m 209.80402,136.8217 -8.9923,-18.1857 -6.6534,8.3573 0,9.8284 -6.2829,0 0,-35.0097 6.2829,0 0,15.233 12.4425,-15.233 8.1351,0 -9.3663,11.423 11.5817,23.5867 -7.1473,0 z"
     style="fill:#000000;fill-opacity:1;fill-rule:nonzero;stroke:none"
     id="path3902" />
  <path
     inkscape:connector-curvature="0"
     d="m 354.59462,136.8217 0,-21.3748 -10.354,21.3748 -10.2412,-21.3748 0,21.3748 -6.1665,0 0,-35.0097 6.1665,0 10.2412,20.7575 10.354,-20.7575 6.1666,0 0,35.0097 -6.1666,0 z"
     style="fill:#000000;fill-opacity:1;fill-rule:nonzero;stroke:none"
     id="path3906" />
  <path
     inkscape:connector-curvature="0"
     d="m 388.64472,108.0738 -10.5762,0 0,8.7242 10.5762,0 c 3.0692,0 5.1541,-1.7251 5.1541,-4.3004 0,-2.7022 -2.0849,-4.4238 -5.1541,-4.4238 m 6.0149,13.6349 c -1.965,1.1112 -3.5595,1.3511 -6.2618,1.3511 l -10.3293,0 0,13.7619 -6.3818,0 0,-35.0097 16.7111,0 c 2.7023,0 4.2968,0.3634 6.2618,1.4746 3.3126,1.838 5.401,5.2776 5.401,9.211 0,3.6866 -2.0884,7.3731 -5.401,9.2111"
     style="fill:#000000;fill-opacity:1;fill-rule:nonzero;stroke:none"
     id="path3910" />
  <path
     inkscape:connector-curvature="0"
     d="m 91.365932,108.0738 -10.08239,0 0,8.7242 10.08239,0 c 3.06919,0 5.03409,-1.7251 5.03409,-4.3004 0,-2.7022 -1.9649,-4.4238 -5.03409,-4.4238 m 5.03409,28.7479 -5.64792,-13.7619 -9.46856,0 0,13.7619 -6.26181,0 0,-35.0097 16.22073,0 c 2.57876,0 4.17336,0.3634 6.01836,1.4746 3.312598,1.838 5.401098,5.2776 5.401098,9.211 0,3.9265 -2.0885,7.3731 -5.647998,9.3345 l 6.381698,14.9896 -6.995598,0 z"
     style="fill:#000000;fill-opacity:1;fill-rule:nonzero;stroke:none"
     id="path3914" />
  <path
     inkscape:connector-curvature="0"
     d="m 268.30172,108.0738 -10.0789,0 0,8.7242 10.0789,0 c 3.0727,0 5.0376,-1.7251 5.0376,-4.3004 0,-2.7022 -1.9649,-4.4238 -5.0376,-4.4238 m 5.0376,28.7479 -5.6515,-13.7619 -9.465,0 0,13.7619 -6.2653,0 0,-35.0097 16.2242,0 c 2.5788,0 4.1734,0.3634 6.0149,1.4746 3.3161,1.838 5.401,5.2776 5.401,9.211 0,3.9265 -2.0849,7.3731 -5.6444,9.3345 l 6.3817,14.9896 -6.9956,0 z"
     style="fill:#000000;fill-opacity:1;fill-rule:nonzero;stroke:none"
     id="path3918" />
  <path
     inkscape:connector-curvature="0"
     d="m 57.820292,107.9503 0,28.8714 -6.13834,0 0,-28.8714 -10.06122,0 0,-6.1383 26.26078,0 0,6.1383 -10.06122,0 z"
     style="fill:#000000;fill-opacity:1;fill-rule:nonzero;stroke:none"
     id="path3922" />
  <path
     inkscape:connector-curvature="0"
     d="m 125.98402,137.432 c -8.2621,0 -14.1852,-6.1384 -14.1852,-14.7355 l 0,-20.8845 6.2936,0 0,20.8845 c 0,2.0849 0.2434,3.1891 1.1112,4.5402 1.3547,2.3354 3.9476,3.81 6.7804,3.81 2.8399,0 5.4328,-1.4746 6.7874,-3.81 0.8644,-1.3511 1.1113,-2.5788 1.1113,-4.5402 l 0,-20.8845 6.2936,0 0,20.8845 c 0,8.5971 -5.9232,14.7355 -14.1923,14.7355"
     style="fill:#000000;fill-opacity:1;fill-rule:nonzero;stroke:none"
     id="path3926" />
  <path
     inkscape:connector-curvature="0"
     d="m 250.69802,220.0243 c 0.021,-0.025 0.039,-0.053 0.056,-0.081 0.1059,-0.194 0.1835,-0.3845 0.2399,-0.5856 0,-0.021 0.014,-0.042 0.021,-0.056 l -0.01,0 c 0.014,-0.067 0.039,-0.1376 0.049,-0.2046 l 0.095,-0.6703 9.5462,-49.2689 0.127,-0.9314 c 0.1305,-0.9242 -0.1764,-1.8485 -0.7902,-2.4588 -0.7056,-0.7126 -1.6263,-1.016 -2.5083,-0.8432 l -0.6173,0.1235 -49.4172,9.6273 -0.8643,0.1376 c -0.5715,0.1305 -1.0124,0.3986 -1.4534,0.8396 -1.1007,1.0971 -1.143,2.9034 0,4.0464 0.1341,0.1305 0.3492,0.261 0.5292,0.3492 l 0.5291,0.2963 17.586,10.8127 -42.9966,39.4723 14.3899,14.3863 39.4758,-42.9049 0,-0.088 10.6504,17.3214 0.4409,0.635 c 0.1341,0.2188 0.2646,0.441 0.441,0.6139 1.1007,1.1006 2.9457,1.1006 4.0464,0 0.1799,-0.1729 0.3175,-0.3669 0.4339,-0.568"
     style="fill:#000000;fill-opacity:1;fill-rule:nonzero;stroke:none"
     id="path3930" />
</svg>
