<?xml version="1.0" encoding="UTF-8" standalone="no"?>
<!-- Generator: Adobe Illustrator 14.0.0, SVG Export Plug-In  -->

<svg
   xmlns:dc="http://purl.org/dc/elements/1.1/"
   xmlns:cc="http://creativecommons.org/ns#"
   xmlns:rdf="http://www.w3.org/1999/02/22-rdf-syntax-ns#"
   xmlns:svg="http://www.w3.org/2000/svg"
   xmlns="http://www.w3.org/2000/svg"
   xmlns:sodipodi="http://sodipodi.sourceforge.net/DTD/sodipodi-0.dtd"
   xmlns:inkscape="http://www.inkscape.org/namespaces/inkscape"
   version="1.1"
   x="0px"
   y="0px"
   width="162.68745"
   height="162.68745"
   viewBox="0 -0.321 162.68746 162.68749"
   enable-background="new 0 -0.321 144 120"
   xml:space="preserve"
   id="svg2"
   inkscape:version="0.48.2 r9819"
   sodipodi:docname="MUTCD R4-8b.svg"><metadata
   id="metadata44"><rdf:RDF><cc:Work
       rdf:about=""><dc:format>image/svg+xml</dc:format><dc:type
         rdf:resource="http://purl.org/dc/dcmitype/StillImage" /><dc:title></dc:title></cc:Work></rdf:RDF></metadata><sodipodi:namedview
   pagecolor="#ffffff"
   bordercolor="#666666"
   borderopacity="1"
   objecttolerance="10"
   gridtolerance="10"
   guidetolerance="10"
   inkscape:pageopacity="0"
   inkscape:pageshadow="2"
   inkscape:window-width="1280"
   inkscape:window-height="1004"
   id="namedview42"
   showgrid="false"
   fit-margin-top="0"
   fit-margin-left="0"
   fit-margin-right="0"
   fit-margin-bottom="0"
   inkscape:zoom="1.8952344"
   inkscape:cx="64.007679"
   inkscape:cy="44.137661"
   inkscape:window-x="-8"
   inkscape:window-y="-8"
   inkscape:window-maximized="1"
   inkscape:current-layer="svg2" />
<defs
   id="defs4">
</defs>


















<path
   inkscape:connector-curvature="0"
   d="m 10.461147,0.02541 141.750043,0 c 5.57625,0 10.125,4.54875 10.125,10.125 l 0,141.75003 c 0,5.57751 -4.54875,10.12626 -10.125,10.12626 l -141.750043,0 c -5.5762495,0 -10.12499954,-4.54875 -10.12499954,-10.12626 l 0,-141.75003 c 0,-5.57625 4.54875004,-10.125 10.12499954,-10.125"
   style="fill:#ffffff;fill-opacity:1;fill-rule:nonzero;stroke:#000000;stroke-width:0.70000017;stroke-miterlimit:4;stroke-opacity:1;stroke-dasharray:none"
   id="path4533" /><path
   inkscape:connector-curvature="0"
   d="m 10.494887,2.55666 16.3525,0 38.31376,0 44.155023,0 33.88125,0 8.05251,0 c 2.64375,0 5.15875,0.65875 6.8775,2.8475 1.51125,1.92 1.67625,4.05625 1.67625,6.3675 l 0,9.0975 0,35.12126 0,44.27501 0,37.30251 0,10.9975 c 0,1.67375 0.16375,3.48875 -0.21375,5.13375 -0.80125,3.47875 -4.07499,5.79626 -7.55875,5.79626 l -5.92375,0 -31.25875,0 -43.711283,0 -40.04375,0 -20.25876,0 c -3.1862495,0 -6.1924995,-1.68501 -7.4049995,-4.73876 -0.70875,-1.78 -0.56125,-3.6825 -0.56125,-5.555 l 0,-26.715 0,-42.47252 0,-42.10751 0,-25.62875 c 0,-1.30625 -0.0763,-2.6425 0.21875,-3.925 0.78625,-3.3875 3.9725,-5.775 7.4074995,-5.79625"
   style="fill:#000000;fill-opacity:1;fill-rule:evenodd;stroke:none"
   id="path4541" /><path
   inkscape:connector-curvature="0"
   d="m 10.548647,6.77541 16.37,0 38.34751,0 44.160023,0 33.825,0 7.97875,0 c 1.90876,0 3.84251,0.53125 4.28501,2.69875 0.295,1.4275 0.07,3.09375 0.07,4.535 l 0,11.41625 0,37.77501 0,44.24001 0,34.54751 0,8.58625 c 0,1.79625 -0.14375,3.62 -2.0725,4.43875 -1.30125,0.54875 -3.18626,0.26375 -4.54751,0.26375 l -10.8775,0 -37.18251,0 -44.291263,0 -35.24251,0 -9.17875,0 c -1.6975,0 -3.4399995,0.11 -4.5312495,-1.50375 -0.8475,-1.2575 -0.57375,-3.12125 -0.57375,-4.56125 l 0,-10.3225 0,-36.56376 0,-44.31876 0,-35.91251 0,-9.76 c 0,-1.58625 -0.235,-3.33 0.995,-4.56125 0.66,-0.65875 1.53875,-1.0025 2.4662495,-0.9975"
   style="fill:#ffffff;fill-opacity:1;fill-rule:evenodd;stroke:none"
   id="path4545" /><path
   inkscape:connector-curvature="0"
   d="m 142.95617,33.68791 -3.7625,0 -4.9,7.80875 -4.82875,-7.80875 -3.8325,0 7.09625,11.42876 0,8.80875 3.20125,0 0,-8.80875 7.02625,-11.42876 z m -22.64875,11.29001 -4.04876,0 2.05626,-5.68251 1.9925,5.68251 z m 6.53,8.9475 -6.95751,-20.23751 -3.19375,0 -6.9625,20.23751 3.41,0 1.9875,-5.68375 6.31876,0 1.9925,5.68375 3.405,0 z m -18.32251,-20.23751 -3.26375,0 -1.56,10.6475 -2.6275,-10.6475 -3.125003,0 -2.55875,10.6475 -1.56,-10.6475 -3.26875,0 2.98375,20.23751 2.83875,0 3.125,-12.99501 3.193753,12.99501 2.84375,0 2.97875,-20.23751 z m -25.773753,11.29001 -4.045,0 2.06,-5.68251 1.985,5.68251 z m 6.53625,8.9475 -6.96125,-20.23751 -3.195,0 -6.96126,20.23751 3.41126,0 1.98875,-5.68375 6.32125,0 1.985,5.68375 3.41125,0 z m -20.09626,0 0,-20.23751 -3.195,0 0,12.92001 -7.3875,-12.92001 -3.19375,0 0,20.23751 3.19375,0 0,-13.70751 7.73875,13.70751 2.84375,0 z m -18.5325,-7.24375 0,-12.99376 -3.1975,0 0,12.99376 c 0,2.62875 -1.4925,4.32875 -3.6925,4.32875 -2.20125,0 -3.69125,-1.7 -3.69125,-4.32875 l 0,-12.99376 -3.195,0 0,12.99376 c 0,1.56 0.35625,2.98 0.9225,4.18875 1.065,1.985 3.48125,3.41875 5.96375,3.41875 2.48625,0 4.9,-1.43375 5.9625,-3.41875 0.57125,-1.20875 0.9275,-2.62875 0.9275,-4.18875 m -20.7375,-7.31626 c 0,0.8525 -0.4975,1.705 -1.27375,2.13125 -0.50126,0.285 -0.85251,0.35625 -1.85126,0.35625 l -3.8325,0 0,-4.97125 3.8325,0 c 1.0675,0 1.35,0.0713 1.85126,0.3575 0.77625,0.42125 1.27375,1.27375 1.27375,2.12625 m 3.62125,14.56001 -3.55,-9.44626 c 1.8475,-0.85125 3.1225,-2.9825 3.1225,-5.11375 0,-2.05625 -1.275,-4.1875 -3.04875,-5.04125 -0.99625,-0.49625 -2.06126,-0.63625 -3.62126,-0.63625 l -6.675,0 0,20.23751 3.19375,0 0,-8.80875 3.8325,0 3.27001,8.80875 3.47625,0 z"
   style="fill:#000000;fill-opacity:1;fill-rule:evenodd;stroke:none"
   id="path4549" /><path
   inkscape:connector-curvature="0"
   d="m 142.36243,85.31917 c 0,-7.95375 -9.51375,-5.47125 -9.8,-9.23375 -0.14125,-1.845 1.63625,-2.41625 3.125,-2.34125 2.27125,0.0688 2.98375,1.775 2.98375,1.775 l 2.84,-0.8525 c -0.99375,-2.4875 -2.91,-4.1225 -5.7525,-4.1225 -3.6225,0 -6.32125,1.49375 -6.32125,5.47125 0,3.33375 2.69875,4.5425 3.90625,5.04125 2.63,1.06125 5.755,1.48875 5.755,4.18625 0,1.7075 -1.27875,2.98375 -3.125,2.98375 -1.91625,0 -3.48125,-1.0625 -4.33375,-2.98375 l -3.05375,1.1375 c 1.35,3.05501 3.90625,5.12501 7.3875,5.12501 1.70375,0 3.26375,-0.57875 4.40125,-1.5725 1.28,-1.13751 1.9875,-2.76876 1.9875,-4.61376 m -15.6925,5.82251 0,-3.26876 -9.37251,0 0,-5.5375 5.89251,0 0,-3.27125 -5.89251,0 0,-4.96875 8.73501,0 0,-3.195 -11.93126,0 0,20.24126 12.56876,0 z m -15.54751,0 0,-2.98376 -9.375,0 0,-17.2575 -3.193753,0 0,20.24126 12.568753,0 z m -16.972503,-4.12376 -3.05375,-1.1325 c -0.78125,1.63625 -1.775,2.34125 -3.125,2.34125 -1.41875,0 -2.34125,-0.495 -3.055,-1.56 -0.78125,-1.27625 -1.27625,-3.47875 -1.27625,-5.68125 0,-1.70375 0.285,-3.48125 0.78125,-4.69 0.7125,-1.775 1.775,-2.4825 3.41,-2.4825 1.56,0 2.2025,0.4275 3.335,2.12875 l 2.98375,-1.275 c -1.3475,-2.84375 -3.26875,-4.1225 -6.31875,-4.1225 -2.2725,0 -3.97625,0.78375 -5.185,2.2775 -1.42125,1.77 -2.27375,4.9675 -2.27375,8.16375 0,2.55875 0.5675,5.11 1.49,6.8875 1.27875,2.48501 3.2,3.63251 6.17875,3.63251 2.915,0 4.9,-1.50125 6.10875,-4.48751 m -18.11,-16.1175 -3.26501,0 0,20.24126 3.26501,0 0,-20.24126 z m -8.02001,20.24126 0,-20.24126 -3.19875,0 0,8.16375 -7.3825,0 0,-8.16375 -3.19625,0 0,20.24126 3.19625,0 0,-8.80626 7.3825,0 0,8.80626 3.19875,0 z m -17.1175,0 0,-3.26876 -9.3675,0 0,-5.5375 5.89375,0 0,-3.27125 -5.89375,0 0,-4.96875 8.73125,0 0,-3.195 -11.93125,0 0,20.24126 12.5675,0 z m -15.54625,-20.24126 -3.41125,0 -4.25751,13.49625 -4.33375,-13.49625 -3.335,0 6.39,20.24126 2.48251,0 6.465,-20.24126 z"
   style="fill:#000000;fill-opacity:1;fill-rule:evenodd;stroke:none"
   id="path4553" /><path
   inkscape:connector-curvature="0"
   d="m 113.55616,108.02418 -3.76625,0 -4.9,7.815 -4.825,-7.815 -3.835003,0 7.100003,11.435 0,8.8075 3.195,0 0,-8.8075 7.03125,-11.435 z m -14.628753,20.2425 0,-2.9825 -9.375,0 0,-17.26 -3.1925,0 0,20.2425 12.5675,0 z m -17.32375,0 0,-20.2425 -3.19875,0 0,12.925 -7.38251,-12.925 -3.19625,0 0,20.2425 3.19625,0 0,-13.7075 7.73876,13.7075 2.8425,0 z m -21.37501,-10.08625 c 0,1.565 -0.35625,3.5525 -0.78125,4.61375 -0.7075,1.77625 -1.63,2.56 -3.125,2.56 -1.27875,0 -2.13125,-0.4975 -2.76875,-1.56125 -0.78375,-1.27875 -1.2075,-3.48125 -1.2075,-5.6125 0,-1.70375 0.285,-3.55 0.78125,-4.75875 0.7125,-1.775 1.70625,-2.55375 3.26625,-2.4825 1.20875,0.0712 1.99,0.495 2.62625,1.56 0.78125,1.3475 1.20875,3.41125 1.20875,5.68125 m 3.19625,0 c 0,-2.55625 -0.49875,-5.11 -1.35,-6.885 -1.28,-2.4875 -3.055,-3.6225 -5.6125,-3.6225 -2.34125,0 -3.9725,0.7075 -5.18125,2.2725 -1.3475,1.91625 -2.2025,4.9 -2.2025,8.235 0,2.4125 0.56875,5.115 1.42125,6.8175 1.20875,2.4875 2.98375,3.6325 5.8225,3.6325 2.13125,0 3.765,-0.72 4.9,-2.285 1.41875,-1.775 2.2025,-4.96875 2.2025,-8.165"
   style="fill:#000000;fill-opacity:1;fill-rule:evenodd;stroke:none"
   id="path4557" /></svg>