<?xml version="1.0" encoding="UTF-8" standalone="no"?>
<svg
   xmlns:dc="http://purl.org/dc/elements/1.1/"
   xmlns:cc="http://creativecommons.org/ns#"
   xmlns:rdf="http://www.w3.org/1999/02/22-rdf-syntax-ns#"
   xmlns:svg="http://www.w3.org/2000/svg"
   xmlns="http://www.w3.org/2000/svg"
   xmlns:sodipodi="http://sodipodi.sourceforge.net/DTD/sodipodi-0.dtd"
   xmlns:inkscape="http://www.inkscape.org/namespaces/inkscape"
   width="48.095001"
   height="24.020004"
   viewBox="0 0 135.7348 67.789789"
   version="1.1"
   id="svg2"
   inkscape:version="0.48.2 r9819"
   sodipodi:docname="MUTCD W7-4c.svg">
  <metadata
     id="metadata62">
    <rdf:RDF>
      <cc:Work
         rdf:about="">
        <dc:format>image/svg+xml</dc:format>
        <dc:type
           rdf:resource="http://purl.org/dc/dcmitype/StillImage" />
        <dc:title></dc:title>
      </cc:Work>
    </rdf:RDF>
  </metadata>
  <defs
     id="defs60" />
  <sodipodi:namedview
     pagecolor="#ffffff"
     bordercolor="#666666"
     borderopacity="1"
     objecttolerance="10"
     gridtolerance="10"
     guidetolerance="10"
     inkscape:pageopacity="0"
     inkscape:pageshadow="2"
     inkscape:window-width="1280"
     inkscape:window-height="1004"
     id="namedview58"
     showgrid="false"
     fit-margin-top="0"
     fit-margin-left="0"
     fit-margin-right="0"
     fit-margin-bottom="0"
     inkscape:zoom="12.265625"
     inkscape:cx="18.311233"
     inkscape:cy="5.0476318"
     inkscape:window-x="-8"
     inkscape:window-y="-8"
     inkscape:window-maximized="1"
     inkscape:current-layer="svg2" />
  <!-- draw the bicycle -->
  <!-- RIGHT -->
  <!-- LANE -->
  <!-- ONLY -->
  <path
     inkscape:connector-curvature="0"
     d="m 11.33475,-5.1067202e-6 113.0653,0 c 6.24769,0 11.33475,4.9530000067202 11.33475,11.0560001067202 l 0,45.7447 c 0,6.0361 -5.08706,10.9891 -11.33475,10.9891 l -113.0653,0 C 5.09059,67.789795 0,62.836795 0,56.800695 l 0,-45.7447 C 0,4.9529949 5.09059,-5.1067202e-6 11.33475,-5.1067202e-6"
     style="fill:#ffd033;fill-opacity:1;fill-rule:evenodd;stroke:none"
     id="path3624" />
  <path
     inkscape:connector-curvature="0"
     d="m 124.33198,2.3000949 c 0.47625,0 0.94897,0 1.42522,0.067 0.47625,0.071 0.88547,0.2081 1.35819,0.2786 0.4057,0.1976 0.81492,0.3352 1.22061,0.4728 0.40923,0.2011 0.74436,0.4092 1.15359,0.6773 0.6103,0.4057 1.08655,0.8819 1.62983,1.3582 0.33867,0.4727 0.67733,0.8819 1.016,1.3547 0.20461,0.4092 0.40922,0.7443 0.61031,1.1571 0.13758,0.4092 0.27164,0.8149 0.40922,1.2206 0.13758,0.4057 0.20108,0.8149 0.20108,1.2876001 l 0.0706,0.882 0,46.2209 c -0.0706,0.4057 -0.0706,0.8114 -0.20461,1.2877 -0.067,0.4057 -0.20461,0.8149 -0.33867,1.2206 -0.13758,0.4057 -0.33867,0.7443 -0.54328,1.1571 -0.20461,0.3386 -0.40569,0.7443 -0.67733,1.083 -0.47625,0.5433 -0.9525,1.0195 -1.49225,1.4923 -0.3422,0.2716 -0.68086,0.5468 -1.09009,0.7443 -0.53975,0.2787 -1.016,0.5468 -1.55927,0.7514 -0.47273,0.1306 -0.87842,0.2681 -1.28764,0.3387 -0.47625,0.071 -0.88195,0.1305 -1.3582,0.2011 l -113.47098,0 c -0.47625,0 -0.9525,-0.071 -1.42523,-0.1305 -0.47629,-0.071 -0.88198,-0.1412 -1.35823,-0.2787 -0.4057,-0.1306 -0.81492,-0.2681 -1.22061,-0.4728 -0.40922,-0.201 -0.74789,-0.4092 -1.15711,-0.6067 -0.61031,-0.4763 -1.08303,-0.882 -1.62631,-1.4288 -0.34219,-0.4057 -0.67733,-0.8819 -1.01953,-1.3547 -0.20461,-0.3386 -0.40569,-0.7514 -0.6103,-1.09 -0.13406,-0.4057 -0.27164,-0.8114 -0.4057,-1.2206 -0.13758,-0.4057 -0.20461,-0.882 -0.20461,-1.2877 l -0.067,-0.8819 0,-46.2175 c 0.067,-0.4762 0.067,-0.8819001 0.20109,-1.2911001 0.0706,-0.4057 0.20461,-0.8114 0.34219,-1.2171 0.13406,-0.4092 0.33867,-0.822 0.53975,-1.1571 0.20461,-0.4092 0.41275,-0.7444 0.68086,-1.083 0.47625,-0.6139 0.94898,-1.0901 1.49578,-1.5628 0.33514,-0.2717 0.67381,-0.4763 1.08303,-0.6774 0.54328,-0.3457 1.016,-0.5433 1.5628,-0.7514 0.47273,-0.1976 0.88195,-0.2681 1.28764,-0.4057 0.47625,-0.071 0.88195,-0.1376 1.3582,-0.1376 l 113.47099,0 z"
     style="fill:#000000;fill-opacity:1;fill-rule:evenodd;stroke:none"
     id="path3632" />
  <path
     inkscape:connector-curvature="0"
     d="m 11.33475,5.6972949 113.0653,0 c 3.12208,0 5.63386,2.5083 5.63386,5.6304001 l 0,45.1979 c 0,3.1221 -2.51178,5.6374 -5.63386,5.6374 l -113.0653,0 c -3.12208,0 -5.63386,-2.5153 -5.63386,-5.6374 l 0,-45.1979 c 0,-3.1221001 2.51178,-5.6304001 5.63386,-5.6304001"
     style="fill:#ffd033;fill-opacity:1;fill-rule:evenodd;stroke:none"
     id="path3636" />
  <path
     inkscape:connector-curvature="0"
     d="m 109.87511,33.796095 c 0,3.7254 -0.94897,6.7839 -2.5788,8.4808 -0.81492,0.8114 -1.69687,1.0901 -3.18912,1.0901 l -4.47674,0 0,-19.1417 5.08705,0 c 1.15358,0 2.16958,0.4762 2.85397,1.15 1.35467,1.4958 2.30364,4.6849 2.30364,8.4208 m 4.54731,0 c 0,-5.5668 -1.69334,-9.9765 -4.68136,-12.5624 -1.49225,-1.2206 -2.57881,-1.4887 -5.42926,-1.4887 l -9.16163,0 0,28.1622 8.61483,0 1.62983,0 c 1.49225,-0.063 2.98803,-0.6067 4.07459,-1.5592 3.12208,-2.5153 4.953,-6.9251 4.953,-12.5519 m -25.85509,14.1111 0,-28.1622 -4.48028,0 0,17.9846 -10.31169,-17.9846 -4.48028,0 0,28.1622 4.48028,0 0,-19.0676 10.78794,19.0676 4.00403,0 z m -32.5755,-12.4848 -5.63386,0 2.84691,-7.8775 2.78695,7.8775 z m 9.09461,12.4848 -9.70492,-28.1622 -4.41325,0 -9.77194,28.1622 4.81541,0 2.71639,-7.9375 8.82298,0 2.78341,7.9375 4.75192,0 z m -26.06323,-8.1456 c 0,-10.989 -13.23269,-7.5318 -13.63839,-12.7529 -0.20461,-2.5859 2.23661,-3.3973 4.33917,-3.3302 3.18911,0.1411 4.14161,2.5153 4.14161,2.5153 l 4.00403,-1.2242 c -1.42522,-3.4607 -4.07106,-5.7009 -8.00806,-5.7009 -5.09058,0 -8.82297,2.0356 -8.82297,7.6024 0,4.6849 3.73239,6.3782 5.42925,7.0556 3.66536,1.4252 8.01159,1.9685 8.01159,5.7714 0,2.3707 -1.76742,4.1346 -4.34623,4.1346 -2.64936,0 -4.88597,-1.4888 -6.03603,-4.1346 l -4.27919,1.5593 c 1.90147,4.2792 5.42925,7.1931 10.31522,7.1931 2.3742,0 4.54731,-0.8149 6.11011,-2.2401 1.83092,-1.5558 2.77989,-3.8665 2.77989,-6.4488"
     style="fill:#000000;fill-opacity:1;fill-rule:evenodd;stroke:none"
     id="path3640" />
</svg>
