<?xml version="1.0" encoding="UTF-8" standalone="no"?>
<!-- Created with Inkscape (http://www.inkscape.org/) -->

<svg
   xmlns:dc="http://purl.org/dc/elements/1.1/"
   xmlns:cc="http://creativecommons.org/ns#"
   xmlns:rdf="http://www.w3.org/1999/02/22-rdf-syntax-ns#"
   xmlns:svg="http://www.w3.org/2000/svg"
   xmlns="http://www.w3.org/2000/svg"
   xmlns:sodipodi="http://sodipodi.sourceforge.net/DTD/sodipodi-0.dtd"
   xmlns:inkscape="http://www.inkscape.org/namespaces/inkscape"
   width="2160"
   height="720.00006"
   id="svg2934"
   version="1.1"
   inkscape:version="0.92.4 (5da689c313, 2019-01-14)"
   sodipodi:docname="MUTCD_S4-3P.svg">
  <defs
     id="defs2936">
    <inkscape:perspective
       sodipodi:type="inkscape:persp3d"
       inkscape:vp_x="0 : 526.18109 : 1"
       inkscape:vp_y="0 : 1000 : 0"
       inkscape:vp_z="744.09448 : 526.18109 : 1"
       inkscape:persp3d-origin="372.04724 : 350.78739 : 1"
       id="perspective2942" />
    <inkscape:perspective
       id="perspective2924"
       inkscape:persp3d-origin="0.5 : 0.33333333 : 1"
       inkscape:vp_z="1 : 0.5 : 1"
       inkscape:vp_y="0 : 1000 : 0"
       inkscape:vp_x="0 : 0.5 : 1"
       sodipodi:type="inkscape:persp3d" />
  </defs>
  <sodipodi:namedview
     id="base"
     pagecolor="#ffffff"
     bordercolor="#666666"
     borderopacity="1.0"
     inkscape:pageopacity="0.0"
     inkscape:pageshadow="2"
     inkscape:zoom="0.48873158"
     inkscape:cx="1294.9307"
     inkscape:cy="110.33856"
     inkscape:document-units="px"
     inkscape:current-layer="g3018"
     showgrid="false"
     inkscape:window-width="1920"
     inkscape:window-height="1057"
     inkscape:window-x="-8"
     inkscape:window-y="-8"
     inkscape:window-maximized="1"
     fit-margin-top="0"
     fit-margin-left="0"
     fit-margin-right="0"
     fit-margin-bottom="0" />
  <metadata
     id="metadata2939">
    <rdf:RDF>
      <cc:Work
         rdf:about="">
        <dc:format>image/svg+xml</dc:format>
        <dc:type
           rdf:resource="http://purl.org/dc/dcmitype/StillImage" />
        <dc:title />
      </cc:Work>
    </rdf:RDF>
  </metadata>
  <g
     inkscape:label="Ebene 1"
     inkscape:groupmode="layer"
     id="layer1"
     transform="translate(-46.65625,131.84375)">
    <g
       id="g3018"
       transform="translate(2,-2)">
      <path
         inkscape:connector-curvature="0"
         style="fill:#cdff00;fill-opacity:1;fill-rule:nonzero;stroke:none"
         d="m 2204.6563,455.1563 c 0,74.25 -60.75,135 -135,135 l -1890.00005,0 c -74.24925,0 -135,-60.75 -135,-135 l 0,-450 c 0,-74.24925 60.75075,-135.00005 135,-135.00005 l 1890.00005,0 c 74.25,0 135,60.7508 135,135.00005 l 0,450 z"
         id="path11" />
      <path
         inkscape:connector-curvature="0"
         style="fill:#000000;fill-rule:nonzero;stroke:none"
         d="m 2069.6563,-96.09375 -1890.00005,0 c -55.68725,0 -101.25,45.5628 -101.25,101.25005 l 0,450 c 0,55.68875 45.56275,101.25 101.25,101.25 l 1890.00005,0 c 55.6875,0 101.25,-45.56125 101.25,-101.25 l 0,-450 c 0,-55.68725 -45.5625,-101.25005 -101.25,-101.25005 z m 45,551.25005 c 0,24.75 -20.25,45 -45,45 l -1890.0013,0 c -24.74975,0 -45,-20.25 -45,-45 l 0,-450 c 0,-24.74975 20.25025,-45 45,-45 l 1890.0013,0 c 24.75,0 45,20.25025 45,45 l 0,450 z"
         id="path13" />
      <path
         inkscape:connector-curvature="0"
         style="fill:#000000;fill-rule:nonzero;stroke:none"
         d="m 355.86625,416.5338 c -61.87125,0 -107.20875,-36.8025 -131.21,-91.20625 l 54.4025,-20.26875 c 14.93625,34.135 42.67125,53.3375 76.8075,53.3375 33.06875,0 55.47,-22.935 55.47,-53.3375 0,-48.0025 -55.47,-55.47 -102.4075,-74.13875 -21.33375,-9.0675 -69.3375,-30.40125 -69.3375,-89.605 0,-70.93875 48.00375,-97.6075 112.54,-97.6075 50.67125,0 84.80625,29.33625 102.4075,73.60625 l -50.67,14.93375 c -5.3325,-16.00125 -28.2675,-31.47 -53.87,-31.47 -27.20125,0 -57.07125,8.53375 -54.9375,41.60375 5.33375,66.67125 174.4125,22.93375 174.4125,164.2775 0,65.605 -49.07,109.875 -113.6075,109.875 z"
         id="path15" />
      <path
         inkscape:connector-curvature="0"
         style="fill:#000000;fill-rule:nonzero;stroke:none"
         d="m 658.285,416.5338 c -52.80375,0 -86.93875,-20.2675 -109.875,-64.5375 -16.00125,-31.46875 -26.6675,-76.80625 -26.6675,-122.67625 0,-56.53625 15.4675,-113.60875 40.53625,-145.07625 21.33375,-26.6675 51.73625,-40.53625 92.2725,-40.53625 54.40375,0 88.54,22.93375 112.54125,73.60625 l -53.33625,22.4 c -19.735,-30.4025 -31.47,-37.86875 -59.205,-37.86875 -28.80125,0 -48.0025,12.8 -60.805,44.27 -8.5325,21.335 -13.86625,52.80375 -13.86625,83.205 0,39.47 8.53375,78.93875 22.935,101.34 12.2675,19.2025 29.335,27.73625 54.40375,27.73625 24.00125,0 41.6025,-12.8 55.47125,-41.6025 l 54.4025,20.2675 c -21.335,52.80375 -57.07,79.4725 -108.8075,79.4725 z"
         id="path17" />
      <path
         inkscape:connector-curvature="0"
         style="fill:#000000;fill-rule:nonzero;stroke:none"
         d="m 1032.71,410.13255 0,-156.81125 -131.2075,0 0,156.81125 -57.0725,0 0,-360.025 57.0725,0 0,145.07625 131.2075,0 0,-145.07625 56.5388,0 0,360.025 -56.5388,0 z"
         id="path19" />
      <path
         inkscape:connector-curvature="0"
         style="fill:#000000;fill-rule:nonzero;stroke:none"
         d="m 1382.5939,375.99755 c -20.8,27.2025 -49.0625,40.53625 -86.9375,40.53625 -50.6675,0 -81.6039,-20.2675 -103.4726,-64.5375 -14.9338,-30.40375 -25.6013,-78.40625 -25.6013,-121.07625 0,-59.7375 14.9338,-113.075 39.4689,-146.67625 20.8025,-28.26875 50.6712,-40.53625 92.28,-40.53625 99.7374,0 123.7374,106.675 123.7374,187.2125 0,56.5375 -14.4,113.075 -39.4749,145.0775 z m -84.2625,-274.1525 c -32.0089,0 -46.9426,12.8 -59.7426,44.27 -8.535,21.335 -13.8687,54.40375 -13.8687,84.805 0,37.87 8,76.80625 21.8687,99.74 11.2001,18.66875 26.135,27.73625 49.0676,27.73625 26.675,0 43.2,-13.8675 55.4749,-45.3375 7.4626,-19.2 13.8625,-54.4025 13.8625,-82.13875 0,-41.6025 -9.0625,-129.075 -66.6624,-129.075 z"
         id="path21" />
      <path
         inkscape:connector-curvature="0"
         style="fill:#000000;fill-rule:nonzero;stroke:none"
         d="m 1707.9563,375.99755 c -20.8,27.2025 -49.075,40.53625 -86.95,40.53625 -50.6625,0 -81.6,-20.2675 -103.4626,-64.5375 -14.9375,-30.40375 -25.6125,-78.40625 -25.6125,-121.07625 0,-59.7375 14.9375,-113.075 39.475,-146.67625 20.8,-28.26875 50.675,-40.53625 92.275,-40.53625 99.7375,0 123.7375,106.675 123.7375,187.2125 0,56.5375 -14.4,113.075 -39.4625,145.0775 z m -84.2751,-274.1525 c -32,0 -46.9375,12.8 -59.7374,44.27 -8.5375,21.335 -13.875,54.40375 -13.875,84.805 0,37.87 8,76.80625 21.875,99.74 11.2,18.66875 26.1375,27.73625 49.0625,27.73625 26.6749,0 43.2125,-13.8675 55.4749,-45.3375 7.475,-19.2 13.875,-54.4025 13.875,-82.13875 0,-41.6025 -9.075,-129.075 -66.675,-129.075 z"
         id="path23" />
      <path
         inkscape:connector-curvature="0"
         style="fill:#000000;fill-rule:nonzero;stroke:none"
         d="m 1823.6688,410.13255 0,-360.025 57.075,0 0,307.22125 166.4125,0 0,52.80375 -223.4875,0 z"
         id="path25" />
    </g>
  </g>
</svg>
