<?xml version="1.0" encoding="UTF-8" standalone="no"?>
<!-- Generator: Adobe Illustrator 12.0.1, SVG Export Plug-In  -->

<svg
   xmlns:dc="http://purl.org/dc/elements/1.1/"
   xmlns:cc="http://creativecommons.org/ns#"
   xmlns:rdf="http://www.w3.org/1999/02/22-rdf-syntax-ns#"
   xmlns:svg="http://www.w3.org/2000/svg"
   xmlns="http://www.w3.org/2000/svg"
   xmlns:sodipodi="http://sodipodi.sourceforge.net/DTD/sodipodi-0.dtd"
   xmlns:inkscape="http://www.inkscape.org/namespaces/inkscape"
   version="1.1"
   width="232.591"
   height="288"
   viewBox="-0.704 0 232.591 288"
   enable-background="new -0.704 0 234 288"
   xml:space="preserve"
   id="svg2"
   inkscape:version="0.48.2 r9819"
   sodipodi:docname="AJAX1.svg"><metadata
   id="metadata104"><rdf:RDF><cc:Work
       rdf:about=""><dc:format>image/svg+xml</dc:format><dc:type
         rdf:resource="http://purl.org/dc/dcmitype/StillImage" /></cc:Work></rdf:RDF></metadata><sodipodi:namedview
   pagecolor="#ffffff"
   bordercolor="#666666"
   borderopacity="1"
   objecttolerance="10"
   gridtolerance="10"
   guidetolerance="10"
   inkscape:pageopacity="0"
   inkscape:pageshadow="2"
   inkscape:window-width="1280"
   inkscape:window-height="1004"
   id="namedview102"
   showgrid="false"
   fit-margin-top="0"
   fit-margin-left="0"
   fit-margin-right="0"
   fit-margin-bottom="0"
   inkscape:zoom="2.0101997"
   inkscape:cx="84.420495"
   inkscape:cy="147.38715"
   inkscape:window-x="-8"
   inkscape:window-y="-8"
   inkscape:window-maximized="1"
   inkscape:current-layer="svg2" />
<defs
   id="defs4">
</defs>
















































<path
   style="fill:#000000;stroke:none"
   inkscape:connector-curvature="0"
   d="M 20.784998,0 C 8.9369983,0 -0.70400171,9.642 -0.70400171,21.494 v 245.011 c 0,11.851 9.64100001,21.495 21.48899971,21.495 H 210.399 c 11.846,0 21.488,-9.644 21.488,-21.495 V 21.494 C 231.888,9.642 222.245,0 210.4,0 H 20.784998 z"
   id="path6" /><path
   style="fill:#ffffff;stroke:none"
   inkscape:connector-curvature="0"
   d="m 220.755,199.206 h 10.069 V 21.494 c 0,-11.237 -9.199,-20.432 -20.425,-20.432 H 20.785998 C 9.5479983,1.062 0.35899829,10.256 0.35899829,21.494 V 199.206 H 10.424998 220.755 z"
   id="path10" /><path
   style="fill:#ffd033;fill-opacity:1;stroke:none"
   inkscape:connector-curvature="0"
   d="M 230.828,199.206 H 0.35899829 l -0.003,67.299 c 0,11.243 9.19000001,20.432 20.42699971,20.432 H 210.398 c 11.226,0 20.425,-9.188 20.425,-20.432 l 0.005,-67.299 z"
   id="path8" /><path
   style="fill:#000000;fill-rule:evenodd;stroke:none"
   inkscape:connector-curvature="0"
   clip-rule="evenodd"
   d="M 21.877998,6.375 H 209.304 c 8.925,0 16.206,7.295 16.206,16.212 v 242.831 c 0,8.907 -7.281,16.205 -16.206,16.205 H 21.877998 c -8.91,0 -16.2049997,-7.298 -16.2049997,-16.205 V 22.588 c 0,-8.918 7.2949997,-16.213 16.2049997,-16.213"
   id="path12" /><rect
   style="fill:#ffffff;stroke:none"
   x="10.424997"
   y="94.600998"
   width="210.33"
   height="65.219002"
   id="rect14" /><path
   style="fill:#ffffff;stroke:none"
   inkscape:connector-curvature="0"
   d="m 220.755,22.648 c 0,-6.344 -5.163,-11.507 -11.512,-11.507 H 21.940998 c -6.351,0 -11.516,5.163 -11.516,11.507 V 91.97 H 220.755 V 22.648 z"
   id="path16" /><rect
   style="fill:#ffffff;stroke:none"
   x="10.424997"
   y="162.44901"
   width="210.33"
   height="36.757"
   id="rect18" /><path
   style="fill:#ffd033;fill-opacity:1;stroke:none"
   inkscape:connector-curvature="0"
   d="m 10.426998,265.361 c 0,6.348 5.166,11.513 11.516,11.513 H 209.245 c 6.349,0 11.512,-5.165 11.512,-11.513 V 201.837 H 10.426998 v 63.524 z"
   id="path48" /><path
   style="fill:#000000;stroke:none"
   inkscape:connector-curvature="0"
   d="m 48.896998,71.957 c -1.458,0.806 -2.649,0.998 -4.607,0.998 h -7.332 v 10.096 h -4.684 v -25.72 h 12.016 c 1.958,0 3.148,0.269 4.607,1.075 2.418,1.343 3.954,3.877 3.954,6.794 0,2.688 -1.535,5.413 -3.954,6.757 z m -4.454,-10.019 h -7.485 v 6.41 h 7.485 c 2.265,0 3.8,-1.267 3.8,-3.148 10e-4,-1.995 -1.534,-3.262 -3.8,-3.262 z"
   id="path20" /><path
   style="fill:#000000;stroke:none"
   inkscape:connector-curvature="0"
   d="m 77.341998,83.051 -2.534,-6.065 h -11.209 l -2.496,6.065 h -5.067 l 10.826,-25.72 h 4.683 l 10.749,25.72 h -4.952 z m -8.139,-19.309 -3.608,8.675 h 7.217 l -3.609,-8.675 z"
   id="path22" /><path
   style="fill:#000000;stroke:none"
   inkscape:connector-curvature="0"
   d="m 103.522,81.592 c -1.805,1.113 -4.146002,1.727 -6.527002,1.727 -4.414,0 -7.754,-1.612 -10.633,-4.952 l 3.686,-2.878 c 1.919,2.227 3.992,3.225 6.871,3.225 3.263002,0 5.605002,-1.421 5.605002,-3.34 0,-0.998 -0.537,-1.805 -1.612,-2.342 -0.921002,-0.345 -1.920002,-0.729 -3.071002,-0.998 l -1.19,-0.345 -1.19,-0.27 -1.229,-0.384 c -2.648,-0.614 -3.992,-1.267 -5.067,-2.495 -1.075,-1.19 -1.612,-2.725 -1.612,-4.338 0,-4.261 3.608,-7.141 8.829,-7.141 3.800002,0 6.948002,1.267 9.559002,3.955 l -3.417,3.071 c -1.612,-1.689 -3.724002,-2.534 -6.142002,-2.534 -2.61,0 -4.146,0.999 -4.146,2.649 0,1.421 0.883,2.073 4.069,2.803 3.417,0.69 5.682002,1.42 7.102002,2.15 2.265,1.19 3.724,3.608 3.724,6.411 -0.001,2.61 -1.19,4.606 -3.609,6.026 z"
   id="path24" /><path
   style="fill:#000000;stroke:none"
   inkscape:connector-curvature="0"
   d="m 129.088,81.592 c -1.805,1.113 -4.146,1.727 -6.526,1.727 -4.413,0 -7.754,-1.612 -10.633,-4.952 l 3.686,-2.878 c 1.918,2.227 3.991,3.225 6.87,3.225 3.264,0 5.605,-1.421 5.605,-3.34 0,-0.998 -0.537,-1.805 -1.612,-2.342 -0.921,-0.345 -1.92,-0.729 -3.07,-0.998 l -1.191,-0.345 -1.189,-0.27 -1.229,-0.384 c -2.649,-0.614 -3.992,-1.267 -5.067,-2.495 -1.075,-1.19 -1.613,-2.725 -1.613,-4.338 0,-4.261 3.608,-7.141 8.829,-7.141 3.801,0 6.948,1.267 9.559,3.955 l -3.416,3.071 c -1.612,-1.689 -3.724,-2.534 -6.143,-2.534 -2.61,0 -4.146,0.999 -4.146,2.649 0,1.421 0.884,2.073 4.07,2.803 3.417,0.69 5.682,1.42 7.102,2.15 2.265,1.19 3.725,3.608 3.725,6.411 -0.002,2.61 -1.193,4.606 -3.611,6.026 z"
   id="path26" /><path
   style="fill:#000000;stroke:none"
   inkscape:connector-curvature="0"
   d="m 139.031,83.051 v -25.72 h 4.607 v 25.72 h -4.607 z"
   id="path28" /><path
   style="fill:#000000;stroke:none"
   inkscape:connector-curvature="0"
   d="M 168.283,83.051 156.037,65.354 v 17.697 h -4.529 v -25.72 h 4.529 l 11.784,16.967 V 57.331 h 4.453 v 25.72 h -3.991 z"
   id="path30" /><path
   style="fill:#000000;stroke:none"
   inkscape:connector-curvature="0"
   d="m 200.184,70.229 v 3.34 c 0,5.605 -4.53,9.943 -10.213,9.943 -7.563,0 -10.633,-6.68 -10.633,-13.36 0,-7.869 4.223,-13.282 10.633,-13.282 4.606,0 7.756,2.457 9.559,6.411 l -4.684,1.612 c -0.997,-2.15 -2.61,-3.417 -4.875,-3.417 -3.607,0 -6.026,3.608 -6.026,8.676 0,4.146 1.266,8.753 6.026,8.753 2.533,0 4.799,-1.728 5.414,-4.07 h -4.224 v -4.606 h 9.023 z"
   id="path32" /><path
   style="fill:#000000;stroke:none"
   inkscape:connector-curvature="0"
   d="M 107.927,47.953 94.626998,28.733 v 19.22 h -4.919 V 20.02 h 4.919 L 107.426,38.448 V 20.02 h 4.837 v 27.934 h -4.336 z"
   id="path34" /><path
   style="fill:#000000;stroke:none"
   inkscape:connector-curvature="0"
   d="m 130.732,48.453 c -8.212,0 -11.84,-7.462 -11.84,-14.509 0,-8.921 4.503,-14.425 11.84,-14.425 6.879,0 11.591,5.795 11.591,14.301 -0.001,8.755 -4.504,14.633 -11.591,14.633 z m 0,-23.931 c -4.211,0 -6.754,3.543 -6.754,9.422 0,5.962 2.543,9.506 6.754,9.506 5.296,0 6.588,-5.211 6.588,-9.506 -0.001,-5.878 -2.378,-9.422 -6.588,-9.422 z"
   id="path36" /><path
   style="fill:#000000;stroke:none"
   inkscape:connector-curvature="0"
   d="m 50.687998,150.366 v -34.887 h -5.919 l -0.139,-6.684 c 3.622,-0.836 5.571,-2.159 7.382,-5.083 h 6.684 v 46.655 h -8.008 z"
   id="path38" /><path
   style="fill:#000000;stroke:none"
   inkscape:connector-curvature="0"
   d="m 88.219998,151.201 c -6.407,0 -12.116,-1.671 -18.035,-5.222 l 4.387,-7.103 c 4.108,2.506 8.843,3.83 13.648,3.83 7.033,0 11.281,-3.133 11.281,-8.356 0,-2.506 -1.184,-4.943 -2.925,-6.406 -1.671,-1.323 -4.108,-1.95 -7.59,-1.95 -3.063,0 -5.571,0.487 -8.982,1.811 l -8.356,-2.159 1.463,-21.935 H 104.096 v 8.217 H 80.977998 l -0.487,6.685 c 3.76,-0.836 6.059,-1.184 8.982,-1.184 10.654002,0 18.383002,7.242 18.383002,16.92 0.001,9.819 -8.216002,16.852 -19.636002,16.852 z"
   id="path40" /><path
   style="fill:#000000;stroke:none"
   inkscape:connector-curvature="0"
   d="m 140.787,136.616 v -11.411 l -5.495,11.411 -5.44,-11.411 v 11.411 h -3.292 v -18.692 h 3.292 l 5.44,11.076 5.495,-11.076 h 3.292 v 18.692 h -3.292 z"
   id="path42" /><path
   style="fill:#000000;stroke:none"
   inkscape:connector-curvature="0"
   d="m 163.107,128.553 c -1.061,0.585 -1.925,0.725 -3.348,0.725 h -5.329 v 7.337 h -3.403 v -18.692 h 8.732 c 1.423,0 2.287,0.195 3.348,0.781 1.758,0.976 2.873,2.817 2.873,4.938 0,1.954 -1.116,3.935 -2.873,4.911 z m -3.237,-7.282 h -5.44 v 4.659 h 5.44 c 1.646,0 2.762,-0.921 2.762,-2.288 0,-1.45 -1.116,-2.371 -2.762,-2.371 z"
   id="path44" /><path
   style="fill:#000000;stroke:none"
   inkscape:connector-curvature="0"
   d="m 184.224,136.616 v -8.146 h -8.397 v 8.146 h -3.348 v -18.692 h 3.348 v 7.226 h 8.397 v -7.226 h 3.348 v 18.692 h -3.348 z"
   id="path46" /><path
   style="fill:#000000;stroke:none"
   inkscape:connector-curvature="0"
   d="m 52.006998,237.354 c -1.972,1.217 -4.532,1.888 -7.133,1.888 -4.824,0 -8.475,-1.763 -11.622,-5.412 l 4.028,-3.147 c 2.099,2.434 4.364,3.524 7.511,3.524 3.567,0 6.126,-1.552 6.126,-3.649 0,-1.092 -0.588,-1.973 -1.763,-2.56 -1.007,-0.379 -2.097,-0.798 -3.356,-1.092 l -1.301,-0.378 -1.301,-0.293 -1.342,-0.42 c -2.896,-0.671 -4.364,-1.385 -5.539,-2.728 -1.174,-1.301 -1.762,-2.979 -1.762,-4.741 0,-4.657 3.944,-7.805 9.65,-7.805 4.154,0 7.595,1.385 10.448,4.322 l -3.734,3.356 c -1.763,-1.846 -4.071,-2.769 -6.714,-2.769 -2.853,0 -4.531,1.09 -4.531,2.895 0,1.553 0.965,2.266 4.447,3.063 3.735,0.755 6.21,1.552 7.763,2.349 2.475,1.301 4.07,3.944 4.07,7.008 0,2.854 -1.301,5.037 -3.945,6.589 z"
   id="path50" /><path
   style="fill:#000000;stroke:none"
   inkscape:connector-curvature="0"
   d="m 72.608998,239.451 c -7.385,0 -11.917,-5.832 -11.917,-14.602 0,-8.896 4.532,-14.518 11.917,-14.518 4.532,0 8.686,2.265 10.868,6.209 l -4.448,2.393 c -0.797,-1.176 -1.174,-1.595 -1.972,-2.098 -1.09,-0.882 -2.937,-1.47 -4.447,-1.47 -5.119,0 -6.797,5.035 -6.797,9.357 0,6.126 2.56,9.692 6.797,9.692 2.56,0 3.944,-0.882 6.419,-3.566 l 4.448,2.392 c -2.056,3.946 -6.336,6.211 -10.868,6.211 z"
   id="path52" /><path
   style="fill:#000000;stroke:none"
   inkscape:connector-curvature="0"
   d="M 107.561,238.947 V 226.696 H 94.930998 v 12.251 h -5.035 v -28.111 h 5.035 v 10.866 H 107.561 v -10.866 h 5.035 v 28.111 h -5.035 z"
   id="path54" /><path
   style="fill:#000000;stroke:none"
   inkscape:connector-curvature="0"
   d="m 130.933,239.451 c -8.267,0 -11.918,-7.511 -11.918,-14.602 0,-8.979 4.531,-14.518 11.918,-14.518 6.922,0 11.663,5.832 11.663,14.392 0,8.811 -4.53,14.728 -11.663,14.728 z m 0,-24.085 c -4.239,0 -6.799,3.567 -6.799,9.483 0,6 2.56,9.566 6.799,9.566 5.328,0 6.629,-5.245 6.629,-9.566 0,-5.915 -2.392,-9.483 -6.629,-9.483 z"
   id="path56" /><path
   style="fill:#000000;stroke:none"
   inkscape:connector-curvature="0"
   d="m 160.135,239.451 c -8.265,0 -11.916,-7.511 -11.916,-14.602 0,-8.979 4.532,-14.518 11.916,-14.518 6.924,0 11.665,5.832 11.665,14.392 0,8.811 -4.531,14.728 -11.665,14.728 z m 0,-24.085 c -4.236,0 -6.797,3.567 -6.797,9.483 0,6 2.561,9.566 6.797,9.566 5.329,0 6.63,-5.245 6.63,-9.566 0,-5.915 -2.391,-9.483 -6.63,-9.483 z"
   id="path58" /><path
   style="fill:#000000;stroke:none"
   inkscape:connector-curvature="0"
   d="m 178.304,238.947 v -28.111 h 5.034 v 23.79 h 15.987 v 4.321 h -21.021 z"
   id="path60" /><path
   style="fill:#000000;stroke:none"
   inkscape:connector-curvature="0"
   d="m 42.623998,267.178 v -18.842 h 3.037 v 18.842 h -3.037 z"
   id="path62" /><path
   style="fill:#000000;stroke:none"
   inkscape:connector-curvature="0"
   d="m 59.636998,267.178 -7.199,-12.768 v 12.768 h -2.981 v -18.842 h 2.981 l 6.862,12.036 v -12.036 h 2.981 v 18.842 h -2.644 z"
   id="path64" /><path
   style="fill:#000000;stroke:none"
   inkscape:connector-curvature="0"
   d="m 92.257998,266.053 c -1.041,0.928 -2.503,1.463 -4.106,1.463 -3.234,0 -5.596,-1.913 -6.861,-4.781 l 2.84,-1.04 c 0.788,1.771 2.25,2.784 4.021,2.784 1.744,0 2.925,-1.21 2.925,-2.784 0,-2.503 -2.925,-2.925 -5.371,-3.909 -1.125,-0.45 -3.628,-1.575 -3.628,-4.696 0,-3.684 2.503,-5.09 5.877,-5.09 2.644,0 4.443,1.519 5.371,3.853 l -2.643,0.787 c 0,0 -0.675,-1.603 -2.784,-1.659 -0.084,0 -0.141,0 -0.197,0 -1.294,0 -2.7,0.507 -2.7,1.997 0,0.056 0,0.141 0,0.196 0.253,3.487 9.111,1.182 9.111,8.577 10e-4,1.715 -0.674,3.233 -1.855,4.302 z"
   id="path66" /><path
   style="fill:#000000;stroke:none"
   inkscape:connector-curvature="0"
   d="M 99.399998,267.178 V 248.336 H 110.508 v 2.981 h -8.127 v 4.611 h 5.484 v 3.037 h -5.484 v 5.175 h 8.718 v 3.037 H 99.399998 z"
   id="path68" /><path
   style="fill:#000000;stroke:none"
   inkscape:connector-curvature="0"
   d="m 126.031,266.053 c -1.041,0.928 -2.503,1.463 -4.105,1.463 -3.234,0 -5.597,-1.913 -6.862,-4.781 l 2.84,-1.04 c 0.787,1.771 2.249,2.784 4.021,2.784 1.743,0 2.924,-1.21 2.924,-2.784 0,-2.503 -2.924,-2.925 -5.371,-3.909 -1.125,-0.45 -3.627,-1.575 -3.627,-4.696 0,-3.684 2.502,-5.09 5.877,-5.09 2.644,0 4.443,1.519 5.371,3.853 l -2.644,0.787 c 0,0 -0.675,-1.603 -2.784,-1.659 -0.084,0 -0.141,0 -0.196,0 -1.294,0 -2.7,0.507 -2.7,1.997 0,0.056 0,0.141 0,0.196 0.254,3.487 9.111,1.182 9.111,8.577 0.001,1.715 -0.674,3.233 -1.855,4.302 z"
   id="path70" /><path
   style="fill:#000000;stroke:none"
   inkscape:connector-curvature="0"
   d="m 142.819,266.053 c -1.041,0.928 -2.503,1.463 -4.105,1.463 -3.234,0 -5.597,-1.913 -6.862,-4.781 l 2.841,-1.04 c 0.787,1.771 2.249,2.784 4.021,2.784 1.743,0 2.924,-1.21 2.924,-2.784 0,-2.503 -2.924,-2.925 -5.371,-3.909 -1.125,-0.45 -3.627,-1.575 -3.627,-4.696 0,-3.684 2.502,-5.09 5.877,-5.09 2.644,0 4.443,1.519 5.371,3.853 l -2.644,0.787 c 0,0 -0.675,-1.603 -2.784,-1.659 -0.084,0 -0.141,0 -0.196,0 -1.294,0 -2.7,0.507 -2.7,1.997 0,0.056 0,0.141 0,0.196 0.254,3.487 9.111,1.182 9.111,8.577 0,1.715 -0.675,3.233 -1.856,4.302 z"
   id="path72" /><path
   style="fill:#000000;stroke:none"
   inkscape:connector-curvature="0"
   d="m 149.962,267.178 v -18.842 h 3.037 v 18.842 h -3.037 z"
   id="path74" /><path
   style="fill:#000000;stroke:none"
   inkscape:connector-curvature="0"
   d="m 170.519,265.406 c -1.069,1.434 -2.588,2.109 -4.556,2.109 -2.644,0 -4.303,-1.069 -5.428,-3.375 -0.787,-1.603 -1.321,-4.105 -1.321,-6.355 0,-3.094 0.787,-5.877 2.053,-7.677 1.125,-1.435 2.644,-2.109 4.809,-2.109 2.391,0 4.05,1.068 5.23,3.374 0.787,1.659 1.266,4.05 1.266,6.412 -0.001,2.981 -0.732,5.962 -2.053,7.621 z m -2.053,-12.908 c -0.591,-0.984 -1.322,-1.378 -2.447,-1.462 -0.056,0 -0.112,0 -0.169,0 -1.35,0 -2.249,0.731 -2.868,2.334 -0.478,1.125 -0.73,2.84 -0.73,4.415 0,1.997 0.394,4.05 1.124,5.23 0.591,0.984 1.378,1.463 2.588,1.463 1.378,0 2.249,-0.731 2.896,-2.391 0.394,-0.984 0.73,-2.841 0.73,-4.303 0,-2.108 -0.394,-4.02 -1.124,-5.286 z"
   id="path76" /><path
   style="fill:#000000;stroke:none"
   inkscape:connector-curvature="0"
   d="m 189.023,267.178 -7.199,-12.768 v 12.768 h -2.98 v -18.842 h 2.98 l 6.861,12.036 v -12.036 h 2.981 v 18.842 h -2.643 z"
   id="path78" /><path
   style="fill:#000000;stroke:none"
   inkscape:connector-curvature="0"
   d="m 35.190998,174.463 v 4.612 h 5.483 v 3.037 h -5.483 v 8.211 h -2.981 v -18.842 h 11.699 v 2.981 h -8.718 z"
   id="path80" /><path
   style="fill:#000000;stroke:none"
   inkscape:connector-curvature="0"
   d="m 45.987998,190.323 v -18.842 h 3.038 v 18.842 h -3.038 z"
   id="path82" /><path
   style="fill:#000000;stroke:none"
   inkscape:connector-curvature="0"
   d="m 63.001998,190.323 -7.198,-12.767 v 12.767 h -2.982 v -18.842 h 2.982 l 6.861,12.036 v -12.036 h 2.981 v 18.842 h -2.644 z"
   id="path84" /><path
   style="fill:#000000;stroke:none"
   inkscape:connector-curvature="0"
   d="m 69.441998,190.323 v -18.842 h 11.109 v 2.981 h -8.127 v 4.612 h 5.483 v 3.037 h -5.483 v 5.174 h 8.717 v 3.037 h -11.699 z"
   id="path86" /><path
   style="fill:#000000;stroke:none"
   inkscape:connector-curvature="0"
   d="m 93.259998,189.199 c -1.041,0.927 -2.503,1.462 -4.105,1.462 -3.235,0 -5.596,-1.912 -6.862,-4.78 l 2.84,-1.041 c 0.787,1.771 2.25,2.784 4.022,2.784 1.744,0 2.924,-1.21 2.924,-2.784 0,-2.502 -2.924,-2.924 -5.37,-3.909 -1.126,-0.45 -3.628,-1.575 -3.628,-4.696 0,-3.684 2.502,-5.089 5.877,-5.089 2.644,0 4.443,1.519 5.372,3.852 l -2.644,0.788 c 0,0 -0.675,-1.604 -2.784,-1.66 -0.084,0 -0.141,0 -0.197,0 -1.293,0 -2.7,0.507 -2.7,1.997 0,0.057 0,0.141 0,0.196 0.253,3.487 9.111,1.183 9.111,8.577 0,1.715 -0.674,3.234 -1.856,4.303 z"
   id="path88" /><path
   style="fill:#000000;stroke:none"
   inkscape:connector-curvature="0"
   d="m 119.525,189.255 c -0.702,0.675 -1.716,1.013 -2.7,1.068 -0.196,0 -0.59,0 -1.068,0 h -5.737 v -18.842 h 6.075 c 1.912,0 2.644,0.197 3.655,0.985 1.969,1.715 3.094,4.695 3.094,8.408 0,3.769 -1.182,6.75 -3.319,8.381 z m -1.237,-14.004 c -0.479,-0.45 -1.125,-0.788 -1.913,-0.788 h -3.374 v 12.823 h 2.981 c 0.984,0 1.574,-0.197 2.109,-0.73 1.124,-1.125 1.715,-3.178 1.715,-5.681 0.001,-2.531 -0.59,-4.641 -1.518,-5.624 z"
   id="path90" /><path
   style="fill:#000000;stroke:none"
   inkscape:connector-curvature="0"
   d="m 137.157,188.552 c -1.069,1.435 -2.588,2.109 -4.556,2.109 -2.644,0 -4.304,-1.068 -5.429,-3.375 -0.786,-1.603 -1.32,-4.105 -1.32,-6.355 0,-3.094 0.787,-5.877 2.053,-7.678 1.125,-1.433 2.644,-2.107 4.808,-2.107 2.391,0 4.05,1.067 5.23,3.374 0.788,1.659 1.267,4.049 1.267,6.411 0,2.981 -0.731,5.962 -2.053,7.621 z m -2.053,-12.908 c -0.59,-0.983 -1.322,-1.377 -2.446,-1.462 -0.056,0 -0.112,0 -0.17,0 -1.35,0 -2.249,0.731 -2.868,2.334 -0.478,1.125 -0.73,2.84 -0.73,4.415 0,1.996 0.395,4.05 1.125,5.23 0.591,0.984 1.377,1.463 2.588,1.463 1.377,0 2.249,-0.731 2.896,-2.391 0.395,-0.984 0.73,-2.84 0.73,-4.303 -0.001,-2.108 -0.393,-4.021 -1.125,-5.286 z"
   id="path92" /><path
   style="fill:#000000;stroke:none"
   inkscape:connector-curvature="0"
   d="m 154.62,187.483 c -0.985,1.855 -3.234,3.178 -5.54,3.178 -2.307,0 -4.556,-1.322 -5.569,-3.178 -0.505,-1.125 -0.844,-2.446 -0.844,-3.909 v -12.093 h 2.981 v 12.093 c 0,2.447 1.378,4.05 3.432,4.05 2.053,0 3.43,-1.603 3.43,-4.05 v -12.093 h 2.981 v 12.093 c 0,1.463 -0.338,2.784 -0.871,3.909 z"
   id="path94" /><path
   style="fill:#000000;stroke:none"
   inkscape:connector-curvature="0"
   d="m 169.074,189.874 c -0.674,0.252 -1.799,0.449 -2.643,0.449 h -7.145 v -18.842 h 7.145 c 2.981,0 5.23,2.054 5.23,4.753 0,1.855 -0.872,3.234 -2.644,4.246 1.969,0.929 3.094,2.503 3.094,4.557 0.001,2.052 -1.264,4.106 -3.037,4.837 z m -2.446,-15.411 h -4.358 v 4.612 h 3.57 c 0.845,0 1.238,-0.113 1.771,-0.507 0.675,-0.534 1.069,-1.321 1.069,-2.193 0.001,-1.265 -0.73,-1.912 -2.052,-1.912 z m 0.647,7.789 c -0.395,-0.14 -0.591,-0.14 -1.238,-0.14 h -3.768 v 5.174 h 4.5 c 1.517,0 2.305,-0.73 2.305,-2.193 0,-1.238 -0.73,-2.447 -1.799,-2.841 z"
   id="path96" /><path
   style="fill:#000000;stroke:none"
   inkscape:connector-curvature="0"
   d="m 174.585,190.323 v -18.842 h 2.981 v 16.058 h 8.718 v 2.784 h -11.699 z"
   id="path98" /><path
   style="fill:#000000;stroke:none"
   inkscape:connector-curvature="0"
   d="m 188.364,190.323 v -18.842 h 11.109 v 2.981 h -8.127 v 4.612 h 5.483 v 3.037 h -5.483 v 5.174 h 8.718 v 3.037 h -11.7 z"
   id="path100" /></svg>