<?xml version="1.0" encoding="UTF-8" standalone="no"?>
<!-- Generator: Adobe Illustrator 12.0.1, SVG Export Plug-In  -->

<svg
   xmlns:dc="http://purl.org/dc/elements/1.1/"
   xmlns:cc="http://creativecommons.org/ns#"
   xmlns:rdf="http://www.w3.org/1999/02/22-rdf-syntax-ns#"
   xmlns:svg="http://www.w3.org/2000/svg"
   xmlns="http://www.w3.org/2000/svg"
   xmlns:sodipodi="http://sodipodi.sourceforge.net/DTD/sodipodi-0.dtd"
   xmlns:inkscape="http://www.inkscape.org/namespaces/inkscape"
   version="1.1"
   width="286.66199"
   height="286.66324"
   viewBox="-1 0 286.66199 286.66324"
   enable-background="new -1 0 289 288"
   xml:space="preserve"
   id="svg2"
   inkscape:version="0.48.2 r9819"
   sodipodi:docname="AJAX1.svg"><metadata
   id="metadata46"><rdf:RDF><cc:Work
       rdf:about=""><dc:format>image/svg+xml</dc:format><dc:type
         rdf:resource="http://purl.org/dc/dcmitype/StillImage" /></cc:Work></rdf:RDF></metadata><sodipodi:namedview
   pagecolor="#ffffff"
   bordercolor="#666666"
   borderopacity="1"
   objecttolerance="10"
   gridtolerance="10"
   guidetolerance="10"
   inkscape:pageopacity="0"
   inkscape:pageshadow="2"
   inkscape:window-width="1280"
   inkscape:window-height="1004"
   id="namedview44"
   showgrid="false"
   fit-margin-top="0"
   fit-margin-left="0"
   fit-margin-right="0"
   fit-margin-bottom="0"
   inkscape:zoom="2.3177389"
   inkscape:cx="104.70439"
   inkscape:cy="164.43779"
   inkscape:window-x="-8"
   inkscape:window-y="-8"
   inkscape:window-maximized="1"
   inkscape:current-layer="svg2" />
<defs
   id="defs4">
</defs>
<path
   d="M 3.09875,133.38675 132.37975,4.1047494 c 5.471,-5.473 14.421,-5.473 19.896,0 l 129.283,129.2820006 c 5.471,5.47 5.471,14.423 0,19.89 l -129.284,129.284 c -5.475,5.47 -14.425,5.47 -19.896,0 l -129.28,-129.285 c -5.465,-5.466 -5.465,-14.419 0,-19.889 z"
   id="path6"
   style="fill:#ffd033;stroke:none;fill-opacity:1"
   inkscape:connector-curvature="0" />

<path
   clip-rule="evenodd"
   d="M 6.22175,135.43975 134.43975,7.2207494 c 4.339,-4.339 11.442,-4.339 15.785,0 l 128.215,128.2190006 c 4.343,4.343 4.343,11.438 0,15.777 l -128.215,128.225 c -4.343,4.335 -11.446,4.335 -15.785,0 l -128.218,-128.225 c -4.338,-4.339 -4.338,-11.434 0,-15.777"
   id="path10"
   inkscape:connector-curvature="0"
   style="fill-rule:evenodd;stroke:none;fill:#000000" />
<path
   clip-rule="evenodd"
   d="m 10.22475,139.38975 128.161,-128.160001 c 2.162,-2.1699996 5.724,-2.1699996 7.889,0 l 128.16,128.160001 c 2.165,2.166 2.165,5.716 0,7.883 l -128.16,128.161 c -2.165,2.167 -5.727,2.167 -7.889,0 l -128.161,-128.161 c -2.166,-2.167 -2.166,-5.717 0,-7.883"
   id="path12"
   inkscape:connector-curvature="0"
   style="fill:#ffd033;fill-rule:evenodd;stroke:none;fill-opacity:1" />
<path
   d="m 88.84875,102.13575 c -5.475,0 -8.723,-4.593001 -8.723,-9.697001 h 4.361 c 0,2.598 1.299,5.336 4.361,5.336 2.413,0 4.361,-2.181 4.361,-4.687 0,-1.763 -0.649,-3.063 -2.505,-4.501 -0.65,-0.649 1.113,0.557 -5.243,-3.712 -2.506,-1.717 -3.806,-4.129 -3.806,-6.867 0,-4.455 3.48,-8.074 7.935,-8.074 4.408,0 7.749,3.387 7.889,8.074 h -4.27 c -0.093,-2.181 -1.624,-3.573 -3.619,-3.573 -2.041,0 -3.665,1.531 -3.665,3.573 0,1.531 0.649,2.413 2.923,3.712 5.985,3.48 8.631,6.867 8.631,11.368 10e-4,5.011 -3.851,9.048001 -8.63,9.048001 z"
   id="path14"
   inkscape:connector-curvature="0"
   style="stroke:none;fill:#000000" />
<path
   d="M 102.72175,101.57875 V 70.490749 h 14.616 v 4.361 h -10.161 v 7.842 h 6.449 v 4.269 h -6.449 v 10.254 h 11.368 v 4.362001 h -15.823 z"
   id="path16"
   inkscape:connector-curvature="0"
   style="stroke:none;fill:#000000" />
<path
   d="m 132.60375,101.57875 h -3.387 l -7.842,-31.088001 h 4.501 l 5.104,20.184 5.15,-20.184 h 4.454 l -7.98,31.088001 z"
   id="path18"
   inkscape:connector-curvature="0"
   style="stroke:none;fill:#000000" />
<path
   d="M 144.94575,101.57875 V 70.490749 h 14.615 v 4.361 h -10.16 v 7.842 h 6.449 v 4.269 h -6.449 v 10.254 h 11.367 v 4.362001 h -15.822 z"
   id="path20"
   inkscape:connector-curvature="0"
   style="stroke:none;fill:#000000" />
<path
   d="m 178.86375,101.57875 -4.129,-14.616001 h -4.27 v 14.616001 h -4.455 V 70.490749 h 9.281 c 4.871,0 8.166,3.294 8.166,8.306 0,3.712 -1.531,6.403 -4.455,7.517 l 4.455,15.266001 h -4.593 z m -3.805,-26.726001 h -4.594 v 7.842 h 4.594 c 2.598,0 4.037,-1.392 4.037,-3.897 0,-2.414 -1.625,-3.945 -4.037,-3.945 z"
   id="path22"
   inkscape:connector-curvature="0"
   style="stroke:none;fill:#000000" />
<path
   d="M 188.69975,101.57875 V 70.490749 h 14.617 v 4.361 h -10.162 v 7.842 h 6.449 v 4.269 h -6.449 v 10.254 h 11.369 v 4.362001 h -15.824 z"
   id="path24"
   inkscape:connector-curvature="0"
   style="stroke:none;fill:#000000" />
<path
   d="m 97.36275,159.40475 c -5.475,0 -8.723,-4.593 -8.723,-9.697 h 4.361 c 0,2.599 1.299,5.336 4.361,5.336 2.413,0 4.361,-2.181 4.361,-4.687 0,-1.764 -0.649,-3.063 -2.505,-4.501 -0.65,-0.649 1.113,0.558 -5.243,-3.712 -2.506,-1.717 -3.806,-4.129 -3.806,-6.867 0,-4.455 3.48,-8.074 7.935,-8.074 4.408,0 7.749,3.387 7.889,8.074 h -4.27 c -0.093,-2.181 -1.624,-3.573 -3.619,-3.573 -2.041,0 -3.665,1.531 -3.665,3.573 0,1.531 0.649,2.413 2.923,3.712 5.985,3.48 8.631,6.867 8.631,11.368 0.001,5.012 -3.851,9.048 -8.63,9.048 z"
   id="path26"
   inkscape:connector-curvature="0"
   style="stroke:none;fill:#000000" />
<path
   d="m 118.98475,131.88975 v 26.958 h -4.501 v -26.958 h -5.66 v -4.129 h 15.822 v 4.129 h -5.661 z"
   id="path28"
   inkscape:connector-curvature="0"
   style="stroke:none;fill:#000000" />
<path
   d="m 144.82975,154.06875 c -1.531,3.665 -3.805,5.336 -7.285,5.336 -3.712,0 -5.893,-1.671 -7.424,-5.336 -1.3,-3.063 -1.764,-6.032 -1.764,-10.811 0,-4.687 0.464,-7.842 1.764,-10.812 1.624,-3.712 3.805,-5.243 7.424,-5.243 3.573,0 5.754,1.531 7.285,5.336 1.299,3.063 1.763,6.032 1.763,10.719 0,4.779 -0.464,7.842 -1.763,10.811 z m -3.481,-18.56 c -0.789,-2.737 -1.948,-3.944 -3.805,-3.944 -1.995,0 -3.201,1.207 -3.944,3.851 -0.742,2.367 -0.974,4.455 -0.974,7.935 0,3.387 0.324,5.336 0.974,7.841 0.743,2.646 1.949,3.852 3.944,3.852 1.856,0 3.016,-1.206 3.805,-3.852 0.742,-2.505 0.975,-4.361 0.975,-7.934 0,-3.48 -0.325,-5.475 -0.975,-7.749 z"
   id="path30"
   inkscape:connector-curvature="0"
   style="stroke:none;fill:#000000" />
<path
   d="m 165.66375,158.84875 -4.13,-14.616 h -4.269 v 14.616 h -4.455 v -31.088 h 9.28 c 4.872,0 8.167,3.294 8.167,8.306 0,3.712 -1.531,6.403 -4.455,7.517 l 4.455,15.266 h -4.593 z m -3.805,-26.727 h -4.594 v 7.842 h 4.594 c 2.598,0 4.036,-1.392 4.036,-3.897 0,-2.414 -1.624,-3.945 -4.036,-3.945 z"
   id="path32"
   inkscape:connector-curvature="0"
   style="stroke:none;fill:#000000" />
<path
   d="m 191.50875,158.84875 v -17.446 l -5.754,17.446 -5.8,-17.446 v 17.446 h -4.455 v -31.088 h 4.455 l 5.8,17.446 5.754,-17.446 h 4.501 v 31.088 h -4.501 z"
   id="path34"
   inkscape:connector-curvature="0"
   style="stroke:none;fill:#000000" />
<path
   d="m 115.06475,215.87075 -2.181,-8.491 h -6.682 l -2.041,8.491 h -4.501 l 7.749,-31.088 h 4.361 l 7.749,31.088 h -4.454 z m -5.567,-21.808 -2.181,8.955 h 4.454 l -2.273,-8.955 z"
   id="path36"
   inkscape:connector-curvature="0"
   style="stroke:none;fill:#000000" />
<path
   d="m 136.64075,215.87075 -4.13,-14.616 h -4.269 v 14.616 h -4.455 v -31.088 h 9.28 c 4.872,0 8.167,3.295 8.167,8.306 0,3.712 -1.531,6.403 -4.455,7.517 l 4.455,15.266 h -4.593 z m -3.804,-26.726 h -4.594 v 7.842 h 4.594 c 2.598,0 4.036,-1.393 4.036,-3.897 0,-2.414 -1.624,-3.945 -4.036,-3.945 z"
   id="path38"
   inkscape:connector-curvature="0"
   style="stroke:none;fill:#000000" />
<path
   d="m 146.47675,215.87075 v -31.088 h 14.615 v 4.361 h -10.16 v 7.842 h 6.449 v 4.269 h -6.449 v 10.255 h 11.367 v 4.361 h -15.822 z"
   id="path40"
   inkscape:connector-curvature="0"
   style="stroke:none;fill:#000000" />
<path
   d="m 180.53375,215.87075 -2.18,-8.491 h -6.682 l -2.041,8.491 h -4.502 l 7.75,-31.088 h 4.361 l 7.748,31.088 h -4.454 z m -5.566,-21.808 -2.182,8.955 h 4.455 l -2.273,-8.955 z"
   id="path42"
   inkscape:connector-curvature="0"
   style="stroke:none;fill:#000000" />
</svg>