<?xml version="1.0" encoding="UTF-8" standalone="no"?>
<!-- Generator: Adobe Illustrator 12.0.1, SVG Export Plug-In  -->

<svg
   xmlns:dc="http://purl.org/dc/elements/1.1/"
   xmlns:cc="http://creativecommons.org/ns#"
   xmlns:rdf="http://www.w3.org/1999/02/22-rdf-syntax-ns#"
   xmlns:svg="http://www.w3.org/2000/svg"
   xmlns="http://www.w3.org/2000/svg"
   xmlns:sodipodi="http://sodipodi.sourceforge.net/DTD/sodipodi-0.dtd"
   xmlns:inkscape="http://www.inkscape.org/namespaces/inkscape"
   version="1.1"
   width="286.66125"
   height="286.66476"
   viewBox="-1 0 286.66125 286.66476"
   enable-background="new -1 0 289 288"
   xml:space="preserve"
   id="svg2"
   inkscape:version="0.48.2 r9819"
   sodipodi:docname="AJAX1.svg"><metadata
   id="metadata50"><rdf:RDF><cc:Work
       rdf:about=""><dc:format>image/svg+xml</dc:format><dc:type
         rdf:resource="http://purl.org/dc/dcmitype/StillImage" /></cc:Work></rdf:RDF></metadata><sodipodi:namedview
   pagecolor="#ffffff"
   bordercolor="#666666"
   borderopacity="1"
   objecttolerance="10"
   gridtolerance="10"
   guidetolerance="10"
   inkscape:pageopacity="0"
   inkscape:pageshadow="2"
   inkscape:window-width="1280"
   inkscape:window-height="1004"
   id="namedview48"
   showgrid="false"
   fit-margin-top="0"
   fit-margin-left="0"
   fit-margin-right="0"
   fit-margin-bottom="0"
   inkscape:zoom="2.3177389"
   inkscape:cx="122.39712"
   inkscape:cy="102.0671"
   inkscape:window-x="-8"
   inkscape:window-y="-8"
   inkscape:window-maximized="1"
   inkscape:current-layer="svg2" />
<defs
   id="defs4">
</defs>
<path
   d="M 3.0987498,133.3875 132.37975,4.1055 c 5.471,-5.474 14.421,-5.474 19.895,0 l 129.284,129.282 c 5.47,5.471 5.47,14.423 0,19.889 l -129.284,129.285 c -5.474,5.471 -14.424,5.471 -19.895,0 L 3.0987498,153.2755 c -5.465,-5.465 -5.465,-14.418 0,-19.888 z"
   id="path6"
   style="fill:#ffd033;stroke:none;fill-opacity:1"
   inkscape:connector-curvature="0" />

<path
   clip-rule="evenodd"
   d="M 6.2217498,135.4405 134.44075,7.2205 c 4.339,-4.339 11.442,-4.339 15.785,0 l 128.215,128.22 c 4.343,4.343 4.343,11.438 0,15.777 l -128.215,128.224 c -4.343,4.336 -11.446,4.336 -15.785,0 L 6.2217498,151.2175 c -4.339,-4.339 -4.339,-11.435 0,-15.777"
   id="path10"
   inkscape:connector-curvature="0"
   style="fill-rule:evenodd;stroke:none;fill:#000000" />
<path
   clip-rule="evenodd"
   d="m 10.22475,139.3905 128.162,-128.162 c 2.162,-2.169 5.724,-2.169 7.889,0 l 128.16,128.162 c 2.166,2.166 2.166,5.716 0,7.883 l -128.16,128.161 c -2.165,2.168 -5.727,2.168 -7.889,0 l -128.162,-128.161 c -2.1660002,-2.167 -2.1660002,-5.717 0,-7.883"
   id="path12"
   inkscape:connector-curvature="0"
   style="fill:#ffd033;fill-rule:evenodd;stroke:none;fill-opacity:1" />
<path
   d="m 43.92075,155.4825 c -4.131,0 -6.58,-3.465 -6.58,-7.314 h 3.29 c 0,1.96 0.979,4.024 3.29,4.024 1.819,0 3.29,-1.645 3.29,-3.535 0,-1.33 -0.49,-2.31 -1.891,-3.395 -0.489,-0.49 0.841,0.42 -3.955,-2.8 -1.89,-1.296 -2.87,-3.116 -2.87,-5.182 0,-3.359 2.625,-6.09 5.985,-6.09 3.325,0 5.846,2.556 5.95,6.09 h -3.22 c -0.07,-1.645 -1.226,-2.694 -2.73,-2.694 -1.54,0 -2.765,1.154 -2.765,2.694 0,1.155 0.49,1.82 2.205,2.801 4.515,2.626 6.51,5.181 6.51,8.575 0.001,3.781 -2.904,6.826 -6.509,6.826 z"
   id="path14"
   inkscape:connector-curvature="0"
   style="stroke:none;fill:#000000" />
<path
   d="m 64.18675,155.0625 v -10.604 h -6.44 v 10.604 h -3.36 v -23.451 h 3.36 v 9.556 h 6.44 v -9.556 h 3.36 v 23.451 h -3.36 z"
   id="path16"
   inkscape:connector-curvature="0"
   style="stroke:none;fill:#000000" />
<path
   d="m 82.45575,155.0625 -1.646,-6.405 h -5.04 l -1.54,6.405 h -3.395 l 5.845,-23.451 h 3.29 l 5.846,23.451 h -3.36 z m -4.2,-16.452 -1.646,6.756 h 3.36 l -1.714,-6.756 z"
   id="path18"
   inkscape:connector-curvature="0"
   style="stroke:none;fill:#000000" />
<path
   d="m 98.73075,155.0625 -3.115,-11.026 h -3.22 v 11.025 h -3.36 v -23.451 h 7.001 c 3.675,0 6.16,2.485 6.16,6.266 0,2.8 -1.155,4.831 -3.36,5.671 l 3.36,11.515 h -3.466 z m -2.87,-20.162 h -3.465 v 5.915 h 3.465 c 1.96,0 3.045,-1.05 3.045,-2.939 0,-1.82 -1.225,-2.976 -3.045,-2.976 z"
   id="path20"
   inkscape:connector-curvature="0"
   style="stroke:none;fill:#000000" />
<path
   d="m 106.15175,155.0625 v -23.451 h 11.025 v 3.29 h -7.665 v 5.915 h 4.865 v 3.221 h -4.865 v 7.735 h 8.575 v 3.29 h -11.935 z"
   id="path22"
   inkscape:connector-curvature="0"
   style="stroke:none;fill:#000000" />
<path
   d="m 134.43175,134.7265 v 20.336 h -3.396 v -20.336 h -4.27 v -3.115 h 11.935 v 3.115 h -4.269 z"
   id="path24"
   inkscape:connector-curvature="0"
   style="stroke:none;fill:#000000" />
<path
   d="m 151.72375,155.0625 v -10.604 h -6.441 v 10.604 h -3.36 v -23.451 h 3.36 v 9.556 h 6.441 v -9.556 h 3.359 v 23.451 h -3.359 z"
   id="path26"
   inkscape:connector-curvature="0"
   style="stroke:none;fill:#000000" />
<path
   d="m 160.19275,155.0625 v -23.451 h 11.025 v 3.29 h -7.666 v 5.915 h 4.865 v 3.221 h -4.865 v 7.735 h 8.576 v 3.29 h -11.935 z"
   id="path28"
   inkscape:connector-curvature="0"
   style="stroke:none;fill:#000000" />
<path
   d="m 192.32375,155.0625 -3.115,-11.025 h -3.221 v 11.025 h -3.359 v -23.451 h 7 c 3.676,0 6.16,2.485 6.16,6.266 0,2.8 -1.154,4.831 -3.359,5.671 l 3.359,11.515 h -3.465 z m -2.872,-20.162 h -3.465 v 5.915 h 3.465 c 1.961,0 3.045,-1.05 3.045,-2.939 0,-1.82 -1.224,-2.976 -3.045,-2.976 z"
   id="path30"
   inkscape:connector-curvature="0"
   style="stroke:none;fill:#000000" />
<path
   d="m 211.74875,151.4565 c -1.156,2.766 -2.871,4.025 -5.496,4.025 -2.801,0 -4.445,-1.26 -5.6,-4.025 -0.98,-2.31 -1.33,-4.55 -1.33,-8.154 0,-3.536 0.35,-5.916 1.33,-8.156 1.225,-2.8 2.869,-3.955 5.6,-3.955 2.695,0 4.34,1.155 5.496,4.025 0.979,2.31 1.33,4.55 1.33,8.086 0,3.604 -0.351,5.915 -1.33,8.154 z m -2.625,-14 c -0.596,-2.065 -1.471,-2.976 -2.871,-2.976 -1.504,0 -2.414,0.91 -2.975,2.905 -0.561,1.785 -0.734,3.36 -0.734,5.985 0,2.556 0.244,4.025 0.734,5.915 0.561,1.995 1.471,2.905 2.975,2.905 1.4,0 2.275,-0.91 2.871,-2.905 0.559,-1.89 0.734,-3.29 0.734,-5.984 10e-4,-2.625 -0.245,-4.13 -0.734,-5.845 z"
   id="path32"
   inkscape:connector-curvature="0"
   style="stroke:none;fill:#000000" />
<path
   d="m 227.56975,155.0625 -1.645,-6.405 h -5.041 l -1.539,6.405 h -3.395 l 5.844,-23.451 h 3.291 l 5.846,23.451 h -3.361 z m -4.2,-16.452 -1.646,6.756 h 3.361 l -1.715,-6.756 z"
   id="path34"
   inkscape:connector-curvature="0"
   style="stroke:none;fill:#000000" />
<path
   d="m 243.94975,153.9775 c -0.84,0.77 -1.996,1.085 -3.291,1.085 h -6.51 v -23.451 h 5.984 c 1.996,0 2.977,0.245 3.816,0.91 1.398,0.98 2.379,2.8 2.799,5.18 0.316,1.716 0.561,3.78 0.561,5.602 0.001,5.424 -1.085,8.888 -3.359,10.674 z m -0.595,-16.697 c -0.561,-1.645 -1.539,-2.38 -3.045,-2.38 h -2.801 v 16.871 h 2.801 c 1.994,0 3.045,-1.575 3.395,-3.36 0.141,-1.505 0.314,-3.149 0.314,-4.935 0,-2.661 -0.244,-5.215 -0.664,-6.196 z"
   id="path36"
   inkscape:connector-curvature="0"
   style="stroke:none;fill:#000000" />
<path
   d="m 170.91075,76.0915 c -4.418,0 -8.021,3.604 -8.021,8.021 0,4.419 3.604,8.022 8.021,8.022 4.417,0 8.021,-3.604 8.021,-8.022 0.001,-4.418 -3.603,-8.021 -8.021,-8.021 z m 0,12.586 c -2.514,0 -4.563,-2.051 -4.563,-4.564 0,-2.513 2.049,-4.563 4.563,-4.563 2.514,0 4.564,2.051 4.564,4.563 0.001,2.513 -2.05,4.564 -4.564,4.564 z"
   id="path38"
   inkscape:connector-curvature="0"
   style="fill:#000000;stroke:none" />
<path
   d="m 110.29175,76.0915 c -4.42,0 -8.023,3.604 -8.023,8.021 0,4.419 3.604,8.022 8.023,8.022 4.418,0 8.021,-3.604 8.021,-8.022 0.001,-4.418 -3.603,-8.021 -8.021,-8.021 z m 0,12.586 c -2.514,0 -4.563,-2.051 -4.563,-4.564 0,-2.513 2.05,-4.563 4.563,-4.563 2.512,0 4.563,2.051 4.563,4.563 0,2.513 -2.051,4.564 -4.563,4.564 z"
   id="path40"
   inkscape:connector-curvature="0"
   style="fill:#000000;stroke:none" />
<path
   d="m 189.42475,69.8165 -18.795,-2.508 -4.004,-8.014 -33.32,0.248 -8.016,9.02 -30.062,2.255 -1.503,11.021 7.652,1.222 c 0.527,-4.456 4.386,-7.931 8.914,-7.931 4.562,0 8.421,3.51 8.912,8.001 l 42.793,-0.037 c 0.494,-4.489 4.354,-7.964 8.914,-7.964 4.563,0 8.422,3.51 8.93,7.998 l 11.085,-2.041 -1.5,-11.27 z m -43.342,0.5 h -17.535 l 6.513,-8.019 11.771,-0.035 -0.749,8.054 z m 3.26,0 0.496,-8.019 h 13.031 l 1.248,7.766 -14.775,0.253 z"
   id="path42"
   inkscape:connector-curvature="0"
   style="fill:#000000;stroke:none" />
<path
   d="m 145.00475,214.6105 c 0,0 -0.3,0 -0.466,0 0.02,0.153 0.076,0.567 0.136,1.002 0.02,-0.062 0.274,-0.831 0.33,-1.002 z"
   id="path44"
   inkscape:connector-curvature="0"
   style="fill:#201b17" />
<path
   d="m 165.33575,202.3885 c -2.66,0 -5.315,0.723 -7.499,2.022 -0.124,-0.152 -4.66,-5.771 -4.66,-5.771 l 0.782,-1.938 c 2.74,-0.359 3.434,-1.119 4.169,-1.922 0.35,-0.382 0.524,-0.711 0.524,-0.975 0,-0.076 -0.014,-0.147 -0.043,-0.212 -0.121,-0.275 -0.471,-0.414 -1.035,-0.411 l -5.29,0.234 -5.618,0.269 c -0.512,0.017 -0.933,0.246 -1.047,0.568 -0.017,0.046 -0.03,0.106 -0.03,0.179 0,0.158 0.067,0.369 0.33,0.598 0.676,0.586 3.342,1.529 4.952,1.77 -0.056,0.173 -0.194,0.595 -0.233,0.714 -0.178,0 -19.383,0 -19.704,0 0.084,-0.296 1.392,-4.935 1.392,-4.935 0,0 -1.031,-1.924 -1.109,-2.072 0.106,-0.114 0.93,-1 0.93,-1 l 4.914,0.04 -0.088,-1.85 h -5.68 l -2.743,2.927 1.342,2.289 c 0,0 -3.97,10.822 -4.055,11.053 -1.938,-1.009 -4.241,-1.578 -6.522,-1.578 -7.925,0 -14.373,6.447 -14.373,14.373 0,7.926 6.448,14.374 14.373,14.374 7.926,0 14.373,-6.448 14.373,-14.374 0,-4.323 -2.052,-8.521 -5.48,-11.258 0.044,-0.118 0.428,-1.158 0.535,-1.449 0.27,0.306 14.038,15.876 14.038,15.876 -0.096,0.195 -0.143,0.416 -0.143,0.643 0,0.319 0.093,0.653 0.272,0.956 0.322,0.542 0.887,0.898 1.581,1.035 0.028,0.111 0.815,3.174 0.888,3.453 -0.199,0 -0.726,0 -0.726,0 v 1.321 l 3.381,-0.165 -0.095,-1.232 c 0,0 -0.843,0 -1.005,0 -0.039,-0.182 -0.708,-3.357 -0.737,-3.497 0.564,-0.354 0.949,-0.761 1.115,-1.218 0,0 3.945,-0.651 4.142,-0.684 1.745,6.239 7.433,10.593 13.883,10.593 7.926,0 14.374,-6.448 14.374,-14.374 0,-7.926 -6.449,-14.372 -14.375,-14.372 z m -46.022,25.785 c -6.293,0 -11.412,-5.118 -11.412,-11.412 0,-6.294 5.119,-11.412 11.412,-11.412 1.921,0 3.957,0.558 5.615,1.515 -1.063,3.331 -2.104,5.218 -5.634,8.059 -0.828,0.011 -1.534,0.733 -1.534,1.62 0,0.908 0.738,1.648 1.647,1.648 0.872,0 1.508,-0.69 1.554,-1.602 2.376,-1.888 4.629,-3.952 6.199,-8.064 2.26,2.116 3.564,5.1 3.564,8.236 0.001,6.294 -5.117,11.412 -11.411,11.412 z m 25.691,-13.563 c -0.057,0.171 -0.311,0.939 -0.33,1.002 -0.06,-0.435 -0.116,-0.849 -0.136,-1.002 0.166,0 0.466,0 0.466,0 z m -2.877,-1.316 0.096,1.24 c 0,0 0.527,0 0.686,0 0.013,0.155 0.076,0.907 0.112,1.342 -2.071,-2.33 -12.628,-14.211 -13.188,-14.832 0.035,-0.105 0.217,-0.666 0.26,-0.798 0.178,0 19.322,-0.024 19.659,-0.024 -0.094,0.283 -3.695,11.2 -4.638,14.058 -0.019,-0.265 -0.07,-0.985 -0.07,-0.985 h -2.917 z m 23.208,14.88 c -5.018,0 -9.581,-3.425 -10.918,-8.158 0.277,-0.053 10.337,-1.982 10.341,-1.983 0.006,0.008 0.663,0.158 0.663,0.158 0.908,0 1.647,-0.74 1.647,-1.648 0,-0.881 -0.712,-1.636 -1.555,-1.647 0,0 -5.899,-7.909 -6.074,-8.144 1.559,-0.876 3.744,-1.402 5.896,-1.402 6.294,0 11.414,5.118 11.414,11.412 0,6.294 -5.12,11.412 -11.414,11.412 z m -7.892,-20.088 c 0.176,0.228 5.689,7.39 5.929,7.702 -0.387,0.063 -9.112,1.487 -9.398,1.534 0.029,-3.165 0.371,-6.466 3.469,-9.236 z m -6.435,9.554 c 0,0 0.012,0.18 0.02,0.303 -0.217,0.021 -3.882,0.393 -4.221,0.428 0.114,-0.352 5.328,-16.257 5.463,-16.667 0.26,0.311 3.276,3.922 3.402,4.072 -3.118,2.909 -4.709,6.601 -4.709,10.985 l 0.045,0.879 z"
   id="path46"
   inkscape:connector-curvature="0"
   style="fill:#000000;stroke:none" />
</svg>