<?xml version="1.0" encoding="UTF-8" standalone="no"?>
<!-- Generator: Adobe Illustrator 12.0.1, SVG Export Plug-In  -->

<svg
   xmlns:dc="http://purl.org/dc/elements/1.1/"
   xmlns:cc="http://creativecommons.org/ns#"
   xmlns:rdf="http://www.w3.org/1999/02/22-rdf-syntax-ns#"
   xmlns:svg="http://www.w3.org/2000/svg"
   xmlns="http://www.w3.org/2000/svg"
   xmlns:sodipodi="http://sodipodi.sourceforge.net/DTD/sodipodi-0.dtd"
   xmlns:inkscape="http://www.inkscape.org/namespaces/inkscape"
   version="1.1"
   width="286.35876"
   height="286.38214"
   viewBox="0 -1 286.35876 286.38214"
   enable-background="new 0 -1 288 290"
   xml:space="preserve"
   id="svg2"
   inkscape:version="0.48.2 r9819"
   sodipodi:docname="AJAX1.svg"><metadata
   id="metadata108"><rdf:RDF><cc:Work
       rdf:about=""><dc:format>image/svg+xml</dc:format><dc:type
         rdf:resource="http://purl.org/dc/dcmitype/StillImage" /></cc:Work></rdf:RDF></metadata><sodipodi:namedview
   pagecolor="#ffffff"
   bordercolor="#666666"
   borderopacity="1"
   objecttolerance="10"
   gridtolerance="10"
   guidetolerance="10"
   inkscape:pageopacity="0"
   inkscape:pageshadow="2"
   inkscape:window-width="1280"
   inkscape:window-height="1004"
   id="namedview106"
   showgrid="false"
   fit-margin-top="0"
   fit-margin-left="0"
   fit-margin-right="0"
   fit-margin-bottom="0"
   inkscape:zoom="1.6275862"
   inkscape:cx="117.62173"
   inkscape:cy="204.86046"
   inkscape:window-x="-8"
   inkscape:window-y="-8"
   inkscape:window-maximized="1"
   inkscape:current-layer="svg2" />
<defs
   id="defs4">
</defs>
<path
   d="M 135.50575,282.24938 3.1687482,149.89038 c -4.225,-4.233 -4.225,-11.128 0,-15.351 L 135.50575,2.1723753 c 4.217,-4.229 11.118,-4.229 15.349,-0.005 l 132.328,132.3720047 c 4.233,4.237 4.233,11.117 0.01,15.351 l -132.338,132.359 c -4.184,4.173 -11.172,4.181 -15.349,0"
   id="path6"
   style="fill:#ffd520;stroke:none"
   inkscape:connector-curvature="0" />

<path
   clip-rule="evenodd"
   d="M 137.60175,280.09538 5.3297482,147.78238 c -3.045,-3.052 -3.039,-8.083 0,-11.141 L 137.60175,4.3293753 c 3.056,-3.039 8.091,-3.039 11.139,0 l 132.283,132.3200047 c 3.044,3.053 3.044,8.081 0,11.132 l -132.283,132.314 c -3.048,3.033 -8.084,3.046 -11.139,0"
   id="path10"
   inkscape:connector-curvature="0"
   style="fill:#000000;fill-rule:evenodd;stroke:none" />
<path
   clip-rule="evenodd"
   d="M 140.56875,277.05038 8.3537482,144.80738 c -1.467,-1.419 -1.467,-3.833 0,-5.25 L 140.56075,7.3283753 c 1.41,-1.472 3.827,-1.472 5.238,0 l 132.211,132.2290047 c 1.456,1.417 1.456,3.839 0,5.259 l -132.211,132.234 c -1.411,1.459 -3.82,1.459 -5.23,0"
   id="path12"
   inkscape:connector-curvature="0"
   style="fill:#ffd520;fill-rule:evenodd;stroke:none" />
<path
   d="m 130.33975,170.23038 v 14.4 h -2.65 v -14.4 h -3.824 v -2.35 h 10.35 v 2.35 h -3.876 z"
   id="path14"
   inkscape:connector-curvature="0"
   style="fill:#000000;stroke:none" />
<path
   d="m 145.43975,184.63138 v -7.3 h -6.1 v 7.3 h -2.65 v -16.75 h 2.65 v 6.75 h 6.1 v -6.75 h 2.65 v 16.75 h -2.65 z"
   id="path16"
   inkscape:connector-curvature="0"
   style="fill:#000000;stroke:none" />
<path
   d="m 152.08975,184.63138 v -16.75 h 9.875 v 2.65 h -7.225 v 4.1 h 4.875 v 2.7 h -4.875 v 4.6 h 7.75 v 2.7 h -10.4 z"
   id="path18"
   inkscape:connector-curvature="0"
   style="fill:#000000;stroke:none" />
<path
   d="m 103.19875,157.23438 c -1.479,1.32 -3.560002,2.08 -5.840002,2.08 -4.6,0 -7.96,-2.72 -9.76,-6.799 l 4.04,-1.48 c 1.12,2.52 3.199,3.96 5.72,3.96 2.479,0 4.160002,-1.72 4.160002,-3.96 0,-3.561 -4.160002,-4.16 -7.641002,-5.561 -1.6,-0.64 -5.159,-2.24 -5.159,-6.68 0,-5.24 3.56,-7.24 8.359,-7.24 3.760002,0 6.320002,2.16 7.641002,5.48 l -3.761,1.12 c 0,0 -0.960002,-2.28 -3.960002,-2.36 -0.12,0 -0.2,0 -0.279,0 -1.841,0 -3.841,0.72 -3.841,2.84 0,0.08 0,0.2 0,0.28 0.36,4.96 12.960002,1.68 12.960002,12.2 0,2.441 -0.96,4.601 -2.639,6.12 z"
   id="path20"
   inkscape:connector-curvature="0"
   style="fill:#000000;stroke:none" />
<path
   d="m 124.35875,158.83538 v -11.681 h -9.76 v 11.681 h -4.24 v -26.8 h 4.24 v 10.8 h 9.76 v -10.8 h 4.24 v 26.8 h -4.24 z"
   id="path22"
   inkscape:connector-curvature="0"
   style="fill:#000000;stroke:none" />
<path
   d="m 150.79775,158.83538 -2.64,-7.521 h -8.36 l -2.64,7.521 h -4.521 l 9.24,-26.8 h 4.2 l 9.239,26.8 h -4.518 z m -6.76,-19.36 -2.76,7.52 h 5.359 l -2.599,-7.52 z"
   id="path24"
   inkscape:connector-curvature="0"
   style="fill:#000000;stroke:none" />
<path
   d="m 172.99675,158.83538 -4.32,-11.681 h -5.079 v 11.681 h -4.24 v -26.8 h 8.84 c 2.08,0 3.479,0.2 4.8,0.84 2.36,1.12 4.04,3.96 4.04,6.68 0,2.84 -1.68,5.64 -4.16,6.759 l 4.721,12.521 h -4.602 z m -1.88,-22.08 c -0.72,-0.4 -1.04,-0.48 -2.44,-0.48 h -5.079 v 6.56 h 5.079 c 1.32,0 1.761,-0.08 2.44,-0.44 1.04,-0.6 1.68,-1.72 1.68,-2.84 0,-1.12 -0.64,-2.24 -1.68,-2.8 z"
   id="path26"
   inkscape:connector-curvature="0"
   style="fill:#000000;stroke:none" />
<path
   d="m 182.11675,158.83538 v -26.8 h 15.8 v 4.24 h -11.56 v 6.56 h 7.8 v 4.319 h -7.8 v 7.361 h 12.399 v 4.319 h -16.639 z"
   id="path28"
   inkscape:connector-curvature="0"
   style="fill:#000000;stroke:none" />
<path
   d="m 111.95775,223.17038 -4.32,-11.68 h -5.079 v 11.68 h -4.240002 v -26.8 h 8.840002 c 2.08,0 3.479,0.2 4.8,0.84 2.36,1.12 4.04,3.96 4.04,6.681 0,2.84 -1.68,5.639 -4.16,6.76 l 4.721,12.52 h -4.602 z m -1.88,-22.08 c -0.72,-0.4 -1.04,-0.48 -2.44,-0.48 h -5.079 v 6.561 h 5.079 c 1.32,0 1.761,-0.08 2.44,-0.439 1.04,-0.601 1.68,-1.721 1.68,-2.84 0,-1.123 -0.64,-2.242 -1.68,-2.802 z"
   id="path30"
   inkscape:connector-curvature="0"
   style="fill:#000000;stroke:none" />
<path
   d="m 136.59775,220.65038 c -1.52,2.039 -3.68,3 -6.479,3 -3.76,0 -6.12,-1.521 -7.721,-4.801 -1.119,-2.279 -1.88,-5.84 -1.88,-9.039 0,-4.4 1.12,-8.361 2.92,-10.92 1.601,-2.041 3.761,-3 6.841,-3 3.399,0 5.76,1.52 7.439,4.799 1.12,2.36 1.8,5.76 1.8,9.121 0,4.24 -1.04,8.48 -2.92,10.84 z m -2.92,-18.36 c -0.84,-1.399 -1.88,-1.96 -3.479,-2.08 -0.08,0 -0.16,0 -0.24,0 -1.92,0 -3.2,1.04 -4.08,3.319 -0.68,1.601 -1.04,4.041 -1.04,6.281 0,2.84 0.56,5.76 1.6,7.439 0.841,1.4 1.96,2.08 3.681,2.08 1.96,0 3.2,-1.04 4.12,-3.4 0.56,-1.4 1.04,-4.039 1.04,-6.119 -0.001,-3 -0.562,-5.72 -1.602,-7.52 z"
   id="path32"
   inkscape:connector-curvature="0"
   style="fill:#000000;stroke:none" />
<path
   d="m 161.23875,223.17038 -2.641,-7.52 h -8.359 l -2.641,7.52 h -4.521 l 9.241,-26.8 h 4.199 l 9.24,26.8 h -4.518 z m -6.76,-19.36 -2.76,7.52 h 5.359 l -2.599,-7.52 z"
   id="path34"
   inkscape:connector-curvature="0"
   style="fill:#000000;stroke:none" />
<path
   d="m 183.31675,221.65038 c -1,0.959 -2.439,1.439 -3.84,1.52 -0.279,0 -0.84,0 -1.52,0 h -8.16 v -26.8 h 8.641 c 2.719,0 3.76,0.28 5.199,1.399 2.801,2.44 4.4,6.68 4.4,11.961 0,5.36 -1.679,9.6 -4.72,11.92 z m -1.76,-19.92 c -0.68,-0.641 -1.6,-1.121 -2.719,-1.121 h -4.801 v 18.24 h 4.24 c 1.4,0 2.24,-0.279 3,-1.039 1.6,-1.601 2.439,-4.521 2.439,-8.08 10e-4,-3.6 -0.839,-6.6 -2.159,-8 z"
   id="path36"
   inkscape:connector-curvature="0"
   style="fill:#000000;stroke:none" />
<path
   d="m 134.06175,257.72038 c -0.296,0.265 -0.712,0.416 -1.168,0.416 -0.92,0 -1.592,-0.544 -1.952,-1.359 l 0.809,-0.296 c 0.224,0.504 0.64,0.792 1.144,0.792 0.496,0 0.832,-0.345 0.832,-0.792 0,-0.712 -0.832,-0.832 -1.528,-1.112 -0.319,-0.128 -1.031,-0.448 -1.031,-1.336 0,-1.048 0.712,-1.448 1.672,-1.448 0.752,0 1.264,0.432 1.527,1.096 l -0.752,0.225 c 0,0 -0.191,-0.456 -0.792,-0.473 -0.023,0 -0.04,0 -0.056,0 -0.368,0 -0.768,0.145 -0.768,0.568 0,0.016 0,0.04 0,0.056 0.071,0.992 2.592,0.336 2.592,2.44 -0.001,0.487 -0.193,0.919 -0.529,1.223 z"
   id="path38"
   inkscape:connector-curvature="0"
   style="fill:#000000;stroke:none" />
<path
   d="m 138.98975,258.04038 h -0.752 l -0.848,-3.44 -0.824,3.44 h -0.752 l -0.792,-5.36 h 0.864 l 0.416,2.824 0.68,-2.824 h 0.824 l 0.695,2.824 0.416,-2.824 h 0.864 l -0.791,5.36 z"
   id="path40"
   inkscape:connector-curvature="0"
   style="fill:#000000;stroke:none" />
<path
   d="m 140.10175,255.82438 v -0.849 h 1.88 v 0.849 h -1.88 z"
   id="path42"
   inkscape:connector-curvature="0"
   style="fill:#000000;stroke:none" />
<path
   d="m 144.50075,258.13638 c -1.031,0 -1.823,-0.752 -1.823,-1.712 0,-1.487 0.823,-3.008 2.063,-3.84 l 0.433,0.72 c -0.656,0.504 -0.992,0.937 -1.313,1.616 0.304,-0.056 0.432,-0.056 0.64,-0.056 0.993,0 1.825,0.728 1.825,1.632 0,0.92 -0.793,1.64 -1.825,1.64 z m 0,-2.432 c -0.527,0 -0.96,0.36 -0.96,0.776 0,0.432 0.433,0.792 0.96,0.792 0.528,0 0.978,-0.36 0.978,-0.792 0,-0.416 -0.434,-0.776 -0.978,-0.776 z"
   id="path44"
   inkscape:connector-curvature="0"
   style="fill:#000000;stroke:none" />
<path
   d="m 150.39075,254.16838 c -0.473,0.784 -0.824,1.688 -1,2.552 -0.072,0.456 -0.113,0.792 -0.113,1.32 h -0.863 c 0.016,-1.24 0.248,-2.271 0.775,-3.408 0.184,-0.408 0.408,-0.808 0.6,-1.104 h -2.559 v -0.849 h 3.631 v 0.849 c -0.192,0.24 -0.303,0.352 -0.471,0.64 z"
   id="path46"
   inkscape:connector-curvature="0"
   style="fill:#000000;stroke:none" />
<path
   d="m 153.07775,258.13638 c -0.465,0 -0.936,-0.111 -1.313,-0.304 l 0.416,-0.752 c 0.225,0.112 0.615,0.192 1.008,0.192 0.775,0 1.377,-0.513 1.377,-1.208 0,-0.528 -0.434,-0.937 -0.961,-0.937 -0.375,0 -0.543,0.112 -0.863,0.561 l -0.713,-0.24 v -2.769 h 3.08 v 0.849 h -2.256 l -0.057,0.88 c 0.393,-0.112 0.568,-0.152 0.832,-0.152 0.977,0 1.785,0.832 1.785,1.809 0.001,1.183 -0.975,2.071 -2.335,2.071 z"
   id="path48"
   inkscape:connector-curvature="0"
   style="fill:#000000;stroke:none" />
<path
   d="m 133.28175,240.54938 c -0.188,0.104 -0.416,0.16 -0.632,0.16 h -0.863 v -2.68 h 0.863 c 0.229,0 0.444,0.056 0.641,0.168 0.416,0.235 0.64,0.64 0.64,1.168 -10e-4,0.536 -0.225,0.947 -0.649,1.184 z m -0.228,-1.936 c -0.12,-0.068 -0.26,-0.104 -0.404,-0.104 h -0.376 v 1.72 h 0.376 c 0.145,0 0.272,-0.035 0.389,-0.104 0.279,-0.148 0.411,-0.392 0.411,-0.76 -0.001,-0.36 -0.132,-0.604 -0.396,-0.752 z"
   id="path50"
   inkscape:connector-curvature="0"
   style="fill:#000000;stroke:none" />
<path
   d="m 135.78175,240.70938 v -2.68 h 1.956 v 0.479 h -1.469 v 0.496 h 0.8 v 0.492 h -0.8 v 0.731 h 1.517 v 0.48 h -2.004 z"
   id="path52"
   inkscape:connector-curvature="0"
   style="fill:#000000;stroke:none" />
<path
   d="m 141.29375,239.55338 c -0.152,0.084 -0.276,0.104 -0.48,0.104 h -0.764 v 1.052 h -0.488 v -2.68 h 1.252 c 0.204,0 0.328,0.027 0.48,0.111 0.252,0.141 0.412,0.404 0.412,0.708 0,0.281 -0.16,0.565 -0.412,0.705 z m -0.465,-1.044 h -0.779 v 0.668 h 0.779 c 0.236,0 0.396,-0.132 0.396,-0.328 0.001,-0.208 -0.159,-0.34 -0.396,-0.34 z"
   id="path54"
   inkscape:connector-curvature="0"
   style="fill:#000000;stroke:none" />
<path
   d="m 144.39375,238.50138 v 2.208 h -0.468 v -2.208 h -0.772 v -0.472 h 2.012 v 0.472 h -0.772 z"
   id="path56"
   inkscape:connector-curvature="0"
   style="fill:#000000;stroke:none" />
<path
   d="m 150.07375,240.75738 c -0.787,0 -1.135,-0.716 -1.135,-1.392 0,-0.856 0.432,-1.384 1.135,-1.384 0.66,0 1.113,0.556 1.113,1.371 0,0.841 -0.433,1.405 -1.113,1.405 z m 0,-2.296 c -0.403,0 -0.647,0.34 -0.647,0.904 0,0.571 0.244,0.912 0.647,0.912 0.509,0 0.633,-0.5 0.633,-0.912 -0.001,-0.564 -0.229,-0.904 -0.633,-0.904 z"
   id="path58"
   inkscape:connector-curvature="0"
   style="fill:#000000;stroke:none" />
<path
   d="m 153.53375,238.50938 v 0.544 h 0.836 v 0.488 h -0.836 v 1.168 h -0.488 v -2.68 h 2.004 v 0.479 h -1.516 z"
   id="path60"
   inkscape:connector-curvature="0"
   style="fill:#000000;stroke:none" />
<path
   d="m 118.80175,243.30138 v 2.208 h -0.468 v -2.208 h -0.772 v -0.472 h 2.012 v 0.472 h -0.772 z"
   id="path62"
   inkscape:connector-curvature="0"
   style="fill:#000000;stroke:none" />
<path
   d="m 122.89375,245.50938 -0.432,-1.052 h -0.716 v 1.052 h -0.48 v -2.68 h 1.232 c 0.195,0 0.319,0.027 0.46,0.111 0.256,0.141 0.416,0.404 0.416,0.708 0,0.301 -0.16,0.564 -0.437,0.712 l 0.492,1.148 h -0.535 z m -0.388,-2.201 h -0.76 v 0.668 h 0.76 c 0.235,0 0.388,-0.132 0.388,-0.328 0,-0.208 -0.153,-0.34 -0.388,-0.34 z"
   id="path64"
   inkscape:connector-curvature="0"
   style="fill:#000000;stroke:none" />
<path
   d="m 127.18175,245.50938 -0.264,-0.632 h -1.168 l -0.261,0.632 h -0.527 l 1.128,-2.68 h 0.487 l 1.12,2.68 h -0.515 z m -0.848,-2.012 -0.376,0.903 h 0.752 l -0.376,-0.903 z"
   id="path66"
   inkscape:connector-curvature="0"
   style="fill:#000000;stroke:none" />
<path
   d="m 131.14575,245.50938 -1.276,-1.844 v 1.844 h -0.472 v -2.68 h 0.472 l 1.229,1.768 v -1.768 h 0.464 v 2.68 h -0.417 z"
   id="path68"
   inkscape:connector-curvature="0"
   style="fill:#000000;stroke:none" />
<path
   d="m 135.12575,245.35638 c -0.188,0.116 -0.433,0.181 -0.681,0.181 -0.46,0 -0.808,-0.168 -1.107,-0.517 l 0.384,-0.3 c 0.2,0.232 0.416,0.336 0.716,0.336 0.34,0 0.584,-0.147 0.584,-0.348 0,-0.104 -0.056,-0.188 -0.168,-0.244 -0.096,-0.036 -0.2,-0.076 -0.32,-0.104 l -0.124,-0.035 -0.124,-0.028 -0.128,-0.04 c -0.275,-0.064 -0.416,-0.132 -0.527,-0.26 -0.112,-0.124 -0.168,-0.284 -0.168,-0.452 0,-0.444 0.376,-0.744 0.92,-0.744 0.396,0 0.724,0.132 0.996,0.412 l -0.356,0.32 c -0.168,-0.177 -0.388,-0.265 -0.64,-0.265 -0.272,0 -0.433,0.104 -0.433,0.276 0,0.147 0.093,0.216 0.425,0.292 0.355,0.072 0.592,0.147 0.739,0.224 0.236,0.124 0.389,0.376 0.389,0.668 -0.001,0.273 -0.125,0.481 -0.377,0.628 z"
   id="path70"
   inkscape:connector-curvature="0"
   style="fill:#000000;stroke:none" />
<path
   d="m 139.00975,244.35238 c -0.152,0.084 -0.276,0.104 -0.48,0.104 h -0.764 v 1.052 h -0.488 v -2.68 h 1.252 c 0.204,0 0.328,0.027 0.48,0.111 0.252,0.141 0.412,0.404 0.412,0.708 0,0.282 -0.16,0.566 -0.412,0.705 z m -0.465,-1.044 h -0.779 v 0.668 h 0.779 c 0.236,0 0.396,-0.132 0.396,-0.328 0.001,-0.208 -0.159,-0.34 -0.396,-0.34 z"
   id="path72"
   inkscape:connector-curvature="0"
   style="fill:#000000;stroke:none" />
<path
   d="m 142.16475,245.55738 c -0.788,0 -1.136,-0.716 -1.136,-1.392 0,-0.856 0.432,-1.384 1.136,-1.384 0.66,0 1.112,0.556 1.112,1.371 0.001,0.841 -0.431,1.405 -1.112,1.405 z m 0,-2.296 c -0.403,0 -0.647,0.34 -0.647,0.904 0,0.571 0.244,0.912 0.647,0.912 0.509,0 0.632,-0.5 0.632,-0.912 0,-0.565 -0.227,-0.904 -0.632,-0.904 z"
   id="path74"
   inkscape:connector-curvature="0"
   style="fill:#000000;stroke:none" />
<path
   d="m 146.76675,245.50938 -0.433,-1.052 h -0.716 v 1.052 h -0.48 v -2.68 h 1.232 c 0.195,0 0.32,0.027 0.46,0.111 0.256,0.141 0.416,0.404 0.416,0.708 0,0.301 -0.16,0.564 -0.437,0.712 l 0.492,1.148 h -0.534 z m -0.389,-2.201 h -0.76 v 0.668 h 0.76 c 0.236,0 0.389,-0.132 0.389,-0.328 0,-0.208 -0.152,-0.34 -0.389,-0.34 z"
   id="path76"
   inkscape:connector-curvature="0"
   style="fill:#000000;stroke:none" />
<path
   d="m 150.07375,243.30138 v 2.208 h -0.467 v -2.208 h -0.772 v -0.472 h 2.013 v 0.472 h -0.774 z"
   id="path78"
   inkscape:connector-curvature="0"
   style="fill:#000000;stroke:none" />
<path
   d="m 154.51375,245.50938 -0.264,-0.632 h -1.168 l -0.261,0.632 h -0.527 l 1.128,-2.68 h 0.487 l 1.121,2.68 h -0.516 z m -0.848,-2.012 -0.376,0.903 h 0.752 l -0.376,-0.903 z"
   id="path80"
   inkscape:connector-curvature="0"
   style="fill:#000000;stroke:none" />
<path
   d="m 157.72575,243.30138 v 2.208 h -0.468 v -2.208 h -0.772 v -0.472 h 2.012 v 0.472 h -0.772 z"
   id="path82"
   inkscape:connector-curvature="0"
   style="fill:#000000;stroke:none" />
<path
   d="m 160.19075,245.50938 v -2.68 h 0.479 v 2.68 h -0.479 z"
   id="path84"
   inkscape:connector-curvature="0"
   style="fill:#000000;stroke:none" />
<path
   d="m 163.65675,245.55738 c -0.787,0 -1.135,-0.716 -1.135,-1.392 0,-0.856 0.432,-1.384 1.135,-1.384 0.66,0 1.113,0.556 1.113,1.371 0.001,0.841 -0.432,1.405 -1.113,1.405 z m 0,-2.296 c -0.403,0 -0.647,0.34 -0.647,0.904 0,0.571 0.244,0.912 0.647,0.912 0.509,0 0.633,-0.5 0.633,-0.912 0,-0.565 -0.228,-0.904 -0.633,-0.904 z"
   id="path86"
   inkscape:connector-curvature="0"
   style="fill:#000000;stroke:none" />
<path
   d="m 168.37775,245.50938 -1.276,-1.844 v 1.844 h -0.472 v -2.68 h 0.472 l 1.228,1.768 v -1.768 h 0.465 v 2.68 h -0.417 z"
   id="path88"
   inkscape:connector-curvature="0"
   style="fill:#000000;stroke:none" />
<polygon
   points="194.525,74.449 194.525,87.17 203.043,87.17 "
   id="polygon90"
   style="fill:none"
   transform="translate(-0.82225174,-1.8166247)" />
<polygon
   points="178.617,87.168 178.617,74.447 170.098,87.168 "
   id="polygon92"
   style="fill:none"
   transform="translate(-0.82225174,-1.8166247)" />
<rect
   x="187.55275"
   y="88.420372"
   width="2.5999999"
   height="16.132999"
   id="rect94"
   style="fill:none" />
<path
   d="m 84.944748,94.436375 c 0.048,0 0.208,-0.402 0.23,-0.442 l 0.877,-1.733 c 0.025,-0.044 0.625,-0.216 0.691,-0.245 0.212,-0.087 0.41,-0.146 0.636,-0.201 2.018,-0.508 4.124,-0.958 6.223,-0.867 0.669,0.025 1.338,0.055 2.011,0.084 0.508,0.022 1.031,0.179 1.536,0.267 1.123,0.208 2.208,0.538 3.309002,0.845 0.329,0.095 0.567,0.939 0.713,1.228 0.059,0.113 0.446,1.097 0.57,1.097 0.414,0 0.827,0 1.243,0 5.55,-0.022 11.1,-0.041 16.65,-0.063 4.117,-0.015 8.233,-0.025 12.357,-0.04 l -1.601,-9.027 c -0.402,-2.289 -0.805,-4.578 -1.214,-6.866 -0.037,-0.208 -0.49,-0.139 -0.688,-0.161 -0.526,-0.059 -1.053,-0.121 -1.58,-0.172 -1.192,-0.113 -2.376,-0.227 -3.568,-0.333 -4.417,-0.387 -8.862,-0.497 -13.297,-0.563 -2.088,-0.029 -4.186,-0.022 -6.277,0 -1.009,0.007 -2.019,0.106 -3.031,0.106 -1.060002,0.003 -2.124002,0.007 -3.181002,0.091 -2.271,0.183 -4.548,0.263 -6.818,0.398 -1.009,0.059 -2.011,0.095 -3.017,0.187 -0.556,0.051 -1.115,0.091 -1.678,0.135 -0.227,0.018 -0.461,-0.004 -0.684,0.033 -0.201,0.037 -0.603,0.201 -0.768,0.055 -0.099,0.545 -0.194,1.093 -0.289,1.642 -0.866,4.87 -1.729,9.747 -2.592,14.621 0.113,0 0.23,-0.003 0.347,-0.007 0.753,-0.018 1.499,-0.036 2.252,-0.051 0.214,-0.007 0.426,-0.011 0.638,-0.018 z m 8.701,-11.86 c 2.106,0 3.817,1.711 3.817,3.824 0,2.11 -1.711,3.821 -3.817,3.821 -2.113,0 -3.824,-1.711 -3.824,-3.821 0,-2.113 1.711,-3.824 3.824,-3.824 z"
   id="path96"
   inkscape:connector-curvature="0"
   style="fill:none" />
<path
   d="m 123.38475,113.64138 c -1.44,0 -2.888,0.007 -4.329,0.007 -6.135,0.022 -12.27,0.037 -18.405,0.051 -2.574002,0.007 -5.151002,0.014 -7.729002,0.021 -0.694,0.007 -1.396,0.007 -2.091,0.007 -0.457,0 -0.464,-0.087 -0.468,0.402 -0.015,1.44 -0.022,2.888 -0.037,4.336 -0.003,0.469 -0.006,1.967 -0.011,2.851 h 33.063002 c 10e-4,-2.344 0.007,-5.609 0.007,-7.675 z"
   id="path98"
   inkscape:connector-curvature="0"
   style="fill:none" />
<rect
   x="181.34375"
   y="88.418373"
   width="2.602"
   height="20.933001"
   id="rect100"
   style="fill:none" />
<path
   d="m 93.645748,90.221375 c 2.106,0 3.817,-1.711 3.817,-3.821 0,-2.113 -1.711,-3.824 -3.817,-3.824 -2.113,0 -3.824,1.711 -3.824,3.824 0,2.11 1.711,3.821 3.824,3.821 z"
   id="path102"
   inkscape:connector-curvature="0"
   style="fill:#000000;stroke:none" />
<path
   d="m 187.55275,121.31838 v -15.298 h 8.199 v -1.467 h -2 V 87.220375 h 12 v -1.867 h -3.529 l 1.992,-1.334 -10.512,-14.894 h -5.777 v -1.326 c 1.445,-0.778 2.43,-2.303 2.43,-4.06 0,-2.544 -2.064,-4.608 -4.609,-4.608 -2.545,0 -4.607,2.063 -4.607,4.608 0,1.757 0.984,3.284 2.432,4.062 v 1.322 h -5.775 l -10.514,14.894 1.992,1.334 h -3.529 v 1.867 h 12 v 22.133005 h -2 v 1.467 h 8.201 v 10.5 h -53.073 v -2.719 c 0.007,-1.477 0.007,-2.961 0.007,-4.438 0,-0.205 0,-0.402 0.007,-0.6 3.085,0.037 6.179,0.073 9.271,0.11 -0.029,-1.58 -0.051,-3.159 -0.08,-4.738 -0.585,0.022 -1.163,0.044 -1.748,0.058 0.3,-4.752 0.592,-9.505005 0.885,-14.255005 0.007,-0.135 0.015,-0.267 0.029,-0.406 -0.805,-0.771 -1.609,-1.546 -2.413,-2.318 -0.063,-0.066 -0.088,-0.322 -0.11,-0.41 -0.11,-0.391 -0.212,-0.782 -0.314,-1.173 -0.775,-2.874 -1.55,-5.751 -2.325,-8.625 -0.541,-2.003 -1.082,-4.003 -1.623,-6.007 -0.022,-0.087 -0.819,-0.109 -0.914,-0.121 l -2.347,-0.263 c -0.783,-0.088 -1.558,-0.168 -2.34,-0.23 -4.614,-0.362 -9.191,-0.658 -13.82,-0.724 -4.321,-0.059 -8.636,-0.15 -12.953,0.044 -4.398002,0.201 -8.815002,0.336 -13.195002,0.79 -1.097,0.117 -2.194,0.212 -3.298,0.303 -0.454,0.041 -0.921,0.11 -1.378,0.154 -0.15,0.015 -1.027,0.007 -1.071,0.165 -0.57,2.121 -1.141,4.241 -1.708,6.358 -0.764,2.837 -1.524,5.674 -2.285,8.511 -0.099,0.354 -0.194,0.709 -0.285,1.064 -0.041,0.135 -0.044,0.256 -0.15,0.347 -0.501,0.461 -1.005,0.921 -1.51,1.382 -0.124,0.117 -0.801,0.578 -0.79,0.757 0.285,4.848 0.57,9.696005 0.855,14.547005 0.007,0.088 0.011,0.183 0.015,0.271 -0.592,-0.066 -1.185,-0.125 -1.78,-0.183 -0.055,1.586 -0.106,3.181 -0.157,4.774 l 9.52,0.066 c -0.013,1.987 0.01,5.226 0.006,7.508 h -50.264 v 2.4 H 253.74375 v -2.4 h -66.191 z m 6.15,-48.686005 8.518,12.722 h -8.518 v -12.722 z m -6.15,15.788 h 2.6 v 16.133005 h -2.6 V 88.420375 z m -9.758,-3.069 h -8.52 l 8.52,-12.722 v 12.722 z m -95.739002,9.154 c -0.117,0.004 -0.234,0.007 -0.347,0.007 0.863,-4.874 1.726,-9.75 2.592,-14.621 0.095,-0.548 0.19,-1.097 0.289,-1.642 0.165,0.146 0.567,-0.018 0.768,-0.055 0.223,-0.037 0.457,-0.015 0.684,-0.033 0.563,-0.044 1.122,-0.084 1.678,-0.135 1.006,-0.091 2.007,-0.128 3.017,-0.187 2.271,-0.135 4.548,-0.216 6.818,-0.398 1.057,-0.084 2.121,-0.088 3.181002,-0.091 1.013,0 2.022,-0.099 3.031,-0.106 2.091,-0.022 4.189,-0.029 6.277,0 4.435,0.066 8.88,0.176 13.297,0.563 1.192,0.106 2.376,0.22 3.568,0.333 0.527,0.051 1.053,0.113 1.58,0.172 0.197,0.022 0.651,-0.048 0.688,0.161 0.409,2.289 0.812,4.578 1.214,6.866 l 1.601,9.027 c -4.124,0.015 -8.241,0.025 -12.357,0.04 -5.55,0.022 -11.1,0.041 -16.65,0.063 -0.417,0 -0.83,0 -1.243,0 -0.124,0 -0.512,-0.984 -0.57,-1.097 -0.146,-0.289 -0.384,-1.133 -0.713,-1.228 -1.100002,-0.307 -2.186002,-0.636 -3.309002,-0.845 -0.504,-0.088 -1.027,-0.245 -1.536,-0.267 -0.673,-0.029 -1.342,-0.059 -2.011,-0.084 -2.099,-0.091 -4.205,0.358 -6.223,0.867 -0.227,0.055 -0.424,0.113 -0.636,0.201 -0.066,0.029 -0.666,0.201 -0.691,0.245 l -0.877,1.733 c -0.022,0.041 -0.183,0.442 -0.23,0.442 -0.212,0.007 -0.424,0.011 -0.636,0.019 -0.755,0.014 -1.5,0.032 -2.254,0.05 z m 8.27,23.962005 c 0.015,-1.448 0.022,-2.896 0.037,-4.336 0.003,-0.49 0.011,-0.402 0.468,-0.402 0.695,0 1.397,0 2.091,-0.007 2.578,-0.007 5.155,-0.014 7.729002,-0.021 6.135,-0.015 12.27,-0.029 18.405,-0.051 1.44,0 2.888,-0.007 4.329,-0.007 0,2.066 -0.006,5.33 -0.007,7.676 H 90.315748 c 0.005,-0.885 0.008,-2.383 0.01,-2.852 z m 93.620002,-9.116 h -2.602 V 88.418375 h 2.602 v 20.933005 z"
   id="path104"
   inkscape:connector-curvature="0"
   style="fill:#000000;stroke:none" />
</svg>