<?xml version="1.0" encoding="UTF-8" standalone="no"?>
<!-- Generator: Adobe Illustrator 12.0.1, SVG Export Plug-In  -->

<svg
   xmlns:dc="http://purl.org/dc/elements/1.1/"
   xmlns:cc="http://creativecommons.org/ns#"
   xmlns:rdf="http://www.w3.org/1999/02/22-rdf-syntax-ns#"
   xmlns:svg="http://www.w3.org/2000/svg"
   xmlns="http://www.w3.org/2000/svg"
   xmlns:sodipodi="http://sodipodi.sourceforge.net/DTD/sodipodi-0.dtd"
   xmlns:inkscape="http://www.inkscape.org/namespaces/inkscape"
   version="1.1"
   width="286.66025"
   height="286.66199"
   viewBox="0 -1 286.66025 286.66199"
   enable-background="new 0 -1 288 290"
   xml:space="preserve"
   id="svg2"
   inkscape:version="0.48.2 r9819"
   sodipodi:docname="AJAX1.svg"><metadata
   id="metadata60"><rdf:RDF><cc:Work
       rdf:about=""><dc:format>image/svg+xml</dc:format><dc:type
         rdf:resource="http://purl.org/dc/dcmitype/StillImage" /></cc:Work></rdf:RDF></metadata><sodipodi:namedview
   pagecolor="#ffffff"
   bordercolor="#666666"
   borderopacity="1"
   objecttolerance="10"
   gridtolerance="10"
   guidetolerance="10"
   inkscape:pageopacity="0"
   inkscape:pageshadow="2"
   inkscape:window-width="1280"
   inkscape:window-height="1004"
   id="namedview58"
   showgrid="false"
   fit-margin-top="0"
   fit-margin-left="0"
   fit-margin-right="0"
   fit-margin-bottom="0"
   inkscape:zoom="2.3017545"
   inkscape:cx="83.596086"
   inkscape:cy="137.22989"
   inkscape:window-x="-8"
   inkscape:window-y="-8"
   inkscape:window-maximized="1"
   inkscape:current-layer="svg2" />
<defs
   id="defs4">
</defs>
<path
   d="M 4.0987498,132.38775 133.37975,3.10475 c 5.471,-5.473 14.422,-5.473 19.893,0 l 129.285,129.283 c 5.47,5.469 5.47,14.421 0,19.889 l -129.286,129.282 c -5.471,5.471 -14.421,5.471 -19.893,0 L 4.0987498,152.27675 c -5.465,-5.468 -5.465,-14.42 0,-19.889 z"
   id="path6"
   style="fill:#ffd033;stroke:none;fill-opacity:1"
   inkscape:connector-curvature="0" />

<path
   clip-rule="evenodd"
   d="M 7.2207498,134.43875 135.43975,6.21975 c 4.339,-4.339 11.445,-4.339 15.786,0 l 128.215,128.219 c 4.344,4.344 4.344,11.438 0,15.777 l -128.216,128.227 c -4.341,4.335 -11.446,4.335 -15.786,0 L 7.2207498,150.21575 c -4.339,-4.338 -4.339,-11.433 0,-15.777"
   id="path10"
   inkscape:connector-curvature="0"
   style="fill-rule:evenodd;stroke:none;fill:#000000" />
<path
   clip-rule="evenodd"
   d="m 11.22375,138.38975 128.162,-128.162 c 2.164,-2.17 5.723,-2.17 7.889,0 l 128.16,128.162 c 2.166,2.166 2.166,5.717 0,7.882 l -128.16,128.161 c -2.166,2.168 -5.726,2.168 -7.889,0 l -128.162,-128.161 c -2.1640002,-2.165 -2.1640002,-5.716 0,-7.882"
   id="path12"
   inkscape:connector-curvature="0"
   style="fill:#ffd033;fill-rule:evenodd;stroke:none;fill-opacity:1" />
<path
   d="m 76.14575,101.33075 c 0,-2.785 -2.266,-5.052 -5.052,-5.052 -2.786,0 -5.052,2.267 -5.052,5.052 0,2.786 2.266,5.052 5.052,5.052 2.786,0 5.052,-2.267 5.052,-5.052 z"
   id="path14"
   inkscape:connector-curvature="0"
   style="stroke:none;stroke-opacity:1;fill:#000000" />
<path
   d="m 66.24875,123.76575 2.403,8.478 4.382,-1.359 c 0,0 -1.42,-3.91 -1.593,-4.382 0.414,-0.117 5.107,-1.46 6.86,-1.961 -1.343,2.342 -9.173,15.99 -9.173,15.99 l 4.192,2.097 13.511,-22.159 -9.809,-14.714 -7.148,4.4 -8.987,7.625 2.442,3.052 c 0,0 8.592,-5.812 9.019,-6.101 0.155,0.237 1.972,3.038 3.592,5.535 l -9.691,3.499 z"
   id="path16"
   inkscape:connector-curvature="0"
   style="stroke:none;stroke-opacity:1;fill:#000000" />
<path
   d="m 107.03475,137.93575 c 0,-7.158 -5.825,-12.984 -12.983,-12.984 -7.159,0 -12.984,5.826 -12.984,12.984 0,7.158 5.825,12.984 12.984,12.984 7.158,0 12.983,-5.826 12.983,-12.984 z m -22.19,0 c 0,-5.076 4.13,-9.206 9.206,-9.206 5.075,0 9.206,4.13 9.206,9.206 0,2.459 -0.958,4.771 -2.697,6.51 -1.739,1.739 -4.05,2.696 -6.509,2.696 -5.076,0 -9.206,-4.13 -9.206,-9.206 z"
   id="path18"
   inkscape:connector-curvature="0"
   style="stroke:none;stroke-opacity:1;fill:#000000" />
<path
   d="m 66.10175,137.93575 c 0,-7.158 -5.825,-12.984 -12.984,-12.984 -7.159,0 -12.984,5.826 -12.984,12.984 0,3.468 1.352,6.729 3.803,9.181 2.453,2.452 5.713,3.804 9.181,3.804 7.159,-0.001 12.984,-5.827 12.984,-12.985 z m -22.189,0 c 0,-5.076 4.13,-9.206 9.205,-9.206 5.076,0 9.206,4.13 9.206,9.206 0,5.075 -4.13,9.206 -9.206,9.206 -5.075,0 -9.205,-4.131 -9.205,-9.206 z"
   id="path20"
   inkscape:connector-curvature="0"
   style="stroke:none;stroke-opacity:1;fill:#000000" />
<circle
   cx="187.052"
   cy="124.115"
   r="3.6010001"
   id="circle22"
   sodipodi:cx="187.052"
   sodipodi:cy="124.115"
   sodipodi:rx="3.6010001"
   sodipodi:ry="3.6010001"
   transform="translate(-0.6762503,-1.66425)"
   style="stroke:none;fill:#000000" />
<path
   d="m 104.44375,86.76975 c -1.439,1.284 -3.463,2.023 -5.68,2.023 -4.474,0 -7.741,-2.645 -9.492,-6.613 l 3.93,-1.439 c 1.089,2.451 3.111,3.851 5.563,3.851 2.411,0 4.045,-1.673 4.045,-3.851 0,-3.462 -4.045,-4.046 -7.43,-5.407 -1.556,-0.623 -5.018,-2.179 -5.018,-6.497 0,-5.096 3.462,-7.041 8.13,-7.041 3.656,0 6.146,2.101 7.43,5.33 l -3.656,1.089 c 0,0 -0.934,-2.217 -3.852,-2.295 -0.116,0 -0.194,0 -0.272,0 -1.789,0 -3.734,0.7 -3.734,2.762 0,0.078 0,0.194 0,0.272 0.351,4.824 12.604,1.634 12.604,11.865 0,2.372 -0.934,4.473 -2.568,5.951 z"
   id="path24"
   inkscape:connector-curvature="0"
   style="stroke:none;stroke-opacity:1;fill:#000000" />
<path
   d="m 125.02075,88.32575 v -11.359 h -9.491 v 11.359 h -4.124 v -26.063 h 4.124 v 10.503 h 9.491 v -10.503 h 4.124 v 26.063 h -4.124 z"
   id="path26"
   inkscape:connector-curvature="0"
   style="stroke:none;stroke-opacity:1;fill:#000000" />
<path
   d="m 150.73475,88.32575 -2.567,-7.313 h -8.131 l -2.567,7.313 h -4.396 l 8.985,-26.063 h 4.085 l 8.986,26.063 h -4.395 z m -6.575,-18.827 -2.684,7.313 h 5.213 l -2.529,-7.313 z"
   id="path28"
   inkscape:connector-curvature="0"
   style="stroke:none;stroke-opacity:1;fill:#000000" />
<path
   d="m 172.32375,88.32575 -4.201,-11.359 h -4.94 v 11.359 h -4.123 v -26.063 h 8.597 c 2.022,0 3.385,0.195 4.668,0.817 2.295,1.089 3.929,3.852 3.929,6.497 0,2.762 -1.634,5.485 -4.045,6.574 l 4.59,12.176 h -4.475 z m -1.828,-21.473 c -0.7,-0.389 -1.012,-0.467 -2.373,-0.467 h -4.94 v 6.38 h 4.94 c 1.284,0 1.712,-0.078 2.373,-0.428 1.012,-0.583 1.634,-1.672 1.634,-2.762 0,-1.09 -0.622,-2.178 -1.634,-2.723 z"
   id="path30"
   inkscape:connector-curvature="0"
   style="stroke:none;stroke-opacity:1;fill:#000000" />
<path
   d="m 181.19275,88.32575 v -26.063 h 15.365 v 4.124 h -11.242 v 6.38 h 7.586 v 4.201 h -7.586 v 7.158 h 12.06 v 4.201 h -16.183 z"
   id="path32"
   inkscape:connector-curvature="0"
   style="stroke:none;stroke-opacity:1;fill:#000000" />
<path
   d="m 123.34775,173.72975 v 22.406 h -4.123 v -22.406 h -5.952 v -3.657 h 16.105 v 3.657 h -6.03 z"
   id="path34"
   inkscape:connector-curvature="0"
   style="stroke:none;stroke-opacity:1;fill:#000000" />
<path
   d="m 146.84475,196.13575 v -11.359 h -9.492 v 11.359 h -4.123 v -26.063 h 4.123 v 10.503 h 9.492 v -10.503 h 4.124 v 26.063 h -4.124 z"
   id="path36"
   inkscape:connector-curvature="0"
   style="stroke:none;stroke-opacity:1;fill:#000000" />
<path
   d="m 157.19175,196.13575 v -26.063 h 15.365 v 4.124 h -11.242 v 6.379 h 7.586 v 4.201 h -7.586 v 7.158 h 12.06 v 4.201 h -16.183 z"
   id="path38"
   inkscape:connector-curvature="0"
   style="stroke:none;stroke-opacity:1;fill:#000000" />
<path
   d="m 112.96275,232.25775 -4.201,-11.359 h -4.94 v 11.359 h -4.124 v -26.063 h 8.597 c 2.023,0 3.384,0.194 4.668,0.817 2.295,1.089 3.929,3.851 3.929,6.496 0,2.762 -1.634,5.485 -4.046,6.574 l 4.59,12.176 h -4.473 z m -1.828,-21.472 c -0.7,-0.39 -1.012,-0.467 -2.373,-0.467 h -4.94 v 6.379 h 4.94 c 1.284,0 1.711,-0.077 2.373,-0.428 1.011,-0.583 1.634,-1.673 1.634,-2.762 0,-1.089 -0.623,-2.178 -1.634,-2.722 z"
   id="path40"
   inkscape:connector-curvature="0"
   style="stroke:none;stroke-opacity:1;fill:#000000" />
<path
   d="m 136.92475,229.80675 c -1.479,1.984 -3.579,2.918 -6.302,2.918 -3.656,0 -5.952,-1.479 -7.508,-4.668 -1.089,-2.218 -1.828,-5.68 -1.828,-8.792 0,-4.278 1.089,-8.13 2.84,-10.619 1.556,-1.984 3.657,-2.918 6.652,-2.918 3.307,0 5.602,1.479 7.235,4.668 1.089,2.296 1.751,5.602 1.751,8.869 0,4.124 -1.012,8.247 -2.84,10.542 z m -2.84,-17.854 c -0.817,-1.362 -1.829,-1.906 -3.384,-2.023 -0.078,0 -0.156,0 -0.233,0 -1.867,0 -3.112,1.012 -3.968,3.229 -0.662,1.556 -1.012,3.929 -1.012,6.106 0,2.763 0.545,5.603 1.556,7.236 0.817,1.361 1.906,2.022 3.579,2.022 1.906,0 3.112,-1.012 4.007,-3.307 0.545,-1.361 1.012,-3.929 1.012,-5.952 -0.001,-2.916 -0.546,-5.561 -1.557,-7.311 z"
   id="path42"
   inkscape:connector-curvature="0"
   style="stroke:none;stroke-opacity:1;fill:#000000" />
<path
   d="m 160.88675,232.25775 -2.566,-7.313 h -8.131 l -2.566,7.313 h -4.396 l 8.986,-26.063 h 4.084 l 8.986,26.063 h -4.397 z m -6.575,-18.828 -2.684,7.313 h 5.213 l -2.529,-7.313 z"
   id="path44"
   inkscape:connector-curvature="0"
   style="stroke:none;stroke-opacity:1;fill:#000000" />
<path
   d="m 182.36075,230.77975 c -0.973,0.934 -2.373,1.4 -3.734,1.479 -0.273,0 -0.818,0 -1.479,0 h -7.936 v -26.063 h 8.402 c 2.645,0 3.656,0.272 5.057,1.361 2.723,2.373 4.279,6.497 4.279,11.632 0.001,5.212 -1.634,9.335 -4.589,11.591 z m -1.713,-19.372 c -0.66,-0.622 -1.555,-1.089 -2.645,-1.089 h -4.668 v 17.738 h 4.123 c 1.361,0 2.178,-0.272 2.918,-1.012 1.555,-1.556 2.373,-4.396 2.373,-7.857 0.001,-3.501 -0.818,-6.419 -2.101,-7.78 z"
   id="path46"
   inkscape:connector-curvature="0"
   style="stroke:none;stroke-opacity:1;fill:#000000" />
<path
   d="m 194.77475,117.46075 v 9.482 c 7.901,0 15.696,0 16.055,0 0,-0.526 0,-1.71 0,-1.953 -0.21,-0.226 -6.808,-7.304 -7.017,-7.529 -0.147,0 -4.519,0 -9.038,0 z"
   id="path48"
   inkscape:connector-curvature="0"
   style="fill:none" />
<path
   d="m 193.78175,117.46075 c -4.522,0 -8.893,0 -9.026,0 -0.201,0.189 -8.006,7.584 -8.723,8.262 0.589,0.361 1.857,1.14 1.99,1.22 0.097,0 7.826,0 15.759,0 v -9.482 z"
   id="path50"
   inkscape:connector-curvature="0"
   style="fill:none" />
<path
   d="m 259.33875,131.24175 c 0,-0.944 -0.808,-1.812 -1.196,-2.229 -0.961,-1.032 -2.794,-1.631 -2.942,-1.67 0,0 -28.294,-3.078 -28.483,-3.099 -0.157,-0.115 -13.766,-10.11 -13.766,-10.11 h -27.798 c -0.097,0 -2.438,0.007 -3.761,0.616 -0.303,0.075 -0.545,0.352 -0.757,0.613 l -0.351,0.369 -0.08,0.059 -9.351,8.875 c -0.167,0.077 -0.327,0.247 -0.529,0.46 l -0.297,0.297 -0.097,0.042 c -0.456,0.327 -1.104,0.515 -1.781,0.515 -0.213,0 -10.577,0.783 -17.036,1.362 -9.49,0.962 -24.833,3.472 -24.953,3.494 -0.062,0.006 -1.495,0.125 -2.322,1.662 -1.114,2.07 -0.559,5.562 1.618,10.298 0.236,1.01 1.113,2.055 2.157,2.055 l 3.636,0.194 c 1.666,0 2.816,-0.522 3.735,-1.707 0.623,-0.849 1.175,-1.896 1.762,-3.003 2.053,-3.891 4.38,-8.302 11.328,-8.302 9.818,0 11.651,8.895 12.433,12.691 0,0 0.042,0.198 0.044,0.208 0.511,2.197 2.708,2.051 4.646,1.922 l 1.327,-0.06 39.936,-0.004 c 0.073,0.01 1.823,0.2 3.2,-1.28 0.768,-0.823 1.384,-2.127 2.095,-3.637 1.948,-4.125 4.371,-9.256 11.568,-9.256 7.409,0 10.249,6.163 11.461,8.796 0,0 0.14,0.3 0.149,0.321 0.752,1.415 2.035,1.391 3.166,1.373 0,0 0.418,-0.004 0.443,-0.005 l 16.618,-1.165 c 1.353,0 2.55,-0.606 3.376,-1.715 0.141,-0.202 0.392,-0.784 0.758,-1.653 l 0.413,-0.943 -0.369,-6.384 z m -83.306,-5.518 c 0.717,-0.678 8.521,-8.073 8.723,-8.262 0.134,0 4.504,0 9.026,0 v 9.482 c -7.933,0 -15.662,0 -15.759,0 -0.133,-0.081 -1.401,-0.859 -1.99,-1.22 z m 34.797,1.219 c -0.358,0 -8.153,0 -16.055,0 v -9.482 c 4.519,0 8.891,0 9.038,0 0.209,0.226 6.807,7.304 7.017,7.529 0,0.243 0,1.427 0,1.953 z"
   id="path52"
   inkscape:connector-curvature="0"
   style="stroke:none;fill:#000000" />
<path
   d="m 223.84875,134.64675 c -5.326,0 -9.827,4.455 -9.827,9.726 0,5.258 4.408,9.535 9.827,9.535 5.112,0 9.434,-4.366 9.434,-9.535 0,-5.363 -4.233,-9.726 -9.434,-9.726 z m -0.195,14.335 c -2.597,0 -4.701,-2.105 -4.701,-4.702 0,-2.596 2.104,-4.701 4.701,-4.701 2.597,0 4.702,2.105 4.702,4.701 0,2.597 -2.105,4.702 -4.702,4.702 z"
   id="path54"
   inkscape:connector-curvature="0"
   style="stroke:none;fill:#000000" />
<path
   d="m 148.58375,134.16175 c -5.312,0 -9.633,4.319 -9.633,9.627 0,5.312 4.321,9.633 9.633,9.633 5.307,0 9.627,-4.321 9.627,-9.633 0,-5.307 -4.321,-9.627 -9.627,-9.627 z m -0.004,14.82 c -2.597,0 -4.702,-2.105 -4.702,-4.702 0,-2.596 2.105,-4.701 4.702,-4.701 2.597,0 4.702,2.105 4.702,4.701 0,2.597 -2.105,4.702 -4.702,4.702 z"
   id="path56"
   inkscape:connector-curvature="0"
   style="stroke:none;fill:#000000" />
</svg>