<?xml version="1.0" encoding="UTF-8" standalone="no"?>
<!-- Generator: Adobe Illustrator 12.0.1, SVG Export Plug-In  -->

<svg
   xmlns:dc="http://purl.org/dc/elements/1.1/"
   xmlns:cc="http://creativecommons.org/ns#"
   xmlns:rdf="http://www.w3.org/1999/02/22-rdf-syntax-ns#"
   xmlns:svg="http://www.w3.org/2000/svg"
   xmlns="http://www.w3.org/2000/svg"
   xmlns:sodipodi="http://sodipodi.sourceforge.net/DTD/sodipodi-0.dtd"
   xmlns:inkscape="http://www.inkscape.org/namespaces/inkscape"
   version="1.1"
   width="2942.8635"
   height="2942.8538"
   viewBox="0 -0.764 2942.8636 2942.8538"
   enable-background="new 0 -0.764 289 256"
   xml:space="preserve"
   id="svg2"
   inkscape:version="0.48.2 r9819"
   sodipodi:docname="AJAX1.svg"><metadata
   id="metadata26"><rdf:RDF><cc:Work
       rdf:about=""><dc:format>image/svg+xml</dc:format><dc:type
         rdf:resource="http://purl.org/dc/dcmitype/StillImage" /><dc:title></dc:title></cc:Work></rdf:RDF></metadata><sodipodi:namedview
   pagecolor="#ffffff"
   bordercolor="#666666"
   borderopacity="1"
   objecttolerance="10"
   gridtolerance="10"
   guidetolerance="10"
   inkscape:pageopacity="0"
   inkscape:pageshadow="2"
   inkscape:window-width="1280"
   inkscape:window-height="1004"
   id="namedview24"
   showgrid="false"
   fit-margin-top="0"
   fit-margin-left="0"
   fit-margin-right="0"
   fit-margin-bottom="0"
   inkscape:zoom="0.20811725"
   inkscape:cx="35.913651"
   inkscape:cy="1051.2344"
   inkscape:window-x="-8"
   inkscape:window-y="-8"
   inkscape:window-maximized="1"
   inkscape:current-layer="svg2" />
<defs
   id="defs4">
</defs>









<path
   inkscape:connector-curvature="0"
   style="fill:#ffd033;fill-rule:nonzero;stroke:none"
   d="m 1566.8824,2902.5554 c -52.7125,52.7125 -138.2,52.7125 -190.9125,0 L 39.540806,1566.1179 c -52.720875,-52.7125 -52.720875,-138.2 -0.0012,-190.9125 L 1375.9699,38.777708 c 52.7125,-52.7223 138.2,-52.7223 190.9125,0 L 2903.3199,1375.2054 c 52.725,52.7125 52.725,138.2 0,190.9125 L 1566.8824,2902.5554 z"
   id="path11" /><path
   inkscape:connector-curvature="0"
   style="fill:#000000;fill-rule:nonzero;stroke:none"
   d="M 2839.6906,1502.4885 1503.2531,2838.926 c -17.5375,17.5375 -46.0875,17.5375 -63.6375,0 L 103.17969,1502.4885 c -17.545134,-17.55 -17.545134,-46.0875 0,-63.6375 L 1439.6156,102.41521 c 17.55,-17.543802 46.1,-17.543802 63.6375,0 L 2839.6906,1438.851 c 17.5375,17.55 17.5375,46.0875 0,63.6375 z M 2879.4656,1399.076 1543.0281,62.641108 c -39.475,-39.4776 -103.7125,-39.4776 -143.1875,0 L 63.404306,1399.076 c -39.47625,39.475 -39.47625,103.7125 0.0013,143.1875 L 1399.8406,2878.701 c 39.475,39.475 103.7125,39.475 143.1875,0 L 2879.4656,1542.2635 c 39.475,-39.475 39.475,-103.7125 0,-143.1875 z"
   id="path13" /><path
   style="fill:#000000;fill-rule:evenodd;stroke:none"
   d="m 2147.5774,1961.2605 c -3.575,-7.1 -6.9,-14 -9.675,-21.4625 -2.8,-7.4125 1.1625,-15.5 3.9625,-22.125 2.9375,-6.9875 6.1,-13.3 8.325,-20.6 1.7375,-5.9125 -6.5,-14.3875 -10.0875,-19.2 -2.2,-2.8875 -4.2,-5.8625 -6.25,-8.9375 -2.875,-4.2375 -2.95,-5.625 -2.95,-10.825 0,-2.3875 5.075,-7.0125 6.5875,-9.0125 1.9125,-2.575 5.8,-3.275 7.775,-5.975 2.625,-3.425 5.6375,-6 5.6375,-10.325 0,-4.4375 -3.175,-7.4125 -5.7125,-10.9875 -1.975,-2.8125 -3.8875,-5.625 -5.7875,-8.475 -0.725,-1.075 -6.275,-7.1625 -6.275,-8.0125 0,-7.75 0.8875,-15.375 1.1125,-23.1125 0.1625,-3.2 0.1625,-6.5 -0.225,-9.7125 -0.5,-3.575 0.4625,-7.625 -0.725,-10.2375 -1.5875,-3.4 -2.8625,-7.175 -4.75,-10.4 -2.95,-4.7875 -3.1125,-5.55 -2.3875,-10.9875 1.1875,-8.2125 2.775,-16.15 4.5125,-24.2375 0.725,-3.3625 0.65,-5.35 2.3125,-8.6 1.7375,-3.575 2.5375,-8.0125 3.725,-11.7875 1.825,-6.075 1.35,-14.2875 -2.4625,-19.6875 -1.9875,-2.925 -6.0375,-5.3125 -8.7375,-7.6625 -2.85,-2.5 -4.975,-6.775 -7.2125,-9.825 -3.725,-5.125 -6.0375,-12.825 -5,-19.1625 0.9625,-5.875 3.2625,-9.725 6.6625,-14.55 2.225,-3.1125 8.7375,-10.0875 8.7375,-13.7875 0,-6.1 -2.225,-11.75 -3.8875,-17.6125 -0.65,-2.225 -0.5625,-4.1625 -0.5625,-6.5125 0,-2.9625 -1.125,-5.5125 -2.0625,-8.3625 -3.8,-11.3875 -2.15,-21.7 0.1625,-33.2125 2.05,-10.3875 9.125,-18.875 15.225,-27.275 l 0,2.2375 c 2.225,-2.2 4.775,-4.2375 6.35,-6.9 1.6625,-2.775 5.8625,-7.325 5.8625,-10.625 0,-2.8625 1.125,-8.1 -0.15,-10.7125 -2.2125,-4.3625 -4.3625,-8.725 -6.5875,-13.1 -6.975,-13.95 7.55,-29.7125 15.325,-40.1125 3.0125,-4.075 -0.3875,-13.2875 -2,-17.9625 -2.125,-6.425 -6.5875,-14.2875 -6.5875,-21.0625 0,-16.15 0.5,-31.9875 -1.6625,-48.0125 -1.8875,-14.0125 -6.975,-28.65 -14.825,-40.375 -8.6375,-12.9875 -18.8875,-24.725 -28.8125,-36.675 -4.675,-5.625 -13.4125,-9.875 -19.35,-14.15 -5.325,-3.8875 -10.6375,-6.475 -16.675,-9.3625 -15.15,-7.2713 -29.4375,-12.4325 -45.465,-17.5138 -13.65,-4.32 -26.25,-7.2525 -40.3875,-9.7537 -14.2125,-2.5025 -29.2,-6.9 -43.5625,-7.4088 -18.8125,-0.6837 -37.5375,-1.3487 -56.2625,-2.0325 -12.2875,-0.43 -24.825,-1.7 -37.1375,-1.1137 -62.7625,2.9712 -125.6,6.43 -188.45,8.58 -63.3875,2.1312 -126.4,8.875 -189.675,14.1137 -28.1625,2.3838 -56.7375,2.8138 -84.1875,-5.2387 -28.8876,-8.5225 -57.8501,-21.815 -80.3751,-42.4163 -11.5125,-10.495 -22.375,-21.1687 -31.9,-33.5612 -9.5125,-12.4513 -16.825,-26.2888 -24.1925,-40.1475 -6.3525,-11.865 -11.0437,-27.815 -13.3312,-40.95 -0.8013,-4.515 -1.6025,-8.9913 -2.3838,-13.5263 -0.5675,-3.0487 6.665,-3.0875 9.0488,-3.5962 6.0212,-1.3488 14.5837,-5.6875 19.7462,-9.0888 11.5125,-7.6225 20.6375,-18.53 27.85,-30.0425 1.8375,-2.9325 3.65,-5.825 5.475,-8.7175 0.325,-0.5275 -7.6,-6.3525 -8.4875,-7.0175 -4.6875,-3.7725 -10,-7.46625 -15.4,-10.125 -13,-6.5475 -25.39,-12.06001 -39.5825,-15.36376 -14.2875,-3.28375 -27.4612,-4.3975 -42.1412,-4.3975 0.1562,0.99625 -0.2338,1.7 -1.1138,2.22875 -0.079,-5.435 -6.51,-14.21125 -8.9525,-19.13625 -3.42,-6.74375 -6.8412,-13.37 -12.3137,-18.80375 -10.3788,-10.41875 -20.465,-19.39 -33.64,-26.32875 -13.4863,-7.07625 -26.895,-13.8975 -41.8875,-17.455 -14.5225,-3.46 -30.16,-7.93625 -45.3088,-7.23125 -7.545,0.35125 -15.4025,0.11625 -22.8487,1.1525 -7.78,1.075 -16.6738,1.075 -24.21875,3.28375 -15.53875,4.69125 -29.59251,10.0075 -44.35001,16.6725 l 1.03625,0 c -17.84625,8.9725 -34.36375,20.66125 -48.88625,34.48 -4.59375,4.35875 -40.6175,44.46751 -35.6125,47.85001 -15.6375,-1.60375 -30.00375,-0.91875 -45.3875,2.16875 -6.9975,1.3875 -14.67875,5.96125 -21.1875,8.855 -7.2325,3.205 -13.175,7.095 -19.5275,11.825 -2.15,1.6225 19.195,33.6013 22.69375,37.2163 5.08125,5.1987 13.4875,8.9525 19.5275,12.9587 5.16,3.5 11.57,9.695 17.5325,11.5913 8.01375,2.58 16.10625,5.1225 24.12,7.7025 -5.23875,14.9912 -10.32125,30.0225 -15.14875,45.19 -1.8375,5.8262 -3.655,13.2912 -7.15375,18.2375 -4.75,6.88 -9.51875,13.74 -14.36625,20.6012 -3.63625,5.3175 -9.98875,11.5913 -11.65,17.9638 -1.11375,4.5737 -1.75875,6.8212 -0.80125,11.3175 0.9575,4.2412 2.0725,7.2125 4.04625,11.1012 1.5825,3.225 2.61875,7.0563 5.62875,9.09 1.27125,0.8 4.2225,2.0125 4.92625,3.2838 1.34875,2.15 0.5475,2.9512 -0.39125,5.6875 -2.385,7.1737 0.3125,14.1125 3.9675,20.23 3.89,6.4725 8.17125,11.0225 15.305,13.8725 4.92625,1.9625 3.42125,4.4625 3.42125,9.6 0,3.5375 0.70375,6.85 1.34875,10.325 0.78125,4.275 0.78125,4.725 4.2025,7.3125 2.38625,1.8125 4.515,3.85 7.36875,4.7125 8.65875,2.65 17.29875,5.3125 25.9575,7.975 5.7075,1.7875 14.5225,-0.825 20.46625,-1.3875 6.27375,-0.55 11.4325,-2.7875 17.375,-4.975 6.3525,-2.2875 15.71625,-3.8875 21.26625,-7.8 6.275,-4.4125 12.54875,-8.85 18.80375,-13.25 1.03625,4.2875 9.28501,6.6625 12.70501,8.5625 4.125,2.1875 7.70125,5.95 11.25875,8.8625 7.46745,5.9375 12.78375,13.6 18.17875,21.3375 11.6687,16.65 12.3725,36.3375 12.3725,55.7625 l 1.1137,0 c -1.1137,34.2875 -2.15,68.6125 -3.245,102.9375 -0.41,13.4 -0.8,26.85 -1.1912,40.2625 -0.1563,5.5875 2.8525,12.65 4.2012,18.0375 1.8975,8.1375 3.8125,16.325 5.7088,24.4625 0.8787,3.475 0.645,7.5625 0.8787,11.1375 0.3125,3.85 1.74,6.5875 3.655,10.05 1.8963,3.5125 2.9325,5.35 6.4113,7.0875 3.4212,1.7 8.7375,3.175 11.1225,6.3125 4.515,6.025 5.5512,14.2375 6.9,21.625 1.505,8.4375 4.8475,13.9125 9.5962,21.0625 1.5838,2.375 7.39,3.4125 10.0863,4.475 3.5575,1.4375 7.4475,1.9375 11.2587,2.7875 2.3063,0.5 5.1613,6.1125 6.9,7.8125 2.6975,2.7375 6.5875,4.8125 8.8938,7.825 4.2025,5.5125 6.2737,13.9125 8.9712,20.225 3.48,8.175 6.9788,12.25 15.6963,14.7625 4.8475,1.3875 7.7787,2.6125 11.9037,5.5875 4.535,3.225 4.6125,4.725 4.6125,10.275 0,4.325 -0.2337,7.975 -1.1137,12.225 -0.5475,2.925 -2.9325,9.1625 1.0362,10.75 4.045,1.575 8.2488,5.2 12.295,6.225 1.4263,0.3625 4.8488,-0.875 5.7863,0.3125 1.5825,2.15 3.0287,3.9 3.9662,6.325 1.995,4.9 0.4113,9.2 -0.4687,14.4 -0.8013,4.4375 -0.3913,8.95 -0.3913,13.45 2.5413,0.1125 4.985,3.2375 6.9788,4.825 3.9675,3.2625 7.935,6.55 11.9037,9.85 1.7388,1.425 5.9413,3.4375 6.665,5.3625 1.1138,2.8125 -2.4625,7.25 -3.7325,9.675 -7.2912,14.5625 -11.905,30.35 -17.2987,45.7 -2.385,6.6625 -1.1925,16.625 -1.6613,23.6875 -0.4112,5.9 -0.7237,11.825 -1.115,17.725 -0.5475,9.6625 -1.1137,19.3375 -1.6612,28.975 -0.3325,4.875 -10.4775,8.2375 -14.5225,11.325 -25.0788,18.7875 -45.9538,44.925 -51.1925,76.475 33.0925,-0.038 66.34,1.425 99.4325,2.125 3.8112,0.075 10.945,-0.1125 12.3725,-3.6 1.9162,-4.4875 3.8112,-8.9625 5.7275,-13.4375 0.39,-1.075 2.5212,-8.2375 4.0462,-8.55 3.3225,-0.6625 6.0975,-1.0375 9.5188,-1.0375 2.775,0 10.4762,1.45 12.685,-0.225 4.0437,-3.05 4.1187,-3.4875 4.1187,-8.4875 0,-4.0875 0,-8.175 0,-12.3 0,-1.875 -1.0125,-9.8125 0,-11.2375 1.125,-1.4625 2.775,-0.3875 3.5875,-1.35 1.425,-1.775 2.85,-3.475 4.2,-5.3125 4.85,-6.55 5.625,-12.3375 5.625,-20.5 0,-7.275 0.25,-14.7625 1.275,-21.95 0.6375,-4.5625 1.2625,-9.1125 1.9125,-13.6875 0.475,-3.05 4.275,-5.625 5.7125,-8.3625 0.6375,-1.3875 0.225,-3.6125 2.225,-3.3875 1.5,0.2625 1.8125,4.125 2.05,5.125 0.65,2.575 -2.2125,9.4 -2.775,11.9875 -1.5,6.5 -0.3875,13.925 -0.3875,20.6375 0,7.8125 0.2375,15.025 1.1875,22.775 0.7875,7.0875 0.7875,14.6375 3.0875,21.4125 1.1125,3.4 4.6125,20.2 7.9375,20.425 l -1.1125,1.125 0,-1.125 c -16.575,8.25 -30.225,17.95 -43.315,31.025 -5.6487,5.6875 -10.8675,15.2875 -14.5237,22.3375 -4.3575,8.375 -6.665,16.5625 -8.8925,25.5875 31.8187,-0.35 63.5687,-0.7 95.3812,-1.1125 2.8625,0 4.6,-0.3125 7.375,-1.2125 1.9875,-0.6875 4.05,-1.35 6.0375,-2.025 0.7875,-0.275 0,-4.7125 0.1625,-5.6375 1.5,-6.8625 6.5,-13.975 9.05,-20.675 1.2625,-3.325 3.2375,-5.8625 5.3125,-8.8 3.5625,-5.2 3.0125,-4.275 9.025,-5 7.075,-0.8375 15.4125,-3.4625 22.2251,-5.55 2.775,-0.8875 5.475,-2.075 8.175,-3.05 1.7375,-0.6875 1.6625,-4.8125 1.9875,-6.5125 1.1,-5.65 -0.8,-9.0125 -1.3375,-14.6375 -1.2,-11.7875 -4.05,-22.5375 -8.7375,-33.45 -8.4126,-19.7625 -10.0751,-42.4875 -11.1876,-63.6 l 1.1125,7.775 c 0,-14.1625 10.3876,-28.0875 24.4376,-30.9 2.7,-0.5625 5,-3.4125 6.975,-5.075 3.8125,-3.1125 7.625,-6.2375 11.3625,-9.325 2.775,-2.275 0.7,-4.3625 -0.4125,-7.6625 -1.35,-4.1625 -1.2,-7.5875 -1.2,-11.9875 0,-3.8125 -1.0875,-7.175 -1.975,-10.8625 -0.4625,-1.7375 -1.1875,-7.5125 -0.225,-8.7375 4.125,-5.4375 14.9875,0.5625 19.425,-3.8875 2.4625,-2.4875 5.8875,-4.6 6.425,-8.1375 0.65,-4.475 1.5875,-7.725 3.275,-11.9375 1.35,-3.325 2.2875,-6.1375 5.3125,-8.2875 2.125,-1.475 8.25,-5.125 8.875,-1.1125 4.6125,-4.6 8.7375,-8.5625 12.0625,-14.1125 3.725,-6.2375 1.35,-11.2 -0.625,-17.3875 -2.2375,-6.625 5,-7.4625 5.4625,-13.0875 0.3125,-3.625 0.625,-7.2375 0.8875,-10.8375 0.2375,-2.8125 3.5,-5 3.4125,-7.975 1.925,-0.1125 8.8375,15.9125 10.8875,18.6125 1.6875,2.2125 -0.85,6.475 0.8125,8.9125 2.925,4.4625 4.5125,6.275 9.125,9.0125 2.2875,1.35 8.0125,-0.35 10.4,-0.7375 4.2,-0.725 5.3125,-4.925 7.2125,-8.275 1.575,-2.7 6.1875,-4.3625 8.7125,-5.975 2.3125,-1.3875 9.125,1.7 11.675,2.3375 6.425,1.625 10.7875,8.6375 17.7875,9.6375 8.6375,1.2375 15.375,0.4 23.9625,-1.15 2.3625,-0.425 3.6375,-5.3125 5.3125,-7.0125 3.95,-3.975 5.7125,-4.575 11.1875,-5.9625 4.2,-1.025 4.0375,3.6125 5.3125,6.1875 1.1125,2.425 4.5125,7.5875 6.825,9.0125 2.6875,1.6625 5.3875,3.3625 8.0875,5.05 2.075,1.35 3.7375,1.425 6.0375,2.55 4.2875,2.15 4.675,2.275 9.1125,0.7625 2.7875,-0.9125 5.1625,-2.3 7.7,-3.6875 5.475,-3.0125 10.55,-4.95 16.5125,-6.9375 6.025,-2.0125 10.7875,-0.6625 16.575,0.95 5.1625,1.475 9.45,5.75 14.6,7.45 5.0125,1.6875 12.6875,1.3125 17.15,-2.05 3.0875,-2.2625 5.075,-3.425 8.7125,-4.6125 3.1875,-1.05 5.8125,0.25 9.05,1.0375 5.475,1.3875 11.5125,3.3 16.425,6.075 l 0,-1.1125 c 1.4375,0 6.6625,0.7375 7.85,-0.075 3.35,-2.3125 6.5875,-4.6125 9.9375,-6.8625 5,-3.4625 9.75,-7.2375 14.9875,-10.2 11.175,-6.4 22.3,-16.5375 36.175,-16.2625 l -2.225,1.1125 c 3.1125,4.8625 6.275,9.75 9.3875,14.6375 2.3625,3.6375 0.55,9.675 4.5125,11.9375 5.625,3.2125 9.5125,4.05 16.025,5.1125 5.2375,0.875 9.05,4.3 13.4125,7.2625 -3.7375,5.5875 -5,9.2125 -6.4375,15.8 -1.1125,4.975 1.275,12.0125 1.925,17.0375 0.4625,3.425 6.7375,8.2375 8.95,11.4 3.5,4.8875 6.6625,10.6375 11.2,14.7125 -4.5375,2.975 -6.5875,4.25 -8.975,9.0125 -1.0375,1.9375 -5.2375,9.675 -4.3625,11.1125 4.9875,7.7 9.675,15.1 15.55,22.1375 -6.4125,2.5375 -7.7625,5.4 -11.7375,11.1375 -3.8875,5.5625 -3.8125,7.5125 -3.8125,14.45 l -2.3,-2.225 c 0,6.275 -1.8125,15.5125 0.15,21.425 2.775,8.425 5.55,16.7875 8.4125,25.1875 0.95,2.8625 1.7625,5.775 2.6125,8.6625 1.5125,5.125 -0.7,5.0625 -4.975,8.4 -5.325,4.125 -10.6375,9.7625 -16.0375,12.45 -13.8875,6.9625 -26.1875,16.15 -34.5875,29.525 -8.175,12.9375 -11.6,28 -12.95,43.0125 -0.15,1.625 -0.3125,3.2125 -0.4625,4.8375 5.7875,0 11.3375,0.1125 17.0375,-0.825 7,-1.15 13.75,-2.5375 20.8,-2.5375 l -1.1125,1.1125 c 18.575,-0.8875 37.0625,-1.1125 55.625,-1.1125 l 0,2.2625 c 6.5875,-4.9625 12.6125,-9.0125 17.5375,-15.6 5.0875,-6.7375 6.9,-13.0125 6.9,-21.3 0,-3.7375 -0.625,-5.8875 2.075,-8.5 3.9625,-3.975 4.0375,-4.75 9.4375,-4.25 8.4875,0.7625 12.7625,3.2625 20,7.55 5.3125,3.2 12.525,12.525 18.8,6.2375 1.1875,-1.1625 6.825,-5.7375 6.425,-7.7875 -0.875,-3.775 -1.2625,-7.9 -3.025,-11.3875 -1.5,-3.0875 -3.6375,-5.95 -3.6375,-9.45 0,-5.625 0.7875,-6.5875 4.2,-11.1375 2.2375,-3.05 4.675,-5.925 7.1375,-8.8125 3.2625,-3.8125 4.7,-3.775 2,-8.45 -2.2375,-3.9625 -2.625,-6.9 -3.2625,-11.4375 -0.475,-3.0875 -3.6375,-6.85 -4.525,-10.25 -1.9875,-8.1 -0.3125,-14.45 2.2375,-22.275 l 0,1.125 c 3.1625,-7.975 5.0625,-14.6 6.4875,-23.1125 0.4125,-2.8125 -1.7375,-5.175 -2.2125,-7.975 -0.5625,-3.5125 -2.075,-7.5625 -2.075,-11.1 0,-6.5125 2.2375,-14.95 8.325,-18.25 3.9,-2.0625 7.7125,-4.1625 11.6,-6.225 0.5625,-0.3125 7.3125,8.6875 8.0875,9.6 3.8125,4.7375 7.625,13.0625 7.625,19.1125 0,8.3875 -4.6125,16.1125 -7.7,23.8125 -2.4625,6.075 5.3875,13.2875 8.7375,18.4875 1.35,2.1125 5.2375,4.6 5.7,7.0625 0.8875,5.35 0.9625,6.5875 -1.5,11.4375 -1.35,2.775 -6.5875,9.95 -2.9375,12.8 4.4375,3.4625 8.8,6.9125 13.2625,10.4 2.6875,2.0625 10.9375,6.35 12.2125,9.55 1.35,3.3125 -3.7375,11.7875 -5.55,14.4875 l 0,-1.15 c -0.5625,5.0375 -1.6875,8.8125 0.55,13.325 2.225,4.5 4.7625,8.8125 7.125,13.2125 2.625,4.85 -4.0375,7.625 -6.975,9.7 -3.4,2.4375 -6.7375,5.4375 -9.675,8.4 -13.6375,13.6125 -23.175,28.5625 -29.925,46.5875 14.05,1.35 28.2625,3.575 42.45,3.125 16.6775,-0.5125 33.1775,-1.15 49.8525,-2.175 4.4375,-0.2875 8.875,-0.525 13.325,-0.8 3.7125,-0.2375 4.05,-1.075 6.4125,-4.2375 2.15,-2.9 5.0125,-5.2 7.2375,-8.1 2.2,-3.025 3.8125,-6.775 5.7,-10.075 1.5125,-2.5125 6.5875,-17.2625 8.7375,-16.5375 6.9,2.2375 14.525,4.3125 21.8125,4.3125 3.0125,0 7.3,1.275 8.825,-1.625 1.1875,-2.4125 3.1625,-4.525 3.8875,-7.15 0.775,-2.85 1.8125,-5.6625 2.125,-8.6 0.2375,-2.2625 -0.225,-6.9375 1.35,-8.7 2.4625,-2.8125 5.0125,-5.625 7.55,-8.475 1.6625,-1.9 0.95,-4.925 0.95,-7.4125 0,-4.6875 -5.725,-11.5125 -8.9625,-14.775"
   id="path15"
   inkscape:connector-curvature="0" /></svg>