<?xml version="1.0" encoding="UTF-8" standalone="no"?>
<svg
   xmlns:dc="http://purl.org/dc/elements/1.1/"
   xmlns:cc="http://creativecommons.org/ns#"
   xmlns:rdf="http://www.w3.org/1999/02/22-rdf-syntax-ns#"
   xmlns:svg="http://www.w3.org/2000/svg"
   xmlns="http://www.w3.org/2000/svg"
   xmlns:sodipodi="http://sodipodi.sourceforge.net/DTD/sodipodi-0.dtd"
   xmlns:inkscape="http://www.inkscape.org/namespaces/inkscape"
   width="86.742813"
   height="86.745316"
   viewBox="0 0 244.80748 244.81456"
   version="1.1"
   id="svg2"
   inkscape:version="0.48.2 r9819"
   sodipodi:docname="MUTCD W10-11.svg">
  <metadata
     id="metadata62">
    <rdf:RDF>
      <cc:Work
         rdf:about="">
        <dc:format>image/svg+xml</dc:format>
        <dc:type
           rdf:resource="http://purl.org/dc/dcmitype/StillImage" />
        <dc:title></dc:title>
      </cc:Work>
    </rdf:RDF>
  </metadata>
  <defs
     id="defs60">
    <clipPath
       clipPathUnits="userSpaceOnUse"
       id="clipPath3564">
      <path
         inkscape:connector-curvature="0"
         d="m 63,43 512.622,0 0,313.129 L 63,356.129 63,43 z"
         id="path3566" />
    </clipPath>
  </defs>
  <sodipodi:namedview
     pagecolor="#ffffff"
     bordercolor="#666666"
     borderopacity="1"
     objecttolerance="10"
     gridtolerance="10"
     guidetolerance="10"
     inkscape:pageopacity="0"
     inkscape:pageshadow="2"
     inkscape:window-width="1280"
     inkscape:window-height="1004"
     id="namedview58"
     showgrid="false"
     fit-margin-top="0"
     fit-margin-left="0"
     fit-margin-right="0"
     fit-margin-bottom="0"
     inkscape:zoom="6.9051741"
     inkscape:cx="52.785829"
     inkscape:cy="41.820561"
     inkscape:window-x="-8"
     inkscape:window-y="-8"
     inkscape:window-maximized="1"
     inkscape:current-layer="svg2"
     showguides="true"
     inkscape:guide-bbox="true" />
  <polygon
     points="395,375 315,545 235,375 315,205 "
     id="polygon10"
     style="fill:none;stroke:#ffffff;stroke-width:40"
     transform="translate(22097.236,15096.415)" />
  <!-- draw the bicycle -->
  <!-- RIGHT -->
  <!-- LANE -->
  <!-- ONLY -->
  <path
     inkscape:connector-curvature="0"
     d="M 3.4977814,113.91636 113.9137,3.51102 c 4.66372,-4.68136 12.30842,-4.68136 16.98272,0 l 110.40534,110.40534 c 4.6743,4.66725 4.6743,12.31547 0,16.98625 L 130.89642,241.31147 c -4.6743,4.67078 -12.319,4.67078 -16.98272,0 L 3.4977814,130.90261 c -4.66372,-4.67078 -4.66372,-12.319 0,-16.98625"
     style="fill:#ffd033;fill-opacity:1;fill-rule:nonzero;stroke:none"
     id="path3618" />
  <path
     inkscape:connector-curvature="0"
     d="M 6.1648114,115.66963 115.66351,6.16388 c 3.70769,-3.70064 9.76841,-3.70064 13.47611,0 l 109.49869,109.50575 c 3.70417,3.70417 3.70417,9.77547 0,13.48317 L 129.13962,238.65149 c -3.7077,3.70064 -9.76842,3.70064 -13.47611,0 L 6.1648114,129.1528 c -3.7077,-3.7077 -3.7077,-9.779 0,-13.48317"
     style="fill:#000000;fill-opacity:1;fill-rule:evenodd;stroke:none"
     id="path3626" />
  <path
     inkscape:connector-curvature="0"
     d="M 9.5902814,119.04575 119.03606,9.59291 c 1.85209,-1.85209 4.88245,-1.85209 6.73453,0 l 109.45283,109.45284 c 1.85209,1.84502 1.85209,4.87538 0,6.731 l -109.45283,109.4493 c -1.85208,1.85561 -4.88244,1.85561 -6.73453,0 L 9.5902814,125.77675 c -1.85561,-1.85562 -1.85561,-4.88598 0,-6.731"
     style="fill:#ffd033;fill-opacity:1;fill-rule:evenodd;stroke:none"
     id="path3630" />
  <path
     inkscape:connector-curvature="0"
     d="m 107.40142,170.39605 0.0282,38.47041 30.02492,0 0,-68.18136 -30.05314,29.71095 z"
     style="fill:#000000;fill-opacity:1;fill-rule:evenodd;stroke:none"
     id="path3634" />
  <path
     inkscape:connector-curvature="0"
     style="fill:#000000;fill-opacity:1;fill-rule:evenodd;stroke:none"
     d="m 146.50368,73.0361 -5.64445,5.64444 5.64445,5.73264 -5.64445,5.73264 -5.73263,-5.73264 -5.73264,5.73264 5.73264,5.64444 -5.55625,5.55626 -5.64445,-5.64445 -5.73264,5.64445 5.73264,5.73264 -5.73264,5.73263 -5.73264,-5.73263 -5.73264,5.73263 5.73264,5.73264 -5.64444,5.64445 -5.73264,-5.73264 -5.556249,5.64444 5.644439,5.64445 -5.732639,5.73264 -5.64444,-5.64445 -5.64445,5.55625 5.73264,5.73264 -5.64444,5.64445 -5.73264,-5.73264 -5.64445,5.64444 5.73264,5.73264 -5.73264,5.73264 2.73403,2.73403 5.73264,-5.73264 8.46667,8.46667 -5.73264,5.73263 2.82222,2.82223 5.64445,-5.73264 5.73263,5.73264 5.644449,-5.64445 -5.732639,-5.73264 5.644449,-5.64444 5.73264,5.73264 5.64444,-5.64445 -5.73264,-5.73264 5.73264,-5.73264 5.73264,5.73264 5.64444,-5.64444 -5.73264,-5.73264 5.64445,-5.64444 5.73264,5.73263 5.73264,-5.73263 -5.73264,-5.73264 5.73264,-5.64445 5.64444,5.73264 5.73264,-5.73264 -5.73264,-5.73264 5.55625,-5.55625 5.73264,5.73264 5.64445,-5.64444 -5.73264,-5.73264 5.73264,-5.73264 5.73263,5.73264 5.73264,-5.73264 -5.73264,-5.73264 5.55625,-5.46806 -2.82222,-2.82222 -5.55625,5.46806 -8.46666,-8.37848 5.55625,-5.55625 -2.73403,-2.73402 -5.55625,5.55625 -5.73264,-5.73264 z m 2.82222,14.11111 8.46667,8.46667 -5.73264,5.82083 -8.55486,-8.55486 5.82083,-5.73264 z m -11.46528,11.37708 8.55486,8.55487 -5.55625,5.55625 -8.55486,-8.55487 5.55625,-5.55625 z m -11.20069,11.28889 8.46667,8.46667 -5.73264,5.73264 -8.46667,-8.46667 5.73264,-5.73264 z m -11.46528,11.46528 8.46667,8.46667 -5.55625,5.64444 -8.55486,-8.55486 5.64444,-5.55625 z m -11.28889,11.2007 8.55486,8.55486 -5.73264,5.64444 -8.466669,-8.46667 5.644449,-5.73263 z m -11.288889,11.37708 8.466669,8.46667 -5.644449,5.64444 -8.46666,-8.46667 5.64444,-5.64444 z"
     id="path3638" />
  <path
     inkscape:connector-curvature="0"
     d="m 137.45459,74.35583 -0.0212,-38.47042 -30.03197,0 0,68.17783 30.05314,-29.70741 z"
     style="fill:#000000;fill-opacity:1;fill-rule:evenodd;stroke:none"
     id="path3666" />
</svg>
