<?xml version="1.0" encoding="UTF-8" standalone="no"?>
<!-- Generator: Adobe Illustrator 12.0.1, SVG Export Plug-In  -->

<svg
   xmlns:dc="http://purl.org/dc/elements/1.1/"
   xmlns:cc="http://creativecommons.org/ns#"
   xmlns:rdf="http://www.w3.org/1999/02/22-rdf-syntax-ns#"
   xmlns:svg="http://www.w3.org/2000/svg"
   xmlns="http://www.w3.org/2000/svg"
   xmlns:sodipodi="http://sodipodi.sourceforge.net/DTD/sodipodi-0.dtd"
   xmlns:inkscape="http://www.inkscape.org/namespaces/inkscape"
   version="1.1"
   width="286.66174"
   height="286.66599"
   viewBox="0 -0.999 286.66174 286.66599"
   enable-background="new 0 -0.999 288 290"
   xml:space="preserve"
   id="svg2"
   inkscape:version="0.48.2 r9819"
   sodipodi:docname="AJAX1.svg"><metadata
   id="metadata28"><rdf:RDF><cc:Work
       rdf:about=""><dc:format>image/svg+xml</dc:format><dc:type
         rdf:resource="http://purl.org/dc/dcmitype/StillImage" /></cc:Work></rdf:RDF></metadata><sodipodi:namedview
   pagecolor="#ffffff"
   bordercolor="#666666"
   borderopacity="1"
   objecttolerance="10"
   gridtolerance="10"
   guidetolerance="10"
   inkscape:pageopacity="0"
   inkscape:pageshadow="2"
   inkscape:window-width="1280"
   inkscape:window-height="1004"
   id="namedview26"
   showgrid="false"
   fit-margin-top="0"
   fit-margin-left="0"
   fit-margin-right="0"
   fit-margin-bottom="0"
   inkscape:zoom="2.3017545"
   inkscape:cx="133.80544"
   inkscape:cy="105.92064"
   inkscape:window-x="-8"
   inkscape:window-y="-8"
   inkscape:window-maximized="1"
   inkscape:current-layer="svg2" />
<defs
   id="defs4">
</defs>
<path
   d="M 4.099496,132.38875 133.3795,3.10575 c 5.471,-5.473 14.421,-5.473 19.895,0 l 129.284,129.283 c 5.471,5.471 5.471,14.423 0,19.89 l -129.284,129.285 c -5.474,5.471 -14.424,5.471 -19.895,0 L 4.099496,152.27775 c -5.466,-5.466 -5.466,-14.419 0,-19.889 z"
   id="path6"
   style="fill:#ffd033;stroke:none;fill-opacity:1"
   inkscape:connector-curvature="0" />

<path
   clip-rule="evenodd"
   d="M 7.222496,134.44075 135.4405,6.22175 c 4.339,-4.339 11.443,-4.339 15.786,0 l 128.215,128.22 c 4.343,4.343 4.343,11.438 0,15.778 l -128.216,128.225 c -4.343,4.335 -11.446,4.335 -15.786,0 L 7.222496,150.21975 c -4.339,-4.34 -4.339,-11.436 0,-15.779"
   id="path10"
   inkscape:connector-curvature="0"
   style="fill-rule:evenodd;stroke:none;fill:#000000" />
<path
   clip-rule="evenodd"
   d="M 11.224496,138.39175 139.3875,10.23075 c 2.162,-2.17 5.723,-2.17 7.889,0 l 128.16,128.161 c 2.165,2.166 2.165,5.716 0,7.883 l -128.161,128.162 c -2.166,2.168 -5.727,2.168 -7.889,0 L 11.224496,146.27475 c -2.165,-2.167 -2.165,-5.717 0,-7.883"
   id="path12"
   inkscape:connector-curvature="0"
   style="fill:#ffd033;fill-rule:evenodd;stroke:none;fill-opacity:1" />
<path
   d="m 67.653496,164.75275 c -2.652,2.366 -6.378,3.727 -10.463,3.727 -8.241,0 -14.262,-4.871 -17.487,-12.183 l 7.24,-2.652 c 2.006,4.517 5.731,7.096 10.247,7.096 4.442,0 7.454,-3.081 7.454,-7.096 0,-6.376 -7.454,-7.451 -13.688,-9.961 -2.868,-1.146 -9.246,-4.013 -9.246,-11.968 0,-9.388 6.378,-12.971 14.979,-12.971 6.736,0 11.324,3.869 13.688,9.817 l -6.738,2.007 c 0,0 -1.718,-4.085 -7.094,-4.229 -0.216,0 -0.357,0 -0.501,0 -3.295,0 -6.88,1.291 -6.88,5.09 0,0.142 0,0.357 0,0.501 0.646,8.887 23.22,3.01 23.22,21.857 -0.001,4.373 -1.72,8.243 -4.731,10.965 z"
   id="path14"
   inkscape:connector-curvature="0"
   style="stroke:none;fill:#000000" />
<path
   d="m 80.480496,167.61975 v -48.016 h 7.595 v 40.92 H 110.2925 v 7.096 H 80.480496 z"
   id="path16"
   inkscape:connector-curvature="0"
   style="stroke:none;fill:#000000" />
<path
   d="m 117.3885,167.61975 v -48.016 h 7.737 v 48.016 h -7.737 z"
   id="path18"
   inkscape:connector-curvature="0"
   style="stroke:none;fill:#000000" />
<path
   d="m 160.8175,164.89675 c -1.792,1.721 -4.37,2.58 -6.882,2.724 -0.501,0 -1.505,0 -2.722,0 h -14.618 v -48.016 h 15.479 c 4.876,0 6.738,0.502 9.316,2.508 5.02,4.372 7.885,11.97 7.885,21.429 -0.001,9.602 -3.011,17.198 -8.458,21.355 z m -3.153,-35.689 c -1.217,-1.146 -2.865,-2.006 -4.875,-2.006 h -8.597 v 32.679 h 7.594 c 2.512,0 4.016,-0.501 5.377,-1.864 2.865,-2.865 4.37,-8.097 4.37,-14.476 0,-6.449 -1.505,-11.825 -3.869,-14.333 z"
   id="path20"
   inkscape:connector-curvature="0"
   style="stroke:none;fill:#000000" />
<path
   d="m 179.7335,167.61975 v -48.016 h 28.31 v 7.598 h -20.712 v 11.752 h 13.974 v 7.74 h -13.974 v 13.187 h 22.217 v 7.739 h -29.815 z"
   id="path22"
   inkscape:connector-curvature="0"
   style="stroke:none;fill:#000000" />
<path
   d="m 242.2265,164.75275 c -2.651,2.366 -6.376,3.727 -10.463,3.727 -8.242,0 -14.261,-4.871 -17.484,-12.183 l 7.235,-2.652 c 2.007,4.517 5.735,7.096 10.249,7.096 4.444,0 7.454,-3.081 7.454,-7.096 0,-6.376 -7.454,-7.451 -13.69,-9.961 -2.865,-1.146 -9.242,-4.013 -9.242,-11.968 0,-9.388 6.377,-12.971 14.978,-12.971 6.738,0 11.322,3.869 13.686,9.817 l -6.733,2.007 c 0,0 -1.723,-4.085 -7.096,-4.229 -0.214,0 -0.358,0 -0.502,0 -3.297,0 -6.878,1.291 -6.878,5.09 0,0.142 0,0.357 0,0.501 0.642,8.887 23.22,3.01 23.22,21.857 -0.001,4.373 -1.724,8.243 -4.734,10.965 z"
   id="path24"
   inkscape:connector-curvature="0"
   style="stroke:none;fill:#000000" />
</svg>