<?xml version="1.0" encoding="UTF-8" standalone="no"?>
<svg
   xmlns:dc="http://purl.org/dc/elements/1.1/"
   xmlns:cc="http://creativecommons.org/ns#"
   xmlns:rdf="http://www.w3.org/1999/02/22-rdf-syntax-ns#"
   xmlns:svg="http://www.w3.org/2000/svg"
   xmlns="http://www.w3.org/2000/svg"
   xmlns:sodipodi="http://sodipodi.sourceforge.net/DTD/sodipodi-0.dtd"
   xmlns:inkscape="http://www.inkscape.org/namespaces/inkscape"
   width="89.999062"
   height="90.00563"
   viewBox="0 0 253.99739 254.01588"
   version="1.1"
   id="svg2"
   inkscape:version="0.48.2 r9819"
   sodipodi:docname="AJAX1.svg">
  <metadata
     id="metadata62">
    <rdf:RDF>
      <cc:Work
         rdf:about="">
        <dc:format>image/svg+xml</dc:format>
        <dc:type
           rdf:resource="http://purl.org/dc/dcmitype/StillImage" />
        <dc:title></dc:title>
      </cc:Work>
    </rdf:RDF>
  </metadata>
  <defs
     id="defs60" />
  <sodipodi:namedview
     pagecolor="#ffffff"
     bordercolor="#666666"
     borderopacity="1"
     objecttolerance="10"
     gridtolerance="10"
     guidetolerance="10"
     inkscape:pageopacity="0"
     inkscape:pageshadow="2"
     inkscape:window-width="1280"
     inkscape:window-height="1004"
     id="namedview58"
     showgrid="false"
     fit-margin-top="0"
     fit-margin-left="0"
     fit-margin-right="0"
     fit-margin-bottom="0"
     inkscape:zoom="5.8194445"
     inkscape:cx="37.23858"
     inkscape:cy="61.338885"
     inkscape:window-x="-8"
     inkscape:window-y="-8"
     inkscape:window-maximized="1"
     inkscape:current-layer="svg2"
     showguides="true"
     inkscape:guide-bbox="true" />
  <!-- draw the bicycle -->
  <!-- RIGHT -->
  <!-- LANE -->
  <!-- ONLY -->
  <path
     inkscape:connector-curvature="0"
     d="M 3.63273,118.20263 118.18675,3.6379998 c 4.84716,-4.8507 12.77761,-4.8507 17.62478,0 L 250.36201,118.20263 c 4.84717,4.84364 4.84717,12.77408 0,17.62478 L 135.81153,250.37789 c -4.84717,4.8507 -12.77762,4.8507 -17.62478,0 L 3.63273,135.82741 c -4.84364,-4.8507 -4.84364,-12.78114 0,-17.62478"
     style="fill:#fecf33;fill-opacity:1;fill-rule:nonzero;stroke:none"
     id="path5867" />
  <path
     inkscape:connector-curvature="0"
     d="M 6.39569,120.02158 120.00778,6.4023998 c 3.84528,-3.8453 10.13531,-3.8453 13.98412,0 L 247.60047,120.02158 c 3.84528,3.84528 3.84528,10.13531 0,13.98058 L 133.9919,247.61426 c -3.84881,3.84528 -10.13884,3.84528 -13.98412,0 L 6.39569,134.00216 c -3.84528,-3.84527 -3.84528,-10.1353 0,-13.98058"
     style="fill:#000000;fill-opacity:1;fill-rule:evenodd;stroke:none"
     id="path5891" />
  <path
     inkscape:connector-curvature="0"
     d="M 9.94746,123.52184 123.50311,9.9520998 c 1.91911,-1.9227 5.06942,-1.9227 6.98853,0 L 244.04729,123.52184 c 1.92264,1.92264 1.92264,5.06589 0,6.985 L 130.49164,244.06602 c -1.91911,1.92264 -5.06942,1.92264 -6.98853,0 L 9.94746,130.50684 c -1.92264,-1.91911 -1.92264,-5.06236 0,-6.985"
     style="fill:#fecf33;fill-opacity:1;fill-rule:evenodd;stroke:none"
     id="path5895" />
  <path
     inkscape:connector-curvature="0"
     style="fill:#000000;fill-opacity:1;fill-rule:evenodd;stroke:none"
     d="m 140.14099,75.68318 -12.6118,10.054168 -1.6757,14.904862 -18.25625,10.05417 1.23472,-14.904864 -1.76389,0 L 96.74932,110.69638 68.879871,123.66097 66.67501,135.92 c 1.996722,2.31775 4.092223,4.56847 6.350001,6.61458 2.765778,2.49414 5.704417,4.66019 8.819446,6.70278 2.113139,1.38994 4.28625,2.62114 6.52639,3.79236 l -0.705556,2.46944 -10.318752,4.23334 c -1.467555,0.58561 -2.935111,0.91722 -4.497917,0.70555 -3.330223,-0.44802 -6.773334,-1.88383 -8.819446,-4.6743 l -3.96875,-5.37986 -2.998612,1.67569 c 1.389945,2.75872 3.030362,5.43631 5.379862,7.49653 2.984501,2.61055 6.921501,4.32152 10.936113,4.32152 l 49.036121,0 0,-3.96874 -18.78542,0 -7.584726,-2.64584 0.264584,-2.73402 100.277092,0 c 0.45509,-2.47298 0.70909,-4.88598 0.52917,-7.40834 -0.254,-3.62303 -1.25589,-7.10847 -2.99861,-10.31875 -0.8502,-1.56633 -1.77448,-3.11856 -2.91042,-4.49792 -0.99131,-1.18533 -2.11314,-2.22955 -3.26319,-3.26319 l 4.14513,-12.43542 -7.8493,0 -7.84931,10.75972 -24.69444,0 c 0.26105,-4.57553 0.37747,-9.09461 0,-13.67014 -0.5327,-6.59342 -1.92617,-13.1445 -3.79236,-19.490974 -1.00542,-3.404306 -2.21192,-6.787445 -3.61598,-10.054168 -1.24883,-2.913945 -2.65641,-5.676195 -4.14514,-8.466668 z m -13.05278,36.24792 2.91042,6.87917 -12.25903,10.75972 -6.96736,-11.28889 16.31597,-6.35 z"
     id="path5791" />
  <path
     d="m 127.80734,157.97266 59.37956,0 c -0.58561,0.74436 -1.2065,1.4605 -1.90852,2.08844 -0.9525,0.86078 -2.08139,1.56986 -3.11503,2.33539 -1.2947,0.96308 -2.16253,1.70039 -3.84528,1.70039 l -39.17597,0 c -1.11125,0 -2.21192,-0.19756 -3.27378,-0.52917 -1.30175,-0.40569 -2.53647,-1.11478 -3.74297,-1.75683 -1.72156,-0.93133 -3.11856,-2.31422 -4.31801,-3.83822"
     style="fill:#000000;fill-opacity:1;fill-rule:evenodd;stroke:none"
     id="path5795"
     inkscape:connector-curvature="0" />
  <path
     d="m 133.93157,76.200169 c -2.6035,2.328334 -5.78556,3.245556 -9.0805,1.972028 -9.67317,-3.750028 3.31258,-2.144889 0.59972,-7.503584 -0.73025,-1.442862 -6.13128,-0.786695 -5.7397,-2.434167 0.87489,-3.601862 4.25098,-6.491112 7.94456,-6.752168 4.18747,-0.303389 7.66939,2.275417 8.65364,6.346473 0.68792,2.839862 -0.12347,6.353529 -2.37772,8.371418"
     style="fill:#000000;fill-opacity:1;fill-rule:evenodd;stroke:none"
     id="path5803"
     inkscape:connector-curvature="0" />
</svg>
