<?xml version="1.0" encoding="utf-8"?>
<!-- Generator: Adobe Illustrator 12.0.1, SVG Export Plug-In  -->
<!DOCTYPE svg PUBLIC "-//W3C//DTD SVG 1.1//EN" "http://www.w3.org/Graphics/SVG/1.1/DTD/svg11.dtd" [
	<!ENTITY ns_flows "http://ns.adobe.com/Flows/1.0/">
	<!ENTITY ns_svg "http://www.w3.org/2000/svg">
	<!ENTITY ns_xlink "http://www.w3.org/1999/xlink">
]>
<svg  version="1.1" xmlns="&ns_svg;" xmlns:xlink="&ns_xlink;" xmlns:a="http://ns.adobe.com/AdobeSVGViewerExtensions/3.0/"
	 width="218" height="288" viewBox="-0.219 0 218 288" enable-background="new -0.219 0 218 288" xml:space="preserve">
<defs>
</defs>
<path fill="#FFFFFF" d="M20.063,0.989h177.44c10.48,0,19.063,8.581,19.063,19.074v247.873c0,10.497-8.582,19.074-19.063,19.074
	H20.063c-10.493,0-19.066-8.577-19.066-19.074V20.063C0.997,9.57,9.57,0.989,20.063,0.989z"/>
<path fill="#231F20" d="M20.063,0C9.001,0,0,8.997,0,20.063v247.873C0,278.999,9.001,288,20.063,288h177.44
	c11.059,0,20.06-9.001,20.06-20.063V20.063C217.563,8.997,208.562,0,197.503,0H20.063z M1.991,267.937V20.063
	c0-9.97,8.107-18.077,18.072-18.077h177.44c9.966,0,18.073,8.107,18.073,18.077v247.873c0,9.97-8.107,18.077-18.073,18.077H20.063
	C10.098,286.014,1.991,277.906,1.991,267.937z"/>
<path fill-rule="evenodd" clip-rule="evenodd" fill="#231F20" d="M21.077,5.951h175.404c8.327,0,15.122,6.807,15.122,15.131v245.841
	c0,8.315-6.795,15.126-15.122,15.126H21.077c-8.315,0-15.122-6.811-15.122-15.126V21.082C5.955,12.758,12.762,5.951,21.077,5.951"/>
<path fill="#FFFFFF" d="M196.427,10.397H21.144c-5.93,0-10.754,4.816-10.754,10.742v245.733c0,5.926,4.825,10.746,10.754,10.746
	h175.283c5.922,0,10.747-4.82,10.747-10.746V21.14C207.174,15.214,202.349,10.397,196.427,10.397z"/>
<path fill="#221E1F" d="M58.358,75.509c-6.528,0-10.4-5.477-10.4-11.562h5.2c0,3.098,1.549,6.362,5.2,6.362
	c2.877,0,5.2-2.6,5.2-5.587c0-2.102-0.774-3.651-2.987-5.366c-0.774-0.774,1.327,0.664-6.251-4.425
	c-2.987-2.047-4.536-4.923-4.536-8.188c0-5.311,4.148-9.625,9.459-9.625c5.256,0,9.238,4.038,9.404,9.625h-5.089
	c-0.111-2.6-1.937-4.26-4.315-4.26c-2.434,0-4.37,1.826-4.37,4.26c0,1.826,0.774,2.876,3.485,4.426
	c7.136,4.149,10.289,8.187,10.289,13.553C68.647,70.696,64.057,75.509,58.358,75.509z"/>
<path fill="#221E1F" d="M85.409,58.581h-5.753v16.264h-5.311V37.78h11.063c5.809,0,9.736,4.149,9.736,10.4
	C95.146,54.93,91.66,58.581,85.409,58.581z M85.133,42.98h-5.477v10.511h5.477c3.098,0,4.813-1.936,4.813-5.311
	C89.945,45.083,88.009,42.98,85.133,42.98z"/>
<path fill="#221E1F" d="M99.681,74.845V37.78h17.426v5.2h-12.115v9.349h7.689v5.089h-7.689v12.226h13.554v5.2H99.681z"/>
<path fill="#221E1F" d="M124.242,74.845V37.78h17.426v5.2h-12.115v9.349h7.689v5.089h-7.689v12.226h13.554v5.2H124.242z"/>
<path fill="#221E1F" d="M164.294,73.13c-1.328,1.217-3.153,1.715-5.2,1.715h-10.29V37.78h9.46c3.153,0,4.702,0.387,6.03,1.438
	c2.212,1.549,3.762,4.426,4.425,8.188c0.498,2.71,0.886,5.975,0.886,8.851C169.604,64.832,167.89,70.309,164.294,73.13z
	 M163.354,46.742c-0.886-2.6-2.435-3.762-4.813-3.762h-4.426v26.664h4.426c3.153,0,4.813-2.489,5.366-5.311
	c0.222-2.379,0.498-4.979,0.498-7.8C164.404,52.33,164.017,48.291,163.354,46.742z"/>
<path fill="#221E1F" d="M17.312,133.851V96.787h17.426v5.2H22.622v9.349h7.689v5.089h-7.689v12.226h13.554v5.2H17.312z"/>
<path fill="#221E1F" d="M55.759,133.851l-11.451-24.838v24.838h-5.312V96.787h5.312l10.179,22.239V96.787h5.311v37.064H55.759z"/>
<path fill="#221E1F" d="M69.754,101.987v9.349h7.412v5.089h-7.412v17.426h-5.312V96.787h18.864v5.2H69.754z"/>
<path fill="#221E1F" d="M104.052,128.153c-1.826,4.37-4.537,6.362-8.686,6.362c-4.426,0-7.025-1.992-8.852-6.362
	c-1.549-3.651-2.102-7.192-2.102-12.89c0-5.587,0.553-9.349,2.102-12.89c1.937-4.425,4.536-6.251,8.852-6.251
	c4.26,0,6.859,1.826,8.686,6.362c1.549,3.651,2.102,7.191,2.102,12.779C106.153,120.961,105.601,124.613,104.052,128.153z
	 M99.902,106.025c-0.94-3.264-2.323-4.702-4.536-4.702c-2.379,0-3.817,1.438-4.702,4.591c-0.885,2.821-1.162,5.311-1.162,9.459
	c0,4.039,0.388,6.362,1.162,9.349c0.885,3.153,2.323,4.592,4.702,4.592c2.213,0,3.596-1.438,4.536-4.592
	c0.885-2.987,1.162-5.2,1.162-9.459C101.064,111.115,100.677,108.736,99.902,106.025z"/>
<path fill="#221E1F" d="M125.46,133.851l-4.924-17.426h-5.09v17.426h-5.311V96.787H121.2c5.809,0,9.736,3.928,9.736,9.902
	c0,4.426-1.826,7.634-5.311,8.962l5.311,18.2H125.46z M120.924,101.987h-5.478v9.349h5.478c3.098,0,4.813-1.66,4.813-4.647
	C125.736,103.813,123.8,101.987,120.924,101.987z"/>
<path fill="#221E1F" d="M148.472,106.689c-0.553-3.651-1.991-5.366-4.425-5.366c-4.315,0-5.864,3.375-5.864,13
	c0,10.677,1.825,14.992,6.362,14.992c3.098,0,3.927-2.6,3.927-5.366h5.312c-0.111,6.141-4.039,10.566-9.238,10.566
	c-7.911,0-11.452-6.362-11.452-20.026c0-12.004,3.763-18.366,11.064-18.366c2.987,0,5.587,1.328,7.302,3.762
	c1.384,1.826,1.937,3.43,2.324,6.804H148.472z"/>
<path fill="#221E1F" d="M157.765,133.851V96.787h17.426v5.2h-12.115v9.349h7.689v5.089h-7.689v12.226h13.554v5.2H157.765z"/>
<path fill="#221E1F" d="M194.94,132.136c-1.328,1.217-3.153,1.715-5.2,1.715h-10.29V96.787h9.46c3.153,0,4.702,0.387,6.03,1.438
	c2.212,1.549,3.762,4.426,4.425,8.188c0.498,2.71,0.886,5.975,0.886,8.851C200.251,123.838,198.536,129.315,194.94,132.136z
	 M194,105.749c-0.886-2.6-2.435-3.762-4.813-3.762h-4.426v26.664h4.426c3.153,0,4.813-2.489,5.366-5.311
	c0.222-2.379,0.498-4.979,0.498-7.8C195.051,111.336,194.663,107.297,194,105.749z"/>
<path fill="#221E1F" d="M96.03,193.904H85.132V156.84h11.673c4.979,0,8.464,3.928,8.464,9.626c0,3.374-0.886,4.923-3.873,8.076
	c2.821,2.324,4.536,5.422,4.536,9.239C105.932,189.368,101.507,193.904,96.03,193.904z M96.03,162.04h-5.588v9.902h5.588
	c2.489,0,4.038-2.103,4.038-5.477C100.068,163.368,98.906,162.04,96.03,162.04z M95.809,177.143h-5.366v11.562h5.366
	c2.987,0,4.924-2.102,4.924-5.311C100.732,179.854,98.52,177.143,95.809,177.143z"/>
<path fill="#221E1F" d="M123.192,177.143v16.762h-5.311v-16.762l-9.128-20.303h5.587l6.252,13.388l6.141-13.388h5.697
	L123.192,177.143z"/>
<path fill="#221E1F" d="M35.236,253.952l-2.601-10.123H24.67l-2.434,10.123H16.87l9.238-37.064h5.2l9.238,37.064H35.236z
	 M28.598,227.952l-2.6,10.677h5.311L28.598,227.952z"/>
<path fill="#221E1F" d="M44.806,253.952v-37.064h5.2v37.064H44.806z"/>
<path fill="#221E1F" d="M72.686,253.952l-4.923-17.426h-5.09v17.426h-5.311v-37.064h11.064c5.808,0,9.735,3.928,9.735,9.902
	c0,4.426-1.825,7.634-5.311,8.962l5.311,18.2H72.686z M68.149,222.088h-5.477v9.349h5.477c3.099,0,4.813-1.659,4.813-4.646
	C72.963,223.913,71.026,222.088,68.149,222.088z"/>
<path fill="#221E1F" d="M98.299,226.79c-0.553-3.651-1.991-5.366-4.426-5.366c-4.314,0-5.863,3.375-5.863,13
	c0,10.677,1.825,14.992,6.361,14.992c3.099,0,3.928-2.601,3.928-5.366h5.311c-0.11,6.141-4.038,10.566-9.238,10.566
	c-7.91,0-11.451-6.362-11.451-20.026c0-12.004,3.762-18.366,11.064-18.366c2.987,0,5.587,1.328,7.302,3.762
	c1.383,1.826,1.937,3.431,2.323,6.805H98.299z"/>
<path fill="#221E1F" d="M125.515,253.952l-4.924-17.426h-5.089v17.426h-5.311v-37.064h11.063c5.809,0,9.736,3.928,9.736,9.902
	c0,4.426-1.825,7.634-5.311,8.962l5.311,18.2H125.515z M120.979,222.088h-5.477v9.349h5.477c3.098,0,4.813-1.659,4.813-4.646
	C125.791,223.913,123.855,222.088,120.979,222.088z"/>
<path fill="#221E1F" d="M151.902,253.952l-2.601-10.123h-7.966l-2.435,10.123h-5.365l9.238-37.064h5.2l9.238,37.064H151.902z
	 M145.264,227.952l-2.601,10.677h5.312L145.264,227.952z"/>
<path fill="#221E1F" d="M166.781,222.088v9.349h7.413v5.09h-7.413v17.426h-5.311v-37.064h18.864v5.2H166.781z"/>
<path fill="#221E1F" d="M193.943,221.812v32.141h-5.365v-32.141h-6.749v-4.924h18.863v4.924H193.943z"/>
</svg>
