<?xml version="1.0" encoding="UTF-8" standalone="no"?>
<!-- Generator: Adobe Illustrator 12.0.1, SVG Export Plug-In  -->

<svg
   xmlns:dc="http://purl.org/dc/elements/1.1/"
   xmlns:cc="http://creativecommons.org/ns#"
   xmlns:rdf="http://www.w3.org/1999/02/22-rdf-syntax-ns#"
   xmlns:svg="http://www.w3.org/2000/svg"
   xmlns="http://www.w3.org/2000/svg"
   xmlns:sodipodi="http://sodipodi.sourceforge.net/DTD/sodipodi-0.dtd"
   xmlns:inkscape="http://www.inkscape.org/namespaces/inkscape"
   version="1.1"
   width="135.00093"
   height="135.00063"
   viewBox="-1 0 135.00095 135.00063"
   enable-background="new -1 0 289 288"
   xml:space="preserve"
   id="svg2"
   inkscape:version="0.48.2 r9819"
   sodipodi:docname="AJAX1.svg"><metadata
   id="metadata18"><rdf:RDF><cc:Work
       rdf:about=""><dc:format>image/svg+xml</dc:format><dc:type
         rdf:resource="http://purl.org/dc/dcmitype/StillImage" /><dc:title /></cc:Work></rdf:RDF></metadata><sodipodi:namedview
   pagecolor="#ffffff"
   bordercolor="#666666"
   borderopacity="1"
   objecttolerance="10"
   gridtolerance="10"
   guidetolerance="10"
   inkscape:pageopacity="0"
   inkscape:pageshadow="2"
   inkscape:window-width="1280"
   inkscape:window-height="1004"
   id="namedview16"
   showgrid="false"
   fit-margin-top="0"
   fit-margin-left="0"
   fit-margin-right="0"
   fit-margin-bottom="0"
   inkscape:zoom="4"
   inkscape:cx="112.25983"
   inkscape:cy="48.873829"
   inkscape:window-x="-8"
   inkscape:window-y="-8"
   inkscape:window-maximized="1"
   inkscape:current-layer="svg2"
   showguides="true"
   inkscape:guide-bbox="true" />
<defs
   id="defs4">
</defs>





<path
   inkscape:connector-curvature="0"
   d="M 0.93125,62.815941 61.816298,1.9321801 c 2.575,-2.57625002 6.79,-2.57625002 9.3675,0 L 132.06876,62.815941 c 2.57625,2.5775 2.57625,6.7925 0,9.3675 L 71.183798,133.06845 c -2.5775,2.57625 -6.7925,2.57625 -9.3675,0 L 0.93125,72.183441 c -2.575,-2.575 -2.575,-6.79 0,-9.3675 z"
   style="fill:#ffd033;fill-opacity:1;fill-rule:nonzero;stroke:none"
   id="path4502" /><path
   inkscape:connector-curvature="0"
   d="M 2.4,63.784691 62.782548,3.4009301 c 2.045,-2.04375 5.38875,-2.04375 7.43375,0 L 130.60001,63.784691 c 2.04375,2.04375 2.04375,5.3875 0,7.43125 L 70.216298,131.60095 c -2.045,2.04375 -5.38875,2.04375 -7.43375,0 L 2.4,71.215941 c -2.04375,-2.04375 -2.04375,-5.3875 0,-7.43125"
   style="fill:#000000;fill-opacity:1;fill-rule:evenodd;stroke:none"
   id="path4504" /><path
   inkscape:connector-curvature="0"
   d="M 4.28625,65.643431 64.642584,5.2884301 c 1.02125,-1.0225 2.69375,-1.0225 3.71375,0 L 128.71251,65.643431 c 1.02125,1.02001 1.02125,2.6925 0,3.71376 L 68.356334,129.7122 c -1.02,1.02125 -2.6925,1.02125 -3.71375,0 L 4.28625,69.357191 c -1.02,-1.02126 -1.02,-2.69375 0,-3.71376"
   style="fill:#ffd033;fill-opacity:1;fill-rule:evenodd;stroke:none"
   id="path4506"
   sodipodi:nodetypes="ccccccscc" /><path
   style="fill:#000000;fill-opacity:1;fill-rule:evenodd;stroke:none"
   d="m 91.500478,34.25962 c 0.47245,0.405 0.40625,0.72 0.40625,1.125 0,0.945 -0.8625,1.90625 -1.875,1.90625 -0.135,0 -0.34,-0.08875 -0.8125,-0.15625 l -14.59375,-3.09375 0,13.031722 -16.25,-4.72e-4 0,-13.03125 -14.59375,3.09375 c -0.4725,0.0675 -0.6775,0.15625 -0.8125,0.15625 -1.0125,0 -1.875,-0.96125 -1.875,-1.90625 0,-0.405 -0.0662,-0.72 0.40625,-1.125 l 25,-22.280033 z"
   id="path4520"
   inkscape:connector-curvature="0"
   sodipodi:nodetypes="cssccccccssccc" /><path
   inkscape:connector-curvature="0"
   d="m 48.341021,108.56219 36.315,0 c 2.025,0 3.645,-1.62 3.645,-3.645 l 0,-47.182499 c 0,-2.025001 -1.62,-3.645001 -3.645,-3.645001 l -36.315,0 c -2.02625,0 -3.645,1.62 -3.645,3.645001 l 0,47.182499 c 0,2.025 1.61875,3.645 3.645,3.645 z"
   style="fill:#ffffff;fill-opacity:1;fill-rule:evenodd;stroke:none"
   id="path4508" /><path
   inkscape:connector-curvature="0"
   d="m 48.341021,107.81969 36.315,0 c 1.62,0 2.9025,-1.2825 2.9025,-2.9025 l 0,-47.249999 c 0,-1.62 -1.2825,-2.902501 -2.9025,-2.902501 l -36.315,0 c -1.62,0 -2.9025,1.282501 -2.9025,2.902501 l 0,47.249999 c 0,1.62 1.2825,2.9025 2.9025,2.9025"
   style="fill:#000000;fill-opacity:1;fill-rule:evenodd;stroke:none"
   id="path4510" /><path
   inkscape:connector-curvature="0"
   d="m 48.341021,106.73969 36.315,0 c 1.0125,0 1.82125,-0.81 1.82125,-1.8225 l 0,-47.249999 c 0,-1.0125 -0.80875,-1.822501 -1.82125,-1.822501 l -36.315,0 c -1.0125,0 -1.8225,0.810001 -1.8225,1.822501 l 0,47.249999 c 0,1.0125 0.81,1.8225 1.8225,1.8225"
   style="fill:#ffffff;fill-opacity:1;fill-rule:evenodd;stroke:none"
   id="path4512" /><path
   inkscape:connector-curvature="0"
   d="m 55.361021,66.509691 c 0,-0.81 -0.405,-1.485 -1.08,-1.8225 -0.405,-0.2025 -1.0125,-0.405 -2.02625,-0.6075 -0.87625,-0.2025 -1.14625,-0.405 -1.14625,-0.81 0,-0.4725 0.4725,-0.7425 1.215,-0.7425 0.675,0 1.28125,0.2025 1.755,0.675 l 0.945,-0.8775 c -0.7425,-0.7425 -1.62,-1.08 -2.7,-1.08 -1.485,0 -2.56625,0.81 -2.56625,2.025 0,0.4725 0.20375,0.8775 0.47375,1.215 0.3375,0.3375 0.7425,0.54 1.485,0.7425 l 0.3375,0.0675 0.3375,0.0675 0.33625,0.135 c 0.33875,0.0675 0.60875,0.2025 0.8775,0.27 0.27125,0.135 0.47375,0.405 0.47375,0.675 0,0.54 -0.675,0.8775 -1.62,0.8775 -0.81,0 -1.4175,-0.2025 -1.9575,-0.8775 l -1.08,0.81 c 0.8775,0.945 1.8225,1.35 3.0375,1.35 0.675,0 1.35,-0.135 1.89,-0.4725 0.675,-0.405 1.0125,-0.8775 1.0125,-1.62 z m 7.29,-2.97 c 0,-0.81 -0.405,-1.5525 -1.08,-1.9575 -0.40625,-0.2025 -0.7425,-0.27 -1.35125,-0.27 l -3.37375,0 0,7.2225 1.2825,0 0,-2.7675 2.09125,0 c 0.60875,0 0.945,-0.0675 1.35125,-0.3375 0.675,-0.3375 1.08,-1.1475 1.08,-1.89 z m -1.2825,0 c 0,0.54 -0.4725,0.8775 -1.08,0.8775 l -2.16,0 0,-1.8225 2.16,0 c 0.6075,0 1.08,0.405 1.08,0.945 z m 7.8975,4.995 0,-1.215 -4.05,0 0,-2.025 2.0925,0 0,-1.35 -2.0925,0 0,-1.35 3.91375,0 0,-1.2825 -5.26375,0 0,7.2225 5.4,0 z m 6.9525,0 0,-1.215 -4.11875,0 0,-2.025 2.16125,0 0,-1.35 -2.16125,0 0,-1.35 3.98375,0 0,-1.2825 -5.3325,0 0,7.2225 5.4675,0 z m 7.28875,-3.5775 c 0,-1.4175 -0.60625,-2.565 -1.75375,-3.1725 -0.54,-0.3375 -1.08,-0.4725 -1.68875,-0.4725 l -2.36125,0 0,7.2225 2.36125,0 c 0.54125,0 1.14875,-0.135 1.68875,-0.405 1.1475,-0.675 1.75375,-1.6875 1.75375,-3.1725 z m -1.28125,0 c 0,1.0125 -0.33875,1.6875 -1.1475,2.0925 -0.27,0.135 -0.67625,0.27 -1.01375,0.27 l -1.07875,0 0,-4.725 1.07875,0 c 0.3375,0 0.74375,0.135 1.08125,0.27 0.74125,0.4725 1.08,1.08 1.08,2.0925"
   style="fill:#000000;fill-opacity:1;fill-rule:evenodd;stroke:none"
   id="path4514" /><path
   inkscape:connector-curvature="0"
   d="m 58.736021,79.469691 0,-1.1475 -4.1175,0 0,-6.1425 -1.35,0 0,7.29 5.4675,0 z m 1.2825,0 1.2825,0 0,-7.29 -1.2825,0 0,7.29 z m 9.9225,0 0,-7.29 -1.28375,0 -2.16,4.32 -2.02375,-4.32 -1.28375,0 0,7.29 1.28375,0 0,-4.455 2.02375,4.455 2.16,-4.455 0,4.455 1.28375,0 z m 1.9575,0 1.2825,0 0,-7.29 -1.2825,0 0,7.29 z m 7.965,-6.0075 0,-1.2825 -5.4675,0 0,1.2825 2.0925,0 0,6.0075 1.2825,0 0,-6.0075 2.0925,0"
   style="fill:#000000;fill-opacity:1;fill-rule:evenodd;stroke:none"
   id="path4516" /><path
   inkscape:connector-curvature="0"
   d="m 66.159771,97.559691 0,-2.9025 -2.69875,0 0,-11.5425 -3.1725,0 -11.2725,11.5425 0,2.9025 11.2725,0 0,3.712499 3.1725,0 0,-3.712499 2.69875,0 z m -5.87125,-2.9025 -7.0875,0 7.0875,-7.29 0,7.29 z m 22.8825,0.3375 c 0,-3.7125 -3.0375,-6.5475 -7.155,-6.5475 -1.1475,0 -2.025,0.135 -3.51,0.4725 l 0.2025,-2.6325 8.9775,0 0.0675,-3.1725 -12.0825,0 -0.6075,8.505 3.24,0.8775 c 1.35,-0.54 2.29375,-0.7425 3.51,-0.7425 1.35,0 2.295,0.27 2.97,0.81 0.675,0.54 1.1475,1.485 1.1475,2.43 0,2.0925 -1.6875,3.3075 -4.455,3.3075 -1.8225,0 -3.645,-0.54 -5.265,-1.485 l -1.755,2.7675 c 2.3625,1.349999 4.59,2.024999 7.02,2.024999 4.5225,0 7.695,-2.767499 7.695,-6.614999"
   style="fill:#000000;fill-opacity:1;fill-rule:evenodd;stroke:none"
   id="path4518" /></svg>