<?xml version="1.0" encoding="UTF-8" standalone="no"?>
<svg
   xmlns:dc="http://purl.org/dc/elements/1.1/"
   xmlns:cc="http://creativecommons.org/ns#"
   xmlns:rdf="http://www.w3.org/1999/02/22-rdf-syntax-ns#"
   xmlns:svg="http://www.w3.org/2000/svg"
   xmlns="http://www.w3.org/2000/svg"
   xmlns:sodipodi="http://sodipodi.sourceforge.net/DTD/sodipodi-0.dtd"
   xmlns:inkscape="http://www.inkscape.org/namespaces/inkscape"
   width="135.00031"
   height="135.00063"
   viewBox="0 0 381.00096 381.00174"
   version="1.1"
   id="svg2"
   inkscape:version="0.48.2 r9819"
   sodipodi:docname="AJAX1.svg">
  <metadata
     id="metadata62">
    <rdf:RDF>
      <cc:Work
         rdf:about="">
        <dc:format>image/svg+xml</dc:format>
        <dc:type
           rdf:resource="http://purl.org/dc/dcmitype/StillImage" />
        <dc:title />
      </cc:Work>
    </rdf:RDF>
  </metadata>
  <defs
     id="defs60" />
  <sodipodi:namedview
     pagecolor="#ffffff"
     bordercolor="#666666"
     borderopacity="1"
     objecttolerance="10"
     gridtolerance="10"
     guidetolerance="10"
     inkscape:pageopacity="0"
     inkscape:pageshadow="2"
     inkscape:window-width="1280"
     inkscape:window-height="1004"
     id="namedview58"
     showgrid="false"
     fit-margin-top="0"
     fit-margin-left="0"
     fit-margin-right="0"
     fit-margin-bottom="0"
     inkscape:zoom="4"
     inkscape:cx="98.723003"
     inkscape:cy="54.926304"
     inkscape:window-x="-8"
     inkscape:window-y="-8"
     inkscape:window-maximized="1"
     inkscape:current-layer="svg2"
     showguides="true"
     inkscape:guide-bbox="true" />
  <!-- draw the bicycle -->
  <!-- RIGHT -->
  <!-- LANE -->
  <!-- ONLY -->
  <path
     inkscape:connector-curvature="0"
     d="M 5.4504,177.28316 177.2779,5.4556478 c 7.2707,-7.27428 19.1629,-7.27428 26.4372,0 L 375.5426,177.28316 c 7.2778,7.27075 7.2778,19.16995 0,26.43718 L 203.7151,375.55137 c -7.2743,7.26722 -19.1665,7.26722 -26.4372,0 L 5.4504,203.72034 c -7.2672,-7.26723 -7.2672,-19.16643 0,-26.43718"
     style="fill:#fecf33;fill-opacity:1;fill-rule:nonzero;stroke:none"
     id="path3286" />
  <path
     inkscape:connector-curvature="0"
     d="M 9.5991,180.0133 180.0155,9.5968978 c 5.7644,-5.76439 15.2047,-5.76439 20.9797,0 L 371.4045,180.0133 c 5.7644,5.77144 5.7644,15.20825 0,20.97264 L 200.9952,371.40586 c -5.775,5.76439 -15.2153,5.76439 -20.9797,0 L 9.5991,200.98594 c -5.7679,-5.76439 -5.7679,-15.2012 0,-20.97264"
     style="fill:#000000;fill-opacity:1;fill-rule:evenodd;stroke:none"
     id="path3302" />
  <path
     inkscape:connector-curvature="0"
     d="M 14.919,185.26195 185.2578,14.926687 c 2.8716,-2.88572 7.5988,-2.88572 10.481,0 L 366.0776,185.26195 c 2.8786,2.87867 2.8786,7.59884 0,10.48103 L 195.7388,366.07824 c -2.8822,2.88572 -7.6094,2.88572 -10.481,0 L 14.919,195.74298 c -2.8822,-2.88219 -2.8822,-7.60236 0,-10.48103"
     style="fill:#fecf33;fill-opacity:1;fill-rule:evenodd;stroke:none"
     id="path3306" />
  <path
     inkscape:connector-curvature="0"
     d="m 327.7518,210.8863 0,-5.715 -14.859,0 0,-13.33501 8.3855,0 0,-5.5245 -8.3855,0 0,-10.287 13.3385,0 0,-5.715 -19.0535,0 0,40.57651 20.574,0 z m -29.337,0 0,-40.57651 -5.9055,0 0,24.384 -11.0526,-24.384 -5.9019,0 0,40.57651 5.9019,0 0,-27.05101 12.5766,27.05101 4.3815,0 z m -36.5725,-20.19301 c 0,4.572 -0.194,6.85801 -1.337,10.09651 -0.9525,3.429 -2.473,5.1435 -4.953,5.1435 -2.4765,0 -4.191,-1.7145 -5.14,-5.1435 -0.7655,-3.2385 -1.337,-5.71501 -1.337,-10.09651 0,-4.3815 0.3774,-7.239 1.337,-10.287 0.949,-3.429 2.6635,-4.953 5.14,-4.953 2.48,0 4.0005,1.524 4.953,5.1435 0.9489,2.8575 1.337,5.5245 1.337,10.0965 m 5.5174,0 c 0,-6.096 -0.5644,-10.0965 -2.2789,-14.097 -1.9085,-4.953 -4.7696,-6.858 -9.5285,-6.858 -4.7625,0 -7.62,1.905 -9.7155,6.858 -1.7181,3.81 -2.2896,8.001 -2.2896,14.097 0,6.09601 0.5715,9.90601 2.2896,13.90651 2.0955,4.7625 4.953,7.0485 9.7155,7.0485 4.5755,0 7.62,-2.286 9.5285,-7.0485 1.7145,-3.81 2.2789,-7.8105 2.2789,-13.90651 m -29.9014,20.19301 0,-5.5245 -16.3865,0 16.3865,-31.43251 0,-3.6195 -20.768,0 0,5.715 13.5255,0 -15.24,28.57501 0,6.2865 22.4825,0 z m -54.102,-20.19301 c 0,3.2385 -0.3881,6.09601 -0.5715,8.57251 -0.5715,3.2385 -2.48,5.9055 -5.9055,5.9055 l -4.7696,0 0,-29.14651 4.7696,0 c 2.473,0 4.1875,1.3335 5.334,4.191 0.5715,1.7145 1.143,6.096 1.143,10.4775 m 5.7115,0 c 0,-3.2385 -0.5715,-6.6675 -1.143,-9.7155 -0.5715,-4.191 -2.2825,-7.239 -4.7625,-8.9535 -1.524,-1.143 -3.2385,-1.7145 -6.6675,-1.7145 l -10.2906,0 0,40.57651 11.2466,0 c 2.2789,0 4.1875,-0.5715 5.7115,-1.905 4.004,-3.048 5.9055,-9.144 5.9055,-18.28801 m -29.7181,20.19301 0,-5.715 -14.8625,0 0,-13.33501 8.3855,0 0,-5.5245 -8.3855,0 0,-10.287 13.3385,0 0,-5.715 -19.244,0 0,40.57651 20.768,0 z m -27.6225,0 0,-5.715 -14.8554,0 0,-13.33501 8.5725,0 0,-5.5245 -8.5725,0 0,-10.287 13.3314,0 0,-5.715 -19.05,0 0,40.57651 20.574,0 z M 99.9137,181.73979 c 0,3.81 -1.9085,5.9055 -5.3304,5.9055 l -6.0996,0 0,-11.6205 6.0996,0 c 3.0444,0 5.3304,2.286 5.3304,5.715 m 5.5281,0 c 0,-6.858 -4.1981,-11.43 -10.6751,-11.43 l -12.0015,0 0,40.57651 5.7185,0 0,-17.90701 6.283,0 c 6.8651,0 10.6751,-3.81 10.6751,-11.2395 M 75.9107,199.8373 c 0,-5.90551 -3.4254,-10.09651 -11.2395,-14.66851 -3.0444,-1.7145 -4.004,-2.8575 -4.004,-4.953 0,-2.667 2.2895,-4.7625 4.9565,-4.7625 2.4801,0 4.5756,1.905 4.5756,4.7625 l 5.7114,0 c -0.1869,-6.096 -4.5684,-10.4775 -10.287,-10.4775 -5.9055,0 -10.474,4.572 -10.474,10.4775 0,3.6195 1.7075,6.6675 4.946,8.9535 8.3855,5.5245 6.0995,3.81 6.8651,4.7625 2.4729,1.905 3.2385,3.61951 3.2385,5.90551 0,3.2385 -2.4801,6.096 -5.5281,6.096 -4.004,0 -5.7185,-3.6195 -5.7185,-7.0485 l -5.7115,0 c 0,6.6675 4.191,12.7635 11.43,12.7635 6.0996,0 11.2395,-5.334 11.2395,-11.811"
     style="fill:#000000;fill-opacity:1;fill-rule:evenodd;stroke:none"
     id="path3310" />
  <path
     inkscape:connector-curvature="0"
     d="m 263.3663,143.63837 0,-40.76701 -5.7221,0 0,16.5735 -11.236,0 0,-16.5735 -5.9055,0 0,40.76701 5.9055,0 0,-18.4785 11.236,0 0,18.4785 5.7221,0 z m -34.1031,-29.33701 c 0,3.81 -1.7145,5.9055 -5.1435,5.9055 l -6.0924,0 0,-11.6205 6.0924,0 c 3.0516,0 5.1435,2.286 5.1435,5.715 m 5.715,0 c 0,-6.858 -4.191,-11.43 -10.668,-11.43 l -12.1884,0 0,40.76701 5.9055,0 0,-17.90348 6.2829,0 c 6.858,0 10.668,-4.00402 10.668,-11.43353 m -31.6194,29.33701 0,-40.76701 -5.9055,0 -7.2426,22.86353 -7.62,-22.86353 -5.9055,0 0,40.76701 5.9055,0 0,-22.85648 7.62,22.85648 7.2426,-22.85648 0,22.85648 5.9055,0 z m -46.6761,-14.2875 c 0,-7.8105 -4.5755,-12.95401 -11.0525,-12.95401 -1.5205,0 -2.6635,0 -4.565,0.762 l 0.3775,-8.5725 13.7195,0 0,-5.715 -19.0535,0 -1.143,20.38703 5.7185,0.56798 c 1.33,-1.143 2.854,-1.905 4.7625,-1.905 3.422,0 5.5245,2.67052 5.5245,7.0485 0,5.715 -3.0515,9.525 -7.433,9.525 -2.0955,0 -3.6195,-0.5715 -5.7115,-1.905 l -3.8135,4.191 c 3.048,2.286 6.477,3.6195 10.0965,3.6195 7.2425,0 12.573,-6.477 12.573,-15.0495 m -36.957,-0.94898 -9.7155,0 9.7155,-15.4305 0,15.4305 z m 8.3855,5.33048 0,-5.33048 -2.48,0 0,-25.53053 -5.9055,0 -16.764,26.67001 0,4.191 16.764,0 0,9.906 5.9055,0 0,-9.906 2.48,0 z"
     style="fill:#000000;fill-opacity:1;fill-rule:evenodd;stroke:none"
     id="path3314" />
  <path
     inkscape:connector-curvature="0"
     d="m 255.5522,258.13031 c 0,3.048 -0.381,5.9055 -0.5715,8.5725 -0.575,3.048 -2.4765,5.715 -5.9055,5.715 l -4.7625,0 0,-29.1465 4.7625,0 c 2.4801,0 4.1875,1.3335 5.3305,4.191 0.575,1.7145 1.1465,6.096 1.1465,10.668 m 5.7186,-0.381 c 0,-3.048 -0.5715,-6.6675 -1.143,-9.7155 -0.5751,-4.0005 -2.2896,-7.239 -4.7625,-8.9535 -1.5311,-1.143 -3.2385,-1.524 -6.477,-1.524 l -10.4811,0 0,40.57651 11.2395,0 c 2.286,0 4.1875,-0.5715 5.7186,-1.7145 3.9969,-3.23851 5.9055,-9.14401 5.9055,-18.66901 m -38.6751,3.6195 -5.7114,0 2.8504,-11.6205 2.861,11.6205 z m 10.287,16.76401 -10.287,-40.57651 -5.7114,0 -10.1036,40.57651 5.9055,0 2.6741,-11.04901 8.7594,0 2.8575,11.04901 5.9055,0 z m -29.718,0 0,-5.71501 -14.6685,0 0,-13.335 8.1915,0 0,-5.5245 -8.1915,0 0,-10.287 13.1445,0 0,-5.715 -19.05,0 0,40.57651 20.574,0 z m -29.1465,0 0,-40.57651 -5.902,0 0,16.5735 -11.2395,0 0,-16.5735 -5.7185,0 0,40.57651 5.7185,0 0,-18.28801 11.2395,0 0,18.28801 5.902,0 z m -38.675,-16.76401 -5.7115,0 2.861,-11.6205 2.8505,11.6205 z m 10.1035,16.76401 -10.1035,-40.57651 -5.7115,0 -10.093,40.57651 5.9055,0 2.667,-11.04901 8.763,0 2.854,11.04901 5.7185,0 z"
     style="fill:#000000;fill-opacity:1;fill-rule:evenodd;stroke:none"
     id="path3318" />
</svg>
