<?xml version="1.0" encoding="UTF-8" standalone="no"?>
<!-- Generator: Adobe Illustrator 12.0.1, SVG Export Plug-In  -->

<svg
   xmlns:dc="http://purl.org/dc/elements/1.1/"
   xmlns:cc="http://creativecommons.org/ns#"
   xmlns:rdf="http://www.w3.org/1999/02/22-rdf-syntax-ns#"
   xmlns:svg="http://www.w3.org/2000/svg"
   xmlns="http://www.w3.org/2000/svg"
   xmlns:sodipodi="http://sodipodi.sourceforge.net/DTD/sodipodi-0.dtd"
   xmlns:inkscape="http://www.inkscape.org/namespaces/inkscape"
   version="1.1"
   width="285.30801"
   height="285.30801"
   viewBox="0 -1 285.30801 285.30801"
   enable-background="new 0 -1 288 289"
   xml:space="preserve"
   id="svg2"
   inkscape:version="0.48.2 r9819"
   sodipodi:docname="AJAX1.svg"><metadata
   id="metadata28"><rdf:RDF><cc:Work
       rdf:about=""><dc:format>image/svg+xml</dc:format><dc:type
         rdf:resource="http://purl.org/dc/dcmitype/StillImage" /></cc:Work></rdf:RDF></metadata><sodipodi:namedview
   pagecolor="#ffffff"
   bordercolor="#666666"
   borderopacity="1"
   objecttolerance="10"
   gridtolerance="10"
   guidetolerance="10"
   inkscape:pageopacity="0"
   inkscape:pageshadow="2"
   inkscape:window-width="1280"
   inkscape:window-height="1004"
   id="namedview26"
   showgrid="false"
   fit-margin-top="0"
   fit-margin-left="0"
   fit-margin-right="0"
   fit-margin-bottom="0"
   inkscape:zoom="1.633218"
   inkscape:cx="17.588321"
   inkscape:cy="114.27261"
   inkscape:window-x="-8"
   inkscape:window-y="-8"
   inkscape:window-maximized="1"
   inkscape:current-layer="svg2" />
<defs
   id="defs4">
</defs>
<path
   clip-rule="evenodd"
   d="m 23.775,284.308 h 237.747 c 13.134,0 23.786,-10.62 23.786,-23.765 V 22.781 C 285.308,9.645 274.656,-1 261.522,-1 H 23.775 C 10.628,-1 0,9.645 0,22.781 v 237.762 c 0,13.113 10.644,23.765 23.775,23.765 z"
   id="path6"
   style="fill:#ffd033;fill-opacity:1;fill-rule:evenodd;stroke:none"
   inkscape:connector-curvature="0" />
<path
   d="m 23.775,-2.346 c -13.851,0 -25.121,11.273 -25.121,25.127 v 237.762 c 0,13.849 11.27,25.111 25.121,25.111 h 237.747 c 13.86,0 25.132,-11.262 25.132,-25.111 V 22.781 c 0,-13.854 -11.272,-25.127 -25.132,-25.127 H 23.775 z M 1.346,260.543 V 22.781 C 1.346,10.409 11.407,0.346 23.775,0.346 h 237.747 c 12.376,0 22.439,10.063 22.439,22.435 v 237.762 c 0,12.366 -10.063,22.419 -22.439,22.419 H 23.775 c -12.369,0 -22.429,-10.053 -22.429,-22.419 z"
   id="path8"
   style="fill:none;stroke:none"
   inkscape:connector-curvature="0" />
<path
   clip-rule="evenodd"
   d="m 23.846,279.356 h 237.602 c 10.495,0 19.002,-8.497 19.002,-19.002 V 22.55 c 0,-10.5 -8.507,-19.012 -19.002,-19.012 H 23.846 C 13.351,3.538 4.858,12.05 4.858,22.55 v 237.804 c 0,10.484 8.507,19.002 18.988,19.002"
   id="path10"
   style="fill:#000000;fill-rule:evenodd;stroke:none"
   inkscape:connector-curvature="0" />
<path
   clip-rule="evenodd"
   d="m 23.867,272.258 h 237.57 c 6.552,0 11.862,-5.321 11.862,-11.872 V 23.165 c 0,-6.569 -5.311,-11.877 -11.862,-11.877 H 23.867 C 17.31,11.288 12,16.596 12,23.165 v 237.221 c 10e-4,6.561 5.3,11.872 11.867,11.872"
   id="path12"
   style="fill:#ffd033;fill-opacity:1;fill-rule:evenodd;stroke:none"
   inkscape:connector-curvature="0" />
<path
   clip-rule="evenodd"
   d="m 146.651,252.215 v -19.128 c 0,-5.268 -4.143,-9.253 -9.99,-9.253 -3.139,0 -5.276,0.693 -8.415,3.28 -1.998,-2.292 -4.422,-3.28 -7.274,-3.28 -2.713,0 -5.137,1.272 -6.709,2.85 v -2.282 h -6.843 v 27.813 h 6.843 v -16.698 c 0,-2.85 1.858,-4.984 4.566,-4.984 2.713,0 4.995,2.135 4.995,5.131 v 16.552 h 6.559 V 235.37 c 0,-2.565 2.143,-4.837 4.711,-4.837 3,0 4.85,1.998 4.85,5.131 v 16.552 h 6.707 m -43.371,-0.001 -7.558,-18.822 7.274,-8.865 h -8.275 l -7.418,9.569 V 213.55 l -6.704,2.576 v 36.089 h 6.704 v -8.139 l 3.714,-5.143 5.56,13.281 h 6.703 z"
   id="path14"
   inkscape:connector-curvature="0"
   style="fill:#000000;fill-rule:evenodd;stroke:none" />
<path
   transform="translate(-1.346,-2.346)"
   style="fill:#000000;stroke:none"
   d="m 180.232,215.623 -6.84,0 -22.682,38.938 6.698,0 22.824,-38.938"
   id="polyline16" />
<path
   clip-rule="evenodd"
   d="m 204.57,252.215 v -19.128 c 0,-5.268 -4.143,-9.253 -10.137,-9.253 -1.998,0 -4.7,0.42 -6.42,2.555 V 213.55 l -6.703,2.576 v 36.089 h 6.703 v -16.268 c 0,-4.133 2.713,-5.415 5.137,-5.415 2.713,0 4.995,2.271 4.995,5.131 v 16.552 h 6.425"
   id="path18"
   inkscape:connector-curvature="0"
   style="fill:#000000;fill-rule:evenodd;stroke:none" />
<path
   clip-rule="evenodd"
   d="m 142.658,199.722 c 46.496,0 84.3,-37.961 84.3,-84.166 0,-46.513 -37.804,-84.458 -84.3,-84.458 -46.365,0 -84.311,37.945 -84.311,84.458 0,46.205 37.946,84.166 84.311,84.166"
   id="path20"
   inkscape:connector-curvature="0"
   style="fill:#000000;fill-rule:evenodd;stroke:none" />
<path
   clip-rule="evenodd"
   d="m 142.658,192.003 c 42.08,0 76.603,-34.521 76.603,-76.447 0,-42.23 -34.522,-76.608 -76.603,-76.608 -42.085,0 -76.474,34.377 -76.474,76.608 0,41.926 34.388,76.447 76.474,76.447"
   id="path22"
   inkscape:connector-curvature="0"
   style="fill:#ffd033;fill-opacity:1;fill-rule:evenodd;stroke:none" />
<path
   clip-rule="evenodd"
   d="m 182.74,115.838 c 0,4.995 -1.141,11.272 -2.571,14.688 -2.276,5.712 -5.137,8.278 -9.984,8.278 -4.138,0 -6.846,-1.572 -8.843,-4.995 -2.566,-4.135 -3.849,-11.123 -3.849,-17.971 0,-5.563 0.852,-11.415 2.418,-15.269 2.282,-5.702 5.563,-8.271 10.558,-7.981 3.859,0.287 6.277,1.567 8.418,4.992 2.423,4.28 3.853,10.983 3.853,18.258 m 10.268,0 c 0,-8.276 -1.709,-16.407 -4.422,-22.114 -3.996,-7.984 -9.7,-11.551 -17.977,-11.551 -7.418,0 -12.697,2.282 -16.546,7.271 -4.422,6.139 -7.129,15.694 -7.129,26.394 0,7.708 1.851,16.404 4.563,21.83 3.849,7.844 9.559,11.412 18.686,11.412 6.846,0 12.125,-2.284 15.7,-7.282 4.554,-5.561 7.125,-15.834 7.125,-25.96 z m -68.902,13.404 c 0,5.282 -5.416,9.562 -11.84,9.562 -6.278,0 -11.554,-4.28 -11.554,-9.562 0,-4.995 5.276,-9.406 11.554,-9.406 6.564,0 11.84,4.411 11.84,9.406 z m 10.271,0.144 c 0,-10.841 -9.981,-19.682 -22.111,-19.682 -2.416,0 -4.14,0 -7.697,0.57 3.849,-8.133 7.984,-13.412 15.973,-19.548 l -5.276,-8.555 c -14.977,9.984 -25.105,28.389 -25.105,46.355 0,11.559 9.551,20.552 22.106,20.552 12.554,0.001 22.11,-8.561 22.11,-19.692 z"
   id="path24"
   inkscape:connector-curvature="0"
   style="fill:#000000;fill-rule:evenodd;stroke:none" />
</svg>