<?xml version="1.0" encoding="utf-8"?>
<!-- Generator: Adobe Illustrator 15.0.2, SVG Export Plug-In  -->
<!DOCTYPE svg PUBLIC "-//W3C//DTD SVG 1.1//EN" "http://www.w3.org/Graphics/SVG/1.1/DTD/svg11.dtd" [
	<!ENTITY ns_flows "http://ns.adobe.com/Flows/1.0/">
]>
<svg version="1.1"
	 xmlns="http://www.w3.org/2000/svg" xmlns:xlink="http://www.w3.org/1999/xlink" xmlns:a="http://ns.adobe.com/AdobeSVGViewerExtensions/3.0/"
	 x="0px" y="0px" width="601px" height="751px" viewBox="0 0 601 751" enable-background="new 0 0 601 751" xml:space="preserve">
<defs>
</defs>
<path id="rect1872_1_" fill="#FFFFFF" stroke="#000000" d="M38,0.5h525c20.775,0,37.5,16.725,37.5,37.5v675
	c0,20.775-16.725,37.5-37.5,37.5H38c-20.775,0-37.5-16.725-37.5-37.5V38C0.5,17.225,17.225,0.5,38,0.5z"/>
<path id="rect2760_1_" d="M38,9.875h525c15.581,0,28.125,12.544,28.125,28.125v675c0,15.581-12.544,28.125-28.125,28.125H38
	c-15.581,0-28.125-12.544-28.125-28.125V38C9.875,22.419,22.419,9.875,38,9.875z"/>
<path id="rect2762_1_" fill="#FFFFFF" d="M38,25.5h525c6.925,0,12.5,5.575,12.5,12.5v675c0,6.925-5.575,12.5-12.5,12.5H38
	c-6.925,0-12.5-5.575-12.5-12.5V38C25.5,31.075,31.075,25.5,38,25.5z"/>
<g>
	<path d="M146.777,641.596c-32.45,0-63.8-11.55-90.75-32.449l34.65-37.4c18.15,12.65,32.45,18.15,50.6,18.15
		c40.15,0,68.75-36.301,68.75-86.901c0-40.149-19.8-64.351-50.6-64.351c-17.05,0-30.8,6.051-44,18.15l-41.25-6.6V266.494h173.251
		v51.7H123.127l-3.85,77.55c18.15-6.6,27.5-7.699,41.25-7.699c59.951,0,101.201,47.85,101.201,117.701
		C261.728,583.296,212.228,641.596,146.777,641.596z"/>
	<path d="M512.525,578.346c-18.15,43.45-45.101,63.25-86.352,63.25c-44,0-69.85-19.8-88-63.25c-15.4-36.301-20.9-71.5-20.9-128.15
		c0-55.551,5.5-92.951,20.9-128.151c19.25-44,45.101-62.15,88-62.15c42.351,0,68.201,18.15,86.352,63.25
		c15.399,36.3,20.899,71.5,20.899,127.051C533.425,506.846,527.925,543.146,512.525,578.346z M471.275,358.345
		c-9.351-32.45-23.102-46.75-45.102-46.75c-23.649,0-37.949,14.3-46.75,45.65c-8.8,28.05-11.55,52.8-11.55,94.05
		c0,40.15,3.851,63.25,11.55,92.951c8.801,31.35,23.101,45.65,46.75,45.65c22,0,35.751-14.301,45.102-45.65
		c8.799-29.701,11.549-51.701,11.549-94.051C482.824,408.945,478.975,385.295,471.275,358.345z"/>
</g>
<g>
	<path d="M131.375,178.3c-7.05,4.35-16.2,6.75-25.499,6.75c-17.25,0-30.299-6.3-41.548-19.349l14.399-11.25
		c7.5,8.7,15.599,12.6,26.849,12.6c12.75,0,21.899-5.55,21.899-13.05c0-3.899-2.1-7.049-6.3-9.149c-3.6-1.35-7.5-2.85-12-3.9
		l-4.65-1.35l-4.65-1.05l-4.8-1.5c-10.35-2.4-15.599-4.95-19.799-9.75c-4.2-4.65-6.299-10.649-6.299-16.949
		c0-16.649,14.099-27.899,34.499-27.899c14.849,0,27.149,4.95,37.348,15.449l-13.349,12c-6.3-6.6-14.549-9.899-23.999-9.899
		c-10.2,0-16.199,3.9-16.199,10.35c0,5.55,3.45,8.1,15.899,10.95c13.35,2.7,22.199,5.55,27.749,8.399
		c8.85,4.65,14.549,14.1,14.549,25.049C145.474,164.951,140.824,172.75,131.375,178.3z"/>
	<path d="M230.523,140.652c-5.7,3.15-10.35,3.9-18,3.9h-28.649V184h-18.299V83.504h46.948c7.65,0,12.299,1.05,18,4.2
		c9.449,5.25,15.449,15.149,15.449,26.549C245.973,124.752,239.973,135.402,230.523,140.652z M213.124,101.503h-29.249v25.049
		h29.249c8.85,0,14.849-4.95,14.849-12.299C227.973,106.453,221.974,101.503,213.124,101.503z"/>
	<path d="M262.924,184V83.504h73.348v18h-55.048v18.599h30v18.449h-30v27.449h56.847V184H262.924z"/>
	<path d="M358.173,184V83.504h73.347v18h-55.047v18.599h29.998v18.449h-29.998v27.449h56.848V184H358.173z"/>
	<path d="M509.521,178c-7.05,3.9-15.6,6-23.699,6h-32.398V83.504h32.398c8.55,0,16.649,2.1,23.999,6.3
		c15.6,8.85,23.999,23.999,23.999,43.798C533.819,153.701,525.42,169.15,509.521,178z M500.971,105.403
		c-4.5-2.55-9.75-3.9-15.149-3.9h-14.1v64.498h14.1c5.399,0,10.199-1.35,14.55-3.9c10.499-5.55,15.449-14.7,15.449-28.499
		C515.82,120.103,510.87,110.953,500.971,105.403z"/>
</g>
</svg>
