<?xml version="1.0" encoding="utf-8"?>
<!-- Generator: Adobe Illustrator 12.0.1, SVG Export Plug-In  -->
<!DOCTYPE svg PUBLIC "-//W3C//DTD SVG 1.1//EN" "http://www.w3.org/Graphics/SVG/1.1/DTD/svg11.dtd" [
	<!ENTITY ns_flows "http://ns.adobe.com/Flows/1.0/">
	<!ENTITY ns_svg "http://www.w3.org/2000/svg">
	<!ENTITY ns_xlink "http://www.w3.org/1999/xlink">
]>
<svg  version="1.1" xmlns="&ns_svg;" xmlns:xlink="&ns_xlink;" xmlns:a="http://ns.adobe.com/AdobeSVGViewerExtensions/3.0/"
	 width="198" height="288" viewBox="-0.86 0 198 288" enable-background="new -0.86 0 198 288" xml:space="preserve">
<defs>
</defs>
<path fill="#FFFFFF" d="M20.06,0.993h156.161c10.479,0,19.068,8.581,19.068,19.071v247.872c0,10.495-8.589,19.074-19.068,19.074
	H20.06c-10.49,0-19.067-8.579-19.067-19.074V20.063C0.993,9.574,9.57,0.993,20.06,0.993z"/>
<path fill="#231F20" d="M20.06,0C9,0,0,9,0,20.063v247.872C0,278.998,9,288,20.06,288h156.161c11.057,0,20.059-9.002,20.059-20.064
	V20.063C196.28,9,187.278,0,176.221,0H20.06z M1.987,267.936V20.063c0-9.97,8.107-18.077,18.073-18.077h156.161
	c9.967,0,18.073,8.107,18.073,18.077v247.872c0,9.973-8.106,18.079-18.073,18.079H20.06C10.094,286.015,1.987,277.908,1.987,267.936
	z"/>
<path fill-rule="evenodd" clip-rule="evenodd" fill="#231F20" d="M21.076,5.95h154.12c8.33,0,15.128,6.81,15.128,15.133v245.837
	c0,8.315-6.798,15.127-15.128,15.127H21.076c-8.317,0-15.126-6.812-15.126-15.127V21.083C5.95,12.76,12.759,5.95,21.076,5.95"/>
<path fill="#FFFFFF" d="M10.389,266.871c0,5.922,4.822,10.743,10.75,10.743h154.002c5.927,0,10.749-4.821,10.749-10.743V49.572
	H10.389V266.871z"/>
<path fill="#FFFFFF" d="M27.035,37.175c-1.319,1.177-3.175,1.855-5.208,1.855c-4.103,0-7.099-2.426-8.703-6.063l3.603-1.32
	c0.998,2.247,2.854,3.532,5.101,3.532c2.212,0,3.709-1.534,3.709-3.532c0-3.174-3.709-3.709-6.812-4.957
	c-1.428-0.571-4.603-1.998-4.603-5.958c0-4.672,3.175-6.455,7.457-6.455c3.352,0,5.636,1.926,6.813,4.887l-3.354,0.999
	c0,0-0.856-2.034-3.531-2.105c-0.107,0-0.179,0-0.249,0c-1.642,0-3.426,0.642-3.426,2.533c0,0.071,0,0.178,0,0.249
	c0.321,4.424,11.557,1.499,11.557,10.879C29.388,33.894,28.532,35.82,27.035,37.175z"/>
<path fill="#FFFFFF" d="M40.552,18.057v20.545h-3.782V18.057h-5.457v-3.353h14.767v3.353H40.552z"/>
<path fill="#FFFFFF" d="M63.704,38.602l-2.356-6.705h-7.455l-2.354,6.705h-4.031l8.241-23.898h3.744l8.241,23.898H63.704z
	 M57.675,21.339l-2.461,6.705h4.78L57.675,21.339z"/>
<path fill="#FFFFFF" d="M78.468,18.057v20.545h-3.782V18.057h-5.457v-3.353h14.767v3.353H78.468z"/>
<path fill="#FFFFFF" d="M87.529,38.602V14.704h14.089v3.781h-10.31v5.85h6.957v3.853h-6.957v6.563h11.06v3.853H87.529z"/>
<path fill="#FFFFFF" d="M123.945,38.602V14.704h3.777V35.07h11.061v3.532H123.945z"/>
<path fill="#FFFFFF" d="M156.404,38.602l-2.357-6.705h-7.455l-2.354,6.705h-4.031l8.24-23.898h3.748l8.24,23.898H156.404z
	 M150.373,21.339l-2.457,6.705h4.777L150.373,21.339z"/>
<path fill="#FFFFFF" d="M179.623,38.602h-3.354l-3.781-15.337l-3.674,15.337h-3.354l-3.527-23.898h3.852l1.855,12.591l3.031-12.591
	h3.672l3.105,12.591l1.855-12.591h3.852L179.623,38.602z"/>
<path fill="#221E1F" d="M24.972,102.841c-5.712,0-9.101-4.792-9.101-10.117h4.55c0,2.71,1.355,5.567,4.55,5.567
	c2.517,0,4.55-2.275,4.55-4.889c0-1.84-0.678-3.195-2.614-4.696c-0.678-0.678,1.162,0.581-5.47-3.873
	c-2.614-1.791-3.969-4.308-3.969-7.164c0-4.647,3.63-8.423,8.278-8.423c4.599,0,8.084,3.534,8.229,8.423h-4.453
	c-0.097-2.275-1.694-3.728-3.776-3.728c-2.13,0-3.824,1.597-3.824,3.728c0,1.597,0.678,2.517,3.05,3.873
	c6.244,3.63,9.003,7.164,9.003,11.86C33.976,98.629,29.958,102.841,24.972,102.841z"/>
<path fill="#221E1F" d="M47.771,74.135v28.125h-4.695V74.135H37.17v-4.308h16.507v4.308H47.771z"/>
<path fill="#221E1F" d="M74.977,97.274c-1.598,3.824-3.97,5.567-7.6,5.567c-3.873,0-6.148-1.743-7.745-5.567
	c-1.355-3.195-1.84-6.293-1.84-11.279c0-4.889,0.484-8.181,1.84-11.279c1.694-3.873,3.969-5.47,7.745-5.47
	c3.728,0,6.002,1.598,7.6,5.567c1.355,3.195,1.839,6.293,1.839,11.182C76.816,90.981,76.333,94.176,74.977,97.274z M71.346,77.911
	c-0.823-2.856-2.033-4.115-3.969-4.115c-2.082,0-3.34,1.259-4.115,4.018c-0.774,2.469-1.017,4.647-1.017,8.278
	c0,3.534,0.339,5.567,1.017,8.181c0.774,2.759,2.033,4.018,4.115,4.018c1.936,0,3.146-1.259,3.969-4.018
	c0.774-2.614,1.017-4.55,1.017-8.278C72.363,82.364,72.024,80.283,71.346,77.911z"/>
<path fill="#221E1F" d="M93.227,88.028h-5.035v14.232h-4.647V69.827h9.682c5.083,0,8.52,3.63,8.52,9.101
	C101.747,84.833,98.697,88.028,93.227,88.028z M92.984,74.377h-4.792v9.197h4.792c2.711,0,4.211-1.694,4.211-4.647
	C97.196,76.216,95.501,74.377,92.984,74.377z"/>
<path fill="#221E1F" d="M120.382,74.377v8.181h6.486v4.453h-6.486v15.249h-4.646V69.827h16.507v4.55H120.382z"/>
<path fill="#221E1F" d="M153.639,97.274c-1.598,3.824-3.97,5.567-7.601,5.567c-3.872,0-6.147-1.743-7.745-5.567
	c-1.355-3.195-1.839-6.293-1.839-11.279c0-4.889,0.483-8.181,1.839-11.279c1.694-3.873,3.97-5.47,7.745-5.47
	c3.728,0,6.003,1.598,7.601,5.567c1.355,3.195,1.839,6.293,1.839,11.182C155.478,90.981,154.995,94.176,153.639,97.274z
	 M150.008,77.911c-0.823-2.856-2.033-4.115-3.97-4.115c-2.081,0-3.34,1.259-4.114,4.018c-0.774,2.469-1.017,4.647-1.017,8.278
	c0,3.534,0.339,5.567,1.017,8.181c0.774,2.759,2.033,4.018,4.114,4.018c1.937,0,3.146-1.259,3.97-4.018
	c0.774-2.614,1.017-4.55,1.017-8.278C151.025,82.364,150.686,80.283,150.008,77.911z"/>
<path fill="#221E1F" d="M175.616,102.26l-4.308-15.249h-4.454v15.249h-4.646V69.827h9.681c5.083,0,8.521,3.437,8.521,8.665
	c0,3.873-1.598,6.68-4.647,7.842l4.647,15.926H175.616z M171.647,74.377h-4.793v8.181h4.793c2.71,0,4.211-1.453,4.211-4.066
	C175.858,75.975,174.164,74.377,171.647,74.377z"/>
<path fill="#221E1F" d="M30.068,155.527c-5.712,0-9.101-4.793-9.101-10.117h4.55c0,2.711,1.355,5.566,4.55,5.566
	c2.517,0,4.55-2.274,4.55-4.889c0-1.839-0.678-3.195-2.614-4.695c-0.678-0.678,1.162,0.581-5.47-3.873
	c-2.614-1.791-3.969-4.308-3.969-7.164c0-4.647,3.63-8.423,8.278-8.423c4.599,0,8.084,3.534,8.229,8.423h-4.453
	c-0.097-2.275-1.694-3.728-3.776-3.728c-2.13,0-3.824,1.597-3.824,3.728c0,1.597,0.678,2.517,3.05,3.873
	c6.244,3.63,9.003,7.164,9.003,11.859C39.072,151.315,35.054,155.527,30.068,155.527z"/>
<path fill="#221E1F" d="M52.868,126.822v28.125h-4.695v-28.125h-5.906v-4.308h16.507v4.308H52.868z"/>
<path fill="#221E1F" d="M80.073,149.96c-1.598,3.824-3.97,5.567-7.6,5.567c-3.873,0-6.148-1.743-7.745-5.567
	c-1.355-3.194-1.84-6.292-1.84-11.278c0-4.889,0.484-8.181,1.84-11.279c1.694-3.873,3.969-5.47,7.745-5.47
	c3.728,0,6.002,1.598,7.6,5.567c1.355,3.195,1.839,6.293,1.839,11.182C81.913,143.668,81.429,146.862,80.073,149.96z
	 M76.442,130.598c-0.823-2.856-2.033-4.115-3.969-4.115c-2.082,0-3.34,1.259-4.115,4.018c-0.774,2.469-1.017,4.647-1.017,8.278
	c0,3.534,0.339,5.567,1.017,8.18c0.774,2.76,2.033,4.018,4.115,4.018c1.936,0,3.146-1.258,3.969-4.018
	c0.774-2.613,1.017-4.55,1.017-8.277C77.459,135.051,77.12,132.97,76.442,130.598z"/>
<path fill="#221E1F" d="M98.323,140.715h-5.035v14.231h-4.647v-32.433h9.682c5.082,0,8.52,3.63,8.52,9.101
	C106.842,137.52,103.792,140.715,98.323,140.715z M98.081,127.064h-4.792v9.197h4.792c2.71,0,4.211-1.694,4.211-4.647
	C102.292,128.903,100.597,127.064,98.081,127.064z"/>
<path fill="#221E1F" d="M121.218,140.715h-5.034v14.231h-4.646v-32.433h9.681c5.083,0,8.521,3.63,8.521,9.101
	C129.739,137.52,126.689,140.715,121.218,140.715z M120.977,127.064h-4.793v9.197h4.793c2.71,0,4.211-1.694,4.211-4.647
	C125.188,128.903,123.494,127.064,120.977,127.064z"/>
<path fill="#221E1F" d="M134.434,154.946v-32.433h15.248v4.55h-10.602v8.181h6.729v4.453h-6.729v10.697h11.86v4.551H134.434z"/>
<path fill="#221E1F" d="M170.207,153.445c-1.162,1.065-2.759,1.501-4.551,1.501h-9.003v-32.433h8.277
	c2.759,0,4.114,0.339,5.276,1.259c1.937,1.355,3.292,3.873,3.873,7.164c0.436,2.372,0.774,5.228,0.774,7.745
	C174.854,146.185,173.353,150.977,170.207,153.445z M169.383,130.356c-0.774-2.275-2.13-3.292-4.211-3.292h-3.873v23.332h3.873
	c2.759,0,4.211-2.178,4.695-4.646c0.193-2.081,0.436-4.356,0.436-6.825C170.303,135.245,169.964,131.711,169.383,130.356z"/>
<path fill="#221E1F" d="M39.007,207.271c-5.712,0-9.101-4.793-9.101-10.117h4.55c0,2.711,1.355,5.566,4.55,5.566
	c2.517,0,4.55-2.274,4.55-4.889c0-1.84-0.678-3.195-2.614-4.695c-0.678-0.678,1.162,0.58-5.47-3.873
	c-2.614-1.791-3.969-4.309-3.969-7.164c0-4.647,3.63-8.423,8.278-8.423c4.599,0,8.084,3.533,8.229,8.423h-4.453
	c-0.097-2.275-1.694-3.728-3.776-3.728c-2.13,0-3.824,1.598-3.824,3.728c0,1.598,0.678,2.517,3.05,3.872
	c6.244,3.631,9.003,7.165,9.003,11.86C48.01,203.06,43.993,207.271,39.007,207.271z"/>
<path fill="#221E1F" d="M66.357,182.922c-0.484-3.194-1.743-4.695-3.873-4.695c-3.776,0-5.131,2.953-5.131,11.376
	c0,9.343,1.598,13.118,5.567,13.118c2.711,0,3.437-2.274,3.437-4.695h4.647c-0.097,5.373-3.534,9.246-8.084,9.246
	c-6.922,0-10.021-5.567-10.021-17.523c0-10.505,3.292-16.071,9.682-16.071c2.614,0,4.889,1.161,6.39,3.291
	c1.21,1.598,1.694,3.002,2.033,5.954H66.357z"/>
<path fill="#221E1F" d="M91.044,206.69v-14.668h-8.907v14.668H77.49v-32.433h4.647v13.215h8.907v-13.215h4.647v32.433H91.044z"/>
<path fill="#221E1F" d="M119.362,201.704c-1.598,3.824-3.97,5.567-7.601,5.567c-3.872,0-6.147-1.743-7.745-5.567
	c-1.355-3.194-1.839-6.293-1.839-11.278c0-4.89,0.483-8.182,1.839-11.279c1.694-3.873,3.97-5.47,7.745-5.47
	c3.728,0,6.003,1.597,7.601,5.566c1.355,3.195,1.839,6.293,1.839,11.183C121.201,195.411,120.717,198.606,119.362,201.704z
	 M115.731,182.342c-0.823-2.856-2.033-4.115-3.97-4.115c-2.081,0-3.34,1.259-4.114,4.018c-0.774,2.47-1.017,4.647-1.017,8.278
	c0,3.533,0.339,5.566,1.017,8.181c0.774,2.76,2.033,4.018,4.114,4.018c1.937,0,3.146-1.258,3.97-4.018
	c0.774-2.614,1.017-4.55,1.017-8.277C116.748,186.795,116.409,184.714,115.731,182.342z"/>
<path fill="#221E1F" d="M144.292,201.704c-1.598,3.824-3.97,5.567-7.601,5.567c-3.872,0-6.147-1.743-7.745-5.567
	c-1.355-3.194-1.839-6.293-1.839-11.278c0-4.89,0.483-8.182,1.839-11.279c1.694-3.873,3.97-5.47,7.745-5.47
	c3.728,0,6.003,1.597,7.601,5.566c1.355,3.195,1.839,6.293,1.839,11.183C146.13,195.411,145.647,198.606,144.292,201.704z
	 M140.661,182.342c-0.823-2.856-2.033-4.115-3.97-4.115c-2.081,0-3.34,1.259-4.114,4.018c-0.774,2.47-1.017,4.647-1.017,8.278
	c0,3.533,0.339,5.566,1.017,8.181c0.774,2.76,2.033,4.018,4.114,4.018c1.937,0,3.146-1.258,3.97-4.018
	c0.774-2.614,1.017-4.55,1.017-8.277C141.677,186.795,141.338,184.714,140.661,182.342z"/>
<path fill="#221E1F" d="M152.619,206.69v-32.433h4.646v28.124h11.86v4.309H152.619z"/>
<path fill="#221E1F" d="M77.379,259.231h-9.536v-32.433h10.214c4.357,0,7.407,3.437,7.407,8.423c0,2.952-0.775,4.308-3.389,7.067
	c2.469,2.033,3.969,4.744,3.969,8.084C86.044,255.262,82.172,259.231,77.379,259.231z M77.379,231.349H72.49v8.665h4.889
	c2.179,0,3.534-1.84,3.534-4.792C80.914,232.511,79.897,231.349,77.379,231.349z M77.186,244.563H72.49v10.117h4.696
	c2.614,0,4.308-1.839,4.308-4.646C81.494,246.936,79.558,244.563,77.186,244.563z"/>
<path fill="#221E1F" d="M108.458,255.262c-1.598,2.614-4.647,4.551-7.745,4.551c-3.195,0-6.342-1.84-7.939-4.551
	c-0.92-1.742-1.259-3.098-1.259-5.712v-22.751h4.647v23.332c0,3.05,1.84,5.131,4.551,5.131c2.517,0,4.356-2.081,4.356-5.131v-23.332
	h4.647v22.751C109.716,252.164,109.377,253.52,108.458,255.262z"/>
<path fill="#221E1F" d="M124.287,259.813c-5.712,0-9.101-4.793-9.101-10.117h4.55c0,2.711,1.355,5.566,4.551,5.566
	c2.517,0,4.55-2.274,4.55-4.889c0-1.84-0.678-3.195-2.613-4.695c-0.678-0.678,1.161,0.58-5.471-3.873
	c-2.614-1.791-3.969-4.309-3.969-7.164c0-4.647,3.63-8.423,8.277-8.423c4.599,0,8.084,3.533,8.229,8.423h-4.454
	c-0.097-2.275-1.694-3.728-3.775-3.728c-2.13,0-3.824,1.598-3.824,3.728c0,1.598,0.678,2.517,3.05,3.872
	c6.244,3.631,9.004,7.165,9.004,11.86C133.291,255.601,129.272,259.813,124.287,259.813z"/>
</svg>
