<?xml version="1.0" encoding="UTF-8" standalone="no"?>
<svg
   xmlns:dc="http://purl.org/dc/elements/1.1/"
   xmlns:cc="http://creativecommons.org/ns#"
   xmlns:rdf="http://www.w3.org/1999/02/22-rdf-syntax-ns#"
   xmlns:svg="http://www.w3.org/2000/svg"
   xmlns="http://www.w3.org/2000/svg"
   xmlns:sodipodi="http://sodipodi.sourceforge.net/DTD/sodipodi-0.dtd"
   xmlns:inkscape="http://www.inkscape.org/namespaces/inkscape"
   width="81.699997"
   height="81.700302"
   viewBox="0 0 230.57559 230.5764"
   version="1.1"
   id="svg2"
   inkscape:version="0.48.2 r9819"
   sodipodi:docname="AJAX1.svg">
  <metadata
     id="metadata62">
    <rdf:RDF>
      <cc:Work
         rdf:about="">
        <dc:format>image/svg+xml</dc:format>
        <dc:type
           rdf:resource="http://purl.org/dc/dcmitype/StillImage" />
        <dc:title />
      </cc:Work>
    </rdf:RDF>
  </metadata>
  <defs
     id="defs60" />
  <sodipodi:namedview
     pagecolor="#ffffff"
     bordercolor="#666666"
     borderopacity="1"
     objecttolerance="10"
     gridtolerance="10"
     guidetolerance="10"
     inkscape:pageopacity="0"
     inkscape:pageshadow="2"
     inkscape:window-width="1280"
     inkscape:window-height="1004"
     id="namedview58"
     showgrid="false"
     fit-margin-top="0"
     fit-margin-left="0"
     fit-margin-right="0"
     fit-margin-bottom="0"
     inkscape:zoom="5.6568543"
     inkscape:cx="73.501951"
     inkscape:cy="44.827452"
     inkscape:window-x="-8"
     inkscape:window-y="-8"
     inkscape:window-maximized="1"
     inkscape:current-layer="svg2" />
  <!-- draw the bicycle -->
  <!-- RIGHT -->
  <!-- LANE -->
  <!-- ONLY -->
  <path
     inkscape:connector-curvature="0"
     d="M 3.286125,107.32029 107.32383,3.2860994 c 4.37797,-4.3815 11.54996,-4.3815 15.93145,0 L 227.28946,107.32029 c 4.3815,4.3815 4.3815,11.5534 0,15.93491 L 123.25528,227.293 c -4.3815,4.3779 -11.55348,4.3779 -15.93145,0 L 3.286125,123.25519 c -4.3815,-4.3815 -4.3815,-11.5534 0,-15.9349"
     style="fill:#ffd033;fill-opacity:1;fill-rule:nonzero;stroke:none"
     id="path3320" />
  <path
     inkscape:connector-curvature="0"
     d="M 6.311175,108.29529 108.28866,6.3107994 c 3.85234,-3.8488 10.14589,-3.8488 13.9947,0 L 224.26085,108.29529 c 3.85233,3.8453 3.85233,10.14241 0,13.9842 l -101.97749,101.988 c -3.84881,3.8453 -10.14236,3.8453 -13.9947,0 L 6.311175,122.27949 c -3.84527,-3.8418 -3.84527,-10.1389 0,-13.9842"
     style="fill:#000000;fill-opacity:1;fill-rule:evenodd;stroke:none"
     id="path3336" />
  <path
     inkscape:connector-curvature="0"
     d="M 9.990285,110.6124 110.6131,9.9895994 c 2.56822,-2.5718 6.77686,-2.5718 9.34861,0 L 220.58101,110.6124 c 2.57175,2.5717 2.57175,6.77689 0,9.34859 l -100.6193,100.6264 c -2.57175,2.5717 -6.78039,2.5717 -9.34861,0 L 9.990285,119.96099 c -2.57175,-2.5717 -2.57175,-6.77689 0,-9.34859"
     style="fill:#ffd033;fill-opacity:1;fill-rule:evenodd;stroke:none"
     id="path3340" />
  <path
     inkscape:connector-curvature="0"
     d="m 114.94521,121.6349 c 1.27,-2.07431 1.49931,-4.7272 0.34573,-7.0343 -0.69144,-1.4993 -2.07434,-2.6494 -3.57364,-3.228 l 35.04847,-18.097501 c -0.34572,1.4993 -0.2293,3.2279 0.57503,4.7237 1.27,2.307201 3.57718,3.690101 5.9937,3.806501 l -38.38929,19.8296 z M 74.823795,142.156 c 1.38642,-1.96141 1.61573,-4.6108 0.46214,-6.9179 0,-0.1165 -0.11289,-0.2293 -0.2293,-0.3458 l 19.3675,-10.0294 -1.8415,-3.6901 9.913045,-5.0729 c -0.34572,1.6157 -0.23283,3.2279 0.57503,4.8436 1.15358,2.3036 3.57364,3.5701 5.9937,3.6901 L 74.823795,142.156 z m -18.90536,2.5365 6.91797,-3.5772 c 0.11289,0.11999 0.11289,0.2329 0.22931,0.34929 1.15358,2.30361 3.46075,3.6865 5.87728,3.80291 l -15.79034,8.0716 124.855125,0.3457 -1.26647,-63.986801 -17.52601,8.9923 c 1.38289,-1.9579 1.61573,-4.6108 0.46214,-6.9145 -0.80786,-1.6157 -2.07433,-2.6529 -3.57364,-3.2279 l 8.07156,-4.2686 -17.06386,-33.087 -69.518395,35.8563 15.44814,29.972001 -2.07433,1.0407 -9.22514,-17.9846 -15.21531,7.8387 0,13.8324 -15.68098,8.0716 -1.15358,2.9986 6.22653,11.8745 z"
     style="fill:#000000;fill-opacity:1;fill-rule:evenodd;stroke:none"
     id="path3344" />
</svg>
