<?xml version="1.0" encoding="UTF-8" standalone="no"?>
<!-- Generator: Adobe Illustrator 12.0.1, SVG Export Plug-In  -->

<svg
   xmlns:dc="http://purl.org/dc/elements/1.1/"
   xmlns:cc="http://creativecommons.org/ns#"
   xmlns:rdf="http://www.w3.org/1999/02/22-rdf-syntax-ns#"
   xmlns:svg="http://www.w3.org/2000/svg"
   xmlns="http://www.w3.org/2000/svg"
   xmlns:sodipodi="http://sodipodi.sourceforge.net/DTD/sodipodi-0.dtd"
   xmlns:inkscape="http://www.inkscape.org/namespaces/inkscape"
   version="1.1"
   width="286.66199"
   height="286.66324"
   viewBox="-1 0 286.66199 286.66324"
   enable-background="new -1 0 289 288"
   xml:space="preserve"
   id="svg2"
   inkscape:version="0.48.2 r9819"
   sodipodi:docname="AJAX1.svg"><metadata
   id="metadata30"><rdf:RDF><cc:Work
       rdf:about=""><dc:format>image/svg+xml</dc:format><dc:type
         rdf:resource="http://purl.org/dc/dcmitype/StillImage" /></cc:Work></rdf:RDF></metadata><sodipodi:namedview
   pagecolor="#ffffff"
   bordercolor="#666666"
   borderopacity="1"
   objecttolerance="10"
   gridtolerance="10"
   guidetolerance="10"
   inkscape:pageopacity="0"
   inkscape:pageshadow="2"
   inkscape:window-width="1280"
   inkscape:window-height="1004"
   id="namedview28"
   showgrid="false"
   fit-margin-top="0"
   fit-margin-left="0"
   fit-margin-right="0"
   fit-margin-bottom="0"
   inkscape:zoom="2.3177389"
   inkscape:cx="99.879097"
   inkscape:cy="135.66475"
   inkscape:window-x="-8"
   inkscape:window-y="-8"
   inkscape:window-maximized="1"
   inkscape:current-layer="svg2" />
<defs
   id="defs4">
</defs>
<path
   d="M 3.09875,133.38675 132.37975,4.1047494 c 5.471,-5.473 14.421,-5.473 19.896,0 l 129.283,129.2820006 c 5.471,5.47 5.471,14.423 0,19.89 l -129.284,129.284 c -5.475,5.47 -14.425,5.47 -19.896,0 l -129.28,-129.285 c -5.465,-5.466 -5.465,-14.419 0,-19.889 z"
   id="path6"
   style="fill:#ffd033;stroke:none;fill-opacity:1"
   inkscape:connector-curvature="0" />

<path
   clip-rule="evenodd"
   d="M 6.22175,135.43975 134.43975,7.2207494 c 4.339,-4.339 11.442,-4.339 15.785,0 l 128.215,128.2190006 c 4.343,4.343 4.343,11.438 0,15.777 l -128.215,128.225 c -4.343,4.335 -11.446,4.335 -15.785,0 l -128.218,-128.225 c -4.338,-4.339 -4.338,-11.434 0,-15.777"
   id="path10"
   inkscape:connector-curvature="0"
   style="fill-rule:evenodd;stroke:none;fill:#000000" />
<path
   clip-rule="evenodd"
   d="m 10.22475,139.38975 128.161,-128.160001 c 2.162,-2.1699996 5.724,-2.1699996 7.889,0 l 128.16,128.160001 c 2.165,2.166 2.165,5.716 0,7.883 l -128.16,128.161 c -2.165,2.167 -5.727,2.167 -7.889,0 l -128.161,-128.161 c -2.166,-2.167 -2.166,-5.717 0,-7.883"
   id="path12"
   inkscape:connector-curvature="0"
   style="fill:#ffd033;fill-rule:evenodd;stroke:none;fill-opacity:1" />
<path
   d="m 67.91675,188.38075 c -6.262,0 -9.92,-2.356 -12.4,-7.564 -1.736,-3.658 -2.728,-8.805 -2.728,-13.889 0,-6.695 1.86,-13.268 4.65,-16.926 2.48,-3.038 5.952,-4.65 10.664,-4.65 6.386,0 10.168,2.666 12.958,9.177 l -6.262,2.479 c -1.736,-3.596 -3.534,-4.96 -6.696,-4.96 -3.348,0 -5.58,1.488 -7.006,5.146 -1.054,2.479 -1.612,6.262 -1.612,9.733 0,4.402 0.744,8.742 2.046,11.408 1.302,2.295 3.224,3.348 5.704,3.348 4.216,0 7.254,-2.666 7.254,-6.447 v -1.736 h -7.564 v -6.572 h 14.136 v 8.309 c 0,7.564 -5.518,13.144 -13.144,13.144 z"
   id="path14"
   inkscape:connector-curvature="0"
   style="stroke:none;fill:#000000" />
<path
   d="m 111.25475,187.63675 -6.696,-18.104 h -7.874 v 18.104 h -6.572 v -41.541 h 13.702 c 3.224,0 5.394,0.311 7.44,1.303 3.658,1.736 6.262,6.138 6.262,10.354 0,4.402 -2.604,8.742 -6.448,10.479 l 7.316,19.406 h -7.13 z m -2.914,-34.225 c -1.116,-0.62 -1.612,-0.744 -3.782,-0.744 h -7.874 v 10.168 h 7.874 c 2.046,0 2.728,-0.124 3.782,-0.682 1.612,-0.93 2.604,-2.666 2.604,-4.402 0,-1.736 -0.992,-3.472 -2.604,-4.34 z"
   id="path16"
   inkscape:connector-curvature="0"
   style="stroke:none;fill:#000000" />
<path
   d="m 153.28975,187.63675 -4.092,-11.656 h -12.958 l -4.092,11.656 h -7.006 l 14.322,-41.541 h 6.511 l 14.322,41.541 h -7.007 z m -10.477,-30.009 -4.278,11.656 h 8.308 l -4.03,-11.656 z"
   id="path18"
   inkscape:connector-curvature="0"
   style="stroke:none;fill:#000000" />
<path
   d="m 189.06475,185.27975 c -1.551,1.487 -3.783,2.231 -5.953,2.356 -0.434,0 -1.301,0 -2.355,0 h -12.648 v -41.54 h 13.393 c 4.217,0 5.828,0.435 8.061,2.17 4.34,3.782 6.82,10.354 6.82,18.539 -10e-4,8.307 -2.607,14.879 -7.318,18.475 z m -2.728,-30.876 c -1.055,-0.992 -2.48,-1.736 -4.217,-1.736 h -7.439 v 28.272 h 6.572 c 2.17,0 3.473,-0.435 4.65,-1.612 2.48,-2.48 3.781,-7.006 3.781,-12.523 0,-5.58 -1.3,-10.231 -3.347,-12.401 z"
   id="path20"
   inkscape:connector-curvature="0"
   style="stroke:none;fill:#000000" />
<path
   d="m 206.98275,187.63675 v -41.541 h 24.49 v 6.572 h -17.918 v 10.168 h 12.09 v 6.696 h -12.09 v 11.408 h 19.219 v 6.696 h -25.791 z"
   id="path22"
   inkscape:connector-curvature="0"
   style="stroke:none;fill:#000000" />
<path
   d="m 113.94775,113.03175 c -8.541,0 -15.96,-7.28 -15.96,-15.820001 0,-4.41 1.96,-8.05 5.39,-10.85 -2.31,-2.45 -3.43,-5.25 -3.43,-8.54 0,-7.28 6.44,-13.37 14,-13.37 7.56,0 14.14,6.09 14.14,13.37 0,3.29 -1.33,6.09 -3.64,8.54 3.64,2.8 5.46,6.58 5.46,10.85 0,8.541001 -7.42,15.820001 -15.96,15.820001 z m 0,-22.749001 c -4.62,0 -8.4,3.15 -8.4,7.07 0,4.480001 3.78,8.120001 8.4,8.120001 4.76,0 8.54,-3.64 8.54,-8.120001 0,-3.92 -3.92,-7.07 -8.54,-7.07 z m 0,-18.27 c -3.64,0 -6.58,2.52 -6.58,5.6 0,2.8 2.94,5.11 6.58,5.11 3.64,0 6.58,-2.31 6.58,-5.11 0,-3.08 -2.94,-5.6 -6.58,-5.6 z"
   id="path24"
   inkscape:connector-curvature="0"
   style="stroke:none;fill:#000000" />
<path
   d="m 163.92775,76.702749 c 0,3.15 -0.7,5.88 -2.03,8.19 -1.539,2.59 -3.64,3.85 -6.369,3.85 -2.73,0 -4.83,-1.26 -6.371,-3.78 -1.33,-2.31 -2.029,-5.11 -2.029,-8.26 0,-3.15 0.699,-5.81 2.029,-8.12 1.541,-2.59 3.641,-3.85 6.371,-3.85 2.729,0 4.83,1.26 6.369,3.78 1.329,2.31 2.03,5.04 2.03,8.19 z m 18.97,-11.971 -27.721,48.020001 h -5.11 l 27.581,-48.020001 h 5.25 z m -23.801,11.971 c 0,-2.03 -0.21,-3.57 -0.56,-4.69 -0.631,-1.61 -1.61,-2.38 -3.01,-2.38 -2.73,0 -3.57,3.08 -3.57,7.07 0,2.03 0.209,3.57 0.56,4.69 0.63,1.61 1.681,2.45 3.011,2.45 1.33,0 2.31,-0.77 2.939,-2.38 0.421,-1.19 0.63,-2.731 0.63,-4.76 z m 26.671,24.079001 c 0,3.15 -0.7,5.81 -2.03,8.12 -1.54,2.59 -3.64,3.85 -6.37,3.85 -2.73,0 -4.83,-1.26 -6.37,-3.78 -1.33,-2.31 -2.03,-5.04 -2.03,-8.19 0,-3.150001 0.7,-5.880001 2.03,-8.190001 1.54,-2.59 3.64,-3.85 6.37,-3.85 2.73,0 4.83,1.26 6.37,3.78 1.33,2.311 2.03,5.11 2.03,8.260001 z m -4.83,0 c 0,-2.030001 -0.211,-3.570001 -0.561,-4.690001 -0.63,-1.61 -1.68,-2.45 -3.01,-2.45 -2.73,0 -3.57,3.15 -3.57,7.140001 0,2.03 0.211,3.57 0.561,4.69 0.63,1.61 1.609,2.38 3.01,2.38 1.33,0 2.311,-0.77 2.939,-2.31 0.42,-1.189 0.631,-2.729 0.631,-4.76 z"
   id="path26"
   inkscape:connector-curvature="0"
   style="stroke:none;fill:#000000" />
</svg>