<?xml version="1.0" encoding="utf-8"?>
<!-- Generator: Adobe Illustrator 12.0.1, SVG Export Plug-In  -->
<!DOCTYPE svg PUBLIC "-//W3C//DTD SVG 1.1//EN" "http://www.w3.org/Graphics/SVG/1.1/DTD/svg11.dtd" [
	<!ENTITY ns_flows "http://ns.adobe.com/Flows/1.0/">
	<!ENTITY ns_svg "http://www.w3.org/2000/svg">
	<!ENTITY ns_xlink "http://www.w3.org/1999/xlink">
]>
<svg  version="1.1" xmlns="&ns_svg;" xmlns:xlink="&ns_xlink;" xmlns:a="http://ns.adobe.com/AdobeSVGViewerExtensions/3.0/"
	 width="232" height="288" viewBox="-0.633 0 232 288" enable-background="new -0.633 0 232 288" xml:space="preserve">
<defs>
</defs>
<path fill="#FFFFFF" d="M15.146,0.828h200.441c7.886,0,14.318,6.436,14.318,14.318v257.71c0,7.886-6.433,14.315-14.318,14.315
	H15.146c-7.885,0-14.318-6.43-14.318-14.315V15.146C0.829,7.36,7.361,0.828,15.146,0.828"/>
<path d="M15.146,0v1.657h200.441c7.438,0,13.489,6.051,13.489,13.49v257.71c0,7.436-6.051,13.487-13.489,13.487H15.146
	c-7.439,0-13.49-6.052-13.49-13.487V15.146c0-7.313,6.177-13.49,13.49-13.49V0C6.938,0,0,6.936,0,15.146v257.71
	C0,281.205,6.795,288,15.146,288h200.441c8.352,0,15.146-6.795,15.146-15.144V15.146C230.734,6.795,223.939,0,215.588,0H15.146z"/>
<path fill-rule="evenodd" clip-rule="evenodd" d="M15.189,4.41h200.357c5.896,0.008,10.755,4.891,10.778,10.787v257.615
	c-0.023,5.902-4.883,10.762-10.778,10.781H15.189c-5.889-0.02-10.769-4.879-10.782-10.781V15.197C4.414,9.301,9.3,4.418,15.189,4.41
	"/>
<path fill-rule="evenodd" clip-rule="evenodd" fill="#FFFFFF" d="M15.267,10.375h200.195c2.691-0.041,4.94,2.2,4.898,4.894v257.468
	c0.042,2.686-2.207,4.935-4.898,4.889H15.267c-2.689,0.046-4.932-2.203-4.889-4.889V15.27
	C10.335,12.572,12.578,10.335,15.267,10.375"/>
<path fill-rule="evenodd" clip-rule="evenodd" d="M69.498,63.437c0-18.745-22.424-12.886-23.09-21.757
	c-0.336-4.351,3.844-5.688,7.361-5.521c5.355,0.167,7.028,4.183,7.028,4.183l6.691-2.008c-2.342-5.858-6.856-9.706-13.551-9.706
	c-8.539,0-14.894,3.516-14.894,12.887c0,7.866,6.355,10.708,9.203,11.881C54.438,55.904,61.8,56.909,61.8,63.27
	c0,4.016-3.013,7.031-7.361,7.031c-4.521,0-8.2-2.511-10.206-7.031l-7.196,2.678c3.181,7.196,9.202,12.077,17.402,12.077
	c4.015,0,7.698-1.365,10.374-3.711C67.825,71.636,69.498,67.791,69.498,63.437 M105.34,36.159v-6.696H75.891v6.696h10.875v41h7.529
	v-41H105.34z M147.877,53.396c0-6.023-1.168-12.046-3.178-16.232c-3.013-5.858-7.199-8.536-13.218-8.536
	c-5.527,0-9.371,1.675-12.219,5.355c-3.18,4.519-5.183,11.547-5.183,19.413c0,5.688,1.333,12.052,3.342,16.067
	c2.848,5.858,7.031,8.562,13.723,8.562c5.019,0,8.869-1.704,11.545-5.381C146.035,68.458,147.877,60.927,147.877,53.396
	 M140.347,53.396c0,3.683-0.838,8.366-1.841,10.879c-1.673,4.184-3.851,6.026-7.361,6.026c-3.013,0-5.021-1.173-6.523-3.684
	c-1.844-3.012-2.847-8.201-2.847-13.221c0-4.016,0.666-8.366,1.838-11.212c1.673-4.185,4.015-6.025,7.7-5.858
	c2.842,0.165,4.686,1.173,6.188,3.681C139.344,43.188,140.347,48.041,140.347,53.396 M193.42,42.853
	c0-4.854-3.178-9.874-7.358-11.882c-2.343-1.173-4.854-1.508-8.704-1.508h-16.393v47.696h7.526v-20.75h8.866
	c3.686,0,6.529-0.67,8.704-1.673C190.242,52.893,193.42,47.873,193.42,42.853 M185.731,42.853c0,2.008-1.178,4.186-2.848,5.02
	c-1.339,0.673-2.174,0.835-4.517,0.835h-9.876V36.994h9.876c2.343,0,3.178,0.17,4.517,0.84
	C184.554,38.837,185.731,40.845,185.731,42.853"/>
<path fill-rule="evenodd" clip-rule="evenodd" fill="#BF2F37" d="M121.172,258.51l-8.367-22.262
	c4.349-2.003,7.364-7.028,7.364-12.047c0-4.854-3.016-9.872-7.196-11.882c-2.343-1.165-4.854-1.505-8.533-1.505H88.708v47.695h7.529
	v-20.748h9.038l7.698,20.748H121.172z M112.633,224.201c0,2.016-1.165,4.021-3.006,5.019c-1.174,0.673-2.013,0.841-4.352,0.841
	h-9.038v-11.713h9.038c2.508,0,3.178,0.168,4.352,0.841C111.468,220.186,112.633,222.194,112.633,224.201 M158.655,258.51v-7.695
	h-22.091v-13.053h13.891v-7.701h-13.891v-11.713h20.583v-7.533h-28.112v47.695H158.655z M198.979,234.578
	c0-9.371-2.848-16.9-7.862-21.253c-2.508-2.006-4.35-2.511-9.203-2.511h-15.396v47.695h14.561h2.673
	c2.515-0.169,5.019-1.003,6.866-2.68C195.963,251.649,198.979,244.117,198.979,234.578 M191.281,234.578
	c0,6.361-1.505,11.545-4.353,14.393c-1.336,1.346-2.844,1.844-5.349,1.844h-7.529v-32.467h8.526c2.009,0,3.688,0.841,4.856,2.006
	C189.776,222.864,191.281,228.223,191.281,234.578"/>
<path fill-rule="evenodd" clip-rule="evenodd" d="M88.365,120.125V91.503h-4.517v11.552H73.406V91.503h-4.517v28.622h4.517v-12.453
	h10.441v12.453H88.365z M113.675,120.125v-4.619h-13.253v-7.833h8.335v-4.617h-8.335v-7.031h12.351v-4.521H95.904v28.622H113.675z
	 M138.681,120.125l-5.016-13.357c2.611-1.202,4.42-4.218,4.42-7.23c0-2.912-1.809-5.923-4.319-7.13
	c-1.404-0.702-2.912-0.904-5.119-0.904h-9.438v28.622h4.517v-12.453h5.424l4.617,12.453H138.681z M133.565,99.538
	c0,1.207-0.706,2.409-1.81,3.013c-0.698,0.401-1.2,0.505-2.607,0.505h-5.424v-7.031h5.424c1.504,0,1.909,0.099,2.607,0.503
	C132.859,97.13,133.565,98.333,133.565,99.538 M161.984,120.125v-4.619h-13.247v-7.833h8.332v-4.617h-8.332v-7.031h12.351v-4.521
	h-16.864v28.622H161.984z"/>
<path fill-rule="evenodd" clip-rule="evenodd" d="M135.688,182.224c0-3.614-0.699-7.229-1.909-9.739
	c-1.806-3.515-4.31-5.126-7.928-5.126c-3.313,0-5.623,1.01-7.328,3.217c-1.909,2.712-3.116,6.928-3.116,11.648
	c0,3.414,0.806,7.229,2.009,9.64c1.706,3.511,4.217,5.138,8.235,5.138c3.009,0,5.319-1.022,6.925-3.229
	C134.581,191.258,135.688,186.744,135.688,182.224 M131.171,182.224c0,2.207-0.505,5.022-1.107,6.53
	c-1.003,2.504-2.307,3.61-4.413,3.61c-1.806,0-3.013-0.698-3.915-2.213c-1.101-1.806-1.709-4.918-1.709-7.928
	c0-2.407,0.404-5.019,1.104-6.724c1.007-2.515,2.411-3.621,4.624-3.521c1.702,0.106,2.809,0.702,3.715,2.21
	C130.568,176.099,131.171,179.014,131.171,182.224 M162.317,196.48v-28.617h-4.517v18.275l-10.441-18.275h-4.515v28.617h4.515
	v-19.382l10.939,19.382H162.317z"/>
<path fill-rule="evenodd" clip-rule="evenodd" d="M62.372,175.073l20.152,7.837c1.961,0.708,3.255,2.634,3.152,4.724
	c-0.123,2.466-2.132,4.439-4.588,4.504l-55.474,7.644l-0.107-0.11l9.915-55.113c0.162-2.453,2.22-4.381,4.688-4.4
	c2.097-0.02,3.96,1.351,4.595,3.342l6.769,19.685c24.922-22.249,57.153-34.402,90.446-34.399c10.043,0,21.142,1.587,30.567,3.781
	l-0.501,30.101c-12.995-5.177-28.714-8.413-43.055-8.413C105.34,154.254,81.754,162.123,62.372,175.073"/>
</svg>
