<?xml version="1.0" encoding="UTF-8" standalone="no"?>
<!-- Generator: Adobe Illustrator 12.0.1, SVG Export Plug-In  -->

<svg
   xmlns:dc="http://purl.org/dc/elements/1.1/"
   xmlns:cc="http://creativecommons.org/ns#"
   xmlns:rdf="http://www.w3.org/1999/02/22-rdf-syntax-ns#"
   xmlns:svg="http://www.w3.org/2000/svg"
   xmlns="http://www.w3.org/2000/svg"
   xmlns:sodipodi="http://sodipodi.sourceforge.net/DTD/sodipodi-0.dtd"
   xmlns:inkscape="http://www.inkscape.org/namespaces/inkscape"
   version="1.1"
   width="236.90625"
   height="284"
   viewBox="-1 0 236.90625 283.99999"
   enable-background="new -1 0 289 288"
   xml:space="preserve"
   id="svg2"
   inkscape:version="0.48.2 r9819"
   sodipodi:docname="AJAX1.svg"><metadata
   id="metadata22"><rdf:RDF><cc:Work
       rdf:about=""><dc:format>image/svg+xml</dc:format><dc:type
         rdf:resource="http://purl.org/dc/dcmitype/StillImage" /><dc:title></dc:title></cc:Work></rdf:RDF></metadata><sodipodi:namedview
   pagecolor="#ffffff"
   bordercolor="#666666"
   borderopacity="1"
   objecttolerance="10"
   gridtolerance="10"
   guidetolerance="10"
   inkscape:pageopacity="0"
   inkscape:pageshadow="2"
   inkscape:window-width="1280"
   inkscape:window-height="1004"
   id="namedview20"
   showgrid="false"
   fit-margin-top="0"
   fit-margin-left="0"
   fit-margin-right="0"
   fit-margin-bottom="0"
   inkscape:zoom="1.638889"
   inkscape:cx="116.63862"
   inkscape:cy="239.32174"
   inkscape:window-x="-8"
   inkscape:window-y="-8"
   inkscape:window-maximized="1"
   inkscape:current-layer="svg2"
   showguides="true"
   inkscape:guide-bbox="true"><sodipodi:guide
     orientation="0,1"
     position="-1093.2075,-2947.4741"
     id="guide2987" /></sodipodi:namedview>
<defs
   id="defs4">
</defs>







<path
   inkscape:connector-curvature="0"
   d="m 235.16575,268.54561 c 0,8.09249 -6.62125,14.71375 -14.71375,14.71375 l -205.99875,0 c -8.09375,0 -14.715,-6.62124 -14.715,-14.71375 l 0,-253.083775 c 0,-8.09375 6.62125,-14.715 14.715,-14.715 l 205.99875,0 c 8.0925,0 14.71375,6.62125 14.71375,14.715 l 0,253.083775 z"
   style="fill:#ffffff;fill-opacity:1;fill-rule:nonzero;stroke:#000000;stroke-width:1.5;stroke-miterlimit:4;stroke-opacity:1;stroke-dasharray:none"
   id="path9091" /><path
   inkscape:connector-curvature="0"
   d="m 220.45149,4.670955 -205.99875,0 c -5.935,0 -10.79,4.85625 -10.79,10.79 l 0,253.085015 c 0,5.935 4.855,10.79001 10.79,10.79001 l 205.99875,0 c 5.935,0 10.79,-4.85501 10.79,-10.79001 l 0,-253.085015 c 0,-5.93375 -4.855,-10.78999 -10.79,-10.78999 m 4.905,263.875005 c 0,2.6975 -2.2075,4.90499 -4.905,4.90499 l -205.99875,0 c -2.6975,0 -4.905,-2.20749 -4.905,-4.90499 l 0,-253.085015 c 0,-2.6975 2.2075,-4.90375 4.905,-4.90375 l 205.99875,0 c 2.6975,0 4.905,2.20625 4.905,4.90375 l 0,253.085015 z"
   style="fill:#000000;fill-opacity:1;fill-rule:nonzero;stroke:none"
   id="path9099" /><path
   inkscape:connector-curvature="0"
   d="m 131.67574,181.24135 0,-91.26126 16.82375,5.05125 c 0.5275,0.1625 1.08875,0.25 1.67125,0.25 3.14125,0 5.68875,-2.5475 5.68875,-5.68875 0,-1.24625 -0.4,-2.39875 -1.07875,-3.33625 L 117.45199,32.13759 80.12449,86.25634 c -0.68,0.9375 -1.08,2.09 -1.08,3.33625 0,3.14125 2.5475,5.68875 5.68875,5.68875 0.5825,0 1.14375,-0.0875 1.6725,-0.25 l 16.8225,-5.05125 0,91.26126 28.4475,0 z"
   style="fill:#000000;fill-opacity:1;fill-rule:nonzero;stroke:none"
   id="path9103" /><path
   inkscape:connector-curvature="0"
   d="m 69.8445,247.40522 c -2.72,3.5575 -6.4175,5.30127 -11.37,5.30127 -6.6275,0 -10.6725,-2.65003 -13.5325,-8.44 -1.95375,-3.97625 -3.34875,-10.255 -3.34875,-15.83503 0,-7.8125 1.95375,-14.78872 5.1625,-19.1825 2.72,-3.69749 6.62625,-5.30125 12.0675,-5.30125 13.04375,0 16.18375,13.95124 16.18375,24.48374 0,7.39377 -1.88375,14.78875 -5.1625,18.97375 M 58.82325,211.55024 c -4.185,0 -6.13875,1.67499 -7.8125,5.78997 -1.11625,2.79001 -1.81375,7.11502 -1.81375,11.09125 0,4.95251 1.04625,10.04501 2.86,13.04501 1.465,2.44125 3.4175,3.62625 6.4175,3.62625 3.4875,0 5.65,-1.8125 7.255,-5.92878 0.97625,-2.51123 1.8125,-7.115 1.8125,-10.7425 0,-5.44125 -1.185,-16.88125 -8.71875,-16.88125"
   style="fill:#000000;fill-opacity:1;fill-rule:nonzero;stroke:none"
   id="path9107" /><path
   inkscape:connector-curvature="0"
   d="m 110.09325,251.86963 -17.9975,-31.87875 0,31.87875 -7.46375,0 0,-47.08503 7.46375,0 17.16,30.065 0,-30.065 7.395,0 0,47.08501 -6.5575,0 z"
   style="fill:#000000;fill-opacity:1;fill-rule:nonzero;stroke:none"
   id="path9111" /><path
   inkscape:connector-curvature="0"
   d="m 127.25238,251.86963 0,-47.08503 7.46375,0 0,40.17876 21.76375,0 0,6.90625 -29.2275,0 z"
   style="fill:#000000;fill-opacity:1;fill-rule:nonzero;stroke:none"
   id="path9115" /><path
   inkscape:connector-curvature="0"
   d="m 176.98788,231.36123 0,20.50872 -7.46375,0 0,-20.50873 -16.5325,-26.57751 8.92875,0 11.23125,18.1375 11.44,-18.1375 8.71875,0 -16.3225,26.57751 z"
   style="fill:#000000;fill-opacity:1;fill-rule:nonzero;stroke:none"
   id="path9119" /></svg>