<?xml version="1.0" encoding="UTF-8" standalone="no"?>
<!-- Created with Inkscape (http://www.inkscape.org/) -->

<svg
   xmlns:dc="http://purl.org/dc/elements/1.1/"
   xmlns:cc="http://creativecommons.org/ns#"
   xmlns:rdf="http://www.w3.org/1999/02/22-rdf-syntax-ns#"
   xmlns:svg="http://www.w3.org/2000/svg"
   xmlns="http://www.w3.org/2000/svg"
   xmlns:sodipodi="http://sodipodi.sourceforge.net/DTD/sodipodi-0.dtd"
   xmlns:inkscape="http://www.inkscape.org/namespaces/inkscape"
   width="49.251999in"
   height="49.251999in"
   viewBox="0 0 1251.0008 1251.0008"
   version="1.1"
   id="svg7045"
   inkscape:version="0.92.2 (5c3e80d, 2017-08-06)"
   sodipodi:docname="88.svg">
  <defs
     id="defs7039" />
  <sodipodi:namedview
     id="base"
     pagecolor="#ffffff"
     bordercolor="#666666"
     borderopacity="1.0"
     inkscape:pageopacity="0.0"
     inkscape:pageshadow="2"
     inkscape:zoom="0.14829203"
     inkscape:cx="2826.9552"
     inkscape:cy="2100.2334"
     inkscape:document-units="in"
     inkscape:current-layer="layer1"
     showgrid="false"
     units="in"
     fit-margin-top="0"
     fit-margin-left="0"
     fit-margin-right="0"
     fit-margin-bottom="0"
     inkscape:window-width="1920"
     inkscape:window-height="1057"
     inkscape:window-x="-8"
     inkscape:window-y="-8"
     inkscape:window-maximized="1" />
  <metadata
     id="metadata7042">
    <rdf:RDF>
      <cc:Work
         rdf:about="">
        <dc:format>image/svg+xml</dc:format>
        <dc:type
           rdf:resource="http://purl.org/dc/dcmitype/StillImage" />
        <dc:title></dc:title>
      </cc:Work>
    </rdf:RDF>
  </metadata>
  <g
     inkscape:label="Layer 1"
     inkscape:groupmode="layer"
     id="layer1"
     transform="translate(-7.6875851e-7,954.00082)">
    <rect
       style="opacity:1;fill:#ffd400;fill-opacity:1;stroke:none;stroke-width:36.29109955;stroke-linejoin:round;stroke-miterlimit:4;stroke-dasharray:none;stroke-opacity:1"
       id="rect2313"
       width="914.40002"
       height="914.40002"
       x="-667.21063"
       y="-1131.7772"
       rx="57.150002"
       ry="57.150002"
       transform="matrix(-0.70710678,-0.70710678,-0.70710678,0.70710678,0,0)" />
    <rect
       ry="41.274998"
       rx="41.274998"
       y="-1115.9021"
       x="-651.33557"
       height="882.64996"
       width="882.64996"
       id="rect2315"
       style="opacity:1;fill:#000000;fill-opacity:1;stroke:none;stroke-width:35.0309906;stroke-linejoin:round;stroke-miterlimit:4;stroke-dasharray:none;stroke-opacity:1"
       transform="matrix(-0.70710678,-0.70710678,-0.70710678,0.70710678,0,0)" />
    <rect
       ry="19.049999"
       rx="19.049999"
       y="-1093.6772"
       x="-629.11053"
       height="838.20001"
       width="838.20001"
       id="rect2317"
       style="opacity:1;fill:#ffd400;fill-opacity:1;stroke:none;stroke-width:33.26684189;stroke-linejoin:round;stroke-miterlimit:4;stroke-dasharray:none;stroke-opacity:1"
       transform="matrix(-0.70710678,-0.70710678,-0.70710678,0.70710678,0,0)" />
    <path
       inkscape:connector-curvature="0"
       style="fill:#000000;stroke:none;stroke-width:4.35347366"
       d="m 587.90288,-389.89484 v 110.57389 h -18.45871 v -110.57389 h -23.21699 v -16.9392 h 64.8972 v 16.9392 z"
       id="path12" />
    <path
       inkscape:connector-curvature="0"
       style="fill:#000000;stroke:none;stroke-width:4.35347366"
       d="m 697.53208,-298.92465 c -6.282,15.03712 -15.6029,21.88491 -29.8778,21.88491 -15.2286,0 -24.17501,-6.84779 -30.44831,-21.88491 -5.33288,-12.55969 -7.2355,-24.74079 -7.2355,-44.34439 0,-19.2207 1.9069,-32.1635 7.2355,-44.3446 6.6565,-15.2285 15.60301,-21.5061 30.44831,-21.5061 14.64939,0 23.5958,6.2776 29.8778,21.8849 5.3331,12.5597 7.23549,24.7408 7.23549,43.9614 0,19.608 -1.9068,32.1678 -7.23549,44.34879 z m -14.27501,-76.12479 c -3.23029,-11.2276 -7.9929,-16.1775 -15.60279,-16.1775 -8.18902,0 -13.13889,4.9499 -16.18189,15.7944 -3.043,9.7039 -3.99651,18.2672 -3.99651,32.5423 0,13.89181 1.33599,21.8891 3.99651,32.1634 3.043,10.84451 7.99287,15.79441 16.18189,15.79441 7.60989,0 12.3725,-4.9499 15.60279,-15.79441 3.04311,-10.2743 3.99651,-17.8884 3.99651,-32.5466 0,-14.2707 -1.32789,-22.4508 -3.99651,-31.776 z"
       id="path14" />
    <path
       inkscape:connector-curvature="0"
       style="fill:#000000;stroke:none;stroke-width:4.35361671"
       d="m 317.63674,-202.25505 v 32.16449 h 25.49907 v 17.50581 h -25.49907 v 59.953495 H 299.36455 V -220.14425 h 64.89947 v 17.8892 z"
       id="path16" />
    <path
       inkscape:connector-curvature="0"
       style="fill:#000000;stroke:none;stroke-width:4.35361671"
       d="M 382.15726,-92.631255 V -220.14425 h 18.27219 v 110.57321 h 46.62728 v 16.939785 z"
       id="path18" />
    <path
       inkscape:connector-curvature="0"
       style="fill:#000000;stroke:none;stroke-width:4.35361671"
       d="m 530.22818,-112.23555 c -6.2823,15.037505 -15.6077,21.885795 -29.8789,21.885795 -15.2289,0 -24.1756,-6.84829 -30.4536,-21.885795 -5.32869,-12.56009 -7.2312,-24.74151 -7.2312,-44.34581 0,-19.22129 1.9069,-32.16449 7.2312,-44.34599 6.66101,-15.22449 15.6077,-21.50239 30.4536,-21.50239 14.6498,0 23.5966,6.2779 29.8789,21.88109 5.3288,12.56461 7.2313,24.746 7.2313,43.96729 0,19.6043 -1.9025,32.16452 -7.2313,44.34581 z m -14.2755,-76.1315 c -3.2348,-11.22799 -7.9933,-16.17818 -15.6034,-16.17818 -8.1847,0 -13.1349,4.95019 -16.1823,15.79938 -3.0433,9.70409 -3.9967,18.2677 -3.9967,32.54761 0,13.888 1.3361,21.88549 3.9967,32.16439 3.0474,10.8449 7.9976,15.79491 16.1823,15.79491 7.6101,0 12.3686,-4.95001 15.6034,-15.79491 3.0476,-10.27441 3.9967,-17.8889 3.9967,-32.54751 0,-14.2712 -1.3329,-22.4559 -3.9967,-31.78569 z"
       id="path20" />
    <path
       inkscape:connector-curvature="0"
       style="fill:#000000;stroke:none;stroke-width:4.35361671"
       d="m 628.24557,-112.23555 c -6.27798,15.037505 -15.6079,21.885795 -29.879,21.885795 -15.2246,0 -24.1713,-6.84829 -30.4492,-21.885795 -5.33319,-12.56009 -7.23559,-24.74151 -7.23559,-44.34581 0,-19.22129 1.9067,-32.16449 7.23559,-44.34599 6.6567,-15.22449 15.6034,-21.50239 30.4492,-21.50239 14.65432,0 23.60102,6.2779 29.879,21.88109 5.3331,12.56461 7.23561,24.746 7.23561,43.96729 0,19.6043 -1.90251,32.16452 -7.23561,44.34581 z m -14.27128,-76.1315 c -3.23461,-11.22799 -7.99312,-16.17818 -15.60772,-16.17818 -8.18478,0 -13.13489,4.95019 -16.178,15.79938 -3.04308,9.70409 -3.99658,18.2677 -3.99658,32.54761 0,13.888 1.33278,21.88549 3.99658,32.16439 3.04311,10.8449 7.99322,15.79491 16.178,15.79491 7.6146,0 12.37311,-4.95001 15.60772,-15.79491 3.04329,-10.27441 3.99669,-17.8889 3.99669,-32.54751 0,-14.2712 -1.33281,-22.4559 -3.99669,-31.78569 z"
       id="path22" />
    <path
       inkscape:connector-curvature="0"
       style="fill:#000000;stroke:none;stroke-width:4.35361671"
       d="m 714.27738,-98.534555 c -4.567,4.18811 -10.8449,5.89909 -17.88912,5.89909 H 660.98908 V -220.14853 h 32.54758 c 10.8449,0 16.178,1.33289 20.745,4.95009 7.61453,5.32878 12.94331,15.2246 15.22892,28.1678 1.71108,9.32551 3.04318,20.55339 3.04318,30.44928 0,29.5044 -5.90777,48.34242 -18.27638,58.046805 z m -3.2348,-90.777295 c -3.04321,-8.94681 -8.372,-12.9432 -16.5568,-12.9432 h -15.22892 v 91.73061 h 15.22892 c 10.8449,0 16.5568,-8.56361 18.45918,-18.26792 0.76192,-8.1847 1.7154,-17.13129 1.7154,-26.83568 0,-14.46252 -1.33609,-28.35941 -3.61778,-33.68381 z"
       id="path24" />
    <path
       inkscape:connector-curvature="0"
       style="fill:#000000;stroke:none;stroke-width:4.35361671"
       d="M 757.66978,-92.631255 V -220.14425 h 17.88899 v 127.512995 z"
       id="path26" />
    <path
       inkscape:connector-curvature="0"
       style="fill:#000000;stroke:none;stroke-width:4.35361671"
       d="m 861.39907,-92.631255 -39.40029,-85.452685 v 85.452685 H 803.73107 V -220.14425 h 18.26771 l 35.02059,76.5062 v -76.5062 h 18.2721 v 127.512995 z"
       id="path28" />
    <path
       inkscape:connector-curvature="0"
       style="fill:#000000;stroke:none;stroke-width:4.35361671"
       d="m 968.35437,-108.23894 c -4.94581,11.040895 -15.2246,17.889185 -28.16781,17.889185 -15.22468,0 -26.45259,-7.61021 -32.73499,-21.885795 -4.0009,-9.5168 -6.66099,-27.40599 -6.66099,-43.96269 0,-17.88901 1.33278,-30.8324 5.89489,-43.01371 4.3797,-13.32651 17.3229,-23.21779 32.1687,-23.21779 18.268,0 32.16468,13.51348 33.11358,32.356 h -18.26768 c -0.5743,-8.5679 -6.28221,-14.4671 -15.22891,-14.4671 -6.2779,0 -11.22799,3.23469 -14.46279,9.5214 -3.42619,6.27779 -5.7119,20.55339 -5.7119,35.77799 0,10.65771 0.95269,21.8857 2.66449,31.7858 2.6643,12.373 8.94651,19.22131 18.8423,19.22131 9.3255,0 13.8925,-6.278 13.8925,-19.7917 v -8.37642 h -14.4671 v -17.88888 h 32.73909 v 26.2653 c 0,8.93799 -0.94937,14.45839 -3.61338,19.7871 z"
       id="path30" />
    <path
       inkscape:connector-curvature="0"
       style="fill:#000000;stroke:none;stroke-width:4.35347462"
       d="m 359.45339,-463.72972 c -22.45948,0 -35.7812,-18.84169 -35.7812,-39.77319 h 17.88838 c 0,10.6573 5.32865,21.8848 17.88854,21.8848 9.89532,0 17.88839,-8.9463 17.88839,-19.2249 0,-7.2311 -2.66442,-12.5598 -10.27853,-18.4587 -2.66442,-2.6644 4.56682,2.2812 -21.50614,-15.2286 -10.27426,-7.0395 -15.60291,-16.9393 -15.60291,-28.1669 0,-18.2716 14.27506,-33.1125 32.54649,-33.1125 18.08008,0 31.7804,13.892 32.35514,33.1125 h -17.50978 c -0.37844,-8.9464 -6.66077,-14.6538 -14.84536,-14.6538 -8.37595,0 -15.03688,6.2822 -15.03688,14.6538 0,6.2821 2.6644,9.8955 11.98958,15.2241 24.55361,14.2751 35.39799,28.167 35.39799,46.6259 0.004,20.557 -15.78998,37.11749 -35.39371,37.11749 z"
       id="path32" />
    <path
       inkscape:connector-curvature="0"
       style="fill:#000000;stroke:none;stroke-width:4.35347462"
       d="m 482.97022,-481.61811 c -6.282,10.27429 -18.27159,17.88839 -30.45256,17.88839 -12.55973,0 -24.93236,-7.23109 -31.21011,-17.88839 -3.61774,-6.8523 -4.94986,-12.1809 -4.94986,-22.4596 v -89.4463 h 18.27159 v 91.7319 c 0,11.9894 7.23108,20.174 17.88838,20.174 9.89556,0 17.13086,-8.1846 17.13086,-20.174 v -91.7319 h 18.2716 v 89.4463 c 0,10.2787 -1.3361,15.6073 -4.9499,22.4596 z"
       id="path34" />
    <path
       inkscape:connector-curvature="0"
       style="fill:#000000;stroke:none;stroke-width:4.35347462"
       d="m 553.19612,-466.01522 h -37.4921 v -127.51329 h 40.1565 c 17.13079,0 29.11599,13.5133 29.11599,33.1126 0,11.6107 -3.043,16.9394 -13.32159,27.7883 9.70381,7.9929 15.60719,18.6502 15.60719,31.7804 0,19.2291 -15.2241,34.83199 -34.06599,34.83199 z m 0,-109.62049 h -19.2205 v 34.0659 h 19.2205 c 8.5633,0 13.89199,-7.2311 13.89199,-18.8417 0,-10.6573 -3.99649,-15.2242 -13.89199,-15.2242 z m -0.7618,51.9588 h -18.4587 v 39.7733 h 18.4587 c 10.2785,0 16.93939,-7.2312 16.93939,-18.2715 0,-12.1767 -7.61429,-21.5018 -16.93939,-21.5018 z"
       id="path36" />
    <path
       inkscape:connector-curvature="0"
       style="fill:#000000;stroke:none;stroke-width:4.35347462"
       d="m 655.20682,-475.91061 c -6.27779,7.2355 -16.5563,12.18089 -26.26029,12.18089 -13.13442,0 -24.7451,-6.2777 -30.07371,-16.1774 l 13.892,-10.65729 c 4.5711,5.71159 9.89529,8.9463 16.18171,8.9463 5.71188,0 11.6064,-3.23471 14.27078,-8.1846 1.33281,-2.66421 2.28121,-5.3286 2.28121,-7.9928 v -95.7285 h 18.27149 v 90.3998 c 0,13.89189 -2.28119,20.17399 -8.56319,27.2136 z"
       id="path38" />
    <path
       inkscape:connector-curvature="0"
       style="fill:#000000;stroke:none;stroke-width:4.35347462"
       d="m 691.55832,-466.01522 v -127.51329 h 59.9517 v 17.8884 h -41.6801 v 32.1636 h 26.456 v 17.5054 h -26.456 v 42.05859 h 46.63 v 17.88861 h -64.9016 z"
       id="path40" />
    <path
       inkscape:connector-curvature="0"
       style="fill:#000000;stroke:none;stroke-width:4.35347462"
       d="m 828.55602,-559.45821 c -1.90662,-12.5597 -6.85232,-18.4587 -15.22841,-18.4587 -14.84091,0 -20.17401,11.6107 -20.17401,44.7232 0,36.7303 6.27772,51.5756 21.88491,51.5756 10.65731,0 13.5133,-8.9463 13.5133,-18.4631 h 18.2671 c -0.37841,21.1275 -13.89179,36.35149 -31.78461,36.35149 -27.21359,0 -39.39468,-21.88489 -39.39468,-68.89369 0,-41.2971 12.94288,-63.1863 38.0625,-63.1863 10.27409,0 19.2205,4.5668 25.12388,12.943 4.7584,6.2776 6.66081,11.7979 7.99291,23.4085 z"
       id="path42" />
    <path
       inkscape:connector-curvature="0"
       style="fill:#000000;stroke:none;stroke-width:4.35347462"
       d="m 904.1107,-576.58911 v 110.57389 h -18.46308 v -110.57389 h -23.217 v -16.9394 h 64.89718 v 16.9394 z"
       id="path44" />
  </g>
</svg>
