<?xml version="1.0" encoding="UTF-8" standalone="no"?>
<!-- Generator: Adobe Illustrator 12.0.1, SVG Export Plug-In  -->

<svg
   xmlns:dc="http://purl.org/dc/elements/1.1/"
   xmlns:cc="http://creativecommons.org/ns#"
   xmlns:rdf="http://www.w3.org/1999/02/22-rdf-syntax-ns#"
   xmlns:svg="http://www.w3.org/2000/svg"
   xmlns="http://www.w3.org/2000/svg"
   xmlns:sodipodi="http://sodipodi.sourceforge.net/DTD/sodipodi-0.dtd"
   xmlns:inkscape="http://www.inkscape.org/namespaces/inkscape"
   version="1.1"
   width="286.66199"
   height="286.66324"
   viewBox="-1 0 286.66199 286.66324"
   enable-background="new -1 0 289 288"
   xml:space="preserve"
   id="svg2"
   inkscape:version="0.48.2 r9819"
   sodipodi:docname="AJAX1.svg"><metadata
   id="metadata40"><rdf:RDF><cc:Work
       rdf:about=""><dc:format>image/svg+xml</dc:format><dc:type
         rdf:resource="http://purl.org/dc/dcmitype/StillImage" /></cc:Work></rdf:RDF></metadata><sodipodi:namedview
   pagecolor="#ffffff"
   bordercolor="#666666"
   borderopacity="1"
   objecttolerance="10"
   gridtolerance="10"
   guidetolerance="10"
   inkscape:pageopacity="0"
   inkscape:pageshadow="2"
   inkscape:window-width="1280"
   inkscape:window-height="1004"
   id="namedview38"
   showgrid="false"
   fit-margin-top="0"
   fit-margin-left="0"
   fit-margin-right="0"
   fit-margin-bottom="0"
   inkscape:zoom="1.6388889"
   inkscape:cx="96.198258"
   inkscape:cy="138.80924"
   inkscape:window-x="-8"
   inkscape:window-y="-8"
   inkscape:window-maximized="1"
   inkscape:current-layer="svg2" />
<defs
   id="defs4">
</defs>
<path
   d="M 3.09875,133.38675 132.37975,4.1047494 c 5.471,-5.473 14.421,-5.473 19.896,0 l 129.283,129.2820006 c 5.471,5.47 5.471,14.423 0,19.89 l -129.283,129.284 c -5.475,5.47 -14.425,5.47 -19.896,0 l -129.281,-129.285 c -5.465,-5.466 -5.465,-14.419 0,-19.889 z"
   id="path6"
   style="fill:#ffd033;stroke:none;fill-opacity:1"
   inkscape:connector-curvature="0" />

<path
   clip-rule="evenodd"
   d="M 6.22175,135.43975 134.44075,7.2207494 c 4.339,-4.339 11.442,-4.339 15.785,0 l 128.215,128.2190006 c 4.343,4.343 4.343,11.438 0,15.777 l -128.215,128.225 c -4.343,4.335 -11.446,4.335 -15.785,0 l -128.219,-128.225 c -4.338,-4.339 -4.338,-11.434 0,-15.777"
   id="path10"
   inkscape:connector-curvature="0"
   style="fill-rule:evenodd;stroke:none;fill:#000000" />
<path
   clip-rule="evenodd"
   d="m 10.22475,139.38975 128.162,-128.160001 c 2.162,-2.1699996 5.724,-2.1699996 7.889,0 l 128.16,128.160001 c 2.165,2.166 2.165,5.716 0,7.883 l -128.16,128.161 c -2.165,2.167 -5.727,2.167 -7.889,0 l -128.162,-128.161 c -2.165,-2.167 -2.165,-5.717 0,-7.883"
   id="path12"
   inkscape:connector-curvature="0"
   style="fill:#ffd033;fill-rule:evenodd;stroke:none;fill-opacity:1" />
<path
   d="m 63.50575,160.56875 c -0.518,-3.416 -1.863,-5.021 -4.141,-5.021 -4.037,0 -5.486,3.157 -5.486,12.163 0,9.989 1.708,14.026 5.952,14.026 2.898,0 3.675,-2.433 3.675,-5.021 h 4.969 c -0.104,5.745 -3.778,9.886 -8.644,9.886 -7.401,0 -10.714,-5.952 -10.714,-18.736 0,-11.231 3.52,-17.184 10.352,-17.184 2.795,0 5.228,1.242 6.832,3.52 1.294,1.708 1.812,3.209 2.174,6.366 h -4.969 z"
   id="path14"
   inkscape:connector-curvature="0"
   style="stroke:none;fill:#000000" />
<path
   d="m 89.73075,185.98175 -4.607,-16.304 h -4.762 v 16.304 h -4.969 v -34.678 h 10.352 c 5.435,0 9.109,3.675 9.109,9.265 0,4.141 -1.708,7.143 -4.969,8.385 l 4.969,17.028 h -5.123 z m -4.245,-29.812 h -5.124 v 8.747 h 5.124 c 2.899,0 4.504,-1.553 4.504,-4.348 0,-2.691 -1.812,-4.399 -4.504,-4.399 z"
   id="path16"
   inkscape:connector-curvature="0"
   style="stroke:none;fill:#000000" />
<path
   d="m 119.43975,180.65075 c -1.708,4.089 -4.244,5.952 -8.126,5.952 -4.141,0 -6.573,-1.863 -8.281,-5.952 -1.449,-3.416 -1.967,-6.729 -1.967,-12.06 0,-5.228 0.518,-8.747 1.967,-12.06 1.812,-4.141 4.244,-5.849 8.281,-5.849 3.985,0 6.418,1.708 8.126,5.952 1.449,3.416 1.967,6.729 1.967,11.956 0,5.333 -0.518,8.749 -1.967,12.061 z m -3.882,-20.703 c -0.88,-3.054 -2.174,-4.399 -4.244,-4.399 -2.226,0 -3.571,1.346 -4.399,4.296 -0.828,2.64 -1.087,4.969 -1.087,8.851 0,3.778 0.362,5.952 1.087,8.747 0.828,2.95 2.174,4.296 4.399,4.296 2.07,0 3.364,-1.346 4.244,-4.296 0.828,-2.795 1.087,-4.865 1.087,-8.851 0,-3.882 -0.362,-6.108 -1.087,-8.644 z"
   id="path18"
   inkscape:connector-curvature="0"
   style="stroke:none;fill:#000000" />
<path
   d="m 137.34775,186.60375 c -6.107,0 -9.73,-5.124 -9.73,-10.817 h 4.865 c 0,2.898 1.449,5.952 4.865,5.952 2.691,0 4.865,-2.433 4.865,-5.228 0,-1.967 -0.725,-3.416 -2.795,-5.021 -0.725,-0.725 1.242,0.621 -5.849,-4.141 -2.795,-1.915 -4.244,-4.606 -4.244,-7.66 0,-4.969 3.882,-9.006 8.851,-9.006 4.917,0 8.644,3.778 8.799,9.006 h -4.762 c -0.104,-2.433 -1.812,-3.985 -4.037,-3.985 -2.277,0 -4.089,1.708 -4.089,3.985 0,1.708 0.725,2.691 3.261,4.141 6.677,3.882 9.627,7.66 9.627,12.681 0,5.59 -4.296,10.093 -9.627,10.093 z"
   id="path20"
   inkscape:connector-curvature="0"
   style="stroke:none;fill:#000000" />
<path
   d="m 161.82875,186.60375 c -6.107,0 -9.73,-5.124 -9.73,-10.817 h 4.865 c 0,2.898 1.449,5.952 4.865,5.952 2.691,0 4.865,-2.433 4.865,-5.228 0,-1.967 -0.725,-3.416 -2.795,-5.021 -0.725,-0.725 1.242,0.621 -5.849,-4.141 -2.795,-1.915 -4.244,-4.606 -4.244,-7.66 0,-4.969 3.882,-9.006 8.851,-9.006 4.917,0 8.644,3.778 8.799,9.006 h -4.762 c -0.104,-2.433 -1.812,-3.985 -4.037,-3.985 -2.277,0 -4.089,1.708 -4.089,3.985 0,1.708 0.725,2.691 3.261,4.141 6.677,3.882 9.627,7.66 9.627,12.681 0,5.59 -4.296,10.093 -9.627,10.093 z"
   id="path22"
   inkscape:connector-curvature="0"
   style="stroke:none;fill:#000000" />
<path
   d="m 177.28775,185.98175 v -34.678 h 4.865 v 34.678 h -4.865 z"
   id="path24"
   inkscape:connector-curvature="0"
   style="stroke:none;fill:#000000" />
<path
   d="m 205.47875,185.98175 -10.714,-23.239 v 23.239 h -4.969 v -34.678 h 4.969 l 9.523,20.807 v -20.807 h 4.969 v 34.678 h -3.778 z"
   id="path26"
   inkscape:connector-curvature="0"
   style="stroke:none;fill:#000000" />
<path
   d="m 233.54975,181.73775 c -1.346,3.002 -4.141,4.865 -7.66,4.865 -4.141,0 -7.194,-2.07 -8.902,-5.952 -1.087,-2.588 -1.812,-7.453 -1.812,-11.956 0,-4.865 0.362,-8.385 1.604,-11.697 1.19,-3.623 4.71,-6.314 8.747,-6.314 4.969,0 8.747,3.675 9.006,8.799 h -4.969 c -0.155,-2.329 -1.708,-3.934 -4.141,-3.934 -1.708,0 -3.054,0.88 -3.934,2.588 -0.932,1.708 -1.553,5.59 -1.553,9.73 0,2.898 0.259,5.952 0.725,8.644 0.725,3.364 2.433,5.228 5.124,5.228 2.536,0 3.778,-1.708 3.778,-5.383 v -2.277 h -3.934 v -4.865 h 8.902 v 7.143 c 0.002,2.431 -0.256,3.932 -0.981,5.381 z"
   id="path28"
   inkscape:connector-curvature="0"
   style="stroke:none;fill:#000000" />
<path
   d="m 107.10375,107.16675 v 30.071 h -5.021 v -30.071 h -6.314 v -4.606 h 17.65 v 4.606 h -6.315 z"
   id="path30"
   inkscape:connector-curvature="0"
   style="stroke:none;fill:#000000" />
<path
   d="m 132.67275,137.23775 -2.433,-9.472 h -7.454 l -2.277,9.472 h -5.021 l 8.644,-34.678 h 4.866 l 8.644,34.678 h -4.969 z m -6.211,-24.326 -2.433,9.989 h 4.969 l -2.536,-9.989 z"
   id="path32"
   inkscape:connector-curvature="0"
   style="stroke:none;fill:#000000" />
<path
   d="m 158.08475,137.23775 -10.714,-23.239 v 23.239 h -4.969 v -34.678 h 4.969 l 9.524,20.807 v -20.807 h 4.969 v 34.678 h -3.779 z"
   id="path34"
   inkscape:connector-curvature="0"
   style="stroke:none;fill:#000000" />
<path
   d="m 183.65375,137.23775 -6.107,-16.925 -3.157,5.849 v 11.076 h -4.969 v -34.678 h 4.969 v 13.871 l 7.919,-13.871 h 5.746 l -7.195,12.163 8.023,22.515 h -5.229 z"
   id="path36"
   inkscape:connector-curvature="0"
   style="stroke:none;fill:#000000" />
</svg>