<?xml version="1.0" encoding="UTF-8" standalone="no"?>
<!-- Generator: Adobe Illustrator 14.0.0, SVG Export Plug-In  -->

<svg
   xmlns:dc="http://purl.org/dc/elements/1.1/"
   xmlns:cc="http://creativecommons.org/ns#"
   xmlns:rdf="http://www.w3.org/1999/02/22-rdf-syntax-ns#"
   xmlns:svg="http://www.w3.org/2000/svg"
   xmlns="http://www.w3.org/2000/svg"
   xmlns:sodipodi="http://sodipodi.sourceforge.net/DTD/sodipodi-0.dtd"
   xmlns:inkscape="http://www.inkscape.org/namespaces/inkscape"
   version="1.1"
   x="0px"
   y="0px"
   width="461.34845"
   height="461.35187"
   viewBox="0 -0.321 461.3484 461.35194"
   enable-background="new 0 -0.321 144 120"
   xml:space="preserve"
   id="svg2"
   inkscape:version="0.48.2 r9819"
   sodipodi:docname="AJAX1.svg"><metadata
   id="metadata44"><rdf:RDF><cc:Work
       rdf:about=""><dc:format>image/svg+xml</dc:format><dc:type
         rdf:resource="http://purl.org/dc/dcmitype/StillImage" /><dc:title /></cc:Work></rdf:RDF></metadata><sodipodi:namedview
   pagecolor="#ffffff"
   bordercolor="#666666"
   borderopacity="1"
   objecttolerance="10"
   gridtolerance="10"
   guidetolerance="10"
   inkscape:pageopacity="0"
   inkscape:pageshadow="2"
   inkscape:window-width="1280"
   inkscape:window-height="1004"
   id="namedview42"
   showgrid="false"
   fit-margin-top="0"
   fit-margin-left="0"
   fit-margin-right="0"
   fit-margin-bottom="0"
   inkscape:zoom="1.0729601"
   inkscape:cx="103.06949"
   inkscape:cy="239.01308"
   inkscape:window-x="-8"
   inkscape:window-y="-8"
   inkscape:window-maximized="1"
   inkscape:current-layer="svg2"
   showguides="true"
   inkscape:guide-bbox="true" />
<defs
   id="defs4">
<clipPath
   clipPathUnits="userSpaceOnUse"
   id="clipPath36474"><path
     inkscape:connector-curvature="0"
     d="m 74.58,538.258 233.098,0 0,138.259 -233.098,0 0,-138.259 z"
     id="path36476" /></clipPath><clipPath
   clipPathUnits="userSpaceOnUse"
   id="clipPath36354"><path
     inkscape:connector-curvature="0"
     d="m 74.58,520.859 233.1,0 0,173.057 -233.1,0 0,-173.057 z"
     id="path36356" /></clipPath></defs>


















<path
   inkscape:connector-curvature="0"
   d="m 455.14876,215.38904 c 8.26625,8.26501 8.26625,21.66626 0,29.93001 L 245.63997,454.83032 c -8.26625,8.2675 -21.665,8.2675 -29.93,0 L 6.198689,245.31905 c -8.265,-8.26375 -8.265,-21.665 0,-29.93001 L 215.70997,5.87775 c 8.265,-8.265 21.66376,-8.265 29.93,0 l 209.50879,209.51129 z"
   style="fill:#ffd033;fill-opacity:1;fill-rule:nonzero;stroke:none"
   id="path3792" /><path
   inkscape:connector-curvature="0"
   d="m 450.99226,219.5463 c 5.96875,5.96875 5.96875,15.6475 0,21.61625 L 241.48347,450.67382 c -5.97125,5.97 -15.6475,5.97 -21.61625,0 L 10.354689,241.16255 c -5.97,-5.96875 -5.97,-15.6475 0,-21.61625 L 219.86722,10.03501 c 5.96875,-5.97001 15.645,-5.97001 21.61625,0 L 450.99226,219.5463 z"
   style="fill:#000000;fill-opacity:1;fill-rule:nonzero;stroke:none"
   id="path3800" /><path
   inkscape:connector-curvature="0"
   d="m 445.17439,225.36668 c 2.755,2.755 2.755,7.22125 0,9.975 L 235.66435,444.85295 c -2.75624,2.7575 -7.22374,2.7575 -9.97749,0 L 16.175569,235.34168 c -2.75625,-2.75375 -2.75625,-7.22 0,-9.975 L 225.68686,15.85539 c 2.75375,-2.755 7.22125,-2.755 9.97749,0 l 209.51004,209.51129 z"
   style="fill:#ffd033;fill-opacity:1;fill-rule:nonzero;stroke:none"
   id="path3804" /><path
   inkscape:connector-curvature="0"
   d="m 185.18833,109.7354 -5.29124,37.5 -5.16,0 -5.92876,-24.265 -5.92875,24.265 -5.23874,0 -5.29125,-37.5 5.83749,0 2.86376,20.295 4.95875,-20.295 5.51749,0 4.90875,20.09125 2.83501,-20.09125 5.91749,0 z"
   style="fill:#000000;fill-opacity:1;fill-rule:nonzero;stroke:none"
   id="path3808" /><path
   inkscape:connector-curvature="0"
   d="m 207.14447,130.90727 -3.985,-11.70875 -3.9825,11.70875 7.9675,0 z m 11.74501,16.32875 -6.18875,0 -3.58876,-10.5475 -11.9025,0 -3.58875,10.5475 -6.10625,0 12.76,-37.50125 5.855,0 12.76001,37.50125 z"
   style="fill:#000000;fill-opacity:1;fill-rule:nonzero;stroke:none"
   id="path3812" /><path
   inkscape:connector-curvature="0"
   d="m 244.10747,115.0479 -8.51625,0 0,32.1875 -5.85875,0 0,-32.1875 -8.51625,0 0,-5.3125 22.89125,0 0,5.3125 z"
   style="fill:#000000;fill-opacity:1;fill-rule:nonzero;stroke:none"
   id="path3816" /><path
   inkscape:connector-curvature="0"
   d="m 276.31073,138.94452 c -0.70125,2.63375 -2.13375,4.7775 -4.2975,6.4325 -2.165,1.65625 -4.5975,2.48375 -7.29875,2.48375 -4.655,0 -8.195,-2.17875 -10.62125,-6.54 -2.0025,-3.5325 -3.00375,-7.8175 -3.00375,-12.85375 0,-5.06125 1.01375,-9.35875 3.04,-12.89125 2.47625,-4.31 6.06625,-6.465 10.77125,-6.465 2.5025,0 4.79125,0.69625 6.86875,2.09 2.07625,1.39375 3.59,3.25625 4.54125,5.59 l -5.44125,2.2225 c -0.5,-1.2575 -1.295,-2.26 -2.3825,-3.005 -1.08875,-0.74375 -2.2825,-1.11625 -3.5825,-1.11625 -2.8525,0 -4.97875,1.63625 -6.38,4.90875 -1.05,2.44125 -1.575,5.3225 -1.575,8.64625 0,3.2975 0.5125,6.16625 1.5375,8.6075 1.35,3.29875 3.42625,4.94625 6.23,4.94625 1.37375,0 2.61125,-0.42875 3.7125,-1.29125 1.10125,-0.86125 1.84,-1.96375 2.21625,-3.30625 l 5.665,1.54125 z"
   style="fill:#000000;fill-opacity:1;fill-rule:nonzero;stroke:none"
   id="path3820" /><path
   inkscape:connector-curvature="0"
   d="m 308.56298,147.2354 -5.86,0 0,-16.40625 -13.515,0 0,16.40625 -5.86,0 0,-37.5 5.86,0 0,15.23375 13.515,0 0,-15.23375 5.86,0 0,37.5 z"
   style="fill:#000000;fill-opacity:1;fill-rule:nonzero;stroke:none"
   id="path3824" /><path
   inkscape:connector-curvature="0"
   d="m 208.15647,171.81741 -16.9975,0 0,9.45375 10.86,0 0,5.85875 -10.86,0 0,16.40625 -5.85876,0 0,-37.5 22.85626,0 0,5.78125 z"
   style="fill:#000000;fill-opacity:1;fill-rule:nonzero;stroke:none"
   id="path3828" /><path
   inkscape:connector-curvature="0"
   d="m 235.72123,184.74704 c 0,-9.03625 -2.4425,-13.555 -7.32626,-13.555 -1.42749,0 -2.68625,0.40875 -3.775,1.2275 -1.08875,0.8175 -1.8475,1.90625 -2.2725,3.26625 -0.87624,2.79375 -1.31374,5.81375 -1.31374,9.06125 0,9.03625 2.45249,13.555 7.36124,13.555 1.4025,0 2.64875,-0.40375 3.7375,-1.20875 1.09,-0.80625 1.8475,-1.8875 2.27376,-3.2475 0.87625,-2.81875 1.315,-5.85125 1.315,-9.09875 m 5.85999,0.0213 c 0,3.8075 -0.52625,7.39125 -1.5775,10.7475 -0.8025,2.5825 -2.26749,4.66875 -4.39624,6.25875 -2.12875,1.5925 -4.545,2.38625 -7.24875,2.38625 -2.705,0 -5.1225,-0.8075 -7.25125,-2.42375 -2.12875,-1.61625 -3.5925,-3.715 -4.39375,-6.295 -1.0275,-3.3575 -1.54,-6.91625 -1.54,-10.67375 0,-3.785 0.5125,-7.3425 1.54,-10.675 0.80125,-2.605 2.265,-4.70375 4.39375,-6.29625 2.12875,-1.59 4.54625,-2.38625 7.25125,-2.38625 2.70375,0 5.1275,0.79625 7.26875,2.38625 2.14125,1.5925 3.61125,3.67875 4.41249,6.25875 1.02625,3.3325 1.54125,6.90375 1.54125,10.7125"
   style="fill:#000000;fill-opacity:1;fill-rule:nonzero;stroke:none"
   id="path3832" /><path
   inkscape:connector-curvature="0"
   d="m 256.23637,181.27053 8.21625,0 c 1.3,0 2.40749,-0.45875 3.31999,-1.38 0.91375,-0.92 1.37001,-2.035 1.37001,-3.34625 0,-1.28625 -0.45626,-2.395 -1.37001,-3.3275 -0.9125,-0.9325 -2.02,-1.4 -3.31999,-1.4 l -8.21625,0 0,9.45375 z m 19.36124,22.26625 -6.24625,0 -6.0575,-16.40625 -7.0575,0 0,16.40625 -5.86,0 0,-37.50125 14.0675,0 c 2.90125,0 5.38375,1.0325 7.44625,3.095 2.06375,2.0625 3.09625,4.54375 3.09625,7.4425 0,2.00125 -0.5325,3.8575 -1.59625,5.57 -1.065,1.7125 -2.48625,3.0075 -4.2625,3.88125 l 6.47,17.5125 z"
   style="fill:#000000;fill-opacity:1;fill-rule:nonzero;stroke:none"
   id="path3836" /><path
   inkscape:connector-curvature="0"
   d="m 108.60745,254.19105 0,5.78125 -22.856241,0 0,-37.5 21.692491,0 0,5.78125 -15.833741,0 0,9.4525 10.859991,0 0,5.78125 -10.859991,0 0,10.70375 16.997491,0 z"
   style="fill:#000000;fill-opacity:1;fill-rule:nonzero;stroke:none"
   id="path3840" /><path
   inkscape:connector-curvature="0"
   d="m 144.60909,259.9723 -5.85999,0 0,-21.6925 -8.60001,21.6925 -8.665,-21.69625 0,21.69625 -5.86001,0 0,-37.5 5.85751,0 8.69,21.7575 8.6275,-21.7575 5.81,0 0,37.5 z"
   style="fill:#000000;fill-opacity:1;fill-rule:nonzero;stroke:none"
   id="path3844" /><path
   inkscape:connector-curvature="0"
   d="m 176.34921,254.19105 0,5.78125 -22.85625,0 0,-37.5 21.6925,0 0,5.78125 -15.83375,0 0,9.4525 10.86,0 0,5.78125 -10.86,0 0,10.70375 16.9975,0 z"
   style="fill:#000000;fill-opacity:1;fill-rule:nonzero;stroke:none"
   id="path3848" /><path
   inkscape:connector-curvature="0"
   d="m 189.22647,237.70656 8.21625,0 c 1.30001,0 2.4075,-0.45875 3.32,-1.38 0.91375,-0.92 1.37,-2.035 1.37,-3.34625 0,-1.28625 -0.45624,-2.395 -1.37,-3.3275 -0.9125,-0.9325 -2.01999,-1.4 -3.32,-1.4 l -8.21625,0 0,9.45375 z m 19.36126,22.26625 -6.24626,0 -6.0575,-16.40625 -7.0575,0 0,16.40625 -5.86001,0 0,-37.50125 14.06751,0 c 2.90125,0 5.38375,1.0325 7.44625,3.095 2.06375,2.0625 3.09625,4.54375 3.09625,7.4425 0,2.00125 -0.5325,3.8575 -1.59625,5.57 -1.065,1.7125 -2.48625,3.0075 -4.2625,3.88125 l 6.47,17.5125 z"
   style="fill:#000000;fill-opacity:1;fill-rule:nonzero;stroke:none"
   id="path3852" /><path
   inkscape:connector-curvature="0"
   d="m 240.83959,241.30043 0,5.78125 c -0.0263,0.67625 -0.10125,1.70125 -0.22625,3.07875 -0.4,2.97875 -1.7325,5.4625 -3.99874,7.4525 -2.26501,1.99 -4.90125,2.985 -7.90375,2.985 -2.65375,0 -5.0325,-0.7825 -7.13501,-2.34875 -2.10375,-1.56625 -3.555,-3.615 -4.35625,-6.145 -1.07625,-3.3825 -1.615,-7.01625 -1.615,-10.9 0,-3.80875 0.525,-7.40375 1.57626,-10.7875 0.775,-2.55625 2.22124,-4.6225 4.33499,-6.20125 2.11375,-1.57875 4.50876,-2.36875 7.1875,-2.36875 2.5775,0 4.91626,0.75375 7.0175,2.26 2.1025,1.50625 3.55375,3.48875 4.355,5.9475 l -5.55375,1.8825 c -0.4,-1.2825 -1.145,-2.32 -2.2325,-3.115 -1.08875,-0.795 -2.2825,-1.19375 -3.58375,-1.19375 -4.8275,0 -7.24125,4.52 -7.24125,13.555 0,9.0375 2.41375,13.555 7.24125,13.555 2,0 3.56375,-0.72875 4.68875,-2.1875 1.05,-1.3325 1.57625,-3.03 1.57625,-5.09125 l 0,-0.3775 -6.475,0 0,-5.78125 12.34375,0 z"
   style="fill:#000000;fill-opacity:1;fill-rule:nonzero;stroke:none"
   id="path3856" /><path
   inkscape:connector-curvature="0"
   d="m 272.50224,254.19105 0,5.78125 -22.85626,0 0,-37.5 21.69251,0 0,5.78125 -15.83376,0 0,9.4525 10.86001,0 0,5.78125 -10.86001,0 0,10.70375 16.99751,0 z"
   style="fill:#000000;fill-opacity:1;fill-rule:nonzero;stroke:none"
   id="path3860" /><path
   inkscape:connector-curvature="0"
   d="m 304.75323,259.9723 -5.265,0 -14.10999,-24.9325 0,24.9325 -5.86,0 0,-37.5 5.47999,0 13.89501,24.5525 0,-24.5525 5.86,0 0,37.5 z"
   style="fill:#000000;fill-opacity:1;fill-rule:nonzero;stroke:none"
   id="path3864" /><path
   inkscape:connector-curvature="0"
   d="m 338.78025,251.6813 c -0.70126,2.63375 -2.13376,4.7775 -4.29751,6.4325 -2.165,1.65625 -4.5975,2.48375 -7.29875,2.48375 -4.655,0 -8.195,-2.17875 -10.62125,-6.54 -2.0025,-3.5325 -3.00375,-7.8175 -3.00375,-12.85375 0,-5.06125 1.01375,-9.35875 3.04,-12.89125 2.47625,-4.31 6.06625,-6.465 10.77125,-6.465 2.5025,0 4.79125,0.69625 6.86875,2.09 2.07625,1.39375 3.59,3.25625 4.54125,5.59 l -5.44125,2.2225 c -0.5,-1.2575 -1.295,-2.26 -2.3825,-3.005 -1.08875,-0.74375 -2.2825,-1.11625 -3.5825,-1.11625 -2.8525,0 -4.97875,1.63625 -6.38,4.90875 -1.05,2.44125 -1.575,5.3225 -1.575,8.64625 0,3.2975 0.5125,6.16625 1.5375,8.6075 1.35,3.29875 3.42625,4.94625 6.23,4.94625 1.37375,0 2.61125,-0.42875 3.7125,-1.29125 1.10125,-0.86125 1.84,-1.96375 2.21625,-3.30625 l 5.665,1.54125 z"
   style="fill:#000000;fill-opacity:1;fill-rule:nonzero;stroke:none"
   id="path3868" /><path
   inkscape:connector-curvature="0"
   d="m 375.1475,222.47218 -12.92626,21.09875 0,16.40125 -5.85875,0 0,-16.425 -12.89125,-21.075 6.7775,0 9.00875,14.71875 9.01875,-14.71875 6.87126,0 z"
   style="fill:#000000;fill-opacity:1;fill-rule:nonzero;stroke:none"
   id="path3872" /><path
   inkscape:connector-curvature="0"
   d="m 143.11747,278.9103 -11.7475,37.50001 -4.69125,0 -11.71002,-37.50001 6.13876,0 7.92126,25.37126 7.94999,-25.37126 6.13876,0 z"
   style="fill:#000000;fill-opacity:1;fill-rule:nonzero;stroke:none"
   id="path3876" /><path
   inkscape:connector-curvature="0"
   d="m 172.99046,310.62906 0,5.78125 -22.85624,0 0,-37.50001 21.6925,0 0,5.78126 -15.83376,0 0,9.4525 10.86001,0 0,5.78125 -10.86001,0 0,10.70375 16.9975,0 z"
   style="fill:#000000;fill-opacity:1;fill-rule:nonzero;stroke:none"
   id="path3880" /><path
   inkscape:connector-curvature="0"
   d="m 205.24273,316.41031 -5.86001,0 0,-16.40625 -13.515,0 0,16.40625 -5.86001,0 0,-37.50001 5.86001,0 0,15.23376 13.515,0 0,-15.23376 5.86001,0 0,37.50001 z"
   style="fill:#000000;fill-opacity:1;fill-rule:nonzero;stroke:none"
   id="path3884" /><path
   inkscape:connector-curvature="0"
   d="m 219.90697,316.41069 -5.85999,0 0,-37.50001 5.85999,0 0,37.50001 z"
   style="fill:#000000;fill-opacity:1;fill-rule:nonzero;stroke:none"
   id="path3886" /><path
   inkscape:connector-curvature="0"
   d="m 253.94386,308.11931 c -0.70125,2.63375 -2.13375,4.7775 -4.2975,6.4325 -2.16501,1.65625 -4.59751,2.48375 -7.29876,2.48375 -4.65499,0 -8.19499,-2.17875 -10.62249,-6.54 -2.00125,-3.5325 -3.0025,-7.8175 -3.0025,-12.85375 0,-5.06125 1.0125,-9.35875 3.03875,-12.89125 2.47749,-4.31 6.0675,-6.46501 10.77249,-6.46501 2.5025,0 4.79125,0.69626 6.86876,2.09001 2.07625,1.39375 3.59,3.25625 4.54125,5.59 l -5.44125,2.2225 c -0.50001,-1.2575 -1.29501,-2.26 -2.38251,-3.005 -1.08875,-0.74375 -2.2825,-1.11625 -3.5825,-1.11625 -2.8525,0 -4.97875,1.63625 -6.37999,4.90875 -1.05,2.44125 -1.57501,5.3225 -1.57501,8.64625 0,3.2975 0.51251,6.16625 1.5375,8.6075 1.35,3.29875 3.42625,4.94625 6.23,4.94625 1.37375,0 2.61125,-0.42875 3.7125,-1.29125 1.10125,-0.86125 1.84,-1.96375 2.21626,-3.30625 l 5.665,1.54125 z"
   style="fill:#000000;fill-opacity:1;fill-rule:nonzero;stroke:none"
   id="path3890" /><path
   inkscape:connector-curvature="0"
   d="m 283.81686,316.41031 -22.85625,0 0,-37.50001 5.85875,0 0,31.95251 16.9975,0 0,5.5475 z"
   style="fill:#000000;fill-opacity:1;fill-rule:nonzero;stroke:none"
   id="path3894" /><path
   inkscape:connector-curvature="0"
   d="m 313.69112,310.62906 0,5.78125 -22.85625,0 0,-37.50001 21.6925,0 0,5.78126 -15.83376,0 0,9.4525 10.86001,0 0,5.78125 -10.86001,0 0,10.70375 16.99751,0 z"
   style="fill:#000000;fill-opacity:1;fill-rule:nonzero;stroke:none"
   id="path3898" /><path
   inkscape:connector-curvature="0"
   d="m 320.70899,307.36982 5.52001,-2.03125 c 0.625,1.745 1.695,3.1525 3.21,4.2275 1.51375,1.07375 3.185,1.61 5.01249,1.61 1.55126,0 2.87876,-0.545 3.98001,-1.635 1.10125,-1.09 1.65249,-2.4 1.65249,-3.9275 0,-1.755 -0.59999,-3.12 -1.8,-4.09875 -0.90125,-0.75125 -2.25124,-1.3275 -4.05125,-1.7275 -1.50125,-0.27625 -3.00125,-0.5525 -4.5,-0.82875 -2.20125,-0.42375 -4.0075,-1.5025 -5.42,-3.23125 -1.41375,-1.72875 -2.11875,-3.72125 -2.11875,-5.9775 0,-3.15625 1.11751,-5.85625 3.355,-8.1 2.23626,-2.2425 4.93,-3.36501 8.08125,-3.36501 2.44875,0 4.6675,0.72001 6.65501,2.15751 1.9875,1.4375 3.37999,3.31875 4.18124,5.645 l -5.54625,1.875 c -0.39999,-1.13375 -1.08749,-2.05375 -2.06124,-2.75875 -0.97375,-0.70625 -2.04876,-1.05875 -3.22251,-1.05875 -1.52499,0 -2.83749,0.545 -3.93624,1.63625 -1.09875,1.09 -1.64751,2.3975 -1.64751,3.92625 0,0.8525 0.2625,1.5975 0.78751,2.2375 0.52499,0.64 1.19999,1.04625 2.02499,1.22125 1.3,0.25125 3.26875,0.645 5.90751,1.18375 2.6375,0.54 4.825,1.86125 6.56374,3.96625 1.7375,2.105 2.6075,4.52375 2.6075,7.255 0,3.1575 -1.12125,5.8575 -3.36125,8.1 -2.24125,2.24375 -4.9375,3.36375 -8.0925,3.36375 -3.07875,0 -5.88375,-0.88875 -8.41125,-2.66875 -2.53,-1.78 -4.31875,-4.1125 -5.37,-6.99625"
   style="fill:#000000;fill-opacity:1;fill-rule:nonzero;stroke:none"
   id="path3902" /></svg>