<?xml version="1.0" encoding="UTF-8" standalone="no"?>
<!-- Generator: Adobe Illustrator 12.0.1, SVG Export Plug-In  -->

<svg
   xmlns:dc="http://purl.org/dc/elements/1.1/"
   xmlns:cc="http://creativecommons.org/ns#"
   xmlns:rdf="http://www.w3.org/1999/02/22-rdf-syntax-ns#"
   xmlns:svg="http://www.w3.org/2000/svg"
   xmlns="http://www.w3.org/2000/svg"
   xmlns:sodipodi="http://sodipodi.sourceforge.net/DTD/sodipodi-0.dtd"
   xmlns:inkscape="http://www.inkscape.org/namespaces/inkscape"
   version="1.1"
   width="286.66025"
   height="286.664"
   viewBox="0 0 286.66025 286.664"
   enable-background="new 0 0 288 288"
   xml:space="preserve"
   id="svg2"
   inkscape:version="0.48.2 r9819"
   sodipodi:docname="AJAX1.svg"><metadata
   id="metadata38"><rdf:RDF><cc:Work
       rdf:about=""><dc:format>image/svg+xml</dc:format><dc:type
         rdf:resource="http://purl.org/dc/dcmitype/StillImage" /></cc:Work></rdf:RDF></metadata><sodipodi:namedview
   pagecolor="#ffffff"
   bordercolor="#666666"
   borderopacity="1"
   objecttolerance="10"
   gridtolerance="10"
   guidetolerance="10"
   inkscape:pageopacity="0"
   inkscape:pageshadow="2"
   inkscape:window-width="1280"
   inkscape:window-height="1004"
   id="namedview36"
   showgrid="false"
   fit-margin-top="0"
   fit-margin-left="0"
   fit-margin-right="0"
   fit-margin-bottom="0"
   inkscape:zoom="1.6388889"
   inkscape:cx="95.937296"
   inkscape:cy="145.63394"
   inkscape:window-x="-8"
   inkscape:window-y="-8"
   inkscape:window-maximized="1"
   inkscape:current-layer="svg2" />
<defs
   id="defs4">
</defs>
<path
   d="M 4.09875,133.38675 133.37975,4.1047482 c 5.471,-5.473 14.42,-5.473 19.895,0 l 129.283,129.2830018 c 5.47,5.471 5.47,14.422 0,19.888 l -129.283,129.285 c -5.475,5.471 -14.424,5.471 -19.895,0 l -129.281,-129.286 c -5.465,-5.465 -5.465,-14.417 0,-19.888 z"
   id="path6"
   style="fill:#ffd033;stroke:none;fill-opacity:1"
   inkscape:connector-curvature="0" />

<path
   clip-rule="evenodd"
   d="M 7.22175,135.43975 135.44075,7.2197482 c 4.338,-4.338 11.443,-4.338 15.785,0 l 128.215,128.2200018 c 4.343,4.343 4.343,11.438 0,15.777 l -128.216,128.224 c -4.342,4.336 -11.446,4.336 -15.785,0 l -128.218,-128.224 c -4.339,-4.339 -4.339,-11.435 0,-15.777"
   id="path10"
   inkscape:connector-curvature="0"
   style="fill-rule:evenodd;fill:#000000;stroke:none" />
<path
   clip-rule="evenodd"
   d="m 11.22475,139.38975 128.162,-128.162002 c 2.162,-2.1689998 5.723,-2.1689998 7.888,0 l 128.16,128.162002 c 2.166,2.167 2.166,5.716 0,7.883 l -128.16,128.161 c -2.165,2.168 -5.726,2.168 -7.888,0 l -128.162,-128.161 c -2.166,-2.167 -2.166,-5.717 0,-7.883"
   id="path12"
   inkscape:connector-curvature="0"
   style="fill:#ffd033;fill-rule:evenodd;stroke:none;fill-opacity:1" />
<path
   d="m 103.32475,180.16475 v -34.851 h 16.385 v 4.89 h -11.392 v 8.791 h 7.23 v 4.785 h -7.23 v 11.495 h 12.744 v 4.89 h -17.737 z"
   id="path14"
   inkscape:connector-curvature="0"
   style="stroke:none;fill:#000000" />
<path
   d="m 141.34775,180.16475 -4.89,-11.859 -4.889,11.859 h -5.254 l 7.594,-18.102 -7.074,-16.749 h 5.254 l 4.369,10.508 4.421,-10.508 h 5.253 l -6.97,16.749 7.595,18.102 h -5.409 z"
   id="path16"
   inkscape:connector-curvature="0"
   style="stroke:none;fill:#000000" />
<path
   d="m 153.62375,180.16475 v -34.851 h 4.89 v 34.851 h -4.89 z"
   id="path18"
   inkscape:connector-curvature="0"
   style="stroke:none;fill:#000000" />
<path
   d="m 176.97875,149.94375 v 30.221 h -5.046 v -30.221 h -6.346 v -4.63 h 17.738 v 4.63 h -6.346 z"
   id="path20"
   inkscape:connector-curvature="0"
   style="stroke:none;fill:#000000" />
<path
   d="m 78.30575,94.469748 v 30.221002 h -5.045 V 94.469748 h -6.346 v -4.629 h 17.738 v 4.629 h -6.347 z"
   id="path22"
   inkscape:connector-curvature="0"
   style="stroke:none;fill:#000000" />
<path
   d="m 102.70075,124.68975 v -15.761 h -9.571 v 15.761 h -4.993 V 89.839748 h 4.993 v 14.200002 h 9.571 V 89.839748 h 4.994 v 34.850002 h -4.994 z"
   id="path24"
   inkscape:connector-curvature="0"
   style="stroke:none;fill:#000000" />
<path
   d="M 113.98775,124.68975 V 89.839748 h 16.385 v 4.889 h -11.392 v 8.791002 h 7.23 v 4.786 h -7.23 v 11.495 h 12.744 v 4.89 h -17.737 z"
   id="path26"
   inkscape:connector-curvature="0"
   style="stroke:none;fill:#000000" />
<path
   d="m 150.86775,124.68975 -2.445,-9.519 h -7.49 l -2.289,9.519 h -5.045 l 8.687,-34.850002 h 4.89 l 8.686,34.850002 h -4.994 z m -6.242,-24.447 -2.445,10.039 h 4.994 l -2.549,-10.039 z"
   id="path28"
   inkscape:connector-curvature="0"
   style="stroke:none;fill:#000000" />
<path
   d="m 168.03175,94.469748 v 30.221002 h -5.045 V 94.469748 h -6.346 v -4.629 h 17.736 v 4.629 h -6.345 z"
   id="path30"
   inkscape:connector-curvature="0"
   style="stroke:none;fill:#000000" />
<path
   d="m 192.27175,124.68975 -4.631,-16.385 h -4.785 v 16.385 h -4.994 V 89.839748 h 10.404 c 5.461,0 9.154,3.693 9.154,9.311 0,4.161002 -1.717,7.178002 -4.994,8.426002 l 4.994,17.113 h -5.148 z m -4.265,-29.960002 h -5.15 v 8.791002 h 5.15 c 2.912,0 4.525,-1.56 4.525,-4.369002 0,-2.706 -1.82,-4.422 -4.525,-4.422 z"
   id="path32"
   inkscape:connector-curvature="0"
   style="stroke:none;fill:#000000" />
<path
   d="M 201.99675,124.68975 V 89.839748 h 16.387 v 4.889 h -11.393 v 8.791002 h 7.23 v 4.786 h -7.23 v 11.495 h 12.744 v 4.89 h -17.738 z"
   id="path34"
   inkscape:connector-curvature="0"
   style="stroke:none;fill:#000000" />
</svg>