<?xml version="1.0" encoding="UTF-8" standalone="no"?>
<!-- Created with Inkscape (http://www.inkscape.org/) -->

<svg
   xmlns:dc="http://purl.org/dc/elements/1.1/"
   xmlns:cc="http://creativecommons.org/ns#"
   xmlns:rdf="http://www.w3.org/1999/02/22-rdf-syntax-ns#"
   xmlns:svg="http://www.w3.org/2000/svg"
   xmlns="http://www.w3.org/2000/svg"
   xmlns:sodipodi="http://sodipodi.sourceforge.net/DTD/sodipodi-0.dtd"
   xmlns:inkscape="http://www.inkscape.org/namespaces/inkscape"
   width="49.251999in"
   height="49.251999in"
   viewBox="0 0 1251.0008 1251.0008"
   version="1.1"
   id="svg7045"
   inkscape:version="0.92.2 (5c3e80d, 2017-08-06)"
   sodipodi:docname="88.svg">
  <defs
     id="defs7039" />
  <sodipodi:namedview
     id="base"
     pagecolor="#ffffff"
     bordercolor="#666666"
     borderopacity="1.0"
     inkscape:pageopacity="0.0"
     inkscape:pageshadow="2"
     inkscape:zoom="0.1048583"
     inkscape:cx="2800.7962"
     inkscape:cy="2375.9551"
     inkscape:document-units="in"
     inkscape:current-layer="layer1"
     showgrid="false"
     units="in"
     fit-margin-top="0"
     fit-margin-left="0"
     fit-margin-right="0"
     fit-margin-bottom="0"
     inkscape:window-width="1920"
     inkscape:window-height="1057"
     inkscape:window-x="-8"
     inkscape:window-y="-8"
     inkscape:window-maximized="1" />
  <metadata
     id="metadata7042">
    <rdf:RDF>
      <cc:Work
         rdf:about="">
        <dc:format>image/svg+xml</dc:format>
        <dc:type
           rdf:resource="http://purl.org/dc/dcmitype/StillImage" />
        <dc:title></dc:title>
      </cc:Work>
    </rdf:RDF>
  </metadata>
  <g
     inkscape:label="Layer 1"
     inkscape:groupmode="layer"
     id="layer1"
     transform="translate(-7.6875851e-7,954.00082)">
    <rect
       style="opacity:1;fill:#ffd400;fill-opacity:1;stroke:none;stroke-width:36.29109955;stroke-linejoin:round;stroke-miterlimit:4;stroke-dasharray:none;stroke-opacity:1"
       id="rect2313"
       width="914.40002"
       height="914.40002"
       x="-667.21063"
       y="-1131.7772"
       rx="57.150002"
       ry="57.150002"
       transform="matrix(-0.70710678,-0.70710678,-0.70710678,0.70710678,0,0)" />
    <rect
       ry="41.274998"
       rx="41.274998"
       y="-1115.9021"
       x="-651.33551"
       height="882.64996"
       width="882.64996"
       id="rect2315"
       style="opacity:1;fill:#000000;fill-opacity:1;stroke:none;stroke-width:35.0309906;stroke-linejoin:round;stroke-miterlimit:4;stroke-dasharray:none;stroke-opacity:1"
       transform="matrix(-0.70710678,-0.70710678,-0.70710678,0.70710678,0,0)" />
    <rect
       ry="19.049999"
       rx="19.049999"
       y="-1093.6772"
       x="-629.11053"
       height="838.20001"
       width="838.20001"
       id="rect2317"
       style="opacity:1;fill:#ffd400;fill-opacity:1;stroke:none;stroke-width:33.26684189;stroke-linejoin:round;stroke-miterlimit:4;stroke-dasharray:none;stroke-opacity:1"
       transform="matrix(-0.70710678,-0.70710678,-0.70710678,0.70710678,0,0)" />
    <path
       d="m 417.96859,-165.5888 v -74.84823 l -36.05367,74.84823 -35.68541,-74.84823 v 74.84823 h -21.59212 v -122.61424 h 21.59212 l 35.68541,72.65135 36.05367,-72.65135 h 21.59212 v 122.61424 z"
       id="path14"
       inkscape:connector-curvature="0"
       style="fill:#000000;stroke:none;stroke-width:0.26458335" />
    <path
       d="m 471.40074,-165.5888 v -122.61424 h 89.48976 v 21.96023 h -67.16534 v 22.68861 h 36.60191 v 22.50848 h -36.60191 v 33.49261 h 69.35829 v 21.96023 h -91.68271 z"
       id="path16"
       inkscape:connector-curvature="0"
       style="fill:#000000;stroke:none;stroke-width:0.26458335" />
    <path
       d="m 662.11769,-165.5888 -19.75957,-48.13019 H 609.5978 v 48.13019 h -21.96023 v -122.61424 h 56.36527 c 8.96736,0 14.64151,1.27645 21.04388,5.12183 11.71643,6.40645 19.03514,18.48297 19.03514,32.39628 0,13.72518 -7.31871,25.80169 -19.94348,32.57626 l 22.50848,52.51987 z M 644.36686,-266.23887 H 609.5978 v 30.56358 h 34.76906 c 10.79614,0 17.75476,-6.04228 17.75476,-15.00571 -0.004,-9.51953 -6.95862,-15.55787 -17.75476,-15.55787 z"
       id="path18"
       inkscape:connector-curvature="0"
       style="fill:#000000;stroke:none;stroke-width:0.26458335" />
    <path
       d="m 806.68824,-226.71594 v 15.92205 c 0,26.72213 -21.59228,47.39789 -48.6745,47.39789 -36.05352,0 -50.6911,-31.84394 -50.6911,-63.68397 0,-37.51419 20.12768,-63.31602 50.6911,-63.31602 21.96039,0 36.9661,11.71248 45.56535,30.55964 l -22.32458,7.69092 c -4.75765,-10.25199 -12.44055,-16.28625 -23.24077,-16.28625 -17.20637,0 -28.7348,17.2026 -28.7348,41.35564 0,19.7635 6.03833,41.72782 28.7348,41.72782 12.07667,0 22.87267,-8.23521 25.80184,-19.4034 H 763.6879 v -21.95631 h 43.00034 z"
       id="path20"
       inkscape:connector-curvature="0"
       style="fill:#000000;stroke:none;stroke-width:0.26458335" />
    <path
       d="m 834.68682,-165.5888 v -122.61424 h 89.48975 v 21.96023 h -67.1614 v 22.68861 H 893.613 v 22.50848 h -36.59783 v 33.49261 h 69.35814 v 21.96023 h -91.68649 z"
       id="path22"
       inkscape:connector-curvature="0"
       style="fill:#000000;stroke:none;stroke-width:0.26458335" />
    <path
       d="m 340.28382,-474.20571 v 105.4084 h -19.39871 v -105.4084 h -27.99772 v -17.20205 h 75.76224 v 17.20205 z"
       id="path24"
       inkscape:connector-curvature="0"
       style="fill:#000000;stroke:none;stroke-width:0.26458335" />
    <path
       d="m 455.39173,-368.79731 -19.7629,-53.43444 h -23.24004 v 53.43444 h -19.39873 v -122.60637 h 40.44196 c 9.51531,0 15.92156,0.91647 21.95971,3.84133 10.79566,5.12167 18.4824,18.11822 18.4824,30.55854 0,12.99655 -7.68674,25.80498 -19.03062,30.92665 l 21.59145,57.27592 h -21.04323 z m -8.60307,-101.01491 c -3.29312,-1.82872 -4.75765,-2.19683 -11.16376,-2.19683 h -23.24004 v 30.01048 h 23.24004 c 6.038,0 8.05077,-0.36448 11.16376,-2.01277 4.75766,-2.74489 7.68674,-7.86671 7.68674,-12.9964 0,-5.11789 -2.92908,-10.23956 -7.68674,-12.80448 z"
       id="path26"
       inkscape:connector-curvature="0"
       style="fill:#000000;stroke:none;stroke-width:0.26458335" />
    <path
       d="m 575.64014,-368.79731 -12.08023,-34.40382 h -38.24528 l -12.08008,34.40382 h -20.67514 l 42.27053,-122.61045 h 19.21466 l 42.27068,122.61045 z m -30.92679,-88.57067 -12.62437,34.40396 h 24.52054 z"
       id="path28"
       inkscape:connector-curvature="0"
       style="fill:#000000;stroke:none;stroke-width:0.26458335" />
    <path
       d="m 640.41452,-472.00905 v 30.01048 h 35.68446 v 19.76274 h -35.68446 v 53.43459 h -19.39873 v -122.60244 h 76.12642 v 19.39872 h -56.72769 z"
       id="path30"
       inkscape:connector-curvature="0"
       style="fill:#000000;stroke:none;stroke-width:0.26458335" />
    <path
       d="m 740.88135,-472.00905 v 30.01048 h 35.68446 v 19.76274 h -35.68446 v 53.43459 h -19.39871 v -122.60244 h 76.1264 v 19.39872 h -56.72769 z"
       id="path32"
       inkscape:connector-curvature="0"
       style="fill:#000000;stroke:none;stroke-width:0.26458335" />
    <path
       d="m 821.9534,-368.79731 v -122.60637 h 19.75896 v 122.61045 H 821.9534 Z"
       id="path34"
       inkscape:connector-curvature="0"
       style="fill:#000000;stroke:none;stroke-width:0.26458335" />
    <path
       d="m 921.13188,-366.6005 c -18.11429,0 -29.64237,-6.95432 -37.51302,-21.95956 -5.48599,-10.79974 -8.96315,-26.35319 -8.96315,-41.72245 0,-19.39872 5.12182,-38.79744 13.72475,-49.59325 7.32257,-8.96708 17.57015,-13.72474 31.47501,-13.72474 18.48241,0 30.01033,7.8708 38.24514,25.0727 l -18.11429,7.68659 c -6.76635,-10.43148 -10.79566,-12.99246 -20.12692,-12.99246 -9.8834,0 -16.46977,4.39362 -20.67921,15.18929 -3.10906,7.31848 -4.75358,17.93024 -4.75358,28.3658 0,13.35664 2.92093,26.71736 7.68267,34.40396 4.39348,6.40625 9.88734,9.51531 18.4824,9.51531 8.2389,0 14.27296,-4.38955 19.03455,-14.27297 l 18.47847,6.95448 c -7.32257,17.92616 -19.40674,27.0773 -36.97282,27.0773 z"
       id="path36"
       inkscape:connector-curvature="0"
       style="fill:#000000;stroke:none;stroke-width:0.26458335" />
    <path
       d="m 482.49293,-679.29636 v 107.26047 H 462.7534 v -107.26047 h -28.48961 v -17.50412 h 77.0933 v 17.50412 z"
       id="path38"
       inkscape:connector-curvature="0"
       style="fill:#000000;stroke:none;stroke-width:0.26458335" />
    <path
       d="m 594.96105,-572.03589 v -54.37737 h -45.43187 v 54.37336 h -19.73953 v -124.76058 h 19.73953 v 50.27711 h 45.43187 v -50.27711 h 19.73954 v 124.76459 z"
       id="path40"
       inkscape:connector-curvature="0"
       style="fill:#000000;stroke:none;stroke-width:0.26458335" />
    <path
       d="m 698.68727,-572.03589 -20.11011,-54.37322 H 654.9288 v 54.37322 h -19.74354 v -124.76459 h 41.15648 c 9.68248,0 16.19729,0.93258 22.34136,3.90882 10.98549,5.21581 18.80712,18.43654 18.80712,31.09958 0,13.22073 -7.82163,26.25418 -19.36496,31.47 l 21.97095,58.28218 h -21.40894 z m -8.75423,-102.78964 c -3.35096,-1.86484 -4.84124,-2.23542 -11.35988,-2.23542 H 654.9248 v 30.53758 h 23.64836 c 6.14823,0 8.1962,-0.37088 11.35988,-2.04798 4.84124,-2.79311 7.82181,-8.00492 7.82181,-13.22073 0,-5.21581 -2.9764,-10.42763 -7.82181,-13.03345 z"
       id="path42"
       inkscape:connector-curvature="0"
       style="fill:#000000;stroke:none;stroke-width:0.26458335" />
    <path
       d="m 810.97209,-590.84301 c -6.5188,12.28831 -21.41709,21.04253 -36.6858,21.04253 -15.26887,0 -30.16716,-8.75422 -36.86924,-21.04253 -3.35498,-7.45123 -5.58623,-16.20129 -5.58623,-25.88362 v -80.07385 h 19.73954 v 80.0697 c 0,16.20129 9.12047,26.81619 22.71593,26.81619 13.5953,0 22.71594,-10.6149 22.71594,-26.81619 v -80.0697 h 19.73953 v 80.0697 c 0,9.68648 -2.23141,18.43654 -5.76967,25.88777 z"
       id="path44"
       inkscape:connector-curvature="0"
       style="fill:#000000;stroke:none;stroke-width:0.26458335" />
    <path
       d="m 441.73139,39.804099 v -126.99593 h 20.09258 v 108.22542 h 58.7567 v 18.76644 h -78.84928 z"
       id="path46"
       inkscape:connector-curvature="0"
       style="fill:#000000;stroke:none;stroke-width:0.26458335" />
    <path
       d="m 539.34286,39.804099 v -126.99593 h 74.86631 v 20.09256 h -54.77373 v 31.08372 h 36.96063 v 20.46976 h -36.96063 v 34.87606 h 58.75669 v 20.46976 h -78.84927 z"
       id="path48"
       inkscape:connector-curvature="0"
       style="fill:#000000;stroke:none;stroke-width:0.26458335" />
    <path
       d="m 659.72214,-67.099271 v 31.08372 h 36.96064 v 20.46976 h -36.96064 v 55.34582 h -20.09679 v -126.99594 h 78.84926 v 20.09256 h -58.75247 z"
       id="path50"
       inkscape:connector-curvature="0"
       style="fill:#000000;stroke:none;stroke-width:0.26458335" />
    <path
       d="m 779.88797,-69.370441 v 109.17454 h -20.09256 v -109.17454 h -29.00335 v -17.82139 h 78.47207 v 17.82139 z"
       id="path52"
       inkscape:connector-curvature="0"
       style="fill:#000000;stroke:none;stroke-width:0.26458335" />
  </g>
</svg>
