<?xml version="1.0" encoding="UTF-8" standalone="no"?>
<svg
   xmlns:dc="http://purl.org/dc/elements/1.1/"
   xmlns:cc="http://creativecommons.org/ns#"
   xmlns:rdf="http://www.w3.org/1999/02/22-rdf-syntax-ns#"
   xmlns:svg="http://www.w3.org/2000/svg"
   xmlns="http://www.w3.org/2000/svg"
   xmlns:sodipodi="http://sodipodi.sourceforge.net/DTD/sodipodi-0.dtd"
   xmlns:inkscape="http://www.inkscape.org/namespaces/inkscape"
   width="89.985161"
   height="90.000931"
   viewBox="0 0 253.95815 254.00261"
   version="1.1"
   id="svg2"
   inkscape:version="0.48.2 r9819"
   sodipodi:docname="AJAX1.svg">
  <metadata
     id="metadata62">
    <rdf:RDF>
      <cc:Work
         rdf:about="">
        <dc:format>image/svg+xml</dc:format>
        <dc:type
           rdf:resource="http://purl.org/dc/dcmitype/StillImage" />
        <dc:title />
      </cc:Work>
    </rdf:RDF>
  </metadata>
  <defs
     id="defs60" />
  <sodipodi:namedview
     pagecolor="#ffffff"
     bordercolor="#666666"
     borderopacity="1"
     objecttolerance="10"
     gridtolerance="10"
     guidetolerance="10"
     inkscape:pageopacity="0"
     inkscape:pageshadow="2"
     inkscape:window-width="1280"
     inkscape:window-height="1004"
     id="namedview58"
     showgrid="false"
     fit-margin-top="0"
     fit-margin-left="0"
     fit-margin-right="0"
     fit-margin-bottom="0"
     inkscape:zoom="5.8194445"
     inkscape:cx="1.7723839"
     inkscape:cy="37.333002"
     inkscape:window-x="-8"
     inkscape:window-y="-8"
     inkscape:window-maximized="1"
     inkscape:current-layer="svg2"
     showguides="true"
     inkscape:guide-bbox="true" />
  <!-- draw the bicycle -->
  <!-- RIGHT -->
  <!-- LANE -->
  <!-- ONLY -->
  <path
     inkscape:connector-curvature="0"
     d="M 3.3615264,118.7608 118.71636,3.4025018 c 4.54025,-4.5367 11.94153,-4.5367 16.48178,0 L 250.55296,118.7608 c 4.54025,4.5367 4.54025,11.938 0,16.4783 L 135.19814,250.5974 c -4.54025,4.5403 -11.94153,4.5403 -16.48178,0 L 3.3615264,135.2391 c -4.48027,-4.4803 -4.4838,-11.9945 0,-16.4783"
     style="fill:#fecf33;fill-opacity:1;fill-rule:nonzero;stroke:none"
     id="path3260" />
  <path
     inkscape:connector-curvature="0"
     d="M 5.6764564,121.0211 120.97837,5.7227018 c 3.27025,-3.2702 8.68892,-3.2632 11.95917,0 L 248.23591,121.0211 c 3.27378,3.2738 3.25967,8.6819 0,11.9592 L 132.93754,248.2786 c -3.27731,3.2632 -8.68187,3.2703 -11.95917,0 L 5.6764564,132.9803 c -3.25614,-3.2773 -3.27025,-8.6854 0,-11.9592"
     style="fill:#000000;fill-opacity:1;fill-rule:evenodd;stroke:none"
     id="path3272" />
  <path
     inkscape:connector-curvature="0"
     d="M 8.9220164,124.1837 124.13926,8.9665018 c 1.524,-1.5734 4.11339,-1.5734 5.63739,0 L 244.99036,124.1837 c 1.57339,1.5205 1.57339,4.1134 0,5.6339 L 129.77665,245.0313 c -1.524,1.5769 -4.11692,1.5804 -5.63739,0 L 8.9220164,129.8176 c -1.56986,-1.5205 -1.56986,-4.1134 0,-5.6339"
     style="fill:#fecf33;fill-opacity:1;fill-rule:evenodd;stroke:none"
     id="path3276" />
  <path
     style="fill:#000000;fill-opacity:1;fill-rule:evenodd;stroke:none"
     d="M 53.09375 16.34375 C 51.851347 16.413417 51.808985 18.85664 50.96875 19.5 C 50.612502 19.7725 48.84 20.1075 48.96875 20.78125 C 49.0425 21.16375 50.091247 20.925 50.28125 20.875 C 50.701249 20.765 50.892498 20.50375 51.03125 21 C 51.12125 21.31625 51.188748 21.62375 51.28125 21.9375 C 51.48375 22.6425 51.751248 23.38125 52.25 23.9375 C 52.703749 24.44375 53.5625 24.6625 52.9375 25.4375 C 51.960001 26.6475 51.25 27.43125 50.96875 29.03125 C 50.871249 29.5925 50.916248 30.58125 50.53125 31.03125 C 50.091249 31.54375 49.062498 31.43 48.46875 31.46875 C 47.312498 31.545 45.608749 31.2375 44.625 31.96875 C 43.867498 32.53125 43.367502 30.8175 42.53125 31.28125 C 41.1075 32.0675 43.866252 33.5225 44.375 33.9375 C 43.871252 34.54625 43.347498 35.142499 42.84375 35.75 C 42.379998 36.3125 42.107501 37.128747 41.375 36.875 C 40.391251 36.532497 38.991249 36.8125 37.96875 36.8125 C 37.123749 36.8125 28.625 36.946252 28.625 36.65625 L 28.625 32.125 C 28.625 32.09125 26.73125 32.09375 26.53125 32.09375 C 26.2625 32.09375 26.40625 33.145 26.40625 33.375 L 26.40625 36.28125 C 26.40625 36.853749 26.4475 36.8125 25.875 36.8125 L 22.9375 36.8125 C 22.7075 36.8125 21.56625 36.631249 21.40625 36.8125 C 20.775 37.529998 19.5 38.2875 19.90625 39.25 C 20.51125 40.680001 21.11625 42.103747 21.71875 43.53125 C 22.87125 46.257499 24.03625 48.962506 25.1875 51.6875 C 22.34625 51.933753 20.0625 54.398751 20.0625 57.25 C 20.0625 60.032498 22.23625 62.477502 25 62.8125 C 27.7675 63.147502 30.43125 61.303749 31.09375 58.59375 C 31.42 57.258749 31.22 55.801249 30.5625 54.59375 C 30.2425 54.00375 29.82125 53.502497 29.3125 53.0625 C 29.02625 52.813749 27.90625 52.30375 27.90625 52 C 27.90625 51.658751 31.725 51.8125 32.28125 51.8125 C 33.3275 51.8125 33.88 53.4375 34.84375 53.4375 L 39.90625 53.4375 L 42.1875 53.4375 C 42.726253 53.4375 42.395001 54.171252 42.78125 54.28125 C 43.342499 54.43875 43.682499 54.4025 43.9375 54.9375 C 43.962498 55.1575 43.573749 55.6725 43.46875 55.875 C 43.236249 56.321248 44.161251 56.981256 44.53125 57 C 44.972498 57.0225 45.627501 56.959999 45.46875 57.625 C 45.42875 57.786252 45.190001 58.44375 45.3125 58.5625 C 46.045001 59.27625 46.027502 59.381248 47.03125 59.1875 C 47.887504 59.02375 47.312502 60.372498 47.90625 60.71875 C 48.0525 60.80375 48.521252 61.202503 48.6875 61.125 C 48.9175 61.020001 49.376249 60.676232 49.625 60.6875 C 50.230002 60.985 50.172498 61.16 50.34375 61.8125 C 50.428747 62.143753 50.670001 62.093748 51 62.1875 C 51.315 62.277504 51.493752 62.42625 51.75 62.21875 C 52.236252 61.825 52.273748 61.666248 52.90625 61.78125 C 53.374998 62.63625 53.348752 62.747518 54.3125 62.78125 C 55.0325 62.807502 54.953749 61.966236 55.625 61.9375 C 56.076251 61.917498 56.2075 62.259999 56.5 62.59375 C 56.725 62.848751 56.91875 62.71875 57.25 62.65625 C 58.199999 62.47625 57.668752 62.06 58.3125 61.53125 C 58.930003 61.3625 58.921247 61.362499 59.4375 61.71875 C 59.79125 61.964999 59.770001 61.989998 60.15625 61.8125 C 60.998753 61.427498 60.927498 61.331248 61.09375 60.40625 C 61.232499 59.632498 62.434998 60.652501 62.78125 60.375 C 63.536233 59.765002 63.602499 59.781251 63.53125 58.8125 C 63.448751 57.648751 64.793749 58.682501 65.09375 58.28125 C 65.703748 57.46 65.825003 57.437501 65.5 56.46875 C 65.126252 55.358767 66.7375 55.958751 66.96875 55.40625 C 67.371252 54.44375 67.345001 54.417498 66.78125 53.53125 C 66.248751 52.694998 68.027501 52.642502 68.09375 52.15625 C 68.227503 51.156254 68.240002 51.147502 67.5 50.46875 C 66.682502 49.718752 68.303752 49.42625 68.25 48.875 C 68.150001 47.827503 68.112498 47.831251 67.1875 47.3125 C 66.672498 47.022502 67.20375 46.433753 67.40625 46.1875 C 67.674999 45.863752 67.70375 45.892503 67.5625 45.5 C 67.503752 45.338751 67.397499 44.734998 67.21875 44.6875 C 66.955 44.614997 66.397501 44.577502 66.1875 44.40625 C 65.862501 43.718749 65.947501 43.682501 66.25 43 C 66.386251 42.693748 66.192501 42.583751 66 42.3125 C 65.80875 42.044998 65.76375 41.808709 65.4375 41.8125 C 64.899998 41.8175 64.64125 41.938752 64.28125 41.53125 C 63.906248 41.101252 64.094998 40.771247 64.1875 40.21875 C 64.215 40.046248 63.687497 39.729999 63.5625 39.625 C 63.244998 39.357498 63.28 39.36125 62.875 39.46875 C 62.235001 39.6425 62.211251 39.618748 61.625 39.25 C 61.46125 38.961249 61.749998 38.396251 61.5625 38.125 C 61.424998 37.927503 60.873749 37.766248 60.65625 37.65625 C 60.384999 37.517498 60.20125 37.70375 59.9375 37.84375 C 59.425 38.117502 59.4125 38.1225 58.84375 37.9375 C 59.21 37.5725 59.528749 36.726248 59.96875 36.59375 C 60.708748 36.371248 60.4375 35.852499 60.4375 35.125 C 59.6775 35.13625 59.045001 35.70375 58.3125 35.84375 C 58.291251 35.71375 58.27126 35.568748 58.25 35.4375 C 58.066248 34.451248 57.542501 33.5425 57.40625 32.5625 C 57.27625 31.61875 57.4875 30.705 57.65625 29.78125 C 57.995001 27.9125 58.416248 26.723749 57.40625 25.03125 C 57.112499 24.5425 55.027502 21.865 56.59375 21.71875 C 57.21875 21.66 57.820002 21.46375 58.3125 21.0625 C 58.522501 20.895 59.39125 20.02625 58.96875 19.71875 C 58.33375 19.26 57.308751 21.355 56.75 20.0625 C 56.411249 19.27625 56.088751 18.50375 55.75 17.71875 C 55.420001 16.95125 54.141249 16.49375 53.34375 16.34375 C 53.249531 16.326094 53.176577 16.339106 53.09375 16.34375 z M 46.375 33.3125 L 47 33.34375 L 47.34375 33.8125 L 50.71875 33.875 L 50.6875 34.53125 L 50.375 34.75 L 50.375 35.75 L 50.875 36.34375 L 47.9375 39.40625 L 43.40625 37.5 L 45.59375 34.84375 C 46.095 35.22375 46.5925 35.618751 47.09375 36 C 47.603749 36.41 48.386251 35.315 47.96875 34.96875 L 46.125 33.5625 L 46.375 33.3125 z "
     transform="matrix(2.8222225,0,0,2.8222225,0,-2.3166235e-5)"
     id="path3316" />
</svg>
