<?xml version="1.0" encoding="UTF-8" standalone="no"?>
<!-- Generator: Adobe Illustrator 12.0.1, SVG Export Plug-In  -->

<svg
   xmlns:dc="http://purl.org/dc/elements/1.1/"
   xmlns:cc="http://creativecommons.org/ns#"
   xmlns:rdf="http://www.w3.org/1999/02/22-rdf-syntax-ns#"
   xmlns:svg="http://www.w3.org/2000/svg"
   xmlns="http://www.w3.org/2000/svg"
   xmlns:sodipodi="http://sodipodi.sourceforge.net/DTD/sodipodi-0.dtd"
   xmlns:inkscape="http://www.inkscape.org/namespaces/inkscape"
   version="1.1"
   width="189.625"
   height="287.5"
   viewBox="-0.937 0 189.625 287.5"
   enable-background="new -0.937 0 192 288"
   xml:space="preserve"
   id="svg2"
   inkscape:version="0.48.2 r9819"
   sodipodi:docname="AJAX1.svg"><metadata
   id="metadata50"><rdf:RDF><cc:Work
       rdf:about=""><dc:format>image/svg+xml</dc:format><dc:type
         rdf:resource="http://purl.org/dc/dcmitype/StillImage" /></cc:Work></rdf:RDF></metadata><sodipodi:namedview
   pagecolor="#ffffff"
   bordercolor="#666666"
   borderopacity="1"
   objecttolerance="10"
   gridtolerance="10"
   guidetolerance="10"
   inkscape:pageopacity="0"
   inkscape:pageshadow="2"
   inkscape:window-width="1280"
   inkscape:window-height="1004"
   id="namedview48"
   showgrid="false"
   fit-margin-top="0"
   fit-margin-left="0"
   fit-margin-right="0"
   fit-margin-bottom="0"
   inkscape:zoom="2.3177389"
   inkscape:cx="90.908731"
   inkscape:cy="135.55108"
   inkscape:window-x="-8"
   inkscape:window-y="-8"
   inkscape:window-maximized="1"
   inkscape:current-layer="svg2" />
<defs
   id="defs4">
</defs>
<path
   d="m 18.88,0.743 h 150 c 10.489,0 19.066,8.582 19.066,19.07 v 247.873 c 0,10.493 -8.577,19.07 -19.066,19.07 h -150 c -10.489,0 -19.066,-8.577 -19.066,-19.07 V 19.813 c 0,-10.488 8.577,-19.07 19.066,-19.07 z"
   id="path6"
   style="fill:#ffffff;stroke:#000000;stroke-width:1.5;stroke-miterlimit:4;stroke-opacity:1;stroke-dasharray:none"
   inkscape:connector-curvature="0" />

<path
   clip-rule="evenodd"
   d="m 19.894,5.701 h 147.965 c 8.327,0 15.126,6.807 15.126,15.131 v 245.837 c 0,8.319 -6.799,15.13 -15.126,15.13 H 19.894 c -8.32,0 -15.126,-6.811 -15.126,-15.13 V 20.832 c 0,-8.324 6.806,-15.131 15.126,-15.131"
   id="path10"
   style="fill:#000000;fill-rule:evenodd;stroke:none"
   inkscape:connector-curvature="0" />
<path
   d="M 167.808,10.135 H 19.952 c -5.93,0 -10.755,4.825 -10.755,10.75 V 266.61 c 0,5.93 4.825,10.755 10.755,10.755 h 147.856 c 5.927,0 10.747,-4.825 10.747,-10.755 V 20.885 c 0,-5.926 -4.82,-10.75 -10.747,-10.75 z"
   id="path12"
   style="fill:#ffffff;stroke:none"
   inkscape:connector-curvature="0" />
<path
   d="m 62.768,219.806 c -0.923,0.417 -2.115,0.685 -3.664,0.685 h -3.693 v 8.698 H 52.253 V 209.23 h 6.851 c 1.609,0 2.681,0.149 3.664,0.626 1.728,0.834 3.068,2.949 3.068,4.975 0.001,2.114 -1.34,4.2 -3.068,4.975 z m -1.34,-7.06 c -0.566,-0.298 -0.923,-0.357 -1.906,-0.357 h -4.111 v 4.885 h 4.111 c 0.983,0 1.34,-0.06 1.906,-0.328 0.685,-0.357 1.191,-1.28 1.191,-2.114 0,-0.834 -0.506,-1.669 -1.191,-2.086 z"
   id="path14"
   style="fill:#000000;stroke:none"
   inkscape:connector-curvature="0" />
<path
   d="m 79.955,229.188 v -8.698 h -7.268 v 8.698 H 69.529 V 209.23 h 3.158 v 8.043 h 7.268 v -8.043 h 3.158 v 19.958 h -3.158 z"
   id="path16"
   style="fill:#000000;stroke:none"
   inkscape:connector-curvature="0" />
<path
   d="m 100.181,227.312 c -1.133,1.52 -2.742,2.234 -4.826,2.234 -2.8,0 -4.557,-1.132 -5.749,-3.574 -0.834,-1.698 -1.4,-4.35 -1.4,-6.732 0,-3.276 0.834,-6.226 2.175,-8.132 1.191,-1.52 2.8,-2.234 5.093,-2.234 2.531,0 4.289,1.132 5.541,3.575 0.834,1.757 1.34,4.289 1.34,6.791 0,3.156 -0.775,6.315 -2.174,8.072 z M 98.005,213.64 c -0.625,-1.043 -1.398,-1.46 -2.591,-1.549 -0.06,0 -0.119,0 -0.179,0 -1.43,0 -2.383,0.774 -3.038,2.472 -0.506,1.191 -0.774,3.009 -0.774,4.677 0,2.115 0.417,4.29 1.191,5.541 0.625,1.042 1.459,1.549 2.74,1.549 1.46,0 2.383,-0.774 3.068,-2.532 0.416,-1.043 0.773,-3.009 0.773,-4.558 0.002,-2.235 -0.414,-4.261 -1.19,-5.6 z"
   id="path18"
   style="fill:#000000;stroke:none"
   inkscape:connector-curvature="0" />
<path
   d="m 113.466,212.031 v 17.157 h -3.158 v -17.157 h -4.557 v -2.801 h 12.332 v 2.801 h -4.617 z"
   id="path20"
   style="fill:#000000;stroke:none"
   inkscape:connector-curvature="0" />
<path
   d="m 133.334,227.312 c -1.133,1.52 -2.74,2.234 -4.826,2.234 -2.799,0 -4.557,-1.132 -5.748,-3.574 -0.834,-1.698 -1.4,-4.35 -1.4,-6.732 0,-3.276 0.834,-6.226 2.174,-8.132 1.191,-1.52 2.801,-2.234 5.094,-2.234 2.531,0 4.289,1.132 5.541,3.575 0.834,1.757 1.34,4.289 1.34,6.791 -0.002,3.156 -0.775,6.315 -2.175,8.072 z m -2.176,-13.672 c -0.625,-1.043 -1.398,-1.46 -2.59,-1.549 -0.061,0 -0.119,0 -0.18,0 -1.43,0 -2.383,0.774 -3.039,2.472 -0.506,1.191 -0.773,3.009 -0.773,4.677 0,2.115 0.416,4.29 1.191,5.541 0.625,1.042 1.459,1.549 2.74,1.549 1.459,0 2.383,-0.774 3.068,-2.532 0.418,-1.043 0.775,-3.009 0.775,-4.558 0.001,-2.235 -0.417,-4.261 -1.192,-5.6 z"
   id="path22"
   style="fill:#000000;stroke:none"
   inkscape:connector-curvature="0" />
<path
   style="fill:#000000;fill-rule:evenodd;stroke:none"
   d="m 64.223998,30.132 59.313002,0 0,162.384 -59.313002,0 z"
   id="rect24"
   inkscape:connector-curvature="0" />
<path
   clip-rule="evenodd"
   d="m 93.879,37.512 c 12.284,0 22.303,9.957 22.303,22.162 0,12.205 -10.019,22.162 -22.303,22.162 -12.284,0 -22.303,-9.957 -22.303,-22.162 0,-12.205 10.018,-22.162 22.303,-22.162 z"
   id="path26"
   style="fill:#af1e2d;fill-opacity:1;fill-rule:evenodd;stroke:none"
   inkscape:connector-curvature="0" />
<path
   clip-rule="evenodd"
   d="m 93.879,89.104 c 12.284,0 22.303,9.961 22.303,22.166 0,12.209 -10.019,22.17 -22.303,22.17 -12.284,0 -22.303,-9.961 -22.303,-22.17 0,-12.205 10.018,-22.166 22.303,-22.166 z"
   id="path28"
   style="fill:#ffd033;fill-opacity:1;fill-rule:evenodd;stroke:none"
   inkscape:connector-curvature="0" />
<path
   clip-rule="evenodd"
   d="m 93.879,140.837 c 12.284,0 22.303,9.948 22.303,22.162 0,12.205 -10.019,22.161 -22.303,22.161 -12.284,0 -22.303,-9.956 -22.303,-22.161 0,-12.214 10.018,-22.162 22.303,-22.162 z"
   id="path30"
   style="fill:#006649;fill-opacity:1;fill-rule:evenodd;stroke:none"
   inkscape:connector-curvature="0" />
<path
   d="m 25.579,263.229 v -19.958 h 11.767 v 3.158 h -8.609 v 4.885 h 5.809 v 3.217 h -5.809 v 5.481 h 9.233 v 3.217 H 25.579 z"
   id="path32"
   style="fill:#000000;stroke:none"
   inkscape:connector-curvature="0" />
<path
   d="m 52.864,263.229 -7.625,-13.523 v 13.523 h -3.158 v -19.958 h 3.158 l 7.268,12.749 v -12.749 h 3.158 v 19.958 h -2.801 z"
   id="path34"
   style="fill:#000000;stroke:none"
   inkscape:connector-curvature="0" />
<path
   d="m 64.333,246.43 v 4.885 h 5.809 v 3.217 h -5.809 v 8.698 h -3.158 v -19.958 h 12.392 v 3.158 h -9.234 z"
   id="path36"
   style="fill:#000000;stroke:none"
   inkscape:connector-curvature="0" />
<path
   d="m 88.817,261.353 c -1.132,1.52 -2.74,2.234 -4.825,2.234 -2.8,0 -4.558,-1.132 -5.749,-3.574 -0.834,-1.698 -1.4,-4.35 -1.4,-6.732 0,-3.276 0.834,-6.226 2.175,-8.132 1.191,-1.52 2.8,-2.234 5.094,-2.234 2.532,0 4.289,1.132 5.54,3.575 0.835,1.757 1.341,4.289 1.341,6.791 -10e-4,3.157 -0.776,6.315 -2.176,8.072 z m -2.174,-13.672 c -0.626,-1.043 -1.4,-1.46 -2.592,-1.549 -0.06,0 -0.119,0 -0.179,0 -1.43,0 -2.383,0.774 -3.038,2.472 -0.507,1.191 -0.774,3.009 -0.774,4.677 0,2.115 0.417,4.29 1.191,5.541 0.625,1.042 1.459,1.549 2.74,1.549 1.46,0 2.383,-0.774 3.068,-2.532 0.417,-1.043 0.774,-3.009 0.774,-4.558 0.002,-2.235 -0.415,-4.26 -1.19,-5.6 z"
   id="path38"
   style="fill:#000000;stroke:none"
   inkscape:connector-curvature="0" />
<path
   d="m 106.303,263.229 -3.218,-8.698 h -3.783 v 8.698 h -3.157 v -19.958 h 6.583 c 1.549,0 2.592,0.149 3.575,0.626 1.757,0.834 3.008,2.949 3.008,4.975 0,2.114 -1.251,4.2 -3.098,5.034 l 3.515,9.323 h -3.425 z m -1.4,-16.442 c -0.536,-0.298 -0.774,-0.357 -1.817,-0.357 h -3.783 v 4.885 h 3.783 c 0.983,0 1.311,-0.06 1.817,-0.328 0.774,-0.446 1.251,-1.28 1.251,-2.114 0,-0.834 -0.477,-1.669 -1.251,-2.086 z"
   id="path40"
   style="fill:#000000;stroke:none"
   inkscape:connector-curvature="0" />
<path
   d="m 120.988,263.587 c -2.949,0 -4.826,-1.132 -6.106,-3.574 -0.894,-1.758 -1.46,-4.29 -1.46,-6.792 0,-3.157 0.834,-6.314 2.234,-8.072 1.191,-1.46 2.859,-2.234 5.123,-2.234 3.009,0 4.886,1.281 6.226,4.081 l -2.948,1.251 c -1.103,-1.697 -1.758,-2.114 -3.277,-2.114 -1.608,0 -2.681,0.715 -3.366,2.472 -0.506,1.191 -0.774,2.92 -0.774,4.617 0,2.175 0.477,4.35 1.252,5.601 0.715,1.042 1.608,1.549 3.008,1.549 1.341,0 2.323,-0.715 3.099,-2.323 l 3.008,1.132 c -1.194,2.917 -3.16,4.406 -6.019,4.406 z"
   id="path42"
   style="fill:#000000;stroke:none"
   inkscape:connector-curvature="0" />
<path
   d="m 132.097,263.229 v -19.958 h 11.767 v 3.158 h -8.609 v 4.885 h 5.809 v 3.217 h -5.809 v 5.481 h 9.234 v 3.217 h -12.392 z"
   id="path44"
   style="fill:#000000;stroke:none"
   inkscape:connector-curvature="0" />
<path
   d="m 158.668,262.098 c -0.745,0.715 -1.817,1.072 -2.859,1.132 -0.209,0 -0.626,0 -1.132,0 H 148.6 v -19.958 h 6.435 c 2.025,0 2.8,0.209 3.872,1.043 2.085,1.817 3.276,4.975 3.276,8.906 -0.001,3.991 -1.252,7.149 -3.515,8.877 z m -1.311,-14.834 c -0.507,-0.477 -1.191,-0.834 -2.025,-0.834 h -3.575 v 13.583 h 3.158 c 1.042,0 1.668,-0.209 2.233,-0.774 1.191,-1.191 1.817,-3.366 1.817,-6.018 0,-2.681 -0.626,-4.915 -1.608,-5.957 z"
   id="path46"
   style="fill:#000000;stroke:none"
   inkscape:connector-curvature="0" />
</svg>