<?xml version="1.0" encoding="UTF-8" standalone="no"?>
<!-- Generator: Adobe Illustrator 12.0.1, SVG Export Plug-In  -->

<svg
   xmlns:dc="http://purl.org/dc/elements/1.1/"
   xmlns:cc="http://creativecommons.org/ns#"
   xmlns:rdf="http://www.w3.org/1999/02/22-rdf-syntax-ns#"
   xmlns:svg="http://www.w3.org/2000/svg"
   xmlns="http://www.w3.org/2000/svg"
   xmlns:sodipodi="http://sodipodi.sourceforge.net/DTD/sodipodi-0.dtd"
   xmlns:inkscape="http://www.inkscape.org/namespaces/inkscape"
   version="1.1"
   width="282.125"
   height="282.09375"
   viewBox="-1 0 282.125 282.09375"
   enable-background="new -1 0 289 288"
   xml:space="preserve"
   id="svg2"
   inkscape:version="0.48.2 r9819"
   sodipodi:docname="AJAX1.svg"><metadata
   id="metadata22"><rdf:RDF><cc:Work
       rdf:about=""><dc:format>image/svg+xml</dc:format><dc:type
         rdf:resource="http://purl.org/dc/dcmitype/StillImage" /><dc:title /></cc:Work></rdf:RDF></metadata><sodipodi:namedview
   pagecolor="#ffffff"
   bordercolor="#666666"
   borderopacity="1"
   objecttolerance="10"
   gridtolerance="10"
   guidetolerance="10"
   inkscape:pageopacity="0"
   inkscape:pageshadow="2"
   inkscape:window-width="1280"
   inkscape:window-height="1004"
   id="namedview20"
   showgrid="false"
   fit-margin-top="0"
   fit-margin-left="0"
   fit-margin-right="0"
   fit-margin-bottom="0"
   inkscape:zoom="1.1588695"
   inkscape:cx="277.02548"
   inkscape:cy="107.93816"
   inkscape:window-x="-8"
   inkscape:window-y="-8"
   inkscape:window-maximized="1"
   inkscape:current-layer="svg2"
   showguides="true"
   inkscape:guide-bbox="true" />
<defs
   id="defs4">
</defs>







<path
   inkscape:connector-curvature="0"
   d="m 280.36375,263.80875 c 0,9.64625 -7.8925,17.53875 -17.53875,17.53875 l -245.535,0 c -9.645,0 -17.5375,-7.8925 -17.5375,-17.53875 l 0,-245.535 C -0.2475,8.6275 7.645,0.735 17.29,0.735 l 245.535,0 c 9.64625,0 17.53875,7.8925 17.53875,17.53875 l 0,245.535"
   style="fill:#ffffff;fill-opacity:1;fill-rule:nonzero;stroke:#000000;stroke-width:1.5;stroke-miterlimit:4;stroke-opacity:1;stroke-dasharray:none"
   id="path3839" /><path
   inkscape:connector-curvature="0"
   d="m 268.67162,263.80875 c 0,3.215 -2.63125,5.84625 -5.84625,5.84625 l -245.535,0 c -3.215,0 -5.84625,-2.63125 -5.84625,-5.84625 l 0,-245.535 c 0,-3.215 2.63125,-5.84625 5.84625,-5.84625 l 245.535,0 c 3.215,0 5.84625,2.63125 5.84625,5.84625 l 0,245.535 z M 262.82537,5.4125 l -245.535,0 C 10.21662,5.4125 4.42912,11.2 4.42912,18.27375 l 0,245.535 c 0,7.07375 5.7875,12.86125 12.86125,12.86125 l 245.535,0 c 7.07375,0 12.86125,-5.7875 12.86125,-12.86125 l 0,-245.535 c 0,-7.07375 -5.7875,-12.86125 -12.86125,-12.86125"
   style="fill:#000000;fill-opacity:1;fill-rule:nonzero;stroke:none"
   id="path3863" /><path
   inkscape:connector-curvature="0"
   d="m 177.773,37.10974 -5.44125,0 0,9.255 5.44125,0 c 3.05,0 4.72875,-1.6275 4.72875,-4.6275 0,-2.8475 -1.88125,-4.6275 -4.72875,-4.6275 m 4.47375,31.47625 -4.88,-17.23875 -5.035,0 0,17.23875 -5.2375,0 0,-36.6125 10.93375,0 c 5.79625,0 9.66,3.865 9.66,9.76375 0,4.3725 -1.83,7.57625 -5.2875,8.89875 l 5.2875,17.95 -5.44125,0"
   style="fill:#000000;fill-opacity:1;fill-rule:nonzero;stroke:none"
   id="path3867" /><path
   inkscape:connector-curvature="0"
   d="m 193.8925,68.58537 0,-36.61125 17.23625,0 0,5.135 -12,0 0,9.255 7.6275,0 0,4.98375 -7.6275,0 0,12.10125 13.37375,0 0,5.13625 -18.61,0 z"
   style="fill:#000000;fill-opacity:1;fill-rule:nonzero;stroke:none"
   id="path3871" /><path
   inkscape:connector-curvature="0"
   d="M 233.14825,40.8725 C 232.232,38.27875 230.707,37.11 228.4195,37.11 l -4.425,0 0,26.34 4.425,0 c 3.05,0 4.83,-2.44125 5.23625,-5.2375 0.35625,-2.34 0.50875,-4.8825 0.50875,-7.73 0,-4.11875 -0.4575,-8.085 -1.01625,-9.61 m 0.915,26.035 C 232.6895,67.975 231.012,68.585 228.877,68.585 l -10.11875,0 0,-36.61125 9.40625,0 c 3.05125,0 4.5775,0.4575 5.89875,1.42375 4.32125,3.305 5.28875,11.28875 5.28875,16.83125 0,8.44125 -1.78,13.83125 -5.28875,16.67875"
   style="fill:#000000;fill-opacity:1;fill-rule:nonzero;stroke:none"
   id="path3875" /><path
   inkscape:connector-curvature="0"
   d="m 133.1805,129.60499 0,-36.61125 5.23625,0 0,31.73 13.37375,0 0,4.88125 -18.61,0 z"
   style="fill:#000000;fill-opacity:1;fill-rule:nonzero;stroke:none"
   id="path3879" /><path
   inkscape:connector-curvature="0"
   d="m 156.97625,92.99375 5.13625,0 0,36.61125 -5.13625,0 0,-36.61125 z"
   style="fill:#000000;fill-opacity:1;fill-rule:nonzero;stroke:none"
   id="path3881" /><path
   inkscape:connector-curvature="0"
   d="m 188.80775,125.13013 c -1.42375,3.1525 -4.3725,5.085 -8.085,5.085 -4.32125,0 -7.57625,-2.18625 -9.35625,-6.255 -1.16875,-2.695 -1.98375,-7.83 -1.98375,-12.61 0,-5.13625 0.51,-8.8475 1.73,-12.305 1.3225,-3.865 4.9825,-6.66125 9.20375,-6.66125 5.2875,0 9.305,3.81375 9.55875,9.2025 l -5.28875,0 c -0.15125,-2.44 -1.83,-4.11875 -4.3725,-4.11875 -1.78,0 -3.20375,0.96625 -4.11875,2.69625 -1.01625,1.88125 -1.6775,5.8975 -1.6775,10.32125 0,3.05125 0.20375,6.30625 0.7625,9.1025 0.7625,3.61 2.59375,5.5425 5.39,5.5425 2.74625,0 4.01625,-1.83 4.01625,-5.695 l 0,-2.44125 -4.1175,0 0,-5.085 9.40625,0 0,7.52625 c 0,2.59375 -0.305,4.11875 -1.0675,5.695"
   style="fill:#000000;fill-opacity:1;fill-rule:nonzero;stroke:none"
   id="path3885" /><path
   inkscape:connector-curvature="0"
   d="m 212.45314,129.60499 0,-16.57625 -10.06875,0 0,16.57625 -5.2375,0 0,-36.61125 5.2375,0 0,14.89875 10.06875,0 0,-14.89875 5.2875,0 0,36.61125 -5.2875,0 z"
   style="fill:#000000;fill-opacity:1;fill-rule:nonzero;stroke:none"
   id="path3889" /><path
   inkscape:connector-curvature="0"
   d="m 234.77476,97.87513 0,31.73 -5.23625,0 0,-31.73 -6.71375,0 0,-4.88125 18.6625,0 0,4.88125 -6.7125,0 z"
   style="fill:#000000;fill-opacity:1;fill-rule:nonzero;stroke:none"
   id="path3893" /><path
   inkscape:connector-curvature="0"
   d="m 123.92464,159.1485 -5.44125,0 0,10.37375 5.44125,0 c 3.05125,0 4.72875,-1.88125 4.72875,-5.18625 0,-3.1525 -1.88125,-5.1875 -4.72875,-5.1875 m 0.25375,15.4075 -5.695,0 0,16.06875 -5.2375,0 0,-36.61125 10.9325,0 c 5.7975,0 9.6625,4.1175 9.6625,10.3225 0,6.61 -3.50875,10.22 -9.6625,10.22"
   style="fill:#000000;fill-opacity:1;fill-rule:nonzero;stroke:none"
   id="path3897" /><path
   inkscape:connector-curvature="0"
   d="m 156.41662,190.62511 0,-16.5775 -10.06875,0 0,16.5775 -5.23625,0 0,-36.6125 5.23625,0 0,14.89875 10.06875,0 0,-14.89875 5.28875,0 0,36.6125 -5.28875,0 z"
   style="fill:#000000;fill-opacity:1;fill-rule:nonzero;stroke:none"
   id="path3901" /><path
   inkscape:connector-curvature="0"
   d="m 184.33225,163.1655 c -0.915,-3.25375 -2.33875,-4.67875 -4.525,-4.67875 -2.34,0 -3.7125,1.425 -4.6275,4.52625 -0.86375,2.7975 -1.16875,5.2375 -1.16875,9.35625 0,4.0175 0.35625,6.3575 1.16875,9.255 0.86375,3.10125 2.2875,4.525 4.6275,4.525 2.18625,0 3.61,-1.42375 4.525,-4.525 0.865,-2.95 1.11875,-5.085 1.11875,-9.35625 0,-4.17 -0.40625,-6.4575 -1.11875,-9.1025 m 4.06875,21.815 c -1.83,4.3225 -4.475,6.25375 -8.59375,6.25375 -4.3725,0 -6.915,-1.93125 -8.695,-6.25375 -1.52625,-3.61 -2.13625,-7.11875 -2.13625,-12.7125 0,-5.4925 0.55875,-9.255 2.13625,-12.76375 1.88125,-4.3225 4.47375,-6.10125 8.695,-6.10125 4.22125,0 6.76375,1.77875 8.59375,6.255 1.475,3.61 2.08375,7.1175 2.08375,12.61 0,5.59375 -0.60875,9.20375 -2.08375,12.7125"
   style="fill:#000000;fill-opacity:1;fill-rule:nonzero;stroke:none"
   id="path3905" /><path
   inkscape:connector-curvature="0"
   d="m 206.75775,158.89387 0,31.73125 -5.2375,0 0,-31.73125 -6.71375,0 0,-4.88125 18.6625,0 0,4.88125 -6.71125,0 z"
   style="fill:#000000;fill-opacity:1;fill-rule:nonzero;stroke:none"
   id="path3909" /><path
   inkscape:connector-curvature="0"
   d="m 233.199,163.1655 c -0.91625,-3.25375 -2.34,-4.67875 -4.52625,-4.67875 -2.33875,0 -3.71125,1.425 -4.6275,4.52625 -0.86375,2.7975 -1.16875,5.2375 -1.16875,9.35625 0,4.0175 0.355,6.3575 1.16875,9.255 0.865,3.10125 2.28875,4.525 4.6275,4.525 2.18625,0 3.61,-1.42375 4.52625,-4.525 0.86375,-2.95 1.11875,-5.085 1.11875,-9.35625 0,-4.17 -0.40625,-6.4575 -1.11875,-9.1025 m 4.0675,21.815 c -1.83,4.3225 -4.475,6.25375 -8.59375,6.25375 -4.3725,0 -6.915,-1.93125 -8.695,-6.25375 -1.525,-3.61 -2.13625,-7.11875 -2.13625,-12.7125 0,-5.4925 0.55875,-9.255 2.13625,-12.76375 1.88125,-4.3225 4.47375,-6.10125 8.695,-6.10125 4.22125,0 6.76375,1.77875 8.59375,6.255 1.475,3.61 2.085,7.1175 2.085,12.61 0,5.59375 -0.61,9.20375 -2.085,12.7125"
   style="fill:#000000;fill-opacity:1;fill-rule:nonzero;stroke:none"
   id="path3913" /><path
   inkscape:connector-curvature="0"
   d="m 34.78599,251.64376 0,-36.61125 17.2375,0 0,5.13625 -12,0 0,9.255 7.6275,0 0,4.9825 -7.6275,0 0,12.1025 13.37375,0 0,5.135 -18.61125,0 z"
   style="fill:#000000;fill-opacity:1;fill-rule:nonzero;stroke:none"
   id="path3917" /><path
   inkscape:connector-curvature="0"
   d="m 76.22825,251.64376 -11.34,-24.56 0,24.56 -5.23625,0 0,-36.61125 5.23625,0 10.06875,21.9675 0,-21.9675 5.28875,0 0,36.61125 -4.0175,0 z"
   style="fill:#000000;fill-opacity:1;fill-rule:nonzero;stroke:none"
   id="path3921" /><path
   inkscape:connector-curvature="0"
   d="m 93.51675,220.1685 0,9.255 7.3225,0 0,4.9825 -7.3225,0 0,17.2375 -5.2375,0 0,-36.61 18.61125,0 0,5.135 -13.37375,0 z"
   style="fill:#000000;fill-opacity:1;fill-rule:nonzero;stroke:none"
   id="path3925" /><path
   inkscape:connector-curvature="0"
   d="m 126.66987,224.18538 c -0.915,-3.25375 -2.33875,-4.67875 -4.52625,-4.67875 -2.33875,0 -3.71125,1.425 -4.62625,4.52625 -0.865,2.79625 -1.17,5.2375 -1.17,9.35625 0,4.0175 0.35625,6.35625 1.17,9.25375 0.86375,3.1025 2.2875,4.52625 4.62625,4.52625 2.1875,0 3.61125,-1.42375 4.52625,-4.52625 0.865,-2.94875 1.11875,-5.08375 1.11875,-9.35625 0,-4.16875 -0.40625,-6.4575 -1.11875,-9.10125 m 4.06875,21.815 c -1.83125,4.3225 -4.47625,6.25375 -8.595,6.25375 -4.3725,0 -6.915,-1.93125 -8.695,-6.25375 -1.525,-3.61 -2.135,-7.11875 -2.135,-12.71375 0,-5.49125 0.55875,-9.25375 2.135,-12.7625 1.88125,-4.3225 4.475,-6.10125 8.695,-6.10125 4.22125,0 6.76375,1.77875 8.595,6.25375 1.47375,3.61 2.085,7.11875 2.085,12.61 0,5.595 -0.61125,9.205 -2.085,12.71375"
   style="fill:#000000;fill-opacity:1;fill-rule:nonzero;stroke:none"
   id="path3929" /><path
   inkscape:connector-curvature="0"
   d="m 150.77187,220.1685 -5.44125,0 0,9.255 5.44125,0 c 3.05125,0 4.73,-1.6275 4.73,-4.6275 0,-2.8475 -1.8825,-4.6275 -4.73,-4.6275 m 4.475,31.475 -4.88125,-17.2375 -5.035,0 0,17.2375 -5.23625,0 0,-36.61 10.9325,0 c 5.79625,0 9.66125,3.86375 9.66125,9.7625 0,4.3725 -1.83,7.57625 -5.28875,8.8975 l 5.28875,17.95 -5.44125,0"
   style="fill:#000000;fill-opacity:1;fill-rule:nonzero;stroke:none"
   id="path3933" /><path
   inkscape:connector-curvature="0"
   d="m 177.46762,252.25437 c -7.83,0 -11.33875,-6.25375 -11.33875,-19.73 0,-11.8475 3.7625,-18.1025 10.9325,-18.1025 6.05125,0 9.20375,5.39125 9.56,10.37375 l -5.28875,0 c -0.50875,-3.61 -1.9325,-5.28875 -4.3725,-5.28875 -4.22125,0 -5.7975,3.40625 -5.7975,12.86625 0,10.525 1.83125,14.79625 6.305,14.79625 3.1025,0 3.865,-2.5925 3.865,-5.28875 l 5.28875,0 c -0.15375,6.05125 -4.01875,10.37375 -9.15375,10.37375"
   style="fill:#000000;fill-opacity:1;fill-rule:nonzero;stroke:none"
   id="path3937" /><path
   inkscape:connector-curvature="0"
   d="m 233.14825,223.93075 c -0.91625,-2.5925 -2.44125,-3.7625 -4.72875,-3.7625 l -4.425,0 0,26.34 4.425,0 c 3.05,0 4.83,-2.44125 5.23625,-5.2375 0.35625,-2.33875 0.50875,-4.88125 0.50875,-7.72875 0,-4.11875 -0.4575,-8.085 -1.01625,-9.61125 m 0.915,26.03625 c -1.37375,1.0675 -3.05125,1.67625 -5.18625,1.67625 l -10.11875,0 0,-36.61 9.40625,0 c 3.05125,0 4.5775,0.4575 5.89875,1.42375 4.32125,3.305 5.28875,11.2875 5.28875,16.83 0,8.44125 -1.78,13.8325 -5.28875,16.68"
   style="fill:#000000;fill-opacity:1;fill-rule:nonzero;stroke:none"
   id="path3945" /><path
   inkscape:connector-curvature="0"
   d="m 93.275,180.57375 -60.145,0 0,-149.64 60.145,0 0,149.64 z"
   style="fill:#000000;fill-opacity:1;fill-rule:nonzero;stroke:none"
   id="path3947" /><path
   inkscape:connector-curvature="0"
   d="m 83.65189,58.11864 c 0,11.29375 -9.155,20.44875 -20.44875,20.44875 -11.29375,0 -20.45,-9.155 -20.45,-20.44875 0,-11.29375 9.15625,-20.44875 20.45,-20.44875 11.29375,0 20.44875,9.155 20.44875,20.44875"
   style="fill:#bf2033;fill-opacity:1;fill-rule:nonzero;stroke:none"
   id="path3951" /><path
   inkscape:connector-curvature="0"
   d="m 83.65189,104.47825 c 0,11.29375 -9.155,20.44875 -20.44875,20.44875 -11.29375,0 -20.45,-9.155 -20.45,-20.44875 0,-11.29375 9.15625,-20.44875 20.45,-20.44875 11.29375,0 20.44875,9.155 20.44875,20.44875"
   style="fill:#f2d11b;fill-opacity:1;fill-rule:nonzero;stroke:none"
   id="path3955" /><path
   inkscape:connector-curvature="0"
   d="m 83.65189,152.90625 c 0,11.295 -9.155,20.45 -20.44875,20.45 -11.29375,0 -20.45,-9.155 -20.45,-20.45 0,-11.29375 9.15625,-20.44875 20.45,-20.44875 11.29375,0 20.44875,9.155 20.44875,20.44875"
   style="fill:#006649;fill-opacity:1;fill-rule:nonzero;stroke:none"
   id="path3959" /><path
   inkscape:connector-curvature="0"
   d="m 193.8925,251.64376 0,-36.61125 17.23625,0 0,5.13625 -12,0 0,9.255 7.6275,0 0,4.9825 -7.6275,0 0,12.1025 13.37375,0 0,5.135 -18.61,0 z"
   style="fill:#000000;fill-opacity:1;fill-rule:nonzero;stroke:none"
   id="path6814" /></svg>