<?xml version="1.0" encoding="UTF-8" standalone="no"?>
<!-- Generator: Adobe Illustrator 12.0.1, SVG Export Plug-In  -->

<svg
   xmlns:dc="http://purl.org/dc/elements/1.1/"
   xmlns:cc="http://creativecommons.org/ns#"
   xmlns:rdf="http://www.w3.org/1999/02/22-rdf-syntax-ns#"
   xmlns:svg="http://www.w3.org/2000/svg"
   xmlns="http://www.w3.org/2000/svg"
   xmlns:sodipodi="http://sodipodi.sourceforge.net/DTD/sodipodi-0.dtd"
   xmlns:inkscape="http://www.inkscape.org/namespaces/inkscape"
   version="1.1"
   width="285.99326"
   height="286.00476"
   viewBox="0 0 285.99326 286.00476"
   enable-background="new 0 0 288 288"
   xml:space="preserve"
   id="svg2"
   inkscape:version="0.48.2 r9819"
   sodipodi:docname="AJAX1.svg"><metadata
   id="metadata42"><rdf:RDF><cc:Work
       rdf:about=""><dc:format>image/svg+xml</dc:format><dc:type
         rdf:resource="http://purl.org/dc/dcmitype/StillImage" /></cc:Work></rdf:RDF></metadata><sodipodi:namedview
   pagecolor="#ffffff"
   bordercolor="#666666"
   borderopacity="1"
   objecttolerance="10"
   gridtolerance="10"
   guidetolerance="10"
   inkscape:pageopacity="0"
   inkscape:pageshadow="2"
   inkscape:window-width="1280"
   inkscape:window-height="1004"
   id="namedview40"
   showgrid="false"
   fit-margin-top="0"
   fit-margin-left="0"
   fit-margin-right="0"
   fit-margin-bottom="0"
   inkscape:zoom="2.3177389"
   inkscape:cx="48.01072"
   inkscape:cy="119.08141"
   inkscape:window-x="-8"
   inkscape:window-y="-8"
   inkscape:window-maximized="1"
   inkscape:current-layer="svg2" />
<defs
   id="defs4">
</defs>
<path
   d="M 4.0905,133.0755 133.0735,4.0934974 c 5.458,-5.458 14.388,-5.458 19.845,0 L 281.9005,133.0745 c 5.457,5.458 5.457,14.387 0,19.846 l -128.982,128.987 c -5.457,5.463 -14.387,5.463 -19.845,0 L 4.0905,152.9215 c -5.454,-5.459 -5.454,-14.388 0,-19.846 z"
   id="path6"
   style="fill:#ffd033;stroke:none;fill-opacity:1"
   inkscape:connector-curvature="0" />

<path
   clip-rule="evenodd"
   d="M 7.2015,135.1255 135.1275,7.2024974 c 4.325,-4.329 11.412,-4.329 15.746,0 L 278.7915,135.1255 c 4.325,4.333 4.325,11.416 0,15.745 l -127.918,127.927 c -4.334,4.329 -11.42,4.329 -15.746,0 L 7.2015,150.8705 c -4.326,-4.329 -4.326,-11.412 0,-15.745"
   id="path10"
   inkscape:connector-curvature="0"
   style="fill-rule:evenodd;stroke:none;fill:#000000" />
<path
   clip-rule="evenodd"
   d="M 11.2005,139.0665 139.0625,11.204497 c 2.163,-2.1669996 5.704,-2.1669996 7.865,0 L 274.7915,139.0675 c 2.165,2.164 2.165,5.704 0,7.868 l -127.863,127.867 c -2.161,2.164 -5.703,2.164 -7.865,0 L 11.2005,146.9355 c -2.164,-2.165 -2.164,-5.705 0,-7.869"
   id="path12"
   style="fill:#ffd033;fill-rule:evenodd;stroke:none;fill-opacity:1"
   inkscape:connector-curvature="0" />
<path
   transform="translate(-1.0035,-1.0025026)"
   style="stroke:none;fill:#000000"
   d="m 67.866,110.669 0,30.117 -5.533,0 0,-30.117 -7.988,0 0,-4.911 21.634,0 0,4.911 -8.113,0"
   id="polyline14" />
<path
   d="m 103.9765,139.7835 -6.147,-16.349 c 3.199,-1.469 5.41,-5.163 5.41,-8.847 0,-3.563 -2.211,-7.25 -5.286,-8.73 -1.718,-0.854 -3.563,-1.102 -6.27,-1.102 h -11.55 v 35.028 h 5.527 v -15.242 h 6.642 l 5.651,15.242 h 6.023 m -6.269,-25.196 c 0,1.474 -0.861,2.95 -2.214,3.684 -0.861,0.493 -1.472,0.619 -3.191,0.619 h -6.642 v -8.605 h 6.642 c 1.842,0 2.33,0.126 3.191,0.614 1.353,0.74 2.214,2.214 2.214,3.688 z"
   id="path16"
   inkscape:connector-curvature="0"
   style="stroke:none;fill:#000000" />
<path
   d="m 136.4225,139.7835 -12.046,-35.028 h -5.527 l -12.047,35.028 h 5.9 l 3.444,-9.833 h 10.931 l 3.445,9.833 h 5.9 m -11.304,-15.489 h -7.013 l 3.568,-9.833 3.445,9.833 z"
   id="path18"
   inkscape:connector-curvature="0"
   style="stroke:none;fill:#000000" />
<path
   transform="translate(-1.0035,-1.0025026)"
   style="stroke:none;fill:#000000"
   d="m 148.239,111.288 0,8.605 10.2,0 0,5.651 -10.2,0 0,15.242 -5.527,0 0,-35.028 21.747,0 0,5.53 -16.22,0"
   id="polyline20" />
<path
   transform="translate(-1.0035,-1.0025026)"
   style="stroke:none;fill:#000000"
   d="m 175.157,111.288 0,8.605 10.197,0 0,5.651 -10.197,0 0,15.242 -5.535,0 0,-35.028 21.755,0 0,5.53 -16.22,0"
   id="polyline22" />
<path
   style="stroke:none;fill:#000000"
   d="m 195.5365,104.7555 5.65,0 0,35.028 -5.65,0 z"
   id="rect24" />
<path
   d="m 222.0825,140.3975 c -5.163,0 -8.484,-1.967 -10.69,-6.27 -1.603,-3.069 -2.586,-7.492 -2.586,-11.92 0,-5.531 1.479,-11.061 3.935,-14.135 2.088,-2.576 5.039,-3.93 8.972,-3.93 5.286,0 8.603,2.214 10.939,7.13 l -5.165,2.204 c -1.965,-2.949 -3.072,-3.684 -5.774,-3.684 -2.825,0 -4.67,1.233 -5.9,4.303 -0.86,2.094 -1.353,5.163 -1.353,8.112 0,3.809 0.865,7.624 2.214,9.832 1.23,1.847 2.83,2.708 5.286,2.708 2.337,0 4.055,-1.233 5.403,-4.061 l 5.289,1.973 c -2.092,5.162 -5.536,7.738 -10.57,7.738"
   id="path26"
   inkscape:connector-curvature="0"
   style="stroke:none;fill:#000000" />
<path
   d="m 80.9945,191.8525 c -5.166,0 -8.479,-1.974 -10.693,-6.274 -1.595,-3.075 -2.584,-7.493 -2.584,-11.922 0,-5.529 1.478,-11.055 3.938,-14.13 2.09,-2.586 5.034,-3.94 8.971,-3.94 5.281,0 8.602,2.226 10.934,7.137 l -5.157,2.209 c -1.968,-2.948 -3.075,-3.683 -5.777,-3.683 -2.825,0 -4.672,1.228 -5.897,4.297 -0.866,2.099 -1.354,5.162 -1.354,8.11 0,3.815 0.858,7.624 2.212,9.833 1.225,1.847 2.828,2.707 5.283,2.707 2.334,0 4.056,-1.228 5.41,-4.056 l 5.28,1.968 c -2.085,5.162 -5.527,7.744 -10.566,7.744"
   id="path28"
   inkscape:connector-curvature="0"
   style="stroke:none;fill:#000000" />
<path
   style="stroke:none;fill:#000000"
   d="m 99.184502,156.2065 5.650998,0 0,35.027 -5.650998,0 z"
   id="rect30" />
<path
   d="m 137.0335,191.2335 -6.141,-16.349 c 3.192,-1.47 5.406,-5.162 5.406,-8.846 0,-3.563 -2.214,-7.252 -5.28,-8.727 -1.727,-0.855 -3.568,-1.106 -6.27,-1.106 h -11.554 v 35.027 h 5.531 v -15.235 h 6.64 l 5.653,15.236 h 6.015 m -6.265,-25.194 c 0,1.479 -0.857,2.948 -2.211,3.684 -0.86,0.498 -1.474,0.618 -3.192,0.618 h -6.64 v -8.599 h 6.64 c 1.836,0 2.332,0.12 3.192,0.613 1.354,0.735 2.211,2.204 2.211,3.684 z"
   id="path32"
   inkscape:connector-curvature="0"
   style="stroke:none;fill:#000000" />
<path
   d="m 155.4735,191.8525 c -5.162,0 -8.483,-1.974 -10.697,-6.274 -1.596,-3.075 -2.579,-7.493 -2.579,-11.922 0,-5.529 1.479,-11.055 3.935,-14.13 2.088,-2.586 5.039,-3.94 8.973,-3.94 5.28,0 8.602,2.226 10.936,7.137 l -5.162,2.209 c -1.965,-2.948 -3.072,-3.683 -5.773,-3.683 -2.828,0 -4.671,1.228 -5.9,4.297 -0.861,2.099 -1.349,5.162 -1.349,8.11 0,3.815 0.86,7.624 2.209,9.833 1.23,1.847 2.825,2.707 5.286,2.707 2.337,0 4.051,-1.228 5.403,-4.056 l 5.286,1.968 c -2.09,5.162 -5.529,7.744 -10.568,7.744"
   id="path34"
   inkscape:connector-curvature="0"
   style="stroke:none;fill:#000000" />
<path
   transform="translate(-1.0035,-1.0025026)"
   style="stroke:none;fill:#000000"
   d="m 174.662,192.236 0,-35.027 5.529,0 0,29.864 16.226,0 0,5.163 -21.755,0"
   id="polyline36" />
<path
   transform="translate(-1.0035,-1.0025026)"
   style="stroke:none;fill:#000000"
   d="m 201.58,192.236 0,-35.027 20.645,0 0,5.536 -15.118,0 0,8.599 10.205,0 0,5.656 -10.205,0 0,9.581 16.225,0 0,5.655 -21.752,0"
   id="polyline38" />
</svg>