<?xml version="1.0" encoding="UTF-8" standalone="no"?>
<svg
   xmlns:dc="http://purl.org/dc/elements/1.1/"
   xmlns:cc="http://creativecommons.org/ns#"
   xmlns:rdf="http://www.w3.org/1999/02/22-rdf-syntax-ns#"
   xmlns:svg="http://www.w3.org/2000/svg"
   xmlns="http://www.w3.org/2000/svg"
   xmlns:sodipodi="http://sodipodi.sourceforge.net/DTD/sodipodi-0.dtd"
   xmlns:inkscape="http://www.inkscape.org/namespaces/inkscape"
   width="86.744064"
   height="86.745003"
   viewBox="0 0 244.81101 244.81367"
   version="1.1"
   id="svg2"
   inkscape:version="0.48.2 r9819"
   sodipodi:docname="MUTCD W10-4L.svg">
  <metadata
     id="metadata62">
    <rdf:RDF>
      <cc:Work
         rdf:about="">
        <dc:format>image/svg+xml</dc:format>
        <dc:type
           rdf:resource="http://purl.org/dc/dcmitype/StillImage" />
        <dc:title></dc:title>
      </cc:Work>
    </rdf:RDF>
  </metadata>
  <defs
     id="defs60">
    <clipPath
       clipPathUnits="userSpaceOnUse"
       id="clipPath3564">
      <path
         inkscape:connector-curvature="0"
         d="m 63,43 512.622,0 0,313.129 L 63,356.129 63,43 z"
         id="path3566" />
    </clipPath>
  </defs>
  <sodipodi:namedview
     pagecolor="#ffffff"
     bordercolor="#666666"
     borderopacity="1"
     objecttolerance="10"
     gridtolerance="10"
     guidetolerance="10"
     inkscape:pageopacity="0"
     inkscape:pageshadow="2"
     inkscape:window-width="1280"
     inkscape:window-height="1004"
     id="namedview58"
     showgrid="false"
     fit-margin-top="0"
     fit-margin-left="0"
     fit-margin-right="0"
     fit-margin-bottom="0"
     inkscape:zoom="4.8826954"
     inkscape:cx="55.300578"
     inkscape:cy="15.695003"
     inkscape:window-x="-8"
     inkscape:window-y="-8"
     inkscape:window-maximized="1"
     inkscape:current-layer="svg2"
     showguides="true"
     inkscape:guide-bbox="true" />
  <polygon
     points="315,545 235,375 315,205 395,375 "
     id="polygon10"
     style="fill:none;stroke:#ffffff;stroke-width:40"
     transform="translate(21490.334,14695.177)" />
  <!-- draw the bicycle -->
  <!-- RIGHT -->
  <!-- LANE -->
  <!-- ONLY -->
  <path
     inkscape:connector-curvature="0"
     d="M 3.5004317,113.91194 113.90576,3.503085 c 4.6743,-4.67078 12.32252,-4.67078 16.98977,0 l 110.4124,110.408855 c 4.67078,4.67784 4.67078,12.319 0,16.98978 l -110.4124,110.40886 c -4.66725,4.67078 -12.31547,4.67078 -16.98977,0 L 3.5004317,130.90172 c -4.66725,-4.67078 -4.66725,-12.31194 0,-16.98978"
     style="fill:#ffd033;fill-opacity:1;fill-rule:nonzero;stroke:none"
     id="path3555" />
  <path
     inkscape:connector-curvature="0"
     d="M 6.1568717,115.67231 115.65909,6.166555 c 3.70769,-3.70417 9.76842,-3.70417 13.48317,0 L 238.63743,115.67231 c 3.7077,3.70063 3.7077,9.76841 0,13.47258 L 129.14226,238.64358 c -3.71475,3.7077 -9.77548,3.7077 -13.48317,0 L 6.1568717,129.14489 c -3.70417,-3.70417 -3.70417,-9.77195 0,-13.47258"
     style="fill:#000000;fill-opacity:1;fill-rule:evenodd;stroke:none"
     id="path3563" />
  <path
     inkscape:connector-curvature="0"
     d="M 9.5787917,119.04489 119.03162,9.592055 c 1.84855,-1.85208 4.88244,-1.85208 6.73452,0 L 235.21546,119.04489 c 1.85561,1.84503 1.85561,4.87539 0,6.731 l -109.44932,109.4493 c -1.85208,1.85562 -4.88597,1.85562 -6.73452,0 L 9.5787917,125.77589 c -1.85209,-1.85561 -1.85209,-4.88597 0,-6.731"
     style="fill:#ffd033;fill-opacity:1;fill-rule:evenodd;stroke:none"
     id="path3567" />
  <path
     inkscape:connector-curvature="0"
     d="m 166.96357,91.729275 c 0,-3.45369 -2.01789,-6.06425 -6.65339,-8.75947 -1.76741,-1.00895 -2.27189,-1.68628 -2.27189,-2.86809 0,-1.59808 1.26295,-2.77636 2.86103,-2.77636 1.51342,0 2.69522,1.09714 2.77284,2.77636 l 3.29141,0 c -0.0811,-3.6195 -2.69875,-6.23005 -6.06425,-6.23005 -3.45369,0 -6.14891,2.77636 -6.14891,6.23005 0,2.11314 1.00894,3.96523 2.94922,5.31284 4.88244,3.28436 3.53836,2.35655 4.04283,2.86103 1.42875,1.09713 1.9297,2.10961 1.9297,3.45369 0,1.94028 -1.50989,3.62303 -3.36198,3.62303 -2.36008,0 -3.36902,-2.10256 -3.36902,-4.1275 l -3.37256,0 c 0,3.96169 2.52942,7.51416 6.74158,7.51416 3.70417,0 6.65339,-3.13266 6.65339,-7.00969 m -17.35314,6.57225 0,-24.00653 -3.45723,0 0,14.40392 -6.57225,-14.40392 -3.45017,0 0,24.00653 3.45017,0 0,-16.08667 7.42246,16.08667 2.60702,0 z m -18.70428,-24.00653 -3.37256,0 0,24.00653 3.37256,0 0,-24.00653 z m -12.6365,14.06878 -3.45017,0 1.68628,-6.91092 1.76389,6.91092 z m 5.97605,9.93775 -5.97605,-24.00653 -3.3655,0 -5.98312,24.00653 3.4537,0 1.59808,-6.57225 5.13997,0 1.67922,6.57225 3.4537,0 z m -20.79978,-17.60714 c 0,1.93675 -1.09714,3.03389 -3.11502,3.03389 l -3.541888,0 0,-6.06425 3.541888,0 c 1.85208,0 3.11502,1.18181 3.11502,3.03036 m 3.36903,17.60714 -3.45369,-11.79336 c 2.27541,-0.84314 3.45369,-2.94922 3.45369,-5.81378 0,-3.8735 -2.52589,-6.39939 -6.31825,-6.39939 l -7.161378,0 0,24.00653 3.45369,0 0,-11.28536 3.287878,0 3.20322,11.28536 3.53484,0 z m -16.763988,-20.80683 0,-3.1997 -12.21317,0 0,3.1997 4.37797,0 0,20.80683 3.45369,0 0,-20.80683 4.38151,0 z"
     style="fill:#000000;fill-opacity:1;fill-rule:evenodd;stroke:none"
     id="path3571" />
  <path
     inkscape:connector-curvature="0"
     d="m 200.02588,122.57969 c 0,1.85209 -0.17286,3.53131 -0.33514,5.05178 -0.33867,1.85209 -1.43581,3.45722 -3.4537,3.45722 l -2.86455,0 0,-17.27552 2.86455,0 c 1.51342,0 2.52589,0.762 3.11503,2.44475 0.42333,1.01247 0.67381,3.62302 0.67381,6.32177 m 3.36902,-0.16933 c 0,-1.85561 -0.25047,-3.95817 -0.59266,-5.72911 -0.41628,-2.44475 -1.42522,-4.29683 -2.86103,-5.30931 -0.84314,-0.67733 -1.85208,-0.9278 -3.86997,-0.9278 l -6.14892,0 0,24.01005 6.64986,0 c 1.35114,0 2.52589,-0.33513 3.36903,-1.09361 2.35656,-1.85561 3.45369,-5.39044 3.45369,-10.95022 m -17.51894,12.04383 0,-3.3655 -8.76653,0 0,-7.92338 4.97417,0 0,-3.28437 -4.97417,0 0,-6.06777 7.8352,0 0,-3.36903 -11.28889,0 0,24.01005 12.22022,0 z m -16.26306,0 0,-3.3655 -8.75947,0 0,-7.92338 4.97417,0 0,-3.28437 -4.97417,0 0,-6.06777 7.8352,0 0,-3.36903 -11.28889,0 0,24.01005 12.21316,0 z m -16.92627,-17.60713 c -0.254,-2.19075 -0.59267,-3.20323 -1.524,-4.3815 -1.09361,-1.60162 -2.77636,-2.4377 -4.71665,-2.4377 -4.71664,0 -7.15786,4.1275 -7.15786,11.8745 0,8.84767 2.27189,12.98928 7.41187,12.98928 3.36903,0 5.89844,-2.8822 5.98664,-6.84389 l -3.46075,0 c 0,1.77447 -0.508,3.45722 -2.52589,3.45722 -2.94571,0 -4.13104,-2.77989 -4.13104,-9.68375 0,-6.23711 1.01953,-8.42786 3.79236,-8.42786 1.60162,0 2.53296,1.09361 2.86457,3.4537 l 3.46075,0 z m -16.2666,17.60713 -5.22111,-12.46716 4.80131,-11.54289 -3.62303,0 -3.02683,7.24605 -3.04095,-7.24605 -3.61597,0 4.88244,11.54289 -5.22111,12.46716 3.62303,0 3.37256,-8.17386 3.3655,8.17386 3.70416,0 z m -16.25952,0 0,-3.3655 -8.75595,0 0,-7.92338 4.97064,0 0,-3.28437 -4.97064,0 0,-6.06777 7.8352,0 0,-3.36903 -11.28889,0 0,24.01005 12.20964,0 z m -27.456688,-24.01005 -3.7077,0 -3.95817,8.67833 -4.04283,-8.67833 -3.62656,0 5.89845,13.14097 0,10.86908 3.45369,0 0,-10.86908 5.98311,-13.14097 z m -22.74712,14.06878 -3.45369,0 1.68275,-6.90739 1.77094,6.90739 z m 5.98664,9.94127 -5.98664,-24.01005 -3.37255,0 -5.97959,24.01005 3.4537,0 1.60514,-6.57225 5.13997,0 1.67922,6.57225 3.46075,0 z m -18.7078,0 0,-24.01005 -3.4537,0 -4.46616,13.48317 -4.46264,-13.48317 -3.4537,0 0,24.01005 3.4537,0 0,-13.47611 4.46264,13.47611 4.46616,-13.47611 0,13.47611 3.4537,0 z"
     style="fill:#000000;fill-opacity:1;fill-rule:evenodd;stroke:none"
     id="path3575" />
  <path
     inkscape:connector-curvature="0"
     d="m 174.30169,170.49047 0,-24.00653 -3.45722,0 0,9.76489 -6.5652,0 0,-9.76489 -3.45017,0 0,24.00653 3.45017,0 0,-10.86555 6.5652,0 0,10.86555 3.45722,0 z m -22.46136,-17.26494 c 0,2.18369 -1.09361,3.45369 -3.1115,3.45369 l -3.5419,0 0,-6.82978 3.5419,0 c 1.84855,0 3.1115,1.35114 3.1115,3.37609 m 3.36902,0 c 0,-4.04284 -2.52236,-6.74159 -6.31472,-6.74159 l -7.16492,0 0,24.00653 3.45722,0 0,-10.53394 3.7077,0 c 4.04284,0 6.31472,-2.35656 6.31472,-6.731 m -21.02556,17.26494 0,-24.00653 -3.45369,0 -4.4697,13.47259 -4.46264,-13.47259 -3.45369,0 0,24.00653 3.45369,0 0,-13.48316 4.46264,13.48316 4.4697,-13.48316 0,13.48316 3.45369,0 z M 98.295712,158.44311 c 0,2.78342 -0.16933,4.20864 -0.75847,6.15245 -0.59267,2.02494 -1.52047,2.94922 -2.94922,2.94922 -1.51695,0 -2.44123,-0.92428 -3.03389,-2.94922 -0.50447,-1.94381 -0.75847,-3.45723 -0.75847,-6.06425 0,-2.69523 0.16933,-4.30037 0.75847,-6.14892 0.59266,-2.02847 1.51694,-2.94922 3.03389,-2.94922 1.42875,0 2.35655,0.92075 2.94922,3.02683 0.50447,1.77094 0.75847,3.28789 0.75847,5.98311 m 3.284358,0 c 0,-3.6195 -0.33867,-5.89844 -1.34761,-8.25147 -1.181798,-2.94922 -2.864548,-4.13103 -5.644438,-4.13103 -2.78342,0 -4.46617,1.18181 -5.72911,4.04283 -1.00895,2.27895 -1.34762,4.72017 -1.34762,8.33967 0,3.70417 0.33867,5.98664 1.34762,8.3432 1.1818,2.86102 2.86455,4.14161 5.72911,4.14161 2.69875,0 4.46264,-1.28059 5.644438,-4.14161 1.00894,-2.27895 1.34761,-4.63903 1.34761,-8.3432 m -20.976158,4.97417 c 0,2.43769 -1.34762,4.1275 -3.37256,4.1275 -2.01789,0 -3.36903,-1.68981 -3.36903,-4.1275 0,-2.61761 1.35114,-4.29684 3.36903,-4.29684 2.02494,0 3.37256,1.67923 3.37256,4.29684 M 80.180572,152.46 c 0,1.94028 -1.26294,3.19969 -2.94922,3.19969 -1.76742,0 -3.03036,-1.25941 -3.03036,-3.19969 0,-1.76389 1.26294,-3.02683 3.03036,-3.02683 1.68628,0 2.94922,1.26294 2.94922,3.02683 m 3.7077,10.95728 c 0,-2.36361 -0.75848,-4.54731 -2.27189,-5.98311 1.25941,-1.26295 1.93675,-3.03389 1.93675,-4.97417 0,-3.70769 -2.61056,-6.39939 -6.32178,-6.39939 -3.78531,0 -6.39939,2.6917 -6.39939,6.39939 0,1.94028 0.67381,3.62656 1.93675,4.97417 -1.51694,1.51341 -2.27189,3.6195 -2.27189,5.98311 0,1.85208 0.58561,3.6195 1.51342,4.96711 1.1818,1.68628 2.86455,2.54353 5.22111,2.54353 1.85561,0 3.28789,-0.52564 4.38503,-1.6122 1.43228,-1.35114 2.27189,-3.62655 2.27189,-5.89844"
     style="fill:#000000;fill-opacity:1;fill-rule:evenodd;stroke:none"
     id="path3579" />
</svg>
