<?xml version="1.0" encoding="UTF-8" standalone="no"?>
<svg
   xmlns:dc="http://purl.org/dc/elements/1.1/"
   xmlns:cc="http://creativecommons.org/ns#"
   xmlns:rdf="http://www.w3.org/1999/02/22-rdf-syntax-ns#"
   xmlns:svg="http://www.w3.org/2000/svg"
   xmlns="http://www.w3.org/2000/svg"
   xmlns:sodipodi="http://sodipodi.sourceforge.net/DTD/sodipodi-0.dtd"
   xmlns:inkscape="http://www.inkscape.org/namespaces/inkscape"
   width="89.999062"
   height="90.001877"
   viewBox="0 0 253.99739 254.00529"
   version="1.1"
   id="svg2"
   inkscape:version="0.48.2 r9819"
   sodipodi:docname="AJAX1.svg">
  <metadata
     id="metadata62">
    <rdf:RDF>
      <cc:Work
         rdf:about="">
        <dc:format>image/svg+xml</dc:format>
        <dc:type
           rdf:resource="http://purl.org/dc/dcmitype/StillImage" />
        <dc:title></dc:title>
      </cc:Work>
    </rdf:RDF>
  </metadata>
  <defs
     id="defs60" />
  <sodipodi:namedview
     pagecolor="#ffffff"
     bordercolor="#666666"
     borderopacity="1"
     objecttolerance="10"
     gridtolerance="10"
     guidetolerance="10"
     inkscape:pageopacity="0"
     inkscape:pageshadow="2"
     inkscape:window-width="1280"
     inkscape:window-height="1004"
     id="namedview58"
     showgrid="false"
     fit-margin-top="0"
     fit-margin-left="0"
     fit-margin-right="0"
     fit-margin-bottom="0"
     inkscape:zoom="5.6568543"
     inkscape:cx="47.51873"
     inkscape:cy="32.064966"
     inkscape:window-x="-8"
     inkscape:window-y="-8"
     inkscape:window-maximized="1"
     inkscape:current-layer="svg2" />
  <!-- draw the bicycle -->
  <!-- RIGHT -->
  <!-- LANE -->
  <!-- ONLY -->
  <path
     d="M 250.36201,118.18496 135.808,3.6379988 c -4.84717,-4.8506952 -12.77762,-4.8506952 -17.62126,0 L 3.63273,118.18496 c -4.84364,4.84364 -4.84364,12.77409 0,17.62478 l 114.55401,114.55755 c 4.84364,4.85069 12.77409,4.85069 17.62126,0 L 250.36201,135.80974 c 4.84717,-4.85069 4.84717,-12.78114 0,-17.62478"
     style="fill:#ffd033;fill-opacity:1;fill-rule:nonzero;stroke:none"
     id="path3737"
     inkscape:connector-curvature="0" />
  <path
     d="M 247.59976,120.00529 133.98766,6.3931937 c -3.84528,-3.8452784 -10.1353,-3.8452784 -13.98058,0 L 6.39498,120.00529 c -3.84528,3.84528 -3.84528,10.13531 0,13.98765 l 113.6121,113.6121 c 3.84528,3.85233 10.1353,3.85233 13.98058,0 l 113.6121,-113.6121 c 3.84528,-3.85234 3.84528,-10.14237 0,-13.98765"
     style="fill:#000000;fill-opacity:1;fill-rule:evenodd;stroke:none"
     id="path3753"
     inkscape:connector-curvature="0" />
  <path
     d="M 244.05082,123.50485 130.49163,9.9491942 c -1.91911,-1.9226392 -5.06941,-1.9226392 -6.985,0 L 9.94392,123.50485 c -1.91558,1.92264 -1.91558,5.06589 0,6.98853 l 113.56271,113.56271 c 1.91559,1.92264 5.06589,1.92264 6.985,0 L 244.05082,130.49338 c 1.92263,-1.92264 1.92263,-5.06589 0,-6.98853"
     style="fill:#ffd033;fill-opacity:1;fill-rule:evenodd;stroke:none"
     id="path3757"
     inkscape:connector-curvature="0" />
  <path
     d="m 135.04247,156.95525 -1.84856,-1.06539 c -0.98425,-0.56445 -2.18369,-0.4692 -3.05858,0.15875 0.1023,-1.07598 -0.40922,-2.159 -1.40053,-2.7305 l -1.84503,-1.06892 c -1.34408,-0.76906 -3.07975,-0.30692 -3.85233,1.03364 l -4.70606,8.15269 c -0.77611,1.34409 -0.31044,3.07975 1.03364,3.85939 l 1.84856,1.06186 c 0.98425,0.5715 2.18369,0.47273 3.05858,-0.15169 -0.1023,1.06539 0.4057,2.15547 1.38995,2.72697 l 1.84855,1.06186 c 1.35114,0.77612 3.07975,0.3175 3.85939,-1.02658 l 4.70606,-8.1527 c 0.77258,-1.34408 0.30691,-3.07975 -1.03364,-3.85938"
     style="fill:#000000;fill-opacity:1;fill-rule:evenodd;stroke:none"
     id="path3761"
     inkscape:connector-curvature="0" />
  <path
     d="m 105.04224,139.63385 -1.84855,-1.06539 c -0.99131,-0.56797 -2.1837,-0.46919 -3.05859,0.15523 0.10231,-1.06539 -0.41275,-2.15548 -1.397,-2.72698 l -1.84855,-1.06891 c -1.34409,-0.76906 -3.07975,-0.31045 -3.85939,1.03364 l -4.70606,8.15269 c -0.76906,1.34409 -0.31044,3.07975 1.03364,3.85939 l 1.84855,1.05834 c 0.99131,0.5715 2.19076,0.47625 3.05859,-0.1517 -0.10231,1.06892 0.41275,2.159 1.397,2.7305 l 1.84855,1.06186 c 1.34409,0.77611 3.07976,0.31397 3.85939,-1.02658 l 4.70606,-8.1527 c 0.76906,-1.34408 0.31045,-3.07975 -1.03364,-3.85939"
     style="fill:#000000;fill-opacity:1;fill-rule:evenodd;stroke:none"
     id="path3765"
     inkscape:connector-curvature="0" />
  <path
     d="M 167.25108,106.94899 124.08519,82.025234 95.41493,131.68224 138.58083,156.606 167.25108,106.94899 z"
     style="fill:#000000;fill-opacity:1;fill-rule:evenodd;stroke:none"
     id="path3769"
     inkscape:connector-curvature="0" />
  <path
     d="m 195.31103,119.5996 z m -12.46011,0 z m -124.60113,0 0.0141,7.874 -6.87564,-2.05317 c -0.9525,-0.26105 -1.65453,-0.37041 -2.39183,0.12348 -1.04775,0.71614 -1.32292,2.15194 -0.60678,3.19616 l 16.10431,23.81251 16.129,-23.81251 c 0.70908,-1.04422 0.44097,-2.48002 -0.61383,-3.19616 -0.69498,-0.47625 -1.42523,-0.39159 -2.286,-0.17286 l -6.98853,2.10255 -0.0212,-7.874 c -0.0212,-30.889226 25.1707,-56.081091 56.05993,-56.081091 30.88922,0 56.07756,25.191865 56.07756,56.081091 l 0,19.23698 12.46011,0 0,-19.23698 c 0,-37.754282 -30.78692,-68.544732 -68.53767,-68.544732 -37.75076,0 -68.53768,30.79045 -68.52357,68.544732"
     style="fill:#000000;fill-opacity:1;fill-rule:evenodd;stroke:none"
     id="path3773"
     inkscape:connector-curvature="0" />
  <path
     d="m 182.85128,172.98898 -112.15865,0 0,6.23712 112.15865,0 0,-6.23712 z"
     style="fill:#000000;fill-opacity:1;fill-rule:evenodd;stroke:none"
     id="path3775"
     inkscape:connector-curvature="0" />
</svg>
