<?xml version="1.0" encoding="UTF-8" standalone="no"?>
<svg
   xmlns:dc="http://purl.org/dc/elements/1.1/"
   xmlns:cc="http://creativecommons.org/ns#"
   xmlns:rdf="http://www.w3.org/1999/02/22-rdf-syntax-ns#"
   xmlns:svg="http://www.w3.org/2000/svg"
   xmlns="http://www.w3.org/2000/svg"
   xmlns:sodipodi="http://sodipodi.sourceforge.net/DTD/sodipodi-0.dtd"
   xmlns:inkscape="http://www.inkscape.org/namespaces/inkscape"
   width="156.50627"
   height="120.42251"
   viewBox="0 0 441.69555 339.85908"
   version="1.1"
   id="svg2"
   inkscape:version="0.48.2 r9819"
   sodipodi:docname="AJAX1.svg">
  <metadata
     id="metadata62">
    <rdf:RDF>
      <cc:Work
         rdf:about="">
        <dc:format>image/svg+xml</dc:format>
        <dc:type
           rdf:resource="http://purl.org/dc/dcmitype/StillImage" />
        <dc:title />
      </cc:Work>
    </rdf:RDF>
  </metadata>
  <defs
     id="defs60" />
  <sodipodi:namedview
     pagecolor="#ffffff"
     bordercolor="#666666"
     borderopacity="1"
     objecttolerance="10"
     gridtolerance="10"
     guidetolerance="10"
     inkscape:pageopacity="0"
     inkscape:pageshadow="2"
     inkscape:window-width="1280"
     inkscape:window-height="1004"
     id="namedview58"
     showgrid="false"
     fit-margin-top="0.1"
     fit-margin-left="0.1"
     fit-margin-right="0.1"
     fit-margin-bottom="0.1"
     inkscape:zoom="4.3365533"
     inkscape:cx="95.578836"
     inkscape:cy="58.738661"
     inkscape:window-x="-8"
     inkscape:window-y="-8"
     inkscape:window-maximized="1"
     inkscape:current-layer="svg2" />
  <!-- draw the bicycle -->
  <!-- RIGHT -->
  <!-- LANE -->
  <!-- ONLY -->
  <path
     inkscape:connector-curvature="0"
     d="m 16.114922,0.28219429 409.469198,0 c 8.7172,0 15.8292,7.11200001 15.8292,15.83269971 l 0,307.618696 c 0,8.7242 -7.112,15.8433 -15.8292,15.8433 l -409.469198,0 c -8.7241997,0 -15.83269973,-7.1191 -15.83269973,-15.8433 l 0,-307.618696 c 0,-8.6112997 7.21430003,-15.83269971 15.83269973,-15.83269971"
     style="fill:#ffd033;fill-opacity:1;fill-rule:nonzero;stroke:none"
     id="path3528" />
  <path
     inkscape:connector-curvature="0"
     d="m 16.129022,4.8012943 409.444498,0 c 6.2266,0 11.3136,5.087 11.3136,11.3205997 l 0,307.611696 c 0,6.2371 -5.087,11.3206 -11.3136,11.3206 l -409.444498,0 c -6.2441997,0 -11.3276997,-5.0835 -11.3276997,-11.3206 l 0,-307.611696 c 0,-6.1523997 5.1611,-11.3205997 11.3276997,-11.3205997"
     style="fill:#000000;fill-opacity:1;fill-rule:evenodd;stroke:none"
     id="path3552" />
  <path
     inkscape:connector-curvature="0"
     d="m 425.48182,11.588694 c 2.4271,0 4.4661,1.8592 4.6108,4.3004 l 0.014,307.763396 c 0.014,2.4306 -1.8556,4.4097 -4.3004,4.6108 l -409.596198,0 c -2.4377,0.014 -4.4274,-1.8627 -4.6143,-4.2863 l -0.01,-307.770396 c -0.01,-2.4342 1.8662,-4.4168 4.3003,-4.6108 l 409.592698,-0.01"
     style="fill:#ffd033;fill-opacity:1;fill-rule:evenodd;stroke:none"
     id="path3556" />
  <path
     inkscape:connector-curvature="0"
     d="m 362.63762,99.740794 -19.3816,-39.5958 15.6739,-19.1911 -13.6208,0 -20.8315,25.5835 0,-25.5835 -10.5128,0 0,58.7869 10.5128,0 0,-16.4994 11.1407,-14.0229 15.0495,30.5223 11.9698,0 z m -62.0748,-11.9521 -9.2886,-4.9565 c -5.1612,5.5668 -8.0398,7.4224 -13.4021,7.4224 -8.8653,0 -14.2416,-7.4224 -14.2416,-20.2106 0,-9.0805 3.4996,-19.5933 14.2416,-19.5933 3.0868,0 7.0097,1.2241 9.2746,3.0939 1.6474,1.0265 2.4729,1.852 4.1275,4.325 l 9.2886,-4.9459 c -4.5402,-8.255 -13.2009,-12.9893 -22.6907,-12.9893 -15.4728,0 -24.9625,11.7404 -24.9625,30.3177 0,18.3551 9.4897,30.557596 24.9625,30.557596 9.4898,0 18.3551,-4.780096 22.6907,-13.020996 m -61.0623,-11.7616 0,-35.0732 -10.5128,0 0,35.0732 c 0,3.2985 -0.4198,5.3587 -1.8662,7.627 -2.2613,3.9194 -6.5969,6.3924 -11.3347,6.3924 -4.7484,0 -9.0805,-2.473 -11.3418,-6.3924 -1.4464,-2.2683 -1.8662,-4.1275 -1.8662,-7.627 l 0,-35.0732 -10.5163,0 0,35.0732 c 0,14.4392 9.9095,24.782596 23.7243,24.782596 13.8147,0 23.7137,-10.343396 23.7137,-24.782596 m -70.9542,-17.1238 c 0,4.3285 -3.2879,7.2213 -8.4596,7.2213 l -16.7429,0 0,-14.6473 16.7429,0 c 5.1717,0 8.4596,2.8928 8.4596,7.426 m 11.7616,40.8375 -10.7209,-25.1601 c 5.9725,-3.2949 9.4756,-9.077 9.4756,-15.6774 0,-6.6005 -3.5031,-12.3755 -9.0699,-15.4694 -3.0939,-1.852 -5.7715,-2.48 -10.1142,-2.48 l -27.051,0 0,58.7869 10.5163,0 0,-23.0963 15.7022,0 9.5003,23.0963 11.7616,0 z m -57.3864,-48.4646 0,-10.3223 -44.146598,0 0,10.3223 16.9228,0 0,48.4646 10.315198,0 0,-48.4646 16.9086,0 z"
     style="fill:#000000;fill-opacity:1;fill-rule:evenodd;stroke:none"
     id="path3560" />
  <path
     inkscape:connector-curvature="0"
     d="m 388.76472,199.86979 0,-10.5199 -33.2105,0 0,-16.0972 17.5365,0 0,-10.7209 -17.5365,0 0,-10.9326 32.1839,0 0,-10.5163 -42.9049,0 0,58.7869 43.9315,0 z m -64.1421,-40.8446 c 0,4.3285 -3.5066,7.2143 -8.6678,7.2143 l -17.1132,0 0,-14.6403 17.1132,0 c 5.1612,0 8.6678,2.8857 8.6678,7.426 m 10.5163,0 c 0,-6.6005 -3.4996,-12.3825 -9.0805,-15.4764 -3.2879,-1.8521 -5.9831,-2.4659 -10.5163,-2.4659 l -27.4214,0 0,58.7869 10.7209,0 0,-23.1105 16.7005,0 c 4.5332,0 7.2284,-0.4127 10.5163,-2.2648 5.5809,-3.0939 9.0805,-9.2816 9.0805,-15.4693 m -78.5918,16.4959 -16.4995,0 8.255,-19.7979 8.2445,19.7979 z m 21.657,24.3487 -24.5428,-58.7869 -10.7209,0 -24.7438,58.7869 11.5499,0 5.7609,-13.8219 25.587,0 5.7679,13.8219 11.3418,0 z m -68.0614,-11.9662 -9.2746,-4.9566 c -5.1611,5.5739 -8.0539,7.4295 -13.4161,7.4295 -8.8653,0 -14.2275,-7.4295 -14.2275,-20.2177 0,-9.0734 3.4995,-19.5862 14.2275,-19.5862 3.0939,0 7.0167,1.2312 9.2816,3.0868 1.6545,1.0301 2.48,1.8591 4.1345,4.3321 l 9.2746,-4.9459 c -4.5332,-8.248 -13.1939,-13.0034 -22.6907,-13.0034 -15.4728,0 -24.9485,11.7616 -24.9485,30.3248 0,18.3621 9.4757,30.5646 24.9485,30.5646 9.4968,0 18.3586,-4.7836 22.6907,-13.028 m -57.5945,-5.1612 c 0,-6.3958 -3.295,-11.9556 -8.4491,-14.6367 -3.2984,-1.6546 -8.4596,-3.3056 -16.2948,-4.9601 -7.2213,-1.6475 -9.2886,-3.0939 -9.2886,-6.3888 0,-3.7112 3.5101,-5.9796 9.4897,-5.9796 5.5809,0 10.3152,1.8556 14.0264,5.775 l 7.8352,-7.0132 c -5.9795,-6.1948 -13.2009,-9.0841 -21.8616,-9.0841 -11.9698,0 -20.2106,6.6005 -20.2106,16.3019 0,3.7077 1.2347,7.2143 3.7077,9.8954 2.48,2.8928 5.5809,4.3357 11.557,5.782 l 2.8857,0.8185 2.6811,0.6138 2.6776,0.8255 c 2.6811,0.628 4.9636,1.457 7.0167,2.2754 2.4801,1.2418 3.7112,3.0939 3.7112,5.3587 0,4.3357 -5.3657,7.6377 -12.7881,7.6377 -6.6005,0 -11.3383,-2.2684 -15.674,-7.4225 l -8.4525,6.5934 c 6.6075,7.6342 14.2275,11.3771 24.3346,11.3771 5.3622,0 10.7209,-1.4746 14.8555,-3.9476 5.5597,-3.302 8.2409,-7.8351 8.2409,-13.8218 m -55.685998,17.1274 0,-10.5199 -33.2105,0 0,-16.0972 17.526,0 0,-10.7209 -17.526,0 0,-10.9326 32.1768,0 0,-10.5163 -42.8977,0 0,58.7869 43.9314,0 z"
     style="fill:#000000;fill-opacity:1;fill-rule:evenodd;stroke:none"
     id="path3564" />
  <path
     inkscape:connector-curvature="0"
     d="m 330.75042,259.09059 c 0,4.3286 -3.5102,7.2143 -8.6607,7.2143 l -17.1239,0 0,-14.6473 17.1239,0 c 5.1505,0 8.6607,2.8857 8.6607,7.433 m 10.5198,0 c 0,-6.6075 -3.5066,-12.3825 -9.0875,-15.4728 -3.302,-1.8557 -5.9796,-2.4836 -10.5164,-2.4836 l -27.4214,0 0,58.7869 10.7209,0 0,-23.0999 16.7005,0 c 4.5368,0 7.2144,-0.4092 10.5164,-2.2684 5.5809,-3.0938 9.0875,-9.2815 9.0875,-15.4622 m -62.3006,40.8305 0,-58.7869 -10.3081,0 -17.3285,34.858 -17.1168,-34.858 -10.3116,0 0,58.7869 10.3116,0 0,-35.881 17.1168,35.881 17.3285,-35.881 0,35.881 10.3081,0 z m -86.6175,-24.3276 -16.51,0 8.2479,-19.8084 8.2621,19.8084 z m 21.657,24.3276 -24.5568,-58.7869 -10.7209,0 -24.7862,58.7869 11.5852,0 5.7785,-13.8148 25.5764,0 5.775,13.8148 11.3488,0 z m -78.2249,-40.8305 c 0,4.3286 -3.3091,7.2143 -8.4596,7.2143 l -16.7111,0 0,-14.6473 16.7111,0 c 5.1505,0 8.4596,2.8857 8.4596,7.433 m 11.7475,40.8305 -10.7209,-25.1601 c 5.9866,-3.302 9.4862,-9.084 9.4862,-15.6704 0,-6.6075 -3.4996,-12.3825 -9.0664,-15.4728 -3.1009,-1.8557 -5.7821,-2.4836 -10.1142,-2.4836 l -27.0157,0 0,58.7869 10.5128,0 0,-23.0999 15.6845,0 9.4862,23.0999 11.7475,0 z"
     style="fill:#000000;fill-opacity:1;fill-rule:evenodd;stroke:none"
     id="path3568" />
</svg>
