<?xml version="1.0" encoding="UTF-8" standalone="no"?>
<svg
   xmlns:dc="http://purl.org/dc/elements/1.1/"
   xmlns:cc="http://creativecommons.org/ns#"
   xmlns:rdf="http://www.w3.org/1999/02/22-rdf-syntax-ns#"
   xmlns:svg="http://www.w3.org/2000/svg"
   xmlns="http://www.w3.org/2000/svg"
   xmlns:sodipodi="http://sodipodi.sourceforge.net/DTD/sodipodi-0.dtd"
   xmlns:inkscape="http://www.inkscape.org/namespaces/inkscape"
   width="48.096275"
   height="36.070293"
   viewBox="0 0 135.7384 101.79838"
   version="1.1"
   id="svg2"
   inkscape:version="0.48.2 r9819"
   sodipodi:docname="MUTCD W7-2P.svg">
  <metadata
     id="metadata62">
    <rdf:RDF>
      <cc:Work
         rdf:about="">
        <dc:format>image/svg+xml</dc:format>
        <dc:type
           rdf:resource="http://purl.org/dc/dcmitype/StillImage" />
        <dc:title></dc:title>
      </cc:Work>
    </rdf:RDF>
  </metadata>
  <defs
     id="defs60" />
  <sodipodi:namedview
     pagecolor="#ffffff"
     bordercolor="#666666"
     borderopacity="1"
     objecttolerance="10"
     gridtolerance="10"
     guidetolerance="10"
     inkscape:pageopacity="0"
     inkscape:pageshadow="2"
     inkscape:window-width="1280"
     inkscape:window-height="1004"
     id="namedview58"
     showgrid="false"
     fit-margin-top="0"
     fit-margin-left="0"
     fit-margin-right="0"
     fit-margin-bottom="0"
     inkscape:zoom="16"
     inkscape:cx="23.663844"
     inkscape:cy="11.313401"
     inkscape:window-x="-8"
     inkscape:window-y="-8"
     inkscape:window-maximized="1"
     inkscape:current-layer="svg2" />
  <!-- draw the bicycle -->
  <!-- RIGHT -->
  <!-- LANE -->
  <!-- ONLY -->
  <path
     inkscape:connector-curvature="0"
     d="m 11.6283,0.00368955 112.7937,0 0.4904,0 0.014,0.011 c 5.842,0.2575 10.5551,4.97760005 10.802,10.82320045 l 0.01,0.011 0,0.4656 0,79.174 0,0.1023 0,0 c -0.049,5.722 -4.3886,10.4492 -9.9413,11.1266 l -0.078,0.081 -1.2947,0 -113.1076,0 -0.2822,0 -0.01,0 C 5.1051,101.64659 0.2826,96.89829 0.018,90.99979 L 0,90.98879 l 0,-0.5044 0,-78.6342 0.018,-0.011 C 0.007,11.66279 0,11.48639 0,11.30999 0,5.0799896 5.0835,-1.0444252e-5 11.3136,-1.0444252e-5 c 0.1023,0 0.2046,0 0.3069,0 l 0.01,0 z"
     style="fill:#ffd033;fill-opacity:1;fill-rule:nonzero;stroke:none"
     id="path3224" />
  <path
     inkscape:connector-curvature="0"
     d="m 12.4503,2.2670896 110.8499,0 c 5.6021,0 10.1776,4.572 10.1776,10.1812004 l 0,76.9126 c 0,5.6056 -4.5755,10.1776 -10.1776,10.1776 l -110.8499,0 c -5.6092,0 -10.1847,-4.572 -10.1847,-10.1776 l 0,-76.9126 c 0,-5.6092004 4.5755,-10.1812004 10.1847,-10.1812004"
     style="fill:#000000;fill-opacity:1;fill-rule:evenodd;stroke:none"
     id="path3232" />
  <path
     inkscape:connector-curvature="0"
     d="m 12.5456,5.6258896 110.6488,0 c 3.8241,0 6.9391,3.1185 6.9391,6.9426004 l 0,76.7045 c 0,3.8241 -3.115,6.9427 -6.9391,6.9427 l -110.6488,0 c -3.8241,0 -6.9392,-3.1186 -6.9392,-6.9427 l 0,-76.7045 c 0,-3.8241004 3.1151,-6.9426004 6.9392,-6.9426004"
     style="fill:#ffd033;fill-opacity:1;fill-rule:evenodd;stroke:none"
     id="path3236" />
  <path
     inkscape:connector-curvature="0"
     d="m 102.8991,29.32479 c 0,-2.4342 -1.4359,-4.2827 -4.7061,-6.1842 -1.2488,-0.7162 -1.6087,-1.1924 -1.6087,-2.0214 0,-1.1324 0.889,-1.965 2.0214,-1.965 1.0725,0 1.9086,0.7726 1.9615,1.965 l 2.3319,0 c -0.071,-2.5612 -1.9086,-4.4062 -4.2934,-4.4062 -2.4412,0 -4.3427,1.9649 -4.3427,4.4062 0,1.4852 0.7162,2.794 2.0814,3.7465 3.4537,2.3212 2.5012,1.6651 2.8611,2.0249 1.0124,0.7691 1.3617,1.4852 1.3617,2.4342 0,1.3723 -1.0654,2.5611 -2.3742,2.5611 -1.6616,0 -2.3777,-1.4887 -2.3777,-2.9174 l -2.3848,0 c 0,2.7975 1.785,5.3058 4.7625,5.3058 2.6176,0 4.7061,-2.212 4.7061,-4.9495 m -11.4336,4.6425 -3.9193,-11.0102 3.5066,-5.9443 -2.7976,0 -3.8735,6.784 0,-6.784 -2.4306,0 0,16.9545 2.4306,0 0,-5.4151 1.5523,-2.8504 2.9774,8.2655 2.5541,0 z M 78.6173,21.53189 c -0.1799,-1.5451 -0.4127,-2.2613 -1.0689,-3.0938 -0.7726,-1.1289 -1.9649,-1.7251 -3.3337,-1.7251 -3.3302,0 -5.0589,2.9174 -5.0589,8.389 0,6.2477 1.6052,9.1723 5.2353,9.1723 2.3847,0 4.1698,-2.032 4.2262,-4.8296 l -2.4412,0 c 0,1.2524 -0.3563,2.4412 -1.785,2.4412 -2.0779,0 -2.914,-1.9614 -2.914,-6.8438 0,-4.4027 0.7162,-5.9479 2.6811,-5.9479 1.1219,0 1.778,0.7726 2.0179,2.4377 l 2.4412,0 z m -12.7881,7.3801 0,-11.8992 -2.4413,0 0,12.1956 c 0,1.6051 -0.9489,2.6775 -2.2577,2.6775 -1.4359,0 -2.3848,-1.0724 -2.3848,-2.6775 l 0,-12.1956 -2.4377,0 0,11.8992 c 0,1.3688 0.1764,2.0814 0.6526,2.9739 0.8326,1.4288 2.5012,2.3884 4.1699,2.3884 1.6051,0 3.2102,-1.0196 4.0428,-2.3884 0.4762,-0.8925 0.6562,-1.6051 0.6562,-2.9739 m -14.6968,-7.3801 c 0,1.3688 -0.7726,2.1414 -2.1978,2.1414 l -2.5012,0 0,-4.2827 2.5012,0 c 1.3018,0 2.1978,0.8325 2.1978,2.1413 m 2.3778,12.4354 -2.4413,-8.329 c 1.6122,-0.5962 2.4413,-2.085 2.4413,-4.1064 0,-2.734 -1.7851,-4.5191 -4.4592,-4.5191 l -5.0588,0 0,16.9545 2.4412,0 0,-7.9692 2.3213,0 2.2613,7.9692 2.4942,0 z m -11.8393,-14.6967 0,-2.2578 -8.6254,0 0,2.2578 3.0939,0 0,14.6967 2.4377,0 0,-14.6967 3.0938,0 z"
     style="fill:#000000;fill-opacity:1;fill-rule:evenodd;stroke:none"
     id="path3240" />
  <path
     inkscape:connector-curvature="0"
     d="m 117.3947,46.94989 c 0,1.3723 -0.7726,2.1414 -2.1978,2.1414 l -2.4942,0 0,-4.2827 2.4942,0 c 1.3088,0 2.1978,0.8325 2.1978,2.1413 m 2.3847,12.4319 -2.4412,-8.3255 c 1.6052,-0.5962 2.4412,-2.085 2.4412,-4.1064 0,-2.734 -1.785,-4.5191 -4.4661,-4.5191 l -5.0589,0 0,16.951 2.4483,0 0,-7.9657 2.3142,0 2.2613,7.9657 2.5012,0 z m -12.3754,0 0,-2.3742 -6.1948,0 0,-5.5915 3.5137,0 0,-2.3248 -3.5137,0 0,-4.2827 5.5386,0 0,-2.3778 -7.9692,0 0,16.951 8.6254,0 z m -10.9502,-16.951 -2.3742,0 -1.4887,9.0417 -1.6052,-9.0417 -1.9085,0 -1.6687,9.0417 -1.4181,-9.0417 -2.3848,0 2.6741,16.951 2.1413,0 1.6052,-8.8582 1.6122,8.8582 2.0813,0 2.7341,-16.951 z m -17.2509,8.4455 c 0,1.965 -0.1234,2.9775 -0.5397,4.3463 -0.4128,1.4252 -1.0654,2.0814 -2.0779,2.0814 -1.0689,0 -1.7251,-0.6562 -2.1449,-2.0814 -0.3492,-1.3688 -0.5362,-2.4413 -0.5362,-4.2828 0,-1.905 0.1235,-3.0338 0.5362,-4.3462 0.4198,-1.4287 1.076,-2.0778 2.1449,-2.0778 1.0125,0 1.6651,0.6491 2.0779,2.1378 0.3598,1.2524 0.5397,2.3177 0.5397,4.2227 m 2.3213,0 c 0,-2.5541 -0.2399,-4.1627 -0.9525,-5.8278 -0.8325,-2.085 -2.0249,-2.9175 -3.9864,-2.9175 -1.965,0 -3.1573,0.8325 -4.0463,2.854 -0.7162,1.6086 -0.949,3.3372 -0.949,5.8913 0,2.6177 0.2328,4.2263 0.949,5.8879 0.8325,2.0285 2.0178,2.9281 4.0463,2.9281 1.9015,0 3.1539,-0.8996 3.9864,-2.9281 0.7126,-1.6016 0.9525,-3.2702 0.9525,-5.8879 m -11.9627,8.5055 0,-2.2578 -6.1877,0 0,-14.6932 -2.4377,0 0,16.951 8.6254,0 z m -19.9249,0 0,-2.3742 -6.1948,0 0,-5.5915 3.5137,0 0,-2.3248 -3.5137,0 0,-4.2827 5.5316,0 0,-2.3778 -7.9693,0 0,16.951 8.6325,0 z m -11.4864,-4.6355 c 0,-2.4412 -1.4323,-4.2862 -4.699,-6.1912 -1.2489,-0.7091 -1.6052,-1.1889 -1.6052,-2.0179 0,-1.1324 0.889,-1.965 2.025,-1.965 1.0689,0 1.9015,0.7726 1.9579,1.965 l 2.3213,0 c -0.056,-2.5612 -1.9015,-4.4062 -4.2792,-4.4062 -2.4448,0 -4.3462,1.9614 -4.3462,4.4062 0,1.4852 0.7161,2.794 2.0884,3.7465 3.4431,2.3177 2.4941,1.6651 2.8434,2.0214 1.0195,0.7726 1.3723,1.4887 1.3723,2.4412 0,1.3688 -1.0689,2.5577 -2.3777,2.5577 -1.6687,0 -2.3848,-1.4852 -2.3848,-2.9175 l -2.3777,0 c 0,2.794 1.785,5.3058 4.7625,5.3058 2.6176,0 4.699,-2.212 4.699,-4.946 m -12.252,-0.4163 0,-11.8992 -2.4447,0 0,12.1956 c 0,1.6086 -0.9455,2.6776 -2.2614,2.6776 -1.4252,0 -2.3741,-1.069 -2.3741,-2.6776 l 0,-12.1956 -2.4483,0 0,11.8992 c 0,1.3653 0.1869,2.0814 0.6561,2.974 0.8397,1.4287 2.5012,2.3883 4.1663,2.3883 1.6052,0 3.2174,-1.0231 4.0464,-2.3883 0.4833,-0.8926 0.6597,-1.6087 0.6597,-2.974"
     style="fill:#000000;fill-opacity:1;fill-rule:evenodd;stroke:none"
     id="path3244" />
  <path
     inkscape:connector-curvature="0"
     d="m 88.5163,72.20949 c 0,1.3723 -0.7761,2.1414 -2.2049,2.1414 l -2.4941,0 0,-4.2827 2.4941,0 c 1.3088,0 2.2049,0.8361 2.2049,2.1413 m 2.3777,12.4319 -2.4377,-8.3255 c 1.6051,-0.5962 2.4377,-2.0814 2.4377,-4.1064 0,-2.734 -1.7851,-4.5191 -4.4556,-4.5191 l -5.0659,0 0,16.951 2.4448,0 0,-7.9692 2.3248,0 2.2578,7.9692 2.4941,0 z m -16.062,-7.0167 -2.4377,0 1.1854,-4.8825 1.2523,4.8825 z m 4.2263,7.0167 -4.2263,-16.951 -2.3812,0 -4.2263,16.951 2.4483,0 1.1218,-4.639 3.6301,0 1.1924,4.639 2.4412,0 z m -12.3755,0 0,-2.3777 -6.1877,0 0,-5.5915 3.5066,0 0,-2.3213 -3.5066,0 0,-4.2827 5.5316,0 0,-2.3778 -7.9693,0 0,16.951 8.6254,0 z m -11.9626,-4.699 0,-3.5066 -4.3392,0 0,2.3777 1.9085,0 0,1.1289 c 0,1.7851 -0.5997,2.6176 -1.8485,2.6176 -1.3159,0 -2.1414,-0.889 -2.5012,-2.5576 -0.2399,-1.3088 -0.3563,-2.794 -0.3563,-4.2192 0,-2.0285 0.2963,-3.9335 0.7725,-4.7625 0.4198,-0.8326 1.0725,-1.2489 1.9086,-1.2489 1.1853,0 1.9614,0.7726 2.0249,1.905 l 2.4307,0 c -0.1165,-2.5012 -1.9615,-4.2862 -4.4027,-4.2862 -1.9615,0 -3.6865,1.3088 -4.2863,3.0938 -0.5926,1.6087 -0.769,3.3338 -0.769,5.715 0,2.1979 0.3563,4.5791 0.889,5.8244 0.8396,1.905 2.3283,2.9281 4.3462,2.9281 1.7286,0 3.0939,-0.9031 3.75,-2.3919 0.3563,-0.7126 0.4728,-1.4252 0.4728,-2.6176"
     style="fill:#000000;fill-opacity:1;fill-rule:evenodd;stroke:none"
     id="path3248" />
</svg>
