<?xml version="1.0" encoding="UTF-8" standalone="no"?>
<!-- Generator: Adobe Illustrator 12.0.1, SVG Export Plug-In  -->

<svg
   xmlns:dc="http://purl.org/dc/elements/1.1/"
   xmlns:cc="http://creativecommons.org/ns#"
   xmlns:rdf="http://www.w3.org/1999/02/22-rdf-syntax-ns#"
   xmlns:svg="http://www.w3.org/2000/svg"
   xmlns="http://www.w3.org/2000/svg"
   xmlns:sodipodi="http://sodipodi.sourceforge.net/DTD/sodipodi-0.dtd"
   xmlns:inkscape="http://www.inkscape.org/namespaces/inkscape"
   version="1.1"
   width="286.35812"
   height="286.37964"
   viewBox="0 0 286.35812 286.37964"
   enable-background="new 0 0 289 288"
   xml:space="preserve"
   id="svg2"
   inkscape:version="0.48.2 r9819"
   sodipodi:docname="AJAX1.svg"><metadata
   id="metadata46"><rdf:RDF><cc:Work
       rdf:about=""><dc:format>image/svg+xml</dc:format><dc:type
         rdf:resource="http://purl.org/dc/dcmitype/StillImage" /></cc:Work></rdf:RDF></metadata><sodipodi:namedview
   pagecolor="#ffffff"
   bordercolor="#666666"
   borderopacity="1"
   objecttolerance="10"
   gridtolerance="10"
   guidetolerance="10"
   inkscape:pageopacity="0"
   inkscape:pageshadow="2"
   inkscape:window-width="1280"
   inkscape:window-height="1004"
   id="namedview44"
   showgrid="false"
   fit-margin-top="0"
   fit-margin-left="0"
   fit-margin-right="0"
   fit-margin-bottom="0"
   inkscape:zoom="2.3177389"
   inkscape:cx="82.682179"
   inkscape:cy="142.50316"
   inkscape:window-x="-8"
   inkscape:window-y="-8"
   inkscape:window-maximized="1"
   inkscape:current-layer="svg2" />
<defs
   id="defs4">
</defs>
<path
   d="M 135.507,283.2465 3.1679974,150.8885 c -4.224,-4.232 -4.224,-11.126 0,-15.35 L 135.507,3.1715002 c 4.218,-4.228 11.116,-4.228 15.346,-0.004 L 283.183,135.5395 c 4.232,4.237 4.232,11.118 0.009,15.35 l -132.339,132.357 c -4.184,4.173 -11.172,4.182 -15.346,0"
   id="path6"
   style="fill:#ffd033;stroke:none;fill-opacity:1"
   inkscape:connector-curvature="0" />

<path
   clip-rule="evenodd"
   d="M 137.602,281.0925 5.3289974,148.7815 c -3.043,-3.052 -3.039,-8.083 0,-11.14 L 137.602,5.3305002 c 3.056,-3.039 8.089,-3.039 11.139,0 L 281.024,137.6505 c 3.043,3.052 3.043,8.079 0,11.131 l -132.283,132.311 c -3.05,3.034 -8.083,3.048 -11.139,0"
   id="path10"
   inkscape:connector-curvature="0"
   style="fill:#000000;fill-rule:evenodd;stroke:none" />
<path
   clip-rule="evenodd"
   d="M 140.563,278.0795 8.3489974,145.8365 c -1.466,-1.421 -1.466,-3.834 0,-5.25 L 140.555,8.3565002 c 1.41,-1.472 3.827,-1.472 5.239,0 L 278.006,140.5855 c 1.455,1.417 1.455,3.837 0,5.258 l -132.212,132.236 c -1.412,1.458 -3.821,1.458 -5.231,0"
   id="path12"
   style="fill:#ffd033;fill-rule:evenodd;stroke:none;fill-opacity:1"
   inkscape:connector-curvature="0" />
<g
   id="g14"
   transform="translate(-0.8220025,-0.81649986)">
	<g
   id="g16">
		<path
   d="m 100.663,84.297 v 26.815 H 96.186 V 84.297 h -5.631 v -4.108 h 15.738 v 4.108 h -5.63 z"
   id="path18"
   inkscape:connector-curvature="0"
   style="fill:#000000;stroke:none" />
		<path
   d="m 123.324,111.113 -4.108,-14.539 h -4.246 v 14.539 h -4.431 V 80.189 h 9.23 c 4.846,0 8.123,3.277 8.123,8.262 0,3.692 -1.523,6.369 -4.431,7.477 l 4.431,15.185 h -4.568 z M 119.54,84.528 h -4.569 v 7.8 h 4.569 c 2.584,0 4.015,-1.385 4.015,-3.877 0,-2.4 -1.616,-3.923 -4.015,-3.923 z"
   id="path20"
   inkscape:connector-curvature="0"
   style="fill:#000000;stroke:none" />
		<path
   d="m 149.262,107.328 c -1.523,2.492 -4.431,4.338 -7.385,4.338 -3.046,0 -6.046,-1.754 -7.569,-4.338 -0.877,-1.662 -1.2,-2.954 -1.2,-5.446 V 80.189 h 4.431 v 22.247 c 0,2.908 1.754,4.892 4.338,4.892 2.4,0 4.154,-1.984 4.154,-4.892 V 80.189 h 4.431 v 21.692 c 0,2.494 -0.323,3.786 -1.2,5.447 z"
   id="path22"
   inkscape:connector-curvature="0"
   style="fill:#000000;stroke:none" />
		<path
   d="m 169.476,88.451 c -0.461,-3.046 -1.661,-4.477 -3.691,-4.477 -3.601,0 -4.893,2.815 -4.893,10.846 0,8.908 1.522,12.508 5.308,12.508 2.584,0 3.276,-2.169 3.276,-4.477 h 4.431 c -0.092,5.123 -3.369,8.815 -7.707,8.815 -6.6,0 -9.554,-5.308 -9.554,-16.708 0,-10.016 3.139,-15.323 9.23,-15.323 2.492,0 4.661,1.108 6.092,3.139 1.154,1.523 1.616,2.861 1.938,5.677 h -4.43 z"
   id="path24"
   inkscape:connector-curvature="0"
   style="fill:#000000;stroke:none" />
		<path
   d="m 192.783,111.113 -5.446,-15.092 -2.815,5.215 v 9.877 h -4.431 V 80.189 h 4.431 v 12.37 l 7.062,-12.37 h 5.123 l -6.415,10.846 7.153,20.077 h -4.662 z"
   id="path26"
   inkscape:connector-curvature="0"
   style="fill:#000000;stroke:none" />
	</g>
</g>
<path
   d="m 58.419997,162.0905 v -30.923 h 14.538 v 4.338 h -10.107 v 7.8 h 6.415 v 4.246 h -6.415 v 10.199 h 11.307 v 4.339 h -15.738 z"
   id="path28"
   inkscape:connector-curvature="0"
   style="fill:#000000;stroke:none" />
<path
   d="m 93.357997,162.0905 -9.554,-20.723 v 20.723 h -4.431 v -30.923 h 4.431 l 8.492,18.554 v -18.554 h 4.431 v 30.923 h -3.369 z"
   id="path30"
   inkscape:connector-curvature="0"
   style="fill:#000000;stroke:none" />
<path
   d="m 111.171,135.2755 v 26.815 h -4.477 v -26.815 h -5.631 v -4.108 h 15.738 v 4.108 h -5.63 z"
   id="path32"
   inkscape:connector-curvature="0"
   style="fill:#000000;stroke:none" />
<path
   d="m 133.832,162.0905 -4.107,-14.538 h -4.246 v 14.538 h -4.431 v -30.923 h 9.23 c 4.846,0 8.123,3.277 8.123,8.262 0,3.692 -1.523,6.369 -4.431,7.477 l 4.431,15.185 h -4.569 z m -3.784,-26.584 h -4.569 v 7.8 h 4.569 c 2.584,0 4.015,-1.385 4.015,-3.877 0,-2.4 -1.615,-3.923 -4.015,-3.923 z"
   id="path34"
   inkscape:connector-curvature="0"
   style="fill:#000000;stroke:none" />
<path
   d="m 156.539,162.0905 -2.169,-8.446 h -6.646 l -2.03,8.446 h -4.477 l 7.707,-30.923 h 4.339 l 7.707,30.923 h -4.431 z m -5.538,-21.692 -2.17,8.907 h 4.432 l -2.262,-8.907 z"
   id="path36"
   inkscape:connector-curvature="0"
   style="fill:#000000;stroke:none" />
<path
   d="m 179.199,162.0905 -9.554,-20.723 v 20.723 h -4.431 v -30.923 h 4.431 l 8.492,18.554 v -18.554 h 4.431 v 30.923 h -3.369 z"
   id="path38"
   inkscape:connector-curvature="0"
   style="fill:#000000;stroke:none" />
<path
   d="m 201.582,139.4295 c -0.461,-3.046 -1.661,-4.477 -3.691,-4.477 -3.601,0 -4.893,2.815 -4.893,10.846 0,8.907 1.522,12.508 5.308,12.508 2.584,0 3.276,-2.17 3.276,-4.478 h 4.431 c -0.092,5.123 -3.369,8.815 -7.707,8.815 -6.6,0 -9.554,-5.308 -9.554,-16.708 0,-10.015 3.139,-15.322 9.23,-15.322 2.492,0 4.661,1.108 6.092,3.139 1.154,1.523 1.616,2.861 1.938,5.677 h -4.43 z"
   id="path40"
   inkscape:connector-curvature="0"
   style="fill:#000000;stroke:none" />
<path
   d="m 212.198,162.0905 v -30.923 h 14.538 v 4.338 h -10.108 v 7.8 h 6.415 v 4.246 h -6.415 v 10.199 h 11.308 v 4.339 h -15.738 z"
   id="path42"
   inkscape:connector-curvature="0"
   style="fill:#000000;stroke:none" />
</svg>