<?xml version="1.0" encoding="UTF-8" standalone="no"?>
<!-- Generator: Adobe Illustrator 12.0.1, SVG Export Plug-In  -->

<svg
   xmlns:dc="http://purl.org/dc/elements/1.1/"
   xmlns:cc="http://creativecommons.org/ns#"
   xmlns:rdf="http://www.w3.org/1999/02/22-rdf-syntax-ns#"
   xmlns:svg="http://www.w3.org/2000/svg"
   xmlns="http://www.w3.org/2000/svg"
   xmlns:sodipodi="http://sodipodi.sourceforge.net/DTD/sodipodi-0.dtd"
   xmlns:inkscape="http://www.inkscape.org/namespaces/inkscape"
   version="1.1"
   width="189.168"
   height="286.21399"
   viewBox="-0.524 0 189.168 286.21399"
   enable-background="new -0.524 0 192 288"
   xml:space="preserve"
   id="svg2"
   inkscape:version="0.48.2 r9819"
   sodipodi:docname="AJAX1.svg"><metadata
   id="metadata30"><rdf:RDF><cc:Work
       rdf:about=""><dc:format>image/svg+xml</dc:format><dc:type
         rdf:resource="http://purl.org/dc/dcmitype/StillImage" /></cc:Work></rdf:RDF></metadata><sodipodi:namedview
   pagecolor="#ffffff"
   bordercolor="#666666"
   borderopacity="1"
   objecttolerance="10"
   gridtolerance="10"
   guidetolerance="10"
   inkscape:pageopacity="0"
   inkscape:pageshadow="2"
   inkscape:window-width="1280"
   inkscape:window-height="1004"
   id="namedview28"
   showgrid="false"
   fit-margin-top="0"
   fit-margin-left="0"
   fit-margin-right="0"
   fit-margin-bottom="0"
   inkscape:zoom="1.6388889"
   inkscape:cx="75.273145"
   inkscape:cy="129.27858"
   inkscape:window-x="-8"
   inkscape:window-y="-8"
   inkscape:window-maximized="1"
   inkscape:current-layer="svg2" />
<defs
   id="defs4">
</defs>
<path
   clip-rule="evenodd"
   d="m 15.239,286.214 h 157.634 c 8.708,0 15.771,-7.049 15.771,-15.756 V 15.763 C 188.644,7.0619998 181.581,-1.829888e-7 172.873,-1.829888e-7 H 15.239 C 6.524,-1.829888e-7 -0.524,7.0629998 -0.524,15.763 v 254.696 c 0,8.693 7.062,15.755 15.763,15.755 z"
   id="path6"
   style="fill:#ffd033;fill-rule:evenodd;stroke:none;fill-opacity:1"
   inkscape:connector-curvature="0" />

<path
   clip-rule="evenodd"
   d="m 15.288,282.931 157.529,0 c 6.965,0 12.604,-5.634 12.604,-12.599 l 0,-254.723 c 0,-6.9580002 -5.64,-12.5980002 -12.604,-12.5980002 l -157.529,0 c -6.954,0 -12.587,6.3399893 -12.587,6.1589893 l 0,254.0240109 c -10e-4,14.09 5.639,19.737 12.587,19.737"
   id="path10"
   inkscape:connector-curvature="0"
   style="fill:#000000;fill-rule:evenodd;stroke:none"
   sodipodi:nodetypes="csssssccc" />
<path
   clip-rule="evenodd"
   d="m 15.302,64.112 h 157.515 c 4.343,0 7.864,-3.521 7.864,-7.864 V 15.623 c 0,-4.35 -3.521,-7.8710002 -7.864,-7.8710002 H 15.302 c -4.344,0 -7.864,3.5210002 -7.864,7.8710002 v 40.625 c -10e-4,4.351 3.513,7.864 7.864,7.864"
   id="path12"
   inkscape:connector-curvature="0"
   style="fill:#ffd033;fill-rule:evenodd;stroke:none;fill-opacity:1" />
<path
   clip-rule="evenodd"
   d="m 15.302,278.225 h 157.515 c 4.343,0 7.864,-3.528 7.864,-7.871 V 76.418 c 0,-4.35 -3.521,-7.878 -7.864,-7.878 H 15.302 c -4.344,0 -7.864,3.528 -7.864,7.878 v 193.937 c -10e-4,4.349 3.513,7.87 7.864,7.87"
   id="path14"
   inkscape:connector-curvature="0"
   style="fill:#ffd033;fill-rule:evenodd;stroke:none;fill-opacity:1" />
<path
   clip-rule="evenodd"
   d="m 148.032,24.592 v -6.208 h -26.594 v 6.208 h 10.188 v 29.202 h 6.212 V 24.592 h 10.194 m -38.771,29.202 h 6.337 v -35.41 h -6.337 v 35.41 z m -7.083,0 L 90.622,35.158 101.055,18.384 H 93.48 L 86.77,29.19 80.063,18.384 H 72.478 L 83.041,35.158 71.484,53.794 h 7.453 l 7.833,-12.549 7.951,12.549 h 7.457 z m -35.665,0 v -6.33 H 46.508 V 37.769 H 57.07 V 31.306 H 46.508 V 24.722 H 65.886 V 18.385 H 40.041 v 35.41 h 26.472 z"
   id="path16"
   inkscape:connector-curvature="0"
   style="fill:#000000;fill-rule:evenodd;stroke:none" />
<polyline
   clip-rule="evenodd"
   points="168.862,110.894 127.755,85.921 127.755,85.6   126.487,85.283 124.277,85.283 123.008,85.921 122.06,86.866 121.432,87.811 121.432,90.345 123.325,99.83 42.692,99.83   39.848,100.144 37.003,101.095 34.469,102.361 32.259,104.257 30.359,106.467 29.097,109.001 28.146,111.849 27.828,114.694   28.146,114.694 28.146,220.307 49.333,220.307 49.333,125.444 49.65,124.496 50.278,123.544 50.912,122.914 51.546,122.279   52.495,121.648 53.443,121.331 123.325,121.331 121.432,131.133 121.432,133.351 122.374,134.612 123.008,135.247 124.277,135.881   125.539,136.195 126.804,135.881 127.755,135.247 127.755,135.561 "
   id="polyline18"
   style="fill:#000000;fill-rule:evenodd;stroke:none"
   transform="translate(-1.417,-0.89300018)" />
<path
   clip-rule="evenodd"
   d="m 171.973,205.09 c 0,-13.052 -10.381,-22.777 -24.765,-22.777 -3.98,0 -7.072,0.439 -12.158,1.548 l 0.655,-9.066 h 31.185 l 0.217,-11.055 h -42.006 l -1.994,29.624 11.281,2.876 c 4.643,-1.768 7.961,-2.43 12.162,-2.43 4.633,0 7.958,0.885 10.175,2.648 2.427,1.991 3.975,5.31 3.975,8.632 0,7.069 -5.752,11.273 -15.262,11.273 -6.407,0 -12.828,-1.771 -18.35,-5.09 l -5.968,9.51 c 7.955,4.866 15.693,7.111 24.317,7.111 15.482,0.001 26.536,-9.544 26.536,-22.804 m -59.7,21.659 V 215.478 H 75.13 c 2.207,-4.204 3.978,-6.634 6.857,-9.07 3.758,-3.315 6.191,-4.42 14.592,-6.847 4.424,-1.331 7.292,-2.883 9.286,-4.427 4.201,-3.538 6.407,-8.401 6.407,-13.707 0,-11.5 -9.506,-18.796 -24.318,-18.796 -10.165,0 -19.246,3.318 -26.549,9.733 l 7.743,8.624 c 5.316,-4.866 11.291,-6.854 19.469,-6.854 7.962,0 12.386,2.646 12.386,7.292 0,3.762 -2.43,5.976 -9.51,7.959 -11.5,3.099 -19.462,8.844 -24.998,18.127 -3.542,6.194 -5.09,11.723 -5.09,19.235 h 50.868 z"
   id="path20"
   inkscape:connector-curvature="0"
   style="fill:#000000;fill-rule:evenodd;stroke:none" />
<path
   d="m 103.154,263.005 v -14.6 l -7.031,14.6 -6.961,-14.6 v 14.6 h -4.211 v -23.917 h 4.211 l 6.961,14.174 7.031,-14.174 h 4.211 v 23.917 h -4.211 z"
   id="path22"
   inkscape:connector-curvature="0"
   style="fill:#000000;stroke:none" />
<path
   d="m 129.034,252.69 c -1.356,0.746 -2.461,0.928 -4.281,0.928 h -6.818 v 9.388 h -4.357 v -23.917 h 11.176 c 1.82,0 2.925,0.251 4.281,1 2.252,1.252 3.678,3.604 3.678,6.32 -0.002,2.496 -1.427,5.03 -3.679,6.281 z m -4.142,-9.317 h -6.958 v 5.961 h 6.958 c 2.105,0 3.535,-1.179 3.535,-2.925 0,-1.859 -1.429,-3.036 -3.535,-3.036 z"
   id="path24"
   inkscape:connector-curvature="0"
   style="fill:#000000;stroke:none" />
<path
   d="m 151.772,263.005 v -10.423 h -10.747 v 10.423 h -4.28 v -23.917 h 4.28 v 9.244 h 10.747 v -9.244 h 4.284 v 23.917 h -4.284 z"
   id="path26"
   inkscape:connector-curvature="0"
   style="fill:#000000;stroke:none" />
</svg>