<?xml version="1.0" encoding="UTF-8" standalone="no"?>
<svg
   xmlns:dc="http://purl.org/dc/elements/1.1/"
   xmlns:cc="http://creativecommons.org/ns#"
   xmlns:rdf="http://www.w3.org/1999/02/22-rdf-syntax-ns#"
   xmlns:svg="http://www.w3.org/2000/svg"
   xmlns="http://www.w3.org/2000/svg"
   xmlns:sodipodi="http://sodipodi.sourceforge.net/DTD/sodipodi-0.dtd"
   xmlns:inkscape="http://www.inkscape.org/namespaces/inkscape"
   width="105.70107"
   height="52.827667"
   viewBox="0 0 298.31196 149.09141"
   version="1.1"
   id="svg2"
   inkscape:version="0.48.2 r9819"
   sodipodi:docname="AJAX1.svg">
  <metadata
     id="metadata62">
    <rdf:RDF>
      <cc:Work
         rdf:about="">
        <dc:format>image/svg+xml</dc:format>
        <dc:type
           rdf:resource="http://purl.org/dc/dcmitype/StillImage" />
        <dc:title />
      </cc:Work>
    </rdf:RDF>
  </metadata>
  <defs
     id="defs60" />
  <sodipodi:namedview
     pagecolor="#ffffff"
     bordercolor="#666666"
     borderopacity="1"
     objecttolerance="10"
     gridtolerance="10"
     guidetolerance="10"
     inkscape:pageopacity="0"
     inkscape:pageshadow="2"
     inkscape:window-width="1280"
     inkscape:window-height="1004"
     id="namedview58"
     showgrid="false"
     fit-margin-top="0"
     fit-margin-left="0"
     fit-margin-right="0"
     fit-margin-bottom="0"
     inkscape:zoom="5.8194445"
     inkscape:cx="61.528741"
     inkscape:cy="7.6080693"
     inkscape:window-x="-8"
     inkscape:window-y="-8"
     inkscape:window-maximized="1"
     inkscape:current-layer="svg2"
     showguides="true"
     inkscape:guide-bbox="true" />
  <!-- draw the bicycle -->
  <!-- RIGHT -->
  <!-- LANE -->
  <!-- ONLY -->
  <path
     inkscape:connector-curvature="0"
     d="m 286.6567,149.08742 -275.000918,0.004 C 5.2352223,149.09095 2.2888942e-6,143.85926 2.2888942e-6,137.43517 l 0,-125.782934 C -0.00399771,5.2387359 5.2352223,-1.4139895e-5 11.655782,-1.4139895e-5 L 286.6567,0.00398586 c 6.42056,0 11.65226,5.23170004 11.65226,11.65226014 l 0.003,125.775874 c -0.006,6.34648 -5.31284,11.66284 -11.65578,11.65578"
     style="fill:#fecf33;fill-opacity:1;fill-rule:nonzero;stroke:none"
     id="path3238" />
  <path
     inkscape:connector-curvature="0"
     d="m 286.61543,145.85598 -274.923308,0 c -4.6213897,-0.007 -8.4455097,-3.83823 -8.4560897,-8.45962 l 0.004,-125.701794 c -0.004,-4.6213901 3.83469,-8.4419701 8.4560797,-8.4560801 l 274.916258,0 c 4.62844,0.0106 8.45256,3.82764 8.45608,8.4631401 l 0.003,125.701794 c -0.0113,4.60728 -3.82412,8.45609 -8.45609,8.45256"
     style="fill:#000000;fill-opacity:1;fill-rule:evenodd;stroke:none"
     id="path3262" />
  <path
     inkscape:connector-curvature="0"
     d="m 286.55689,141.32913 -274.803358,-0.007 c -2.1907497,0.0459 -4.0216697,-1.79564 -3.9863897,-3.98287 l 0.004,-125.581894 c -0.0388,-2.1872301 1.79212,-4.0252001 3.9828697,-3.9828701 l 274.799838,0 c 2.19075,-0.0423 4.02872,1.79564 3.98286,3.9828701 l 0.006,125.581844 c 0.0389,2.1837 -1.79916,4.0252 -3.98639,3.98992"
     style="fill:#fecf33;fill-opacity:1;fill-rule:evenodd;stroke:none"
     id="path3266" />
  <path
     inkscape:connector-curvature="0"
     d="m 106.08915,93.173556 86.06368,0 -6.27944,20.902074 c -0.65264,2.57881 -0.91017,4.75192 0.51505,6.84742 2.13431,3.1362 6.43114,3.95464 9.57087,1.82386 l 71.20115,-48.242364 -71.20115,-48.1577 c -3.13973,-2.13784 -7.43656,-1.31586 -9.57087,1.82033 -1.48872,2.18722 -1.15711,4.29683 -0.36336,7.14022 l 6.12775,20.5599 -86.06368,0 6.20183,-20.5599 c 0.79023,-2.84339 1.12184,-4.953 -0.36689,-7.14022 -2.13077,-3.13619 -6.43114,-3.95817 -9.57086,-1.82033 l -71.201148,48.1577 71.201148,48.242364 c 3.13972,2.13078 7.44009,1.31234 9.57086,-1.82386 1.42875,-2.0955 1.1677,-4.26861 0.51153,-6.84742 l -6.34647,-20.902074 z"
     style="fill:#000000;fill-opacity:1;fill-rule:evenodd;stroke:none"
     id="path3270" />
</svg>
