<?xml version="1.0" encoding="UTF-8" standalone="no"?>
<svg
   xmlns:dc="http://purl.org/dc/elements/1.1/"
   xmlns:cc="http://creativecommons.org/ns#"
   xmlns:rdf="http://www.w3.org/1999/02/22-rdf-syntax-ns#"
   xmlns:svg="http://www.w3.org/2000/svg"
   xmlns="http://www.w3.org/2000/svg"
   xmlns:sodipodi="http://sodipodi.sourceforge.net/DTD/sodipodi-0.dtd"
   xmlns:inkscape="http://www.inkscape.org/namespaces/inkscape"
   width="74.429893"
   height="74.431252"
   viewBox="0 0 210.05775 210.06152"
   version="1.1"
   id="svg2"
   inkscape:version="0.48.2 r9819"
   sodipodi:docname="MUTCD W8-9.svg">
  <metadata
     id="metadata62">
    <rdf:RDF>
      <cc:Work
         rdf:about="">
        <dc:format>image/svg+xml</dc:format>
        <dc:type
           rdf:resource="http://purl.org/dc/dcmitype/StillImage" />
        <dc:title></dc:title>
      </cc:Work>
    </rdf:RDF>
  </metadata>
  <defs
     id="defs60" />
  <sodipodi:namedview
     pagecolor="#ffffff"
     bordercolor="#666666"
     borderopacity="1"
     objecttolerance="10"
     gridtolerance="10"
     guidetolerance="10"
     inkscape:pageopacity="0"
     inkscape:pageshadow="2"
     inkscape:window-width="1280"
     inkscape:window-height="1004"
     id="namedview58"
     showgrid="false"
     fit-margin-top="0"
     fit-margin-left="0"
     fit-margin-right="0"
     fit-margin-bottom="0"
     inkscape:zoom="8.0000001"
     inkscape:cx="41.235759"
     inkscape:cy="28.494524"
     inkscape:window-x="-8"
     inkscape:window-y="-8"
     inkscape:window-maximized="1"
     inkscape:current-layer="svg2" />
  <!-- draw the bicycle -->
  <!-- RIGHT -->
  <!-- LANE -->
  <!-- ONLY -->
  <path
     d="M 206.65025,96.805734 113.26995,3.43602 C 111.11095,1.262908 108.10881,-3.6983694e-5 105.03611,-3.6983694e-5 101.97047,-3.6983694e-5 98.97892,1.262908 96.79522,3.43602 L 3.4113897,96.805734 C 1.2418097,98.978844 -0.00702031,101.95982 2.9689291e-5,105.04663 0.02122969,108.11227 1.2488597,111.11088 3.4113897,113.28046 L 96.79522,206.64665 c 2.16253,2.16253 5.19289,3.41136 8.24795,3.41489 3.05153,-0.003 6.07483,-1.25236 8.23383,-3.41489 l 93.37325,-93.36266 c 2.79752,-2.79753 3.98991,-7.0097 3.13619,-10.86203 -0.50094,-2.21897 -1.72861,-3.866446 -3.13619,-5.616226"
     style="fill:#ffd033;fill-opacity:1;fill-rule:nonzero;stroke:none"
     id="path6132"
     inkscape:connector-curvature="0" />
  <path
     d="m 204.34308,110.97329 -93.36972,93.36619 c -1.56986,1.56281 -3.71828,2.45534 -5.93019,2.45534 -2.21192,0 -4.35681,-0.89253 -5.92667,-2.45534 L 5.7079797,110.96977 c -1.55223,-1.55223 -2.43417,-3.72886 -2.43417,-5.92667 0.007,-2.19781 0.889,-4.37797 2.43769,-5.930196 L 99.10944,5.718492 c 1.56281,-1.545167 3.73592,-2.430639 5.92667,-2.430639 2.19781,0 4.3815,0.885472 5.93725,2.430639 l 93.36972,93.397942 c 1.56633,1.569856 2.45181,3.714746 2.45181,5.926666 0,2.21544 -0.88548,4.36033 -2.45181,5.93019"
     style="fill:#000000;fill-opacity:1;fill-rule:evenodd;stroke:none"
     id="path6140"
     inkscape:connector-curvature="0" />
  <path
     d="m 201.12575,107.74891 c 0.70908,-0.70203 1.12183,-1.71451 1.12183,-2.70581 0,-0.98072 -0.41275,-2.02142 -1.12183,-2.71992 L 107.74192,8.94641 c -0.69497,-0.6985 -1.7145,-1.111251 -2.69875,-1.111251 -0.98778,0 -2.02142,0.412751 -2.72345,1.111251 L 8.9323697,102.32318 c -0.70556,0.70909 -1.09714,1.71803 -1.09714,2.71639 0.007,0.99836 0.39158,1.9932 1.10419,2.70581 l 93.3803003,93.39088 c 0.70203,0.6985 1.74272,1.11125 2.72345,1.11125 0.9913,0 2.00378,-0.41275 2.7058,-1.11125 l 93.37678,-93.38735 z"
     style="fill:#ffd033;fill-opacity:1;fill-rule:evenodd;stroke:none"
     id="path6144"
     inkscape:connector-curvature="0" />
  <path
     d="m 167.58363,101.89281 0,-25.527002 -4.02519,0 0,16.298338 -9.31334,-16.298338 -4.03578,0 0,25.527002 4.03578,0 0,-17.286111 9.75784,17.286111 3.58069,0 z m -21.58295,0 0,-4.120441 -11.82159,0 0,-6.988529 7.43656,0 0,-4.120446 -7.43656,0 0,-6.268863 11.01373,0 0,-4.028723 -15.04245,0 0,25.527002 15.85031,0 z m -19.61445,-25.527002 -4.29684,0 -5.36928,17.018005 -5.45747,-17.018005 -4.22275,0 8.06803,25.527002 3.12914,0 8.14917,-25.527002 z m -21.30778,25.527002 0,-4.120441 -11.828646,0 0,-6.988529 7.433026,0 0,-4.120446 -7.433026,0 0,-6.268863 11.020776,0 0,-4.028723 -15.045972,0 0,25.527002 15.853842,0 z m -21.858121,0 0,-25.527002 -4.028723,0 0,16.298338 -9.313336,-16.298338 -4.025195,0 0,25.527002 4.025195,0 0,-17.286111 9.764892,17.286111 3.577167,0 z m -23.371533,-9.136942 0,-16.39006 -4.032251,0 0,16.39006 c 0,3.312584 -1.876778,5.464529 -4.646085,5.464529 -2.786945,0 -4.663723,-2.151945 -4.663723,-5.464529 l 0,-16.39006 -4.032251,0 0,16.39006 c 0,1.968501 0.451555,3.760612 1.164167,5.284613 1.351139,2.508249 4.392084,4.314469 7.531807,4.314469 3.12914,0 6.173613,-1.80622 7.517697,-4.314469 0.709083,-1.524001 1.160639,-3.316112 1.160639,-5.284613"
     style="fill:#000000;fill-opacity:1;fill-rule:evenodd;stroke:none"
     id="path7276"
     inkscape:connector-curvature="0" />
  <path
     d="m 155.83966,139.33313 c 0,-10.02595 -11.99092,-6.88975 -12.35781,-11.63814 -0.17992,-2.32834 2.06022,-3.04448 3.94405,-2.95628 2.86456,0.0917 3.76062,2.24014 3.76062,2.24014 l 3.58069,-1.07597 c -1.25236,-3.13267 -3.67242,-5.19289 -7.24958,-5.19289 -4.56848,0 -7.97632,1.8803 -7.97632,6.8968 0,4.20159 3.40784,5.73264 4.93537,6.35353 3.30553,1.34056 7.24606,1.88031 7.24606,5.29167 0,2.14136 -1.60514,3.76061 -3.94053,3.76061 -2.42006,0 -4.38856,-1.35114 -5.46453,-3.76061 l -3.84881,1.43228 c 1.70039,3.84528 4.92478,6.45583 9.31334,6.45583 2.15194,0 4.12045,-0.72319 5.55272,-1.98614 1.6122,-1.42522 2.50473,-3.4925 2.50473,-5.82083 m -19.78732,7.34483 0,-4.12044 -11.82158,0 0,-6.985 7.43302,0 0,-4.11339 -7.43302,0 0,-6.27239 11.01372,0 0,-4.03578 -15.0495,0 0,25.527 15.85736,0 z m -21.85106,0 0,-25.527 -4.03578,0 0,16.30892 -9.31333,-16.30892 -4.021671,0 0,25.527 4.021671,0 0,-17.27906 9.76489,17.27906 3.58422,0 z m -29.471062,-11.28536 -5.09764,0 2.596445,-7.16139 2.501195,7.16139 z m 8.247947,11.28536 -8.784169,-25.527 -4.025195,0 -8.773586,25.527 4.296835,0 2.50825,-7.15786 7.969252,0 2.508251,7.15786 4.300362,0 z m -23.110478,0 0,-3.75355 -11.821586,0 0,-21.77345 -4.025196,0 0,25.527 15.846782,0 z"
     style="fill:#000000;fill-opacity:1;fill-rule:evenodd;stroke:none"
     id="path7280"
     inkscape:connector-curvature="0" />
</svg>
