<?xml version="1.0" encoding="UTF-8" standalone="no"?>
<svg
   xmlns:dc="http://purl.org/dc/elements/1.1/"
   xmlns:cc="http://creativecommons.org/ns#"
   xmlns:rdf="http://www.w3.org/1999/02/22-rdf-syntax-ns#"
   xmlns:svg="http://www.w3.org/2000/svg"
   xmlns="http://www.w3.org/2000/svg"
   xmlns:sodipodi="http://sodipodi.sourceforge.net/DTD/sodipodi-0.dtd"
   xmlns:inkscape="http://www.inkscape.org/namespaces/inkscape"
   width="48.096336"
   height="36.070328"
   viewBox="0 0 135.73857 101.79848"
   version="1.1"
   id="svg2"
   inkscape:version="0.48.2 r9819"
   sodipodi:docname="AJAX1.svg">
  <metadata
     id="metadata62">
    <rdf:RDF>
      <cc:Work
         rdf:about="">
        <dc:format>image/svg+xml</dc:format>
        <dc:type
           rdf:resource="http://purl.org/dc/dcmitype/StillImage" />
        <dc:title></dc:title>
      </cc:Work>
    </rdf:RDF>
  </metadata>
  <defs
     id="defs60" />
  <sodipodi:namedview
     pagecolor="#ffffff"
     bordercolor="#666666"
     borderopacity="1"
     objecttolerance="10"
     gridtolerance="10"
     guidetolerance="10"
     inkscape:pageopacity="0"
     inkscape:pageshadow="2"
     inkscape:window-width="1280"
     inkscape:window-height="1004"
     id="namedview58"
     showgrid="false"
     fit-margin-top="0"
     fit-margin-left="0"
     fit-margin-right="0"
     fit-margin-bottom="0"
     inkscape:zoom="5.6568543"
     inkscape:cx="40.006853"
     inkscape:cy="-2.3171788"
     inkscape:window-x="-8"
     inkscape:window-y="-8"
     inkscape:window-maximized="1"
     inkscape:current-layer="svg2" />
  <!-- draw the bicycle -->
  <!-- RIGHT -->
  <!-- LANE -->
  <!-- ONLY -->
  <path
     inkscape:connector-curvature="0"
     d="m 11.62452,0.00379196 112.80075,0 0.4903,0 0.014,0.011 c 5.835,0.2575 10.5551,4.97769994 10.795,10.82320004 l 0.014,0.011 0,0.4656 0,79.174 0,0.1023 0,0 c -0.046,5.722 -4.3885,10.449198 -9.9412,11.126598 l -0.078,0.081 -1.2947,0 -113.1112,0 -0.28928,0 -0.007,0 C 5.10116,101.64669 0.28222,96.898292 0.0141,90.999792 L 0,90.988792 l 0,-0.5044 0,-78.6342 0.0141,-0.011 C 0.0071,11.662792 0,11.486392 0,11.309992 0,5.0799919 5.08706,-8.0454096e-6 11.31359,-8.0454096e-6 c 0.10583,0 0.20814,0 0.31044,0 l 0,0 z"
     style="fill:#ffd033;fill-opacity:1;fill-rule:nonzero;stroke:none"
     id="path3188" />
  <path
     inkscape:connector-curvature="0"
     d="m 12.44652,2.2636919 110.84985,0 c 5.6092,0 10.1776,4.5755 10.1776,10.1847001 l 0,76.9091 c 0,5.6056 -4.5684,10.1811 -10.1776,10.1811 l -110.84985,0 c -5.60916,0 -10.17764,-4.5755 -10.17764,-10.1811 l 0,-76.9091 c 0,-5.6092001 4.56848,-10.1847001 10.17764,-10.1847001"
     style="fill:#000000;fill-opacity:1;fill-rule:evenodd;stroke:none"
     id="path3196" />
  <path
     inkscape:connector-curvature="0"
     d="m 12.54174,5.6259919 110.65933,0 c 3.8171,0 6.9356,3.1185 6.9356,6.9427001 l 0,76.7044 c 0,3.8241 -3.1185,6.9427 -6.9356,6.9427 l -110.65933,0 c -3.82411,0 -6.93914,-3.1186 -6.93914,-6.9427 l 0,-76.7044 c 0,-3.8242001 3.11503,-6.9427001 6.93914,-6.9427001"
     style="fill:#ffd033;fill-opacity:1;fill-rule:evenodd;stroke:none"
     id="path3200" />
  <path
     inkscape:connector-curvature="0"
     d="m 121.33847,22.861992 -3.168,0 -1.9861,12.0615 -2.1414,-12.0615 -2.5365,0 -2.2189,12.0615 -1.9015,-12.0615 -3.175,0 3.5701,22.6131 2.8505,0 2.1519,-11.8216 2.1343,11.8216 2.7764,0 3.6442,-22.6131 z m -22.9976,11.2677 c 0,2.6141 -0.1588,3.9652 -0.7162,5.7926 -0.5538,1.9015 -1.4287,2.7729 -2.7763,2.7729 -1.4288,0 -2.2966,-0.8714 -2.854,-2.7729 -0.4762,-1.8274 -0.7161,-3.2526 -0.7161,-5.715 0,-2.5364 0.1587,-4.0463 0.7161,-5.789 0.5574,-1.9015 1.4252,-2.7764 2.854,-2.7764 1.3476,0 2.2225,0.8749 2.7763,2.8575 0.4798,1.6616 0.7162,3.0939 0.7162,5.6303 m 3.0938,0 c 0,-3.4113 -0.3175,-5.5527 -1.27,-7.7752 -1.1147,-2.7764 -2.6987,-3.8841 -5.3163,-3.8841 -2.6212,0 -4.2051,1.1077 -5.3905,3.8065 -0.956,2.1414 -1.2735,4.4415 -1.2735,7.8528 0,3.4925 0.3175,5.6304 1.2735,7.8529 1.1113,2.6987 2.6953,3.8982 5.3905,3.8982 2.54,0 4.2016,-1.1995 5.3163,-3.8982 0.9525,-2.1379 1.27,-4.3604 1.27,-7.8529 m -15.9526,11.3454 0,-3.0128 -8.2479,0 0,-19.6003 -3.2526,0 0,22.6131 11.5005,0 z m -26.57473,0 0,-3.175 -8.24795,0 0,-7.4542 4.67783,0 0,-3.0939 -4.67783,0 0,-5.715 7.38011,0 0,-3.175 -10.62567,0 0,22.6131 11.49351,0 z m -15.31056,-6.1913 c 0,-3.2526 -1.90147,-5.7079 -6.26534,-8.2479 -1.65805,-0.9525 -2.14136,-1.5875 -2.14136,-2.6953 0,-1.5098 1.19239,-2.6211 2.70228,-2.6211 1.42522,0 2.54,1.0301 2.61761,2.6211 l 3.08681,0 c -0.0706,-3.4113 -2.53647,-5.8702 -5.70442,-5.8702 -3.25261,0 -5.79614,2.6141 -5.79614,5.8702 0,1.9791 0.95603,3.7254 2.77636,4.9954 4.60375,3.0974 3.33375,2.2225 3.81,2.6952 1.35114,1.0301 1.82739,1.9826 1.82739,3.2526 0,1.8274 -1.4358,3.4114 -3.17853,3.4114 -2.21897,0 -3.16794,-1.9826 -3.16794,-3.8841 l -3.17853,0 c 0,3.7253 2.37772,7.0697 6.34647,7.0697 3.49603,0 6.26534,-2.9493 6.26534,-6.597 m -16.33714,-0.5539 0,-15.8679 -3.24556,0 0,16.2631 c 0,2.1448 -1.27353,3.5701 -3.01978,3.5701 -1.90853,0 -3.175,-1.4253 -3.175,-3.5701 l 0,-16.2631 -3.25261,0 0,15.8679 c 0,1.8274 0.24342,2.7764 0.87489,3.9653 1.11125,1.905 3.33022,3.1856 5.55272,3.1856 2.13784,0 4.2792,-1.3582 5.39045,-3.1856 0.63147,-1.1889 0.87489,-2.1379 0.87489,-3.9653"
     style="fill:#000000;fill-opacity:1;fill-rule:evenodd;stroke:none"
     id="path3204" />
  <path
     inkscape:connector-curvature="0"
     d="m 95.13057,62.673292 c 0,1.8239 -1.0266,2.854 -2.9351,2.854 l -3.3373,0 0,-5.7115 3.3373,0 c 1.7427,0 2.9351,1.1113 2.9351,2.8575 m 3.175,16.5771 -3.2596,-11.1055 c 2.1519,-0.7937 3.2596,-2.7763 3.2596,-5.4716 0,-3.6477 -2.3848,-6.0325 -5.9549,-6.0325 l -6.738,0 0,22.6096 3.2455,0 0,-10.6292 3.101,0 3.0127,10.6292 3.3337,0 z m -21.4206,-9.3592 -3.2527,0 1.584,-6.5052 1.6687,6.5052 z m 5.6268,9.3592 -5.6268,-22.6096 -3.1715,0 -5.63388,22.6096 3.25614,0 1.50284,-6.1877 4.8436,0 1.5875,6.1877 3.2421,0 z m -16.4924,0 0,-3.1715 -8.24795,0 0,-7.4577 4.67078,0 0,-3.0939 -4.67078,0 0,-5.7115 7.37306,0 0,-3.175 -10.62567,0 0,22.6096 11.50056,0 z m -15.94556,-6.2654 0,-4.6813 -5.79614,0 0,3.1715 2.53647,0 0,1.5098 c 0,2.3813 -0.79022,3.489 -2.45533,3.489 -1.74978,0 -2.8575,-1.1888 -3.33375,-3.4113 -0.3175,-1.7463 -0.47625,-3.7254 -0.47625,-5.6304 0,-2.6987 0.40216,-5.2352 1.03363,-6.3465 0.56092,-1.1147 1.42876,-1.6686 2.53648,-1.6686 1.5875,0 2.62114,1.0336 2.69522,2.5435 l 3.25967,0 c -0.15875,-3.3337 -2.61761,-5.715 -5.87023,-5.715 -2.62114,0 -4.92125,1.7463 -5.715,4.1275 -0.79022,2.1414 -1.03364,4.445 -1.03364,7.613 0,2.9351 0.47625,6.1066 1.19239,7.7752 1.11125,2.54 3.09386,3.9017 5.78909,3.9017 2.30364,0 4.1275,-1.2029 4.99533,-3.1891 0.48331,-0.949 0.64206,-1.905 0.64206,-3.489"
     style="fill:#000000;fill-opacity:1;fill-rule:evenodd;stroke:none"
     id="path3208" />
</svg>
