<?xml version="1.0" encoding="UTF-8" standalone="no"?>
<svg
   xmlns:dc="http://purl.org/dc/elements/1.1/"
   xmlns:cc="http://creativecommons.org/ns#"
   xmlns:rdf="http://www.w3.org/1999/02/22-rdf-syntax-ns#"
   xmlns:svg="http://www.w3.org/2000/svg"
   xmlns="http://www.w3.org/2000/svg"
   xmlns:sodipodi="http://sodipodi.sourceforge.net/DTD/sodipodi-0.dtd"
   xmlns:inkscape="http://www.inkscape.org/namespaces/inkscape"
   height="80.761871"
   width="80.760307"
   viewBox="82.992 45.607 236.56845 260.48811"
   id="svg2"
   version="1.1"
   inkscape:version="0.48.2 r9819"
   sodipodi:docname="Nebraska W40-1-30.svg">
  <metadata
     id="metadata2508">
    <rdf:RDF>
      <cc:Work
         rdf:about="">
        <dc:format>image/svg+xml</dc:format>
        <dc:type
           rdf:resource="http://purl.org/dc/dcmitype/StillImage" />
        <dc:title></dc:title>
      </cc:Work>
    </rdf:RDF>
  </metadata>
  <sodipodi:namedview
     pagecolor="#ffffff"
     bordercolor="#666666"
     borderopacity="1"
     objecttolerance="10"
     gridtolerance="10"
     guidetolerance="10"
     inkscape:pageopacity="0"
     inkscape:pageshadow="2"
     inkscape:window-width="1280"
     inkscape:window-height="1004"
     id="namedview2506"
     showgrid="false"
     inkscape:zoom="7.3751364"
     inkscape:cx="47.474373"
     inkscape:cy="46.43771"
     inkscape:window-x="-8"
     inkscape:window-y="-8"
     inkscape:window-maximized="1"
     inkscape:current-layer="svg2"
     showguides="true"
     inkscape:guide-bbox="true"
     fit-margin-top="0"
     fit-margin-left="0"
     fit-margin-right="0"
     fit-margin-bottom="0" />
  <defs
     id="defs4">
    <linearGradient
       id="linearGradient6324">
      <stop
         style="stop-color:#ec8028;stop-opacity:1;"
         offset="0"
         id="stop6326" />
      <stop
         style="stop-color:#ec8028;stop-opacity:0;"
         offset="1"
         id="stop6328" />
    </linearGradient>
    <clipPath
       id="SVG_CP_1">
      <path
         inkscape:connector-curvature="0"
         d="M 598.41107,0 0,0 l 0,392.15871 598.41107,0 0,-392.15871 z"
         id="path21406" />
    </clipPath>
    <clipPath
       id="clipPath6506">
      <path
         inkscape:connector-curvature="0"
         d="M 598.41107,0 0,0 l 0,392.15871 598.41107,0 0,-392.15871 z"
         id="path6508" />
    </clipPath>
    <clipPath
       id="clipPath6510">
      <path
         inkscape:connector-curvature="0"
         d="M 598.41107,0 0,0 l 0,392.15871 598.41107,0 0,-392.15871 z"
         id="path6512" />
    </clipPath>
    <clipPath
       id="clipPath6514">
      <path
         inkscape:connector-curvature="0"
         d="M 598.41107,0 0,0 l 0,392.15871 598.41107,0 0,-392.15871 z"
         id="path6516" />
    </clipPath>
    <clipPath
       id="clipPath6518">
      <path
         inkscape:connector-curvature="0"
         d="M 598.41107,0 0,0 l 0,392.15871 598.41107,0 0,-392.15871 z"
         id="path6520-6" />
    </clipPath>
    <clipPath
       id="clipPath6522">
      <path
         inkscape:connector-curvature="0"
         d="M 598.41107,0 0,0 l 0,392.15871 598.41107,0 0,-392.15871 z"
         id="path6524-5" />
    </clipPath>
    <clipPath
       id="clipPath6526">
      <path
         inkscape:connector-curvature="0"
         d="M 598.41107,0 0,0 l 0,392.15871 598.41107,0 0,-392.15871 z"
         id="path6528-2" />
    </clipPath>
    <clipPath
       id="SVG_CP_1-9">
      <path
         inkscape:connector-curvature="0"
         d="M 598.41107,0 0,0 l 0,392.15871 598.41107,0 0,-392.15871 z"
         id="path21406-3" />
    </clipPath>
    <clipPath
       id="SVG_CP_1-0">
      <path
         inkscape:connector-curvature="0"
         d="M 598.41107,0 0,0 l 0,392.15871 598.41107,0 0,-392.15871 z"
         id="path21406-1" />
    </clipPath>
    <clipPath
       id="clipPath6597">
      <path
         inkscape:connector-curvature="0"
         d="M 598.41107,0 0,0 l 0,392.15871 598.41107,0 0,-392.15871 z"
         id="path6599" />
    </clipPath>
    <clipPath
       id="clipPath6601">
      <path
         inkscape:connector-curvature="0"
         d="M 598.41107,0 0,0 l 0,392.15871 598.41107,0 0,-392.15871 z"
         id="path6603" />
    </clipPath>
  </defs>
  <style
     id="style_css_sheet"
     type="text/css"> 
/*
 * Below are Cascading Style Sheet (CSS) definitions in use in this file,
 * which allow easily changing how countries are displayed.
 *
 */

/*
 * Circles around small countries
 *
 * Change opacity to 1 to display all circles.
 *
 */
.circlexx
{
   opacity:1;
   fill:#e0e0e0;
   stroke:#000000;
   stroke-width:0.5;
}

/*
 * Smaller circles around French DOMs and Chinese SARs
 *
 * Change opacity to 1 to display all subnational circles.
 *
 */
.subxx
{
   opacity:1;
   stroke-width:0.3;
}

/*
 * Circles around small, unrecognized countries
 *
 * Change opacity to 1 to display all circles.
 *
 */
.unxx
{
   opacity:0;
   fill:#e0e0e0;
   stroke:#000000;
   stroke-width:0.3;
}

/*
 * Circles around small countries, but with no permanent residents 
 *
 * Change opacity to 1 to display all circles.
 *
 */
.noxx
{
   opacity:0;
   fill:#e0e0e0;
   stroke:#000000;
   stroke-width:0.5;
}

/*
 * land
 */
.landxx
{
   fill: #e0e0e0;
   stroke:#ffffff;
   stroke-width:0.5;
   fill-rule:evenodd;
}

/*
 * Styles for coastlines of islands with no borders
 */
.coastxx
{
   fill: #e0e0e0;
   stroke:#ffffff;
   stroke-width:0.3;
   fill-rule:evenodd;
}

/*
 * Styles for nations with limited recognition
 */
.limitxx
{
   fill: #e0e0e0;
   stroke:#ffffff;
   stroke-width:0;
   fill-rule:evenodd;
}

/*
 * Styles for nations with no permanent population.
 */
.antxx
{
   fill: #e0e0e0;
   stroke:#ffffff;
   stroke-width:0;
   fill-rule:evenodd;
}

/*
 * Ocean
 */
.oceanxx
{
   opacity: 1;
   color: #000000;
   fill:#ffffff;
   stroke:#000;
   stroke-width:0.5;
   stroke-miterlimit:1;
}

/*
 * Additional style rules
 *
 * The following are examples of colouring countries.  You can substitute these with your own styles to colour the countries on the map.
 *
 * Color a few countries:
 *
 * .gb, .au, .nc
 * {
 *    fill:       #ff0000;
 * }
 *
 * Color a few small country circles (and the countries):
 *
 * .ms, .ky
 * {
 *    opacity:    1;
 *    fill:       #ff0000;
 * }
 *
 */

/* Same-sex marriage */
.ar, .be, .ca, .dk, .es, .is, .nl, .no, .pt, .se, .za
{ fill: #002255; }

/* Civil unions etc. */
.ad, .at, .au, .bl, .br, .ch, .co, .cz, .de, .ec, .fi, .fr, .gb, .gf, .gl, .hr, .hu, .ie, .il, .im, .je, .li, .lu, .mf, .nc, .nf, .nz, .pm, .re, .si, .uy, .wf
{ fill: #0066ff; }

/* Recognition of foreign marriages */
.aw, .cw, .sx, .mx
{ fill: #7fbcff; }

/* Legal but no recognition */
.ai, .al, .am, .as, .az, .ba, .bg, .bf, .by, .bj, .bm, .bo, .bs, .cd, .cg, .cf, .ci, .cl, .cn, .cr, .cu, .cv, .cy, .dj, .do, .ee, .fk, .fj, .fm, .fo, .ga, .ge, .gg, .gi, .gq, .gr, .gs, .gt, .gu, .gw, .hn, .ht, .id, .in, .iq, .it, .jo, .jp, .kg, .kh, .kp, .kr, .ky, .kz, .la, .lk, .lt, .lv, .mc, .md, .me, .mg, .mh, .mk, .ml, .mn, .mp, .mt, .ms, .mz, .ne, .ni, .np, .pa, .pe, .pf, .ph, .pl, .pn, .pr, .py, .ro, .rs, .ru, .rw, .sh, .sk, .sm, .sr, .st, .sv, .tc, .td, .th, .tj, .tk, .tl, .tr, .tw, .ua, .us, .va, .ve, .vg, .vi, .vn, .vu, .xk, .ps_west_bank
{ fill: #cccccc; }

/* Illegal, minimal penalty */
.bt, .lb, .lr
{ fill: #f9dc36; }

/* Illegal, large penalty */
.ag, .ao, .bh, .bi, .bn, .bw, .bz, .cm, .ck, .dm, .dz, .eg, .eh, .er, .et, .gd, .gh, .gm, .gn, .jm, .ke, .ki, .km, .kn, .kw, .lc, .ls, .ly, .ma, .mu, .mv, .mw, .my, .na, .ng, .nr, .nu, .om, .pg, .pw, .qa, .sb, .sc, .sg, .sn, .so, .ss, .sy, .sz, .tg, .tm, .tn, .to, .tt, .tv, .uz, .vc, .ws, .zm, .zw, .xc, .ps_gaza_strip
{ fill: #ec8028; }

/* Illegal, life imprisonment */
.bb, .bd, .gy, .mm, .pk, .sl, .tz, .ug
{ fill: #e73e21; }

/* Illegal, death penalty */
.ae, .af, .ir, .mr, .sa, .sd, .ye
{ fill: #8c201f; }

/* SUB-NATIONAL UNITS */

/* Same-sex marriage */
.br_al, .mx_dif, .us_ct, .us_dc, .us_ia, .us_ma, .us_md, .us_nh, .us_ny, .us_vt, .us_wa
{ fill: #002255; }

/* Civil unions etc. */
.mx_coa, .uk_je, .us_ca, .us_co, .us_de, .us_hi, .us_il, .us_me, .us_nj, .us_nv, .us_or, .us_ri, .us_wi, .ve_l
{ fill: #0066ff; }

/* Recognition of foreign marriages */
.bq
{ fill: #7fbcff; }

/* Illegal, large penalty */
.id_ac
{ fill: #ec8028; }

/* Illegal, death penalty */
.ng_sharia, .so_shabaab
{ fill: #8c201f; }

</style>
  <path
     inkscape:connector-curvature="0"
     d="M 328.01624,184.30156 209.72525,302.59659 c -4.66472,4.66471 -12.22824,4.66471 -16.90102,0 -4.66068,-4.66472 0,0 0,0 L 74.533232,184.30156 c -4.66472,-4.66875 -4.66472,-12.23227 0,-16.90102 4.66874,-4.66068 0,0 0,0 L 192.82423,49.105533 c 0,0 -4.66068,4.67277 0,0 4.67278,-4.66471 12.2363,-4.66471 16.90102,0 4.66874,4.67277 0,0 0,0 L 328.01624,167.40054 c 0,0 -4.6567,-4.66068 0,0 4.6687,4.66875 4.6687,12.23227 0,16.90102 -4.6567,4.66874 0,0 0,0"
     style="fill:#fecf33;fill-opacity:1;fill-rule:nonzero;stroke:none"
     id="path73173" />
  <path
     style="fill:#000000;fill-opacity:1;fill-rule:nonzero;stroke:none"
     d="m 201.14611,48.946986 c -2.20887,0 -4.36233,0.832536 -6.04759,2.519832 L 76.767209,169.69733 c -3.374559,3.37053 -3.374559,8.92626 0,12.29678 L 195.09852,300.22462 c 3.37053,3.37456 8.82546,3.37456 12.19598,0 L 325.52502,181.99411 c 3.37459,-3.36649 3.37459,-8.92223 0,-12.29678 L 207.2945,51.466818 c -1.68326,-1.687296 -3.93951,-2.519832 -6.14839,-2.519832 z m 0,4.636491 c 0.99878,0 2.05051,0.362693 2.82222,1.108725 l 118.3313,118.331308 c 1.55631,1.55625 1.55631,4.08817 0,5.64442 l -118.3313,118.33131 c -1.55222,1.55625 -4.09221,1.55625 -5.64443,0 L 80.093387,178.66793 c -1.56028,-1.55221 -1.56028,-4.08414 0,-5.64442 L 198.3239,54.792996 c 0.7741,-0.778124 1.80219,-1.209519 2.82221,-1.209519 z"
     id="path73257"
     inkscape:connector-curvature="0" />
  <path
     inkscape:connector-curvature="0"
     d="m 158.75407,123.09302 -4.36233,27.96006 -3.47535,0 -2.63675,-14.54649 -2.62869,14.54649 -3.51164,0 -4.36636,-27.96006 3.94303,0 2.32631,14.611 2.59643,-14.611 3.24151,0 2.58837,14.49408 2.30212,-14.49408 3.98335,0 z"
     style="fill:#000000;fill-opacity:1;fill-rule:nonzero;stroke:none"
     id="path73293" />
  <path
     inkscape:connector-curvature="0"
     d="m 169.73132,139.48001 -1.90701,-7.90219 -1.87476,7.90219 3.78177,0 z m 6.84991,11.57107 -4.05189,0 -1.84654,-7.6361 -5.68877,0 -1.84653,7.6361 -4.04786,0 6.76525,-27.95602 3.95109,0 6.76525,27.95602 z"
     style="fill:#000000;fill-opacity:1;fill-rule:nonzero;stroke:none"
     id="path73297" />
  <path
     inkscape:connector-curvature="0"
     d="m 184.15356,134.01498 4.70503,0 c 0.5967,0 1.12486,-0.18949 1.59657,-0.56444 0.46768,-0.37092 0.77409,-0.8386 0.9273,-1.39095 0.12095,-0.50799 0.18949,-1.02002 0.18949,-1.53608 0,-0.54832 -0.0685,-1.06438 -0.18949,-1.56835 -0.33867,-1.28612 -1.1813,-1.92717 -2.52387,-1.92717 l -4.70503,0 0,6.98699 z m 11.37755,17.0381 -4.08818,0 -3.7616,-13.09909 -3.52777,0 0,13.09909 -3.939,0 0,-27.96006 8.6521,0 c 1.51593,0 2.85446,0.45559 4.03576,1.38289 1.17726,0.9152 1.94733,2.08844 2.29809,3.5076 0.22174,0.8386 0.3306,1.6893 0.3306,2.54806 0,0.87085 -0.10886,1.71752 -0.3306,2.53999 -0.52816,1.99571 -1.71752,3.41488 -3.59631,4.27767 l 3.92691,13.70385 z"
     style="fill:#000000;fill-opacity:1;fill-rule:nonzero;stroke:none"
     id="path73301" />
  <path
     inkscape:connector-curvature="0"
     d="m 215.60793,151.05147 -3.04395,0 -8.33762,-18.65885 0,18.65885 -3.939,0 0,-27.96006 4.03173,0 7.34984,16.37689 0,-16.37689 3.939,0 0,27.96006 z"
     style="fill:#000000;fill-opacity:1;fill-rule:nonzero;stroke:none"
     id="path73305" />
  <path
     inkscape:connector-curvature="0"
     d="m 224.50597,151.05308 -3.93497,0 0,-27.96006 3.93497,0 0,27.96006 z"
     style="fill:#000000;fill-opacity:1;fill-rule:nonzero;stroke:none"
     id="path73307" />
  <path
     inkscape:connector-curvature="0"
     d="m 245.09402,151.05147 -3.04799,0 -8.33762,-18.65885 0,18.65885 -3.93094,0 0,-27.96006 4.02367,0 7.35791,16.37689 0,-16.37689 3.93497,0 0,27.96006 z"
     style="fill:#000000;fill-opacity:1;fill-rule:nonzero;stroke:none"
     id="path73311" />
  <path
     inkscape:connector-curvature="0"
     d="m 265.16194,137.49153 0,6.80556 c 0,2.01184 -0.6975,3.70919 -2.10053,5.11224 -1.39901,1.39498 -3.1004,2.10456 -5.09208,2.10456 -1.62882,0 -3.08024,-0.49993 -4.3583,-1.48771 -1.28209,-0.9918 -2.12875,-2.2618 -2.56015,-3.80595 -0.80231,-2.93913 -1.20549,-5.99519 -1.20549,-9.148 0,-3.07621 0.40318,-6.10404 1.20549,-9.08752 0.41124,-1.54819 1.25387,-2.82221 2.53596,-3.81402 1.27403,-1.0039 2.73755,-1.4998 4.38249,-1.4998 1.99168,0 3.69307,0.70152 5.09208,2.0965 1.40303,1.38691 2.10053,3.06814 2.10053,5.04772 l -3.93094,0 c 0,-0.88698 -0.32657,-1.64494 -0.95552,-2.27389 -0.63701,-0.62089 -1.4111,-0.93536 -2.30615,-0.93536 -0.72974,0 -1.39094,0.22174 -1.97151,0.66926 -0.58057,0.44753 -0.96762,1.02003 -1.14502,1.73365 -0.71361,2.63272 -1.06437,5.32591 -1.06437,8.07959 0,2.70529 0.33866,5.39042 1.02809,8.05136 0.18949,0.70556 0.56847,1.29016 1.16517,1.74977 0.5846,0.45559 1.2458,0.6854 1.97958,0.6854 0.89101,0 1.65301,-0.32254 2.29002,-0.95552 0.63298,-0.64105 0.95552,-1.40304 0.95552,-2.30212 l 0.0242,-2.89075 -3.05202,0 0,-3.93497 6.98295,0 z"
     style="fill:#000000;fill-opacity:1;fill-rule:nonzero;stroke:none"
     id="path73315" />
  <path
     inkscape:connector-curvature="0"
     d="m 178.5192,189.10491 -13.98204,0 0,-27.96409 3.939,0 0,24.02509 10.04304,0 0,3.939 z"
     style="fill:#000000;fill-opacity:1;fill-rule:nonzero;stroke:none"
     id="path73319" />
  <path
     inkscape:connector-curvature="0"
     d="m 194.53205,175.14348 c 0,-2.81415 -0.3548,-5.53557 -1.06438,-8.16426 -0.18546,-0.66523 -0.56041,-1.22968 -1.13292,-1.6651 -0.5725,-0.43543 -1.22564,-0.65717 -1.94732,-0.65717 -0.72168,0 -1.37482,0.22174 -1.94733,0.65717 -0.56847,0.43542 -0.94746,1.00793 -1.13292,1.69332 -0.70958,2.64885 -1.06034,5.35818 -1.06034,8.13604 0,2.74158 0.35076,5.44284 1.06034,8.10781 0.18546,0.68943 0.56445,1.2579 1.13292,1.70946 0.57251,0.43946 1.22565,0.66926 1.94733,0.66926 0.72168,0 1.37482,-0.21771 1.94732,-0.6612 0.57251,-0.43946 0.94746,-1.0039 1.13292,-1.6893 0.70958,-2.669 1.06438,-5.37429 1.06438,-8.13603 m 3.939,-0.0203 c 0,3.08831 -0.40318,6.1242 -1.20952,9.11978 -0.41124,1.55221 -1.24984,2.82624 -2.50774,3.81805 -1.26999,1.0039 -2.72545,1.4998 -4.36636,1.4998 -1.62479,0 -3.07218,-0.4959 -4.33815,-1.4998 -1.28612,-0.99181 -2.12472,-2.25777 -2.53596,-3.7858 -0.80634,-2.99961 -1.20548,-6.0476 -1.20548,-9.15203 0,-3.13266 0.39914,-6.18871 1.20548,-9.16413 0.4314,-1.53609 1.27403,-2.78995 2.53999,-3.76563 1.27,-0.97971 2.70933,-1.46755 4.33412,-1.46755 1.62478,0 3.06008,0.48784 4.33411,1.45142 1.26596,0.97165 2.10053,2.22148 2.51176,3.74951 0.82651,2.95929 1.23775,6.02744 1.23775,9.19638"
     style="fill:#000000;fill-opacity:1;fill-rule:nonzero;stroke:none"
     id="path73323" />
  <path
     inkscape:connector-curvature="0"
     d="m 214.39519,175.14348 c 0,-2.81415 -0.35479,-5.53557 -1.06034,-8.16426 -0.19353,-0.66523 -0.56042,-1.22968 -1.13695,-1.6651 -0.56848,-0.43543 -1.22162,-0.65717 -1.94733,-0.65717 -0.72571,0 -1.37885,0.22174 -1.94733,0.65717 -0.56444,0.43542 -0.94745,1.00793 -1.12888,1.69332 -0.71362,2.64885 -1.06841,5.35818 -1.06841,8.13604 0,2.74158 0.35479,5.44284 1.06841,8.10781 0.18143,0.68943 0.56444,1.2579 1.12888,1.70946 0.56848,0.43946 1.22162,0.66926 1.94733,0.66926 0.72571,0 1.37885,-0.21771 1.94733,-0.6612 0.57653,-0.43946 0.94342,-1.0039 1.13695,-1.6893 0.70555,-2.669 1.06034,-5.37429 1.06034,-8.13603 m 3.93497,-0.0203 c 0,3.08831 -0.40317,6.1242 -1.20146,9.11978 -0.41123,1.55221 -1.2458,2.82624 -2.5158,3.81805 -1.26999,1.0039 -2.72141,1.4998 -4.36233,1.4998 -1.62075,0 -3.06815,-0.4959 -4.34217,-1.4998 -1.28209,-0.99181 -2.12473,-2.25777 -2.53596,-3.7858 -0.80232,-2.99961 -1.20146,-6.0476 -1.20146,-9.15203 0,-3.13266 0.39914,-6.18871 1.20146,-9.16413 0.43542,-1.53609 1.27806,-2.78995 2.54805,-3.76563 1.26193,-0.97971 2.70933,-1.46755 4.33008,-1.46755 1.62076,0 3.06412,0.48784 4.33411,1.45142 1.27,0.97165 2.10053,2.22148 2.5158,3.74951 0.81844,2.95929 1.22968,6.02744 1.22968,9.19638"
     style="fill:#000000;fill-opacity:1;fill-rule:nonzero;stroke:none"
     id="path73327" />
  <path
     inkscape:connector-curvature="0"
     d="m 238.38076,189.10491 -4.20106,0 -4.59617,-13.53049 -2.56418,4.56392 0,8.96657 -3.93497,0 0,-27.96409 3.93497,0 0,10.98647 6.18467,-10.98647 4.51554,0 -5.56379,9.79308 6.22499,18.17101 z"
     style="fill:#000000;fill-opacity:1;fill-rule:nonzero;stroke:none"
     id="path73331" />
  <path
     inkscape:connector-curvature="0"
     d="m 224.40759,199.19601 -4.3583,27.96006 -3.47535,0 -2.63675,-14.54245 -2.62869,14.54245 -3.51164,0 -4.36637,-27.96006 3.94304,0 2.32227,14.611 2.59644,-14.611 3.24554,0 2.58837,14.49811 2.30212,-14.49811 3.97932,0 z"
     style="fill:#000000;fill-opacity:1;fill-rule:nonzero;stroke:none"
     id="path73335" />
  <path
     inkscape:connector-curvature="0"
     d="m 234.34539,215.58255 -1.91507,-7.89816 -1.87073,7.89816 3.7858,0 z m 6.84185,11.57107 -4.04786,0 -1.8425,-7.6361 -5.69281,0 -1.8425,7.6361 -4.04786,0 6.76525,-27.95603 3.94706,0 6.76122,27.95603 z"
     style="fill:#000000;fill-opacity:1;fill-rule:nonzero;stroke:none"
     id="path73339" />
  <path
     inkscape:connector-curvature="0"
     d="m 258.33499,199.19601 -6.7854,15.28833 0,12.67173 -3.93497,0 0,-12.67173 -6.76121,-15.28833 4.3462,0 4.39056,9.92209 4.40668,-9.92209 4.33814,0 z"
     style="fill:#000000;fill-opacity:1;fill-rule:nonzero;stroke:none"
     id="path73343" />
  <path
     inkscape:connector-curvature="0"
     d="m 258.41769,218.86638 3.93497,0 0,1.0926 c 0,1.02809 0.35479,1.89894 1.08051,2.63272 0.72167,0.72571 1.60467,1.08857 2.62867,1.08857 1.0281,0 1.9111,-0.36286 2.6408,-1.10067 0.7297,-0.72168 1.0926,-1.60463 1.0926,-2.62062 0,-2.80206 -1.2136,-4.92678 -3.6326,-6.3903 l -3.04395,-1.82234 c -2.26583,-1.36676 -3.40681,-3.37456 -3.40681,-6.01937 0,-1.90701 0.68942,-3.55196 2.04812,-4.91871 1.37079,-1.35063 3.02384,-2.02797 4.96304,-2.02797 1.9312,0 3.5762,0.67734 4.951,2.02797 1.3708,1.36675 2.0562,3.00363 2.0562,4.91871 l -3.9632,0 c 0,-0.83054 -0.2943,-1.54819 -0.8951,-2.12876 -0.5926,-0.59266 -1.3183,-0.88698 -2.1569,-0.88698 -0.8427,0 -1.5684,0.29432 -2.1691,0.88698 -0.5927,0.59267 -0.8991,1.31032 -0.8991,2.14892 0,1.14501 0.4959,2.02392 1.4796,2.62062 l 3.0238,1.81025 c 1.7055,1.02406 3.0521,2.38678 4.0439,4.08817 1.02,1.74574 1.5361,3.64872 1.5361,5.68474 0,2.1086 -0.7459,3.91078 -2.2296,5.41059 -1.5038,1.4998 -3.306,2.25373 -5.4388,2.25373 -2.1086,0 -3.9148,-0.74587 -5.39847,-2.23761 -1.49577,-1.4877 -2.24568,-3.28989 -2.24568,-5.39445 l 0,-1.11679 z"
     style="fill:#000000;fill-opacity:1;fill-rule:nonzero;stroke:none"
     id="path73347" />
  <path
     inkscape:connector-curvature="0"
     d="m 133.13081,214.47624 0,8.74886 4.94693,0 c 0.97568,0 1.65705,-0.45156 2.02393,-1.3466 0.32657,-0.7499 0.47978,-1.54012 0.47978,-2.36259 0,-1.73768 -0.61686,-3.20926 -1.85057,-4.43088 -0.45558,-0.4072 -0.96761,-0.60879 -1.54415,-0.60879 l -4.05592,0 z m 0,-11.34529 0,7.40629 4.1164,0 c 0.72571,0 1.30225,-0.28222 1.72961,-0.86279 0.76603,-0.98777 1.14501,-2.12069 1.14501,-3.38262 0,-0.54428 -0.0806,-1.08051 -0.24593,-1.59254 -0.29432,-1.05631 -0.98375,-1.56834 -2.07231,-1.56834 l -4.67278,0 z m -3.93094,-3.93497 8.59565,0 c 1.39095,0 2.63675,0.4193 3.71323,1.2579 1.08856,0.83457 1.81024,1.90298 2.1852,3.18507 0.24593,0.87489 0.36688,1.76187 0.36688,2.66497 0,0.96359 -0.14111,1.89492 -0.42736,2.78593 -0.46768,1.50787 -1.38288,2.66497 -2.74561,3.46326 1.31434,0.67733 2.2618,1.69332 2.84237,3.06008 0.53219,1.22162 0.78619,2.5279 0.78619,3.90272 0,1.42723 -0.27819,2.76173 -0.84263,4.0277 -0.48381,1.08453 -1.22968,1.95942 -2.23358,2.61659 -1.00794,0.66523 -2.12876,0.99584 -3.36247,0.99584 l -8.87787,0 0,-27.96006 z"
     style="fill:#000000;fill-opacity:1;fill-rule:nonzero;stroke:none"
     id="path73351" />
  <path
     inkscape:connector-curvature="0"
     d="m 157.10468,213.19657 c 0,-2.81818 -0.35883,-5.5396 -1.06841,-8.16425 -0.18143,-0.66927 -0.55638,-1.23371 -1.12889,-1.66511 -0.56444,-0.43946 -1.21758,-0.65717 -1.94732,-0.65717 -0.73378,0 -1.37886,0.21771 -1.9433,0.65717 -0.5725,0.4314 -0.95149,1.00793 -1.13695,1.69333 -0.70958,2.64481 -1.06034,5.35817 -1.06034,8.13603 0,2.74158 0.35076,5.44284 1.06034,8.10781 0.18546,0.6854 0.56445,1.2579 1.13695,1.70946 0.56444,0.43945 1.20952,0.66926 1.9433,0.66926 0.72974,0 1.38288,-0.22174 1.94732,-0.65717 0.57251,-0.44752 0.94746,-1.00793 1.12889,-1.69333 0.70958,-2.66497 1.06841,-5.37429 1.06841,-8.13603 m 3.939,-0.0203 c 0,3.08428 -0.40318,6.12017 -1.20146,9.11978 -0.41124,1.54818 -1.25387,2.82624 -2.52386,3.81805 -1.26193,1.0039 -2.71739,1.4998 -4.3583,1.4998 -1.61673,0 -3.06815,-0.4959 -4.34621,-1.4998 -1.27403,-0.99181 -2.12472,-2.26181 -2.53193,-3.78983 -0.80231,-2.99961 -1.19742,-6.04357 -1.19742,-9.148 0,-3.12862 0.39511,-6.18467 1.19742,-9.16412 0.4314,-1.54012 1.28209,-2.79399 2.54806,-3.76564 1.26596,-0.98374 2.71335,-1.46755 4.33008,-1.46755 1.62075,0 3.06411,0.48381 4.33411,1.44739 1.26999,0.97165 2.10456,2.22552 2.5158,3.75354 0.82247,2.95929 1.23371,6.02744 1.23371,9.19638"
     style="fill:#000000;fill-opacity:1;fill-rule:nonzero;stroke:none"
     id="path73355" />
  <path
     inkscape:connector-curvature="0"
     d="m 175.37729,202.90079 -5.0437,0 0,24.25489 -3.93094,0 0,-24.25489 -5.04369,0 0,-3.70516 14.01833,0 0,3.70516 z"
     style="fill:#000000;fill-opacity:1;fill-rule:nonzero;stroke:none"
     id="path73359" />
  <path
     inkscape:connector-curvature="0"
     d="m 190.93329,227.15439 -3.93497,0 0,-12.67979 -7.44661,0 0,12.67979 -3.93497,0 0,-27.96005 3.93497,0 0,11.34529 7.44661,0 0,-11.34529 3.93497,0 0,27.96005 z"
     style="fill:#000000;fill-opacity:1;fill-rule:nonzero;stroke:none"
     id="path73363" />
</svg>
