<?xml version="1.0" encoding="UTF-8" standalone="no"?>
<!-- Generator: Adobe Illustrator 12.0.1, SVG Export Plug-In  -->

<svg
   xmlns:dc="http://purl.org/dc/elements/1.1/"
   xmlns:cc="http://creativecommons.org/ns#"
   xmlns:rdf="http://www.w3.org/1999/02/22-rdf-syntax-ns#"
   xmlns:svg="http://www.w3.org/2000/svg"
   xmlns="http://www.w3.org/2000/svg"
   xmlns:sodipodi="http://sodipodi.sourceforge.net/DTD/sodipodi-0.dtd"
   xmlns:inkscape="http://www.inkscape.org/namespaces/inkscape"
   version="1.1"
   width="286.76462"
   height="286.75626"
   viewBox="0 0 286.76462 286.75626"
   enable-background="new 0 0 288 288"
   xml:space="preserve"
   id="svg2"
   inkscape:version="0.48.2 r9819"
   sodipodi:docname="AJAX1.svg"><metadata
   id="metadata42"><rdf:RDF><cc:Work
       rdf:about=""><dc:format>image/svg+xml</dc:format><dc:type
         rdf:resource="http://purl.org/dc/dcmitype/StillImage" /></cc:Work></rdf:RDF></metadata><sodipodi:namedview
   pagecolor="#ffffff"
   bordercolor="#666666"
   borderopacity="1"
   objecttolerance="10"
   gridtolerance="10"
   guidetolerance="10"
   inkscape:pageopacity="0"
   inkscape:pageshadow="2"
   inkscape:window-width="1280"
   inkscape:window-height="1004"
   id="namedview40"
   showgrid="false"
   fit-margin-top="0"
   fit-margin-left="0"
   fit-margin-right="0"
   fit-margin-bottom="0"
   inkscape:zoom="3.2777778"
   inkscape:cx="89.390576"
   inkscape:cy="96.88837"
   inkscape:window-x="-8"
   inkscape:window-y="-8"
   inkscape:window-maximized="1"
   inkscape:current-layer="svg2" />
<defs
   id="defs4">
</defs>
<path
   d="M 135.97513,283.6985 3.0541244,150.7845 c -4.073,-4.075 -4.073,-10.74 0.005,-14.813 L 135.97513,3.0565002 c 4.073,-4.074 10.737,-4.076 14.814,-0.002 L 283.70513,135.9715 c 4.082,4.073 4.075,10.738 0.005,14.811 l -132.921,132.916 c -4.077,4.077 -10.741,4.077 -14.814,0 z"
   id="path6"
   style="fill:#ffd033;stroke:none;fill-opacity:1"
   inkscape:connector-curvature="0" />

<path
   clip-rule="evenodd"
   d="M 137.50913,281.3845 5.3811244,149.2575 c -3.236,-3.237 -3.233,-8.521 -0.005,-11.757 L 137.50913,5.3745002 c 3.233,-3.231 8.513,-3.231 11.746,0 L 281.38113,137.4995 c 3.233,3.236 3.238,8.52 0.008,11.757 l -132.134,132.128 c -3.227,3.228 -8.513,3.228 -11.746,0"
   id="path10"
   inkscape:connector-curvature="0"
   style="fill:#000000;fill-rule:evenodd;stroke:none" />
<path
   clip-rule="evenodd"
   d="M 140.44513,278.3955 8.3621244,146.3135 c -1.614,-1.611 -1.614,-4.26 0,-5.873 L 140.44513,8.3615002 c 1.617,-1.617 4.257,-1.617 5.87,0 L 278.39813,140.4415 c 1.622,1.613 1.617,4.261 0,5.873 l -132.082,132.081 c -1.614,1.617 -4.249,1.617 -5.871,0"
   id="path12"
   inkscape:connector-curvature="0"
   style="fill:#ffd033;fill-rule:evenodd;stroke:none;fill-opacity:1" />
<path
   d="m 104.61113,113.5205 h -3.899 l -4.401006,-17.849 -4.275,17.849 h -3.904 l -4.106,-27.81 h 4.483 l 2.157,14.651 3.527,-14.651 h 4.276 l 3.614006,14.651 2.157,-14.651 h 4.483 l -4.112,27.81 z"
   id="path14"
   inkscape:connector-curvature="0"
   style="fill:#000000;stroke:none" />
<path
   d="m 129.22613,113.5205 -2.741,-7.803 h -8.672 l -2.741,7.803 h -4.69 l 9.588,-27.81 h 4.357 l 9.589,27.81 h -4.69 z m -7.016,-20.09 -2.862,7.804 h 5.559 l -2.697,-7.804 z"
   id="path16"
   inkscape:connector-curvature="0"
   style="fill:#000000;stroke:none" />
<path
   d="m 146.41013,89.6115 v 23.909 h -4.401 v -23.909 h -6.351 v -3.901 h 17.185 v 3.901 h -6.433 z"
   id="path18"
   inkscape:connector-curvature="0"
   style="fill:#000000;stroke:none" />
<path
   d="m 166.91413,114.0195 c -4.106,0 -6.722,-1.578 -8.508,-4.981 -1.245,-2.449 -2.036,-5.977 -2.036,-9.464 0,-4.4 1.163,-8.8 3.117,-11.249 1.66,-2.034 3.981,-3.112 7.138,-3.112 4.193,0 6.809,1.785 8.676,5.687 l -4.111,1.744 c -1.534,-2.366 -2.446,-2.947 -4.564,-2.947 -2.239,0 -3.735,0.996 -4.69,3.445 -0.705,1.66 -1.081,4.067 -1.081,6.433 0,3.031 0.666,6.061 1.746,7.804 0.994,1.453 2.239,2.158 4.189,2.158 1.872,0 3.237,-0.996 4.318,-3.238 l 4.193,1.578 c -1.659,4.066 -4.4,6.142 -8.387,6.142 z"
   id="path20"
   inkscape:connector-curvature="0"
   style="fill:#000000;stroke:none" />
<path
   d="m 195.88813,113.5205 v -12.121 h -10.129 v 12.121 h -4.401 v -27.81 h 4.401 v 11.206 h 10.129 v -11.206 h 4.4 v 27.81 h -4.4 z"
   id="path22"
   inkscape:connector-curvature="0"
   style="fill:#000000;stroke:none" />
<path
   d="m 119.88313,146.8205 v 5.837 h 6.935 v 3.844 h -6.935 v 10.387 h -3.773 v -23.837 h 14.8 v 3.77 h -11.027 z"
   id="path24"
   inkscape:connector-curvature="0"
   style="fill:#000000;stroke:none" />
<path
   d="m 148.23913,164.6465 c -1.352,1.814 -3.277,2.668 -5.767,2.668 -3.344,0 -5.443,-1.351 -6.867,-4.271 -0.994,-2.026 -1.67,-5.192 -1.67,-8.039 0,-3.914 0.994,-7.437 2.596,-9.714 1.424,-1.815 3.344,-2.668 6.085,-2.668 3.025,0 5.125,1.353 6.616,4.27 0.998,2.1 1.602,5.125 1.602,8.112 0.001,3.771 -0.926,7.543 -2.595,9.642 z m -2.596,-16.33 c -0.748,-1.245 -1.674,-1.744 -3.098,-1.851 -0.072,0 -0.14,0 -0.212,0 -1.708,0 -2.847,0.924 -3.629,2.953 -0.608,1.421 -0.926,3.593 -0.926,5.586 0,2.526 0.497,5.125 1.423,6.615 0.748,1.245 1.742,1.854 3.272,1.854 1.747,0 2.847,-0.927 3.667,-3.025 0.497,-1.245 0.922,-3.596 0.922,-5.443 0,-2.669 -0.497,-5.087 -1.419,-6.689 z"
   id="path26"
   inkscape:connector-curvature="0"
   style="fill:#000000;stroke:none" />
<path
   d="m 168.23213,166.8885 -3.841,-10.387 h -4.518 v 10.387 h -3.773 v -23.837 h 7.861 c 1.853,0 3.098,0.177 4.271,0.747 2.1,0.997 3.596,3.522 3.596,5.943 0,2.523 -1.496,5.014 -3.702,6.013 l 4.198,11.135 h -4.092 z m -1.67,-19.638 c -0.642,-0.357 -0.926,-0.43 -2.171,-0.43 h -4.518 v 5.837 h 4.518 c 1.172,0 1.563,-0.07 2.171,-0.394 0.922,-0.531 1.491,-1.529 1.491,-2.523 0,-0.999 -0.569,-1.993 -1.491,-2.49 z"
   id="path28"
   inkscape:connector-curvature="0"
   style="fill:#000000;stroke:none" />
<path
   d="m 109.86513,219.5905 c -0.999,0.374 -2.659,0.666 -3.904,0.666 H 95.417124 v -27.81 h 10.544006 c 4.401,0 7.721,3.027 7.721,7.012 0,2.74 -1.288,4.774 -3.899,6.269 2.905,1.37 4.565,3.696 4.565,6.727 0,3.027 -1.867,6.058 -4.483,7.136 z m -3.614,-22.745 h -6.433006 v 6.807 h 5.274006 c 1.245,0 1.824,-0.164 2.61,-0.748 0.999,-0.787 1.578,-1.95 1.578,-3.235 0.001,-1.871 -1.075,-2.824 -3.029,-2.824 z m 0.956,11.497 c -0.579,-0.208 -0.869,-0.208 -1.824,-0.208 h -5.564006 v 7.64 h 6.640006 c 2.244,0 3.407,-1.081 3.407,-3.238 -0.001,-1.827 -1.082,-3.613 -2.659,-4.194 z"
   id="path30"
   inkscape:connector-curvature="0"
   style="fill:#000000;stroke:none" />
<path
   d="m 119.03413,220.2565 v -27.81 h 4.483 v 27.81 h -4.483 z"
   id="path32"
   inkscape:connector-curvature="0"
   style="fill:#000000;stroke:none" />
<path
   d="m 144.52413,220.2565 -7.056,-13.159 -2.905,3.612 v 9.547 h -4.401 v -27.81 h 4.401 v 11.041 l 8.758,-11.041 h 5.685 l -8.594,10.833 9.173,16.977 h -5.061 z"
   id="path34"
   inkscape:connector-curvature="0"
   style="fill:#000000;stroke:none" />
<path
   d="m 154.35813,220.2565 v -27.81 h 16.398 v 4.398 h -11.997 v 6.807 h 8.093 v 4.482 h -8.093 v 7.64 h 12.87 v 4.482 h -17.271 z"
   id="path36"
   inkscape:connector-curvature="0"
   style="fill:#000000;stroke:none" />
<path
   d="m 190.55513,218.5965 c -1.539,1.368 -3.696,2.157 -6.061,2.157 -4.772,0 -8.262,-2.822 -10.129,-7.055 l 4.193,-1.537 c 1.163,2.613 3.32,4.109 5.936,4.109 2.572,0 4.314,-1.786 4.314,-4.109 0,-3.694 -4.314,-4.316 -7.924,-5.77 -1.665,-0.665 -5.356,-2.325 -5.356,-6.934 0,-5.437 3.691,-7.512 8.676,-7.512 3.899,0 6.559,2.241 7.929,5.688 l -3.903,1.163 c 0,0 -0.994,-2.367 -4.112,-2.452 -0.12,0 -0.207,0 -0.289,0 -1.906,0 -3.981,0.748 -3.981,2.949 0,0.082 0,0.207 0,0.289 0.372,5.149 13.444,1.744 13.444,12.662 -10e-4,2.53 -0.995,4.775 -2.737,6.352 z"
   id="path38"
   inkscape:connector-curvature="0"
   style="fill:#000000;stroke:none" />
</svg>