<?xml version="1.0" encoding="UTF-8" standalone="no"?>
<!-- Generator: Adobe Illustrator 12.0.1, SVG Export Plug-In  -->

<svg
   xmlns:dc="http://purl.org/dc/elements/1.1/"
   xmlns:cc="http://creativecommons.org/ns#"
   xmlns:rdf="http://www.w3.org/1999/02/22-rdf-syntax-ns#"
   xmlns:svg="http://www.w3.org/2000/svg"
   xmlns="http://www.w3.org/2000/svg"
   xmlns:sodipodi="http://sodipodi.sourceforge.net/DTD/sodipodi-0.dtd"
   xmlns:inkscape="http://www.inkscape.org/namespaces/inkscape"
   version="1.1"
   width="286.66125"
   height="286.66476"
   viewBox="-1 0 286.66125 286.66476"
   enable-background="new -1 0 289 288"
   xml:space="preserve"
   id="svg2"
   inkscape:version="0.48.2 r9819"
   sodipodi:docname="AJAX1.svg"><metadata
   id="metadata38"><rdf:RDF><cc:Work
       rdf:about=""><dc:format>image/svg+xml</dc:format><dc:type
         rdf:resource="http://purl.org/dc/dcmitype/StillImage" /></cc:Work></rdf:RDF></metadata><sodipodi:namedview
   pagecolor="#ffffff"
   bordercolor="#666666"
   borderopacity="1"
   objecttolerance="10"
   gridtolerance="10"
   guidetolerance="10"
   inkscape:pageopacity="0"
   inkscape:pageshadow="2"
   inkscape:window-width="1280"
   inkscape:window-height="1004"
   id="namedview36"
   showgrid="false"
   fit-margin-top="0"
   fit-margin-left="0"
   fit-margin-right="0"
   fit-margin-bottom="0"
   inkscape:zoom="2.3177389"
   inkscape:cx="98.091952"
   inkscape:cy="124.94258"
   inkscape:window-x="-8"
   inkscape:window-y="-8"
   inkscape:window-maximized="1"
   inkscape:current-layer="svg2" />
<defs
   id="defs4">
</defs>
<path
   d="M 3.0987498,133.3875 132.37975,4.1055 c 5.471,-5.474 14.421,-5.474 19.895,0 l 129.284,129.282 c 5.47,5.471 5.47,14.423 0,19.889 l -129.284,129.285 c -5.474,5.471 -14.424,5.471 -19.895,0 L 3.0987498,153.2755 c -5.465,-5.465 -5.465,-14.418 0,-19.888 z"
   id="path6"
   style="fill:#ffd033;stroke:none;fill-opacity:1"
   inkscape:connector-curvature="0" />

<path
   clip-rule="evenodd"
   d="M 6.2217498,135.4405 134.44075,7.2205 c 4.339,-4.339 11.442,-4.339 15.785,0 l 128.215,128.22 c 4.343,4.343 4.343,11.438 0,15.777 l -128.215,128.224 c -4.343,4.336 -11.446,4.336 -15.785,0 L 6.2217498,151.2175 c -4.339,-4.339 -4.339,-11.435 0,-15.777"
   id="path10"
   inkscape:connector-curvature="0"
   style="fill-rule:evenodd;fill:#000000;stroke:none" />
<path
   clip-rule="evenodd"
   d="m 10.22475,139.3905 128.162,-128.162 c 2.162,-2.169 5.724,-2.169 7.889,0 l 128.16,128.162 c 2.166,2.166 2.166,5.716 0,7.883 l -128.16,128.161 c -2.165,2.168 -5.727,2.168 -7.889,0 l -128.162,-128.161 c -2.1660002,-2.167 -2.1660002,-5.717 0,-7.883"
   id="path12"
   inkscape:connector-curvature="0"
   style="fill:#ffd033;fill-rule:evenodd;stroke:none;fill-opacity:1" />
<path
   d="m 108.12375,147.7895 v 8.201 h 9.751 v 5.4 h -9.751 v 14.6 h -5.3 v -33.5 h 20.801 v 5.299 h -15.501 z"
   id="path14"
   inkscape:connector-curvature="0"
   style="stroke:none;fill:#000000" />
<path
   d="m 147.97575,172.8405 c -1.899,2.551 -4.6,3.75 -8.1,3.75 -4.7,0 -7.65,-1.899 -9.65,-6 -1.4,-2.85 -2.351,-7.3 -2.351,-11.3 0,-5.5 1.4,-10.451 3.65,-13.651 2,-2.549 4.7,-3.75 8.55,-3.75 4.25,0 7.2,1.9 9.301,6 1.399,2.95 2.25,7.201 2.25,11.401 0,5.3 -1.3,10.601 -3.65,13.55 z m -3.651,-22.951 c -1.05,-1.75 -2.35,-2.449 -4.35,-2.6 -0.1,0 -0.2,0 -0.3,0 -2.4,0 -4,1.3 -5.101,4.151 -0.85,2 -1.3,5.05 -1.3,7.85 0,3.55 0.7,7.2 2,9.3 1.05,1.75 2.45,2.601 4.601,2.601 2.449,0 4,-1.3 5.149,-4.25 0.7,-1.75 1.301,-5.05 1.301,-7.65 0.001,-3.751 -0.699,-7.15 -2,-9.402 z"
   id="path16"
   inkscape:connector-curvature="0"
   style="stroke:none;fill:#000000" />
<path
   d="m 176.07575,175.9905 -5.4,-14.6 h -6.351 v 14.6 h -5.3 v -33.5 h 11.051 c 2.6,0 4.35,0.25 6,1.05 2.95,1.4 5.05,4.95 5.05,8.351 0,3.55 -2.1,7.05 -5.2,8.449 l 5.9,15.65 h -5.75 z m -2.35,-27.601 c -0.899,-0.5 -1.3,-0.6 -3.05,-0.6 h -6.351 v 8.201 h 6.351 c 1.65,0 2.2,-0.1 3.05,-0.55 1.3,-0.75 2.101,-2.15 2.101,-3.55 -0.001,-1.401 -0.801,-2.801 -2.101,-3.501 z"
   id="path18"
   inkscape:connector-curvature="0"
   style="stroke:none;fill:#000000" />
<path
   d="m 110.52475,219.8055 v -33.501 h 5.4 v 33.501 h -5.4 z"
   id="path20"
   inkscape:connector-curvature="0"
   style="stroke:none;fill:#000000" />
<path
   d="m 135.92375,220.4045 c -4.95,0 -8.1,-1.899 -10.25,-6 -1.5,-2.949 -2.45,-7.199 -2.45,-11.399 0,-5.302 1.4,-10.602 3.75,-13.552 2,-2.449 4.801,-3.75 8.601,-3.75 5.05,0 8.2,2.15 10.45,6.851 l -4.95,2.1 c -1.85,-2.85 -2.95,-3.55 -5.5,-3.55 -2.7,0 -4.5,1.2 -5.65,4.15 -0.85,2 -1.3,4.9 -1.3,7.751 0,3.649 0.8,7.3 2.1,9.399 1.2,1.75 2.7,2.601 5.051,2.601 2.25,0 3.899,-1.2 5.2,-3.9 l 5.05,1.9 c -2.001,4.899 -5.301,7.399 -10.102,7.399 z"
   id="path22"
   inkscape:connector-curvature="0"
   style="stroke:none;fill:#000000" />
<path
   d="m 153.32475,219.8055 v -33.501 h 19.751 v 5.3 h -14.451 v 8.2 h 9.751 v 5.401 h -9.751 v 9.199 h 15.501 v 5.4 h -20.801 z"
   id="path24"
   inkscape:connector-curvature="0"
   style="stroke:none;fill:#000000" />
<path
   d="m 97.09875,131.2645 h -4.7 l -5.3,-21.5 -5.15,21.5 h -4.7 l -4.95,-33.5 h 5.4 l 2.6,17.651 4.25,-17.651 h 5.15 l 4.351,17.651 2.6,-17.651 h 5.4 l -4.951,33.5 z"
   id="path26"
   inkscape:connector-curvature="0"
   style="stroke:none;fill:#000000" />
<path
   d="m 126.75075,131.2645 -3.301,-9.4 h -10.45 l -3.3,9.4 h -5.65 l 11.551,-33.5 h 5.25 l 11.55,33.5 h -5.65 z m -8.45,-24.201 -3.45,9.401 h 6.7 l -3.25,-9.401 z"
   id="path28"
   inkscape:connector-curvature="0"
   style="stroke:none;fill:#000000" />
<path
   d="m 147.44975,102.4635 v 28.8 h -5.3 v -28.8 h -7.65 v -4.7 h 20.701 v 4.7 h -7.751 z"
   id="path30"
   inkscape:connector-curvature="0"
   style="stroke:none;fill:#000000" />
<path
   d="m 172.14975,131.8635 c -4.949,0 -8.1,-1.899 -10.25,-6 -1.5,-2.949 -2.449,-7.199 -2.449,-11.4 0,-5.301 1.4,-10.601 3.75,-13.551 2,-2.449 4.801,-3.75 8.6,-3.75 5.051,0 8.201,2.15 10.451,6.851 l -4.951,2.1 c -1.85,-2.85 -2.949,-3.55 -5.5,-3.55 -2.699,0 -4.5,1.2 -5.65,4.15 -0.85,2 -1.299,4.899 -1.299,7.75 0,3.65 0.799,7.3 2.1,9.4 1.199,1.75 2.699,2.601 5.051,2.601 2.25,0 3.898,-1.2 5.199,-3.9 l 5.051,1.9 c -2.002,4.899 -5.303,7.399 -10.103,7.399 z"
   id="path32"
   inkscape:connector-curvature="0"
   style="stroke:none;fill:#000000" />
<path
   d="m 207.05175,131.2645 v -14.6 h -12.201 v 14.6 h -5.299 v -33.5 h 5.299 v 13.5 h 12.201 v -13.5 h 5.301 v 33.5 h -5.301 z"
   id="path34"
   inkscape:connector-curvature="0"
   style="stroke:none;fill:#000000" />
</svg>