<?xml version="1.0" encoding="UTF-8" standalone="no"?>
<!-- Generator: Adobe Illustrator 12.0.1, SVG Export Plug-In  -->

<svg
   xmlns:dc="http://purl.org/dc/elements/1.1/"
   xmlns:cc="http://creativecommons.org/ns#"
   xmlns:rdf="http://www.w3.org/1999/02/22-rdf-syntax-ns#"
   xmlns:svg="http://www.w3.org/2000/svg"
   xmlns="http://www.w3.org/2000/svg"
   xmlns:sodipodi="http://sodipodi.sourceforge.net/DTD/sodipodi-0.dtd"
   xmlns:inkscape="http://www.inkscape.org/namespaces/inkscape"
   version="1.1"
   width="286.65952"
   height="286.66449"
   viewBox="-0.178 -0.901 286.65951 286.66449"
   enable-background="new -0.178 -0.901 289 289"
   xml:space="preserve"
   id="svg2"
   inkscape:version="0.48.2 r9819"
   sodipodi:docname="AJAX1.svg"><metadata
   id="metadata56"><rdf:RDF><cc:Work
       rdf:about=""><dc:format>image/svg+xml</dc:format><dc:type
         rdf:resource="http://purl.org/dc/dcmitype/StillImage" /></cc:Work></rdf:RDF></metadata><sodipodi:namedview
   pagecolor="#ffffff"
   bordercolor="#666666"
   borderopacity="1"
   objecttolerance="10"
   gridtolerance="10"
   guidetolerance="10"
   inkscape:pageopacity="0"
   inkscape:pageshadow="2"
   inkscape:window-width="1280"
   inkscape:window-height="1004"
   id="namedview54"
   showgrid="false"
   fit-margin-top="0"
   fit-margin-left="0"
   fit-margin-right="0"
   fit-margin-bottom="0"
   inkscape:zoom="2.309719"
   inkscape:cx="101.59341"
   inkscape:cy="122.58978"
   inkscape:window-x="-8"
   inkscape:window-y="-8"
   inkscape:window-maximized="1"
   inkscape:current-layer="svg2" />
<defs
   id="defs4">
</defs>
<path
   d="M 3.9214972,132.48725 133.2005,3.20525 c 5.471,-5.475 14.423,-5.475 19.896,0 l 129.284,129.282 c 5.468,5.47 5.468,14.423 0,19.889 l -129.284,129.284 c -5.473,5.471 -14.425,5.471 -19.896,0 L 3.9214972,152.37625 c -5.466,-5.466 -5.466,-14.419 0,-19.889 z"
   id="path6"
   style="fill:#ffd033;stroke:none;fill-opacity:1"
   inkscape:connector-curvature="0" />

<path
   clip-rule="evenodd"
   d="M 7.0454972,134.53925 135.2635,6.31925 c 4.339,-4.337 11.441,-4.337 15.785,0 l 128.214,128.22 c 4.343,4.343 4.343,11.439 0,15.778 l -128.214,128.225 c -4.344,4.335 -11.446,4.335 -15.785,0 L 7.0454972,150.31725 c -4.338,-4.339 -4.338,-11.435 0,-15.778"
   id="path10"
   inkscape:connector-curvature="0"
   style="fill:#000000;fill-rule:evenodd;stroke:none" />
<path
   clip-rule="evenodd"
   d="M 11.047497,138.48925 139.2095,10.32825 c 2.161,-2.17 5.726,-2.17 7.889,0 l 128.161,128.161 c 2.165,2.167 2.165,5.716 0,7.883 l -128.162,128.162 c -2.163,2.167 -5.728,2.167 -7.889,0 L 11.047497,146.37225 c -2.1649998,-2.167 -2.1649998,-5.716 0,-7.883"
   id="path12"
   inkscape:connector-curvature="0"
   style="fill:#ffd033;fill-rule:evenodd;stroke:none;fill-opacity:1" />
<path
   d="m 99.182497,163.18625 v -44.788 h 7.220003 v 44.788 h -7.220003 z"
   id="path14"
   inkscape:connector-curvature="0"
   style="fill:#000000;stroke:none" />
<path
   d="m 134.4115,163.98825 c -6.618,0 -10.83,-2.54 -13.704,-8.021 -2.005,-3.944 -3.275,-9.626 -3.275,-15.241 0,-7.086 1.872,-14.172 5.014,-18.116 2.674,-3.275 6.417,-5.014 11.498,-5.014 6.751,0 10.963,2.875 13.971,9.158 l -6.618,2.808 c -2.473,-3.811 -3.944,-4.746 -7.353,-4.746 -3.61,0 -6.017,1.604 -7.554,5.548 -1.136,2.674 -1.738,6.551 -1.738,10.362 0,4.879 1.069,9.759 2.808,12.567 1.604,2.34 3.61,3.476 6.751,3.476 3.008,0 5.214,-1.604 6.953,-5.214 l 6.751,2.54 c -2.674,6.551 -7.086,9.893 -13.504,9.893 z"
   id="path16"
   inkscape:connector-curvature="0"
   style="fill:#000000;stroke:none" />
<path
   d="m 158.9455,163.18625 v -44.788 h 26.405 v 7.086 h -19.319 v 10.963 h 13.036 v 7.219 h -13.036 v 12.3 h 20.724 v 7.22 h -27.81 z"
   id="path18"
   inkscape:connector-curvature="0"
   style="fill:#000000;stroke:none" />
<path
   d="m 90.409497,207.76325 h -7.463 v -25.38 h 7.993 c 3.409,0 5.795,2.689 5.795,6.591 0,2.311 -0.606,3.371 -2.651,5.53 1.932,1.592 3.106,3.713 3.106,6.326 0,3.826 -3.03,6.933 -6.78,6.933 z m 0,-21.82 h -3.826 v 6.78 h 3.826 c 1.705,0 2.765,-1.439 2.765,-3.75 0,-2.121 -0.796,-3.03 -2.765,-3.03 z m -0.152,10.342 h -3.674 v 7.917 h 3.674 c 2.046,0 3.372,-1.439 3.372,-3.637 -0.001,-2.424 -1.516,-4.28 -3.372,-4.28 z"
   id="path20"
   inkscape:connector-curvature="0"
   style="fill:#000000;stroke:none" />
<path
   d="m 112.9105,207.76325 -3.372,-11.933 h -3.485 v 11.933 h -3.637 v -25.38 h 7.576 c 3.978,0 6.667,2.689 6.667,6.78 0,3.03 -1.25,5.228 -3.636,6.137 l 3.636,12.463 h -3.749 z m -3.107,-21.82 h -3.75 v 6.401 h 3.75 c 2.122,0 3.296,-1.136 3.296,-3.182 0,-1.969 -1.326,-3.219 -3.296,-3.219 z"
   id="path22"
   inkscape:connector-curvature="0"
   style="fill:#000000;stroke:none" />
<path
   d="m 121.8885,207.76325 v -25.38 h 3.561 v 25.38 h -3.561 z"
   id="path24"
   inkscape:connector-curvature="0"
   style="fill:#000000;stroke:none" />
<path
   d="m 142.6095,206.58825 c -0.909,0.834 -2.159,1.175 -3.562,1.175 h -7.046 v -25.38 h 6.478 c 2.16,0 3.22,0.265 4.129,0.984 1.515,1.061 2.576,3.03 3.03,5.606 0.341,1.856 0.606,4.091 0.606,6.062 0.002,5.871 -1.173,9.621 -3.635,11.553 z m -0.645,-18.069 c -0.605,-1.78 -1.667,-2.576 -3.296,-2.576 h -3.03 v 18.259 h 3.03 c 2.16,0 3.296,-1.705 3.675,-3.637 0.152,-1.629 0.341,-3.409 0.341,-5.342 0,-2.878 -0.265,-5.643 -0.72,-6.704 z"
   id="path26"
   inkscape:connector-curvature="0"
   style="fill:#000000;stroke:none" />
<path
   d="m 165.1865,204.65625 c -0.985,2.197 -3.031,3.561 -5.606,3.561 -3.03,0 -5.266,-1.515 -6.516,-4.355 -0.796,-1.895 -1.326,-5.455 -1.326,-8.751 0,-3.561 0.266,-6.137 1.175,-8.561 0.871,-2.652 3.447,-4.622 6.401,-4.622 3.637,0 6.402,2.689 6.592,6.439 h -3.637 c -0.114,-1.704 -1.25,-2.879 -3.03,-2.879 -1.25,0 -2.235,0.645 -2.879,1.895 -0.683,1.25 -1.137,4.091 -1.137,7.121 0,2.122 0.189,4.356 0.53,6.326 0.53,2.463 1.78,3.826 3.75,3.826 1.856,0 2.766,-1.25 2.766,-3.939 v -1.667 h -2.879 v -3.561 h 6.516 v 5.228 c 0,1.78 -0.19,2.879 -0.72,3.939 z"
   id="path28"
   inkscape:connector-curvature="0"
   style="fill:#000000;stroke:none" />
<path
   d="m 171.9285,207.76325 v -25.38 h 11.933 v 3.561 h -8.296 v 6.401 h 5.265 v 3.485 h -5.265 v 8.372 h 9.28 v 3.561 h -12.917 z"
   id="path30"
   inkscape:connector-curvature="0"
   style="fill:#000000;stroke:none" />
<path
   d="m 195.9455,208.21725 c -4.47,0 -7.121,-3.75 -7.121,-7.917 h 3.561 c 0,2.122 1.061,4.356 3.561,4.356 1.97,0 3.561,-1.78 3.561,-3.826 0,-1.439 -0.53,-2.5 -2.045,-3.674 -0.53,-0.53 0.909,0.454 -4.281,-3.03 -2.045,-1.402 -3.105,-3.372 -3.105,-5.606 0,-3.637 2.841,-6.592 6.478,-6.592 3.599,0 6.326,2.766 6.439,6.592 h -3.485 c -0.075,-1.78 -1.325,-2.917 -2.954,-2.917 -1.667,0 -2.993,1.25 -2.993,2.917 0,1.25 0.53,1.97 2.387,3.03 4.887,2.841 7.046,5.606 7.046,9.28 -0.003,4.092 -3.147,7.387 -7.049,7.387 z"
   id="path32"
   inkscape:connector-curvature="0"
   style="fill:#000000;stroke:none" />
<path
   d="m 114.1605,90.68625 h -3.106 l -2.425,-13.258 -2.386,13.258 h -3.22 l -4.016003,-25.38 h 3.561003 l 2.159,13.523 2.462,-13.523 h 2.879 l 2.386,13.523 2.235,-13.523 h 3.561 l -4.09,25.38 z"
   id="path34"
   inkscape:connector-curvature="0"
   style="fill:#000000;stroke:none" />
<path
   d="m 132.3435,90.68625 -1.781,-6.932 h -5.455 l -1.667,6.932 h -3.674 l 6.326,-25.38 h 3.561 l 6.326,25.38 h -3.636 z m -4.546,-17.804 -1.78,7.311 h 3.637 l -1.857,-7.311 z"
   id="path36"
   inkscape:connector-curvature="0"
   style="fill:#000000;stroke:none" />
<path
   d="m 145.7915,68.67725 v 22.009 h -3.675 v -22.009 h -4.622 v -3.372 h 12.917 v 3.372 h -4.62 z"
   id="path38"
   inkscape:connector-curvature="0"
   style="fill:#000000;stroke:none" />
<path
   d="m 163.9725,72.08625 c -0.379,-2.5 -1.363,-3.674 -3.029,-3.674 -2.955,0 -4.016,2.311 -4.016,8.902 0,7.311 1.25,10.266 4.355,10.266 2.121,0 2.689,-1.78 2.689,-3.674 h 3.637 c -0.076,4.205 -2.766,7.235 -6.326,7.235 -5.416,0 -7.842,-4.356 -7.842,-13.713 0,-8.22 2.576,-12.577 7.576,-12.577 2.047,0 3.826,0.909 5,2.576 0.947,1.25 1.326,2.349 1.592,4.659 h -3.636 z"
   id="path40"
   inkscape:connector-curvature="0"
   style="fill:#000000;stroke:none" />
<path
   d="m 183.2925,90.68625 v -11.478 h -6.971 v 11.478 h -3.637 v -25.38 h 3.637 v 10.342 h 6.971 v -10.342 h 3.637 v 25.38 h -3.637 z"
   id="path42"
   inkscape:connector-curvature="0"
   style="fill:#000000;stroke:none" />
<path
   d="m 32.359497,131.58725 v 6.402 h 5.076 v 3.485 h -5.076 v 11.933 h -3.637 v -25.38 h 12.917 v 3.561 h -9.28 z"
   id="path44"
   inkscape:connector-curvature="0"
   style="fill:#000000;stroke:none" />
<path
   d="m 58.193497,149.50525 c -1.25,2.992 -3.106,4.355 -5.947,4.355 -3.03,0 -4.811,-1.363 -6.061,-4.355 -1.061,-2.501 -1.439,-4.925 -1.439,-8.827 0,-3.826 0.379,-6.402 1.439,-8.826 1.326,-3.031 3.106,-4.281 6.061,-4.281 2.917,0 4.697,1.25 5.947,4.356 1.061,2.5 1.439,4.925 1.439,8.75 10e-4,3.903 -0.378,6.403 -1.439,8.828 z m -2.84,-15.153 c -0.644,-2.235 -1.591,-3.22 -3.106,-3.22 -1.629,0 -2.614,0.985 -3.22,3.144 -0.606,1.932 -0.795,3.637 -0.795,6.478 0,2.766 0.265,4.356 0.795,6.402 0.606,2.159 1.591,3.144 3.22,3.144 1.515,0 2.462,-0.984 3.106,-3.144 0.606,-2.046 0.795,-3.562 0.795,-6.478 0,-2.841 -0.265,-4.47 -0.795,-6.326 z"
   id="path46"
   inkscape:connector-curvature="0"
   style="fill:#000000;stroke:none" />
<path
   d="m 75.202497,153.40625 -3.372,-11.933 h -3.484 v 11.933 h -3.637 v -25.38 h 7.576 c 3.978,0 6.667,2.69 6.667,6.781 0,3.031 -1.25,5.228 -3.636,6.137 l 3.636,12.463 h -3.75 z m -3.106,-21.819 h -3.75 v 6.402 h 3.75 c 2.122,0 3.296,-1.136 3.296,-3.182 0,-1.97 -1.326,-3.22 -3.296,-3.22 z"
   id="path48"
   inkscape:connector-curvature="0"
   style="fill:#000000;stroke:none" />
<path
   d="m 228.6605,149.50525 c -1.25,2.992 -3.106,4.355 -5.947,4.355 -3.031,0 -4.812,-1.363 -6.062,-4.355 -1.061,-2.501 -1.439,-4.925 -1.439,-8.827 0,-3.826 0.379,-6.402 1.439,-8.826 1.326,-3.031 3.106,-4.281 6.062,-4.281 2.916,0 4.697,1.25 5.947,4.356 1.061,2.5 1.439,4.925 1.439,8.75 0,3.903 -0.379,6.403 -1.439,8.828 z m -2.842,-15.153 c -0.644,-2.235 -1.591,-3.22 -3.105,-3.22 -1.629,0 -2.614,0.985 -3.221,3.144 -0.605,1.932 -0.795,3.637 -0.795,6.478 0,2.766 0.265,4.356 0.795,6.402 0.606,2.159 1.592,3.144 3.221,3.144 1.515,0 2.462,-0.984 3.105,-3.144 0.606,-2.046 0.796,-3.562 0.796,-6.478 0,-2.841 -0.266,-4.47 -0.796,-6.326 z"
   id="path50"
   inkscape:connector-curvature="0"
   style="fill:#000000;stroke:none" />
<path
   d="m 246.6535,153.40625 -7.841,-17.008 v 17.008 h -3.637 v -25.38 h 3.637 l 6.97,15.229 v -15.229 h 3.637 v 25.38 h -2.766 z"
   id="path52"
   inkscape:connector-curvature="0"
   style="fill:#000000;stroke:none" />
</svg>