<?xml version="1.0" encoding="UTF-8" standalone="no"?>
<!-- Generator: Adobe Illustrator 12.0.1, SVG Export Plug-In  -->

<svg
   xmlns:dc="http://purl.org/dc/elements/1.1/"
   xmlns:cc="http://creativecommons.org/ns#"
   xmlns:rdf="http://www.w3.org/1999/02/22-rdf-syntax-ns#"
   xmlns:svg="http://www.w3.org/2000/svg"
   xmlns="http://www.w3.org/2000/svg"
   xmlns:sodipodi="http://sodipodi.sourceforge.net/DTD/sodipodi-0.dtd"
   xmlns:inkscape="http://www.inkscape.org/namespaces/inkscape"
   version="1.1"
   width="286.66199"
   height="286.66324"
   viewBox="-1 0 286.66199 286.66324"
   enable-background="new -1 0 289 288"
   xml:space="preserve"
   id="svg2"
   inkscape:version="0.48.2 r9819"
   sodipodi:docname="AJAX1.svg"><metadata
   id="metadata58"><rdf:RDF><cc:Work
       rdf:about=""><dc:format>image/svg+xml</dc:format><dc:type
         rdf:resource="http://purl.org/dc/dcmitype/StillImage" /></cc:Work></rdf:RDF></metadata><sodipodi:namedview
   pagecolor="#ffffff"
   bordercolor="#666666"
   borderopacity="1"
   objecttolerance="10"
   gridtolerance="10"
   guidetolerance="10"
   inkscape:pageopacity="0"
   inkscape:pageshadow="2"
   inkscape:window-width="1280"
   inkscape:window-height="1004"
   id="namedview56"
   showgrid="false"
   fit-margin-top="0"
   fit-margin-left="0"
   fit-margin-right="0"
   fit-margin-bottom="0"
   inkscape:zoom="2.3177389"
   inkscape:cx="136.51557"
   inkscape:cy="126.01418"
   inkscape:window-x="-8"
   inkscape:window-y="-8"
   inkscape:window-maximized="1"
   inkscape:current-layer="svg2" />
<defs
   id="defs4">
</defs>
<path
   d="M 3.09875,133.38675 132.37975,4.1047494 c 5.471,-5.473 14.421,-5.473 19.896,0 l 129.283,129.2820006 c 5.471,5.47 5.471,14.423 0,19.89 l -129.283,129.284 c -5.475,5.47 -14.425,5.47 -19.896,0 l -129.281,-129.285 c -5.465,-5.466 -5.465,-14.419 0,-19.889 z"
   id="path6"
   style="fill:#ffd033;stroke:none;fill-opacity:1"
   inkscape:connector-curvature="0" />

<path
   clip-rule="evenodd"
   d="M 6.22175,135.43975 134.44075,7.2207494 c 4.339,-4.339 11.442,-4.339 15.785,0 l 128.215,128.2190006 c 4.343,4.343 4.343,11.438 0,15.777 l -128.215,128.225 c -4.343,4.335 -11.446,4.335 -15.785,0 l -128.219,-128.225 c -4.338,-4.339 -4.338,-11.434 0,-15.777"
   id="path10"
   inkscape:connector-curvature="0"
   style="fill-rule:evenodd;stroke:none;fill:#000000" />
<path
   clip-rule="evenodd"
   d="m 10.22475,139.38975 128.162,-128.160001 c 2.162,-2.1699996 5.724,-2.1699996 7.889,0 l 128.16,128.160001 c 2.165,2.166 2.165,5.716 0,7.883 l -128.16,128.161 c -2.165,2.167 -5.727,2.167 -7.889,0 l -128.162,-128.161 c -2.165,-2.167 -2.165,-5.717 0,-7.883"
   id="path12"
   inkscape:connector-curvature="0"
   style="fill:#ffd033;fill-rule:evenodd;stroke:none;fill-opacity:1" />
<path
   d="m 104.12975,98.363749 h -4.509 l -3.833,-15.939 -3.763,15.939 h -4.508 l -4.331,-23.783 h 4.402 l 2.591,15.37 3.514,-15.37 h 4.26 l 3.656,15.37 2.449,-15.37 h 4.331 l -4.259,23.783 z"
   id="path14"
   inkscape:connector-curvature="0"
   style="stroke:none;stroke-opacity:1;fill:#000000" />
<path
   d="m 129.93675,98.363749 -2.343,-5.608 h -10.365 l -2.308,5.608 h -4.686 l 10.01,-23.783 h 4.331 l 9.94,23.783 h -4.579 z m -7.526,-17.855 -3.337,8.022 h 6.674 l -3.337,-8.022 z"
   id="path16"
   inkscape:connector-curvature="0"
   style="stroke:none;stroke-opacity:1;fill:#000000" />
<path
   d="m 147.43675,78.769749 v 19.595 h -4.153 v -19.595 h -6.851 v -4.188 h 17.856 v 4.188 h -6.852 z"
   id="path18"
   inkscape:connector-curvature="0"
   style="stroke:none;stroke-opacity:1;fill:#000000" />
<path
   d="m 167.63575,98.789749 c -6.248,0 -10.082,-4.934 -10.082,-12.354 0,-7.525 3.834,-12.281 10.082,-12.281 3.834,0 7.348,1.916 9.193,5.252 l -3.763,2.024 c -0.674,-0.994 -0.994,-1.349 -1.668,-1.775 -0.924,-0.746 -2.485,-1.243 -3.763,-1.243 -4.332,0 -5.751,4.26 -5.751,7.916 0,5.184 2.165,8.201 5.751,8.201 2.165,0 3.337,-0.746 5.431,-3.018 l 3.763,2.022 c -1.739,3.34 -5.359,5.256 -9.193,5.256 z"
   id="path20"
   inkscape:connector-curvature="0"
   style="stroke:none;stroke-opacity:1;fill:#000000" />
<path
   d="m 197.20575,98.363749 v -10.365 h -10.686 v 10.365 h -4.26 v -23.783 h 4.26 v 9.193 h 10.686 v -9.193 h 4.259 v 23.783 h -4.259 z"
   id="path22"
   inkscape:connector-curvature="0"
   style="stroke:none;stroke-opacity:1;fill:#000000" />
<path
   d="m 113.76675,116.78275 v 4.828 h 7.42 v 4.331 h -7.42 v 10.365 h -4.33 v -23.783 h 17.785 v 4.259 h -13.455 z"
   id="path24"
   inkscape:connector-curvature="0"
   style="stroke:none;stroke-opacity:1;fill:#000000" />
<path
   d="m 140.63975,136.73275 c -6.994,0 -10.081,-6.354 -10.081,-12.354 0,-7.597 3.833,-12.282 10.081,-12.282 5.856,0 9.868,4.934 9.868,12.175 0,7.457 -3.833,12.461 -9.868,12.461 z m 0,-20.376 c -3.585,0 -5.751,3.018 -5.751,8.022 0,5.077 2.166,8.094 5.751,8.094 4.508,0 5.609,-4.437 5.609,-8.094 0,-5.004 -2.024,-8.022 -5.609,-8.022 z"
   id="path26"
   inkscape:connector-curvature="0"
   style="stroke:none;stroke-opacity:1;fill:#000000" />
<path
   d="m 170.45775,136.30675 -3.835,-9.336 h -6.354 v 9.336 h -4.261 v -23.783 h 10.935 c 1.739,0 2.839,0.248 4.082,0.993 2.271,1.243 3.691,3.585 3.691,6.283 0,2.662 -1.42,5.005 -3.87,6.318 l 4.367,10.188 h -4.755 z m -3.444,-19.524 h -6.744 v 5.929 h 6.744 c 2.095,0 3.444,-1.172 3.444,-2.911 0,-1.846 -1.349,-3.018 -3.444,-3.018 z"
   id="path28"
   inkscape:connector-curvature="0"
   style="stroke:none;stroke-opacity:1;fill:#000000" />
<path
   d="m 80.18675,172.90075 c -1.668,1.029 -3.833,1.598 -6.035,1.598 -4.083,0 -7.17,-1.491 -9.833,-4.58 l 3.407,-2.662 c 1.775,2.06 3.692,2.982 6.354,2.982 3.017,0 5.183,-1.313 5.183,-3.089 0,-0.923 -0.497,-1.668 -1.491,-2.165 -0.852,-0.32 -1.775,-0.674 -2.84,-0.923 l -1.101,-0.32 -1.101,-0.248 -1.136,-0.354 c -2.449,-0.567 -3.691,-1.172 -4.686,-2.308 -0.994,-1.101 -1.491,-2.521 -1.491,-4.011 0,-3.94 3.337,-6.603 8.165,-6.603 3.514,0 6.425,1.17 8.839,3.655 l -3.159,2.84 c -1.491,-1.562 -3.443,-2.343 -5.68,-2.343 -2.414,0 -3.834,0.923 -3.834,2.45 0,1.313 0.817,1.916 3.763,2.591 3.159,0.639 5.254,1.313 6.567,1.988 2.094,1.1 3.443,3.337 3.443,5.928 0.003,2.415 -1.098,4.261 -3.334,5.574 z"
   id="path30"
   inkscape:connector-curvature="0"
   style="stroke:none;stroke-opacity:1;fill:#000000" />
<path
   d="m 97.11875,154.65475 v 19.595 h -4.154 v -19.595 h -6.85 v -4.189 h 17.856 v 4.189 h -6.852 z"
   id="path32"
   inkscape:connector-curvature="0"
   style="stroke:none;stroke-opacity:1;fill:#000000" />
<path
   d="m 117.31775,174.67575 c -6.994,0 -10.081,-6.354 -10.081,-12.354 0,-7.596 3.833,-12.282 10.081,-12.282 5.857,0 9.869,4.936 9.869,12.177 -0.001,7.455 -3.835,12.459 -9.869,12.459 z m 0,-20.375 c -3.585,0 -5.751,3.018 -5.751,8.021 0,5.077 2.166,8.094 5.751,8.094 4.508,0 5.608,-4.438 5.608,-8.094 0,-5.004 -2.023,-8.021 -5.608,-8.021 z"
   id="path34"
   inkscape:connector-curvature="0"
   style="stroke:none;stroke-opacity:1;fill:#000000" />
<path
   d="m 148.05775,163.99075 c -1.348,0.746 -2.449,0.923 -4.258,0.923 h -6.782 v 9.336 h -4.331 v -23.784 h 11.112 c 1.809,0 2.91,0.249 4.258,0.995 2.236,1.241 3.657,3.585 3.657,6.283 0.001,2.485 -1.42,5.005 -3.656,6.247 z m -4.116,-9.264 h -6.923 v 5.928 h 6.923 c 2.095,0 3.513,-1.171 3.513,-2.91 -10e-4,-1.846 -1.419,-3.018 -3.513,-3.018 z"
   id="path36"
   inkscape:connector-curvature="0"
   style="stroke:none;stroke-opacity:1;fill:#000000" />
<path
   d="m 171.09675,163.99075 c -1.35,0.746 -2.451,0.923 -4.26,0.923 h -6.779 v 9.336 h -4.332 v -23.784 h 11.111 c 1.809,0 2.91,0.249 4.26,0.995 2.236,1.241 3.655,3.585 3.655,6.283 0,2.485 -1.419,5.005 -3.655,6.247 z m -4.118,-9.264 h -6.921 v 5.928 h 6.921 c 2.095,0 3.513,-1.171 3.513,-2.91 0,-1.846 -1.418,-3.018 -3.513,-3.018 z"
   id="path38"
   inkscape:connector-curvature="0"
   style="stroke:none;stroke-opacity:1;fill:#000000" />
<path
   d="m 178.76275,174.24975 v -23.784 h 17.359 v 4.261 h -13.027 v 4.401 h 7.1 v 4.366 h -7.1 v 6.496 h 13.454 v 4.26 h -17.786 z"
   id="path40"
   inkscape:connector-curvature="0"
   style="stroke:none;stroke-opacity:1;fill:#000000" />
<path
   d="m 214.58075,172.82975 c -1.67,0.924 -3.691,1.42 -5.61,1.42 h -7.666 v -23.784 h 7.666 c 2.024,0 3.94,0.497 5.681,1.492 3.691,2.093 5.68,5.68 5.68,10.364 -0.001,4.758 -1.989,8.414 -5.751,10.508 z m -2.023,-17.181 c -1.064,-0.604 -2.308,-0.923 -3.587,-0.923 h -3.335 v 15.264 h 3.335 c 1.279,0 2.415,-0.318 3.444,-0.923 2.486,-1.313 3.655,-3.479 3.655,-6.745 0.001,-3.194 -1.168,-5.359 -3.512,-6.673 z"
   id="path42"
   inkscape:connector-curvature="0"
   style="stroke:none;stroke-opacity:1;fill:#000000" />
<path
   d="m 85.08475,192.49575 v 19.595 h -4.153 v -19.595 h -6.851 v -4.189 h 17.856 v 4.189 h -6.852 z"
   id="path44"
   inkscape:connector-curvature="0"
   style="stroke:none;stroke-opacity:1;fill:#000000" />
<path
   d="m 110.39475,212.09075 -3.833,-9.336 h -6.354 v 9.336 h -4.259 v -23.784 h 10.933 c 1.739,0 2.84,0.249 4.083,0.995 2.271,1.241 3.691,3.585 3.691,6.282 0,2.663 -1.42,5.006 -3.869,6.318 l 4.367,10.188 h -4.759 z m -3.443,-19.525 h -6.745 v 5.928 h 6.745 c 2.094,0 3.443,-1.17 3.443,-2.91 0,-1.846 -1.349,-3.018 -3.443,-3.018 z"
   id="path46"
   inkscape:connector-curvature="0"
   style="stroke:none;stroke-opacity:1;fill:#000000" />
<path
   d="m 129.49275,212.51675 c -5.573,0 -9.584,-4.188 -9.584,-10.011 v -14.199 h 4.26 v 14.199 c 0,1.421 0.178,2.166 0.745,3.088 0.923,1.563 2.662,2.592 4.58,2.592 1.917,0 3.692,-1.029 4.615,-2.592 0.568,-0.922 0.745,-1.774 0.745,-3.088 v -14.199 h 4.26 v 14.199 c -0.001,5.822 -4.013,10.011 -9.621,10.011 z"
   id="path48"
   inkscape:connector-curvature="0"
   style="stroke:none;stroke-opacity:1;fill:#000000" />
<path
   d="m 154.62475,212.51675 c -6.247,0 -10.082,-4.934 -10.082,-12.354 0,-7.525 3.835,-12.282 10.082,-12.282 3.834,0 7.349,1.918 9.194,5.254 l -3.764,2.023 c -0.674,-0.993 -0.993,-1.349 -1.667,-1.774 -0.925,-0.746 -2.485,-1.243 -3.764,-1.243 -4.331,0 -5.751,4.261 -5.751,7.916 0,5.184 2.166,8.2 5.751,8.2 2.165,0 3.337,-0.745 5.431,-3.017 l 3.764,2.022 c -1.739,3.339 -5.36,5.255 -9.194,5.255 z"
   id="path50"
   inkscape:connector-curvature="0"
   style="stroke:none;stroke-opacity:1;fill:#000000" />
<path
   d="m 184.08775,212.09075 -6.069,-12.354 -4.508,5.68 v 6.674 h -4.261 v -23.784 h 4.261 v 10.366 l 8.413,-10.366 h 5.501 l -6.318,7.774 7.845,16.01 h -4.864 z"
   id="path52"
   inkscape:connector-curvature="0"
   style="stroke:none;stroke-opacity:1;fill:#000000" />
<path
   d="m 207.23375,210.74175 c -1.668,1.029 -3.834,1.598 -6.035,1.598 -4.082,0 -7.17,-1.492 -9.832,-4.58 l 3.406,-2.662 c 1.775,2.059 3.693,2.982 6.355,2.982 3.018,0 5.182,-1.314 5.182,-3.089 0,-0.923 -0.497,-1.669 -1.49,-2.165 -0.853,-0.32 -1.775,-0.674 -2.84,-0.924 l -1.101,-0.319 -1.101,-0.248 -1.136,-0.354 c -2.449,-0.568 -3.691,-1.172 -4.686,-2.308 -0.995,-1.101 -1.491,-2.521 -1.491,-4.011 0,-3.941 3.337,-6.604 8.165,-6.604 3.515,0 6.425,1.171 8.839,3.656 l -3.16,2.84 c -1.49,-1.562 -3.442,-2.343 -5.679,-2.343 -2.415,0 -3.834,0.923 -3.834,2.45 0,1.313 0.816,1.916 3.763,2.591 3.16,0.639 5.253,1.313 6.566,1.987 2.095,1.1 3.443,3.338 3.443,5.928 0.002,2.416 -1.098,4.262 -3.334,5.575 z"
   id="path54"
   inkscape:connector-curvature="0"
   style="stroke:none;stroke-opacity:1;fill:#000000" />
</svg>