<?xml version="1.0" encoding="UTF-8" standalone="no"?>
<!-- Created with Inkscape (http://www.inkscape.org/) -->

<svg
   xmlns:dc="http://purl.org/dc/elements/1.1/"
   xmlns:cc="http://creativecommons.org/ns#"
   xmlns:rdf="http://www.w3.org/1999/02/22-rdf-syntax-ns#"
   xmlns:svg="http://www.w3.org/2000/svg"
   xmlns="http://www.w3.org/2000/svg"
   xmlns:sodipodi="http://sodipodi.sourceforge.net/DTD/sodipodi-0.dtd"
   xmlns:inkscape="http://www.inkscape.org/namespaces/inkscape"
   width="49.251999in"
   height="49.251999in"
   viewBox="0 0 1251.0008 1251.0008"
   version="1.1"
   id="svg7045"
   inkscape:version="0.92.2 (5c3e80d, 2017-08-06)"
   sodipodi:docname="88.svg">
  <defs
     id="defs7039" />
  <sodipodi:namedview
     id="base"
     pagecolor="#ffffff"
     bordercolor="#666666"
     borderopacity="1.0"
     inkscape:pageopacity="0.0"
     inkscape:pageshadow="2"
     inkscape:zoom="0.14829203"
     inkscape:cx="1826.9701"
     inkscape:cy="2230.6772"
     inkscape:document-units="in"
     inkscape:current-layer="layer1"
     showgrid="false"
     units="in"
     fit-margin-top="0"
     fit-margin-left="0"
     fit-margin-right="0"
     fit-margin-bottom="0"
     inkscape:window-width="1920"
     inkscape:window-height="1057"
     inkscape:window-x="-8"
     inkscape:window-y="-8"
     inkscape:window-maximized="1" />
  <metadata
     id="metadata7042">
    <rdf:RDF>
      <cc:Work
         rdf:about="">
        <dc:format>image/svg+xml</dc:format>
        <dc:type
           rdf:resource="http://purl.org/dc/dcmitype/StillImage" />
        <dc:title></dc:title>
      </cc:Work>
    </rdf:RDF>
  </metadata>
  <g
     inkscape:label="Layer 1"
     inkscape:groupmode="layer"
     id="layer1"
     transform="translate(-7.6875851e-7,954.00082)">
    <rect
       style="opacity:1;fill:#ffd400;fill-opacity:1;stroke:none;stroke-width:36.29109955;stroke-linejoin:round;stroke-miterlimit:4;stroke-dasharray:none;stroke-opacity:1"
       id="rect2313"
       width="914.40002"
       height="914.40002"
       x="-667.21069"
       y="-1131.7772"
       rx="57.150002"
       ry="57.150002"
       transform="matrix(-0.70710678,-0.70710678,-0.70710678,0.70710678,0,0)" />
    <rect
       ry="41.274998"
       rx="41.274998"
       y="-1115.9021"
       x="-651.33563"
       height="882.64996"
       width="882.64996"
       id="rect2315"
       style="opacity:1;fill:#000000;fill-opacity:1;stroke:none;stroke-width:35.0309906;stroke-linejoin:round;stroke-miterlimit:4;stroke-dasharray:none;stroke-opacity:1"
       transform="matrix(-0.70710678,-0.70710678,-0.70710678,0.70710678,0,0)" />
    <rect
       ry="19.049999"
       rx="19.049999"
       y="-1093.6772"
       x="-629.1106"
       height="838.20001"
       width="838.20001"
       id="rect2317"
       style="opacity:1;fill:#ffd400;fill-opacity:1;stroke:none;stroke-width:33.26684189;stroke-linejoin:round;stroke-miterlimit:4;stroke-dasharray:none;stroke-opacity:1"
       transform="matrix(-0.70710678,-0.70710678,-0.70710678,0.70710678,0,0)" />
    <path
       inkscape:connector-curvature="0"
       d="m 296.01513,-274.15279 c -4.5751,4.39139 -11.162,6.5869 -17.5687,6.9547 -1.2802,0 -3.8432,0 -6.9545,0 h -37.3294 v -122.6056 h 39.5285 c 12.4455,0 17.201,1.2802 23.7914,6.4066 12.8097,11.1621 20.132,30.5586 20.132,54.7142 0,24.51611 -7.6901,43.9162 -21.5993,54.5301 z m -8.0507,-91.1312 c -3.1113,-2.9276 -7.3188,-5.1231 -12.4454,-5.1231 h -21.96 v 83.44471 h 19.3967 c 6.4065,0 10.2462,-1.28011 13.7253,-4.75891 7.3188,-7.3189 11.162,-20.68001 11.162,-36.96869 0,-16.46901 -3.8397,-30.19441 -9.8786,-36.59401 z"
       id="path12"
       style="fill:#000000;stroke:none;stroke-width:3.53564525" />
    <path
       inkscape:connector-curvature="0"
       d="m 415.32902,-278.72789 c -6.9547,9.3341 -16.8368,13.7255 -29.6464,13.7255 -17.20089,0 -27.99879,-6.95471 -35.31759,-21.95999 -5.1232,-10.43012 -8.6022,-26.7189 -8.6022,-41.36001 0,-20.1284 5.1231,-38.2414 13.3577,-49.955 7.3188,-9.3341 17.2009,-13.7255 31.29389,-13.7255 15.55341,0 26.3512,6.9547 34.0377,21.9599 5.1232,10.7943 8.2381,26.3478 8.2381,41.7206 0,19.40009 -4.7555,38.7967 -13.3612,49.5945 z m -13.3577,-83.9998 c -3.8432,-6.4031 -8.6022,-8.9629 -15.92099,-9.5109 -0.36751,0 -0.7323,0 -1.09981,0 -8.7825,0 -14.6411,4.7589 -18.6646,15.1856 -3.1115,7.3189 -4.75899,18.4844 -4.75899,28.7306 0,12.9936 2.5633,26.3548 7.3188,34.03779 3.8432,6.40652 8.96639,9.51439 16.8367,9.51439 8.9663,0 14.64109,-4.75908 18.84839,-15.55339 2.5635,-6.4066 4.75901,-18.4843 4.75901,-27.99879 0,-13.72529 -2.55971,-26.1708 -7.31871,-34.4053 z"
       id="path14"
       style="fill:#000000;stroke:none;stroke-width:3.53564525" />
    <path
       inkscape:connector-curvature="0"
       d="m 535.74241,-267.20158 h -17.20088 l -19.39652,-78.68931 -18.84849,78.68931 h -17.2009 l -18.1167,-122.60561 h 19.7642 l 9.5145,64.5963 15.5533,-64.5963 h 18.8484 l 15.92109,64.5963 9.51452,-64.5963 h 19.76768 z"
       id="path16"
       style="fill:#000000;stroke:none;stroke-width:3.53564525" />
    <path
       inkscape:connector-curvature="0"
       d="m 638.21969,-267.20158 -46.84728,-83.08421 v 83.08421 h -19.39669 v -122.60561 h 19.39669 l 44.65169,78.32169 v -78.32169 h 19.3965 v 122.60561 z"
       id="path18"
       style="fill:#000000;stroke:none;stroke-width:3.53564525" />
    <path
       inkscape:connector-curvature="0"
       d="m 748.75109,-267.20158 v -53.43782 h -44.65161 v 53.43782 H 684.7028 v -122.60561 h 19.39668 v 49.4071 h 44.65161 v -49.4071 h 19.40359 v 122.60561 z"
       id="path20"
       style="fill:#000000;stroke:none;stroke-width:3.53564525" />
    <path
       inkscape:connector-curvature="0"
       d="m 797.42638,-267.20158 v -122.60561 h 19.76422 v 122.60561 z"
       id="path22"
       style="fill:#000000;stroke:none;stroke-width:3.53564525" />
    <path
       inkscape:connector-curvature="0"
       d="m 846.47278,-267.20158 v -122.60561 h 19.39649 v 104.4889 h 56.72942 v 18.11671 z"
       id="path24"
       style="fill:#000000;stroke:none;stroke-width:3.53564525" />
    <path
       inkscape:connector-curvature="0"
       d="m 940.71889,-267.20158 v -122.60561 h 19.3965 v 104.4889 h 56.72951 v 18.11671 z"
       id="path26"
       style="fill:#000000;stroke:none;stroke-width:3.53564525" />
    <path
       inkscape:connector-curvature="0"
       d="m 455.49481,-58.611496 c -6.7709,6.03879 -16.2852,9.51439 -26.719,9.51439 -21.0442,0 -36.4172,-12.4455 -44.6517,-31.11019 l 18.4844,-6.77082 c 5.1231,11.5298 14.6411,18.11682 26.1673,18.11682 11.3459,0 19.0324,-7.87041 19.0324,-18.11682 0,-16.285174 -19.0324,-19.032294 -34.9534,-25.435394 -7.31869,-2.92748 -23.60749,-10.24988 -23.60749,-30.5657 0,-23.9681 16.28519,-33.11829 38.24509,-33.11829 17.201,0 28.9145,9.88211 34.9534,25.07131 l -17.2009,5.1195 c 0,0 -4.3913,-10.42662 -18.1166,-10.79431 -0.5479,0 -0.9154,0 -1.2802,0 -8.4185,0 -17.5687,3.2952 -17.5687,12.99001 0,0.3674 0,0.9153 0,1.28008 1.6477,22.6954 59.2928,7.68652 59.2928,55.817314 0,11.16909 -4.3912,21.0512 -12.0777,28.00239 z"
       id="path28"
       style="fill:#000000;stroke:none;stroke-width:3.53564787" />
    <path
       inkscape:connector-curvature="0"
       d="m 552.84881,-108.9344 c -5.67111,2.56331 -12.9935,4.2073 -22.508,4.2073 h -22.6917 v 53.434294 h -19.3966 V -173.90199 h 42.0883 c 9.88211,0 16.4691,0.91538 22.508,3.84318 10.614,5.12331 18.85209,18.11671 18.85209,30.55872 0,12.9935 -8.23809,25.80669 -18.85209,30.56569 z m -8.23439,-43.37179 c -3.4757,-1.8315 -5.67132,-2.1957 -11.71371,-2.1957 h -25.25519 v 30.00708 h 25.25519 c 6.0389,0 8.2346,-0.3674 11.71371,-2.01178 4.2073,-2.19562 7.31859,-7.8703 7.31859,-12.9935 0,-5.1231 -3.11129,-10.24282 -7.31859,-12.8061 z"
       id="path30"
       style="fill:#000000;stroke:none;stroke-width:3.53564787" />
    <path
       inkscape:connector-curvature="0"
       d="M 589.8142,-51.289206 V -173.89839 h 72.2863 v 19.3965 h -52.88621 v 30.00708 h 35.68531 v 19.76771 h -35.68531 v 33.670104 h 56.7259 v 19.76419 H 589.8142 Z"
       id="path32"
       style="fill:#000000;stroke:none;stroke-width:3.53564787" />
    <path
       inkscape:connector-curvature="0"
       d="M 686.62381,-51.289206 V -173.89839 h 72.27908 v 19.3965 H 706.0203 v 30.00708 h 35.68169 v 19.76771 H 706.0203 v 33.670104 h 56.7295 v 19.76419 h -76.12599 z"
       id="path34"
       style="fill:#000000;stroke:none;stroke-width:3.53564787" />
    <path
       inkscape:connector-curvature="0"
       d="m 845.27879,-58.243916 c -4.5715,4.39132 -11.1584,6.58701 -17.5686,6.95471 -1.27611,0 -3.83971,0 -6.9546,0 H 783.4227 V -173.89839 h 39.52849 c 12.44549,0 17.20101,1.28019 23.79141,6.40649 12.80969,11.16211 20.13548,30.55879 20.13548,54.71771 0,24.519784 -7.6935,43.916274 -21.59929,54.530274 z m -8.05421,-91.131174 c -3.10779,-2.92761 -7.31879,-5.1232 -12.44539,-5.1232 H 802.8192 v 83.448384 h 19.39668 c 6.41012,0 10.2462,-1.28029 13.72881,-4.75909 7.3188,-7.31882 11.15859,-20.68002 11.15859,-36.965194 0.01,-16.47611 -3.8363,-30.2015 -9.8787,-36.6009 z"
       id="path36"
       style="fill:#000000;stroke:none;stroke-width:3.53564787" />
    <path
       inkscape:connector-curvature="0"
       d="m 481.92971,-483.09898 h -17.2051 l -19.3934,-78.6916 -18.8526,78.6916 h -17.2015 l -18.1172,-122.6091 h 19.7648 l 9.5148,64.5981 15.5537,-64.5981 h 18.8491 l 15.9214,64.5981 9.5148,-64.5981 h 19.7683 z"
       id="path38"
       style="fill:#000000;stroke:none;stroke-width:3.53574562" />
    <path
       inkscape:connector-curvature="0"
       d="m 579.46679,-483.09898 -12.07809,-34.4028 h -38.24619 l -12.0782,34.4028 h -20.6806 l 42.27341,-122.6091 h 19.21679 l 42.27708,122.6091 z m -30.92728,-88.574 -12.62599,34.4064 h 24.52388 z"
       id="path40"
       style="fill:#000000;stroke:none;stroke-width:3.53574562" />
    <path
       inkscape:connector-curvature="0"
       d="m 644.25229,-588.50668 v 105.4077 h -19.3971 v -105.4077 h -28.0031 v -17.2014 h 75.76401 v 17.2014 z"
       id="path42"
       style="fill:#000000;stroke:none;stroke-width:3.53574562" />
    <path
       inkscape:connector-curvature="0"
       d="m 723.67579,-480.90319 c -18.1207,0 -29.6472,-6.95489 -37.51789,-21.96059 -5.4909,-10.7982 -8.963,-26.3519 -8.963,-41.7254 0,-19.397 5.12329,-38.7942 13.72209,-49.5888 7.31911,-8.9666 17.5692,-13.7257 31.4752,-13.7257 18.4885,0 30.0115,7.8705 38.24981,25.072 l -18.12071,7.6832 c -6.7674,-10.427 -10.7947,-12.9904 -20.1291,-12.9904 -9.88229,0 -16.46931,4.3914 -20.67689,15.186 -3.1151,7.319 -4.75912,17.9333 -4.75912,28.3637 0,13.3616 2.92762,26.7197 7.6867,34.4064 4.39132,6.4068 9.8824,9.5147 18.4812,9.5147 8.23841,0 14.2739,-4.3914 19.03302,-14.2739 l 18.48839,6.955 c -7.3225,17.9331 -19.4007,27.08379 -36.9697,27.08379 z"
       id="path44"
       style="fill:#000000;stroke:none;stroke-width:3.53574562" />
    <path
       inkscape:connector-curvature="0"
       d="m 840.43319,-483.09898 v -53.4357 H 795.7802 v 53.4357 h -19.39711 v -122.6091 h 19.39711 v 49.4051 h 44.65299 v -49.4051 h 19.40409 v 122.6091 z"
       id="path46"
       style="fill:#000000;stroke:none;stroke-width:3.53574562" />
  </g>
</svg>
