<?xml version="1.0" encoding="UTF-8" standalone="no"?>
<!-- Generator: Adobe Illustrator 12.0.1, SVG Export Plug-In  -->

<svg
   xmlns:dc="http://purl.org/dc/elements/1.1/"
   xmlns:cc="http://creativecommons.org/ns#"
   xmlns:rdf="http://www.w3.org/1999/02/22-rdf-syntax-ns#"
   xmlns:svg="http://www.w3.org/2000/svg"
   xmlns="http://www.w3.org/2000/svg"
   xmlns:sodipodi="http://sodipodi.sourceforge.net/DTD/sodipodi-0.dtd"
   xmlns:inkscape="http://www.inkscape.org/namespaces/inkscape"
   version="1.1"
   width="287.99673"
   height="287.99426"
   viewBox="0 -0.006 287.99674 287.99426"
   enable-background="new 0 -0.006 290 290"
   xml:space="preserve"
   id="svg2"
   inkscape:version="0.48.2 r9819"
   sodipodi:docname="AJAX1.svg"><metadata
   id="metadata42"><rdf:RDF><cc:Work
       rdf:about=""><dc:format>image/svg+xml</dc:format><dc:type
         rdf:resource="http://purl.org/dc/dcmitype/StillImage" /></cc:Work></rdf:RDF></metadata><sodipodi:namedview
   pagecolor="#ffffff"
   bordercolor="#666666"
   borderopacity="1"
   objecttolerance="10"
   gridtolerance="10"
   guidetolerance="10"
   inkscape:pageopacity="0"
   inkscape:pageshadow="2"
   inkscape:window-width="1280"
   inkscape:window-height="1004"
   id="namedview40"
   showgrid="false"
   fit-margin-top="0"
   fit-margin-left="0"
   fit-margin-right="0"
   fit-margin-bottom="0"
   inkscape:zoom="1.6275862"
   inkscape:cx="64.980505"
   inkscape:cy="144.79448"
   inkscape:window-x="-8"
   inkscape:window-y="-8"
   inkscape:window-maximized="1"
   inkscape:current-layer="svg2" />
<defs
   id="defs4">
</defs>
<path
   d="M 4.119,134.0005 134.003,4.117496 c 5.498,-5.498 14.491,-5.498 19.989,0 L 283.874,134.0005 c 5.497,5.495 5.497,14.487 0,19.986 l -129.882,129.876 c -5.498,5.501 -14.491,5.501 -19.989,0 L 4.119,153.9865 c -5.492,-5.499 -5.492,-14.491 0,-19.986 z"
   id="path6"
   style="fill:#ffd033;stroke:none;fill-opacity:1"
   inkscape:connector-curvature="0" />

<path
   clip-rule="evenodd"
   d="M 7.25,136.0615 136.071,7.252496 c 4.359,-4.36 11.492,-4.36 15.856,0 L 280.741,136.0615 c 4.361,4.367 4.361,11.498 0,15.86 l -128.813,128.807 c -4.364,4.363 -11.497,4.363 -15.856,0 L 7.25,151.9225 c -4.354,-4.363 -4.354,-11.493 0,-15.861"
   id="path10"
   inkscape:connector-curvature="0"
   style="fill:#000000;fill-rule:evenodd;stroke:none" />
<path
   clip-rule="evenodd"
   d="M 11.277,140.0315 140.037,11.280496 c 2.176,-2.179 5.747,-2.179 7.925,0 L 276.717,140.0315 c 2.178,2.176 2.178,5.743 0,7.919 l -128.755,128.757 c -2.178,2.18 -5.749,2.18 -7.925,0 L 11.277,147.9505 c -2.177,-2.177 -2.177,-5.743 0,-7.919"
   id="path12"
   inkscape:connector-curvature="0"
   style="fill:#ffd033;fill-rule:evenodd;stroke:none;fill-opacity:1" />

<path
   d="M 97.186,114.4245 H 92.32 L 86.834,92.168496 81.503,114.4245 H 76.638 L 71.514,79.747496 h 5.59 l 2.691,18.27 4.399,-18.27 h 5.331 l 4.503,18.27 2.691,-18.27 h 5.591 L 97.186,114.4245 z"
   id="path16"
   inkscape:connector-curvature="0"
   style="fill:#000000;stroke:none" />
<path
   d="m 127.877,114.4245 -3.416,-9.73 h -10.817 l -3.416,9.73 h -5.849 l 11.956,-34.677004 h 5.435 l 11.957,34.677004 h -5.85 z m -8.747,-25.052004 -3.571,9.731 h 6.936 l -3.365,-9.731 z"
   id="path18"
   inkscape:connector-curvature="0"
   style="fill:#000000;stroke:none" />
<path
   d="M 149.304,84.612496 V 114.4245 h -5.485 V 84.612496 H 135.9 v -4.865 h 21.428 v 4.865 h -8.024 z"
   id="path20"
   inkscape:connector-curvature="0"
   style="fill:#000000;stroke:none" />
<path
   d="m 174.872,115.0455 c -5.123,0 -8.385,-1.967 -10.609,-6.211 -1.553,-3.054 -2.537,-7.453 -2.537,-11.801004 0,-5.486 1.449,-10.972 3.883,-14.025 2.07,-2.536 4.969,-3.882 8.902,-3.882 5.227,0 8.488,2.226 10.816,7.091 l -5.123,2.173 c -1.916,-2.949 -3.055,-3.674 -5.693,-3.674 -2.795,0 -4.658,1.242 -5.85,4.295 -0.879,2.07 -1.346,5.072 -1.346,8.022 0,3.779004 0.828,7.557004 2.174,9.731004 1.242,1.812 2.795,2.691 5.229,2.691 2.328,0 4.037,-1.242 5.383,-4.037 l 5.227,1.967 c -2.071,5.072 -5.487,7.66 -10.456,7.66 z"
   id="path22"
   inkscape:connector-curvature="0"
   style="fill:#000000;stroke:none" />
<path
   d="M 211.001,114.4245 V 99.311496 H 198.372 V 114.4245 h -5.486 V 79.746496 h 5.486 v 13.974 h 12.629 v -13.974 h 5.486 V 114.4235 h -5.486 z"
   id="path24"
   inkscape:connector-curvature="0"
   style="fill:#000000;stroke:none" />
<path
   d="m 108.597,137.5715 v 8.488 h 10.093 v 5.59 h -10.093 v 15.113 h -5.486 v -34.678 h 21.531 v 5.486 h -16.045 z"
   id="path26"
   inkscape:connector-curvature="0"
   style="fill:#000000;stroke:none" />
<path
   d="m 149.848,163.5015 c -1.967,2.64 -4.762,3.882 -8.385,3.882 -4.865,0 -7.919,-1.967 -9.989,-6.211 -1.449,-2.95 -2.433,-7.557 -2.433,-11.697 0,-5.694 1.449,-10.817 3.778,-14.129 2.07,-2.64 4.865,-3.882 8.851,-3.882 4.399,0 7.453,1.967 9.627,6.211 1.45,3.053 2.33,7.453 2.33,11.8 0,5.486 -1.347,10.972 -3.779,14.026 z m -3.779,-23.757 c -1.087,-1.812 -2.433,-2.536 -4.503,-2.691 -0.104,0 -0.207,0 -0.311,0 -2.484,0 -4.141,1.346 -5.279,4.295 -0.88,2.07 -1.346,5.228 -1.346,8.126 0,3.675 0.725,7.453 2.07,9.627 1.087,1.812 2.536,2.691 4.762,2.691 2.536,0 4.141,-1.346 5.331,-4.399 0.725,-1.812 1.346,-5.228 1.346,-7.919 10e-4,-3.881 -0.724,-7.401 -2.07,-9.73 z"
   id="path28"
   inkscape:connector-curvature="0"
   style="fill:#000000;stroke:none" />
<path
   d="m 178.937,166.7625 -5.59,-15.113 h -6.573 v 15.113 h -5.486 v -34.678 h 11.438 c 2.691,0 4.503,0.259 6.211,1.087 3.054,1.449 5.229,5.124 5.229,8.643 0,3.675 -2.175,7.298 -5.384,8.748 l 6.108,16.2 h -5.953 z m -2.433,-28.57 c -0.932,-0.518 -1.346,-0.621 -3.157,-0.621 h -6.573 v 8.488 h 6.573 c 1.708,0 2.277,-0.104 3.157,-0.569 1.346,-0.777 2.174,-2.226 2.174,-3.675 0,-1.449 -0.828,-2.899 -2.174,-3.623 z"
   id="path30"
   inkscape:connector-curvature="0"
   style="fill:#000000;stroke:none" />
<path
   d="m 102.36,219.3775 -5.59,-15.113 h -6.573 v 15.113 h -5.486 v -34.678 h 11.438 c 2.691,0 4.503,0.259 6.211,1.087 3.054,1.449 5.228,5.124 5.228,8.643 0,3.676 -2.174,7.299 -5.383,8.748 l 6.108,16.2 h -5.953 z m -2.432,-28.57 c -0.932,-0.518 -1.346,-0.621 -3.157,-0.621 h -6.573 v 8.488 h 6.573 c 1.708,0 2.277,-0.104 3.157,-0.569 1.346,-0.776 2.174,-2.226 2.174,-3.676 0,-1.45 -0.829,-2.898 -2.174,-3.622 z"
   id="path32"
   inkscape:connector-curvature="0"
   style="fill:#000000;stroke:none" />
<path
   d="m 135.227,216.1165 c -1.967,2.64 -4.762,3.882 -8.385,3.882 -4.865,0 -7.919,-1.967 -9.989,-6.211 -1.449,-2.95 -2.433,-7.557 -2.433,-11.697 0,-5.693 1.449,-10.817 3.778,-14.13 2.07,-2.64 4.865,-3.882 8.851,-3.882 4.399,0 7.453,1.967 9.627,6.211 1.449,3.053 2.33,7.453 2.33,11.801 0,5.486 -1.346,10.972 -3.779,14.026 z m -3.779,-23.758 c -1.087,-1.811 -2.433,-2.535 -4.503,-2.69 -0.104,0 -0.207,0 -0.311,0 -2.484,0 -4.141,1.346 -5.279,4.295 -0.88,2.071 -1.346,5.229 -1.346,8.127 0,3.675 0.725,7.453 2.07,9.627 1.087,1.812 2.536,2.691 4.762,2.691 2.536,0 4.141,-1.346 5.331,-4.399 0.725,-1.812 1.346,-5.228 1.346,-7.919 0.001,-3.882 -0.724,-7.402 -2.07,-9.732 z"
   id="path34"
   inkscape:connector-curvature="0"
   style="fill:#000000;stroke:none" />
<path
   d="m 160.07,219.9985 c -5.125,0 -8.385,-1.967 -10.611,-6.211 -1.553,-3.054 -2.535,-7.453 -2.535,-11.801 0,-5.486 1.449,-10.973 3.881,-14.026 2.07,-2.536 4.969,-3.882 8.902,-3.882 5.229,0 8.488,2.226 10.818,7.091 l -5.125,2.173 c -1.914,-2.949 -3.053,-3.674 -5.693,-3.674 -2.795,0 -4.658,1.242 -5.848,4.295 -0.881,2.071 -1.346,5.073 -1.346,8.023 0,3.778 0.828,7.557 2.174,9.73 1.242,1.812 2.795,2.691 5.227,2.691 2.33,0 4.037,-1.242 5.383,-4.037 l 5.229,1.967 c -2.071,5.073 -5.487,7.661 -10.456,7.661 z"
   id="path36"
   inkscape:connector-curvature="0"
   style="fill:#000000;stroke:none" />
<path
   d="m 196.973,219.3775 -8.799,-16.407 -3.623,4.503 v 11.904 h -5.486 v -34.678 h 5.486 v 13.768 l 10.922,-13.768 h 7.092 l -10.715,13.509 11.439,21.169 h -6.316 z"
   id="path38"
   inkscape:connector-curvature="0"
   style="fill:#000000;stroke:none" />
</svg>