<?xml version="1.0" encoding="UTF-8" standalone="no"?>
<!-- Generator: Adobe Illustrator 12.0.1, SVG Export Plug-In  -->

<svg
   xmlns:dc="http://purl.org/dc/elements/1.1/"
   xmlns:cc="http://creativecommons.org/ns#"
   xmlns:rdf="http://www.w3.org/1999/02/22-rdf-syntax-ns#"
   xmlns:svg="http://www.w3.org/2000/svg"
   xmlns="http://www.w3.org/2000/svg"
   xmlns:sodipodi="http://sodipodi.sourceforge.net/DTD/sodipodi-0.dtd"
   xmlns:inkscape="http://www.inkscape.org/namespaces/inkscape"
   version="1.1"
   width="286.66125"
   height="286.66476"
   viewBox="-1 0 286.66125 286.66476"
   enable-background="new -1 0 289 288"
   xml:space="preserve"
   id="svg2"
   inkscape:version="0.48.2 r9819"
   sodipodi:docname="AJAX1.svg"><metadata
   id="metadata38"><rdf:RDF><cc:Work
       rdf:about=""><dc:format>image/svg+xml</dc:format><dc:type
         rdf:resource="http://purl.org/dc/dcmitype/StillImage" /></cc:Work></rdf:RDF></metadata><sodipodi:namedview
   pagecolor="#ffffff"
   bordercolor="#666666"
   borderopacity="1"
   objecttolerance="10"
   gridtolerance="10"
   guidetolerance="10"
   inkscape:pageopacity="0"
   inkscape:pageshadow="2"
   inkscape:window-width="1280"
   inkscape:window-height="1004"
   id="namedview36"
   showgrid="false"
   fit-margin-top="0"
   fit-margin-left="0"
   fit-margin-right="0"
   fit-margin-bottom="0"
   inkscape:zoom="2.3177389"
   inkscape:cx="63.421337"
   inkscape:cy="170.69349"
   inkscape:window-x="-8"
   inkscape:window-y="-8"
   inkscape:window-maximized="1"
   inkscape:current-layer="svg2" />
<defs
   id="defs4">
</defs>
<path
   d="M 3.0987498,133.3875 132.37975,4.1055 c 5.471,-5.474 14.421,-5.474 19.895,0 l 129.284,129.282 c 5.47,5.471 5.47,14.423 0,19.889 l -129.284,129.285 c -5.474,5.471 -14.424,5.471 -19.895,0 L 3.0987498,153.2755 c -5.465,-5.465 -5.465,-14.418 0,-19.888 z"
   id="path6"
   style="fill:#ffd033;stroke:none;fill-opacity:1"
   inkscape:connector-curvature="0" />

<path
   clip-rule="evenodd"
   d="M 6.2217498,135.4405 134.44075,7.2205 c 4.339,-4.339 11.442,-4.339 15.785,0 l 128.215,128.22 c 4.343,4.343 4.343,11.438 0,15.777 l -128.215,128.224 c -4.343,4.336 -11.446,4.336 -15.785,0 L 6.2217498,151.2175 c -4.339,-4.339 -4.339,-11.435 0,-15.777"
   id="path10"
   inkscape:connector-curvature="0"
   style="fill-rule:evenodd;stroke:none;fill:#000000" />
<path
   clip-rule="evenodd"
   d="m 10.22475,139.3905 128.162,-128.162 c 2.162,-2.169 5.724,-2.169 7.889,0 l 128.16,128.162 c 2.166,2.166 2.166,5.716 0,7.883 l -128.16,128.161 c -2.165,2.168 -5.727,2.168 -7.889,0 l -128.162,-128.161 c -2.1660002,-2.167 -2.1660002,-5.717 0,-7.883"
   id="path12"
   style="fill:#ffd033;fill-rule:evenodd;stroke:none;fill-opacity:1"
   inkscape:connector-curvature="0" />
<path
   d="m 134.71675,165.8155 c -1.967,2.64 -4.762,3.882 -8.385,3.882 -4.865,0 -7.919,-1.967 -9.989,-6.211 -1.449,-2.95 -2.433,-7.557 -2.433,-11.697 0,-5.693 1.449,-10.817 3.778,-14.129 2.07,-2.64 4.865,-3.882 8.851,-3.882 4.399,0 7.453,1.967 9.627,6.211 1.449,3.053 2.33,7.453 2.33,11.8 0,5.485 -1.346,10.972 -3.779,14.026 z m -3.779,-23.758 c -1.087,-1.811 -2.433,-2.535 -4.503,-2.69 -0.104,0 -0.207,0 -0.311,0 -2.484,0 -4.141,1.346 -5.279,4.295 -0.88,2.071 -1.346,5.228 -1.346,8.126 0,3.675 0.725,7.453 2.07,9.627 1.087,1.812 2.536,2.691 4.762,2.691 2.536,0 4.141,-1.346 5.331,-4.399 0.725,-1.812 1.346,-5.228 1.346,-7.919 0.001,-3.882 -0.724,-7.401 -2.07,-9.731 z"
   id="path14"
   inkscape:connector-curvature="0"
   style="stroke:none;fill:#000000" />
<path
   d="m 165.87375,169.0755 -13.25,-23.498 v 23.498 h -5.486 v -34.677 h 5.486 l 12.629,22.152 v -22.152 h 5.488 v 34.677 h -4.867 z"
   id="path16"
   inkscape:connector-curvature="0"
   style="stroke:none;fill:#000000" />
<path
   d="m 99.98775,212.8905 -5.59,-15.113 h -6.573 v 15.113 h -5.486 v -34.678 h 11.438 c 2.691,0 4.503,0.259 6.211,1.087 3.054,1.449 5.229,5.124 5.229,8.643 0,3.675 -2.175,7.299 -5.384,8.748 l 6.108,16.2 h -5.953 z m -2.718,-28.571 c -0.932,-0.518 -1.346,-0.621 -3.157,-0.621 h -6.573 v 8.487 h 6.573 c 1.708,0 2.277,-0.104 3.157,-0.569 1.346,-0.776 2.174,-2.226 2.174,-3.675 0,-1.449 -0.828,-2.897 -2.174,-3.622 z"
   id="path18"
   inkscape:connector-curvature="0"
   style="stroke:none;fill:#000000" />
<path
   d="m 133.16375,209.6295 c -1.967,2.64 -4.762,3.882 -8.385,3.882 -4.865,0 -7.919,-1.967 -9.989,-6.211 -1.449,-2.95 -2.433,-7.557 -2.433,-11.697 0,-5.694 1.449,-10.817 3.778,-14.13 2.07,-2.64 4.865,-3.882 8.851,-3.882 4.399,0 7.453,1.967 9.627,6.211 1.45,3.053 2.33,7.452 2.33,11.801 0.001,5.486 -1.346,10.972 -3.779,14.026 z m -4.063,-23.757 c -1.087,-1.812 -2.433,-2.536 -4.503,-2.691 -0.104,0 -0.207,0 -0.311,0 -2.484,0 -4.141,1.346 -5.279,4.295 -0.88,2.07 -1.346,5.228 -1.346,8.127 0,3.675 0.725,7.453 2.07,9.627 1.087,1.812 2.536,2.691 4.762,2.691 2.536,0 4.141,-1.346 5.331,-4.399 0.725,-1.812 1.346,-5.228 1.346,-7.919 0.001,-3.883 -0.724,-7.403 -2.07,-9.731 z"
   id="path20"
   inkscape:connector-curvature="0"
   style="stroke:none;fill:#000000" />
<path
   d="m 166.33975,213.8905 -3.416,-9.73 h -10.816 l -3.416,9.73 h -5.849 l 11.956,-34.678 h 5.434 l 11.957,34.678 h -5.85 z m -8.746,-25.052 -3.572,9.731 h 6.936 l -3.364,-9.731 z"
   id="path22"
   inkscape:connector-curvature="0"
   style="stroke:none;fill:#000000" />
<path
   d="m 196.20475,210.9235 c -1.295,1.242 -3.158,1.863 -4.969,1.967 -0.363,0 -1.088,0 -1.967,0 h -10.559 v -34.678 h 11.18 c 3.52,0 4.865,0.362 6.729,1.812 3.623,3.157 5.693,8.643 5.693,15.476 0.001,6.935 -2.173,12.421 -6.107,15.423 z m -2.561,-25.775 c -0.881,-0.828 -2.07,-1.449 -3.52,-1.449 h -6.211 v 23.602 h 5.486 c 1.811,0 2.898,-0.362 3.881,-1.346 2.07,-2.07 3.158,-5.849 3.158,-10.455 0.001,-4.66 -1.087,-8.542 -2.794,-10.352 z"
   id="path24"
   inkscape:connector-curvature="0"
   style="stroke:none;fill:#000000" />
<path
   d="m 97.03775,122.3495 h -4.866 l -5.486,-22.256 -5.332,22.256 h -4.865 l -5.124,-34.678 h 5.59 l 2.691,18.27 4.399,-18.27 h 5.331 l 4.503,18.27 2.691,-18.27 h 5.591 l -5.123,34.678 z"
   id="path26"
   inkscape:connector-curvature="0"
   style="stroke:none;fill:#000000" />
<path
   d="m 127.72875,122.3495 -3.416,-9.73 h -10.817 l -3.416,9.73 h -5.849 l 11.956,-34.677 h 5.435 l 11.957,34.677 h -5.85 z m -8.747,-25.052 -3.571,9.731 h 6.936 l -3.365,-9.731 z"
   id="path28"
   inkscape:connector-curvature="0"
   style="stroke:none;fill:#000000" />
<path
   d="m 149.15775,92.5375 v 29.812 h -5.486 v -29.812 h -7.919 v -4.865 h 21.427 v 4.865 h -8.022 z"
   id="path30"
   inkscape:connector-curvature="0"
   style="stroke:none;fill:#000000" />
<path
   d="m 162.30375,122.3495 v -34.678 h 20.443 v 5.486 h -14.957 v 8.487 h 10.092 v 5.59 h -10.092 v 9.523 h 16.045 v 5.59 h -21.531 z"
   id="path32"
   inkscape:connector-curvature="0"
   style="stroke:none;fill:#000000" />
<path
   d="m 207.33275,122.3495 -5.59,-15.113 h -6.574 v 15.113 h -5.486 v -34.678 h 11.439 c 2.691,0 4.502,0.259 6.211,1.087 3.053,1.449 5.229,5.124 5.229,8.643 0,3.675 -2.176,7.298 -5.385,8.748 l 6.109,16.2 h -5.953 z m -2.743,-28.57 c -0.932,-0.518 -1.346,-0.621 -3.157,-0.621 h -6.573 v 8.487 h 6.573 c 1.708,0 2.277,-0.104 3.157,-0.569 1.346,-0.776 2.174,-2.226 2.174,-3.675 0,-1.449 -0.828,-2.898 -2.174,-3.622 z"
   id="path34"
   inkscape:connector-curvature="0"
   style="stroke:none;fill:#000000" />
</svg>