<?xml version="1.0" encoding="UTF-8" standalone="no"?>
<!-- Generator: Adobe Illustrator 12.0.1, SVG Export Plug-In  -->

<svg
   xmlns:dc="http://purl.org/dc/elements/1.1/"
   xmlns:cc="http://creativecommons.org/ns#"
   xmlns:rdf="http://www.w3.org/1999/02/22-rdf-syntax-ns#"
   xmlns:svg="http://www.w3.org/2000/svg"
   xmlns="http://www.w3.org/2000/svg"
   xmlns:sodipodi="http://sodipodi.sourceforge.net/DTD/sodipodi-0.dtd"
   xmlns:inkscape="http://www.inkscape.org/namespaces/inkscape"
   version="1.1"
   width="206.59375"
   height="274.90625"
   viewBox="-1 0 206.59375 274.90625"
   enable-background="new -1 0 289 288"
   xml:space="preserve"
   id="svg2"
   inkscape:version="0.48.2 r9819"
   sodipodi:docname="MUTCD R15-8.svg"><metadata
   id="metadata22"><rdf:RDF><cc:Work
       rdf:about=""><dc:format>image/svg+xml</dc:format><dc:type
         rdf:resource="http://purl.org/dc/dcmitype/StillImage" /><dc:title></dc:title></cc:Work></rdf:RDF></metadata><sodipodi:namedview
   pagecolor="#ffffff"
   bordercolor="#666666"
   borderopacity="1"
   objecttolerance="10"
   gridtolerance="10"
   guidetolerance="10"
   inkscape:pageopacity="0"
   inkscape:pageshadow="2"
   inkscape:window-width="1280"
   inkscape:window-height="1004"
   id="namedview20"
   showgrid="false"
   fit-margin-top="0"
   fit-margin-left="0"
   fit-margin-right="0"
   fit-margin-bottom="0"
   inkscape:zoom="1.638889"
   inkscape:cx="-16.880484"
   inkscape:cy="192.33319"
   inkscape:window-x="-8"
   inkscape:window-y="-8"
   inkscape:window-maximized="1"
   inkscape:current-layer="svg2"
   showguides="true"
   inkscape:guide-bbox="true" />
<defs
   id="defs4">
</defs>







<path
   inkscape:connector-curvature="0"
   d="m 204.83137,257.08075 c 0,9.39875 -7.69,17.09 -17.09,17.09 l -170.895,0 c -9.4,0 -17.09,-7.69125 -17.09,-17.09 l 0,-239.25375 c 0,-9.4 7.69,-17.09 17.09,-17.09 l 170.895,0 c 9.4,0 17.09,7.69 17.09,17.09 l 0,239.25375"
   style="fill:#ffffff;fill-opacity:1;fill-rule:nonzero;stroke:#000000;stroke-width:1.5;stroke-miterlimit:4;stroke-opacity:1;stroke-dasharray:none"
   id="path13194" /><path
   inkscape:connector-curvature="0"
   d="m 193.43825,257.08075 c 0,3.1325 -2.56375,5.69625 -5.69625,5.69625 l -170.89625,0 c -3.1325,0 -5.69625,-2.56375 -5.69625,-5.69625 l 0,-239.25375 c 0,-3.13375 2.56375,-5.6975 5.69625,-5.6975 l 170.89625,0 c 3.1325,0 5.69625,2.56375 5.69625,5.6975 l 0,239.25375 z M 187.742,5.0095 l -170.89625,0 c -7.05,0 -12.8175,5.7675 -12.8175,12.8175 l 0,239.25375 c 0,7.05 5.7675,12.8175 12.8175,12.8175 l 170.89625,0 c 7.04875,0 12.8175,-5.7675 12.8175,-12.8175 l 0,-239.25375 c 0,-7.05 -5.76875,-12.8175 -12.8175,-12.8175"
   style="fill:#000000;fill-opacity:1;fill-rule:nonzero;stroke:none"
   id="path13218" /><path
   inkscape:connector-curvature="0"
   d="m 120.42339,91.16812 -7.73625,-3.98375 c -2.87625,-1.2975 -4.64875,-4.04375 -4.825,-7.16625 l 0.009,-7.785 c 0.0375,-1.45375 0.3525,-2.63 1.145,-3.85625 0.96625,-1.30375 2.085,-1.9825 3.50125,-2.68625 1.39,-0.695 2.595,-1.70875 3.69875,-2.7925 2.99375,-3.14 4.695,-6.885 5.17625,-11.1925 l 0.0725,-1.145 c 0.0487,-3.055 -0.54,-5.715 -1.80125,-8.49 l -0.84875,-1.555 c -1.335,-2.07375 -2.79625,-3.67125 -4.73875,-5.18875 l -1.47375,-0.99 c -2.19875,-1.2575 -4.27375,-2.005 -6.77,-2.44875 l -1.87125,-0.1875 c -2.6125,-0.0662 -4.85625,0.25875 -7.33125,1.0925 l -1.65625,0.69625 c -2.20625,1.1225 -3.95,2.4175 -5.6625,4.20625 l -1.1275,1.3575 c -1.44625,2.02375 -2.39,3.9775 -3.07375,6.37 l -0.36625,1.78 c -0.22125,1.7375 -0.25875,3.34 -0.065,5.07375 0.75,5.23125 3.33375,9.73125 7.695,12.76625 0.20875,0.135 0.41625,0.275 0.63125,0.3975 0.965,0.525 1.88625,0.93375 2.765,1.6225 1.51625,1.30375 2.20125,2.80625 2.355,4.79125 l 0.0237,7.885 c -0.0588,3.23125 -1.805,5.94375 -4.68875,7.38125 l -23.76625,12.21 c -2.21375,1.19125 -3.4175,3.46625 -4.12625,5.7925 l -12.18,44.12125 c -0.58625,2.13375 -1.21875,4.33875 -0.63125,6.54125 0.895,3.16125 1.7875,6.32125 2.6575,9.46375 l 65.01,-74.08125 z m 29.6,75.81375 c -14.0425,-4.70625 -28.9575,-7.33375 -43.65375,-7.33375 -12.91,0 -26.33,2.04125 -38.84875,5.76875 l 61.44875,-69.89875 7.54625,3.9225 c 2.1675,1.265 3.3325,3.61875 4,5.9525 l 12.17375,44.11375 c 0.56,2.06 1.12625,4.1575 0.56,6.27875 -1.02375,3.6125 -2.1675,7.59875 -3.22625,11.19625 m -2.49625,8.98125 c -2.23125,7.9375 -1.935,6.52125 -4.47375,14.38125 -5.6975,17.57 -11.125,35.22 -16.5075,52.8875 l -16.37125,0 11.78625,-54.245 -37.91625,0 11.78625,54.245 -16.3725,0 c -5.38125,-17.6675 -10.80875,-35.3175 -16.50625,-52.8875 -2.68375,-8.30625 -1.14125,-3.64625 -3.62625,-12.05875 15.49,-6.71625 30.00875,-9.2025 47.04375,-9.2025 13.61625,0 27.84,2.4225 41.1575,6.88 m 3.07,1.11875 c -8.665,30.34625 -1.24125,2.96 -21.51,69.58 l -23.16875,0 11.78625,-54.2425 -29.40375,0 11.7875,54.2425 -23.17,0 c -20.17625,-66.32 -11.98375,-37.3525 -20.53,-67.17375 -0.67375,0.2175 -1.30375,0.495 -1.93125,0.77625 l -15.37875,17.48125 -7.01375,-6.1275 20.65,-23.41625 c -0.915,-3.20875 -1.99,-6.995 -3.2675,-11.50625 -0.80125,-2.8325 -0.16125,-5.4875 0.6325,-8.36125 l 12.1075,-43.87 c 0.9225,-3.3425 2.8225,-6.58375 5.90875,-8.17125 l 23.73125,-12.2 c 1.735,-0.74625 2.89125,-2.48 2.89125,-4.3825 l -0.015,-7.43 c -0.005,-2.74125 -2.0925,-3.04 -3.66875,-4.01875 -6.17,-3.83125 -9.935,-10.9725 -9.935,-18.27625 0,-11.975 9.7675,-21.74125 21.9025,-21.74125 12.13625,0 21.90375,9.76625 21.90375,21.74125 0,7.30375 -3.765,14.445 -9.935,18.27625 -1.5775,0.97875 -3.66375,1.2775 -3.66875,4.01875 l -0.015,7.43 c 0,1.9025 1.15625,3.63625 2.89125,4.3825 l 8.4575,4.3525 24.2525,-27.5325 6.95875,6.38375 -22.55,25.5575 6.6125,3.43875 c 3.08375,1.59375 4.985,4.82875 5.90875,8.17125 l 12.1075,43.87 c 0.79375,2.87375 1.43375,5.52875 0.6325,8.36125 -1.2225,4.3225 -2.38625,8.16625 -3.27375,11.35 7.86875,2.67875 12.14375,4.84 19.2375,8.675 l -3.57625,8.75125 c -5.75,-3.24625 -12.03,-6.06125 -18.34875,-8.39"
   style="fill:#000000;fill-opacity:1;fill-rule:evenodd;stroke:none"
   id="path13222" /></svg>