<?xml version="1.0" encoding="UTF-8" standalone="no"?>
<svg
   xmlns:dc="http://purl.org/dc/elements/1.1/"
   xmlns:cc="http://creativecommons.org/ns#"
   xmlns:rdf="http://www.w3.org/1999/02/22-rdf-syntax-ns#"
   xmlns:svg="http://www.w3.org/2000/svg"
   xmlns="http://www.w3.org/2000/svg"
   xmlns:sodipodi="http://sodipodi.sourceforge.net/DTD/sodipodi-0.dtd"
   xmlns:inkscape="http://www.inkscape.org/namespaces/inkscape"
   width="90"
   height="90"
   viewBox="0 0 254.00001 253.99999"
   version="1.1"
   id="svg2"
   inkscape:version="0.48.2 r9819"
   sodipodi:docname="AJAX1.svg">
  <metadata
     id="metadata62">
    <rdf:RDF>
      <cc:Work
         rdf:about="">
        <dc:format>image/svg+xml</dc:format>
        <dc:type
           rdf:resource="http://purl.org/dc/dcmitype/StillImage" />
      </cc:Work>
    </rdf:RDF>
  </metadata>
  <defs
     id="defs60" />
  <sodipodi:namedview
     pagecolor="#ffffff"
     bordercolor="#666666"
     borderopacity="1"
     objecttolerance="10"
     gridtolerance="10"
     guidetolerance="10"
     inkscape:pageopacity="0"
     inkscape:pageshadow="2"
     inkscape:window-width="1280"
     inkscape:window-height="1004"
     id="namedview58"
     showgrid="false"
     fit-margin-top="0"
     fit-margin-left="0"
     fit-margin-right="0"
     fit-margin-bottom="0"
     inkscape:zoom="6.6107689"
     inkscape:cx="12.531659"
     inkscape:cy="50.892933"
     inkscape:window-x="-8"
     inkscape:window-y="-8"
     inkscape:window-maximized="1"
     inkscape:current-layer="svg2" />
  <!-- draw the bicycle -->
  <!-- RIGHT -->
  <!-- LANE -->
  <!-- ONLY -->
  <path
     inkscape:connector-curvature="0"
     d="M 250.36728,118.18584 135.80975,3.63539 c -4.84364,-4.8472 -12.77409,-4.8472 -17.62478,0 L 3.638025,118.18584 c -4.8507,4.84717 -4.8507,12.77761 0,17.62831 L 118.18497,250.36463 c 4.85069,4.84716 12.78114,4.84716 17.62478,0 L 250.36728,135.81415 c 4.84364,-4.8507 4.84364,-12.78114 0,-17.62831"
     style="fill:#ffd033;fill-opacity:1;fill-rule:nonzero;stroke:none"
     id="path3533" />
  <path
     inkscape:connector-curvature="0"
     d="M 247.60432,120.0097 133.99224,6.39759 c -3.84528,-3.8453 -10.13531,-3.8453 -13.98765,0 L 6.399565,120.0097 c -3.84528,3.84528 -3.84528,10.13531 0,13.98059 L 120.00459,247.60238 c 3.85234,3.84528 10.14237,3.84528 13.98765,0 L 247.60432,133.99029 c 3.84528,-3.84528 3.84528,-10.13531 0,-13.98059"
     style="fill:#000000;fill-opacity:1;fill-rule:evenodd;stroke:none"
     id="path3549" />
  <path
     inkscape:connector-curvature="0"
     d="M 244.05609,123.50573 130.49338,9.95009 c -1.91558,-1.9226 -5.06589,-1.9226 -6.98852,0 L 9.949215,123.50573 c -1.92264,1.92264 -1.92264,5.06589 0,6.98853 L 123.50486,244.0499 c 1.92264,1.92264 5.07294,1.92264 6.98853,0 l 113.5627,-113.55564 c 1.91558,-1.92264 1.91558,-5.06589 0,-6.98853"
     style="fill:#ffd033;fill-opacity:1;fill-rule:evenodd;stroke:none"
     id="path3553" />
  <path
     inkscape:connector-curvature="0"
     d="m 111.93657,197.90657 c 2.54352,1.16769 3.33375,3.09739 3.33375,5.65855 l 0.007,13.09159 24.80734,-0.0246 c 0.10936,-4.22275 0.0388,-8.94645 0.0388,-13.16567 0,-12.65767 -8.59014,-24.5745 -20.32353,-29.2982 -2.00025,-1.07597 -3.22086,-3.17147 -3.22086,-5.41161 0,-2.6035 1.66159,-4.96358 4.09575,-5.842 10.49867,-4.54378 21.58648,-6.36058 31.17145,-14.29456 6.7698,-5.60564 10.46339,-14.48152 10.46339,-23.368 0,-17.15558 -14.20636,-30.607 -31.15734,-31.1538 -3.41136,-0.10584 -6.22653,-2.82223 -6.22653,-6.25123 l 0.007,-9.14047 13.73011,4.09575 c 1.90147,0.5327 3.30906,0.75142 4.76956,-0.24341 2.0955,-1.42523 2.64583,-4.29684 1.21708,-6.39234 L 112.47973,28.60509 80.257015,76.16657 c -1.42875,2.0955 -0.87489,4.96711 1.21708,6.39234 1.40053,0.9525 2.84692,0.77963 4.57553,0.34219 l 13.959415,-4.19453 -0.007,9.14753 c 0,17.38489 14.22048,31.16792 31.15028,31.16792 3.43253,0 6.23711,2.80105 6.23711,6.23005 0,2.33892 -1.27352,4.65314 -3.41136,5.55273 -7.10494,2.9845 -14.40039,5.51038 -21.51239,8.50194 -12.44247,5.24228 -20.806825,16.30892 -20.806825,29.44989 0,11.92742 9.440325,24.16175 20.277665,29.15003"
     style="fill:#000000;fill-opacity:1;fill-rule:evenodd;stroke:none"
     id="path3557" />
</svg>
