<?xml version="1.0" encoding="UTF-8" standalone="no"?>
<svg
   xmlns:dc="http://purl.org/dc/elements/1.1/"
   xmlns:cc="http://creativecommons.org/ns#"
   xmlns:rdf="http://www.w3.org/1999/02/22-rdf-syntax-ns#"
   xmlns:svg="http://www.w3.org/2000/svg"
   xmlns="http://www.w3.org/2000/svg"
   xmlns:sodipodi="http://sodipodi.sourceforge.net/DTD/sodipodi-0.dtd"
   xmlns:inkscape="http://www.inkscape.org/namespaces/inkscape"
   width="48.096382"
   height="36.071072"
   viewBox="0 0 135.7387 101.80058"
   version="1.1"
   id="svg2"
   inkscape:version="0.48.2 r9819"
   sodipodi:docname="MUTCD W7-2bP.svg">
  <metadata
     id="metadata62">
    <rdf:RDF>
      <cc:Work
         rdf:about="">
        <dc:format>image/svg+xml</dc:format>
        <dc:type
           rdf:resource="http://purl.org/dc/dcmitype/StillImage" />
        <dc:title></dc:title>
      </cc:Work>
    </rdf:RDF>
  </metadata>
  <defs
     id="defs60" />
  <sodipodi:namedview
     pagecolor="#ffffff"
     bordercolor="#666666"
     borderopacity="1"
     objecttolerance="10"
     gridtolerance="10"
     guidetolerance="10"
     inkscape:pageopacity="0"
     inkscape:pageshadow="2"
     inkscape:window-width="1280"
     inkscape:window-height="1004"
     id="namedview58"
     showgrid="false"
     fit-margin-top="0"
     fit-margin-left="0"
     fit-margin-right="0"
     fit-margin-bottom="0"
     inkscape:zoom="11.313709"
     inkscape:cx="33.343692"
     inkscape:cy="4.4113444"
     inkscape:window-x="-8"
     inkscape:window-y="-8"
     inkscape:window-maximized="1"
     inkscape:current-layer="svg2" />
  <!-- draw the bicycle -->
  <!-- RIGHT -->
  <!-- LANE -->
  <!-- ONLY -->
  <path
     inkscape:connector-curvature="0"
     d="m 11.6317,0.00588956 112.7937,0 0.4903,0 0.014,0.011 c 5.842,0.2575 10.5551,4.98120004 10.795,10.82320044 l 0.014,0.011 0,0.4657 0,79.1739 0,0.1023 0,0 c -0.056,5.7185 -4.3885,10.4493 -9.9483,11.1266 l -0.071,0.081 -1.2947,0 -113.1112,0 -0.2892,0 0,0 C 5.1011,101.64879 0.2822,96.90039 0.014,91.00549 L 0,90.99149 l 0,-0.5045 0,-78.6377 0.014,-0.01 C 0.004,11.66289 0,11.48649 0,11.31009 0,5.0799896 5.0871,-1.0444252e-5 11.3136,-1.0444252e-5 c 0.1059,0 0.2082,0 0.3105,0 l 0.01,0 z"
     style="fill:#ffd033;fill-opacity:1;fill-rule:nonzero;stroke:none"
     id="path3264" />
  <path
     inkscape:connector-curvature="0"
     d="m 12.4466,2.2657896 110.8499,0 c 5.6021,0 10.1741,4.572 10.1741,10.1812004 l 0,76.9126 c 0,5.6092 -4.572,10.1812 -10.1741,10.1812 l -110.8499,0 c -5.6021,0 -10.1776,-4.572 -10.1776,-10.1812 l 0,-76.9126 C 2.269,6.8377896 6.8445,2.2657896 12.4466,2.2657896"
     style="fill:#000000;fill-opacity:1;fill-rule:evenodd;stroke:none"
     id="path3272" />
  <path
     inkscape:connector-curvature="0"
     d="m 12.5419,5.6280896 110.6488,0 c 3.8311,0 6.9462,3.1186 6.9462,6.9427004 l 0,76.7045 c 0,3.8241 -3.1151,6.9427 -6.9462,6.9427 l -110.6488,0 c -3.8241,0 -6.9392,-3.1186 -6.9392,-6.9427 l 0,-76.7045 c 0,-3.8241004 3.1151,-6.9427004 6.9392,-6.9427004"
     style="fill:#ffd033;fill-opacity:1;fill-rule:evenodd;stroke:none"
     id="path3276" />
  <path
     inkscape:connector-curvature="0"
     d="m 115.1223,79.28429 0,-3.6477 -10.4669,0 0,-6.1878 6.5828,0 0,-3.6477 -6.5828,0 0,-5.5527 9.7578,0 0,-3.5701 -13.3244,0 0,22.606 14.0335,0 z m -22.599,-11.3454 c 0,3.0163 -0.7161,5.4752 -2.0672,6.8263 -0.635,0.6315 -1.3512,0.8714 -2.5436,0.8714 l -3.5595,0 0,-15.3882 4.0428,0 c 0.9525,0 1.7428,0.3951 2.3001,0.949 1.1113,1.1924 1.8274,3.7288 1.8274,6.7415 m 3.6442,0 c 0,-4.4414 -1.3441,-8.0115 -3.7253,-10.0718 -1.1924,-0.956 -2.0602,-1.1888 -4.3639,-1.1888 l -7.3025,0 0,22.606 6.9039,0 1.2665,0 c 1.1924,-0.078 2.3847,-0.4763 3.2596,-1.27 2.5365,-1.9826 3.9617,-5.5492 3.9617,-10.0754 m -26.0914,1.3512 -4.5297,0 2.3037,-6.3465 2.226,6.3465 z m 7.2954,9.9942 -7.7787,-22.606 -3.5701,0 -7.7717,22.606 3.8029,0 2.226,-6.3465 7.0627,0 2.2189,6.3465 3.81,0 z M 52.4584,63.02479 c 0,0.9489 -0.5539,1.9014 -1.4288,2.3777 -0.5574,0.3175 -0.949,0.3986 -2.0602,0.3986 l -4.2792,0 0,-5.5527 4.2792,0 c 1.1924,0 1.5028,0.078 2.0602,0.3951 0.8749,0.4763 1.4288,1.4288 1.4288,2.3813 m 4.0498,16.2595 -3.9687,-10.5481 c 2.0602,-0.956 3.4925,-3.3337 3.4925,-5.7114 0,-2.3037 -1.4323,-4.6849 -3.4184,-5.6339 -1.1077,-0.5539 -2.2931,-0.7126 -4.0429,-0.7126 l -7.4541,0 0,22.606 3.5736,0 0,-9.8355 4.2792,0 3.6442,9.8355 3.8946,0 z m -20.3129,-6.7416 0,-4.5191 -7.6906,0 0,3.5631 4.1205,0 0,0.956 c 0,2.0637 -1.6651,3.489 -3.9617,3.489 -1.3476,0 -2.3813,-0.5539 -3.0939,-1.8239 -0.7161,-1.4287 -1.1077,-3.8065 -1.1077,-6.1842 0,-1.905 0.3175,-3.9687 0.8678,-5.3199 0.7938,-1.9826 1.9862,-2.7763 3.803,-2.7763 1.7498,0 2.7023,0.7161 3.6512,2.6987 l 3.4114,-1.3476 c -1.5099,-3.5701 -3.5701,-4.9989 -7.0626,-4.9989 -2.5294,0 -4.438,0.8749 -5.7856,2.5365 -1.5028,1.9862 -2.5364,5.5563 -2.5364,9.2075 0,2.7728 0.5573,5.5492 1.5028,7.5318 1.3476,2.8575 3.3337,4.1381 6.7451,4.1381 4.1275,0 7.1367,-3.0268 7.1367,-7.1508"
     style="fill:#000000;fill-opacity:1;fill-rule:evenodd;stroke:none"
     id="path3280" />
  <path
     inkscape:connector-curvature="0"
     d="m 55.1927,29.37189 c 0,1.8274 -1.8274,3.2526 -4.1275,3.2526 -2.2189,0 -4.0428,-1.4252 -4.0428,-3.2526 0,-1.8274 1.8239,-3.2526 4.0428,-3.2526 2.2261,0 4.1275,1.5063 4.1275,3.2526 m 3.5701,0.3175 c 0,-4.124 -3.3372,-7.2179 -7.6976,-7.2179 -4.2792,0 -7.6905,3.0128 -7.6905,6.9004 0,3.8064 3.4889,6.9003 7.6905,6.9003 0.8749,0 1.4252,-0.078 2.6952,-0.3175 -1.344,2.9351 -2.7763,4.7625 -5.4645,6.9039 l 1.7427,3.0268 c 5.2282,-3.5807 8.7242,-10.0048 8.7242,-16.196"
     style="fill:#000000;fill-opacity:1;fill-rule:evenodd;stroke:none"
     id="path3284" />
  <path
     inkscape:connector-curvature="0"
     style="fill:#000000;fill-opacity:1;fill-rule:evenodd;stroke:none"
     d="m 70.2913,22.47789 c -1.5699,0 -2.6282,0.4515 -3.4396,1.4993 -0.9031,1.2841 -1.4993,3.3161 -1.4993,5.5562 0,1.6158 0.3986,3.4431 0.9701,4.5861 0.8079,1.6652 1.9721,2.3813 3.8806,2.3813 1.4252,0 2.5012,-0.4516 3.2632,-1.4993 0.9525,-1.1889 1.4993,-3.3267 1.4993,-5.4681 0,-1.7145 -0.3105,-3.3937 -0.882,-4.5861 -0.8572,-1.6616 -2.0778,-2.4694 -3.7923,-2.4694 z m 0,2.9104 c 0.6879,0.039 1.1359,0.2752 1.4993,0.8819 0.441,0.7726 0.6173,1.9685 0.6173,3.2632 0,0.8926 -0.2009,2.0391 -0.4409,2.6459 -0.4092,1.0124 -0.9102,1.4111 -1.7639,1.4111 -0.7303,0 -1.2242,-0.2752 -1.5875,-0.882 -0.448,-0.7302 -0.7056,-1.9579 -0.7056,-3.175 0,-0.9701 0.1519,-2.0425 0.441,-2.734 0.3986,-1.0125 1.0513,-1.4534 1.9403,-1.4111 z"
     id="path3288" />
  <path
     inkscape:connector-curvature="0"
     d="m 87.3202,22.83979 -3.2526,0 -13.0634,22.6484 3.2526,0 13.0634,-22.6484 z"
     style="fill:#000000;fill-opacity:1;fill-rule:evenodd;stroke:none"
     id="path3292" />
  <path
     inkscape:connector-curvature="0"
     style="fill:#000000;fill-opacity:1;fill-rule:evenodd;stroke:none"
     d="m 87.5774,31.82649 c -1.5734,0 -2.6247,0.5433 -3.4396,1.5875 -0.9031,1.2876 -1.4993,3.2279 -1.4993,5.468 0,1.6158 0.3986,3.4432 0.9701,4.5862 0.8114,1.6651 1.9721,2.4694 3.8806,2.4694 1.4252,0 2.4977,-0.5397 3.2632,-1.5875 0.949,-1.1889 1.4993,-3.3267 1.4993,-5.4681 0,-1.7145 -0.3104,-3.3972 -0.8819,-4.5861 -0.8538,-1.6651 -2.0779,-2.4694 -3.7924,-2.4694 z m -0.088,2.9104 c 0.688,0.039 1.1395,0.2752 1.4993,0.882 0.4481,0.7725 0.7056,1.9685 0.7056,3.2631 0,0.8926 -0.2009,2.0391 -0.441,2.6459 -0.4057,1.0125 -0.9101,1.4993 -1.7639,1.4993 -0.7302,0 -1.2241,-0.3634 -1.5875,-0.9702 -0.448,-0.7302 -0.7055,-1.9579 -0.7055,-3.175 0,-0.9701 0.1586,-2.0425 0.441,-2.734 0.3986,-1.016 0.963,-1.4534 1.852,-1.4111 z"
     id="path3300" />
</svg>
