<?xml version="1.0" encoding="UTF-8" standalone="no"?>
<svg
   xmlns:dc="http://purl.org/dc/elements/1.1/"
   xmlns:cc="http://creativecommons.org/ns#"
   xmlns:rdf="http://www.w3.org/1999/02/22-rdf-syntax-ns#"
   xmlns:svg="http://www.w3.org/2000/svg"
   xmlns="http://www.w3.org/2000/svg"
   xmlns:sodipodi="http://sodipodi.sourceforge.net/DTD/sodipodi-0.dtd"
   xmlns:inkscape="http://www.inkscape.org/namespaces/inkscape"
   width="48.096844"
   height="36.070187"
   viewBox="0 0 135.74 101.79808"
   version="1.1"
   id="svg2"
   inkscape:version="0.48.2 r9819"
   sodipodi:docname="MUTCD W7-3aP.svg">
  <metadata
     id="metadata62">
    <rdf:RDF>
      <cc:Work
         rdf:about="">
        <dc:format>image/svg+xml</dc:format>
        <dc:type
           rdf:resource="http://purl.org/dc/dcmitype/StillImage" />
        <dc:title></dc:title>
      </cc:Work>
    </rdf:RDF>
  </metadata>
  <defs
     id="defs60" />
  <sodipodi:namedview
     pagecolor="#ffffff"
     bordercolor="#666666"
     borderopacity="1"
     objecttolerance="10"
     gridtolerance="10"
     guidetolerance="10"
     inkscape:pageopacity="0"
     inkscape:pageshadow="2"
     inkscape:window-width="1280"
     inkscape:window-height="1004"
     id="namedview58"
     showgrid="false"
     fit-margin-top="0"
     fit-margin-left="0"
     fit-margin-right="0"
     fit-margin-bottom="0"
     inkscape:zoom="12.265625"
     inkscape:cx="32.570423"
     inkscape:cy="19.797241"
     inkscape:window-x="-8"
     inkscape:window-y="-8"
     inkscape:window-maximized="1"
     inkscape:current-layer="svg2" />
  <!-- draw the bicycle -->
  <!-- RIGHT -->
  <!-- LANE -->
  <!-- ONLY -->
  <path
     inkscape:connector-curvature="0"
     d="m 11.6329,0.00319182 112.7937,0 0.4868,0 0.014,0.011 c 5.8385,0.2575 10.5552,4.97769998 10.7986,10.82320018 l 0.014,0.011 0,0.4657 0,79.1774 0,0.099 -0.01,0 c -0.049,5.7221 -4.3815,10.452798 -9.9448,11.126598 l -0.074,0.081 -1.2877,0 -113.1111,0 -0.2893,0 -0.01,0 C 5.097,101.64279 0.2781,96.897892 0.01,91.002992 l -0.01,-0.014 0,-0.501 0,-78.6377 0.01,-0.011 C 0.01,11.662892 0,11.486492 0,11.310092 0,5.0799918 5.08,-8.1753328e-6 11.3065,-8.1753328e-6 c 0.1059,0 0.2082,0 0.3105,0 l 0.01,0 z"
     style="fill:#ffd033;fill-opacity:1;fill-rule:nonzero;stroke:none"
     id="path3452" />
  <path
     inkscape:connector-curvature="0"
     d="m 12.4479,2.2666918 110.8463,0 c 5.6021,0 10.1776,4.572 10.1776,10.1776002 l 0,76.9197 c 0,5.6021 -4.5755,10.1776 -10.1776,10.1776 l -110.8463,0 c -5.6092,0 -10.1777,-4.5755 -10.1777,-10.1776 l 0,-76.9197 c 0,-5.6056002 4.5685,-10.1776002 10.1777,-10.1776002"
     style="fill:#000000;fill-opacity:1;fill-rule:evenodd;stroke:none"
     id="path3476" />
  <path
     inkscape:connector-curvature="0"
     d="m 12.5431,5.6254918 110.6559,0 c 3.817,0 6.9391,3.1185 6.9391,6.9426002 l 0,76.7045 c 0,3.8241 -3.1221,6.9427 -6.9391,6.9427 l -110.6559,0 c -3.8241,0 -6.9391,-3.1186 -6.9391,-6.9427 l 0,-76.7045 c 0,-3.8241002 3.115,-6.9426002 6.9391,-6.9426002"
     style="fill:#ffd033;fill-opacity:1;fill-rule:evenodd;stroke:none"
     id="path3480" />
  <path
     inkscape:connector-curvature="0"
     d="m 121.3715,39.594092 0,-2.3812 -6.1842,0 0,-5.5916 3.5067,0 0,-2.3177 -3.5067,0 0,-4.2863 5.5245,0 0,-2.3812 -7.9727,0 0,16.958 8.6324,0 z m -14.3439,-8.3891 c 0,1.3089 -0.1164,2.4977 -0.2399,3.5702 -0.2364,1.3088 -1.0054,2.4377 -2.4412,2.4377 l -2.0179,0 0,-12.1956 2.0179,0 c 1.076,0 1.785,0.5362 2.2048,1.7286 0.2964,0.7126 0.4763,2.5577 0.4763,4.4591 m 2.3848,-0.1199 c 0,-1.3088 -0.1799,-2.794 -0.4198,-4.0464 -0.3034,-1.725 -1.0125,-3.0338 -2.0215,-3.7465 -0.5961,-0.4762 -1.3088,-0.6561 -2.741,-0.6561 l -4.3392,0 0,16.958 4.699,0 c 0.949,0 1.7851,-0.2364 2.3812,-0.7726 1.6616,-1.3088 2.4413,-3.81 2.4413,-7.7364 m -16.0691,1.4887 -2.4447,0 1.1994,-4.8789 1.2453,4.8789 z m 4.2228,7.0203 -4.2228,-16.958 -2.3777,0 -4.2298,16.958 2.4412,0 1.136,-4.639 3.6301,0 1.1853,4.639 2.4377,0 z m -14.6967,-12.4354 c 0,1.3652 -0.7691,2.1449 -2.2049,2.1449 l -2.4941,0 0,-4.2863 2.4941,0 c 1.3123,0 2.2049,0.8326 2.2049,2.1414 m 2.3777,12.4354 -2.4307,-8.3291 c 1.6052,-0.5962 2.4307,-2.0849 2.4307,-4.1063 0,-2.7376 -1.7851,-4.5226 -4.4556,-4.5226 l -5.0588,0 0,16.958 2.4377,0 0,-7.9728 2.3177,0 2.2648,7.9728 2.4942,0 z m -12.8411,-4.699 0,-3.5101 -4.3498,0 0,2.3812 1.9015,0 0,1.1289 c 0,1.7815 -0.5927,2.6176 -1.845,2.6176 -1.3088,0 -2.1379,-0.896 -2.4942,-2.5576 -0.2434,-1.3124 -0.3598,-2.7976 -0.3598,-4.2298 0,-2.0179 0.2963,-3.9229 0.7796,-4.7555 0.4128,-0.8361 1.069,-1.2523 1.9015,-1.2523 1.1924,0 1.965,0.7761 2.0179,1.905 l 2.4483,0 c -0.127,-2.4977 -1.965,-4.2863 -4.4097,-4.2863 -1.958,0 -3.6866,1.3088 -4.2792,3.0974 -0.5927,1.6051 -0.7797,3.3338 -0.7797,5.715 0,2.1978 0.3598,4.5755 0.8961,5.8279 0.8325,1.905 2.3213,2.928 4.3391,2.928 1.7322,0 3.0939,-0.9066 3.7501,-2.3918 0.3563,-0.7126 0.4833,-1.4287 0.4833,-2.6176"
     style="fill:#000000;fill-opacity:1;fill-rule:evenodd;stroke:none"
     id="path3484" />
  <path
     inkscape:connector-curvature="0"
     d="m 104.4911,74.531092 c 0,-2.4412 -1.4252,-4.2863 -4.699,-6.1913 -1.2523,-0.7126 -1.6051,-1.1888 -1.6051,-2.0214 0,-1.1324 0.889,-1.965 2.0179,-1.965 1.0759,0 1.905,0.7761 1.9649,1.965 l 2.3213,0 c -0.06,-2.5576 -1.9085,-4.4027 -4.2862,-4.4027 -2.4377,0 -4.3463,1.9615 -4.3463,4.4027 0,1.4887 0.7162,2.7975 2.0885,3.7465 3.4502,2.3213 2.4941,1.6686 2.8575,2.025 1.0089,0.7725 1.3652,1.4851 1.3652,2.4412 0,1.3688 -1.0689,2.5576 -2.3777,2.5576 -1.6651,0 -2.3777,-1.4852 -2.3777,-2.9175 l -2.3813,0 c 0,2.7976 1.7851,5.3058 4.759,5.3058 2.6141,0 4.699,-2.2119 4.699,-4.9459 m -11.4864,4.639 0,-2.3777 -6.1842,0 0,-5.5915 3.5136,0 0,-2.3249 -3.5136,0 0,-4.2827 5.5315,0 0,-2.3777 -7.9727,0 0,16.9545 8.6254,0 z m -10.9397,0 0,-2.2578 -6.1877,0 0,-14.6967 -2.4447,0 0,16.9545 8.6324,0 z m -12.319,-16.9545 -2.3777,0 0,16.958 2.3777,0 0,-16.958 z m -6.0713,16.9545 0,-16.9545 -2.4377,0 -3.1503,9.5179 -3.1538,-9.5179 -2.4412,0 0,16.9545 2.4412,0 0,-9.5179 3.1538,9.5179 3.1503,-9.5179 0,9.5179 2.4377,0 z m -22.9658,-14.5768 0,-2.3777 -9.458,0 0,2.3777 6.3641,0 c -1.6651,2.6776 -2.5611,4.7026 -3.2702,7.4366 -0.5927,2.2613 -1.016,5.0588 -1.016,6.7839 l 0,0.3563 2.3848,0 c 0.1164,-3.0939 0.4762,-5.3516 1.3652,-7.9692 0.949,-2.7447 2.1414,-4.8825 3.6301,-6.6076"
     style="fill:#000000;fill-opacity:1;fill-rule:evenodd;stroke:none"
     id="path3488" />
  <path
     inkscape:connector-curvature="0"
     d="m 19.4329,24.728792 c -1.4887,0 -2.3848,1.1324 -2.3848,2.9174 0,1.8451 0.8961,2.9739 2.3848,2.9739 1.4181,0 2.3777,-1.0724 2.3777,-2.7375 0,-1.905 -0.9596,-3.1538 -2.3777,-3.1538 m -1.1289,14.8766 -1.3723,-1.905 c 1.4252,-1.0689 2.9774,-3.1574 3.5701,-4.759 -0.4128,0.06 -0.7091,0.06 -1.0689,0.06 -2.914,0 -4.7625,-2.0814 -4.7625,-5.3552 0,-3.2138 1.8485,-5.2952 4.7625,-5.2952 3.0938,0 4.699,2.0814 4.699,6.0678 0,4.1628 -2.1414,8.2726 -5.8279,11.1866"
     style="fill:#000000;fill-opacity:1;fill-rule:nonzero;stroke:none"
     id="path3492" />
  <path
     inkscape:connector-curvature="0"
     style="fill:#000000;fill-opacity:1;fill-rule:evenodd;stroke:none"
     d="m 32.5417,22.327392 c -1.1782,0 -1.8485,0.5503 -2.3812,1.7639 -0.4269,0.9631 -0.6174,1.9896 -0.6174,3.5277 0,1.5699 0.1905,2.5259 0.6174,3.5278 0.5045,1.2136 1.1677,1.7639 2.3812,1.7639 1.143,0 1.9615,-0.5503 2.4695,-1.7639 0.4198,-0.9666 0.5292,-1.9579 0.5292,-3.5278 0,-1.5381 -0.1096,-2.5294 -0.5292,-3.5277 -0.508,-1.2489 -1.2912,-1.7639 -2.4695,-1.7639 z m -0.3527,2.2048 c 0.1066,-0.041 0.2212,0 0.3527,0 0.4869,0 0.8573,0.247 1.0584,0.9702 0.18,0.6068 0.2644,1.1888 0.2644,2.1166 0,0.9561 -0.06,1.4535 -0.2644,2.1167 -0.201,0.695 -0.5715,0.9702 -1.0584,0.9702 -0.5256,0 -0.7725,-0.2752 -0.9701,-0.9702 -0.1727,-0.6632 -0.2644,-1.2206 -0.2644,-2.1167 0,-0.9242 0.056,-1.4781 0.2644,-2.1166 0.1482,-0.5186 0.297,-0.8484 0.6174,-0.9702 z"
     id="path3496" />
  <path
     inkscape:connector-curvature="0"
     d="m 45.0304,22.578892 -2.2048,0 -9.8037,17.0251 2.2119,0 9.7966,-17.0251 z"
     style="fill:#000000;fill-opacity:1;fill-rule:evenodd;stroke:none"
     id="path3500" />
  <path
     inkscape:connector-curvature="0"
     style="fill:#000000;fill-opacity:1;fill-rule:evenodd;stroke:none"
     d="m 45.4181,29.382892 c -1.1782,0 -1.845,0.4622 -2.3812,1.6757 -0.4304,0.9631 -0.6174,1.9897 -0.6174,3.5278 0,1.5699 0.1868,2.5294 0.6174,3.5278 0.5009,1.2135 1.1677,1.7639 2.3812,1.7639 1.143,0 1.965,-0.5504 2.4695,-1.7639 0.4268,-0.9666 0.5291,-1.9579 0.5291,-3.5278 0,-1.5381 -0.1021,-2.4377 -0.5291,-3.4396 -0.5045,-1.2488 -1.2912,-1.7639 -2.4695,-1.7639 z m 0,2.1167 c 0.4974,0 0.8573,0.3387 1.0584,1.0583 0.1727,0.6103 0.2644,1.1042 0.2644,2.0285 0,0.956 -0.063,1.4499 -0.2644,2.1167 -0.201,0.6949 -0.561,1.0583 -1.0584,1.0583 -0.5221,0 -0.769,-0.3634 -0.9701,-1.0583 -0.1727,-0.6668 -0.2645,-1.1324 -0.2645,-2.0285 0,-0.9243 0.063,-1.4781 0.2645,-2.1167 0.2009,-0.6914 0.448,-1.0583 0.9701,-1.0583 z"
     id="path3508" />
</svg>
