<?xml version="1.0" encoding="UTF-8" standalone="no"?>
<svg
   xmlns:dc="http://purl.org/dc/elements/1.1/"
   xmlns:cc="http://creativecommons.org/ns#"
   xmlns:rdf="http://www.w3.org/1999/02/22-rdf-syntax-ns#"
   xmlns:svg="http://www.w3.org/2000/svg"
   xmlns="http://www.w3.org/2000/svg"
   viewBox="0 0 553.64227 545.00775"
   height="545.00775"
   width="553.64227"
   xml:space="preserve"
   id="svg19731"
   version="1.1"><metadata
     id="metadata19737"><rdf:RDF><cc:Work
         rdf:about=""><dc:format>image/svg+xml</dc:format><dc:type
           rdf:resource="http://purl.org/dc/dcmitype/StillImage" /><dc:title></dc:title></cc:Work></rdf:RDF></metadata><defs
     id="defs19735" /><g
     transform="matrix(1.3333333,0,0,1.3333333,0,1.1625194e-5)"
     id="g19739"><g
       id="g19741"><path
         id="path19743"
         style="fill:#ffffff;fill-opacity:1;fill-rule:nonzero;stroke:none"
         d="m 216.375,0.375 h 198.48 v 408.004 h -198.48 z" /><g
         id="g19745"><path
           id="path19747"
           style="fill:none;stroke:#000000;stroke-width:0.375;stroke-linecap:butt;stroke-linejoin:miter;stroke-miterlimit:3.86400008;stroke-dasharray:none;stroke-opacity:1"
           d="M 216.188,0.188 H 415.043 V 408.567 H 216.188 Z" /></g><path
         id="path19749"
         style="fill:#ffffff;fill-opacity:1;fill-rule:nonzero;stroke:none"
         d="m 0.375,0.375 h 198.48 V 408.379 H 0.375 Z" /><g
         id="g19751"><path
           id="path19753"
           style="fill:none;stroke:#000000;stroke-width:0.375;stroke-linecap:butt;stroke-linejoin:miter;stroke-miterlimit:3.86400008;stroke-dasharray:none;stroke-opacity:1"
           d="M 0.188,0.188 H 199.043 V 408.567 H 0.188 Z" /></g><path
         id="path19755"
         style="fill:#eb681c;fill-opacity:1;fill-rule:nonzero;stroke:none"
         d="m 35.203,299.887 h -5.508 v -24.93 h -5.097 v -4.32 h 10.605 z" /><path
         id="path19757"
         style="fill:#000002;fill-opacity:1;fill-rule:nonzero;stroke:none"
         d="m 58.145,290.547 v -12.258 l -7.801,12.258 z m 5.043,9.348 h -5.043 v -4.461 H 45.254 v -4.887 L 57.941,270.52 h 5.247 v 20.027 h 2.484 v 4.887 h -2.484 z" /><path
         id="path19759"
         style="fill:#000002;fill-opacity:1;fill-rule:evenodd;stroke:none"
         d="M 14.594,335.555 H 184.637 V 393.86 H 14.594 Z" /><path
         id="path19761"
         style="fill:#ffffff;fill-opacity:1;fill-rule:nonzero;stroke:none"
         d="m 35.574,348.281 -3.91,11.953 h -1.512 l -3.957,-11.953 h 1.907 l 2.796,9.157 2.762,-9.157 z m 1.758,8.305 c 0,0.094 -0.008,0.172 -0.008,0.227 0,0.468 0.164,0.878 0.481,1.218 0.39,0.414 0.902,0.61 1.55,0.61 0.715,0 1.317,-0.274 1.797,-0.821 l 1.309,1.106 c -0.238,0.277 -0.484,0.5 -0.731,0.676 -0.726,0.488 -1.527,0.734 -2.398,0.734 -0.91,0 -1.707,-0.27 -2.398,-0.816 -0.883,-0.704 -1.329,-1.684 -1.329,-2.934 v -1.512 c 0,-0.746 0.223,-1.41 0.649,-2.011 0.332,-0.442 0.746,-0.801 1.219,-1.051 0.523,-0.285 1.078,-0.422 1.679,-0.422 0.856,0 1.621,0.277 2.278,0.832 0.816,0.695 1.226,1.644 1.226,2.863 v 1.301 z m 3.625,-1.512 c -0.016,-0.293 -0.062,-0.539 -0.152,-0.746 -0.157,-0.316 -0.379,-0.578 -0.688,-0.773 -0.301,-0.192 -0.625,-0.293 -0.98,-0.293 -0.309,0 -0.61,0.078 -0.887,0.238 -0.285,0.156 -0.508,0.371 -0.656,0.641 -0.153,0.234 -0.239,0.55 -0.27,0.933 z m 4.969,-3.379 v 0.934 c 0.609,-0.691 1.355,-1.039 2.238,-1.039 0.691,0 1.301,0.215 1.82,0.64 l -1.195,1.489 c -0.371,-0.293 -0.742,-0.434 -1.121,-0.434 -0.5,0 -0.918,0.164 -1.242,0.504 -0.34,0.336 -0.5,0.762 -0.5,1.277 v 5.168 h -1.711 v -8.539 z m 6.82,6.063 v 2.476 h -1.707 v -11.953 h 1.707 v 7.434 l 3.309,-4.02 h 2.043 l -2.879,3.282 3.304,5.257 h -2.144 l -2.231,-3.964 z m 7.742,-1.172 c -0.008,0.094 -0.008,0.172 -0.008,0.227 0,0.468 0.157,0.878 0.481,1.218 0.383,0.414 0.902,0.61 1.555,0.61 0.711,0 1.304,-0.274 1.785,-0.821 l 1.308,1.106 c -0.23,0.277 -0.476,0.5 -0.722,0.676 -0.727,0.488 -1.528,0.734 -2.407,0.734 -0.91,0 -1.707,-0.27 -2.394,-0.816 -0.879,-0.704 -1.324,-1.684 -1.324,-2.934 v -1.512 c 0,-0.746 0.215,-1.41 0.648,-2.011 0.332,-0.442 0.738,-0.801 1.219,-1.051 0.516,-0.285 1.078,-0.422 1.672,-0.422 0.863,0 1.629,0.277 2.285,0.832 0.816,0.695 1.227,1.644 1.227,2.863 v 1.301 z m 3.617,-1.512 c -0.007,-0.293 -0.062,-0.539 -0.152,-0.746 -0.148,-0.316 -0.379,-0.578 -0.68,-0.773 -0.3,-0.192 -0.632,-0.293 -0.98,-0.293 -0.316,0 -0.617,0.078 -0.895,0.238 -0.277,0.156 -0.5,0.371 -0.656,0.641 -0.144,0.234 -0.23,0.55 -0.262,0.933 z m 4.969,-6.793 v 4.34 c 0.649,-0.691 1.403,-1.031 2.258,-1.031 0.965,0 1.738,0.398 2.324,1.203 0.371,0.508 0.555,1.117 0.555,1.828 v 5.613 h -1.719 v -5.175 c 0,-0.438 -0.101,-0.801 -0.301,-1.079 -0.355,-0.472 -0.812,-0.718 -1.398,-0.718 -0.293,0 -0.578,0.078 -0.855,0.238 -0.27,0.156 -0.485,0.371 -0.649,0.641 -0.144,0.218 -0.215,0.578 -0.215,1.043 v 5.05 h -1.707 v -11.953 z m 8.699,3.414 v 0.934 c 0.61,-0.691 1.36,-1.039 2.239,-1.039 0.687,0 1.297,0.215 1.82,0.64 l -1.195,1.489 c -0.371,-0.293 -0.742,-0.434 -1.121,-0.434 -0.5,0 -0.918,0.164 -1.246,0.504 -0.332,0.336 -0.497,0.762 -0.497,1.277 v 5.168 h -1.71 v -8.539 z m 11.278,0.989 -1.055,1.398 c -0.648,-0.527 -1.445,-0.789 -2.402,-0.789 -0.477,0 -0.824,0.086 -1.031,0.262 -0.215,0.179 -0.317,0.394 -0.317,0.64 0,0.532 0.41,0.797 1.227,0.84 0.711,0.024 1.242,0.055 1.582,0.11 0.34,0.054 0.625,0.14 0.871,0.269 0.371,0.215 0.672,0.481 0.894,0.824 0.285,0.418 0.43,0.891 0.43,1.399 0,0.554 -0.168,1.047 -0.492,1.496 -0.285,0.387 -0.68,0.68 -1.203,0.894 -0.532,0.215 -1.117,0.317 -1.797,0.317 -0.719,0 -1.418,-0.125 -2.09,-0.395 -0.664,-0.261 -1.227,-0.633 -1.676,-1.101 l 1.235,-1.211 c 0.664,0.672 1.503,1.011 2.515,1.011 0.571,0 1.012,-0.085 1.321,-0.265 0.308,-0.176 0.468,-0.43 0.468,-0.762 0,-0.301 -0.117,-0.523 -0.34,-0.648 -0.222,-0.133 -0.601,-0.207 -1.132,-0.207 -1.102,-0.016 -1.883,-0.157 -2.329,-0.426 -0.378,-0.231 -0.671,-0.531 -0.886,-0.91 -0.203,-0.371 -0.317,-0.785 -0.317,-1.211 0,-0.824 0.328,-1.496 0.993,-2.028 0.503,-0.402 1.226,-0.601 2.144,-0.601 1.281,0 2.414,0.363 3.387,1.094 m 3.41,5.933 h 4.242 v 1.617 h -6.394 v -1.402 l 4.265,-5.66 h -4.043 v -1.477 h 6.172 v 1.274 z m 7.25,-2.031 c 0,0.094 -0.008,0.172 -0.008,0.227 0,0.468 0.164,0.878 0.481,1.218 0.382,0.414 0.902,0.61 1.554,0.61 0.711,0 1.305,-0.274 1.793,-0.821 l 1.309,1.106 c -0.238,0.277 -0.485,0.5 -0.731,0.676 -0.726,0.488 -1.527,0.734 -2.394,0.734 -0.91,0 -1.719,-0.27 -2.406,-0.816 -0.879,-0.704 -1.325,-1.684 -1.325,-2.934 v -1.512 c 0,-0.746 0.223,-1.41 0.649,-2.011 0.332,-0.442 0.746,-0.801 1.219,-1.051 0.523,-0.285 1.078,-0.422 1.671,-0.422 0.864,0 1.629,0.277 2.286,0.832 0.816,0.695 1.226,1.644 1.226,2.863 v 1.301 z m 3.617,-1.512 c -0.008,-0.293 -0.062,-0.539 -0.152,-0.746 -0.149,-0.316 -0.371,-0.578 -0.68,-0.773 -0.301,-0.192 -0.625,-0.293 -0.98,-0.293 -0.317,0 -0.618,0.078 -0.895,0.238 -0.277,0.156 -0.5,0.371 -0.656,0.641 -0.145,0.234 -0.231,0.55 -0.262,0.933 z m 4.961,5.16 h -1.691 v -8.539 h 1.691 z m 0,-10.273 h -1.691 v -1.68 h 1.691 z m 6.988,7.898 1.332,1.067 c -0.246,0.316 -0.523,0.578 -0.832,0.777 -0.656,0.418 -1.379,0.633 -2.144,0.633 -0.68,0 -1.317,-0.168 -1.891,-0.508 -1.332,-0.765 -1.996,-2.031 -1.996,-3.781 0,-1.41 0.363,-2.492 1.102,-3.246 0.781,-0.805 1.722,-1.211 2.824,-1.211 1.133,0 2.105,0.453 2.937,1.371 l -1.332,1.098 c -0.433,-0.504 -0.98,-0.758 -1.636,-0.758 -0.723,0 -1.297,0.301 -1.743,0.887 -0.308,0.425 -0.457,1.027 -0.457,1.796 0,0.805 0.188,1.438 0.575,1.891 0.437,0.523 0.984,0.773 1.656,0.773 0.601,0 1.141,-0.257 1.605,-0.789 m 4.336,-9.578 v 4.34 c 0.653,-0.691 1.403,-1.031 2.258,-1.031 0.973,0 1.742,0.398 2.328,1.203 0.371,0.508 0.551,1.117 0.551,1.828 v 5.613 h -1.715 v -5.175 c 0,-0.438 -0.105,-0.801 -0.308,-1.079 -0.348,-0.472 -0.809,-0.718 -1.395,-0.718 -0.293,0 -0.578,0.078 -0.855,0.238 -0.27,0.156 -0.489,0.371 -0.657,0.641 -0.132,0.218 -0.207,0.578 -0.207,1.043 v 5.05 h -1.699 v -11.953 z m 8.422,8.305 c -0.008,0.094 -0.008,0.172 -0.008,0.227 0,0.468 0.161,0.878 0.485,1.218 0.379,0.414 0.902,0.61 1.543,0.61 0.711,0 1.312,-0.274 1.797,-0.821 l 1.304,1.106 c -0.23,0.277 -0.476,0.5 -0.718,0.676 -0.731,0.488 -1.528,0.734 -2.407,0.734 -0.91,0 -1.711,-0.27 -2.398,-0.816 -0.887,-0.704 -1.324,-1.684 -1.324,-2.934 v -1.512 c 0,-0.746 0.214,-1.41 0.652,-2.011 0.332,-0.442 0.734,-0.801 1.219,-1.051 0.511,-0.285 1.074,-0.422 1.668,-0.422 0.863,0 1.621,0.277 2.289,0.832 0.812,0.695 1.226,1.644 1.226,2.863 v 1.301 z m 3.617,-1.512 c -0.015,-0.293 -0.062,-0.539 -0.148,-0.746 -0.152,-0.316 -0.383,-0.578 -0.684,-0.773 -0.308,-0.192 -0.632,-0.293 -0.98,-0.293 -0.317,0 -0.617,0.078 -0.895,0.238 -0.277,0.156 -0.496,0.371 -0.656,0.641 -0.148,0.234 -0.23,0.55 -0.262,0.933 z m 4.977,-2.445 c 0.23,-0.27 0.476,-0.477 0.746,-0.625 0.488,-0.277 0.996,-0.414 1.52,-0.414 0.925,0 1.683,0.371 2.269,1.109 0.399,0.508 0.586,1.102 0.586,1.789 v 5.746 h -1.691 v -5.281 c 0,-0.355 -0.129,-0.703 -0.375,-1.019 -0.332,-0.446 -0.774,-0.664 -1.321,-0.664 -0.57,0 -1.019,0.23 -1.383,0.687 -0.23,0.301 -0.351,0.641 -0.351,0.996 v 5.281 h -1.715 v -8.539 h 1.715 z m 19.152,-0.934 v 8.539 h -1.707 v -0.968 c -0.586,0.714 -1.332,1.07 -2.234,1.07 -0.649,0 -1.235,-0.199 -1.762,-0.602 -0.57,-0.441 -0.926,-0.988 -1.07,-1.644 -0.031,-0.176 -0.055,-0.469 -0.055,-0.887 v -5.508 h 1.703 v 4.93 c 0,0.363 0.024,0.625 0.063,0.797 0.047,0.168 0.133,0.344 0.261,0.516 0.356,0.46 0.821,0.679 1.391,0.679 0.34,0 0.656,-0.086 0.934,-0.269 0.285,-0.172 0.492,-0.418 0.625,-0.711 0.097,-0.207 0.144,-0.578 0.144,-1.117 v -4.825 z m 3.602,0.934 c 0.23,-0.27 0.476,-0.477 0.746,-0.625 0.488,-0.277 0.996,-0.414 1.519,-0.414 0.926,0 1.684,0.371 2.27,1.109 0.387,0.508 0.586,1.102 0.586,1.789 v 5.746 h -1.699 v -5.281 c 0,-0.355 -0.121,-0.703 -0.367,-1.019 -0.333,-0.446 -0.774,-0.664 -1.321,-0.664 -0.562,0 -1.019,0.23 -1.387,0.687 -0.226,0.301 -0.347,0.641 -0.347,0.996 v 5.281 h -1.707 v -8.539 h 1.707 z m 13.613,-4.348 v 11.953 h -1.711 v -0.933 c -0.633,0.695 -1.375,1.035 -2.23,1.035 -0.633,0 -1.211,-0.191 -1.727,-0.57 -0.664,-0.489 -1.043,-1.098 -1.129,-1.844 -0.023,-0.117 -0.031,-0.356 -0.031,-0.719 v -2.437 c 0,-0.477 0.016,-0.801 0.055,-0.985 0.039,-0.187 0.125,-0.41 0.269,-0.672 0.285,-0.504 0.688,-0.902 1.211,-1.179 0.426,-0.235 0.887,-0.348 1.375,-0.348 0.856,0 1.598,0.356 2.207,1.078 v -4.379 z m -1.711,8.539 v -1.738 c 0,-0.445 -0.109,-0.816 -0.34,-1.109 -0.347,-0.45 -0.797,-0.68 -1.351,-0.68 -0.508,0 -0.918,0.172 -1.235,0.508 -0.324,0.332 -0.484,0.765 -0.484,1.281 v 1.738 c 0,0.438 0.105,0.801 0.301,1.086 0.347,0.485 0.816,0.719 1.41,0.719 0.309,0 0.609,-0.078 0.879,-0.234 0.277,-0.168 0.488,-0.391 0.64,-0.668 0.125,-0.219 0.18,-0.528 0.18,-0.903 m -141.234,11.461 -3.91,11.957 h -1.504 l -3.965,-11.957 h 1.906 l 2.801,9.164 2.758,-9.164 z m 1.765,8.301 c -0.007,0.098 -0.007,0.184 -0.007,0.238 0,0.469 0.156,0.871 0.48,1.219 0.379,0.406 0.902,0.602 1.551,0.602 0.715,0 1.308,-0.27 1.789,-0.821 l 1.305,1.114 c -0.227,0.277 -0.473,0.5 -0.719,0.671 -0.727,0.493 -1.527,0.739 -2.406,0.739 -0.911,0 -1.707,-0.278 -2.399,-0.824 -0.879,-0.696 -1.32,-1.676 -1.32,-2.938 v -1.5 c 0,-0.746 0.215,-1.41 0.648,-2.012 0.332,-0.445 0.735,-0.8 1.219,-1.054 0.523,-0.282 1.078,-0.426 1.672,-0.426 0.859,0 1.621,0.285 2.285,0.84 0.816,0.695 1.227,1.644 1.227,2.871 v 1.281 z m 3.618,-1.5 c -0.02,-0.293 -0.067,-0.547 -0.153,-0.746 -0.148,-0.316 -0.379,-0.578 -0.679,-0.773 -0.309,-0.2 -0.633,-0.293 -0.989,-0.293 -0.308,0 -0.609,0.078 -0.886,0.234 -0.278,0.16 -0.5,0.375 -0.661,0.641 -0.148,0.238 -0.226,0.546 -0.257,0.937 z m 4.968,-3.383 v 0.934 c 0.618,-0.695 1.36,-1.043 2.246,-1.043 0.684,0 1.293,0.223 1.813,0.648 l -1.195,1.489 c -0.364,-0.293 -0.743,-0.434 -1.121,-0.434 -0.5,0 -0.918,0.164 -1.243,0.504 -0.336,0.332 -0.5,0.762 -0.5,1.273 v 5.168 h -1.711 v -8.539 z m 6.821,6.063 v 2.476 h -1.7 v -11.957 h 1.7 v 7.442 l 3.308,-4.024 h 2.043 l -2.883,3.285 3.317,5.254 h -2.153 l -2.23,-3.972 z m 7.742,-1.18 c 0,0.098 0,0.184 0,0.238 0,0.469 0.156,0.871 0.473,1.219 0.39,0.406 0.902,0.602 1.55,0.602 0.715,0 1.317,-0.27 1.797,-0.821 l 1.309,1.114 c -0.231,0.277 -0.477,0.5 -0.731,0.671 -0.726,0.493 -1.527,0.739 -2.398,0.739 -0.91,0 -1.707,-0.278 -2.406,-0.824 -0.875,-0.696 -1.313,-1.676 -1.313,-2.938 v -1.5 c 0,-0.746 0.215,-1.41 0.641,-2.012 0.332,-0.445 0.746,-0.8 1.218,-1.054 0.524,-0.282 1.079,-0.426 1.672,-0.426 0.871,0 1.629,0.285 2.293,0.84 0.809,0.695 1.219,1.644 1.219,2.871 v 1.281 z m 3.617,-1.5 c -0.008,-0.293 -0.055,-0.547 -0.144,-0.746 -0.157,-0.316 -0.379,-0.578 -0.68,-0.773 -0.309,-0.2 -0.633,-0.293 -0.988,-0.293 -0.309,0 -0.61,0.078 -0.887,0.234 -0.285,0.16 -0.5,0.375 -0.656,0.641 -0.153,0.238 -0.239,0.546 -0.262,0.937 z m 4.977,-6.801 v 4.344 c 0.648,-0.687 1.394,-1.035 2.246,-1.035 0.976,0 1.75,0.402 2.336,1.203 0.363,0.516 0.554,1.117 0.554,1.828 v 5.617 h -1.718 v -5.175 c 0,-0.442 -0.102,-0.797 -0.309,-1.075 -0.348,-0.484 -0.813,-0.718 -1.391,-0.718 -0.3,0 -0.586,0.078 -0.855,0.234 -0.27,0.16 -0.492,0.375 -0.656,0.641 -0.137,0.23 -0.207,0.578 -0.207,1.046 v 5.047 h -1.711 v -11.957 z m 8.699,3.418 v 0.934 c 0.609,-0.695 1.359,-1.043 2.238,-1.043 0.688,0 1.297,0.223 1.82,0.648 l -1.195,1.489 c -0.371,-0.293 -0.742,-0.434 -1.125,-0.434 -0.504,0 -0.918,0.164 -1.25,0.504 -0.332,0.332 -0.488,0.762 -0.488,1.273 v 5.168 h -1.711 v -8.539 z m 11.277,0.992 -1.062,1.407 c -0.649,-0.535 -1.446,-0.797 -2.399,-0.797 -0.48,0 -0.82,0.086 -1.035,0.262 -0.207,0.179 -0.316,0.394 -0.316,0.64 0,0.527 0.41,0.797 1.226,0.828 0.719,0.024 1.25,0.067 1.59,0.114 0.34,0.054 0.625,0.148 0.863,0.277 0.371,0.203 0.672,0.48 0.903,0.82 0.277,0.422 0.425,0.895 0.425,1.403 0,0.554 -0.171,1.043 -0.496,1.488 -0.277,0.387 -0.679,0.687 -1.203,0.902 -0.523,0.215 -1.117,0.317 -1.789,0.317 -0.719,0 -1.418,-0.129 -2.09,-0.395 -0.664,-0.269 -1.226,-0.637 -1.675,-1.102 l 1.226,-1.218 c 0.672,0.679 1.512,1.019 2.516,1.019 0.578,0 1.011,-0.093 1.328,-0.269 0.308,-0.18 0.469,-0.434 0.469,-0.758 0,-0.301 -0.121,-0.524 -0.348,-0.649 -0.223,-0.136 -0.594,-0.207 -1.125,-0.207 -1.109,-0.015 -1.883,-0.156 -2.336,-0.433 -0.371,-0.223 -0.664,-0.524 -0.879,-0.902 -0.211,-0.383 -0.316,-0.786 -0.316,-1.219 0,-0.817 0.324,-1.489 0.992,-2.02 0.504,-0.402 1.219,-0.609 2.144,-0.609 1.274,0 2.407,0.371 3.387,1.101 m 3.094,3.891 c -0.008,0.098 -0.008,0.184 -0.008,0.238 0,0.469 0.156,0.871 0.481,1.219 0.382,0.406 0.894,0.602 1.546,0.602 0.711,0 1.313,-0.27 1.793,-0.821 l 1.309,1.114 c -0.23,0.277 -0.477,0.5 -0.73,0.671 -0.719,0.493 -1.52,0.739 -2.399,0.739 -0.91,0 -1.707,-0.278 -2.394,-0.824 -0.887,-0.696 -1.325,-1.676 -1.325,-2.938 v -1.5 c 0,-0.746 0.215,-1.41 0.649,-2.012 0.332,-0.445 0.738,-0.8 1.219,-1.054 0.515,-0.282 1.07,-0.426 1.671,-0.426 0.864,0 1.622,0.285 2.286,0.84 0.816,0.695 1.218,1.644 1.218,2.871 v 1.281 z m 3.617,-1.5 c -0.016,-0.293 -0.062,-0.547 -0.152,-0.746 -0.149,-0.316 -0.379,-0.578 -0.68,-0.773 -0.309,-0.2 -0.633,-0.293 -0.988,-0.293 -0.309,0 -0.61,0.078 -0.887,0.234 -0.285,0.16 -0.5,0.375 -0.656,0.641 -0.153,0.238 -0.238,0.546 -0.262,0.937 z m 4.961,5.156 h -1.699 v -8.539 h 1.699 z m 0,-10.269 h -1.699 v -1.688 h 1.699 z m 3.602,2.664 c 0.222,-0.266 0.476,-0.473 0.742,-0.625 0.492,-0.274 0.992,-0.418 1.512,-0.418 0.925,0 1.687,0.371 2.273,1.117 0.394,0.496 0.586,1.098 0.586,1.789 v 5.742 h -1.695 v -5.277 c 0,-0.363 -0.125,-0.703 -0.372,-1.027 -0.332,-0.446 -0.773,-0.657 -1.32,-0.657 -0.562,0 -1.023,0.227 -1.379,0.688 -0.238,0.301 -0.347,0.633 -0.347,0.996 v 5.277 H 97.09 v -8.539 h 1.719 z m 8.675,-0.934 v 0.934 c 0.618,-0.695 1.36,-1.043 2.239,-1.043 0.687,0 1.304,0.223 1.828,0.648 l -1.203,1.489 c -0.364,-0.293 -0.743,-0.434 -1.118,-0.434 -0.503,0 -0.925,0.164 -1.25,0.504 -0.332,0.332 -0.496,0.762 -0.496,1.273 v 5.168 h -1.703 v -8.539 z m 6.813,8.539 h -1.695 v -8.539 h 1.695 z m 0,-10.269 h -1.695 v -1.688 h 1.695 z m 6.988,7.898 1.32,1.067 c -0.234,0.316 -0.511,0.57 -0.82,0.769 -0.66,0.426 -1.379,0.641 -2.152,0.641 -0.684,0 -1.309,-0.168 -1.895,-0.508 -1.32,-0.773 -1.984,-2.035 -1.984,-3.781 0,-1.41 0.363,-2.492 1.09,-3.246 0.793,-0.809 1.734,-1.219 2.828,-1.219 1.137,0 2.113,0.461 2.933,1.371 l -1.32,1.105 c -0.433,-0.503 -0.98,-0.757 -1.637,-0.757 -0.722,0 -1.3,0.3 -1.742,0.886 -0.308,0.426 -0.468,1.028 -0.468,1.797 0,0.805 0.191,1.438 0.578,1.891 0.437,0.512 0.988,0.773 1.656,0.773 0.609,0 1.144,-0.269 1.613,-0.789 m 4.336,-9.586 v 4.344 c 0.649,-0.687 1.395,-1.035 2.258,-1.035 0.965,0 1.738,0.402 2.324,1.203 0.367,0.516 0.555,1.117 0.555,1.828 v 5.617 h -1.719 v -5.175 c 0,-0.442 -0.101,-0.797 -0.309,-1.075 -0.347,-0.484 -0.812,-0.718 -1.39,-0.718 -0.301,0 -0.586,0.078 -0.856,0.234 -0.269,0.16 -0.492,0.375 -0.656,0.641 -0.137,0.23 -0.207,0.578 -0.207,1.046 v 5.047 h -1.707 v -11.957 z m 8.992,4.797 v 4.945 c -0.015,0.422 0.231,0.618 0.735,0.602 h 0.547 v 1.613 h -0.758 c -0.461,0 -0.817,-0.054 -1.086,-0.164 -0.27,-0.101 -0.516,-0.293 -0.727,-0.562 -0.168,-0.199 -0.269,-0.395 -0.328,-0.594 -0.055,-0.207 -0.078,-0.496 -0.078,-0.895 v -4.945 h -0.848 v -1.379 h 0.848 v -2.578 h 1.695 v 2.578 h 1.282 v 1.379 z m 9.727,-1.379 v 8.539 h -1.711 v -0.972 c -0.586,0.722 -1.32,1.078 -2.231,1.078 -0.648,0 -1.234,-0.199 -1.757,-0.602 -0.578,-0.445 -0.934,-0.988 -1.067,-1.648 -0.043,-0.172 -0.058,-0.473 -0.058,-0.883 v -5.512 h 1.695 v 4.934 c 0,0.363 0.023,0.625 0.07,0.797 0.039,0.168 0.129,0.34 0.254,0.515 0.356,0.457 0.824,0.68 1.395,0.68 0.34,0 0.656,-0.086 0.933,-0.27 0.285,-0.179 0.489,-0.417 0.633,-0.718 0.086,-0.199 0.133,-0.571 0.133,-1.11 v -4.828 z m 3.601,0.934 c 0.227,-0.266 0.481,-0.473 0.75,-0.625 0.493,-0.274 0.989,-0.418 1.512,-0.418 0.934,0 1.688,0.371 2.274,1.117 0.386,0.496 0.582,1.098 0.582,1.789 v 5.742 h -1.7 v -5.277 c 0,-0.363 -0.117,-0.703 -0.363,-1.027 -0.332,-0.446 -0.777,-0.657 -1.324,-0.657 -0.559,0 -1.02,0.227 -1.375,0.688 -0.238,0.301 -0.356,0.633 -0.356,0.996 v 5.277 h -1.711 v -8.539 h 1.711 z m 13.563,-0.934 v 8.231 c 0,0.531 -0.031,0.945 -0.094,1.218 -0.07,0.27 -0.207,0.579 -0.402,0.903 -0.332,0.547 -0.785,0.969 -1.34,1.269 -0.539,0.293 -1.133,0.442 -1.781,0.442 -1.196,0 -2.199,-0.457 -3.024,-1.375 l 1.325,-1.133 c 0.3,0.324 0.578,0.539 0.812,0.664 0.238,0.117 0.531,0.176 0.871,0.176 0.375,0 0.723,-0.082 1.024,-0.246 0.308,-0.16 0.527,-0.391 0.679,-0.672 0.094,-0.176 0.149,-0.336 0.172,-0.477 0.027,-0.133 0.043,-0.394 0.043,-0.777 v -0.641 c -0.601,0.707 -1.355,1.063 -2.25,1.063 -0.656,0 -1.234,-0.199 -1.758,-0.602 -0.75,-0.586 -1.121,-1.402 -1.121,-2.453 v -2.613 c 0,-0.75 0.18,-1.375 0.535,-1.883 0.578,-0.809 1.364,-1.211 2.352,-1.211 0.848,0 1.598,0.356 2.242,1.059 v -0.942 z m -1.715,5.082 v -1.75 c 0,-0.41 -0.113,-0.765 -0.34,-1.066 -0.351,-0.453 -0.793,-0.672 -1.355,-0.672 -0.477,0 -0.887,0.172 -1.219,0.504 -0.332,0.34 -0.5,0.754 -0.5,1.234 v 1.926 c 0,0.371 0.129,0.719 0.383,1.027 0.347,0.438 0.781,0.649 1.328,0.649 0.324,0 0.625,-0.086 0.91,-0.254 0.285,-0.172 0.492,-0.402 0.633,-0.688 0.101,-0.207 0.16,-0.515 0.16,-0.91 m 5.047,-0.199 c 0,0.098 -0.008,0.184 -0.008,0.238 0,0.469 0.168,0.871 0.485,1.219 0.386,0.406 0.902,0.602 1.55,0.602 0.711,0 1.313,-0.27 1.797,-0.821 l 1.305,1.114 c -0.238,0.277 -0.485,0.5 -0.727,0.671 -0.73,0.493 -1.519,0.739 -2.398,0.739 -0.91,0 -1.711,-0.278 -2.406,-0.824 -0.879,-0.696 -1.325,-1.676 -1.325,-2.938 v -1.504 c 0,-0.742 0.223,-1.406 0.653,-2.008 0.34,-0.445 0.742,-0.8 1.218,-1.054 0.52,-0.286 1.075,-0.426 1.668,-0.426 0.864,0 1.629,0.285 2.29,0.84 0.812,0.695 1.226,1.644 1.226,2.871 v 1.281 z m 3.617,-1.504 c -0.008,-0.289 -0.055,-0.543 -0.14,-0.742 -0.161,-0.316 -0.391,-0.578 -0.692,-0.773 -0.301,-0.2 -0.625,-0.293 -0.98,-0.293 -0.309,0 -0.61,0.078 -0.895,0.234 -0.277,0.16 -0.496,0.375 -0.656,0.641 -0.141,0.238 -0.231,0.546 -0.262,0.933 z m 4.988,-2.445 c 0.227,-0.266 0.473,-0.473 0.743,-0.625 0.492,-0.278 0.996,-0.418 1.511,-0.418 0.934,0 1.684,0.371 2.27,1.117 0.398,0.496 0.594,1.098 0.594,1.789 v 5.742 h -1.7 v -5.277 c 0,-0.363 -0.129,-0.703 -0.371,-1.027 -0.336,-0.446 -0.769,-0.657 -1.324,-0.657 -0.562,0 -1.019,0.227 -1.375,0.688 -0.23,0.301 -0.348,0.633 -0.348,0.996 v 5.277 h -1.718 v -8.539 h 1.718 z" /><path
         id="path19763"
         style="fill:#ff4912;fill-opacity:1;fill-rule:evenodd;stroke:none"
         d="M 176.828,136.277 H 22.406 V 66.813 h 154.422 z m -162.195,4.188 c 0.101,0.965 0.144,3.086 3.539,3.519 h 162.891 c 0.98,-0.093 3.093,-0.132 3.535,-3.519 V 62.629 c -0.102,-0.977 -0.141,-3.094 -3.535,-3.531 H 18.172 c -0.981,0.093 -3.094,0.136 -3.539,3.531 z" /><path
         id="path19765"
         style="fill:#000002;fill-opacity:1;fill-rule:evenodd;stroke:none"
         d="m 28.84,164.453 c -1.75,1.09 -4.149,1.305 -5.027,1.305 -6.11,0 -8.735,-4.149 -8.735,-7.211 0,-6.766 6.551,-8.078 8.957,-8.078 1.75,0 3.278,0.441 4.582,1.09 0,0.222 0.223,1.75 0.223,2.843 l -0.438,0.219 c -0.218,0 -0.218,0 -0.433,-0.219 -0.223,-1.527 -1.528,-3.054 -4.156,-3.054 -2.618,0 -6.333,1.746 -6.333,6.765 0,3.719 2.622,6.996 5.899,6.996 2.406,0 3.711,-1.093 3.711,-2.406 v -1.527 c 0,-1.094 -0.434,-1.313 -1.305,-1.313 h -1.527 c -0.223,0 -0.223,-0.222 -0.223,-0.437 0,-0.223 0,-0.434 0.223,-0.434 h 6.109 v 0.649 H 29.93 c -0.867,0 -1.09,0.222 -1.09,1.312 z m 13.539,-17.476 c 0.66,0 1.094,0.437 1.094,1.093 0,0.657 -0.434,1.09 -1.094,1.09 -0.656,0 -1.09,-0.433 -1.09,-1.09 0,-0.656 0.434,-1.093 1.09,-1.093 m -3.926,0 c 0.652,0 1.086,0.437 1.086,1.093 0,0.657 -0.434,1.09 -1.086,1.09 -0.664,0 -1.098,-0.433 -1.098,-1.09 0,-0.656 0.434,-1.093 1.098,-1.093 m -4.152,6.117 c 0,-1.746 -0.871,-1.746 -2.184,-1.746 v -0.438 c 0,-0.222 0,-0.222 0.434,-0.222 0.433,0 1.75,0.222 2.84,0.222 0.871,0 1.964,-0.222 3.062,-0.222 v 0.66 h -0.219 c -1.316,0 -1.972,0.211 -1.972,1.746 v 6.109 c 0,3.063 0.656,5.461 4.156,5.461 3.711,0 5.023,-1.961 5.023,-5.461 v -5.461 c 0,-2.394 0,-2.183 -1.968,-2.394 v -0.66 c 0.441,0 0.879,0.222 2.406,0.222 0.871,0 1.961,-0.222 2.621,-0.222 l 0.219,0.222 v 0.438 H 48.5 c -1.531,0 -1.965,0.211 -1.965,1.304 v 7.43 c 0,3.711 -2.406,5.676 -6.117,5.676 -3.063,0 -6.117,-1.094 -6.117,-4.582 z m 23.156,10.265 c 0,1.528 1.094,1.528 2.398,1.528 h 0.223 v 0.437 c 0,0.219 -0.223,0.219 -0.437,0.219 -0.442,0 -1.536,-0.219 -3.063,-0.219 -1.094,0 -2.84,0.219 -3.277,0.219 -0.219,-0.219 -0.219,-0.219 -0.219,-0.434 0,0 0,-0.222 0.219,-0.222 h 0.437 c 1.746,0 1.969,-0.657 1.969,-2.407 v -10.042 l -0.223,-0.879 h -2.617 c -1.75,0 -1.965,1.093 -2.406,2.406 0,0 0,0.223 -0.215,0.223 -0.219,0 -0.433,-0.223 -0.433,-0.223 0,-0.434 0.214,-2.406 0.214,-4.145 h 0.657 c 0.656,0.868 0.879,0.868 1.738,0.868 h 7.875 c 1.308,0 1.742,-0.434 2.398,-1.09 0,0 0.657,0 0.657,0.222 0,0.211 -0.434,1.961 -0.657,3.489 v 0.656 c -0.211,0 -0.656,-0.223 -0.656,-0.223 l -0.215,-1.09 c 0,-1.093 -0.433,-1.093 -1.312,-1.093 h -3.055 z m 9.609,-10.484 c 0,-1.316 -1.093,-1.527 -2.187,-1.527 -0.219,0 -0.219,0 -0.219,-0.223 v -0.215 c 0,-0.222 0.442,-0.222 1.09,-0.222 0.879,0 1.973,0.222 2.844,0.222 0.867,0 1.527,-0.222 2.406,-0.222 h 4.367 c 0.215,0 0.215,0.222 0.215,0.437 v 2.84 c -0.215,0 -0.652,0 -0.652,-0.223 v -0.648 c -0.219,-1.535 -1.098,-1.746 -2.192,-1.746 h -2.183 c -1.094,0 -1.528,0.211 -1.528,1.961 v 3.711 c 0,0 0,0.222 0.223,0.222 h 2.398 c 1.313,-0.222 1.536,-0.445 1.969,-1.75 h 0.438 v 4.149 c 0,0.222 -0.223,0.441 -0.223,0.441 -0.215,0 -0.437,-0.219 -0.437,-0.441 0,-0.438 0,-0.871 -0.211,-1.094 0,-0.434 -0.223,-0.649 -0.879,-0.649 H 69.25 c -0.223,0 -0.223,0.215 -0.223,0.215 v 5.024 c 0,1.527 1.094,1.527 2.621,1.527 h 1.09 c 1.094,0 1.75,0 2.407,-0.211 0.437,-0.437 1.093,-1.527 1.312,-2.187 0.215,0 0.66,0 0.66,0.214 0,0 -0.222,0.223 -0.222,0.446 l -0.438,1.961 c -0.219,0.656 -0.434,0.656 -0.656,0.656 -2.184,0 -4.367,-0.219 -7.43,-0.219 -0.871,0 -2.621,0.219 -3.711,0.219 v -0.656 c 1.969,-0.223 2.406,-0.223 2.406,-2.184 z m 19.657,11.789 c 2.183,0 2.843,-0.434 3.054,-0.871 l 1.317,-1.746 0.433,0.219 h 0.223 l -0.879,2.843 c 0,0.434 0,0.434 -0.215,0.434 -1.75,0 -3.285,-0.219 -4.812,-0.219 -2.399,0 -4.582,0.219 -6.766,0.219 -0.223,0 -0.223,0 -0.223,-0.219 0,0 0,-0.215 0.223,-0.437 3.055,-4.157 6.117,-8.301 8.953,-12.235 0.219,-0.437 0.442,-0.656 0.442,-0.871 0,-0.222 -0.223,-0.222 -0.657,-0.222 h -4.589 c -1.743,0 -2.184,0.222 -2.836,1.316 -0.219,0.219 -0.434,0.867 -0.657,1.09 h -0.218 l -0.438,-0.223 c 0.223,-1.09 0.656,-3.054 0.879,-3.488 0,-0.434 0.215,-0.434 0.215,-0.434 h 0.433 c 0.223,0.868 1.313,1.09 5.028,1.09 0.656,0 2.183,-0.222 5.461,-0.222 0,0 0.433,0 0.433,0.222 0,0.215 0,0.215 -0.433,0.649 -0.438,0.656 -3.5,5.027 -5.461,7.433 -0.223,0.434 -3.715,5.461 -3.715,5.461 0,0.211 0.215,0.211 0.215,0.211 z m 9.172,-11.789 c 0,-1.316 -1.09,-1.527 -2.184,-1.527 -0.219,0 -0.219,0 -0.219,-0.223 v -0.215 c 0,-0.222 0.442,-0.222 1.098,-0.222 0.871,0 1.965,0.222 2.832,0.222 0.66,0 1.527,-0.222 2.406,-0.222 h 4.371 c 0.211,0 0.211,0.222 0.211,0.437 v 2.84 c -0.211,0 -0.648,0 -0.648,-0.223 v -0.648 c -0.219,-1.535 -1.09,-1.746 -2.184,-1.746 h -2.183 c -1.313,0 -1.528,0.211 -1.528,1.961 v 3.933 h 2.621 c 1.305,-0.222 1.528,-0.445 1.961,-1.75 h 0.434 v 4.149 c 0,0.222 -0.211,0.441 -0.211,0.441 -0.223,0 -0.445,-0.219 -0.445,-0.441 0,-0.438 0,-0.871 -0.211,-1.094 0,-0.434 -0.223,-0.649 -0.879,-0.649 h -3.055 c -0.215,0 -0.215,0.215 -0.215,0.215 v 5.024 c 0,1.527 1.082,1.527 2.399,1.527 h 1.312 c 1.094,0 1.742,0 2.399,-0.211 0.433,-0.437 1.093,-1.527 1.312,-2.187 0.215,0 0.656,0 0.656,0.214 0,0 -0.218,0.223 -0.218,0.446 l -0.438,1.961 c -0.219,0.656 -0.441,0.656 -0.656,0.656 -2.184,0 -4.59,-0.219 -7.422,-0.219 -0.871,0 -2.621,0.219 -3.719,0.219 v -0.656 c 1.969,-0.223 2.403,-0.223 2.403,-2.184 z m 16.382,8.734 c 0,3.055 0,3.055 1.965,3.278 h 0.223 v 0.437 c 0,0.219 -0.438,0.219 -0.66,0.219 -0.219,0 -1.528,-0.219 -2.399,-0.219 -1.09,0 -2.191,0.219 -3.281,0.219 v -0.434 c 0,-0.222 0,-0.222 0.656,-0.222 1.535,0 1.535,-0.434 1.535,-1.961 v -10.051 c 0,-1.094 -0.445,-1.527 -2.191,-1.527 v -0.438 c 0,-0.222 0.219,-0.222 0.219,-0.222 0.66,0 1.316,0.222 2.621,0.222 1.094,0 2.406,-0.222 3.277,-0.222 v 0.66 h -0.656 c -0.652,0.211 -1.309,0.211 -1.309,1.09 z m 18.348,3.055 c -1.527,0.66 -3.277,1.094 -5.02,1.094 -4.156,0 -8.738,-2.832 -8.738,-7.645 0,-4.582 4.371,-7.644 8.516,-7.644 1.527,0 3.926,0.441 5.019,1.09 l 0.223,2.629 c 0.219,0 0.219,0.214 0.219,0.433 0,0.215 -0.442,0.215 -0.442,0.215 -0.214,0 -0.214,-0.434 -0.648,-1.094 -0.656,-1.527 -2.406,-2.394 -4.149,-2.394 -4.156,0 -6.339,3.273 -6.339,6.988 0,3.496 2.621,6.773 6.339,6.773 1.094,0 2.844,-0.445 3.493,-1.316 0.656,-0.434 1.09,-1.313 1.304,-2.184 h 0.223 c 0.219,0 0.434,0 0.434,0.223 z m 4.801,-11.57 c 0,-0.879 -0.211,-1.746 -1.961,-1.746 h -0.223 v -0.438 c 0,-0.222 0.223,-0.222 0.446,-0.222 0.648,0 1.738,0.222 2.832,0.222 0.878,0 1.535,-0.222 2.628,-0.222 0.434,0 0.434,0 0.434,0.222 v 0.438 h -0.656 c -0.871,0 -1.528,0.211 -1.528,1.09 v 4.804 h 8.95 v -3.933 c 0,-1.528 0,-1.75 -1.746,-1.961 -0.215,0 -0.215,0 -0.215,-0.223 v -0.437 c 0.656,0 1.961,0.222 3.277,0.222 1.305,0 1.961,-0.222 2.617,-0.222 v 0.66 h -0.433 c -1.094,0 -1.75,0.211 -1.75,1.527 v 10.262 c 0,1.527 0.871,1.75 2.183,1.75 v 0.437 c 0,0.219 0,0.219 -0.656,0.219 -0.871,0 -1.75,-0.219 -2.617,-0.219 -0.66,0 -1.965,0.219 -2.188,0.219 -0.656,0 -0.656,0 -0.656,-0.219 v -0.437 c 2.184,0 2.184,-0.434 2.184,-1.961 v -4.813 h -8.95 v 5.246 c 0,1.094 0.215,1.528 1.75,1.528 0.211,0 0.211,0 0.211,0.222 v 0.215 c 0,0.219 -0.211,0.219 -0.656,0.219 -0.871,0 -1.738,-0.219 -2.398,-0.219 -0.879,0 -1.746,0.219 -2.617,0.219 0,0 -0.223,0 -0.446,-0.219 v -0.437 h 0.223 c 1.094,0 1.961,-0.223 1.961,-1.094 z m 19.226,-0.219 c 0,-1.316 -0.871,-1.527 -2.183,-1.527 v -0.438 c 0,-0.222 0.219,-0.222 1.09,-0.222 0.656,0 1.75,0.222 2.629,0.222 0.871,0 1.527,-0.222 2.398,-0.222 h 4.582 v 3.277 c -0.215,0 -0.648,0 -0.648,-0.223 v -0.648 c -0.223,-1.535 -1.094,-1.746 -2.188,-1.746 h -2.184 c -1.089,0 -1.527,0.211 -1.527,1.961 v 3.711 c 0,0 0,0.222 0.215,0.222 h 2.406 c 1.305,-0.222 1.528,-0.445 1.961,-1.75 h 0.438 v 4.149 c 0,0.222 0,0.441 -0.215,0.441 -0.223,0 -0.223,-0.219 -0.442,-0.441 0,-0.438 0,-0.871 -0.214,-1.094 0,-0.434 -0.223,-0.649 -0.872,-0.649 h -3.062 c -0.215,0 -0.215,0.215 -0.215,0.215 v 5.024 c 0,1.527 1.094,1.527 2.621,1.527 h 1.09 c 1.094,0 1.742,0 2.398,-0.211 0.438,-0.437 1.094,-1.527 1.317,-2.187 0.211,0 0.656,0 0.656,0.214 0,0 0,0.223 -0.223,0.446 l -0.433,1.961 c -0.223,0.656 -0.438,0.656 -0.66,0.656 -2.184,0 -4.367,-0.219 -7.422,-0.219 -0.656,0 -2.621,0.219 -3.496,0.219 -0.215,0 -0.215,-0.219 -0.215,-0.434 0,0 0,-0.222 0.215,-0.222 1.746,-0.223 2.183,-0.223 2.183,-2.184 z m 14.418,0.434 v -0.657 c -0.222,-0.437 -1.09,-1.093 -1.527,-1.093 l -1.09,-0.211 v -0.66 h 1.738 c 0.879,0 2.407,0.222 2.844,0.222 l 6.328,7.637 c 1.094,1.094 1.973,2.183 3.5,3.719 v -9.243 c -0.015,-0.332 -0.047,-0.617 -0.117,-0.855 v -0.016 c -0.183,-0.484 -0.523,-0.593 -0.976,-0.593 l -0.872,-0.215 c -0.218,0 -0.218,-0.219 -0.218,-0.219 0,-0.215 0,-0.437 0.218,-0.437 0.192,0 0.508,0.039 0.887,0.089 l 0.09,0.008 0.023,0.008 h 0.024 c 0.441,0.055 0.965,0.109 1.496,0.117 0.512,-0.008 1.027,-0.062 1.473,-0.109 l 0.023,-0.008 h 0.024 l 0.015,-0.008 h 0.008 l 0.086,-0.008 c 0.379,-0.05 0.699,-0.089 0.887,-0.089 0.222,0 0.222,0.222 0.222,0.437 0,0 0,0.219 -0.222,0.219 l -0.879,0.215 c -0.442,0 -0.789,0.101 -0.965,0.586 v 0.007 c -0.07,0.239 -0.11,0.524 -0.125,0.856 l -0.008,0.523 v 12.449 h -0.437 l -11.356,-12.886 v 9.609 c 0,1.961 0.215,2.184 1.961,2.184 0.223,0 0.223,0.222 0.223,0.222 0,0.211 0,0.434 -0.223,0.434 -0.211,0 -1.527,-0.223 -2.617,-0.223 -0.871,0 -1.317,0.223 -2.406,0.223 v -0.434 c 0,-0.222 0,-0.222 0.218,-0.222 0.871,0 1.75,-0.223 1.75,-1.305 z" /><g
         id="g19767"><path
           id="path19769"
           style="fill:none;stroke:#000002;stroke-width:0.46598801;stroke-linecap:round;stroke-linejoin:round;stroke-miterlimit:10;stroke-dasharray:none;stroke-opacity:1"
           d="m 28.84,164.453 c -1.75,1.09 -4.149,1.305 -5.027,1.305 -6.11,0 -8.735,-4.149 -8.735,-7.211 0,-6.766 6.551,-8.078 8.957,-8.078 1.75,0 3.278,0.441 4.582,1.09 0,0.222 0.223,1.75 0.223,2.843 l -0.438,0.219 c -0.218,0 -0.218,0 -0.433,-0.219 -0.223,-1.527 -1.528,-3.054 -4.156,-3.054 -2.618,0 -6.333,1.746 -6.333,6.765 0,3.719 2.622,6.996 5.899,6.996 2.406,0 3.711,-1.093 3.711,-2.406 v -1.527 c 0,-1.094 -0.434,-1.313 -1.305,-1.313 h -1.527 c -0.223,0 -0.223,-0.222 -0.223,-0.437 0,-0.223 0,-0.434 0.223,-0.434 h 6.109 v 0.649 H 29.93 c -0.867,0 -1.09,0.222 -1.09,1.312 z m 13.539,-17.476 c 0.66,0 1.094,0.437 1.094,1.093 0,0.657 -0.434,1.09 -1.094,1.09 -0.656,0 -1.09,-0.433 -1.09,-1.09 0,-0.656 0.434,-1.093 1.09,-1.093 z m -3.926,0 c 0.652,0 1.086,0.437 1.086,1.093 0,0.657 -0.434,1.09 -1.086,1.09 -0.664,0 -1.098,-0.433 -1.098,-1.09 0,-0.656 0.434,-1.093 1.098,-1.093 z m -4.152,6.117 c 0,-1.746 -0.871,-1.746 -2.184,-1.746 v -0.438 c 0,-0.222 0,-0.222 0.434,-0.222 0.433,0 1.75,0.222 2.84,0.222 0.871,0 1.964,-0.222 3.062,-0.222 v 0.66 h -0.219 c -1.316,0 -1.972,0.211 -1.972,1.746 v 6.109 c 0,3.063 0.656,5.461 4.156,5.461 3.711,0 5.023,-1.961 5.023,-5.461 v -5.461 c 0,-2.394 0,-2.183 -1.968,-2.394 v -0.66 c 0.441,0 0.879,0.222 2.406,0.222 0.871,0 1.961,-0.222 2.621,-0.222 l 0.219,0.222 v 0.438 H 48.5 c -1.531,0 -1.965,0.211 -1.965,1.304 v 7.43 c 0,3.711 -2.406,5.676 -6.117,5.676 -3.063,0 -6.117,-1.094 -6.117,-4.582 z m 23.156,10.265 c 0,1.528 1.094,1.528 2.398,1.528 h 0.223 v 0.437 c 0,0.219 -0.223,0.219 -0.437,0.219 -0.442,0 -1.536,-0.219 -3.063,-0.219 -1.094,0 -2.84,0.219 -3.277,0.219 -0.219,-0.219 -0.219,-0.219 -0.219,-0.434 0,0 0,-0.222 0.219,-0.222 h 0.437 c 1.746,0 1.969,-0.657 1.969,-2.407 v -10.042 l -0.223,-0.879 h -2.617 c -1.75,0 -1.965,1.093 -2.406,2.406 0,0 0,0.223 -0.215,0.223 -0.219,0 -0.433,-0.223 -0.433,-0.223 0,-0.434 0.214,-2.406 0.214,-4.145 h 0.657 c 0.656,0.868 0.879,0.868 1.738,0.868 h 7.875 c 1.308,0 1.742,-0.434 2.398,-1.09 0,0 0.657,0 0.657,0.222 0,0.211 -0.434,1.961 -0.657,3.489 v 0.656 c -0.211,0 -0.656,-0.223 -0.656,-0.223 l -0.215,-1.09 c 0,-1.093 -0.433,-1.093 -1.312,-1.093 h -3.055 z m 9.609,-10.484 c 0,-1.316 -1.093,-1.527 -2.187,-1.527 -0.219,0 -0.219,0 -0.219,-0.223 v -0.215 c 0,-0.222 0.442,-0.222 1.09,-0.222 0.879,0 1.973,0.222 2.844,0.222 0.867,0 1.527,-0.222 2.406,-0.222 h 4.367 c 0.215,0 0.215,0.222 0.215,0.437 v 2.84 c -0.215,0 -0.652,0 -0.652,-0.223 v -0.648 c -0.219,-1.535 -1.098,-1.746 -2.192,-1.746 h -2.183 c -1.094,0 -1.528,0.211 -1.528,1.961 v 3.711 c 0,0 0,0.222 0.223,0.222 h 2.398 c 1.313,-0.222 1.536,-0.445 1.969,-1.75 h 0.438 v 4.149 c 0,0.222 -0.223,0.441 -0.223,0.441 -0.215,0 -0.437,-0.219 -0.437,-0.441 0,-0.438 0,-0.871 -0.211,-1.094 0,-0.434 -0.223,-0.649 -0.879,-0.649 H 69.25 c -0.223,0 -0.223,0.215 -0.223,0.215 v 5.024 c 0,1.527 1.094,1.527 2.621,1.527 h 1.09 c 1.094,0 1.75,0 2.407,-0.211 0.437,-0.437 1.093,-1.527 1.312,-2.187 0.215,0 0.66,0 0.66,0.214 0,0 -0.222,0.223 -0.222,0.446 l -0.438,1.961 c -0.219,0.656 -0.434,0.656 -0.656,0.656 -2.184,0 -4.367,-0.219 -7.43,-0.219 -0.871,0 -2.621,0.219 -3.711,0.219 v -0.656 c 1.969,-0.223 2.406,-0.223 2.406,-2.184 z m 19.657,11.789 c 2.183,0 2.843,-0.434 3.054,-0.871 l 1.317,-1.746 0.433,0.219 h 0.223 l -0.879,2.843 c 0,0.434 0,0.434 -0.215,0.434 -1.75,0 -3.285,-0.219 -4.812,-0.219 -2.399,0 -4.582,0.219 -6.766,0.219 -0.223,0 -0.223,0 -0.223,-0.219 0,0 0,-0.215 0.223,-0.437 3.055,-4.157 6.117,-8.301 8.953,-12.235 0.219,-0.437 0.442,-0.656 0.442,-0.871 0,-0.222 -0.223,-0.222 -0.657,-0.222 h -4.589 c -1.743,0 -2.184,0.222 -2.836,1.316 -0.219,0.219 -0.434,0.867 -0.657,1.09 h -0.218 l -0.438,-0.223 c 0.223,-1.09 0.656,-3.054 0.879,-3.488 0,-0.434 0.215,-0.434 0.215,-0.434 h 0.433 c 0.223,0.868 1.313,1.09 5.028,1.09 0.656,0 2.183,-0.222 5.461,-0.222 0,0 0.433,0 0.433,0.222 0,0.215 0,0.215 -0.433,0.649 -0.438,0.656 -3.5,5.027 -5.461,7.433 -0.223,0.434 -3.715,5.461 -3.715,5.461 0,0.211 0.215,0.211 0.215,0.211 z m 9.172,-11.789 c 0,-1.316 -1.09,-1.527 -2.184,-1.527 -0.219,0 -0.219,0 -0.219,-0.223 v -0.215 c 0,-0.222 0.442,-0.222 1.098,-0.222 0.871,0 1.965,0.222 2.832,0.222 0.66,0 1.527,-0.222 2.406,-0.222 h 4.371 c 0.211,0 0.211,0.222 0.211,0.437 v 2.84 c -0.211,0 -0.648,0 -0.648,-0.223 v -0.648 c -0.219,-1.535 -1.09,-1.746 -2.184,-1.746 h -2.183 c -1.313,0 -1.528,0.211 -1.528,1.961 v 3.933 h 2.621 c 1.305,-0.222 1.528,-0.445 1.961,-1.75 h 0.434 v 4.149 c 0,0.222 -0.211,0.441 -0.211,0.441 -0.223,0 -0.445,-0.219 -0.445,-0.441 0,-0.438 0,-0.871 -0.211,-1.094 0,-0.434 -0.223,-0.649 -0.879,-0.649 h -3.055 c -0.215,0 -0.215,0.215 -0.215,0.215 v 5.024 c 0,1.527 1.082,1.527 2.399,1.527 h 1.312 c 1.094,0 1.742,0 2.399,-0.211 0.433,-0.437 1.093,-1.527 1.312,-2.187 0.215,0 0.656,0 0.656,0.214 0,0 -0.218,0.223 -0.218,0.446 l -0.438,1.961 c -0.219,0.656 -0.441,0.656 -0.656,0.656 -2.184,0 -4.59,-0.219 -7.422,-0.219 -0.871,0 -2.621,0.219 -3.719,0.219 v -0.656 c 1.969,-0.223 2.403,-0.223 2.403,-2.184 z m 16.382,8.734 c 0,3.055 0,3.055 1.965,3.278 h 0.223 v 0.437 c 0,0.219 -0.438,0.219 -0.66,0.219 -0.219,0 -1.528,-0.219 -2.399,-0.219 -1.09,0 -2.191,0.219 -3.281,0.219 v -0.434 c 0,-0.222 0,-0.222 0.656,-0.222 1.535,0 1.535,-0.434 1.535,-1.961 v -10.051 c 0,-1.094 -0.445,-1.527 -2.191,-1.527 v -0.438 c 0,-0.222 0.219,-0.222 0.219,-0.222 0.66,0 1.316,0.222 2.621,0.222 1.094,0 2.406,-0.222 3.277,-0.222 v 0.66 h -0.656 c -0.652,0.211 -1.309,0.211 -1.309,1.09 z m 18.348,3.055 c -1.527,0.66 -3.277,1.094 -5.02,1.094 -4.156,0 -8.738,-2.832 -8.738,-7.645 0,-4.582 4.371,-7.644 8.516,-7.644 1.527,0 3.926,0.441 5.019,1.09 l 0.223,2.629 c 0.219,0 0.219,0.214 0.219,0.433 0,0.215 -0.442,0.215 -0.442,0.215 -0.214,0 -0.214,-0.434 -0.648,-1.094 -0.656,-1.527 -2.406,-2.394 -4.149,-2.394 -4.156,0 -6.339,3.273 -6.339,6.988 0,3.496 2.621,6.773 6.339,6.773 1.094,0 2.844,-0.445 3.493,-1.316 0.656,-0.434 1.09,-1.313 1.304,-2.184 h 0.223 c 0.219,0 0.434,0 0.434,0.223 z m 4.801,-11.57 c 0,-0.879 -0.211,-1.746 -1.961,-1.746 h -0.223 v -0.438 c 0,-0.222 0.223,-0.222 0.446,-0.222 0.648,0 1.738,0.222 2.832,0.222 0.878,0 1.535,-0.222 2.628,-0.222 0.434,0 0.434,0 0.434,0.222 v 0.438 h -0.656 c -0.871,0 -1.528,0.211 -1.528,1.09 v 4.804 h 8.95 v -3.933 c 0,-1.528 0,-1.75 -1.746,-1.961 -0.215,0 -0.215,0 -0.215,-0.223 v -0.437 c 0.656,0 1.961,0.222 3.277,0.222 1.305,0 1.961,-0.222 2.617,-0.222 v 0.66 h -0.433 c -1.094,0 -1.75,0.211 -1.75,1.527 v 10.262 c 0,1.527 0.871,1.75 2.183,1.75 v 0.437 c 0,0.219 0,0.219 -0.656,0.219 -0.871,0 -1.75,-0.219 -2.617,-0.219 -0.66,0 -1.965,0.219 -2.188,0.219 -0.656,0 -0.656,0 -0.656,-0.219 v -0.437 c 2.184,0 2.184,-0.434 2.184,-1.961 v -4.813 h -8.95 v 5.246 c 0,1.094 0.215,1.528 1.75,1.528 0.211,0 0.211,0 0.211,0.222 v 0.215 c 0,0.219 -0.211,0.219 -0.656,0.219 -0.871,0 -1.738,-0.219 -2.398,-0.219 -0.879,0 -1.746,0.219 -2.617,0.219 0,0 -0.223,0 -0.446,-0.219 v -0.437 h 0.223 c 1.094,0 1.961,-0.223 1.961,-1.094 z m 19.226,-0.219 c 0,-1.316 -0.871,-1.527 -2.183,-1.527 v -0.438 c 0,-0.222 0.219,-0.222 1.09,-0.222 0.656,0 1.75,0.222 2.629,0.222 0.871,0 1.527,-0.222 2.398,-0.222 h 4.582 v 3.277 c -0.215,0 -0.648,0 -0.648,-0.223 v -0.648 c -0.223,-1.535 -1.094,-1.746 -2.188,-1.746 h -2.184 c -1.089,0 -1.527,0.211 -1.527,1.961 v 3.711 c 0,0 0,0.222 0.215,0.222 h 2.406 c 1.305,-0.222 1.528,-0.445 1.961,-1.75 h 0.438 v 4.149 c 0,0.222 0,0.441 -0.215,0.441 -0.223,0 -0.223,-0.219 -0.442,-0.441 0,-0.438 0,-0.871 -0.214,-1.094 0,-0.434 -0.223,-0.649 -0.872,-0.649 h -3.062 c -0.215,0 -0.215,0.215 -0.215,0.215 v 5.024 c 0,1.527 1.094,1.527 2.621,1.527 h 1.09 c 1.094,0 1.742,0 2.398,-0.211 0.438,-0.437 1.094,-1.527 1.317,-2.187 0.211,0 0.656,0 0.656,0.214 0,0 0,0.223 -0.223,0.446 l -0.433,1.961 c -0.223,0.656 -0.438,0.656 -0.66,0.656 -2.184,0 -4.367,-0.219 -7.422,-0.219 -0.656,0 -2.621,0.219 -3.496,0.219 -0.215,0 -0.215,-0.219 -0.215,-0.434 0,0 0,-0.222 0.215,-0.222 1.746,-0.223 2.183,-0.223 2.183,-2.184 z m 14.418,0.434 v -0.657 c -0.222,-0.437 -1.09,-1.093 -1.527,-1.093 l -1.09,-0.211 v -0.66 h 1.738 c 0.879,0 2.407,0.222 2.844,0.222 l 6.328,7.637 c 1.094,1.094 1.973,2.183 3.5,3.719 v -9.243 c -0.015,-0.332 -0.047,-0.617 -0.117,-0.855 v -0.016 c -0.183,-0.48 -0.523,-0.593 -0.976,-0.593 l -0.872,-0.215 c -0.218,0 -0.218,-0.219 -0.218,-0.219 0,-0.215 0,-0.437 0.218,-0.437 0.192,0 0.508,0.039 0.887,0.089 l 0.09,0.008 0.023,0.008 h 0.024 c 0.441,0.055 0.965,0.109 1.496,0.117 0.512,-0.008 1.027,-0.062 1.473,-0.109 l 0.023,-0.008 h 0.024 l 0.015,-0.008 h 0.008 l 0.086,-0.008 c 0.379,-0.05 0.699,-0.089 0.887,-0.089 0.222,0 0.222,0.222 0.222,0.437 0,0 0,0.219 -0.222,0.219 l -0.879,0.215 c -0.442,0 -0.789,0.101 -0.965,0.586 v 0.007 c -0.07,0.239 -0.11,0.524 -0.125,0.856 l -0.008,0.523 v 12.449 h -0.437 l -11.356,-12.886 v 9.609 c 0,1.961 0.215,2.184 1.961,2.184 0.223,0 0.223,0.222 0.223,0.222 0,0.211 0,0.434 -0.223,0.434 -0.211,0 -1.527,-0.223 -2.617,-0.223 -0.871,0 -1.317,0.223 -2.406,0.223 v -0.434 c 0,-0.222 0,-0.222 0.218,-0.222 0.871,0 1.75,-0.223 1.75,-1.305 z" /></g><path
         id="path19771"
         style="fill:#ff4912;fill-opacity:1;fill-rule:evenodd;stroke:none"
         d="m 104.309,76.207 c -1.09,-1.969 -2.621,-2.84 -4.368,-2.84 -2.398,0 -4.148,1.305 -5.242,3.278 -0.433,0.871 -0.867,1.96 -1.312,3.054 l -17.688,45.434 c -1.75,4.59 5.239,7.211 6.989,2.621 l 8.3,-21.621 h 17.91 l 8.082,21.621 c 1.75,4.59 8.739,1.969 6.989,-2.621 L 105.836,79.699 c -0.434,-1.304 -0.871,-2.621 -1.527,-3.492 m -46.954,52.426 c 0.211,0.433 0.649,0.871 0.872,1.09 0.218,0 0.433,0.215 0.867,0.429 2.844,1.313 6.777,-2.175 4.59,-5.675 L 51.016,105.91 c 3.496,0 9.828,-1.75 12.449,-6.117 1.746,-2.621 2.617,-5.453 2.84,-8.738 0.222,-4.145 -0.871,-7.637 -3.489,-10.7 -3.062,-3.71 -7.433,-5.683 -13.109,-6.117 H 33.328 c -2.844,0 -2.844,1.528 -2.629,3.278 v 48.925 c 0,5.024 7.43,5.024 7.43,0 V 105.91 h 4.148 z m 109.208,1.519 c 5.023,0 5.023,-7.859 0,-7.859 h -23.805 l 0.211,-44.992 c -0.211,-5.028 -7.637,-5.028 -7.637,0 v 50.015 c 0,1.317 1.094,2.836 2.398,2.836 z M 38.344,81.234 h 10.488 c 11.578,0 12.012,11.571 7.863,15.289 -1.968,1.965 -4.808,2.622 -7.422,2.622 H 38.344 Z m 67.937,17.911 H 93.172 l 6.555,-16.821 z" /><path
         id="path19773"
         style="fill:#000002;fill-opacity:1;fill-rule:evenodd;stroke:none"
         d="M 14.594,171.004 H 184.637 V 330.723 H 14.594 Z" /><path
         id="path19775"
         style="fill:#ffffff;fill-opacity:1;fill-rule:evenodd;stroke:none"
         d="M 99.617,316.453 23.551,184.703 H 175.68 Z" /><path
         id="path19777"
         style="fill:#ff4912;fill-opacity:1;fill-rule:evenodd;stroke:none"
         d="M 99.617,301.875 67.895,246.934 36.176,192 h 126.879 l -31.719,54.934 z" /><path
         id="path19779"
         style="fill:#000000;fill-opacity:1;fill-rule:evenodd;stroke:none"
         d="m 176.145,18.016 c 1.378,0 2.488,-1.11 2.488,-2.477 0,-1.371 -1.11,-2.484 -2.488,-2.484 -1.368,0 -2.477,1.113 -2.477,2.484 0,1.367 1.109,2.477 2.477,2.477" /><path
         id="path19781"
         style="fill:#000000;fill-opacity:1;fill-rule:evenodd;stroke:none"
         d="m 162.066,18.016 c 1.372,0 2.477,-1.118 2.477,-2.485 0,-1.371 -1.105,-2.476 -2.477,-2.476 -1.367,0 -2.484,1.105 -2.484,2.476 0,1.367 1.117,2.485 2.484,2.485" /><path
         id="path19783"
         style="fill:#000000;fill-opacity:1;fill-rule:evenodd;stroke:none"
         d="m 162.066,49.563 c 1.379,0 2.485,-1.118 2.485,-2.477 0,-1.371 -1.106,-2.488 -2.485,-2.488 -1.367,0 -2.484,1.117 -2.484,2.488 0,1.359 1.117,2.477 2.484,2.477" /><path
         id="path19785"
         style="fill:#000000;fill-opacity:1;fill-rule:evenodd;stroke:none"
         d="m 176.145,26.086 c 1.378,0 2.488,-1.113 2.488,-2.484 0,-1.368 -1.11,-2.477 -2.488,-2.477 -1.368,0 -2.477,1.109 -2.477,2.477 0,1.371 1.109,2.484 2.477,2.484" /><path
         id="path19787"
         style="fill:#000000;fill-opacity:1;fill-rule:evenodd;stroke:none"
         d="m 169.148,33.883 c 1.379,0 2.489,-1.11 2.489,-2.477 0,-1.371 -1.11,-2.484 -2.489,-2.484 -1.367,0 -2.476,1.113 -2.476,2.484 0,1.367 1.109,2.477 2.476,2.477" /><path
         id="path19789"
         style="fill:#000000;fill-opacity:1;fill-rule:evenodd;stroke:none"
         d="m 176.145,40.832 c 1.378,0 2.488,-1.117 2.488,-2.477 0,-1.371 -1.11,-2.484 -2.488,-2.484 -1.368,0 -2.485,1.113 -2.485,2.484 0,1.36 1.117,2.477 2.485,2.477" /><path
         id="path19791"
         style="fill:#000000;fill-opacity:1;fill-rule:evenodd;stroke:none"
         d="m 169.148,49.563 c 1.379,0 2.489,-1.118 2.489,-2.485 0,-1.371 -1.11,-2.48 -2.489,-2.48 -1.367,0 -2.476,1.109 -2.476,2.48 0,1.367 1.109,2.485 2.476,2.485" /><path
         id="path19793"
         style="fill:#000000;fill-opacity:1;fill-rule:evenodd;stroke:none"
         d="m 73.656,40.453 c 1.367,0 2.477,1.106 2.477,2.477 0,1.367 -1.11,2.484 -2.477,2.484 -1.371,0 -2.484,-1.117 -2.484,-2.484 0,-1.371 1.113,-2.477 2.484,-2.477" /><path
         id="path19795"
         style="fill:#000000;fill-opacity:1;fill-rule:evenodd;stroke:none"
         d="m 76.133,33.605 c 1.375,0 2.484,1.118 2.484,2.485 0,1.371 -1.109,2.48 -2.484,2.48 -1.371,0 -2.477,-1.109 -2.477,-2.48 0,-1.367 1.106,-2.485 2.477,-2.485" /><path
         id="path19797"
         style="fill:#000000;fill-opacity:1;fill-rule:evenodd;stroke:none"
         d="m 76.527,25.527 c 1.371,0 2.477,1.114 2.477,2.485 0,1.367 -1.106,2.476 -2.477,2.476 -1.367,0 -2.484,-1.109 -2.484,-2.476 0,-1.371 1.117,-2.485 2.484,-2.485" /><path
         id="path19799"
         style="fill:#000000;fill-opacity:1;fill-rule:evenodd;stroke:none"
         d="m 75.191,17.445 c 1.368,0 2.477,1.11 2.477,2.477 0,1.371 -1.109,2.484 -2.477,2.484 -1.378,0 -2.484,-1.113 -2.484,-2.484 0,-1.367 1.106,-2.477 2.484,-2.477" /><path
         id="path19801"
         style="fill:#000000;fill-opacity:1;fill-rule:evenodd;stroke:none"
         d="m 60.059,40.453 c -1.371,0 -2.477,1.106 -2.477,2.477 0,1.367 1.106,2.484 2.477,2.484 1.371,0 2.484,-1.117 2.484,-2.484 0,-1.371 -1.113,-2.477 -2.484,-2.477" /><path
         id="path19803"
         style="fill:#000000;fill-opacity:1;fill-rule:evenodd;stroke:none"
         d="m 67.047,29.492 c -1.379,0 -2.484,1.113 -2.484,2.485 0,1.367 1.105,2.476 2.484,2.476 1.367,0 2.476,-1.109 2.476,-2.476 0,-1.372 -1.109,-2.485 -2.476,-2.485" /><path
         id="path19805"
         style="fill:#000000;fill-opacity:1;fill-rule:evenodd;stroke:none"
         d="m 59.211,25.527 c -1.375,0 -2.484,1.114 -2.484,2.485 0,1.367 1.109,2.476 2.484,2.476 1.371,0 2.484,-1.109 2.484,-2.476 0,-1.371 -1.113,-2.485 -2.484,-2.485" /><path
         id="path19807"
         style="fill:#000000;fill-opacity:1;fill-rule:evenodd;stroke:none"
         d="m 59.211,17.445 c -1.375,0 -2.484,1.11 -2.484,2.477 0,1.371 1.109,2.484 2.484,2.484 1.371,0 2.484,-1.113 2.484,-2.484 0,-1.367 -1.113,-2.477 -2.484,-2.477" /><path
         id="path19809"
         style="fill:#000000;fill-opacity:1;fill-rule:evenodd;stroke:none"
         d="m 67.047,44.559 c 1.367,0 2.476,1.117 2.476,2.484 0,1.371 -1.109,2.48 -2.476,2.48 -1.371,0 -2.484,-1.109 -2.484,-2.48 0,-1.367 1.113,-2.484 2.484,-2.484" /><path
         id="path19811"
         style="fill:#000000;fill-opacity:1;fill-rule:evenodd;stroke:none"
         d="m 67.047,12.902 c 1.367,0 2.476,1.118 2.476,2.485 0,1.371 -1.109,2.476 -2.476,2.476 -1.371,0 -2.484,-1.105 -2.484,-2.476 0,-1.367 1.113,-2.485 2.484,-2.485" /><path
         id="path19813"
         style="fill:#000000;fill-opacity:1;fill-rule:evenodd;stroke:none"
         d="m 140.383,28.73 c 1.367,0 2.484,1.118 2.484,2.485 0,1.371 -1.117,2.48 -2.484,2.48 -1.371,0 -2.485,-1.109 -2.485,-2.48 0,-1.367 1.114,-2.485 2.485,-2.485" /><path
         id="path19815"
         style="fill:#000000;fill-opacity:1;fill-rule:evenodd;stroke:none"
         d="m 132.406,20.816 c 1.367,0 2.477,1.118 2.477,2.485 0,1.371 -1.11,2.476 -2.477,2.476 -1.371,0 -2.488,-1.105 -2.488,-2.476 0,-1.367 1.117,-2.485 2.488,-2.485" /><path
         id="path19817"
         style="fill:#000000;fill-opacity:1;fill-rule:evenodd;stroke:none"
         d="m 148.375,44.559 c 1.371,0 2.477,1.117 2.477,2.484 0,1.371 -1.106,2.48 -2.477,2.48 -1.375,0 -2.484,-1.109 -2.484,-2.48 0,-1.367 1.109,-2.484 2.484,-2.484" /><path
         id="path19819"
         style="fill:#000000;fill-opacity:1;fill-rule:evenodd;stroke:none"
         d="m 140.383,44.559 c 1.367,0 2.484,1.117 2.484,2.484 0,1.371 -1.117,2.48 -2.484,2.48 -1.371,0 -2.485,-1.109 -2.485,-2.48 0,-1.367 1.114,-2.484 2.485,-2.484" /><path
         id="path19821"
         style="fill:#000000;fill-opacity:1;fill-rule:evenodd;stroke:none"
         d="m 132.406,44.559 c 1.367,0 2.477,1.117 2.477,2.484 0,1.371 -1.11,2.48 -2.477,2.48 -1.379,0 -2.488,-1.109 -2.488,-2.48 0,-1.367 1.109,-2.484 2.488,-2.484" /><path
         id="path19823"
         style="fill:#000000;fill-opacity:1;fill-rule:evenodd;stroke:none"
         d="m 140.383,12.902 c 1.367,0 2.484,1.118 2.484,2.485 0,1.371 -1.117,2.476 -2.484,2.476 -1.371,0 -2.485,-1.105 -2.485,-2.476 0,-1.367 1.114,-2.485 2.485,-2.485" /><path
         id="path19825"
         style="fill:#000000;fill-opacity:1;fill-rule:evenodd;stroke:none"
         d="m 140.383,20.816 c 1.367,0 2.484,1.118 2.484,2.485 0,1.371 -1.117,2.476 -2.484,2.476 -1.371,0 -2.485,-1.105 -2.485,-2.476 0,-1.367 1.114,-2.485 2.485,-2.485" /><path
         id="path19827"
         style="fill:#000000;fill-opacity:1;fill-rule:evenodd;stroke:none"
         d="m 140.383,36.645 c 1.367,0 2.484,1.117 2.484,2.484 0,1.371 -1.117,2.48 -2.484,2.48 -1.371,0 -2.485,-1.109 -2.485,-2.48 0,-1.367 1.114,-2.484 2.485,-2.484" /><path
         id="path19829"
         style="fill:#000000;fill-opacity:1;fill-rule:evenodd;stroke:none"
         d="m 169.102,18.016 c 1.378,0 2.484,-1.11 2.484,-2.477 0,-1.371 -1.106,-2.484 -2.484,-2.484 -1.368,0 -2.477,1.113 -2.477,2.484 0,1.367 1.109,2.477 2.477,2.477" /><path
         id="path19831"
         style="fill:#000000;fill-opacity:1;fill-rule:evenodd;stroke:none"
         d="m 40.656,40.453 c 1.367,0 2.477,1.106 2.477,2.477 0,1.367 -1.11,2.484 -2.477,2.484 -1.371,0 -2.484,-1.117 -2.484,-2.484 0,-1.371 1.113,-2.477 2.484,-2.477" /><path
         id="path19833"
         style="fill:#000000;fill-opacity:1;fill-rule:evenodd;stroke:none"
         d="m 43.133,33.605 c 1.375,0 2.484,1.118 2.484,2.485 0,1.371 -1.109,2.48 -2.484,2.48 -1.371,0 -2.477,-1.109 -2.477,-2.48 0,-1.367 1.106,-2.485 2.477,-2.485" /><path
         id="path19835"
         style="fill:#000000;fill-opacity:1;fill-rule:evenodd;stroke:none"
         d="m 43.527,25.527 c 1.371,0 2.477,1.114 2.477,2.485 0,1.367 -1.106,2.476 -2.477,2.476 -1.367,0 -2.484,-1.109 -2.484,-2.476 0,-1.371 1.117,-2.485 2.484,-2.485" /><path
         id="path19837"
         style="fill:#000000;fill-opacity:1;fill-rule:evenodd;stroke:none"
         d="m 42.191,17.445 c 1.368,0 2.477,1.11 2.477,2.477 0,1.371 -1.109,2.484 -2.477,2.484 -1.378,0 -2.484,-1.113 -2.484,-2.484 0,-1.367 1.106,-2.477 2.484,-2.477" /><path
         id="path19839"
         style="fill:#000000;fill-opacity:1;fill-rule:evenodd;stroke:none"
         d="m 27.059,40.453 c -1.371,0 -2.477,1.106 -2.477,2.477 0,1.367 1.106,2.484 2.477,2.484 1.371,0 2.484,-1.117 2.484,-2.484 0,-1.371 -1.113,-2.477 -2.484,-2.477" /><path
         id="path19841"
         style="fill:#000000;fill-opacity:1;fill-rule:evenodd;stroke:none"
         d="m 34.047,29.492 c -1.379,0 -2.484,1.113 -2.484,2.485 0,1.367 1.105,2.476 2.484,2.476 1.367,0 2.476,-1.109 2.476,-2.476 0,-1.372 -1.109,-2.485 -2.476,-2.485" /><path
         id="path19843"
         style="fill:#000000;fill-opacity:1;fill-rule:evenodd;stroke:none"
         d="m 26.211,25.527 c -1.375,0 -2.484,1.114 -2.484,2.485 0,1.367 1.109,2.476 2.484,2.476 1.371,0 2.484,-1.109 2.484,-2.476 0,-1.371 -1.113,-2.485 -2.484,-2.485" /><path
         id="path19845"
         style="fill:#000000;fill-opacity:1;fill-rule:evenodd;stroke:none"
         d="m 26.211,17.445 c -1.375,0 -2.484,1.11 -2.484,2.477 0,1.371 1.109,2.484 2.484,2.484 1.371,0 2.484,-1.113 2.484,-2.484 0,-1.367 -1.113,-2.477 -2.484,-2.477" /><path
         id="path19847"
         style="fill:#000000;fill-opacity:1;fill-rule:evenodd;stroke:none"
         d="m 34.047,44.559 c 1.367,0 2.476,1.117 2.476,2.484 0,1.371 -1.109,2.48 -2.476,2.48 -1.371,0 -2.484,-1.109 -2.484,-2.48 0,-1.367 1.113,-2.484 2.484,-2.484" /><path
         id="path19849"
         style="fill:#000000;fill-opacity:1;fill-rule:evenodd;stroke:none"
         d="m 34.047,12.902 c 1.367,0 2.476,1.118 2.476,2.485 0,1.371 -1.109,2.476 -2.476,2.476 -1.371,0 -2.484,-1.105 -2.484,-2.476 0,-1.367 1.113,-2.485 2.484,-2.485" /><path
         id="path19851"
         style="fill:#000000;fill-opacity:1;fill-rule:evenodd;stroke:none"
         d="m 104.383,28.73 c 1.367,0 2.484,1.118 2.484,2.485 0,1.371 -1.117,2.48 -2.484,2.48 -1.371,0 -2.485,-1.109 -2.485,-2.48 0,-1.367 1.114,-2.485 2.485,-2.485" /><path
         id="path19853"
         style="fill:#000000;fill-opacity:1;fill-rule:evenodd;stroke:none"
         d="m 96.406,20.816 c 1.367,0 2.477,1.118 2.477,2.485 0,1.371 -1.11,2.476 -2.477,2.476 -1.371,0 -2.488,-1.105 -2.488,-2.476 0,-1.367 1.117,-2.485 2.488,-2.485" /><path
         id="path19855"
         style="fill:#000000;fill-opacity:1;fill-rule:evenodd;stroke:none"
         d="m 112.375,44.559 c 1.371,0 2.477,1.117 2.477,2.484 0,1.371 -1.106,2.48 -2.477,2.48 -1.375,0 -2.484,-1.109 -2.484,-2.48 0,-1.367 1.109,-2.484 2.484,-2.484" /><path
         id="path19857"
         style="fill:#000000;fill-opacity:1;fill-rule:evenodd;stroke:none"
         d="m 104.383,44.559 c 1.367,0 2.484,1.117 2.484,2.484 0,1.371 -1.117,2.48 -2.484,2.48 -1.371,0 -2.485,-1.109 -2.485,-2.48 0,-1.367 1.114,-2.484 2.485,-2.484" /><path
         id="path19859"
         style="fill:#000000;fill-opacity:1;fill-rule:evenodd;stroke:none"
         d="m 96.406,44.559 c 1.367,0 2.477,1.117 2.477,2.484 0,1.371 -1.11,2.48 -2.477,2.48 -1.379,0 -2.488,-1.109 -2.488,-2.48 0,-1.367 1.109,-2.484 2.488,-2.484" /><path
         id="path19861"
         style="fill:#000000;fill-opacity:1;fill-rule:evenodd;stroke:none"
         d="m 104.383,12.902 c 1.367,0 2.484,1.118 2.484,2.485 0,1.371 -1.117,2.476 -2.484,2.476 -1.371,0 -2.485,-1.105 -2.485,-2.476 0,-1.367 1.114,-2.485 2.485,-2.485" /><path
         id="path19863"
         style="fill:#000000;fill-opacity:1;fill-rule:evenodd;stroke:none"
         d="m 104.383,20.816 c 1.367,0 2.484,1.118 2.484,2.485 0,1.371 -1.117,2.476 -2.484,2.476 -1.371,0 -2.485,-1.105 -2.485,-2.476 0,-1.367 1.114,-2.485 2.485,-2.485" /><path
         id="path19865"
         style="fill:#000000;fill-opacity:1;fill-rule:evenodd;stroke:none"
         d="m 104.383,36.645 c 1.367,0 2.484,1.117 2.484,2.484 0,1.371 -1.117,2.48 -2.484,2.48 -1.371,0 -2.485,-1.109 -2.485,-2.48 0,-1.367 1.114,-2.484 2.485,-2.484" /><path
         id="path19867"
         style="fill:#000000;fill-opacity:1;fill-rule:nonzero;stroke:none"
         d="m 234.445,363.863 c 0,0.625 0.102,1.211 0.317,1.75 0.195,0.535 0.504,1.028 0.918,1.477 0.441,0.484 0.949,0.855 1.519,1.117 0.563,0.262 1.145,0.395 1.746,0.395 1.285,0 2.344,-0.45 3.207,-1.352 0.864,-0.91 1.289,-2.043 1.289,-3.387 0,-1.242 -0.425,-2.304 -1.296,-3.175 -0.872,-0.879 -1.915,-1.313 -3.133,-1.313 -1.278,0 -2.352,0.434 -3.239,1.313 -0.886,0.871 -1.328,1.933 -1.328,3.175 m -2.984,0.094 c 0,-0.801 0.109,-1.551 0.324,-2.254 0.207,-0.715 0.524,-1.379 0.942,-1.996 0.718,-1.043 1.628,-1.852 2.707,-2.422 1.082,-0.57 2.269,-0.855 3.554,-0.855 0.965,0 1.899,0.191 2.793,0.562 0.903,0.363 1.692,0.91 2.407,1.606 0.718,0.73 1.273,1.539 1.652,2.449 0.379,0.898 0.57,1.859 0.57,2.855 0,1.036 -0.176,2.012 -0.539,2.922 -0.348,0.918 -0.879,1.723 -1.566,2.43 -0.696,0.734 -1.512,1.305 -2.446,1.699 -0.925,0.395 -1.898,0.594 -2.914,0.594 -1.074,0 -2.078,-0.192 -2.988,-0.578 -0.91,-0.387 -1.719,-0.957 -2.43,-1.715 -0.675,-0.723 -1.187,-1.531 -1.535,-2.422 -0.359,-0.894 -0.531,-1.855 -0.531,-2.875 m 21.785,-1.457 c -0.988,0.082 -1.683,0.34 -2.07,0.785 -0.399,0.434 -0.594,1.227 -0.594,2.375 v 5.602 h -2.559 v -10.985 h 2.399 v 1.266 c 0.387,-0.496 0.808,-0.855 1.266,-1.082 0.46,-0.231 0.984,-0.344 1.558,-0.344 z m 2.567,8.762 v -8.715 h -1.68 v -2.27 h 1.68 v -3.554 h 2.554 v 3.554 h 1.688 v 2.27 h -1.688 v 8.715 z m 7.136,-3.649 v 0.153 c 0,0.48 0.129,0.875 0.375,1.187 0.25,0.297 0.571,0.449 0.965,0.449 0.363,0 0.672,-0.117 0.91,-0.339 0.231,-0.231 0.356,-0.516 0.356,-0.872 0,-0.324 -0.086,-0.593 -0.262,-0.8 -0.172,-0.203 -0.48,-0.418 -0.934,-0.633 -0.254,-0.117 -0.625,-0.27 -1.117,-0.473 -0.488,-0.191 -0.804,-0.347 -0.949,-0.461 -0.41,-0.34 -0.703,-0.711 -0.902,-1.113 -0.188,-0.414 -0.286,-0.887 -0.286,-1.41 0,-0.926 0.325,-1.711 0.977,-2.344 0.648,-0.641 1.43,-0.957 2.356,-0.957 0.984,0 1.757,0.277 2.32,0.848 0.57,0.562 0.887,1.351 0.933,2.375 h -2.296 v -0.067 c 0,-0.347 -0.086,-0.617 -0.266,-0.82 -0.191,-0.199 -0.445,-0.301 -0.77,-0.301 -0.285,0 -0.523,0.102 -0.711,0.293 -0.191,0.195 -0.285,0.442 -0.285,0.735 0,0.484 0.489,0.925 1.481,1.339 0.25,0.11 0.457,0.188 0.594,0.25 0.949,0.43 1.589,0.879 1.937,1.371 0.348,0.493 0.523,1.149 0.523,1.985 0,1.023 -0.347,1.871 -1.039,2.543 -0.695,0.664 -1.566,0.996 -2.617,0.996 -1.062,0 -1.918,-0.348 -2.566,-1.059 -0.649,-0.699 -0.996,-1.656 -1.059,-2.859 z m 11.477,-7.336 v 2.27 h -1.836 v 8.715 h -2.477 v -8.715 h -1.312 v -2.27 h 1.234 v -0.3 c 0,-1.157 0.317,-2.028 0.957,-2.59 0.633,-0.567 1.606,-0.852 2.903,-0.852 0.05,0 0.136,0 0.253,0.008 0.122,0.008 0.207,0.016 0.278,0.016 v 2.293 h -0.18 c -0.578,0 -0.992,0.097 -1.246,0.277 -0.25,0.199 -0.371,0.508 -0.371,0.949 v 0.199 z m 9.285,4.274 c -0.223,-0.735 -0.586,-1.289 -1.109,-1.676 -0.516,-0.383 -1.164,-0.57 -1.946,-0.57 -0.683,0 -1.293,0.203 -1.828,0.617 -0.539,0.41 -0.902,0.957 -1.094,1.629 z m -6.063,2.027 c 0.086,0.789 0.403,1.414 0.942,1.867 0.547,0.457 1.242,0.688 2.105,0.688 0.571,0 1.082,-0.117 1.543,-0.356 0.457,-0.246 0.817,-0.578 1.082,-1.011 h 2.754 c -0.465,1.195 -1.16,2.129 -2.086,2.793 -0.925,0.656 -2.004,0.988 -3.222,0.988 -0.825,0 -1.575,-0.141 -2.262,-0.434 -0.691,-0.285 -1.309,-0.715 -1.856,-1.285 -0.511,-0.535 -0.925,-1.16 -1.21,-1.867 -0.282,-0.711 -0.426,-1.43 -0.426,-2.184 0,-0.765 0.136,-1.48 0.394,-2.16 0.262,-0.672 0.66,-1.281 1.164,-1.82 0.563,-0.594 1.196,-1.051 1.899,-1.371 0.707,-0.317 1.426,-0.481 2.187,-0.481 0.949,0 1.844,0.223 2.664,0.657 0.825,0.425 1.528,1.035 2.106,1.82 0.359,0.476 0.609,1.004 0.777,1.582 0.172,0.594 0.262,1.266 0.262,2.019 0,0.063 0,0.157 -0.008,0.278 -0.008,0.125 -0.008,0.211 -0.008,0.277 z m 12.067,1.035 v 0.153 c 0,0.48 0.129,0.875 0.375,1.187 0.242,0.297 0.57,0.449 0.957,0.449 0.371,0 0.68,-0.117 0.918,-0.339 0.23,-0.231 0.348,-0.516 0.348,-0.872 0,-0.324 -0.079,-0.593 -0.262,-0.8 -0.164,-0.203 -0.473,-0.418 -0.926,-0.633 -0.254,-0.117 -0.625,-0.27 -1.117,-0.473 -0.496,-0.191 -0.813,-0.347 -0.949,-0.461 -0.411,-0.34 -0.704,-0.711 -0.903,-1.113 -0.187,-0.414 -0.285,-0.887 -0.285,-1.41 0,-0.926 0.324,-1.711 0.977,-2.344 0.648,-0.641 1.429,-0.957 2.355,-0.957 0.985,0 1.75,0.277 2.32,0.848 0.571,0.562 0.879,1.351 0.934,2.375 h -2.293 v -0.067 c 0,-0.347 -0.09,-0.617 -0.269,-0.82 -0.192,-0.199 -0.446,-0.301 -0.77,-0.301 -0.285,0 -0.523,0.102 -0.711,0.293 -0.191,0.195 -0.285,0.442 -0.285,0.735 0,0.484 0.488,0.925 1.473,1.339 0.261,0.11 0.464,0.188 0.601,0.25 0.942,0.43 1.59,0.879 1.938,1.371 0.339,0.493 0.523,1.149 0.523,1.985 0,1.023 -0.348,1.871 -1.047,2.543 -0.687,0.664 -1.566,0.996 -2.609,0.996 -1.063,0 -1.918,-0.348 -2.567,-1.059 -0.648,-0.699 -0.996,-1.656 -1.058,-2.859 z m 7.449,3.649 v -8.715 h -1.68 v -2.27 h 1.68 v -3.554 h 2.555 v 3.554 h 1.687 v 2.27 h -1.687 v 8.715 z m 13.516,-6.711 c -0.211,-0.735 -0.586,-1.289 -1.098,-1.676 -0.516,-0.383 -1.172,-0.57 -1.949,-0.57 -0.688,0 -1.297,0.203 -1.828,0.617 -0.543,0.41 -0.903,0.957 -1.09,1.629 z m -6.051,2.027 c 0.078,0.789 0.394,1.414 0.941,1.867 0.535,0.457 1.243,0.688 2.106,0.688 0.566,0 1.082,-0.117 1.535,-0.356 0.457,-0.246 0.812,-0.578 1.082,-1.011 h 2.762 c -0.465,1.195 -1.164,2.129 -2.098,2.793 -0.926,0.656 -2,0.988 -3.219,0.988 -0.816,0 -1.566,-0.141 -2.258,-0.434 -0.687,-0.285 -1.304,-0.715 -1.859,-1.285 -0.512,-0.535 -0.918,-1.16 -1.203,-1.867 -0.285,-0.711 -0.426,-1.43 -0.426,-2.184 0,-0.765 0.133,-1.48 0.395,-2.16 0.261,-0.672 0.648,-1.281 1.164,-1.82 0.554,-0.594 1.187,-1.051 1.89,-1.371 0.715,-0.317 1.434,-0.481 2.192,-0.481 0.941,0 1.836,0.223 2.66,0.657 0.824,0.425 1.527,1.035 2.105,1.82 0.356,0.476 0.618,1.004 0.786,1.582 0.171,0.594 0.261,1.266 0.261,2.019 0,0.063 -0.011,0.157 -0.011,0.278 -0.016,0.125 -0.016,0.211 -0.016,0.277 z m 21.121,4.684 h -2.012 l -4.168,-10.985 h 2.723 l 2.555,7.297 2.644,-7.297 h 2.649 z m 13.207,-6.711 c -0.219,-0.735 -0.582,-1.289 -1.105,-1.676 -0.516,-0.383 -1.164,-0.57 -1.95,-0.57 -0.679,0 -1.289,0.203 -1.828,0.617 -0.535,0.41 -0.902,0.957 -1.09,1.629 z m -6.059,2.027 c 0.086,0.789 0.403,1.414 0.942,1.867 0.543,0.457 1.242,0.688 2.105,0.688 0.567,0 1.082,-0.117 1.543,-0.356 0.457,-0.246 0.813,-0.578 1.082,-1.011 h 2.754 c -0.465,1.195 -1.164,2.129 -2.09,2.793 -0.925,0.656 -2,0.988 -3.218,0.988 -0.817,0 -1.575,-0.141 -2.266,-0.434 -0.687,-0.285 -1.305,-0.715 -1.852,-1.285 -0.511,-0.535 -0.918,-1.16 -1.203,-1.867 -0.293,-0.711 -0.433,-1.43 -0.433,-2.184 0,-0.765 0.133,-1.48 0.402,-2.16 0.254,-0.672 0.649,-1.281 1.156,-1.82 0.563,-0.594 1.196,-1.051 1.899,-1.371 0.707,-0.317 1.433,-0.481 2.183,-0.481 0.953,0 1.844,0.223 2.668,0.657 0.825,0.425 1.528,1.035 2.106,1.82 0.355,0.476 0.609,1.004 0.785,1.582 0.172,0.594 0.254,1.266 0.254,2.019 0,0.063 0,0.157 -0.012,0.278 -0.008,0.125 -0.008,0.211 -0.008,0.277 z m 15.528,-4.078 c -0.992,0.082 -1.688,0.34 -2.074,0.785 -0.399,0.434 -0.586,1.227 -0.586,2.375 v 5.602 h -2.567 v -10.985 h 2.399 v 1.266 c 0.39,-0.496 0.808,-0.855 1.265,-1.082 0.461,-0.231 0.985,-0.344 1.563,-0.344 z m 2.562,8.762 v -8.715 h -1.679 v -2.27 h 1.679 v -3.554 h 2.555 v 3.554 h 1.687 v 2.27 h -1.687 v 8.715 z m 7.977,-12.102 h -2.492 v -2.437 h 2.492 z m -2.492,1.117 h 2.492 v 10.985 h -2.492 z m 7.226,10.985 h -2.469 v -14.539 h 2.469 v 8.644 l 3.571,-5.09 h 2.878 l -3.804,5.207 4.558,5.778 h -3.207 l -3.996,-5.586 z m 9.258,-5.586 c 0,0.926 0.309,1.699 0.926,2.316 0.609,0.625 1.363,0.934 2.25,0.934 0.805,0 1.512,-0.309 2.129,-0.934 0.609,-0.625 0.91,-1.359 0.91,-2.199 0,-0.887 -0.301,-1.652 -0.918,-2.293 -0.617,-0.652 -1.34,-0.969 -2.16,-0.969 -0.864,0 -1.602,0.301 -2.219,0.91 -0.609,0.61 -0.918,1.356 -0.918,2.235 m 6.508,5.586 v -1.352 c -0.301,0.543 -0.738,0.949 -1.293,1.211 -0.551,0.262 -1.266,0.387 -2.129,0.387 -1.621,0 -2.98,-0.555 -4.066,-1.664 -1.094,-1.106 -1.637,-2.485 -1.637,-4.129 0,-0.77 0.14,-1.504 0.41,-2.192 0.277,-0.699 0.664,-1.308 1.172,-1.828 0.547,-0.578 1.148,-1.007 1.82,-1.285 0.664,-0.277 1.406,-0.41 2.238,-0.41 0.801,0 1.489,0.125 2.067,0.395 0.578,0.261 1.035,0.668 1.394,1.21 v -1.328 h 2.493 v 10.985 z m 4.723,-14.539 h 2.492 v 14.539 h -2.492 z m 12.82,7.828 c -0.219,-0.735 -0.594,-1.289 -1.106,-1.676 -0.515,-0.383 -1.164,-0.57 -1.949,-0.57 -0.68,0 -1.289,0.203 -1.828,0.617 -0.543,0.41 -0.902,0.957 -1.09,1.629 z m -6.063,2.027 c 0.09,0.789 0.407,1.414 0.946,1.867 0.543,0.457 1.242,0.688 2.101,0.688 0.571,0 1.086,-0.117 1.547,-0.356 0.449,-0.246 0.813,-0.578 1.074,-1.011 h 2.762 c -0.465,1.195 -1.164,2.129 -2.098,2.793 -0.925,0.656 -1.992,0.988 -3.211,0.988 -0.824,0 -1.574,-0.141 -2.265,-0.434 -0.688,-0.285 -1.305,-0.715 -1.852,-1.285 -0.523,-0.535 -0.918,-1.16 -1.203,-1.867 -0.293,-0.711 -0.433,-1.43 -0.433,-2.184 0,-0.765 0.132,-1.48 0.394,-2.16 0.262,-0.672 0.648,-1.281 1.164,-1.82 0.555,-0.594 1.188,-1.051 1.899,-1.371 0.703,-0.317 1.433,-0.481 2.183,-0.481 0.949,0 1.836,0.223 2.66,0.657 0.832,0.425 1.528,1.035 2.114,1.82 0.347,0.476 0.609,1.004 0.785,1.582 0.164,0.594 0.25,1.266 0.25,2.019 0,0.063 0,0.157 -0.008,0.278 -0.008,0.125 -0.016,0.211 -0.016,0.277 z m -144.566,26.613 h -2.027 l -5.207,-14.539 h 3.039 l 3.175,9.696 3.188,-9.696 h 3.023 z m 12.844,-6.711 c -0.215,-0.734 -0.578,-1.289 -1.098,-1.667 -0.516,-0.391 -1.164,-0.579 -1.957,-0.579 -0.68,0 -1.281,0.204 -1.82,0.625 -0.547,0.411 -0.903,0.95 -1.09,1.621 z m -6.055,2.028 c 0.09,0.789 0.406,1.414 0.941,1.875 0.539,0.449 1.243,0.68 2.106,0.68 0.57,0 1.078,-0.118 1.535,-0.356 0.461,-0.238 0.824,-0.57 1.086,-1.004 h 2.754 c -0.469,1.188 -1.156,2.121 -2.09,2.785 -0.926,0.664 -2.004,0.989 -3.223,0.989 -0.812,0 -1.566,-0.133 -2.254,-0.426 -0.687,-0.293 -1.304,-0.723 -1.851,-1.289 -0.524,-0.539 -0.926,-1.157 -1.211,-1.871 -0.285,-0.711 -0.426,-1.43 -0.426,-2.184 0,-0.758 0.133,-1.48 0.395,-2.16 0.261,-0.672 0.648,-1.281 1.164,-1.82 0.554,-0.594 1.187,-1.043 1.898,-1.368 0.703,-0.316 1.434,-0.476 2.176,-0.476 0.957,0 1.844,0.215 2.668,0.648 0.824,0.43 1.527,1.039 2.105,1.821 0.356,0.476 0.618,1.003 0.782,1.589 0.175,0.586 0.261,1.262 0.261,2.02 0,0.055 -0.007,0.152 -0.015,0.269 -0.008,0.125 -0.008,0.215 -0.008,0.278 z m 15.52,-4.078 c -0.989,0.082 -1.676,0.343 -2.075,0.785 -0.386,0.441 -0.582,1.226 -0.582,2.375 v 5.601 h -2.558 v -10.984 h 2.39 v 1.266 c 0.387,-0.489 0.817,-0.856 1.266,-1.075 0.469,-0.238 0.98,-0.347 1.559,-0.347 z m 3.492,8.761 h -2.469 v -14.539 h 2.469 v 8.645 l 3.558,-5.09 h 2.883 l -3.801,5.215 4.551,5.769 h -3.195 l -3.996,-5.578 z m 15.351,-6.711 c -0.218,-0.734 -0.586,-1.289 -1.097,-1.667 -0.516,-0.391 -1.164,-0.579 -1.957,-0.579 -0.68,0 -1.289,0.204 -1.829,0.625 -0.539,0.411 -0.894,0.95 -1.082,1.621 z m -6.062,2.028 c 0.09,0.789 0.406,1.414 0.949,1.875 0.547,0.449 1.246,0.68 2.105,0.68 0.571,0 1.079,-0.118 1.536,-0.356 0.461,-0.238 0.824,-0.57 1.086,-1.004 h 2.753 c -0.464,1.188 -1.156,2.121 -2.089,2.785 -0.926,0.664 -1.993,0.989 -3.219,0.989 -0.817,0 -1.57,-0.133 -2.258,-0.426 -0.687,-0.293 -1.305,-0.723 -1.859,-1.289 -0.516,-0.539 -0.918,-1.157 -1.203,-1.871 -0.286,-0.711 -0.426,-1.43 -0.426,-2.184 0,-0.758 0.133,-1.48 0.394,-2.16 0.262,-0.672 0.649,-1.281 1.157,-1.82 0.562,-0.594 1.203,-1.043 1.898,-1.368 0.703,-0.316 1.434,-0.476 2.184,-0.476 0.957,0 1.843,0.215 2.668,0.648 0.824,0.43 1.527,1.039 2.105,1.821 0.355,0.476 0.617,1.003 0.785,1.589 0.172,0.586 0.258,1.262 0.258,2.02 0,0.055 -0.008,0.152 -0.016,0.269 -0.007,0.125 -0.007,0.215 -0.007,0.278 z m 12.918,-9.856 v 4.805 c 0.371,-0.496 0.804,-0.871 1.281,-1.105 0.484,-0.239 1.035,-0.368 1.652,-0.368 1.371,0 2.422,0.43 3.16,1.27 0.727,0.844 1.09,2.047 1.09,3.641 v 6.296 h -2.554 v -4.843 c 0,-1.504 -0.164,-2.524 -0.508,-3.063 -0.332,-0.531 -0.918,-0.797 -1.754,-0.797 -0.856,0 -1.465,0.301 -1.836,0.903 -0.375,0.601 -0.563,1.636 -0.563,3.101 v 4.699 h -2.46 v -14.539 z m 14.531,5.778 c -0.984,0.082 -1.68,0.343 -2.066,0.785 -0.395,0.441 -0.594,1.226 -0.594,2.375 v 5.601 h -2.559 v -10.984 h 2.399 v 1.266 c 0.382,-0.489 0.8,-0.856 1.269,-1.075 0.457,-0.238 0.973,-0.347 1.551,-0.347 z m 2.695,5.113 v 0.16 c 0,0.473 0.129,0.879 0.375,1.18 0.246,0.301 0.563,0.449 0.957,0.449 0.371,0 0.68,-0.109 0.918,-0.34 0.231,-0.222 0.348,-0.515 0.348,-0.863 0,-0.332 -0.086,-0.594 -0.254,-0.805 -0.172,-0.207 -0.488,-0.422 -0.934,-0.636 -0.253,-0.11 -0.625,-0.266 -1.117,-0.465 -0.496,-0.2 -0.812,-0.356 -0.957,-0.469 -0.402,-0.332 -0.695,-0.703 -0.894,-1.113 -0.188,-0.414 -0.285,-0.879 -0.285,-1.411 0,-0.917 0.324,-1.71 0.976,-2.343 0.649,-0.641 1.43,-0.957 2.356,-0.957 0.984,0 1.75,0.285 2.32,0.847 0.57,0.563 0.879,1.36 0.933,2.383 h -2.292 v -0.062 c 0,-0.36 -0.098,-0.625 -0.27,-0.832 -0.191,-0.2 -0.445,-0.301 -0.77,-0.301 -0.285,0 -0.523,0.101 -0.71,0.293 -0.192,0.199 -0.286,0.441 -0.286,0.734 0,0.485 0.489,0.926 1.473,1.348 0.262,0.101 0.457,0.18 0.602,0.246 0.949,0.426 1.589,0.875 1.937,1.375 0.348,0.484 0.524,1.141 0.524,1.973 0,1.027 -0.348,1.875 -1.047,2.546 -0.688,0.665 -1.559,0.997 -2.61,0.997 -1.062,0 -1.918,-0.348 -2.566,-1.051 -0.649,-0.715 -0.996,-1.664 -1.059,-2.867 z m 5.875,3.648 v -2.359 l 4.899,-6.25 h -4.489 v -2.375 h 7.235 v 2.746 l -4.559,5.785 h 4.86 v 2.453 z m 17.442,-6.711 c -0.223,-0.734 -0.594,-1.289 -1.106,-1.667 -0.515,-0.391 -1.164,-0.579 -1.949,-0.579 -0.68,0 -1.289,0.204 -1.828,0.625 -0.547,0.411 -0.902,0.95 -1.09,1.621 z m -6.063,2.028 c 0.09,0.789 0.406,1.414 0.942,1.875 0.539,0.449 1.242,0.68 2.105,0.68 0.57,0 1.086,-0.118 1.535,-0.356 0.461,-0.238 0.824,-0.57 1.086,-1.004 h 2.762 c -0.469,1.188 -1.164,2.121 -2.098,2.785 -0.926,0.664 -1.992,0.989 -3.222,0.989 -0.813,0 -1.567,-0.133 -2.254,-0.426 -0.688,-0.293 -1.305,-0.723 -1.852,-1.289 -0.523,-0.539 -0.926,-1.157 -1.211,-1.871 -0.285,-0.711 -0.426,-1.43 -0.426,-2.184 0,-0.758 0.133,-1.48 0.395,-2.16 0.262,-0.672 0.648,-1.281 1.164,-1.82 0.555,-0.594 1.187,-1.043 1.891,-1.368 0.711,-0.316 1.433,-0.476 2.191,-0.476 0.949,0 1.836,0.215 2.66,0.648 0.832,0.43 1.528,1.039 2.113,1.821 0.348,0.476 0.61,1.003 0.774,1.589 0.176,0.586 0.262,1.262 0.262,2.02 0,0.055 -0.008,0.152 -0.008,0.269 -0.008,0.125 -0.016,0.215 -0.016,0.278 z m 12.91,-7.418 h -2.492 v -2.438 h 2.492 z m -2.492,1.117 h 2.492 v 10.984 h -2.492 z m 12.668,3.91 c -0.308,-0.578 -0.695,-1.004 -1.18,-1.289 -0.472,-0.293 -1.035,-0.43 -1.683,-0.43 -0.871,0 -1.598,0.309 -2.176,0.934 -0.586,0.625 -0.871,1.41 -0.871,2.359 0,0.926 0.293,1.711 0.895,2.329 0.593,0.617 1.335,0.925 2.238,0.925 0.687,0 1.265,-0.144 1.726,-0.445 0.457,-0.293 0.805,-0.734 1.028,-1.336 h 2.73 c -0.34,1.344 -0.988,2.406 -1.945,3.172 -0.977,0.762 -2.137,1.141 -3.524,1.141 -0.808,0 -1.558,-0.133 -2.253,-0.426 -0.692,-0.293 -1.317,-0.723 -1.875,-1.289 -0.524,-0.532 -0.93,-1.149 -1.219,-1.871 -0.293,-0.719 -0.438,-1.438 -0.438,-2.184 0,-0.766 0.125,-1.496 0.395,-2.16 0.269,-0.672 0.66,-1.281 1.179,-1.82 0.571,-0.602 1.219,-1.067 1.942,-1.375 0.711,-0.309 1.488,-0.469 2.316,-0.469 1.34,0 2.512,0.379 3.492,1.148 0.989,0.758 1.637,1.789 1.946,3.086 z m 6.996,-7.465 v 4.805 c 0.371,-0.496 0.801,-0.871 1.281,-1.105 0.485,-0.239 1.032,-0.368 1.657,-0.368 1.367,0 2.422,0.43 3.156,1.27 0.73,0.844 1.094,2.047 1.094,3.641 v 6.296 h -2.559 v -4.843 c 0,-1.504 -0.164,-2.524 -0.496,-3.063 -0.34,-0.531 -0.926,-0.797 -1.766,-0.797 -0.855,0 -1.464,0.301 -1.836,0.903 -0.371,0.601 -0.562,1.636 -0.562,3.101 v 4.699 h -2.461 v -14.539 z m 17.461,7.828 c -0.222,-0.734 -0.586,-1.289 -1.101,-1.667 -0.516,-0.391 -1.172,-0.579 -1.954,-0.579 -0.683,0 -1.285,0.204 -1.828,0.625 -0.539,0.411 -0.902,0.95 -1.093,1.621 z m -6.062,2.028 c 0.086,0.789 0.402,1.414 0.949,1.875 0.539,0.449 1.242,0.68 2.098,0.68 0.57,0 1.082,-0.118 1.543,-0.356 0.457,-0.238 0.812,-0.57 1.082,-1.004 h 2.753 c -0.464,1.188 -1.16,2.121 -2.085,2.785 -0.93,0.664 -2.004,0.989 -3.223,0.989 -0.817,0 -1.574,-0.133 -2.262,-0.426 -0.683,-0.293 -1.308,-0.723 -1.855,-1.289 -0.512,-0.539 -0.918,-1.157 -1.203,-1.871 -0.282,-0.711 -0.434,-1.43 -0.434,-2.184 0,-0.758 0.133,-1.48 0.394,-2.16 0.27,-0.672 0.657,-1.281 1.165,-1.82 0.562,-0.594 1.195,-1.043 1.898,-1.368 0.715,-0.316 1.434,-0.476 2.187,-0.476 0.95,0 1.844,0.215 2.665,0.648 0.824,0.43 1.527,1.039 2.105,1.821 0.355,0.476 0.609,1.003 0.785,1.589 0.172,0.586 0.254,1.262 0.254,2.02 0,0.055 0,0.152 -0.008,0.269 -0.008,0.125 -0.008,0.215 -0.008,0.278 z m 12.914,-6.301 v 1.25 c 0.371,-0.496 0.801,-0.871 1.281,-1.105 0.484,-0.239 1.031,-0.368 1.656,-0.368 0.789,0 1.481,0.153 2.067,0.454 0.593,0.3 1.082,0.75 1.48,1.343 0.25,0.407 0.426,0.864 0.535,1.371 0.114,0.504 0.168,1.25 0.168,2.231 v 5.808 h -2.558 v -4.867 c 0,-1.465 -0.164,-2.476 -0.504,-3.023 -0.34,-0.547 -0.926,-0.813 -1.758,-0.813 -0.856,0 -1.465,0.301 -1.836,0.903 -0.371,0.601 -0.563,1.636 -0.563,3.101 v 4.699 h -2.468 v -10.984 z" /><path
         id="path19869"
         style="fill:#000000;fill-opacity:1;fill-rule:nonzero;stroke:none"
         d="m 302.488,175.07 v -0.039 c -19.609,0 -37.418,-7.035 -50.34,-18.402 -13.289,-11.688 -21.511,-27.961 -21.511,-46.051 h -0.039 v -0.008 h 0.039 c 0,-18.093 8.222,-34.371 21.511,-46.062 C 265.07,53.145 282.871,46.109 302.48,46.109 V 46.07 h 0.012 v 21.106 h -0.012 v -0.039 c -14.25,0 -27.121,5.051 -36.394,13.199 -8.914,7.836 -14.43,18.535 -14.43,30.234 h 0.039 v 0.008 h -0.039 c 0.008,11.688 5.516,22.391 14.422,30.223 9.281,8.152 22.152,13.211 36.41,13.211 v -0.047 z" /><path
         id="path19871"
         style="fill:#000000;fill-opacity:1;fill-rule:nonzero;stroke:none"
         d="m 400.633,175.086 h -0.008 v -0.047 c -19.609,0 -37.418,-7.027 -50.34,-18.394 -13.281,-11.688 -21.504,-27.969 -21.512,-46.051 h -0.039 v -0.008 h 0.039 c 0,-18.102 8.231,-34.379 21.52,-46.063 12.914,-11.363 30.723,-18.398 50.332,-18.398 v -0.039 h 0.008 v 21.105 h -0.008 v -0.046 c -14.262,0 -27.129,5.05 -36.406,13.207 -6.289,5.543 -10.887,12.507 -13.047,20.246 h 37.203 v 21.105 h -36.871 c 2.277,7.289 6.726,13.844 12.715,19.106 9.277,8.16 22.144,13.211 36.406,13.211 v -0.04 h 0.008 z" /><path
         id="path19873"
         style="fill:#000000;fill-opacity:1;fill-rule:nonzero;stroke:none"
         d="m 343.234,325.77 h -9.679 v -45.586 h -8.969 v -7.899 h 18.648 z" /><path
         id="path19875"
         style="fill:#000000;fill-opacity:1;fill-rule:nonzero;stroke:none"
         d="m 276.77,291.016 c 0,-3.328 0.253,-5.895 0.742,-7.7 0.5,-1.796 1.308,-3.433 2.437,-4.937 1.766,-2.422 3.871,-4.227 6.317,-5.399 2.453,-1.171 5.289,-1.765 8.507,-1.765 3.016,0 5.793,0.617 8.317,1.859 2.535,1.246 4.726,3.059 6.586,5.453 1.062,1.364 1.836,3.032 2.32,5.004 0.473,1.953 0.719,4.496 0.719,7.637 v 15.867 c 0,3.324 -0.254,5.914 -0.742,7.727 -0.5,1.828 -1.309,3.48 -2.438,4.976 -1.765,2.407 -3.855,4.188 -6.308,5.352 -2.43,1.168 -5.262,1.746 -8.524,1.746 -3.008,0 -5.777,-0.617 -8.308,-1.859 -2.536,-1.235 -4.727,-3.055 -6.586,-5.454 -1.063,-1.367 -1.829,-3.031 -2.321,-4.976 -0.472,-1.938 -0.718,-4.473 -0.718,-7.582 z m 10.066,-0.078 v 16.097 c 0,3.477 0.641,6.055 1.922,7.727 1.285,1.676 3.269,2.515 5.945,2.515 2.715,0 4.715,-0.847 6.008,-2.566 1.289,-1.715 1.937,-4.375 1.937,-7.977 v -16.562 c 0,-1.512 -0.062,-2.66 -0.191,-3.406 -0.133,-0.766 -0.348,-1.43 -0.656,-1.993 -0.735,-1.265 -1.692,-2.265 -2.91,-2.96 -1.203,-0.688 -2.582,-1.043 -4.118,-1.043 -2.636,0 -4.613,0.855 -5.949,2.554 -1.324,1.696 -1.988,4.242 -1.988,7.614" /><path
         id="path19877"
         style="fill:#000000;fill-opacity:1;fill-rule:nonzero;stroke:none"
         d="m 269.457,325.77 h -33.898 v -9.989 l 18.648,-18.148 c 1.762,-1.715 3.102,-3.41 3.988,-5.063 0.895,-1.672 1.336,-3.261 1.336,-4.773 0,-2.012 -0.609,-3.68 -1.851,-4.977 -1.227,-1.324 -2.825,-1.972 -4.774,-1.972 -2.07,0 -3.679,0.695 -4.793,2.09 -1.14,1.39 -1.703,3.363 -1.703,5.878 v 0.918 h -10.137 v -0.148 c 0,-5.508 1.543,-9.934 4.629,-13.281 3.086,-3.348 7.145,-5.008 12.203,-5.008 4.692,0 8.625,1.598 11.809,4.808 3.164,3.215 4.758,7.125 4.758,11.747 0,2.554 -0.629,5.043 -1.871,7.464 -1.25,2.43 -3.18,4.852 -5.793,7.274 l -14.371,13.547 h 21.82 z" /><path
         id="path19879"
         style="fill:#000000;fill-opacity:1;fill-rule:nonzero;stroke:none"
         d="m 245.879,214.801 h -7.621 v -14.11 h 7.621 v 2.485 h -4.891 v 3.211 h 4.891 v 2.445 h -4.891 v 3.492 h 4.891 z m 5.019,0 h -2.714 v -14.11 h 2.617 l 5.844,9.012 v -9.012 h 2.699 v 14.11 h -2.567 l -5.879,-9.293 z m 22.957,0 h -2.656 V 202.77 h -2.465 v -2.079 h 5.121 z m 14.348,0 h -9.305 v -2.637 l 5.122,-4.785 c 0.48,-0.453 0.855,-0.895 1.089,-1.34 0.246,-0.441 0.375,-0.863 0.375,-1.258 0,-0.531 -0.175,-0.972 -0.515,-1.312 -0.332,-0.348 -0.77,-0.524 -1.305,-0.524 -0.57,0 -1.016,0.192 -1.324,0.555 -0.309,0.363 -0.457,0.887 -0.457,1.551 v 0.246 h -2.785 v -0.039 c 0,-1.457 0.425,-2.629 1.273,-3.508 0.848,-0.887 1.961,-1.32 3.348,-1.32 1.289,0 2.367,0.418 3.234,1.265 0.871,0.848 1.309,1.875 1.309,3.102 0,0.672 -0.168,1.328 -0.508,1.973 -0.348,0.64 -0.879,1.273 -1.59,1.914 l -3.949,3.578 h 5.988 z m 5.621,-10.567 c 0,0.414 0.125,0.746 0.364,0.996 0.246,0.254 0.562,0.383 0.949,0.383 0.414,0 0.746,-0.129 0.972,-0.383 0.239,-0.25 0.36,-0.589 0.36,-1.035 0,-0.41 -0.129,-0.742 -0.367,-1.011 -0.243,-0.262 -0.559,-0.399 -0.942,-0.399 -0.387,0 -0.711,0.145 -0.957,0.414 -0.246,0.262 -0.379,0.61 -0.379,1.035 m -0.633,6.379 c 0,0.578 0.184,1.063 0.547,1.45 0.371,0.386 0.821,0.578 1.36,0.578 0.578,0 1.054,-0.192 1.425,-0.578 0.372,-0.387 0.563,-0.879 0.563,-1.465 0,-0.625 -0.184,-1.133 -0.547,-1.496 -0.363,-0.364 -0.848,-0.547 -1.465,-0.547 -0.57,0 -1.027,0.183 -1.375,0.562 -0.344,0.375 -0.508,0.871 -0.508,1.496 m -0.515,-3.687 c -0.504,-0.317 -0.895,-0.711 -1.172,-1.196 -0.285,-0.48 -0.418,-1.011 -0.418,-1.589 0,-1.02 0.387,-1.899 1.172,-2.637 0.781,-0.734 1.722,-1.098 2.84,-1.098 1.172,0 2.152,0.364 2.937,1.082 0.774,0.723 1.18,1.606 1.18,2.668 0,0.594 -0.145,1.125 -0.422,1.59 -0.277,0.469 -0.688,0.856 -1.234,1.18 0.777,0.394 1.355,0.887 1.734,1.472 0.379,0.594 0.562,1.29 0.562,2.098 0,1.344 -0.445,2.445 -1.332,3.309 -0.882,0.855 -2.039,1.281 -3.449,1.281 -1.32,0 -2.422,-0.438 -3.308,-1.313 -0.887,-0.878 -1.328,-1.972 -1.328,-3.277 0,-0.769 0.179,-1.441 0.546,-2.012 0.364,-0.586 0.926,-1.097 1.692,-1.558 m 16.344,-1.442 c 0,-0.703 -0.231,-1.296 -0.68,-1.796 -0.453,-0.489 -1,-0.743 -1.633,-0.743 -0.664,0 -1.219,0.231 -1.652,0.696 -0.438,0.461 -0.657,1.054 -0.657,1.765 0,0.711 0.211,1.297 0.641,1.758 0.426,0.457 0.965,0.688 1.629,0.688 0.648,0 1.195,-0.231 1.664,-0.696 0.457,-0.468 0.688,-1.023 0.688,-1.672 m -2.407,9.317 h -2.879 l 3.196,-4.805 c -0.254,0.047 -0.457,0.086 -0.617,0.113 -0.157,0.024 -0.317,0.032 -0.45,0.032 -1.164,0 -2.144,-0.461 -2.945,-1.387 -0.809,-0.926 -1.211,-2.051 -1.211,-3.387 0,-0.539 0.109,-1.094 0.324,-1.664 0.223,-0.566 0.516,-1.082 0.887,-1.535 0.516,-0.602 1.074,-1.043 1.684,-1.32 0.609,-0.278 1.316,-0.418 2.105,-0.418 0.684,0 1.324,0.117 1.926,0.363 0.601,0.246 1.129,0.602 1.597,1.066 0.458,0.461 0.817,0.985 1.067,1.571 0.254,0.593 0.375,1.191 0.375,1.8 0,0.7 -0.129,1.403 -0.406,2.114 -0.27,0.707 -0.789,1.648 -1.582,2.812 z m 13.938,-9.317 c 0,-0.703 -0.223,-1.296 -0.68,-1.796 -0.453,-0.489 -0.992,-0.743 -1.625,-0.743 -0.672,0 -1.219,0.231 -1.652,0.696 -0.446,0.461 -0.656,1.054 -0.656,1.765 0,0.711 0.21,1.297 0.64,1.758 0.426,0.457 0.965,0.688 1.629,0.688 0.648,0 1.195,-0.231 1.656,-0.696 0.457,-0.468 0.688,-1.023 0.688,-1.672 m -2.406,9.317 h -2.872 l 3.196,-4.805 c -0.254,0.047 -0.465,0.086 -0.625,0.113 -0.16,0.024 -0.309,0.032 -0.449,0.032 -1.165,0 -2.141,-0.461 -2.946,-1.387 -0.801,-0.926 -1.203,-2.051 -1.203,-3.387 0,-0.539 0.102,-1.094 0.324,-1.664 0.215,-0.566 0.508,-1.082 0.887,-1.535 0.508,-0.602 1.066,-1.043 1.676,-1.32 0.609,-0.278 1.316,-0.418 2.113,-0.418 0.684,0 1.317,0.117 1.918,0.363 0.602,0.246 1.137,0.602 1.598,1.066 0.457,0.461 0.816,0.985 1.066,1.571 0.254,0.593 0.383,1.191 0.383,1.8 0,0.7 -0.145,1.403 -0.414,2.114 -0.27,0.707 -0.789,1.648 -1.574,2.812 z m 11.714,-4.188 h -5.004 v -2.285 h 5.004 z m 8.418,4.188 h -2.66 V 202.77 h -2.461 v -2.079 h 5.121 z m 8.254,-7.543 h -2.484 v -2.668 h 2.484 z m 0,7.543 h -2.484 v -2.653 h 2.484 z m 12.172,0 h -9.305 v -2.637 l 5.122,-4.785 c 0.48,-0.453 0.843,-0.895 1.089,-1.34 0.246,-0.441 0.364,-0.863 0.364,-1.258 0,-0.531 -0.164,-0.972 -0.504,-1.312 -0.34,-0.348 -0.778,-0.524 -1.309,-0.524 -0.566,0 -1.012,0.192 -1.32,0.555 -0.309,0.363 -0.457,0.887 -0.457,1.551 v 0.246 h -2.789 v -0.039 c 0,-1.457 0.422,-2.629 1.269,-3.508 0.844,-0.887 1.961,-1.32 3.356,-1.32 1.289,0 2.363,0.418 3.234,1.265 0.871,0.848 1.309,1.875 1.309,3.102 0,0.672 -0.176,1.328 -0.516,1.973 -0.34,0.64 -0.871,1.273 -1.59,1.914 l -3.941,3.578 h 5.988 z m 4.766,-9.188 v 4.25 c 0,0.918 0.183,1.598 0.531,2.032 0.355,0.445 0.902,0.668 1.629,0.668 0.754,0 1.297,-0.223 1.656,-0.684 0.356,-0.449 0.528,-1.152 0.528,-2.098 v -4.375 c 0,-0.394 -0.016,-0.695 -0.055,-0.894 -0.031,-0.207 -0.094,-0.379 -0.172,-0.532 -0.207,-0.332 -0.469,-0.593 -0.809,-0.781 -0.324,-0.183 -0.703,-0.269 -1.125,-0.269 -0.726,0 -1.265,0.222 -1.629,0.672 -0.371,0.453 -0.554,1.117 -0.554,2.011 m -2.762,0.024 c 0,-0.887 0.07,-1.559 0.207,-2.035 0.141,-0.473 0.356,-0.911 0.672,-1.305 0.48,-0.641 1.059,-1.117 1.734,-1.426 0.672,-0.308 1.446,-0.465 2.332,-0.465 0.832,0 1.59,0.164 2.289,0.489 0.688,0.324 1.289,0.808 1.805,1.441 0.293,0.355 0.496,0.801 0.633,1.312 0.133,0.524 0.195,1.196 0.195,2.02 v 4.195 c 0,0.871 -0.07,1.551 -0.203,2.032 -0.137,0.492 -0.355,0.918 -0.664,1.316 -0.492,0.633 -1.062,1.105 -1.734,1.406 -0.664,0.317 -1.45,0.469 -2.344,0.469 -0.824,0 -1.582,-0.168 -2.277,-0.492 -0.7,-0.332 -1.301,-0.805 -1.805,-1.438 -0.293,-0.359 -0.508,-0.801 -0.633,-1.316 -0.137,-0.512 -0.207,-1.18 -0.207,-2 z m 14.301,-0.024 v 4.25 c 0,0.918 0.176,1.598 0.531,2.032 0.348,0.445 0.895,0.668 1.629,0.668 0.746,0 1.289,-0.223 1.648,-0.684 0.356,-0.449 0.528,-1.152 0.528,-2.098 v -4.375 c 0,-0.394 -0.016,-0.695 -0.047,-0.894 -0.039,-0.207 -0.094,-0.379 -0.18,-0.532 -0.199,-0.332 -0.469,-0.593 -0.801,-0.781 -0.332,-0.183 -0.703,-0.269 -1.125,-0.269 -0.726,0 -1.265,0.222 -1.636,0.672 -0.364,0.453 -0.547,1.117 -0.547,2.011 m -2.762,0.024 c 0,-0.887 0.07,-1.559 0.207,-2.035 0.133,-0.473 0.356,-0.911 0.664,-1.305 0.481,-0.641 1.067,-1.117 1.735,-1.426 0.671,-0.308 1.445,-0.465 2.339,-0.465 0.825,0 1.582,0.164 2.282,0.489 0.695,0.324 1.297,0.808 1.804,1.441 0.293,0.355 0.504,0.801 0.641,1.312 0.125,0.524 0.195,1.196 0.195,2.02 v 4.195 c 0,0.871 -0.07,1.551 -0.211,2.032 -0.136,0.492 -0.355,0.918 -0.664,1.316 -0.484,0.633 -1.062,1.105 -1.726,1.406 -0.672,0.317 -1.449,0.469 -2.344,0.469 -0.824,0 -1.59,-0.168 -2.277,-0.492 -0.7,-0.332 -1.301,-0.805 -1.813,-1.438 -0.293,-0.359 -0.5,-0.801 -0.633,-1.316 -0.136,-0.512 -0.199,-1.18 -0.199,-2 z m 15.727,9.164 h -2.828 l 5.265,-11.625 h -5.515 v -2.485 h 8.07 v 2.618 z" /><path
         id="path19881"
         style="fill:#000000;fill-opacity:1;fill-rule:nonzero;stroke:none"
         d="m 281.652,237.34 h -2.707 v -14.11 h 2.614 l 5.839,9.012 v -9.012 h 2.707 v 14.11 h -2.566 l -5.887,-9.289 z m 13.524,-8.438 h 0.324 c 0.762,0 1.332,-0.132 1.703,-0.41 0.371,-0.277 0.563,-0.687 0.563,-1.234 0,-0.531 -0.176,-0.918 -0.532,-1.172 -0.355,-0.254 -0.91,-0.379 -1.66,-0.379 h -0.398 z m 0,5.953 h 0.84 c 0.839,0 1.457,-0.144 1.843,-0.417 0.399,-0.286 0.594,-0.715 0.594,-1.309 0,-0.633 -0.203,-1.121 -0.617,-1.457 -0.41,-0.324 -1.02,-0.488 -1.82,-0.488 h -0.84 z m -2.656,2.485 v -14.11 h 3.039 c 0.617,0 1.097,0.016 1.461,0.071 0.367,0.047 0.691,0.125 0.968,0.246 0.766,0.316 1.36,0.773 1.782,1.367 0.41,0.586 0.617,1.281 0.617,2.082 0,0.664 -0.129,1.219 -0.367,1.688 -0.25,0.464 -0.61,0.812 -1.082,1.058 0.687,0.207 1.242,0.602 1.636,1.188 0.406,0.586 0.602,1.289 0.602,2.105 0,0.656 -0.117,1.274 -0.363,1.852 -0.247,0.586 -0.586,1.062 -1.02,1.449 -0.438,0.355 -0.918,0.617 -1.457,0.773 -0.531,0.153 -1.297,0.231 -2.273,0.231 z m 18.351,-9.195 v 4.25 c 0,0.918 0.184,1.605 0.531,2.043 0.348,0.441 0.895,0.664 1.629,0.664 0.746,0 1.297,-0.223 1.649,-0.68 0.355,-0.453 0.535,-1.156 0.535,-2.098 v -4.379 c 0,-0.402 -0.016,-0.695 -0.055,-0.902 -0.031,-0.195 -0.094,-0.371 -0.18,-0.52 -0.199,-0.335 -0.46,-0.593 -0.8,-0.785 -0.332,-0.183 -0.703,-0.269 -1.125,-0.269 -0.719,0 -1.266,0.222 -1.637,0.672 -0.363,0.445 -0.547,1.117 -0.547,2.004 m -2.762,0.023 c 0,-0.879 0.071,-1.551 0.207,-2.035 0.133,-0.465 0.364,-0.903 0.664,-1.297 0.489,-0.641 1.067,-1.117 1.735,-1.426 0.68,-0.308 1.445,-0.465 2.34,-0.465 0.824,0 1.582,0.164 2.281,0.489 0.695,0.324 1.297,0.808 1.812,1.441 0.286,0.355 0.497,0.801 0.633,1.313 0.125,0.523 0.196,1.195 0.196,2.019 v 4.188 c 0,0.878 -0.071,1.558 -0.204,2.043 -0.136,0.48 -0.355,0.917 -0.671,1.312 -0.485,0.633 -1.055,1.098 -1.727,1.41 -0.672,0.317 -1.449,0.457 -2.344,0.457 -0.824,0 -1.59,-0.156 -2.277,-0.484 -0.699,-0.332 -1.301,-0.805 -1.805,-1.438 -0.293,-0.367 -0.508,-0.808 -0.64,-1.316 -0.129,-0.512 -0.2,-1.188 -0.2,-2 z m 18.805,-0.145 c 0,-0.703 -0.223,-1.304 -0.672,-1.793 -0.461,-0.492 -1.008,-0.746 -1.633,-0.746 -0.671,0 -1.218,0.231 -1.652,0.696 -0.437,0.461 -0.656,1.054 -0.656,1.765 0,0.715 0.211,1.297 0.633,1.758 0.433,0.461 0.972,0.688 1.636,0.688 0.641,0 1.196,-0.227 1.657,-0.696 0.457,-0.468 0.687,-1.019 0.687,-1.672 m -2.406,9.317 h -2.883 l 3.199,-4.813 c -0.246,0.055 -0.453,0.098 -0.617,0.121 -0.16,0.024 -0.309,0.032 -0.453,0.032 -1.152,0 -2.137,-0.461 -2.941,-1.387 -0.801,-0.926 -1.211,-2.059 -1.211,-3.387 0,-0.547 0.109,-1.101 0.324,-1.668 0.222,-0.57 0.523,-1.078 0.887,-1.527 0.519,-0.602 1.074,-1.047 1.683,-1.324 0.609,-0.285 1.317,-0.426 2.113,-0.426 0.672,0 1.317,0.125 1.918,0.371 0.602,0.246 1.129,0.602 1.598,1.07 0.457,0.457 0.813,0.981 1.066,1.567 0.254,0.586 0.383,1.195 0.383,1.804 0,0.696 -0.136,1.399 -0.414,2.114 -0.269,0.703 -0.789,1.636 -1.574,2.808 z m 13.383,0 h -2.661 v -12.027 h -2.46 v -2.083 h 5.121 z m 5.105,-4.527 h 2.633 v 0.097 c 0,0.656 0.184,1.184 0.531,1.59 0.363,0.402 0.824,0.602 1.403,0.602 0.632,0 1.156,-0.223 1.55,-0.672 0.395,-0.453 0.594,-1.039 0.594,-1.758 0,-0.723 -0.223,-1.274 -0.656,-1.649 -0.446,-0.371 -1.102,-0.558 -1.965,-0.558 -0.039,0 -0.102,0.008 -0.195,0.008 -0.09,0.007 -0.161,0.015 -0.2,0.015 v -2.343 c 0.039,0 0.11,0.007 0.188,0.015 0.09,0.008 0.152,0.008 0.184,0.008 0.593,0 1.019,-0.117 1.296,-0.348 0.278,-0.23 0.414,-0.601 0.414,-1.109 0,-0.41 -0.105,-0.727 -0.324,-0.957 -0.207,-0.227 -0.508,-0.348 -0.886,-0.348 -0.348,0 -0.61,0.121 -0.801,0.356 -0.192,0.23 -0.301,0.562 -0.317,0.992 H 344 c 0,-1.141 0.34,-2.066 1.027,-2.766 0.684,-0.695 1.578,-1.043 2.692,-1.043 0.992,0 1.828,0.34 2.519,1.035 0.696,0.692 1.035,1.52 1.035,2.481 0,0.578 -0.109,1.082 -0.339,1.504 -0.223,0.426 -0.579,0.805 -1.055,1.137 0.809,0.355 1.41,0.855 1.805,1.488 0.406,0.625 0.593,1.402 0.593,2.32 0,0.61 -0.093,1.18 -0.285,1.692 -0.187,0.515 -0.488,1 -0.902,1.472 -0.481,0.555 -0.996,0.949 -1.52,1.188 -0.527,0.246 -1.179,0.355 -1.929,0.355 -1.457,0 -2.598,-0.41 -3.411,-1.258 -0.824,-0.839 -1.234,-2 -1.234,-3.48 z" /><path
         id="path19883"
         style="fill:#000000;fill-opacity:1;fill-rule:nonzero;stroke:none"
         d="m 361.406,307.93 h 9.782 v 0.351 c 0,2.442 0.675,4.41 1.968,5.907 1.352,1.5 3.059,2.234 5.203,2.234 2.348,0 4.289,-0.824 5.758,-2.5 1.469,-1.672 2.203,-3.848 2.203,-6.52 0,-2.675 -0.824,-4.73 -2.437,-6.113 -1.645,-1.379 -4.086,-2.086 -7.289,-2.086 -0.145,0 -0.379,0.031 -0.735,0.031 -0.32,0.032 -0.586,0.059 -0.734,0.059 v -8.695 c 0.148,0 0.414,0.031 0.707,0.058 0.32,0.032 0.555,0.032 0.676,0.032 2.203,0 3.789,-0.442 4.816,-1.293 1.031,-0.852 1.528,-2.235 1.528,-4.114 0,-1.527 -0.379,-2.703 -1.204,-3.554 -0.765,-0.852 -1.878,-1.293 -3.289,-1.293 -1.293,0 -2.265,0.441 -2.968,1.32 -0.707,0.851 -1.118,2.086 -1.176,3.676 h -9.078 c 0,-4.235 1.261,-7.672 3.82,-10.258 2.527,-2.582 5.848,-3.875 9.988,-3.875 3.672,0 6.789,1.262 9.344,3.848 2.586,2.554 3.848,5.64 3.848,9.195 0,2.144 -0.41,4.027 -1.262,5.582 -0.824,1.59 -2.145,3 -3.906,4.23 2.996,1.325 5.226,3.176 6.699,5.528 1.496,2.32 2.203,5.199 2.203,8.605 0,2.266 -0.355,4.379 -1.058,6.289 -0.708,1.91 -1.821,3.703 -3.352,5.465 -1.789,2.059 -3.699,3.527 -5.641,4.406 -1.968,0.91 -4.375,1.325 -7.168,1.325 -5.406,0 -9.636,-1.528 -12.664,-4.672 -3.054,-3.114 -4.582,-7.434 -4.582,-12.93 z" /></g></g></svg>