<?xml version="1.0" encoding="UTF-8" standalone="no"?>
<svg
   xmlns:dc="http://purl.org/dc/elements/1.1/"
   xmlns:cc="http://creativecommons.org/ns#"
   xmlns:rdf="http://www.w3.org/1999/02/22-rdf-syntax-ns#"
   xmlns:svg="http://www.w3.org/2000/svg"
   xmlns="http://www.w3.org/2000/svg"
   viewBox="0 0 336.61414 713.20972"
   height="713.20972"
   width="336.61414"
   xml:space="preserve"
   version="1.1"
   id="svg5146"><metadata
     id="metadata5152"><rdf:RDF><cc:Work
         rdf:about=""><dc:format>image/svg+xml</dc:format><dc:type
           rdf:resource="http://purl.org/dc/dcmitype/StillImage" /><dc:title></dc:title></cc:Work></rdf:RDF></metadata><defs
     id="defs5150" /><g
     transform="matrix(1.25,0,0,-1.25,0,713.20969)"
     id="g5154"><g
       id="g5156"><path
         id="path5158"
         style="fill:#ab2524;fill-opacity:1;fill-rule:evenodd;stroke:none"
         d="m 0,570.568 269.293,0 0,-215.434 -269.293,0 0,215.434 z" /><path
         id="path5160"
         style="fill:#ffffff;fill-opacity:1;fill-rule:evenodd;stroke:none"
         d="m 12.629,559.314 243.781,0 0,-192.758 -243.781,0 0,192.758 z" /><path
         id="path5162"
         style="fill:#000000;fill-opacity:1;fill-rule:evenodd;stroke:none"
         d="m 24.066,547.853 221.102,0 0,-170.078 -221.102,0 0,170.078 z" /><g
         transform="matrix(0,-1,1,0,0,570.56775)"
         id="g5164"><path
           id="path5166"
           style="fill:#ffffff;fill-opacity:1;fill-rule:nonzero;stroke:#000000;stroke-width:0.95191997;stroke-linecap:butt;stroke-linejoin:miter;stroke-miterlimit:4;stroke-dasharray:none;stroke-opacity:1"
           d="m 316.285,60.305 78.43,45.031 78.055,-44.813 25.527,42.657 -52.914,31.453 52.957,31.09 -25.008,42.988 -78.676,-45.68 -79.074,45.778 -24.828,-43.028 53.949,-31.199 -53.223,-31.008 24.805,-43.269 z" /></g><path
         id="path5168"
         style="fill:#ab2524;fill-opacity:1;fill-rule:evenodd;stroke:none"
         d="m 60.309,253.419 44.156,25.086 -42.344,73.422 -43.949,-25.504 42.137,-73.004 z" /><path
         id="path5170"
         style="fill:#ab2524;fill-opacity:1;fill-rule:evenodd;stroke:none"
         d="M 206.754,0.001 250.91,25.087 208.57,98.509 164.613,73.005 206.754,0.001 Z" /><path
         id="path5172"
         style="fill:#ab2524;fill-opacity:1;fill-rule:evenodd;stroke:none"
         d="M 62.07,0.001 17.914,25.087 60.258,98.509 104.207,73.005 62.07,0.001 Z" /><path
         id="path5174"
         style="fill:#ab2524;fill-opacity:1;fill-rule:evenodd;stroke:none"
         d="m 208.41,253.275 -44.156,25.086 42.344,73.425 43.953,-25.503 -42.141,-73.008 z" /><g
         transform="matrix(0.913043,0,0,-1,0,570.56775)"
         id="g5176"><path
           id="path5178"
           style="fill:none;stroke:#000000;stroke-width:0.739618;stroke-linecap:butt;stroke-linejoin:miter;stroke-miterlimit:4;stroke-dasharray:none;stroke-opacity:1"
           d="m 176.915,105.773 c 0,14.875 -13.211,26.934 -29.503,26.934 -16.291,0 -29.503,-12.059 -29.503,-26.934 0,-14.878 13.212,-26.937 29.503,-26.937 16.292,0 29.503,12.059 29.503,26.937 z" /></g><g
         transform="matrix(0.913043,0,0,-1,0,570.56775)"
         id="g5180"><path
           id="path5182"
           style="fill:#000000;fill-opacity:1;fill-rule:nonzero;stroke:#808080;stroke-width:0.90281302;stroke-linecap:butt;stroke-linejoin:miter;stroke-miterlimit:4;stroke-dasharray:none;stroke-opacity:1"
           d="m 183.431,105.773 c 0,18.161 -16.125,32.883 -36.019,32.883 -19.894,0 -36.019,-14.722 -36.019,-32.883 0,-18.164 16.125,-32.886 36.019,-32.886 19.894,0 36.019,14.722 36.019,32.886 z" /></g><g
         transform="matrix(0.913043,0,0,-1,0,570.56775)"
         id="g5184"><path
           id="path5186"
           style="fill:#ff0000;fill-opacity:1;fill-rule:nonzero;stroke:#000000;stroke-width:0.739618;stroke-linecap:butt;stroke-linejoin:miter;stroke-miterlimit:4;stroke-dasharray:none;stroke-opacity:1"
           d="m 176.915,105.773 c 0,14.875 -13.211,26.934 -29.503,26.934 -16.291,0 -29.503,-12.059 -29.503,-26.934 0,-14.878 13.212,-26.937 29.503,-26.937 16.292,0 29.503,12.059 29.503,26.937 z" /></g><g
         transform="matrix(0,1,1,0,0,570.56775)"
         id="g5188"><path
           id="path5190"
           style="fill:none;stroke:#808080;stroke-width:4.03845406;stroke-linecap:butt;stroke-linejoin:miter;stroke-miterlimit:4;stroke-dasharray:none;stroke-opacity:1"
           d="m -114.078,97.703 8.305,0.039 c 20.355,0 36.855,16.496 36.855,36.852 0,20.351 -16.5,36.851 -36.855,36.851 l -8.305,-0.011" /></g><g
         transform="matrix(0,1,1,0,0,570.56775)"
         id="g5192"><path
           id="path5194"
           style="fill:none;stroke:#6a6a6a;stroke-width:0.61880702;stroke-linecap:butt;stroke-linejoin:miter;stroke-miterlimit:4;stroke-dasharray:none;stroke-opacity:1"
           d="m -105.773,158.184 c -13.028,0 -23.59,-10.563 -23.59,-23.59 0,-13.028 10.562,-23.59 23.59,-23.59" /></g><g
         transform="matrix(0,1,1,0,0,570.56775)"
         id="g5196"><path
           id="path5198"
           style="fill:none;stroke:#6a6a6a;stroke-width:0.49266601;stroke-linecap:butt;stroke-linejoin:miter;stroke-miterlimit:4;stroke-dasharray:none;stroke-opacity:1"
           d="m -108.176,154.988 c -10.371,0 -18.781,-10.023 -18.781,-20.394 0,-10.371 8.41,-20.754 18.781,-20.754" /></g><g
         transform="matrix(0,1,1,0,0,570.56775)"
         id="g5200"><path
           id="path5202"
           style="fill:none;stroke:#6a6a6a;stroke-width:0.40384501;stroke-linecap:butt;stroke-linejoin:miter;stroke-miterlimit:4;stroke-dasharray:none;stroke-opacity:1"
           d="m -110.457,151.609 c -7.852,0 -14.219,-9.207 -14.219,-17.058 0,-7.852 6.367,-17.328 14.219,-17.328" /></g><g
         transform="matrix(0,1,1,0,0,570.56775)"
         id="g5204"><path
           id="path5206"
           style="fill:none;stroke:#6a6a6a;stroke-width:0.40384501;stroke-linecap:butt;stroke-linejoin:miter;stroke-miterlimit:4;stroke-dasharray:none;stroke-opacity:1"
           d="m -112.5,148.289 c -5.598,0 -10.133,-8.176 -10.133,-13.777 0,-5.598 4.535,-13.969 10.133,-13.969" /></g><g
         transform="matrix(0,1,1,0,0,570.56775)"
         id="g5208"><path
           id="path5210"
           style="fill:none;stroke:#6a6a6a;stroke-width:0.40384501;stroke-linecap:butt;stroke-linejoin:miter;stroke-miterlimit:4;stroke-dasharray:none;stroke-opacity:1"
           d="m -113.492,144.973 c -3.61,0 -6.535,-6.883 -6.535,-10.496 0,-3.606 2.925,-10.622 6.535,-10.622" /></g></g></g></svg>