<?xml version="1.0" encoding="UTF-8" standalone="no"?>
<svg
   xmlns:dc="http://purl.org/dc/elements/1.1/"
   xmlns:cc="http://creativecommons.org/ns#"
   xmlns:rdf="http://www.w3.org/1999/02/22-rdf-syntax-ns#"
   xmlns:svg="http://www.w3.org/2000/svg"
   xmlns="http://www.w3.org/2000/svg"
   viewBox="0 0 336.61414 713.20972"
   height="713.20972"
   width="336.61414"
   xml:space="preserve"
   version="1.1"
   id="svg6473"><metadata
     id="metadata6479"><rdf:RDF><cc:Work
         rdf:about=""><dc:format>image/svg+xml</dc:format><dc:type
           rdf:resource="http://purl.org/dc/dcmitype/StillImage" /><dc:title></dc:title></cc:Work></rdf:RDF></metadata><defs
     id="defs6477" /><g
     transform="matrix(1.25,0,0,-1.25,0,713.20969)"
     id="g6481"><g
       id="g6483"><path
         id="path6485"
         style="fill:#ab2524;fill-opacity:1;fill-rule:evenodd;stroke:none"
         d="m 0,570.568 269.293,0 0,-215.434 -269.293,0 0,215.434 z" /><path
         id="path6487"
         style="fill:#ffffff;fill-opacity:1;fill-rule:evenodd;stroke:none"
         d="m 12.629,559.314 243.781,0 0,-192.758 -243.781,0 0,192.758 z" /><path
         id="path6489"
         style="fill:#000000;fill-opacity:1;fill-rule:evenodd;stroke:none"
         d="m 24.066,547.853 221.102,0 0,-170.078 -221.102,0 0,170.078 z" /><path
         id="path6491"
         style="fill:#808080;fill-opacity:1;fill-rule:evenodd;stroke:none"
         d="m 59.133,425.423 150.781,0 0,-47.656 -150.781,0 0,47.656 z" /><path
         id="path6493"
         style="fill:#000000;fill-opacity:1;fill-rule:evenodd;stroke:none"
         d="m 59.992,424.579 149.004,0 0,-45.926 -149.004,0 0,45.926 z" /><g
         transform="matrix(0,-1,1,0,0,570.56775)"
         id="g6495"><path
           id="path6497"
           style="fill:#ffffff;fill-opacity:1;fill-rule:nonzero;stroke:#000000;stroke-width:0.95191997;stroke-linecap:butt;stroke-linejoin:miter;stroke-miterlimit:4;stroke-dasharray:none;stroke-opacity:1"
           d="m 316.285,60.305 78.43,45.031 78.055,-44.813 25.527,42.657 -52.914,31.453 52.957,31.09 -25.008,42.988 -78.676,-45.68 -79.074,45.778 -24.828,-43.028 53.949,-31.199 -53.223,-31.008 24.805,-43.269 z" /></g><path
         id="path6499"
         style="fill:#ab2524;fill-opacity:1;fill-rule:evenodd;stroke:none"
         d="m 60.309,253.419 44.156,25.086 -42.344,73.422 -43.949,-25.504 42.137,-73.004 z" /><path
         id="path6501"
         style="fill:#ab2524;fill-opacity:1;fill-rule:evenodd;stroke:none"
         d="M 206.754,0.001 250.91,25.087 208.57,98.509 164.613,73.005 206.754,0.001 Z" /><path
         id="path6503"
         style="fill:#ab2524;fill-opacity:1;fill-rule:evenodd;stroke:none"
         d="M 62.07,0.001 17.914,25.087 60.258,98.509 104.207,73.005 62.07,0.001 Z" /><path
         id="path6505"
         style="fill:#ab2524;fill-opacity:1;fill-rule:evenodd;stroke:none"
         d="m 208.41,253.275 -44.156,25.086 42.344,73.425 43.953,-25.503 -42.141,-73.008 z" /><g
         transform="matrix(0.913043,0,0,-1,0,570.56775)"
         id="g6507"><path
           id="path6509"
           style="fill:none;stroke:#000000;stroke-width:0.739618;stroke-linecap:butt;stroke-linejoin:miter;stroke-miterlimit:4;stroke-dasharray:none;stroke-opacity:1"
           d="m 176.915,105.773 c 0,14.875 -13.211,26.934 -29.503,26.934 -16.291,0 -29.503,-12.059 -29.503,-26.934 0,-14.878 13.212,-26.937 29.503,-26.937 16.292,0 29.503,12.059 29.503,26.937 z" /></g><g
         transform="matrix(0.913043,0,0,-1,0,570.56775)"
         id="g6511"><path
           id="path6513"
           style="fill:#000000;fill-opacity:1;fill-rule:nonzero;stroke:#808080;stroke-width:0.90281302;stroke-linecap:butt;stroke-linejoin:miter;stroke-miterlimit:4;stroke-dasharray:none;stroke-opacity:1"
           d="m 183.431,105.773 c 0,18.161 -16.125,32.883 -36.019,32.883 -19.894,0 -36.019,-14.722 -36.019,-32.883 0,-18.164 16.125,-32.886 36.019,-32.886 19.894,0 36.019,14.722 36.019,32.886 z" /></g><g
         transform="matrix(0.913043,0,0,-1,0,570.56775)"
         id="g6515"><path
           id="path6517"
           style="fill:#ff0000;fill-opacity:1;fill-rule:nonzero;stroke:#000000;stroke-width:0.739618;stroke-linecap:butt;stroke-linejoin:miter;stroke-miterlimit:4;stroke-dasharray:none;stroke-opacity:1"
           d="m 176.915,105.773 c 0,14.875 -13.211,26.934 -29.503,26.934 -16.291,0 -29.503,-12.059 -29.503,-26.934 0,-14.878 13.212,-26.937 29.503,-26.937 16.292,0 29.503,12.059 29.503,26.937 z" /></g><g
         transform="matrix(0,1,1,0,0,570.56775)"
         id="g6519"><path
           id="path6521"
           style="fill:none;stroke:#808080;stroke-width:4.03845406;stroke-linecap:butt;stroke-linejoin:miter;stroke-miterlimit:4;stroke-dasharray:none;stroke-opacity:1"
           d="m -114.078,97.703 8.305,0.039 c 20.355,0 36.855,16.496 36.855,36.852 0,20.351 -16.5,36.851 -36.855,36.851 l -8.305,-0.011" /></g><g
         transform="matrix(0,1,1,0,0,570.56775)"
         id="g6523"><path
           id="path6525"
           style="fill:none;stroke:#6a6a6a;stroke-width:0.61880702;stroke-linecap:butt;stroke-linejoin:miter;stroke-miterlimit:4;stroke-dasharray:none;stroke-opacity:1"
           d="m -105.773,158.184 c -13.028,0 -23.59,-10.563 -23.59,-23.59 0,-13.028 10.562,-23.59 23.59,-23.59" /></g><g
         transform="matrix(0,1,1,0,0,570.56775)"
         id="g6527"><path
           id="path6529"
           style="fill:none;stroke:#6a6a6a;stroke-width:0.49266601;stroke-linecap:butt;stroke-linejoin:miter;stroke-miterlimit:4;stroke-dasharray:none;stroke-opacity:1"
           d="m -108.176,154.988 c -10.371,0 -18.781,-10.023 -18.781,-20.394 0,-10.371 8.41,-20.754 18.781,-20.754" /></g><g
         transform="matrix(0,1,1,0,0,570.56775)"
         id="g6531"><path
           id="path6533"
           style="fill:none;stroke:#6a6a6a;stroke-width:0.40384501;stroke-linecap:butt;stroke-linejoin:miter;stroke-miterlimit:4;stroke-dasharray:none;stroke-opacity:1"
           d="m -110.457,151.609 c -7.852,0 -14.219,-9.207 -14.219,-17.058 0,-7.852 6.367,-17.328 14.219,-17.328" /></g><g
         transform="matrix(0,1,1,0,0,570.56775)"
         id="g6535"><path
           id="path6537"
           style="fill:none;stroke:#6a6a6a;stroke-width:0.40384501;stroke-linecap:butt;stroke-linejoin:miter;stroke-miterlimit:4;stroke-dasharray:none;stroke-opacity:1"
           d="m -112.5,148.289 c -5.598,0 -10.133,-8.176 -10.133,-13.777 0,-5.598 4.535,-13.969 10.133,-13.969" /></g><g
         transform="matrix(0,1,1,0,0,570.56775)"
         id="g6539"><path
           id="path6541"
           style="fill:none;stroke:#6a6a6a;stroke-width:0.40384501;stroke-linecap:butt;stroke-linejoin:miter;stroke-miterlimit:4;stroke-dasharray:none;stroke-opacity:1"
           d="m -113.492,144.973 c -3.61,0 -6.535,-6.883 -6.535,-10.496 0,-3.606 2.925,-10.622 6.535,-10.622" /></g><path
         id="path6543"
         style="fill:#808080;fill-opacity:1;fill-rule:evenodd;stroke:none"
         d="m 67.992,419.517 133.063,0 0,-34.594 -133.063,0 0,34.594 z" /><path
         id="path6545"
         style="fill:#ffe82a;fill-opacity:1;fill-rule:nonzero;stroke:none"
         d="m 75.602,406.263 4.293,-1.715 c 1.23,4.699 5.043,6.922 8.011,3.235 1.41,-1.914 1.094,-4.59 -0.726,-6.102 -0.067,-0.055 -0.133,-0.109 -0.2,-0.16 -0.054,-0.035 -0.109,-0.07 -0.16,-0.106 -3.48,-2.582 -10.558,-7.781 -10.632,-7.839 l -0.059,0 0,-0.043 -0.047,-4.438 17.25,0 0,4.738 -8.785,-0.05 c 2.148,1.566 3.422,2.496 5.012,3.652 4.105,3.035 5.214,8.98 2.179,13.09 -3.508,4.597 -8.695,4.469 -11.468,2.515 -2.774,-1.957 -3.965,-4.093 -4.668,-6.777 z" /><path
         id="path6547"
         style="fill:#ffe82a;fill-opacity:1;fill-rule:nonzero;stroke:none"
         d="m 110.781,414.001 0,-4.691 10.274,-0.082 -10.25,-15.531 -0.043,-4.602 16.062,0 0,4.555 -10.371,0 10.414,15.722 -0.043,4.629 -16.043,0 z" /><path
         id="path6549"
         style="fill:#ffe82a;fill-opacity:1;fill-rule:nonzero;stroke:none"
         d="m 132.469,410.802 c 0,0 -0.055,-8.961 -0.078,-13.117 0,-5.106 4.14,-9.246 9.246,-9.246 5.109,0 9.293,4.14 9.293,9.246 0.019,0.516 0.019,0.973 0.004,1.469 l 0,11.648 -4.758,0 c 0,0 0,-9.332 0,-13.289 0,-0.062 0.004,-0.121 0.004,-0.18 0,-0.043 -0.004,-0.086 -0.004,-0.129 l 0,-0.128 -0.008,0 c -0.137,-2.36 -2.098,-4.207 -4.473,-4.211 -2.379,0.004 -4.34,1.847 -4.476,4.211 -0.008,0.085 -0.008,0.171 -0.008,0.257 0,0.063 0.004,0.125 0.008,0.188 -0.012,4.359 0.008,13.281 0.008,13.281 l -4.758,0 z" /><path
         id="path6551"
         style="fill:#ffe82a;fill-opacity:1;fill-rule:nonzero;stroke:none"
         d="m 179.191,414.001 15.196,0 0,-4.636 -10.489,0 0,-4.504 7.29,0 0,-4.555 -7.29,0 0,-6.555 10.489,0 0,-4.656 -15.196,0 0,24.906 z" /><path
         id="path6553"
         style="fill:#ffe82a;fill-opacity:1;fill-rule:evenodd;stroke:none"
         d="m 136.262,416.908 4.66,0 0,-4.66 -4.66,0 0,4.66 z" /><path
         id="path6555"
         style="fill:#ffe82a;fill-opacity:1;fill-rule:evenodd;stroke:none"
         d="m 142.66,416.908 4.66,0 0,-4.66 -4.66,0 0,4.66 z" /><path
         id="path6557"
         style="fill:#ffe82a;fill-opacity:1;fill-rule:nonzero;stroke:none"
         d="m 165.699,414.357 c -5.109,0 -9.289,-4.141 -9.289,-9.246 -0.023,-0.516 -0.019,-0.973 -0.008,-1.469 l 0,-3.648 0.012,-0.004 c -0.008,-1.067 -0.016,-1.153 -0.023,-2.305 0,-5.106 4.14,-9.246 9.246,-9.246 5.109,0 9.293,4.14 9.289,9.246 0.012,0.238 0.004,0.457 0.004,0.68 l 0.015,0 0,4.863 -9.777,0.008 -0.031,-4.852 5.039,-0.008 c 0,-0.187 0,0.77 0,-0.863 0,-0.062 0.004,-0.121 0.004,-0.18 0,-0.043 -0.004,-0.086 -0.004,-0.129 l 0,-0.128 -0.008,0 c -0.137,-2.36 -2.098,-4.207 -4.473,-4.211 -2.379,0.004 -4.379,1.867 -4.515,4.23 -0.012,1.109 -0.02,1.578 -0.032,2.184 0.004,0.808 0.016,2.679 0.016,6.004 -0.004,0.062 -0.008,0.121 -0.008,0.179 0,0.043 0.004,0.086 0.008,0.129 l 0,0.129 0.004,0 c 0.137,2.359 1.574,4.012 3.887,4.145 2.308,0.132 4.925,-0.184 5.062,-2.547 0.008,-0.082 0.012,-0.168 0.012,-0.254 -0.004,-0.063 0.027,-0.598 0.027,-0.598 2.742,-0.015 0.457,0 4.77,-0.035 l 0.019,0.277 c 0,5.11 -4.14,7.649 -9.246,7.649 z" /></g></g></svg>