<?xml version="1.0" standalone="no"?>
<!DOCTYPE svg PUBLIC "-//W3C//DTD SVG 1.1//EN" "http://www.w3.org/Graphics/SVG/1.1/DTD/svg11.dtd">
<!--
        X/Y Verschiebung  Division Multiplikation    Drehen  Spiegeln
      XXXX.xxxxxYYYY.yyyyyDDDD.dddddMMMM.mmmmm     DDDD.ddddd   Y   X A/E
   ***************************************************************************
   Bundesanstalt fuer Strassenwesen
   RWBA-/RWB-Symbol
   Bezeichnung:
   Autohof
   Eingefuehrt durch: 
   Dreiunddreissigste Verordnung zur Aenderung strassenverkehrsrechtlicher
   Vorschriften (33. AendVStVR) vom 11. Dezember 2000
   Ausdehnung in cm:
         X_min     X_max     Y_min     Y_max
         0.0      39.875     0.0      13.0    
-->
<svg width="398.75" height="130" version="1.1" xmlns="http://www.w3.org/2000/svg">
<!--
   ***************************************************************************
      * Weisser Einsatz mit "Autohof"
-->
<path fill="white" fill-rule="evenodd" stroke="black" stroke-width="0.25" d="M0 130L0 0L398.75 0L398.75 130L0 130Z" />
<path fill="black" fill-rule="evenodd" stroke="none" d="M30.0964851826327 100L55.7615437629221 29.6623018607857H64.5416953824948L90.2067539627843 100H79.0144727773949L73.6113025499655 84.1281874569263H46.9331495520331L41.3370089593384 100H30.0964851826327ZM50.0689179875948 74.7208821502412H70.4272915230875Q68.2081323225362 68.2081323225362 66.9538249483115 64.5416953824948T64.7346657477602 57.9807029634735T62.8049620951068 52.1915920055134T60.2481047553411 44.2315644383184Q58.5596140592695 49.4417643004824 57.5465196416265 52.5292901447278T55.6168159889731 58.5596140592695T53.4458993797381 65.0241212956582T50.0689179875948 74.7208821502412ZM98.1667815299793 83.2598208132323V49.9724328049621H108.249483115093V79.8345968297726Q108.249483115093 84.9483115093039 111.04755341144 87.7463818056513T118.235699517574 90.592694693315Q122.432804962095 90.592694693315 125.230875258442 87.7946243969676T128.077188146106 79.8345968297726V49.9724328049621H138.15988973122V100.048242591316H128.077188146106V94.7415575465196H127.884217780841Q123.204686423156 100.627153687112 114.955203308063 100.627153687112Q109.021364576154 100.627153687112 103.618194348725 96.237077877326T98.1667815299793 83.2598208132323ZM151.764300482426 49.9724328049621V34.776016540317H161.84700206754V49.9724328049621H169.179875947622V57.6912474155755H161.84700206754V86.8297725706409Q161.84700206754 90.592694693315 165.416953824948 90.592694693315H169.179875947622V100.048242591316H163.921433494142Q158.662991040662 100.048242591316 155.237767057202 96.8642315644383T151.764300482426 87.7463818056513V57.6912474155755H146.747070985527V49.9724328049621H151.764300482426ZM176.175051688491 74.9620951068229Q176.175051688491 66.9055823569952 177.429359062715 62.9496898690558T181.57822191592 55.8097863542385Q183.652653342522 53.5423845623708 187.270847691247 51.4679531357684T196.822880771881 49.3935217091661Q202.611991729841 49.3935217091661 206.278428669883 51.4679531357684T212.019297036527 55.8097863542385Q214.913852515507 58.9937973811165 216.168159889731 62.9496898690558T217.422467263956 74.9620951068229Q217.422467263956 83.1633356305996 216.168159889731 87.1192281185389T212.019297036527 94.2591316333563Q209.944865609924 96.5747760165403 206.278428669883 98.6009648518263T196.822880771881 100.627153687112Q190.937284631289 100.627153687112 187.319090282564 98.6009648518263T181.57822191592 94.2591316333563Q178.68366643694 91.0751206064783 177.429359062715 87.1192281185389T176.175051688491 74.9620951068229ZM207.388008270159 75.0585802894555Q207.388008270159 69.6071674707099 206.857339765679 67.3880082701585T204.927636113025 63.1426602343212Q202.274293590627 59.4762232942798 196.822880771881 59.4762232942798Q191.274982770503 59.4762232942798 188.718125430737 63.1426602343212Q187.270847691247 65.1688490696072 186.788421778084 67.3880082701585T186.257753273604 74.9620951068229Q186.257753273604 80.4617505168849 186.740179186768 82.6809097174363T188.718125430737 86.9262577532736Q191.274982770503 90.592694693315 196.822880771881 90.592694693315Q202.274293590627 90.592694693315 204.927636113025 86.9262577532736Q206.278428669883 84.9483115093039 206.809097174363 82.7291523087526T207.388008270159 75.0585802894555ZM228.035837353549 100.048242591316V29.7587870434183H238.118538938663V55.3273604410751H238.311509303928Q242.991040661613 49.3935217091661 251.337008959338 49.3935217091661Q257.174362508615 49.3935217091661 262.577532736044 53.8318401102688T268.02894555479 66.7608545830462V100.048242591316H257.946243969676V70.2343211578222Q257.946243969676 65.1688490696072 255.148173673329 62.3225361819435T248.104755341144 59.4762232942798Q243.762922122674 59.4762232942798 240.964851826327 62.3225361819435T238.118538938663 70.2343211578222V100.048242591316H228.035837353549ZM278.594073053067 74.9620951068229Q278.594073053067 66.9055823569952 279.848380427292 62.9496898690558T283.997243280496 55.8097863542385Q286.071674707099 53.5423845623708 289.689869055824 51.4679531357684T299.241902136458 49.3935217091661Q305.031013094418 49.3935217091661 308.697450034459 51.4679531357684T314.438318401103 55.8097863542385Q317.332873880083 58.9937973811165 318.587181254307 62.9496898690558T319.841488628532 74.9620951068229Q319.841488628532 83.1633356305996 318.587181254307 87.1192281185389T314.438318401103 94.2591316333563Q312.3638869745 96.5747760165403 308.697450034459 98.6009648518263T299.241902136458 100.627153687112Q293.356305995865 100.627153687112 289.73811164714 98.6009648518263T283.997243280496 94.2591316333563Q281.102687801516 91.0751206064783 279.848380427292 87.1192281185389T278.594073053067 74.9620951068229ZM309.807029634735 75.0585802894555Q309.807029634735 69.6071674707099 309.276361130255 67.3880082701585T307.346657477602 63.1426602343212Q304.693314955203 59.4762232942798 299.241902136458 59.4762232942798Q293.694004135079 59.4762232942798 291.137146795314 63.1426602343212Q289.689869055824 65.1688490696072 289.20744314266 67.3880082701585T288.676774638181 74.9620951068229Q288.676774638181 80.4617505168849 289.159200551344 82.6809097174363T291.137146795314 86.9262577532736Q293.694004135079 90.592694693315 299.241902136458 90.592694693315Q304.693314955203 90.592694693315 307.346657477602 86.9262577532736Q308.697450034459 84.9483115093039 309.228118538939 82.7291523087526T309.807029634735 75.0585802894555ZM332.046864231564 100.048242591316V57.6912474155755H326.981392143349V49.9724328049621H332.046864231564V43.3631977946244Q332.046864231564 36.368022053756 335.906271536871 33.0875258442454T345.65127498277 29.7587870434183H352.164024810476V39.2143349414197H346.471399035148Q342.081323225362 39.2143349414197 342.081323225362 43.3631977946244V49.9724328049621H352.164024810476V57.6912474155755H342.081323225362V100.048242591316H332.046864231564ZZ" />
</svg>
