<?xml version="1.0" encoding="UTF-8" standalone="no"?>
<svg
   xmlns:dc="http://purl.org/dc/elements/1.1/"
   xmlns:cc="http://creativecommons.org/ns#"
   xmlns:rdf="http://www.w3.org/1999/02/22-rdf-syntax-ns#"
   xmlns:svg="http://www.w3.org/2000/svg"
   xmlns="http://www.w3.org/2000/svg"
   viewBox="0 0 1696.0413 639.59045"
   height="639.59045"
   width="1696.0413"
   xml:space="preserve"
   id="svg7822"
   version="1.1"><metadata
     id="metadata7828"><rdf:RDF><cc:Work
         rdf:about=""><dc:format>image/svg+xml</dc:format><dc:type
           rdf:resource="http://purl.org/dc/dcmitype/StillImage" /><dc:title></dc:title></cc:Work></rdf:RDF></metadata><defs
     id="defs7826" /><g
     transform="matrix(1.3333333,0,0,-1.3333333,0,639.59045)"
     id="g7830"><g
       id="g7832"><g
         transform="matrix(1,0,0,-1,0,479.69284)"
         id="g7834"><path
           id="path7836"
           style="fill:none;stroke:#000000;stroke-width:0.9375;stroke-linecap:butt;stroke-linejoin:miter;stroke-miterlimit:4;stroke-dasharray:none;stroke-opacity:1"
           d="m 106.484,0.469 c -18.636,0 -33.75,15.109 -33.75,33.75 v 307.5 c 0,18.64 15.114,33.75 33.75,33.75 352.504,0 705.004,0 1057.504,0 18.641,0 33.75,-15.11 33.75,-33.75 v -307.5 c 0,-18.641 -15.109,-33.75 -33.75,-33.75 -352.5,0 -705,0 -1057.504,0 z" /></g><path
         id="path7838"
         style="fill:#ffffff;fill-opacity:1;fill-rule:nonzero;stroke:none"
         d="m 106.484,479.224 c -18.636,0 -33.75,-15.109 -33.75,-33.75 v -307.5 c 0,-18.641 15.114,-33.75 33.75,-33.75 352.504,0 705.004,0 1057.504,0 18.641,0 33.75,15.109 33.75,33.75 v 307.5 c 0,18.641 -15.109,33.75 -33.75,33.75 -352.5,0 -705,0 -1057.504,0 z" /><path
         id="path7840"
         style="fill:#656565;fill-opacity:1;fill-rule:nonzero;stroke:none"
         d="m 103.867,104.185 h -2.648 v -1.312 h 2.648 z m -5.316,0 h -2.645 v -1.312 h 2.645 z m -5.309,0 h -2.644 v -1.312 h 2.644 z m -5.312,0 h -2.645 v -1.312 h 2.645 z m -4.618,0 h -3.339 v -1.312 h 3.339 z m -5.328,0 h -3.316 v -1.312 h 3.316 z m -5.308,0 h -3.321 v -1.312 h 3.321 z m -5.309,0 h -3.328 v -1.312 h 3.328 z m -5.297,0 h -3.34 v -1.312 h 3.34 z m -5.324,0 h -3.32 v -1.312 h 3.32 z m -5.297,0 h -3.34 v -1.312 h 3.34 z m -5.328,0 h -3.32 v -1.312 h 3.32 z" /><path
         id="path7842"
         style="fill:#656565;fill-opacity:1;fill-rule:nonzero;stroke:none"
         d="m 109.391,76.388 -28.356,-8.101 28.356,-8.102 -1.473,7.293 h 487.906 v 1.609 H 107.918 Z m 1051.82,0 1.477,-7.301 H 675.633 v -1.609 h 487.055 l -1.477,-7.293 28.359,8.102 z" /><path
         id="path7844"
         style="fill:#656565;fill-opacity:1;fill-rule:nonzero;stroke:none"
         d="m 1197.824,134.646 v -2.648 h 1.332 v 2.648 z m 0,-5.309 v -2.644 h 1.332 v 2.644 z m 0,-5.316 v -2.645 h 1.332 v 2.645 z m 0,-5.309 v -2.644 h 1.332 v 2.644 z m 0,-4.617 v -3.34 h 1.332 v 3.34 z m 0,-5.328 v -3.32 h 1.332 v 3.32 z m 0,-5.312 v -3.321 h 1.332 v 3.321 z m 0,-5.309 v -3.324 h 1.332 v 3.324 z m 0,-5.297 v -3.34 h 1.332 v 3.34 z m 0,-5.324 v -3.32 h 1.332 v 3.32 z m 0,-5.289 v -3.348 h 1.332 v 3.348 z m 0,-5.336 v -3.32 h 1.332 v 3.32 z m 0,-5.289 v -3.336 h 1.332 v 3.336 z m 0,-5.313 v -3.34 h 1.332 v 3.34 z m 0,-5.308 v -3.34 h 1.332 v 3.34 z m 0,-5.313 v -3.34 h 1.332 v 3.34 z m 0,-5.308 v -3.34 h 1.332 v 3.34 z m 0,-5.309 v -3.34 h 1.332 v 3.34 z m 0,-5.316 v -3.336 h 1.332 v 3.336 z m 0,-5.313 V 32.49 h 1.332 v 1.941 z" /><path
         id="path7846"
         style="fill:#656565;fill-opacity:1;fill-rule:nonzero;stroke:none"
         d="m 71.453,134.646 v -2.648 h 1.309 v 2.648 z m 0,-5.309 v -2.644 h 1.309 v 2.644 z m 0,-5.316 v -2.645 h 1.309 v 2.645 z m 0,-5.309 v -2.644 h 1.309 v 2.644 z m 0,-4.617 v -3.34 h 1.309 v 3.34 z m 0,-5.328 v -3.32 h 1.309 v 3.32 z m 0,-5.312 v -3.321 h 1.309 v 3.321 z m 0,-5.309 v -3.324 h 1.309 v 3.324 z m 0,-5.297 v -3.34 h 1.309 v 3.34 z m 0,-5.324 v -3.32 h 1.309 v 3.32 z m 0,-5.289 v -3.348 h 1.309 v 3.348 z m 0,-5.336 v -3.32 h 1.309 v 3.32 z m 0,-5.289 v -3.336 h 1.309 v 3.336 z m 0,-5.313 v -3.34 h 1.309 v 3.34 z m 0,-5.308 v -3.34 h 1.309 v 3.34 z m 0,-5.313 v -3.34 h 1.309 v 3.34 z m 0,-5.308 v -3.34 h 1.309 v 3.34 z m 0,-5.309 v -3.34 h 1.309 v 3.34 z m 0,-5.316 v -3.336 h 1.309 v 3.336 z m 0,-5.313 V 32.49 h 1.309 v 1.941 z" /><path
         id="path7848"
         style="fill:#646464;fill-opacity:1;fill-rule:nonzero;stroke:none"
         d="m 606.953,57.513 c -0.223,-0.859 -0.711,-1.293 -1.473,-1.293 -0.64,0 -1.128,0.153 -1.457,0.449 -0.324,0.309 -0.48,0.661 -0.48,1.063 0,0.195 0.031,0.422 0.098,0.68 l 4.175,15.621 -0.281,-0.243 c -0.187,-0.148 -0.383,-0.257 -0.582,-0.335 -0.199,-0.079 -0.387,-0.118 -0.562,-0.118 -0.192,0 -0.387,0.055 -0.598,0.168 -0.195,0.121 -0.387,0.274 -0.563,0.45 -0.164,0.175 -0.304,0.371 -0.414,0.593 -0.097,0.223 -0.148,0.442 -0.148,0.664 0,0.461 0.246,0.895 0.746,1.293 l 4.34,3.43 c 0.32,0.254 0.664,0.379 1.027,0.379 0.297,0 0.559,-0.043 0.778,-0.133 0.222,-0.086 0.41,-0.207 0.562,-0.359 0.16,-0.149 0.27,-0.305 0.336,-0.485 0.074,-0.175 0.113,-0.363 0.113,-0.566 0,-0.195 -0.035,-0.402 -0.101,-0.625 z" /><path
         id="path7850"
         style="fill:#646464;fill-opacity:1;fill-rule:nonzero;stroke:none"
         d="m 630.184,80.349 c 1.148,0 1.726,-0.574 1.726,-1.723 0,-1.14 -0.578,-1.707 -1.726,-1.707 h -8.946 l -1.492,-5.57 c 0.852,0.277 1.731,0.418 2.633,0.418 0.84,0 1.617,-0.156 2.324,-0.465 0.715,-0.312 1.336,-0.738 1.852,-1.293 0.531,-0.543 0.941,-1.176 1.226,-1.906 0.301,-0.73 0.449,-1.523 0.449,-2.387 0,-0.836 -0.121,-1.648 -0.363,-2.433 -0.246,-0.785 -0.582,-1.524 -1.012,-2.219 -0.433,-0.699 -0.941,-1.336 -1.523,-1.922 -0.574,-0.586 -1.203,-1.098 -1.875,-1.527 -0.676,-0.418 -1.383,-0.746 -2.121,-0.981 -0.727,-0.23 -1.457,-0.347 -2.188,-0.347 -0.66,0 -1.296,0.097 -1.906,0.285 -0.594,0.199 -1.137,0.48 -1.621,0.843 -0.476,0.368 -0.891,0.801 -1.242,1.313 -0.356,0.516 -0.621,1.09 -0.797,1.719 -0.059,0.222 -0.082,0.437 -0.082,0.648 0,0.211 0.035,0.406 0.117,0.594 0.086,0.191 0.211,0.355 0.379,0.5 0.168,0.141 0.363,0.254 0.598,0.332 0.242,0.086 0.515,0.133 0.828,0.133 0.707,0 1.195,-0.426 1.457,-1.278 0.152,-0.562 0.433,-0.984 0.828,-1.257 0.398,-0.266 0.879,-0.399 1.441,-0.399 0.418,0 0.852,0.074 1.293,0.231 0.442,0.156 0.871,0.371 1.278,0.648 0.418,0.274 0.812,0.598 1.172,0.977 0.379,0.375 0.703,0.777 0.98,1.207 0.277,0.445 0.496,0.914 0.66,1.41 0.172,0.508 0.25,1.015 0.25,1.523 0,0.785 -0.203,1.414 -0.609,1.891 -0.41,0.476 -1.008,0.711 -1.793,0.711 -0.317,0 -0.621,-0.024 -0.91,-0.067 -0.285,-0.043 -0.59,-0.125 -0.914,-0.25 -0.305,-0.109 -0.653,-0.269 -1.043,-0.48 -0.383,-0.207 -0.848,-0.477 -1.391,-0.813 -0.176,-0.109 -0.34,-0.187 -0.496,-0.246 -0.156,-0.05 -0.32,-0.082 -0.496,-0.082 -0.301,0 -0.563,0.043 -0.781,0.133 -0.219,0.086 -0.407,0.203 -0.563,0.348 -0.144,0.14 -0.25,0.304 -0.316,0.48 -0.067,0.176 -0.098,0.36 -0.098,0.547 -0.012,0.098 -0.012,0.207 0,0.317 0.024,0.109 0.051,0.226 0.086,0.347 l 2.781,10.438 c 0.176,0.906 0.746,1.359 1.707,1.359 z" /><path
         id="path7852"
         style="fill:#646464;fill-opacity:1;fill-rule:nonzero;stroke:none"
         d="m 643.125,80.349 c 0.859,0 1.648,-0.187 2.355,-0.566 0.708,-0.371 1.309,-0.907 1.805,-1.602 0.512,-0.699 0.903,-1.527 1.176,-2.488 0.277,-0.961 0.414,-2.02 0.414,-3.184 0,-1.281 -0.152,-2.574 -0.465,-3.875 -0.297,-1.293 -0.711,-2.539 -1.242,-3.742 -0.52,-1.195 -1.141,-2.316 -1.871,-3.367 -0.719,-1.047 -1.496,-1.961 -2.336,-2.731 -0.828,-0.777 -1.703,-1.39 -2.617,-1.843 -0.918,-0.442 -1.84,-0.664 -2.77,-0.664 -0.851,0 -1.629,0.183 -2.336,0.55 -0.707,0.371 -1.316,0.907 -1.82,1.59 -0.5,0.684 -0.887,1.508 -1.16,2.469 -0.278,0.973 -0.414,2.051 -0.414,3.246 0,1.262 0.144,2.535 0.445,3.828 0.297,1.293 0.707,2.539 1.227,3.727 0.519,1.207 1.136,2.336 1.859,3.383 0.715,1.05 1.488,1.964 2.316,2.75 0.84,0.785 1.719,1.398 2.633,1.839 0.918,0.454 1.852,0.68 2.801,0.68 z m 0.449,-3.496 c -0.101,0.043 -0.25,0.066 -0.449,0.066 -0.574,0 -1.172,-0.187 -1.789,-0.562 -0.617,-0.367 -1.219,-0.867 -1.805,-1.508 -0.578,-0.633 -1.121,-1.363 -1.64,-2.207 -0.508,-0.836 -0.961,-1.73 -1.36,-2.684 -0.386,-0.937 -0.695,-1.91 -0.926,-2.914 -0.222,-0.996 -0.335,-1.961 -0.335,-2.902 0,-0.66 0.054,-1.269 0.168,-1.824 0.109,-0.539 0.265,-1.004 0.46,-1.391 0.204,-0.371 0.438,-0.672 0.715,-0.894 0.289,-0.207 0.61,-0.313 0.961,-0.313 0.574,0 1.168,0.184 1.774,0.543 0.605,0.379 1.199,0.883 1.773,1.512 0.586,0.629 1.137,1.363 1.656,2.203 0.52,0.84 0.977,1.734 1.379,2.684 0.395,0.949 0.707,1.921 0.926,2.918 0.23,1.003 0.348,1.984 0.348,2.933 0,1.172 -0.164,2.141 -0.5,2.914 -0.328,0.774 -0.782,1.246 -1.356,1.426 z" /><path
         id="path7854"
         style="fill:#646464;fill-opacity:1;fill-rule:nonzero;stroke:none"
         d="m 662.414,80.349 c 0.859,0 1.645,-0.187 2.352,-0.566 0.707,-0.371 1.312,-0.907 1.808,-1.602 0.504,-0.699 0.899,-1.527 1.176,-2.488 0.273,-0.961 0.414,-2.02 0.414,-3.184 0,-1.281 -0.156,-2.574 -0.465,-3.875 -0.297,-1.293 -0.711,-2.539 -1.242,-3.742 -0.519,-1.195 -1.145,-2.316 -1.871,-3.367 -0.719,-1.047 -1.5,-1.961 -2.336,-2.731 -0.832,-0.777 -1.703,-1.39 -2.617,-1.843 -0.922,-0.442 -1.844,-0.664 -2.77,-0.664 -0.851,0 -1.629,0.183 -2.336,0.55 -0.707,0.371 -1.316,0.907 -1.824,1.59 -0.496,0.684 -0.883,1.508 -1.156,2.469 -0.281,0.973 -0.414,2.051 -0.414,3.246 0,1.262 0.144,2.535 0.445,3.828 0.297,1.293 0.707,2.539 1.227,3.727 0.515,1.207 1.136,2.336 1.851,3.383 0.719,1.05 1.496,1.964 2.324,2.75 0.836,0.785 1.719,1.398 2.633,1.839 0.918,0.454 1.848,0.68 2.801,0.68 z m 0.445,-3.496 c -0.097,0.043 -0.246,0.066 -0.445,0.066 -0.574,0 -1.172,-0.187 -1.789,-0.562 -0.621,-0.367 -1.223,-0.867 -1.809,-1.508 -0.574,-0.633 -1.121,-1.363 -1.64,-2.207 -0.508,-0.836 -0.957,-1.73 -1.356,-2.684 -0.39,-0.937 -0.699,-1.91 -0.929,-2.914 -0.223,-0.996 -0.332,-1.961 -0.332,-2.902 0,-0.66 0.054,-1.269 0.164,-1.824 0.113,-0.539 0.269,-1.004 0.465,-1.391 0.199,-0.371 0.437,-0.672 0.714,-0.894 0.286,-0.207 0.61,-0.313 0.961,-0.313 0.575,0 1.164,0.184 1.77,0.543 0.609,0.379 1.203,0.883 1.773,1.512 0.586,0.629 1.141,1.363 1.66,2.203 0.52,0.84 0.977,1.734 1.372,2.684 0.402,0.949 0.707,1.921 0.933,2.918 0.231,1.003 0.348,1.984 0.348,2.933 0,1.172 -0.164,2.141 -0.5,2.914 -0.328,0.774 -0.781,1.246 -1.36,1.426 z" /><path
         id="path7856"
         style="fill:#646464;fill-opacity:1;fill-rule:nonzero;stroke:none"
         d="m 46.273,77.115 c 0.86,-0.223 1.289,-0.715 1.289,-1.477 0,-0.64 -0.148,-1.125 -0.449,-1.457 -0.308,-0.32 -0.664,-0.48 -1.058,-0.48 -0.2,0 -0.426,0.031 -0.68,0.097 l -15.625,4.176 0.246,-0.281 c 0.145,-0.188 0.258,-0.379 0.336,-0.578 0.074,-0.2 0.113,-0.387 0.113,-0.567 0,-0.183 -0.054,-0.383 -0.168,-0.593 -0.121,-0.2 -0.269,-0.387 -0.445,-0.567 -0.176,-0.164 -0.379,-0.301 -0.598,-0.414 -0.218,-0.098 -0.441,-0.144 -0.66,-0.144 -0.465,0 -0.894,0.25 -1.293,0.742 l -3.429,4.343 c -0.258,0.321 -0.379,0.665 -0.379,1.028 0,0.297 0.043,0.558 0.129,0.777 0.089,0.219 0.21,0.41 0.363,0.563 0.144,0.156 0.305,0.265 0.48,0.332 0.18,0.078 0.367,0.117 0.563,0.117 0.203,0 0.41,-0.031 0.633,-0.098 z" /><path
         id="path7858"
         style="fill:#646464;fill-opacity:1;fill-rule:nonzero;stroke:none"
         d="m 23.434,94.865 c 0,0.859 0.191,1.644 0.566,2.351 0.375,0.707 0.91,1.309 1.605,1.805 0.696,0.508 1.524,0.902 2.489,1.18 0.957,0.273 2.019,0.414 3.183,0.414 1.282,0 2.575,-0.16 3.871,-0.465 1.293,-0.297 2.543,-0.715 3.747,-1.242 1.195,-0.52 2.316,-1.149 3.367,-1.875 1.047,-0.719 1.957,-1.496 2.73,-2.336 0.774,-0.828 1.391,-1.699 1.84,-2.617 0.441,-0.918 0.664,-1.84 0.664,-2.766 0,-0.852 -0.18,-1.633 -0.547,-2.34 -0.375,-0.707 -0.906,-1.312 -1.59,-1.82 -0.683,-0.5 -1.507,-0.883 -2.468,-1.16 -0.973,-0.278 -2.059,-0.418 -3.246,-0.418 -1.262,0 -2.54,0.152 -3.833,0.449 -1.289,0.301 -2.535,0.707 -3.726,1.226 -1.203,0.52 -2.332,1.137 -3.383,1.856 -1.047,0.719 -1.965,1.492 -2.75,2.324 -0.781,0.836 -1.394,1.715 -1.836,2.633 -0.457,0.914 -0.683,1.848 -0.683,2.801 z m 3.5,0.445 c -0.047,-0.098 -0.067,-0.25 -0.067,-0.445 0,-0.575 0.188,-1.172 0.563,-1.793 0.363,-0.617 0.867,-1.219 1.508,-1.805 0.632,-0.574 1.363,-1.121 2.203,-1.641 0.839,-0.507 1.734,-0.961 2.683,-1.359 0.942,-0.387 1.91,-0.695 2.918,-0.93 0.992,-0.218 1.961,-0.328 2.903,-0.328 0.66,0 1.269,0.055 1.82,0.164 0.539,0.11 1.004,0.266 1.39,0.465 0.375,0.199 0.672,0.438 0.895,0.711 0.211,0.289 0.316,0.609 0.316,0.965 0,0.574 -0.183,1.164 -0.55,1.769 -0.371,0.61 -0.871,1.2 -1.504,1.774 -0.629,0.586 -1.364,1.141 -2.203,1.66 -0.84,0.516 -1.735,0.977 -2.684,1.371 -0.953,0.402 -1.926,0.707 -2.918,0.93 -1.004,0.23 -1.984,0.347 -2.93,0.347 -1.172,0 -2.148,-0.164 -2.922,-0.496 -0.773,-0.332 -1.246,-0.785 -1.421,-1.359 z" /><path
         id="path7860"
         style="fill:#656565;fill-opacity:1;fill-rule:nonzero;stroke:none"
         d="m 103.543,479.693 h -2.648 v -1.313 h 2.648 z m -5.309,0 H 95.59 v -1.313 h 2.644 z m -5.316,0 h -2.645 v -1.313 h 2.645 z m -5.313,0 h -2.644 v -1.313 h 2.644 z m -4.613,0 h -3.34 v -1.313 h 3.34 z m -5.324,0 h -3.324 v -1.313 h 3.324 z m -5.316,0 h -3.321 v -1.313 h 3.321 z m -5.309,0 h -3.32 v -1.313 h 3.32 z m -5.297,0 h -3.34 v -1.313 h 3.34 z m -5.324,0 h -3.32 v -1.313 h 3.32 z m -5.289,0 h -3.344 v -1.313 h 3.344 z m -5.332,0 h -3.324 v -1.313 h 3.324 z m -5.297,0 h -3.332 v -1.313 h 3.332 z m -5.309,0 h -3.336 v -1.313 h 3.336 z m -5.308,0 h -3.344 v -1.313 h 3.344 z m -5.313,0 h -3.34 v -1.313 h 3.34 z m -5.308,0 h -3.34 v -1.313 h 3.34 z m -5.313,0 h -3.34 v -1.313 h 3.34 z m -5.308,0 h -3.34 v -1.313 h 3.34 z m -5.317,0 H 1.391 v -1.313 h 1.937 z" /><path
         id="path7862"
         style="fill:#656565;fill-opacity:1;fill-rule:nonzero;stroke:none"
         d="m 103.543,113.251 h -2.648 v -1.316 h 2.648 z m -5.309,0 H 95.59 v -1.316 h 2.644 z m -5.316,0 h -2.645 v -1.316 h 2.645 z m -5.313,0 h -2.644 v -1.316 h 2.644 z m -4.613,0 h -3.34 v -1.316 h 3.34 z m -5.324,0 h -3.324 v -1.316 h 3.324 z m -5.316,0 h -3.321 v -1.316 h 3.321 z m -5.309,0 h -3.32 v -1.316 h 3.32 z m -5.297,0 h -3.34 v -1.316 h 3.34 z m -5.324,0 h -3.32 v -1.316 h 3.32 z m -5.289,0 h -3.344 v -1.316 h 3.344 z m -5.332,0 h -3.324 v -1.316 h 3.324 z m -5.297,0 h -3.332 v -1.316 h 3.332 z m -5.309,0 h -3.336 v -1.316 h 3.336 z m -5.308,0 h -3.344 v -1.316 h 3.344 z m -5.313,0 h -3.34 v -1.316 h 3.34 z m -5.308,0 h -3.34 v -1.316 h 3.34 z m -5.313,0 h -3.34 v -1.316 h 3.34 z m -5.308,0 h -3.34 v -1.316 h 3.34 z m -5.317,0 H 1.391 v -1.316 h 1.937 z" /><path
         id="path7864"
         style="fill:#656565;fill-opacity:1;fill-rule:nonzero;stroke:none"
         d="m 12.082,473.693 -8.102,-28.36 7.301,1.481 V 326.302 h 1.606 v 120.512 l 7.297,-1.481 z M 11.281,263.013 V 142.505 l -7.301,1.473 8.102,-28.359 8.102,28.359 -7.297,-1.473 v 120.508 z" /><path
         id="path7866"
         style="fill:#656565;fill-opacity:1;fill-rule:nonzero;stroke:none"
         d="m 50.422,71.665 8.105,28.36 8.102,-28.36 -7.297,1.477 V 58.095 h -1.609 v 15.047 z" /><path
         id="path7868"
         style="fill:#656565;fill-opacity:1;fill-rule:nonzero;stroke:none"
         d="m 50.422,143.982 8.105,-28.359 8.102,28.359 -7.297,-1.481 v 15.051 h -1.609 v -15.051 z" /><path
         id="path7870"
         style="fill:#646464;fill-opacity:1;fill-rule:nonzero;stroke:none"
         d="m 0,284.04 c 0,1.157 0.578,1.735 1.734,1.735 1.137,0 1.704,-0.578 1.704,-1.735 v -8.953 l 5.578,-1.5 c -0.27,0.852 -0.407,1.735 -0.407,2.641 0,0.844 0.157,1.617 0.469,2.328 0.305,0.719 0.731,1.336 1.281,1.859 0.543,0.532 1.184,0.942 1.922,1.235 0.731,0.289 1.524,0.437 2.375,0.437 0.844,0 1.664,-0.125 2.453,-0.375 0.782,-0.242 1.524,-0.578 2.219,-1.015 0.699,-0.43 1.344,-0.934 1.938,-1.516 0.586,-0.574 1.089,-1.199 1.515,-1.875 0.418,-0.68 0.746,-1.387 0.985,-2.125 0.23,-0.73 0.343,-1.461 0.343,-2.187 0,-0.668 -0.093,-1.305 -0.281,-1.907 -0.195,-0.605 -0.476,-1.148 -0.844,-1.625 -0.363,-0.48 -0.8,-0.898 -1.312,-1.25 -0.52,-0.355 -1.098,-0.621 -1.734,-0.797 -0.219,-0.062 -0.43,-0.093 -0.641,-0.093 -0.207,0 -0.406,0.039 -0.594,0.125 -0.187,0.082 -0.351,0.207 -0.5,0.375 -0.144,0.164 -0.258,0.367 -0.344,0.609 -0.082,0.238 -0.125,0.516 -0.125,0.828 0,0.707 0.43,1.192 1.282,1.453 0.562,0.157 0.98,0.43 1.25,0.828 0.273,0.407 0.406,0.891 0.406,1.454 0,0.414 -0.078,0.843 -0.234,1.281 -0.157,0.445 -0.368,0.879 -0.641,1.297 -0.281,0.414 -0.609,0.804 -0.985,1.172 -0.374,0.375 -0.781,0.695 -1.218,0.968 -0.438,0.282 -0.906,0.504 -1.406,0.672 -0.508,0.164 -1.02,0.25 -1.532,0.25 -0.781,0 -1.406,-0.211 -1.875,-0.625 -0.476,-0.406 -0.719,-1 -0.719,-1.781 0,-0.324 0.024,-0.633 0.063,-0.922 0.043,-0.281 0.121,-0.586 0.234,-0.906 0.118,-0.313 0.282,-0.664 0.5,-1.047 0.211,-0.387 0.481,-0.852 0.813,-1.391 0.105,-0.179 0.187,-0.343 0.25,-0.5 0.055,-0.156 0.078,-0.324 0.078,-0.5 0,-0.304 -0.039,-0.562 -0.125,-0.781 -0.094,-0.219 -0.211,-0.406 -0.359,-0.562 -0.145,-0.149 -0.305,-0.25 -0.485,-0.313 -0.176,-0.062 -0.359,-0.094 -0.547,-0.094 -0.093,-0.023 -0.195,-0.023 -0.312,0 -0.113,0.02 -0.227,0.047 -0.344,0.078 L 1.359,272.072 C 0.453,272.248 0,272.822 0,273.79 Z" /><path
         id="path7872"
         style="fill:#646464;fill-opacity:1;fill-rule:nonzero;stroke:none"
         d="m 0,296.986 c 0,0.863 0.188,1.648 0.562,2.359 0.376,0.707 0.915,1.313 1.61,1.813 0.699,0.5 1.531,0.882 2.5,1.156 0.961,0.281 2.023,0.422 3.187,0.422 1.282,0 2.575,-0.153 3.875,-0.453 1.305,-0.305 2.555,-0.719 3.75,-1.25 1.2,-0.524 2.325,-1.149 3.375,-1.875 1.055,-0.719 1.969,-1.5 2.75,-2.344 0.774,-0.836 1.383,-1.711 1.829,-2.625 0.449,-0.918 0.671,-1.84 0.671,-2.766 0,-0.855 -0.179,-1.636 -0.547,-2.343 -0.374,-0.711 -0.906,-1.321 -1.593,-1.829 -0.688,-0.5 -1.516,-0.89 -2.485,-1.171 -0.968,-0.274 -2.05,-0.407 -3.25,-0.407 -1.257,0 -2.535,0.149 -3.828,0.453 -1.289,0.301 -2.535,0.707 -3.734,1.219 -1.207,0.52 -2.336,1.141 -3.391,1.86 -1.051,0.726 -1.969,1.507 -2.75,2.343 -0.789,0.832 -1.41,1.707 -1.859,2.625 C 0.227,295.087 0,296.025 0,296.986 Z m 3.5,0.437 c -0.039,-0.093 -0.062,-0.242 -0.062,-0.437 0,-0.586 0.187,-1.188 0.562,-1.813 0.367,-0.617 0.871,-1.215 1.516,-1.797 0.636,-0.574 1.375,-1.121 2.218,-1.64 0.836,-0.512 1.727,-0.965 2.672,-1.36 0.949,-0.386 1.922,-0.695 2.922,-0.921 1,-0.231 1.969,-0.344 2.906,-0.344 0.668,0 1.278,0.051 1.828,0.156 0.543,0.113 1.008,0.27 1.391,0.469 0.387,0.207 0.688,0.453 0.906,0.734 0.211,0.281 0.313,0.598 0.313,0.953 0,0.571 -0.18,1.16 -0.547,1.766 -0.375,0.613 -0.875,1.207 -1.5,1.781 -0.633,0.582 -1.375,1.133 -2.219,1.656 -0.844,0.52 -1.738,0.977 -2.687,1.375 -0.957,0.407 -1.938,0.719 -2.938,0.938 -1,0.226 -1.972,0.344 -2.922,0.344 -1.175,0 -2.148,-0.168 -2.921,-0.5 -0.782,-0.325 -1.258,-0.778 -1.438,-1.36 z" /><path
         id="path7874"
         style="fill:#646464;fill-opacity:1;fill-rule:nonzero;stroke:none"
         d="m 0,316.271 c 0,0.863 0.188,1.648 0.562,2.359 0.376,0.707 0.915,1.313 1.61,1.813 0.699,0.5 1.531,0.883 2.5,1.156 0.961,0.281 2.023,0.422 3.187,0.422 1.282,0 2.575,-0.152 3.875,-0.453 1.305,-0.305 2.555,-0.719 3.75,-1.25 1.2,-0.524 2.325,-1.149 3.375,-1.875 1.055,-0.719 1.969,-1.5 2.75,-2.344 0.774,-0.836 1.383,-1.711 1.829,-2.625 0.449,-0.918 0.671,-1.84 0.671,-2.766 0,-0.855 -0.179,-1.636 -0.547,-2.343 -0.374,-0.711 -0.906,-1.321 -1.593,-1.828 -0.688,-0.5 -1.516,-0.891 -2.485,-1.172 -0.968,-0.274 -2.05,-0.407 -3.25,-0.407 -1.257,0 -2.535,0.149 -3.828,0.454 -1.289,0.3 -2.535,0.707 -3.734,1.218 -1.207,0.52 -2.336,1.141 -3.391,1.86 -1.051,0.726 -1.969,1.508 -2.75,2.343 -0.789,0.832 -1.41,1.707 -1.859,2.625 C 0.227,314.373 0,315.31 0,316.271 Z m 3.5,0.437 c -0.039,-0.093 -0.062,-0.242 -0.062,-0.437 0,-0.586 0.187,-1.188 0.562,-1.813 0.367,-0.617 0.871,-1.214 1.516,-1.796 0.636,-0.575 1.375,-1.122 2.218,-1.641 0.836,-0.512 1.727,-0.965 2.672,-1.359 0.949,-0.387 1.922,-0.696 2.922,-0.922 1,-0.231 1.969,-0.344 2.906,-0.344 0.668,0 1.278,0.051 1.828,0.156 0.543,0.113 1.008,0.27 1.391,0.469 0.387,0.207 0.688,0.453 0.906,0.734 0.211,0.282 0.313,0.598 0.313,0.953 0,0.571 -0.18,1.161 -0.547,1.766 -0.375,0.613 -0.875,1.207 -1.5,1.781 -0.633,0.582 -1.375,1.133 -2.219,1.657 -0.844,0.519 -1.738,0.976 -2.687,1.375 -0.957,0.406 -1.938,0.718 -2.938,0.937 -1,0.227 -1.972,0.344 -2.922,0.344 -1.175,0 -2.148,-0.168 -2.921,-0.5 C 4.156,317.744 3.68,317.29 3.5,316.708 Z" /><path
         id="path7876"
         style="fill:#000000;fill-opacity:1;fill-rule:nonzero;stroke:none"
         d="m 987.816,0.876 c 0,-0.277 -0.086,-0.418 -0.242,-0.418 -0.636,0 -1.41,0.04 -2.347,0.094 -0.875,0.063 -1.61,0.086 -2.188,0.086 -0.598,0 -1.312,-0.023 -2.148,-0.086 -0.875,-0.054 -1.657,-0.094 -2.293,-0.094 -0.176,0 -0.254,0.141 -0.254,0.418 0,0.239 0.078,0.356 0.222,0.375 1.129,0.145 1.887,0.34 2.286,0.618 0.418,0.281 0.613,0.816 0.613,1.593 V 3.681 L 980.871,17.626 973.93,0.24 c -0.043,-0.16 -0.184,-0.239 -0.403,-0.239 -0.218,0 -0.339,0.079 -0.379,0.239 L 966.605,16.947 965.57,3.681 c -0.019,-0.156 -0.019,-0.301 -0.019,-0.418 0,-0.656 0.219,-1.113 0.66,-1.394 0.437,-0.278 1.23,-0.473 2.363,-0.598 0.117,-0.02 0.203,-0.156 0.203,-0.395 0,-0.277 -0.086,-0.418 -0.261,-0.418 -0.5,0 -1.188,0.04 -2.047,0.094 -0.797,0.063 -1.434,0.086 -1.875,0.086 -0.477,0 -1.133,-0.023 -1.946,-0.086 -0.8,-0.054 -1.414,-0.094 -1.851,-0.094 -0.141,0 -0.203,0.137 -0.203,0.418 0,0.239 0.082,0.356 0.261,0.375 1.211,0.145 2.047,0.375 2.504,0.68 0.461,0.317 0.743,0.895 0.805,1.75 l 1.508,13.551 v 0.457 c 0,0.613 -0.219,1.074 -0.656,1.348 -0.438,0.281 -1.239,0.5 -2.411,0.636 -0.121,0 -0.195,0.145 -0.195,0.403 0,0.093 0.043,0.199 0.074,0.273 0.063,0.082 0.121,0.121 0.184,0.121 0.359,0 0.855,-0.015 1.508,-0.078 0.562,-0.062 0.98,-0.082 1.238,-0.082 0.316,0 0.813,0.02 1.43,0.082 0.64,0.063 1.136,0.078 1.492,0.078 l 6.168,-16.015 6.41,16.015 c 0.375,0 0.871,-0.015 1.508,-0.078 0.558,-0.062 0.996,-0.082 1.332,-0.082 0.398,0 0.875,0.02 1.449,0.082 0.582,0.063 1.098,0.078 1.516,0.078 0.16,0 0.258,-0.121 0.258,-0.394 0,-0.258 -0.079,-0.403 -0.239,-0.403 -1.117,-0.136 -1.89,-0.336 -2.304,-0.617 -0.403,-0.273 -0.598,-0.816 -0.598,-1.586 v -0.238 l 0.656,-13.551 c 0.043,-0.656 0.137,-1.137 0.317,-1.394 0.179,-0.278 0.48,-0.497 0.918,-0.661 0.437,-0.156 1.054,-0.273 1.847,-0.375 0.156,-0.019 0.242,-0.136 0.242,-0.375 z" /><path
         id="path7878"
         style="fill:#000000;fill-opacity:1;fill-rule:nonzero;stroke:none"
         d="m 998.695,0.158 c -0.539,0 -1.011,0.121 -1.414,0.394 -0.398,0.262 -0.652,0.625 -0.816,1.063 -1.012,-1.063 -2.363,-1.575 -4.016,-1.575 -0.875,0 -1.566,0.258 -2.109,0.774 -0.555,0.559 -0.836,1.219 -0.836,2.012 0,1.972 2.328,3.562 7.004,4.773 l 0.078,2.25 v 0.074 c 0,0.68 -0.176,1.239 -0.516,1.633 -0.336,0.422 -0.777,0.621 -1.351,0.621 -0.559,0 -1.039,-0.144 -1.434,-0.418 -0.398,-0.261 -0.597,-0.597 -0.617,-1.019 0,-0.614 -0.16,-1.09 -0.48,-1.453 -0.313,-0.332 -0.715,-0.512 -1.235,-0.512 -0.312,0 -0.551,0.094 -0.75,0.273 -0.199,0.184 -0.281,0.442 -0.281,0.742 0,0.735 0.66,1.512 2.016,2.325 1.328,0.793 2.578,1.211 3.734,1.211 1.035,0 1.871,-0.293 2.508,-0.911 0.656,-0.617 0.976,-1.453 0.976,-2.492 V 9.767 L 998.957,3.263 V 3.162 c 0,-1.012 0.313,-1.512 0.973,-1.512 0.316,0 0.679,0.176 1.117,0.582 l 0.094,0.019 c 0.082,0 0.144,-0.062 0.222,-0.164 0.059,-0.093 0.102,-0.199 0.102,-0.316 0,-0.281 -0.305,-0.617 -0.879,-1.012 -0.574,-0.402 -1.211,-0.601 -1.887,-0.601 z m -2.23,6.468 C 993.68,5.99 992.27,4.955 992.27,3.482 c 0,-1.356 0.542,-2.031 1.593,-2.031 0.492,0 0.996,0.125 1.492,0.363 0.497,0.273 0.836,0.574 1.016,0.949 z" /><path
         id="path7880"
         style="fill:#000000;fill-opacity:1;fill-rule:nonzero;stroke:none"
         d="m 1016.066,6.248 c 0,-1.774 -0.441,-3.262 -1.293,-4.434 -0.859,-1.199 -1.89,-1.774 -3.085,-1.774 -0.735,0 -1.333,0.239 -1.79,0.731 -0.457,0.48 -0.699,1.117 -0.699,1.914 0,0.539 0.141,0.977 0.399,1.313 0.277,0.32 0.632,0.5 1.093,0.5 0.344,0 0.641,-0.125 0.875,-0.336 0.239,-0.243 0.379,-0.543 0.379,-0.875 0,-0.418 -0.218,-0.762 -0.613,-1 -0.297,-0.161 -0.465,-0.356 -0.465,-0.579 0,-0.496 0.242,-0.753 0.699,-0.753 1.075,0 1.618,1.769 1.618,5.293 0,1.851 -0.403,3.402 -1.2,4.636 -0.793,1.25 -1.824,1.867 -3.121,1.867 -0.16,0 -0.238,0.141 -0.238,0.399 0,0.277 0.078,0.418 0.238,0.418 0.953,0 1.711,0.324 2.266,0.992 0.559,0.656 0.836,1.555 0.836,2.672 0,2.062 -0.68,3.101 -2.043,3.101 -0.723,0 -1.36,-0.46 -1.934,-1.351 -0.578,-0.918 -0.855,-1.953 -0.855,-3.106 V 3.681 c 0,-0.918 0.101,-1.531 0.301,-1.855 0.199,-0.293 0.593,-0.493 1.191,-0.575 0.156,-0.019 0.238,-0.136 0.238,-0.375 0,-0.277 -0.082,-0.418 -0.238,-0.418 -0.398,0 -0.836,0.04 -1.355,0.094 -0.559,0.063 -1.075,0.086 -1.551,0.086 -0.477,0 -1.031,-0.023 -1.668,-0.086 -0.563,-0.054 -1.043,-0.094 -1.438,-0.094 -0.156,0 -0.238,0.141 -0.238,0.418 0,0.239 0.082,0.356 0.238,0.375 0.817,0.122 1.336,0.301 1.575,0.598 0.238,0.277 0.355,0.895 0.355,1.832 v 6.879 c 0,0.285 -0.117,0.402 -0.355,0.402 h -1.454 c -0.195,0 -0.3,0.141 -0.3,0.379 0,0.258 0.105,0.399 0.261,0.442 1.235,0.269 1.848,0.535 1.848,0.793 0,2.523 0.539,4.613 1.633,6.281 1.07,1.672 2.488,2.508 4.219,2.508 1.191,0 2.187,-0.36 2.945,-1.09 0.797,-0.719 1.172,-1.617 1.172,-2.649 0,-1.91 -1.129,-3.339 -3.403,-4.3 1.453,-0.395 2.649,-1.274 3.563,-2.598 0.937,-1.34 1.394,-2.828 1.394,-4.48 z" /><path
         id="path7882"
         style="fill:#000000;fill-opacity:1;fill-rule:nonzero;stroke:none"
         d="m 1029.715,8.63 c 0,-0.25 -0.184,-0.394 -0.52,-0.394 h -7.879 c -0.062,-0.516 -0.097,-1.055 -0.097,-1.61 0,-1.554 0.375,-2.726 1.093,-3.562 0.739,-0.832 1.79,-1.25 3.141,-1.25 0.68,0 1.371,0.195 2.051,0.551 0.699,0.359 1.25,0.836 1.672,1.394 l 0.082,0.039 c 0.074,0 0.156,-0.062 0.234,-0.179 0.078,-0.094 0.141,-0.215 0.141,-0.356 0,-0.199 -0.321,-0.637 -0.938,-1.273 -0.597,-0.637 -1.273,-1.114 -1.984,-1.453 -0.723,-0.34 -1.473,-0.497 -2.273,-0.497 -1.727,0 -3.184,0.637 -4.356,1.891 -1.172,1.27 -1.773,2.824 -1.773,4.672 0,1.871 0.582,3.465 1.734,4.773 1.156,1.293 2.629,1.95 4.395,1.95 1.492,0 2.75,-0.493 3.742,-1.473 1.015,-0.949 1.535,-2.023 1.535,-3.223 z m -2.625,1.278 c 0,0.715 -0.242,1.308 -0.742,1.789 -0.493,0.48 -1.129,0.718 -1.91,0.718 -0.735,0 -1.372,-0.32 -1.922,-0.937 -0.543,-0.617 -0.899,-1.434 -1.102,-2.441 l 4,0.117 c 0.617,0.015 1.035,0.078 1.297,0.176 0.258,0.101 0.379,0.3 0.379,0.578 z" /><path
         id="path7884"
         style="fill:#000000;fill-opacity:1;fill-rule:nonzero;stroke:none"
         d="m 1043.641,18.263 c 0,-0.394 -0.161,-0.754 -0.461,-1.055 -0.278,-0.3 -0.637,-0.437 -1.032,-0.437 -0.418,0 -0.777,0.137 -1.078,0.437 -0.277,0.301 -0.437,0.661 -0.437,1.055 0,0.418 0.16,0.774 0.437,1.074 0.282,0.282 0.637,0.414 1.078,0.414 0.395,0 0.754,-0.132 1.032,-0.414 0.3,-0.3 0.461,-0.656 0.461,-1.074 z m 2.011,-17.387 c 0,-0.277 -0.082,-0.418 -0.222,-0.418 -0.403,0 -0.914,0.04 -1.512,0.094 -0.699,0.063 -1.273,0.086 -1.75,0.086 -0.48,0 -1.055,-0.023 -1.73,-0.086 -0.598,-0.054 -1.098,-0.094 -1.497,-0.094 -0.156,0 -0.238,0.141 -0.238,0.418 0,0.239 0.082,0.356 0.238,0.375 0.813,0.122 1.336,0.301 1.575,0.598 0.238,0.277 0.355,0.895 0.355,1.832 v 5.336 c 0,0.773 -0.098,1.27 -0.301,1.508 -0.195,0.234 -0.613,0.398 -1.289,0.476 -0.14,0 -0.215,0.122 -0.215,0.379 0,0.219 0.075,0.34 0.215,0.34 1.016,0.258 1.832,0.531 2.489,0.813 0.636,0.3 1.031,0.539 1.21,0.738 0.082,0.117 0.2,0.18 0.301,0.18 0.274,0 0.418,-0.082 0.418,-0.243 -0.16,-2.144 -0.238,-3.82 -0.238,-4.992 V 3.681 c 0,-0.937 0.117,-1.555 0.336,-1.832 0.258,-0.297 0.797,-0.476 1.633,-0.598 0.14,-0.019 0.222,-0.136 0.222,-0.375 V 0.873 Z" /><path
         id="path7886"
         style="fill:#000000;fill-opacity:1;fill-rule:nonzero;stroke:none"
         d="m 1061.645,0.876 c 0,-0.277 -0.079,-0.418 -0.239,-0.418 -0.383,0 -0.836,0.04 -1.39,0.094 -0.618,0.063 -1.176,0.086 -1.633,0.086 -0.477,0 -1.039,-0.023 -1.653,-0.086 -0.574,-0.054 -1.054,-0.094 -1.433,-0.094 -0.156,0 -0.238,0.141 -0.238,0.418 0,0.239 0.082,0.356 0.238,0.375 0.66,0.082 1.094,0.262 1.293,0.563 0.219,0.297 0.316,0.93 0.316,1.867 v 4.813 c 0,1.074 -0.215,1.871 -0.633,2.367 -0.418,0.5 -1.07,0.738 -1.949,0.738 -0.558,0 -1.051,-0.101 -1.492,-0.32 -0.418,-0.199 -0.875,-0.574 -1.355,-1.114 V 3.681 c 0,-0.937 0.105,-1.57 0.3,-1.867 0.2,-0.301 0.637,-0.481 1.313,-0.563 0.137,-0.019 0.215,-0.136 0.215,-0.375 0,-0.277 -0.078,-0.418 -0.215,-0.418 -0.399,0 -0.875,0.04 -1.453,0.094 -0.617,0.063 -1.153,0.086 -1.633,0.086 -0.457,0 -0.992,-0.023 -1.609,-0.086 -0.579,-0.054 -1.051,-0.094 -1.438,-0.094 -0.156,0 -0.234,0.141 -0.234,0.418 0,0.239 0.078,0.356 0.234,0.375 0.82,0.122 1.355,0.301 1.598,0.598 0.238,0.301 0.355,0.914 0.355,1.832 v 5.336 c 0,0.773 -0.098,1.27 -0.297,1.508 -0.199,0.234 -0.633,0.398 -1.312,0.476 -0.164,0 -0.239,0.122 -0.239,0.379 0,0.219 0.075,0.34 0.239,0.34 0.953,0.238 1.73,0.516 2.371,0.793 0.633,0.32 1.031,0.559 1.187,0.758 0.098,0.117 0.2,0.18 0.317,0.18 0.281,0 0.406,-0.082 0.406,-0.243 l -0.105,-1.812 c 1.375,1.293 2.671,1.93 3.843,1.93 1.309,0 2.325,-0.371 3.063,-1.11 0.734,-0.758 1.109,-1.773 1.109,-3.023 V 3.681 c 0,-0.937 0.106,-1.555 0.344,-1.832 0.238,-0.297 0.754,-0.476 1.57,-0.598 0.16,-0.019 0.239,-0.136 0.239,-0.375 V 0.873 Z" /><path
         id="path7888"
         style="fill:#000000;fill-opacity:1;fill-rule:nonzero;stroke:none"
         d="m 1096.344,0.876 c 0,-0.277 -0.063,-0.418 -0.223,-0.418 -0.637,0 -1.433,0.04 -2.348,0.094 -0.875,0.063 -1.613,0.086 -2.207,0.086 -0.578,0 -1.296,-0.023 -2.128,-0.086 -0.895,-0.054 -1.649,-0.094 -2.29,-0.094 -0.175,0 -0.257,0.141 -0.257,0.418 0,0.239 0.062,0.356 0.214,0.375 1.118,0.145 1.895,0.34 2.29,0.618 0.417,0.281 0.617,0.816 0.617,1.593 v 0.219 l -0.594,13.945 -6.945,-17.386 c -0.059,-0.16 -0.196,-0.239 -0.395,-0.239 -0.219,0 -0.359,0.079 -0.398,0.239 l -6.532,16.707 -1.031,-13.266 c -0.023,-0.156 -0.035,-0.301 -0.035,-0.418 0,-0.656 0.23,-1.113 0.672,-1.394 0.437,-0.278 1.211,-0.473 2.344,-0.598 0.144,-0.02 0.218,-0.156 0.218,-0.395 0,-0.277 -0.093,-0.418 -0.25,-0.418 -0.523,0 -1.199,0.04 -2.054,0.094 -0.813,0.063 -1.43,0.086 -1.867,0.086 -0.481,0 -1.137,-0.023 -1.973,-0.086 -0.793,-0.054 -1.391,-0.094 -1.828,-0.094 -0.137,0 -0.199,0.137 -0.199,0.418 0,0.239 0.078,0.356 0.257,0.375 1.192,0.145 2.032,0.375 2.508,0.68 0.457,0.317 0.735,0.895 0.793,1.75 l 1.496,13.551 c 0.016,0.176 0.016,0.312 0.016,0.457 0,0.613 -0.219,1.074 -0.656,1.348 -0.438,0.281 -1.25,0.5 -2.407,0.636 -0.14,0 -0.199,0.145 -0.199,0.403 0,0.093 0.02,0.199 0.082,0.273 0.063,0.082 0.117,0.121 0.176,0.121 0.355,0 0.859,-0.015 1.516,-0.078 0.554,-0.062 0.949,-0.082 1.211,-0.082 0.339,0 0.816,0.02 1.449,0.082 0.636,0.063 1.136,0.078 1.496,0.078 l 6.168,-16.015 6.383,16.015 c 0.378,0 0.898,-0.015 1.515,-0.078 0.574,-0.062 1.012,-0.082 1.332,-0.082 0.422,0 0.899,0.02 1.453,0.082 0.594,0.063 1.094,0.078 1.512,0.078 0.18,0 0.262,-0.121 0.262,-0.394 0,-0.258 -0.063,-0.403 -0.219,-0.403 -1.137,-0.136 -1.891,-0.336 -2.312,-0.617 -0.399,-0.273 -0.598,-0.816 -0.598,-1.586 v -0.238 l 0.656,-13.551 c 0.024,-0.656 0.145,-1.137 0.301,-1.394 0.18,-0.278 0.496,-0.497 0.934,-0.661 0.418,-0.156 1.035,-0.273 1.851,-0.375 0.16,-0.019 0.223,-0.136 0.223,-0.375 z" /><path
         id="path7890"
         style="fill:#000000;fill-opacity:1;fill-rule:nonzero;stroke:none"
         d="m 1102.609,18.263 c 0,-0.394 -0.164,-0.754 -0.461,-1.055 -0.277,-0.3 -0.636,-0.437 -1.05,-0.437 -0.403,0 -0.758,0.137 -1.059,0.437 -0.293,0.301 -0.437,0.661 -0.437,1.055 0,0.418 0.144,0.774 0.437,1.074 0.281,0.282 0.641,0.414 1.059,0.414 0.414,0 0.773,-0.132 1.05,-0.414 0.297,-0.3 0.461,-0.656 0.461,-1.074 z m 2.008,-17.387 c 0,-0.277 -0.078,-0.418 -0.238,-0.418 -0.399,0 -0.895,0.04 -1.512,0.094 -0.676,0.063 -1.273,0.086 -1.73,0.086 -0.481,0 -1.055,-0.023 -1.735,-0.086 -0.593,-0.054 -1.093,-0.094 -1.488,-0.094 -0.16,0 -0.242,0.141 -0.242,0.418 0,0.239 0.082,0.356 0.242,0.375 0.813,0.122 1.332,0.301 1.57,0.598 0.239,0.277 0.36,0.895 0.36,1.832 v 5.336 c 0,0.773 -0.098,1.27 -0.321,1.508 -0.183,0.234 -0.613,0.398 -1.269,0.476 -0.164,0 -0.219,0.122 -0.219,0.379 0,0.219 0.055,0.34 0.219,0.34 1.012,0.258 1.828,0.531 2.465,0.813 0.656,0.3 1.051,0.539 1.211,0.738 0.105,0.117 0.199,0.18 0.32,0.18 0.281,0 0.398,-0.082 0.398,-0.243 -0.14,-2.144 -0.218,-3.82 -0.218,-4.992 V 3.681 c 0,-0.937 0.117,-1.555 0.336,-1.832 0.238,-0.297 0.781,-0.476 1.613,-0.598 0.156,-0.019 0.238,-0.136 0.238,-0.375 V 0.873 Z" /><path
         id="path7892"
         style="fill:#000000;fill-opacity:1;fill-rule:nonzero;stroke:none"
         d="m 1112.336,0.892 c 0,-0.254 -0.078,-0.394 -0.238,-0.394 -0.379,0 -0.895,0.019 -1.512,0.054 -0.676,0.063 -1.274,0.086 -1.731,0.086 -0.457,0 -1.031,-0.023 -1.71,-0.086 -0.618,-0.035 -1.118,-0.054 -1.512,-0.054 -0.156,0 -0.242,0.14 -0.242,0.394 0,0.242 0.086,0.383 0.242,0.402 0.812,0.102 1.332,0.282 1.566,0.575 0.262,0.3 0.383,0.918 0.383,1.851 v 13.371 c 0,0.778 -0.098,1.274 -0.277,1.508 -0.2,0.238 -0.641,0.399 -1.336,0.481 -0.16,0.019 -0.219,0.14 -0.219,0.359 0,0.234 0.059,0.359 0.219,0.359 1.011,0.258 1.832,0.512 2.492,0.813 0.637,0.301 1.031,0.535 1.187,0.754 0.102,0.101 0.2,0.164 0.317,0.164 0.281,0 0.418,-0.082 0.418,-0.242 -0.153,-2.149 -0.235,-3.817 -0.235,-5.016 V 3.72 c 0,-0.933 0.122,-1.551 0.36,-1.851 0.238,-0.293 0.773,-0.473 1.59,-0.575 0.16,-0.019 0.238,-0.16 0.238,-0.402 z" /><path
         id="path7894"
         style="fill:#000000;fill-opacity:1;fill-rule:nonzero;stroke:none"
         d="m 1119.816,0.892 c 0,-0.254 -0.082,-0.394 -0.242,-0.394 -0.394,0 -0.894,0.019 -1.508,0.054 -0.691,0.063 -1.273,0.086 -1.734,0.086 -0.469,0 -1.035,-0.023 -1.711,-0.086 -0.617,-0.035 -1.129,-0.054 -1.508,-0.054 -0.164,0 -0.238,0.14 -0.238,0.394 0,0.242 0.074,0.383 0.238,0.402 0.817,0.102 1.332,0.282 1.571,0.575 0.257,0.3 0.375,0.918 0.375,1.851 v 13.371 c 0,0.778 -0.098,1.274 -0.297,1.508 -0.176,0.238 -0.614,0.399 -1.313,0.481 -0.156,0.019 -0.238,0.14 -0.238,0.359 0,0.234 0.082,0.359 0.238,0.359 1.012,0.258 1.828,0.512 2.469,0.813 0.652,0.301 1.055,0.535 1.215,0.754 0.097,0.101 0.199,0.164 0.312,0.164 0.285,0 0.403,-0.082 0.403,-0.242 -0.141,-2.149 -0.223,-3.817 -0.223,-5.016 V 3.72 c 0,-0.933 0.121,-1.551 0.363,-1.851 0.239,-0.293 0.774,-0.473 1.586,-0.575 0.16,-0.019 0.242,-0.16 0.242,-0.402 z" /><path
         id="path7896"
         style="fill:#000000;fill-opacity:1;fill-rule:nonzero;stroke:none"
         d="m 1125.586,18.263 c 0,-0.394 -0.137,-0.754 -0.438,-1.055 -0.3,-0.3 -0.636,-0.437 -1.05,-0.437 -0.422,0 -0.778,0.137 -1.078,0.437 -0.278,0.301 -0.418,0.661 -0.418,1.055 0,0.418 0.14,0.774 0.418,1.074 0.3,0.282 0.656,0.414 1.078,0.414 0.414,0 0.75,-0.132 1.05,-0.414 0.301,-0.3 0.438,-0.656 0.438,-1.074 z m 2.008,-17.387 c 0,-0.277 -0.055,-0.418 -0.219,-0.418 -0.398,0 -0.895,0.04 -1.508,0.094 -0.695,0.063 -1.273,0.086 -1.75,0.086 -0.48,0 -1.055,-0.023 -1.715,-0.086 -0.617,-0.054 -1.113,-0.094 -1.511,-0.094 -0.137,0 -0.219,0.141 -0.219,0.418 0,0.239 0.082,0.356 0.219,0.375 0.816,0.122 1.355,0.301 1.574,0.598 0.234,0.277 0.359,0.895 0.359,1.832 v 5.336 c 0,0.773 -0.105,1.27 -0.301,1.508 -0.203,0.234 -0.617,0.398 -1.273,0.476 -0.16,0 -0.238,0.122 -0.238,0.379 0,0.219 0.078,0.34 0.238,0.34 0.996,0.258 1.828,0.531 2.465,0.813 0.64,0.3 1.058,0.539 1.215,0.738 0.097,0.117 0.199,0.18 0.316,0.18 0.262,0 0.402,-0.082 0.402,-0.243 -0.164,-2.144 -0.238,-3.82 -0.238,-4.992 V 3.681 c 0,-0.937 0.117,-1.555 0.356,-1.832 0.238,-0.297 0.773,-0.476 1.609,-0.598 0.164,-0.019 0.219,-0.136 0.219,-0.375 V 0.873 Z" /><path
         id="path7898"
         style="fill:#000000;fill-opacity:1;fill-rule:nonzero;stroke:none"
         d="m 1151.629,0.876 c 0,-0.277 -0.082,-0.418 -0.242,-0.418 -0.375,0 -0.852,0.04 -1.407,0.094 -0.601,0.063 -1.156,0.086 -1.632,0.086 -0.481,0 -1.02,-0.023 -1.633,-0.086 -0.559,-0.054 -1.035,-0.094 -1.414,-0.094 -0.156,0 -0.239,0.141 -0.239,0.418 0,0.239 0.083,0.356 0.239,0.375 0.637,0.082 1.078,0.262 1.273,0.563 0.203,0.297 0.301,0.93 0.301,1.867 v 4.813 c 0,1.074 -0.199,1.871 -0.621,2.367 -0.414,0.5 -1.051,0.738 -1.922,0.738 -1.176,0 -2.129,-0.402 -2.891,-1.172 V 3.681 c 0,-0.937 0.102,-1.57 0.321,-1.867 0.199,-0.301 0.64,-0.481 1.293,-0.563 0.16,-0.019 0.222,-0.136 0.222,-0.375 0,-0.277 -0.062,-0.418 -0.222,-0.418 -0.379,0 -0.836,0.04 -1.332,0.094 -0.559,0.063 -1.075,0.086 -1.535,0.086 -0.477,0 -1.008,-0.023 -1.575,-0.086 -0.492,-0.054 -0.953,-0.094 -1.328,-0.094 -0.16,0 -0.238,0.141 -0.238,0.418 0,0.239 0.078,0.356 0.238,0.375 0.66,0.082 1.094,0.262 1.297,0.563 0.215,0.297 0.313,0.93 0.313,1.867 v 4.813 c 0,1.074 -0.219,1.871 -0.637,2.367 -0.418,0.5 -1.07,0.738 -1.946,0.738 -0.558,0 -1.058,-0.101 -1.496,-0.32 -0.418,-0.199 -0.875,-0.574 -1.371,-1.114 V 3.681 c 0,-0.937 0.098,-1.57 0.317,-1.867 0.199,-0.301 0.636,-0.481 1.293,-0.563 0.156,-0.019 0.238,-0.136 0.238,-0.375 0,-0.277 -0.082,-0.418 -0.238,-0.418 -0.379,0 -0.852,0.04 -1.43,0.094 -0.617,0.063 -1.18,0.086 -1.633,0.086 -0.476,0 -1.031,-0.023 -1.656,-0.086 -0.531,-0.054 -1.008,-0.094 -1.406,-0.094 -0.137,0 -0.223,0.141 -0.223,0.418 0,0.239 0.086,0.356 0.223,0.375 0.816,0.122 1.351,0.301 1.574,0.598 0.238,0.277 0.355,0.895 0.355,1.832 v 5.336 c 0,0.773 -0.101,1.27 -0.3,1.508 -0.2,0.234 -0.618,0.398 -1.274,0.476 -0.16,0 -0.234,0.122 -0.234,0.379 0,0.219 0.074,0.34 0.234,0.34 0.938,0.238 1.735,0.516 2.367,0.793 0.637,0.32 1.036,0.559 1.2,0.758 0.097,0.117 0.199,0.18 0.312,0.18 0.262,0 0.398,-0.082 0.398,-0.243 l -0.117,-1.812 c 1.395,1.293 2.664,1.93 3.86,1.93 1.832,0 3.062,-0.692 3.718,-2.11 1.454,1.418 2.887,2.11 4.282,2.11 1.312,0 2.324,-0.371 3.066,-1.11 0.731,-0.758 1.09,-1.773 1.09,-3.023 V 3.681 c 0,-0.937 0.121,-1.555 0.359,-1.832 0.242,-0.297 0.754,-0.476 1.571,-0.598 0.156,-0.019 0.238,-0.136 0.238,-0.375 V 0.873 Z" /><path
         id="path7900"
         style="fill:#000000;fill-opacity:1;fill-rule:nonzero;stroke:none"
         d="m 1164.16,8.63 c 0,-0.25 -0.176,-0.394 -0.512,-0.394 h -7.878 c -0.063,-0.516 -0.102,-1.055 -0.102,-1.61 0,-1.554 0.375,-2.726 1.09,-3.562 0.762,-0.832 1.797,-1.25 3.148,-1.25 0.676,0 1.371,0.195 2.047,0.551 0.695,0.359 1.254,0.836 1.672,1.394 l 0.078,0.039 c 0.086,0 0.16,-0.062 0.242,-0.179 0.102,-0.094 0.137,-0.215 0.137,-0.356 0,-0.199 -0.316,-0.637 -0.934,-1.273 -0.593,-0.637 -1.273,-1.114 -1.992,-1.453 -0.711,-0.34 -1.468,-0.497 -2.265,-0.497 -1.711,0 -3.161,0.637 -4.36,1.891 -1.168,1.27 -1.765,2.824 -1.765,4.672 0,1.871 0.574,3.465 1.73,4.773 1.152,1.293 2.621,1.95 4.395,1.95 1.496,0 2.746,-0.493 3.738,-1.473 1.035,-0.949 1.531,-2.023 1.531,-3.223 z m -2.605,1.278 c 0,0.715 -0.254,1.308 -0.75,1.789 -0.504,0.48 -1.137,0.718 -1.914,0.718 -0.739,0 -1.371,-0.32 -1.907,-0.937 -0.543,-0.617 -0.922,-1.434 -1.117,-2.441 l 4.016,0.117 c 0.597,0.015 1.015,0.078 1.273,0.176 0.262,0.101 0.399,0.3 0.399,0.578 z" /><path
         id="path7902"
         style="fill:#000000;fill-opacity:1;fill-rule:nonzero;stroke:none"
         d="m 1175.184,11.915 c 0,-0.519 -0.118,-0.769 -0.379,-0.769 l -4.297,0.117 V 4.357 c 0,-1.813 0.66,-2.707 1.93,-2.707 0.792,0 1.535,0.176 2.191,0.558 0.059,0 0.137,-0.058 0.199,-0.16 0.059,-0.101 0.098,-0.199 0.098,-0.32 0,-0.238 -0.356,-0.551 -1.078,-0.969 -0.711,-0.402 -1.504,-0.601 -2.403,-0.601 -1.093,0 -1.968,0.32 -2.625,0.976 -0.656,0.68 -0.976,1.571 -0.976,2.664 v 0.121 l 0.058,6.985 c 0,0.273 -0.121,0.414 -0.359,0.414 h -1.07 c -0.219,0 -0.321,0.121 -0.321,0.379 0,0.179 0.078,0.32 0.258,0.418 1.332,0.797 2.488,1.89 3.481,3.32 0.105,0.164 0.242,0.242 0.398,0.242 0.258,0 0.399,-0.078 0.399,-0.242 l -0.118,-2.746 h 4.235 c 0.261,0 0.379,-0.254 0.379,-0.774 z" /><path
         id="path7904"
         style="fill:#000000;fill-opacity:1;fill-rule:nonzero;stroke:none"
         d="m 1188.219,8.63 c 0,-0.25 -0.168,-0.394 -0.524,-0.394 h -7.875 c -0.058,-0.516 -0.078,-1.055 -0.078,-1.61 0,-1.554 0.356,-2.726 1.09,-3.562 0.738,-0.832 1.77,-1.25 3.125,-1.25 0.691,0 1.371,0.195 2.07,0.551 0.676,0.359 1.235,0.836 1.668,1.394 l 0.067,0.039 c 0.093,0 0.172,-0.062 0.234,-0.179 0.102,-0.094 0.141,-0.215 0.141,-0.356 0,-0.199 -0.297,-0.637 -0.914,-1.273 -0.621,-0.637 -1.297,-1.114 -2.012,-1.453 -0.719,-0.34 -1.473,-0.497 -2.25,-0.497 -1.727,0 -3.184,0.637 -4.375,1.891 -1.172,1.27 -1.75,2.824 -1.75,4.672 0,1.871 0.559,3.465 1.711,4.773 1.176,1.293 2.629,1.95 4.414,1.95 1.477,0 2.73,-0.493 3.746,-1.473 1.008,-0.949 1.512,-2.023 1.512,-3.223 z m -2.61,1.278 c 0,0.715 -0.257,1.308 -0.754,1.789 -0.48,0.48 -1.117,0.718 -1.894,0.718 -0.754,0 -1.391,-0.32 -1.922,-0.937 -0.543,-0.617 -0.918,-1.434 -1.098,-2.441 l 4,0.117 c 0.594,0.015 1.032,0.078 1.274,0.176 0.258,0.101 0.394,0.3 0.394,0.578 z" /><path
         id="path7906"
         style="fill:#000000;fill-opacity:1;fill-rule:nonzero;stroke:none"
         d="m 1192.094,5.591 c 0,-1.492 0,-2.504 -0.016,-3.465 0,-0.355 -0.207,-0.535 -0.637,-0.535 h -1.113 c -0.262,0 -0.324,-0.058 -0.324,-0.258 v -0.5 c 0,-0.218 0.062,-0.281 0.16,-0.281 0.18,0 1.395,0.086 3.164,0.086 1.574,0 2.883,-0.086 3.063,-0.086 0.121,0 0.144,0.086 0.144,0.262 v 0.519 c 0,0.157 -0.023,0.258 -0.207,0.258 h -1.348 c -0.597,0 -0.816,0.278 -0.816,1.172 v 6.051 c 0,0.078 0.117,0.598 0.297,0.914 0.48,0.914 1.234,1.215 1.691,1.215 0.383,0 0.715,-0.082 0.957,-0.238 0.243,-0.102 0.516,-0.219 0.836,-0.219 0.516,0 1.211,0.578 1.211,1.414 0,0.652 -0.5,1.25 -1.472,1.25 -1.231,0 -2.586,-1.172 -3.461,-2.508 h -0.098 l -0.156,1.992 c 0,0.18 -0.024,0.356 -0.199,0.356 -0.125,0 -0.219,-0.039 -0.403,-0.121 l -2.844,-1.473 c -0.179,-0.078 -0.238,-0.133 -0.238,-0.25 v -0.184 c 0,-0.101 0.059,-0.14 0.238,-0.203 l 0.536,-0.273 c 0.812,-0.442 1.035,-0.719 1.035,-2.192 z" /><path
         id="path7908"
         style="fill:#154889;fill-opacity:1;fill-rule:nonzero;stroke:none"
         d="m 106.484,471.915 c -14.496,0 -26.25,-11.75 -26.25,-26.25 v -307.5 c 0,-14.5 11.754,-26.25 26.25,-26.25 352.504,0 705.004,0 1057.508,0 14.496,0 26.25,11.75 26.25,26.25 v 307.5 c 0,14.5 -11.754,26.25 -26.25,26.25 -352.504,0 -705.004,0 -1057.508,0 z" /><path
         id="path7910"
         style="fill:#ffffff;fill-opacity:1;fill-rule:nonzero;stroke:none"
         d="m 638.785,319.794 v 99.676 h 14.289 v -7.453 c 4.969,5.516 11.078,8.277 18.321,8.277 4.332,0 8.07,-0.89 11.214,-2.668 3.145,-1.734 5.743,-3.921 7.793,-6.566 1.961,-2.551 3.286,-5.535 3.969,-8.953 0.727,-3.375 1.09,-9.434 1.09,-18.184 0,-8.707 -0.363,-14.769 -1.09,-18.187 -0.683,-3.418 -2.008,-6.379 -3.969,-8.887 -2.05,-2.691 -4.648,-4.902 -7.793,-6.633 -3.144,-1.683 -6.882,-2.527 -11.214,-2.527 -3.688,0 -7.016,0.75 -9.977,2.258 -2.918,1.5 -5.699,3.527 -8.344,6.082 v -36.235 z m 28.309,42.114 c 6.699,0 10.707,2.3 12.027,6.906 1.367,4.601 2.055,9.637 2.055,15.109 0,5.469 -0.688,10.504 -2.055,15.106 -1.32,4.648 -5.328,6.972 -12.027,6.972 -6.703,0 -10.715,-2.39 -12.035,-7.175 -1.325,-4.786 -1.985,-9.754 -1.985,-14.903 0,-5.152 0.66,-10.121 1.985,-14.906 1.32,-4.738 5.332,-7.109 12.035,-7.109 z" /><path
         id="path7912"
         style="fill:#ffffff;fill-opacity:1;fill-rule:nonzero;stroke:none"
         d="m 718.129,364.849 v 82.445 h 14.285 v -81.285 c 0,-3.281 1.777,-4.922 5.332,-4.922 h 4.856 v -13.398 h -6.29 c -5.195,0 -9.523,1.25 -12.988,3.758 -3.465,2.551 -5.195,7.019 -5.195,13.402 z" /><path
         id="path7914"
         style="fill:#ffffff;fill-opacity:1;fill-rule:nonzero;stroke:none"
         d="m 797.223,348.505 v 6.293 h -0.344 c -2.871,-4.742 -8.707,-7.109 -17.5,-7.109 -7.934,0 -14.082,2.051 -18.461,6.152 -4.375,4.149 -6.563,9.321 -6.563,15.516 0,5.609 1.938,10.508 5.813,14.699 3.875,4.195 9.637,6.293 17.297,6.293 h 19.758 v 7.383 c 0,6.062 -4.852,9.094 -14.563,9.094 -6.746,0 -11.234,-1.801 -13.465,-5.403 L 757.98,409.9 c 4.965,6.926 12.942,10.394 23.926,10.394 8.754,0 15.864,-1.714 21.332,-5.132 5.469,-3.418 8.203,-9.5 8.203,-18.25 v -48.407 z m 0,24.887 v 5.199 h -17.094 c -8.25,0 -12.375,-2.851 -12.375,-8.551 0,-2.414 1.027,-4.507 3.078,-6.285 2.098,-1.781 5.563,-2.668 10.391,-2.668 5.925,0 10.074,0.661 12.441,1.985 2.375,1.32 3.559,4.761 3.559,10.32 z" /><path
         id="path7916"
         style="fill:#ffffff;fill-opacity:1;fill-rule:nonzero;stroke:none"
         d="m 839.395,418.65 v 21.535 h 14.293 V 418.65 h 10.39 v -10.938 h -10.39 v -41.293 c 0,-3.554 1.683,-5.332 5.058,-5.332 h 5.332 v -13.398 h -7.457 c -4.965,0 -9.09,1.5 -12.371,4.512 -3.238,3.007 -4.855,7.312 -4.855,12.922 v 42.589 h -7.11 v 10.938 z" /><path
         id="path7918"
         style="fill:#ffffff;fill-opacity:1;fill-rule:nonzero;stroke:none"
         d="m 878.496,347.689 v 11.277 l 35.551,47.035 H 880.48 v 12.649 h 50.93 v -11.348 l -35.551,-46.215 h 35.551 v -13.398 z" /><path
         id="path7920"
         style="fill:#ffffff;fill-opacity:1;fill-rule:nonzero;stroke:none"
         d="m 354.047,433.189 v -29.965 h 22.648 c 5.606,0 9.813,1.559 12.614,4.676 2.804,3.121 4.203,6.781 4.203,10.984 0,5.02 -1.672,8.77 -5.016,11.258 -2.805,2.031 -6.441,3.047 -10.918,3.047 z m -14.981,-85.5 v 98.789 h 38.649 c 8.453,0 15.14,-2.164 20.07,-6.508 2.758,-2.394 5.082,-5.402 6.985,-9.019 1.945,-3.614 2.914,-7.637 2.914,-12.067 0,-6.375 -1.719,-12.023 -5.153,-16.949 -3.39,-4.883 -8.07,-8.344 -14.035,-10.379 l 22.918,-43.867 h -17.766 l -20.41,42.172 h -19.191 v -42.172 z" /><path
         id="path7922"
         style="fill:#ffffff;fill-opacity:1;fill-rule:nonzero;stroke:none"
         d="m 468.379,348.505 v 6.293 h -0.34 c -2.875,-4.742 -8.707,-7.109 -17.504,-7.109 -7.93,0 -14.082,2.051 -18.457,6.152 -4.375,4.149 -6.566,9.321 -6.566,15.516 0,5.609 1.941,10.508 5.816,14.703 3.867,4.191 9.637,6.289 17.293,6.289 h 19.758 v 7.383 c 0,6.062 -4.856,9.094 -14.559,9.094 -6.75,0 -11.238,-1.801 -13.468,-5.403 l -11.215,8.477 c 4.968,6.926 12.941,10.394 23.925,10.394 8.754,0 15.864,-1.714 21.333,-5.132 5.468,-3.418 8.203,-9.5 8.203,-18.25 v -48.407 z m 0,24.887 v 5.199 h -17.09 c -8.25,0 -12.375,-2.851 -12.375,-8.551 0,-2.414 1.024,-4.507 3.074,-6.285 2.098,-1.781 5.563,-2.668 10.391,-2.668 5.926,0 10.074,0.661 12.445,1.985 2.371,1.32 3.555,4.761 3.555,10.32 z" /><path
         id="path7924"
         style="fill:#ffffff;fill-opacity:1;fill-rule:nonzero;stroke:none"
         d="m 502.75,360.333 9.984,9.848 c 6.2,-6.062 13.653,-9.094 22.356,-9.094 4.055,0 7.406,0.754 10.047,2.254 2.644,1.551 3.968,3.832 3.968,6.84 0,4.145 -2.898,6.469 -8.683,6.969 l -12.578,1.164 c -5.883,0.457 -10.758,2.394 -14.633,5.812 -3.875,3.418 -5.809,8.18 -5.809,14.289 0,7.204 2.528,12.645 7.59,16.336 5.059,3.696 11.344,5.543 18.863,5.543 6.2,0 11.512,-0.89 15.934,-2.668 4.418,-1.734 8.383,-4.058 11.895,-6.972 l -8.821,-10.395 c -2.824,1.918 -5.742,3.489 -8.75,4.719 -3.008,1.23 -6.425,1.848 -10.258,1.848 -4.554,0 -7.722,-0.825 -9.5,-2.465 -1.777,-1.594 -2.667,-3.621 -2.667,-6.082 0,-1.551 0.664,-2.985 1.984,-4.309 1.32,-1.32 3.781,-2.117 7.383,-2.394 l 11.757,-0.817 c 7.34,-0.5 12.602,-2.781 15.793,-6.836 3.192,-4.015 4.786,-8.824 4.786,-14.425 0,-6.973 -2.844,-12.352 -8.543,-16.133 -5.7,-3.785 -12.649,-5.676 -20.852,-5.676 -11.805,0 -22.219,4.215 -31.246,12.644 z" /><path
         id="path7926"
         style="fill:#ffffff;fill-opacity:1;fill-rule:nonzero;stroke:none"
         d="m 588.129,417.904 v 21.359 h 14.172 v -21.359 h 10.304 v -10.848 h -10.304 v -40.953 c 0,-3.527 1.668,-5.289 5.015,-5.289 h 5.289 v -13.289 h -7.39 c -4.93,0 -9.02,1.488 -12.274,4.476 -3.211,2.981 -4.812,7.25 -4.812,12.813 v 42.242 h -7.055 v 10.848 z" /><path
         id="path7928"
         style="fill:#ffffff;fill-opacity:1;fill-rule:nonzero;stroke:none"
         d="m 475.867,154.529 v 115.883 h -36.668 v 18.011 h 93.649 V 270.412 H 496.18 V 154.529 Z" /><path
         id="path7930"
         style="fill:#ffffff;fill-opacity:1;fill-rule:nonzero;stroke:none"
         d="m 549.023,154.529 v 95.39 h 19.207 v -95.39 z m 0,114.687 v 19.207 h 19.207 v -19.207 z" /><path
         id="path7932"
         style="fill:#ffffff;fill-opacity:1;fill-rule:nonzero;stroke:none"
         d="m 593.688,177.595 v 110.828 h 19.207 V 179.158 c 0,-4.41 2.39,-6.618 7.167,-6.618 h 6.524 v -18.011 h -8.453 c -6.985,0 -12.805,1.683 -17.461,5.054 -4.656,3.43 -6.984,9.434 -6.984,18.012 z" /><path
         id="path7934"
         style="fill:#ffffff;fill-opacity:1;fill-rule:nonzero;stroke:none"
         d="m 641.949,170.427 13.418,13.235 c 8.332,-8.149 18.348,-12.223 30.051,-12.223 5.453,0 9.957,1.008 13.508,3.031 3.554,2.082 5.332,5.145 5.332,9.192 0,5.574 -3.891,8.699 -11.672,9.371 l -16.91,1.562 c -7.903,0.613 -14.457,3.219 -19.664,7.813 -5.207,4.593 -7.813,10.996 -7.813,19.207 0,9.679 3.399,17 10.199,21.965 6.801,4.96 15.258,7.441 25.368,7.441 8.332,0 15.468,-1.195 21.41,-3.582 5.945,-2.328 11.273,-5.453 15.992,-9.375 l -11.856,-13.969 c -3.8,2.574 -7.718,4.688 -11.761,6.34 -4.047,1.656 -8.641,2.484 -13.785,2.484 -6.129,0 -10.387,-1.105 -12.778,-3.308 -2.386,-2.145 -3.582,-4.871 -3.582,-8.18 0,-2.082 0.887,-4.012 2.664,-5.789 1.778,-1.777 5.086,-2.852 9.926,-3.219 l 15.809,-1.101 c 9.863,-0.676 16.937,-3.739 21.226,-9.192 4.289,-5.39 6.434,-11.855 6.434,-19.39 0,-9.371 -3.828,-16.602 -11.488,-21.688 -7.657,-5.086 -17,-7.629 -28.028,-7.629 -15.871,0 -29.867,5.668 -42,17.004 z" /><path
         id="path7936"
         style="fill:#ffffff;fill-opacity:1;fill-rule:nonzero;stroke:none"
         d="m 744.973,154.529 v 95.39 h 19.207 v -95.39 z m 0,114.687 v 19.207 h 19.207 v -19.207 z" /><path
         id="path7938"
         style="fill:#ffffff;fill-opacity:1;fill-rule:nonzero;stroke:none"
         d="m 798.098,249.919 v 28.95 h 19.207 v -28.95 h 13.968 v -14.703 h -13.968 v -55.508 c 0,-4.777 2.269,-7.168 6.8,-7.168 h 7.168 v -18.011 h -10.015 c -6.676,0 -12.223,2.019 -16.633,6.062 -4.352,4.047 -6.527,9.836 -6.527,17.371 v 57.254 h -9.555 v 14.703 z" /></g></g></svg>