<?xml version="1.0" encoding="UTF-8" standalone="no"?>
<svg
   xmlns:dc="http://purl.org/dc/elements/1.1/"
   xmlns:cc="http://creativecommons.org/ns#"
   xmlns:rdf="http://www.w3.org/1999/02/22-rdf-syntax-ns#"
   xmlns:svg="http://www.w3.org/2000/svg"
   xmlns="http://www.w3.org/2000/svg"
   viewBox="0 0 972.31635 675.37152"
   height="675.37152"
   width="972.31635"
   xml:space="preserve"
   version="1.1"
   id="svg3813"><metadata
     id="metadata3819"><rdf:RDF><cc:Work
         rdf:about=""><dc:format>image/svg+xml</dc:format><dc:type
           rdf:resource="http://purl.org/dc/dcmitype/StillImage" /><dc:title></dc:title></cc:Work></rdf:RDF></metadata><defs
     id="defs3817" /><g
     transform="matrix(1.25,0,0,-1.25,0,675.37155)"
     id="g3821"><g
       id="g3823"><path
         id="path3825"
         style="fill:#ffffff;fill-opacity:1;fill-rule:nonzero;stroke:none"
         d="m 0.516,205.481 475.898,0 0,-28.16 -475.898,0 0,28.16 z" /><path
         id="path3827"
         style="fill:#ab2524;fill-opacity:1;fill-rule:nonzero;stroke:none"
         d="m 546.754,178.418 -0.004,0 0,0.121 c 0,0.024 -0.004,0.051 -0.004,0.079 0,0.023 0.004,0.05 0.004,0.078 l 0,35.843 c 0,0.028 -0.004,0.051 -0.004,0.079 0,0.027 0.004,0.05 0.004,0.078 l 0,0.054 0.004,0 c 0,0.188 0.019,0.371 0.035,0.559 l -60.43,0 -0.468,-0.473 -0.047,0 -37.465,-37.773 98.535,0 c -0.09,0.441 -0.148,0.89 -0.16,1.355 z" /><g
         transform="matrix(1,0,0,-1,0,540.29724)"
         id="g3829"><path
           id="path3831"
           style="fill:#999999;fill-opacity:1;fill-rule:nonzero;stroke:#000000;stroke-width:0.5;stroke-linecap:butt;stroke-linejoin:miter;stroke-miterlimit:4;stroke-dasharray:none;stroke-opacity:1"
           d="m 552.387,327.223 106.371,0 0,179.496 -106.371,0 0,-179.496 z" /></g><path
         id="path3833"
         style="fill:#999999;fill-opacity:1;fill-rule:nonzero;stroke:none"
         d="m 476.562,215.825 -0.722,-0.016 0,-51.188 164.566,0.012 0,51.192 -163.844,0 z" /><g
         transform="matrix(1,0,0,-1,0,540.29724)"
         id="g3835"><path
           id="path3837"
           style="fill:none;stroke:#000000;stroke-width:0.5;stroke-linecap:butt;stroke-linejoin:miter;stroke-miterlimit:4;stroke-dasharray:none;stroke-opacity:1"
           d="m 476.328,324.473 -0.488,0.015 0,51.188 126.961,-0.012 0,-51.191 -126.473,0 z" /></g><path
         id="path3839"
         style="fill:#999999;fill-opacity:1;fill-rule:nonzero;stroke:none"
         d="m 701.164,216.266 c -0.129,0 -0.258,-0.008 -0.387,-0.008 l 0,0.016 -87.816,0 0,-68.274 87.816,0 0,0.008 c 0.129,0 0.258,-0.008 0.387,-0.008 15.789,0 28.586,16.332 28.586,32.532 0,16.203 -12.797,35.734 -28.586,35.734 z" /><g
         transform="matrix(1,0,0,-1,0,540.29724)"
         id="g3841"><path
           id="path3843"
           style="fill:none;stroke:#000000;stroke-width:0.5;stroke-linecap:butt;stroke-linejoin:miter;stroke-miterlimit:4;stroke-dasharray:none;stroke-opacity:1"
           d="m 701.164,324.031 c -0.129,0 -0.258,0.008 -0.387,0.008 l 0,-0.016 -94.215,0 0,68.274 94.215,0 0,-0.008 c 0.129,0 0.258,0.008 0.387,0.008 15.789,0 28.586,-16.332 28.586,-32.531 0,-16.204 -12.797,-35.735 -28.586,-35.735 z" /></g><path
         id="path3845"
         style="fill:#ffffff;fill-opacity:1;fill-rule:nonzero;stroke:none"
         d="m 600.773,436.016 18.488,0 0,-407.23 -18.488,0 0,407.23 z" /><path
         id="path3847"
         style="fill:#666666;fill-opacity:1;fill-rule:nonzero;stroke:none"
         d="m 777.852,20.832 -350.157,0.118 0,-16.153 350.157,0.043 0,15.992 z" /><g
         transform="matrix(1,0,0,-0.999854,0,540.29724)"
         id="g3849"><path
           id="path3851"
           style="fill:none;stroke:#000000;stroke-width:0.40404001;stroke-linecap:butt;stroke-linejoin:miter;stroke-miterlimit:4;stroke-dasharray:none;stroke-opacity:1"
           d="m 27.996,348.598 c 0,4.293 -3.48,7.771 -7.769,7.771 -4.293,0 -7.77,-3.478 -7.77,-7.771 0,-4.29 3.477,-7.767 7.77,-7.767 4.289,0 7.769,3.477 7.769,7.767 z" /></g><path
         id="path3853"
         style="fill:#ff0000;fill-opacity:1;fill-rule:nonzero;stroke:none"
         d="m 27.996,191.75 c 0,-4.293 -3.48,-7.769 -7.769,-7.769 -4.293,0 -7.77,3.476 -7.77,7.769 0,4.289 3.477,7.766 7.77,7.766 4.289,0 7.769,-3.477 7.769,-7.766 z" /><g
         transform="matrix(1,0,0,-0.999854,0,540.29724)"
         id="g3855"><path
           id="path3857"
           style="fill:none;stroke:#000000;stroke-width:0.40404001;stroke-linecap:butt;stroke-linejoin:miter;stroke-miterlimit:4;stroke-dasharray:none;stroke-opacity:1"
           d="m 30.039,348.598 c 0,5.309 -4.394,9.611 -9.812,9.611 -5.422,0 -9.817,-4.302 -9.817,-9.611 0,-5.306 4.395,-9.607 9.817,-9.607 5.418,0 9.812,4.301 9.812,9.607 z" /></g><path
         id="path3859"
         style="fill:#333333;fill-opacity:1;fill-rule:nonzero;stroke:none"
         d="m 0,9.606 427.695,0 0,-9.605 L 0,0.001 0,9.606 Z" /><g
         transform="matrix(1,0,0,-1,0,540.29724)"
         id="g3861"><path
           id="path3863"
           style="fill:none;stroke:#000000;stroke-width:0.5;stroke-linecap:butt;stroke-linejoin:miter;stroke-miterlimit:4;stroke-dasharray:none;stroke-opacity:1"
           d="M 427.699,530.648 0.008,530.637" /></g><g
         transform="matrix(1,0,0,-1,0,540.29724)"
         id="g3865"><path
           id="path3867"
           style="fill:none;stroke:#000000;stroke-width:0.5;stroke-linecap:butt;stroke-linejoin:miter;stroke-miterlimit:4;stroke-dasharray:none;stroke-opacity:1"
           d="m 777.828,519.293 -350.105,-0.023 -0.071,16.222" /></g><g
         transform="matrix(1,0,0,-1,0,540.29724)"
         id="g3869"><path
           id="path3871"
           style="fill:#999999;fill-opacity:1;fill-rule:nonzero;stroke:#000000;stroke-width:0.5;stroke-linecap:butt;stroke-linejoin:miter;stroke-miterlimit:4;stroke-dasharray:none;stroke-opacity:1"
           d="m 535.273,506.504 143.367,0 0,12.723 -143.367,0 0,-12.723 z" /></g><g
         transform="matrix(1,0,0,-1,0,540.29724)"
         id="g3873"><path
           id="path3875"
           style="fill:#758080;fill-opacity:1;fill-rule:nonzero;stroke:#000000;stroke-width:0.5;stroke-linecap:butt;stroke-linejoin:miter;stroke-miterlimit:4;stroke-dasharray:none;stroke-opacity:1"
           d="m 600.773,104.281 18.488,0 0,414.992 -18.488,0 0,-414.992 z" /></g><path
         id="path3877"
         style="fill:none;stroke:#ffffff;stroke-width:1;stroke-linecap:butt;stroke-linejoin:miter;stroke-miterlimit:4;stroke-dasharray:none;stroke-opacity:1"
         d="M 563.922,363.075 592,314.168 564.055,265.5 l 26.601,-15.918 19.61,32.993 19.386,-33.02 26.805,15.594 -28.484,49.058 28.547,49.305 -26.832,15.481 -19.454,-33.641 -19.332,33.187 -26.98,-15.464 z" /><path
         id="path3879"
         style="fill:#ffffff;fill-opacity:1;fill-rule:nonzero;stroke:#000000;stroke-width:0.80000001;stroke-linecap:butt;stroke-linejoin:miter;stroke-miterlimit:4;stroke-dasharray:none;stroke-opacity:1"
         d="M 563.922,363.075 592,314.168 564.055,265.5 l 26.601,-15.918 19.61,32.993 19.386,-33.02 26.805,15.594 -28.484,49.058 28.547,49.305 -26.832,15.481 -19.454,-33.641 -19.332,33.187 -26.98,-15.464 z" /><path
         id="path3881"
         style="fill:#ab2524;fill-opacity:1;fill-rule:evenodd;stroke:none"
         d="m 563.922,362.536 27.535,15.64 -26.402,45.781 -27.407,-15.902 26.274,-45.519 z" /><path
         id="path3883"
         style="fill:#ab2524;fill-opacity:1;fill-rule:evenodd;stroke:none"
         d="m 655.238,204.52 27.532,15.641 -26.399,45.781 -27.41,-15.903 26.277,-45.519 z" /><path
         id="path3885"
         style="fill:#ab2524;fill-opacity:1;fill-rule:evenodd;stroke:none"
         d="m 565.02,204.52 -27.532,15.641 26.403,45.781 27.402,-15.903 -26.273,-45.519 z" /><path
         id="path3887"
         style="fill:#ab2524;fill-opacity:1;fill-rule:evenodd;stroke:none"
         d="m 656.27,362.446 -27.536,15.64 26.407,45.785 27.406,-15.902 -26.277,-45.523 z" /><path
         id="path3889"
         style="fill:#ffffff;fill-opacity:1;fill-rule:nonzero;stroke:#000000;stroke-width:0.80000001;stroke-linecap:butt;stroke-linejoin:miter;stroke-miterlimit:4;stroke-dasharray:none;stroke-opacity:1"
         d="m 581.754,539.899 c -5.777,0 -9.883,-3.512 -9.918,-9.918 -0.02,-19.504 -0.008,-27.199 -0.004,-44.309 -0.023,-22.004 0.004,-39.066 0.004,-58.711 0.035,-6.406 4.141,-9.918 9.918,-9.914 0.016,0 0.027,0 0.043,0.004 18.848,0 37.703,-0.004 56.551,0 0.015,-0.004 0.031,-0.004 0.047,-0.004 5.777,-0.004 9.878,3.508 9.914,9.914 0.054,34.235 -0.012,75.93 0,103.02 -0.036,6.406 -4.137,9.918 -9.914,9.918 -0.016,0 -0.032,-0.004 -0.047,-0.004 -18.848,0.004 -37.703,0 -56.551,0 -0.016,0 -0.027,0.004 -0.043,0.004 z" /><path
         id="path3891"
         style="fill:#000000;fill-opacity:1;fill-rule:nonzero;stroke:none"
         d="m 585.582,531.082 c -2.68,0.004 -4.852,-2.171 -4.852,-4.851 0,-0.051 0,-0.102 0.004,-0.153 l -0.007,0 0,-95.406 0.007,0 0,-0.023 c -0.004,-2.68 2.168,-4.852 4.848,-4.852 l 48.133,0 c 2.68,0 4.855,2.172 4.855,4.852 -0.004,0.051 -0.004,0.101 -0.008,0.156 l 0.008,0 0,95.402 -0.008,0 0.004,0.024 c 0,2.68 -2.171,4.851 -4.851,4.851 l -48.133,0 z" /><path
         id="path3893"
         style="fill:none;stroke:#000000;stroke-width:0.632056;stroke-linecap:butt;stroke-linejoin:miter;stroke-miterlimit:4;stroke-dasharray:none;stroke-opacity:1"
         d="m 624.031,502.125 c 0,-7.925 -6.426,-14.351 -14.351,-14.351 -7.926,0 -14.356,6.426 -14.356,14.351 0,7.926 6.43,14.352 14.356,14.352 7.925,0 14.351,-6.426 14.351,-14.352 z" /><path
         id="path3895"
         style="fill:#ff0000;fill-opacity:1;fill-rule:nonzero;stroke:#808080;stroke-width:0.331824;stroke-linecap:butt;stroke-linejoin:miter;stroke-miterlimit:4;stroke-dasharray:none;stroke-opacity:1"
         d="m 627.203,502.125 c 0,-9.679 -7.844,-17.523 -17.523,-17.523 -9.68,0 -17.524,7.844 -17.524,17.523 0,9.68 7.844,17.524 17.524,17.524 9.679,0 17.523,-7.844 17.523,-17.524 z" /><path
         id="path3897"
         style="fill:none;stroke:#808080;stroke-width:0.41477999;stroke-linecap:butt;stroke-linejoin:miter;stroke-miterlimit:4;stroke-dasharray:none;stroke-opacity:1"
         d="m 624.031,502.125 c 0,-7.925 -6.426,-14.351 -14.351,-14.351 -7.926,0 -14.356,6.426 -14.356,14.351" /><path
         id="path3899"
         style="fill:none;stroke:#808080;stroke-width:1.70920503;stroke-linecap:butt;stroke-linejoin:miter;stroke-miterlimit:4;stroke-dasharray:none;stroke-opacity:1"
         d="m 590.023,497.7 0.02,4.425 c 0,10.848 8.789,19.637 19.637,19.637 10.843,0 19.636,-8.789 19.636,-19.637 l -0.004,-4.425" /><path
         id="path3901"
         style="fill:none;stroke:#808080;stroke-width:0.34526801;stroke-linecap:butt;stroke-linejoin:miter;stroke-miterlimit:4;stroke-dasharray:none;stroke-opacity:1"
         d="m 622.25,502.125 c 0,-6.941 -5.629,-12.57 -12.57,-12.57 -6.942,0 -12.571,5.629 -12.571,12.57" /><path
         id="path3903"
         style="fill:none;stroke:#808080;stroke-width:0.34526801;stroke-linecap:butt;stroke-linejoin:miter;stroke-miterlimit:4;stroke-dasharray:none;stroke-opacity:1"
         d="m 620.547,500.844 c 0,-5.527 -5.34,-10.008 -10.867,-10.008 -5.528,0 -11.063,4.481 -11.063,10.008" /><path
         id="path3905"
         style="fill:none;stroke:#808080;stroke-width:0.34507999;stroke-linecap:butt;stroke-linejoin:miter;stroke-miterlimit:4;stroke-dasharray:none;stroke-opacity:1"
         d="m 618.75,499.629 c 0,-4.183 -4.91,-7.578 -9.094,-7.578 -4.183,0 -9.234,3.395 -9.234,7.578" /><path
         id="path3907"
         style="fill:none;stroke:#808080;stroke-width:0.34507999;stroke-linecap:butt;stroke-linejoin:miter;stroke-miterlimit:4;stroke-dasharray:none;stroke-opacity:1"
         d="m 616.98,498.543 c 0,-2.984 -4.363,-5.402 -7.347,-5.402 -2.981,0 -7.442,2.418 -7.442,5.402" /><path
         id="path3909"
         style="fill:none;stroke:#808080;stroke-width:0.34509701;stroke-linecap:butt;stroke-linejoin:miter;stroke-miterlimit:4;stroke-dasharray:none;stroke-opacity:1"
         d="m 615.211,498.012 c 0,-1.922 -3.668,-3.48 -5.594,-3.48 -1.922,0 -5.66,1.558 -5.66,3.48" /><path
         id="path3911"
         style="fill:none;stroke:#000000;stroke-width:0.632056;stroke-linecap:butt;stroke-linejoin:miter;stroke-miterlimit:4;stroke-dasharray:none;stroke-opacity:1"
         d="m 624.031,452.168 c 0,-7.925 -6.426,-14.351 -14.351,-14.351 -7.926,0 -14.356,6.426 -14.356,14.351 0,7.926 6.43,14.352 14.356,14.352 7.925,0 14.351,-6.426 14.351,-14.352 z" /><path
         id="path3913"
         style="fill:#ffe82a;fill-opacity:1;fill-rule:nonzero;stroke:#808080;stroke-width:0.331824;stroke-linecap:butt;stroke-linejoin:miter;stroke-miterlimit:4;stroke-dasharray:none;stroke-opacity:1"
         d="m 627.203,452.168 c 0,-9.679 -7.844,-17.523 -17.523,-17.523 -9.68,0 -17.524,7.844 -17.524,17.523 0,9.68 7.844,17.524 17.524,17.524 9.679,0 17.523,-7.844 17.523,-17.524 z" /><path
         id="path3915"
         style="fill:none;stroke:#808080;stroke-width:0.41477999;stroke-linecap:butt;stroke-linejoin:miter;stroke-miterlimit:4;stroke-dasharray:none;stroke-opacity:1"
         d="m 624.031,452.168 c 0,-7.925 -6.426,-14.351 -14.351,-14.351 -7.926,0 -14.356,6.426 -14.356,14.351" /><path
         id="path3917"
         style="fill:none;stroke:#808080;stroke-width:1.70920503;stroke-linecap:butt;stroke-linejoin:miter;stroke-miterlimit:4;stroke-dasharray:none;stroke-opacity:1"
         d="m 590.023,447.743 0.02,4.425 c 0,10.848 8.789,19.637 19.637,19.637 10.843,0 19.636,-8.789 19.636,-19.637 l -0.004,-4.425" /><path
         id="path3919"
         style="fill:none;stroke:#808080;stroke-width:0.34526801;stroke-linecap:butt;stroke-linejoin:miter;stroke-miterlimit:4;stroke-dasharray:none;stroke-opacity:1"
         d="m 622.25,452.168 c 0,-6.941 -5.629,-12.57 -12.57,-12.57 -6.942,0 -12.571,5.629 -12.571,12.57" /><path
         id="path3921"
         style="fill:none;stroke:#808080;stroke-width:0.34526801;stroke-linecap:butt;stroke-linejoin:miter;stroke-miterlimit:4;stroke-dasharray:none;stroke-opacity:1"
         d="m 620.547,450.887 c 0,-5.527 -5.34,-10.008 -10.867,-10.008 -5.528,0 -11.063,4.481 -11.063,10.008" /><path
         id="path3923"
         style="fill:none;stroke:#808080;stroke-width:0.34507999;stroke-linecap:butt;stroke-linejoin:miter;stroke-miterlimit:4;stroke-dasharray:none;stroke-opacity:1"
         d="m 618.75,449.672 c 0,-4.187 -4.91,-7.578 -9.094,-7.578 -4.183,0 -9.234,3.391 -9.234,7.578" /><path
         id="path3925"
         style="fill:none;stroke:#808080;stroke-width:0.34507999;stroke-linecap:butt;stroke-linejoin:miter;stroke-miterlimit:4;stroke-dasharray:none;stroke-opacity:1"
         d="m 616.98,448.586 c 0,-2.984 -4.363,-5.402 -7.347,-5.402 -2.981,0 -7.442,2.418 -7.442,5.402" /><path
         id="path3927"
         style="fill:none;stroke:#808080;stroke-width:0.34509701;stroke-linecap:butt;stroke-linejoin:miter;stroke-miterlimit:4;stroke-dasharray:none;stroke-opacity:1"
         d="m 615.211,448.055 c 0,-1.926 -3.668,-3.484 -5.594,-3.484 -1.922,0 -5.66,1.558 -5.66,3.484" /><path
         id="path3929"
         style="fill:#ab2524;fill-opacity:1;fill-rule:evenodd;stroke:none"
         d="m 607.594,317.149 8.992,2.621 -5.117,-14.922 2.902,-0.383 -6.82,-7.543 -1.742,9.84 2.289,-0.797 2.484,7.996 -6.801,-0.625 2.531,18.285 6.633,-0.636" /><path
         id="path3931"
         style="fill:#ab2524;fill-opacity:1;fill-rule:nonzero;stroke:none"
         d="m 308.977,205.496 -28.2,-28.433 29.399,0 0.469,0.473 0.046,0 27.469,27.695 -29.183,0.265 z" /><path
         id="path3933"
         style="fill:#ab2524;fill-opacity:1;fill-rule:nonzero;stroke:none"
         d="m 308.977,205.496 -28.2,-28.433 29.399,0 0.469,0.473 0.046,0 27.469,27.695 -29.183,0.265 z" /><path
         id="path3935"
         style="fill:#ab2524;fill-opacity:1;fill-rule:nonzero;stroke:none"
         d="m 366.578,205.496 -28.199,-28.433 29.398,0 0.469,0.473 0.047,0 27.469,27.695 -29.184,0.265 z" /><path
         id="path3937"
         style="fill:#ab2524;fill-opacity:1;fill-rule:nonzero;stroke:none"
         d="m 366.578,205.496 -28.199,-28.433 29.398,0 0.469,0.473 0.047,0 27.469,27.695 -29.184,0.265 z" /><path
         id="path3939"
         style="fill:#ab2524;fill-opacity:1;fill-rule:nonzero;stroke:none"
         d="m 424.18,205.496 -28.203,-28.433 29.402,0 0.465,0.473 0.047,0 27.472,27.695 -29.183,0.265 z" /><path
         id="path3941"
         style="fill:#ab2524;fill-opacity:1;fill-rule:nonzero;stroke:none"
         d="m 424.18,205.496 -28.203,-28.433 29.402,0 0.465,0.473 0.047,0 27.472,27.695 -29.183,0.265 z" /><path
         id="path3943"
         style="fill:#ab2524;fill-opacity:1;fill-rule:nonzero;stroke:none"
         d="m 136.18,205.496 -28.203,-28.433 29.402,0 0.465,0.473 0.047,0 27.472,27.695 -29.183,0.265 z" /><path
         id="path3945"
         style="fill:#ab2524;fill-opacity:1;fill-rule:nonzero;stroke:none"
         d="m 136.18,205.496 -28.203,-28.433 29.402,0 0.465,0.473 0.047,0 27.472,27.695 -29.183,0.265 z" /><path
         id="path3947"
         style="fill:#ab2524;fill-opacity:1;fill-rule:nonzero;stroke:none"
         d="m 193.777,205.496 -28.199,-28.433 29.399,0 0.468,0.473 0.047,0 27.469,27.695 -29.184,0.265 z" /><path
         id="path3949"
         style="fill:#ab2524;fill-opacity:1;fill-rule:nonzero;stroke:none"
         d="m 193.777,205.496 -28.199,-28.433 29.399,0 0.468,0.473 0.047,0 27.469,27.695 -29.184,0.265 z" /><path
         id="path3951"
         style="fill:#ab2524;fill-opacity:1;fill-rule:nonzero;stroke:none"
         d="m 251.379,205.496 -28.203,-28.433 29.402,0 0.465,0.473 0.047,0 27.472,27.695 -29.183,0.265 z" /><path
         id="path3953"
         style="fill:#ab2524;fill-opacity:1;fill-rule:nonzero;stroke:none"
         d="m 251.379,205.496 -28.203,-28.433 29.402,0 0.465,0.473 0.047,0 27.472,27.695 -29.183,0.265 z" /><path
         id="path3955"
         style="fill:#ab2524;fill-opacity:1;fill-rule:nonzero;stroke:none"
         d="m 78.578,205.496 -28.199,-28.433 29.398,0 0.469,0.473 0.047,0 27.469,27.695 -29.184,0.265 z" /><path
         id="path3957"
         style="fill:#ab2524;fill-opacity:1;fill-rule:nonzero;stroke:none"
         d="m 78.578,205.496 -28.199,-28.433 29.398,0 0.469,0.473 0.047,0 27.469,27.695 -29.184,0.265 z" /><path
         id="path3959"
         style="fill:#ab2524;fill-opacity:1;fill-rule:nonzero;stroke:none"
         d="m 136.18,205.496 -28.203,-28.433 29.402,0 0.465,0.473 0.047,0 27.472,27.695 -29.183,0.265 z" /><path
         id="path3961"
         style="fill:#ab2524;fill-opacity:1;fill-rule:nonzero;stroke:none"
         d="m 193.777,205.496 -28.199,-28.433 29.399,0 0.468,0.473 0.047,0 27.469,27.695 -29.184,0.265 z" /><g
         transform="matrix(1,0,0,-1,0,540.29724)"
         id="g3963"><path
           id="path3965"
           style="fill:none;stroke:#000000;stroke-width:0.5;stroke-linecap:butt;stroke-linejoin:miter;stroke-miterlimit:4;stroke-dasharray:none;stroke-opacity:1"
           d="m 0.516,334.816 475.328,0 0,28.16 -475.328,0 0,-28.16 z" /></g></g></g></svg>