<?xml version="1.0" encoding="UTF-8" standalone="no"?>
<svg
   xmlns:dc="http://purl.org/dc/elements/1.1/"
   xmlns:cc="http://creativecommons.org/ns#"
   xmlns:rdf="http://www.w3.org/1999/02/22-rdf-syntax-ns#"
   xmlns:svg="http://www.w3.org/2000/svg"
   xmlns="http://www.w3.org/2000/svg"
   viewBox="0 0 181.60098 275.20142"
   height="275.20142"
   width="181.60098"
   xml:space="preserve"
   version="1.1"
   id="svg4866"><metadata
     id="metadata4872"><rdf:RDF><cc:Work
         rdf:about=""><dc:format>image/svg+xml</dc:format><dc:type
           rdf:resource="http://purl.org/dc/dcmitype/StillImage" /><dc:title></dc:title></cc:Work></rdf:RDF></metadata><defs
     id="defs4870" /><g
     transform="matrix(1.25,0,0,-1.25,0,275.20142)"
     id="g4874"><g
       id="g4876"><path
         id="path4878"
         style="fill:#000000;fill-opacity:1;fill-rule:evenodd;stroke:none"
         d="M 48.445,183.493 21.188,167.755 54.469,110.118 22.008,53.892 49.262,38.157 72.641,78.646 96.676,37.013 l 27.254,15.738 -33.121,57.367 33.14,57.395 -27.258,15.738 -24.05,-41.66 -24.196,41.902 z" /><path
         id="path4880"
         style="fill:#ffffff;fill-opacity:1;fill-rule:evenodd;stroke:none"
         d="M 49.777,179.454 24.023,164.583 55.465,110.126 24.797,57.001 50.551,42.134 72.637,80.388 95.344,41.052 l 25.754,14.871 -31.293,54.203 31.308,54.23 -25.754,14.868 -22.722,-39.364 -22.86,39.594 z" /><path
         id="path4882"
         style="fill:#c1121c;fill-opacity:1;fill-rule:evenodd;stroke:none"
         d="m 69.117,125.333 -2.265,-16.359 5.914,0.543 -1.743,-7.356 -2.378,1.098 1.558,-8.965 0.016,0.019 0.004,-0.023 5.996,6.617 -0.012,0 0.121,0.133 -2.601,0.34 4.582,13.351 -8.047,-2.347 4.789,12.379 -5.934,0.57 z" /><path
         id="path4884"
         style="fill:#c1121c;fill-opacity:1;fill-rule:evenodd;stroke:none"
         d="M 118.008,0.001 145.266,15.735 119.035,61.165 91.812,45.368 118.008,0.001 Z" /><path
         id="path4886"
         style="fill:#c1121c;fill-opacity:1;fill-rule:evenodd;stroke:none"
         d="M 53.484,45.411 26.227,61.146 0,15.72 27.293,0.044 53.484,45.411 Z" /><path
         id="path4888"
         style="fill:#c1121c;fill-opacity:1;fill-rule:evenodd;stroke:none"
         d="M 26.211,158.997 53.469,174.731 27.238,220.161 0.016,204.364 26.211,158.997 Z" /><path
         id="path4890"
         style="fill:#c1121c;fill-opacity:1;fill-rule:evenodd;stroke:none"
         d="m 145.281,204.407 -27.258,15.735 -26.226,-45.426 27.293,-15.676 26.191,45.367 z" /></g></g></svg>