<?xml version="1.0" encoding="UTF-8" standalone="no"?>
<svg
   xmlns:dc="http://purl.org/dc/elements/1.1/"
   xmlns:cc="http://creativecommons.org/ns#"
   xmlns:rdf="http://www.w3.org/1999/02/22-rdf-syntax-ns#"
   xmlns:svg="http://www.w3.org/2000/svg"
   xmlns="http://www.w3.org/2000/svg"
   viewBox="0 0 181.60278 420.32422"
   height="420.32422"
   width="181.60278"
   xml:space="preserve"
   version="1.1"
   id="svg4590"><metadata
     id="metadata4596"><rdf:RDF><cc:Work
         rdf:about=""><dc:format>image/svg+xml</dc:format><dc:type
           rdf:resource="http://purl.org/dc/dcmitype/StillImage" /><dc:title></dc:title></cc:Work></rdf:RDF></metadata><defs
     id="defs4594" /><g
     transform="matrix(1.25,0,0,-1.25,0,420.32421)"
     id="g4598"><g
       id="g4600"><path
         id="path4602"
         style="fill:#000000;fill-opacity:1;fill-rule:evenodd;stroke:none"
         d="M 48.453,182.779 21.195,167.041 54.473,109.404 22.012,53.177 49.27,37.443 72.645,77.931 96.68,36.298 l 27.258,15.739 -33.122,57.367 33.137,57.394 -27.254,15.739 -24.054,-41.66 -24.192,41.902 z" /><path
         id="path4604"
         style="fill:#ffffff;fill-opacity:1;fill-rule:evenodd;stroke:none"
         d="M 49.785,178.74 24.031,163.869 55.473,109.412 24.801,56.287 50.555,41.42 72.641,79.673 95.352,40.337 121.105,55.209 89.812,109.412 121.121,163.638 95.367,178.509 72.641,139.146 49.785,178.74 Z" /><path
         id="path4606"
         style="fill:#c1121c;fill-opacity:1;fill-rule:evenodd;stroke:none"
         d="m 69.121,124.619 -2.266,-16.36 5.918,0.543 -1.742,-7.359 -2.383,1.102 1.559,-8.965 0.02,0.019 0.003,-0.023 5.993,6.617 -0.008,0 0.121,0.129 -2.602,0.344 4.578,13.351 -8.042,-2.347 4.789,12.375 -5.938,0.574 z" /><g
         transform="matrix(1,0,0,-1,0,336.25937)"
         id="g4608"><path
           id="path4610"
           style="fill:#ffffff;fill-opacity:1;fill-rule:nonzero;stroke:#000000;stroke-width:0.80000001;stroke-linecap:butt;stroke-linejoin:miter;stroke-miterlimit:4;stroke-dasharray:none;stroke-opacity:1"
           d="m 44.266,0.879 c -5.778,0 -9.883,3.512 -9.918,9.918 -0.02,19.504 -0.008,27.199 -0.004,44.308 -0.024,22.004 0.004,39.067 0.004,58.711 0.035,6.407 4.14,9.918 9.918,9.914 0.015,0 0.027,0 0.043,-0.003 18.847,0 37.703,0.003 56.55,0 0.016,0.003 0.032,0.003 0.047,0.003 5.778,0.004 9.879,-3.507 9.914,-9.914 0.055,-34.234 -0.011,-75.929 0,-103.019 -0.035,-6.406 -4.136,-9.918 -9.914,-9.918 -0.015,0 -0.031,0.004 -0.047,0.004 -18.847,-0.004 -37.703,0 -56.55,0 -0.016,0 -0.028,-0.004 -0.043,-0.004 z" /></g><path
         id="path4612"
         style="fill:#000000;fill-opacity:1;fill-rule:nonzero;stroke:none"
         d="m 48.094,326.564 c -2.68,0.004 -4.852,-2.172 -4.852,-4.852 0,-0.05 0,-0.101 0.004,-0.152 l -0.008,0 0,-95.406 0.008,0 0,-0.024 c -0.004,-2.679 2.168,-4.851 4.848,-4.851 l 48.133,0 c 2.679,0 4.855,2.172 4.855,4.851 -0.004,0.051 -0.004,0.102 -0.008,0.157 l 0.008,0 0,95.402 -0.008,0 0.004,0.023 c 0,2.68 -2.172,4.852 -4.851,4.852 l -48.133,0 z" /><g
         transform="matrix(1,0,0,-1,0,336.25937)"
         id="g4614"><path
           id="path4616"
           style="fill:none;stroke:#000000;stroke-width:0.632056;stroke-linecap:butt;stroke-linejoin:miter;stroke-miterlimit:4;stroke-dasharray:none;stroke-opacity:1"
           d="m 86.543,38.652 c 0,7.926 -6.426,14.352 -14.352,14.352 -7.925,0 -14.355,-6.426 -14.355,-14.352 0,-7.925 6.43,-14.351 14.355,-14.351 7.926,0 14.352,6.426 14.352,14.351 z" /></g><g
         transform="matrix(1,0,0,-1,0,336.25937)"
         id="g4618"><path
           id="path4620"
           style="fill:#ff0000;fill-opacity:1;fill-rule:nonzero;stroke:#808080;stroke-width:0.331824;stroke-linecap:butt;stroke-linejoin:miter;stroke-miterlimit:4;stroke-dasharray:none;stroke-opacity:1"
           d="m 89.715,38.652 c 0,9.68 -7.844,17.524 -17.524,17.524 -9.679,0 -17.523,-7.844 -17.523,-17.524 0,-9.679 7.844,-17.523 17.523,-17.523 9.68,0 17.524,7.844 17.524,17.523 z" /></g><g
         transform="matrix(1,0,0,-1,0,336.25937)"
         id="g4622"><path
           id="path4624"
           style="fill:none;stroke:#808080;stroke-width:0.41477999;stroke-linecap:butt;stroke-linejoin:miter;stroke-miterlimit:4;stroke-dasharray:none;stroke-opacity:1"
           d="m 86.543,38.652 c 0,7.926 -6.426,14.352 -14.352,14.352 -7.925,0 -14.355,-6.426 -14.355,-14.352" /></g><g
         transform="matrix(1,0,0,-1,0,336.25937)"
         id="g4626"><path
           id="path4628"
           style="fill:none;stroke:#808080;stroke-width:1.70920503;stroke-linecap:butt;stroke-linejoin:miter;stroke-miterlimit:4;stroke-dasharray:none;stroke-opacity:1"
           d="m 52.535,43.078 0.02,-4.426 c 0,-10.847 8.789,-19.636 19.636,-19.636 10.844,0 19.637,8.789 19.637,19.636 l -0.004,4.426" /></g><g
         transform="matrix(1,0,0,-1,0,336.25937)"
         id="g4630"><path
           id="path4632"
           style="fill:none;stroke:#808080;stroke-width:0.34526801;stroke-linecap:butt;stroke-linejoin:miter;stroke-miterlimit:4;stroke-dasharray:none;stroke-opacity:1"
           d="m 84.762,38.652 c 0,6.942 -5.629,12.571 -12.571,12.571 -6.941,0 -12.57,-5.629 -12.57,-12.571" /></g><g
         transform="matrix(1,0,0,-1,0,336.25937)"
         id="g4634"><path
           id="path4636"
           style="fill:none;stroke:#808080;stroke-width:0.34526801;stroke-linecap:butt;stroke-linejoin:miter;stroke-miterlimit:4;stroke-dasharray:none;stroke-opacity:1"
           d="m 83.059,39.934 c 0,5.527 -5.34,10.007 -10.868,10.007 -5.527,0 -11.062,-4.48 -11.062,-10.007" /></g><g
         transform="matrix(1,0,0,-1,0,336.25937)"
         id="g4638"><path
           id="path4640"
           style="fill:none;stroke:#808080;stroke-width:0.34507999;stroke-linecap:butt;stroke-linejoin:miter;stroke-miterlimit:4;stroke-dasharray:none;stroke-opacity:1"
           d="m 81.262,41.148 c 0,4.184 -4.91,7.579 -9.094,7.579 -4.184,0 -9.234,-3.395 -9.234,-7.579" /></g><g
         transform="matrix(1,0,0,-1,0,336.25937)"
         id="g4642"><path
           id="path4644"
           style="fill:none;stroke:#808080;stroke-width:0.34507999;stroke-linecap:butt;stroke-linejoin:miter;stroke-miterlimit:4;stroke-dasharray:none;stroke-opacity:1"
           d="m 79.492,42.234 c 0,2.985 -4.363,5.403 -7.347,5.403 -2.981,0 -7.442,-2.418 -7.442,-5.403" /></g><g
         transform="matrix(1,0,0,-1,0,336.25937)"
         id="g4646"><path
           id="path4648"
           style="fill:none;stroke:#808080;stroke-width:0.34509701;stroke-linecap:butt;stroke-linejoin:miter;stroke-miterlimit:4;stroke-dasharray:none;stroke-opacity:1"
           d="m 77.723,42.766 c 0,1.922 -3.668,3.48 -5.594,3.48 -1.922,0 -5.66,-1.558 -5.66,-3.48" /></g><g
         transform="matrix(1,0,0,-1,0,336.25937)"
         id="g4650"><path
           id="path4652"
           style="fill:none;stroke:#000000;stroke-width:0.632056;stroke-linecap:butt;stroke-linejoin:miter;stroke-miterlimit:4;stroke-dasharray:none;stroke-opacity:1"
           d="m 86.543,88.609 c 0,7.926 -6.426,14.352 -14.352,14.352 -7.925,0 -14.355,-6.426 -14.355,-14.352 0,-7.925 6.43,-14.351 14.355,-14.351 7.926,0 14.352,6.426 14.352,14.351 z" /></g><g
         transform="matrix(1,0,0,-1,0,336.25937)"
         id="g4654"><path
           id="path4656"
           style="fill:#ffe82a;fill-opacity:1;fill-rule:nonzero;stroke:#808080;stroke-width:0.331824;stroke-linecap:butt;stroke-linejoin:miter;stroke-miterlimit:4;stroke-dasharray:none;stroke-opacity:1"
           d="m 89.715,88.609 c 0,9.68 -7.844,17.524 -17.524,17.524 -9.679,0 -17.523,-7.844 -17.523,-17.524 0,-9.679 7.844,-17.523 17.523,-17.523 9.68,0 17.524,7.844 17.524,17.523 z" /></g><g
         transform="matrix(1,0,0,-1,0,336.25937)"
         id="g4658"><path
           id="path4660"
           style="fill:none;stroke:#808080;stroke-width:0.41477999;stroke-linecap:butt;stroke-linejoin:miter;stroke-miterlimit:4;stroke-dasharray:none;stroke-opacity:1"
           d="m 86.543,88.609 c 0,7.926 -6.426,14.352 -14.352,14.352 -7.925,0 -14.355,-6.426 -14.355,-14.352" /></g><g
         transform="matrix(1,0,0,-1,0,336.25937)"
         id="g4662"><path
           id="path4664"
           style="fill:none;stroke:#808080;stroke-width:1.70920503;stroke-linecap:butt;stroke-linejoin:miter;stroke-miterlimit:4;stroke-dasharray:none;stroke-opacity:1"
           d="m 52.535,93.035 0.02,-4.426 c 0,-10.847 8.789,-19.636 19.636,-19.636 10.844,0 19.637,8.789 19.637,19.636 l -0.004,4.426" /></g><g
         transform="matrix(1,0,0,-1,0,336.25937)"
         id="g4666"><path
           id="path4668"
           style="fill:none;stroke:#808080;stroke-width:0.34526801;stroke-linecap:butt;stroke-linejoin:miter;stroke-miterlimit:4;stroke-dasharray:none;stroke-opacity:1"
           d="m 84.762,88.609 c 0,6.942 -5.629,12.571 -12.571,12.571 -6.941,0 -12.57,-5.629 -12.57,-12.571" /></g><g
         transform="matrix(1,0,0,-1,0,336.25937)"
         id="g4670"><path
           id="path4672"
           style="fill:none;stroke:#808080;stroke-width:0.34526801;stroke-linecap:butt;stroke-linejoin:miter;stroke-miterlimit:4;stroke-dasharray:none;stroke-opacity:1"
           d="m 83.059,89.891 c 0,5.527 -5.34,10.007 -10.868,10.007 -5.527,0 -11.062,-4.48 -11.062,-10.007" /></g><g
         transform="matrix(1,0,0,-1,0,336.25937)"
         id="g4674"><path
           id="path4676"
           style="fill:none;stroke:#808080;stroke-width:0.34507999;stroke-linecap:butt;stroke-linejoin:miter;stroke-miterlimit:4;stroke-dasharray:none;stroke-opacity:1"
           d="m 81.262,91.105 c 0,4.188 -4.91,7.579 -9.094,7.579 -4.184,0 -9.234,-3.391 -9.234,-7.579" /></g><g
         transform="matrix(1,0,0,-1,0,336.25937)"
         id="g4678"><path
           id="path4680"
           style="fill:none;stroke:#808080;stroke-width:0.34507999;stroke-linecap:butt;stroke-linejoin:miter;stroke-miterlimit:4;stroke-dasharray:none;stroke-opacity:1"
           d="m 79.492,92.191 c 0,2.985 -4.363,5.403 -7.347,5.403 -2.981,0 -7.442,-2.418 -7.442,-5.403" /></g><g
         transform="matrix(1,0,0,-1,0,336.25937)"
         id="g4682"><path
           id="path4684"
           style="fill:none;stroke:#808080;stroke-width:0.34509701;stroke-linecap:butt;stroke-linejoin:miter;stroke-miterlimit:4;stroke-dasharray:none;stroke-opacity:1"
           d="m 77.723,92.723 c 0,1.925 -3.668,3.484 -5.594,3.484 -1.922,0 -5.66,-1.559 -5.66,-3.484" /></g><path
         id="path4686"
         style="fill:#c1121c;fill-opacity:1;fill-rule:evenodd;stroke:none"
         d="M 118.012,-0.713 145.27,15.021 119.043,60.451 91.82,44.654 118.012,-0.713 Z" /><path
         id="path4688"
         style="fill:#c1121c;fill-opacity:1;fill-rule:evenodd;stroke:none"
         d="M 53.492,44.697 26.234,60.431 0.008,15.005 27.297,-0.67 53.492,44.697 Z" /><path
         id="path4690"
         style="fill:#c1121c;fill-opacity:1;fill-rule:evenodd;stroke:none"
         d="M 26.215,158.283 53.473,174.017 27.246,219.447 0.023,203.65 26.215,158.283 Z" /><path
         id="path4692"
         style="fill:#c1121c;fill-opacity:1;fill-rule:evenodd;stroke:none"
         d="m 145.289,203.693 -27.258,15.734 -26.226,-45.425 27.289,-15.676 26.195,45.367 z" /></g></g></svg>