<?xml version="1.0" encoding="UTF-8" standalone="no"?>
<svg
   xmlns:dc="http://purl.org/dc/elements/1.1/"
   xmlns:cc="http://creativecommons.org/ns#"
   xmlns:rdf="http://www.w3.org/1999/02/22-rdf-syntax-ns#"
   xmlns:svg="http://www.w3.org/2000/svg"
   xmlns="http://www.w3.org/2000/svg"
   viewBox="0 0 500.99896 250.97073"
   height="250.97073"
   width="500.99896"
   xml:space="preserve"
   version="1.1"
   id="svg5236"><metadata
     id="metadata5242"><rdf:RDF><cc:Work
         rdf:about=""><dc:format>image/svg+xml</dc:format><dc:type
           rdf:resource="http://purl.org/dc/dcmitype/StillImage" /><dc:title></dc:title></cc:Work></rdf:RDF></metadata><defs
     id="defs5240" /><g
     transform="matrix(1.25,0,0,-1.25,0,250.97073)"
     id="g5244"><g
       id="g5246"><path
         id="path5248"
         style="fill:#ffffff;fill-opacity:1;fill-rule:nonzero;stroke:none"
         d="m 365.199,200.378 c 35.457,-0.086 35.199,-35.199 35.199,-35.199 l 0,-129.578 c 0,0 0.825,-35.199 -35.199,-35.199 l -329.601,0 C -0.16,0.402 0.402,35.601 0.402,35.601 l 0,129.578 c 0,35.348 35.196,35.199 35.196,35.199 l 329.601,0 z" /><path
         id="path5250"
         style="fill:#c1121c;fill-opacity:1;fill-rule:nonzero;stroke:none"
         d="m 365.199,189.179 c 24.367,0 24,-24 24,-24 l 0,-129.578 c 0,0 0.332,-24 -24,-24 l -329.601,0 c -24.328,0 -23.996,24 -23.996,24 l 0,129.578 c 0,0 -0.149,24 23.996,24 l 329.601,0 z m 0,-12 -329.601,0 c 0,0 -11.996,-0.277 -11.996,-12 l 0,-129.578 c 0,0 -0.079,-12 11.996,-12 l 329.601,0 c 11.645,0 12,12 12,12 l 0,129.578 c 0,0 -0.023,12 -12,12 z" /><path
         id="path5252"
         style="fill:#000000;fill-opacity:1;fill-rule:nonzero;stroke:none"
         d="m 35.598,200.777 c -0.004,0 -8.883,0.043 -17.778,-4.387 C 8.926,191.96 0,182.984 0,165.179 L 0,35.601 C 0,35.593 -0.145,26.718 4.23,17.823 8.609,8.925 17.586,-0.001 35.598,-0.001 l 329.601,0 c 18.145,0 27.121,8.926 31.469,17.824 4.34,8.895 4.129,17.762 4.129,17.778 l 0,129.578 c 0,0.004 0.07,8.863 -4.344,17.746 -4.414,8.883 -13.391,17.809 -31.254,17.852 l -329.601,0 z m 0,-0.399 329.601,0 c 35.457,-0.086 35.199,-35.199 35.199,-35.199 l 0,-129.578 c 0,0 0.825,-35.199 -35.199,-35.199 l -329.601,0 C -0.16,0.402 0.402,35.601 0.402,35.601 l 0,129.578 c 0,35.348 35.196,35.199 35.196,35.199 z" /><path
         id="path5254"
         style="fill:#c1121c;fill-opacity:1;fill-rule:nonzero;stroke:none"
         d="m 310.375,116.534 -6.391,0 0,-6.379 6.391,0 0,6.379 z m -1.621,4.864 2.359,33.5 -7.902,0 2.402,-33.5 3.141,0 z m -20.957,-11.243 2.859,0 0,6.024 -2.047,0 c -0.394,-0.035 -0.773,-0.035 -1.168,0.039 -0.39,0.062 -0.773,0.207 -1.054,0.488 -0.246,0.25 -0.426,0.602 -0.492,0.949 -0.071,0.282 -0.036,0.536 -0.036,0.782 l 0,18.492 4.797,0 0,5.176 -4.797,0 0,9.625 -6.39,0 0,-9.625 -3.168,0 0,-5.176 3.168,0 0,-18.492 c 0,-0.637 0,-1.239 0.074,-1.875 0.07,-0.91 0.316,-1.828 0.734,-2.641 0.5,-0.945 1.203,-1.719 2.047,-2.32 0.957,-0.711 2.086,-1.203 3.25,-1.375 0.703,-0.11 1.477,-0.11 2.223,-0.071 z m -19.473,0 0,31.95 -6.426,0 0,-18.071 c 0.036,-0.843 0.075,-1.691 -0.062,-2.5 -0.211,-1.414 -0.922,-2.789 -1.977,-3.734 -1.058,-0.984 -2.504,-1.582 -3.988,-1.621 -1.519,-0.109 -3.031,0.32 -4.195,1.266 -1.278,0.882 -2.196,2.332 -2.469,3.843 -0.148,0.774 -0.109,1.547 -0.109,2.36 l 0,18.457 -6.356,0 0,-20.61 c -0.035,-0.773 -0.035,-1.547 0.035,-2.285 0.184,-1.726 0.848,-3.414 1.879,-4.832 1.055,-1.547 2.504,-2.742 4.16,-3.523 1.52,-0.774 3.211,-1.157 4.868,-1.121 1.511,0 3.035,0.382 4.445,1.058 1.019,0.453 2.012,1.09 2.785,1.867 0.356,0.352 0.672,0.735 0.984,1.125 l 0,-3.629 6.426,0 z m -38.734,31.95 -6.063,-22.192 -7.164,22.192 -4.761,0 -7.239,-22.192 -6.023,22.192 -6.738,0 9.976,-31.95 5.582,0 6.836,22.438 6.774,-22.438 5.542,0 10.016,31.95 -6.738,0 z m -44.832,-25.887 c -0.43,0.035 -0.887,0.137 -1.238,0.418 -0.418,0.32 -0.629,0.918 -0.704,1.484 -0.074,0.528 -0.035,1.02 0.036,1.547 l 0,35.231 -6.426,0 0,-36.395 c -0.028,-0.566 -0.028,-1.156 0,-1.758 0.109,-1.414 0.636,-2.824 1.594,-3.914 0.882,-1.156 2.183,-2.004 3.558,-2.394 0.711,-0.172 1.449,-0.246 2.184,-0.282 l 3.851,0 0,6.024 -1.554,0 c -0.418,0 -0.848,0 -1.301,0.039 z m -19.192,0 c -0.429,0.035 -0.882,0.137 -1.203,0.418 -0.418,0.32 -0.636,0.918 -0.738,1.484 -0.07,0.528 0,1.02 0.039,1.547 l 0,35.231 -6.426,0 0,-36.395 c 0,-0.566 -0.031,-1.156 0.035,-1.758 0.075,-1.414 0.637,-2.824 1.555,-3.914 0.91,-1.156 2.188,-2.004 3.598,-2.394 0.711,-0.172 1.449,-0.246 2.148,-0.282 l 3.852,0 0,6.024 -1.52,0 c -0.422,0 -0.886,0 -1.34,0.039 z m -23.496,6.652 c -0.066,-0.562 -0.109,-1.09 -0.246,-1.617 -0.281,-1.195 -0.957,-2.285 -1.84,-3.133 -0.664,-0.675 -1.437,-1.203 -2.32,-1.523 -0.711,-0.281 -1.484,-0.453 -2.258,-0.453 -1.375,-0.035 -2.722,0.355 -3.851,1.129 -0.91,0.562 -1.692,1.375 -2.184,2.32 -0.355,0.602 -0.641,1.273 -0.738,1.941 -0.11,0.465 -0.11,0.883 -0.145,1.336 l 0,6.739 c 0.035,0.589 0.11,1.156 0.242,1.718 0.286,1.094 0.958,2.114 1.805,2.887 1.274,1.199 2.996,1.938 4.727,1.938 1.554,0.039 3.136,-0.528 4.379,-1.547 1.164,-0.957 2.039,-2.293 2.293,-3.731 0.07,-0.429 0.101,-0.847 0.136,-1.265 l 0,-6.739 z m 6.391,0 0,6.739 c -0.035,0.761 -0.109,1.574 -0.254,2.355 -0.312,1.934 -1.23,3.805 -2.504,5.391 -1.23,1.656 -2.824,2.992 -4.691,3.871 -1.727,0.844 -3.668,1.273 -5.571,1.273 -2.046,0.035 -4.058,-0.394 -5.898,-1.273 -1.977,-0.914 -3.695,-2.36 -4.969,-4.153 -1.168,-1.519 -1.976,-3.316 -2.297,-5.179 -0.136,-0.774 -0.172,-1.524 -0.207,-2.285 l 0,-6.739 c 0.035,-0.699 0.071,-1.375 0.133,-2.074 0.219,-1.586 0.785,-3.141 1.633,-4.516 1.301,-2.25 3.277,-4.078 5.605,-5.171 1.832,-0.918 3.844,-1.375 5.856,-1.375 2.223,0 4.476,0.566 6.383,1.683 2.011,1.094 3.703,2.75 4.867,4.727 0.922,1.484 1.558,3.168 1.769,4.859 0.106,0.637 0.106,1.231 0.145,1.867 z m -27.203,32.028 -31.57,0 0,-6.028 12.417,0 0,-38.715 6.809,0 0,38.715 12.344,0" /><path
         id="path5256"
         style="fill:#c1121c;fill-opacity:1;fill-rule:nonzero;stroke:none"
         d="m 361.285,63.089 6.625,11.098 -5.605,0 -7.02,-12.117 0,23.312 -5.605,0 0,-39.137 5.605,0 0,7.711 2.785,4.199 4.907,-11.91 6.32,0 -8.012,16.844 z m -19.719,10.324 c -0.847,-0.465 -1.582,-1.093 -2.257,-1.804 -0.145,-0.137 -0.282,-0.27 -0.391,-0.418 l 0,2.996 -5.609,0 0,-27.942 5.609,0 0,16.352 c -0.035,0.59 -0.035,1.195 0.074,1.793 0.172,1.203 0.879,2.359 1.836,3.203 0.738,0.711 1.695,1.203 2.715,1.34 0.637,0.144 1.266,0.144 1.902,0 0.246,-0.035 0.493,-0.098 0.746,-0.137 l 0,5.844 c -0.253,-0.035 -0.5,-0.035 -0.746,-0.07 -1.34,-0.102 -2.711,-0.493 -3.879,-1.157 z m -19.433,6.481 5.57,0 0,5.488 -5.57,0 0,-5.488 z m 0,-33.649 5.57,0 0,27.942 -5.57,0 0,-27.942 z m -18.871,23.141 8.39,0 -9.031,-18.523 0,-4.618 15.313,0 0,5.356 -8.993,0 8.993,18.496 0,4.09 -14.672,0 0,-4.801 z m -9.707,-6.617 -5.571,0 0,2.789 c 0,0.453 -0.035,0.906 0.098,1.375 0.148,0.562 0.469,1.117 0.957,1.472 0.457,0.43 1.059,0.637 1.695,0.637 0.563,0 1.164,-0.183 1.618,-0.527 0.503,-0.356 0.882,-0.883 1.031,-1.449 0.172,-0.493 0.172,-0.981 0.172,-1.508 l 0,-2.789 z m 2.148,10.14 c -1.449,1.094 -3.168,1.661 -4.898,1.621 -2.012,0.04 -4.059,-0.738 -5.578,-2.109 -1.301,-1.082 -2.223,-2.605 -2.606,-4.191 -0.18,-0.735 -0.207,-1.516 -0.281,-2.293 l 0,-10.606 c 0,-0.808 0,-1.582 0.137,-2.394 0.246,-1.93 1.347,-3.805 2.933,-5.071 1.481,-1.3 3.422,-2.011 5.324,-1.972 1.84,-0.039 3.629,0.562 5.043,1.656 1.164,0.848 2.047,2.012 2.649,3.313 0.418,0.882 0.699,1.867 0.699,2.859 l 0,0.59 -5.57,0 c -0.035,-0.211 -0.071,-0.418 -0.11,-0.664 -0.136,-0.528 -0.418,-1.063 -0.847,-1.41 -0.528,-0.493 -1.301,-0.739 -2.036,-0.676 -0.714,0.039 -1.374,0.32 -1.839,0.847 -0.422,0.43 -0.668,1.02 -0.739,1.621 -0.074,0.426 -0.039,0.883 0,1.301 l 0,2.86 11.141,0 0,7.746 c -0.035,0.886 -0.098,1.765 -0.316,2.613 -0.383,1.723 -1.586,3.305 -3.106,4.359 z m -23.488,0.86 c -0.035,-0.641 -0.07,-1.278 -0.242,-1.879 -0.184,-0.59 -0.539,-1.156 -0.996,-1.582 -0.454,-0.418 -1.016,-0.738 -1.618,-0.848 -0.394,-0.097 -0.773,-0.137 -1.164,-0.137 l -3.351,0 0,10.817 3.176,0 c 0.527,-0.035 1.019,-0.074 1.476,-0.211 0.566,-0.18 1.063,-0.461 1.52,-0.844 0.492,-0.465 0.882,-1.031 1.058,-1.66 0.106,-0.391 0.145,-0.809 0.145,-1.238 l 0,-2.418 -0.004,0 z m 0,-18.008 c -0.035,-0.527 -0.07,-1.02 -0.242,-1.484 -0.184,-0.493 -0.539,-0.946 -0.957,-1.34 -0.391,-0.383 -0.848,-0.735 -1.375,-0.91 -0.5,-0.18 -1.028,-0.18 -1.594,-0.219 l -3.203,0 0,12.582 3.14,0 c 0.528,-0.035 1.055,-0.035 1.547,-0.172 0.531,-0.184 1.059,-0.492 1.485,-0.922 0.453,-0.391 0.847,-0.91 0.984,-1.512 0.18,-0.461 0.18,-0.953 0.219,-1.48 l 0,-4.543 -0.004,0 z m 2.68,26.883 c -1.165,1.191 -2.641,2.039 -4.235,2.429 -0.699,0.137 -1.445,0.247 -2.148,0.309 l -9.211,0 0,-39.137 8.648,0 c 0.809,0.039 1.617,0.075 2.391,0.246 1.348,0.247 2.578,0.887 3.633,1.731 0.922,0.703 1.695,1.586 2.265,2.605 0.532,0.946 0.875,1.977 1.059,3.032 0.101,0.629 0.101,1.265 0.137,1.902 l 0,4.543 c -0.137,1.301 -0.286,2.641 -0.922,3.73 -0.528,1.02 -1.438,1.868 -2.43,2.504 -0.172,0.11 -0.391,0.211 -0.562,0.321 0.281,0.136 0.562,0.281 0.808,0.453 0.774,0.457 1.41,1.129 1.91,1.867 0.492,0.711 0.84,1.519 0.985,2.367 0.136,0.527 0.175,1.059 0.211,1.621 l 0,3.02 c -0.036,0.75 -0.036,1.523 -0.211,2.222 -0.282,1.586 -1.129,3.071 -2.328,4.235 z" /><path
         id="path5258"
         style="fill:#c1121c;fill-opacity:1;fill-rule:nonzero;stroke:none"
         d="m 238.68,73.413 c -0.848,-0.465 -1.586,-1.093 -2.258,-1.804 -0.137,-0.137 -0.246,-0.27 -0.383,-0.418 l 0,2.996 -5.617,0 0,-27.942 5.617,0 0,16.352 c 0,0.59 -0.035,1.195 0.102,1.793 0.144,1.203 0.847,2.359 1.8,3.203 0.739,0.711 1.696,1.203 2.715,1.34 0.637,0.144 1.274,0.144 1.903,0 0.253,-0.035 0.5,-0.098 0.746,-0.137 l 0,5.844 c -0.246,-0.035 -0.493,-0.035 -0.746,-0.07 -1.336,-0.102 -2.676,-0.493 -3.879,-1.157 z m -18.727,-10.644 -5.582,0 0,2.789 c 0,0.453 -0.035,0.906 0.074,1.375 0.149,0.562 0.493,1.117 0.985,1.472 0.465,0.43 1.062,0.637 1.703,0.637 0.562,0 1.156,-0.183 1.621,-0.527 0.488,-0.356 0.883,-0.883 1.019,-1.449 0.18,-0.493 0.18,-0.981 0.18,-1.508 l 0,-2.789 z m 2.149,10.14 c -1.446,1.094 -3.176,1.661 -4.907,1.621 -2.011,0.04 -4.05,-0.738 -5.57,-2.109 -1.301,-1.082 -2.223,-2.605 -2.613,-4.191 -0.172,-0.735 -0.211,-1.516 -0.282,-2.293 l 0,-10.606 c 0,-0.808 0,-1.582 0.11,-2.394 0.281,-1.93 1.375,-3.805 2.957,-5.071 1.484,-1.3 3.422,-2.011 5.336,-1.972 1.793,-0.039 3.633,0.562 5.043,1.656 1.164,0.848 2.039,2.012 2.64,3.313 0.426,0.882 0.707,1.867 0.707,2.859 l 0,0.59 -5.57,0 c -0.035,-0.211 -0.07,-0.418 -0.109,-0.664 -0.145,-0.528 -0.418,-1.063 -0.844,-1.41 -0.527,-0.493 -1.305,-0.739 -2.051,-0.676 -0.699,0.039 -1.375,0.32 -1.828,0.847 -0.43,0.43 -0.672,1.02 -0.746,1.621 -0.066,0.426 -0.035,0.883 0,1.301 l 0,2.86 11.148,0 0,7.746 c -0.035,0.886 -0.109,1.765 -0.316,2.613 -0.391,1.723 -1.582,3.305 -3.105,4.359 z m -20.356,9.77 -5.57,0 0,-8.492 -2.785,0 0,-4.442 2.785,0 0,-16.734 c -0.035,-0.457 -0.035,-0.953 0.035,-1.449 0.137,-1.438 0.984,-2.848 2.152,-3.801 0.809,-0.668 1.727,-1.133 2.711,-1.34 0.781,-0.172 1.594,-0.172 2.403,-0.172 l 1.765,0 0,5.317 -1.308,0 c -0.211,0 -0.457,0 -0.668,0.035 -0.317,0.035 -0.637,0.109 -0.918,0.316 -0.282,0.211 -0.493,0.606 -0.602,0.949 -0.074,0.391 -0.035,0.786 0,1.204 l 0,15.675 3.496,0 0,4.442 -3.496,0 0,8.492 z M 179.414,65.558 c 0,0.453 0,0.906 0.109,1.375 0.141,0.562 0.457,1.117 0.957,1.472 0.458,0.43 1.094,0.637 1.684,0.637 0.602,0 1.168,-0.183 1.66,-0.527 0.5,-0.356 0.852,-0.883 1.028,-1.449 0.136,-0.493 0.136,-0.981 0.136,-1.508 l 0,-2.789 -5.574,0 0,2.789 z m 5.574,-11.246 c -0.031,-0.207 -0.031,-0.418 -0.101,-0.664 -0.11,-0.528 -0.426,-1.063 -0.848,-1.41 -0.527,-0.493 -1.309,-0.739 -2.047,-0.672 -0.699,0.035 -1.375,0.316 -1.84,0.843 -0.418,0.43 -0.664,1.024 -0.738,1.621 -0.035,0.426 -0.035,0.883 0,1.301 l 0,2.86 11.152,0 0,7.746 c -0.035,0.886 -0.07,1.769 -0.316,2.613 -0.391,1.723 -1.594,3.305 -3.105,4.363 -1.411,1.09 -3.141,1.657 -4.907,1.617 -2.015,0.04 -4.05,-0.738 -5.574,-2.109 -1.273,-1.082 -2.219,-2.605 -2.574,-4.187 -0.172,-0.739 -0.246,-1.52 -0.317,-2.297 l 0,-10.606 c 0,-0.808 0,-1.582 0.145,-2.394 0.242,-1.93 1.375,-3.805 2.922,-5.071 1.484,-1.3 3.422,-2.011 5.363,-1.972 1.801,-0.039 3.594,0.562 5.008,1.656 1.164,0.848 2.047,2.012 2.648,3.313 0.426,0.882 0.707,1.867 0.746,2.859 0,0.207 -0.039,0.383 -0.039,0.59 l -5.578,0 z m -22.394,0.922 c 0.035,-0.528 0.035,-1.094 -0.074,-1.586 -0.145,-0.5 -0.391,-0.993 -0.809,-1.336 -0.527,-0.539 -1.273,-0.785 -2.051,-0.75 -0.738,0.039 -1.484,0.355 -1.937,0.922 -0.391,0.382 -0.602,0.882 -0.672,1.41 -0.067,0.457 -0.067,0.883 -0.031,1.34 l 0,10.004 c -0.036,0.453 -0.036,0.917 0.031,1.335 0.07,0.668 0.387,1.375 0.883,1.797 0.461,0.465 1.128,0.707 1.8,0.707 0.704,0 1.45,-0.242 1.938,-0.773 0.492,-0.426 0.777,-1.094 0.887,-1.731 0.07,-0.453 0.035,-0.882 0.035,-1.335 l 0,-10.004 z m 0,16.312 c -0.184,0.281 -0.356,0.594 -0.563,0.836 -0.465,0.637 -1.133,1.133 -1.879,1.484 -0.847,0.457 -1.793,0.704 -2.746,0.664 -1.203,0.04 -2.359,-0.308 -3.39,-1.019 -1.09,-0.699 -1.973,-1.758 -2.328,-2.996 -0.211,-0.625 -0.247,-1.301 -0.282,-2 l 0,-15.113 c -0.031,-0.821 -0.066,-1.594 0.035,-2.395 0.219,-1.445 0.993,-2.894 2.184,-3.84 1.102,-0.922 2.551,-1.375 3.961,-1.273 0.945,0.035 1.863,0.316 2.676,0.808 0.676,0.356 1.238,0.809 1.656,1.411 0.246,0.316 0.457,0.671 0.672,1.019 l 0,-2.887 5.609,0 0,39.137 -5.609,0 0,-13.836 0.004,0 z m -18.59,1.867 c -0.883,-0.465 -1.629,-1.093 -2.297,-1.804 -0.145,-0.137 -0.242,-0.27 -0.387,-0.418 l 0,2.996 -5.609,0 0,-27.942 5.609,0 0,16.352 c 0,0.59 0,1.195 0.11,1.793 0.172,1.203 0.843,2.359 1.789,3.203 0.785,0.711 1.73,1.203 2.726,1.34 0.637,0.144 1.297,0.144 1.899,0 0.246,-0.035 0.492,-0.098 0.738,-0.137 l 0,5.844 c -0.246,-0.035 -0.492,-0.035 -0.738,-0.07 -1.336,-0.102 -2.684,-0.493 -3.84,-1.157 z m -16.34,0.035 c -0.949,0.7 -2.113,1.082 -3.277,1.082 -1.094,0.075 -2.188,-0.207 -3.106,-0.738 -0.699,-0.344 -1.301,-0.883 -1.765,-1.472 -0.211,-0.282 -0.383,-0.563 -0.563,-0.848 l 0,13.91 -5.609,0 0,-39.137 5.609,0 0,19.59 c 0,0.32 0.035,0.629 0.109,0.949 0.11,0.602 0.426,1.164 0.879,1.547 0.457,0.43 1.055,0.637 1.661,0.676 0.636,0.035 1.273,-0.148 1.765,-0.531 0.492,-0.317 0.883,-0.809 1.055,-1.336 0.109,-0.426 0.109,-0.883 0.109,-1.305 l 0,-19.59 5.606,0 0,21.668 c -0.035,0.7 -0.035,1.375 -0.18,2.012 -0.246,1.375 -1.129,2.676 -2.293,3.523 z m -20.984,11.934 -5.547,0 0,-5.426 5.547,0 0,5.426 z m -8.43,0 -5.543,0 0,-5.426 5.543,0 0,5.426 z m 3.84,-31.562 c -0.137,-0.672 -0.488,-1.336 -1.055,-1.762 -0.562,-0.457 -1.34,-0.629 -2.121,-0.496 -0.875,0.148 -1.758,0.676 -2.078,1.449 -0.207,0.453 -0.242,0.945 -0.281,1.477 l 0,1.371 c 0,0.218 0.039,0.394 0.074,0.601 0.066,0.391 0.211,0.738 0.457,1.059 0.281,0.39 0.738,0.636 1.199,0.773 0.531,0.18 1.129,0.215 1.695,0.215 l 2.149,0 0,-2.711 c 0.035,-0.672 0.109,-1.308 -0.039,-1.976 z m 2.613,18.816 c -1.484,1.305 -3.496,1.969 -5.433,1.894 -1.696,0 -3.352,-0.527 -4.727,-1.472 -1.234,-0.809 -2.219,-1.977 -2.82,-3.313 -0.43,-0.812 -0.676,-1.722 -0.774,-2.679 l 0,-0.77 5.606,0 c 0,0.168 0.039,0.379 0.074,0.563 0.137,0.636 0.527,1.191 1.094,1.582 0.527,0.418 1.156,0.636 1.793,0.601 0.636,-0.035 1.238,-0.355 1.691,-0.773 0.355,-0.321 0.602,-0.711 0.75,-1.094 0.207,-0.527 0.172,-1.09 0.172,-1.691 l 0,-2.395 -3.18,0 c -0.738,0 -1.445,0 -2.183,-0.144 -1.336,-0.176 -2.649,-0.875 -3.668,-1.868 -0.985,-0.945 -1.657,-2.148 -1.942,-3.449 -0.144,-0.601 -0.172,-1.203 -0.207,-1.832 l 0,-3.141 c -0.035,-0.628 -0.035,-1.265 0.098,-1.867 0.183,-1.375 0.996,-2.711 2.121,-3.586 1.059,-0.882 2.434,-1.382 3.77,-1.308 0.957,0 1.874,0.281 2.722,0.734 0.699,0.356 1.301,0.813 1.793,1.41 0.258,0.285 0.465,0.637 0.676,0.996 l 0,-2.789 5.605,0 0,20.051 c -0.035,0.66 -0.101,1.336 -0.281,2.008 -0.355,1.684 -1.34,3.242 -2.75,4.332 z M 84.137,85.245 c -1.336,-0.172 -2.61,-0.843 -3.594,-1.828 -1.102,-0.992 -1.875,-2.367 -2.086,-3.804 -0.07,-0.528 -0.109,-1.055 -0.109,-1.586 l 0,-3.84 -2.746,0 0,-4.481 2.746,0 0,-23.461 5.644,0 0,23.461 4.133,0 0,4.481 -4.133,0 0,3.84 c 0,0.246 0,0.457 0.035,0.703 0.039,0.316 0.184,0.636 0.395,0.883 0.207,0.21 0.418,0.382 0.699,0.492 0.281,0.109 0.637,0.109 0.957,0.109 l 2.047,0 0,5.168 -1.937,0 c -0.676,0 -1.383,0 -2.051,-0.133 l 0,-0.004 z M 60.926,65.558 c 0,0.453 0,0.906 0.109,1.375 0.137,0.562 0.492,1.117 0.945,1.472 0.465,0.43 1.094,0.637 1.696,0.637 0.597,0 1.199,-0.183 1.656,-0.527 0.5,-0.356 0.848,-0.883 1.027,-1.449 0.137,-0.493 0.137,-0.981 0.137,-1.508 l 0,-2.789 -5.57,0 0,2.789 z m 5.57,-11.246 c 0,-0.207 -0.035,-0.418 -0.101,-0.664 -0.106,-0.528 -0.426,-1.063 -0.844,-1.41 -0.531,-0.493 -1.278,-0.739 -2.012,-0.672 -0.711,0.035 -1.41,0.316 -1.875,0.843 -0.422,0.43 -0.629,1.024 -0.738,1.621 -0.035,0.426 0,0.883 0,1.301 l 0,2.86 11.152,0 0,7.746 c -0.039,0.886 -0.074,1.769 -0.32,2.613 -0.391,1.723 -1.594,3.305 -3.102,4.363 -1.414,1.09 -3.14,1.657 -4.91,1.617 -2.012,0.04 -4.058,-0.738 -5.535,-2.109 -1.309,-1.082 -2.254,-2.605 -2.609,-4.187 -0.176,-0.739 -0.247,-1.52 -0.286,-2.297 l 0,-10.606 c -0.035,-0.808 -0.035,-1.582 0.11,-2.394 0.246,-1.93 1.375,-3.805 2.961,-5.071 1.48,-1.3 3.386,-2.011 5.324,-1.972 1.805,-0.039 3.633,0.562 5.043,1.656 1.129,0.848 2.047,2.012 2.613,3.313 0.43,0.882 0.711,1.867 0.738,2.859 0,0.207 0,0.383 -0.027,0.59 l -5.582,0 z M 48.863,81.515 c -0.738,1.129 -1.73,2.109 -2.894,2.812 -1.41,0.918 -3.141,1.411 -4.871,1.411 -1.547,0.039 -3.106,-0.317 -4.442,-1.02 C 35.109,83.98 33.832,82.741 32.914,81.304 32.25,80.214 31.785,79.011 31.609,77.78 31.5,77.144 31.5,76.48 31.5,75.843 l 0,-19.664 c 0,-0.848 0,-1.656 0.109,-2.504 0.211,-1.402 0.778,-2.777 1.661,-3.902 0.953,-1.34 2.292,-2.36 3.812,-3.035 1.195,-0.528 2.504,-0.844 3.809,-0.844 1.617,-0.074 3.312,0.32 4.757,1.164 1.375,0.773 2.54,1.902 3.352,3.277 0.672,1.055 1.129,2.25 1.309,3.449 0.101,0.813 0.101,1.621 0.101,2.395 l 0,11.769 -10.121,0 0,-4.859 4.516,0 0,-6.91 c 0,-0.527 0,-1.09 -0.11,-1.621 -0.136,-0.809 -0.629,-1.582 -1.265,-2.149 -0.711,-0.562 -1.586,-0.91 -2.469,-0.882 -0.957,-0.028 -1.938,0.355 -2.613,0.992 -0.672,0.566 -1.09,1.375 -1.235,2.222 -0.07,0.454 -0.031,0.946 0,1.438 l 0,19.664 c 0,0.453 0,0.945 0.106,1.402 0.183,0.918 0.812,1.766 1.621,2.293 0.637,0.457 1.414,0.676 2.23,0.676 0.875,0 1.793,-0.359 2.504,-0.996 0.59,-0.527 1.055,-1.266 1.164,-2.074 0.102,-0.43 0.067,-0.883 0.067,-1.301 l 0,-1.656 5.609,0 0,1.656 c 0,0.664 0,1.34 -0.066,2 -0.184,1.305 -0.711,2.578 -1.485,3.672 z" /></g></g></svg>