<?xml version="1.0" encoding="UTF-8" standalone="no"?>
<svg
   xmlns:dc="http://purl.org/dc/elements/1.1/"
   xmlns:cc="http://creativecommons.org/ns#"
   xmlns:rdf="http://www.w3.org/1999/02/22-rdf-syntax-ns#"
   xmlns:svg="http://www.w3.org/2000/svg"
   xmlns="http://www.w3.org/2000/svg"
   viewBox="0 0 500.99896 250.97073"
   height="250.97073"
   width="500.99896"
   xml:space="preserve"
   version="1.1"
   id="svg5478"><metadata
     id="metadata5484"><rdf:RDF><cc:Work
         rdf:about=""><dc:format>image/svg+xml</dc:format><dc:type
           rdf:resource="http://purl.org/dc/dcmitype/StillImage" /><dc:title></dc:title></cc:Work></rdf:RDF></metadata><defs
     id="defs5482" /><g
     transform="matrix(1.25,0,0,-1.25,0,250.97073)"
     id="g5486"><g
       id="g5488"><path
         id="path5490"
         style="fill:#ffffff;fill-opacity:1;fill-rule:nonzero;stroke:none"
         d="m 365.199,200.378 c 35.457,-0.086 35.199,-35.199 35.199,-35.199 l 0,-129.578 c 0,0 0.825,-35.199 -35.199,-35.199 l -329.601,0 C -0.16,0.402 0.402,35.601 0.402,35.601 l 0,129.578 c 0,35.348 35.196,35.199 35.196,35.199 l 329.601,0 z" /><path
         id="path5492"
         style="fill:#c1121c;fill-opacity:1;fill-rule:nonzero;stroke:none"
         d="m 365.199,189.179 c 24.367,0 24,-24 24,-24 l 0,-129.578 c 0,0 0.332,-24 -24,-24 l -329.601,0 c -24.328,0 -23.996,24 -23.996,24 l 0,129.578 c 0,0 -0.149,24 23.996,24 l 329.601,0 z m 0,-12 -329.601,0 c 0,0 -11.996,-0.277 -11.996,-12 l 0,-129.578 c 0,0 -0.079,-12 11.996,-12 l 329.601,0 c 11.645,0 12,12 12,12 l 0,129.578 c 0,0 -0.023,12 -12,12 z" /><path
         id="path5494"
         style="fill:#000000;fill-opacity:1;fill-rule:nonzero;stroke:none"
         d="m 35.598,200.777 c -0.004,0 -8.883,0.043 -17.778,-4.387 C 8.926,191.96 0,182.984 0,165.179 L 0,35.601 C 0,35.593 -0.145,26.718 4.23,17.823 8.609,8.925 17.586,-0.001 35.598,-0.001 l 329.601,0 c 18.145,0 27.121,8.926 31.469,17.824 4.34,8.895 4.129,17.762 4.129,17.778 l 0,129.578 c 0,0.004 0.07,8.863 -4.344,17.746 -4.414,8.883 -13.391,17.809 -31.254,17.852 l -329.601,0 z m 0,-0.399 329.601,0 c 35.457,-0.086 35.199,-35.199 35.199,-35.199 l 0,-129.578 c 0,0 0.825,-35.199 -35.199,-35.199 l -329.601,0 C -0.16,0.402 0.402,35.601 0.402,35.601 l 0,129.578 c 0,35.348 35.196,35.199 35.196,35.199 z" /><path
         id="path5496"
         style="fill:#c1121c;fill-opacity:1;fill-rule:nonzero;stroke:none"
         d="m 361.285,63.089 6.629,11.098 -5.609,0 -7.02,-12.117 0,23.316 -5.605,0 0,-39.137 5.605,0 0,7.707 2.789,4.199 4.906,-11.906 6.317,0 -8.012,16.84 z m -19.719,10.324 c -0.843,-0.465 -1.582,-1.093 -2.257,-1.8 -0.145,-0.141 -0.282,-0.274 -0.391,-0.422 l 0,2.996 -5.609,0 0,-27.938 5.609,0 0,16.348 c -0.035,0.594 -0.035,1.195 0.074,1.797 0.172,1.199 0.883,2.355 1.836,3.203 0.738,0.707 1.695,1.203 2.715,1.336 0.637,0.148 1.266,0.148 1.902,0 0.246,-0.035 0.493,-0.098 0.746,-0.133 l 0,5.844 c -0.253,-0.039 -0.5,-0.039 -0.746,-0.074 -1.336,-0.098 -2.711,-0.493 -3.879,-1.157 z m -19.433,6.481 5.57,0 0,5.492 -5.57,0 0,-5.492 z m 0,-33.645 5.57,0 0,27.938 -5.57,0 0,-27.938 z m -18.871,23.141 8.39,0 -9.027,-18.527 0,-4.614 15.309,0 0,5.352 -8.993,0 8.993,18.496 0,4.09 -14.672,0 0,-4.797 z m -9.707,-6.621 -5.571,0 0,2.789 c 0,0.453 -0.035,0.91 0.102,1.375 0.144,0.562 0.465,1.117 0.953,1.472 0.457,0.43 1.059,0.637 1.695,0.637 0.563,0 1.164,-0.179 1.618,-0.527 0.503,-0.356 0.886,-0.883 1.031,-1.445 0.172,-0.493 0.172,-0.985 0.172,-1.512 l 0,-2.789 z m 2.148,10.144 c -1.445,1.094 -3.164,1.657 -4.898,1.621 -2.012,0.036 -4.059,-0.738 -5.578,-2.113 -1.301,-1.082 -2.223,-2.605 -2.606,-4.187 -0.18,-0.739 -0.207,-1.52 -0.281,-2.293 l 0,-10.61 c 0,-0.808 0,-1.582 0.137,-2.39 0.246,-1.93 1.347,-3.809 2.933,-5.071 1.481,-1.304 3.422,-2.011 5.324,-1.976 1.84,-0.035 3.629,0.562 5.043,1.656 1.164,0.848 2.047,2.012 2.649,3.313 0.418,0.886 0.703,1.867 0.703,2.859 l 0,0.594 -5.574,0 c -0.035,-0.211 -0.071,-0.422 -0.106,-0.668 -0.14,-0.528 -0.422,-1.063 -0.847,-1.41 -0.532,-0.489 -1.305,-0.739 -2.04,-0.676 -0.714,0.039 -1.374,0.32 -1.839,0.847 -0.418,0.43 -0.668,1.02 -0.739,1.621 -0.074,0.43 -0.039,0.883 0,1.301 l 0,2.86 11.145,0 0,7.75 c -0.039,0.882 -0.102,1.765 -0.32,2.609 -0.383,1.723 -1.586,3.305 -3.106,4.363 z m -23.488,0.856 c -0.035,-0.637 -0.07,-1.278 -0.242,-1.875 -0.184,-0.594 -0.539,-1.156 -0.993,-1.586 -0.457,-0.418 -1.019,-0.738 -1.621,-0.848 -0.39,-0.097 -0.773,-0.133 -1.164,-0.133 l -3.351,0 0,10.813 3.176,0 c 0.527,-0.035 1.019,-0.07 1.476,-0.211 0.566,-0.18 1.066,-0.461 1.52,-0.844 0.492,-0.465 0.882,-1.031 1.058,-1.66 0.11,-0.387 0.145,-0.809 0.145,-1.234 l 0,-2.422 -0.004,0 z m 0,-18.008 c -0.035,-0.527 -0.07,-1.02 -0.242,-1.484 -0.184,-0.493 -0.539,-0.946 -0.957,-1.336 -0.391,-0.383 -0.844,-0.739 -1.375,-0.911 -0.5,-0.183 -1.028,-0.183 -1.59,-0.218 l -3.207,0 0,12.582 3.14,0 c 0.528,-0.039 1.055,-0.039 1.547,-0.176 0.531,-0.184 1.059,-0.492 1.485,-0.922 0.453,-0.391 0.847,-0.906 0.984,-1.508 0.184,-0.465 0.184,-0.957 0.219,-1.484 l 0,-4.543 -0.004,0 z m 2.68,26.883 c -1.165,1.191 -2.641,2.039 -4.235,2.429 -0.699,0.137 -1.445,0.247 -2.148,0.313 l -9.211,0 0,-39.137 8.648,0 c 0.809,0.035 1.617,0.071 2.395,0.246 1.344,0.243 2.574,0.883 3.629,1.727 0.922,0.703 1.695,1.586 2.269,2.605 0.528,0.946 0.871,1.977 1.055,3.032 0.101,0.629 0.101,1.265 0.137,1.902 l 0,4.543 c -0.137,1.301 -0.282,2.641 -0.918,3.73 -0.532,1.02 -1.442,1.868 -2.434,2.504 -0.172,0.11 -0.391,0.211 -0.562,0.321 0.281,0.136 0.562,0.281 0.808,0.457 0.774,0.453 1.41,1.129 1.914,1.863 0.488,0.711 0.836,1.523 0.981,2.367 0.136,0.531 0.175,1.059 0.211,1.621 l 0,3.024 c -0.036,0.746 -0.036,1.519 -0.211,2.222 -0.282,1.582 -1.129,3.067 -2.328,4.231 z" /><path
         id="path5498"
         style="fill:#c1121c;fill-opacity:1;fill-rule:nonzero;stroke:none"
         d="m 238.68,73.413 c -0.844,-0.465 -1.582,-1.093 -2.258,-1.8 -0.137,-0.141 -0.242,-0.274 -0.383,-0.422 l 0,2.996 -5.617,0 0,-27.938 5.617,0 0,16.348 c 0,0.594 -0.035,1.195 0.102,1.797 0.144,1.199 0.847,2.355 1.804,3.203 0.735,0.707 1.692,1.203 2.711,1.336 0.637,0.148 1.274,0.148 1.903,0 0.257,-0.035 0.5,-0.098 0.746,-0.133 l 0,5.844 c -0.246,-0.039 -0.489,-0.039 -0.746,-0.074 -1.336,-0.098 -2.676,-0.493 -3.879,-1.157 z m -18.727,-10.644 -5.582,0 0,2.789 c 0,0.453 -0.035,0.91 0.074,1.375 0.149,0.562 0.493,1.117 0.985,1.472 0.465,0.43 1.066,0.637 1.703,0.637 0.566,0 1.156,-0.179 1.621,-0.527 0.492,-0.356 0.883,-0.883 1.019,-1.445 0.18,-0.493 0.18,-0.985 0.18,-1.512 l 0,-2.789 z m 2.152,10.144 c -1.449,1.094 -3.179,1.657 -4.91,1.621 -2.011,0.036 -4.05,-0.738 -5.57,-2.113 -1.301,-1.082 -2.223,-2.605 -2.613,-4.187 -0.172,-0.739 -0.211,-1.52 -0.282,-2.293 l 0,-10.61 c 0,-0.808 0,-1.582 0.11,-2.39 0.281,-1.93 1.375,-3.809 2.961,-5.071 1.48,-1.304 3.418,-2.011 5.332,-1.976 1.793,-0.035 3.633,0.562 5.043,1.656 1.164,0.848 2.039,2.012 2.64,3.313 0.426,0.886 0.707,1.867 0.707,2.859 l 0,0.594 -5.57,0 c -0.035,-0.211 -0.07,-0.422 -0.109,-0.668 -0.145,-0.528 -0.418,-1.063 -0.844,-1.41 -0.527,-0.489 -1.301,-0.739 -2.047,-0.676 -0.703,0.039 -1.379,0.32 -1.832,0.847 -0.43,0.43 -0.672,1.02 -0.746,1.621 -0.066,0.43 -0.035,0.883 0,1.301 l 0,2.86 11.148,0 0,7.75 c -0.035,0.882 -0.109,1.765 -0.316,2.609 -0.391,1.723 -1.582,3.305 -3.102,4.363 z m -20.359,9.766 -5.57,0 0,-8.492 -2.785,0 0,-4.442 2.785,0 0,-16.734 c -0.035,-0.453 -0.035,-0.953 0.035,-1.449 0.141,-1.438 0.984,-2.848 2.152,-3.801 0.809,-0.664 1.727,-1.133 2.711,-1.34 0.781,-0.172 1.594,-0.172 2.403,-0.172 l 1.765,0 0,5.317 -1.308,0 c -0.211,0 -0.457,0 -0.668,0.035 -0.317,0.039 -0.637,0.109 -0.918,0.32 -0.282,0.207 -0.493,0.602 -0.602,0.945 -0.07,0.391 -0.035,0.786 0,1.204 l 0,15.675 3.496,0 0,4.442 -3.496,0 0,8.492 z M 179.418,65.558 c 0,0.453 0,0.91 0.109,1.375 0.137,0.562 0.453,1.117 0.953,1.472 0.458,0.43 1.094,0.637 1.688,0.637 0.598,0 1.164,-0.179 1.656,-0.527 0.5,-0.356 0.856,-0.883 1.028,-1.445 0.136,-0.493 0.136,-0.985 0.136,-1.512 l 0,-2.789 -5.57,0 0,2.789 z m 5.57,-11.242 c -0.027,-0.211 -0.027,-0.422 -0.101,-0.664 -0.11,-0.532 -0.426,-1.067 -0.848,-1.414 -0.527,-0.489 -1.309,-0.739 -2.047,-0.672 -0.699,0.035 -1.375,0.316 -1.836,0.843 -0.422,0.43 -0.668,1.024 -0.738,1.625 -0.039,0.426 -0.039,0.879 0,1.297 l 0,2.86 11.152,0 0,7.75 c -0.039,0.882 -0.074,1.765 -0.32,2.609 -0.391,1.723 -1.594,3.305 -3.105,4.363 -1.411,1.094 -3.141,1.657 -4.907,1.621 -2.011,0.036 -4.05,-0.738 -5.57,-2.113 -1.277,-1.082 -2.223,-2.605 -2.578,-4.187 -0.172,-0.739 -0.246,-1.52 -0.317,-2.293 l 0,-10.61 c 0,-0.808 0,-1.582 0.145,-2.39 0.246,-1.93 1.375,-3.805 2.922,-5.071 1.484,-1.304 3.426,-2.011 5.363,-1.976 1.801,-0.035 3.594,0.562 5.008,1.656 1.164,0.848 2.047,2.012 2.648,3.313 0.426,0.886 0.711,1.867 0.746,2.859 0,0.211 -0.035,0.383 -0.035,0.594 l -5.582,0 z m -22.394,0.918 c 0.035,-0.528 0.035,-1.09 -0.074,-1.586 -0.145,-0.5 -0.391,-0.989 -0.809,-1.336 -0.527,-0.539 -1.273,-0.785 -2.047,-0.75 -0.738,0.039 -1.484,0.359 -1.941,0.922 -0.391,0.382 -0.602,0.882 -0.672,1.41 -0.067,0.457 -0.067,0.886 -0.031,1.34 l 0,10.004 c -0.036,0.453 -0.036,0.921 0.031,1.339 0.07,0.664 0.39,1.375 0.883,1.793 0.461,0.465 1.128,0.711 1.8,0.711 0.704,0 1.45,-0.246 1.942,-0.777 0.488,-0.426 0.773,-1.09 0.883,-1.727 0.07,-0.457 0.035,-0.886 0.035,-1.339 l 0,-10.004 z m 0,16.312 c -0.184,0.285 -0.356,0.594 -0.563,0.836 -0.465,0.641 -1.133,1.133 -1.879,1.484 -0.847,0.457 -1.793,0.704 -2.746,0.668 -1.203,0.036 -2.359,-0.308 -3.386,-1.023 -1.094,-0.699 -1.977,-1.758 -2.332,-2.992 -0.211,-0.629 -0.247,-1.305 -0.282,-2.004 l 0,-15.11 c -0.031,-0.824 -0.066,-1.593 0.035,-2.394 0.219,-1.449 0.993,-2.898 2.184,-3.844 1.102,-0.918 2.551,-1.375 3.961,-1.273 0.949,0.035 1.867,0.316 2.676,0.808 0.676,0.356 1.238,0.813 1.656,1.411 0.246,0.32 0.457,0.675 0.676,1.019 l 0,-2.883 5.609,0 0,39.137 -5.609,0 0,-13.84 z m -18.59,1.867 c -0.883,-0.465 -1.629,-1.093 -2.293,-1.8 -0.149,-0.141 -0.246,-0.274 -0.391,-0.422 l 0,2.996 -5.609,0 0,-27.938 5.609,0 0,16.348 c 0,0.594 0,1.195 0.11,1.797 0.172,1.199 0.843,2.355 1.789,3.203 0.785,0.707 1.73,1.203 2.726,1.336 0.637,0.148 1.297,0.148 1.899,0 0.246,-0.035 0.496,-0.098 0.738,-0.133 l 0,5.844 c -0.242,-0.039 -0.492,-0.039 -0.738,-0.074 -1.336,-0.098 -2.684,-0.493 -3.84,-1.157 z m -16.34,0.035 c -0.945,0.7 -2.113,1.086 -3.277,1.086 -1.094,0.071 -2.184,-0.211 -3.106,-0.738 -0.699,-0.348 -1.301,-0.883 -1.765,-1.476 -0.211,-0.282 -0.383,-0.563 -0.563,-0.848 l 0,13.914 -5.609,0 0,-39.137 5.609,0 0,19.59 c 0,0.32 0.035,0.629 0.109,0.949 0.11,0.598 0.426,1.164 0.879,1.547 0.457,0.426 1.059,0.637 1.661,0.672 0.636,0.035 1.273,-0.144 1.765,-0.527 0.492,-0.321 0.883,-0.813 1.055,-1.34 0.109,-0.426 0.109,-0.883 0.109,-1.301 l 0,-19.59 5.61,0 0,21.664 c -0.039,0.703 -0.039,1.375 -0.184,2.012 -0.246,1.375 -1.129,2.676 -2.293,3.523 z m -20.984,11.938 -5.543,0 0,-5.426 5.543,0 0,5.426 z m -8.43,0 -5.543,0 0,-5.426 5.543,0 0,5.426 z m 3.84,-31.563 c -0.137,-0.675 -0.488,-1.339 -1.055,-1.765 -0.562,-0.457 -1.336,-0.629 -2.121,-0.496 -0.871,0.148 -1.758,0.676 -2.074,1.449 -0.211,0.457 -0.246,0.945 -0.281,1.477 l 0,1.375 c 0,0.214 0.035,0.39 0.07,0.597 0.066,0.395 0.211,0.738 0.457,1.059 0.281,0.39 0.738,0.636 1.199,0.773 0.531,0.18 1.133,0.219 1.695,0.219 l 2.149,0 0,-2.711 c 0.035,-0.676 0.109,-1.312 -0.039,-1.977 z m 2.613,18.817 c -1.484,1.301 -3.496,1.965 -5.433,1.894 -1.696,0 -3.348,-0.527 -4.723,-1.476 -1.238,-0.809 -2.223,-1.973 -2.824,-3.313 -0.426,-0.812 -0.676,-1.722 -0.774,-2.675 l 0,-0.774 5.61,0 c 0,0.172 0.035,0.383 0.07,0.563 0.137,0.636 0.527,1.191 1.094,1.586 0.527,0.418 1.156,0.636 1.793,0.597 0.636,-0.035 1.238,-0.355 1.691,-0.773 0.355,-0.317 0.602,-0.711 0.75,-1.094 0.207,-0.527 0.172,-1.09 0.172,-1.691 l 0,-2.395 -3.18,0 c -0.734,0 -1.445,0 -2.183,-0.144 C 95.43,62.769 94.117,62.07 93.098,61.077 92.113,60.132 91.441,58.929 91.156,57.628 91.012,57.027 90.984,56.425 90.949,55.8 l 0,-3.141 c -0.035,-0.629 -0.035,-1.269 0.098,-1.867 0.183,-1.375 0.996,-2.715 2.121,-3.59 1.059,-0.882 2.434,-1.382 3.77,-1.308 0.957,0 1.874,0.281 2.722,0.734 0.699,0.36 1.305,0.813 1.793,1.414 0.258,0.281 0.465,0.637 0.676,0.992 l 0,-2.785 5.605,0 0,20.047 c -0.035,0.664 -0.101,1.336 -0.281,2.008 -0.355,1.684 -1.336,3.242 -2.75,4.336 z M 84.141,85.245 c -1.34,-0.172 -2.614,-0.843 -3.598,-1.828 -1.102,-0.992 -1.875,-2.367 -2.086,-3.804 -0.07,-0.528 -0.105,-1.055 -0.105,-1.586 l 0,-3.84 -2.75,0 0,-4.477 2.75,0 0,-23.461 5.64,0 0,23.461 4.133,0 0,4.477 -4.133,0 0,3.84 c 0,0.246 0,0.457 0.039,0.703 0.035,0.32 0.18,0.636 0.391,0.883 0.207,0.21 0.418,0.382 0.699,0.492 0.285,0.109 0.637,0.109 0.957,0.109 l 2.047,0 0,5.172 -1.937,0 c -0.672,0 -1.383,0 -2.047,-0.137 l 0,-0.004 z M 60.926,65.558 c 0,0.453 0,0.91 0.109,1.375 0.137,0.562 0.492,1.117 0.945,1.472 0.465,0.43 1.094,0.637 1.696,0.637 0.601,0 1.199,-0.179 1.656,-0.527 0.5,-0.356 0.848,-0.883 1.027,-1.445 0.137,-0.493 0.137,-0.985 0.137,-1.512 l 0,-2.789 -5.57,0 0,2.789 z m 5.57,-11.242 c 0,-0.211 -0.035,-0.422 -0.098,-0.664 -0.109,-0.532 -0.429,-1.067 -0.847,-1.414 -0.531,-0.489 -1.274,-0.739 -2.012,-0.672 -0.711,0.035 -1.41,0.316 -1.875,0.843 -0.418,0.43 -0.629,1.024 -0.738,1.625 -0.035,0.426 0,0.879 0,1.297 l 0,2.86 11.152,0 0,7.75 c -0.039,0.882 -0.074,1.765 -0.32,2.609 -0.391,1.723 -1.59,3.305 -3.102,4.363 -1.414,1.094 -3.14,1.657 -4.91,1.621 -2.012,0.036 -4.055,-0.738 -5.531,-2.113 -1.313,-1.082 -2.258,-2.605 -2.613,-4.187 -0.176,-0.739 -0.247,-1.52 -0.286,-2.293 l 0,-10.61 c -0.035,-0.808 -0.035,-1.582 0.11,-2.39 0.246,-1.93 1.375,-3.805 2.961,-5.071 1.48,-1.304 3.386,-2.011 5.324,-1.976 1.805,-0.035 3.633,0.562 5.043,1.656 1.133,0.848 2.051,2.012 2.613,3.313 0.43,0.886 0.711,1.867 0.738,2.859 0,0.211 0,0.383 -0.027,0.594 l -5.582,0 z M 48.863,81.515 c -0.738,1.129 -1.73,2.113 -2.894,2.812 -1.41,0.918 -3.141,1.414 -4.871,1.414 -1.547,0.036 -3.106,-0.32 -4.442,-1.023 -1.547,-0.734 -2.82,-1.977 -3.742,-3.414 -0.664,-1.09 -1.129,-2.293 -1.301,-3.52 -0.109,-0.64 -0.109,-1.304 -0.109,-1.941 l 0,-19.664 c 0,-0.848 0,-1.656 0.109,-2.5 0.211,-1.402 0.774,-2.777 1.657,-3.906 0.953,-1.34 2.292,-2.36 3.812,-3.035 1.195,-0.528 2.504,-0.844 3.809,-0.844 1.617,-0.074 3.312,0.32 4.757,1.164 1.375,0.773 2.543,1.902 3.352,3.277 0.672,1.055 1.129,2.25 1.309,3.449 0.101,0.813 0.101,1.621 0.101,2.395 l 0,11.773 -10.121,0 0,-4.863 4.516,0 0,-6.91 c 0,-0.527 0,-1.09 -0.11,-1.617 -0.136,-0.813 -0.629,-1.586 -1.265,-2.153 -0.711,-0.562 -1.582,-0.91 -2.469,-0.882 -0.957,-0.028 -1.938,0.355 -2.609,0.992 -0.676,0.566 -1.094,1.375 -1.239,2.222 -0.066,0.457 -0.031,0.95 0,1.438 l 0,19.664 c 0,0.457 0,0.945 0.11,1.402 0.179,0.918 0.808,1.766 1.617,2.293 0.637,0.457 1.414,0.676 2.23,0.676 0.875,0 1.797,-0.355 2.504,-0.992 0.59,-0.527 1.055,-1.266 1.164,-2.078 0.102,-0.426 0.067,-0.883 0.067,-1.301 l 0,-1.656 5.609,0 0,1.656 c 0,0.664 0,1.34 -0.066,2.004 -0.184,1.301 -0.711,2.574 -1.485,3.668 z" /><path
         id="path5500"
         style="fill:#c1121c;fill-opacity:1;fill-rule:nonzero;stroke:none"
         d="m 360.941,110.155 6.379,0 0,6.383 -6.379,0 0,-6.383 z m 4.797,11.243 2.332,33.5 -7.914,0 2.442,-33.5 3.14,0 z m -26.429,-9.793 c 0.957,-0.711 2.05,-1.203 3.214,-1.375 0.739,-0.11 1.485,-0.11 2.223,-0.075 l 2.895,0 0,6.028 -2.051,0 c -0.391,-0.039 -0.77,-0.039 -1.164,0.035 -0.383,0.066 -0.774,0.211 -1.055,0.492 -0.281,0.246 -0.465,0.598 -0.527,0.945 -0.035,0.282 -0.035,0.54 -0.035,0.786 l 0,18.488 4.832,0 0,5.18 -4.832,0 0,9.621 -6.356,0 0,-9.621 -3.168,0 0,-5.18 3.168,0 0,-18.488 c 0,-0.641 -0.031,-1.239 0.035,-1.879 0.074,-0.907 0.321,-1.828 0.785,-2.637 0.454,-0.949 1.153,-1.723 2.036,-2.32 z m -20.454,12.433 c 0.036,-0.847 0.071,-1.695 -0.074,-2.504 -0.172,-1.41 -0.883,-2.785 -1.976,-3.734 -1.055,-0.98 -2.5,-1.582 -3.95,-1.617 -1.519,-0.11 -3.031,0.316 -4.234,1.265 -1.273,0.883 -2.144,2.329 -2.43,3.84 -0.144,0.774 -0.144,1.547 -0.109,2.36 l 0,18.461 -6.383,0 0,-20.61 c 0,-0.773 -0.035,-1.547 0.067,-2.285 0.148,-1.73 0.82,-3.414 1.875,-4.836 1.019,-1.547 2.468,-2.738 4.16,-3.519 1.484,-0.778 3.179,-1.161 4.836,-1.121 1.547,0 3.066,0.382 4.441,1.054 1.059,0.457 2.012,1.094 2.82,1.867 0.36,0.356 0.641,0.739 0.957,1.129 l 0,-3.633 6.418,0 0,31.954 -6.418,0 0,-18.071 z m -32.32,18.071 -6.023,-22.196 -7.203,22.196 -4.758,0 -7.231,-22.196 -6,22.196 -6.734,0 9.976,-31.954 5.583,0 6.8,22.442 6.809,-22.442 5.543,0 10.015,31.954 -6.777,0 z m -44.797,-25.891 c -0.457,0.035 -0.918,0.137 -1.238,0.418 -0.418,0.32 -0.625,0.922 -0.699,1.484 -0.074,0.528 -0.035,1.02 0,1.547 l 0,35.231 -6.391,0 0,-36.395 c -0.031,-0.566 -0.066,-1.156 0,-1.758 0.07,-1.41 0.637,-2.82 1.555,-3.914 0.922,-1.156 2.187,-2.004 3.597,-2.394 0.711,-0.172 1.446,-0.246 2.157,-0.282 l 3.879,0 0,6.028 -1.559,0 c -0.418,0 -0.879,0 -1.297,0.035 l -0.004,0 z m -19.191,0 c -0.453,0.035 -0.918,0.137 -1.227,0.418 -0.429,0.32 -0.636,0.922 -0.711,1.484 -0.074,0.528 -0.035,1.02 0,1.547 l 0,35.231 -6.39,0 0,-36.395 c -0.028,-0.566 -0.067,-1.156 0,-1.758 0.109,-1.41 0.636,-2.82 1.558,-3.914 0.918,-1.156 2.219,-2.004 3.594,-2.394 0.711,-0.172 1.449,-0.246 2.188,-0.282 l 3.847,0 0,6.028 -1.554,0 c -0.422,0 -0.848,0 -1.305,0.035 z m -23.531,6.656 c -0.028,-0.566 -0.098,-1.094 -0.207,-1.621 -0.286,-1.191 -0.95,-2.285 -1.832,-3.133 -0.672,-0.672 -1.485,-1.199 -2.332,-1.519 -0.735,-0.281 -1.52,-0.457 -2.293,-0.457 -1.336,-0.035 -2.711,0.355 -3.84,1.129 -0.922,0.566 -1.657,1.375 -2.196,2.324 -0.343,0.601 -0.601,1.273 -0.738,1.937 -0.07,0.465 -0.109,0.883 -0.133,1.34 l 0,6.735 c 0.063,0.593 0.098,1.156 0.243,1.722 0.32,1.094 0.949,2.114 1.832,2.883 1.238,1.203 2.968,1.941 4.695,1.941 1.586,0.036 3.133,-0.527 4.371,-1.546 1.199,-0.957 2.086,-2.293 2.297,-3.735 0.07,-0.429 0.105,-0.844 0.133,-1.265 l 0,-6.735 z m 3.668,14.485 c -1.266,1.656 -2.848,2.992 -4.688,3.867 -1.73,0.847 -3.668,1.273 -5.605,1.273 -2.012,0.035 -4.063,-0.39 -5.856,-1.273 -1.976,-0.91 -3.742,-2.36 -5.015,-4.153 -1.165,-1.519 -1.977,-3.312 -2.286,-5.179 -0.109,-0.774 -0.144,-1.52 -0.218,-2.285 l 0,-6.735 c 0.035,-0.703 0.074,-1.375 0.179,-2.074 0.211,-1.586 0.778,-3.145 1.625,-4.516 1.262,-2.25 3.274,-4.082 5.606,-5.171 1.801,-0.922 3.812,-1.375 5.816,-1.375 2.258,0 4.481,0.562 6.43,1.683 2.012,1.094 3.668,2.75 4.832,4.723 0.949,1.484 1.586,3.172 1.793,4.863 0.074,0.637 0.109,1.231 0.144,1.867 l 0,6.735 c -0.07,0.765 -0.144,1.574 -0.281,2.359 -0.316,1.93 -1.238,3.805 -2.476,5.391 z m -30.86,-21.176 -2.012,0 c -0.429,-0.039 -0.812,-0.039 -1.203,0.035 -0.382,0.066 -0.773,0.211 -1.054,0.492 -0.246,0.246 -0.426,0.598 -0.493,0.945 -0.035,0.282 -0.035,0.54 -0.035,0.786 l 0,18.488 4.797,0 0,5.18 -4.797,0 0,9.621 -6.355,0 0,-9.621 -3.203,0 0,-5.18 3.203,0 0,-18.488 c -0.035,-0.641 -0.035,-1.239 0.035,-1.879 0.074,-0.91 0.32,-1.828 0.738,-2.637 0.5,-0.949 1.203,-1.723 2.047,-2.32 0.957,-0.711 2.086,-1.203 3.254,-1.375 0.734,-0.11 1.481,-0.11 2.219,-0.075 l 2.859,0 0,6.028 z m -42.195,4.969 c -0.098,0.593 -0.098,1.191 -0.137,1.793 l 0,6.445 c 0.039,0.64 0.067,1.301 0.211,1.902 0.281,1.266 1.02,2.469 2.082,3.317 1.164,1.019 2.715,1.546 4.235,1.472 1.3,0.035 2.539,-0.383 3.597,-1.156 1.336,-0.918 2.356,-2.391 2.574,-3.984 0.102,-0.493 0.102,-1.02 0.102,-1.551 l 0,-6.445 c 0,-0.637 0,-1.266 -0.137,-1.868 -0.246,-1.336 -1.019,-2.609 -2.156,-3.484 -1.121,-0.957 -2.605,-1.484 -4.09,-1.484 -1.484,0 -2.957,0.527 -4.121,1.519 -1.094,0.875 -1.914,2.149 -2.16,3.524 z m 8.894,-10.395 c 1.055,0.492 2.012,1.129 2.821,1.902 0.347,0.321 0.629,0.664 0.945,0.985 l 0,-3.489 6.395,0 0,44.743 -6.395,0 0,-16.41 c -0.242,0.281 -0.488,0.589 -0.734,0.835 -0.946,1.028 -2.149,1.836 -3.461,2.368 -1.375,0.562 -2.821,0.875 -4.266,0.843 -2.887,0.032 -5.89,-1.308 -7.832,-3.484 -1.656,-1.691 -2.676,-3.953 -2.894,-6.207 -0.028,-0.738 -0.028,-1.477 0,-2.215 l 0,-9.168 c -0.028,-0.871 -0.067,-1.793 0.074,-2.676 0.246,-2.711 1.972,-5.277 4.304,-6.898 1.801,-1.375 3.989,-2.121 6.208,-2.148 1.656,-0.04 3.351,0.308 4.835,1.019 z m -25.679,-0.602 3.84,0 0,6.028 -1.52,0 c -0.453,0 -0.875,0 -1.34,0.035 -0.418,0.035 -0.883,0.137 -1.226,0.418 -0.43,0.32 -0.637,0.922 -0.711,1.484 -0.067,0.528 -0.035,1.02 0.035,1.547 l 0,35.231 -6.418,0 0,-36.395 c -0.035,-0.566 -0.035,-1.156 0,-1.758 0.101,-1.41 0.637,-2.82 1.586,-3.914 0.883,-1.156 2.183,-2.004 3.566,-2.394 0.703,-0.172 1.442,-0.246 2.188,-0.282 z m -16.934,44.743 -6.355,0 0,-6.309 6.355,0 0,6.309 z m 0,-12.789 -6.355,0 0,-31.954 6.355,0 0,31.954 z m -29.14,-31.954 6,0 11.179,44.743 -7.164,0 -7.23,-31.743 -8.785,31.743 -4.825,0 -8.785,-31.743 -7.203,31.743 -7.227,0 11.215,-44.743 6,0 8.43,32.411" /></g></g></svg>