<?xml version="1.0" encoding="UTF-8" standalone="no"?>
<svg
   xmlns:dc="http://purl.org/dc/elements/1.1/"
   xmlns:cc="http://creativecommons.org/ns#"
   xmlns:rdf="http://www.w3.org/1999/02/22-rdf-syntax-ns#"
   xmlns:svg="http://www.w3.org/2000/svg"
   xmlns="http://www.w3.org/2000/svg"
   viewBox="0 0 726.40179 481.0813"
   height="481.0813"
   width="726.40179"
   xml:space="preserve"
   version="1.1"
   id="svg4612"><metadata
     id="metadata4618"><rdf:RDF><cc:Work
         rdf:about=""><dc:format>image/svg+xml</dc:format><dc:type
           rdf:resource="http://purl.org/dc/dcmitype/StillImage" /><dc:title></dc:title></cc:Work></rdf:RDF></metadata><defs
     id="defs4616" /><g
     transform="matrix(1.25,0,0,-1.25,0,481.08131)"
     id="g4620"><g
       id="g4622"><path
         id="path4624"
         style="fill:#000000;fill-opacity:1;fill-rule:nonzero;stroke:none"
         d="m 469.355,143.103 0,-0.031 c 17.286,0 31.333,-14.016 31.333,-31.328 0,-17.285 -14.047,-31.332 -31.333,-31.332 l 0,0.109 c -8.152,0 -16.027,3.2 -21.875,8.938 l 27.473,-0.113 c 6.215,0 11.211,5 11.211,11.214 0,1.547 -0.332,3.125 -0.992,4.563 l -16.949,37.949 c 0.363,0.031 0.769,0.031 1.132,0.031" /><path
         id="path4626"
         style="fill:#000000;fill-opacity:1;fill-rule:nonzero;stroke:none"
         d="m 438.125,111.861 c 0,8.492 3.461,16.59 9.566,22.508 l 10.039,-22.547 c 0,0 -19.644,0 -19.605,0.039" /><path
         id="path4628"
         style="fill:#000000;fill-opacity:1;fill-rule:nonzero;stroke:none"
         d="m 382.805,89.471 -0.075,-0.075 c 10.223,-39.496 45.856,-67.074 86.637,-67.074 49.383,0 89.43,40.047 89.43,89.43 0,49.386 -40.047,89.472 -89.43,89.472 -8.64,0 -17.203,-1.257 -25.48,-3.714 l 41.297,-92.375 c 0.656,-1.438 0.992,-3.016 0.992,-4.598 0,-6.18 -5.039,-11.18 -11.211,-11.18 l -92.16,0.114 z m -2.825,22.281 0,0.07 77.731,0 -34.309,76.68 C 396.414,172.349 379.898,143.193 379.98,111.752 M 171.875,268.256 311.832,113.01 l 58.219,155.246 -198.176,0 z m -44.527,-68.403 c -5.153,0.895 -10.375,1.371 -15.555,1.371 -49.426,0 -89.469,-40.086 -89.469,-89.472 0,-49.383 40.043,-89.43 89.469,-89.43 49.387,0 89.43,40.047 89.43,89.43 0,35.117 -20.555,67.004 -52.512,81.488 l -26.223,-84.797 c -1.465,-4.703 -5.808,-7.906 -10.695,-7.906 -6.211,0 -11.211,5.031 -11.211,11.215 0,1.144 0.141,2.25 0.516,3.308 l 26.25,84.793 z m 293.707,48.84 13.672,-30.703 c 11.183,3.672 22.871,5.516 34.64,5.516 61.711,0 111.754,-50.012 111.754,-111.754 0,-61.711 -50.043,-111.75 -111.754,-111.75 -53.14,0 -98.879,37.359 -109.508,89.394 l -46.996,0.032 c -6.324,0 -12.312,2.691 -16.543,7.398 l -132.125,146.605 -8.867,-28.75 c 41.34,-17.507 68.219,-58.027 68.219,-102.929 C 223.547,50.041 173.496,0.002 111.793,0.002 50.051,0.002 0,50.041 0,111.752 c 0,61.742 50.051,111.754 111.793,111.754 7.43,0 14.895,-0.739 22.215,-2.207 l 32.504,104.871 c 5.769,18.761 23.093,31.523 42.695,31.523 l 36.652,-0.039 0,-22.324 -36.652,-0.07 c -9.785,0 -18.387,-6.368 -21.293,-15.707 l -9.086,-28.934 199.602,0 8.39,22.355 -47.218,11.254 c -2.54,0.586 -4.301,2.864 -4.301,5.446 0,3.086 2.5,5.586 5.586,5.586 l 94.945,0.07 0,-22.356 -25.121,0 -8.418,-22.355 6.508,-14.488 c 1.773,-3.493 4.34,-6.66 7.617,-9.231 l 0,0.031 c 4.961,-3.929 11.105,-6.062 17.43,-6.062 8.601,0 16.726,3.937 22.062,10.664 l 31.481,39.934 c -3.309,4.484 -5.079,9.925 -5.079,15.515 0,5.918 2.02,11.696 5.696,16.332 l 19.683,24.856 7.055,-5.547 16.18,20.555 c 0.851,1.062 2.136,1.687 3.492,1.687 2.469,0 4.453,-1.98 4.453,-4.449 0,-1.024 -0.336,-1.985 -0.961,-2.797 l -16.254,-20.481 13.539,-10.699 16.285,20.668 c 0.809,1.063 2.133,1.688 3.493,1.688 2.468,0 4.453,-2.024 4.453,-4.453 0,-1.02 -0.336,-2.024 -0.953,-2.793 l -16.407,-20.551 7.067,-5.59 -19.785,-24.793 c -5,-6.324 -12.621,-9.996 -20.664,-9.996 -3.504,0 -6.954,0.695 -10.192,2.066 L 466.98,262.779 c -8.015,-10.109 -20.191,-16.027 -33.132,-16.027 -4.344,0 -8.645,0.656 -12.762,1.98 l -0.031,-0.039 z" /></g></g></svg>