<?xml version="1.0" encoding="UTF-8" standalone="no"?>
<!-- Created with Inkscape (http://www.inkscape.org/) -->

<svg
   xmlns:dc="http://purl.org/dc/elements/1.1/"
   xmlns:cc="http://creativecommons.org/ns#"
   xmlns:rdf="http://www.w3.org/1999/02/22-rdf-syntax-ns#"
   xmlns:svg="http://www.w3.org/2000/svg"
   xmlns="http://www.w3.org/2000/svg"
   version="1.1"
   width="1381.8822"
   height="708.65668"
   id="svg2">
  <defs
     id="defs4" />
  <metadata
     id="metadata7">
    <rdf:RDF>
      <cc:Work
         rdf:about="">
        <dc:format>image/svg+xml</dc:format>
        <dc:type
           rdf:resource="http://purl.org/dc/dcmitype/StillImage" />
        <dc:title></dc:title>
      </cc:Work>
    </rdf:RDF>
  </metadata>
  <g
     transform="translate(333.79825,-149.4624)"
     id="layer1">
    <g
       transform="matrix(1.25,0,0,-1.25,-335.04805,859.3689)"
       id="g2993">
      <g
         transform="scale(0.12,0.12)"
         id="g2995">
        <path
           d="m 431.508,384.484 0,987.406 718.532,470.19 -37.63,86.95 c -45.95,106.14 -69.65,220.57 -69.65,336.23 0,86.33 13.2,172.16 39.17,254.5 L 807.66,3017.56 149.391,2876.51 8.33203,3017.56 572.566,3675.83 l 0,282.12 188.075,-188.08 c 319.839,0 617.739,-162.56 790.809,-431.53 l 467.83,-735 c 160.1,-22.5 321.57,-33.79 483.24,-33.79 252.75,0 504.75,27.6 751.52,82.31 l 3.23,0.58 c 45,8.3 90.68,12.48 136.44,12.48 148.15,0 293,-43.74 416.38,-125.73 l 125.04,125.04 c 105.81,105.81 249.33,165.25 398.97,165.25 255.24,0 478.69,-171.35 544.91,-417.84 l 89.85,-334.46 -352.65,-188.08 -75.1,428.88 c -25.62,146.22 -152.59,252.9 -301.05,252.9 -81.05,0 -158.79,-32.2 -216.11,-89.51 l -68.41,-68.43 c 122.69,-137.77 190.48,-315.84 190.48,-500.33 0,-86.97 -15.08,-173.28 -44.56,-255.09 L 4475.16,1040.21 4334.1,146.852 4067.23,55.3516 4208.29,948.715 3542.67,1468.08 3628.81,807.66 3205.64,8.33203 l -282.12,0 423.18,799.32797 -416.93,737.65 c -217.58,-52.74 -440.64,-79.38 -664.51,-79.38 -212.63,0 -424.57,24.03 -631.8,71.65 L 2077.18,243.434 2030.16,8.33203 l -235.09,0 47.01,235.10197 -564.23,1303.406 -611.248,-363.02 0,-658.277 -235.094,-141.059"
           id="path2997"
           style="fill:#231f20;fill-opacity:1;fill-rule:nonzero;stroke:none" />
        <path
           d="m 6913.58,835.102 c 0,-456.61 -370.15,-826.76997 -826.76,-826.76997 -456.61,0 -826.77,370.15997 -826.77,826.76997 0,456.608 370.16,826.768 826.77,826.768 456.61,0 826.76,-370.16 826.76,-826.768 z m -212.6,0 c 0,339.198 -274.97,614.168 -614.16,614.168 -339.2,0 -614.18,-274.97 -614.18,-614.168 0,-339.204 274.98,-614.168 614.18,-614.168 339.19,0 614.16,274.964 614.16,614.168"
           id="path2999"
           style="fill:#231f20;fill-opacity:1;fill-rule:nonzero;stroke:none" />
        <path
           d="m 9220.88,835.102 c 0,-456.61 -370.16,-826.76997 -826.77,-826.76997 -456.61,0 -826.77,370.15997 -826.77,826.76997 0,456.608 370.16,826.768 826.77,826.768 456.61,0 826.77,-370.16 826.77,-826.768 z m -212.61,0 c 0,339.198 -274.97,614.168 -614.16,614.168 -339.2,0 -614.17,-274.97 -614.17,-614.168 0,-339.204 274.97,-614.168 614.17,-614.168 339.19,0 614.16,274.964 614.16,614.168"
           id="path3001"
           style="fill:#231f20;fill-opacity:1;fill-rule:nonzero;stroke:none" />
        <path
           d="m 5464.99,1449.27 0,330.71 -377.95,283.46 141.73,188.98 236.22,-177.17 496.06,744.09 c 44.62,59.48 114.63,94.48 188.97,94.48 l 354.34,0 0,236.22 -472.44,0 c -71.75,0 -129.92,58.17 -129.92,129.92 0,71.75 58.17,129.92 129.92,129.92 l 472.44,0 0,342.53 c 0,150.02 121.62,271.65 271.65,271.65 150.02,0 271.65,-121.63 271.65,-271.65 l 0,-1027.56 2173.22,0 0,-1275.58 -204.93,0 c -164.21,166.27 -388.16,259.84 -621.84,259.84 -233.68,0 -457.63,-93.57 -621.84,-259.84 l -1063.61,0 c -164.21,166.27 -388.16,259.84 -621.84,259.84 -233.69,0 -457.64,-93.57 -621.86,-259.84 l 0.03,0 z m 401.58,614.17 307.08,0 283.46,425.19 -307.09,0 -283.45,-425.19"
           id="path3003"
           style="fill:#231f20;fill-opacity:1;fill-rule:nonzero;stroke:none" />
        <path
           d="m 7083.09,4425.63 c 0,-169.6 -137.48,-307.09 -307.08,-307.09 -169.6,0 -307.08,137.49 -307.08,307.09 0,169.6 137.48,307.08 307.08,307.08 169.6,0 307.08,-137.48 307.08,-307.08"
           id="path3005"
           style="fill:#231f20;fill-opacity:1;fill-rule:nonzero;stroke:none" />
        <path
           d="m 5346.88,1449.27 -1086.61,283.46 0,118.11 1086.61,-283.46 0,-118.11"
           id="path3007"
           style="fill:#231f20;fill-opacity:1;fill-rule:nonzero;stroke:none" />
      </g>
    </g>
  </g>
</svg>
