<?xml version="1.0" encoding="UTF-8" standalone="no"?>
<svg
   xmlns:dc="http://purl.org/dc/elements/1.1/"
   xmlns:cc="http://creativecommons.org/ns#"
   xmlns:rdf="http://www.w3.org/1999/02/22-rdf-syntax-ns#"
   xmlns:svg="http://www.w3.org/2000/svg"
   xmlns="http://www.w3.org/2000/svg"
   viewBox="0 0 1695.9735 596.26886"
   height="596.26886"
   width="1695.9735"
   xml:space="preserve"
   id="svg5602"
   version="1.1"><metadata
     id="metadata5608"><rdf:RDF><cc:Work
         rdf:about=""><dc:format>image/svg+xml</dc:format><dc:type
           rdf:resource="http://purl.org/dc/dcmitype/StillImage" /><dc:title></dc:title></cc:Work></rdf:RDF></metadata><defs
     id="defs5606" /><g
     transform="matrix(1.3333333,0,0,-1.3333333,0,596.26888)"
     id="g5610"><g
       id="g5612"><g
         transform="matrix(1,0,0,-1,0,447.20166)"
         id="g5614"><path
           id="path5616"
           style="fill:none;stroke:#000000;stroke-width:0.9375;stroke-linecap:butt;stroke-linejoin:miter;stroke-miterlimit:4;stroke-dasharray:none;stroke-opacity:1"
           d="m 106.434,0.469 c -18.637,0 -33.75,15.109 -33.75,33.75 v 307.5 c 0,18.64 15.113,33.75 33.75,33.75 352.504,0 705.004,0 1057.504,0 18.64,0 33.75,-15.11 33.75,-33.75 v -307.5 c 0,-18.641 -15.11,-33.75 -33.75,-33.75 -352.5,0 -705,0 -1057.504,0 z" /></g><path
         id="path5618"
         style="fill:#ffffff;fill-opacity:1;fill-rule:nonzero;stroke:none"
         d="m 106.434,446.733 c -18.637,0 -33.75,-15.109 -33.75,-33.75 v -307.5 c 0,-18.641 15.113,-33.75 33.75,-33.75 352.504,0 705.004,0 1057.504,0 18.64,0 33.75,15.109 33.75,33.75 v 307.5 c 0,18.641 -15.11,33.75 -33.75,33.75 -352.5,0 -705,0 -1057.504,0 z" /><path
         id="path5620"
         style="fill:#154889;fill-opacity:1;fill-rule:nonzero;stroke:none"
         d="m 106.434,439.424 c -14.496,0 -26.25,-11.75 -26.25,-26.25 v -307.5 c 0,-14.5 11.754,-26.25 26.25,-26.25 352.504,0 705.004,0 1057.507,0 14.497,0 26.25,11.75 26.25,26.25 v 307.5 c 0,14.5 -11.753,26.25 -26.25,26.25 -352.503,0 -705.003,0 -1057.507,0 z" /><path
         id="path5622"
         style="fill:#656565;fill-opacity:1;fill-rule:nonzero;stroke:none"
         d="m 103.816,71.694 h -2.648 v -1.313 h 2.648 z m -5.316,0 H 95.855 V 70.381 H 98.5 Z m -5.309,0 h -2.644 v -1.313 h 2.644 z m -5.312,0 h -2.645 v -1.313 h 2.645 z m -4.617,0 h -3.34 v -1.313 h 3.34 z m -5.328,0 h -3.317 v -1.313 h 3.317 z m -5.309,0 h -3.32 v -1.313 h 3.32 z m -5.309,0 h -3.328 v -1.313 h 3.328 z m -5.296,0 h -3.34 v -1.313 h 3.34 z m -5.325,0 h -3.32 v -1.313 h 3.32 z m -5.297,0 h -3.339 v -1.313 h 3.339 z m -5.328,0 h -3.32 v -1.313 h 3.32 z" /><path
         id="path5624"
         style="fill:#656565;fill-opacity:1;fill-rule:nonzero;stroke:none"
         d="m 109.34,43.897 -28.356,-8.102 28.356,-8.101 -1.473,7.293 h 487.906 v 1.609 H 107.867 Z m 1051.82,0 1.477,-7.301 H 675.582 v -1.609 h 487.055 l -1.477,-7.293 28.36,8.101 z" /><path
         id="path5626"
         style="fill:#656565;fill-opacity:1;fill-rule:nonzero;stroke:none"
         d="m 1197.773,102.155 v -2.649 h 1.332 v 2.649 z m 0,-5.309 v -2.644 h 1.332 v 2.644 z m 0,-5.316 v -2.645 h 1.332 v 2.645 z m 0,-5.309 v -2.644 h 1.332 v 2.644 z m 0,-4.617 v -3.34 h 1.332 v 3.34 z m 0,-5.328 v -3.32 h 1.332 v 3.32 z m 0,-5.313 v -3.32 h 1.332 v 3.32 z m 0,-5.308 v -3.324 h 1.332 v 3.324 z m 0,-5.297 v -3.34 h 1.332 v 3.34 z m 0,-5.324 v -3.321 h 1.332 v 3.321 z m 0,-5.289 v -3.348 h 1.332 v 3.348 z m 0,-5.336 v -3.321 h 1.332 v 3.321 z m 0,-5.289 v -3.336 h 1.332 v 3.336 z m 0,-5.313 v -3.34 h 1.332 v 3.34 z m 0,-5.308 v -3.34 h 1.332 v 3.34 z m 0,-5.313 v -3.34 h 1.332 v 3.34 z m 0,-5.309 v -3.339 h 1.332 v 3.339 z m 0,-5.308 v -3.34 h 1.332 v 3.34 z m 0,-5.317 V 3.917 h 1.332 v 3.335 z m 0,-5.312 v -1.941 h 1.332 V 1.94 Z" /><path
         id="path5628"
         style="fill:#656565;fill-opacity:1;fill-rule:nonzero;stroke:none"
         d="m 71.402,102.155 v -2.649 h 1.309 v 2.649 z m 0,-5.309 v -2.644 h 1.309 v 2.644 z m 0,-5.316 v -2.645 h 1.309 v 2.645 z m 0,-5.309 v -2.644 h 1.309 v 2.644 z m 0,-4.617 v -3.34 h 1.309 v 3.34 z m 0,-5.328 v -3.32 h 1.309 v 3.32 z m 0,-5.313 v -3.32 h 1.309 v 3.32 z m 0,-5.308 v -3.324 h 1.309 v 3.324 z m 0,-5.297 v -3.34 h 1.309 v 3.34 z m 0,-5.324 v -3.321 h 1.309 v 3.321 z m 0,-5.289 v -3.348 h 1.309 v 3.348 z m 0,-5.336 v -3.321 h 1.309 v 3.321 z m 0,-5.289 v -3.336 h 1.309 v 3.336 z m 0,-5.313 v -3.34 h 1.309 v 3.34 z m 0,-5.308 v -3.34 h 1.309 v 3.34 z m 0,-5.313 v -3.34 h 1.309 v 3.34 z m 0,-5.309 v -3.339 h 1.309 v 3.339 z m 0,-5.308 v -3.34 h 1.309 v 3.34 z m 0,-5.317 V 3.917 h 1.309 v 3.335 z m 0,-5.312 v -1.941 h 1.309 V 1.94 Z" /><path
         id="path5630"
         style="fill:#646464;fill-opacity:1;fill-rule:nonzero;stroke:none"
         d="m 606.902,25.022 c -0.222,-0.859 -0.711,-1.293 -1.472,-1.293 -0.641,0 -1.129,0.152 -1.457,0.449 -0.325,0.309 -0.481,0.66 -0.481,1.063 0,0.195 0.031,0.422 0.098,0.679 l 4.176,15.622 -0.282,-0.243 c -0.187,-0.148 -0.382,-0.257 -0.582,-0.336 -0.199,-0.078 -0.386,-0.117 -0.562,-0.117 -0.192,0 -0.387,0.055 -0.598,0.168 -0.195,0.121 -0.387,0.274 -0.562,0.449 -0.164,0.176 -0.305,0.371 -0.414,0.594 -0.098,0.223 -0.149,0.442 -0.149,0.664 0,0.461 0.246,0.895 0.746,1.293 l 4.34,3.43 c 0.32,0.254 0.664,0.379 1.027,0.379 0.297,0 0.559,-0.043 0.778,-0.133 0.222,-0.086 0.41,-0.207 0.562,-0.359 0.16,-0.149 0.27,-0.305 0.336,-0.485 0.074,-0.176 0.114,-0.363 0.114,-0.566 0,-0.196 -0.036,-0.403 -0.102,-0.625 z" /><path
         id="path5632"
         style="fill:#646464;fill-opacity:1;fill-rule:nonzero;stroke:none"
         d="m 630.133,47.858 c 1.148,0 1.726,-0.574 1.726,-1.723 0,-1.14 -0.578,-1.707 -1.726,-1.707 h -8.945 l -1.493,-5.57 c 0.852,0.277 1.731,0.418 2.633,0.418 0.84,0 1.617,-0.156 2.324,-0.465 0.715,-0.312 1.336,-0.738 1.852,-1.293 0.531,-0.543 0.941,-1.176 1.226,-1.906 0.301,-0.731 0.45,-1.524 0.45,-2.387 0,-0.836 -0.121,-1.648 -0.364,-2.433 -0.246,-0.786 -0.582,-1.524 -1.011,-2.219 -0.434,-0.699 -0.942,-1.336 -1.524,-1.922 -0.574,-0.586 -1.203,-1.098 -1.875,-1.527 -0.676,-0.418 -1.383,-0.747 -2.121,-0.981 -0.726,-0.23 -1.457,-0.348 -2.187,-0.348 -0.66,0 -1.297,0.098 -1.907,0.286 -0.593,0.199 -1.136,0.48 -1.621,0.843 -0.476,0.368 -0.89,0.801 -1.242,1.313 -0.355,0.515 -0.621,1.09 -0.797,1.719 -0.058,0.222 -0.082,0.437 -0.082,0.648 0,0.211 0.035,0.406 0.117,0.594 0.086,0.191 0.211,0.355 0.379,0.5 0.168,0.14 0.364,0.254 0.598,0.332 0.242,0.086 0.516,0.133 0.828,0.133 0.707,0 1.195,-0.426 1.457,-1.278 0.152,-0.562 0.434,-0.984 0.828,-1.258 0.399,-0.265 0.879,-0.398 1.442,-0.398 0.418,0 0.851,0.074 1.293,0.23 0.441,0.157 0.871,0.372 1.277,0.649 0.418,0.273 0.812,0.598 1.172,0.976 0.379,0.375 0.703,0.778 0.98,1.208 0.278,0.445 0.496,0.914 0.66,1.41 0.172,0.507 0.25,1.015 0.25,1.523 0,0.785 -0.203,1.414 -0.609,1.891 -0.41,0.476 -1.008,0.711 -1.793,0.711 -0.316,0 -0.621,-0.024 -0.91,-0.067 -0.285,-0.043 -0.59,-0.125 -0.914,-0.25 -0.305,-0.109 -0.652,-0.269 -1.043,-0.48 -0.383,-0.207 -0.848,-0.477 -1.391,-0.813 -0.175,-0.109 -0.34,-0.187 -0.496,-0.246 -0.156,-0.051 -0.32,-0.082 -0.496,-0.082 -0.301,0 -0.562,0.043 -0.781,0.133 -0.219,0.086 -0.406,0.203 -0.563,0.348 -0.144,0.14 -0.25,0.304 -0.316,0.48 -0.066,0.176 -0.098,0.359 -0.098,0.547 -0.011,0.098 -0.011,0.207 0,0.316 0.024,0.11 0.051,0.227 0.086,0.348 l 2.782,10.438 c 0.175,0.906 0.746,1.359 1.707,1.359 z" /><path
         id="path5634"
         style="fill:#646464;fill-opacity:1;fill-rule:nonzero;stroke:none"
         d="m 643.074,47.858 c 0.86,0 1.649,-0.188 2.356,-0.566 0.707,-0.372 1.308,-0.907 1.804,-1.602 0.512,-0.699 0.903,-1.527 1.176,-2.488 0.278,-0.961 0.414,-2.02 0.414,-3.184 0,-1.281 -0.152,-2.574 -0.465,-3.875 -0.297,-1.293 -0.711,-2.539 -1.242,-3.742 -0.519,-1.195 -1.14,-2.317 -1.871,-3.367 -0.719,-1.047 -1.496,-1.961 -2.336,-2.731 -0.828,-0.777 -1.703,-1.39 -2.617,-1.844 -0.918,-0.441 -1.84,-0.664 -2.77,-0.664 -0.851,0 -1.628,0.184 -2.335,0.551 -0.708,0.371 -1.317,0.906 -1.821,1.59 -0.5,0.684 -0.887,1.508 -1.16,2.469 -0.277,0.972 -0.414,2.051 -0.414,3.246 0,1.262 0.145,2.535 0.445,3.828 0.297,1.293 0.707,2.539 1.227,3.727 0.519,1.207 1.137,2.336 1.859,3.382 0.715,1.051 1.488,1.965 2.317,2.75 0.839,0.786 1.718,1.399 2.632,1.84 0.918,0.453 1.852,0.68 2.801,0.68 z m 0.449,-3.496 c -0.101,0.043 -0.25,0.066 -0.449,0.066 -0.574,0 -1.172,-0.187 -1.789,-0.562 -0.617,-0.367 -1.219,-0.867 -1.805,-1.508 -0.578,-0.633 -1.121,-1.363 -1.64,-2.207 -0.508,-0.836 -0.961,-1.731 -1.36,-2.684 -0.386,-0.937 -0.695,-1.91 -0.925,-2.914 -0.223,-0.996 -0.336,-1.961 -0.336,-2.902 0,-0.66 0.054,-1.27 0.168,-1.824 0.109,-0.539 0.265,-1.004 0.461,-1.391 0.203,-0.371 0.437,-0.672 0.714,-0.894 0.29,-0.208 0.61,-0.313 0.961,-0.313 0.575,0 1.168,0.184 1.774,0.543 0.605,0.379 1.199,0.883 1.773,1.512 0.586,0.629 1.137,1.363 1.657,2.203 0.519,0.84 0.976,1.734 1.378,2.683 0.395,0.95 0.707,1.922 0.926,2.918 0.231,1.004 0.348,1.985 0.348,2.934 0,1.172 -0.164,2.141 -0.5,2.914 -0.328,0.773 -0.781,1.246 -1.356,1.426 z" /><path
         id="path5636"
         style="fill:#646464;fill-opacity:1;fill-rule:nonzero;stroke:none"
         d="m 662.363,47.858 c 0.86,0 1.645,-0.188 2.352,-0.566 0.707,-0.372 1.312,-0.907 1.808,-1.602 0.504,-0.699 0.899,-1.527 1.176,-2.488 0.274,-0.961 0.414,-2.02 0.414,-3.184 0,-1.281 -0.156,-2.574 -0.465,-3.875 -0.296,-1.293 -0.71,-2.539 -1.242,-3.742 -0.519,-1.195 -1.144,-2.317 -1.871,-3.367 -0.719,-1.047 -1.5,-1.961 -2.336,-2.731 -0.832,-0.777 -1.703,-1.39 -2.617,-1.844 -0.922,-0.441 -1.844,-0.664 -2.77,-0.664 -0.851,0 -1.628,0.184 -2.335,0.551 -0.707,0.371 -1.317,0.906 -1.825,1.59 -0.496,0.684 -0.882,1.508 -1.156,2.469 -0.281,0.972 -0.414,2.051 -0.414,3.246 0,1.262 0.145,2.535 0.445,3.828 0.297,1.293 0.707,2.539 1.227,3.727 0.516,1.207 1.137,2.336 1.851,3.382 0.719,1.051 1.497,1.965 2.325,2.75 0.836,0.786 1.718,1.399 2.632,1.84 0.918,0.453 1.848,0.68 2.801,0.68 z m 0.446,-3.496 c -0.098,0.043 -0.247,0.066 -0.446,0.066 -0.574,0 -1.172,-0.187 -1.789,-0.562 -0.621,-0.367 -1.222,-0.867 -1.808,-1.508 -0.575,-0.633 -1.121,-1.363 -1.641,-2.207 -0.508,-0.836 -0.957,-1.731 -1.355,-2.684 -0.391,-0.937 -0.7,-1.91 -0.93,-2.914 -0.223,-0.996 -0.332,-1.961 -0.332,-2.902 0,-0.66 0.054,-1.27 0.164,-1.824 0.113,-0.539 0.269,-1.004 0.465,-1.391 0.199,-0.371 0.437,-0.672 0.715,-0.894 0.285,-0.208 0.609,-0.313 0.96,-0.313 0.575,0 1.165,0.184 1.77,0.543 0.609,0.379 1.203,0.883 1.773,1.512 0.586,0.629 1.141,1.363 1.661,2.203 0.519,0.84 0.976,1.734 1.371,2.683 0.402,0.95 0.707,1.922 0.933,2.918 0.231,1.004 0.348,1.985 0.348,2.934 0,1.172 -0.164,2.141 -0.5,2.914 -0.328,0.773 -0.781,1.246 -1.359,1.426 z" /><path
         id="path5638"
         style="fill:#646464;fill-opacity:1;fill-rule:nonzero;stroke:none"
         d="m 46.223,44.624 c 0.859,-0.223 1.289,-0.715 1.289,-1.477 0,-0.641 -0.149,-1.125 -0.45,-1.457 -0.308,-0.32 -0.664,-0.481 -1.058,-0.481 -0.199,0 -0.426,0.032 -0.68,0.098 l -15.625,4.176 0.246,-0.281 c 0.145,-0.188 0.258,-0.379 0.336,-0.578 0.074,-0.2 0.114,-0.387 0.114,-0.567 0,-0.183 -0.055,-0.383 -0.168,-0.594 -0.122,-0.199 -0.27,-0.386 -0.446,-0.566 -0.176,-0.164 -0.379,-0.301 -0.597,-0.414 -0.219,-0.098 -0.442,-0.145 -0.661,-0.145 -0.464,0 -0.894,0.25 -1.293,0.743 l -3.429,4.343 c -0.258,0.321 -0.379,0.664 -0.379,1.028 0,0.297 0.043,0.558 0.129,0.777 0.09,0.219 0.211,0.41 0.363,0.563 0.145,0.156 0.305,0.265 0.481,0.332 0.179,0.078 0.367,0.117 0.562,0.117 0.203,0 0.41,-0.032 0.633,-0.098 z" /><path
         id="path5640"
         style="fill:#646464;fill-opacity:1;fill-rule:nonzero;stroke:none"
         d="m 23.383,62.374 c 0,0.859 0.191,1.644 0.566,2.351 0.375,0.707 0.91,1.309 1.606,1.805 0.695,0.508 1.523,0.902 2.488,1.179 0.957,0.274 2.019,0.415 3.184,0.415 1.281,0 2.574,-0.161 3.871,-0.465 1.293,-0.297 2.543,-0.715 3.746,-1.242 1.195,-0.52 2.316,-1.149 3.367,-1.875 1.047,-0.719 1.957,-1.497 2.73,-2.336 0.774,-0.829 1.391,-1.7 1.84,-2.618 0.442,-0.918 0.664,-1.839 0.664,-2.765 0,-0.852 -0.179,-1.633 -0.547,-2.34 -0.375,-0.707 -0.906,-1.313 -1.589,-1.82 -0.684,-0.5 -1.508,-0.883 -2.469,-1.161 -0.973,-0.277 -2.059,-0.418 -3.246,-0.418 -1.262,0 -2.539,0.153 -3.832,0.45 -1.289,0.3 -2.535,0.707 -3.727,1.226 -1.203,0.52 -2.332,1.137 -3.383,1.856 -1.047,0.718 -1.964,1.492 -2.75,2.324 -0.781,0.836 -1.394,1.715 -1.836,2.633 -0.457,0.914 -0.683,1.847 -0.683,2.801 z m 3.5,0.445 c -0.047,-0.098 -0.067,-0.25 -0.067,-0.445 0,-0.575 0.188,-1.172 0.563,-1.793 0.363,-0.618 0.867,-1.219 1.508,-1.805 0.633,-0.574 1.363,-1.121 2.203,-1.641 0.84,-0.508 1.734,-0.961 2.683,-1.359 0.942,-0.387 1.911,-0.695 2.918,-0.93 0.993,-0.219 1.961,-0.328 2.903,-0.328 0.66,0 1.269,0.055 1.82,0.164 0.539,0.11 1.004,0.266 1.391,0.465 0.375,0.199 0.672,0.437 0.894,0.711 0.211,0.289 0.317,0.609 0.317,0.965 0,0.574 -0.184,1.164 -0.551,1.769 -0.371,0.61 -0.871,1.2 -1.504,1.774 -0.629,0.586 -1.363,1.14 -2.203,1.66 -0.84,0.516 -1.735,0.976 -2.684,1.371 -0.953,0.402 -1.926,0.707 -2.918,0.93 -1.004,0.23 -1.984,0.347 -2.929,0.347 -1.172,0 -2.149,-0.164 -2.922,-0.496 -0.774,-0.332 -1.246,-0.785 -1.422,-1.359 z" /><path
         id="path5642"
         style="fill:#656565;fill-opacity:1;fill-rule:nonzero;stroke:none"
         d="m 103.492,447.202 h -2.648 v -1.313 h 2.648 z m -5.308,0 h -2.645 v -1.313 h 2.645 z m -5.317,0 h -2.644 v -1.313 h 2.644 z m -5.312,0 H 84.91 v -1.313 h 2.645 z m -4.614,0 h -3.339 v -1.313 h 3.339 z m -5.324,0 h -3.324 v -1.313 h 3.324 z m -5.316,0 H 68.98 v -1.313 h 3.321 z m -5.309,0 h -3.32 v -1.313 h 3.32 z m -5.297,0 h -3.34 v -1.313 h 3.34 z m -5.324,0 h -3.32 v -1.313 h 3.32 z m -5.289,0 h -3.344 v -1.313 h 3.344 z m -5.332,0 h -3.324 v -1.313 h 3.324 z m -5.297,0 h -3.332 v -1.313 h 3.332 z m -5.308,0 h -3.336 v -1.313 h 3.336 z m -5.309,0 h -3.344 v -1.313 h 3.344 z m -5.313,0 h -3.339 v -1.313 h 3.339 z m -5.308,0 h -3.34 v -1.313 h 3.34 z m -5.313,0 h -3.34 v -1.313 h 3.34 z m -5.308,0 h -3.34 v -1.313 h 3.34 z m -5.317,0 H 1.34 v -1.313 h 1.937 z" /><path
         id="path5644"
         style="fill:#656565;fill-opacity:1;fill-rule:nonzero;stroke:none"
         d="m 103.492,80.76 h -2.648 v -1.316 h 2.648 z m -5.308,0 h -2.645 v -1.316 h 2.645 z m -5.317,0 h -2.644 v -1.316 h 2.644 z m -5.312,0 H 84.91 v -1.316 h 2.645 z m -4.614,0 h -3.339 v -1.316 h 3.339 z m -5.324,0 h -3.324 v -1.316 h 3.324 z m -5.316,0 H 68.98 v -1.316 h 3.321 z m -5.309,0 h -3.32 v -1.316 h 3.32 z m -5.297,0 h -3.34 v -1.316 h 3.34 z m -5.324,0 h -3.32 v -1.316 h 3.32 z m -5.289,0 h -3.344 v -1.316 h 3.344 z m -5.332,0 h -3.324 v -1.316 h 3.324 z m -5.297,0 h -3.332 v -1.316 h 3.332 z m -5.308,0 h -3.336 v -1.316 h 3.336 z m -5.309,0 h -3.344 v -1.316 h 3.344 z m -5.313,0 h -3.339 v -1.316 h 3.339 z m -5.308,0 h -3.34 v -1.316 h 3.34 z m -5.313,0 h -3.34 v -1.316 h 3.34 z m -5.308,0 h -3.34 v -1.316 h 3.34 z m -5.317,0 H 1.34 v -1.316 h 1.937 z" /><path
         id="path5646"
         style="fill:#656565;fill-opacity:1;fill-rule:nonzero;stroke:none"
         d="m 12.031,441.202 -8.101,-28.36 7.3,1.481 V 293.811 h 1.606 v 120.512 l 7.297,-1.481 z M 11.23,230.522 V 110.014 l -7.3,1.473 8.101,-28.36 8.102,28.36 -7.297,-1.473 v 120.508 z" /><path
         id="path5648"
         style="fill:#656565;fill-opacity:1;fill-rule:nonzero;stroke:none"
         d="m 50.371,39.174 8.106,28.36 8.101,-28.36 -7.297,1.477 V 25.604 h -1.609 v 15.047 z" /><path
         id="path5650"
         style="fill:#656565;fill-opacity:1;fill-rule:nonzero;stroke:none"
         d="m 50.371,111.491 8.106,-28.36 8.101,28.36 -7.297,-1.481 v 15.051 H 57.672 V 110.01 Z" /><path
         id="path5652"
         style="fill:#656565;fill-opacity:1;fill-rule:nonzero;stroke:none"
         d="m 1271.98,213.471 h -2.648 v -1.308 h 2.648 z m -5.308,0 h -2.645 v -1.308 h 2.645 z m -5.317,0 h -2.644 v -1.308 h 2.644 z m -5.308,0 h -2.645 v -1.308 h 2.645 z m -4.617,0 h -3.34 v -1.308 h 3.34 z m -5.325,0 h -3.324 v -1.308 h 3.324 z m -5.312,0 h -3.324 v -1.308 h 3.324 z m -5.313,0 h -3.32 v -1.308 h 3.32 z m -5.292,0 h -3.34 v -1.308 h 3.34 z m -5.329,0 h -3.32 v -1.308 h 3.32 z m -5.293,0 h -3.339 v -1.308 h 3.339 z m -5.332,0 h -3.32 v -1.308 h 3.32 z m -5.289,0 h -3.336 v -1.308 h 3.336 z m -5.308,0 h -3.34 v -1.308 h 3.34 z m -5.313,0 h -3.34 v -1.308 h 3.34 z m -5.312,0 h -3.34 v -1.308 h 3.34 z m -5.309,0 h -3.34 v -1.308 h 3.34 z m -5.308,0 h -3.34 v -1.308 h 3.34 z m -5.313,0 h -3.34 v -1.308 h 3.34 z m -5.312,0 h -1.942 v -1.308 h 1.942 z" /><path
         id="path5654"
         style="fill:#656565;fill-opacity:1;fill-rule:nonzero;stroke:none"
         d="m 1236.434,244.272 8.105,-28.359 8.102,28.359 -7.301,-1.477 v 15.051 h -1.602 v -15.051 z" /><path
         id="path5656"
         style="fill:#656565;fill-opacity:1;fill-rule:nonzero;stroke:none"
         d="m 1271.98,133.413 h -2.648 V 132.1 h 2.648 z m -5.308,0 h -2.645 V 132.1 h 2.645 z m -5.317,0 h -2.644 V 132.1 h 2.644 z m -5.308,0 h -2.645 V 132.1 h 2.645 z m -4.617,0 h -3.34 V 132.1 h 3.34 z m -5.325,0 h -3.324 V 132.1 h 3.324 z m -5.312,0 h -3.324 V 132.1 h 3.324 z m -5.313,0 h -3.32 V 132.1 h 3.32 z m -5.292,0 h -3.34 V 132.1 h 3.34 z m -5.329,0 h -3.32 V 132.1 h 3.32 z m -5.293,0 h -3.339 V 132.1 h 3.339 z m -5.332,0 h -3.32 V 132.1 h 3.32 z m -5.289,0 h -3.336 V 132.1 h 3.336 z m -5.308,0 h -3.34 V 132.1 h 3.34 z m -5.313,0 h -3.34 V 132.1 h 3.34 z m -5.312,0 h -3.34 V 132.1 h 3.34 z m -5.309,0 h -3.34 V 132.1 h 3.34 z m -5.308,0 h -3.34 V 132.1 h 3.34 z m -5.313,0 h -3.34 V 132.1 h 3.34 z m -5.312,0 h -1.942 V 132.1 h 1.942 z" /><path
         id="path5658"
         style="fill:#656565;fill-opacity:1;fill-rule:nonzero;stroke:none"
         d="m 1236.434,101.588 8.105,28.36 8.102,-28.36 -7.301,1.473 V 88.014 h -1.602 v 15.047 z" /><path
         id="path5660"
         style="fill:#646464;fill-opacity:1;fill-rule:nonzero;stroke:none"
         d="m -0.051,251.549 c 0,1.157 0.578,1.735 1.735,1.735 1.136,0 1.703,-0.578 1.703,-1.735 v -8.953 l 5.578,-1.5 c -0.27,0.852 -0.406,1.735 -0.406,2.641 0,0.844 0.156,1.617 0.468,2.328 0.305,0.719 0.731,1.336 1.282,1.859 0.543,0.532 1.183,0.942 1.921,1.235 0.731,0.289 1.524,0.437 2.375,0.437 0.844,0 1.665,-0.125 2.454,-0.375 0.781,-0.242 1.523,-0.578 2.218,-1.015 0.7,-0.43 1.344,-0.934 1.938,-1.516 0.586,-0.574 1.09,-1.199 1.515,-1.875 0.418,-0.68 0.747,-1.387 0.985,-2.125 0.23,-0.731 0.344,-1.461 0.344,-2.188 0,-0.668 -0.094,-1.304 -0.282,-1.906 -0.195,-0.605 -0.476,-1.148 -0.843,-1.625 -0.364,-0.48 -0.801,-0.898 -1.313,-1.25 -0.519,-0.355 -1.098,-0.621 -1.734,-0.797 -0.219,-0.062 -0.43,-0.093 -0.641,-0.093 -0.207,0 -0.406,0.039 -0.594,0.125 -0.187,0.082 -0.351,0.207 -0.5,0.375 -0.144,0.164 -0.257,0.367 -0.343,0.609 -0.082,0.238 -0.125,0.516 -0.125,0.828 0,0.707 0.429,1.191 1.281,1.453 0.562,0.156 0.98,0.43 1.25,0.828 0.273,0.407 0.406,0.891 0.406,1.453 0,0.415 -0.078,0.844 -0.234,1.282 -0.157,0.445 -0.367,0.879 -0.641,1.297 -0.281,0.414 -0.609,0.804 -0.984,1.171 -0.375,0.375 -0.782,0.696 -1.219,0.969 -0.438,0.281 -0.906,0.504 -1.406,0.672 -0.508,0.164 -1.02,0.25 -1.532,0.25 -0.781,0 -1.406,-0.211 -1.875,-0.625 -0.476,-0.406 -0.718,-1 -0.718,-1.781 0,-0.324 0.023,-0.633 0.062,-0.922 0.043,-0.281 0.121,-0.586 0.235,-0.906 0.117,-0.313 0.281,-0.664 0.5,-1.047 0.211,-0.387 0.48,-0.852 0.812,-1.391 0.106,-0.179 0.188,-0.344 0.25,-0.5 0.055,-0.156 0.078,-0.324 0.078,-0.5 0,-0.304 -0.039,-0.562 -0.125,-0.781 -0.094,-0.219 -0.211,-0.406 -0.359,-0.563 -0.145,-0.148 -0.305,-0.25 -0.485,-0.312 -0.175,-0.063 -0.359,-0.094 -0.546,-0.094 -0.094,-0.023 -0.196,-0.023 -0.313,0 -0.113,0.02 -0.226,0.047 -0.344,0.078 l -10.468,2.782 c -0.907,0.175 -1.36,0.75 -1.36,1.718 z" /><path
         id="path5662"
         style="fill:#646464;fill-opacity:1;fill-rule:nonzero;stroke:none"
         d="m -0.051,264.495 c 0,0.863 0.188,1.648 0.563,2.359 0.375,0.707 0.914,1.313 1.609,1.813 0.699,0.5 1.531,0.882 2.5,1.156 0.961,0.281 2.024,0.422 3.188,0.422 1.281,0 2.574,-0.153 3.875,-0.453 1.304,-0.305 2.554,-0.719 3.75,-1.25 1.199,-0.524 2.324,-1.149 3.375,-1.875 1.054,-0.719 1.968,-1.5 2.75,-2.344 0.773,-0.836 1.382,-1.711 1.828,-2.625 0.449,-0.918 0.672,-1.84 0.672,-2.766 0,-0.855 -0.18,-1.637 -0.547,-2.344 -0.375,-0.711 -0.907,-1.32 -1.594,-1.828 -0.688,-0.5 -1.516,-0.89 -2.484,-1.172 -0.969,-0.273 -2.051,-0.406 -3.25,-0.406 -1.258,0 -2.536,0.149 -3.829,0.453 -1.289,0.301 -2.535,0.707 -3.734,1.219 -1.207,0.52 -2.336,1.141 -3.391,1.859 -1.05,0.727 -1.968,1.508 -2.75,2.344 -0.789,0.832 -1.41,1.707 -1.859,2.625 -0.445,0.914 -0.672,1.852 -0.672,2.813 z m 3.5,0.437 c -0.039,-0.094 -0.062,-0.242 -0.062,-0.437 0,-0.586 0.187,-1.188 0.562,-1.813 0.367,-0.617 0.871,-1.215 1.516,-1.797 0.637,-0.574 1.375,-1.121 2.219,-1.64 0.836,-0.512 1.726,-0.965 2.671,-1.36 0.95,-0.386 1.922,-0.695 2.922,-0.922 1,-0.23 1.969,-0.343 2.907,-0.343 0.668,0 1.277,0.05 1.828,0.156 0.543,0.113 1.008,0.269 1.39,0.469 0.387,0.207 0.688,0.453 0.907,0.734 0.211,0.281 0.312,0.598 0.312,0.953 0,0.57 -0.18,1.16 -0.547,1.766 -0.375,0.613 -0.875,1.207 -1.5,1.781 -0.633,0.582 -1.375,1.133 -2.219,1.656 -0.843,0.52 -1.738,0.977 -2.687,1.375 -0.957,0.407 -1.938,0.719 -2.938,0.938 -1,0.226 -1.972,0.344 -2.921,0.344 -1.176,0 -2.149,-0.168 -2.922,-0.5 -0.782,-0.325 -1.258,-0.778 -1.438,-1.36 z" /><path
         id="path5664"
         style="fill:#646464;fill-opacity:1;fill-rule:nonzero;stroke:none"
         d="m -0.051,283.78 c 0,0.863 0.188,1.648 0.563,2.359 0.375,0.707 0.914,1.313 1.609,1.813 0.699,0.5 1.531,0.882 2.5,1.156 0.961,0.281 2.024,0.422 3.188,0.422 1.281,0 2.574,-0.153 3.875,-0.453 1.304,-0.305 2.554,-0.719 3.75,-1.25 1.199,-0.524 2.324,-1.149 3.375,-1.875 1.054,-0.719 1.968,-1.5 2.75,-2.344 0.773,-0.836 1.382,-1.711 1.828,-2.625 0.449,-0.918 0.672,-1.84 0.672,-2.766 0,-0.855 -0.18,-1.636 -0.547,-2.343 -0.375,-0.711 -0.907,-1.321 -1.594,-1.829 -0.688,-0.5 -1.516,-0.89 -2.484,-1.171 -0.969,-0.274 -2.051,-0.407 -3.25,-0.407 -1.258,0 -2.536,0.149 -3.829,0.453 -1.289,0.301 -2.535,0.707 -3.734,1.219 -1.207,0.52 -2.336,1.141 -3.391,1.86 -1.05,0.726 -1.968,1.507 -2.75,2.343 -0.789,0.832 -1.41,1.707 -1.859,2.625 -0.445,0.914 -0.672,1.852 -0.672,2.813 z m 3.5,0.437 c -0.039,-0.093 -0.062,-0.242 -0.062,-0.437 0,-0.586 0.187,-1.188 0.562,-1.813 0.367,-0.617 0.871,-1.215 1.516,-1.797 0.637,-0.574 1.375,-1.121 2.219,-1.64 0.836,-0.512 1.726,-0.965 2.671,-1.36 0.95,-0.386 1.922,-0.695 2.922,-0.921 1,-0.231 1.969,-0.344 2.907,-0.344 0.668,0 1.277,0.051 1.828,0.156 0.543,0.113 1.008,0.27 1.39,0.469 0.387,0.207 0.688,0.453 0.907,0.734 0.211,0.281 0.312,0.598 0.312,0.953 0,0.571 -0.18,1.16 -0.547,1.766 -0.375,0.613 -0.875,1.207 -1.5,1.781 -0.633,0.582 -1.375,1.133 -2.219,1.656 -0.843,0.52 -1.738,0.977 -2.687,1.375 -0.957,0.407 -1.938,0.719 -2.938,0.938 -1,0.226 -1.972,0.344 -2.921,0.344 -1.176,0 -2.149,-0.168 -2.922,-0.5 -0.782,-0.325 -1.258,-0.778 -1.438,-1.36 z" /><path
         id="path5666"
         style="fill:#646464;fill-opacity:1;fill-rule:nonzero;stroke:none"
         d="m 1224.141,162.026 c -0.219,-0.867 -0.715,-1.297 -1.485,-1.297 -0.636,0 -1.121,0.148 -1.453,0.453 -0.324,0.301 -0.484,0.649 -0.484,1.047 0,0.207 0.031,0.438 0.093,0.688 l 4.188,15.656 -0.281,-0.25 c -0.188,-0.149 -0.383,-0.262 -0.578,-0.344 -0.2,-0.074 -0.387,-0.109 -0.563,-0.109 -0.187,0 -0.387,0.054 -0.594,0.172 -0.211,0.125 -0.402,0.273 -0.578,0.453 -0.168,0.175 -0.304,0.375 -0.406,0.593 -0.105,0.219 -0.156,0.438 -0.156,0.657 0,0.468 0.25,0.898 0.75,1.297 l 4.344,3.437 c 0.32,0.258 0.664,0.391 1.031,0.391 0.301,0 0.562,-0.047 0.781,-0.141 0.219,-0.086 0.406,-0.203 0.562,-0.359 0.157,-0.149 0.27,-0.309 0.344,-0.485 0.071,-0.179 0.11,-0.367 0.11,-0.562 0,-0.199 -0.032,-0.414 -0.094,-0.641 z" /><path
         id="path5668"
         style="fill:#646464;fill-opacity:1;fill-rule:nonzero;stroke:none"
         d="m 1241.902,184.901 c 0.864,0 1.649,-0.188 2.36,-0.563 0.707,-0.375 1.312,-0.914 1.812,-1.609 0.5,-0.699 0.883,-1.531 1.156,-2.5 0.282,-0.961 0.422,-2.023 0.422,-3.187 0,-1.282 -0.152,-2.575 -0.453,-3.875 -0.304,-1.305 -0.719,-2.555 -1.25,-3.75 -0.523,-1.2 -1.148,-2.325 -1.875,-3.375 -0.719,-1.055 -1.5,-1.969 -2.344,-2.75 -0.835,-0.774 -1.71,-1.383 -2.625,-1.829 -0.917,-0.449 -1.839,-0.671 -2.765,-0.671 -0.856,0 -1.637,0.179 -2.344,0.546 -0.711,0.375 -1.32,0.907 -1.828,1.594 -0.5,0.688 -0.891,1.516 -1.172,2.485 -0.273,0.968 -0.406,2.05 -0.406,3.25 0,1.257 0.148,2.535 0.453,3.828 0.301,1.289 0.707,2.535 1.219,3.734 0.519,1.207 1.14,2.336 1.859,3.391 0.727,1.05 1.508,1.968 2.344,2.75 0.832,0.789 1.707,1.41 2.625,1.859 0.914,0.445 1.851,0.672 2.812,0.672 z m 0.438,-3.5 c -0.094,0.039 -0.242,0.062 -0.438,0.062 -0.586,0 -1.187,-0.187 -1.812,-0.562 -0.617,-0.367 -1.215,-0.871 -1.797,-1.516 -0.574,-0.636 -1.121,-1.375 -1.641,-2.218 -0.511,-0.836 -0.964,-1.727 -1.359,-2.672 -0.387,-0.95 -0.695,-1.922 -0.922,-2.922 -0.23,-1 -0.344,-1.969 -0.344,-2.906 0,-0.668 0.051,-1.278 0.157,-1.829 0.113,-0.543 0.269,-1.007 0.468,-1.39 0.207,-0.387 0.453,-0.688 0.735,-0.906 0.281,-0.211 0.597,-0.313 0.953,-0.313 0.57,0 1.16,0.18 1.765,0.547 0.614,0.375 1.207,0.875 1.782,1.5 0.582,0.633 1.133,1.375 1.656,2.219 0.519,0.843 0.977,1.738 1.375,2.687 0.406,0.957 0.719,1.938 0.937,2.938 0.227,1 0.344,1.972 0.344,2.922 0,1.175 -0.168,2.148 -0.5,2.921 -0.324,0.782 -0.777,1.258 -1.359,1.438 z" /><path
         id="path5670"
         style="fill:#646464;fill-opacity:1;fill-rule:nonzero;stroke:none"
         d="m 1266.672,184.901 c 1.156,0 1.734,-0.578 1.734,-1.734 0,-1.137 -0.578,-1.704 -1.734,-1.704 h -8.953 l -1.5,-5.578 c 0.851,0.27 1.734,0.407 2.64,0.407 0.844,0 1.618,-0.157 2.329,-0.469 0.718,-0.305 1.335,-0.731 1.859,-1.281 0.531,-0.543 0.941,-1.184 1.234,-1.922 0.289,-0.731 0.438,-1.524 0.438,-2.375 0,-0.844 -0.125,-1.664 -0.375,-2.453 -0.242,-0.782 -0.578,-1.524 -1.016,-2.219 -0.43,-0.699 -0.933,-1.344 -1.516,-1.938 -0.574,-0.586 -1.199,-1.09 -1.874,-1.515 -0.68,-0.418 -1.387,-0.746 -2.126,-0.985 -0.73,-0.23 -1.46,-0.343 -2.187,-0.343 -0.668,0 -1.305,0.093 -1.906,0.281 -0.606,0.195 -1.149,0.476 -1.625,0.844 -0.481,0.363 -0.899,0.8 -1.25,1.312 -0.356,0.52 -0.621,1.098 -0.797,1.734 -0.063,0.219 -0.094,0.43 -0.094,0.641 0,0.207 0.039,0.406 0.125,0.594 0.082,0.187 0.207,0.351 0.375,0.5 0.164,0.144 0.367,0.258 0.609,0.344 0.239,0.082 0.516,0.125 0.829,0.125 0.707,0 1.191,-0.43 1.453,-1.282 0.156,-0.562 0.429,-0.98 0.828,-1.25 0.406,-0.273 0.89,-0.406 1.453,-0.406 0.414,0 0.844,0.078 1.281,0.234 0.446,0.157 0.879,0.368 1.297,0.641 0.414,0.281 0.805,0.609 1.172,0.984 0.375,0.375 0.695,0.782 0.969,1.219 0.281,0.438 0.504,0.906 0.672,1.406 0.164,0.508 0.25,1.02 0.25,1.532 0,0.781 -0.211,1.406 -0.625,1.875 -0.407,0.476 -1,0.718 -1.782,0.718 -0.324,0 -0.632,-0.023 -0.921,-0.062 -0.282,-0.043 -0.586,-0.121 -0.907,-0.234 -0.312,-0.118 -0.664,-0.282 -1.047,-0.5 -0.386,-0.211 -0.851,-0.481 -1.39,-0.813 -0.18,-0.105 -0.344,-0.187 -0.5,-0.25 -0.156,-0.055 -0.324,-0.078 -0.5,-0.078 -0.305,0 -0.563,0.039 -0.782,0.125 -0.218,0.094 -0.406,0.211 -0.562,0.359 -0.148,0.145 -0.25,0.305 -0.312,0.485 -0.063,0.175 -0.094,0.359 -0.094,0.547 -0.024,0.093 -0.024,0.195 0,0.312 0.019,0.113 0.047,0.227 0.078,0.344 l 2.781,10.469 c 0.176,0.906 0.75,1.359 1.719,1.359 z" /><path
         id="path5672"
         style="fill:#656565;fill-opacity:1;fill-rule:nonzero;stroke:none"
         d="m 1271.98,374.592 h -2.648 v -1.312 h 2.648 z m -5.308,0 h -2.645 v -1.312 h 2.645 z m -5.317,0 h -2.644 v -1.312 h 2.644 z m -5.308,0 h -2.645 v -1.312 h 2.645 z m -4.617,0 h -3.34 v -1.312 h 3.34 z m -5.325,0 h -3.324 v -1.312 h 3.324 z m -5.312,0 h -3.324 v -1.312 h 3.324 z m -5.313,0 h -3.32 v -1.312 h 3.32 z m -5.292,0 h -3.34 v -1.312 h 3.34 z m -5.329,0 h -3.32 v -1.312 h 3.32 z m -5.293,0 h -3.339 v -1.312 h 3.339 z m -5.332,0 h -3.32 v -1.312 h 3.32 z m -5.289,0 h -3.336 v -1.312 h 3.336 z m -5.308,0 h -3.34 v -1.312 h 3.34 z m -5.313,0 h -3.34 v -1.312 h 3.34 z m -5.312,0 h -3.34 v -1.312 h 3.34 z m -5.309,0 h -3.34 v -1.312 h 3.34 z m -5.308,0 h -3.34 v -1.312 h 3.34 z m -5.313,0 h -3.34 v -1.312 h 3.34 z m -5.312,0 h -1.942 v -1.312 h 1.942 z" /><path
         id="path5674"
         style="fill:#656565;fill-opacity:1;fill-rule:nonzero;stroke:none"
         d="m 1271.98,268.167 h -2.648 v -1.309 h 2.648 z m -5.308,0 h -2.645 v -1.309 h 2.645 z m -5.317,0 h -2.644 v -1.309 h 2.644 z m -5.308,0 h -2.645 v -1.309 h 2.645 z m -4.617,0 h -3.34 v -1.309 h 3.34 z m -5.325,0 h -3.324 v -1.309 h 3.324 z m -5.312,0 h -3.324 v -1.309 h 3.324 z m -5.313,0 h -3.32 v -1.309 h 3.32 z m -5.292,0 h -3.34 v -1.309 h 3.34 z m -5.329,0 h -3.32 v -1.309 h 3.32 z m -5.293,0 h -3.339 v -1.309 h 3.339 z m -5.332,0 h -3.32 v -1.309 h 3.32 z m -5.289,0 h -3.336 v -1.309 h 3.336 z m -5.308,0 h -3.34 v -1.309 h 3.34 z m -5.313,0 h -3.34 v -1.309 h 3.34 z m -5.312,0 h -3.34 v -1.309 h 3.34 z m -5.309,0 h -3.34 v -1.309 h 3.34 z m -5.308,0 h -3.34 v -1.309 h 3.34 z m -5.313,0 h -3.34 v -1.309 h 3.34 z m -5.312,0 h -1.942 v -1.309 h 1.942 z" /><path
         id="path5676"
         style="fill:#656565;fill-opacity:1;fill-rule:nonzero;stroke:none"
         d="m 1236.434,343.487 8.105,28.359 8.102,-28.359 -7.301,1.472 h -1.602 z" /><path
         id="path5678"
         style="fill:#656565;fill-opacity:1;fill-rule:nonzero;stroke:none"
         d="m 1236.434,297.874 8.105,-28.36 8.102,28.36 -7.301,-1.473 h -1.602 z" /><path
         id="path5680"
         style="fill:#646464;fill-opacity:1;fill-rule:nonzero;stroke:none"
         d="m 1225.492,309.92 c -0.219,-0.867 -0.715,-1.296 -1.484,-1.296 -0.637,0 -1.121,0.148 -1.453,0.453 -0.325,0.3 -0.485,0.648 -0.485,1.047 0,0.207 0.032,0.437 0.094,0.687 l 4.188,15.656 -0.282,-0.25 c -0.187,-0.148 -0.382,-0.261 -0.578,-0.343 -0.199,-0.075 -0.387,-0.11 -0.562,-0.11 -0.188,0 -0.387,0.055 -0.594,0.172 -0.211,0.125 -0.402,0.273 -0.578,0.453 -0.168,0.176 -0.305,0.375 -0.406,0.594 -0.106,0.219 -0.157,0.437 -0.157,0.656 0,0.469 0.25,0.899 0.75,1.297 l 4.344,3.438 c 0.32,0.257 0.664,0.39 1.031,0.39 0.301,0 0.563,-0.047 0.782,-0.14 0.218,-0.086 0.406,-0.204 0.562,-0.36 0.156,-0.148 0.27,-0.308 0.344,-0.484 0.07,-0.18 0.109,-0.367 0.109,-0.563 0,-0.199 -0.031,-0.414 -0.094,-0.64 z" /><path
         id="path5682"
         style="fill:#646464;fill-opacity:1;fill-rule:nonzero;stroke:none"
         d="m 1243.441,319.467 c 0.239,0.852 0.735,1.282 1.485,1.282 0.644,0 1.129,-0.153 1.453,-0.454 0.32,-0.304 0.484,-0.656 0.484,-1.062 0,-0.199 -0.031,-0.414 -0.093,-0.641 l -0.563,-2.203 c 0.926,-0.18 1.391,-0.734 1.391,-1.672 0,-1.156 -0.571,-1.734 -1.703,-1.734 h -0.594 l -0.766,-3 c -0.23,-0.875 -0.719,-1.313 -1.469,-1.313 -0.648,0 -1.132,0.149 -1.453,0.454 -0.324,0.3 -0.484,0.66 -0.484,1.078 0,0.093 0,0.191 0.016,0.297 0.011,0.101 0.031,0.218 0.062,0.343 l 0.563,2.141 h -7.969 c -0.305,0 -0.571,0.051 -0.797,0.156 -0.231,0.113 -0.434,0.254 -0.609,0.422 -0.168,0.164 -0.293,0.344 -0.375,0.531 -0.086,0.188 -0.125,0.367 -0.125,0.547 0.011,0.176 0.046,0.363 0.109,0.563 0.07,0.195 0.187,0.39 0.344,0.578 l 12.984,16.359 c 0.395,0.488 0.82,0.735 1.281,0.735 0.239,0 0.469,-0.059 0.688,-0.172 0.219,-0.106 0.414,-0.246 0.594,-0.422 0.175,-0.18 0.316,-0.371 0.421,-0.578 0.114,-0.2 0.172,-0.399 0.172,-0.594 0,-0.356 -0.148,-0.727 -0.437,-1.109 l -10.813,-13.563 h 5.407 z" /><path
         id="path5684"
         style="fill:#646464;fill-opacity:1;fill-rule:nonzero;stroke:none"
         d="m 1261.215,332.795 c 0.863,0 1.648,-0.187 2.359,-0.562 0.707,-0.375 1.313,-0.914 1.813,-1.609 0.5,-0.7 0.883,-1.532 1.156,-2.5 0.281,-0.961 0.422,-2.024 0.422,-3.188 0,-1.281 -0.153,-2.574 -0.453,-3.875 -0.305,-1.305 -0.719,-2.555 -1.25,-3.75 -0.524,-1.199 -1.149,-2.324 -1.875,-3.375 -0.719,-1.055 -1.5,-1.969 -2.344,-2.75 -0.836,-0.773 -1.711,-1.383 -2.625,-1.828 -0.918,-0.449 -1.84,-0.672 -2.766,-0.672 -0.855,0 -1.636,0.18 -2.343,0.547 -0.711,0.375 -1.321,0.906 -1.829,1.594 -0.5,0.687 -0.89,1.515 -1.171,2.484 -0.274,0.969 -0.407,2.051 -0.407,3.25 0,1.258 0.149,2.535 0.453,3.828 0.301,1.289 0.707,2.535 1.219,3.735 0.52,1.207 1.141,2.335 1.86,3.39 0.726,1.051 1.507,1.969 2.343,2.75 0.832,0.789 1.707,1.41 2.625,1.86 0.914,0.445 1.852,0.671 2.813,0.671 z m 0.437,-3.5 c -0.093,0.039 -0.242,0.063 -0.437,0.063 -0.586,0 -1.188,-0.188 -1.813,-0.563 -0.617,-0.367 -1.214,-0.871 -1.797,-1.515 -0.574,-0.637 -1.121,-1.375 -1.64,-2.219 -0.512,-0.836 -0.965,-1.727 -1.36,-2.672 -0.386,-0.949 -0.695,-1.922 -0.921,-2.922 -0.231,-1 -0.344,-1.968 -0.344,-2.906 0,-0.668 0.051,-1.277 0.156,-1.828 0.113,-0.543 0.27,-1.008 0.469,-1.391 0.207,-0.386 0.453,-0.687 0.734,-0.906 0.281,-0.211 0.598,-0.312 0.953,-0.312 0.571,0 1.16,0.179 1.766,0.546 0.613,0.375 1.207,0.875 1.781,1.5 0.582,0.633 1.133,1.375 1.656,2.219 0.52,0.844 0.977,1.738 1.375,2.688 0.407,0.957 0.719,1.937 0.938,2.937 0.227,1 0.344,1.973 0.344,2.922 0,1.176 -0.168,2.148 -0.5,2.922 -0.324,0.781 -0.778,1.258 -1.36,1.437 z" /><path
         id="path5686"
         style="fill:#ffffff;fill-opacity:1;fill-rule:nonzero;stroke:none"
         d="m 339.074,356.92 v -33.593 h 23.446 c 5.863,0 10.222,1.761 13.082,5.289 2.906,3.527 4.359,7.363 4.359,11.508 0,6.289 -2.262,10.91 -6.789,13.867 -2.906,1.953 -6.649,2.929 -11.223,2.929 z m -15.793,-89.203 v 104.141 h 37.809 c 4.051,0 7.933,-0.43 11.652,-1.285 3.766,-0.86 7.672,-2.86 11.723,-6.004 3.144,-2.43 5.812,-5.789 8.004,-10.078 2.191,-4.242 3.289,-9.172 3.289,-14.797 0,-7.434 -2.789,-14.508 -8.363,-21.227 -5.528,-6.718 -13.629,-10.078 -24.301,-10.078 h -24.02 v -40.672 z" /><path
         id="path5688"
         style="fill:#ffffff;fill-opacity:1;fill-rule:nonzero;stroke:none"
         d="m 455.812,268.573 v 6.578 h -0.355 c -3.004,-4.957 -9.102,-7.434 -18.297,-7.434 -8.293,0 -14.726,2.145 -19.301,6.434 -4.574,4.336 -6.863,9.742 -6.863,16.223 0,5.863 2.027,10.984 6.078,15.367 4.051,4.386 10.078,6.578 18.082,6.578 h 20.656 v 7.719 c 0,6.339 -5.074,9.507 -15.222,9.507 -7.051,0 -11.746,-1.882 -14.082,-5.648 l -11.723,8.863 c 5.195,7.242 13.535,10.867 25.02,10.867 9.148,0 16.582,-1.789 22.3,-5.363 5.719,-3.574 8.575,-9.933 8.575,-19.082 v -50.609 z m 0,26.019 v 5.434 h -17.867 c -8.625,0 -12.937,-2.981 -12.937,-8.938 0,-2.523 1.07,-4.714 3.215,-6.574 2.191,-1.859 5.816,-2.789 10.867,-2.789 6.195,0 10.531,0.692 13.008,2.074 2.476,1.383 3.714,4.981 3.714,10.793 z" /><path
         id="path5690"
         style="fill:#ffffff;fill-opacity:1;fill-rule:nonzero;stroke:none"
         d="m 500.102,267.717 v 74.192 h 14.937 v -7.934 h 0.289 c 4.621,5.863 11.055,8.793 19.297,8.793 5.434,0 10.602,-1.906 15.512,-5.719 l -10.793,-12.867 c -3.242,2.434 -6.532,3.649 -9.864,3.649 -3.671,0 -7.007,-1.243 -10.007,-3.719 -2.953,-2.43 -4.434,-6.36 -4.434,-11.793 v -44.602 z" /><path
         id="path5692"
         style="fill:#ffffff;fill-opacity:1;fill-rule:nonzero;stroke:none"
         d="m 563.746,267.717 v 104.141 h 14.942 V 307.03 h 0.285 l 28.519,34.879 h 17.867 l -25.586,-29.02 29.09,-45.172 h -18.726 l -19.727,34.664 -11.722,-13.363 v -21.301 z" /><path
         id="path5694"
         style="fill:#ffffff;fill-opacity:1;fill-rule:nonzero;stroke:none"
         d="m 641.148,238.553 v 104.215 h 14.938 v -7.793 c 5.195,5.766 11.582,8.652 19.156,8.652 4.528,0 8.438,-0.929 11.723,-2.789 3.289,-1.812 6.004,-4.097 8.148,-6.863 2.051,-2.668 3.434,-5.789 4.149,-9.363 0.761,-3.528 1.14,-9.863 1.14,-19.012 0,-9.101 -0.379,-15.441 -1.14,-19.012 -0.715,-3.574 -2.098,-6.671 -4.149,-9.293 -2.144,-2.812 -4.859,-5.125 -8.148,-6.933 -3.285,-1.762 -7.195,-2.645 -11.723,-2.645 -3.859,0 -7.336,0.785 -10.433,2.36 -3.051,1.57 -5.957,3.691 -8.723,6.359 v -37.883 z m 29.594,44.031 c 7.004,0 11.196,2.407 12.578,7.219 1.43,4.813 2.145,10.078 2.145,15.797 0,5.719 -0.715,10.984 -2.145,15.797 -1.382,4.859 -5.574,7.289 -12.578,7.289 -7.008,0 -11.199,-2.5 -12.582,-7.504 -1.383,-5.004 -2.074,-10.199 -2.074,-15.582 0,-5.387 0.691,-10.578 2.074,-15.582 1.383,-4.957 5.574,-7.434 12.582,-7.434 z" /><path
         id="path5696"
         style="fill:#ffffff;fill-opacity:1;fill-rule:nonzero;stroke:none"
         d="m 724.102,285.659 v 86.199 h 14.937 v -84.984 c 0,-3.434 1.859,-5.149 5.574,-5.149 h 5.078 v -14.008 h -6.578 c -5.429,0 -9.957,1.309 -13.578,3.93 -3.625,2.668 -5.433,7.34 -5.433,14.012 z" /><path
         id="path5698"
         style="fill:#ffffff;fill-opacity:1;fill-rule:nonzero;stroke:none"
         d="m 806.797,268.573 v 6.578 h -0.359 c -3,-4.957 -9.102,-7.434 -18.297,-7.434 -8.293,0 -14.723,2.145 -19.301,6.434 -4.574,4.336 -6.86,9.742 -6.86,16.223 0,5.863 2.024,10.984 6.075,15.367 4.05,4.386 10.078,6.578 18.086,6.578 h 20.656 v 7.719 c 0,6.339 -5.074,9.507 -15.227,9.507 -7.05,0 -11.746,-1.882 -14.078,-5.648 l -11.722,8.863 c 5.191,7.242 13.531,10.867 25.015,10.867 9.149,0 16.582,-1.789 22.301,-5.363 5.719,-3.574 8.578,-9.933 8.578,-19.082 v -50.609 z m 0,26.019 v 5.434 h -17.871 c -8.625,0 -12.938,-2.981 -12.938,-8.938 0,-2.523 1.074,-4.714 3.219,-6.574 2.191,-1.859 5.813,-2.789 10.863,-2.789 6.196,0 10.532,0.692 13.008,2.074 2.481,1.383 3.719,4.981 3.719,10.793 z" /><path
         id="path5700"
         style="fill:#ffffff;fill-opacity:1;fill-rule:nonzero;stroke:none"
         d="m 850.891,341.909 v 22.515 h 14.941 v -22.515 h 10.863 v -11.434 h -10.863 v -43.172 c 0,-3.719 1.762,-5.578 5.289,-5.578 h 5.574 v -14.008 h -7.793 c -5.191,0 -9.504,1.571 -12.937,4.719 -3.383,3.145 -5.074,7.645 -5.074,13.508 v 44.531 h -7.434 v 11.434 z" /><path
         id="path5702"
         style="fill:#ffffff;fill-opacity:1;fill-rule:nonzero;stroke:none"
         d="m 891.773,267.717 v 11.793 l 37.168,49.176 h -35.097 v 13.223 h 53.25 v -11.864 l -37.168,-48.32 h 37.168 v -14.008 z" /><path
         id="path5704"
         style="fill:#ffffff;fill-opacity:1;fill-rule:nonzero;stroke:none"
         d="m 253.094,200.913 h -11.25 v 11.25 h 11.25 z m 0,-67.5 h -11.25 v 56.25 h 11.25 z" /><path
         id="path5706"
         style="fill:#ffffff;fill-opacity:1;fill-rule:nonzero;stroke:none"
         d="m 176.648,133.831 v 78.105 h 11.204 v -28.41 c 2.074,1.965 4.253,3.555 6.539,4.769 2.324,1.215 4.933,1.825 7.828,1.825 3.394,0 6.324,-0.7 8.793,-2.094 2.465,-1.356 4.5,-3.07 6.109,-5.145 1.539,-2 2.574,-4.343 3.109,-7.023 0.571,-2.645 0.86,-7.363 0.86,-14.152 0,-6.864 -0.289,-11.653 -0.86,-14.368 -0.535,-2.679 -1.57,-5.004 -3.109,-6.968 -1.609,-2.11 -3.644,-3.84 -6.109,-5.2 -2.469,-1.324 -5.399,-1.984 -8.793,-1.984 -5.719,0 -10.508,2.145 -14.367,6.434 v -5.789 z m 22.192,45.082 c -5.254,0 -8.399,-1.875 -9.434,-5.629 -1.035,-3.75 -1.554,-7.61 -1.554,-11.578 0,-4.075 0.519,-7.989 1.554,-11.739 1.035,-3.754 4.18,-5.629 9.434,-5.629 5.254,0 8.398,1.805 9.437,5.414 1.071,3.61 1.606,7.594 1.606,11.954 0,4.253 -0.535,8.183 -1.606,11.793 -1.039,3.609 -4.183,5.414 -9.437,5.414 z" /><path
         id="path5708"
         style="fill:#ffffff;fill-opacity:1;fill-rule:nonzero;stroke:none"
         d="m 274.355,189.475 v 16.887 h 11.204 v -16.887 h 8.148 v -8.578 h -8.148 v -32.379 c 0,-2.789 1.32,-4.18 3.964,-4.18 h 4.184 v -10.507 h -5.844 c -3.894,0 -7.129,1.179 -9.703,3.539 -2.539,2.355 -3.805,5.734 -3.805,10.129 v 33.398 h -5.578 v 8.578 z" /><path
         id="path5710"
         style="fill:#ffffff;fill-opacity:1;fill-rule:nonzero;stroke:none"
         d="m 312.305,189.475 v 16.887 h 11.203 v -16.887 h 8.148 v -8.578 h -8.148 v -32.379 c 0,-2.789 1.32,-4.18 3.969,-4.18 h 4.179 v -10.507 h -5.844 c -3.894,0 -7.128,1.179 -9.703,3.539 -2.535,2.355 -3.804,5.734 -3.804,10.129 v 33.398 h -5.578 v 8.578 z" /><path
         id="path5712"
         style="fill:#ffffff;fill-opacity:1;fill-rule:nonzero;stroke:none"
         d="m 392.711,157.417 h -34.633 c 0,-4.575 1.234,-8.004 3.699,-10.293 2.504,-2.286 5.684,-3.43 9.543,-3.43 4.61,0 8.684,1.785 12.223,5.359 l 8.094,-6.914 c -2.75,-3.215 -5.86,-5.523 -9.328,-6.914 -3.43,-1.359 -7.02,-2.039 -10.774,-2.039 -5.719,0 -11.258,1.84 -16.617,5.523 -5.363,3.715 -8.043,11.293 -8.043,22.727 0,10.832 2.465,18.316 7.398,22.465 4.969,4.144 10.149,6.219 15.547,6.219 6.11,0 11.453,-2.129 16.028,-6.383 4.574,-4.215 6.863,-9.914 6.863,-17.098 z m -34.633,9.222 h 23.481 c -0.176,4.18 -1.356,7.379 -3.536,9.594 -2.183,2.215 -4.914,3.324 -8.203,3.324 -3.324,0 -6.093,-1.109 -8.308,-3.324 -2.18,-2.215 -3.324,-5.414 -3.434,-9.594 z" /><path
         id="path5714"
         style="fill:#ffffff;fill-opacity:1;fill-rule:nonzero;stroke:none"
         d="m 438.578,143.104 7.828,7.719 c 4.86,-4.754 10.703,-7.129 17.532,-7.129 3.179,0 5.804,0.59 7.878,1.769 2.075,1.215 3.11,3 3.11,5.36 0,3.254 -2.27,5.074 -6.809,5.469 l -9.863,0.91 c -4.609,0.359 -8.434,1.879 -11.473,4.558 -3.039,2.68 -4.554,6.414 -4.554,11.203 0,5.649 1.98,9.918 5.949,12.813 3.965,2.894 8.898,4.344 14.797,4.344 4.859,0 9.023,-0.7 12.488,-2.094 3.469,-1.356 6.578,-3.18 9.328,-5.465 l -6.914,-8.148 c -2.219,1.5 -4.504,2.73 -6.863,3.699 -2.36,0.965 -5.039,1.445 -8.039,1.445 -3.575,0 -6.059,-0.644 -7.453,-1.93 -1.395,-1.25 -2.09,-2.839 -2.09,-4.769 0,-1.215 0.515,-2.344 1.554,-3.379 1.036,-1.035 2.965,-1.66 5.789,-1.875 l 9.219,-0.645 c 5.754,-0.394 9.883,-2.179 12.383,-5.359 2.504,-3.144 3.754,-6.918 3.754,-11.312 0,-5.469 -2.234,-9.684 -6.699,-12.653 -4.469,-2.965 -9.918,-4.449 -16.352,-4.449 -9.258,0 -17.422,3.305 -24.5,9.918 z" /><path
         id="path5716"
         style="fill:#ffffff;fill-opacity:1;fill-rule:nonzero;stroke:none"
         d="m 532.777,133.831 v 4.929 h -0.269 c -2.25,-3.715 -6.824,-5.574 -13.723,-5.574 -6.219,0 -11.043,1.609 -14.476,4.824 -3.43,3.254 -5.145,7.309 -5.145,12.172 0,4.395 1.52,8.235 4.555,11.524 3.039,3.289 7.558,4.933 13.566,4.933 h 15.492 v 5.789 c 0,4.754 -3.808,7.129 -11.418,7.129 -5.293,0 -8.812,-1.41 -10.562,-4.234 l -8.793,6.648 c 3.898,5.43 10.152,8.149 18.766,8.149 6.859,0 12.433,-1.34 16.722,-4.024 4.289,-2.679 6.434,-7.449 6.434,-14.312 v -37.953 z m 0,19.511 v 4.075 h -13.402 c -6.469,0 -9.703,-2.235 -9.703,-6.7 0,-1.894 0.805,-3.539 2.41,-4.933 1.645,-1.395 4.363,-2.09 8.148,-2.09 4.649,0 7.899,0.519 9.758,1.555 1.86,1.035 2.789,3.734 2.789,8.093 z" /><path
         id="path5718"
         style="fill:#ffffff;fill-opacity:1;fill-rule:nonzero;stroke:none"
         d="m 558.441,152.487 v 36.988 h 11.207 v -33.183 c 0,-3.79 1.036,-6.739 3.106,-8.844 2.109,-2.074 4.773,-3.11 7.988,-3.11 3.11,0 5.703,1.036 7.774,3.11 2.109,2.105 3.164,5.054 3.164,8.844 v 33.183 h 11.203 V 133.831 H 591.68 v 5.894 h -0.215 c -3.465,-4.359 -8.254,-6.539 -14.367,-6.539 -4.395,0 -8.614,1.625 -12.653,4.879 -4,3.289 -6.004,8.094 -6.004,14.422 z" /><path
         id="path5720"
         style="fill:#ffffff;fill-opacity:1;fill-rule:nonzero;stroke:none"
         d="m 622.363,133.831 v 78.105 h 11.207 v -28.41 c 2.071,1.965 4.25,3.555 6.539,4.769 2.325,1.215 4.93,1.825 7.825,1.825 3.398,0 6.328,-0.7 8.793,-2.094 2.464,-1.356 4.503,-3.07 6.113,-5.145 1.535,-2 2.57,-4.343 3.109,-7.023 0.571,-2.645 0.856,-7.363 0.856,-14.152 0,-6.864 -0.285,-11.653 -0.856,-14.368 -0.539,-2.679 -1.574,-5.004 -3.109,-6.968 -1.61,-2.11 -3.649,-3.84 -6.113,-5.2 -2.465,-1.324 -5.395,-1.984 -8.793,-1.984 -5.715,0 -10.504,2.145 -14.364,6.434 v -5.789 z m 22.196,45.082 c -5.254,0 -8.399,-1.875 -9.434,-5.629 -1.039,-3.75 -1.555,-7.61 -1.555,-11.578 0,-4.075 0.516,-7.989 1.555,-11.739 1.035,-3.754 4.18,-5.629 9.434,-5.629 5.253,0 8.398,1.805 9.433,5.414 1.074,3.61 1.61,7.594 1.61,11.954 0,4.253 -0.536,8.183 -1.61,11.793 -1.035,3.609 -4.18,5.414 -9.433,5.414 z" /><path
         id="path5722"
         style="fill:#ffffff;fill-opacity:1;fill-rule:nonzero;stroke:none"
         d="m 727.727,157.417 h -34.629 c 0,-4.575 1.23,-8.004 3.699,-10.293 2.5,-2.286 5.68,-3.43 9.543,-3.43 4.609,0 8.683,1.785 12.219,5.359 l 8.097,-6.914 c -2.754,-3.215 -5.863,-5.523 -9.328,-6.914 -3.43,-1.359 -7.023,-2.039 -10.777,-2.039 -5.715,0 -11.258,1.84 -16.617,5.523 -5.36,3.715 -8.039,11.293 -8.039,22.727 0,10.832 2.464,18.316 7.394,22.465 4.969,4.144 10.152,6.219 15.547,6.219 6.113,0 11.457,-2.129 16.031,-6.383 4.574,-4.215 6.86,-9.914 6.86,-17.098 z m -34.629,9.222 h 23.48 c -0.18,4.18 -1.359,7.379 -3.539,9.594 -2.18,2.215 -4.914,3.324 -8.203,3.324 -3.324,0 -6.094,-1.109 -8.309,-3.324 -2.179,-2.215 -3.324,-5.414 -3.429,-9.594 z" /><path
         id="path5724"
         style="fill:#ffffff;fill-opacity:1;fill-rule:nonzero;stroke:none"
         d="m 745.352,133.831 v 55.644 h 11.203 v -5.949 h 0.215 c 3.468,4.394 8.292,6.594 14.476,6.594 4.074,0 7.949,-1.43 11.633,-4.289 l -8.098,-9.653 c -2.429,1.824 -4.894,2.735 -7.394,2.735 -2.754,0 -5.254,-0.93 -7.508,-2.786 -2.215,-1.824 -3.324,-4.773 -3.324,-8.847 v -33.449 z" /><path
         id="path5726"
         style="fill:#ffffff;fill-opacity:1;fill-rule:nonzero;stroke:none"
         d="m 796.711,133.831 v 78.105 h 11.203 v -28.41 h 0.215 c 3.469,4.394 8.293,6.594 14.476,6.594 4.325,0 8.489,-1.645 12.489,-4.934 4.039,-3.289 6.058,-8.078 6.058,-14.367 v -36.988 h -11.203 v 33.128 c 0,3.754 -1.054,6.684 -3.164,8.793 -2.074,2.106 -4.664,3.161 -7.773,3.161 -3.215,0 -5.879,-1.055 -7.989,-3.161 -2.07,-2.109 -3.109,-5.039 -3.109,-8.793 v -33.128 z" /><path
         id="path5728"
         style="fill:#ffffff;fill-opacity:1;fill-rule:nonzero;stroke:none"
         d="m 891.871,133.831 v 4.929 h -0.269 c -2.25,-3.715 -6.825,-5.574 -13.723,-5.574 -6.219,0 -11.043,1.609 -14.477,4.824 -3.429,3.254 -5.144,7.309 -5.144,12.172 0,4.395 1.519,8.235 4.558,11.524 3.036,3.289 7.559,4.933 13.563,4.933 h 15.492 v 5.789 c 0,4.754 -3.809,7.129 -11.418,7.129 -5.289,0 -8.812,-1.41 -10.562,-4.234 l -8.793,6.648 c 3.898,5.43 10.152,8.149 18.765,8.149 6.86,0 12.438,-1.34 16.723,-4.024 4.289,-2.679 6.434,-7.449 6.434,-14.312 v -37.953 z m 0,19.511 v 4.075 h -13.402 c -6.469,0 -9.703,-2.235 -9.703,-6.7 0,-1.894 0.804,-3.539 2.41,-4.933 1.644,-1.395 4.363,-2.09 8.148,-2.09 4.649,0 7.899,0.519 9.758,1.555 1.859,1.035 2.789,3.734 2.789,8.093 z" /><path
         id="path5730"
         style="fill:#ffffff;fill-opacity:1;fill-rule:nonzero;stroke:none"
         d="m 920.109,147.284 v 64.652 h 11.207 v -63.738 c 0,-2.574 1.391,-3.86 4.18,-3.86 h 3.805 v -10.507 h -4.93 c -4.074,0 -7.469,0.98 -10.187,2.949 -2.715,2 -4.075,5.504 -4.075,10.504 z" /><path
         id="path5732"
         style="fill:#ffffff;fill-opacity:1;fill-rule:nonzero;stroke:none"
         d="m 954.578,189.475 v 16.887 h 11.203 v -16.887 h 8.149 v -8.578 h -8.149 v -32.379 c 0,-2.789 1.324,-4.18 3.969,-4.18 h 4.18 v -10.507 h -5.844 c -3.895,0 -7.129,1.179 -9.703,3.539 -2.535,2.355 -3.805,5.734 -3.805,10.129 v 33.398 h -5.574 v 8.578 z" /><path
         id="path5734"
         style="fill:#ffffff;fill-opacity:1;fill-rule:nonzero;stroke:none"
         d="m 1031.305,157.417 h -34.629 c 0,-4.575 1.23,-8.004 3.699,-10.293 2.5,-2.286 5.68,-3.43 9.539,-3.43 4.613,0 8.688,1.785 12.223,5.359 l 8.097,-6.914 c -2.754,-3.215 -5.863,-5.523 -9.328,-6.914 -3.429,-1.359 -7.023,-2.039 -10.777,-2.039 -5.715,0 -11.258,1.84 -16.617,5.523 -5.36,3.715 -8.039,11.293 -8.039,22.727 0,10.832 2.465,18.316 7.394,22.465 4.969,4.144 10.153,6.219 15.547,6.219 6.113,0 11.457,-2.129 16.031,-6.383 4.575,-4.215 6.86,-9.914 6.86,-17.098 z m -34.629,9.222 h 23.48 c -0.179,4.18 -1.359,7.379 -3.539,9.594 -2.179,2.215 -4.914,3.324 -8.203,3.324 -3.324,0 -6.094,-1.109 -8.309,-3.324 -2.179,-2.215 -3.324,-5.414 -3.429,-9.594 z" /><path
         id="path5736"
         style="fill:#ffffff;fill-opacity:1;fill-rule:nonzero;stroke:none"
         d="m 1049.285,133.831 v 55.644 h 11.207 v -5.949 h 0.211 c 3.469,4.394 8.293,6.594 14.477,6.594 4.324,0 8.488,-1.645 12.488,-4.934 4.039,-3.289 6.059,-8.078 6.059,-14.367 v -36.988 h -11.204 v 33.128 c 0,3.754 -1.054,6.684 -3.164,8.793 -2.07,2.106 -4.664,3.161 -7.773,3.161 -3.215,0 -5.879,-1.055 -7.984,-3.161 -2.075,-2.109 -3.11,-5.039 -3.11,-8.793 v -33.128 z" /></g></g></svg>