<?xml version="1.0" encoding="UTF-8" standalone="no"?>
<svg
   xmlns:dc="http://purl.org/dc/elements/1.1/"
   xmlns:cc="http://creativecommons.org/ns#"
   xmlns:rdf="http://www.w3.org/1999/02/22-rdf-syntax-ns#"
   xmlns:svg="http://www.w3.org/2000/svg"
   xmlns="http://www.w3.org/2000/svg"
   viewBox="0 0 180.09 180.09"
   height="180.09"
   width="180.09"
   xml:space="preserve"
   version="1.1"
   id="svg3477"><metadata
     id="metadata3483"><rdf:RDF><cc:Work
         rdf:about=""><dc:format>image/svg+xml</dc:format><dc:type
           rdf:resource="http://purl.org/dc/dcmitype/StillImage" /><dc:title></dc:title></cc:Work></rdf:RDF></metadata><defs
     id="defs3481" /><g
     transform="matrix(1.25,0,0,-1.25,0,180.08999)"
     id="g3485"><g
       id="g3487"><path
         id="path3489"
         style="fill:#000000;fill-opacity:1;fill-rule:evenodd;stroke:none"
         d="m 0,0.506 0,143.566 143.566,0 0,-143.566 L 0,0.506 Z" /><path
         id="path3491"
         style="fill:#ffffff;fill-opacity:1;fill-rule:evenodd;stroke:none"
         d="m 3.602,4.103 0,136.367 136.367,0 0,-136.367 -136.367,0 z" /><path
         id="path3493"
         style="fill:#000000;fill-opacity:1;fill-rule:evenodd;stroke:none"
         d="m 62.352,8.424 0,83.953 -24.766,0 0,19.007 24.766,0 0,24.766 18.863,0 0,-24.766 24.769,0 0,-19.007 -24.769,0 0,-83.953 -18.863,0 z" /><path
         id="path3495"
         style="fill:#000000;fill-opacity:1;fill-rule:evenodd;stroke:none"
         d="m 30.098,8.424 0,43.199 -11.524,0 0,13.25 11.524,0 0,12.527 13.824,0 0,-12.527 11.519,0 0,-13.25 -11.519,0 0,-43.199 -13.824,0 z" /><path
         id="path3497"
         style="fill:#000000;fill-opacity:1;fill-rule:evenodd;stroke:none"
         d="m 99.648,8.424 0,43.199 -11.519,0 0,13.25 11.519,0 0,12.527 13.825,0 0,-12.527 11.519,0 0,-13.25 -11.519,0 0,-43.199 -13.825,0 z" /></g></g></svg>