<?xml version="1.0" standalone="no"?>
<!DOCTYPE svg PUBLIC "-//W3C//DTD SVG 1.1//EN" "http://www.w3.org/Graphics/SVG/1.1/DTD/svg11.dtd">
<!--
   ***************************************************************************
   Bundesanstalt fuer Strassenwesen
   StVO Symbol
   Bezeichnung:
   Lastkraftwagen mit Anhaenger
   Eingefuehrt durch:
   Katalog der Verkehrszeichen - VzKat 1992 -
   Ausdehnung in cm:
         X_min     X_max     Y_min     Y_max
         1.50000  21.00000   4.50000  10.00000
-->
<svg width="195" height="55" version="1.1" xmlns="http://www.w3.org/2000/svg">
<!--
   ***************************************************************************
-->
<path fill="black" fill-rule="evenodd" stroke="none" d="M30 8.75L8.33625447513556 10.1039685418851A2.5 2.5 0 0 0 6.15137712931649 11.7212912007248L0.636708517265947 26.4270648028991A10 10 0 0 0 0 29.9383L0 43.75A2.5 2.5 0 0 0 2.5 46.25L3.75 46.25A11.25 11.25 0 0 1 20.625 36.5072142074251A11.25 11.25 0 0 1 26.25 46.25L71.25 46.25A11.25 11.25 0 0 1 75.4289323819287 37.4999998433907L30 37.5L30 8.75Z
  M21.25 25.625L21.25 13.125L8.61812723756779 13.9144342709425A1.25 1.25 0 0 0 7.52568856465825 14.7230956003624L3.33538856465824 25.8973956003624A1.25 1.25 0 0 0 4.65185162862617 27.5777382472663L21.25 25.625Z
  M23.75 46.25A8.75 8.75 0 0 0 10.625 38.6722777168862A8.75 8.75 0 0 0 10.625 53.8277222831138A8.75 8.75 0 0 0 23.75 46.25M91.25 46.25A8.75 8.75 0 0 0 78.125 38.6722777168862A8.75 8.75 0 0 0 78.125 53.8277222831138A8.75 8.75 0 0 0 91.25 46.25Z
  M100 46.25L107.5 43.75L107.5 37.5L89.5710676180713 37.4999998433907A11.25 11.25 0 0 1 93.75 46.25L100 46.25Z
  M107.5 35L107.5 0L35 0L35 35L107.5 35Z
  M112.5 43.75L121.531294585272 43.7499996950177A11.25 11.25 0 0 1 125.428932381929 37.4999998433907L112.5 37.5L112.5 43.75Z
  M143.4687 43.75L164.031294585272 43.7499996950177A11.25 11.25 0 0 1 167.928932381929 37.4999998433907L139.571067618071 37.4999998433907A11.25 11.25 0 0 1 143.468705414728 43.7499996950177Z
  M195 43.75L195 37.5L182.071067618071 37.4999998433907A11.25 11.25 0 0 1 185.968705414728 43.7499996950177L195 43.75Z
  M141.25 46.25A8.75 8.75 0 0 0 128.125 38.6722777168862A8.75 8.75 0 0 0 128.125 53.8277222831138A8.75 8.75 0 0 0 141.25 46.25M183.75 46.25A8.75 8.75 0 0 0 170.625 38.6722777168862A8.75 8.75 0 0 0 170.625 53.8277222831138A8.75 8.75 0 0 0 183.75 46.25Z
  M195 35L195 0L117.5 0L117.5 35L195 35Z" />
<!--
      Symbol LKW mit Anhaenger
      _LKW
      _Fuehrerhaus
      _Fenster
      _Raeder
      _Fahrgestell hinten
      _Aufbau
      _Anhaenger
      _Fahrgestell
      _Raeder
      _Aufbau
-->
</svg>
