<?xml version="1.0" standalone="no"?>
<!DOCTYPE svg PUBLIC "-//W3C//DTD SVG 1.1//EN" "http://www.w3.org/Graphics/SVG/1.1/DTD/svg11.dtd">
<!--
   ***************************************************************************
   Bundesanstalt fuer Strassenwesen
   RWBA-Symbol
   Bezeichnung:
   Lastkraftwagen
   Ausdehnung in cm:
         X_min     X_max     Y_min     Y_max
         0.00000  15.00000   0.00000  15.00000
-->
<svg width="150" height="150" version="1.1" xmlns="http://www.w3.org/2000/svg">
<!--
   ***************************************************************************
-->
<path fill="white" fill-rule="evenodd" stroke="black" stroke-width="0.25" d="M150 150L150 0L0 0L0 150L150 150Z" />
<!--
      * SYMBOL LKW *
-->
<path fill="black" fill-rule="evenodd" stroke="none" d="M100 58.75L121.663745089382 60.1039685146675A2.5 2.5 0 0 1 123.848622870684 61.7212912007248L129.363291482734 76.4271648028991A10 10 0 0 1 130 79.9384L130 93.75A2.5 2.5 0 0 1 127.5 96.25L126.25 96.25A11.25 11.25 0 0 0 109.375 86.5072142074251A11.25 11.25 0 0 0 103.75 96.25L58.75 96.25A11.25 11.25 0 0 0 54.5710676180713 87.4999998433907L100 87.5L100 58.75Z
  M108.75 75.625L108.75 63.125L121.381872544691 63.9145342573337A1.25 1.25 0 0 1 122.474311435342 64.7231956003624L126.664611435342 75.8973956003624A1.25 1.25 0 0 1 125.348145771312 77.5777379413738L108.75 75.625Z
  M106.25 96.25A8.75 8.75 0 0 1 119.375 88.6722777168862A8.75 8.75 0 0 1 119.375 103.827722283114A8.75 8.75 0 0 1 106.25 96.25M38.75 96.25A8.75 8.75 0 0 1 51.875 88.6722777168862A8.75 8.75 0 0 1 51.875 103.827722283114A8.75 8.75 0 0 1 38.75 96.25Z
  M30 96.25L22.5 93.75L22.5 87.5L40.4289323819287 87.4999998433907A11.25 11.25 0 0 0 36.25 96.25L30 96.25Z
  M22.5 85L22.5 50L95 50L95 85L22.5 85Z" />
<!--
       * FAHRERHAUS *
       * FENSTER *
       * RAEDER *
       * FAHRGESTELL HECK *
       * AUFBAU *
-->
</svg>
