<?xml version="1.0" encoding="UTF-8" standalone="no"?>
<svg
   xmlns:dc="http://purl.org/dc/elements/1.1/"
   xmlns:cc="http://creativecommons.org/ns#"
   xmlns:rdf="http://www.w3.org/1999/02/22-rdf-syntax-ns#"
   xmlns:svg="http://www.w3.org/2000/svg"
   xmlns="http://www.w3.org/2000/svg"
   viewBox="0 0 830.88531 1920.3575"
   height="1920.3575"
   width="830.88531"
   xml:space="preserve"
   id="svg30828"
   version="1.1"><metadata
     id="metadata30834"><rdf:RDF><cc:Work
         rdf:about=""><dc:format>image/svg+xml</dc:format><dc:type
           rdf:resource="http://purl.org/dc/dcmitype/StillImage" /><dc:title></dc:title></cc:Work></rdf:RDF></metadata><defs
     id="defs30832" /><g
     transform="matrix(1.3333333,0,0,-1.3333333,0,1920.3576)"
     id="g30836"><g
       id="g30838"><g
         transform="matrix(1,0,0,-0.999966,0,1440.2682)"
         id="g30840"><path
           id="path30842"
           style="fill:#ffffff;fill-opacity:1;fill-rule:nonzero;stroke:#000000;stroke-width:0.75001299;stroke-linecap:butt;stroke-linejoin:miter;stroke-miterlimit:4;stroke-dasharray:none;stroke-opacity:1"
           d="m 190.605,0.375 c -24.757,0 -42.343,15.047 -42.492,42.494 -0.086,83.561 -0.035,116.527 -0.019,189.83 -0.102,94.273 0.019,167.377 0.019,251.536 0.149,27.45 17.735,42.494 42.492,42.478 0.063,0 0.114,0 0.184,-0.015 80.746,0 161.531,0.015 242.281,0 0.067,0.015 0.137,0.015 0.2,0.015 24.753,0.016 42.324,-15.028 42.476,-42.478 0.234,-146.669 -0.047,-325.304 0,-441.366 C 475.594,15.422 458.023,0.375 433.27,0.375 c -0.063,0 -0.133,0.016 -0.2,0.016 -80.75,-0.016 -161.535,0 -242.281,0 -0.07,0 -0.121,-0.016 -0.184,-0.016 z" /></g><path
         id="path30844"
         style="fill:#000000;fill-opacity:1;fill-rule:nonzero;stroke:none"
         d="m 207.004,1402.124 c -11.481,0.015 -20.785,-9.309 -20.785,-20.789 0,-0.215 0,-0.434 0.015,-0.653 h -0.035 V 971.944 h 0.035 v -0.102 c -0.015,-11.476 9.289,-20.781 20.77,-20.781 h 206.219 c 11.48,0 20.8,9.305 20.8,20.781 -0.015,0.219 -0.015,0.438 -0.035,0.672 h 0.035 v 408.723 h -0.035 l 0.02,0.098 c 0,11.48 -9.305,20.789 -20.785,20.789 z" /><g
         transform="matrix(1,0,0,-0.999966,0,1440.2682)"
         id="g30846"><path
           id="path30848"
           style="fill:none;stroke:#000000;stroke-width:0.59256202;stroke-linecap:butt;stroke-linejoin:miter;stroke-miterlimit:4;stroke-dasharray:none;stroke-opacity:1"
           d="m 371.734,162.209 c 0,33.958 -27.531,61.486 -61.488,61.486 -33.953,0 -61.504,-27.528 -61.504,-61.486 0,-33.955 27.551,-61.487 61.504,-61.487 33.957,0 61.488,27.532 61.488,61.487 z" /></g><g
         transform="matrix(1,0,0,-0.999966,0,1440.2682)"
         id="g30850"><path
           id="path30852"
           style="fill:#ff0000;fill-opacity:1;fill-rule:nonzero;stroke:#808080;stroke-width:0.31108999;stroke-linecap:butt;stroke-linejoin:miter;stroke-miterlimit:4;stroke-dasharray:none;stroke-opacity:1"
           d="m 385.324,162.209 c 0,41.47 -33.605,75.076 -75.078,75.076 -41.469,0 -75.074,-33.606 -75.074,-75.076 0,-41.471 33.605,-75.077 75.074,-75.077 41.473,0 75.078,33.606 75.078,75.077 z" /></g><g
         transform="matrix(1,0,0,-0.999966,0,1440.2682)"
         id="g30854"><path
           id="path30856"
           style="fill:none;stroke:#808080;stroke-width:0.388863;stroke-linecap:butt;stroke-linejoin:miter;stroke-miterlimit:4;stroke-dasharray:none;stroke-opacity:1"
           d="m 371.734,162.209 c 0,33.958 -27.531,61.486 -61.488,61.486 -33.953,0 -61.504,-27.528 -61.504,-61.486" /></g><g
         transform="matrix(1,0,0,-0.999966,0,1440.2682)"
         id="g30858"><path
           id="path30860"
           style="fill:none;stroke:#808080;stroke-width:1.60240698;stroke-linecap:butt;stroke-linejoin:miter;stroke-miterlimit:4;stroke-dasharray:none;stroke-opacity:1"
           d="m 226.031,181.17 0.086,-18.961 c 0,-46.475 37.656,-84.128 84.129,-84.128 46.457,0 84.129,37.653 84.129,84.128 l -0.016,18.961" /></g><g
         transform="matrix(1,0,0,-0.999966,0,1440.2682)"
         id="g30862"><path
           id="path30864"
           style="fill:none;stroke:#808080;stroke-width:0.32369399;stroke-linecap:butt;stroke-linejoin:miter;stroke-miterlimit:4;stroke-dasharray:none;stroke-opacity:1"
           d="m 364.102,162.209 c 0,29.739 -24.114,53.857 -53.856,53.857 -29.738,0 -53.855,-24.118 -53.855,-53.857" /></g><g
         transform="matrix(1,0,0,-0.999966,0,1440.2682)"
         id="g30866"><path
           id="path30868"
           style="fill:none;stroke:#808080;stroke-width:0.32369399;stroke-linecap:butt;stroke-linejoin:miter;stroke-miterlimit:4;stroke-dasharray:none;stroke-opacity:1"
           d="m 356.809,167.701 c 0,23.68 -22.879,42.873 -46.563,42.873 -23.68,0 -47.394,-19.193 -47.394,-42.873" /></g><g
         transform="matrix(1,0,0,-0.999966,0,1440.2682)"
         id="g30870"><path
           id="path30872"
           style="fill:none;stroke:#808080;stroke-width:0.32351801;stroke-linecap:butt;stroke-linejoin:miter;stroke-miterlimit:4;stroke-dasharray:none;stroke-opacity:1"
           d="m 349.109,172.9 c 0,17.927 -21.039,32.474 -38.964,32.474 -17.926,0 -39.559,-14.547 -39.559,-32.474" /></g><g
         transform="matrix(1,0,0,-0.999966,0,1440.2682)"
         id="g30874"><path
           id="path30876"
           style="fill:none;stroke:#808080;stroke-width:0.32351801;stroke-linecap:butt;stroke-linejoin:miter;stroke-miterlimit:4;stroke-dasharray:none;stroke-opacity:1"
           d="m 341.523,177.553 c 0,12.789 -18.691,23.149 -31.476,23.149 -12.77,0 -31.883,-10.36 -31.883,-23.149" /></g><g
         transform="matrix(1,0,0,-0.999966,0,1440.2682)"
         id="g30878"><path
           id="path30880"
           style="fill:none;stroke:#808080;stroke-width:0.32353401;stroke-linecap:butt;stroke-linejoin:miter;stroke-miterlimit:4;stroke-dasharray:none;stroke-opacity:1"
           d="m 333.945,179.834 c 0,8.235 -15.715,14.911 -23.965,14.911 -8.234,0 -24.25,-6.676 -24.25,-14.911" /></g><g
         transform="matrix(1,0,0,-0.999966,0,1440.2682)"
         id="g30882"><path
           id="path30884"
           style="fill:none;stroke:#000000;stroke-width:0.59256202;stroke-linecap:butt;stroke-linejoin:miter;stroke-miterlimit:4;stroke-dasharray:none;stroke-opacity:1"
           d="m 371.734,376.239 c 0,33.958 -27.531,61.491 -61.488,61.491 -33.953,0 -61.504,-27.533 -61.504,-61.491 0,-33.95 27.551,-61.482 61.504,-61.482 33.957,0 61.488,27.532 61.488,61.482 z" /></g><g
         transform="matrix(1,0,0,-0.999966,0,1440.2682)"
         id="g30886"><path
           id="path30888"
           style="fill:#ffe82a;fill-opacity:1;fill-rule:nonzero;stroke:#808080;stroke-width:0.31108999;stroke-linecap:butt;stroke-linejoin:miter;stroke-miterlimit:4;stroke-dasharray:none;stroke-opacity:1"
           d="m 385.324,376.239 c 0,41.474 -33.605,75.081 -75.078,75.081 -41.469,0 -75.074,-33.607 -75.074,-75.081 0,-41.466 33.605,-75.073 75.074,-75.073 41.473,0 75.078,33.607 75.078,75.073 z" /></g><g
         transform="matrix(1,0,0,-0.999966,0,1440.2682)"
         id="g30890"><path
           id="path30892"
           style="fill:none;stroke:#808080;stroke-width:0.388863;stroke-linecap:butt;stroke-linejoin:miter;stroke-miterlimit:4;stroke-dasharray:none;stroke-opacity:1"
           d="m 371.734,376.239 c 0,33.958 -27.531,61.491 -61.488,61.491 -33.953,0 -61.504,-27.533 -61.504,-61.491" /></g><g
         transform="matrix(1,0,0,-0.999966,0,1440.2682)"
         id="g30894"><path
           id="path30896"
           style="fill:none;stroke:#808080;stroke-width:1.60240698;stroke-linecap:butt;stroke-linejoin:miter;stroke-miterlimit:4;stroke-dasharray:none;stroke-opacity:1"
           d="m 226.031,395.205 0.086,-18.966 c 0,-46.47 37.656,-84.124 84.129,-84.124 46.457,0 84.129,37.654 84.129,84.124 l -0.016,18.966" /></g><g
         transform="matrix(1,0,0,-0.999966,0,1440.2682)"
         id="g30898"><path
           id="path30900"
           style="fill:none;stroke:#808080;stroke-width:0.32369399;stroke-linecap:butt;stroke-linejoin:miter;stroke-miterlimit:4;stroke-dasharray:none;stroke-opacity:1"
           d="m 364.102,376.239 c 0,29.743 -24.114,53.861 -53.856,53.861 -29.738,0 -53.855,-24.118 -53.855,-53.861" /></g><g
         transform="matrix(1,0,0,-0.999966,0,1440.2682)"
         id="g30902"><path
           id="path30904"
           style="fill:none;stroke:#808080;stroke-width:0.32369399;stroke-linecap:butt;stroke-linejoin:miter;stroke-miterlimit:4;stroke-dasharray:none;stroke-opacity:1"
           d="m 356.809,381.736 c 0,23.676 -22.879,42.872 -46.563,42.872 -23.68,0 -47.394,-19.196 -47.394,-42.872" /></g><g
         transform="matrix(1,0,0,-0.999966,0,1440.2682)"
         id="g30906"><path
           id="path30908"
           style="fill:none;stroke:#808080;stroke-width:0.32351801;stroke-linecap:butt;stroke-linejoin:miter;stroke-miterlimit:4;stroke-dasharray:none;stroke-opacity:1"
           d="m 349.109,386.935 c 0,17.942 -21.039,32.47 -38.964,32.47 -17.926,0 -39.559,-14.528 -39.559,-32.47" /></g><g
         transform="matrix(1,0,0,-0.999966,0,1440.2682)"
         id="g30910"><path
           id="path30912"
           style="fill:none;stroke:#808080;stroke-width:0.32351801;stroke-linecap:butt;stroke-linejoin:miter;stroke-miterlimit:4;stroke-dasharray:none;stroke-opacity:1"
           d="m 341.523,391.587 c 0,12.79 -18.691,23.15 -31.476,23.15 -12.77,0 -31.883,-10.36 -31.883,-23.15" /></g><g
         transform="matrix(1,0,0,-0.999966,0,1440.2682)"
         id="g30914"><path
           id="path30916"
           style="fill:none;stroke:#808080;stroke-width:0.32353401;stroke-linecap:butt;stroke-linejoin:miter;stroke-miterlimit:4;stroke-dasharray:none;stroke-opacity:1"
           d="m 333.945,393.869 c 0,8.246 -15.715,14.926 -23.965,14.926 -8.234,0 -24.25,-6.68 -24.25,-14.926" /></g><path
         id="path30918"
         style="fill:#000000;fill-opacity:1;fill-rule:evenodd;stroke:none"
         d="m 228.383,751.147 -116.914,-67.5 122.152,-211.57 -122.078,-211.453 116.914,-67.5 83.109,143.953 82.508,-142.91 116.91,67.5 -121.476,210.41 121.551,210.527 -116.914,67.5 -82.579,-143.027 z" /><path
         id="path30920"
         style="fill:#ffffff;fill-opacity:1;fill-rule:evenodd;stroke:none"
         d="M 225.172,754.69 110.133,688.272 234.918,472.131 107.91,252.147 l 115.039,-66.422 88.664,153.574 88.071,-152.543 115.039,66.415 -126.414,218.96 125.722,217.774 -115.039,66.41 -87.379,-151.344 z" /><path
         id="path30922"
         style="fill:#c1121c;fill-opacity:1;fill-rule:evenodd;stroke:none"
         d="M 506.172,-0.001 623.09,67.499 510.59,262.354 393.824,194.596 Z" /><path
         id="path30924"
         style="fill:#c1121c;fill-opacity:1;fill-rule:evenodd;stroke:none"
         d="M 229.414,194.784 112.5,262.284 0,67.424 117.062,0.182 Z" /><path
         id="path30926"
         style="fill:#c1121c;fill-opacity:1;fill-rule:evenodd;stroke:none"
         d="M 112.434,682.745 228.684,749.858 116.828,943.6 0.73,876.233 Z" /><path
         id="path30928"
         style="fill:#c1121c;fill-opacity:1;fill-rule:evenodd;stroke:none"
         d="M 623.164,876.772 506.25,944.272 393.75,749.421 510.812,682.178 Z" /></g></g></svg>