<?xml version="1.0" encoding="UTF-8" standalone="no"?>
<svg
   xmlns:dc="http://purl.org/dc/elements/1.1/"
   xmlns:cc="http://creativecommons.org/ns#"
   xmlns:rdf="http://www.w3.org/1999/02/22-rdf-syntax-ns#"
   xmlns:svg="http://www.w3.org/2000/svg"
   xmlns="http://www.w3.org/2000/svg"
   viewBox="0 0 1159.344 649.53052"
   height="649.53052"
   width="1159.344"
   xml:space="preserve"
   id="svg34459"
   version="1.1"><metadata
     id="metadata34465"><rdf:RDF><cc:Work
         rdf:about=""><dc:format>image/svg+xml</dc:format><dc:type
           rdf:resource="http://purl.org/dc/dcmitype/StillImage" /><dc:title></dc:title></cc:Work></rdf:RDF></metadata><defs
     id="defs34463" /><g
     transform="matrix(1.3333333,0,0,-1.3333333,0,649.53052)"
     id="g34467"><g
       id="g34469"><path
         id="path34471"
         style="fill:#ffffff;fill-opacity:1;fill-rule:evenodd;stroke:none"
         d="M 15.965,171.855 H 517.293 V 148.652 H 15.965 Z" /><path
         id="path34473"
         style="fill:#c1121c;fill-opacity:1;fill-rule:evenodd;stroke:none"
         d="M 16.27,171.855 H 51.524 V 148.652 H 16.27 Z" /><path
         id="path34475"
         style="fill:#c1121c;fill-opacity:1;fill-rule:evenodd;stroke:none"
         d="m 86.762,171.855 h 35.254 V 148.652 H 86.762 Z" /><path
         id="path34477"
         style="fill:#c1121c;fill-opacity:1;fill-rule:evenodd;stroke:none"
         d="m 157.27,171.855 h 35.25 v -23.203 h -35.25 z" /><path
         id="path34479"
         style="fill:#c1121c;fill-opacity:1;fill-rule:evenodd;stroke:none"
         d="m 227.82,171.855 h 35.254 V 148.652 H 227.82 Z" /><path
         id="path34481"
         style="fill:#c1121c;fill-opacity:1;fill-rule:evenodd;stroke:none"
         d="m 298.328,171.855 h 35.254 v -23.203 h -35.254 z" /><path
         id="path34483"
         style="fill:#c1121c;fill-opacity:1;fill-rule:evenodd;stroke:none"
         d="m 368.828,171.855 h 35.258 v -23.203 h -35.258 z" /><path
         id="path34485"
         style="fill:#c1121c;fill-opacity:1;fill-rule:evenodd;stroke:none"
         d="M 439.336,171.855 H 474.59 V 148.652 H 439.336 Z" /><path
         id="path34487"
         style="fill:#c1121c;fill-opacity:1;fill-rule:evenodd;stroke:none"
         d="m 509.887,171.855 h 35.254 v -23.203 h -35.254 z" /><g
         transform="translate(0,487.14789)"
         id="g34489"><path
           id="path34491"
           style="fill:none;stroke:#000000;stroke-width:0.75;stroke-linecap:butt;stroke-linejoin:miter;stroke-miterlimit:4;stroke-dasharray:none;stroke-opacity:1"
           d="m 16.262,-315.266 h 552.656 v -23.395 H 16.262 Z" /></g><g
         transform="translate(0,487.14789)"
         id="g34493"><path
           id="path34495"
           style="fill:#999999;fill-opacity:1;fill-rule:nonzero;stroke:#000000;stroke-width:0.75;stroke-linecap:butt;stroke-linejoin:miter;stroke-miterlimit:4;stroke-dasharray:none;stroke-opacity:1"
           d="m 545.711,-302.562 -0.457,-0.016 v -47.988 l 128.652,0.007 v 47.997 z" /></g><g
         transform="translate(0,487.14789)"
         id="g34497"><path
           id="path34499"
           style="fill:#999999;fill-opacity:1;fill-rule:nonzero;stroke:#000000;stroke-width:0.75;stroke-linecap:butt;stroke-linejoin:miter;stroke-miterlimit:4;stroke-dasharray:none;stroke-opacity:1"
           d="m 857.617,-299.148 -0.363,-0.012 v 0.015 H 726.93 v -55.007 h 130.324 v 0.011 l 0.363,-0.011 z" /></g><g
         transform="translate(0,487.14789)"
         id="g34501"><path
           id="path34503"
           style="fill:#999999;fill-opacity:1;fill-rule:nonzero;stroke:#000000;stroke-width:0.75;stroke-linecap:butt;stroke-linejoin:miter;stroke-miterlimit:4;stroke-dasharray:none;stroke-opacity:1"
           d="m 653.641,-282.641 h 99.723 v -189.277 h -99.723 z" /></g><g
         transform="translate(0,487.14789)"
         id="g34505"><path
           id="path34507"
           style="fill:#999999;fill-opacity:1;fill-rule:nonzero;stroke:#000000;stroke-width:0.75;stroke-linecap:butt;stroke-linejoin:miter;stroke-miterlimit:4;stroke-dasharray:none;stroke-opacity:1"
           d="M 649.594,-471.719 H 757 v -11.93 H 649.594 Z" /></g><path
         id="path34509"
         style="fill:#ffffff;fill-opacity:1;fill-rule:nonzero;stroke:none"
         d="m 694.5,385.011 h 17.332 V 3.234 H 694.5 Z" /><g
         transform="translate(0,487.14789)"
         id="g34511"><path
           id="path34513"
           style="fill:#758080;fill-opacity:1;fill-rule:nonzero;stroke:#000000;stroke-width:0.46875;stroke-linecap:butt;stroke-linejoin:miter;stroke-miterlimit:4;stroke-dasharray:none;stroke-opacity:1"
           d="m 694.5,-102.137 h 17.332 V -483.914 H 694.5 Z" /></g><g
         transform="translate(0,487.14789)"
         id="g34515"><path
           id="path34517"
           style="fill:none;stroke:#ffffff;stroke-width:0.9375;stroke-linecap:butt;stroke-linejoin:miter;stroke-miterlimit:4;stroke-dasharray:none;stroke-opacity:1"
           d="m 659.898,-170.348 26.325,-45.847 -26.2,-45.629 24.938,-14.922 18.383,30.93 18.176,-30.954 25.128,14.618 -26.699,45.992 26.758,46.222 -25.152,14.516 -18.239,-31.539 -18.125,31.113 z" /></g><g
         transform="translate(0,487.14789)"
         id="g34519"><path
           id="path34521"
           style="fill:#ffffff;fill-opacity:1;fill-rule:nonzero;stroke:#000000;stroke-width:0.75;stroke-linecap:butt;stroke-linejoin:miter;stroke-miterlimit:4;stroke-dasharray:none;stroke-opacity:1"
           d="m 659.898,-170.348 26.325,-45.847 -26.2,-45.629 24.938,-14.922 18.383,30.93 18.176,-30.954 25.128,14.618 -26.699,45.992 26.758,46.222 -25.152,14.516 -18.239,-31.539 -18.125,31.113 z" /></g><path
         id="path34523"
         style="fill:#c1121c;fill-opacity:1;fill-rule:evenodd;stroke:none"
         d="m 659.902,316.296 25.809,14.664 -24.75,42.918 -25.695,-14.906 z" /><path
         id="path34525"
         style="fill:#c1121c;fill-opacity:1;fill-rule:evenodd;stroke:none"
         d="m 745.508,168.156 25.808,14.664 -24.746,42.918 -25.699,-14.907 z" /><path
         id="path34527"
         style="fill:#c1121c;fill-opacity:1;fill-rule:evenodd;stroke:none"
         d="m 660.93,168.156 -25.813,14.664 24.75,42.918 25.695,-14.907 z" /><path
         id="path34529"
         style="fill:#c1121c;fill-opacity:1;fill-rule:evenodd;stroke:none"
         d="m 746.473,316.21 -25.809,14.664 24.75,42.922 25.695,-14.906 z" /><g
         transform="translate(0,487.14789)"
         id="g34531"><path
           id="path34533"
           style="fill:none;stroke:#000000;stroke-width:0.75136501;stroke-linecap:butt;stroke-linejoin:miter;stroke-miterlimit:4;stroke-dasharray:none;stroke-opacity:1"
           d="M 869.508,-483.711 0,-483.688" /></g><g
         transform="translate(0,487.14789)"
         id="g34535"><path
           id="path34537"
           style="fill:#ffffff;fill-opacity:1;fill-rule:nonzero;stroke:#000000;stroke-width:0.75;stroke-linecap:butt;stroke-linejoin:miter;stroke-miterlimit:4;stroke-dasharray:none;stroke-opacity:1"
           d="m 676.617,-4.574 c -5.418,0 -9.265,-3.293 -9.301,-9.297 -0.019,-18.285 -0.007,-25.5 -0.004,-41.539 -0.023,-20.629 0.004,-36.625 0.004,-55.043 0.036,-6.004 3.883,-9.297 9.301,-9.293 0.012,0 0.024,0 0.039,0.004 17.668,0 35.348,-0.004 53.016,0 0.016,-0.004 0.031,-0.004 0.043,-0.004 5.418,-0.004 9.262,3.289 9.293,9.293 0.054,32.094 -0.008,71.183 0,96.582 -0.031,6.004 -3.875,9.297 -9.293,9.297 -0.012,0 -0.027,-0.004 -0.043,-0.004 -17.668,0.004 -35.344,0 -53.016,0 -0.011,0 -0.027,0.004 -0.039,0.004 z" /></g><path
         id="path34539"
         style="fill:#000000;fill-opacity:1;fill-rule:nonzero;stroke:none"
         d="m 680.203,474.308 c -2.512,0.004 -4.547,-2.035 -4.547,-4.547 0,-0.047 0,-0.097 0.004,-0.144 h -0.008 v -89.442 h 0.008 v -0.023 c 0,-2.512 2.035,-4.547 4.547,-4.547 h 45.121 c 2.516,0 4.551,2.035 4.551,4.547 0,0.047 -0.004,0.094 -0.008,0.148 h 0.012 v 89.438 h -0.012 l 0.004,0.023 c 0,2.512 -2.035,4.547 -4.547,4.547 z" /><g
         transform="translate(0,487.14789)"
         id="g34541"><path
           id="path34543"
           style="fill:none;stroke:#000000;stroke-width:0.59255201;stroke-linecap:butt;stroke-linejoin:miter;stroke-miterlimit:4;stroke-dasharray:none;stroke-opacity:1"
           d="m 716.254,-39.988 c 0,-7.43 -6.027,-13.453 -13.457,-13.453 -7.43,0 -13.461,6.023 -13.461,13.453 0,7.433 6.031,13.457 13.461,13.457 7.43,0 13.457,-6.024 13.457,-13.457 z" /></g><g
         transform="translate(0,487.14789)"
         id="g34545"><path
           id="path34547"
           style="fill:#ff0000;fill-opacity:1;fill-rule:nonzero;stroke:#808080;stroke-width:0.31108499;stroke-linecap:butt;stroke-linejoin:miter;stroke-miterlimit:4;stroke-dasharray:none;stroke-opacity:1"
           d="m 719.227,-39.988 c 0,-9.074 -7.356,-16.426 -16.43,-16.426 -9.074,0 -16.43,7.352 -16.43,16.426 0,9.078 7.356,16.429 16.43,16.429 9.074,0 16.43,-7.351 16.43,-16.429 z" /></g><g
         transform="translate(0,487.14789)"
         id="g34549"><path
           id="path34551"
           style="fill:none;stroke:#808080;stroke-width:0.38885599;stroke-linecap:butt;stroke-linejoin:miter;stroke-miterlimit:4;stroke-dasharray:none;stroke-opacity:1"
           d="m 716.254,-39.988 c 0,-7.43 -6.027,-13.453 -13.457,-13.453 -7.43,0 -13.461,6.023 -13.461,13.453" /></g><g
         transform="translate(0,487.14789)"
         id="g34553"><path
           id="path34555"
           style="fill:none;stroke:#808080;stroke-width:1.60238004;stroke-linecap:butt;stroke-linejoin:miter;stroke-miterlimit:4;stroke-dasharray:none;stroke-opacity:1"
           d="m 684.367,-44.137 0.02,4.149 c 0,10.172 8.238,18.41 18.41,18.41 10.164,0 18.406,-8.238 18.406,-18.41 l -0.004,-4.149" /></g><g
         transform="translate(0,487.14789)"
         id="g34557"><path
           id="path34559"
           style="fill:none;stroke:#808080;stroke-width:0.32368901;stroke-linecap:butt;stroke-linejoin:miter;stroke-miterlimit:4;stroke-dasharray:none;stroke-opacity:1"
           d="m 714.582,-39.988 c 0,-6.504 -5.277,-11.782 -11.785,-11.782 -6.508,0 -11.785,5.278 -11.785,11.782" /></g><g
         transform="translate(0,487.14789)"
         id="g34561"><path
           id="path34563"
           style="fill:none;stroke:#808080;stroke-width:0.32368901;stroke-linecap:butt;stroke-linejoin:miter;stroke-miterlimit:4;stroke-dasharray:none;stroke-opacity:1"
           d="m 712.984,-41.188 c 0,-5.183 -5.007,-9.382 -10.187,-9.382 -5.184,0 -10.367,4.199 -10.367,9.382" /></g><g
         transform="translate(0,487.14789)"
         id="g34565"><path
           id="path34567"
           style="fill:none;stroke:#808080;stroke-width:0.32351199;stroke-linecap:butt;stroke-linejoin:miter;stroke-miterlimit:4;stroke-dasharray:none;stroke-opacity:1"
           d="m 711.301,-42.328 c 0,-3.922 -4.606,-7.102 -8.528,-7.102 -3.921,0 -8.656,3.18 -8.656,7.102" /></g><g
         transform="translate(0,487.14789)"
         id="g34569"><path
           id="path34571"
           style="fill:none;stroke:#808080;stroke-width:0.32351199;stroke-linecap:butt;stroke-linejoin:miter;stroke-miterlimit:4;stroke-dasharray:none;stroke-opacity:1"
           d="m 709.641,-43.344 c 0,-2.797 -4.086,-5.066 -6.887,-5.066 -2.793,0 -6.981,2.269 -6.981,5.066" /></g><g
         transform="translate(0,487.14789)"
         id="g34573"><path
           id="path34575"
           style="fill:none;stroke:#808080;stroke-width:0.32352799;stroke-linecap:butt;stroke-linejoin:miter;stroke-miterlimit:4;stroke-dasharray:none;stroke-opacity:1"
           d="m 707.98,-43.844 c 0,-1.801 -3.437,-3.261 -5.242,-3.261 -1.804,0 -5.308,1.46 -5.308,3.261" /></g><g
         transform="translate(0,487.14789)"
         id="g34577"><path
           id="path34579"
           style="fill:none;stroke:#000000;stroke-width:0.59255201;stroke-linecap:butt;stroke-linejoin:miter;stroke-miterlimit:4;stroke-dasharray:none;stroke-opacity:1"
           d="m 716.254,-86.82 c 0,-7.43 -6.027,-13.457 -13.457,-13.457 -7.43,0 -13.461,6.027 -13.461,13.457 0,7.429 6.031,13.453 13.461,13.453 7.43,0 13.457,-6.024 13.457,-13.453 z" /></g><g
         transform="translate(0,487.14789)"
         id="g34581"><path
           id="path34583"
           style="fill:#ffe82a;fill-opacity:1;fill-rule:nonzero;stroke:#808080;stroke-width:0.31108499;stroke-linecap:butt;stroke-linejoin:miter;stroke-miterlimit:4;stroke-dasharray:none;stroke-opacity:1"
           d="m 719.227,-86.82 c 0,-9.075 -7.356,-16.43 -16.43,-16.43 -9.074,0 -16.43,7.355 -16.43,16.43 0,9.074 7.356,16.425 16.43,16.425 9.074,0 16.43,-7.351 16.43,-16.425 z" /></g><g
         transform="translate(0,487.14789)"
         id="g34585"><path
           id="path34587"
           style="fill:none;stroke:#808080;stroke-width:0.38885599;stroke-linecap:butt;stroke-linejoin:miter;stroke-miterlimit:4;stroke-dasharray:none;stroke-opacity:1"
           d="m 716.254,-86.82 c 0,-7.43 -6.027,-13.457 -13.457,-13.457 -7.43,0 -13.461,6.027 -13.461,13.457" /></g><g
         transform="translate(0,487.14789)"
         id="g34589"><path
           id="path34591"
           style="fill:none;stroke:#808080;stroke-width:1.60238004;stroke-linecap:butt;stroke-linejoin:miter;stroke-miterlimit:4;stroke-dasharray:none;stroke-opacity:1"
           d="m 684.367,-90.969 0.02,4.149 c 0,10.168 8.238,18.41 18.41,18.41 10.164,0 18.406,-8.242 18.406,-18.41 l -0.004,-4.149" /></g><g
         transform="translate(0,487.14789)"
         id="g34593"><path
           id="path34595"
           style="fill:none;stroke:#808080;stroke-width:0.32368901;stroke-linecap:butt;stroke-linejoin:miter;stroke-miterlimit:4;stroke-dasharray:none;stroke-opacity:1"
           d="m 714.582,-86.82 c 0,-6.508 -5.277,-11.785 -11.785,-11.785 -6.508,0 -11.785,5.277 -11.785,11.785" /></g><g
         transform="translate(0,487.14789)"
         id="g34597"><path
           id="path34599"
           style="fill:none;stroke:#808080;stroke-width:0.32368901;stroke-linecap:butt;stroke-linejoin:miter;stroke-miterlimit:4;stroke-dasharray:none;stroke-opacity:1"
           d="m 712.984,-88.023 c 0,-5.18 -5.007,-9.383 -10.187,-9.383 -5.184,0 -10.367,4.203 -10.367,9.383" /></g><g
         transform="translate(0,487.14789)"
         id="g34601"><path
           id="path34603"
           style="fill:none;stroke:#808080;stroke-width:0.32351199;stroke-linecap:butt;stroke-linejoin:miter;stroke-miterlimit:4;stroke-dasharray:none;stroke-opacity:1"
           d="m 711.301,-89.16 c 0,-3.926 -4.606,-7.106 -8.528,-7.106 -3.921,0 -8.656,3.18 -8.656,7.106" /></g><g
         transform="translate(0,487.14789)"
         id="g34605"><path
           id="path34607"
           style="fill:none;stroke:#808080;stroke-width:0.32351199;stroke-linecap:butt;stroke-linejoin:miter;stroke-miterlimit:4;stroke-dasharray:none;stroke-opacity:1"
           d="m 709.641,-90.18 c 0,-2.797 -4.086,-5.062 -6.887,-5.062 -2.793,0 -6.981,2.265 -6.981,5.062" /></g><g
         transform="translate(0,487.14789)"
         id="g34609"><path
           id="path34611"
           style="fill:none;stroke:#808080;stroke-width:0.32352799;stroke-linecap:butt;stroke-linejoin:miter;stroke-miterlimit:4;stroke-dasharray:none;stroke-opacity:1"
           d="m 707.98,-90.676 c 0,-1.808 -3.437,-3.269 -5.242,-3.269 -1.804,0 -5.308,1.461 -5.308,3.269" /></g></g></g></svg>