<?xml version="1.0" encoding="UTF-8" standalone="no"?>
<svg
   xmlns:dc="http://purl.org/dc/elements/1.1/"
   xmlns:cc="http://creativecommons.org/ns#"
   xmlns:rdf="http://www.w3.org/1999/02/22-rdf-syntax-ns#"
   xmlns:svg="http://www.w3.org/2000/svg"
   xmlns="http://www.w3.org/2000/svg"
   viewBox="0 0 180.09 180.09"
   height="180.09"
   width="180.09"
   xml:space="preserve"
   version="1.1"
   id="svg3436"><metadata
     id="metadata3442"><rdf:RDF><cc:Work
         rdf:about=""><dc:format>image/svg+xml</dc:format><dc:type
           rdf:resource="http://purl.org/dc/dcmitype/StillImage" /><dc:title></dc:title></cc:Work></rdf:RDF></metadata><defs
     id="defs3440" /><g
     transform="matrix(1.25,0,0,-1.25,0,180.08999)"
     id="g3444"><g
       id="g3446"><path
         id="path3448"
         style="fill:#000000;fill-opacity:1;fill-rule:evenodd;stroke:none"
         d="m 0,0.506 0,143.566 143.566,0 0,-143.566 L 0,0.506 Z" /><path
         id="path3450"
         style="fill:#ffffff;fill-opacity:1;fill-rule:evenodd;stroke:none"
         d="m 3.602,4.103 0,136.367 136.367,0 0,-136.367 -136.367,0 z" /><path
         id="path3452"
         style="fill:#000000;fill-opacity:1;fill-rule:evenodd;stroke:none"
         d="m 11.879,12.529 0,59.613 59.906,59.907 59.903,-59.907 0,-59.613 -119.809,0 z" /><path
         id="path3454"
         style="fill:#ffffff;fill-opacity:1;fill-rule:evenodd;stroke:none"
         d="m 15.48,16.127 0,54.504 56.305,56.304 56.305,-56.304 0,-54.504 -112.61,0 z" /><path
         id="path3456"
         style="fill:#000000;fill-opacity:1;fill-rule:evenodd;stroke:none"
         d="m 43.848,22.967 0,57.746 17.929,0 10.008,-38.375 10.367,38.375 17.567,0 0,-57.746 -10.727,0 0,46.656 -11.519,-46.656 -11.375,0 -11.524,46.656 0,-46.656 -10.726,0 z" /></g></g></svg>