<?xml version="1.0" encoding="UTF-8" standalone="no"?>
<svg
   xmlns:dc="http://purl.org/dc/elements/1.1/"
   xmlns:cc="http://creativecommons.org/ns#"
   xmlns:rdf="http://www.w3.org/1999/02/22-rdf-syntax-ns#"
   xmlns:svg="http://www.w3.org/2000/svg"
   xmlns="http://www.w3.org/2000/svg"
   viewBox="0 0 295 295"
   height="295"
   width="295"
   xml:space="preserve"
   version="1.1"
   id="svg3405"><metadata
     id="metadata3411"><rdf:RDF><cc:Work
         rdf:about=""><dc:format>image/svg+xml</dc:format><dc:type
           rdf:resource="http://purl.org/dc/dcmitype/StillImage" /><dc:title></dc:title></cc:Work></rdf:RDF></metadata><defs
     id="defs3409" /><g
     transform="matrix(1.25,0,0,-1.25,0,295)"
     id="g3413"><g
       id="g3415"><path
         id="path3417"
         style="fill:#e79c00;fill-opacity:1;fill-rule:nonzero;stroke:none"
         d="M 118.004,0 C 183.172,0 236,52.824 236,117.996 236,183.168 183.172,236 118.004,236 52.832,236 0,183.168 0,117.996 0,52.824 52.832,0 118.004,0" /><path
         id="path3419"
         style="fill:#000000;fill-opacity:1;fill-rule:nonzero;stroke:none"
         d="M 116.879,155.777 71.75,65.523 l -15.043,0 45.133,90.254 -30.09,0 0,-15.039 -15.043,0 0,30.082 60.172,0 0,-15.043 z" /><path
         id="path3421"
         style="fill:#000000;fill-opacity:1;fill-rule:nonzero;stroke:none"
         d="m 160.062,151.379 c -2.929,2.937 -6.48,4.398 -10.644,4.398 -4.164,0 -7.715,-1.461 -10.645,-4.398 -2.929,-2.93 -4.398,-6.481 -4.398,-10.641 l 0,-45.133 c 0,-4.16 1.469,-7.71 4.398,-10.64 2.93,-2.938 6.481,-4.399 10.645,-4.399 4.164,0 7.715,1.461 10.644,4.399 2.934,2.93 4.399,6.48 4.399,10.64 l 0,45.133 c 0,4.16 -1.465,7.711 -4.399,10.641 z m 10.645,-77.063 c -5.863,-5.863 -12.961,-8.793 -21.289,-8.793 -8.332,0 -15.43,2.93 -21.293,8.793 -5.863,5.864 -8.793,12.961 -8.793,21.289 l 0,45.133 c 0,8.328 2.93,15.426 8.793,21.289 5.863,5.86 12.961,8.793 21.293,8.793 8.328,0 15.426,-2.933 21.289,-8.793 5.867,-5.863 8.797,-12.961 8.797,-21.289 l 0,-45.133 c 0,-8.328 -2.93,-15.425 -8.797,-21.289 z" /></g></g></svg>