<?xml version="1.0" encoding="UTF-8" standalone="no"?>
<svg
   xmlns:dc="http://purl.org/dc/elements/1.1/"
   xmlns:cc="http://creativecommons.org/ns#"
   xmlns:rdf="http://www.w3.org/1999/02/22-rdf-syntax-ns#"
   xmlns:svg="http://www.w3.org/2000/svg"
   xmlns="http://www.w3.org/2000/svg"
   viewBox="0 0 294.48749 294.48749"
   height="294.48749"
   width="294.48749"
   xml:space="preserve"
   version="1.1"
   id="svg3760"><metadata
     id="metadata3766"><rdf:RDF><cc:Work
         rdf:about=""><dc:format>image/svg+xml</dc:format><dc:type
           rdf:resource="http://purl.org/dc/dcmitype/StillImage" /><dc:title></dc:title></cc:Work></rdf:RDF></metadata><defs
     id="defs3764" /><g
     transform="matrix(1.25,0,0,-1.25,0,294.4875)"
     id="g3768"><g
       id="g3770"><path
         id="path3772"
         style="fill:#e79c00;fill-opacity:1;fill-rule:nonzero;stroke:none"
         d="M 117.797,0 C 182.852,0 235.59,52.738 235.59,117.793 235.59,182.852 182.852,235.59 117.797,235.59 52.738,235.59 0,182.852 0,117.793 0,52.738 52.738,0 117.797,0" /><path
         id="path3774"
         style="fill:#000000;fill-opacity:1;fill-rule:nonzero;stroke:none"
         d="m 117.797,235.59 c -1.184,0 -2.359,-0.023 -3.535,-0.059 l 0,-235.476 C 115.438,0.024 116.613,0 117.797,0 c 1.23,0 2.453,0.024 3.672,0.063 l 0,235.464 c -1.219,0.04 -2.442,0.063 -3.672,0.063 z" /><path
         id="path3776"
         style="fill:#000000;fill-opacity:1;fill-rule:nonzero;stroke:none"
         d="m 61.133,99.914 0,-26.355 -5.231,0 9.789,-22.434 9.793,22.434 -5.23,0 0,26.355 -9.121,0 z" /><path
         id="path3778"
         style="fill:#000000;fill-opacity:1;fill-rule:nonzero;stroke:none"
         d="m 94.047,99.91 -9.789,-22.433 5.222,0 0,-26.348 9.122,0 0,26.348 5.234,0 -9.789,22.433 z" /><path
         id="path3780"
         style="fill:#000000;fill-opacity:1;fill-rule:nonzero;stroke:none"
         d="m 152.66,99.91 -9.789,-22.433 5.219,0 0,-26.348 9.121,0 0,26.348 5.234,0 -9.785,22.433 z" /><path
         id="path3782"
         style="fill:#000000;fill-opacity:1;fill-rule:nonzero;stroke:none"
         d="m 168.848,122.793 0,44.688 c 0,5.058 1.605,9.05 4.812,11.972 3.278,2.922 7.09,4.383 11.438,4.383 4.347,0 8.125,-1.461 11.332,-4.383 3.277,-2.922 4.918,-6.914 4.918,-11.972 l 0,-44.688 c 0,-5.058 -1.641,-9.051 -4.918,-11.973 -3.207,-2.851 -6.985,-4.273 -11.332,-4.273 -4.348,0 -8.16,1.422 -11.438,4.273 -3.207,2.922 -4.812,6.915 -4.812,11.973 z m 10.906,44.688 0,-44.688 c 0,-1.566 0.496,-2.887 1.496,-3.953 0.996,-1 2.277,-1.496 3.848,-1.496 1.566,0 2.847,0.496 3.847,1.496 1,1.066 1.496,2.387 1.496,3.953 l 0,44.688 c 0,1.566 -0.496,2.847 -1.496,3.847 -1,1.071 -2.281,1.602 -3.847,1.602 -1.571,0 -2.852,-0.531 -3.848,-1.602 -1,-1 -1.496,-2.281 -1.496,-3.847 z" /><path
         id="path3784"
         style="fill:#000000;fill-opacity:1;fill-rule:nonzero;stroke:none"
         d="m 66.531,183.199 -32.402,-0.086 0,-40.566 0.023,0 c -0.027,-0.469 -0.058,-0.934 -0.058,-1.418 l 10.906,0 c 0,0.973 0.195,1.832 0.578,2.586 0.039,0.074 0.078,0.141 0.117,0.211 0.219,0.379 0.481,0.73 0.801,1.051 0.996,1.07 2.281,1.601 3.848,1.601 1.566,0 2.851,-0.531 3.851,-1.601 0.18,-0.184 0.34,-0.379 0.493,-0.582 0.39,-0.598 0.66,-1.141 0.792,-1.625 0.02,-0.075 0.036,-0.157 0.051,-0.235 0.035,-0.164 0.063,-0.324 0.063,-0.472 0.074,-0.762 0.113,-1.481 0.113,-2.164 l 0,-16.071 c 0,-0.761 -0.039,-1.48 -0.113,-2.164 -0.074,-0.609 -0.457,-1.484 -1.141,-2.621 -0.683,-1.066 -2.051,-1.598 -4.101,-1.598 -1.899,0 -3.231,0.571 -3.989,1.711 -0.761,1.141 -1.179,2.09 -1.254,2.848 l 0,4.219 -11.054,0 0,-1.938 c 0,-1.976 0.23,-3.914 0.683,-5.812 0.457,-1.824 1.332,-3.645 2.621,-5.469 1.293,-1.824 3.079,-3.383 5.356,-4.676 2.355,-1.215 4.824,-1.82 7.41,-1.82 3.34,0 6.457,0.949 9.344,2.848 2.965,1.898 4.824,3.875 5.582,5.925 0.761,2.051 1.179,3.649 1.254,4.789 0.152,1.137 0.226,2.543 0.226,4.215 l 0,16.844 0.063,0 c 0,1.371 -0.125,2.664 -0.367,3.879 -0.075,0.43 -0.161,0.855 -0.262,1.269 -0.305,1.598 -0.949,3.079 -1.938,4.446 -0.726,1.148 -1.793,2.176 -3.195,3.082 -3.02,2.441 -6.512,3.68 -10.488,3.68 -1.844,0 -3.422,-0.43 -5.235,-2.407 l 0,17.981 21.422,0 0,10.14 z" /><path
         id="path3786"
         style="fill:#000000;fill-opacity:1;fill-rule:nonzero;stroke:none"
         d="m 76.047,122.793 0,44.688 c 0,5.058 1.605,9.05 4.812,11.972 3.278,2.922 7.09,4.383 11.438,4.383 4.348,0 8.125,-1.461 11.332,-4.383 3.277,-2.922 4.918,-6.914 4.918,-11.972 l 0,-44.688 c 0,-5.058 -1.641,-9.051 -4.918,-11.973 -3.207,-2.851 -6.984,-4.273 -11.332,-4.273 -4.348,0 -8.16,1.422 -11.438,4.273 -3.207,2.922 -4.812,6.915 -4.812,11.973 z m 10.906,44.688 0,-44.688 c 0,-1.566 0.496,-2.887 1.496,-3.953 0.996,-1 2.281,-1.496 3.848,-1.496 1.566,0 2.851,0.496 3.848,1.496 1,1.066 1.496,2.387 1.496,3.953 l 0,44.688 c 0,1.566 -0.496,2.847 -1.496,3.847 -0.997,1.071 -2.282,1.602 -3.848,1.602 -1.567,0 -2.852,-0.531 -3.848,-1.602 -1,-1 -1.496,-2.281 -1.496,-3.847 z" /><path
         id="path3788"
         style="fill:#000000;fill-opacity:1;fill-rule:nonzero;stroke:none"
         d="m 138.242,164.262 -10.957,0 0,18.98 33.797,0 0,-9.886 -17.727,-65.914 -11.48,0 18.41,65.683 -12.043,0 0,-8.863 z" /></g></g></svg>