<?xml version="1.0" standalone="no"?>
<!DOCTYPE svg PUBLIC "-//W3C//DTD SVG 1.1//EN" "http://www.w3.org/Graphics/SVG/1.1/DTD/svg11.dtd">
<!--
   ***************************************************************************
   Bundesanstalt fuer Strassenwesen
   StVO Symbol
   Bezeichnung:
   Personenkraftwagen mit Anhaenger
   Eingefuehrt durch:
   Katalog der Verkehrszeichen - VzKat 1992 -
   Ausdehnung in cm:
         X_min     X_max     Y_min     Y_max
         1.37500  21.12500   5.00000  10.00000
-->
<svg width="197.5" height="50" version="1.1" xmlns="http://www.w3.org/2000/svg">
<!--
   ***************************************************************************
-->
<path fill="black" fill-rule="evenodd" stroke="none" d="M31.25 40A10 10 0 0 0 16.25 31.3397459621556A10 10 0 0 0 16.25 48.6602540378444A10 10 0 0 0 31.25 40Z
  M120 40A10 10 0 0 0 105 31.3397459621556A10 10 0 0 0 105 48.6602540378444A10 10 0 0 0 120 40M8.75 40L2.5 40A2.5 2.5 0 0 1 0 37.5L0 25.8678A2.5 2.5 0 0 1 2.08900219637351 23.4018152463135L37.5 17.5L54.2678330470336 0.732233047033635A2.5 2.5 0 0 1 56.0356 0L104.1231 0A2.5 2.5 0 0 1 105.684837678372 0.547828023981509L129.061737678372 19.2493280239815A2.5 2.5 0 0 1 130 21.2015L130 37.5A2.5 2.5 0 0 1 127.5 40L122.5 40A12.5 12.5 0 0 0 103.75 29.1746824526945A12.5 12.5 0 0 0 97.5 40L33.75 40A12.5 12.5 0 0 0 15 29.1746824526945A12.5 12.5 0 0 0 8.75 40Z
  M77.5 20L43.0178 20A1.25 1.25 0 0 1 41.9352682452694 18.125A1.25 1.25 0 0 1 42.1339165235168 17.8661165235168L54.2678330470336 5.73223304703363A2.5 2.5 0 0 1 56.0356 5L77.5 5L77.5 20Z
  M81.25 20L81.25 5L98.9645 5A2.5 2.5 0 0 1 100.732266952966 5.73223304703363L110.732266952966 15.7322330470336A2.5 2.5 0 0 1 109.611547612756 19.9148145657227A2.5 2.5 0 0 1 108.9645 20L81.25 20Z
  M132.5 40L132.5 37.5L142.5 37.5L142.5 35L158.543561768077 34.9999976961868A12.5 12.5 0 0 0 157.5 40L132.5 40Z
  M197.5 35L195 40L182.5 40A12.5 12.5 0 0 0 181.456438231923 34.9999976961868L197.5 35Z
  M180 40A10 10 0 0 0 165 31.3397459621556A10 10 0 0 0 165 48.6602540378444A10 10 0 0 0 180 40M197.5 32.5L179.999999691842 32.4999995891223A12.5 12.5 0 0 0 160.000000308158 32.4999995891223L142.5 32.5L142.5 10A5 5 0 0 1 147.5 5L192.5 5A5 5 0 0 1 197.5 10L197.5 32.5Z" />
<!--
      Symbol PKW mit Anhaenger
      _PKW
      _Raeder
      _Umriss Karosserie
      _Fenster vorne
      _Fenster hinten
      _Anhaenger
      _Fahrgestell
      _Rad
      _Aufbau
-->
</svg>
