<?xml version="1.0" standalone="no"?>
<!DOCTYPE svg PUBLIC "-//W3C//DTD SVG 1.1//EN" "http://www.w3.org/Graphics/SVG/1.1/DTD/svg11.dtd">
<!--
   ***************************************************************************
   Bundesanstalt fuer Strassenwesen
   RWBA-Symbol
   Bezeichnung:
   Personenkraftwagen
   Ausdehnung in cm:
         X_min     X_max     Y_min     Y_max
         0.00000  15.00000   0.00000  15.00000
-->
<svg width="150" height="150" version="1.1" xmlns="http://www.w3.org/2000/svg">
<!--
   ***************************************************************************
-->
<path fill="white" fill-rule="evenodd" stroke="black" stroke-width="0.25" d="M150 150L150 0L0 0L0 150L150 150Z" />
<!--
      * SYMBOL PKW *
-->
<path fill="black" fill-rule="evenodd" stroke="none" d="M108.75 90A10 10 0 0 1 123.75 81.3397459621556A10 10 0 0 1 123.75 98.6602540378444A10 10 0 0 1 108.75 90Z
  M20 90A10 10 0 0 1 35 81.3397459621556A10 10 0 0 1 35 98.6602540378444A10 10 0 0 1 20 90M131.25 90L137.5 90A2.5 2.5 0 0 0 140 87.5L140 75.8678A2.5 2.5 0 0 0 137.910997373231 73.4018151745809L102.5 67.5L85.7322669529664 50.7322330470336A2.5 2.5 0 0 0 83.9645 50L35.877 50A2.5 2.5 0 0 0 34.3152623216276 50.5478280239815L10.9382623216276 69.2494280239815A2.5 2.5 0 0 0 10 71.2016L10 87.5A2.5 2.5 0 0 0 12.5 90L17.5 90A12.5 12.5 0 0 1 36.25 79.1746824526945A12.5 12.5 0 0 1 42.5 90L106.25 90A12.5 12.5 0 0 1 125 79.1746824526945A12.5 12.5 0 0 1 131.25 90Z
  M62.5 70L96.9822 70A1.25 1.25 0 0 0 98.0647317547305 68.125A1.25 1.25 0 0 0 97.8660834764832 67.8661165235168L85.7322669529664 55.7322330470336A2.5 2.5 0 0 0 83.9645 55L62.5 55L62.5 70Z
  M58.75 70L58.75 55L41.0356 55A2.5 2.5 0 0 0 39.2678330470336 55.7322330470336L29.2678330470336 65.7322330470336A2.5 2.5 0 0 0 30.3885523872437 69.9148145657227A2.5 2.5 0 0 0 31.0356 70L58.75 70Z" />
<!--
       * RAEDER *
       * AEUSSERE UMRANDUNG *
       * FENSTER VORNE *
       * FENSTER HINTEN *
-->
</svg>
