<?xml version="1.0" standalone="no"?>
<!DOCTYPE svg PUBLIC "-//W3C//DTD SVG 1.1//EN" "http://www.w3.org/Graphics/SVG/1.1/DTD/svg11.dtd">
<!--
   ***************************************************************************
   Bundesanstalt fuer Strassenwesen
   RWBA-/RWB-Symbol
   Bezeichnung:
   Polizeistation
   Ausdehnung in cm:
         X_min     X_max     Y_min     Y_max
         0.00000  15.00000   0.00000  15.00000
-->
<svg width="150" height="150" version="1.1" xmlns="http://www.w3.org/2000/svg">
<!--
   ***************************************************************************
-->
<path fill="white" fill-rule="evenodd" stroke="black" stroke-width="0.25" d="M0 150L0 0L150 0L150 150L0 150Z" />
<!--
      SYMBOL POLIZEI
-->
<path fill="black" fill-rule="evenodd" stroke="none" d="M14.2858 96.25L14.2858 53.75L24.1518 53.75A9.8661 9.8661 0 0 1 34.0179 63.6161L34.0179 69.6875A9.8661 9.8661 0 0 1 24.1518 79.5536L20.3572 79.5536L20.3572 96.25L14.2858 96.25Z
  M20.3572 59.442L24.1518 59.442A4.1741 4.1741 0 0 1 28.3259 63.6161L28.3259 69.6875A4.1741 4.1741 0 0 1 24.1518 73.8616L20.3572 73.8616L20.3572 59.442Z
  M37.0536 87.5223L37.0537 74.6205A9.1071 9.1071 0 0 1 50.71435 66.7335200451947A9.1071 9.1071 0 0 1 55.2679 74.6205L55.2679 87.5223A9.1071 9.1071 0 0 1 41.60725 95.4092799548053A9.1071 9.1071 0 0 1 37.0537 87.5223Z
  M43.125 87.5223L43.1251 74.6205A3.0357 3.0357 0 0 1 47.67865 71.9915066817316A3.0357 3.0357 0 0 1 49.1965 74.6205L49.1965 87.5223A3.0357 3.0357 0 0 1 44.64295 90.1512933182684A3.0357 3.0357 0 0 1 43.1251 87.5223Z
  M69.6875 96.25L67.4108 96.25A6.8304 6.8304 0 0 1 60.5804 89.4196L60.5804 53.75L66.6518 53.75L66.6518 88.6607A1.8973 1.8973 0 0 0 68.5491 90.558L69.6875 90.558L69.6875 96.25Z
  M75 96.25L75 65.8929L81.0715 65.8929L81.0715 96.25L75 96.25Z
  M75 59.8214L75 53.75L81.0715 53.75L81.0715 59.8214L75 59.8214Z
  M85.625 96.25L85.625 91.317L95.4911 71.2054L86.384 71.2054L86.384 65.8929L102.3215 65.8929L102.3215 70.4464L92.4554 90.558L102.3215 90.558L102.3215 96.25L85.625 96.25Z
  M124.3304 87.5223A9.1071 9.1071 0 0 1 110.66975 95.4092799548053A9.1071 9.1071 0 0 1 106.1162 87.5223L106.1162 74.6205A9.1071 9.1071 0 0 1 119.77685 66.7335200451947A9.1071 9.1071 0 0 1 124.3304 74.6205L124.3304 83.3482L112.1875 83.3482L112.1876 87.5223A3.0357 3.0357 0 0 0 116.74115 90.1512933182684A3.0357 3.0357 0 0 0 118.259 87.5223L124.3304 87.5223Z
  M112.1875 78.4152L112.1876 74.6205A3.0357 3.0357 0 0 1 116.74115 71.9915066817316A3.0357 3.0357 0 0 1 118.259 74.6205L118.259 78.4152L112.1875 78.4152Z
  M129.6429 96.25L129.6429 65.8929L135.7143 65.8929L135.7143 96.25L129.6429 96.25Z
  M129.6429 59.8214L129.6429 53.75L135.7143 53.75L135.7143 59.8214L129.6429 59.8214Z" />
</svg>
