<?xml version="1.0" encoding="UTF-8" standalone="no"?>
<svg
   xmlns:dc="http://purl.org/dc/elements/1.1/"
   xmlns:cc="http://creativecommons.org/ns#"
   xmlns:rdf="http://www.w3.org/1999/02/22-rdf-syntax-ns#"
   xmlns:svg="http://www.w3.org/2000/svg"
   xmlns="http://www.w3.org/2000/svg"
   viewBox="0 0 1159.344 669.92004"
   height="669.92004"
   width="1159.344"
   xml:space="preserve"
   id="svg32252"
   version="1.1"><metadata
     id="metadata32258"><rdf:RDF><cc:Work
         rdf:about=""><dc:format>image/svg+xml</dc:format><dc:type
           rdf:resource="http://purl.org/dc/dcmitype/StillImage" /><dc:title></dc:title></cc:Work></rdf:RDF></metadata><defs
     id="defs32256" /><g
     transform="matrix(1.3333333,0,0,-1.3333333,0,669.92004)"
     id="g32260"><g
       id="g32262"><path
         id="path32264"
         style="fill:#ffffff;fill-opacity:1;fill-rule:evenodd;stroke:none"
         d="M 15.965,170.354 H 517.293 V 147.151 H 15.965 Z" /><path
         id="path32266"
         style="fill:#c1121c;fill-opacity:1;fill-rule:evenodd;stroke:none"
         d="M 16.27,170.354 H 51.524 V 147.151 H 16.27 Z" /><path
         id="path32268"
         style="fill:#c1121c;fill-opacity:1;fill-rule:evenodd;stroke:none"
         d="m 86.762,170.354 h 35.254 V 147.151 H 86.762 Z" /><path
         id="path32270"
         style="fill:#c1121c;fill-opacity:1;fill-rule:evenodd;stroke:none"
         d="m 157.27,170.354 h 35.25 v -23.203 h -35.25 z" /><path
         id="path32272"
         style="fill:#c1121c;fill-opacity:1;fill-rule:evenodd;stroke:none"
         d="m 227.82,170.354 h 35.254 V 147.151 H 227.82 Z" /><path
         id="path32274"
         style="fill:#c1121c;fill-opacity:1;fill-rule:evenodd;stroke:none"
         d="m 298.328,170.354 h 35.254 v -23.203 h -35.254 z" /><path
         id="path32276"
         style="fill:#c1121c;fill-opacity:1;fill-rule:evenodd;stroke:none"
         d="m 368.828,170.354 h 35.258 v -23.203 h -35.258 z" /><path
         id="path32278"
         style="fill:#c1121c;fill-opacity:1;fill-rule:evenodd;stroke:none"
         d="M 439.336,170.354 H 474.59 V 147.151 H 439.336 Z" /><path
         id="path32280"
         style="fill:#c1121c;fill-opacity:1;fill-rule:evenodd;stroke:none"
         d="m 509.887,170.354 h 35.254 v -23.203 h -35.254 z" /><g
         transform="matrix(1,0,0,-1,0,502.44003)"
         id="g32282"><path
           id="path32284"
           style="fill:none;stroke:#000000;stroke-width:0.46875;stroke-linecap:butt;stroke-linejoin:miter;stroke-miterlimit:4;stroke-dasharray:none;stroke-opacity:1"
           d="m 16.262,332.055 h 552.656 v 23.398 H 16.262 Z" /></g><g
         transform="matrix(1,0,0,-1,0,502.44003)"
         id="g32286"><path
           id="path32288"
           style="fill:#999999;fill-opacity:1;fill-rule:nonzero;stroke:#000000;stroke-width:0.46875;stroke-linecap:butt;stroke-linejoin:miter;stroke-miterlimit:4;stroke-dasharray:none;stroke-opacity:1"
           d="m 545.711,319.359 -0.457,0.012 v 47.988 l 128.652,-0.007 V 319.355 H 545.711 Z" /></g><g
         transform="matrix(1,0,0,-1,0,502.44003)"
         id="g32290"><path
           id="path32292"
           style="fill:#999999;fill-opacity:1;fill-rule:nonzero;stroke:#000000;stroke-width:0.46875;stroke-linecap:butt;stroke-linejoin:miter;stroke-miterlimit:4;stroke-dasharray:none;stroke-opacity:1"
           d="m 857.617,315.945 -0.363,0.008 v -0.015 H 726.93 v 55.003 h 130.324 v -0.007 l 0.363,0.007 z" /></g><g
         transform="matrix(1,0,0,-1,0,502.44003)"
         id="g32294"><path
           id="path32296"
           style="fill:#999999;fill-opacity:1;fill-rule:nonzero;stroke:#000000;stroke-width:0.46875;stroke-linecap:butt;stroke-linejoin:miter;stroke-miterlimit:4;stroke-dasharray:none;stroke-opacity:1"
           d="m 653.641,299.434 h 99.723 v 189.277 h -99.723 z" /></g><g
         transform="matrix(1,0,0,-1,0,502.44003)"
         id="g32298"><path
           id="path32300"
           style="fill:#999999;fill-opacity:1;fill-rule:nonzero;stroke:#000000;stroke-width:0.46875;stroke-linecap:butt;stroke-linejoin:miter;stroke-miterlimit:4;stroke-dasharray:none;stroke-opacity:1"
           d="M 649.594,488.512 H 757 v 11.93 H 649.594 Z" /></g><path
         id="path32302"
         style="fill:#ffffff;fill-opacity:1;fill-rule:nonzero;stroke:none"
         d="m 694.5,383.514 h 17.332 V 1.737 H 694.5 Z" /><g
         transform="matrix(1,0,0,-1,0,502.44003)"
         id="g32304"><path
           id="path32306"
           style="fill:#758080;fill-opacity:1;fill-rule:nonzero;stroke:#000000;stroke-width:0.46875;stroke-linecap:butt;stroke-linejoin:miter;stroke-miterlimit:4;stroke-dasharray:none;stroke-opacity:1"
           d="m 694.5,118.926 h 17.332 V 500.703 H 694.5 Z" /></g><path
         id="path32308"
         style="fill:#c1121c;fill-opacity:1;fill-rule:evenodd;stroke:none"
         d="M 624.645,500.19 H 782.067 V 374.256 H 624.645 Z" /><path
         id="path32310"
         style="fill:#ffffff;fill-opacity:1;fill-rule:evenodd;stroke:none"
         d="M 632.027,493.612 H 774.531 V 380.932 H 632.027 Z" /><path
         id="path32312"
         style="fill:#000000;fill-opacity:1;fill-rule:evenodd;stroke:none"
         d="m 638.711,486.913 h 129.25 v -99.422 h -129.25 z" /><g
         transform="matrix(1,0,0,-1,0,502.44003)"
         id="g32314"><path
           id="path32316"
           style="fill:none;stroke:#ffffff;stroke-width:0.9375;stroke-linecap:butt;stroke-linejoin:miter;stroke-miterlimit:4;stroke-dasharray:none;stroke-opacity:1"
           d="m 659.898,187.141 26.325,45.847 -26.2,45.629 24.938,14.922 18.383,-30.934 18.176,30.961 25.128,-14.621 -26.699,-45.992 26.758,-46.223 -25.152,-14.515 -18.239,31.539 -18.125,-31.113 z" /></g><g
         transform="matrix(1,0,0,-1,0,502.44003)"
         id="g32318"><path
           id="path32320"
           style="fill:#ffffff;fill-opacity:1;fill-rule:nonzero;stroke:#000000;stroke-width:0.46875;stroke-linecap:butt;stroke-linejoin:miter;stroke-miterlimit:4;stroke-dasharray:none;stroke-opacity:1"
           d="m 659.898,187.141 26.325,45.847 -26.2,45.629 24.938,14.922 18.383,-30.934 18.176,30.961 25.128,-14.621 -26.699,-45.992 26.758,-46.223 -25.152,-14.515 -18.239,31.539 -18.125,-31.113 z" /></g><path
         id="path32322"
         style="fill:#c1121c;fill-opacity:1;fill-rule:evenodd;stroke:none"
         d="m 659.902,314.796 25.809,14.664 -24.75,42.921 -25.695,-14.91 z" /><path
         id="path32324"
         style="fill:#c1121c;fill-opacity:1;fill-rule:evenodd;stroke:none"
         d="m 745.508,166.655 25.808,14.664 -24.746,42.922 -25.699,-14.91 z" /><path
         id="path32326"
         style="fill:#c1121c;fill-opacity:1;fill-rule:evenodd;stroke:none"
         d="m 660.93,166.655 -25.813,14.664 24.75,42.922 25.695,-14.91 z" /><path
         id="path32328"
         style="fill:#c1121c;fill-opacity:1;fill-rule:evenodd;stroke:none"
         d="m 746.473,314.71 -25.809,14.668 24.75,42.918 25.695,-14.911 z" /><g
         transform="matrix(1,0,0,-1,0,502.44003)"
         id="g32330"><path
           id="path32332"
           style="fill:none;stroke:#000000;stroke-width:0.69336599;stroke-linecap:butt;stroke-linejoin:miter;stroke-miterlimit:4;stroke-dasharray:none;stroke-opacity:1"
           d="m 719.07,64.082 c 0,8.695 -7.05,15.746 -15.746,15.746 -8.695,0 -15.75,-7.051 -15.75,-15.746 0,-8.695 7.055,-15.746 15.75,-15.746 8.696,0 15.746,7.051 15.746,15.746 z" /></g><g
         transform="matrix(1,0,0,-1,0,502.44003)"
         id="g32334"><path
           id="path32336"
           style="fill:#000000;fill-opacity:1;fill-rule:nonzero;stroke:#808080;stroke-width:0.378759;stroke-linecap:butt;stroke-linejoin:miter;stroke-miterlimit:4;stroke-dasharray:none;stroke-opacity:1"
           d="m 722.551,64.082 c 0,10.617 -8.61,19.223 -19.227,19.223 -10.617,0 -19.222,-8.606 -19.222,-19.223 0,-10.621 8.605,-19.223 19.222,-19.223 10.617,0 19.227,8.602 19.227,19.223 z" /></g><g
         transform="matrix(1,0,0,-1,0,502.44003)"
         id="g32338"><path
           id="path32340"
           style="fill:#ff0000;fill-opacity:1;fill-rule:nonzero;stroke:#000000;stroke-width:0.69336599;stroke-linecap:butt;stroke-linejoin:miter;stroke-miterlimit:4;stroke-dasharray:none;stroke-opacity:1"
           d="m 719.07,64.082 c 0,8.695 -7.05,15.746 -15.746,15.746 -8.695,0 -15.75,-7.051 -15.75,-15.746 0,-8.695 7.055,-15.746 15.75,-15.746 8.696,0 15.746,7.051 15.746,15.746 z" /></g><g
         transform="matrix(1,0,0,-1,0,502.44003)"
         id="g32342"><path
           id="path32344"
           style="fill:none;stroke:#808080;stroke-width:1.875;stroke-linecap:butt;stroke-linejoin:miter;stroke-miterlimit:4;stroke-dasharray:none;stroke-opacity:1"
           d="m 681.762,68.934 0.019,-4.852 c 0,-11.902 9.645,-21.543 21.543,-21.543 11.895,0 21.543,9.641 21.543,21.543 l -0.008,4.852" /></g><g
         transform="matrix(1,0,0,-1,0,502.44003)"
         id="g32346"><path
           id="path32348"
           style="fill:none;stroke:#6a6a6a;stroke-width:0.378759;stroke-linecap:butt;stroke-linejoin:miter;stroke-miterlimit:4;stroke-dasharray:none;stroke-opacity:1"
           d="m 717.113,64.082 c 0,7.613 -6.172,13.789 -13.789,13.789 -7.613,0 -13.789,-6.176 -13.789,-13.789" /></g><g
         transform="matrix(1,0,0,-1,0,502.44003)"
         id="g32350"><path
           id="path32352"
           style="fill:none;stroke:#6a6a6a;stroke-width:0.378759;stroke-linecap:butt;stroke-linejoin:miter;stroke-miterlimit:4;stroke-dasharray:none;stroke-opacity:1"
           d="m 715.246,65.484 c 0,6.067 -5.859,10.981 -11.922,10.981 -6.062,0 -12.133,-4.914 -12.133,-10.981" /></g><g
         transform="matrix(1,0,0,-1,0,502.44003)"
         id="g32354"><path
           id="path32356"
           style="fill:none;stroke:#6a6a6a;stroke-width:0.378553;stroke-linecap:butt;stroke-linejoin:miter;stroke-miterlimit:4;stroke-dasharray:none;stroke-opacity:1"
           d="m 713.273,66.82 c 0,4.59 -5.382,8.313 -9.976,8.313 -4.59,0 -10.129,-3.723 -10.129,-8.313" /></g><g
         transform="matrix(1,0,0,-1,0,502.44003)"
         id="g32358"><path
           id="path32360"
           style="fill:none;stroke:#6a6a6a;stroke-width:0.378553;stroke-linecap:butt;stroke-linejoin:miter;stroke-miterlimit:4;stroke-dasharray:none;stroke-opacity:1"
           d="m 711.332,68.012 c 0,3.273 -4.785,5.926 -8.059,5.926 -3.269,0 -8.164,-2.653 -8.164,-5.926" /></g><g
         transform="matrix(1,0,0,-1,0,502.44003)"
         id="g32362"><path
           id="path32364"
           style="fill:none;stroke:#6a6a6a;stroke-width:0.378553;stroke-linecap:butt;stroke-linejoin:miter;stroke-miterlimit:4;stroke-dasharray:none;stroke-opacity:1"
           d="m 709.391,68.594 c 0,2.109 -4.024,3.82 -6.133,3.82 -2.11,0 -6.211,-1.711 -6.211,-3.82" /></g><g
         transform="matrix(1,0,0,-1,0,502.44003)"
         id="g32366"><path
           id="path32368"
           style="fill:none;stroke:#000000;stroke-width:0.75136501;stroke-linecap:butt;stroke-linejoin:miter;stroke-miterlimit:4;stroke-dasharray:none;stroke-opacity:1"
           d="M 869.508,500.5 0,500.484" /></g></g></g></svg>