<?xml version="1.0" encoding="UTF-8" standalone="no"?>
<svg
   xmlns:dc="http://purl.org/dc/elements/1.1/"
   xmlns:cc="http://creativecommons.org/ns#"
   xmlns:rdf="http://www.w3.org/1999/02/22-rdf-syntax-ns#"
   xmlns:svg="http://www.w3.org/2000/svg"
   xmlns="http://www.w3.org/2000/svg"
   viewBox="0 0 439.448 339.06799"
   height="339.06799"
   width="439.448"
   xml:space="preserve"
   id="svg938"
   version="1.1"><metadata
     id="metadata944"><rdf:RDF><cc:Work
         rdf:about=""><dc:format>image/svg+xml</dc:format><dc:type
           rdf:resource="http://purl.org/dc/dcmitype/StillImage" /><dc:title></dc:title></cc:Work></rdf:RDF></metadata><defs
     id="defs942" /><g
     transform="matrix(1.3333333,0,0,-1.3333333,0,339.06799)"
     id="g946"><g
       id="g948"><path
         id="path950"
         style="fill:#000000;fill-opacity:1;fill-rule:nonzero;stroke:none"
         d="m 60.051,37.531 c 0,12.438 -10.086,22.516 -22.52,22.516 -12.437,0 -22.515,-10.078 -22.515,-22.516 0,-12.437 10.078,-22.519 22.515,-22.519 12.434,0 22.52,10.082 22.52,22.519 z m 15.011,0 C 75.062,16.805 58.258,0 37.531,0 16.805,0 0,16.805 0,37.531 c 0,20.727 16.805,37.532 37.531,37.532 20.727,0 37.531,-16.805 37.531,-37.532" /><path
         id="path952"
         style="fill:#000000;fill-opacity:1;fill-rule:nonzero;stroke:none"
         d="m 314.574,37.531 c 0,12.438 -10.082,22.516 -22.515,22.516 -12.442,0 -22.52,-10.078 -22.52,-22.516 0,-12.437 10.078,-22.519 22.52,-22.519 12.433,0 22.515,10.082 22.515,22.519 z m 15.012,0 C 329.586,16.805 312.781,0 292.059,0 c -20.731,0 -37.532,16.805 -37.532,37.531 0,20.727 16.801,37.532 37.532,37.532 20.722,0 37.527,-16.805 37.527,-37.532" /><path
         id="path954"
         style="fill:#000000;fill-opacity:1;fill-rule:nonzero;stroke:none"
         d="M 73.074,240.442 54.98,111.856 103.559,49.66 l 62.664,0.098 c 10.39,18.18 29.726,29.395 50.66,29.395 0.023,0 0.039,0 0.055,0 h -0.079 c 0.012,0 0.02,0 0.032,0 h -0.008 c 4.996,0 9.656,2.476 12.449,6.617 l 16.766,23.629 c -2.172,2.672 -3.356,6.015 -3.356,9.457 0,3.113 0.969,6.148 2.77,8.683 l 10.461,14.774 4.172,-2.957 8.585,12.203 c 0.481,0.672 1.258,1.074 2.082,1.074 1.411,0 2.555,-1.141 2.555,-2.551 0,-0.531 -0.164,-1.047 -0.472,-1.476 l -8.653,-12.153 8.028,-5.691 8.621,12.277 c 0.48,0.676 1.257,1.078 2.082,1.078 1.41,0 2.55,-1.144 2.55,-2.554 0,-0.528 -0.164,-1.047 -0.468,-1.477 l -8.688,-12.23 4.168,-2.957 -10.473,-14.77 c -2.828,-3.988 -7.417,-6.359 -12.304,-6.359 -1.742,0 -3.461,0.301 -5.098,0.886 L 236.02,81.258 c -4.293,-6.363 -11.461,-10.176 -19.137,-10.176 -16.375,0 -31.719,-7.972 -41.137,-21.363 l 63.52,-0.059 -3.786,-5.195 56.579,0.008 c 3.832,0 6.941,-3.11 6.941,-6.942 0,-3.835 -3.109,-6.945 -6.941,-6.945 L 225.781,30.61 220.93,23.68 H 102.379 L 91.391,34.817 v 7.925 L 52.301,92.781 44.406,36.567 c -0.48,-3.43 -3.414,-5.981 -6.875,-5.981 -3.836,0 -6.941,3.11 -6.941,6.945 0,0.325 0.019,0.649 0.066,0.969 l 28.426,201.942 -29.848,-0.028 c -3.832,0 -6.941,3.11 -6.941,6.946 0,3.832 3.109,6.941 6.941,6.941 h 78.516 c 3.832,0 6.941,-3.109 6.941,-6.941 0,-3.836 -3.109,-6.946 -6.941,-6.946 l -34.676,0.028" /></g></g></svg>