<?xml version="1.0" encoding="UTF-8" standalone="no"?>
<svg
   xmlns:dc="http://purl.org/dc/elements/1.1/"
   xmlns:cc="http://creativecommons.org/ns#"
   xmlns:rdf="http://www.w3.org/1999/02/22-rdf-syntax-ns#"
   xmlns:svg="http://www.w3.org/2000/svg"
   xmlns="http://www.w3.org/2000/svg"
   viewBox="0 0 569.33331 569.33331"
   height="569.33331"
   width="569.33331"
   xml:space="preserve"
   id="svg19082"
   version="1.1"><metadata
     id="metadata19088"><rdf:RDF><cc:Work
         rdf:about=""><dc:format>image/svg+xml</dc:format><dc:type
           rdf:resource="http://purl.org/dc/dcmitype/StillImage" /><dc:title></dc:title></cc:Work></rdf:RDF></metadata><defs
     id="defs19086" /><g
     transform="matrix(1.3333333,0,0,-1.3333333,0,569.33333)"
     id="g19090"><g
       id="g19092"><path
         id="path19094"
         style="fill:#231f20;fill-opacity:1;fill-rule:nonzero;stroke:none"
         d="m 31.898,174.621 c 7.668,0 13.887,-6.219 13.887,-13.891 0,-7.671 -6.219,-13.886 -13.887,-13.886 -7.671,0 -13.89,6.215 -13.89,13.886 0,7.672 6.219,13.891 13.89,13.891" /><path
         id="path19096"
         style="fill:#231f20;fill-opacity:1;fill-rule:nonzero;stroke:none"
         d="M 26.754,79.98 H 54.223 V 66.75 l 25.05,-39.898 c 1.364,-2.184 2.09,-4.707 2.09,-7.286 0,-4.742 -2.445,-9.144 -6.465,-11.66 L 40.488,62.809 40.543,14.746 C 40.543,7.156 34.387,1 26.797,1 l -0.043,78.98" /><path
         id="path19098"
         style="fill:#231f20;fill-opacity:1;fill-rule:nonzero;stroke:none"
         d="m 26.754,83.414 v 15.172 l -9.203,-5.582 c -1.875,-1.125 -4.02,-1.723 -6.203,-1.723 -4.231,0 -8.149,2.219 -10.328,5.844 l 25.734,15.477 0.043,15.39 c 0,7.594 6.152,13.746 13.746,13.746 4.742,0 9.148,-2.441 11.66,-6.461 L 76.414,96.531 c 1.195,-1.914 1.828,-4.125 1.828,-6.383 0,-4.152 -2.14,-8.015 -5.664,-10.214 L 54.223,109.316 V 83.414 H 26.754" /><path
         id="path19100"
         style="fill:#231f20;fill-opacity:1;fill-rule:nonzero;stroke:none"
         d="m 406.777,160.73 c 0,-7.671 -6.218,-13.886 -13.89,-13.886 -7.672,0 -13.891,6.215 -13.891,13.886 0,7.672 6.219,13.891 13.891,13.891 7.672,0 13.89,-6.219 13.89,-13.891" /><path
         id="path19102"
         style="fill:#231f20;fill-opacity:1;fill-rule:nonzero;stroke:none"
         d="m 381.277,50.906 h 9.981 l -0.07,-34.883 c 0,-2.738 -2.223,-4.961 -4.961,-4.961 -2.743,0 -4.961,2.223 -4.961,4.961 l 0.011,34.883" /><path
         id="path19104"
         style="fill:#231f20;fill-opacity:1;fill-rule:nonzero;stroke:none"
         d="m 394.586,50.906 h 9.98 L 404.508,5.961 C 404.508,3.223 402.289,1 399.551,1 396.809,1 394.59,3.223 394.59,5.961 l -0.004,44.945" /><path
         id="path19106"
         style="fill:#231f20;fill-opacity:1;fill-rule:nonzero;stroke:none"
         d="m 392.922,54.234 -33.305,-0.015 c 1.914,12.746 7.445,24.676 15.938,34.371 l 0.027,0.07 c -3.824,4.266 -5.937,9.793 -5.937,15.52 v 13.324 c 0,12.84 10.406,23.242 23.242,23.242 12.84,0 23.246,-10.406 23.246,-23.242 V 104.18 c 0,-5.727 -2.117,-11.254 -5.942,-15.52 l 0.028,-0.07 c 8.496,-9.695 14.023,-21.625 15.937,-34.371 z m -13.332,38.586 2.262,2.375 c 0.621,0.614 0.972,1.45 0.972,2.325 l 0.141,24.945 c 0,0.937 -0.762,1.699 -1.699,1.699 -0.942,0 -1.7,-0.762 -1.7,-1.699 z m 26.64,0 -0.019,29.645 c 0,0.937 -0.762,1.699 -1.703,1.699 -0.938,0 -1.699,-0.762 -1.699,-1.699 l 0.14,-24.945 c 0,-0.875 0.352,-1.711 0.977,-2.325 l 2.304,-2.375" /><path
         id="path19108"
         style="fill:#231f20;fill-opacity:1;fill-rule:nonzero;stroke:none"
         d="m 102.418,164.785 h 32.543 l -0.023,-29.847 c 0,-4.465 -3.618,-8.083 -8.083,-8.083 h -16.296 c -4.461,0 -8.079,3.618 -8.079,8.083 l -0.062,29.847" /><path
         id="path19110"
         style="fill:#231f20;fill-opacity:1;fill-rule:nonzero;stroke:none"
         d="m 88.871,218.984 c 0,3.528 1.149,6.961 3.266,9.782 l 3.218,4.246 c 2.305,3.062 4.247,6.383 5.774,9.898 l 21.332,49.391 c 2.16,4.965 7.059,8.176 12.477,8.176 l 67.816,-0.106 v -13.559 l -64.559,-0.082 c -2.144,0 -4.082,-1.269 -4.937,-3.238 l -18.637,-42.777 h 88.133 v -70.504 l -100.274,0.016 c -7.515,0 -13.609,6.093 -13.609,13.605 l -0.008,35.188" /><path
         id="path19112"
         style="fill:#ffffff;fill-opacity:1;fill-rule:nonzero;stroke:none"
         d="m 135.359,210.762 c 0,-9 -7.297,-16.297 -16.297,-16.297 -9.003,0 -16.3,7.297 -16.3,16.297 0,9.004 7.297,16.3 16.3,16.3 9,0 16.297,-7.296 16.297,-16.3" /><path
         id="path19114"
         style="fill:#231f20;fill-opacity:1;fill-rule:nonzero;stroke:none"
         d="m 292.23,164.785 h 32.543 l -0.058,-29.847 c 0,-4.465 -3.617,-8.083 -8.078,-8.083 h -16.301 c -4.461,0 -8.078,3.618 -8.078,8.083 l -0.028,29.847" /><path
         id="path19116"
         style="fill:#231f20;fill-opacity:1;fill-rule:nonzero;stroke:none"
         d="m 224.441,300.371 h 0.907 l 66.91,0.106 c 5.418,0 10.316,-3.211 12.476,-8.176 l 21.352,-49.321 c 1.516,-3.484 3.43,-6.777 5.711,-9.816 l 3.262,-4.398 c 2.117,-2.821 3.261,-6.254 3.261,-9.782 v -35.152 c 0,-7.512 -6.09,-13.605 -13.605,-13.605 l -99.945,-0.016 h -0.329 v 70.504 h 88.129 l -18.632,42.777 c -0.856,1.969 -2.797,3.238 -4.942,3.238 l -63.711,0.082 h -0.844 v 13.559" /><path
         id="path19118"
         style="fill:#ffffff;fill-opacity:1;fill-rule:nonzero;stroke:none"
         d="m 324.855,210.762 c 0,-9 -7.296,-16.297 -16.296,-16.297 -9.004,0 -16.301,7.297 -16.301,16.297 0,9.004 7.297,16.3 16.301,16.3 9,0 16.296,-7.296 16.296,-16.3" /><path
         id="path19120"
         style="fill:#231f20;fill-opacity:1;fill-rule:nonzero;stroke:none"
         d="m 34.309,426.051 c 7.589,0 13.746,-6.153 13.746,-13.746 0,-7.594 -6.157,-13.746 -13.746,-13.746 -7.594,0 -13.75,6.152 -13.75,13.746 0,7.593 6.156,13.746 13.75,13.746" /><path
         id="path19122"
         style="fill:#231f20;fill-opacity:1;fill-rule:nonzero;stroke:none"
         d="m 32.605,302.574 v -46.457 c 0,-2.738 -2.218,-4.961 -4.96,-4.961 -2.739,0 -4.961,2.223 -4.961,4.961 l -0.059,46.457 h 9.98" /><path
         id="path19124"
         style="fill:#231f20;fill-opacity:1;fill-rule:nonzero;stroke:none"
         d="m 45.914,302.574 0.016,-35.121 c 0,-2.738 -2.223,-4.961 -4.961,-4.961 -2.739,0 -4.961,2.223 -4.961,4.961 l -0.074,35.121 h 9.98" /><path
         id="path19126"
         style="fill:#231f20;fill-opacity:1;fill-rule:nonzero;stroke:none"
         d="m 34.27,305.902 -33.235,0.032 c 1.914,12.746 7.445,24.675 15.942,34.371 l 0.027,-0.071 c -3.824,4.266 -5.942,9.793 -5.942,15.52 v 13.32 c 0,12.84 10.407,23.246 23.247,23.246 12.836,0 23.242,-10.406 23.242,-23.246 v -13.32 c 0,-5.727 -2.113,-11.254 -5.938,-15.52 l 0.028,0.071 c 8.492,-9.696 14.023,-21.625 15.937,-34.371 z m -13.305,38.586 2.305,2.282 c 0.625,0.613 0.972,1.449 0.972,2.324 l 0.145,25.086 c 0,0.937 -0.762,1.699 -1.703,1.699 -0.938,0 -1.7,-0.762 -1.7,-1.699 z m 26.64,0 0.024,29.692 c 0,0.937 -0.762,1.699 -1.699,1.699 -0.942,0 -1.703,-0.762 -1.703,-1.699 l 0.144,-25.086 c 0,-0.875 0.352,-1.711 0.973,-2.324 l 2.261,-2.282" /><path
         id="path19128"
         style="fill:#231f20;fill-opacity:1;fill-rule:nonzero;stroke:none"
         d="m 376.871,426.195 c 7.672,0 13.891,-6.218 13.891,-13.89 0,-7.672 -6.219,-13.891 -13.891,-13.891 -7.672,0 -13.891,6.219 -13.891,13.891 0,7.672 6.219,13.89 13.891,13.89" /><path
         id="path19130"
         style="fill:#231f20;fill-opacity:1;fill-rule:nonzero;stroke:none"
         d="m 371.664,331.68 h 27.473 v -13.231 l 24.968,-39.883 c 1.364,-2.183 2.09,-4.707 2.09,-7.285 0,-4.742 -2.441,-9.144 -6.465,-11.66 l -34.328,54.891 -0.027,-48.047 c 0,-7.594 -6.156,-13.75 -13.746,-13.75 l 0.035,78.965" /><path
         id="path19132"
         style="fill:#231f20;fill-opacity:1;fill-rule:nonzero;stroke:none"
         d="m 371.664,335.113 v 15.172 l -9.289,-5.57 c -1.871,-1.125 -4.012,-1.719 -6.195,-1.719 -4.235,0 -8.153,2.223 -10.332,5.852 l 25.816,15.453 -0.035,15.406 c 0,7.594 6.152,13.746 13.746,13.746 4.742,0 9.148,-2.441 11.66,-6.461 l 24.352,-38.746 c 1.199,-1.91 1.832,-4.125 1.832,-6.383 0,-4.152 -2.141,-8.015 -5.664,-10.215 l -18.418,29.368 v -25.903 h -27.473" /></g></g></svg>