<?xml version="1.0" encoding="UTF-8" standalone="no"?>
<svg
   xmlns:dc="http://purl.org/dc/elements/1.1/"
   xmlns:cc="http://creativecommons.org/ns#"
   xmlns:rdf="http://www.w3.org/1999/02/22-rdf-syntax-ns#"
   xmlns:svg="http://www.w3.org/2000/svg"
   xmlns="http://www.w3.org/2000/svg"
   viewBox="0 0 346.64124 199.99495"
   height="199.99495"
   width="346.64124"
   xml:space="preserve"
   id="svg2211"
   version="1.1"><metadata
     id="metadata2217"><rdf:RDF><cc:Work
         rdf:about=""><dc:format>image/svg+xml</dc:format><dc:type
           rdf:resource="http://purl.org/dc/dcmitype/StillImage" /><dc:title></dc:title></cc:Work></rdf:RDF></metadata><defs
     id="defs2215" /><g
     transform="matrix(1.3333333,0,0,-1.3333333,0,199.99495)"
     id="g2219"><g
       id="g2221"><path
         id="path2223"
         style="fill:#000000;fill-opacity:1;fill-rule:nonzero;stroke:none"
         d="m 259.98,30 -30,-10 -10,-0.012 c 0,13.809 -11.207,25.004 -25.019,25.004 -13.813,0 -25.008,-11.195 -25.008,-25.004 H 75.004 c 0,13.809 -11.195,25.004 -25.02,25.004 C 36.176,44.992 24.98,33.797 24.98,19.988 L 4.996,20.027 C 2.23,20.027 0,22.258 0,25.004 v 28.5 c 0,2.098 1.312,3.973 3.266,4.691 l 23.73,8.68 c 1.953,0.703 3.625,2.02 4.809,3.723 l 18.422,26.797 c 1.125,1.66 2.882,2.789 4.859,3.132 l 24.898,4.477 V 110 l -66.886,-0.016 c -1.993,0 -3.91,0.797 -5.317,2.204 l -6.32,6.347 C 0.531,119.465 0,120.738 0,122.07 v 5.844 c 0,1.313 0.531,2.59 1.461,3.531 l 26.629,17.289 c 1.23,0.821 2.68,1.262 4.164,1.262 H 169.98 l 20.004,-10 64.977,-0.012 c 2.758,0 4.988,-2.23 4.988,-4.98 z M 214.945,19.988 C 214.945,8.949 206.008,0 194.961,0 c -11.035,0 -19.984,8.949 -19.984,19.988 0,11.032 8.949,19.985 19.984,19.985 11.047,0 19.984,-8.953 19.984,-19.985 m -144.972,0 C 69.973,8.949 61.023,0 49.984,0 38.949,0 30,8.949 30,19.988 c 0,11.032 8.949,19.985 19.984,19.985 11.039,0 19.989,-8.953 19.989,-19.985" /><path
         id="path2225"
         style="fill:#ffffff;fill-opacity:1;fill-rule:nonzero;stroke:none"
         d="m 77.477,95.996 c 1.382,0 2.511,-1.125 2.511,-2.508 V 70.383 c 0,-1.34 -1.062,-2.445 -2.406,-2.512 L 38.898,66.184 h -0.089 c -1.094,0 -1.985,0.89 -1.985,1.992 0,0.387 0.11,0.769 0.336,1.101 l 16.332,24.504 c 0.918,1.383 2.473,2.215 4.145,2.215 z m -34.993,24 c -1.379,0 -2.507,1.129 -2.507,2.508 v 15.008 c 0,1.379 1.128,2.508 2.507,2.508 h 34.993 c 1.382,0 2.511,-1.129 2.511,-2.508 v -15.008 c 0,-1.379 -1.129,-2.508 -2.511,-2.508 z M 182.48,79.984 c -1.394,0 -2.523,1.129 -2.523,2.508 v 25.02 c 0,1.379 1.129,2.512 2.523,2.512 h 34.981 c 1.394,0 2.523,-1.133 2.523,-2.512 v -25.02 c 0,-1.379 -1.129,-2.508 -2.523,-2.508 0,0 -34.981,0.016 -34.981,0 M 117.477,30 h 0.011 c -1.39,0 -2.508,1.129 -2.508,2.508 v 75.004 c 0,1.379 1.118,2.512 2.508,2.512 h 39.977 c 1.39,0 2.508,-1.133 2.508,-2.512 V 32.508 c 0,-1.379 -1.118,-2.508 -2.508,-2.508 z" /></g></g></svg>