<?xml version="1.0" encoding="UTF-8" standalone="no"?>
<svg
   xmlns:dc="http://purl.org/dc/elements/1.1/"
   xmlns:cc="http://creativecommons.org/ns#"
   xmlns:rdf="http://www.w3.org/1999/02/22-rdf-syntax-ns#"
   xmlns:svg="http://www.w3.org/2000/svg"
   xmlns="http://www.w3.org/2000/svg"
   viewBox="0 0 1136 865.33331"
   height="865.33331"
   width="1136"
   xml:space="preserve"
   id="svg11879"
   version="1.1"><metadata
     id="metadata11885"><rdf:RDF><cc:Work
         rdf:about=""><dc:format>image/svg+xml</dc:format><dc:type
           rdf:resource="http://purl.org/dc/dcmitype/StillImage" /><dc:title></dc:title></cc:Work></rdf:RDF></metadata><defs
     id="defs11883" /><g
     transform="matrix(1.3333333,0,0,-1.3333333,0,865.33333)"
     id="g11887"><g
       id="g11889"><path
         id="path11891"
         style="fill:#231f20;fill-opacity:1;fill-rule:nonzero;stroke:none"
         d="m 1,345.004 v -0.024 c 0,13.157 4.266,25.958 12.16,36.485 l 12.188,16.156 c 8.507,11.344 15.664,23.637 21.32,36.637 l 79.996,184.043 c 8.035,18.469 26.258,30.41 46.398,30.41 h 506.262 c 20.141,0 38.364,-11.941 46.399,-30.41 l 80,-184.043 c 5.656,-13 12.808,-25.293 21.316,-36.637 l 12.188,-16.156 c 7.894,-10.527 12.16,-23.328 12.16,-36.485 V 213.453 c 0,-27.941 -22.653,-50.598 -50.598,-50.598 H 51.598 C 23.652,162.855 1,185.512 1,213.453 v 131.551" /><path
         id="path11893"
         style="fill:#231f20;fill-opacity:1;fill-rule:nonzero;stroke:none"
         d="M 51.621,142.73 H 173.105 L 173.062,31.332 C 173.062,14.578 159.48,1 142.73,1 H 81.93 C 65.18,1 51.598,14.578 51.598,31.332 l 0.023,111.398" /><path
         id="path11895"
         style="fill:#231f20;fill-opacity:1;fill-rule:nonzero;stroke:none"
         d="M 679.285,142.73 H 800.77 L 800.789,31.332 C 800.789,14.578 787.211,1 770.461,1 h -60.805 c -16.75,0 -30.332,13.578 -30.332,30.332 l -0.039,111.398" /><path
         id="path11897"
         style="fill:#ffffff;fill-opacity:1;fill-rule:nonzero;stroke:none"
         d="m 173.203,314.652 c 0,-33.582 -27.223,-60.804 -60.801,-60.804 -33.582,0 -60.804,27.222 -60.804,60.804 0,33.578 27.222,60.801 60.804,60.801 33.578,0 60.801,-27.223 60.801,-60.801" /><path
         id="path11899"
         style="fill:#ffffff;fill-opacity:1;fill-rule:nonzero;stroke:none"
         d="m 800.789,314.652 c 0,-33.582 -27.223,-60.804 -60.801,-60.804 -33.582,0 -60.804,27.222 -60.804,60.804 0,33.578 27.222,60.801 60.804,60.801 33.578,0 60.801,-27.223 60.801,-60.801" /><path
         id="path11901"
         style="fill:#ffffff;fill-opacity:1;fill-rule:nonzero;stroke:none"
         d="m 97.176,425.992 69.633,159.942 c 3.218,7.398 10.515,12.179 18.586,12.179 h 481.601 c 8.066,0 15.363,-4.781 18.582,-12.179 l 69.633,-159.942 h -82.402 v 54.926 l -9.973,0.086 c -13.969,-17.867 -35.383,-28.305 -58.059,-28.305 -22.675,0 -44.089,10.438 -58.058,28.297 l -9.973,-0.078 v -54.926 h -42.519 v 54.926 l -9.973,0.086 c -13.969,-17.867 -35.383,-28.305 -58.059,-28.305 -22.675,0 -44.09,10.438 -58.058,28.297 l -9.973,-0.078 v -54.926 h -42.519 v 54.926 l -9.973,0.086 c -13.969,-17.867 -35.383,-28.305 -58.059,-28.305 -22.675,0 -44.09,10.438 -58.058,28.297 l -9.973,-0.078 V 425.992 H 97.176" /><path
         id="path11903"
         style="fill:#231f20;fill-opacity:1;fill-rule:nonzero;stroke:none"
         d="m 304.305,526.258 c 0,-31.313 -25.383,-56.696 -56.692,-56.696 -31.312,0 -56.691,25.383 -56.691,56.696 0,31.308 25.379,56.691 56.691,56.691 31.309,0 56.692,-25.383 56.692,-56.691" /><path
         id="path11905"
         style="fill:#231f20;fill-opacity:1;fill-rule:nonzero;stroke:none"
         d="m 482.887,526.258 c 0,-31.313 -25.383,-56.696 -56.692,-56.696 -31.312,0 -56.691,25.383 -56.691,56.696 0,31.308 25.379,56.691 56.691,56.691 31.309,0 56.692,-25.383 56.692,-56.691" /><path
         id="path11907"
         style="fill:#231f20;fill-opacity:1;fill-rule:nonzero;stroke:none"
         d="m 661.469,526.258 c 0,-31.313 -25.383,-56.696 -56.692,-56.696 -31.312,0 -56.695,25.383 -56.695,56.696 0,31.308 25.383,56.691 56.695,56.691 31.309,0 56.692,-25.383 56.692,-56.691" /></g></g></svg>