<?xml version="1.0" encoding="UTF-8" standalone="no"?>
<svg
   xmlns:dc="http://purl.org/dc/elements/1.1/"
   xmlns:cc="http://creativecommons.org/ns#"
   xmlns:rdf="http://www.w3.org/1999/02/22-rdf-syntax-ns#"
   xmlns:svg="http://www.w3.org/2000/svg"
   xmlns="http://www.w3.org/2000/svg"
   viewBox="0 0 304 304"
   height="304"
   width="304"
   xml:space="preserve"
   id="svg2319"
   version="1.1"><metadata
     id="metadata2325"><rdf:RDF><cc:Work
         rdf:about=""><dc:format>image/svg+xml</dc:format><dc:type
           rdf:resource="http://purl.org/dc/dcmitype/StillImage" /><dc:title></dc:title></cc:Work></rdf:RDF></metadata><defs
     id="defs2323" /><g
     transform="matrix(1.3333333,0,0,-1.3333333,0,304)"
     id="g2327"><g
       id="g2329"><path
         id="path2331"
         style="fill:#154889;fill-opacity:1;fill-rule:nonzero;stroke:none"
         d="M 227.406,114.328 C 227.406,51.711 176.645,0.945 114.023,0.945 51.402,0.945 0.637,51.711 0.637,114.328 c 0,62.621 50.765,113.387 113.386,113.387 62.622,0 113.383,-50.766 113.383,-113.387" /><path
         id="path2333"
         style="fill:#ffffff;fill-opacity:1;fill-rule:nonzero;stroke:none"
         d="M 28.984,85.273 H 199.062 V 49.843 H 28.984 Z" /><path
         id="path2335"
         style="fill:#ffffff;fill-opacity:1;fill-rule:nonzero;stroke:none"
         d="M 28.984,126.379 H 199.062 V 90.945 H 28.984 Z" /><path
         id="path2337"
         style="fill:#ffffff;fill-opacity:1;fill-rule:nonzero;stroke:none"
         d="m 140.953,36.379 c 0,-14.875 -12.058,-26.93 -26.93,-26.93 -14.871,0 -26.929,12.055 -26.929,26.93 0,14.871 12.058,26.93 26.929,26.93 14.872,0 26.93,-12.059 26.93,-26.93" /><path
         id="path2339"
         style="fill:#ffffff;fill-opacity:1;fill-rule:nonzero;stroke:none"
         d="m 10.984,149.195 c 0,0.582 0.192,1.153 0.539,1.617 l 0.536,0.762 c 0.379,0.504 0.699,1.051 0.949,1.629 l 3.691,8.238 c 0.363,0.825 1.18,1.36 2.082,1.36 h 11.231 v -2.258 l -10.809,-0.008 c -0.336,0 -0.641,-0.199 -0.777,-0.512 l -3.098,-7.16 H 30.012 V 141.117 H 13.254 c -1.254,0 -2.27,1.016 -2.27,2.27 l 0.055,5.863 z m 2.313,-8.98 h 5.422 l 0.062,-4.91 c 0,-0.782 -0.636,-1.414 -1.418,-1.414 h -2.695 c -0.781,0 -1.414,0.632 -1.414,1.414 z m 5.484,7.707 c 0,1.484 -1.207,2.691 -2.695,2.691 -1.488,0 -2.691,-1.207 -2.691,-2.691 0,-1.488 1.203,-2.695 2.691,-2.695 1.488,0 2.695,1.207 2.695,2.695" /><path
         id="path2341"
         style="fill:#ffffff;fill-opacity:1;fill-rule:nonzero;stroke:none"
         d="m 33.625,162.801 h 11.234 c 0.903,0 1.719,-0.535 2.079,-1.36 l 3.695,-8.242 c 0.25,-0.574 0.566,-1.121 0.941,-1.621 l 0.539,-0.766 c 0.352,-0.464 0.539,-1.035 0.539,-1.617 v -5.808 c 0,-1.254 -1.015,-2.27 -2.265,-2.27 H 33.625 v 11.746 h 14.684 l -3.094,7.16 c -0.137,0.313 -0.445,0.512 -0.781,0.512 l -10.668,0.008 h -0.141 v 2.258" /><path
         id="path2343"
         style="fill:#ffffff;fill-opacity:1;fill-rule:nonzero;stroke:none"
         d="m 44.918,140.215 h 5.422 l 0.047,-4.91 c 0,-0.782 -0.637,-1.414 -1.418,-1.414 h -2.692 c -0.785,0 -1.418,0.632 -1.418,1.414 v 0.004 l 0.059,4.906" /><path
         id="path2345"
         style="fill:#ffffff;fill-opacity:1;fill-rule:nonzero;stroke:none"
         d="m 93.66,191.918 c -1.012,-5.703 -5.969,-9.856 -11.762,-9.856 -6.593,0 -11.945,5.348 -11.945,11.946 v 10.156 c 0,6.598 5.352,11.945 11.945,11.945 5.793,0 10.75,-4.156 11.762,-9.855 h -5.219 c -0.906,2.844 -3.554,4.777 -6.543,4.777 -3.793,0 -6.867,-3.074 -6.867,-6.867 v -10.156 c 0,-3.793 3.074,-6.867 6.867,-6.867 2.989,0 5.637,1.929 6.543,4.777 z m 23.297,-9.559 h -4.777 v 2.465 c -0.844,-1.519 -2.446,-2.465 -4.184,-2.465 h -2.984 c -3.961,0 -7.168,3.211 -7.168,7.168 0,3.961 3.207,7.168 7.168,7.168 h 7.168 v 2.391 c 0,1.305 -0.942,2.422 -2.227,2.648 -0.844,0.149 -1.695,0.219 -2.555,0.219 -0.855,0 -1.71,-0.07 -2.55,-0.219 -0.844,-0.148 -1.567,-0.687 -1.946,-1.453 l -3.781,2.985 c 1.137,1.679 2.906,2.824 4.902,3.175 1.114,0.196 2.243,0.293 3.375,0.293 1.133,0 2.262,-0.097 3.379,-0.293 3.575,-0.625 6.18,-3.73 6.18,-7.355 z m -4.777,10.453 h -6.871 c -1.649,0 -2.985,-1.335 -2.985,-2.984 0,-1.648 1.336,-2.988 2.985,-2.988 h 3.882 c 1.649,0 2.989,1.34 2.989,2.988 z m 11.945,-10.453 v 23.895 h 4.777 v -2.699 c 1.532,1.894 3.836,2.996 6.274,2.996 1.847,0 3.64,-0.633 5.074,-1.797 l -3.395,-4.188 c -0.875,0.778 -2.003,1.207 -3.175,1.207 -2.637,0 -4.778,-2.14 -4.778,-4.777 v -14.637 z m 34.047,10.754 h -14.336 v 4.778 h 14.336 z" /><path
         id="path2347"
         style="fill:#ffffff;fill-opacity:1;fill-rule:nonzero;stroke:none"
         d="m 209.688,163.734 v -24.191 c 0,-3.621 -2.043,-6.93 -5.282,-8.547 -1.511,-0.758 -3.179,-1.152 -4.871,-1.152 -3.281,0 -6.387,1.48 -8.453,4.023 l 3.707,3.016 c 1.16,-1.43 2.902,-2.258 4.746,-2.258 0.949,0 1.887,0.219 2.735,0.645 1.617,0.808 2.64,2.464 2.64,4.273 v 2.996 c -1.531,-1.894 -3.836,-2.996 -6.273,-2.996 -4.453,0 -8.063,3.609 -8.063,8.062 v 8.364 c 0,4.453 3.61,8.062 8.063,8.062 2.437,0 4.742,-1.101 6.273,-2.996 v 2.699 h 4.778" /><path
         id="path2349"
         style="fill:#ffffff;fill-opacity:1;fill-rule:nonzero;stroke:none"
         d="m 164.891,139.844 v 23.89 h 4.777 v -2.699 c 1.531,1.895 3.836,2.996 6.273,2.996 4.454,0 8.063,-3.609 8.063,-8.062 v -16.125 h -4.777 v 14.633 c 0,2.636 -2.141,4.777 -4.778,4.777 -2.64,0 -4.781,-2.141 -4.781,-4.777 v -14.633 h -4.777" /><path
         id="path2351"
         style="fill:#ffffff;fill-opacity:1;fill-rule:nonzero;stroke:none"
         d="m 152.945,173.289 h 4.777 v -4.777 h -4.777 z" /><path
         id="path2353"
         style="fill:#ffffff;fill-opacity:1;fill-rule:nonzero;stroke:none"
         d="m 152.945,163.734 h 4.777 v -23.891 h -4.777 z" /><path
         id="path2355"
         style="fill:#ffffff;fill-opacity:1;fill-rule:nonzero;stroke:none"
         d="m 133.234,139.844 v 23.89 h 4.778 v -2.699 c 1.531,1.895 3.836,2.996 6.273,2.996 1.848,0 3.641,-0.633 5.074,-1.797 l -3.39,-4.187 c -0.875,0.777 -2.008,1.207 -3.18,1.207 -2.637,0 -4.777,-2.141 -4.777,-4.777 v -14.633 h -4.778" /><path
         id="path2357"
         style="fill:#ffffff;fill-opacity:1;fill-rule:nonzero;stroke:none"
         d="m 126.066,139.844 h -4.777 v 2.465 c -0.844,-1.524 -2.441,-2.465 -4.184,-2.465 h -2.984 c -3.961,0 -7.168,3.207 -7.168,7.164 0,3.961 3.207,7.168 7.168,7.168 h 7.168 v 2.39 c 0,1.305 -0.937,2.422 -2.227,2.649 -0.839,0.144 -1.695,0.219 -2.55,0.219 -0.86,0 -1.711,-0.075 -2.555,-0.219 -0.844,-0.149 -1.566,-0.688 -1.945,-1.453 l -3.778,2.984 c 1.133,1.68 2.903,2.824 4.899,3.176 1.113,0.195 2.246,0.293 3.379,0.293 1.129,0 2.261,-0.098 3.375,-0.293 3.574,-0.625 6.179,-3.731 6.179,-7.356 v -16.722" /><path
         id="path2359"
         style="fill:#ffffff;fill-opacity:1;fill-rule:nonzero;stroke:none"
         d="m 82.465,139.844 v 33.445 h 4.777 v -12.254 c 1.531,1.895 3.836,2.996 6.274,2.996 4.453,0 8.062,-3.609 8.062,-8.062 v -16.125 h -4.777 v 14.633 c 0,2.636 -2.141,4.777 -4.781,4.777 -2.637,0 -4.778,-2.141 -4.778,-4.777 v -14.633 h -4.777" /><path
         id="path2361"
         style="fill:#ffffff;fill-opacity:1;fill-rule:nonzero;stroke:none"
         d="m 56.184,143.668 3.371,3.387 c 1.879,-1.871 4.425,-2.922 7.082,-2.922 1.203,0 2.398,0.215 3.527,0.64 0.93,0.348 1.551,1.239 1.551,2.235 0,1.262 -0.985,2.308 -2.242,2.387 l -5.075,0.316 c -3.781,0.234 -6.722,3.367 -6.722,7.152 0,3.317 2.273,6.199 5.496,6.973 1.133,0.269 2.297,0.406 3.465,0.406 3.363,0 6.629,-1.14 9.258,-3.238 l -2.981,-3.734 c -1.781,1.421 -3.996,2.195 -6.277,2.195 -0.793,0 -1.582,-0.094 -2.352,-0.277 -1.074,-0.258 -1.828,-1.219 -1.828,-2.325 0,-1.261 0.981,-2.304 2.238,-2.383 l 5.075,-0.316 c 3.777,-0.238 6.722,-3.371 6.722,-7.156 0,-2.985 -1.855,-5.66 -4.652,-6.711 -1.664,-0.621 -3.426,-0.942 -5.203,-0.942 -3.918,0 -7.676,1.551 -10.453,4.313" /><path
         id="path2363"
         style="fill:#231f20;fill-opacity:1;fill-rule:nonzero;stroke:none"
         d="m 97.23,103.844 v 9.691 h 6.235 v -1.383 h -4.762 v -2.855 h 4.067 v -1.301 h -4.067 v -4.152 z m 9.004,0 h -1.386 v 6.922 h 1.386 z m 0,8.308 h -1.386 v 1.383 h 1.386 z m 2.075,-8.308 v 6.922 h 1.386 v -0.782 c 0.446,0.551 1.114,0.868 1.817,0.868 0.539,0 1.054,-0.184 1.472,-0.52 L 112,109.117 c -0.254,0.227 -0.582,0.352 -0.922,0.352 -0.762,0 -1.383,-0.621 -1.383,-1.387 v -4.238 z m 5.714,0 v 6.922 h 1.383 v -0.782 c 0.446,0.551 1.114,0.868 1.821,0.868 0.742,0 1.441,-0.352 1.882,-0.954 0.493,0.606 1.231,0.954 2.012,0.954 1.434,0 2.598,-1.161 2.598,-2.594 v -4.414 h -1.387 v 4.238 c 0,0.766 -0.621,1.387 -1.383,1.387 -0.765,0 -1.387,-0.621 -1.387,-1.387 v -4.238 h -1.382 v 4.238 c 0,0.766 -0.621,1.387 -1.387,1.387 -0.766,0 -1.387,-0.621 -1.387,-1.387 v -4.238 z m 16.793,0 h -1.386 v 0.711 c -0.242,-0.438 -0.707,-0.711 -1.211,-0.711 h -0.867 c -1.149,0 -2.079,0.929 -2.079,2.074 0,1.148 0.93,2.078 2.079,2.078 h 2.078 v 0.692 c 0,0.378 -0.274,0.703 -0.645,0.769 -0.246,0.043 -0.492,0.063 -0.738,0.063 -0.25,0 -0.496,-0.02 -0.742,-0.063 -0.243,-0.043 -0.453,-0.199 -0.563,-0.422 l -1.094,0.867 c 0.329,0.485 0.84,0.817 1.418,0.918 0.325,0.059 0.653,0.086 0.981,0.086 0.324,0 0.652,-0.027 0.976,-0.086 1.036,-0.179 1.793,-1.082 1.793,-2.132 z m -1.386,3.027 h -1.992 c -0.477,0 -0.864,-0.387 -0.864,-0.863 0,-0.481 0.387,-0.867 0.864,-0.867 h 1.128 c 0.477,0 0.864,0.386 0.864,0.867 v 0.863" /><path
         id="path2365"
         style="fill:#231f20;fill-opacity:1;fill-rule:nonzero;stroke:none"
         d="m 76.758,67.559 v 9.695 h 1.472 v -5.02 l 4.067,5.02 h 1.73 l -3.117,-3.809 3.465,-5.886 h -1.73 L 79.961,72.32 78.23,70.504 v -2.945 z m 14.023,2.945 h -4.328 v -0.176 c 0,-0.601 0.363,-1.14 0.926,-1.367 0.226,-0.09 0.473,-0.137 0.719,-0.137 0.562,0 1.101,0.246 1.468,0.676 l 1.051,-0.902 c -0.633,-0.735 -1.551,-1.16 -2.519,-1.16 -0.422,0 -0.844,0.082 -1.235,0.238 -1.086,0.433 -1.797,1.484 -1.797,2.652 v 1.387 c 0,1.574 1.278,2.855 2.856,2.855 1.578,0 2.859,-1.281 2.859,-2.855 z m -4.328,1.211 h 2.942 c 0,0.812 -0.661,1.469 -1.473,1.469 -0.813,0 -1.469,-0.657 -1.469,-1.469 z m 6.231,-4.156 v 6.925 h 1.386 v -0.781 c 0.442,0.547 1.11,0.867 1.817,0.867 1.289,0 2.336,-1.047 2.336,-2.336 V 67.559 H 96.84 v 4.242 c 0,0.765 -0.621,1.383 -1.387,1.383 -0.765,0 -1.383,-0.618 -1.383,-1.383 v -4.242 z m 7.617,0 v 6.925 h 1.387 v -0.781 c 0.441,0.547 1.109,0.867 1.816,0.867 1.289,0 2.336,-1.047 2.336,-2.336 v -4.675 h -1.383 v 4.242 c 0,0.765 -0.621,1.383 -1.387,1.383 -0.765,0 -1.382,-0.618 -1.382,-1.383 v -4.242 z m 7.097,0 v 1.125 l 3.461,4.589 h -3.289 v 1.211 h 5.024 v -1.039 l -3.465,-4.59 h 3.465 v -1.296 z m 12.293,2.945 h -4.328 v -0.176 c 0,-0.601 0.364,-1.14 0.922,-1.367 0.231,-0.09 0.477,-0.137 0.723,-0.137 0.562,0 1.101,0.246 1.469,0.676 l 1.05,-0.902 c -0.629,-0.735 -1.55,-1.16 -2.519,-1.16 -0.422,0 -0.844,0.082 -1.235,0.238 -1.085,0.433 -1.796,1.484 -1.796,2.652 v 1.387 c 0,1.574 1.281,2.855 2.855,2.855 1.578,0 2.859,-1.281 2.859,-2.855 z m -4.328,1.211 h 2.942 c 0,0.812 -0.66,1.469 -1.473,1.469 -0.812,0 -1.469,-0.657 -1.469,-1.469 z m 7.617,-4.156 h -1.386 v 6.925 h 1.386 z m 0,8.308 h -1.386 v 1.387 h 1.386 z m 7.243,-7.269 c -0.59,-0.711 -1.469,-1.125 -2.399,-1.125 -1.719,0 -3.113,1.394 -3.113,3.117 v 0.863 c 0,1.723 1.394,3.117 3.113,3.117 0.93,0 1.809,-0.414 2.399,-1.125 l -1.067,-0.886 c -0.328,0.398 -0.816,0.625 -1.332,0.625 -0.953,0 -1.73,-0.774 -1.73,-1.731 V 70.59 c 0,-0.957 0.777,-1.735 1.73,-1.735 0.516,0 1.004,0.231 1.332,0.625 z m 1.386,-1.039 v 9.695 h 1.383 v -3.551 c 0.446,0.547 1.113,0.867 1.82,0.867 1.29,0 2.336,-1.047 2.336,-2.336 v -4.675 h -1.386 v 4.242 c 0,0.765 -0.617,1.383 -1.383,1.383 -0.766,0 -1.387,-0.618 -1.387,-1.383 v -4.242 z m 13.157,2.945 h -4.328 v -0.176 c 0,-0.601 0.367,-1.14 0.925,-1.367 0.227,-0.09 0.473,-0.137 0.719,-0.137 0.566,0 1.102,0.246 1.469,0.676 l 1.051,-0.902 c -0.629,-0.735 -1.551,-1.16 -2.52,-1.16 -0.422,0 -0.844,0.082 -1.234,0.238 -1.086,0.433 -1.797,1.484 -1.797,2.652 v 1.387 c 0,1.574 1.281,2.855 2.859,2.855 1.574,0 2.856,-1.281 2.856,-2.855 z m -4.328,1.211 h 2.941 c 0,0.812 -0.656,1.469 -1.469,1.469 -0.812,0 -1.472,-0.657 -1.472,-1.469 z m 6.23,-4.156 v 6.925 h 1.387 v -0.781 c 0.441,0.547 1.109,0.867 1.816,0.867 1.293,0 2.34,-1.047 2.34,-2.336 v -4.675 h -1.387 v 4.242 c 0,0.765 -0.621,1.383 -1.386,1.383 -0.762,0 -1.383,-0.618 -1.383,-1.383 v -4.242 h -1.387" /><path
         id="path2367"
         style="fill:#231f20;fill-opacity:1;fill-rule:nonzero;stroke:none"
         d="m 95.676,34.676 v 4.82 h 1.719 c 0.953,0 1.722,-0.769 1.722,-1.723 v -1.375 c 0,-0.949 -0.769,-1.722 -1.722,-1.722 z m 0.73,0.687 h 0.989 c 0.546,0 0.992,0.446 0.992,0.992 v 1.461 c 0,0.547 -0.446,0.993 -0.992,0.993 h -0.989 z m 4.348,-0.687 h -0.692 v 3.441 h 0.692 z m 0,4.133 h -0.692 v 0.687 h 0.692 z m 3.785,-2.668 h -2.152 v -0.086 c 0,-0.301 0.183,-0.571 0.461,-0.68 0.113,-0.047 0.234,-0.07 0.355,-0.07 0.281,0 0.551,0.125 0.731,0.336 l 0.523,-0.45 c -0.312,-0.363 -0.769,-0.574 -1.254,-0.574 -0.211,0 -0.418,0.039 -0.613,0.117 -0.539,0.215 -0.891,0.739 -0.891,1.321 v 0.687 c 0,0.785 0.637,1.418 1.418,1.418 0.785,0 1.422,-0.633 1.422,-1.418 z m -2.152,0.601 h 1.465 c 0,0.403 -0.329,0.731 -0.735,0.731 -0.402,0 -0.73,-0.328 -0.73,-0.731 z m 3.097,-2.066 v 3.441 h 0.688 V 37.73 c 0.223,0.274 0.555,0.43 0.906,0.43 0.641,0 1.16,-0.519 1.16,-1.16 v -2.324 h -0.687 v 2.109 c 0,0.379 -0.309,0.688 -0.688,0.688 -0.383,0 -0.691,-0.309 -0.691,-0.688 v -2.109 z m 3.528,0.551 0.484,0.488 c 0.274,-0.27 0.641,-0.418 1.024,-0.418 0.171,0 0.343,0.027 0.507,0.09 0.133,0.051 0.223,0.179 0.223,0.324 0,0.18 -0.141,0.332 -0.324,0.344 l -0.731,0.043 c -0.543,0.035 -0.968,0.488 -0.968,1.031 0,0.476 0.328,0.894 0.793,1.004 0.164,0.039 0.332,0.058 0.5,0.058 0.484,0 0.953,-0.164 1.332,-0.464 l -0.43,-0.539 c -0.258,0.207 -0.574,0.316 -0.902,0.316 -0.114,0 -0.231,-0.012 -0.34,-0.039 -0.157,-0.039 -0.266,-0.176 -0.266,-0.336 0,-0.18 0.145,-0.332 0.324,-0.344 l 0.731,-0.047 c 0.547,-0.031 0.969,-0.484 0.969,-1.027 0,-0.434 -0.266,-0.816 -0.668,-0.969 -0.243,-0.09 -0.497,-0.137 -0.75,-0.137 -0.567,0 -1.106,0.223 -1.508,0.622 z m 5.078,-0.551 h -0.43 c -0.43,0 -0.773,0.347 -0.773,0.777 v 2.106 h -0.348 v 0.558 h 0.348 v 1.035 h 0.687 v -1.035 h 0.516 v -0.558 h -0.516 v -2.02 c 0,-0.121 0.098,-0.219 0.215,-0.219 h 0.301 z m 0.601,0.551 0.489,0.488 c 0.269,-0.27 0.636,-0.418 1.019,-0.418 0.172,0 0.344,0.027 0.508,0.09 0.133,0.051 0.223,0.179 0.223,0.324 0,0.18 -0.141,0.332 -0.325,0.344 l -0.73,0.043 c -0.543,0.035 -0.969,0.488 -0.969,1.031 0,0.476 0.328,0.894 0.793,1.004 0.164,0.039 0.332,0.058 0.5,0.058 0.485,0 0.953,-0.164 1.332,-0.464 l -0.429,-0.539 c -0.254,0.207 -0.575,0.316 -0.903,0.316 -0.113,0 -0.23,-0.012 -0.34,-0.039 -0.156,-0.039 -0.261,-0.176 -0.261,-0.336 0,-0.18 0.14,-0.332 0.32,-0.344 l 0.73,-0.047 c 0.547,-0.031 0.969,-0.484 0.969,-1.027 0,-0.434 -0.265,-0.816 -0.668,-0.969 -0.242,-0.09 -0.496,-0.137 -0.75,-0.137 -0.566,0 -1.105,0.223 -1.508,0.622 z m 4.477,-0.551 h -0.691 v 3.441 h 0.691 z m 0,4.133 h -0.691 v 0.687 h 0.691 z m 3.785,-2.668 h -2.152 v -0.086 c 0,-0.301 0.183,-0.571 0.461,-0.68 0.113,-0.047 0.234,-0.07 0.355,-0.07 0.281,0 0.551,0.125 0.735,0.336 l 0.519,-0.45 c -0.312,-0.363 -0.769,-0.574 -1.254,-0.574 -0.207,0 -0.418,0.039 -0.609,0.117 -0.539,0.215 -0.895,0.739 -0.895,1.321 v 0.687 c 0,0.785 0.637,1.418 1.418,1.418 0.785,0 1.422,-0.633 1.422,-1.418 z m -2.152,0.601 h 1.465 c 0,0.403 -0.328,0.731 -0.735,0.731 -0.402,0 -0.73,-0.328 -0.73,-0.731 z m 5.765,1.375 v -3.484 c 0,-0.52 -0.293,-0.996 -0.761,-1.231 -0.215,-0.109 -0.457,-0.164 -0.7,-0.164 -0.472,0 -0.921,0.211 -1.218,0.578 l 0.535,0.434 c 0.168,-0.203 0.418,-0.324 0.683,-0.324 0.137,0 0.27,0.031 0.391,0.094 0.234,0.117 0.383,0.351 0.383,0.613 v 0.433 c -0.223,-0.273 -0.555,-0.433 -0.902,-0.433 -0.641,0 -1.165,0.519 -1.165,1.164 V 37 c 0,0.641 0.524,1.16 1.165,1.16 0.347,0 0.679,-0.156 0.902,-0.43 v 0.387 z m -0.687,-2.105 v 0.773 c 0,0.379 -0.309,0.688 -0.688,0.688 -0.382,0 -0.687,-0.309 -0.687,-0.688 v -0.773 c 0,-0.379 0.305,-0.692 0.687,-0.692 0.379,0 0.688,0.313 0.688,0.692 z m 4.473,0.129 h -2.149 v -0.086 c 0,-0.301 0.18,-0.571 0.457,-0.68 0.117,-0.047 0.238,-0.07 0.36,-0.07 0.281,0 0.546,0.125 0.73,0.336 l 0.523,-0.45 c -0.312,-0.363 -0.773,-0.574 -1.253,-0.574 -0.211,0 -0.418,0.039 -0.614,0.117 -0.539,0.215 -0.89,0.739 -0.89,1.321 v 0.687 c 0,0.785 0.632,1.418 1.418,1.418 0.785,0 1.418,-0.633 1.418,-1.418 z m -2.149,0.601 h 1.461 c 0,0.403 -0.324,0.731 -0.73,0.731 -0.403,0 -0.731,-0.328 -0.731,-0.731 z m 4.301,-2.066 h -0.43 c -0.426,0 -0.773,0.347 -0.773,0.777 v 4.043 h 0.687 v -3.957 c 0,-0.121 0.098,-0.219 0.215,-0.219 h 0.301 v -0.644" /><path
         id="path2369"
         style="fill:#154889;fill-opacity:1;fill-rule:nonzero;stroke:none"
         d="m 50.387,147.922 c 0,-1.488 -1.207,-2.695 -2.696,-2.695 -1.484,0 -2.691,1.207 -2.691,2.695 0,1.484 1.207,2.691 2.691,2.691 1.489,0 2.696,-1.207 2.696,-2.691" /><path
         id="path2371"
         style="fill:#154889;fill-opacity:1;fill-rule:nonzero;stroke:none"
         d="m 204.91,149.102 c 0,-2.641 -2.14,-4.782 -4.777,-4.782 -2.641,0 -4.781,2.141 -4.781,4.782 v 5.375 c 0,2.636 2.14,4.777 4.781,4.777 2.637,0 4.777,-2.141 4.777,-4.777 v -5.375" /><path
         id="path2373"
         style="fill:#154889;fill-opacity:1;fill-rule:nonzero;stroke:none"
         d="m 121.289,150.293 h -6.867 c -1.652,0 -2.988,-1.336 -2.988,-2.984 0,-1.649 1.336,-2.989 2.988,-2.989 h 3.879 c 1.648,0 2.988,1.34 2.988,2.989 v 2.984" /></g></g></svg>