<?xml version="1.0" encoding="UTF-8" standalone="no"?>
<svg
   xmlns:dc="http://purl.org/dc/elements/1.1/"
   xmlns:cc="http://creativecommons.org/ns#"
   xmlns:rdf="http://www.w3.org/1999/02/22-rdf-syntax-ns#"
   xmlns:svg="http://www.w3.org/2000/svg"
   xmlns="http://www.w3.org/2000/svg"
   viewBox="0 0 877.5 877.5"
   height="877.5"
   width="877.5"
   xml:space="preserve"
   version="1.1"
   id="svg4221"><metadata
     id="metadata4227"><rdf:RDF><cc:Work
         rdf:about=""><dc:format>image/svg+xml</dc:format><dc:type
           rdf:resource="http://purl.org/dc/dcmitype/StillImage" /><dc:title></dc:title></cc:Work></rdf:RDF></metadata><defs
     id="defs4225"><clipPath
       id="clipPath4239"
       clipPathUnits="userSpaceOnUse"><path
         id="path4241"
         d="M 1,1 701,1 701,701 1,701 1,1 Z" /></clipPath></defs><g
     transform="matrix(1.25,0,0,-1.25,0,877.5)"
     id="g4229"><g
       id="g4231"><g
         id="g4233"><g
           id="g4235"><g
             clip-path="url(#clipPath4239)"
             id="g4237"><g
               id="g4243"><path
                 id="path4245"
                 style="fill:#f0ca00;fill-opacity:1;fill-rule:evenodd;stroke:none"
                 d="m 700.992,351 c 0,-64.43 -14.652,-119.195 -46.883,-175.012 C 621.906,120.203 581.797,80.094 526.012,47.891 470.195,15.66 415.43,1.008 351,1.008 286.57,1.008 231.805,15.66 176.016,47.891 120.203,80.094 80.121,120.203 47.891,175.988 15.691,231.805 1.008,286.57 1.008,351 c 0,64.43 14.683,119.195 46.883,174.984 32.23,55.813 72.312,95.895 128.125,128.125 55.789,32.2 110.554,46.883 174.984,46.883 64.43,0 119.195,-14.683 175.012,-46.883 55.785,-32.23 95.894,-72.312 128.097,-128.125 C 686.34,470.195 700.992,415.43 700.992,351 Z" /><path
                 id="path4247"
                 style="fill:#f0ca00;fill-opacity:1;fill-rule:evenodd;stroke:none"
                 d="m 700.992,351 c 0,-64.43 -14.652,-119.195 -46.883,-175.012 C 621.906,120.203 581.797,80.094 526.012,47.891 470.195,15.66 415.43,1.008 351,1.008 286.57,1.008 231.805,15.66 176.016,47.891 120.203,80.094 80.121,120.203 47.891,175.988 15.691,231.805 1.008,286.57 1.008,351 c 0,64.43 14.683,119.195 46.883,174.984 32.23,55.813 72.312,95.895 128.125,128.125 55.789,32.2 110.554,46.883 174.984,46.883 64.43,0 119.195,-14.683 175.012,-46.883 55.785,-32.23 95.894,-72.312 128.097,-128.125 C 686.34,470.195 700.992,415.43 700.992,351 Z" /><path
                 id="path4249"
                 style="fill:#000000;fill-opacity:1;fill-rule:evenodd;stroke:#000000;stroke-width:0.562805;stroke-linecap:butt;stroke-linejoin:miter;stroke-miterlimit:4;stroke-dasharray:none;stroke-opacity:1"
                 d="m 317.324,634.199 174.406,0 0,-86.547 -174.406,0 0,86.547 z" /><path
                 id="path4251"
                 style="fill:#000000;fill-opacity:1;fill-rule:evenodd;stroke:#000000;stroke-width:0.56500697;stroke-linecap:butt;stroke-linejoin:miter;stroke-miterlimit:4;stroke-dasharray:none;stroke-opacity:1"
                 d="m 308.395,606.887 -28.993,-2.934 -7.98,-29.539 -51.254,-7.98 -3.375,-27.614 -8.387,0 0,-13.859 34.36,0 0,-0.141 c 0.039,-12.816 10.476,-23.172 23.289,-23.132 12.816,0.039 23.168,10.457 23.133,23.273 l 119.039,0 c -0.004,-0.199 -0.02,-0.402 -0.02,-0.602 0.039,-12.816 10.457,-23.168 23.273,-23.129 12.813,0.04 23.184,10.458 23.145,23.27 0,0.152 -0.012,0.309 -0.016,0.461 l 24.774,0 12.34,6.301 0,7.558 -42.11,0 c -4.265,5.387 -10.871,8.832 -18.277,8.809 -7.352,-0.02 -13.879,-3.461 -18.113,-8.809 l -104.828,0 0,68.067 z" /><path
                 id="path4253"
                 style="fill:#000000;fill-opacity:1;fill-rule:evenodd;stroke:none"
                 d="m 42.906,478.27 -8,-23.602 302.223,0 0,-433.25 23.625,0 0,433.25 304.551,0 -8,23.602 -614.399,0 z" /><path
                 id="path4255"
                 style="fill:#000000;fill-opacity:1;fill-rule:evenodd;stroke:none"
                 d="m 147.387,216.586 0,179.266 -30.274,-22.258 0,32.054 30.274,22.258 30.273,0 0,-211.32 -30.273,0" /><path
                 id="path4257"
                 style="fill:#000000;fill-opacity:1;fill-rule:evenodd;stroke:none"
                 d="m 204.012,260.215 0,124.062 c 0,14.047 4.453,25.129 13.359,33.243 9.102,8.113 19.688,12.168 31.754,12.168 12.07,0 22.559,-4.055 31.461,-12.168 9.102,-8.114 13.652,-19.196 13.652,-33.243 l -30.273,0 c 0,4.352 -1.383,7.914 -4.153,10.684 -2.769,2.969 -6.332,4.453 -10.687,4.453 -4.352,0 -7.914,-1.484 -10.684,-4.453 -2.769,-2.77 -4.156,-6.332 -4.156,-10.684 l 0,-28.492 c 1.981,0.988 3.86,1.781 5.641,2.375 1.781,0.789 3.562,1.485 5.344,2.078 2.769,0.789 5.539,1.383 8.308,1.782 2.77,0.394 5.641,0.593 8.61,0.593 5.339,0 10.289,-1.289 14.839,-3.859 4.551,-2.574 8.11,-5.836 10.684,-9.797 0.394,-0.594 0.789,-1.285 1.187,-2.074 0.395,-0.594 0.79,-1.188 1.188,-1.781 1.582,-3.364 2.672,-6.926 3.262,-10.688 0.593,-3.758 0.89,-8.211 0.89,-13.355 l 0,-60.844 c 0,-14.047 -4.55,-25.129 -13.652,-33.238 -8.902,-7.915 -19.391,-11.875 -31.461,-11.875 -12.066,0 -22.652,3.96 -31.754,11.875 -8.906,8.109 -13.359,19.191 -13.359,33.238 m 30.273,60.547 0,-60.547 c 0,-4.551 1.485,-8.211 4.453,-10.981 3.168,-2.769 6.629,-4.156 10.387,-4.156 3.961,0 7.422,1.387 10.391,4.156 2.968,2.77 4.449,6.43 4.449,10.981 l 0,60.547 c 0,4.55 -1.481,8.211 -4.449,10.984 -2.969,2.77 -6.43,4.152 -10.391,4.152 -3.758,0 -7.219,-1.382 -10.387,-4.152 -2.968,-2.773 -4.453,-6.434 -4.453,-10.984" /><path
                 id="path4259"
                 style="fill:#000000;fill-opacity:1;fill-rule:evenodd;stroke:none"
                 d="m 428.984,312.156 0,26.711 c 9.102,0 15.336,1.09 18.7,3.266 3.562,2.176 5.343,7.222 5.343,15.137 l 0,27.304 c 0,4.352 -1.386,7.914 -4.156,10.684 -2.57,2.769 -6.133,4.156 -10.683,4.156 -4.157,0 -7.422,-1.09 -9.797,-3.266 -2.176,-2.175 -3.661,-4.648 -4.45,-7.418 -0.199,-0.593 -0.398,-1.285 -0.593,-2.078 l 0,-19.293 -30.274,0 0,17.512 c 0,12.465 4.449,23.051 13.356,31.758 9.101,8.707 19.886,13.059 32.351,13.059 6.727,0 12.563,-1.188 17.512,-3.563 4.945,-2.375 9,-4.945 12.168,-7.715 l 1.781,-1.781 c 0.594,-0.594 1.086,-1.188 1.485,-1.781 0.195,-0.2 0.394,-0.496 0.589,-0.891 0.399,-0.199 0.696,-0.496 0.891,-0.891 3.367,-4.351 5.84,-9.496 7.422,-15.433 1.781,-5.738 2.672,-14.938 2.672,-27.602 0,-11.871 -0.594,-20.379 -1.781,-25.523 -0.989,-4.949 -3.958,-9.399 -8.907,-13.356 -0.988,-0.793 -2.175,-1.683 -3.558,-2.672 -1.387,-0.792 -2.871,-1.683 -4.453,-2.671 1.582,-0.989 2.968,-1.981 4.156,-2.969 1.383,-0.789 2.672,-1.68 3.855,-2.672 5.344,-4.551 8.41,-9.695 9.203,-15.434 0.989,-5.738 1.485,-14.839 1.485,-27.304 0,-12.266 -0.399,-21.071 -1.188,-26.414 -0.793,-5.145 -2.375,-9.696 -4.75,-13.653 -0.394,-0.593 -0.789,-1.187 -1.187,-1.781 -0.196,-0.394 -0.492,-0.891 -0.891,-1.484 -3.758,-5.539 -8.605,-10.09 -14.543,-13.653 -5.933,-3.562 -13.554,-5.343 -22.851,-5.343 -1.981,0 -3.957,0.101 -5.938,0.296 -1.976,0.2 -3.957,0.594 -5.933,1.188 -8.313,1.781 -15.93,6.035 -22.856,12.766 -6.726,6.921 -10.09,17.113 -10.09,30.566 l 0,17.215 30.274,0 0,-15.731 c 0,-4.746 1.285,-8.703 3.859,-11.871 2.77,-2.969 6.43,-4.453 10.981,-4.453 4.55,0 8.113,1.484 10.683,4.453 2.77,3.168 4.156,7.321 4.156,12.465 l 0,30.274 c 0,8.113 -1.582,13.457 -4.75,16.027 -2.968,2.574 -9.398,3.859 -19.293,3.859" /><path
                 id="path4261"
                 style="fill:#000000;fill-opacity:1;fill-rule:evenodd;stroke:none"
                 d="m 503.215,260.215 0,124.062 c 0,14.047 4.449,25.129 13.355,33.243 9.102,8.113 19.688,12.168 31.758,12.168 12.067,0 22.555,-4.055 31.457,-12.168 9.102,-8.114 13.653,-19.196 13.653,-33.243 l 0,-124.062 c 0,-14.047 -4.551,-25.129 -13.653,-33.238 -8.902,-7.915 -19.39,-11.875 -31.457,-11.875 -12.07,0 -22.656,3.96 -31.758,11.875 -8.906,8.109 -13.355,19.191 -13.355,33.238 m 30.273,124.062 0,-124.062 c 0,-4.352 1.383,-8.012 4.153,-10.981 2.769,-2.769 6.332,-4.156 10.687,-4.156 4.352,0 7.914,1.387 10.684,4.156 2.769,2.969 4.156,6.629 4.156,10.981 l 0,124.062 c 0,4.352 -1.387,7.914 -4.156,10.684 -2.77,2.969 -6.332,4.453 -10.684,4.453 -4.355,0 -7.918,-1.484 -10.687,-4.453 -2.77,-2.77 -4.157,-6.332 -4.153,-10.684" /><path
                 id="path4263"
                 style="fill:#000000;fill-opacity:1;fill-rule:nonzero;stroke:none"
                 d="m 250.23,192.82 -20.125,-37.175 12.602,0 0,-71.926 17.074,0 0,71.926 12.399,0 -21.95,37.175 z" /><path
                 id="path4265"
                 style="fill:#000000;fill-opacity:1;fill-rule:nonzero;stroke:none"
                 d="m 186.457,83.719 20.125,37.176 -12.602,0 0,71.925 -17.074,0 0,-71.925 -12.402,0 21.953,-37.176 z" /><path
                 id="path4267"
                 style="fill:#000000;fill-opacity:1;fill-rule:nonzero;stroke:none"
                 d="m 493.43,192.82 -20.125,-37.175 12.597,0 0,-71.926 17.078,0 0,71.926 12.399,0 -21.949,37.175 z" /></g></g></g></g></g></g></svg>