<?xml version="1.0" encoding="UTF-8" standalone="no"?>
<svg
   xmlns:dc="http://purl.org/dc/elements/1.1/"
   xmlns:cc="http://creativecommons.org/ns#"
   xmlns:rdf="http://www.w3.org/1999/02/22-rdf-syntax-ns#"
   xmlns:svg="http://www.w3.org/2000/svg"
   xmlns="http://www.w3.org/2000/svg"
   viewBox="0 0 296.48969 296.48969"
   height="296.48969"
   width="296.48969"
   xml:space="preserve"
   version="1.1"
   id="svg4363"><metadata
     id="metadata4369"><rdf:RDF><cc:Work
         rdf:about=""><dc:format>image/svg+xml</dc:format><dc:type
           rdf:resource="http://purl.org/dc/dcmitype/StillImage" /><dc:title></dc:title></cc:Work></rdf:RDF></metadata><defs
     id="defs4367" /><g
     transform="matrix(1.25,0,0,-1.25,0,296.48968)"
     id="g4371"><g
       id="g4373"><path
         id="path4375"
         style="fill:#f0ca00;fill-opacity:1;fill-rule:nonzero;stroke:none"
         d="m 118.598,0.801 c 65.054,0 117.793,52.738 117.793,117.793 0,65.059 -52.739,117.797 -117.793,117.797 C 53.539,236.391 0.801,183.653 0.801,118.594 0.801,53.539 53.539,0.801 118.598,0.801" /><path
         id="path4377"
         style="fill:#000000;fill-opacity:1;fill-rule:nonzero;stroke:none"
         d="m 226.801,165.332 -216.262,-0.019 -2.969,-7.188 107.492,0.028 0,-157.352 7.208,0 0,157.352 107.179,0.023 -2.648,7.156 z" /><path
         id="path4379"
         style="fill:#000000;fill-opacity:1;fill-rule:nonzero;stroke:none"
         d="m 55.535,76.715 0,-26.355 -5.23,0 9.789,-22.434 9.793,22.434 -5.231,0 0,26.355 -9.121,0 z" /><path
         id="path4381"
         style="fill:#000000;fill-opacity:1;fill-rule:nonzero;stroke:none"
         d="m 94.848,76.711 -9.789,-22.433 5.222,0 0,-26.348 9.121,0 0,26.348 5.235,0 -9.789,22.433 z" /><path
         id="path4383"
         style="fill:#000000;fill-opacity:1;fill-rule:nonzero;stroke:none"
         d="m 171.059,76.711 -9.789,-22.433 5.222,0 0,-26.348 9.121,0 0,26.348 5.235,0 -9.789,22.433 z" /><path
         id="path4385"
         style="fill:#000000;fill-opacity:1;fill-rule:nonzero;stroke:none"
         d="m 172.648,94.957 0,37.973 c 0,7.625 6.184,13.809 13.809,13.809 7.625,0 13.805,-6.184 13.805,-13.809 l 0,-37.973 c 0,-7.625 -6.18,-13.808 -13.805,-13.808 -7.625,0 -13.809,6.183 -13.809,13.808 m 9.204,0 c 0,-2.543 2.062,-4.601 4.605,-4.601 2.539,0 4.602,2.058 4.602,4.601 l 0,37.973 c 0,2.543 -2.063,4.605 -4.602,4.605 -2.543,0 -4.605,-2.062 -4.605,-4.605 l 0,-37.973 z" /><path
         id="path4387"
         style="fill:#000000;fill-opacity:1;fill-rule:nonzero;stroke:none"
         d="m 90.73,146.348 c -7.625,0 -13.808,-6.184 -13.808,-13.809 l 0,-37.976 c 0,-7.621 6.183,-13.805 13.808,-13.805 7.625,0 13.809,6.184 13.809,13.805 l 0,37.976 c 0,7.625 -6.184,13.809 -13.809,13.809 z m 0,-9.207 c 2.543,0 4.602,-2.059 4.602,-4.602 l 0,-37.976 c 0,-2.539 -2.059,-4.602 -4.602,-4.602 -2.542,0 -4.601,2.063 -4.601,4.602 l 0,37.976 c 0,2.543 2.059,4.602 4.601,4.602 z" /><path
         id="path4389"
         style="fill:#000000;fill-opacity:1;fill-rule:nonzero;stroke:none"
         d="m 48.652,110.051 0,8.289 c 2.825,0 4.758,0.336 5.805,1.012 1.105,0.676 1.656,2.242 1.656,4.695 l 0,8.473 c 0,1.351 -0.429,2.457 -1.289,3.316 -0.797,0.86 -1.902,1.289 -3.316,1.289 -1.289,0 -2.301,-0.336 -3.039,-1.011 -0.676,-0.676 -1.137,-1.442 -1.379,-2.301 -0.063,-0.188 -0.125,-0.403 -0.188,-0.645 l 0,-5.988 -9.39,0 0,5.434 c 0,3.867 1.379,7.152 4.144,9.855 2.824,2.699 6.168,4.051 10.035,4.051 2.09,0 3.899,-0.367 5.434,-1.106 1.535,-0.734 2.797,-1.535 3.777,-2.394 l 0.551,-0.551 c 0.188,-0.184 0.34,-0.371 0.461,-0.555 0.063,-0.058 0.125,-0.152 0.184,-0.273 0.125,-0.063 0.214,-0.156 0.277,-0.277 1.043,-1.352 1.813,-2.95 2.305,-4.789 0.55,-1.782 0.828,-4.637 0.828,-8.567 0,-3.683 -0.184,-6.324 -0.555,-7.918 -0.305,-1.535 -1.226,-2.918 -2.762,-4.144 -0.308,-0.246 -0.675,-0.524 -1.105,-0.828 -0.43,-0.247 -0.891,-0.524 -1.383,-0.833 0.492,-0.304 0.922,-0.613 1.293,-0.917 0.43,-0.247 0.828,-0.524 1.195,-0.833 1.657,-1.41 2.61,-3.007 2.856,-4.789 0.308,-1.777 0.461,-4.601 0.461,-8.472 0,-3.805 -0.125,-6.535 -0.371,-8.196 -0.242,-1.597 -0.735,-3.007 -1.473,-4.234 L 63.297,86.289 C 63.234,86.168 63.145,86.012 63.02,85.828 61.855,84.11 60.352,82.7 58.508,81.594 c -1.844,-1.105 -4.207,-1.66 -7.09,-1.66 -0.617,0 -1.23,0.031 -1.844,0.094 -0.613,0.062 -1.226,0.183 -1.84,0.367 -2.582,0.555 -4.945,1.875 -7.093,3.961 -2.086,2.148 -3.129,5.312 -3.129,9.484 l 0,5.344 9.39,0 0,-4.883 c 0,-1.473 0.403,-2.699 1.2,-3.683 0.859,-0.918 1.996,-1.379 3.406,-1.379 1.414,0 2.519,0.461 3.316,1.379 0.86,0.984 1.289,2.273 1.289,3.867 l 0,9.394 c 0,2.52 -0.492,4.176 -1.472,4.973 -0.922,0.801 -2.918,1.199 -5.989,1.199 z" /><path
         id="path4391"
         style="fill:#000000;fill-opacity:1;fill-rule:nonzero;stroke:none"
         d="m 160.355,146.836 0,-8.84 -18.605,0 0,-17.683 c 0.859,0.859 1.965,1.566 3.316,2.117 1.352,0.613 2.856,0.922 4.512,0.922 3.195,0 5.774,-0.984 7.738,-2.949 2.024,-1.965 3.039,-4.848 3.039,-8.657 l 0,-16.945 c 0,-4.359 -1.414,-7.797 -4.238,-10.312 -2.762,-2.457 -6.015,-3.684 -9.762,-3.684 -3.746,0 -7.031,1.227 -9.855,3.684 -2.762,2.515 -4.141,5.953 -4.141,10.312 l 0,2.766 9.391,0 0,-2.395 c 0,-1.597 0.461,-2.855 1.383,-3.777 0.922,-0.86 2.058,-1.289 3.406,-1.289 1.414,0 2.488,0.429 3.223,1.289 0.8,0.859 1.199,2.055 1.199,3.59 l 0,15.383 c 0,1.289 -0.43,2.394 -1.289,3.312 -0.797,0.922 -1.844,1.383 -3.133,1.383 -1.043,0 -1.871,-0.215 -2.484,-0.645 -0.614,-0.429 -1.106,-0.89 -1.473,-1.383 -0.187,-0.304 -0.34,-0.613 -0.461,-0.917 -0.125,-0.247 -0.246,-0.461 -0.371,-0.645 l -8.289,0 0,35.363 26.894,0 z" /><path
         id="path4393"
         style="fill:#000000;fill-opacity:1;fill-rule:nonzero;stroke:none"
         d="m 107.809,215.578 -2.27,-4.261 -34.004,2.82 -0.723,-3.43 31.786,-4.906 -1.516,-2.848 -9.223,0 -1.261,-3.066 -10.2,0.031 -5.586,-8.535 14.137,-13.797 31.578,0.016 31.578,-0.016 14.137,13.797 -5.586,8.535 -10.195,-0.031 -1.262,3.066 -7.847,0 -8.93,12.625 -24.613,0 z" /></g></g></svg>