<?xml version="1.0" encoding="UTF-8" standalone="no"?>
<svg
   xmlns:dc="http://purl.org/dc/elements/1.1/"
   xmlns:cc="http://creativecommons.org/ns#"
   xmlns:rdf="http://www.w3.org/1999/02/22-rdf-syntax-ns#"
   xmlns:svg="http://www.w3.org/2000/svg"
   xmlns="http://www.w3.org/2000/svg"
   viewBox="0 0 875.13745 875"
   height="875"
   width="875.13745"
   xml:space="preserve"
   version="1.1"
   id="svg3611"><metadata
     id="metadata3617"><rdf:RDF><cc:Work
         rdf:about=""><dc:format>image/svg+xml</dc:format><dc:type
           rdf:resource="http://purl.org/dc/dcmitype/StillImage" /><dc:title></dc:title></cc:Work></rdf:RDF></metadata><defs
     id="defs3615" /><g
     transform="matrix(1.25,0,0,-1.25,0,875)"
     id="g3619"><g
       id="g3621"><path
         id="path3623"
         style="fill:#e79c00;fill-opacity:1;fill-rule:evenodd;stroke:none"
         d="M 700,349.996 C 700,285.566 685.344,230.801 653.113,174.988 620.914,119.199 580.801,79.086 525.012,46.887 469.199,14.656 414.434,0 350.004,0 285.566,0 230.801,14.656 175.016,46.887 119.203,79.086 79.121,119.199 46.887,174.988 14.684,230.801 0,285.566 0,349.996 c 0,64.438 14.684,119.203 46.887,174.988 32.234,55.813 72.316,95.895 128.129,128.129 55.785,32.203 110.55,46.887 174.988,46.887 64.43,0 119.195,-14.684 175.008,-46.887 55.789,-32.234 95.902,-72.316 128.101,-128.129 C 685.344,469.199 700,414.434 700,349.996 Z" /><path
         id="path3625"
         style="fill:#000000;fill-opacity:1;fill-rule:evenodd;stroke:none"
         d="m 0.301,362.062 -0.274,-11.863 0.274,-11.734 699.199,0 0.609,11.734 -0.609,11.863 -699.199,0 z" /><path
         id="path3627"
         style="fill:#000000;fill-opacity:1;fill-rule:evenodd;stroke:none"
         d="m 193.824,260.473 c -11.09,-0.157 -16.226,-1.442 -25.195,-6.914 l -4.43,-11.43 -49.203,13.195 -2.066,-7.363 45.078,-21.836 c -0.891,-2.238 -1.371,-4.613 -1.985,-6.937 l -5.656,-0.11 -48.758,0 c -4.168,0 -6.933,-1.414 -9.047,-6.406 -1.492,-3.527 0.704,-7.789 0.704,-7.789 32.507,-44.336 0.437,0.41 32.476,-44.821 4.985,-7.031 10.578,-5.746 10.578,-5.746 l 153.36,-0.828 c 6.254,0 7.797,8.703 5.004,14.598 -10.524,22.215 -10.297,21.719 -10.047,21.219 -0.004,0.007 -0.016,0.031 -0.02,0.043 l -0.023,0.086 c -0.309,0.687 -2.125,4.586 -10,21.324 -4.266,9.058 -14.047,8.32 -14.047,8.32 l -22.285,0 c -8.793,16.145 -8.977,16.317 -18.067,34.481 -9.273,5.304 -20.453,6.875 -26.371,6.914 z" /><path
         id="path3629"
         style="fill:#000000;fill-opacity:1;fill-rule:nonzero;stroke:none"
         d="m 136.559,475.418 c 0,-12.836 -10.407,-23.238 -23.243,-23.238 -12.836,0 -23.242,10.402 -23.242,23.238 0,12.836 10.406,23.242 23.242,23.242 12.836,0 23.243,-10.406 23.243,-23.242 z" /><path
         id="path3631"
         style="fill:#000000;fill-opacity:1;fill-rule:nonzero;stroke:none"
         d="m 279.527,475.418 c 0,-12.836 -10.406,-23.238 -23.242,-23.238 -12.836,0 -23.242,10.402 -23.242,23.238 0,12.836 10.406,23.242 23.242,23.242 12.836,0 23.242,-10.406 23.242,-23.242 z" /><path
         id="path3633"
         style="fill:#000000;fill-opacity:1;fill-rule:evenodd;stroke:none"
         d="m 157.32,578.969 -13.531,-35.094 -60.34,-4.746 0,-41.414 200.653,0 0,81.426 -126.782,-0.172 z" /><path
         id="path3635"
         style="fill:#000000;fill-opacity:1;fill-rule:evenodd;stroke:none"
         d="m 397.887,533.98 0,51.958 c 0,4.792 -1.688,8.878 -5.063,12.253 -3.375,3.375 -7.461,5.063 -12.254,5.063 -4.797,0 -8.882,-1.688 -12.258,-5.063 -3.374,-3.375 -5.062,-7.461 -5.062,-12.253 l 0,-51.958 c 0,-4.796 1.688,-8.882 5.062,-12.257 3.376,-3.375 7.461,-5.063 12.258,-5.063 4.793,0 8.879,1.688 12.254,5.063 3.375,3.375 5.063,7.461 5.063,12.257 z m 34.64,51.958 0,-138.555 c 0,-14.387 -5.062,-26.645 -15.187,-36.77 -10.125,-10.125 -22.383,-15.187 -36.77,-15.187 -14.39,0 -26.644,5.062 -36.769,15.187 -10.125,10.125 -15.188,22.383 -15.188,36.77 l 34.637,0 c 0,-4.797 1.688,-8.883 5.062,-12.258 3.376,-3.375 7.461,-5.063 12.258,-5.063 4.793,0 8.879,1.688 12.254,5.063 3.375,3.375 5.063,7.461 5.063,12.258 l 0,37.305 c -5.328,-1.778 -11.102,-2.668 -17.317,-2.668 -14.39,0 -26.644,5.066 -36.769,15.191 -10.125,10.125 -15.188,22.379 -15.188,36.769 l 0,51.958 c 0,14.386 5.063,26.644 15.188,36.769 10.125,10.125 22.379,15.188 36.769,15.188 14.387,0 26.645,-5.063 36.77,-15.188 10.125,-10.125 15.187,-22.383 15.187,-36.769 z" /><path
         id="path3637"
         style="fill:#000000;fill-opacity:1;fill-rule:evenodd;stroke:none"
         d="m 556.68,447.383 c 0,-14.387 -5.063,-26.645 -15.188,-36.77 -10.125,-10.125 -22.383,-15.187 -36.769,-15.187 -14.391,0 -26.645,5.062 -36.77,15.187 -10.125,10.125 -15.187,22.383 -15.187,36.77 l 0,138.555 c 0,14.386 5.062,26.644 15.187,36.769 10.125,10.125 22.379,15.188 36.77,15.188 14.386,0 26.644,-5.063 36.769,-15.188 10.125,-10.125 15.188,-22.383 15.188,-36.769 l 0,-138.555 z m -34.637,138.555 c 0,4.792 -1.688,8.878 -5.063,12.253 -3.375,3.375 -7.46,5.063 -12.257,5.063 -4.797,0 -8.883,-1.688 -12.258,-5.063 -3.375,-3.375 -5.063,-7.461 -5.063,-12.253 l 0,-138.555 c 0,-4.797 1.688,-8.883 5.063,-12.258 3.375,-3.375 7.461,-5.063 12.258,-5.063 4.797,0 8.882,1.688 12.257,5.063 3.375,3.375 5.063,7.461 5.063,12.258 l 0,138.555 z" /><path
         id="path3639"
         style="fill:#000000;fill-opacity:1;fill-rule:evenodd;stroke:none"
         d="m 432.527,277.75 -50.078,-207.828 -34.637,0 50.075,207.828 -50.075,0 0,34.641 84.715,0 0,-34.641 z" /><path
         id="path3641"
         style="fill:#000000;fill-opacity:1;fill-rule:evenodd;stroke:none"
         d="m 556.68,121.879 c 0,-14.387 -5.063,-26.645 -15.188,-36.77 -10.125,-10.125 -22.383,-15.187 -36.769,-15.187 -14.391,0 -26.645,5.062 -36.77,15.187 -10.125,10.125 -15.187,22.383 -15.187,36.77 l 0,138.555 c 0,14.386 5.062,26.644 15.187,36.769 10.125,10.125 22.379,15.188 36.77,15.188 14.386,0 26.644,-5.063 36.769,-15.188 10.125,-10.125 15.188,-22.383 15.188,-36.769 l 0,-138.555 z m -34.637,138.555 c 0,4.793 -1.688,8.878 -5.063,12.254 -3.375,3.374 -7.46,5.062 -12.257,5.062 -4.797,0 -8.883,-1.688 -12.258,-5.062 -3.375,-3.376 -5.063,-7.461 -5.063,-12.254 l 0,-138.555 c 0,-4.797 1.688,-8.883 5.063,-12.258 3.375,-3.375 7.461,-5.062 12.258,-5.062 4.797,0 8.882,1.687 12.257,5.062 3.375,3.375 5.063,7.461 5.063,12.258 l 0,138.555 z" /></g></g></svg>