<?xml version="1.0" encoding="UTF-8" standalone="no"?>
<!-- Created with Inkscape (http://www.inkscape.org/) -->
<svg
   xmlns:svg="http://www.w3.org/2000/svg"
   xmlns="http://www.w3.org/2000/svg"
   version="1.0"
   width="520"
   height="350"
   id="svg2">
  <defs
     id="defs4" />
  <g
     id="layer1">
    <path
       d="M 0,107.46706 C 2.6406914,100.7933 50.773488,53.053348 78.505879,27.72301 L 30.247665,3.050815 L 93.792453,2.926998 L 112.74757,23.138076 L 129.41392,6.5673646 C 135.97495,12.87042 135.92319,27.78109 129.66155,43.812541 L 212.56479,55.197028 L 483.37841,55.027243 C 489.07662,58.144853 503.82382,55.371694 510.55882,84.220611 L 510.69673,194.62974 L 518.92203,204.91396 C 514.46061,218.13141 510.29531,231.71901 504.58003,243.36914 C 498.76012,233.01359 494.50125,219.09378 493.63075,200.15925 L 493.46096,82.12981 C 488.11829,74.007569 481.80193,68.968661 472.52108,73.317306 C 476.38297,79.87317 479.81006,86.663156 479.44445,95.495368 L 479.56827,346.80894 L 448.62366,346.93275 C 463.67595,309.05339 454.22451,271.3084 424.43265,236.3998 L 377.04115,347.0106 L 347.64612,347.0106 C 357.70692,330.60416 369.4145,316.83256 371.61077,287.84288 C 371.13578,258.92453 367.3052,232.30538 349.1638,215.49179 L 261.35015,230.82433 L 270.58008,346.88678 L 240.73575,346.97871 C 251.70918,312.74347 239.80505,269.95579 218.83719,245.45994 L 205.5176,347.0106 L 174.57301,346.93275 C 216.5578,238.86207 152.61888,185.07857 105.60844,129.04013 L 22.008277,128.94818 C 11.283857,126.30558 5.1805853,117.50144 0,107.46706 z "
       style="fill:black;fill-opacity:1;fill-rule:evenodd;stroke:none;stroke-width:1px;stroke-linecap:butt;stroke-linejoin:miter;stroke-opacity:1"
       id="path33566" />
  </g>
</svg>
