<?xml version="1.0" encoding="UTF-8" standalone="no"?>
<svg
   xmlns:dc="http://purl.org/dc/elements/1.1/"
   xmlns:cc="http://creativecommons.org/ns#"
   xmlns:rdf="http://www.w3.org/1999/02/22-rdf-syntax-ns#"
   xmlns:svg="http://www.w3.org/2000/svg"
   xmlns="http://www.w3.org/2000/svg"
   viewBox="0 0 586.05194 586.05194"
   height="586.05194"
   width="586.05194"
   xml:space="preserve"
   version="1.1"
   id="svg5962"><metadata
     id="metadata5968"><rdf:RDF><cc:Work
         rdf:about=""><dc:format>image/svg+xml</dc:format><dc:type
           rdf:resource="http://purl.org/dc/dcmitype/StillImage" /><dc:title></dc:title></cc:Work></rdf:RDF></metadata><defs
     id="defs5966"><clipPath
       id="clipPath5978"
       clipPathUnits="userSpaceOnUse"><path
         id="path5980"
         d="M 0,0 469,0 469,469 0,469 0,0 Z" /></clipPath></defs><g
     transform="matrix(1.25,0,0,-1.25,0,586.05194)"
     id="g5970"><g
       id="g5972"><g
         transform="translate(0,-0.158447)"
         id="g5974"><g
           id="g5976" /><g
           id="g5982"><g
             id="g5984"
             clip-path="url(#clipPath5978)"><g
               id="g5986"><path
                 id="path5988"
                 style="fill:#ffffff;fill-opacity:1;fill-rule:nonzero;stroke:none"
                 d="m 468.348,30.582 c -0.035,-2.641 -0.45,-5.328 -1.243,-7.934 -0.746,-2.562 -1.859,-5.043 -3.304,-7.316 -1.367,-2.32 -3.055,-4.422 -5.043,-6.25 -1.942,-1.859 -4.137,-3.469 -6.488,-4.707 -2.356,-1.332 -4.883,-2.277 -7.524,-2.895 -2.113,-0.542 -4.262,-0.828 -6.457,-0.828 -0.25,-0.047 -0.457,-0.047 -0.699,-0.047 l -406.324,0 c -0.289,0 -0.543,0 -0.828,0.047 -2.653,0.036 -5.34,0.45 -7.95,1.243 -2.562,0.734 -5.043,1.859 -7.316,3.261 -2.309,1.41 -4.422,3.098 -6.234,5.039 -1.864,1.942 -3.481,4.137 -4.723,6.535 -1.32,2.356 -2.274,4.883 -2.895,7.493 -0.539,2.101 -0.828,4.293 -0.828,6.441 -0.031,0.254 -0.031,0.492 -0.031,0.746 l 0,406.324 c 0,0.254 0,0.543 0.031,0.793 0.047,2.688 0.461,5.375 1.242,7.938 0.746,2.609 1.86,5.09 3.274,7.363 1.402,2.274 3.101,4.375 5.043,6.235 1.941,1.863 4.133,3.437 6.523,4.722 2.367,1.274 4.879,2.274 7.489,2.895 2.113,0.492 4.296,0.781 6.453,0.828 l 407.855,0 c 2.688,-0.047 5.375,-0.461 7.938,-1.242 2.605,-0.746 5.086,-1.86 7.359,-3.309 2.273,-1.367 4.387,-3.066 6.25,-5.043 1.859,-1.949 3.434,-4.133 4.707,-6.5 1.289,-2.355 2.277,-4.867 2.895,-7.523 0.496,-2.114 0.793,-4.262 0.828,-6.442 l 0,-407.867 z" /><path
                 id="path5990"
                 style="fill:#000000;fill-opacity:1;fill-rule:nonzero;stroke:none"
                 d="m 468.348,30.582 c -0.035,-2.641 -0.45,-5.328 -1.243,-7.934 -0.746,-2.562 -1.859,-5.043 -3.304,-7.316 -1.367,-2.32 -3.055,-4.422 -5.043,-6.25 -1.942,-1.859 -4.137,-3.469 -6.488,-4.707 -2.356,-1.332 -4.883,-2.277 -7.524,-2.895 -2.113,-0.542 -4.262,-0.828 -6.457,-0.828 -0.25,-0.047 -0.457,-0.047 -0.699,-0.047 l -406.324,0 c -0.289,0 -0.543,0 -0.828,0.047 -2.653,0.036 -5.34,0.45 -7.95,1.243 -2.562,0.734 -5.043,1.859 -7.316,3.261 -2.309,1.41 -4.422,3.098 -6.234,5.039 -1.864,1.942 -3.481,4.137 -4.723,6.535 -1.32,2.356 -2.274,4.883 -2.895,7.493 -0.539,2.101 -0.828,4.293 -0.828,6.441 -0.031,0.254 -0.031,0.492 -0.031,0.746 l 0,406.324 c 0,0.254 0,0.543 0.031,0.793 0.047,2.688 0.461,5.375 1.242,7.938 0.746,2.609 1.86,5.09 3.274,7.363 1.402,2.274 3.101,4.375 5.043,6.235 1.941,1.863 4.133,3.437 6.523,4.722 2.367,1.274 4.879,2.274 7.489,2.895 2.113,0.492 4.296,0.781 6.453,0.828 l 407.855,0 c 2.688,-0.047 5.375,-0.461 7.938,-1.242 2.605,-0.746 5.086,-1.86 7.359,-3.309 2.273,-1.367 4.387,-3.066 6.25,-5.043 1.859,-1.949 3.434,-4.133 4.707,-6.5 1.289,-2.355 2.277,-4.867 2.895,-7.523 0.496,-2.114 0.793,-4.262 0.828,-6.442 l 0,-407.867 z m 0.461,407.902 c 0,2.192 -0.289,4.387 -0.829,6.536 -0.621,2.64 -1.621,5.246 -2.941,7.601 -1.273,2.445 -2.894,4.629 -4.789,6.617 -1.859,1.985 -4.02,3.719 -6.328,5.133 -2.32,1.449 -4.836,2.563 -7.488,3.309 -2.61,0.828 -5.329,1.238 -8.063,1.273 -0.242,0 -0.539,0.047 -0.781,0.047 l -406.324,0 c -0.254,0 -0.508,-0.047 -0.75,-0.047 -2.192,0 -4.422,-0.285 -6.578,-0.824 -2.645,-0.621 -5.204,-1.609 -7.606,-2.93 -2.398,-1.289 -4.629,-2.894 -6.57,-4.801 C 7.73,458.535 6.043,456.391 4.594,454.07 3.137,451.762 2.02,449.234 1.285,446.59 0.492,443.984 0.082,441.25 0,438.527 L 0,30.664 C 0.047,28.469 0.332,26.242 0.871,24.094 1.48,21.453 2.48,18.879 3.801,16.492 5.09,14.09 6.695,11.852 8.602,9.91 10.465,7.887 12.566,6.188 14.93,4.742 17.238,3.293 19.766,2.18 22.375,1.434 24.969,0.652 27.703,0.238 30.438,0.16 l 407.898,0 c 2.184,0.031 4.375,0.32 6.523,0.86 2.653,0.621 5.262,1.609 7.618,2.941 2.433,1.273 4.625,2.894 6.613,4.789 1.988,1.859 3.723,3.973 5.121,6.328 1.449,2.32 2.562,4.836 3.309,7.442 0.828,2.609 1.242,5.343 1.289,8.062 0,0.289 0.031,0.543 0.031,0.828 l 0,406.324 c 0,0.254 -0.031,0.508 -0.031,0.75" /></g></g></g></g></g><g
       id="g5992"><path
         id="path5994"
         style="fill:#000000;fill-opacity:1;fill-rule:nonzero;stroke:none"
         d="m 449.293,30.838 c -0.047,-1.067 -0.207,-2.149 -0.539,-3.133 -0.289,-0.953 -0.703,-1.863 -1.242,-2.688 -0.539,-0.875 -1.207,-1.656 -1.985,-2.367 -0.75,-0.703 -1.574,-1.277 -2.484,-1.769 -0.906,-0.504 -1.859,-0.829 -2.895,-1.079 -0.746,-0.171 -1.492,-0.253 -2.226,-0.253 -0.125,-0.036 -0.254,-0.036 -0.332,-0.036 l -406.324,0 c -0.129,0 -0.254,0 -0.414,0.036 -1.082,0 -2.161,0.207 -3.149,0.539 -0.953,0.289 -1.859,0.699 -2.687,1.242 -0.871,0.539 -1.653,1.203 -2.356,1.941 -0.699,0.746 -1.285,1.571 -1.781,2.481 -0.492,0.906 -0.824,1.906 -1.078,2.894 -0.16,0.746 -0.242,1.539 -0.242,2.274 -0.047,0.125 -0.047,0.207 -0.047,0.332 l 0,406.324 c 0,0.129 0,0.254 0.047,0.379 0,1.07 0.207,2.148 0.527,3.183 0.301,0.954 0.715,1.817 1.254,2.641 0.527,0.875 1.195,1.699 1.941,2.402 0.746,0.664 1.563,1.286 2.481,1.735 0.906,0.504 1.894,0.871 2.894,1.078 0.746,0.16 1.528,0.289 2.274,0.289 l 407.027,0 c 1.078,-0.047 2.148,-0.207 3.18,-0.543 0.953,-0.285 1.828,-0.699 2.656,-1.238 0.859,-0.539 1.687,-1.196 2.398,-1.977 0.657,-0.746 1.274,-1.574 1.735,-2.48 0.492,-0.918 0.859,-1.86 1.066,-2.895 0.176,-0.746 0.301,-1.492 0.301,-2.285 l 0,-407.027 z m 11.691,407.324 c 0,1.609 -0.207,3.219 -0.621,4.836 -0.445,1.988 -1.191,3.929 -2.179,5.711 -0.954,1.812 -2.161,3.468 -3.563,4.961 -1.398,1.48 -3.019,2.8 -4.754,3.836 -1.734,1.125 -3.594,1.953 -5.535,2.527 -1.988,0.574 -4.055,0.906 -6.121,0.953 -0.207,0 -0.414,0.035 -0.621,0.035 l -406.324,0 c -0.207,0 -0.379,0 -0.59,-0.035 -1.606,0 -3.262,-0.207 -4.832,-0.621 -1.989,-0.461 -3.93,-1.207 -5.758,-2.195 -1.766,-0.953 -3.465,-2.145 -4.914,-3.547 -1.527,-1.414 -2.801,-3.02 -3.883,-4.766 -1.078,-1.734 -1.906,-3.597 -2.48,-5.539 -0.621,-1.984 -0.954,-4.055 -1,-6.121 l 0,-407.52 c 0.046,-1.617 0.254,-3.273 0.621,-4.835 0.461,-1.985 1.207,-3.938 2.195,-5.754 0.953,-1.782 2.191,-3.469 3.594,-4.914 1.414,-1.528 2.984,-2.817 4.754,-3.895 1.699,-1.07 3.562,-1.894 5.547,-2.48 1.941,-0.622 4.011,-0.954 6.078,-0.989 l 407.566,0 c 1.617,0.035 3.227,0.254 4.801,0.621 2.019,0.457 3.961,1.196 5.742,2.192 1.824,0.953 3.481,2.195 4.961,3.597 1.492,1.399 2.816,2.973 3.848,4.754 1.113,1.7 1.941,3.559 2.527,5.536 0.574,1.941 0.906,4.007 0.941,6.078 0,0.207 0.047,0.457 0.047,0.664 l 0,406.324 c 0,0.176 0,0.379 -0.047,0.586" /><path
         id="path5996"
         style="fill:#f0ca00;fill-opacity:1;fill-rule:nonzero;stroke:none"
         d="m 71.898,56.232 0,108.207 32.965,166.875 30.391,-166.875 118.082,0 22.328,-50.078 0,-58.129" /><path
         id="path5998"
         style="fill:#000000;fill-opacity:1;fill-rule:nonzero;stroke:none"
         d="m 372.051,250.443 -11.781,0 0,-6.293 -6.25,0 0,12.527 24.937,0 0,-5.992 -14.805,-37.742 -7.066,0" /><path
         id="path6000"
         style="fill:#000000;fill-opacity:1;fill-rule:nonzero;stroke:none"
         d="m 421.832,178.451 c 0,-0.414 0,-0.828 -0.082,-1.242 -0.129,-0.907 -0.574,-1.778 -1.242,-2.399 -0.746,-0.781 -1.86,-1.242 -2.977,-1.195 -1.16,-0.047 -2.273,0.414 -3.101,1.195 -0.7,0.668 -1.203,1.575 -1.285,2.528 -0.036,0.367 -0.036,0.746 -0.036,1.113 l 0,12.945 c 0,0.332 0.036,0.664 0.082,0.989 0.161,0.953 0.622,1.824 1.321,2.48 0.781,0.793 1.859,1.203 2.941,1.203 1.067,0.039 2.102,-0.375 2.895,-1.078 0.781,-0.656 1.355,-1.609 1.445,-2.563 0.039,-0.285 0.039,-0.574 0.039,-0.871 l 0,-13.105 z m 0.082,20.754 c -1.32,0.793 -2.848,1.207 -4.375,1.207 -1.527,0.035 -3.023,-0.379 -4.344,-1.113 -1.367,-0.75 -2.48,-1.875 -3.226,-3.231 -0.656,-1.031 -1.035,-2.238 -1.16,-3.433 -0.036,-0.415 -0.082,-0.825 -0.082,-1.239 l 0,-12.945 c 0,-0.414 0,-0.859 0.046,-1.274 0.082,-1.332 0.54,-2.656 1.274,-3.816 0.828,-1.363 2.066,-2.48 3.48,-3.18 1.274,-0.668 2.688,-0.988 4.133,-0.953 1.485,0 3.012,0.461 4.297,1.242 1.367,0.793 2.481,1.985 3.227,3.352 0.539,0.988 0.863,2.066 0.988,3.184 0.047,0.457 0.047,0.953 0.047,1.445 l 0,13.976 c -0.047,1.243 -0.461,2.516 -1.114,3.598 -0.746,1.32 -1.863,2.434 -3.195,3.18 l 0.004,0 z m -23.57,-20.754 c 0,-0.414 -0.035,-0.828 -0.082,-1.242 -0.16,-0.907 -0.574,-1.778 -1.239,-2.399 -0.781,-0.781 -1.894,-1.242 -3.023,-1.195 -1.113,-0.047 -2.273,0.414 -3.055,1.195 -0.699,0.668 -1.203,1.575 -1.32,2.528 -0.047,0.367 -0.047,0.746 -0.047,1.113 l 0,12.945 c 0.047,0.332 0.047,0.664 0.129,0.989 0.16,0.953 0.574,1.824 1.32,2.48 0.746,0.793 1.86,1.203 2.942,1.203 1.031,0.039 2.101,-0.375 2.894,-1.078 0.782,-0.656 1.321,-1.609 1.446,-2.563 0.039,-0.285 0.039,-0.574 0.039,-0.871 l 0,-13.105 -0.004,0 z m 3.23,17.574 c -0.75,1.32 -1.863,2.434 -3.136,3.18 -1.333,0.793 -2.86,1.207 -4.434,1.207 -1.481,0.035 -3.008,-0.379 -4.297,-1.113 -1.367,-0.75 -2.527,-1.875 -3.262,-3.231 -0.621,-1.031 -1,-2.238 -1.16,-3.433 -0.043,-0.415 -0.043,-0.825 -0.043,-1.239 l 0,-12.945 c 0,-0.414 0,-0.859 0.043,-1.274 0.082,-1.332 0.543,-2.656 1.278,-3.816 0.824,-1.363 2.031,-2.48 3.48,-3.18 1.238,-0.668 2.687,-0.988 4.086,-0.953 1.527,0 3.023,0.461 4.309,1.242 1.355,0.793 2.48,1.985 3.214,3.352 0.543,0.988 0.918,2.066 1,3.184 0.082,0.457 0.082,0.953 0.082,1.445 l 0,12.945 c 0,0.332 0,0.699 -0.046,1.031 -0.036,1.243 -0.446,2.516 -1.114,3.598 z m -28.863,-26.59 c 0,-0.621 0,-1.195 -0.117,-1.781 -0.207,-1.273 -0.824,-2.516 -1.781,-3.422 -1.079,-1.113 -2.688,-1.746 -4.258,-1.746 -1.621,-0.035 -3.231,0.633 -4.391,1.781 -1.031,0.918 -1.734,2.239 -1.859,3.559 -0.082,0.543 -0.082,1.082 -0.082,1.609 l 0,18.492 c 0.047,0.45 0.082,0.942 0.172,1.434 0.207,1.289 0.863,2.609 1.859,3.516 1.117,1.078 2.644,1.699 4.219,1.699 1.48,0.047 3.019,-0.492 4.132,-1.481 1.114,-0.953 1.895,-2.32 2.067,-3.734 0.039,-0.398 0.039,-0.781 0.039,-1.191 l 0,-18.735 z m 0.125,29.645 c -1.859,1.125 -4.09,1.746 -6.281,1.746 -2.149,0.035 -4.297,-0.543 -6.157,-1.621 -1.953,-1.067 -3.609,-2.688 -4.675,-4.629 -0.871,-1.481 -1.446,-3.145 -1.621,-4.879 -0.082,-0.574 -0.082,-1.195 -0.114,-1.77 l 0,-18.492 c 0,-0.621 0,-1.242 0.082,-1.816 0.125,-1.906 0.782,-3.801 1.817,-5.418 1.207,-1.988 2.941,-3.551 4.961,-4.551 1.828,-0.941 3.847,-1.445 5.871,-1.367 2.156,0 4.304,0.633 6.168,1.746 1.937,1.148 3.547,2.805 4.582,4.789 0.793,1.414 1.285,2.942 1.445,4.516 0.047,0.699 0.047,1.402 0.047,2.101 l 0,18.492 c 0.047,0.493 0.047,0.989 0,1.481 -0.082,1.781 -0.668,3.594 -1.621,5.121 -1.067,1.91 -2.641,3.481 -4.5,4.551 l -0.004,0 z m -41.383,-3.215 0,-6.617 6.238,4.582 0,-37.168 6.168,0 0,43.75 -6.168,0 -6.238,-4.547 z m 88.235,96.625 c -0.208,-1.238 -0.875,-2.445 -1.864,-3.305 -1.078,-1.035 -2.527,-1.621 -4.008,-1.656 -1.332,-0.082 -2.687,0.332 -3.8,1.16 -1.286,0.863 -2.239,2.196 -2.481,3.641 -0.125,0.449 -0.172,0.906 -0.219,1.355 l 0,7.075 c 0.047,0.621 0.094,1.195 0.254,1.816 0.285,1.207 1.114,2.32 2.149,3.148 1.078,0.86 2.445,1.399 3.847,1.399 1.364,0.047 2.731,-0.446 3.848,-1.321 1.113,-0.828 1.938,-2.066 2.191,-3.351 0.161,-0.574 0.161,-1.149 0.208,-1.691 l 0,-6.407 c 0,-0.668 0,-1.289 -0.125,-1.863 z m -0.29,-22.086 c 2.024,1.047 3.723,2.688 4.883,4.641 0.907,1.527 1.528,3.215 1.688,4.961 0.129,0.906 0.129,1.863 0.129,2.804 l 0,30.102 -6.285,0 0,-3.422 c -0.25,0.242 -0.458,0.496 -0.7,0.703 -0.793,0.824 -1.746,1.527 -2.781,2.02 -1.238,0.668 -2.641,1.035 -4.043,1.113 -1.746,0.125 -3.559,-0.207 -5.168,-0.953 -1.652,-0.735 -3.066,-1.977 -4.098,-3.469 -0.953,-1.238 -1.574,-2.766 -1.816,-4.293 -0.125,-0.828 -0.125,-1.703 -0.16,-2.574 l 0,-9.547 c 0,-0.699 0.035,-1.41 0.113,-2.066 0.172,-1.606 0.828,-3.227 1.781,-4.594 1.036,-1.481 2.434,-2.688 4.008,-3.469 1.403,-0.699 2.977,-1.078 4.551,-1.078 1.652,-0.039 3.305,0.379 4.801,1.113 1.113,0.539 2.144,1.285 2.972,2.16 0.207,0.207 0.368,0.414 0.54,0.621 l 0,-2.32 c 0,-0.668 0.039,-1.324 -0.047,-2.023 -0.082,-0.871 -0.286,-1.782 -0.746,-2.606 -0.493,-0.91 -1.239,-1.734 -2.149,-2.277 -1.113,-0.699 -2.48,-1.031 -3.801,-1.078 -1.195,-0.035 -2.355,0.125 -3.386,0.621 -0.954,0.414 -1.782,1.113 -2.528,1.859 -0.16,0.207 -0.367,0.414 -0.539,0.586 l -4.836,-4.101 c 0.254,-0.286 0.492,-0.539 0.746,-0.782 1.321,-1.398 3.02,-2.48 4.836,-3.179 1.7,-0.7 3.481,-1.078 5.297,-1.078 2.317,-0.086 4.707,0.457 6.738,1.605 z m -36.718,17.047 c -1.078,-0.207 -2.149,-0.254 -3.227,-0.254 -1.082,0 -2.195,0 -3.226,0.367 -0.864,0.297 -1.735,0.793 -2.231,1.574 -0.492,0.664 -0.746,1.575 -0.664,2.481 0.043,0.746 0.297,1.527 0.746,2.113 0.586,0.781 1.445,1.32 2.399,1.492 0.496,0.082 1.035,0.039 1.527,0 l 8.144,0 0,-2.699 c 0.047,-0.699 0.094,-1.402 -0.082,-2.055 -0.125,-0.71 -0.414,-1.367 -0.859,-1.828 -0.621,-0.699 -1.574,-0.984 -2.527,-1.191 z m 3.468,-2.688 0,-3.07 6.293,0 0,21.754 c -0.043,0.656 -0.043,1.367 -0.207,2.023 -0.296,1.989 -1.492,3.895 -3.097,5.215 -1.129,1.032 -2.496,1.735 -3.895,2.102 -1.656,0.504 -3.344,0.539 -5.09,0.539 -1.687,0 -3.386,-0.082 -4.996,-0.449 -0.953,-0.25 -1.906,-0.539 -2.734,-0.996 -1.16,-0.575 -2.192,-1.45 -2.895,-2.438 -0.125,-0.172 -0.207,-0.332 -0.332,-0.492 l 4.961,-3.93 c 0.176,0.289 0.301,0.528 0.508,0.781 0.445,0.586 1.238,0.954 1.977,1.114 0.871,0.207 1.699,0.254 2.523,0.254 1.082,0.035 2.113,0.035 3.184,-0.082 0.906,-0.125 1.781,-0.332 2.527,-0.918 0.539,-0.403 0.988,-1.035 1.195,-1.692 0.172,-0.586 0.125,-1.203 0.082,-1.777 l 0,-2.356 -8.269,0 c -0.91,0 -1.817,0 -2.723,-0.125 -1.988,-0.289 -3.847,-1.367 -5.215,-2.847 -1.48,-1.574 -2.398,-3.645 -2.515,-5.758 -0.172,-1.813 0.242,-3.629 1.195,-5.168 1.035,-1.895 2.77,-3.422 4.754,-4.215 1.734,-0.781 3.676,-0.988 5.535,-0.953 1.289,0.047 2.527,0.172 3.723,0.586 1.035,0.367 1.988,0.906 2.687,1.687 0.332,0.379 0.586,0.793 0.828,1.208 l -0.004,0.003 z m -27.785,-3.07 2.817,0 0,5.871 -1.989,0 c -0.414,0 -0.781,0 -1.16,0.047 -0.367,0.082 -0.734,0.207 -1.031,0.492 -0.242,0.254 -0.449,0.586 -0.496,0.953 -0.035,0.254 -0.035,0.496 -0.035,0.75 l 0,18.067 4.707,0 0,5.039 -4.707,0 0,9.43 -6.203,0 0,-9.43 -3.102,0 0,-5.039 3.102,0 0,-18.067 c 0,-0.621 -0.047,-1.242 0.035,-1.816 0.086,-0.918 0.289,-1.824 0.75,-2.605 0.445,-0.922 1.16,-1.704 1.984,-2.278 0.953,-0.711 2.024,-1.16 3.137,-1.332 0.746,-0.113 1.457,-0.113 2.195,-0.082 l -0.004,0 z m -24.761,21.137 c 0.16,-0.574 0.242,-1.195 0.289,-1.828 l 0,-19.309 6.234,0 0,21.008 c -0.035,0.746 -0.035,1.496 -0.16,2.23 -0.242,1.575 -0.988,3.067 -2.024,4.305 -0.871,1.16 -1.949,2.07 -3.179,2.77 -1.539,0.871 -3.274,1.32 -5.055,1.32 -1.355,0.047 -2.723,-0.242 -4.055,-0.781 -1.355,-0.493 -2.593,-1.239 -3.629,-2.274 -0.207,-0.254 -0.414,-0.496 -0.664,-0.746 l 0,3.387 -6.238,0 0,-31.219 6.238,0 0,19.309 c 0.125,0.793 0.207,1.539 0.493,2.238 0.414,1.289 1.445,2.355 2.652,3.059 1.035,0.617 2.23,0.953 3.434,0.871 1.277,0 2.597,-0.496 3.628,-1.368 0.954,-0.746 1.704,-1.812 2.036,-2.972 z m -30.024,6.406 c -0.859,1.16 -1.941,2.07 -3.226,2.77 -1.481,0.871 -3.262,1.32 -4.997,1.32 -1.414,0.047 -2.781,-0.242 -4.054,-0.781 -1.367,-0.493 -2.641,-1.239 -3.641,-2.274 -0.254,-0.254 -0.449,-0.496 -0.656,-0.746 l 0,3.387 -6.293,0 0,-31.219 6.293,0 0,19.309 c 0.086,0.793 0.164,1.539 0.449,2.238 0.461,1.289 1.445,2.355 2.652,3.059 1.036,0.617 2.231,0.953 3.434,0.871 1.32,0 2.598,-0.496 3.629,-1.368 0.957,-0.746 1.703,-1.812 2.035,-2.972 0.16,-0.574 0.242,-1.195 0.32,-1.828 l 0,-19.309 6.204,0 0,21.008 c 0,0.746 -0.036,1.492 -0.161,2.23 -0.253,1.571 -0.988,3.067 -1.988,4.305 z m -37.707,-15.137 c -0.047,-0.539 -0.082,-1.035 -0.207,-1.574 -0.285,-1.148 -0.953,-2.226 -1.812,-3.055 -0.622,-0.652 -1.414,-1.16 -2.289,-1.48 -0.7,-0.301 -1.434,-0.426 -2.18,-0.426 -1.32,-0.035 -2.688,0.332 -3.77,1.078 -0.906,0.59 -1.652,1.368 -2.144,2.278 -0.336,0.574 -0.574,1.238 -0.703,1.906 -0.082,0.414 -0.125,0.859 -0.172,1.273 l 0,6.618 c 0.047,0.585 0.125,1.16 0.254,1.699 0.285,1.066 0.953,2.019 1.781,2.812 1.238,1.196 2.926,1.895 4.582,1.895 1.539,0.047 3.102,-0.539 4.262,-1.528 1.203,-0.906 2.031,-2.226 2.273,-3.64 0.082,-0.414 0.082,-0.824 0.125,-1.238 l 0,-6.618 z m 3.563,14.184 c -1.207,1.621 -2.782,2.941 -4.551,3.805 -1.699,0.824 -3.606,1.238 -5.5,1.238 -1.988,0.047 -3.93,-0.367 -5.707,-1.238 -1.942,-0.911 -3.645,-2.309 -4.883,-4.055 -1.16,-1.527 -1.941,-3.262 -2.23,-5.078 -0.125,-0.746 -0.172,-1.492 -0.204,-2.238 l 0,-6.618 c 0,-0.656 0.036,-1.32 0.125,-1.988 0.207,-1.562 0.782,-3.101 1.61,-4.422 1.238,-2.191 3.179,-4.008 5.453,-5.086 1.781,-0.863 3.723,-1.32 5.711,-1.32 2.191,-0.039 4.375,0.539 6.281,1.652 1.941,1.035 3.559,2.688 4.719,4.594 0.91,1.481 1.527,3.102 1.734,4.801 0.086,0.574 0.129,1.195 0.129,1.769 l 0,6.618 c -0.047,0.746 -0.094,1.539 -0.254,2.273 -0.285,1.906 -1.195,3.766 -2.433,5.293 z m -36.067,-3.309 c -1.562,0.911 -3.308,1.414 -5.078,1.735 -1.41,0.254 -2.777,0.414 -4.18,0.461 -1.285,0.082 -2.64,0.082 -3.894,0.449 -1.399,0.414 -2.719,1.285 -3.5,2.527 -0.75,1.031 -1.129,2.352 -1,3.641 0.082,1.113 0.492,2.144 1.16,2.973 0.781,1.082 1.984,1.781 3.227,2.148 1.113,0.332 2.273,0.332 3.468,0.297 1.782,-0.09 3.516,-0.297 5.215,-0.789 1.403,-0.414 2.766,-0.989 4.055,-1.735 0.32,-0.16 0.621,-0.367 0.941,-0.574 l 3.606,5.535 c -0.332,0.207 -0.664,0.414 -1,0.621 -1.735,1.079 -3.676,1.895 -5.614,2.481 -2.355,0.699 -4.757,1.066 -7.203,1.066 -2.562,0.094 -5.168,-0.242 -7.441,-1.398 -2.277,-1.035 -4.215,-2.852 -5.41,-5.043 -0.953,-1.574 -1.492,-3.391 -1.574,-5.25 -0.207,-2.067 0.16,-4.215 1.113,-6.086 0.953,-2.148 2.562,-4.012 4.547,-5.25 1.277,-0.828 2.691,-1.367 4.136,-1.688 1.446,-0.378 3.02,-0.46 4.547,-0.543 1.367,-0.082 2.735,-0.125 4.09,-0.41 0.953,-0.207 1.906,-0.543 2.652,-1.082 0.704,-0.492 1.321,-1.16 1.692,-1.941 0.457,-0.824 0.699,-1.734 0.746,-2.688 0.043,-1.113 -0.242,-2.32 -0.828,-3.226 -0.781,-1.274 -2.195,-2.149 -3.641,-2.61 -1.527,-0.527 -3.054,-0.652 -4.629,-0.605 -1.894,0 -3.8,0.203 -5.582,0.734 -1.976,0.586 -3.847,1.539 -5.504,2.735 -0.285,0.203 -0.527,0.41 -0.824,0.617 l -4.172,-5.168 c 0.289,-0.254 0.539,-0.492 0.828,-0.699 1.895,-1.621 4.215,-2.688 6.571,-3.481 2.812,-0.953 5.754,-1.48 8.761,-1.445 3.805,-0.039 7.778,0.746 10.719,3.019 1.813,1.368 3.262,3.227 4.055,5.375 0.734,1.735 1.031,3.641 0.906,5.5 -0.129,1.782 -0.621,3.469 -1.492,5.043 -1.035,1.989 -2.563,3.676 -4.469,4.754 z m 179.578,-57.312 c 0.047,0.336 0.047,0.668 0.125,1 0.129,0.906 0.575,1.816 1.289,2.48 0.778,0.75 1.895,1.196 2.973,1.16 1.035,0.04 2.102,-0.332 2.895,-1.031 0.781,-0.668 1.32,-1.621 1.449,-2.609 0.035,-0.285 0.035,-0.539 0.035,-0.828 l 0,-13.149 c 0,-0.414 -0.035,-0.828 -0.082,-1.242 -0.16,-0.871 -0.574,-1.734 -1.242,-2.355 -0.782,-0.778 -1.895,-1.239 -3.02,-1.239 -1.113,0 -2.273,0.414 -3.054,1.239 -0.747,0.656 -1.196,1.574 -1.321,2.484 -0.047,0.367 -0.047,0.746 -0.047,1.113 l 0,12.977 z m 0.457,-21.199 c 1.243,-0.668 2.688,-1 4.09,-0.957 1.528,0 3.02,0.414 4.309,1.242 1.355,0.781 2.48,1.941 3.215,3.344 0.539,0.953 0.918,2.066 1,3.144 0.035,0.496 0.035,1 0.035,1.449 l 0,12.977 c 0.047,0.336 0.047,0.668 0,1.035 -0.035,1.25 -0.446,2.48 -1.113,3.605 -0.747,1.321 -1.86,2.403 -3.137,3.137 -1.332,0.828 -2.86,1.238 -4.43,1.238 -1.484,0.047 -3.012,-0.367 -4.297,-1.156 -1.367,-0.738 -2.527,-1.851 -3.261,-3.183 -0.622,-1.067 -1.036,-2.227 -1.161,-3.422 -0.047,-0.414 -0.047,-0.828 -0.047,-1.254 l 0,-12.977 c 0,-0.414 0,-0.828 0.047,-1.242 0.082,-1.367 0.539,-2.641 1.274,-3.801 0.828,-1.367 2.035,-2.48 3.48,-3.179 l -0.004,0 z m -13.355,14.918 c -0.16,0.082 -0.332,0.207 -0.461,0.332 0.172,0.129 0.332,0.207 0.461,0.367 0.906,0.668 1.605,1.621 2.066,2.652 0.492,1.117 0.746,2.356 0.703,3.551 -0.039,1.207 -0.336,2.367 -0.863,3.434 -0.664,1.367 -1.652,2.562 -2.941,3.398 -1.364,0.988 -3.02,1.531 -4.707,1.562 -1.414,0.086 -2.86,-0.207 -4.102,-0.824 -1.527,-0.703 -2.848,-1.863 -3.719,-3.261 -0.621,-1 -1.035,-2.114 -1.195,-3.274 -0.047,-0.164 -0.047,-0.367 -0.047,-0.574 l 4.387,0 c 0.039,0.207 0.082,0.41 0.16,0.617 0.207,0.875 0.875,1.621 1.656,2.149 0.746,0.539 1.653,0.828 2.559,0.828 0.668,0 1.367,-0.207 1.988,-0.493 0.586,-0.289 1.113,-0.75 1.492,-1.242 0.543,-0.656 0.829,-1.492 0.911,-2.32 0.046,-0.828 -0.082,-1.609 -0.461,-2.309 -0.286,-0.664 -0.782,-1.238 -1.403,-1.652 -0.617,-0.414 -1.32,-0.668 -2.019,-0.746 -0.379,-0.039 -0.746,-0.039 -1.125,-0.039 l -1.242,0 0,-3.813 1.332,0 c 0.496,0 0.988,0.047 1.484,-0.082 0.664,-0.082 1.32,-0.414 1.906,-0.828 0.574,-0.457 1.067,-1.031 1.399,-1.734 0.336,-0.699 0.461,-1.574 0.461,-2.399 0,-0.828 -0.172,-1.699 -0.586,-2.402 -0.368,-0.734 -1.036,-1.398 -1.77,-1.812 -0.711,-0.415 -1.492,-0.622 -2.32,-0.575 -0.953,0 -1.942,0.321 -2.735,0.907 -0.699,0.539 -1.238,1.273 -1.527,2.101 -0.043,0.172 -0.125,0.332 -0.16,0.504 l -4.387,0 c 0,-0.125 0,-0.297 0.047,-0.457 0.125,-1.207 0.621,-2.355 1.32,-3.391 0.746,-1.16 1.782,-2.16 3.02,-2.812 1.367,-0.828 3.019,-1.285 4.629,-1.242 1.687,0 3.39,0.543 4.789,1.449 1.332,0.871 2.402,2.066 3.066,3.434 0.75,1.402 1.071,3.019 0.989,4.628 0,1.286 -0.243,2.528 -0.829,3.641 -0.492,1.07 -1.273,1.988 -2.226,2.723 l 0,0.004 z m 6.66,158.777 c 0,0.379 0.039,0.711 0.082,1.031 0.129,0.828 0.414,1.703 0.863,2.449 0.621,1.067 1.618,1.942 2.735,2.481 0.988,0.492 2.101,0.734 3.179,0.699 1.161,-0.047 2.274,-0.379 3.227,-1 1.16,-0.699 2.113,-1.687 2.609,-2.926 0.286,-0.543 0.446,-1.16 0.539,-1.781 0.036,-0.332 0.036,-0.621 0.036,-0.953 l -13.27,0 z m 19.309,2.066 c -0.254,1.782 -0.907,3.481 -1.907,4.961 -1.07,1.7 -2.609,3.102 -4.343,4.102 -1.942,1.113 -4.168,1.687 -6.407,1.652 -2.101,0.039 -4.261,-0.492 -6.125,-1.539 -1.734,-0.906 -3.261,-2.262 -4.421,-3.879 -1.067,-1.449 -1.895,-3.148 -2.192,-4.883 -0.117,-0.828 -0.16,-1.652 -0.207,-2.48 l 0,-5.492 c 0,-0.824 0.047,-1.699 0.125,-2.524 0.207,-1.91 0.953,-3.769 2.07,-5.379 1.204,-1.812 2.895,-3.273 4.832,-4.257 1.911,-1.036 4.055,-1.575 6.204,-1.575 2.652,-0.125 5.343,0.539 7.695,1.825 1.289,0.656 2.48,1.484 3.469,2.515 0.254,0.289 0.461,0.539 0.714,0.828 l -4.804,4.055 c -0.203,-0.254 -0.41,-0.496 -0.664,-0.703 -0.7,-0.699 -1.528,-1.238 -2.434,-1.617 -1.16,-0.496 -2.355,-0.735 -3.598,-0.699 -1.574,-0.04 -3.179,0.41 -4.511,1.332 -0.942,0.617 -1.688,1.527 -2.196,2.558 -0.402,0.863 -0.574,1.77 -0.609,2.723 0,0.289 0,0.621 0.039,0.918 l 19.477,0 0,4.711 c -0.043,0.953 -0.082,1.894 -0.203,2.847 l -0.004,0 z m -41.684,-14.55 c -1.398,-0.414 -2.766,-0.575 -4.133,-0.539 -1.449,0 -2.894,0.25 -4.261,0.746 -1.403,0.492 -2.77,1.238 -3.883,2.226 -0.25,0.207 -0.492,0.461 -0.746,0.711 l -4.469,-4.465 c 0.16,-0.129 0.289,-0.289 0.461,-0.461 1.48,-1.527 3.433,-2.64 5.457,-3.433 2.273,-0.942 4.707,-1.481 7.152,-1.528 1.781,-0.082 3.563,0.082 5.297,0.493 1.434,0.378 2.895,0.875 4.133,1.746 1.437,0.941 2.644,2.39 3.308,4.007 0.575,1.29 0.829,2.645 0.735,4.012 -0.035,1.446 -0.445,2.848 -1.149,4.086 -0.586,1.125 -1.41,2.07 -2.398,2.817 -1,0.824 -2.231,1.367 -3.481,1.699 -1.355,0.367 -2.769,0.414 -4.214,0.492 -0.828,0.047 -1.688,0.086 -2.563,0.086 -0.781,0.043 -1.609,0.043 -2.355,0.332 -0.664,0.207 -1.285,0.621 -1.653,1.203 -0.367,0.531 -0.539,1.195 -0.461,1.816 0.047,0.575 0.289,1.114 0.668,1.575 0.332,0.414 0.828,0.746 1.321,0.941 0.906,0.461 1.988,0.504 3.054,0.504 1.539,-0.043 2.989,-0.207 4.434,-0.617 1.242,-0.379 2.48,-1 3.516,-1.781 0.242,-0.172 0.445,-0.332 0.699,-0.54 l 3.847,5.168 c -0.296,0.254 -0.621,0.457 -0.953,0.7 -1.449,1.035 -3.148,1.781 -4.836,2.32 -2.16,0.656 -4.433,0.988 -6.707,0.953 -2.066,0.039 -4.136,-0.207 -5.996,-1.16 -1.527,-0.699 -2.847,-1.859 -3.801,-3.309 -0.906,-1.367 -1.449,-2.937 -1.527,-4.547 -0.082,-1.367 0.125,-2.734 0.621,-3.929 0.539,-1.367 1.399,-2.559 2.524,-3.512 0.945,-0.875 2.148,-1.496 3.39,-1.816 0.907,-0.297 1.895,-0.414 2.848,-0.504 1.16,-0.082 2.355,-0.16 3.516,-0.16 1.031,0 2.066,0 3.101,-0.289 0.617,-0.172 1.203,-0.457 1.617,-0.954 0.45,-0.492 0.657,-1.16 0.657,-1.859 0.043,-0.828 -0.243,-1.656 -0.829,-2.23 -0.492,-0.539 -1.242,-0.793 -1.941,-0.997 l 0,-0.003 z m -32.043,0 c -1.367,-0.414 -2.734,-0.575 -4.09,-0.539 -1.445,0 -2.906,0.25 -4.261,0.746 -1.446,0.492 -2.778,1.238 -3.891,2.226 -0.242,0.207 -0.496,0.461 -0.738,0.711 l -4.465,-4.465 0.445,-0.461 c 1.496,-1.527 3.402,-2.64 5.422,-3.433 2.32,-0.942 4.758,-1.481 7.191,-1.528 1.782,-0.082 3.559,0.082 5.293,0.493 1.45,0.378 2.895,0.875 4.102,1.746 1.48,0.941 2.641,2.39 3.344,4.007 0.539,1.29 0.793,2.645 0.746,4.012 -0.047,1.446 -0.461,2.848 -1.16,4.086 -0.575,1.125 -1.403,2.07 -2.403,2.817 -1.031,0.824 -2.226,1.367 -3.469,1.699 -1.363,0.367 -2.812,0.414 -4.214,0.492 -0.871,0.047 -1.7,0.086 -2.559,0.086 -0.793,0.043 -1.621,0.043 -2.355,0.332 -0.668,0.207 -1.286,0.621 -1.7,1.203 -0.379,0.531 -0.539,1.195 -0.461,1.816 0.082,0.575 0.332,1.114 0.7,1.575 0.336,0.414 0.793,0.746 1.289,0.941 0.953,0.461 2.019,0.504 3.101,0.504 1.528,-0.043 2.973,-0.207 4.375,-0.617 1.285,-0.379 2.528,-1 3.559,-1.781 0.254,-0.172 0.461,-0.332 0.668,-0.54 l 3.883,5.168 c -0.332,0.254 -0.621,0.457 -0.953,0.7 -1.485,1.035 -3.137,1.781 -4.872,2.32 -2.16,0.656 -4.386,0.988 -6.66,0.953 -2.07,0.039 -4.183,-0.207 -5.996,-1.16 -1.527,-0.699 -2.894,-1.859 -3.801,-3.309 -0.91,-1.367 -1.449,-2.937 -1.531,-4.547 -0.125,-1.367 0.117,-2.734 0.621,-3.929 0.528,-1.367 1.403,-2.559 2.481,-3.512 0.988,-0.875 2.183,-1.496 3.425,-1.816 0.907,-0.297 1.872,-0.414 2.86,-0.504 1.148,-0.082 2.351,-0.16 3.512,-0.16 1.035,0 2.07,0 3.058,-0.289 0.617,-0.172 1.238,-0.457 1.653,-0.954 0.46,-0.492 0.664,-1.16 0.664,-1.859 0.039,-0.828 -0.286,-1.656 -0.825,-2.23 -0.496,-0.539 -1.242,-0.793 -1.988,-0.997 l 0,-0.003 z m -43.176,13.515 c 0.129,0.828 0.426,1.703 0.922,2.449 0.617,1.067 1.57,1.942 2.719,2.481 0.957,0.492 2.07,0.734 3.195,0.699 1.114,-0.047 2.227,-0.379 3.215,-1 1.125,-0.699 2.066,-1.687 2.609,-2.926 0.25,-0.543 0.411,-1.16 0.493,-1.781 0.047,-0.332 0.047,-0.621 0.047,-0.953 l -13.278,0 c 0.043,0.379 0.043,0.711 0.082,1.031 l -0.004,0 z m 14.602,-18.433 c 1.285,0.656 2.445,1.484 3.433,2.515 0.25,0.289 0.457,0.539 0.7,0.828 l -4.789,4.055 c -0.207,-0.254 -0.414,-0.496 -0.668,-0.703 -0.653,-0.699 -1.528,-1.238 -2.434,-1.617 -1.113,-0.496 -2.355,-0.735 -3.559,-0.699 -1.609,-0.04 -3.23,0.41 -4.503,1.332 -0.954,0.617 -1.747,1.527 -2.196,2.558 -0.41,0.863 -0.617,1.77 -0.617,2.723 -0.047,0.289 0,0.621 0,0.918 l 19.512,0 0,4.711 c -0.035,0.953 -0.082,1.894 -0.239,2.847 -0.253,1.782 -0.921,3.481 -1.906,4.961 -1.082,1.7 -2.562,3.102 -4.344,4.102 -1.906,1.113 -4.132,1.687 -6.41,1.652 -2.113,0.039 -4.257,-0.492 -6.074,-1.539 -1.781,-0.906 -3.308,-2.262 -4.469,-3.879 -1.078,-1.449 -1.859,-3.148 -2.191,-4.883 -0.129,-0.828 -0.164,-1.652 -0.207,-2.48 l 0,-5.492 c 0.043,-0.824 0.043,-1.699 0.172,-2.524 0.207,-1.91 0.906,-3.769 2.019,-5.379 1.196,-1.812 2.895,-3.273 4.836,-4.257 1.907,-1.036 4.055,-1.575 6.203,-1.575 2.688,-0.125 5.375,0.539 7.731,1.825 z m -36.055,-1.446 6.535,0 0,43.735 -6.203,0 -12.531,-28.438 -12.563,28.438 -6.25,0 0,-43.735 6.661,0 0,27.703 9.386,-21.421 5.453,0 9.512,21.421 0,-27.703 z m -81.699,19.879 c 0.117,0.828 0.414,1.703 0.863,2.449 0.621,1.067 1.617,1.942 2.735,2.481 0.988,0.492 2.101,0.734 3.179,0.699 1.16,-0.047 2.274,-0.379 3.227,-1 1.16,-0.699 2.101,-1.687 2.609,-2.926 0.285,-0.543 0.449,-1.16 0.528,-1.781 0.046,-0.332 0.046,-0.621 0.046,-0.953 l -13.277,0 c 0,0.379 0.047,0.711 0.09,1.031 z m 14.555,-18.433 c 1.273,0.656 2.48,1.484 3.468,2.515 0.25,0.289 0.457,0.539 0.7,0.828 l -4.789,4.055 c -0.207,-0.254 -0.415,-0.496 -0.665,-0.703 -0.703,-0.699 -1.527,-1.238 -2.437,-1.617 -1.113,-0.496 -2.352,-0.735 -3.594,-0.699 -1.574,-0.04 -3.191,0.41 -4.469,1.332 -0.953,0.617 -1.734,1.527 -2.238,2.558 -0.414,0.863 -0.574,1.77 -0.621,2.723 0,0.289 0,0.621 0.047,0.918 l 19.48,0 0,4.711 c -0.046,0.953 -0.046,1.894 -0.207,2.847 -0.253,1.782 -0.91,3.481 -1.906,4.961 -1.082,1.7 -2.609,3.102 -4.344,4.102 -1.941,1.113 -4.179,1.687 -6.41,1.652 -2.113,0.039 -4.258,-0.492 -6.121,-1.539 -1.734,-0.906 -3.262,-2.262 -4.422,-3.879 -1.078,-1.449 -1.906,-3.148 -2.191,-4.883 -0.129,-0.828 -0.164,-1.652 -0.207,-2.48 l 0,-5.492 c 0,-0.824 0.043,-1.699 0.125,-2.524 0.254,-1.91 0.953,-3.769 2.066,-5.379 1.196,-1.812 2.895,-3.273 4.836,-4.257 1.906,-1.036 4.055,-1.575 6.203,-1.575 2.688,-0.125 5.328,0.539 7.696,1.825 z m -35.766,11.199 c 0,-0.621 0,-1.238 -0.129,-1.86 -0.207,-1.242 -0.906,-2.437 -1.859,-3.261 -1.078,-1.035 -2.528,-1.657 -4.008,-1.657 -1.367,-0.082 -2.688,0.333 -3.801,1.118 -1.289,0.871 -2.242,2.238 -2.527,3.672 -0.086,0.414 -0.129,0.875 -0.164,1.367 l 0,7.031 c 0.039,0.621 0.086,1.238 0.242,1.824 0.289,1.242 1.082,2.356 2.113,3.137 1.117,0.906 2.481,1.414 3.883,1.414 1.367,0.035 2.734,-0.461 3.801,-1.332 1.129,-0.828 1.988,-2.023 2.242,-3.344 0.125,-0.539 0.16,-1.113 0.207,-1.699 l 0,-6.41 z m 6.234,18.605 -6.234,0 0,-3.468 c -0.254,0.242 -0.461,0.496 -0.715,0.746 -0.781,0.828 -1.734,1.527 -2.765,2.023 -1.243,0.664 -2.641,1.035 -4.043,1.078 -1.782,0.16 -3.563,-0.172 -5.168,-0.953 -1.657,-0.746 -3.102,-1.941 -4.137,-3.434 -0.918,-1.285 -1.539,-2.769 -1.781,-4.296 -0.125,-0.871 -0.172,-1.746 -0.172,-2.571 l 0,-9.59 c 0,-0.656 0,-1.367 0.129,-2.07 0.172,-1.605 0.789,-3.226 1.777,-4.547 1.035,-1.48 2.402,-2.687 4.012,-3.468 1.41,-0.7 2.972,-1.114 4.547,-1.079 1.652,-0.039 3.308,0.332 4.754,1.079 1.16,0.539 2.195,1.285 3.023,2.195 0.16,0.207 0.332,0.367 0.539,0.574 l 0,-2.32 c 0,-0.657 0.035,-1.321 -0.047,-1.977 -0.082,-0.918 -0.332,-1.828 -0.746,-2.605 -0.496,-0.957 -1.277,-1.735 -2.184,-2.278 -1.125,-0.746 -2.445,-1.078 -3.812,-1.078 -1.16,-0.082 -2.356,0.09 -3.344,0.621 -0.953,0.414 -1.781,1.114 -2.527,1.86 -0.16,0.172 -0.367,0.379 -0.539,0.586 l -4.836,-4.133 c 0.254,-0.254 0.461,-0.543 0.746,-0.793 1.32,-1.402 3.023,-2.481 4.836,-3.184 1.699,-0.656 3.469,-1.066 5.297,-1.066 2.308,-0.047 4.672,0.492 6.742,1.605 1.984,1.071 3.719,2.688 4.832,4.676 0.957,1.481 1.531,3.184 1.734,4.918 0.129,0.953 0.086,1.906 0.086,2.813 l 0,30.136 -0.004,0 z m -39.808,6.375 6.203,0 0,6.11 -6.203,0 0,-6.11 z m 0,-37.625 6.203,0 0,31.25 -6.203,0 0,-31.25 z m -10.637,5.95 c -0.41,0.046 -0.859,0.125 -1.148,0.367 -0.457,0.332 -0.664,0.918 -0.711,1.492 -0.082,0.496 -0.035,0.988 0,1.492 l 0,34.434 -6.235,0 0,-35.547 c -0.047,-0.586 -0.047,-1.16 0,-1.746 0.082,-1.356 0.618,-2.723 1.528,-3.801 0.871,-1.16 2.144,-1.988 3.511,-2.356 0.668,-0.171 1.403,-0.25 2.114,-0.285 l 3.757,0 0,5.903 -1.48,0 c -0.461,0 -0.875,0 -1.336,0.047 z m -23.691,31.675 6.199,0 0,6.11 -6.199,0 0,-6.11 z m 0,-37.625 6.199,0 0,31.25 -6.199,0 0,-31.25 z m -28.153,18.848 c 0.047,0.379 0.082,0.711 0.125,1.031 0.118,0.828 0.414,1.703 0.864,2.449 0.621,1.067 1.617,1.942 2.734,2.481 0.984,0.492 2.113,0.734 3.18,0.699 1.16,-0.047 2.273,-0.379 3.226,-1 1.16,-0.699 2.114,-1.687 2.61,-2.926 0.285,-0.543 0.445,-1.16 0.539,-1.781 0,-0.332 0.035,-0.621 0.035,-0.953 l -13.313,0 z m 17.446,7.027 c -1.067,1.7 -2.606,3.102 -4.34,4.102 -1.942,1.113 -4.172,1.687 -6.41,1.652 -2.149,0.039 -4.262,-0.492 -6.121,-1.539 -1.77,-0.906 -3.262,-2.262 -4.422,-3.879 -1.114,-1.449 -1.895,-3.148 -2.184,-4.883 -0.125,-0.828 -0.172,-1.652 -0.219,-2.48 l 0,-5.492 c 0,-0.824 0.047,-1.699 0.129,-2.524 0.207,-1.91 0.953,-3.769 2.067,-5.379 1.195,-1.812 2.894,-3.273 4.8,-4.257 1.942,-1.036 4.09,-1.575 6.239,-1.575 2.652,-0.125 5.34,0.539 7.695,1.825 1.285,0.656 2.48,1.484 3.469,2.515 0.207,0.289 0.457,0.539 0.664,0.828 l -4.754,4.055 c -0.207,-0.254 -0.461,-0.496 -0.668,-0.703 -0.699,-0.699 -1.527,-1.238 -2.481,-1.617 -1.113,-0.496 -2.308,-0.735 -3.546,-0.699 -1.575,-0.04 -3.184,0.41 -4.516,1.332 -0.941,0.617 -1.734,1.527 -2.184,2.558 -0.421,0.863 -0.617,1.77 -0.617,2.723 0,0.289 0,0.621 0.035,0.918 l 19.481,0 0,4.711 c -0.047,0.953 -0.082,1.894 -0.207,2.847 -0.254,1.782 -0.906,3.481 -1.906,4.961 l -0.004,0 z m -38.914,-0.781 -17.938,0 0,18.641 -6.652,0 0,-43.735 6.652,0 0,19.227 17.938,0 0,-19.227 6.628,0 0,43.735 -6.628,0" /></g></g></svg>