<?xml version="1.0" encoding="UTF-8" standalone="no"?>
<svg
   xmlns:dc="http://purl.org/dc/elements/1.1/"
   xmlns:cc="http://creativecommons.org/ns#"
   xmlns:rdf="http://www.w3.org/1999/02/22-rdf-syntax-ns#"
   xmlns:svg="http://www.w3.org/2000/svg"
   xmlns="http://www.w3.org/2000/svg"
   viewBox="0 0 586.05194 586.05194"
   height="586.05194"
   width="586.05194"
   xml:space="preserve"
   version="1.1"
   id="svg6105"><metadata
     id="metadata6111"><rdf:RDF><cc:Work
         rdf:about=""><dc:format>image/svg+xml</dc:format><dc:type
           rdf:resource="http://purl.org/dc/dcmitype/StillImage" /><dc:title></dc:title></cc:Work></rdf:RDF></metadata><defs
     id="defs6109"><clipPath
       id="clipPath6123"
       clipPathUnits="userSpaceOnUse"><path
         id="path6125"
         d="M 0,0 469,0 469,469 0,469 0,0 Z" /></clipPath><clipPath
       id="clipPath6145"
       clipPathUnits="userSpaceOnUse"><path
         id="path6147"
         d="m 40,86 388,0 0,346 -388,0 0,-346 z" /></clipPath></defs><g
     transform="matrix(1.25,0,0,-1.25,0,586.05194)"
     id="g6113"><g
       id="g6115"><g
         transform="translate(0,-0.158447)"
         id="g6117"><g
           id="g6119"><g
             clip-path="url(#clipPath6123)"
             id="g6121"><g
               id="g6127"><path
                 id="path6129"
                 style="fill:#ffffff;fill-opacity:1;fill-rule:nonzero;stroke:none"
                 d="m 468.348,30.582 c -0.036,-2.641 -0.45,-5.328 -1.243,-7.934 -0.746,-2.562 -1.859,-5.043 -3.304,-7.316 -1.367,-2.32 -3.055,-4.422 -5.043,-6.25 -1.942,-1.859 -4.137,-3.469 -6.488,-4.707 -2.356,-1.332 -4.883,-2.277 -7.524,-2.895 -2.113,-0.542 -4.262,-0.828 -6.457,-0.828 -0.25,-0.047 -0.457,-0.047 -0.699,-0.047 l -406.324,0 c -0.289,0 -0.543,0 -0.828,0.047 -2.653,0.036 -5.34,0.45 -7.95,1.243 -2.562,0.734 -5.043,1.859 -7.316,3.261 -2.309,1.41 -4.422,3.098 -6.234,5.039 -1.864,1.942 -3.481,4.137 -4.723,6.535 -1.32,2.356 -2.274,4.883 -2.895,7.493 -0.539,2.101 -0.828,4.293 -0.828,6.441 -0.031,0.254 -0.031,0.492 -0.031,0.746 l 0,406.324 c 0,0.254 0,0.543 0.031,0.793 0.047,2.688 0.461,5.375 1.242,7.938 0.746,2.609 1.86,5.09 3.274,7.363 1.402,2.274 3.101,4.375 5.043,6.234 1.941,1.864 4.133,3.438 6.523,4.723 2.367,1.274 4.879,2.274 7.488,2.895 2.114,0.492 4.297,0.781 6.454,0.828 l 407.855,0 c 2.688,-0.047 5.375,-0.461 7.938,-1.242 2.605,-0.746 5.086,-1.86 7.359,-3.309 2.273,-1.367 4.387,-3.066 6.25,-5.043 1.859,-1.949 3.434,-4.133 4.707,-6.5 1.289,-2.355 2.277,-4.867 2.895,-7.523 0.496,-2.114 0.792,-4.262 0.828,-6.442 l 0,-407.867 z" /><path
                 id="path6131"
                 style="fill:#000000;fill-opacity:1;fill-rule:nonzero;stroke:none"
                 d="m 468.348,30.582 c -0.036,-2.641 -0.45,-5.328 -1.243,-7.934 -0.746,-2.562 -1.859,-5.043 -3.304,-7.316 -1.367,-2.32 -3.055,-4.422 -5.043,-6.25 -1.942,-1.859 -4.137,-3.469 -6.488,-4.707 -2.356,-1.332 -4.883,-2.277 -7.524,-2.895 -2.113,-0.542 -4.262,-0.828 -6.457,-0.828 -0.25,-0.047 -0.457,-0.047 -0.699,-0.047 l -406.324,0 c -0.289,0 -0.543,0 -0.828,0.047 -2.653,0.036 -5.34,0.45 -7.95,1.243 -2.562,0.734 -5.043,1.859 -7.316,3.261 -2.309,1.41 -4.422,3.098 -6.234,5.039 -1.864,1.942 -3.481,4.137 -4.723,6.535 -1.32,2.356 -2.274,4.883 -2.895,7.493 -0.539,2.101 -0.828,4.293 -0.828,6.441 -0.031,0.254 -0.031,0.492 -0.031,0.746 l 0,406.324 c 0,0.254 0,0.543 0.031,0.793 0.047,2.688 0.461,5.375 1.242,7.938 0.746,2.609 1.86,5.09 3.274,7.363 1.402,2.274 3.101,4.375 5.043,6.234 1.941,1.864 4.133,3.438 6.523,4.723 2.367,1.274 4.879,2.274 7.488,2.895 2.114,0.492 4.297,0.781 6.454,0.828 l 407.855,0 c 2.688,-0.047 5.375,-0.461 7.938,-1.242 2.605,-0.746 5.086,-1.86 7.359,-3.309 2.273,-1.367 4.387,-3.066 6.25,-5.043 1.859,-1.949 3.434,-4.133 4.707,-6.5 1.289,-2.355 2.277,-4.867 2.895,-7.523 0.496,-2.114 0.792,-4.262 0.828,-6.442 l 0,-407.867 z m 0.461,407.902 c 0,2.192 -0.289,4.387 -0.829,6.536 -0.621,2.64 -1.621,5.246 -2.941,7.601 -1.273,2.445 -2.894,4.629 -4.789,6.617 -1.859,1.985 -4.02,3.719 -6.328,5.133 -2.32,1.449 -4.836,2.563 -7.488,3.309 -2.61,0.828 -5.329,1.238 -8.063,1.273 -0.242,0 -0.539,0.047 -0.781,0.047 l -406.324,0 c -0.254,0 -0.508,-0.047 -0.75,-0.047 -2.192,0 -4.422,-0.285 -6.578,-0.824 -2.645,-0.621 -5.204,-1.609 -7.606,-2.93 -2.398,-1.289 -4.629,-2.894 -6.57,-4.801 C 7.73,458.535 6.043,456.391 4.594,454.07 3.137,451.762 2.02,449.234 1.285,446.59 0.492,443.984 0.082,441.25 0,438.527 L 0,30.664 C 0.047,28.469 0.332,26.242 0.871,24.094 1.48,21.453 2.48,18.879 3.801,16.492 5.09,14.09 6.695,11.852 8.602,9.91 10.465,7.887 12.566,6.188 14.93,4.742 17.238,3.293 19.766,2.18 22.375,1.434 24.969,0.652 27.703,0.238 30.438,0.16 l 407.898,0 c 2.184,0.031 4.375,0.32 6.523,0.86 2.653,0.621 5.262,1.609 7.618,2.941 2.433,1.273 4.625,2.894 6.613,4.789 1.988,1.859 3.722,3.973 5.121,6.328 1.449,2.32 2.562,4.836 3.309,7.442 0.828,2.609 1.242,5.343 1.289,8.062 0,0.289 0.031,0.543 0.031,0.828 l 0,406.324 c 0,0.254 -0.031,0.508 -0.031,0.75" /></g></g></g></g><path
         id="path6133"
         style="fill:#000000;fill-opacity:1;fill-rule:nonzero;stroke:none"
         d="m 449.293,30.838 c -0.047,-1.067 -0.207,-2.145 -0.539,-3.133 -0.289,-0.953 -0.703,-1.863 -1.242,-2.688 -0.539,-0.875 -1.207,-1.656 -1.985,-2.367 -0.75,-0.699 -1.574,-1.273 -2.484,-1.769 -0.906,-0.504 -1.859,-0.829 -2.895,-1.079 -0.746,-0.171 -1.492,-0.253 -2.226,-0.253 -0.125,-0.036 -0.254,-0.036 -0.332,-0.036 l -406.324,0 c -0.129,0 -0.254,0 -0.414,0.036 -1.082,0 -2.161,0.207 -3.149,0.539 -0.953,0.289 -1.859,0.703 -2.687,1.242 -0.871,0.539 -1.653,1.207 -2.356,1.941 -0.699,0.746 -1.285,1.574 -1.781,2.481 -0.492,0.906 -0.824,1.906 -1.078,2.894 -0.16,0.746 -0.242,1.539 -0.242,2.274 -0.047,0.125 -0.047,0.207 -0.047,0.332 l 0,406.328 c 0,0.125 0,0.25 0.047,0.379 0,1.066 0.207,2.144 0.527,3.179 0.301,0.954 0.715,1.817 1.254,2.641 0.527,0.875 1.195,1.699 1.941,2.402 0.746,0.664 1.563,1.286 2.481,1.735 0.906,0.504 1.894,0.871 2.894,1.078 0.746,0.16 1.528,0.289 2.274,0.289 l 407.027,0 c 1.078,-0.047 2.148,-0.207 3.18,-0.539 0.953,-0.289 1.828,-0.703 2.656,-1.242 0.859,-0.539 1.687,-1.196 2.398,-1.977 0.657,-0.746 1.274,-1.574 1.735,-2.48 0.492,-0.918 0.859,-1.86 1.066,-2.895 0.176,-0.746 0.301,-1.492 0.301,-2.285 l 0,-407.027 z m 11.691,407.328 c 0,1.605 -0.207,3.215 -0.617,4.832 -0.449,1.988 -1.195,3.929 -2.183,5.711 -0.954,1.812 -2.161,3.468 -3.563,4.961 -1.398,1.48 -3.019,2.8 -4.754,3.836 -1.734,1.125 -3.594,1.953 -5.535,2.527 -1.988,0.574 -4.055,0.906 -6.121,0.953 -0.207,0 -0.414,0.035 -0.621,0.035 l -406.324,0 c -0.207,0 -0.379,0 -0.59,-0.035 -1.606,0 -3.262,-0.207 -4.832,-0.621 -1.989,-0.457 -3.93,-1.207 -5.758,-2.191 -1.766,-0.957 -3.465,-2.149 -4.914,-3.551 -1.527,-1.414 -2.801,-3.02 -3.883,-4.766 -1.078,-1.734 -1.906,-3.597 -2.48,-5.535 -0.621,-1.988 -0.954,-4.055 -1,-6.125 l 0,-407.52 c 0.046,-1.617 0.253,-3.273 0.621,-4.835 0.461,-1.985 1.207,-3.938 2.195,-5.754 0.953,-1.782 2.191,-3.469 3.594,-4.914 1.414,-1.528 2.984,-2.817 4.754,-3.895 1.699,-1.066 3.562,-1.894 5.547,-2.48 1.941,-0.622 4.011,-0.954 6.078,-0.989 l 407.566,0 c 1.617,0.035 3.227,0.254 4.801,0.621 2.019,0.457 3.961,1.196 5.742,2.192 1.824,0.953 3.481,2.195 4.961,3.597 1.492,1.399 2.816,2.973 3.848,4.754 1.113,1.7 1.941,3.563 2.527,5.536 0.574,1.941 0.906,4.007 0.941,6.078 0,0.207 0.047,0.457 0.047,0.664 l 0,406.328 c 0,0.172 0,0.379 -0.047,0.586" /><path
         id="path6135"
         style="fill:#000000;fill-opacity:1;fill-rule:nonzero;stroke:none"
         d="m 31.398,1.217 -1.671,0 m 0,0 -3.676,0.668 m 0,0 -3.676,1.003 m 0,0 -3.68,1.34 m 0,0 -3.343,1.668 m 0,0 -3.008,2.008 m 0,0 -3.008,2.676 m 0,0 -2.34,2.672 m 0,0 -2.008,3.011 m 0,0 -2.004,3.34 m 0,0 -1.339,3.68 m 0,0 -0.668,3.676 m 0,0 -0.668,3.679 m 0,0 0,409.188 m 0,0 0.668,3.68 m 0,0 0.668,3.675 m 0,0 1.339,3.68 m 0,0 2.004,3.34 m 0,0 2.008,3.012 m 0,0 2.34,3.007 m 0,0 3.008,2.34 m 0,0 3.008,2.004 m 0,0 3.343,2.008 m 0,0 3.68,1.336 m 0,0 3.676,0.668 3.676,0.672 m 0,0 409.191,0 m 0,0 3.68,-0.672 3.675,-0.668 m 0,0 3.676,-1.336 m 0,0 3.344,-2.008 m 0,0 3.008,-2.004 m 0,0 2.676,-2.34 m 0,0 2.675,-3.007 m 0,0 2.004,-3.012 m 0,0 1.672,-3.34 m 0,0 1.34,-3.68 m 0,0 1,-3.675 m 0,0 0.668,-3.68 m 0,0 0,-409.188 m 0,0 -0.668,-3.679 m 0,0 -1,-3.676 m 0,0 -1.34,-3.68 m 0,0 -1.672,-3.34 m 0,0 -2.004,-3.011 m 0,0 -2.675,-2.672 -2.676,-2.676 m 0,0 -3.008,-2.008 m 0,0 -3.344,-1.668 m 0,0 -3.676,-1.34 m 0,0 -3.675,-1.003 m 0,0 -3.68,-0.668 m 0,0 -2.004,0 m 0,0 -405.516,0" /><path
         id="path6137"
         style="fill:#992572;fill-opacity:1;fill-rule:nonzero;stroke:none"
         d="m 263.102,44.717 -222.297,0 0.687,109.773 43.91,145.453 44.594,-145.453 109.777,0 23.329,-54.887 0,-54.886 z" /><g
         transform="translate(0,-0.158447)"
         id="g6139"><g
           id="g6141"><g
             clip-path="url(#clipPath6145)"
             id="g6143"><g
               id="g6149"><path
                 id="path6151"
                 style="fill:#231f20;fill-opacity:1;fill-rule:nonzero;stroke:none"
                 d="m 355.435,87.027 6.746,0 0,47.059 -6.746,0 -6.672,-4.898 0,-7.141 6.672,4.898 0,-39.918" /><path
                 id="path6153"
                 style="fill:#231f20;fill-opacity:1;fill-rule:evenodd;stroke:none"
                 d="m 390.41,100.57 c 0,-4.554 -2.644,-7.199 -6.609,-7.199 -3.969,0 -6.613,2.645 -6.613,7.199 l 0,19.957 c 0,4.571 2.644,7.215 6.613,7.215 3.965,0 6.609,-2.644 6.609,-7.215 l 0,-19.957 z m -19.957,-0.394 c 0,-8.656 6.402,-13.539 13.348,-13.539 6.941,0 13.344,4.883 13.344,13.539 l 0,20.758 c 0,8.656 -6.403,13.543 -13.344,13.543 -6.946,0 -13.348,-4.887 -13.348,-13.543 l 0,-20.758" /><path
                 id="path6155"
                 style="fill:#231f20;fill-opacity:1;fill-rule:evenodd;stroke:none"
                 d="m 409.012,120.211 c 0,-1.899 -1.102,-2.988 -2.754,-2.988 -1.653,0 -2.742,1.089 -2.742,2.988 l 0,8.301 c 0,1.898 1.089,3 2.742,3 1.652,0 2.754,-1.102 2.754,-3 l 0,-8.301 z m -8.301,-0.16 c 0,-3.598 2.656,-5.645 5.547,-5.645 2.89,0 5.558,2.047 5.558,5.645 l 0,8.633 c 0,3.601 -2.668,5.632 -5.558,5.632 -2.891,0 -5.547,-2.031 -5.547,-5.632 l 0,-8.633" /><path
                 id="path6157"
                 style="fill:#231f20;fill-opacity:1;fill-rule:evenodd;stroke:none"
                 d="m 422.223,120.211 c 0,-1.899 -1.102,-2.988 -2.754,-2.988 -1.641,0 -2.742,1.089 -2.742,2.988 l 0,8.301 c 0,1.898 1.101,3 2.742,3 1.652,0 2.754,-1.102 2.754,-3 l 0,-8.301 z m -8.301,-0.16 c 0,-3.598 2.668,-5.645 5.547,-5.645 2.89,0 5.558,2.047 5.558,5.645 l 0,8.633 c 0,3.601 -2.668,5.632 -5.558,5.632 -2.879,0 -5.547,-2.031 -5.547,-5.632 l 0,-8.633" /><path
                 id="path6159"
                 style="fill:#231f20;fill-opacity:1;fill-rule:evenodd;stroke:none"
                 d="m 377.066,195.383 c 0,4.433 3.305,6.746 6.735,6.746 3.441,0 6.746,-2.313 6.746,-6.746 0,-4.434 -3.305,-6.735 -6.746,-6.735 -3.43,0 -6.735,2.301 -6.735,6.735 z m -7.605,-20.219 c 0,-8.336 6.539,-14.141 14.34,-14.141 7.797,0 14.336,5.805 14.336,14.141 0,4.422 -1.981,8.195 -5.547,10.57 2.781,2.508 4.691,5.422 4.691,9.512 0,7.606 -5.879,13.617 -13.48,13.617 -7.606,0 -13.485,-6.011 -13.485,-13.617 0,-4.09 1.922,-7.004 4.692,-9.512 -3.563,-2.375 -5.547,-6.148 -5.547,-10.57 z m 6.734,0.063 c 0,4.296 3.575,7.468 7.606,7.468 4.027,0 7.601,-3.172 7.601,-7.468 0,-4.297 -3.574,-7.469 -7.601,-7.469 -4.031,0 -7.606,3.172 -7.606,7.469" /><path
                 id="path6161"
                 style="fill:#231f20;fill-opacity:1;fill-rule:evenodd;stroke:none"
                 d="m 409.012,194.598 c 0,-1.899 -1.102,-2.989 -2.754,-2.989 -1.653,0 -2.742,1.09 -2.742,2.989 l 0,8.304 c 0,1.895 1.089,3 2.742,3 1.652,0 2.754,-1.105 2.754,-3 l 0,-8.304 z m -8.301,-0.157 c 0,-3.601 2.656,-5.648 5.547,-5.648 2.89,0 5.558,2.047 5.558,5.648 l 0,8.629 c 0,3.602 -2.668,5.633 -5.558,5.633 -2.891,0 -5.547,-2.031 -5.547,-5.633 l 0,-8.629" /><path
                 id="path6163"
                 style="fill:#231f20;fill-opacity:1;fill-rule:evenodd;stroke:none"
                 d="m 422.223,194.598 c 0,-1.899 -1.102,-2.989 -2.754,-2.989 -1.641,0 -2.742,1.09 -2.742,2.989 l 0,8.304 c 0,1.895 1.101,3 2.742,3 1.652,0 2.754,-1.105 2.754,-3 l 0,-8.304 z m -8.301,-0.157 c 0,-3.601 2.668,-5.648 5.547,-5.648 2.89,0 5.558,2.047 5.558,5.648 l 0,8.629 c 0,3.602 -2.668,5.633 -5.558,5.633 -2.879,0 -5.547,-2.031 -5.547,-5.633 l 0,-8.629" /><path
                 id="path6165"
                 style="fill:#231f20;fill-opacity:1;fill-rule:nonzero;stroke:none"
                 d="m 199.23,241.875 c 4.961,-4.359 11.036,-6.465 17.977,-6.465 10.113,0 16.52,5.024 16.52,13.68 0,6.402 -4.09,12.488 -12.883,13.543 -2.254,0.269 -4.028,0.527 -5.289,0.722 -4.766,0.735 -6.676,3.379 -6.676,6.024 0,4.492 3.504,6.734 7.863,6.734 4.16,0 8.192,-1.457 11.633,-3.636 l 3.965,5.89 c -4.297,2.84 -9.453,4.887 -15.27,4.887 -9.707,0 -15.328,-5.684 -15.328,-13.754 0,-6.793 4.36,-12.086 12.488,-13.211 2.45,-0.332 4.102,-0.601 6.208,-0.855 4.238,-0.528 6.148,-3.039 6.148,-6.344 0,-3.906 -3.5,-6.551 -9.316,-6.551 -5.024,0 -9.774,1.859 -13.348,4.699 l -4.692,-5.363" /><path
                 id="path6167"
                 style="fill:#231f20;fill-opacity:1;fill-rule:evenodd;stroke:none"
                 d="m 239.027,252.59 c 0,-7.274 1.051,-10.051 3.637,-12.895 1.848,-2.043 4.945,-4.285 10.176,-4.285 5.215,0 8.328,2.242 10.176,4.285 2.57,2.844 3.636,5.621 3.636,12.895 0,7.199 -1.066,9.98 -3.636,12.82 -1.848,2.047 -4.961,4.301 -10.176,4.301 -5.231,0 -8.328,-2.254 -10.176,-4.301 -2.582,-2.84 -3.637,-5.621 -3.637,-12.82 z m 20.879,-0.074 c 0,-4.825 -0.394,-6.145 -1.656,-7.922 -0.977,-1.395 -3.098,-2.449 -5.41,-2.449 -2.317,0 -4.434,1.054 -5.426,2.449 -1.246,1.777 -1.652,3.097 -1.652,7.996 0,4.824 0.406,6.148 1.652,7.922 0.992,1.398 3.109,2.449 5.426,2.449 2.312,0 4.433,-1.051 5.41,-2.449 1.262,-1.774 1.656,-3.098 1.656,-7.996" /><path
                 id="path6169"
                 style="fill:#231f20;fill-opacity:1;fill-rule:nonzero;stroke:none"
                 d="m 273.742,235.805 6.735,0 0,19.957 c 0,4.554 2.851,7.199 6.687,7.199 3.758,0 6.598,-2.645 6.598,-7.199 l 0,-19.957 6.746,0 0,22.273 c 0,7.59 -5.949,11.633 -11.164,11.633 -3.578,0 -6.614,-1.324 -8.735,-3.969 l -0.132,0 0,3.563 -6.735,0 0,-33.5" /><path
                 id="path6171"
                 style="fill:#231f20;fill-opacity:1;fill-rule:nonzero;stroke:none"
                 d="m 309.227,235.805 6.746,0 0,19.957 c 0,4.554 2.843,7.199 6.675,7.199 3.77,0 6.614,-2.645 6.614,-7.199 l 0,-19.957 6.734,0 0,22.273 c 0,7.59 -5.953,11.633 -11.168,11.633 -3.562,0 -6.613,-1.324 -8.719,-3.969 l -0.132,0 0,3.563 -6.75,0 0,-33.5" /><path
                 id="path6173"
                 style="fill:#231f20;fill-opacity:1;fill-rule:nonzero;stroke:none"
                 d="m 345.117,269.305 -3.367,0 0,-5.157 3.367,0 0,-20.078 c 0,-5.293 3.442,-8.265 8.133,-8.265 l 3.5,0 0,6.34 -2.512,0 c -1.652,0 -2.375,0.664 -2.375,2.511 l 0,19.492 4.887,0 0,5.157 -4.887,0 0,10.175 -6.746,0 0,-10.175" /><path
                 id="path6175"
                 style="fill:#231f20;fill-opacity:1;fill-rule:evenodd;stroke:none"
                 d="m 380.664,235.805 6.746,0 0,22.859 c 0,8.266 -5.68,11.047 -13.945,11.047 -5.02,0 -8.731,-1.324 -11.301,-4.899 l 5.289,-4.031 c 1.188,1.926 2.84,2.574 6.344,2.574 4.824,0 6.867,-1.117 6.867,-4.285 l 0,-3.504 -9.316,0 c -7.2,0 -10.899,-4.566 -10.899,-9.918 0,-5.816 4.36,-10.238 11.828,-10.238 4.555,0 6.868,1.055 8.254,3.367 l 0.133,0 0,-2.972 z m 0,11.765 c 0,-5.23 -1.91,-5.816 -7.531,-5.816 -4.555,0 -6.34,1.984 -6.34,4.226 0,2.446 1.848,4.028 5.816,4.028 l 8.055,0 0,-2.438" /><path
                 id="path6177"
                 style="fill:#231f20;fill-opacity:1;fill-rule:evenodd;stroke:none"
                 d="m 414.988,235.863 c 0,-4.687 -3.172,-7.261 -7.664,-7.261 -2.586,0 -4.898,1.386 -6.543,3.039 l -5.226,-4.164 c 2.976,-3.368 7.336,-5.622 11.633,-5.622 7.664,0 14.535,4.629 14.535,14.743 l 0,32.707 -6.735,0 0,-3.563 c -2.511,2.645 -5.218,3.969 -8.66,3.969 -4.355,0 -7.332,-2.18 -8.851,-4.106 -1.922,-2.507 -2.508,-3.769 -2.508,-13.089 0,-9.243 0.586,-10.504 2.508,-13.016 1.519,-1.91 4.496,-4.09 8.851,-4.09 3.442,0 6.539,1.582 8.66,3.895 l 0,-3.442 z m -13.285,16.653 c 0,5.425 0.133,6.355 1.32,7.875 0.93,1.187 2.645,2.57 5.352,2.57 2.645,0 4.359,-1.383 5.289,-2.57 1.188,-1.52 1.324,-2.45 1.324,-7.875 0,-5.348 -0.136,-6.27 -1.324,-7.786 -0.93,-1.199 -2.644,-2.585 -5.289,-2.585 -2.707,0 -4.422,1.386 -5.352,2.585 -1.187,1.516 -1.32,2.438 -1.32,7.786" /><path
                 id="path6179"
                 style="fill:#231f20;fill-opacity:1;fill-rule:nonzero;stroke:none"
                 d="m 102.617,337.355 9.578,0 0,-2.449 c 0,-5.879 -4.226,-9.98 -9.652,-9.98 -3.367,0 -5.816,1.594 -7.258,3.441 -1.851,2.375 -2.39,3.699 -2.39,13.348 0,9.648 0.539,10.969 2.39,13.347 1.442,1.86 3.891,3.438 7.258,3.438 4.496,0 7.875,-3.168 8.988,-6.805 l 7.543,0 c -1.457,7.664 -7.601,13.946 -16.531,13.946 -7.395,0 -12.488,-4.36 -14.731,-8.461 -1.515,-2.77 -2.054,-4.164 -2.054,-15.465 0,-11.305 0.539,-12.688 2.054,-15.465 2.243,-4.09 7.336,-8.449 14.731,-8.449 9.395,0 16.789,7.394 16.789,16.715 l 0,9.586 -16.715,0 0,-6.747" /><path
                 id="path6181"
                 style="fill:#231f20;fill-opacity:1;fill-rule:evenodd;stroke:none"
                 d="m 125.418,334.98 c 0,-7.273 1.066,-10.054 3.637,-12.894 1.847,-2.047 4.961,-4.285 10.175,-4.285 5.231,0 8.34,2.238 10.188,4.285 2.57,2.84 3.625,5.621 3.625,12.894 0,7.2 -1.055,9.977 -3.625,12.821 -1.848,2.043 -4.957,4.297 -10.188,4.297 -5.214,0 -8.328,-2.254 -10.175,-4.297 -2.571,-2.844 -3.637,-5.621 -3.637,-12.821 z m 20.891,-0.074 c 0,-4.824 -0.391,-6.148 -1.653,-7.922 -0.992,-1.398 -3.113,-2.449 -5.426,-2.449 -2.3,0 -4.421,1.051 -5.414,2.449 -1.257,1.774 -1.652,3.098 -1.652,7.996 0,4.825 0.395,6.145 1.652,7.922 0.993,1.395 3.114,2.45 5.414,2.45 2.313,0 4.434,-1.055 5.426,-2.45 1.262,-1.777 1.653,-3.097 1.653,-7.996" /><path
                 id="path6183"
                 style="fill:#231f20;fill-opacity:1;fill-rule:nonzero;stroke:none"
                 d="m 160.535,351.695 -3.367,0 0,-5.156 3.367,0 0,-20.082 c 0,-5.289 3.442,-8.266 8.133,-8.266 l 3.5,0 0,6.344 -2.508,0 c -1.652,0 -2.39,0.66 -2.39,2.508 l 0,19.496 4.898,0 0,5.156 -4.898,0 0,10.172 -6.735,0 0,-10.172" /><path
                 id="path6185"
                 style="fill:#231f20;fill-opacity:1;fill-rule:nonzero;stroke:none"
                 d="m 178.902,351.695 -3.367,0 0,-5.156 3.367,0 0,-20.082 c 0,-5.289 3.43,-8.266 8.133,-8.266 l 3.5,0 0,6.344 -2.508,0 c -1.652,0 -2.386,0.66 -2.386,2.508 l 0,19.496 4.894,0 0,5.156 -4.894,0 0,10.172 -6.739,0 0,-10.172" /><path
                 id="path6187"
                 style="fill:#231f20;fill-opacity:1;fill-rule:evenodd;stroke:none"
                 d="m 222.84,332.395 0,5.558 c 0,8.66 -6.406,14.145 -13.813,14.145 -6.476,0 -13.812,-4.239 -13.812,-17.254 0,-13.75 7.996,-17.043 14.879,-17.043 4.492,0 8.777,1.578 12.086,5.41 l -4.887,4.164 c -1.984,-2.043 -4.766,-3.234 -7.336,-3.234 -4.629,0 -7.996,2.769 -7.996,8.254 l 20.879,0 z m -20.879,5.558 c 0.137,5.082 3.098,7.789 7.066,7.789 3.969,0 6.883,-2.707 7.078,-7.789 l -14.144,0" /><path
                 id="path6189"
                 style="fill:#231f20;fill-opacity:1;fill-rule:nonzero;stroke:none"
                 d="m 226.23,323.812 c 4.297,-4.042 9.321,-6.011 14.743,-6.011 7.8,0 13.875,3.758 13.875,10.297 0,5.363 -2.782,9.586 -9.711,10.054 l -5.559,0.391 c -3.367,0.269 -4.422,1.727 -4.422,3.172 0,2.312 1.446,4.027 5.746,4.027 3.637,0 6.34,-1.25 8.985,-3.097 l 4.164,4.886 c -3.305,2.778 -7.262,4.567 -13.149,4.567 -7.066,0 -12.492,-3.504 -12.492,-10.309 0,-5.758 4.102,-9.062 9.649,-9.516 l 5.953,-0.539 c 2.312,-0.195 4.101,-0.918 4.101,-3.304 0,-2.844 -2.781,-4.289 -6.613,-4.289 -4.492,0 -7.664,1.445 -10.578,4.289 l -4.692,-4.618" /><path
                 id="path6191"
                 style="fill:#231f20;fill-opacity:1;fill-rule:evenodd;stroke:none"
                 d="m 281.676,318.191 6.746,0 0,47.059 -6.746,0 0,-17.121 c -2.508,2.375 -5.215,3.969 -8.656,3.969 -4.102,0 -7.067,-1.848 -8.989,-4.371 -1.847,-2.375 -2.375,-4.555 -2.375,-12.747 0,-8.265 0.528,-10.445 2.375,-12.82 1.922,-2.512 4.887,-4.359 8.989,-4.359 3.441,0 6.539,1.578 8.656,3.89 l 0,-3.5 z m -6.614,27.161 c 6.282,0 6.614,-5.547 6.614,-10.372 0,-4.898 -0.328,-10.445 -6.614,-10.445 -6.339,0 -6.671,5.215 -6.671,10.445 0,5.153 0.332,10.372 6.671,10.372" /><path
                 id="path6193"
                 style="fill:#231f20;fill-opacity:1;fill-rule:evenodd;stroke:none"
                 d="m 296.148,318.191 6.743,0 0,33.504 -6.743,0 0,-33.504 z m 0,40.309 6.743,0 0,6.742 -6.743,0 0,-6.742 z" /><path
                 id="path6195"
                 style="fill:#231f20;fill-opacity:1;fill-rule:evenodd;stroke:none"
                 d="m 337.781,332.395 0,5.558 c 0,8.66 -6.402,14.145 -13.812,14.145 -6.477,0 -13.813,-4.239 -13.813,-17.254 0,-13.75 7.996,-17.043 14.879,-17.043 4.496,0 8.793,1.578 12.086,5.41 l -4.887,4.164 c -1.984,-2.043 -4.761,-3.234 -7.332,-3.234 -4.629,0 -7.996,2.769 -7.996,8.254 l 20.875,0 z m -20.875,5.558 c 0.133,5.082 3.11,7.789 7.063,7.789 3.969,0 6.883,-2.707 7.078,-7.789 l -14.141,0" /><path
                 id="path6197"
                 style="fill:#231f20;fill-opacity:1;fill-rule:nonzero;stroke:none"
                 d="m 344.871,318.191 6.75,0 0,19.961 c 0,4.555 2.84,7.2 6.672,7.2 3.773,0 6.613,-2.645 6.613,-7.2 l 0,-19.961 6.735,0 0,22.274 c 0,7.594 -5.938,11.633 -11.168,11.633 -3.563,0 -6.614,-1.325 -8.719,-3.969 l -0.133,0 0,3.566 -6.75,0 0,-33.504" /><path
                 id="path6199"
                 style="fill:#231f20;fill-opacity:1;fill-rule:nonzero;stroke:none"
                 d="m 376.672,323.812 c 4.285,-4.042 9.32,-6.011 14.73,-6.011 7.801,0 13.887,3.758 13.887,10.297 0,5.363 -2.777,9.586 -9.723,10.054 l -5.546,0.391 c -3.368,0.269 -4.434,1.727 -4.434,3.172 0,2.312 1.457,4.027 5.758,4.027 3.636,0 6.34,-1.25 8.988,-3.097 l 4.16,4.886 c -3.304,2.778 -7.273,4.567 -13.148,4.567 -7.078,0 -12.492,-3.504 -12.492,-10.309 0,-5.758 4.089,-9.062 9.648,-9.516 l 5.941,-0.539 c 2.313,-0.195 4.102,-0.918 4.102,-3.304 0,-2.844 -2.781,-4.289 -6.613,-4.289 -4.492,0 -7.664,1.445 -10.567,4.289 l -4.691,-4.618" /><path
                 id="path6201"
                 style="fill:#231f20;fill-opacity:1;fill-rule:nonzero;stroke:none"
                 d="m 412.488,351.695 -3.379,0 0,-5.156 3.379,0 0,-20.082 c 0,-5.289 3.43,-8.266 8.133,-8.266 l 3.5,0 0,6.344 -2.508,0 c -1.656,0 -2.39,0.66 -2.39,2.508 l 0,19.496 4.898,0 0,5.156 -4.898,0 0,10.172 -6.735,0 0,-10.172" /><path
                 id="path6203"
                 style="fill:#231f20;fill-opacity:1;fill-rule:nonzero;stroke:none"
                 d="m 40.805,384.578 30.062,0 0,6.734 -22.922,0 0,13.813 19.555,0 0,6.355 -19.555,0 0,13.411 22.922,0 0,6.746 -30.062,0 0,-47.059" /><path
                 id="path6205"
                 style="fill:#231f20;fill-opacity:1;fill-rule:nonzero;stroke:none"
                 d="m 84.496,384.578 5.547,0 12.293,33.504 -7.137,0 -7.863,-23.461 -0.133,0 -7.863,23.461 -7.137,0 12.293,-33.504" /><path
                 id="path6207"
                 style="fill:#231f20;fill-opacity:1;fill-rule:evenodd;stroke:none"
                 d="m 123.887,384.578 6.734,0 0,22.863 c 0,8.266 -5.68,11.043 -13.933,11.043 -5.032,0 -8.731,-1.32 -11.301,-4.898 l 5.277,-4.027 c 1.199,1.921 2.852,2.57 6.356,2.57 4.824,0 6.867,-1.113 6.867,-4.285 l 0,-3.5 -9.317,0 c -7.199,0 -10.91,-4.567 -10.91,-9.918 0,-5.817 4.371,-10.238 11.828,-10.238 4.567,0 6.883,1.054 8.266,3.367 l 0.133,0 0,-2.977 z m 0,11.77 c 0,-5.231 -1.922,-5.817 -7.532,-5.817 -4.566,0 -6.351,1.985 -6.351,4.223 0,2.449 1.859,4.031 5.812,4.031 l 8.071,0 0,-2.437" /><path
                 id="path6209"
                 style="fill:#231f20;fill-opacity:1;fill-rule:nonzero;stroke:none"
                 d="m 139.363,384.578 6.75,0 0,19.961 c 0,4.555 2.84,7.199 6.672,7.199 3.774,0 6.613,-2.644 6.613,-7.199 l 0,-19.961 6.735,0 0,22.274 c 0,7.593 -5.949,11.632 -11.168,11.632 -3.563,0 -6.613,-1.32 -8.719,-3.964 l -0.133,0 0,3.562 -6.746,0 0,-33.504" /><path
                 id="path6211"
                 style="fill:#231f20;fill-opacity:1;fill-rule:evenodd;stroke:none"
                 d="m 193.695,384.641 c 0,-4.692 -3.172,-7.262 -7.664,-7.262 -2.586,0 -4.886,1.383 -6.539,3.039 l -5.23,-4.164 c 2.976,-3.367 7.336,-5.621 11.633,-5.621 7.667,0 14.535,4.629 14.535,14.742 l 0,32.707 -6.735,0 0,-3.562 c -2.507,2.644 -5.215,3.964 -8.656,3.964 -4.359,0 -7.336,-2.191 -8.851,-4.101 -1.926,-2.508 -2.512,-3.77 -2.512,-13.09 0,-9.242 0.586,-10.504 2.512,-13.016 1.515,-1.91 4.492,-4.089 8.851,-4.089 3.441,0 6.539,1.578 8.656,3.894 l 0,-3.441 z m -13.285,16.652 c 0,5.426 0.137,6.344 1.324,7.875 0.93,1.187 2.645,2.57 5.348,2.57 2.648,0 4.359,-1.383 5.293,-2.57 1.187,-1.531 1.32,-2.449 1.32,-7.875 0,-5.352 -0.133,-6.27 -1.32,-7.785 -0.934,-1.203 -2.645,-2.586 -5.293,-2.586 -2.703,0 -4.418,1.383 -5.348,2.586 -1.187,1.515 -1.324,2.433 -1.324,7.785" /><path
                 id="path6213"
                 style="fill:#231f20;fill-opacity:1;fill-rule:evenodd;stroke:none"
                 d="m 235.133,398.785 0,5.559 c 0,8.656 -6.403,14.14 -13.813,14.14 -6.476,0 -13.812,-4.234 -13.812,-17.25 0,-13.754 7.996,-17.046 14.879,-17.046 4.492,0 8.777,1.578 12.086,5.414 l -4.887,4.16 c -1.984,-2.043 -4.762,-3.231 -7.336,-3.231 -4.629,0 -7.996,2.766 -7.996,8.254 l 20.879,0 z m -20.879,5.559 c 0.137,5.082 3.098,7.785 7.066,7.785 3.969,0 6.883,-2.703 7.078,-7.785 l -14.144,0" /><path
                 id="path6215"
                 style="fill:#231f20;fill-opacity:1;fill-rule:nonzero;stroke:none"
                 d="m 242.223,392.711 c 0,-6.012 3.711,-8.133 8.597,-8.133 l 2.973,0 0,6.344 -2.313,0 c -1.652,0 -2.511,0.797 -2.511,2.316 l 0,38.399 -6.746,0 0,-38.926" /><path
                 id="path6217"
                 style="fill:#231f20;fill-opacity:1;fill-rule:evenodd;stroke:none"
                 d="m 259.477,384.578 6.738,0 0,33.508 -6.738,0 0,-33.508 z m 0,40.313 6.738,0 0,6.742 -6.738,0 0,-6.742 z" /><path
                 id="path6219"
                 style="fill:#231f20;fill-opacity:1;fill-rule:nonzero;stroke:none"
                 d="m 271.441,390.199 c 4.286,-4.039 9.317,-6.011 14.731,-6.011 7.797,0 13.883,3.757 13.883,10.296 0,5.364 -2.778,9.59 -9.723,10.055 l -5.547,0.391 c -3.367,0.269 -4.43,1.726 -4.43,3.172 0,2.316 1.457,4.027 5.754,4.027 3.637,0 6.344,-1.246 8.989,-3.098 l 4.164,4.887 c -3.309,2.781 -7.274,4.566 -13.153,4.566 -7.078,0 -12.488,-3.5 -12.488,-10.308 0,-5.754 4.09,-9.063 9.649,-9.516 l 5.937,-0.539 c 2.316,-0.195 4.102,-0.918 4.102,-3.305 0,-2.839 -2.778,-4.285 -6.614,-4.285 -4.492,0 -7.664,1.446 -10.566,4.285 l -4.688,-4.617" /><path
                 id="path6221"
                 style="fill:#231f20;fill-opacity:1;fill-rule:nonzero;stroke:none"
                 d="m 326.555,394.426 c -1.653,-2.047 -4.043,-3.504 -6.809,-3.504 -5.484,0 -8.73,3.109 -8.73,10.371 0,7.336 3.246,10.445 8.73,10.445 2.766,0 5.156,-1.457 6.809,-3.5 l 4.945,4.43 c -2.902,3.367 -6.93,5.816 -12.023,5.816 -7.727,0 -15.196,-4.898 -15.196,-17.191 0,-12.219 7.469,-17.105 15.196,-17.105 5.093,0 9.121,2.437 12.023,5.804 l -4.945,4.434" /><path
                 id="path6223"
                 style="fill:#231f20;fill-opacity:1;fill-rule:nonzero;stroke:none"
                 d="m 336.203,384.578 6.735,0 0,19.961 c 0,4.555 2.839,7.199 6.675,7.199 3.77,0 6.61,-2.644 6.61,-7.199 l 0,-19.961 6.734,0 0,22.274 c 0,7.593 -5.937,11.632 -11.164,11.632 -3.566,0 -6.602,-1.32 -8.719,-3.964 l -0.136,0 0,17.117 -6.735,0 0,-47.059" /><path
                 id="path6225"
                 style="fill:#231f20;fill-opacity:1;fill-rule:evenodd;stroke:none"
                 d="m 397.66,398.785 0,5.559 c 0,8.656 -6.402,14.14 -13.812,14.14 -6.477,0 -13.813,-4.234 -13.813,-17.25 0,-13.754 7.996,-17.046 14.867,-17.046 4.493,0 8.793,1.578 12.098,5.414 l -4.887,4.16 c -1.984,-2.043 -4.761,-3.231 -7.336,-3.231 -4.629,0 -7.996,2.766 -7.996,8.254 l 20.879,0 z m -20.879,5.559 c 0.125,5.082 3.102,7.785 7.067,7.785 3.968,0 6.871,-2.703 7.078,-7.785 l -14.145,0" /><path
                 id="path6227"
                 style="fill:#231f20;fill-opacity:1;fill-rule:nonzero;stroke:none"
                 d="m 404.75,384.578 6.746,0 0,20.156 c 0,4.887 3.234,7.004 6.539,7.004 1.715,0 2.844,-0.465 4.434,-1.652 l 4.886,5.816 c -2.046,1.59 -4.296,2.582 -7.003,2.582 -3.579,0 -6.614,-1.32 -8.731,-3.964 l -0.125,0 0,3.562 -6.746,0 0,-33.504" /></g></g></g></g></g></g></svg>