<?xml version="1.0" encoding="UTF-8" standalone="no"?>
<svg xmlns:svg="http://www.w3.org/2000/svg" xmlns="http://www.w3.org/2000/svg" version="1.1"
    width="690px" height="610px" viewBox="0 0 690 610" xml:space="preserve">
	<g transform="matrix(1,0,0,-1,5,600)" style="fill-rule:nonzero;stroke:none;">
		<path style="fill:#ffffff; stroke:#000000; stroke-width:4;" d="M 338.9,594.5 C 331.4,594.5 323.8,591.6 318.1,585.9 316.2,584 314.7,581.9 313.4,579.7 L 298.2,553.6 298.1,553.6 4.984,45.55 C 4.93,45.46 4.887,45.36 4.832,45.26 3.348,42.87 2.176,40.22 1.402,37.35 -2.789,21.69 6.504,5.597 22.16,1.402 24.75,0.707 27.35,0.39 29.9,0.402 L 648,0.402 C 664.2,0.402 677.3,13.54 677.3,29.76 677.3,35.06 675.9,40.04 673.4,44.34 673.4,44.37 673.4,44.4 673.4,44.43 L 369,572.8 C 365.2,579.5 363.4,582.1 359.6,585.9 353.9,591.6 346.4,594.5 338.9,594.5 z" />
		<path style="fill:#c1121c;" d="M 338.9,587.1 C 331.7,587.2 323.9,583.6 320.1,576.7 L 10.79,40.85 C 9.008,37.2 8.258,34.03 8.234,30.4 8.234,23.9 11.11,17.74 16.08,13.55 20.47,10.16 24.62,8.398 30.2,8.398 L 648.1,8.398 C 651.9,8.363 655.7,9.269 659.1,11.53 665.5,15.43 669.5,22.41 669.5,29.96 669.3,33.85 668.4,37.96 666.6,40.85 L 357.5,576.8 C 357.5,576.9 357.4,576.9 357.4,577 357.4,577 357.4,577.1 357.3,577.1 356.2,578.9 354.9,580.4 353.3,581.7 349.7,584.9 345.2,586.7 340.5,587.1 339.9,587.1 339.4,587.1 338.9,587.1 z M 30.2,8.398 28.68,8.398 30.23,8.398 30.2,8.398 z M 338.5,480.9 574.2,72.4 102.5,72.4 338.5,480.9 z" />
		<path style="fill:#000000;" d="M 338.9,594.9 C 331.3,594.9 323.6,592 317.8,586.2 315.9,584.3 314.3,582.2 313.1,579.9 L 297.9,554 297.9,554 4.641,45.75 C 4.574,45.64 4.523,45.53 4.48,45.45 2.977,43.03 1.797,40.35 1.02,37.46 -3.23,21.59 6.191,5.269 22.06,1.015 24.68,0.312 27.32,0 29.9,0 L 648,0 C 664.4,0 677.7,13.33 677.7,29.76 677.7,35.13 676.3,40.17 673.8,44.53 673.8,44.55 673.8,44.58 673.7,44.63 L 369.4,573 C 365.5,579.7 363.7,582.4 359.9,586.2 354.1,592 346.5,594.9 338.9,594.9 L 338.9,594.9 z M 338.9,594.5 C 346.4,594.5 353.9,591.6 359.6,585.9 363.4,582.1 365.2,579.5 369,572.8 L 673.4,44.43 C 673.4,44.4 673.4,44.37 673.4,44.34 675.9,40.04 677.3,35.06 677.3,29.76 677.3,13.54 664.2,0.402 648,0.402 L 29.9,0.402 C 27.35,0.39 24.75,0.707 22.16,1.402 6.504,5.597 -2.789,21.69 1.402,37.35 2.172,40.22 3.348,42.87 4.832,45.26 4.887,45.36 4.93,45.46 4.984,45.55 L 298.1,553.6 298.2,553.6 313.4,579.7 C 314.7,581.9 316.2,584 318.1,585.9 323.8,591.6 331.4,594.5 338.9,594.5 z" />
		<path style="fill:#000000;" d="M 338.9,323.5 352.1,315.9 352.1,302.5 363.7,309.2 376.9,301.6 376.9,286.3 352.1,272 352.1,231.9 386.8,252 386.8,280.6 400,288.2 413.2,280.6 413.2,267.2 424.8,273.9 438,266.3 438,251 426.4,244.4 438,237.7 438,222.4 424.8,214.8 400,229.1 365.3,209 400,189 424.8,203.3 438,195.7 438,180.4 426.4,173.7 438,167 438,151.8 424.8,144.2 413.2,150.8 413.2,137.5 400,129.9 386.8,137.5 386.8,166.1 352.1,186.2 352.1,146.1 376.9,131.7 376.9,116.5 363.7,108.8 352.1,115.5 352.1,102.2 338.9,94.54 325.6,102.2 325.6,115.5 314.1,108.8 300.9,116.5 300.9,131.7 325.6,146.1 325.6,186.2 290.9,166.1 290.9,137.5 277.7,129.9 264.5,137.5 264.5,150.8 252.9,144.2 239.7,151.8 239.7,167 251.3,173.7 239.7,180.4 239.7,195.7 252.9,203.3 277.7,189 312.4,209 277.7,229.1 252.9,214.8 239.7,222.4 239.7,237.7 251.3,244.4 239.7,251 239.7,266.3 252.9,273.9 264.5,267.2 264.5,280.6 277.7,288.2 290.9,280.6 290.9,252 325.6,231.9 325.6,272 300.9,286.3 300.9,301.6 314.1,309.2 325.6,302.5 325.6,315.9" />
	</g>
</svg>