<?xml version="1.0" encoding="UTF-8" standalone="no"?>
<svg
   xmlns:dc="http://purl.org/dc/elements/1.1/"
   xmlns:cc="http://creativecommons.org/ns#"
   xmlns:rdf="http://www.w3.org/1999/02/22-rdf-syntax-ns#"
   xmlns:svg="http://www.w3.org/2000/svg"
   xmlns="http://www.w3.org/2000/svg"
   viewBox="0 0 471.435 471.435"
   height="471.435"
   width="471.435"
   xml:space="preserve"
   version="1.1"
   id="svg3744"><metadata
     id="metadata3750"><rdf:RDF><cc:Work
         rdf:about=""><dc:format>image/svg+xml</dc:format><dc:type
           rdf:resource="http://purl.org/dc/dcmitype/StillImage" /><dc:title></dc:title></cc:Work></rdf:RDF></metadata><defs
     id="defs3748" /><g
     transform="matrix(1.25,0,0,-1.25,0,471.43501)"
     id="g3752"><g
       id="g3754"><path
         id="path3756"
         style="fill:#ffffff;fill-opacity:1;fill-rule:nonzero;stroke:none"
         d="m 25.469,0.371 c -13.856,0 -25.09,11.242 -25.09,25.097 l 0,326.211 c 0,13.856 11.234,25.09 25.09,25.09 l 326.211,0 c 13.855,0 25.097,-11.234 25.097,-25.09 l 0,-326.211 c 0,-13.855 -11.242,-25.097 -25.097,-25.097" /><path
         id="path3758"
         style="fill:#000000;fill-opacity:1;fill-rule:nonzero;stroke:none"
         d="m 0.75,25.468 0,326.211 c 0,13.629 11.09,24.719 24.719,24.719 l 326.211,0 c 13.625,0 24.718,-11.09 24.718,-24.719 l 0,-326.211 C 376.398,11.843 365.305,0.75 351.68,0.75 l -326.211,0 C 11.84,0.75 0.75,11.843 0.75,25.468 Z m 24.719,351.68 C 11.422,377.148 0,365.726 0,351.679 L 0,25.468 C 0,11.433 11.422,0 25.469,0 L 351.68,0 c 14.035,0 25.468,11.433 25.468,25.468 l 0,326.211 c 0,14.047 -11.433,25.469 -25.468,25.469" /><path
         id="path3760"
         style="fill:#154889;fill-opacity:1;fill-rule:nonzero;stroke:none"
         d="m 25.852,9.398 c -8.668,0 -15.684,7.035 -15.684,15.691 l 0,326.207 c 0,8.668 7.016,15.684 15.684,15.684 l 326.207,0 c 8.656,0 15.679,-7.016 15.679,-15.684 l 0,-326.207 c 0,-8.656 -7.023,-15.691 -15.679,-15.691" /><path
         id="path3762"
         style="fill:#ffffff;fill-opacity:1;fill-rule:nonzero;stroke:none"
         d="m 262.898,132.757 c 0,-7.425 6.012,-13.449 13.438,-13.449 7.418,0 13.445,6.024 13.445,13.449 l 0,110.914 c 0,7.418 -6.027,13.442 -13.445,13.442 -7.426,0 -13.438,-6.024 -13.438,-13.442 l 0,-110.914 z m -26.894,0 0,110.914 c 0,22.274 18.066,40.332 40.332,40.332 22.277,0 40.332,-18.058 40.332,-40.332 l 0,-110.914 c 0,-22.281 -18.055,-40.339 -40.332,-40.339 -22.266,0 -40.332,18.058 -40.332,40.339 z m -73.934,0 c 0,-7.425 6.008,-13.449 13.438,-13.449 7.426,0 13.441,6.024 13.441,13.449 l 0,110.914 c 0,7.418 -6.015,13.442 -13.441,13.442 -7.43,0 -13.438,-6.024 -13.438,-13.442 l 0,-110.914 z m -26.894,0 0,110.914 c 0,22.274 18.062,40.332 40.332,40.332 22.273,0 40.332,-18.058 40.332,-40.332 l 0,-110.914 c 0,-22.281 -18.059,-40.339 -40.332,-40.339 -22.27,0 -40.332,18.058 -40.332,40.339 z m -73.938,100.832 0,28.559 26.879,20.168 26.891,0 0,-188.211 -26.891,0 0,159.648" /><path
         id="path3764"
         style="fill:#c1121c;fill-opacity:1;fill-rule:evenodd;stroke:none"
         d="M 339.777,366.98 10.168,37.398 l 0,-12.309 c 0,-8.656 7.016,-15.691 15.684,-15.691 l 10.32,0 331.566,331.398 0,9.622 -0.054,2.136 c -0.641,8.078 -7.391,14.426 -15.625,14.426 l -12.282,0 z" /></g></g></svg>