<?xml version="1.0" encoding="UTF-8" standalone="no"?>
<svg
   xmlns:dc="http://purl.org/dc/elements/1.1/"
   xmlns:cc="http://creativecommons.org/ns#"
   xmlns:rdf="http://www.w3.org/1999/02/22-rdf-syntax-ns#"
   xmlns:svg="http://www.w3.org/2000/svg"
   xmlns="http://www.w3.org/2000/svg"
   viewBox="0 0 470.53601 470.53601"
   height="470.53601"
   width="470.53601"
   xml:space="preserve"
   version="1.1"
   id="svg3385"><metadata
     id="metadata3391"><rdf:RDF><cc:Work
         rdf:about=""><dc:format>image/svg+xml</dc:format><dc:type
           rdf:resource="http://purl.org/dc/dcmitype/StillImage" /><dc:title></dc:title></cc:Work></rdf:RDF></metadata><defs
     id="defs3389" /><g
     transform="matrix(1.25,0,0,-1.25,0,470.536)"
     id="g3393"><g
       id="g3395"><path
         id="path3397"
         style="fill:#ffffff;fill-opacity:1;fill-rule:nonzero;stroke:none"
         d="M 25.422,0.37 C 11.59,0.37 0.379,11.593 0.379,25.421 l 0,325.586 c 0,13.832 11.211,25.043 25.043,25.043 l 325.586,0 c 13.828,0 25.051,-11.211 25.051,-25.043 l 0,-325.586 C 376.059,11.593 364.836,0.37 351.008,0.37" /><path
         id="path3399"
         style="fill:#000000;fill-opacity:1;fill-rule:nonzero;stroke:none"
         d="m 0.75,25.421 0,325.586 c 0,13.601 11.07,24.672 24.672,24.672 l 325.586,0 c 13.601,0 24.672,-11.071 24.672,-24.672 l 0,-325.586 c 0,-13.602 -11.071,-24.672 -24.672,-24.672 l -325.586,0 C 11.82,0.749 0.75,11.819 0.75,25.421 Z M 25.422,376.429 C 11.402,376.429 0,365.019 0,351.007 L 0,25.421 C 0,11.409 11.402,-0.001 25.422,-0.001 l 325.586,0 c 14.012,0 25.422,11.41 25.422,25.422 l 0,325.586 c 0,14.012 -11.41,25.422 -25.422,25.422" /><path
         id="path3401"
         style="fill:#154889;fill-opacity:1;fill-rule:nonzero;stroke:none"
         d="m 25.801,9.382 c -8.653,0 -15.653,7.019 -15.653,15.66 l 0,325.586 c 0,8.641 7,15.652 15.653,15.652 l 325.586,0 c 8.64,0 15.652,-7.011 15.652,-15.652 l 0,-325.586 c 0,-8.641 -7.012,-15.66 -15.652,-15.66" /><path
         id="path3403"
         style="fill:#ffffff;fill-opacity:1;fill-rule:nonzero;stroke:none"
         d="m 255.887,132.757 c 0,-7.426 6.015,-13.449 13.441,-13.449 7.418,0 13.442,6.023 13.442,13.449 l 0,110.914 c 0,7.418 -6.024,13.441 -13.442,13.441 -7.426,0 -13.441,-6.023 -13.441,-13.441 l 0,-110.914 z m -26.891,0 0,110.914 c 0,22.273 18.063,40.332 40.332,40.332 22.274,0 40.332,-18.059 40.332,-40.332 l 0,-110.914 c 0,-22.281 -18.058,-40.34 -40.332,-40.34 -22.269,0 -40.332,18.059 -40.332,40.34 z m -73.937,0 c 0,-7.426 6.011,-13.449 13.441,-13.449 7.426,0 13.441,6.023 13.441,13.449 l 0,110.914 c 0,7.418 -6.015,13.441 -13.441,13.441 -7.43,0 -13.441,-6.023 -13.441,-13.441 l 0,-110.914 z m -26.891,0 0,110.914 c 0,22.273 18.059,40.332 40.332,40.332 22.27,0 40.332,-18.059 40.332,-40.332 l 0,-110.914 c 0,-22.281 -18.062,-40.34 -40.332,-40.34 -22.273,0 -40.332,18.059 -40.332,40.34 z m -73.941,100.832 0,28.559 26.882,20.168 26.891,0 0,-188.211 -26.891,0 0,159.648" /></g></g></svg>