<?xml version="1.0" encoding="UTF-8" standalone="no"?>
<svg
   xmlns:dc="http://purl.org/dc/elements/1.1/"
   xmlns:cc="http://creativecommons.org/ns#"
   xmlns:rdf="http://www.w3.org/1999/02/22-rdf-syntax-ns#"
   xmlns:svg="http://www.w3.org/2000/svg"
   xmlns="http://www.w3.org/2000/svg"
   viewBox="0 0 750 1249.9753"
   height="1249.9753"
   width="750"
   xml:space="preserve"
   version="1.1"
   id="svg4599"><metadata
     id="metadata4605"><rdf:RDF><cc:Work
         rdf:about=""><dc:format>image/svg+xml</dc:format><dc:type
           rdf:resource="http://purl.org/dc/dcmitype/StillImage" /><dc:title></dc:title></cc:Work></rdf:RDF></metadata><defs
     id="defs4603"><clipPath
       id="clipPath4619"
       clipPathUnits="userSpaceOnUse"><path
         id="path4621"
         d="M 0,0 600,0 600,1000 0,1000 0,0 Z" /></clipPath><clipPath
       id="clipPath4637"
       clipPathUnits="userSpaceOnUse"><path
         id="path4639"
         d="m 51,46 498,0 0,894 -498,0 0,-894 z" /></clipPath></defs><g
     transform="matrix(1.25,0,0,-1.25,0,1249.9754)"
     id="g4607"><g
       id="g4609" /><g
       id="g4611"><g
         transform="translate(0,-0.0196533)"
         id="g4613"><g
           id="g4615"><g
             clip-path="url(#clipPath4619)"
             id="g4617"><g
               id="g4623"><path
                 id="path4625"
                 style="fill:#0c0b09;fill-opacity:1;fill-rule:nonzero;stroke:none"
                 d="m 40.012,0.02 -0.324,0 C 36.246,0.02 32.75,0.488 29.473,1.445 26.09,2.281 22.914,3.664 19.887,5.414 16.934,7.148 14.125,9.281 11.699,11.703 9.262,14.145 7.145,16.938 5.395,19.906 3.645,22.922 2.324,26.094 1.426,29.492 0.469,32.828 0,36.266 0,39.691 l 0,920.621 c 0,3.442 0.469,6.879 1.426,10.215 0.851,3.34 2.219,6.571 3.969,9.528 1.75,3.011 3.867,5.761 6.304,8.199 2.426,2.484 5.235,4.601 8.188,6.308 3.027,1.793 6.203,3.114 9.586,4.012 3.277,0.957 6.773,1.426 10.215,1.426 l 520.624,0 c 3.442,-0.043 6.879,-0.469 10.215,-1.426 3.34,-0.851 6.571,-2.219 9.528,-4.012 3.011,-1.707 5.777,-3.824 8.199,-6.308 2.484,-2.438 4.601,-5.188 6.308,-8.199 1.735,-2.957 3.114,-6.188 4.012,-9.528 0.957,-3.336 1.426,-6.773 1.426,-10.215 l 0,-920.621 c -0.043,-3.425 -0.469,-6.921 -1.426,-10.199 -0.898,-3.398 -2.219,-6.57 -4.012,-9.586 -1.707,-2.968 -3.824,-5.761 -6.308,-8.203 -2.422,-2.422 -5.188,-4.555 -8.199,-6.289 -2.957,-1.75 -6.188,-3.07 -9.528,-3.969 C 567.191,0.488 563.754,0.02 560.312,0.02 l -520.3,0 z m 0,0.574 520.258,0 c 3.437,0.058 6.82,0.468 10.097,1.426 3.293,0.851 6.469,2.175 9.422,3.921 2.91,1.692 5.66,3.809 8.039,6.192 2.442,2.437 4.559,5.129 6.25,8.097 1.688,2.911 3.012,6.086 3.922,9.422 0.898,3.278 1.426,6.66 1.367,10.039 l 0,920.621 c 0,3.395 -0.469,6.778 -1.367,10.055 -0.852,3.336 -2.234,6.469 -3.922,9.422 -1.75,2.969 -3.808,5.66 -6.25,8.039 -2.379,2.442 -5.129,4.559 -8.039,6.25 -2.953,1.688 -6.129,3.012 -9.422,3.922 -3.277,0.898 -6.66,1.426 -10.097,1.367 l -520.582,0 c -3.395,0 -6.821,-0.426 -10.055,-1.367 -3.336,-0.852 -6.512,-2.234 -9.422,-3.922 -2.953,-1.691 -5.66,-3.808 -8.098,-6.25 -2.383,-2.379 -4.5,-5.07 -6.191,-8.039 C 4.176,976.836 2.852,973.66 2.016,970.367 1.059,967.09 0.59,963.707 0.59,960.312 l 0,-920.621 C 0.633,36.312 1.059,32.93 2.016,29.652 2.852,26.316 4.176,23.141 5.922,20.23 7.613,17.262 9.73,14.57 12.113,12.133 14.551,9.75 17.258,7.633 20.211,5.941 23.121,4.195 26.297,2.93 29.633,2.02 32.91,1.062 36.293,0.594 39.688,0.594 l 0.324,0" /><path
                 id="path4627"
                 style="fill:#ffffff;fill-opacity:1;fill-rule:nonzero;stroke:none"
                 d="m 40.012,0.594 520.258,0 c 3.437,0.058 6.82,0.468 10.097,1.426 3.293,0.851 6.469,2.175 9.422,3.921 2.91,1.692 5.66,3.809 8.039,6.192 2.442,2.437 4.559,5.129 6.25,8.097 1.688,2.911 3.012,6.086 3.922,9.422 0.898,3.278 1.426,6.66 1.367,10.039 l 0,920.621 c 0,3.395 -0.469,6.778 -1.367,10.055 -0.852,3.336 -2.234,6.469 -3.922,9.422 -1.75,2.969 -3.808,5.66 -6.25,8.039 -2.379,2.442 -5.129,4.559 -8.039,6.25 -2.953,1.688 -6.129,3.012 -9.422,3.922 -3.277,0.898 -6.66,1.426 -10.097,1.367 l -520.582,0 c -3.395,0 -6.821,-0.426 -10.055,-1.367 -3.336,-0.852 -6.512,-2.234 -9.422,-3.922 -2.953,-1.691 -5.66,-3.808 -8.098,-6.25 -2.383,-2.379 -4.5,-5.07 -6.191,-8.039 C 4.176,976.836 2.852,973.66 2.016,970.367 1.059,967.09 0.59,963.707 0.59,960.312 l 0,-920.621 C 0.633,36.312 1.059,32.93 2.016,29.652 2.852,26.316 4.176,23.141 5.922,20.23 7.613,17.262 9.73,14.57 12.113,12.133 14.551,9.75 17.258,7.633 20.211,5.941 23.121,4.195 26.297,2.93 29.633,2.02 32.91,1.062 36.293,0.594 39.688,0.594 l 0.324,0" /></g></g></g></g><path
         id="path4629"
         style="fill:#f0ca00;fill-opacity:1;fill-rule:nonzero;stroke:none"
         d="m 143.195,615.918 13.594,-74.61 151.117,0 28.43,-63.703 67.613,0 0,74.344 -28.574,64.09 -151.117,0 -38.848,213.555 -42.215,-213.555" /><g
         transform="translate(0,-0.0196533)"
         id="g4631"><g
           id="g4633"><g
             clip-path="url(#clipPath4637)"
             id="g4635"><g
               id="g4641"><path
                 id="path4643"
                 style="fill:#992572;fill-opacity:1;fill-rule:nonzero;stroke:none"
                 d="m 64.777,393.547 0,138.476 42.172,213.571 38.891,-213.571 151.117,0 28.574,-64.085 0,-74.391" /><path
                 id="path4645"
                 style="fill:#000000;fill-opacity:1;fill-rule:nonzero;stroke:none"
                 d="m 528.945,75.043 c 0,-0.531 0,-1.059 -0.117,-1.59 -0.144,-1.16 -0.734,-2.277 -1.586,-3.07 -0.941,-1 -2.383,-1.574 -3.808,-1.531 -1.485,-0.043 -2.911,0.531 -3.969,1.531 -0.895,0.851 -1.527,2.012 -1.629,3.176 -0.059,0.484 -0.059,0.953 -0.059,1.484 l 0,16.562 c 0,0.43 0.059,0.856 0.102,1.282 0.219,1.16 0.793,2.32 1.691,3.175 1.012,0.938 2.379,1.528 3.762,1.469 1.383,0.059 2.703,-0.426 3.703,-1.324 1,-0.836 1.75,-2.059 1.852,-3.32 0.058,-0.325 0.058,-0.692 0.058,-1.075 l 0,-16.769 z m 0.106,26.516 c -1.692,1.058 -3.66,1.586 -5.617,1.586 -1.954,0.046 -3.864,-0.469 -5.555,-1.426 -1.75,-0.953 -3.176,-2.438 -4.129,-4.129 -0.84,-1.383 -1.324,-2.867 -1.473,-4.395 -0.058,-0.531 -0.117,-1.058 -0.117,-1.59 l 0,-16.562 c 0,-0.574 0,-1.105 0.059,-1.633 0.105,-1.691 0.691,-3.394 1.648,-4.867 1.059,-1.746 2.645,-3.188 4.438,-4.086 1.644,-0.836 3.441,-1.262 5.293,-1.203 1.91,0 3.863,0.574 5.511,1.57 1.735,1.016 3.161,2.5 4.114,4.293 0.691,1.266 1.117,2.649 1.281,4.028 0.043,0.632 0.043,1.265 0.043,1.898 l 0,17.887 c -0.043,1.586 -0.574,3.175 -1.426,4.601 -0.957,1.703 -2.383,3.071 -4.07,4.028 z M 501.27,83.566 c -0.223,0.164 -0.426,0.266 -0.633,0.426 0.207,0.164 0.41,0.309 0.633,0.473 1.16,0.851 2.011,2.07 2.585,3.379 0.692,1.441 1.016,3.027 0.899,4.558 0,1.528 -0.414,3.012 -1.106,4.395 -0.793,1.746 -2.113,3.277 -3.703,4.394 -1.75,1.219 -3.91,1.895 -6.039,1.954 -1.851,0.105 -3.648,-0.262 -5.293,-1.059 -1.894,-0.895 -3.586,-2.379 -4.703,-4.188 -0.793,-1.265 -1.383,-2.691 -1.527,-4.117 -0.059,-0.261 -0.059,-0.527 -0.121,-0.793 l 5.676,0 c 0.042,0.266 0.101,0.532 0.148,0.793 0.32,1.106 1.117,2.117 2.172,2.75 0.957,0.692 2.117,1.059 3.222,1.059 0.911,0 1.805,-0.266 2.555,-0.633 0.781,-0.367 1.473,-0.895 1.957,-1.586 0.676,-0.855 1.059,-1.91 1.102,-2.969 0.101,-1 -0.102,-2.058 -0.532,-2.957 -0.425,-0.851 -1.054,-1.601 -1.792,-2.117 -0.793,-0.527 -1.688,-0.851 -2.645,-0.953 -0.484,-0.059 -0.953,-0.059 -1.426,0 l -1.543,0 0,-4.926 1.692,0 c 0.632,0 1.277,0.059 1.851,-0.058 0.91,-0.145 1.75,-0.575 2.438,-1.102 0.797,-0.59 1.425,-1.324 1.797,-2.219 0.484,-0.91 0.644,-2.015 0.586,-3.074 0,-1.058 -0.161,-2.113 -0.692,-3.07 -0.469,-0.957 -1.32,-1.809 -2.277,-2.324 -0.899,-0.528 -1.953,-0.793 -2.953,-0.75 -1.282,0 -2.485,0.429 -3.5,1.164 -0.895,0.691 -1.633,1.644 -2.012,2.703 -0.047,0.207 -0.106,0.426 -0.148,0.633 l -5.676,0 c 0.062,-0.161 0.062,-0.368 0.062,-0.59 0.203,-1.528 0.793,-3.012 1.688,-4.336 1.015,-1.485 2.34,-2.688 3.867,-3.602 1.793,-1.054 3.867,-1.629 5.98,-1.57 2.176,0 4.278,0.676 6.086,1.894 1.692,1.059 3.075,2.59 3.969,4.336 0.957,1.809 1.324,3.868 1.266,5.938 -0.047,1.633 -0.368,3.223 -1.102,4.648 -0.648,1.379 -1.648,2.602 -2.808,3.496 z m -35.028,3.235 c 0,-0.91 0.043,-1.75 -0.058,-2.645 -0.207,-1.75 -0.957,-3.5 -2.219,-4.824 -1.426,-1.527 -3.559,-2.484 -5.617,-2.484 -2.118,-0.059 -4.172,0.797 -5.598,2.265 -1.383,1.278 -2.281,3.071 -2.441,4.926 -0.059,0.629 -0.059,1.32 0,2.012 l 0,1.543 c 0.101,0.898 0.16,1.793 0.468,2.586 0.43,1.324 1.282,2.543 2.442,3.382 1.383,1.161 3.117,1.809 4.926,1.809 1.851,0.043 3.746,-0.648 5.187,-1.851 1.266,-1.016 2.262,-2.442 2.586,-3.969 0.164,-0.649 0.207,-1.324 0.324,-1.957 l 0,-0.793 z m 5.555,9.039 c -1.438,2.324 -3.496,4.293 -5.938,5.555 -2.261,1.281 -4.91,1.957 -7.554,1.914 -4.129,0.101 -8.321,-1.543 -11.215,-4.5 -2.395,-2.278 -3.985,-5.395 -4.512,-8.571 -0.207,-1.176 -0.266,-2.277 -0.308,-3.437 l 0,-2.91 c 0,-0.911 0,-1.75 0.101,-2.645 0.16,-2.176 1.059,-4.351 2.441,-6.086 1.262,-1.75 2.954,-3.176 4.969,-4.086 1.688,-0.84 3.539,-1.265 5.395,-1.222 1.117,0 2.219,0.164 3.277,0.425 0.586,0.106 1.117,0.325 1.703,0.489 l -11.965,-23.977 9.055,0 14.434,29.207 c 0.484,0.852 0.914,1.75 1.324,2.649 0.484,1.16 0.851,2.378 1.058,3.597 0.118,0.797 0.161,1.59 0.219,2.383 l 0,2.176 c 0,1 -0.058,1.953 -0.219,2.953 -0.207,2.117 -1.058,4.234 -2.265,6.086 z m 65.5,49.211 c -0.266,-1.586 -1.164,-3.117 -2.383,-4.235 -1.367,-1.32 -3.277,-2.054 -5.129,-2.113 -1.75,-0.105 -3.484,0.426 -4.926,1.485 -1.586,1.058 -2.851,2.804 -3.175,4.656 -0.102,0.574 -0.145,1.164 -0.204,1.75 l 0,9.039 c 0.059,0.75 0.102,1.531 0.266,2.324 0.426,1.543 1.426,2.969 2.746,3.984 1.426,1.161 3.176,1.836 4.926,1.793 1.793,0.043 3.543,-0.531 4.922,-1.648 1.426,-1.059 2.543,-2.645 2.851,-4.277 0.164,-0.75 0.223,-1.485 0.223,-2.176 l 0,-8.246 c 0,-0.793 0.043,-1.602 -0.117,-2.336 z m 8.156,26.148 -8.039,0 0,-4.394 c -0.266,0.308 -0.531,0.633 -0.855,0.898 -0.997,1.059 -2.219,1.953 -3.539,2.586 -1.649,0.852 -3.399,1.324 -5.192,1.441 -2.277,0.145 -4.598,-0.265 -6.613,-1.281 -2.117,-0.953 -3.969,-2.484 -5.293,-4.394 -1.16,-1.629 -1.953,-3.543 -2.277,-5.496 -0.161,-1.059 -0.204,-2.176 -0.204,-3.278 l 0,-12.289 c 0,-0.836 0,-1.734 0.102,-2.586 0.266,-2.117 1.059,-4.133 2.32,-5.879 1.282,-1.898 3.075,-3.441 5.145,-4.441 1.793,-0.895 3.808,-1.379 5.82,-1.379 2.117,-0.047 4.234,0.484 6.086,1.438 1.473,0.675 2.75,1.589 3.852,2.75 0.222,0.265 0.425,0.527 0.648,0.793 l 0,-2.969 c 0.043,-0.836 0.043,-1.75 0,-2.586 -0.117,-1.16 -0.426,-2.336 -0.957,-3.336 -0.633,-1.164 -1.645,-2.223 -2.809,-2.91 -1.425,-0.899 -3.113,-1.325 -4.863,-1.367 -1.484,-0.059 -3.012,0.144 -4.293,0.792 -1.219,0.516 -2.277,1.426 -3.234,2.379 -0.25,0.266 -0.469,0.473 -0.676,0.739 l -6.187,-5.293 c 0.308,-0.325 0.574,-0.633 0.898,-1 1.687,-1.809 3.863,-3.129 6.187,-4.028 2.176,-0.894 4.497,-1.382 6.821,-1.382 2.969,-0.102 5.98,0.589 8.582,2.074 2.59,1.324 4.762,3.437 6.234,5.922 1.219,1.898 1.969,4.132 2.235,6.351 0.144,1.16 0.101,2.383 0.101,3.602 l 0,38.523 z m -66.672,-30.484 c -0.633,0.898 -0.898,2.058 -0.797,3.176 0,1 0.313,1.953 0.942,2.75 0.691,1.011 1.867,1.687 3.027,1.851 0.692,0.16 1.324,0.102 2.016,0.059 l 10.422,0 0,-3.442 c 0,-0.894 0.043,-1.808 -0.106,-2.703 -0.16,-0.84 -0.527,-1.691 -1.113,-2.277 -0.797,-0.899 -2.059,-1.324 -3.234,-1.531 -1.426,-0.262 -2.793,-0.325 -4.176,-0.325 -1.383,0 -2.75,0 -4.129,0.489 -1.106,0.367 -2.16,1 -2.852,1.953 z m 11.11,-9.258 c 1.265,0.469 2.543,1.16 3.441,2.16 0.367,0.485 0.691,1.012 1.059,1.543 l 0,-3.969 8.039,0 0,27.883 c -0.059,0.852 -0.102,1.75 -0.266,2.602 -0.426,2.527 -1.953,4.969 -3.969,6.66 -1.484,1.262 -3.172,2.172 -5.023,2.703 -2.059,0.633 -4.293,0.691 -6.453,0.691 -2.176,0 -4.336,-0.117 -6.469,-0.648 -1.207,-0.266 -2.367,-0.633 -3.484,-1.262 -1.426,-0.691 -2.746,-1.793 -3.704,-3.132 -0.101,-0.149 -0.265,-0.368 -0.367,-0.575 l 6.348,-5.027 c 0.164,0.371 0.367,0.691 0.633,1 0.574,0.75 1.59,1.164 2.543,1.426 1.058,0.265 2.117,0.265 3.234,0.324 1.309,0.059 2.692,0.059 4.059,-0.102 1.117,-0.164 2.277,-0.484 3.187,-1.164 0.735,-0.527 1.324,-1.32 1.528,-2.172 0.207,-0.738 0.164,-1.531 0.164,-2.324 l 0,-2.969 -10.641,0 c -1.164,0 -2.324,0 -3.5,-0.207 -2.484,-0.324 -4.91,-1.687 -6.613,-3.66 -1.957,-1.953 -3.117,-4.597 -3.278,-7.289 -0.148,-2.336 0.379,-4.66 1.543,-6.672 1.321,-2.441 3.602,-4.336 6.129,-5.351 2.219,-1 4.66,-1.266 7.098,-1.219 1.59,0 3.219,0.219 4.762,0.75 z m -33.496,33.277 5.98,0 0,6.465 -5.98,0 0,12.055 -7.997,0 0,-12.055 -3.968,0 0,-6.465 3.968,0 0,-23.168 c 0,-0.75 0,-1.543 0.059,-2.277 0.102,-1.16 0.426,-2.336 0.953,-3.336 0.574,-1.16 1.488,-2.176 2.59,-2.91 1.16,-0.898 2.602,-1.484 4.027,-1.75 0.895,-0.102 1.852,-0.102 2.746,-0.102 l 3.602,0 0,7.571 -2.543,0 c -0.469,0 -0.953,-0.059 -1.484,0.043 -0.469,0.101 -0.953,0.265 -1.262,0.633 -0.367,0.261 -0.59,0.75 -0.691,1.218 -0.059,0.266 -0.059,0.59 0,0.91 l 0,23.168 z m -23.711,1.746 c -1.102,1.426 -2.485,2.649 -4.071,3.5 -1.953,1.161 -4.234,1.75 -6.453,1.75 -1.808,0 -3.543,-0.324 -5.187,-1.015 -1.75,-0.633 -3.383,-1.645 -4.661,-2.953 -0.308,-0.282 -0.574,-0.59 -0.851,-0.957 l 0,4.394 -8.027,0 0,-40.008 8.027,0 0,24.766 c 0.117,0.941 0.277,1.957 0.586,2.852 0.59,1.648 1.851,3.015 3.398,3.867 1.364,0.836 2.91,1.262 4.438,1.16 1.644,0 3.336,-0.633 4.601,-1.75 1.278,-0.953 2.176,-2.32 2.602,-3.805 0.203,-0.734 0.309,-1.531 0.41,-2.324 l 0,-24.766 7.938,0 0,26.926 c 0,0.957 -0.043,1.914 -0.207,2.867 -0.321,2 -1.278,3.911 -2.543,5.496 z m -44.02,0 c -1.117,1.426 -2.484,2.649 -4.074,3.5 -1.953,1.161 -4.188,1.75 -6.453,1.75 -1.746,0 -3.496,-0.324 -5.188,-1.015 -1.75,-0.633 -3.394,-1.645 -4.66,-2.953 -0.262,-0.282 -0.586,-0.59 -0.851,-0.957 l 0,4.394 -7.981,0 0,-40.008 7.981,0 0,24.766 c 0.16,0.941 0.265,1.957 0.648,2.852 0.527,1.648 1.852,3.015 3.379,3.867 1.324,0.836 2.851,1.262 4.394,1.16 1.633,0 3.336,-0.633 4.602,-1.75 1.266,-0.953 2.176,-2.32 2.644,-3.805 0.207,-0.734 0.266,-1.531 0.368,-2.324 l 0,-24.766 7.937,0 0,26.926 c 0,0.957 0,1.914 -0.203,2.867 -0.266,2 -1.223,3.911 -2.543,5.496 z m -48.215,-19.355 c -0.101,-0.691 -0.144,-1.383 -0.308,-2.016 -0.368,-1.484 -1.161,-2.867 -2.278,-3.921 -0.851,-0.84 -1.851,-1.532 -2.91,-1.899 -0.894,-0.383 -1.851,-0.527 -2.851,-0.586 -1.704,0 -3.395,0.469 -4.821,1.426 -1.117,0.687 -2.058,1.687 -2.703,2.91 -0.473,0.75 -0.797,1.586 -0.941,2.438 -0.117,0.531 -0.164,1.117 -0.164,1.648 l 0,8.465 c 0.047,0.734 0.105,1.469 0.308,2.16 0.367,1.383 1.176,2.59 2.281,3.602 1.543,1.484 3.704,2.425 5.879,2.382 1.954,0.102 3.911,-0.632 5.438,-1.91 1.484,-1.164 2.601,-2.851 2.867,-4.707 0.102,-0.469 0.16,-0.996 0.203,-1.527 l 0,-8.465 z m 4.559,18.137 c -1.528,2.074 -3.543,3.761 -5.879,4.82 -2.16,1.117 -4.543,1.648 -6.984,1.648 -2.543,0.043 -5.071,-0.531 -7.348,-1.648 -2.485,-1.117 -4.66,-2.91 -6.246,-5.129 -1.426,-1.969 -2.442,-4.187 -2.852,-6.57 -0.164,-0.895 -0.222,-1.852 -0.265,-2.793 l 0,-8.465 c 0.043,-0.855 0.101,-1.707 0.207,-2.602 0.261,-1.957 0.953,-3.91 2.011,-5.66 1.633,-2.808 4.133,-5.086 7.043,-6.453 2.219,-1.176 4.746,-1.75 7.289,-1.703 2.809,-0.047 5.614,0.688 7.996,2.07 2.543,1.368 4.602,3.485 6.086,5.926 1.161,1.91 1.895,3.969 2.219,6.141 0.102,0.738 0.102,1.531 0.16,2.281 l 0,8.465 c -0.101,0.941 -0.16,1.957 -0.32,2.894 -0.414,2.442 -1.531,4.766 -3.117,6.778 z m -46.199,-4.235 c -1.954,1.176 -4.231,1.809 -6.497,2.223 -1.75,0.32 -3.5,0.527 -5.292,0.586 -1.704,0.102 -3.395,0.102 -5.04,0.59 -1.734,0.527 -3.441,1.629 -4.5,3.219 -0.953,1.32 -1.367,3.027 -1.203,4.66 0.043,1.379 0.571,2.746 1.469,3.804 1.016,1.325 2.5,2.278 4.129,2.75 1.426,0.426 2.91,0.426 4.395,0.383 2.281,-0.121 4.558,-0.43 6.718,-1.058 1.809,-0.489 3.543,-1.223 5.129,-2.176 0.426,-0.207 0.856,-0.473 1.223,-0.735 l 4.656,7.082 c -0.426,0.266 -0.851,0.532 -1.262,0.793 -2.234,1.383 -4.718,2.442 -7.261,3.176 -2.953,0.899 -6.028,1.383 -9.203,1.383 -3.231,0.102 -6.614,-0.324 -9.524,-1.809 -2.867,-1.324 -5.351,-3.644 -6.879,-6.453 -1.219,-2.011 -1.91,-4.336 -2.058,-6.715 -0.219,-2.648 0.265,-5.394 1.425,-7.835 1.223,-2.692 3.34,-5.071 5.868,-6.672 1.586,-1.059 3.394,-1.793 5.246,-2.161 1.894,-0.472 3.867,-0.589 5.82,-0.691 1.793,-0.105 3.543,-0.164 5.293,-0.59 1.16,-0.207 2.379,-0.633 3.379,-1.308 0.898,-0.645 1.648,-1.543 2.176,-2.496 0.589,-1.059 0.898,-2.223 0.898,-3.442 0.059,-1.484 -0.266,-2.953 -1.059,-4.129 -0.957,-1.633 -2.808,-2.75 -4.66,-3.324 -1.894,-0.691 -3.91,-0.852 -5.863,-0.852 -2.441,0.059 -4.883,0.325 -7.203,1 -2.543,0.75 -4.926,1.969 -7.043,3.5 -0.309,0.262 -0.691,0.528 -1,0.793 l -5.395,-6.66 c 0.371,-0.265 0.739,-0.586 1.106,-0.91 2.437,-2 5.348,-3.383 8.406,-4.383 3.602,-1.218 7.305,-1.91 11.231,-1.863 4.804,-0.047 9.937,0.91 13.699,3.863 2.277,1.692 4.129,4.133 5.187,6.879 0.957,2.235 1.325,4.66 1.118,7.043 -0.118,2.278 -0.793,4.453 -1.911,6.453 -1.265,2.543 -3.277,4.715 -5.718,6.082 z m 218.968,46.993 0,7.511 -2.543,0 c -0.472,0 -0.957,0 -1.484,0.059 -0.473,0.101 -0.941,0.265 -1.266,0.633 -0.367,0.324 -0.589,0.734 -0.691,1.218 -0.043,0.309 -0.043,0.633 0,0.957 l 0,23.164 5.984,0 0,6.469 -5.984,0 0,12.008 -7.981,0 0,-12.008 -3.968,0 0,-6.469 3.968,0 0,-23.164 c 0,-0.793 0,-1.543 0.043,-2.336 0.102,-1.164 0.426,-2.324 0.957,-3.324 0.571,-1.176 1.528,-2.176 2.586,-2.91 1.176,-0.91 2.602,-1.484 4.028,-1.703 0.898,-0.164 1.851,-0.164 2.75,-0.105 l 3.601,0 z m -42.172,-0.528 c 2.278,-0.043 4.555,0.16 6.778,0.692 1.836,0.425 3.703,1.101 5.289,2.218 1.84,1.219 3.383,3.012 4.234,5.129 0.735,1.586 1.059,3.395 0.942,5.129 -0.047,1.809 -0.532,3.66 -1.426,5.25 -0.793,1.426 -1.852,2.645 -3.117,3.602 -1.278,0.996 -2.809,1.746 -4.453,2.113 -1.735,0.473 -3.543,0.574 -5.336,0.633 -1.118,0.047 -2.219,0.164 -3.336,0.164 -1,0.043 -2.059,0.043 -3.016,0.367 -0.852,0.309 -1.644,0.836 -2.113,1.586 -0.473,0.691 -0.692,1.527 -0.59,2.324 0.059,0.75 0.367,1.426 0.851,1.953 0.426,0.59 1.059,1.016 1.692,1.278 1.16,0.59 2.586,0.632 3.91,0.59 1.969,0 3.82,-0.219 5.672,-0.809 1.59,-0.469 3.176,-1.207 4.5,-2.219 0.309,-0.207 0.574,-0.472 0.894,-0.676 l 4.969,6.555 c -0.426,0.324 -0.836,0.633 -1.261,0.957 -1.856,1.32 -4.028,2.277 -6.192,2.91 -2.762,0.895 -5.672,1.321 -8.582,1.262 -2.644,0.059 -5.293,-0.324 -7.613,-1.484 -2.016,-0.895 -3.703,-2.426 -4.926,-4.235 -1.16,-1.746 -1.852,-3.804 -1.953,-5.863 -0.106,-1.703 0.16,-3.438 0.851,-5.027 0.633,-1.703 1.735,-3.278 3.176,-4.453 1.203,-1.102 2.746,-1.895 4.336,-2.325 1.16,-0.367 2.426,-0.527 3.645,-0.629 1.527,-0.164 3.011,-0.222 4.554,-0.222 1.266,0 2.59,0 3.911,-0.367 0.796,-0.266 1.546,-0.633 2.074,-1.219 0.574,-0.633 0.836,-1.531 0.836,-2.383 0.062,-1.059 -0.309,-2.16 -1.055,-2.852 -0.633,-0.691 -1.59,-1.058 -2.484,-1.32 -1.75,-0.531 -3.543,-0.75 -5.293,-0.633 -1.852,0 -3.703,0.309 -5.453,0.953 -1.793,0.633 -3.543,1.532 -4.969,2.793 -0.324,0.325 -0.633,0.649 -0.953,0.957 l -5.719,-5.718 c 0.219,-0.207 0.367,-0.426 0.586,-0.575 1.898,-2.011 4.394,-3.394 6.984,-4.394 2.91,-1.219 6.024,-1.91 9.156,-2.012 z m -25.722,0.528 0,26.886 c 0,0.953 -0.059,1.91 -0.207,2.852 -0.324,2.012 -1.278,3.922 -2.543,5.512 -1.117,1.468 -2.485,2.644 -4.129,3.539 -1.899,1.105 -4.176,1.691 -6.41,1.691 -1.793,0.059 -3.543,-0.324 -5.172,-0.953 -1.75,-0.676 -3.395,-1.633 -4.66,-2.957 -0.324,-0.324 -0.59,-0.633 -0.852,-0.953 l 0,4.394 -8.043,0 0,-40.011 8.043,0 0,24.71 c 0.117,1.012 0.219,1.969 0.586,2.911 0.59,1.586 1.852,2.968 3.395,3.863 1.367,0.797 2.851,1.223 4.382,1.164 1.688,-0.047 3.336,-0.68 4.661,-1.75 1.261,-1 2.171,-2.383 2.586,-3.852 0.218,-0.75 0.324,-1.543 0.425,-2.336 l 0,-24.71 7.938,0 z m -67.895,25.398 c 0.164,1.117 0.532,2.223 1.117,3.176 0.793,1.383 2.059,2.484 3.5,3.176 1.262,0.632 2.688,0.957 4.071,0.898 1.484,-0.047 2.91,-0.531 4.129,-1.266 1.472,-0.898 2.691,-2.218 3.324,-3.761 0.383,-0.735 0.586,-1.473 0.691,-2.282 0.059,-0.41 0.059,-0.793 0.059,-1.203 l -16.992,0 c 0,0.41 0.058,0.836 0.101,1.262 z m 23.973,-19.313 -6.129,5.247 c -0.277,-0.321 -0.527,-0.645 -0.852,-0.954 -0.894,-0.851 -1.953,-1.589 -3.117,-2.074 -1.437,-0.633 -3.027,-0.894 -4.613,-0.894 -2,0 -4.07,0.527 -5.703,1.75 -1.219,0.793 -2.235,1.953 -2.867,3.277 -0.528,1.059 -0.735,2.277 -0.793,3.496 0,0.367 0,0.735 0.058,1.16 l 24.914,0 0,6.028 c -0.043,1.222 -0.043,2.441 -0.265,3.66 -0.309,2.219 -1.16,4.441 -2.426,6.351 -1.379,2.16 -3.336,3.969 -5.555,5.231 -2.484,1.426 -5.351,2.176 -8.203,2.117 -2.703,0.059 -5.453,-0.633 -7.832,-1.953 -2.219,-1.164 -4.191,-2.91 -5.66,-4.985 -1.383,-1.851 -2.441,-4.011 -2.809,-6.23 -0.16,-1.059 -0.203,-2.117 -0.261,-3.176 l 0,-7.043 c 0,-1.117 0.058,-2.172 0.16,-3.23 0.308,-2.426 1.219,-4.867 2.644,-6.879 1.532,-2.324 3.707,-4.176 6.188,-5.453 2.441,-1.324 5.191,-2 7.937,-2.059 3.442,-0.164 6.879,0.735 9.852,2.336 1.629,0.84 3.172,1.957 4.437,3.277 0.325,0.309 0.586,0.692 0.895,1 z m -51.063,42.008 7.938,0 0,7.895 -7.938,0 0,-7.895 z m 7.938,-8.082 -7.938,0 0,-40.011 7.938,0 0,40.011 z m -44.711,-26.254 c -0.164,0.75 -0.164,1.485 -0.207,2.219 l 0,8.102 c 0.043,0.793 0.102,1.586 0.266,2.379 0.367,1.589 1.261,3.132 2.586,4.132 1.484,1.262 3.378,1.953 5.292,1.911 1.645,0 3.231,-0.532 4.497,-1.485 1.691,-1.16 2.968,-3.027 3.234,-4.984 0.102,-0.633 0.102,-1.321 0.16,-1.953 l 0,-8.102 c 0,-0.734 -0.058,-1.527 -0.16,-2.32 -0.383,-1.645 -1.324,-3.235 -2.707,-4.336 -1.426,-1.219 -3.277,-1.91 -5.129,-1.852 -1.852,-0.058 -3.703,0.633 -5.129,1.852 -1.426,1.101 -2.441,2.75 -2.703,4.437 z m 11.066,-13.023 c 1.325,0.648 2.528,1.441 3.543,2.383 0.426,0.425 0.793,0.851 1.219,1.277 l 0,-4.394 7.938,0 0,55.988 -7.938,0 0,-20.535 c -0.324,0.367 -0.644,0.734 -0.953,1.058 -1.164,1.281 -2.707,2.278 -4.336,2.969 -1.707,0.676 -3.5,1.105 -5.352,1 -3.601,0.105 -7.304,-1.586 -9.789,-4.336 -2.058,-2.117 -3.335,-4.922 -3.543,-7.773 -0.101,-0.914 -0.058,-1.809 -0.058,-2.766 l 0,-11.422 c -0.043,-1.16 -0.043,-2.277 0.101,-3.379 0.325,-3.394 2.5,-6.629 5.352,-8.629 2.277,-1.75 5.027,-2.644 7.777,-2.703 2.114,-0.043 4.188,0.367 6.039,1.262 z m -54.664,0.75 c 2.911,-1.219 6.028,-1.91 9.157,-2.012 2.265,-0.043 4.543,0.16 6.761,0.692 1.867,0.425 3.703,1.101 5.293,2.218 1.867,1.219 3.395,3.012 4.231,5.129 0.75,1.586 1.058,3.395 0.957,5.129 -0.043,1.809 -0.586,3.66 -1.485,5.25 -0.734,1.426 -1.793,2.645 -3.07,3.602 -1.266,0.996 -2.851,1.746 -4.441,2.113 -1.75,0.473 -3.543,0.574 -5.395,0.633 -1.058,0.047 -2.176,0.164 -3.277,0.164 -1.016,0.043 -2.07,0.043 -3.012,0.367 -0.855,0.309 -1.648,0.836 -2.117,1.586 -0.484,0.691 -0.691,1.527 -0.59,2.324 0.059,0.75 0.367,1.426 0.856,1.953 0.41,0.59 0.996,1.016 1.687,1.278 1.164,0.59 2.543,0.632 3.91,0.59 1.957,0 3.809,-0.219 5.66,-0.809 1.586,-0.469 3.176,-1.207 4.496,-2.219 0.325,-0.207 0.59,-0.472 0.899,-0.676 l 4.922,6.555 c -0.367,0.324 -0.793,0.633 -1.203,0.957 -1.852,1.32 -4.028,2.277 -6.204,2.91 -2.75,0.895 -5.66,1.321 -8.57,1.262 -2.644,0.059 -5.289,-0.324 -7.672,-1.484 -1.953,-0.895 -3.644,-2.426 -4.863,-4.235 -1.164,-1.746 -1.855,-3.804 -1.957,-5.863 -0.102,-1.703 0.16,-3.438 0.793,-5.027 0.691,-1.703 1.793,-3.278 3.219,-4.453 1.222,-1.102 2.765,-1.895 4.351,-2.325 1.16,-0.367 2.426,-0.527 3.645,-0.629 1.484,-0.164 3.015,-0.222 4.5,-0.222 1.32,0 2.644,0 3.969,-0.367 0.793,-0.266 1.527,-0.633 2.058,-1.219 0.586,-0.633 0.852,-1.531 0.852,-2.383 0.058,-1.059 -0.325,-2.16 -1.059,-2.852 -0.633,-0.691 -1.59,-1.058 -2.484,-1.32 -1.809,-0.531 -3.559,-0.75 -5.293,-0.633 -1.852,0 -3.703,0.309 -5.453,0.953 -1.793,0.633 -3.543,1.532 -4.969,2.793 l -0.953,0.957 -5.719,-5.718 c 0.207,-0.207 0.367,-0.426 0.59,-0.575 1.894,-2.011 4.379,-3.394 6.98,-4.394 z m -40.582,22.652 c 0.043,0.41 0.043,0.836 0.145,1.262 0.164,1.117 0.531,2.223 1.117,3.176 0.797,1.383 2.016,2.484 3.5,3.176 1.262,0.632 2.645,0.957 4.07,0.898 1.426,-0.047 2.852,-0.531 4.133,-1.266 1.469,-0.898 2.645,-2.218 3.32,-3.761 0.325,-0.735 0.586,-1.473 0.649,-2.282 0.043,-0.41 0.043,-0.793 0.101,-1.203 l -17.035,0 z m 22.266,8.996 c -1.367,2.16 -3.277,3.969 -5.555,5.231 -2.426,1.426 -5.293,2.176 -8.144,2.117 -2.746,0.059 -5.453,-0.633 -7.832,-1.953 -2.278,-1.164 -4.235,-2.91 -5.719,-4.985 -1.367,-1.851 -2.379,-4.011 -2.75,-6.23 -0.203,-1.059 -0.262,-2.117 -0.262,-3.176 l 0,-7.043 c 0,-1.117 0,-2.172 0.16,-3.23 0.266,-2.426 1.161,-4.867 2.586,-6.879 1.532,-2.324 3.707,-4.176 6.192,-5.453 2.437,-1.324 5.187,-2 7.996,-2.059 3.379,-0.164 6.816,0.735 9.832,2.336 1.644,0.84 3.187,1.957 4.394,3.277 0.325,0.309 0.649,0.692 0.899,1 l -6.074,5.247 c -0.321,-0.321 -0.586,-0.645 -0.852,-0.954 -0.894,-0.851 -2.012,-1.589 -3.176,-2.074 -1.426,-0.633 -2.968,-0.894 -4.539,-0.894 -2.074,0 -4.133,0.527 -5.777,1.75 -1.219,0.793 -2.219,1.953 -2.809,3.277 -0.527,1.059 -0.793,2.277 -0.793,3.496 l 0,1.16 24.973,0 0,6.028 c -0.043,1.222 -0.102,2.441 -0.309,3.66 -0.324,2.219 -1.117,4.441 -2.441,6.351 z m -45.285,18.887 -7.938,0 0,-12.008 -3.968,0 0,-6.469 3.968,0 0,-23.164 c -0.058,-0.793 -0.058,-1.543 0.043,-2.336 0.059,-1.164 0.367,-2.324 0.957,-3.324 0.59,-1.176 1.485,-2.176 2.543,-2.91 1.16,-0.91 2.586,-1.484 4.012,-1.703 0.914,-0.164 1.852,-0.164 2.809,-0.105 l 3.601,0 0,7.511 -2.601,0 c -0.473,0 -0.942,0 -1.426,0.059 -0.473,0.101 -1,0.265 -1.324,0.633 -0.368,0.324 -0.575,0.734 -0.633,1.218 -0.043,0.309 -0.043,0.633 -0.043,0.957 l 0,23.164 6.027,0 0,6.469 -6.027,0 0,12.008 z m -25.93,0 -7.996,0 0,-12.008 -3.969,0 0,-6.469 3.969,0 0,-23.164 c 0,-0.793 0,-1.543 0.059,-2.336 0.105,-1.164 0.414,-2.324 0.941,-3.324 0.648,-1.176 1.543,-2.176 2.602,-2.91 1.164,-0.91 2.589,-1.484 4.015,-1.703 0.91,-0.164 1.852,-0.164 2.762,-0.105 l 3.586,0 0,7.511 -2.527,0 c -0.485,0 -0.958,0 -1.442,0.059 -0.527,0.101 -1,0.265 -1.324,0.633 -0.367,0.324 -0.57,0.734 -0.629,1.218 -0.105,0.309 -0.047,0.633 -0.047,0.957 l 0,23.164 5.969,0 0,6.469 -5.969,0 0,12.008 z m -27.941,-36.086 c -0.059,-0.691 -0.102,-1.383 -0.266,-2.07 -0.367,-1.485 -1.219,-2.852 -2.336,-3.91 -0.793,-0.856 -1.793,-1.485 -2.91,-1.911 -0.895,-0.371 -1.852,-0.531 -2.852,-0.531 -1.644,-0.043 -3.379,0.426 -4.761,1.383 -1.16,0.734 -2.118,1.75 -2.75,2.91 -0.426,0.735 -0.75,1.586 -0.895,2.438 -0.117,0.574 -0.164,1.105 -0.223,1.691 l 0,8.41 c 0.059,0.735 0.165,1.485 0.325,2.172 0.367,1.367 1.207,2.59 2.277,3.59 1.574,1.543 3.707,2.437 5.867,2.437 1.953,0.059 3.922,-0.632 5.453,-1.953 1.528,-1.16 2.586,-2.867 2.911,-4.66 0.101,-0.531 0.101,-1.058 0.16,-1.586 l 0,-8.41 z m 4.543,18.094 c -1.528,2.058 -3.543,3.765 -5.864,4.867 -2.117,1.059 -4.558,1.586 -6.984,1.586 -2.543,0.059 -5.027,-0.469 -7.305,-1.586 -2.484,-1.16 -4.66,-2.957 -6.246,-5.191 -1.484,-1.895 -2.484,-4.172 -2.867,-6.508 -0.148,-0.942 -0.207,-1.899 -0.25,-2.852 l 0,-8.41 c 0,-0.91 0.043,-1.75 0.16,-2.601 0.25,-2 1,-3.911 2.059,-5.661 1.59,-2.804 4.074,-5.07 6.984,-6.507 2.277,-1.106 4.762,-1.692 7.305,-1.692 2.805,0 5.598,0.692 7.98,2.117 2.543,1.379 4.618,3.438 6.086,5.922 1.176,1.852 1.969,3.926 2.235,6.086 0.101,0.75 0.144,1.543 0.144,2.336 l 0,8.41 c -0.043,0.996 -0.101,1.953 -0.308,2.91 -0.368,2.485 -1.543,4.821 -3.129,6.774 z m -70.746,4.824 c 0.265,2.789 2.277,5.438 4.718,7.082 2.059,1.426 4.5,2.16 6.922,2.059 2.34,0.058 4.719,-0.633 6.617,-2.059 1.75,-1.117 3.071,-2.808 3.922,-4.703 0.149,-0.426 0.309,-0.809 0.473,-1.219 l 8.57,0 c -0.105,0.367 -0.164,0.735 -0.265,1.059 -0.473,2.219 -1.325,4.379 -2.586,6.289 -1.649,2.648 -3.969,4.82 -6.676,6.351 -3.219,1.954 -6.981,2.969 -10.742,2.805 -4.91,0 -9.789,-1.953 -13.379,-5.453 -3.071,-2.703 -5.246,-6.449 -5.938,-10.418 -0.207,-1.223 -0.265,-2.441 -0.308,-3.66 l 0,-16.656 c 0,-0.953 0,-1.91 0.043,-2.864 0.164,-4.925 2.91,-9.894 6.879,-13.129 3.457,-3.07 7.836,-4.761 12.336,-4.863 3.437,-0.164 6.937,0.692 9.949,2.336 2.75,1.426 5.187,3.484 6.937,6.027 1.852,2.485 3.012,5.454 3.426,8.512 0.16,1.117 0.277,2.278 0.324,3.395 l 0,11.156 -19.89,0 0,-7.879 11.32,0 0,-2.16 c 0.058,-0.793 0.058,-1.543 0,-2.34 -0.164,-2.644 -1.426,-5.289 -3.442,-7.187 -2.117,-2.129 -5.085,-3.395 -8.039,-3.29 -2.91,-0.046 -5.82,1.055 -7.777,3.129 -2.07,1.895 -3.289,4.602 -3.496,7.289 -0.059,0.797 -0.059,1.606 -0.059,2.399 l 0,16.125 c 0.059,0.644 0.059,1.219 0.161,1.867 z M 540,332.531 c -1.793,0 -3.602,-0.367 -5.293,-1.117 -1.484,-0.629 -2.91,-1.484 -4.07,-2.644 -0.367,-0.368 -0.75,-0.735 -1.059,-1.161 l 0,4.395 -8.039,0 0,-40.012 8.039,0 0,24.238 c 0,0.59 0.043,1.223 0.164,1.809 0.145,1.102 0.57,2.219 1.262,3.176 0.59,0.84 1.383,1.527 2.324,2.101 1.438,0.911 3.172,1.383 4.879,1.219 1.367,-0.043 2.691,-0.527 3.809,-1.262 0.308,-0.265 0.629,-0.531 0.953,-0.75 l 5.66,6.997 c -0.266,0.207 -0.531,0.367 -0.793,0.574 -1.016,0.793 -2.223,1.32 -3.441,1.691 -1.426,0.485 -2.911,0.746 -4.395,0.746 z m -54.34,-15.078 c 0.16,1.117 0.528,2.16 1.102,3.113 0.793,1.383 2.07,2.485 3.496,3.176 1.265,0.692 2.707,1.016 4.074,0.914 1.484,-0.058 2.91,-0.488 4.129,-1.281 1.484,-0.852 2.707,-2.16 3.383,-3.762 0.32,-0.675 0.527,-1.468 0.644,-2.265 0.043,-0.379 0.043,-0.793 0.043,-1.176 l -16.988,0 c 0,0.43 0.059,0.855 0.117,1.281 z m 24.867,-8.363 0,6.086 c -0.058,1.16 -0.058,2.379 -0.261,3.597 -0.325,2.282 -1.164,4.442 -2.442,6.411 -1.367,2.16 -3.336,3.953 -5.554,5.175 -2.485,1.426 -5.336,2.172 -8.204,2.172 -2.691,0 -5.453,-0.687 -7.836,-2.011 -2.218,-1.161 -4.171,-2.852 -5.656,-4.969 -1.367,-1.852 -2.383,-4.028 -2.808,-6.246 -0.161,-1 -0.207,-2.075 -0.266,-3.133 l 0,-7.082 c 0,-1.059 0.059,-2.16 0.223,-3.235 0.261,-2.425 1.16,-4.808 2.586,-6.878 1.543,-2.325 3.703,-4.176 6.187,-5.438 2.442,-1.324 5.188,-2.016 7.938,-2.016 3.441,-0.16 6.878,0.692 9.847,2.325 1.692,0.851 3.176,1.91 4.442,3.23 0.32,0.371 0.586,0.692 0.91,1.059 l -6.145,5.191 c -0.265,-0.324 -0.527,-0.648 -0.836,-0.914 -0.914,-0.894 -1.972,-1.57 -3.132,-2.055 -1.426,-0.632 -3.012,-0.957 -4.602,-0.898 -2.012,0 -4.086,0.527 -5.715,1.691 -1.223,0.793 -2.223,1.953 -2.851,3.278 -0.489,1.117 -0.75,2.336 -0.809,3.496 0,0.429 0.059,0.797 0.059,1.164 l 24.925,0 z m -64.82,13.961 c 1.426,1.074 3.117,1.648 4.809,1.605 1.867,0.043 3.761,-0.691 5.246,-1.972 1.218,-1 2.16,-2.485 2.484,-4.012 0.16,-0.793 0.207,-1.586 0.207,-2.383 l 0,-24.297 8.055,0 0,26.313 c 0,1 0,2 -0.164,3.011 -0.262,2 -1.16,3.911 -2.438,5.559 -1.222,1.734 -2.75,3.176 -4.601,4.129 -1.852,1 -3.91,1.469 -6.028,1.527 -1.808,0.047 -3.66,-0.32 -5.351,-1.011 -1.688,-0.633 -3.278,-1.692 -4.598,-2.958 -0.266,-0.32 -0.59,-0.628 -0.855,-0.894 l 0,20.312 -7.981,0 0,-55.988 7.981,0 0,23.668 c -0.043,0.942 -0.043,1.895 0.164,2.852 0.324,1.746 1.527,3.437 3.07,4.539 z m -38.582,-0.262 c 1.543,1.059 3.336,1.645 5.145,1.645 1.585,0.101 3.113,-0.207 4.48,-0.852 1.074,-0.41 1.973,-1.059 2.766,-1.793 0.265,-0.266 0.527,-0.574 0.793,-0.84 l 6.187,5.133 c -0.266,0.262 -0.469,0.527 -0.734,0.793 -1.485,1.586 -3.293,2.91 -5.246,3.863 -2.383,1.164 -4.969,1.793 -7.614,1.793 -3.543,0.047 -7.101,-0.953 -10.054,-2.969 -3.133,-1.953 -5.618,-4.906 -6.938,-8.246 -1.222,-2.91 -1.531,-6.14 -1.531,-9.363 -0.059,-2.969 0.207,-5.98 1.324,-8.73 1.367,-3.864 4.277,-7.305 7.938,-9.317 2.691,-1.59 5.82,-2.441 8.89,-2.383 2.649,-0.058 5.235,0.532 7.617,1.692 2.176,0.894 4.129,2.277 5.614,4.027 0.265,0.266 0.468,0.574 0.734,0.895 l -6.187,4.968 -0.793,-0.793 c -0.793,-0.835 -1.692,-1.527 -2.766,-2 -1.305,-0.644 -2.793,-0.91 -4.336,-0.851 -1.953,0 -3.852,0.633 -5.437,1.75 -1.911,1.262 -3.293,3.277 -3.969,5.453 -0.645,1.793 -0.809,3.746 -0.75,5.703 0.058,1.953 0.222,3.969 1.015,5.778 0.793,1.894 2.118,3.601 3.852,4.644 z m -37.996,-31.266 c 2.277,-0.101 4.512,0.102 6.73,0.633 1.899,0.469 3.703,1.117 5.293,2.219 1.895,1.219 3.379,3.074 4.278,5.129 0.691,1.648 1.011,3.398 0.894,5.144 -0.043,1.852 -0.512,3.645 -1.426,5.235 -0.734,1.426 -1.793,2.644 -3.054,3.601 -1.324,1.059 -2.867,1.75 -4.457,2.176 -1.735,0.469 -3.598,0.512 -5.395,0.629 -1.113,0.047 -2.219,0.106 -3.277,0.149 -1.059,0 -2.07,0 -3.07,0.382 -0.852,0.266 -1.649,0.793 -2.118,1.528 -0.468,0.691 -0.691,1.531 -0.586,2.382 0.059,0.692 0.379,1.383 0.852,1.954 0.469,0.531 1.059,0.957 1.691,1.281 1.219,0.527 2.602,0.57 3.922,0.57 1.957,-0.043 3.852,-0.262 5.66,-0.793 1.633,-0.469 3.176,-1.262 4.543,-2.262 0.262,-0.222 0.586,-0.425 0.852,-0.691 l 4.969,6.613 c -0.426,0.309 -0.84,0.633 -1.266,0.899 -1.852,1.32 -3.969,2.277 -6.187,2.953 -2.75,0.851 -5.614,1.277 -8.571,1.277 -2.601,0 -5.289,-0.32 -7.629,-1.527 -1.953,-0.91 -3.703,-2.395 -4.863,-4.246 -1.223,-1.735 -1.91,-3.75 -2.016,-5.809 -0.101,-1.746 0.164,-3.453 0.856,-5.027 0.687,-1.746 1.746,-3.289 3.172,-4.512 1.265,-1.058 2.75,-1.894 4.336,-2.32 1.222,-0.367 2.441,-0.531 3.707,-0.633 1.484,-0.102 2.969,-0.164 4.496,-0.223 1.324,0 2.644,0 3.91,-0.367 0.793,-0.203 1.586,-0.57 2.117,-1.203 0.528,-0.648 0.852,-1.484 0.852,-2.398 0,-1.043 -0.367,-2.114 -1.059,-2.852 -0.691,-0.629 -1.586,-0.996 -2.543,-1.262 -1.75,-0.531 -3.484,-0.75 -5.289,-0.691 -1.797,0.043 -3.648,0.367 -5.394,1 -1.856,0.586 -3.543,1.543 -4.969,2.809 -0.324,0.261 -0.633,0.585 -0.957,0.894 l -5.778,-5.719 c 0.223,-0.144 0.426,-0.367 0.59,-0.57 1.91,-1.957 4.395,-3.383 6.981,-4.395 2.969,-1.164 6.086,-1.898 9.203,-1.957 z m -26.707,56.457 -7.996,0 0,-7.832 7.996,0 0,7.832 z m -7.996,-55.988 7.996,0 0,40.012 -7.996,0 0,-40.012 z m -17.524,0.371 c 0.914,-0.207 1.809,-0.25 2.766,-0.371 l 4.762,0 0,7.57 -1.91,0 c -0.532,0 -1.059,0 -1.649,0.059 -0.527,0.047 -1.101,0.149 -1.527,0.531 -0.532,0.368 -0.793,1.102 -0.899,1.852 -0.101,0.633 0,1.266 0.047,1.894 l 0,44.082 -8.043,0 0,-45.507 c 0,-0.735 -0.043,-1.485 0,-2.219 0.164,-1.75 0.856,-3.496 1.957,-4.863 1.16,-1.485 2.762,-2.543 4.496,-3.028 z m -42.433,23.809 c 0.058,0.43 0.058,0.855 0.101,1.281 0.164,1.117 0.532,2.16 1.118,3.113 0.839,1.383 2.058,2.485 3.542,3.176 1.219,0.692 2.645,1.016 4.071,0.914 1.441,-0.058 2.867,-0.488 4.133,-1.281 1.425,-0.852 2.644,-2.16 3.336,-3.762 0.308,-0.675 0.527,-1.468 0.632,-2.265 0.059,-0.379 0.059,-0.793 0.059,-1.176 l -16.992,0 z m 25.031,-7.082 0,6.086 c -0.059,1.16 -0.102,2.379 -0.324,3.597 -0.309,2.282 -1.16,4.442 -2.426,6.411 -1.379,2.16 -3.277,3.953 -5.555,5.175 -2.441,1.426 -5.293,2.172 -8.203,2.172 -2.703,0 -5.453,-0.687 -7.789,-2.011 -2.262,-1.161 -4.219,-2.852 -5.703,-4.969 -1.383,-1.852 -2.383,-4.028 -2.809,-6.246 -0.16,-1 -0.203,-2.075 -0.261,-3.133 l 0,-7.082 c 0.058,-1.059 0.058,-2.16 0.203,-3.235 0.265,-2.425 1.176,-4.808 2.601,-6.878 1.532,-2.325 3.707,-4.176 6.188,-5.438 2.441,-1.324 5.191,-2.016 7.937,-2.016 3.442,-0.16 6.879,0.692 9.895,2.325 1.644,0.851 3.117,1.91 4.394,3.23 0.325,0.371 0.586,0.692 0.895,1.059 l -6.141,5.191 c -0.25,-0.324 -0.515,-0.648 -0.84,-0.914 -0.851,-0.894 -1.953,-1.57 -3.117,-2.055 -1.425,-0.632 -3.027,-0.957 -4.554,-0.898 -2.075,0 -4.129,0.527 -5.762,1.691 -1.219,0.793 -2.234,1.953 -2.809,3.278 -0.527,1.117 -0.793,2.336 -0.793,3.496 -0.058,0.429 0,0.797 0,1.164 l 24.973,0 z m -52.223,-3.278 c -0.265,-1.589 -1.117,-3.132 -2.382,-4.191 -1.383,-1.309 -3.235,-2.117 -5.129,-2.117 -1.692,-0.102 -3.442,0.426 -4.879,1.441 -1.633,1.102 -2.852,2.852 -3.176,4.703 -0.164,0.532 -0.207,1.161 -0.25,1.75 l 0,8.997 c 0.043,0.793 0.086,1.585 0.309,2.32 0.367,1.59 1.425,3.031 2.746,4.027 1.382,1.164 3.132,1.856 4.925,1.793 1.75,0.063 3.5,-0.57 4.926,-1.687 1.426,-1.059 2.481,-2.59 2.805,-4.278 0.207,-0.691 0.207,-1.441 0.25,-2.175 l 0,-8.204 c 0,-0.793 0,-1.586 -0.145,-2.379 z m -8.996,-30.324 c 2.953,-0.058 6.028,0.633 8.629,2.117 2.586,1.321 4.762,3.379 6.231,5.922 1.175,1.911 1.968,4.071 2.175,6.305 0.161,1.223 0.161,2.426 0.102,3.648 l 0,38.524 -7.996,0 0,-4.395 c -0.309,0.266 -0.574,0.586 -0.895,0.895 -1,1.058 -2.218,1.973 -3.543,2.601 -1.589,0.84 -3.382,1.325 -5.187,1.426 -2.223,0.164 -4.543,-0.261 -6.617,-1.277 -2.118,-0.942 -3.91,-2.484 -5.231,-4.379 -1.222,-1.648 -2.015,-3.559 -2.34,-5.512 -0.144,-1.105 -0.144,-2.16 -0.203,-3.277 l 0,-12.274 c 0,-0.855 0.059,-1.75 0.16,-2.589 0.207,-2.118 1.059,-4.188 2.278,-5.879 1.324,-1.91 3.117,-3.438 5.133,-4.453 1.793,-0.899 3.804,-1.426 5.82,-1.368 2.117,-0.058 4.23,0.426 6.144,1.426 1.426,0.633 2.747,1.586 3.805,2.75 0.266,0.262 0.473,0.528 0.676,0.75 l 0,-2.969 c 0,-0.855 0.058,-1.691 -0.043,-2.542 -0.102,-1.165 -0.367,-2.325 -0.957,-3.34 -0.629,-1.203 -1.586,-2.219 -2.746,-2.91 -1.426,-0.938 -3.176,-1.368 -4.867,-1.368 -1.543,-0.101 -3.012,0.164 -4.336,0.797 -1.219,0.528 -2.278,1.426 -3.235,2.379 -0.203,0.207 -0.468,0.473 -0.691,0.734 l -6.188,-5.289 c 0.325,-0.308 0.633,-0.691 0.957,-1 1.692,-1.793 3.868,-3.175 6.188,-4.07 2.176,-0.855 4.437,-1.324 6.777,-1.383 z m -34.234,43.61 c 0.265,-0.793 0.308,-1.602 0.41,-2.336 l 0,-24.77 7.938,0 0,26.946 c 0,0.941 -0.043,1.894 -0.204,2.851 -0.265,1.953 -1.265,3.863 -2.543,5.512 -1.105,1.426 -2.484,2.629 -4.074,3.484 -1.953,1.117 -4.23,1.746 -6.453,1.746 -1.746,0 -3.539,-0.32 -5.187,-1.011 -1.75,-0.633 -3.395,-1.633 -4.661,-2.958 -0.261,-0.32 -0.57,-0.628 -0.835,-0.953 l 0,4.395 -8.055,0 0,-40.012 8.055,0 0,24.77 c 0.101,0.953 0.265,1.953 0.574,2.851 0.586,1.602 1.91,2.969 3.437,3.867 1.324,0.852 2.867,1.278 4.395,1.176 1.633,-0.058 3.336,-0.648 4.601,-1.75 1.278,-0.957 2.176,-2.34 2.602,-3.808 z m -43.774,-15.875 c -0.203,-0.852 -0.527,-1.703 -1.16,-2.336 -0.793,-0.836 -2.015,-1.266 -3.175,-1.485 -1.426,-0.308 -2.809,-0.308 -4.172,-0.308 -1.383,0 -2.809,0 -4.133,0.468 -1.117,0.325 -2.176,1.016 -2.852,1.958 -0.633,0.894 -0.91,2.07 -0.851,3.175 0.058,1.012 0.367,1.969 0.957,2.746 0.734,1.016 1.894,1.707 3.07,1.868 0.633,0.148 1.324,0.101 2,0.043 l 10.375,0 0,-3.438 c 0.059,-0.898 0.106,-1.793 -0.059,-2.691 z m 3.926,25.914 c -1.484,1.281 -3.234,2.175 -5.027,2.707 -2.074,0.586 -4.293,0.687 -6.453,0.687 -2.176,0 -4.352,-0.16 -6.469,-0.629 -1.203,-0.265 -2.379,-0.648 -3.48,-1.281 -1.485,-0.734 -2.75,-1.793 -3.708,-3.113 -0.101,-0.207 -0.261,-0.371 -0.367,-0.59 l 6.293,-5.027 c 0.207,0.324 0.426,0.691 0.692,1.015 0.57,0.735 1.527,1.16 2.527,1.367 1.074,0.325 2.133,0.325 3.188,0.383 1.367,0 2.691,0.043 4.074,-0.164 1.16,-0.101 2.32,-0.426 3.219,-1.117 0.691,-0.527 1.277,-1.32 1.542,-2.16 0.208,-0.75 0.161,-1.543 0.102,-2.336 l 0,-3.016 -10.582,0 c -1.16,0.059 -2.324,0.059 -3.5,-0.16 -2.48,-0.308 -4.906,-1.691 -6.656,-3.644 -1.91,-2.016 -3.074,-4.618 -3.235,-7.364 -0.16,-2.281 0.368,-4.601 1.543,-6.617 1.325,-2.426 3.543,-4.336 6.129,-5.394 2.219,-0.954 4.66,-1.219 7.102,-1.161 1.586,0 3.176,0.207 4.703,0.735 1.324,0.426 2.586,1.117 3.437,2.176 0.426,0.425 0.75,0.957 1.059,1.484 l 0,-3.926 8.102,0 0,27.887 c -0.059,0.851 -0.106,1.703 -0.266,2.601 -0.426,2.543 -1.957,4.969 -3.969,6.657 z m -51.754,-24.973 -9.582,27.84 -8.511,0 14.593,-40.012 6.996,0 14.438,40.012 -8.469,0 -9.465,-27.84 z m -25.09,-4.012 -27.457,0 0,16.45 23.399,0 0,7.523 -23.399,0 0,16.023 27.457,0 0,7.832 -35.968,0 0,-55.988 35.968,0 0,8.16 z m 441.329,445.957 c 0,0.426 0.043,0.852 0.101,1.278 0.207,1.164 0.793,2.324 1.692,3.175 1,0.958 2.378,1.532 3.761,1.485 1.367,0.047 2.692,-0.426 3.703,-1.32 1,-0.856 1.735,-2.075 1.852,-3.34 0.047,-0.367 0.047,-0.688 0.047,-1.055 l 0,-16.832 c 0,-0.527 0,-1.059 -0.106,-1.586 -0.16,-1.117 -0.734,-2.223 -1.586,-3.016 -0.957,-1.011 -2.382,-1.586 -3.808,-1.586 -1.485,0 -2.91,0.528 -3.969,1.586 -0.894,0.84 -1.543,2.016 -1.644,3.176 -0.043,0.469 -0.043,0.957 -0.043,1.426 l 0,16.609 z M 523.066,729.5 c 0,-0.527 0,-1.059 0.059,-1.586 0.105,-1.75 0.691,-3.383 1.633,-4.867 1.058,-1.75 2.644,-3.176 4.453,-4.07 1.633,-0.852 3.441,-1.282 5.293,-1.219 1.894,0 3.851,0.527 5.496,1.586 1.75,1 3.176,2.484 4.129,4.277 0.691,1.219 1.105,2.645 1.266,4.027 0.058,0.633 0.058,1.266 0.058,1.852 l 0,17.934 c -0.058,1.601 -0.586,3.187 -1.426,4.613 -0.957,1.691 -2.382,3.074 -4.086,4.015 -1.691,1.055 -3.644,1.586 -5.601,1.586 -1.953,0.059 -3.863,-0.468 -5.555,-1.484 -1.75,-0.941 -3.176,-2.367 -4.129,-4.07 -0.84,-1.367 -1.324,-2.852 -1.484,-4.399 -0.047,-0.511 -0.106,-1.043 -0.106,-1.586 l 0,-16.609 z m -8.261,-5.496 c 0.957,1.793 1.324,3.851 1.281,5.922 -0.059,1.633 -0.367,3.219 -1.117,4.66 -0.633,1.367 -1.649,2.527 -2.809,3.484 -0.207,0.102 -0.41,0.266 -0.633,0.426 0.223,0.16 0.426,0.324 0.633,0.469 1.16,0.855 2.016,2.074 2.602,3.398 0.691,1.426 0.957,3.012 0.898,4.539 0,1.543 -0.426,3.028 -1.117,4.395 -0.793,1.75 -2.117,3.293 -3.707,4.336 -1.734,1.281 -3.906,1.972 -6.082,2.015 -1.793,0.118 -3.586,-0.265 -5.234,-1.058 -1.911,-0.899 -3.602,-2.383 -4.719,-4.176 -0.778,-1.262 -1.367,-2.703 -1.528,-4.187 -0.043,-0.207 -0.043,-0.469 -0.101,-0.735 l 5.656,0 c 0.059,0.266 0.106,0.528 0.164,0.793 0.32,1.117 1.102,2.059 2.176,2.75 0.937,0.688 2.113,1.059 3.219,1.059 0.894,0 1.804,-0.266 2.543,-0.633 0.793,-0.367 1.484,-0.899 1.953,-1.59 0.691,-0.836 1.058,-1.894 1.117,-2.969 0.102,-1.043 -0.102,-2.058 -0.527,-2.953 -0.43,-0.851 -1.059,-1.586 -1.856,-2.117 -0.746,-0.527 -1.644,-0.852 -2.601,-0.953 -0.469,-0.063 -0.938,-0.063 -1.426,-0.063 l -1.528,0 0,-4.863 1.692,0 c 0.633,0 1.262,0.059 1.851,-0.101 0.895,-0.106 1.75,-0.532 2.426,-1.059 0.809,-0.59 1.442,-1.324 1.809,-2.223 0.469,-0.894 0.629,-2.011 0.586,-3.07 0,-1.059 -0.16,-2.16 -0.692,-3.07 -0.484,-0.942 -1.32,-1.793 -2.277,-2.325 -0.898,-0.527 -1.953,-0.793 -2.969,-0.734 -1.265,0 -2.484,0.41 -3.484,1.16 -0.91,0.676 -1.645,1.633 -2.012,2.692 -0.058,0.218 -0.105,0.425 -0.164,0.632 l -5.656,0 c 0.058,-0.148 0.058,-0.367 0.058,-0.574 0.204,-1.543 0.793,-3.015 1.688,-4.336 0.957,-1.484 2.324,-2.75 3.852,-3.601 1.808,-1.059 3.882,-1.649 5.984,-1.586 2.176,0 4.289,0.687 6.082,1.851 1.707,1.118 3.074,2.645 3.969,4.395 z m -175.149,-6.777 c -0.101,-0.692 -0.144,-1.383 -0.308,-2.075 -0.368,-1.422 -1.16,-2.847 -2.278,-3.906 -0.851,-0.855 -1.851,-1.484 -2.91,-1.914 -0.898,-0.309 -1.851,-0.512 -2.851,-0.512 -1.707,-0.058 -3.395,0.41 -4.821,1.368 -1.105,0.75 -2.058,1.746 -2.707,2.91 -0.469,0.793 -0.793,1.586 -0.953,2.484 -0.105,0.527 -0.148,1.059 -0.148,1.645 l 0,8.406 c 0.043,0.75 0.101,1.484 0.308,2.176 0.383,1.367 1.16,2.648 2.278,3.601 1.543,1.531 3.707,2.485 5.882,2.426 1.954,0.059 3.907,-0.633 5.454,-1.953 1.468,-1.164 2.586,-2.852 2.851,-4.66 0.102,-0.532 0.16,-1.059 0.203,-1.59 l 0,-8.406 z m 5.617,-8.407 c 1.161,1.836 1.954,3.969 2.219,6.086 0.102,0.793 0.102,1.528 0.16,2.321 l 0,8.406 c -0.058,1.015 -0.16,1.972 -0.324,2.972 -0.41,2.422 -1.527,4.762 -3.113,6.715 -1.543,2.075 -3.543,3.762 -5.879,4.868 -2.164,1.058 -4.543,1.644 -6.984,1.585 -2.543,0.059 -5.071,-0.468 -7.348,-1.585 -2.484,-1.165 -4.66,-2.958 -6.246,-5.192 -1.426,-1.894 -2.442,-4.172 -2.867,-6.496 -0.149,-0.953 -0.207,-1.91 -0.25,-2.867 l 0,-8.406 c 0.043,-0.895 0.101,-1.75 0.203,-2.602 0.265,-2 0.957,-3.91 2.015,-5.66 1.633,-2.793 4.129,-5.07 7.039,-6.453 2.266,-1.16 4.766,-1.746 7.293,-1.688 2.805,-0.058 5.614,0.633 7.997,2.059 2.542,1.379 4.601,3.437 6.085,5.937 z m -53.871,1.321 c -1.898,-0.688 -3.91,-0.852 -5.867,-0.809 -2.437,0 -4.879,0.281 -7.199,1.016 -2.543,0.691 -4.926,1.91 -7.043,3.441 -0.309,0.262 -0.691,0.527 -1,0.793 l -5.395,-6.617 c 0.368,-0.32 0.735,-0.629 1.106,-0.895 2.437,-2.015 5.348,-3.441 8.422,-4.394 3.586,-1.281 7.304,-1.91 11.215,-1.852 4.804,-0.105 9.949,0.895 13.699,3.864 2.32,1.691 4.129,4.132 5.187,6.82 0.957,2.222 1.325,4.66 1.118,7.086 -0.118,2.234 -0.793,4.453 -1.911,6.468 -1.265,2.485 -3.277,4.645 -5.718,6.024 -1.954,1.223 -4.235,1.855 -6.512,2.223 -1.75,0.32 -3.484,0.527 -5.293,0.644 -1.688,0.043 -3.379,0.043 -5.023,0.574 -1.735,0.469 -3.442,1.586 -4.5,3.176 -0.942,1.379 -1.368,3.07 -1.204,4.703 0.043,1.383 0.571,2.703 1.469,3.821 1.012,1.324 2.5,2.277 4.129,2.691 1.426,0.426 2.91,0.484 4.395,0.383 2.281,-0.059 4.558,-0.383 6.718,-1.016 1.809,-0.469 3.543,-1.219 5.129,-2.176 0.426,-0.25 0.852,-0.515 1.281,-0.734 l 4.598,7.098 c -0.426,0.25 -0.851,0.515 -1.262,0.797 -2.234,1.367 -4.718,2.363 -7.261,3.113 -2.953,0.898 -6.028,1.383 -9.203,1.426 -3.235,0.058 -6.614,-0.368 -9.524,-1.793 -2.851,-1.321 -5.351,-3.661 -6.879,-6.465 -1.219,-2.059 -1.91,-4.383 -2.058,-6.719 -0.219,-2.691 0.25,-5.394 1.425,-7.836 1.219,-2.746 3.336,-5.07 5.868,-6.656 1.586,-1.059 3.394,-1.809 5.246,-2.219 1.894,-0.488 3.863,-0.59 5.82,-0.691 1.793,-0.059 3.543,-0.164 5.293,-0.532 1.16,-0.261 2.379,-0.632 3.379,-1.378 0.898,-0.633 1.644,-1.473 2.176,-2.485 0.574,-1 0.894,-2.223 0.894,-3.441 0.063,-1.426 -0.262,-2.91 -1.055,-4.129 -0.957,-1.633 -2.808,-2.692 -4.66,-3.324 z m 237.282,124.234 c 0,0.426 0.043,0.852 0.101,1.324 0.207,1.16 0.793,2.336 1.692,3.129 1,1 2.378,1.531 3.761,1.531 1.367,0.059 2.692,-0.429 3.703,-1.324 1,-0.851 1.735,-2.058 1.852,-3.336 0.047,-0.367 0.047,-0.734 0.047,-1.058 l 0,-16.832 c 0,-0.512 0,-1.043 -0.106,-1.586 -0.16,-1.102 -0.734,-2.219 -1.586,-3.012 -0.957,-1 -2.382,-1.59 -3.808,-1.59 -1.485,-0.043 -2.91,0.531 -3.969,1.59 -0.894,0.793 -1.543,1.969 -1.644,3.172 -0.043,0.484 -0.043,0.957 -0.043,1.426 l 0,16.566 z m 0.527,-27.09 c 1.633,-0.851 3.441,-1.324 5.293,-1.219 1.894,0 3.851,0.528 5.496,1.586 1.75,1.016 3.176,2.5 4.129,4.235 0.691,1.277 1.105,2.644 1.266,4.086 0.058,0.632 0.058,1.207 0.058,1.836 l 0,17.89 c -0.058,1.645 -0.586,3.235 -1.426,4.66 -0.957,1.645 -2.382,3.071 -4.086,4.028 -1.691,0.996 -3.644,1.586 -5.601,1.586 -1.953,0 -3.863,-0.485 -5.555,-1.485 -1.75,-0.957 -3.176,-2.383 -4.129,-4.129 -0.84,-1.324 -1.324,-2.808 -1.484,-4.336 -0.047,-0.531 -0.106,-1.117 -0.106,-1.648 l 0,-16.566 c 0,-0.512 0,-1.043 0.059,-1.629 0.105,-1.692 0.691,-3.383 1.633,-4.825 1.058,-1.746 2.644,-3.171 4.453,-4.07 z m -25.031,33.074 c 1.324,0.059 2.691,-0.429 3.703,-1.324 1,-0.851 1.691,-2.058 1.851,-3.336 0.047,-0.367 0.047,-0.734 0.047,-1.058 l 0,-16.832 c 0,-0.512 -0.047,-1.043 -0.105,-1.586 -0.203,-1.102 -0.735,-2.219 -1.586,-3.012 -1,-1 -2.426,-1.59 -3.867,-1.59 -1.426,-0.043 -2.911,0.531 -3.911,1.59 -0.894,0.793 -1.542,1.969 -1.687,3.172 -0.063,0.484 -0.063,0.957 -0.063,1.426 l 0,16.566 c 0.063,0.426 0.063,0.852 0.165,1.324 0.207,1.16 0.734,2.336 1.691,3.129 0.953,1 2.379,1.531 3.762,1.531 z m -9.629,0 c -0.793,-1.324 -1.278,-2.808 -1.485,-4.336 -0.058,-0.531 -0.058,-1.117 -0.058,-1.648 l 0,-16.566 c 0,-0.512 0,-1.043 0.058,-1.629 0.106,-1.692 0.692,-3.383 1.633,-4.825 1.059,-1.746 2.602,-3.171 4.453,-4.07 1.586,-0.851 3.442,-1.324 5.235,-1.219 1.953,0 3.863,0.528 5.511,1.586 1.735,1.016 3.172,2.5 4.114,4.235 0.691,1.277 1.176,2.644 1.281,4.086 0.102,0.632 0.102,1.207 0.102,1.836 l 0,16.566 c 0,0.484 0,0.91 -0.059,1.324 -0.043,1.645 -0.574,3.235 -1.426,4.66 -0.957,1.645 -2.383,3.071 -4.012,4.028 -1.707,0.996 -3.66,1.586 -5.675,1.586 -1.895,0 -3.852,-0.485 -5.496,-1.485 -1.75,-0.957 -3.235,-2.383 -4.176,-4.129 z M 457.82,809.727 c 0.633,1.425 1.586,2.644 2.868,3.543 1.468,1.16 3.437,1.851 5.335,1.851 1.747,0.059 3.497,-0.473 4.981,-1.484 1.207,-0.735 2.219,-1.852 2.91,-3.117 0.633,-1.219 1,-2.602 1.043,-3.969 0.117,-1.543 -0.145,-3.071 -0.836,-4.453 -0.734,-1.59 -1.957,-2.957 -3.5,-3.809 -1.469,-0.894 -3.172,-1.262 -4.863,-1.219 -1.692,0.059 -3.336,0.586 -4.762,1.543 -1.484,1 -2.691,2.485 -3.277,4.129 -0.473,1.106 -0.633,2.324 -0.633,3.485 0.043,1.222 0.262,2.441 0.734,3.5 z m 1.118,24.015 c 0.574,1.164 1.527,2.176 2.585,2.91 1.383,0.957 2.969,1.485 4.602,1.485 1.543,0 3.07,-0.528 4.352,-1.379 1.101,-0.676 1.996,-1.692 2.644,-2.793 0.633,-1.117 0.941,-2.34 0.941,-3.602 0.059,-1.324 -0.207,-2.648 -0.792,-3.808 -0.676,-1.379 -1.735,-2.543 -3.059,-3.293 -1.277,-0.793 -2.809,-1.16 -4.352,-1.102 -1.425,0 -2.894,0.426 -4.129,1.219 -1.207,0.738 -2.218,1.855 -2.792,3.117 -0.633,1.219 -0.899,2.586 -0.793,3.969 0.043,1.16 0.308,2.277 0.793,3.277 z m -7.305,3.235 c -1,-2.012 -1.531,-4.293 -1.531,-6.512 -0.059,-1.953 0.265,-3.91 1,-5.719 0.734,-1.953 1.91,-3.746 3.441,-5.129 0.324,-0.324 0.691,-0.586 1,-0.894 -0.266,-0.223 -0.574,-0.489 -0.84,-0.75 -1.808,-1.532 -3.336,-3.442 -4.293,-5.661 -0.953,-2.015 -1.426,-4.277 -1.367,-6.554 -0.059,-2.91 0.781,-5.879 2.324,-8.363 1.528,-2.649 3.809,-4.825 6.512,-6.25 2.426,-1.379 5.23,-2.055 8.039,-2.055 3.176,-0.059 6.394,0.836 9.098,2.644 2.707,1.633 4.925,4.071 6.25,6.879 1.058,2.117 1.629,4.438 1.746,6.821 0.105,2.484 -0.321,5.027 -1.426,7.246 -0.953,2.015 -2.379,3.703 -3.981,5.187 -0.308,0.324 -0.675,0.59 -1,0.856 0.325,0.308 0.692,0.57 1,0.894 1.379,1.266 2.497,2.852 3.231,4.602 0.855,1.953 1.281,4.07 1.223,6.187 0,2.5 -0.692,4.985 -1.852,7.145 -1.164,2.277 -2.852,4.187 -4.926,5.613 -2.586,1.91 -5.761,2.957 -8.996,2.91 -3.32,0.106 -6.656,-0.894 -9.305,-2.851 -2.335,-1.543 -4.187,-3.762 -5.347,-6.246 z m -31.426,-5.661 7.938,5.868 0,-47.567 7.878,0 0,55.973 -7.878,0 -7.938,-5.805 0,-8.469 z m -82.18,-31.011 c -0.164,-0.852 -0.531,-1.692 -1.164,-2.34 -0.75,-0.836 -2.011,-1.262 -3.175,-1.469 -1.438,-0.266 -2.805,-0.324 -4.188,-0.324 -1.383,0 -2.809,0 -4.117,0.473 -1.117,0.324 -2.172,1.011 -2.863,1.968 -0.633,0.899 -0.899,2.059 -0.856,3.176 0.063,1 0.383,1.953 1.016,2.746 0.691,1 1.851,1.692 3.011,1.856 0.692,0.16 1.325,0.101 2.016,0.043 l 10.422,0 0,-3.426 c 0,-0.91 0.059,-1.809 -0.102,-2.703 z m 0.102,12.64 -10.641,0 c -1.164,0.059 -2.324,0.059 -3.484,-0.148 -2.484,-0.324 -4.926,-1.703 -6.676,-3.66 -1.894,-1.953 -3.07,-4.602 -3.219,-7.348 -0.16,-2.277 0.368,-4.617 1.532,-6.613 1.32,-2.442 3.601,-4.34 6.144,-5.352 2.219,-1 4.645,-1.265 7.082,-1.219 1.59,0 3.235,0.219 4.762,0.747 1.266,0.414 2.543,1.164 3.441,2.164 0.368,0.425 0.692,0.953 1.059,1.484 l 0,-3.91 8.039,0 0,27.883 c -0.043,0.836 -0.102,1.691 -0.266,2.586 -0.425,2.543 -1.953,4.984 -3.968,6.671 -1.485,1.266 -3.172,2.165 -5.024,2.692 -2.058,0.59 -4.277,0.691 -6.453,0.691 -2.176,0 -4.336,-0.101 -6.453,-0.633 -1.223,-0.265 -2.383,-0.632 -3.5,-1.265 -1.426,-0.746 -2.746,-1.805 -3.703,-3.129 -0.102,-0.16 -0.266,-0.367 -0.367,-0.574 l 6.347,-5.028 c 0.164,0.309 0.371,0.676 0.633,1 0.59,0.75 1.543,1.161 2.543,1.426 1.059,0.266 2.117,0.266 3.234,0.324 1.325,0 2.692,0.043 4.012,-0.101 1.164,-0.164 2.34,-0.488 3.235,-1.176 0.734,-0.516 1.324,-1.324 1.527,-2.164 0.223,-0.734 0.164,-1.527 0.164,-2.32 l 0,-3.028 z m -38.629,5.981 c -1.953,1.164 -4.234,1.808 -6.512,2.219 -1.75,0.324 -3.484,0.531 -5.293,0.589 -1.687,0.102 -3.379,0.043 -5.023,0.575 -1.75,0.484 -3.442,1.644 -4.5,3.234 -0.953,1.32 -1.367,3.012 -1.219,4.656 0.059,1.367 0.586,2.75 1.485,3.809 1.015,1.324 2.484,2.277 4.128,2.703 1.426,0.426 2.911,0.473 4.395,0.367 2.281,-0.058 4.543,-0.367 6.719,-0.996 1.793,-0.488 3.543,-1.223 5.129,-2.176 0.425,-0.265 0.851,-0.488 1.222,-0.734 l 4.657,7.082 -1.278,0.793 c -2.262,1.383 -4.703,2.426 -7.246,3.117 -2.953,0.91 -6.027,1.383 -9.203,1.426 -3.231,0.058 -6.613,-0.309 -9.523,-1.793 -2.868,-1.324 -5.352,-3.645 -6.879,-6.453 -1.219,-2.059 -1.911,-4.336 -2.075,-6.715 -0.203,-2.649 0.266,-5.395 1.426,-7.836 1.238,-2.75 3.34,-5.086 5.883,-6.672 1.586,-1.059 3.379,-1.793 5.246,-2.223 1.895,-0.425 3.852,-0.57 5.82,-0.628 1.735,-0.106 3.543,-0.223 5.235,-0.59 1.218,-0.207 2.437,-0.633 3.437,-1.368 0.899,-0.585 1.649,-1.484 2.16,-2.437 0.59,-1.059 0.914,-2.281 0.914,-3.484 0.043,-1.442 -0.265,-2.926 -1.058,-4.086 -1.016,-1.633 -2.809,-2.75 -4.66,-3.34 -1.91,-0.676 -3.91,-0.836 -5.867,-0.836 -2.438,0 -4.879,0.324 -7.2,1 -2.543,0.691 -4.925,1.969 -7.043,3.496 -0.324,0.207 -0.691,0.473 -1,0.738 l -5.406,-6.617 c 0.379,-0.308 0.746,-0.57 1.117,-0.894 2.422,-2.016 5.348,-3.383 8.364,-4.395 3.644,-1.266 7.347,-1.898 11.257,-1.852 4.821,-0.105 9.95,0.911 13.715,3.864 2.278,1.691 4.129,4.133 5.188,6.82 0.898,2.277 1.324,4.719 1.101,7.102 -0.16,2.218 -0.793,4.437 -1.894,6.449 -1.281,2.484 -3.278,4.719 -5.719,6.086 z m 221.082,90.484 c 0.164,1.117 0.531,2.176 1.102,3.133 0.796,1.367 2.074,2.527 3.5,3.219 1.265,0.633 2.691,0.957 4.07,0.898 1.484,-0.047 2.91,-0.531 4.133,-1.324 1.484,-0.84 2.703,-2.16 3.336,-3.703 0.367,-0.735 0.574,-1.531 0.691,-2.324 0.043,-0.368 0.043,-0.793 0.043,-1.161 l -16.977,0 c 0,0.426 0.043,0.836 0.102,1.262 z m -5.348,-18.414 c 1.543,-2.324 3.704,-4.234 6.188,-5.441 2.437,-1.321 5.187,-2.012 7.937,-2.071 3.395,-0.164 6.832,0.692 9.848,2.321 1.645,0.855 3.176,1.972 4.438,3.293 0.324,0.308 0.589,0.691 0.91,1 l -6.141,5.246 c -0.266,-0.321 -0.531,-0.645 -0.855,-0.953 -0.895,-0.899 -1.954,-1.59 -3.114,-2.075 -1.484,-0.632 -3.015,-0.894 -4.601,-0.894 -2.016,0 -4.071,0.527 -5.778,1.687 -1.203,0.856 -2.16,2.016 -2.808,3.34 -0.512,1.059 -0.735,2.278 -0.778,3.496 0,0.367 0,0.735 0.043,1.16 l 24.93,0 0,6.028 c -0.058,1.222 -0.101,2.441 -0.265,3.66 -0.321,2.219 -1.161,4.441 -2.438,6.352 -1.367,2.16 -3.34,3.968 -5.559,5.171 -2.484,1.485 -5.336,2.235 -8.199,2.176 -2.691,0.059 -5.453,-0.633 -7.836,-1.953 -2.218,-1.164 -4.176,-2.91 -5.66,-5.027 -1.367,-1.852 -2.426,-3.969 -2.805,-6.188 -0.148,-1.058 -0.207,-2.117 -0.265,-3.176 l 0,-7.043 c 0,-1.117 0.058,-2.171 0.16,-3.277 0.266,-2.437 1.223,-4.82 2.648,-6.832 z m -23.386,1.117 c -1.793,-0.531 -3.543,-0.738 -5.293,-0.691 -1.852,0.058 -3.703,0.367 -5.453,1 -1.793,0.586 -3.543,1.543 -4.969,2.805 -0.321,0.324 -0.629,0.632 -0.953,0.914 l -5.719,-5.676 c 0.207,-0.207 0.367,-0.41 0.59,-0.574 1.894,-2.012 4.394,-3.395 6.98,-4.395 2.91,-1.219 6.028,-1.91 9.157,-2.012 2.277,-0.105 4.558,0.161 6.777,0.692 1.836,0.426 3.703,1.101 5.289,2.219 1.84,1.218 3.383,3.011 4.234,5.128 0.735,1.586 1.059,3.336 0.942,5.145 -0.043,1.793 -0.575,3.644 -1.469,5.234 -0.75,1.379 -1.809,2.645 -3.074,3.602 -1.278,0.996 -2.852,1.746 -4.453,2.113 -1.735,0.473 -3.543,0.531 -5.395,0.633 -1.059,0.059 -2.16,0.105 -3.277,0.164 -1,0.043 -2.059,0.043 -3.012,0.367 -0.855,0.262 -1.648,0.793 -2.117,1.586 -0.473,0.633 -0.692,1.528 -0.59,2.324 0.059,0.747 0.367,1.438 0.855,1.969 0.426,0.574 1.055,1 1.688,1.262 1.164,0.59 2.543,0.633 3.91,0.59 1.969,0 3.824,-0.223 5.676,-0.809 1.586,-0.469 3.172,-1.207 4.496,-2.219 0.309,-0.265 0.574,-0.472 0.898,-0.691 l 4.922,6.57 c -0.383,0.309 -0.793,0.633 -1.218,0.895 -1.852,1.324 -4.028,2.34 -6.188,2.972 -2.766,0.895 -5.676,1.262 -8.586,1.262 -2.644,0 -5.289,-0.324 -7.672,-1.484 -1.953,-0.895 -3.644,-2.426 -4.867,-4.278 -1.16,-1.703 -1.852,-3.761 -1.953,-5.82 -0.102,-1.691 0.16,-3.437 0.793,-5.027 0.691,-1.75 1.793,-3.278 3.234,-4.453 1.207,-1.102 2.75,-1.895 4.336,-2.383 1.16,-0.309 2.426,-0.469 3.645,-0.57 1.484,-0.165 3.015,-0.223 4.5,-0.223 1.32,-0.043 2.644,0 3.968,-0.426 0.793,-0.207 1.543,-0.574 2.071,-1.16 0.574,-0.633 0.84,-1.531 0.84,-2.426 0.058,-1.058 -0.309,-2.117 -1.059,-2.808 -0.633,-0.692 -1.59,-1.059 -2.484,-1.321 z m -41.012,0 c -1.746,-0.531 -3.496,-0.738 -5.231,-0.691 -1.851,0.058 -3.718,0.367 -5.453,1 -1.851,0.586 -3.558,1.543 -4.984,2.805 -0.309,0.324 -0.633,0.632 -0.941,0.914 l -5.715,-5.676 c 0.144,-0.207 0.367,-0.41 0.57,-0.574 1.914,-2.012 4.352,-3.395 6.941,-4.395 2.969,-1.219 6.082,-1.91 9.2,-2.012 2.277,-0.105 4.558,0.161 6.777,0.692 1.852,0.426 3.703,1.101 5.246,2.219 1.895,1.218 3.383,3.011 4.277,5.128 0.692,1.586 1.016,3.336 0.957,5.145 -0.058,1.793 -0.589,3.644 -1.484,5.234 -0.738,1.379 -1.793,2.645 -3.074,3.602 -1.32,0.996 -2.852,1.746 -4.438,2.113 -1.75,0.473 -3.601,0.531 -5.394,0.633 -1.117,0.059 -2.176,0.105 -3.278,0.164 -1.015,0.043 -2.074,0.043 -3.015,0.367 -0.852,0.262 -1.645,0.793 -2.176,1.586 -0.484,0.633 -0.687,1.528 -0.586,2.324 0.102,0.747 0.426,1.438 0.895,1.969 0.429,0.574 1.015,1 1.648,1.262 1.219,0.59 2.586,0.633 3.969,0.59 1.953,0 3.805,-0.223 5.601,-0.809 1.645,-0.469 3.231,-1.207 4.555,-2.219 0.324,-0.265 0.59,-0.472 0.852,-0.691 l 4.968,6.57 c -0.425,0.309 -0.793,0.633 -1.218,0.895 -1.899,1.324 -4.012,2.34 -6.235,2.972 -2.761,0.895 -5.613,1.262 -8.523,1.262 -2.645,0 -5.352,-0.324 -7.672,-1.484 -1.957,-0.895 -3.707,-2.426 -4.867,-4.278 -1.16,-1.703 -1.852,-3.761 -1.953,-5.82 -0.164,-1.691 0.144,-3.437 0.793,-5.027 0.675,-1.75 1.793,-3.278 3.175,-4.453 1.262,-1.102 2.793,-1.895 4.379,-2.383 1.16,-0.309 2.395,-0.469 3.66,-0.57 1.469,-0.165 3.012,-0.223 4.497,-0.223 1.324,-0.043 2.648,0 3.91,-0.426 0.793,-0.207 1.59,-0.574 2.117,-1.16 0.59,-0.633 0.852,-1.531 0.852,-2.426 0.046,-1.058 -0.368,-2.117 -1.059,-2.808 -0.629,-0.692 -1.586,-1.059 -2.543,-1.321 z m -55.25,17.297 c 0.16,1.117 0.543,2.176 1.176,3.133 0.793,1.367 2.011,2.527 3.484,3.219 1.219,0.633 2.645,0.957 4.086,0.898 1.426,-0.047 2.852,-0.531 4.113,-1.324 1.442,-0.84 2.649,-2.16 3.34,-3.703 0.32,-0.735 0.527,-1.531 0.629,-2.324 0.059,-0.368 0.059,-0.793 0.059,-1.161 l -16.989,0 c 0.059,0.426 0.059,0.836 0.102,1.262 z m -5.336,-18.414 c 1.527,-2.324 3.703,-4.234 6.188,-5.441 2.441,-1.321 5.187,-2.012 7.937,-2.071 3.441,-0.164 6.879,0.692 9.891,2.321 1.648,0.855 3.132,1.972 4.398,3.293 0.32,0.308 0.586,0.691 0.895,1 l -6.129,5.246 c -0.266,-0.321 -0.528,-0.645 -0.852,-0.953 -0.84,-0.899 -1.957,-1.59 -3.117,-2.075 -1.426,-0.632 -3.012,-0.894 -4.555,-0.894 -2.058,0 -4.133,0.527 -5.765,1.687 -1.219,0.856 -2.231,2.016 -2.805,3.34 -0.531,1.059 -0.793,2.278 -0.793,3.496 -0.059,0.367 0,0.735 0,1.16 l 24.973,0 0,6.028 c -0.047,1.222 -0.106,2.441 -0.309,3.66 -0.324,2.219 -1.176,4.441 -2.441,6.352 -1.383,2.16 -3.278,3.968 -5.555,5.171 -2.441,1.485 -5.293,2.235 -8.203,2.176 -2.703,0.059 -5.453,-0.633 -7.778,-1.953 -2.277,-1.164 -4.23,-2.91 -5.714,-5.027 -1.383,-1.852 -2.383,-3.969 -2.809,-6.188 -0.16,-1.058 -0.207,-2.117 -0.266,-3.176 l 0,-7.043 c 0.059,-1.117 0.059,-2.171 0.223,-3.277 0.262,-2.437 1.16,-4.82 2.586,-6.832 z m -22.121,28.469 0,-35.453 8.363,0 0,55.988 -7.937,0 -16.035,-36.41 -16.082,36.41 -7.997,0 0,-55.988 8.528,0 0,35.453 12.008,-27.41 6.98,0 12.172,27.41 z M 263.578,909.41 c 0.145,1.117 0.527,2.176 1.102,3.133 0.793,1.367 2.07,2.527 3.496,3.219 1.265,0.633 2.691,0.957 4.074,0.898 1.484,-0.047 2.91,-0.531 4.129,-1.324 1.484,-0.84 2.691,-2.16 3.336,-3.703 0.367,-0.735 0.574,-1.531 0.676,-2.324 0.058,-0.368 0.058,-0.793 0.058,-1.161 l -16.988,0 c 0,0.426 0.059,0.836 0.117,1.262 z m 18.621,-23.605 c 1.633,0.855 3.176,1.972 4.442,3.293 0.32,0.308 0.586,0.691 0.894,1 l -6.129,5.246 c -0.265,-0.321 -0.527,-0.645 -0.851,-0.953 -0.899,-0.899 -1.957,-1.59 -3.117,-2.075 -1.426,-0.632 -3.012,-0.894 -4.602,-0.894 -2.012,0 -4.086,0.527 -5.719,1.687 -1.219,0.856 -2.219,2.016 -2.863,3.34 -0.531,1.059 -0.734,2.278 -0.793,3.496 0,0.367 0,0.735 0.059,1.16 l 24.925,0 0,6.028 c -0.058,1.222 -0.058,2.441 -0.261,3.66 -0.325,2.219 -1.164,4.441 -2.442,6.352 -1.383,2.16 -3.336,3.968 -5.554,5.171 -2.485,1.485 -5.352,2.235 -8.204,2.176 -2.703,0.059 -5.453,-0.633 -7.836,-1.953 -2.218,-1.164 -4.171,-2.91 -5.656,-5.027 -1.383,-1.852 -2.441,-3.969 -2.808,-6.188 -0.161,-1.058 -0.207,-2.117 -0.266,-3.176 l 0,-7.043 c 0,-1.117 0.059,-2.171 0.164,-3.277 0.32,-2.437 1.219,-4.82 2.645,-6.832 1.527,-2.324 3.703,-4.234 6.187,-5.441 2.441,-1.321 5.188,-2.012 7.938,-2.071 3.441,-0.164 6.82,0.692 9.847,2.321 z m -45.933,12.023 c -0.262,-1.586 -1.161,-3.129 -2.379,-4.23 -1.383,-1.325 -3.235,-2.075 -5.133,-2.118 -1.746,-0.105 -3.438,0.411 -4.863,1.485 -1.649,1.101 -2.868,2.793 -3.235,4.644 -0.101,0.586 -0.16,1.176 -0.207,1.75 l 0,9.055 c 0.047,0.793 0.106,1.527 0.309,2.32 0.367,1.528 1.383,2.969 2.707,4.028 1.426,1.101 3.176,1.793 4.969,1.793 1.746,0.058 3.496,-0.575 4.863,-1.692 1.441,-1.054 2.543,-2.644 2.867,-4.289 0.16,-0.734 0.207,-1.484 0.266,-2.16 l 0,-8.203 c 0,-0.852 0,-1.649 -0.164,-2.383 z m -0.368,-28.266 c 2.543,1.325 4.762,3.442 6.188,5.942 1.223,1.953 1.957,4.113 2.223,6.332 0.16,1.176 0.101,2.398 0.101,3.602 l 0,38.527 -7.98,0 0,-4.395 c -0.325,0.321 -0.59,0.645 -0.914,0.91 -1,1.043 -2.219,1.954 -3.543,2.586 -1.586,0.852 -3.379,1.325 -5.172,1.426 -2.278,0.164 -4.559,-0.265 -6.613,-1.219 -2.118,-0.957 -3.969,-2.543 -5.293,-4.441 -1.176,-1.586 -1.969,-3.539 -2.278,-5.496 -0.164,-1.074 -0.222,-2.176 -0.222,-3.293 l 0,-12.215 c 0,-0.91 0,-1.805 0.164,-2.644 0.218,-2.118 1.011,-4.129 2.277,-5.879 1.324,-1.899 3.07,-3.442 5.129,-4.442 1.808,-0.91 3.808,-1.379 5.82,-1.379 2.117,-0.046 4.235,0.469 6.086,1.426 1.484,0.692 2.809,1.645 3.867,2.746 0.203,0.266 0.426,0.547 0.692,0.797 l 0,-2.957 c 0,-0.851 0.043,-1.687 -0.059,-2.586 -0.105,-1.117 -0.43,-2.277 -0.957,-3.336 -0.633,-1.176 -1.633,-2.234 -2.793,-2.91 -1.441,-0.91 -3.129,-1.324 -4.879,-1.383 -1.484,-0.043 -3.015,0.164 -4.277,0.793 -1.223,0.531 -2.277,1.426 -3.235,2.383 -0.207,0.266 -0.468,0.527 -0.691,0.734 l -6.187,-5.293 c 0.324,-0.308 0.586,-0.628 0.957,-0.937 1.687,-1.809 3.863,-3.176 6.187,-4.074 2.176,-0.91 4.438,-1.379 6.774,-1.379 2.957,-0.106 5.984,0.57 8.628,2.054 z M 201.402,940 l -7.937,0 0,-7.879 7.937,0 0,7.879 z m 0,-16.035 -7.937,0 0,-39.953 7.937,0 0,39.953 z m -22.754,-39.953 4.805,0 0,7.511 -1.894,0 c -0.59,0 -1.118,0 -1.707,0.059 -0.528,0.043 -1.102,0.207 -1.469,0.531 -0.586,0.426 -0.852,1.16 -0.91,1.852 -0.106,0.691 -0.047,1.32 0,1.953 l 0,44.082 -7.981,0 0,-45.508 c -0.058,-0.75 -0.058,-1.484 0,-2.219 0.102,-1.808 0.793,-3.543 1.953,-4.925 1.117,-1.426 2.75,-2.485 4.496,-2.969 0.856,-0.262 1.797,-0.309 2.707,-0.367 z M 157.469,940 l -7.938,0 0,-7.879 7.938,0 0,7.879 z m 0,-16.035 -7.938,0 0,-39.953 7.938,0 0,39.953 z M 113.664,909.41 c 0.148,1.117 0.531,2.176 1.102,3.133 0.796,1.367 2.074,2.527 3.5,3.219 1.265,0.633 2.703,0.957 4.07,0.898 1.484,-0.047 2.91,-0.531 4.133,-1.324 1.484,-0.84 2.703,-2.16 3.336,-3.703 0.367,-0.735 0.574,-1.531 0.691,-2.324 0,-0.368 0.043,-0.793 0.043,-1.161 l -17.035,0 c 0.058,0.426 0.101,0.836 0.16,1.262 z m -5.348,-18.414 c 1.528,-2.324 3.704,-4.234 6.141,-5.441 2.484,-1.321 5.234,-2.012 7.984,-2.071 3.395,-0.164 6.832,0.692 9.848,2.321 1.645,0.855 3.176,1.972 4.438,3.293 0.265,0.308 0.589,0.691 0.851,1 l -6.082,5.246 c -0.266,-0.321 -0.59,-0.645 -0.855,-0.953 -0.895,-0.899 -1.953,-1.59 -3.172,-2.075 -1.426,-0.632 -2.957,-0.894 -4.543,-0.894 -2.016,0 -4.074,0.527 -5.778,1.687 -1.207,0.856 -2.218,2.016 -2.793,3.34 -0.543,1.059 -0.793,2.278 -0.793,3.496 0,0.367 0,0.735 0.043,1.16 l 24.93,0 0,6.028 c -0.058,1.222 -0.101,2.441 -0.265,3.66 -0.325,2.219 -1.161,4.441 -2.438,6.352 -1.367,2.16 -3.34,3.968 -5.559,5.171 -2.484,1.485 -5.335,2.235 -8.199,2.176 -2.75,0.059 -5.453,-0.633 -7.836,-1.953 -2.265,-1.164 -4.176,-2.91 -5.66,-5.027 -1.426,-1.852 -2.426,-3.969 -2.793,-6.188 -0.16,-1.058 -0.219,-2.117 -0.277,-3.176 l 0,-7.043 c 0,-1.117 0.058,-2.171 0.16,-3.277 0.266,-2.437 1.223,-4.82 2.648,-6.832 z m -45.246,17.621 22.961,0 0,-24.605 8.481,0 0,55.988 -8.481,0 0,-23.871 -22.961,0 0,23.871 -8.508,0 0,-55.988 8.508,0" /></g></g></g></g><path
         id="path4647"
         style="fill:#000000;fill-opacity:1;fill-rule:nonzero;stroke:none"
         d="m 40.805,9.996 -0.266,0 c -2.644,0 -5.293,0.367 -7.894,1.102 -2.543,0.648 -5.028,1.707 -7.305,3.074 -2.32,1.32 -4.438,2.969 -6.348,4.863 -1.84,1.867 -3.484,3.969 -4.808,6.305 -1.383,2.281 -2.379,4.761 -3.071,7.304 -0.734,2.59 -1.117,5.235 -1.117,7.879 l 0,918.875 c 0,2.645 0.383,5.352 1.117,7.879 0.633,2.602 1.688,5.086 3.071,7.364 1.324,2.32 2.968,4.437 4.808,6.289 1.91,1.914 4.028,3.543 6.348,4.867 2.277,1.324 4.762,2.383 7.305,3.07 2.601,0.75 5.25,1.117 7.894,1.117 l 518.879,0 c 2.644,-0.058 5.348,-0.367 7.891,-1.117 2.589,-0.691 5.074,-1.687 7.351,-3.07 2.32,-1.324 4.438,-2.953 6.289,-4.867 1.914,-1.852 3.559,-3.969 4.883,-6.289 1.32,-2.278 2.379,-4.762 3.055,-7.364 0.75,-2.527 1.117,-5.234 1.117,-7.879 l 0,-918.875 c -0.059,-2.644 -0.367,-5.289 -1.117,-7.879 -0.676,-2.543 -1.688,-5.023 -3.055,-7.304 -1.324,-2.336 -2.969,-4.438 -4.883,-6.305 -1.851,-1.894 -3.969,-3.543 -6.289,-4.863 -2.277,-1.367 -4.762,-2.383 -7.351,-3.074 -2.543,-0.735 -5.247,-1.102 -7.891,-1.102 l -518.613,0 z m 0,14.023 518.511,0 c 1.426,0 2.911,0.161 4.293,0.575 1.426,0.382 2.75,0.953 4.012,1.703 1.281,0.691 2.441,1.59 3.441,2.644 1.059,1 1.911,2.164 2.645,3.442 0.75,1.207 1.324,2.586 1.691,3.968 0.383,1.426 0.586,2.852 0.586,4.336 l 0,918.614 c 0,1.484 -0.203,2.91 -0.586,4.293 -0.367,1.425 -0.941,2.793 -1.691,4.011 -0.734,1.282 -1.586,2.442 -2.645,3.442 -1,1.058 -2.16,1.953 -3.441,2.644 -1.262,0.75 -2.586,1.325 -4.012,1.692 -1.382,0.367 -2.867,0.586 -4.293,0.586 l -518.628,0 c -1.473,0 -2.911,-0.219 -4.336,-0.586 -1.383,-0.367 -2.75,-0.942 -3.969,-1.692 -1.266,-0.691 -2.426,-1.586 -3.442,-2.644 -1.058,-1 -1.953,-2.16 -2.691,-3.442 -0.691,-1.261 -1.277,-2.586 -1.645,-4.011 -0.425,-1.383 -0.632,-2.868 -0.585,-4.293 l 0,-918.614 c 0,-1.484 0.16,-2.91 0.585,-4.336 0.368,-1.382 0.899,-2.761 1.645,-3.968 0.738,-1.278 1.633,-2.442 2.691,-3.442 1.016,-1.054 2.176,-1.953 3.442,-2.644 1.219,-0.75 2.586,-1.321 3.969,-1.703 1.425,-0.414 2.863,-0.633 4.336,-0.575 l 0.117,0" /><path
         id="path4649"
         style="fill:#000000;fill-opacity:1;fill-rule:nonzero;stroke:none"
         d="m 460.777,721.391 c 0.633,1.425 1.59,2.648 2.868,3.542 1.468,1.165 3.441,1.852 5.335,1.852 1.75,0.059 3.5,-0.469 4.985,-1.484 1.203,-0.735 2.219,-1.852 2.91,-3.114 0.629,-1.222 1,-2.601 1.043,-3.968 0.117,-1.543 -0.148,-3.075 -0.84,-4.457 -0.734,-1.586 -1.953,-2.954 -3.496,-3.805 -1.473,-0.899 -3.176,-1.266 -4.867,-1.219 -1.688,0.059 -3.336,0.586 -4.762,1.543 -1.484,1 -2.687,2.485 -3.277,4.129 -0.469,1.102 -0.633,2.324 -0.633,3.484 0.043,1.219 0.266,2.438 0.734,3.497 z m 1.118,24.019 c 0.574,1.16 1.531,2.176 2.589,2.91 1.379,0.957 2.969,1.485 4.598,1.485 1.543,0 3.074,-0.528 4.352,-1.383 1.101,-0.676 2,-1.688 2.644,-2.793 0.633,-1.117 0.942,-2.336 0.942,-3.602 0.058,-1.32 -0.204,-2.644 -0.793,-3.804 -0.676,-1.383 -1.735,-2.543 -3.059,-3.293 -1.277,-0.793 -2.805,-1.161 -4.348,-1.102 -1.425,0 -2.898,0.426 -4.132,1.219 -1.204,0.734 -2.219,1.851 -2.793,3.117 -0.629,1.219 -0.895,2.586 -0.793,3.969 0.043,1.16 0.308,2.277 0.793,3.277 z m -7.305,3.234 c -1,-2.015 -1.528,-4.293 -1.528,-6.511 -0.058,-1.957 0.266,-3.91 1,-5.719 0.735,-1.953 1.911,-3.746 3.438,-5.129 0.324,-0.324 0.691,-0.59 1,-0.898 -0.266,-0.219 -0.574,-0.485 -0.836,-0.75 -1.809,-1.528 -3.34,-3.438 -4.293,-5.657 -0.957,-2.015 -1.426,-4.277 -1.367,-6.558 -0.059,-2.91 0.777,-5.879 2.32,-8.364 1.531,-2.644 3.809,-4.82 6.512,-6.246 2.426,-1.382 5.234,-2.058 8.043,-2.058 3.172,-0.059 6.394,0.84 9.098,2.648 2.703,1.629 4.921,4.071 6.246,6.879 1.058,2.117 1.632,4.438 1.75,6.82 0.101,2.485 -0.325,5.028 -1.426,7.247 -0.957,2.011 -2.383,3.703 -3.985,5.187 -0.308,0.324 -0.675,0.59 -1,0.852 0.325,0.308 0.692,0.574 1,0.898 1.383,1.262 2.5,2.852 3.235,4.602 0.851,1.953 1.277,4.07 1.219,6.187 0,2.496 -0.692,4.981 -1.852,7.141 -1.16,2.281 -2.852,4.191 -4.922,5.617 -2.59,1.91 -5.762,2.953 -8.996,2.91 -3.324,0.102 -6.66,-0.898 -9.305,-2.851 -2.336,-1.543 -4.191,-3.762 -5.351,-6.247 z" /></g></g></svg>