<?xml version="1.0" encoding="UTF-8" standalone="no"?>
<svg
   xmlns:dc="http://purl.org/dc/elements/1.1/"
   xmlns:cc="http://creativecommons.org/ns#"
   xmlns:rdf="http://www.w3.org/1999/02/22-rdf-syntax-ns#"
   xmlns:svg="http://www.w3.org/2000/svg"
   xmlns="http://www.w3.org/2000/svg"
   viewBox="0 0 1044.8925 103.39875"
   height="103.39875"
   width="1044.8925"
   xml:space="preserve"
   version="1.1"
   id="svg4136"><metadata
     id="metadata4142"><rdf:RDF><cc:Work
         rdf:about=""><dc:format>image/svg+xml</dc:format><dc:type
           rdf:resource="http://purl.org/dc/dcmitype/StillImage" /><dc:title></dc:title></cc:Work></rdf:RDF></metadata><defs
     id="defs4140" /><g
     transform="matrix(1.25,0,0,-1.25,0,103.39875)"
     id="g4144"><g
       id="g4146"><path
         id="path4148"
         style="fill:#656565;fill-opacity:1;fill-rule:nonzero;stroke:none"
         d="m 0,26.043 0,-0.988 0.391,0 0,0.988 -0.391,0 z m 0,-1.574 0,-0.988 0.391,0 0,0.988 -0.391,0 z m 0,-1.578 0,-0.984 0.391,0 0,0.984 -0.391,0 z m 0,-1.57 0,-0.993 0.391,0 0,0.993 -0.391,0 z m 0,-1.582 0,-0.985 0.391,0 0,0.985 -0.391,0 z m 0,-1.571 0,-0.988 0.391,0 0,0.988 -0.391,0 z m 0,-1.574 0,-0.992 0.391,0 0,0.992 -0.391,0 z m 0,-1.574 0,-0.992 0.391,0 0,0.992 -0.391,0 z m 0,-1.578 0,-0.993 0.391,0 0,0.993 -0.391,0 z m 0,-1.575 0,-0.992 0.391,0 0,0.992 -0.391,0 z m 0,-1.574 0,-0.992 0.391,0 0,0.992 -0.391,0 z m 0,-1.578 0,-0.988 0.391,0 0,0.988 -0.391,0 z m 0,-1.574 0,-0.578 0.391,0 0,0.578 -0.391,0 z" /><path
         id="path4150"
         style="fill:#00ffff;fill-opacity:1;fill-rule:nonzero;stroke:none"
         d="m 687.953,82.52 120,0 0,-56 -120,0 0,56 z" /><path
         id="path4152"
         style="fill:#00ffff;fill-opacity:1;fill-rule:nonzero;stroke:none"
         d="m 687.953,82.52 120,0 0,-56 -120,0 0,56 z" /><path
         id="path4154"
         style="fill:#ffffff;fill-opacity:1;fill-rule:nonzero;stroke:none"
         d="m 0.199,82.719 807.754,0 0,-56 -807.754,0 0,56 z" /><path
         id="path4156"
         style="fill:#c1121c;fill-opacity:1;fill-rule:nonzero;stroke:none"
         d="m 0.152,74.52 808,0 0,-40 -808,0 0,40 z" /><path
         id="path4158"
         style="fill:#656565;fill-opacity:1;fill-rule:nonzero;stroke:none"
         d="m 11.609,16.774 -8.41,-2.407 8.41,-2.402 -0.437,2.164 386.672,0 0,0.481 -386.672,0 0.437,2.164 z m 786.582,0 0.438,-2.164 -386.672,0 0,-0.481 386.672,0 -0.438,-2.164 8.411,2.402 -8.411,2.407 z" /><path
         id="path4160"
         style="fill:#656565;fill-opacity:1;fill-rule:nonzero;stroke:none"
         d="m 807.766,26.043 0,-0.988 0.386,0 0,0.988 -0.386,0 z m 0,-1.574 0,-0.988 0.386,0 0,0.988 -0.386,0 z m 0,-1.578 0,-0.984 0.386,0 0,0.984 -0.386,0 z m 0,-1.57 0,-0.993 0.386,0 0,0.993 -0.386,0 z m 0,-1.582 0,-0.985 0.386,0 0,0.985 -0.386,0 z m 0,-1.571 0,-0.988 0.386,0 0,0.988 -0.386,0 z m 0,-1.574 0,-0.992 0.386,0 0,0.992 -0.386,0 z m 0,-1.574 0,-0.992 0.386,0 0,0.992 -0.386,0 z m 0,-1.578 0,-0.993 0.386,0 0,0.993 -0.386,0 z m 0,-1.575 0,-0.992 0.386,0 0,0.992 -0.386,0 z m 0,-1.574 0,-0.992 0.386,0 0,0.992 -0.386,0 z m 0,-1.578 0,-0.988 0.386,0 0,0.988 -0.386,0 z m 0,-1.574 0,-0.578 0.386,0 0,0.578 -0.386,0 z" /><path
         id="path4162"
         style="fill:#000000;fill-opacity:1;fill-rule:nonzero;stroke:none"
         d="m 0,82.719 0,-56.398 808.152,0 0,56.398 -808.152,0 z m 0.199,-0.199 807.754,0 0,-56 -807.754,0 0,56 z" /><path
         id="path4164"
         style="fill:#656565;fill-opacity:1;fill-rule:nonzero;stroke:none"
         d="m 808.758,26.321 0.785,0 0,0.39 -0.785,0 0,-0.39 z m 1.578,0 0.781,0 0,0.39 -0.781,0 0,-0.39 z m 1.367,0 0.992,0 0,0.39 -0.992,0 0,-0.39 z m 1.582,0 0.985,0 0,0.39 -0.985,0 0,-0.39 z m 1.574,0 0.989,0 0,0.39 -0.989,0 0,-0.39 z m 1.579,0 0.984,0 0,0.39 -0.984,0 0,-0.39 z m 1.57,0 0.988,0 0,0.39 -0.988,0 0,-0.39 z m 1.578,0 0.984,0 0,0.39 -0.984,0 0,-0.39 z m 1.57,0 0.992,0 0,0.39 -0.992,0 0,-0.39 z m 1.582,0 0.985,0 0,0.39 -0.985,0 0,-0.39 z m 1.571,0 0.988,0 0,0.39 -0.988,0 0,-0.39 z m 1.574,0 0.992,0 0,0.39 -0.992,0 0,-0.39 z m 1.574,0 0.992,0 0,0.39 -0.992,0 0,-0.39 z m 1.578,0 0.992,0 0,0.39 -0.992,0 0,-0.39 z m 1.574,0 0.993,0 0,0.39 -0.993,0 0,-0.39 z m 1.575,0 0.992,0 0,0.39 -0.992,0 0,-0.39 z m 1.578,0 0.992,0 0,0.39 -0.992,0 0,-0.39 z m 1.574,0 0.578,0 0,0.39 -0.578,0 0,-0.39 z" /><path
         id="path4166"
         style="fill:#656565;fill-opacity:1;fill-rule:nonzero;stroke:none"
         d="m 808.758,82.328 0.785,0 0,0.391 -0.785,0 0,-0.391 z m 1.578,0 0.781,0 0,0.391 -0.781,0 0,-0.391 z m 1.367,0 0.992,0 0,0.391 -0.992,0 0,-0.391 z m 1.582,0 0.985,0 0,0.391 -0.985,0 0,-0.391 z m 1.574,0 0.989,0 0,0.391 -0.989,0 0,-0.391 z m 1.579,0 0.984,0 0,0.391 -0.984,0 0,-0.391 z m 1.57,0 0.988,0 0,0.391 -0.988,0 0,-0.391 z m 1.578,0 0.984,0 0,0.391 -0.984,0 0,-0.391 z m 1.57,0 0.992,0 0,0.391 -0.992,0 0,-0.391 z m 1.582,0 0.985,0 0,0.391 -0.985,0 0,-0.391 z m 1.571,0 0.988,0 0,0.391 -0.988,0 0,-0.391 z m 1.574,0 0.992,0 0,0.391 -0.992,0 0,-0.391 z m 1.574,0 0.992,0 0,0.391 -0.992,0 0,-0.391 z m 1.578,0 0.992,0 0,0.391 -0.992,0 0,-0.391 z m 1.574,0 0.993,0 0,0.391 -0.993,0 0,-0.391 z m 1.575,0 0.992,0 0,0.391 -0.992,0 0,-0.391 z m 1.578,0 0.992,0 0,0.391 -0.992,0 0,-0.391 z m 1.574,0 0.578,0 0,0.391 -0.578,0 0,-0.391 z" /><path
         id="path4168"
         style="fill:#656565;fill-opacity:1;fill-rule:nonzero;stroke:none"
         d="m 830.191,81.16 -2.402,-8.41 2.164,0.438 0,-13.91 0.481,0 0,13.91 2.164,-0.438 -2.407,8.41 z m -0.238,-31.398 0,-14.012 -2.164,0.438 2.402,-8.414 2.407,8.414 -2.164,-0.438 0,14.012 -0.481,0 z" /><path
         id="path4170"
         style="fill:#656565;fill-opacity:1;fill-rule:nonzero;stroke:none"
         d="m 808.262,74.129 0.992,0 0,0.391 -0.992,0 0,-0.391 z m 1.574,0 0.996,0 0,0.391 -0.996,0 0,-0.391 z m 1.578,0 0.992,0 0,0.391 -0.992,0 0,-0.391 z m 1.574,0 0.992,0 0,0.391 -0.992,0 0,-0.391 z m 1.574,0 0.993,0 0,0.391 -0.993,0 0,-0.391 z m 1.579,0 0.992,0 0,0.391 -0.992,0 0,-0.391 z m 1.574,0 0.578,0 0,0.391 -0.578,0 0,-0.391 z" /><path
         id="path4172"
         style="fill:#656565;fill-opacity:1;fill-rule:nonzero;stroke:none"
         d="m 808.262,34.524 0.992,0 0,0.39 -0.992,0 0,-0.39 z m 1.574,0 0.996,0 0,0.39 -0.996,0 0,-0.39 z m 1.578,0 0.992,0 0,0.39 -0.992,0 0,-0.39 z m 1.574,0 0.992,0 0,0.39 -0.992,0 0,-0.39 z m 1.574,0 0.993,0 0,0.39 -0.993,0 0,-0.39 z m 1.579,0 0.992,0 0,0.39 -0.992,0 0,-0.39 z m 1.574,0 0.578,0 0,0.39 -0.578,0 0,-0.39 z" /><path
         id="path4174"
         style="fill:#656565;fill-opacity:1;fill-rule:nonzero;stroke:none"
         d="m 814.293,73.16 -2.402,-8.41 2.164,0.438 0,-5.91 0.476,0 0,5.91 2.164,-0.438 -2.402,8.41 z m -0.238,-23.398 0,-6.012 -2.164,0.438 2.402,-8.414 2.402,8.414 -2.164,-0.438 0,6.012 -0.476,0 z" /><path
         id="path4176"
         style="fill:#656565;fill-opacity:1;fill-rule:nonzero;stroke:none"
         d="m 828.906,52.117 c 0.176,-0.046 0.262,-0.144 0.262,-0.289 0,-0.125 -0.031,-0.222 -0.09,-0.289 -0.062,-0.066 -0.133,-0.097 -0.215,-0.097 -0.039,0 -0.082,0.004 -0.129,0.019 l -0.691,0.18 c -0.168,0.047 -0.25,0.156 -0.25,0.332 l 0,1.988 c 0,0.227 0.113,0.34 0.344,0.34 0.082,0 0.144,-0.019 0.195,-0.062 l 4.078,-2.391 c 0.121,-0.07 0.184,-0.156 0.184,-0.262 0,-0.054 -0.012,-0.101 -0.032,-0.148 -0.019,-0.047 -0.046,-0.09 -0.078,-0.125 -0.031,-0.035 -0.07,-0.063 -0.109,-0.082 -0.039,-0.02 -0.074,-0.032 -0.109,-0.032 -0.063,0 -0.129,0.02 -0.2,0.063 l -3.589,2.102 0,-1.129 0.429,-0.118 z" /><path
         id="path4178"
         style="fill:#656565;fill-opacity:1;fill-rule:nonzero;stroke:none"
         d="m 827.793,56.594 c 0,0.172 0.039,0.328 0.113,0.469 0.074,0.14 0.18,0.258 0.321,0.359 0.136,0.098 0.3,0.176 0.492,0.231 0.191,0.058 0.402,0.086 0.633,0.086 0.253,0 0.511,-0.032 0.773,-0.094 0.258,-0.059 0.504,-0.141 0.742,-0.246 0.238,-0.106 0.461,-0.231 0.672,-0.375 0.207,-0.141 0.391,-0.297 0.543,-0.465 0.152,-0.164 0.277,-0.336 0.367,-0.52 0.086,-0.183 0.129,-0.367 0.129,-0.55 0,-0.168 -0.035,-0.325 -0.105,-0.465 -0.078,-0.141 -0.184,-0.262 -0.317,-0.364 -0.136,-0.097 -0.301,-0.175 -0.492,-0.23 -0.195,-0.055 -0.41,-0.082 -0.648,-0.082 -0.25,0 -0.504,0.031 -0.762,0.09 -0.254,0.058 -0.504,0.14 -0.738,0.242 -0.243,0.105 -0.465,0.227 -0.676,0.371 -0.207,0.141 -0.391,0.297 -0.547,0.461 -0.156,0.168 -0.277,0.34 -0.363,0.523 -0.09,0.184 -0.137,0.368 -0.137,0.559 z m 0.695,0.09 c -0.008,-0.024 -0.011,-0.051 -0.011,-0.09 0,-0.117 0.035,-0.234 0.109,-0.355 0.074,-0.125 0.176,-0.247 0.301,-0.36 0.125,-0.117 0.273,-0.226 0.437,-0.328 0.168,-0.102 0.348,-0.191 0.535,-0.269 0.188,-0.079 0.379,-0.141 0.582,-0.184 0.196,-0.047 0.391,-0.066 0.575,-0.066 0.132,0 0.254,0.011 0.363,0.031 0.109,0.023 0.199,0.054 0.277,0.094 0.074,0.039 0.133,0.085 0.18,0.14 0.039,0.059 0.062,0.121 0.062,0.192 0,0.113 -0.039,0.23 -0.109,0.351 -0.074,0.121 -0.176,0.238 -0.301,0.356 -0.125,0.113 -0.269,0.226 -0.437,0.328 -0.168,0.101 -0.348,0.195 -0.535,0.273 -0.188,0.078 -0.383,0.141 -0.578,0.184 -0.204,0.047 -0.395,0.07 -0.586,0.07 -0.231,0 -0.426,-0.031 -0.579,-0.098 -0.156,-0.066 -0.25,-0.156 -0.285,-0.269 z" /><path
         id="path4180"
         style="fill:#656565;fill-opacity:1;fill-rule:nonzero;stroke:none"
         d="m 811.895,54.27 c 0,0.226 0.113,0.344 0.343,0.344 0.227,0 0.34,-0.118 0.34,-0.344 l 0,-1.785 1.11,-0.301 c -0.055,0.172 -0.083,0.348 -0.083,0.527 0,0.168 0.032,0.321 0.094,0.461 0.059,0.145 0.145,0.27 0.258,0.371 0.105,0.106 0.234,0.188 0.379,0.246 0.144,0.059 0.305,0.09 0.476,0.09 0.168,0 0.329,-0.023 0.485,-0.074 0.156,-0.047 0.305,-0.113 0.445,-0.199 0.137,-0.086 0.266,-0.188 0.383,-0.305 0.117,-0.117 0.219,-0.242 0.305,-0.375 0.082,-0.133 0.148,-0.273 0.195,-0.422 0.043,-0.148 0.066,-0.293 0.066,-0.437 0,-0.133 -0.015,-0.258 -0.054,-0.379 -0.039,-0.121 -0.098,-0.227 -0.168,-0.324 -0.074,-0.098 -0.16,-0.18 -0.262,-0.25 -0.105,-0.071 -0.219,-0.122 -0.344,-0.157 -0.043,-0.011 -0.086,-0.019 -0.129,-0.019 -0.043,0 -0.082,0.008 -0.121,0.023 -0.035,0.02 -0.07,0.043 -0.097,0.078 -0.028,0.032 -0.051,0.071 -0.067,0.118 -0.015,0.05 -0.027,0.105 -0.027,0.167 0,0.141 0.086,0.239 0.258,0.29 0.109,0.031 0.195,0.085 0.25,0.164 0.05,0.082 0.078,0.175 0.078,0.289 0,0.082 -0.016,0.168 -0.047,0.257 -0.031,0.09 -0.074,0.172 -0.129,0.254 -0.055,0.086 -0.117,0.164 -0.195,0.235 -0.075,0.074 -0.153,0.14 -0.239,0.195 -0.089,0.055 -0.183,0.102 -0.281,0.133 -0.101,0.031 -0.203,0.051 -0.305,0.051 -0.156,0 -0.281,-0.043 -0.378,-0.125 -0.094,-0.078 -0.141,-0.2 -0.141,-0.356 0,-0.062 0.004,-0.125 0.012,-0.183 0.011,-0.055 0.027,-0.118 0.05,-0.18 0.024,-0.063 0.055,-0.133 0.098,-0.207 0.039,-0.078 0.094,-0.172 0.16,-0.277 0.024,-0.036 0.039,-0.071 0.051,-0.102 0.012,-0.031 0.016,-0.063 0.016,-0.098 0,-0.058 -0.008,-0.113 -0.028,-0.156 -0.015,-0.043 -0.039,-0.082 -0.07,-0.113 -0.027,-0.028 -0.059,-0.047 -0.094,-0.063 -0.035,-0.011 -0.07,-0.019 -0.109,-0.019 -0.02,-0.004 -0.039,-0.004 -0.063,0 -0.023,0.004 -0.046,0.011 -0.07,0.015 l -2.082,0.555 c -0.18,0.035 -0.269,0.152 -0.269,0.344 l 0,2.043 z" /><path
         id="path4182"
         style="fill:#656565;fill-opacity:1;fill-rule:nonzero;stroke:none"
         d="m 811.895,56.852 c 0,0.172 0.035,0.328 0.109,0.469 0.078,0.14 0.184,0.261 0.32,0.359 0.141,0.102 0.305,0.18 0.496,0.234 0.192,0.055 0.407,0.082 0.637,0.082 0.254,0 0.512,-0.031 0.773,-0.093 0.258,-0.059 0.508,-0.141 0.747,-0.246 0.238,-0.106 0.461,-0.227 0.671,-0.375 0.211,-0.141 0.391,-0.297 0.547,-0.465 0.153,-0.164 0.274,-0.34 0.367,-0.524 0.086,-0.179 0.129,-0.367 0.129,-0.551 0,-0.168 -0.035,-0.324 -0.109,-0.464 -0.074,-0.141 -0.18,-0.262 -0.316,-0.364 -0.137,-0.101 -0.301,-0.179 -0.493,-0.234 -0.195,-0.055 -0.41,-0.082 -0.648,-0.082 -0.25,0 -0.504,0.031 -0.762,0.09 -0.258,0.058 -0.508,0.14 -0.746,0.246 -0.238,0.101 -0.465,0.226 -0.672,0.367 -0.211,0.145 -0.394,0.301 -0.55,0.465 -0.157,0.168 -0.278,0.344 -0.368,0.527 -0.089,0.18 -0.132,0.367 -0.132,0.559 z m 0.695,0.086 c -0.008,-0.02 -0.012,-0.047 -0.012,-0.086 0,-0.117 0.035,-0.235 0.113,-0.36 0.071,-0.121 0.172,-0.242 0.301,-0.359 0.125,-0.113 0.27,-0.223 0.438,-0.328 0.168,-0.102 0.347,-0.191 0.535,-0.27 0.187,-0.078 0.383,-0.14 0.582,-0.187 0.199,-0.043 0.391,-0.066 0.578,-0.066 0.133,0 0.254,0.011 0.363,0.035 0.11,0.023 0.203,0.05 0.278,0.093 0.078,0.039 0.136,0.086 0.179,0.141 0.043,0.059 0.063,0.121 0.063,0.191 0,0.114 -0.035,0.235 -0.11,0.356 -0.074,0.121 -0.175,0.238 -0.3,0.351 -0.125,0.118 -0.27,0.227 -0.438,0.333 -0.168,0.101 -0.348,0.195 -0.535,0.273 -0.191,0.078 -0.387,0.141 -0.582,0.184 -0.203,0.046 -0.398,0.07 -0.586,0.07 -0.234,0 -0.43,-0.031 -0.582,-0.098 -0.156,-0.066 -0.25,-0.156 -0.285,-0.273 z" /><path
         id="path4184"
         style="fill:#000000;fill-opacity:1;fill-rule:nonzero;stroke:none"
         d="m 794.418,0.172 c 0,-0.055 -0.016,-0.082 -0.047,-0.082 -0.125,0 -0.277,0.008 -0.461,0.02 -0.172,0.011 -0.316,0.015 -0.43,0.015 -0.117,0 -0.257,-0.004 -0.421,-0.015 -0.172,-0.012 -0.325,-0.02 -0.45,-0.02 -0.035,0 -0.05,0.027 -0.05,0.082 0,0.047 0.015,0.07 0.043,0.074 0.222,0.028 0.371,0.067 0.449,0.121 0.082,0.055 0.121,0.161 0.121,0.313 l 0,0.043 -0.117,2.738 -1.364,-3.414 C 791.684,0.016 791.656,0 791.613,0 c -0.043,0 -0.066,0.016 -0.074,0.047 l -1.285,3.281 -0.203,-2.605 c -0.004,-0.031 -0.004,-0.059 -0.004,-0.082 0,-0.129 0.043,-0.219 0.129,-0.274 0.086,-0.054 0.242,-0.093 0.465,-0.117 0.023,-0.004 0.039,-0.031 0.039,-0.078 0,-0.055 -0.016,-0.082 -0.051,-0.082 -0.098,0 -0.234,0.008 -0.402,0.02 -0.157,0.011 -0.282,0.015 -0.368,0.015 -0.093,0 -0.222,-0.004 -0.382,-0.015 -0.157,-0.012 -0.278,-0.02 -0.364,-0.02 -0.027,0 -0.039,0.027 -0.039,0.082 0,0.047 0.016,0.07 0.051,0.074 0.238,0.028 0.402,0.075 0.492,0.133 0.09,0.063 0.145,0.176 0.156,0.344 l 0.297,2.66 0,0.09 c 0,0.121 -0.043,0.211 -0.129,0.266 -0.086,0.054 -0.242,0.097 -0.472,0.125 -0.024,0 -0.039,0.027 -0.039,0.078 0,0.019 0.008,0.039 0.015,0.054 0.012,0.016 0.024,0.024 0.035,0.024 0.071,0 0.168,-0.004 0.297,-0.016 0.11,-0.012 0.192,-0.015 0.243,-0.015 0.062,0 0.16,0.003 0.281,0.015 0.125,0.012 0.222,0.016 0.293,0.016 l 1.211,-3.145 1.257,3.145 c 0.075,0 0.172,-0.004 0.297,-0.016 0.11,-0.012 0.196,-0.015 0.262,-0.015 0.078,0 0.172,0.003 0.285,0.015 0.114,0.012 0.215,0.016 0.297,0.016 0.031,0 0.051,-0.024 0.051,-0.078 0,-0.051 -0.016,-0.078 -0.047,-0.078 -0.219,-0.028 -0.371,-0.067 -0.453,-0.122 -0.078,-0.054 -0.117,-0.16 -0.117,-0.312 l 0,-0.047 0.129,-2.66 c 0.007,-0.129 0.027,-0.223 0.062,-0.274 0.035,-0.054 0.094,-0.097 0.18,-0.128 0.086,-0.032 0.207,-0.055 0.363,-0.075 0.031,-0.004 0.047,-0.027 0.047,-0.074 z" /><path
         id="path4186"
         style="fill:#000000;fill-opacity:1;fill-rule:nonzero;stroke:none"
         d="m 796.555,0.032 c -0.106,0 -0.2,0.023 -0.278,0.078 -0.078,0.05 -0.129,0.121 -0.16,0.207 -0.199,-0.207 -0.465,-0.309 -0.789,-0.309 -0.172,0 -0.308,0.051 -0.414,0.152 -0.109,0.11 -0.164,0.239 -0.164,0.395 0,0.387 0.457,0.699 1.375,0.937 l 0.016,0.442 0,0.015 c 0,0.133 -0.036,0.243 -0.102,0.321 -0.066,0.082 -0.152,0.121 -0.266,0.121 -0.109,0 -0.203,-0.027 -0.281,-0.082 -0.078,-0.051 -0.117,-0.117 -0.121,-0.199 0,-0.121 -0.031,-0.215 -0.094,-0.286 -0.062,-0.066 -0.14,-0.101 -0.242,-0.101 -0.062,0 -0.109,0.019 -0.148,0.055 -0.039,0.035 -0.055,0.086 -0.055,0.144 0,0.145 0.129,0.297 0.395,0.457 0.261,0.156 0.507,0.238 0.734,0.238 0.203,0 0.367,-0.058 0.492,-0.179 0.129,-0.121 0.192,-0.285 0.192,-0.489 l 0,-0.031 -0.04,-1.277 0,-0.02 c 0,-0.199 0.063,-0.297 0.192,-0.297 0.062,0 0.133,0.036 0.219,0.114 l 0.019,0.004 c 0.016,0 0.027,-0.012 0.043,-0.032 0.012,-0.019 0.02,-0.039 0.02,-0.062 0,-0.055 -0.059,-0.121 -0.172,-0.199 -0.114,-0.078 -0.238,-0.117 -0.371,-0.117 z m -0.438,1.269 c -0.547,-0.125 -0.824,-0.328 -0.824,-0.617 0,-0.266 0.105,-0.399 0.312,-0.399 0.098,0 0.196,0.024 0.293,0.071 0.098,0.054 0.164,0.113 0.2,0.187 l 0.019,0.758 z" /><path
         id="path4188"
         style="fill:#000000;fill-opacity:1;fill-rule:nonzero;stroke:none"
         d="m 799.965,1.227 c 0,-0.348 -0.086,-0.641 -0.254,-0.871 -0.168,-0.235 -0.371,-0.348 -0.606,-0.348 -0.144,0 -0.261,0.047 -0.351,0.145 -0.09,0.093 -0.137,0.218 -0.137,0.375 0,0.105 0.028,0.191 0.078,0.257 0.055,0.063 0.125,0.098 0.215,0.098 0.067,0 0.125,-0.023 0.172,-0.066 0.047,-0.047 0.074,-0.106 0.074,-0.172 0,-0.082 -0.043,-0.149 -0.121,-0.196 -0.058,-0.031 -0.09,-0.07 -0.09,-0.113 0,-0.097 0.047,-0.148 0.137,-0.148 0.211,0 0.316,0.347 0.316,1.039 0,0.363 -0.078,0.668 -0.234,0.91 -0.156,0.246 -0.359,0.367 -0.613,0.367 -0.031,0 -0.047,0.028 -0.047,0.078 0,0.055 0.016,0.082 0.047,0.082 0.187,0 0.336,0.063 0.445,0.196 0.109,0.129 0.164,0.304 0.164,0.523 0,0.406 -0.133,0.609 -0.402,0.609 -0.141,0 -0.266,-0.089 -0.379,-0.265 -0.113,-0.18 -0.168,-0.383 -0.168,-0.61 l 0,-2.394 c 0,-0.18 0.019,-0.301 0.059,-0.363 0.039,-0.059 0.117,-0.098 0.234,-0.114 0.031,-0.004 0.047,-0.027 0.047,-0.074 0,-0.055 -0.016,-0.082 -0.047,-0.082 -0.078,0 -0.164,0.008 -0.266,0.02 -0.109,0.011 -0.211,0.015 -0.304,0.015 -0.094,0 -0.204,-0.004 -0.329,-0.015 -0.109,-0.012 -0.203,-0.02 -0.281,-0.02 -0.031,0 -0.047,0.027 -0.047,0.082 0,0.047 0.016,0.07 0.047,0.074 0.16,0.024 0.262,0.059 0.309,0.118 0.047,0.054 0.07,0.175 0.07,0.359 l 0,1.351 c 0,0.055 -0.023,0.079 -0.07,0.079 l -0.285,0 c -0.039,0 -0.059,0.027 -0.059,0.074 0,0.051 0.02,0.078 0.051,0.086 0.242,0.054 0.363,0.105 0.363,0.156 0,0.496 0.106,0.906 0.32,1.234 0.211,0.329 0.489,0.493 0.829,0.493 0.234,0 0.429,-0.071 0.578,-0.215 0.156,-0.141 0.23,-0.317 0.23,-0.52 0,-0.375 -0.222,-0.656 -0.668,-0.844 0.285,-0.078 0.52,-0.25 0.699,-0.511 0.184,-0.262 0.274,-0.555 0.274,-0.879 z" /><path
         id="path4190"
         style="fill:#000000;fill-opacity:1;fill-rule:nonzero;stroke:none"
         d="m 802.645,1.696 c 0,-0.051 -0.036,-0.079 -0.102,-0.079 l -1.547,0 c -0.012,-0.101 -0.019,-0.207 -0.019,-0.316 0,-0.305 0.074,-0.535 0.214,-0.699 0.145,-0.164 0.352,-0.246 0.618,-0.246 0.132,0 0.269,0.039 0.402,0.109 0.137,0.07 0.246,0.164 0.328,0.274 l 0.016,0.007 c 0.015,0 0.031,-0.011 0.047,-0.035 0.015,-0.019 0.027,-0.043 0.027,-0.07 0,-0.039 -0.063,-0.125 -0.184,-0.25 -0.117,-0.125 -0.25,-0.219 -0.39,-0.285 -0.141,-0.067 -0.289,-0.098 -0.446,-0.098 -0.339,0 -0.625,0.125 -0.855,0.371 -0.231,0.25 -0.348,0.555 -0.348,0.918 0,0.367 0.114,0.68 0.34,0.938 0.227,0.254 0.516,0.382 0.863,0.382 0.293,0 0.539,-0.097 0.735,-0.289 0.199,-0.187 0.301,-0.398 0.301,-0.632 z m -0.516,0.25 c 0,0.14 -0.047,0.257 -0.145,0.351 -0.097,0.094 -0.222,0.141 -0.375,0.141 -0.144,0 -0.269,-0.063 -0.379,-0.184 -0.105,-0.121 -0.175,-0.281 -0.214,-0.48 l 0.785,0.023 c 0.121,0.004 0.203,0.016 0.254,0.035 0.05,0.02 0.074,0.059 0.074,0.114 z" /><path
         id="path4192"
         style="fill:#000000;fill-opacity:1;fill-rule:nonzero;stroke:none"
         d="m 805.379,3.586 c 0,-0.078 -0.031,-0.148 -0.09,-0.207 -0.055,-0.058 -0.125,-0.086 -0.203,-0.086 -0.082,0 -0.152,0.028 -0.211,0.086 -0.055,0.059 -0.086,0.129 -0.086,0.207 0,0.082 0.031,0.153 0.086,0.211 0.055,0.055 0.125,0.082 0.211,0.082 0.078,0 0.148,-0.027 0.203,-0.082 0.059,-0.058 0.09,-0.129 0.09,-0.211 z m 0.394,-3.414 c 0,-0.055 -0.015,-0.082 -0.043,-0.082 -0.078,0 -0.179,0.008 -0.296,0.02 -0.137,0.011 -0.25,0.015 -0.344,0.015 -0.094,0 -0.207,-0.004 -0.34,-0.015 -0.117,-0.012 -0.215,-0.02 -0.293,-0.02 -0.031,0 -0.047,0.027 -0.047,0.082 0,0.047 0.016,0.07 0.047,0.074 0.16,0.024 0.262,0.059 0.309,0.118 0.046,0.054 0.07,0.175 0.07,0.359 l 0,1.047 c 0,0.152 -0.02,0.25 -0.059,0.297 -0.039,0.047 -0.121,0.078 -0.254,0.093 -0.027,0 -0.043,0.024 -0.043,0.075 0,0.043 0.016,0.066 0.043,0.066 0.2,0.051 0.36,0.106 0.489,0.16 0.125,0.059 0.203,0.106 0.238,0.145 0.016,0.023 0.039,0.035 0.059,0.035 0.054,0 0.082,-0.016 0.082,-0.047 -0.032,-0.422 -0.047,-0.75 -0.047,-0.98 l 0,-0.891 c 0,-0.184 0.023,-0.305 0.066,-0.359 0.051,-0.059 0.156,-0.094 0.32,-0.118 0.028,-0.004 0.043,-0.027 0.043,-0.074 z" /><path
         id="path4194"
         style="fill:#000000;fill-opacity:1;fill-rule:nonzero;stroke:none"
         d="m 808.914,0.172 c 0,-0.055 -0.016,-0.082 -0.047,-0.082 -0.074,0 -0.164,0.008 -0.273,0.02 -0.121,0.011 -0.231,0.015 -0.321,0.015 -0.093,0 -0.203,-0.004 -0.324,-0.015 -0.113,-0.012 -0.207,-0.02 -0.281,-0.02 -0.031,0 -0.047,0.027 -0.047,0.082 0,0.047 0.016,0.07 0.047,0.074 0.129,0.016 0.215,0.051 0.254,0.11 0.043,0.058 0.062,0.183 0.062,0.367 l 0,0.945 c 0,0.211 -0.043,0.367 -0.125,0.465 -0.082,0.098 -0.211,0.145 -0.382,0.145 -0.11,0 -0.207,-0.02 -0.293,-0.063 -0.082,-0.039 -0.172,-0.113 -0.266,-0.219 l 0,-1.273 c 0,-0.184 0.02,-0.309 0.059,-0.367 0.039,-0.059 0.125,-0.094 0.257,-0.11 0.028,-0.004 0.043,-0.027 0.043,-0.074 0,-0.055 -0.015,-0.082 -0.043,-0.082 -0.078,0 -0.172,0.008 -0.285,0.02 -0.121,0.011 -0.226,0.015 -0.32,0.015 -0.09,0 -0.195,-0.004 -0.317,-0.015 -0.113,-0.012 -0.207,-0.02 -0.281,-0.02 -0.031,0 -0.047,0.027 -0.047,0.082 0,0.047 0.016,0.07 0.047,0.074 0.16,0.024 0.266,0.059 0.313,0.118 0.047,0.058 0.07,0.179 0.07,0.359 l 0,1.047 c 0,0.152 -0.019,0.25 -0.059,0.297 -0.039,0.047 -0.125,0.078 -0.257,0.093 -0.032,0 -0.047,0.024 -0.047,0.075 0,0.043 0.015,0.066 0.047,0.066 0.187,0.047 0.34,0.102 0.464,0.156 0.126,0.063 0.204,0.11 0.235,0.149 0.019,0.023 0.039,0.035 0.062,0.035 0.055,0 0.079,-0.016 0.079,-0.047 l -0.02,-0.355 c 0.27,0.253 0.523,0.378 0.754,0.378 0.258,0 0.457,-0.074 0.601,-0.218 0.145,-0.149 0.219,-0.348 0.219,-0.594 l 0,-1.082 c 0,-0.184 0.02,-0.305 0.067,-0.359 0.046,-0.059 0.148,-0.094 0.308,-0.118 0.031,-0.004 0.047,-0.027 0.047,-0.074 z" /><path
         id="path4196"
         style="fill:#000000;fill-opacity:1;fill-rule:nonzero;stroke:none"
         d="m 815.727,0.172 c 0,-0.055 -0.012,-0.082 -0.043,-0.082 -0.125,0 -0.282,0.008 -0.461,0.02 -0.172,0.011 -0.317,0.015 -0.434,0.015 -0.113,0 -0.254,-0.004 -0.418,-0.015 -0.176,-0.012 -0.324,-0.02 -0.449,-0.02 -0.035,0 -0.051,0.027 -0.051,0.082 0,0.047 0.012,0.07 0.043,0.074 0.219,0.028 0.371,0.067 0.449,0.121 0.082,0.055 0.121,0.161 0.121,0.313 l 0,0.043 -0.117,2.738 -1.363,-3.414 C 812.992,0.016 812.965,0 812.926,0 c -0.043,0 -0.071,0.016 -0.078,0.047 l -1.282,3.281 -0.203,-2.605 c -0.004,-0.031 -0.008,-0.059 -0.008,-0.082 0,-0.129 0.047,-0.219 0.133,-0.274 0.086,-0.054 0.239,-0.093 0.461,-0.117 0.028,-0.004 0.043,-0.031 0.043,-0.078 0,-0.055 -0.019,-0.082 -0.051,-0.082 -0.101,0 -0.234,0.008 -0.402,0.02 -0.16,0.011 -0.281,0.015 -0.367,0.015 -0.094,0 -0.223,-0.004 -0.387,-0.015 -0.156,-0.012 -0.273,-0.02 -0.359,-0.02 -0.028,0 -0.039,0.027 -0.039,0.082 0,0.047 0.015,0.07 0.051,0.074 0.234,0.028 0.398,0.075 0.492,0.133 0.09,0.063 0.144,0.176 0.156,0.344 l 0.293,2.66 c 0.004,0.035 0.004,0.063 0.004,0.09 0,0.121 -0.043,0.211 -0.129,0.266 -0.086,0.054 -0.246,0.097 -0.473,0.125 -0.027,0 -0.039,0.027 -0.039,0.078 0,0.019 0.004,0.039 0.016,0.054 0.012,0.016 0.023,0.024 0.035,0.024 0.07,0 0.168,-0.004 0.297,-0.016 0.109,-0.012 0.187,-0.015 0.238,-0.015 0.067,0 0.16,0.003 0.285,0.015 0.125,0.012 0.223,0.016 0.293,0.016 l 1.211,-3.145 1.254,3.145 c 0.074,0 0.176,-0.004 0.297,-0.016 0.113,-0.012 0.199,-0.015 0.262,-0.015 0.082,0 0.175,0.003 0.285,0.015 0.117,0.012 0.215,0.016 0.297,0.016 0.035,0 0.05,-0.024 0.05,-0.078 0,-0.051 -0.011,-0.078 -0.042,-0.078 -0.223,-0.028 -0.372,-0.067 -0.454,-0.122 -0.078,-0.054 -0.117,-0.16 -0.117,-0.312 l 0,-0.047 0.129,-2.66 c 0.004,-0.129 0.027,-0.223 0.059,-0.274 0.035,-0.054 0.097,-0.097 0.183,-0.128 0.082,-0.032 0.203,-0.055 0.364,-0.075 0.031,-0.004 0.043,-0.027 0.043,-0.074 z" /><path
         id="path4198"
         style="fill:#000000;fill-opacity:1;fill-rule:nonzero;stroke:none"
         d="m 816.957,3.586 c 0,-0.078 -0.031,-0.148 -0.09,-0.207 -0.055,-0.058 -0.125,-0.086 -0.207,-0.086 -0.078,0 -0.148,0.028 -0.207,0.086 -0.058,0.059 -0.086,0.129 -0.086,0.207 0,0.082 0.028,0.153 0.086,0.211 0.055,0.055 0.125,0.082 0.207,0.082 0.082,0 0.152,-0.027 0.207,-0.082 0.059,-0.058 0.09,-0.129 0.09,-0.211 z m 0.395,-3.414 c 0,-0.055 -0.016,-0.082 -0.047,-0.082 -0.078,0 -0.176,0.008 -0.297,0.02 -0.133,0.011 -0.25,0.015 -0.34,0.015 -0.094,0 -0.207,-0.004 -0.34,-0.015 -0.117,-0.012 -0.215,-0.02 -0.293,-0.02 -0.031,0 -0.047,0.027 -0.047,0.082 0,0.047 0.016,0.07 0.047,0.074 0.16,0.024 0.262,0.059 0.309,0.118 0.047,0.054 0.07,0.175 0.07,0.359 l 0,1.047 c 0,0.152 -0.019,0.25 -0.062,0.297 -0.036,0.047 -0.122,0.078 -0.25,0.093 -0.032,0 -0.043,0.024 -0.043,0.075 0,0.043 0.011,0.066 0.043,0.066 0.199,0.051 0.359,0.106 0.484,0.16 0.129,0.059 0.207,0.106 0.238,0.145 0.02,0.023 0.039,0.035 0.063,0.035 0.054,0 0.078,-0.016 0.078,-0.047 -0.027,-0.422 -0.043,-0.75 -0.043,-0.98 l 0,-0.891 c 0,-0.184 0.023,-0.305 0.066,-0.359 0.047,-0.059 0.153,-0.094 0.317,-0.118 0.031,-0.004 0.047,-0.027 0.047,-0.074 z" /><path
         id="path4200"
         style="fill:#000000;fill-opacity:1;fill-rule:nonzero;stroke:none"
         d="m 818.867,0.176 c 0,-0.051 -0.015,-0.078 -0.047,-0.078 -0.074,0 -0.175,0.004 -0.297,0.012 -0.132,0.011 -0.25,0.015 -0.339,0.015 -0.09,0 -0.204,-0.004 -0.336,-0.015 -0.121,-0.008 -0.219,-0.012 -0.297,-0.012 -0.031,0 -0.047,0.027 -0.047,0.078 0,0.047 0.016,0.074 0.047,0.078 0.16,0.02 0.261,0.055 0.308,0.113 0.051,0.059 0.075,0.18 0.075,0.364 l 0,2.625 c 0,0.152 -0.02,0.25 -0.055,0.297 -0.039,0.046 -0.125,0.078 -0.262,0.093 -0.031,0.004 -0.043,0.028 -0.043,0.071 0,0.047 0.012,0.07 0.043,0.07 0.199,0.051 0.36,0.102 0.488,0.16 0.125,0.059 0.204,0.106 0.235,0.149 0.019,0.019 0.039,0.031 0.062,0.031 0.055,0 0.082,-0.016 0.082,-0.047 -0.031,-0.422 -0.046,-0.75 -0.046,-0.984 l 0,-2.465 c 0,-0.184 0.023,-0.305 0.07,-0.364 0.047,-0.058 0.152,-0.093 0.312,-0.113 0.032,-0.004 0.047,-0.031 0.047,-0.078 z" /><path
         id="path4202"
         style="fill:#000000;fill-opacity:1;fill-rule:nonzero;stroke:none"
         d="m 820.336,0.176 c 0,-0.051 -0.016,-0.078 -0.047,-0.078 -0.078,0 -0.176,0.004 -0.297,0.012 -0.137,0.011 -0.25,0.015 -0.34,0.015 -0.093,0 -0.203,-0.004 -0.336,-0.015 -0.121,-0.008 -0.222,-0.012 -0.296,-0.012 -0.032,0 -0.047,0.027 -0.047,0.078 0,0.047 0.015,0.074 0.047,0.078 0.16,0.02 0.261,0.055 0.308,0.113 0.051,0.059 0.074,0.18 0.074,0.364 l 0,2.625 c 0,0.152 -0.019,0.25 -0.058,0.297 -0.035,0.046 -0.121,0.078 -0.258,0.093 -0.031,0.004 -0.047,0.028 -0.047,0.071 0,0.047 0.016,0.07 0.047,0.07 0.199,0.051 0.359,0.102 0.484,0.16 0.129,0.059 0.207,0.106 0.239,0.149 0.019,0.019 0.039,0.031 0.062,0.031 0.055,0 0.078,-0.016 0.078,-0.047 -0.027,-0.422 -0.043,-0.75 -0.043,-0.984 l 0,-2.465 c 0,-0.184 0.024,-0.305 0.071,-0.364 0.046,-0.058 0.152,-0.093 0.312,-0.113 0.031,-0.004 0.047,-0.031 0.047,-0.078 z" /><path
         id="path4204"
         style="fill:#000000;fill-opacity:1;fill-rule:nonzero;stroke:none"
         d="m 821.469,3.586 c 0,-0.078 -0.028,-0.148 -0.086,-0.207 -0.059,-0.058 -0.125,-0.086 -0.207,-0.086 -0.082,0 -0.153,0.028 -0.211,0.086 -0.055,0.059 -0.082,0.129 -0.082,0.207 0,0.082 0.027,0.153 0.082,0.211 0.058,0.055 0.129,0.082 0.211,0.082 0.082,0 0.148,-0.027 0.207,-0.082 0.058,-0.058 0.086,-0.129 0.086,-0.211 z m 0.394,-3.414 c 0,-0.055 -0.011,-0.082 -0.043,-0.082 -0.078,0 -0.175,0.008 -0.297,0.02 -0.136,0.011 -0.25,0.015 -0.343,0.015 -0.094,0 -0.207,-0.004 -0.336,-0.015 -0.121,-0.012 -0.219,-0.02 -0.297,-0.02 -0.027,0 -0.043,0.027 -0.043,0.082 0,0.047 0.016,0.07 0.043,0.074 0.16,0.024 0.265,0.059 0.308,0.118 0.047,0.054 0.071,0.175 0.071,0.359 l 0,1.047 c 0,0.152 -0.02,0.25 -0.059,0.297 -0.039,0.047 -0.121,0.078 -0.25,0.093 -0.031,0 -0.047,0.024 -0.047,0.075 0,0.043 0.016,0.066 0.047,0.066 0.195,0.051 0.36,0.106 0.485,0.16 0.125,0.059 0.207,0.106 0.238,0.145 0.019,0.023 0.039,0.035 0.062,0.035 0.051,0 0.078,-0.016 0.078,-0.047 -0.031,-0.422 -0.046,-0.75 -0.046,-0.98 l 0,-0.891 c 0,-0.184 0.023,-0.305 0.07,-0.359 0.047,-0.059 0.152,-0.094 0.316,-0.118 0.032,-0.004 0.043,-0.027 0.043,-0.074 z" /><path
         id="path4206"
         style="fill:#000000;fill-opacity:1;fill-rule:nonzero;stroke:none"
         d="m 826.582,0.172 c 0,-0.055 -0.016,-0.082 -0.047,-0.082 -0.074,0 -0.168,0.008 -0.277,0.02 -0.117,0.011 -0.227,0.015 -0.32,0.015 -0.094,0 -0.2,-0.004 -0.321,-0.015 -0.109,-0.012 -0.203,-0.02 -0.277,-0.02 -0.031,0 -0.047,0.027 -0.047,0.082 0,0.047 0.016,0.07 0.047,0.074 0.125,0.016 0.211,0.051 0.25,0.11 0.039,0.058 0.058,0.183 0.058,0.367 l 0,0.945 c 0,0.211 -0.039,0.367 -0.121,0.465 -0.082,0.098 -0.207,0.145 -0.379,0.145 -0.23,0 -0.418,-0.079 -0.566,-0.231 l 0,-1.324 c 0,-0.184 0.02,-0.309 0.063,-0.367 0.039,-0.059 0.125,-0.094 0.253,-0.11 0.032,-0.004 0.043,-0.027 0.043,-0.074 0,-0.055 -0.011,-0.082 -0.043,-0.082 -0.074,0 -0.164,0.008 -0.261,0.02 -0.11,0.011 -0.211,0.015 -0.301,0.015 -0.094,0 -0.199,-0.004 -0.309,-0.015 -0.097,-0.012 -0.187,-0.02 -0.261,-0.02 -0.032,0 -0.047,0.027 -0.047,0.082 0,0.047 0.015,0.07 0.047,0.074 0.129,0.016 0.214,0.051 0.254,0.11 0.042,0.058 0.062,0.183 0.062,0.367 l 0,0.945 c 0,0.211 -0.043,0.367 -0.125,0.465 -0.082,0.098 -0.211,0.145 -0.383,0.145 -0.109,0 -0.207,-0.02 -0.293,-0.063 -0.082,-0.039 -0.172,-0.113 -0.269,-0.219 l 0,-1.273 c 0,-0.184 0.019,-0.309 0.062,-0.367 0.039,-0.059 0.125,-0.094 0.254,-0.11 0.031,-0.004 0.047,-0.027 0.047,-0.074 0,-0.055 -0.016,-0.082 -0.047,-0.082 -0.074,0 -0.168,0.008 -0.281,0.02 -0.121,0.011 -0.231,0.015 -0.32,0.015 -0.094,0 -0.204,-0.004 -0.325,-0.015 -0.105,-0.012 -0.199,-0.02 -0.277,-0.02 -0.027,0 -0.043,0.027 -0.043,0.082 0,0.047 0.016,0.07 0.043,0.074 0.16,0.024 0.266,0.059 0.309,0.118 0.046,0.054 0.07,0.175 0.07,0.359 l 0,1.047 c 0,0.152 -0.02,0.25 -0.059,0.297 -0.039,0.047 -0.121,0.078 -0.25,0.093 -0.031,0 -0.047,0.024 -0.047,0.075 0,0.043 0.016,0.066 0.047,0.066 0.184,0.047 0.34,0.102 0.465,0.156 0.125,0.063 0.203,0.11 0.235,0.149 0.019,0.023 0.039,0.035 0.062,0.035 0.051,0 0.078,-0.016 0.078,-0.047 l -0.023,-0.355 c 0.273,0.253 0.523,0.378 0.758,0.378 0.359,0 0.601,-0.136 0.73,-0.414 0.285,0.278 0.566,0.414 0.84,0.414 0.258,0 0.457,-0.074 0.601,-0.218 0.145,-0.149 0.215,-0.348 0.215,-0.594 l 0,-1.082 c 0,-0.184 0.024,-0.305 0.071,-0.359 0.046,-0.059 0.148,-0.094 0.308,-0.118 0.031,-0.004 0.047,-0.027 0.047,-0.074 z" /><path
         id="path4208"
         style="fill:#000000;fill-opacity:1;fill-rule:nonzero;stroke:none"
         d="m 829.043,1.696 c 0,-0.051 -0.035,-0.079 -0.102,-0.079 l -1.546,0 c -0.012,-0.101 -0.02,-0.207 -0.02,-0.316 0,-0.305 0.074,-0.535 0.215,-0.699 0.148,-0.164 0.351,-0.246 0.617,-0.246 0.133,0 0.27,0.039 0.402,0.109 0.137,0.07 0.246,0.164 0.329,0.274 l 0.015,0.007 c 0.016,0 0.031,-0.011 0.047,-0.035 0.02,-0.019 0.027,-0.043 0.027,-0.07 0,-0.039 -0.062,-0.125 -0.183,-0.25 -0.117,-0.125 -0.25,-0.219 -0.391,-0.285 -0.141,-0.067 -0.289,-0.098 -0.445,-0.098 -0.336,0 -0.621,0.125 -0.856,0.371 -0.23,0.25 -0.347,0.555 -0.347,0.918 0,0.367 0.113,0.68 0.34,0.938 0.226,0.254 0.515,0.382 0.863,0.382 0.293,0 0.539,-0.097 0.734,-0.289 0.203,-0.187 0.301,-0.398 0.301,-0.632 z m -0.512,0.25 c 0,0.14 -0.051,0.257 -0.148,0.351 -0.098,0.094 -0.223,0.141 -0.375,0.141 -0.145,0 -0.27,-0.063 -0.375,-0.184 -0.106,-0.121 -0.18,-0.281 -0.219,-0.48 l 0.789,0.023 c 0.117,0.004 0.199,0.016 0.25,0.035 0.051,0.02 0.078,0.059 0.078,0.114 z" /><path
         id="path4210"
         style="fill:#000000;fill-opacity:1;fill-rule:nonzero;stroke:none"
         d="m 831.207,2.34 c 0,-0.101 -0.023,-0.152 -0.074,-0.152 l -0.844,0.023 0,-1.355 c 0,-0.356 0.129,-0.532 0.379,-0.532 0.156,0 0.301,0.036 0.43,0.11 0.011,0 0.027,-0.012 0.039,-0.031 0.011,-0.02 0.019,-0.039 0.019,-0.063 0,-0.047 -0.07,-0.109 -0.211,-0.191 -0.14,-0.078 -0.297,-0.117 -0.472,-0.117 -0.215,0 -0.387,0.062 -0.516,0.191 -0.129,0.133 -0.191,0.309 -0.191,0.523 l 0,0.024 0.011,1.371 c 0,0.055 -0.023,0.082 -0.07,0.082 l -0.211,0 c -0.043,0 -0.062,0.023 -0.062,0.074 0,0.035 0.015,0.063 0.05,0.082 0.262,0.156 0.489,0.371 0.684,0.653 0.02,0.031 0.047,0.046 0.078,0.046 0.051,0 0.078,-0.015 0.078,-0.046 l -0.023,-0.54 0.832,0 c 0.051,0 0.074,-0.05 0.074,-0.152 z" /><path
         id="path4212"
         style="fill:#000000;fill-opacity:1;fill-rule:nonzero;stroke:none"
         d="m 833.766,1.696 c 0,-0.051 -0.032,-0.079 -0.102,-0.079 l -1.547,0 c -0.012,-0.101 -0.015,-0.207 -0.015,-0.316 0,-0.305 0.07,-0.535 0.214,-0.699 0.145,-0.164 0.348,-0.246 0.614,-0.246 0.136,0 0.269,0.039 0.406,0.109 0.133,0.07 0.242,0.164 0.328,0.274 l 0.012,0.007 c 0.019,0 0.035,-0.011 0.047,-0.035 0.019,-0.019 0.027,-0.043 0.027,-0.07 0,-0.039 -0.059,-0.125 -0.18,-0.25 -0.121,-0.125 -0.254,-0.219 -0.394,-0.285 -0.141,-0.067 -0.289,-0.098 -0.442,-0.098 -0.339,0 -0.625,0.125 -0.859,0.371 -0.23,0.25 -0.344,0.555 -0.344,0.918 0,0.367 0.11,0.68 0.336,0.938 0.231,0.254 0.516,0.382 0.867,0.382 0.289,0 0.536,-0.097 0.735,-0.289 0.199,-0.187 0.297,-0.398 0.297,-0.632 z m -0.512,0.25 c 0,0.14 -0.051,0.257 -0.149,0.351 -0.093,0.094 -0.218,0.141 -0.371,0.141 -0.148,0 -0.273,-0.063 -0.379,-0.184 -0.105,-0.121 -0.179,-0.281 -0.214,-0.48 l 0.785,0.023 c 0.117,0.004 0.203,0.016 0.25,0.035 0.051,0.02 0.078,0.059 0.078,0.114 z" /><path
         id="path4214"
         style="fill:#000000;fill-opacity:1;fill-rule:nonzero;stroke:none"
         d="m 834.527,1.098 c 0,-0.293 0,-0.492 -0.004,-0.68 0,-0.07 -0.039,-0.105 -0.125,-0.105 l -0.218,0 c -0.051,0 -0.063,-0.012 -0.063,-0.051 l 0,-0.098 c 0,-0.043 0.012,-0.054 0.031,-0.054 0.036,0 0.274,0.015 0.622,0.015 0.308,0 0.566,-0.015 0.601,-0.015 0.024,0 0.027,0.015 0.027,0.05 l 0,0.102 c 0,0.031 -0.003,0.051 -0.039,0.051 l -0.265,0 c -0.117,0 -0.16,0.054 -0.16,0.23 l 0,1.188 c 0,0.015 0.023,0.117 0.058,0.179 0.094,0.18 0.242,0.239 0.332,0.239 0.074,0 0.141,-0.016 0.188,-0.047 0.047,-0.02 0.101,-0.043 0.164,-0.043 0.101,0 0.238,0.113 0.238,0.277 0,0.129 -0.098,0.246 -0.289,0.246 -0.242,0 -0.508,-0.23 -0.68,-0.492 l -0.019,0 -0.031,0.391 c 0,0.035 -0.004,0.07 -0.04,0.07 -0.023,0 -0.043,-0.008 -0.078,-0.023 l -0.558,-0.289 c -0.035,-0.016 -0.047,-0.028 -0.047,-0.051 l 0,-0.035 c 0,-0.02 0.012,-0.028 0.047,-0.039 l 0.105,-0.055 c 0.16,-0.086 0.203,-0.141 0.203,-0.43 l 0,-0.531 z" /><path
         id="path4216"
         style="fill:#646464;fill-opacity:1;fill-rule:nonzero;stroke:none"
         d="m 400.016,12.227 c -0.043,-0.172 -0.137,-0.258 -0.293,-0.258 -0.129,0 -0.223,0.027 -0.293,0.09 -0.059,0.062 -0.094,0.129 -0.094,0.211 0,0.039 0.008,0.086 0.019,0.137 l 0.833,3.109 -0.055,-0.051 c -0.039,-0.027 -0.078,-0.051 -0.117,-0.066 -0.039,-0.016 -0.078,-0.024 -0.114,-0.024 -0.031,0 -0.07,0.012 -0.113,0.035 -0.039,0.024 -0.078,0.051 -0.117,0.09 -0.035,0.032 -0.059,0.071 -0.082,0.117 -0.02,0.043 -0.031,0.086 -0.031,0.129 0,0.094 0.05,0.18 0.152,0.258 l 0.859,0.684 c 0.067,0.051 0.141,0.078 0.207,0.078 0.059,0 0.11,-0.012 0.157,-0.027 0.043,-0.02 0.082,-0.043 0.113,-0.075 0.031,-0.027 0.051,-0.058 0.062,-0.097 0.02,-0.032 0.024,-0.071 0.024,-0.11 0,-0.039 -0.004,-0.082 -0.02,-0.125 l -1.097,-4.105 z" /><path
         id="path4218"
         style="fill:#646464;fill-opacity:1;fill-rule:nonzero;stroke:none"
         d="m 403.562,16.77 c 0.168,0 0.329,-0.035 0.469,-0.113 0.145,-0.075 0.258,-0.18 0.364,-0.317 0.097,-0.141 0.171,-0.305 0.226,-0.496 0.059,-0.191 0.086,-0.402 0.086,-0.633 0,-0.254 -0.027,-0.515 -0.094,-0.773 -0.054,-0.258 -0.14,-0.504 -0.246,-0.742 -0.101,-0.239 -0.226,-0.461 -0.375,-0.672 -0.14,-0.207 -0.297,-0.391 -0.465,-0.543 -0.164,-0.157 -0.339,-0.274 -0.515,-0.367 -0.188,-0.086 -0.367,-0.129 -0.555,-0.129 -0.168,0 -0.32,0.035 -0.465,0.109 -0.14,0.07 -0.262,0.176 -0.363,0.313 -0.098,0.136 -0.176,0.3 -0.231,0.492 -0.054,0.195 -0.082,0.41 -0.082,0.644 0,0.254 0.032,0.508 0.09,0.766 0.063,0.254 0.145,0.504 0.242,0.738 0.106,0.242 0.227,0.465 0.372,0.676 0.14,0.207 0.292,0.391 0.46,0.547 0.165,0.156 0.34,0.277 0.524,0.367 0.184,0.09 0.367,0.133 0.558,0.133 z m 0.09,-0.696 c -0.023,0.008 -0.05,0.016 -0.09,0.016 -0.117,0 -0.234,-0.043 -0.359,-0.113 -0.121,-0.074 -0.242,-0.176 -0.355,-0.301 -0.118,-0.125 -0.227,-0.273 -0.328,-0.437 -0.102,-0.168 -0.192,-0.348 -0.27,-0.536 -0.074,-0.187 -0.141,-0.382 -0.184,-0.582 -0.046,-0.199 -0.07,-0.386 -0.07,-0.578 0,-0.129 0.016,-0.25 0.035,-0.359 0.028,-0.11 0.051,-0.199 0.09,-0.277 0.043,-0.075 0.086,-0.137 0.145,-0.18 0.054,-0.039 0.125,-0.059 0.191,-0.059 0.113,0 0.231,0.031 0.352,0.106 0.125,0.078 0.242,0.175 0.355,0.3 0.113,0.125 0.227,0.27 0.328,0.438 0.106,0.168 0.196,0.348 0.274,0.535 0.082,0.188 0.14,0.383 0.187,0.578 0.043,0.203 0.067,0.399 0.067,0.586 0,0.235 -0.036,0.426 -0.094,0.578 -0.071,0.157 -0.16,0.25 -0.274,0.285 z" /><path
         id="path4220"
         style="fill:#646464;fill-opacity:1;fill-rule:nonzero;stroke:none"
         d="m 405.773,12.227 c -0.043,-0.172 -0.136,-0.258 -0.293,-0.258 -0.128,0 -0.222,0.027 -0.292,0.09 -0.059,0.062 -0.094,0.129 -0.094,0.211 0,0.039 0.008,0.086 0.019,0.137 l 0.832,3.109 -0.054,-0.051 c -0.039,-0.027 -0.079,-0.051 -0.118,-0.066 -0.039,-0.016 -0.078,-0.024 -0.113,-0.024 -0.031,0 -0.07,0.012 -0.113,0.035 -0.039,0.024 -0.078,0.051 -0.117,0.09 -0.035,0.032 -0.059,0.071 -0.082,0.117 -0.02,0.043 -0.032,0.086 -0.032,0.129 0,0.094 0.051,0.18 0.153,0.258 l 0.859,0.684 c 0.067,0.051 0.141,0.078 0.207,0.078 0.059,0 0.11,-0.012 0.156,-0.027 0.043,-0.02 0.082,-0.043 0.114,-0.075 0.031,-0.027 0.05,-0.058 0.062,-0.097 0.02,-0.032 0.024,-0.071 0.024,-0.11 0,-0.039 -0.004,-0.082 -0.02,-0.125 l -1.098,-4.105 z" /><path
         id="path4222"
         style="fill:#646464;fill-opacity:1;fill-rule:nonzero;stroke:none"
         d="m 409.32,16.77 c 0.168,0 0.328,-0.035 0.469,-0.113 0.145,-0.075 0.258,-0.18 0.363,-0.317 0.098,-0.141 0.172,-0.305 0.227,-0.496 0.059,-0.191 0.086,-0.402 0.086,-0.633 0,-0.254 -0.027,-0.515 -0.094,-0.773 -0.055,-0.258 -0.141,-0.504 -0.246,-0.742 -0.102,-0.239 -0.227,-0.461 -0.375,-0.672 -0.141,-0.207 -0.297,-0.391 -0.465,-0.543 -0.164,-0.157 -0.34,-0.274 -0.515,-0.367 -0.188,-0.086 -0.368,-0.129 -0.555,-0.129 -0.168,0 -0.32,0.035 -0.465,0.109 -0.141,0.07 -0.262,0.176 -0.363,0.313 -0.098,0.136 -0.176,0.3 -0.231,0.492 -0.054,0.195 -0.082,0.41 -0.082,0.644 0,0.254 0.031,0.508 0.09,0.766 0.063,0.254 0.145,0.504 0.242,0.738 0.106,0.242 0.227,0.465 0.371,0.676 0.141,0.207 0.293,0.391 0.461,0.547 0.164,0.156 0.34,0.277 0.524,0.367 0.183,0.09 0.367,0.133 0.558,0.133 z m 0.09,-0.696 c -0.023,0.008 -0.051,0.016 -0.09,0.016 -0.117,0 -0.234,-0.043 -0.359,-0.113 -0.121,-0.074 -0.242,-0.176 -0.356,-0.301 -0.117,-0.125 -0.226,-0.273 -0.328,-0.437 -0.101,-0.168 -0.191,-0.348 -0.269,-0.536 -0.074,-0.187 -0.141,-0.382 -0.184,-0.582 -0.047,-0.199 -0.07,-0.386 -0.07,-0.578 0,-0.129 0.016,-0.25 0.035,-0.359 0.027,-0.11 0.051,-0.199 0.09,-0.277 0.043,-0.075 0.086,-0.137 0.144,-0.18 0.055,-0.039 0.125,-0.059 0.192,-0.059 0.113,0 0.23,0.031 0.351,0.106 0.125,0.078 0.243,0.175 0.356,0.3 0.113,0.125 0.226,0.27 0.328,0.438 0.105,0.168 0.195,0.348 0.273,0.535 0.082,0.188 0.141,0.383 0.188,0.578 0.043,0.203 0.066,0.399 0.066,0.586 0,0.235 -0.035,0.426 -0.093,0.578 -0.071,0.157 -0.161,0.25 -0.274,0.285 z" /></g></g></svg>