<?xml version="1.0" encoding="UTF-8" standalone="no"?>
<svg
   xmlns:dc="http://purl.org/dc/elements/1.1/"
   xmlns:cc="http://creativecommons.org/ns#"
   xmlns:rdf="http://www.w3.org/1999/02/22-rdf-syntax-ns#"
   xmlns:svg="http://www.w3.org/2000/svg"
   xmlns="http://www.w3.org/2000/svg"
   viewBox="0 0 1652.9968 2403.0027"
   height="2403.0027"
   width="1652.9968"
   xml:space="preserve"
   version="1.1"
   id="svg5870"><metadata
     id="metadata5876"><rdf:RDF><cc:Work
         rdf:about=""><dc:format>image/svg+xml</dc:format><dc:type
           rdf:resource="http://purl.org/dc/dcmitype/StillImage" /><dc:title></dc:title></cc:Work></rdf:RDF></metadata><defs
     id="defs5874" /><g
     transform="matrix(1.25,0,0,-1.25,0,2403.0028)"
     id="g5878"><g
       id="g5880"><path
         id="path5882"
         style="fill:#ffffff;fill-opacity:1;fill-rule:nonzero;stroke:none"
         d="m 69.199,1921.199 c 0,0 -68,0.106 -68,-68 l 0,-1784 c 0,-68.863 68,-68 68,-68 l 1184,0 c 67.961,0 68,68 68,68 l 0,1784.004 c 0,0 0.852,67.996 -68,67.996 l -1184,0 z" /><path
         id="path5884"
         style="fill:#000000;fill-opacity:1;fill-rule:nonzero;stroke:none"
         d="m 69.199,1922.402 c 0,0 -17.254,0.043 -34.539,-8.586 C 17.371,1905.183 0,1887.652 0,1853.203 L 0,69.199 C 0,34.375 17.375,16.836 34.668,8.301 51.945,-0.227 69.168,0 69.199,0 l 1184,0 c 34.383,0 51.91,17.375 60.559,34.66 8.648,17.289 8.64,34.539 8.64,34.539 l 0,1784.004 c 0,0.02 0.227,17.246 -8.304,34.527 -8.539,17.293 -26.074,34.672 -60.895,34.672 l -1184,0 z m 0,-1.203 1184,0 c 68.852,0 68,-67.996 68,-67.996 l 0,-1784.004 c 0,0 -0.039,-68 -68,-68 l -1184,0 c 0,0 -68,-0.863 -68,68 l 0,1784 c 0,68.106 68,68 68,68 z" /><path
         id="path5886"
         style="fill:#154889;fill-opacity:1;fill-rule:nonzero;stroke:none"
         d="m 69.199,33.199 c 0,0 -36,-0.512 -36,36 l 0,1784 c 0,36.277 36,36 36,36 l 1184,0 c 36.203,0 36,-36 36,-36 l 0,-1784 c 0,0 0.203,-36.297 -36,-36" /><path
         id="path5888"
         style="fill:#ffffff;fill-opacity:1;fill-rule:nonzero;stroke:none"
         d="m 133.199,557.199 1056,0 0,-424 -1056,0 0,424 z" /><path
         id="path5890"
         style="fill:#ffffff;fill-opacity:1;fill-rule:nonzero;stroke:none"
         d="m 133.199,1009.199 1056,0 0,-424 -1056,0 0,424 z" /><path
         id="path5892"
         style="fill:#ffffff;fill-opacity:1;fill-rule:nonzero;stroke:none"
         d="m 133.199,1461.199 1056,0 0,-424 -1056,0 0,424 z" /><path
         id="path5894"
         style="fill:#ffffff;fill-opacity:1;fill-rule:nonzero;stroke:none"
         d="m 852.523,1675.211 c 0,-74 -90.062,-134.004 -201.152,-134.004 -111.109,0 -201.164,60.004 -201.164,134.004 0,74 90.055,133.996 201.164,133.996 111.09,0 201.152,-59.996 201.152,-133.996" /><path
         id="path5896"
         style="fill:#000000;fill-opacity:1;fill-rule:nonzero;stroke:none"
         d="m 237.199,1145.199 0,56.547 35.332,42.383 35.313,-42.383 0,-28.273 14.136,0 0,70.656 7.067,14.125 0,56.547 21.207,70.672 21.203,-70.672 0,-56.547 7.066,-14.125 0,-28.258 21.207,14.137 49.465,-28.262 0,-42.41 14.137,0 0,98.918 7.07,0 0,42.41 7.067,0 0,42.41 35.332,0 0,-49.476 7.051,0 0,-77.727 14.136,0 0,-42.398 14.137,0 0,70.656 28.266,28.262 28.273,-28.262 0,-42.383 28.27,28.262 28.265,-28.262 0,-56.547" /><path
         id="path5898"
         style="fill:#000000;fill-opacity:1;fill-rule:nonzero;stroke:none"
         d="m 956.438,1218.5 c 0,-10.844 8.785,-19.66 19.636,-19.66 10.875,0 19.66,8.816 19.66,19.66 l 0,61.391 c 0,10.855 -8.785,19.656 -19.66,19.656 -10.851,0 -19.636,-8.801 -19.636,-19.656 l 0,-61.391 z m -19.657,0 0,61.391 c 0,21.726 17.598,39.292 39.293,39.292 21.715,0 39.313,-17.566 39.313,-39.292 l 0,-61.391 c 0,-21.719 -17.598,-39.313 -39.313,-39.313 -21.695,0 -39.293,17.594 -39.293,39.313 z m -90.883,25.797 0,73.668 73.696,0 0,-19.657 -55.278,0 0,-31.015 c 15.434,12.215 37.836,9.594 50.036,-5.809 4.988,-6.312 7.683,-14.078 7.683,-22.129 l 0,-20.855 c 0,-21.719 -17.594,-39.313 -39.285,-39.313 -20.273,0 -37.234,15.43 -39.109,35.621 l 19.808,0 c 2.031,-10.664 12.321,-17.644 22.992,-15.601 9.243,1.754 15.969,9.851 15.969,19.293 l 0,17.183 c 0,10.856 -8.812,19.668 -19.66,19.668 -7.543,0 -14.391,-4.312 -17.672,-11.054" /><path
         id="path5900"
         style="fill:#c1121c;fill-opacity:1;fill-rule:nonzero;stroke:none"
         d="m 925.199,1089.199 c -88.101,0 -160,71.899 -160,160 0,88.106 71.899,160 160,160 88.102,0 160,-71.894 160,-160 0,-88.101 -71.898,-160 -160,-160 z m 0,44.359 c 64.129,0 115.641,51.512 115.641,115.641 0,64.133 -51.512,115.645 -115.641,115.645 -64.129,0 -115.644,-51.512 -115.644,-115.645 0,-64.129 51.515,-115.641 115.644,-115.641 z" /><path
         id="path5902"
         style="fill:#000000;fill-opacity:1;fill-rule:nonzero;stroke:none"
         d="m 775.84,1398.246 0,-0.016 -0.016,0 0.016,0.016 z" /><path
         id="path5904"
         style="fill:#000000;fill-opacity:1;fill-rule:nonzero;stroke:none"
         d="m 775.824,1398.246 0.016,0 0,-0.016 -0.016,0 0,0.016 z" /><path
         id="path5906"
         style="fill:#000000;fill-opacity:1;fill-rule:nonzero;stroke:none"
         d="m 775.824,1398.23 0,0.016 0.016,-0.016 -0.016,0 z m 0.016,0 -0.016,0.016 0,-0.016 0.016,0 z" /><path
         id="path5908"
         style="fill:#000000;fill-opacity:1;fill-rule:nonzero;stroke:none"
         d="m 775.859,1398.23 -0.035,0 0.016,0 0,0.016 0.019,-0.016 z" /><path
         id="path5910"
         style="fill:#000000;fill-opacity:1;fill-rule:nonzero;stroke:none"
         d="m 775.824,1398.23 0,0.016 0,-0.016 0.016,0.016 -0.016,-0.016 z" /><path
         id="path5912"
         style="fill:#000000;fill-opacity:1;fill-rule:nonzero;stroke:none"
         d="m 775.824,1398.246 0.016,0 0,-0.016 -0.016,0 0,0.016 z" /><path
         id="path5914"
         style="fill:#000000;fill-opacity:1;fill-rule:nonzero;stroke:none"
         d="m 775.859,1398.246 0,-0.031 -0.035,0 0.035,0.031 z" /><path
         id="path5916"
         style="fill:#000000;fill-opacity:1;fill-rule:nonzero;stroke:none"
         d="m 775.824,1398.246 0.035,0 0,-0.031 -0.035,0 0,0.031 z" /><path
         id="path5918"
         style="fill:#000000;fill-opacity:1;fill-rule:nonzero;stroke:none"
         d="m 775.824,1398.215 0,0.031 0.035,-0.031 -0.035,0 z m 0.035,0 -0.035,0.031 0,-0.031 0.035,0 z" /><path
         id="path5920"
         style="fill:#000000;fill-opacity:1;fill-rule:nonzero;stroke:none"
         d="m 775.859,1398.215 -0.035,0 0.016,0 0,0.031 0.019,-0.031 z" /><path
         id="path5922"
         style="fill:#000000;fill-opacity:1;fill-rule:nonzero;stroke:none"
         d="m 775.824,1398.215 0,0.031 0,-0.031 0.035,0.031 -0.035,-0.031 z" /><path
         id="path5924"
         style="fill:#000000;fill-opacity:1;fill-rule:nonzero;stroke:none"
         d="m 775.824,1398.246 0.035,0 0,-0.031 -0.035,0 0,0.031 z" /><path
         id="path5926"
         style="fill:#000000;fill-opacity:1;fill-rule:nonzero;stroke:none"
         d="m 775.859,1398.246 0,-0.031 -0.035,0 0.035,0.031 z" /><path
         id="path5928"
         style="fill:#000000;fill-opacity:1;fill-rule:nonzero;stroke:none"
         d="m 775.824,1398.246 0.035,0 0,-0.031 -0.035,0 0,0.031 z" /><path
         id="path5930"
         style="fill:#000000;fill-opacity:1;fill-rule:nonzero;stroke:none"
         d="m 775.824,1398.215 0,0.031 0.035,-0.031 -0.035,0 z m 0.035,0 -0.035,0.031 0,-0.031 0.035,0 z" /><path
         id="path5932"
         style="fill:#000000;fill-opacity:1;fill-rule:nonzero;stroke:none"
         d="m 775.859,1398.215 -0.035,0 0.016,0 0,0.031 0.019,-0.031 z" /><path
         id="path5934"
         style="fill:#000000;fill-opacity:1;fill-rule:nonzero;stroke:none"
         d="m 775.824,1398.215 0,0.031 0,-0.031 0.035,0.031 -0.035,-0.031 z" /><path
         id="path5936"
         style="fill:#000000;fill-opacity:1;fill-rule:nonzero;stroke:none"
         d="m 775.824,1398.246 0.035,0 0,-0.031 -0.035,0 0,0.031 z" /><path
         id="path5938"
         style="fill:#000000;fill-opacity:1;fill-rule:nonzero;stroke:none"
         d="m 775.859,1398.246 0,-0.031 -0.035,0 0.035,0.031 z" /><path
         id="path5940"
         style="fill:#000000;fill-opacity:1;fill-rule:nonzero;stroke:none"
         d="m 775.824,1398.246 0.035,0 0,-0.031 -0.035,0 0,0.031 z" /><path
         id="path5942"
         style="fill:#000000;fill-opacity:1;fill-rule:nonzero;stroke:none"
         d="m 775.824,1398.215 0,0.031 0.035,-0.031 -0.035,0 z m 0.035,0 -0.035,0.031 0,-0.031 0.035,0 z" /><path
         id="path5944"
         style="fill:#000000;fill-opacity:1;fill-rule:nonzero;stroke:none"
         d="m 775.859,1398.215 -0.035,0 0.016,0 0,0.031 0.019,-0.031 z" /><path
         id="path5946"
         style="fill:#000000;fill-opacity:1;fill-rule:nonzero;stroke:none"
         d="m 775.824,1398.215 0,0.031 0,-0.031 0.035,0.031 -0.035,-0.031 z" /><path
         id="path5948"
         style="fill:#000000;fill-opacity:1;fill-rule:nonzero;stroke:none"
         d="m 775.824,1398.246 0.035,0 0,-0.031 -0.035,0 0,0.031 z" /><path
         id="path5950"
         style="fill:#000000;fill-opacity:1;fill-rule:nonzero;stroke:none"
         d="m 979.391,760.016 c 0,-5.426 4.386,-9.833 9.804,-9.833 5.426,0 9.832,4.407 9.832,9.833 l 0,81.05 c 0,5.426 -4.406,9.825 -9.832,9.825 -5.418,0 -9.804,-4.399 -9.804,-9.825 l 0,-81.05 z m -19.657,0 0,81.05 c 0,16.27 13.188,29.461 29.461,29.461 16.27,0 29.461,-13.191 29.461,-29.461 l 0,-81.05 c 0,-16.297 -13.191,-29.489 -29.461,-29.489 -16.273,0 -29.461,13.192 -29.461,29.489 z m -54.031,0 c 0,-5.426 4.379,-9.833 9.805,-9.833 5.445,0 9.851,4.407 9.851,9.833 l 0,81.05 c 0,5.426 -4.406,9.825 -9.851,9.825 -5.426,0 -9.805,-4.399 -9.805,-9.825 l 0,-81.05 z m -19.656,0 0,81.05 c 0,16.27 13.191,29.461 29.461,29.461 16.289,0 29.48,-13.191 29.48,-29.461 l 0,-81.05 c 0,-16.297 -13.191,-29.489 -29.48,-29.489 -16.27,0 -29.461,13.192 -29.461,29.489 z m -54.039,73.667 0,20.879 19.637,14.743 19.656,0 0,-137.559 -19.656,0 0,116.672" /><path
         id="path5952"
         style="fill:#c1121c;fill-opacity:1;fill-rule:nonzero;stroke:none"
         d="m 925.332,640.527 c -88.102,0 -160,71.899 -160,160 0,88.102 71.898,160 160,160 88.102,0 160,-71.898 160,-160 0,-88.101 -71.898,-160 -160,-160 z m 0,44.356 c 64.129,0 115.645,51.515 115.645,115.644 0,64.129 -51.516,115.641 -115.645,115.641 -64.129,0 -115.644,-51.512 -115.644,-115.641 0,-64.129 51.515,-115.644 115.644,-115.644 z" /><path
         id="path5954"
         style="fill:#000000;fill-opacity:1;fill-rule:nonzero;stroke:none"
         d="m 775.973,949.574 0,-0.019 -0.016,0 0.016,0.019 z" /><path
         id="path5956"
         style="fill:#000000;fill-opacity:1;fill-rule:nonzero;stroke:none"
         d="m 775.957,949.574 0.016,0 0,-0.02 -0.016,0 0,0.02 z" /><path
         id="path5958"
         style="fill:#000000;fill-opacity:1;fill-rule:nonzero;stroke:none"
         d="m 775.957,949.555 0,0.019 0.016,-0.019 -0.016,0 z m 0.016,0 -0.016,0.019 0,-0.019 0.016,0 z" /><path
         id="path5960"
         style="fill:#000000;fill-opacity:1;fill-rule:nonzero;stroke:none"
         d="m 775.992,949.555 -0.035,0 0.016,0 0,0.019 0.019,-0.019 z" /><path
         id="path5962"
         style="fill:#000000;fill-opacity:1;fill-rule:nonzero;stroke:none"
         d="m 775.957,949.555 0,0.019 0,-0.019 0.016,0.019 -0.016,-0.019 z" /><path
         id="path5964"
         style="fill:#000000;fill-opacity:1;fill-rule:nonzero;stroke:none"
         d="m 775.957,949.574 0.016,0 0,-0.02 -0.016,0 0,0.02 z" /><path
         id="path5966"
         style="fill:#000000;fill-opacity:1;fill-rule:nonzero;stroke:none"
         d="m 775.992,949.574 0,-0.035 -0.035,0 0.035,0.035 z" /><path
         id="path5968"
         style="fill:#000000;fill-opacity:1;fill-rule:nonzero;stroke:none"
         d="m 775.957,949.574 0.035,0 0,-0.035 -0.035,0 0,0.035 z" /><path
         id="path5970"
         style="fill:#000000;fill-opacity:1;fill-rule:nonzero;stroke:none"
         d="m 775.957,949.539 0,0.035 0.035,-0.035 -0.035,0 z m 0.035,0 -0.035,0.035 0,-0.035 0.035,0 z" /><path
         id="path5972"
         style="fill:#000000;fill-opacity:1;fill-rule:nonzero;stroke:none"
         d="m 775.992,949.539 -0.035,0 0.016,0 0,0.035 0.019,-0.035 z" /><path
         id="path5974"
         style="fill:#000000;fill-opacity:1;fill-rule:nonzero;stroke:none"
         d="m 775.957,949.539 0,0.035 0,-0.035 0.035,0.035 -0.035,-0.035 z" /><path
         id="path5976"
         style="fill:#000000;fill-opacity:1;fill-rule:nonzero;stroke:none"
         d="m 775.957,949.574 0.035,0 0,-0.035 -0.035,0 0,0.035 z" /><path
         id="path5978"
         style="fill:#000000;fill-opacity:1;fill-rule:nonzero;stroke:none"
         d="m 775.992,949.574 0,-0.035 -0.035,0 0.035,0.035 z" /><path
         id="path5980"
         style="fill:#000000;fill-opacity:1;fill-rule:nonzero;stroke:none"
         d="m 775.957,949.574 0.035,0 0,-0.035 -0.035,0 0,0.035 z" /><path
         id="path5982"
         style="fill:#000000;fill-opacity:1;fill-rule:nonzero;stroke:none"
         d="m 775.957,949.539 0,0.035 0.035,-0.035 -0.035,0 z m 0.035,0 -0.035,0.035 0,-0.035 0.035,0 z" /><path
         id="path5984"
         style="fill:#000000;fill-opacity:1;fill-rule:nonzero;stroke:none"
         d="m 775.992,949.539 -0.035,0 0.016,0 0,0.035 0.019,-0.035 z" /><path
         id="path5986"
         style="fill:#000000;fill-opacity:1;fill-rule:nonzero;stroke:none"
         d="m 775.957,949.539 0,0.035 0,-0.035 0.035,0.035 -0.035,-0.035 z" /><path
         id="path5988"
         style="fill:#000000;fill-opacity:1;fill-rule:nonzero;stroke:none"
         d="m 775.957,949.574 0.035,0 0,-0.035 -0.035,0 0,0.035 z" /><path
         id="path5990"
         style="fill:#000000;fill-opacity:1;fill-rule:nonzero;stroke:none"
         d="m 775.992,949.574 0,-0.035 -0.035,0 0.035,0.035 z" /><path
         id="path5992"
         style="fill:#000000;fill-opacity:1;fill-rule:nonzero;stroke:none"
         d="m 775.957,949.574 0.035,0 0,-0.035 -0.035,0 0,0.035 z" /><path
         id="path5994"
         style="fill:#000000;fill-opacity:1;fill-rule:nonzero;stroke:none"
         d="m 775.957,949.539 0,0.035 0.035,-0.035 -0.035,0 z m 0.035,0 -0.035,0.035 0,-0.035 0.035,0 z" /><path
         id="path5996"
         style="fill:#000000;fill-opacity:1;fill-rule:nonzero;stroke:none"
         d="m 775.992,949.539 -0.035,0 0.016,0 0,0.035 0.019,-0.035 z" /><path
         id="path5998"
         style="fill:#000000;fill-opacity:1;fill-rule:nonzero;stroke:none"
         d="m 775.957,949.539 0,0.035 0,-0.035 0.035,0.035 -0.035,-0.035 z" /><path
         id="path6000"
         style="fill:#000000;fill-opacity:1;fill-rule:nonzero;stroke:none"
         d="m 775.957,949.574 0.035,0 0,-0.035 -0.035,0 0,0.035 z" /><path
         id="path6002"
         style="fill:#000000;fill-opacity:1;fill-rule:nonzero;stroke:none"
         d="m 237.199,693.199 0,56.543 35.332,42.383 35.313,-42.383 0,-28.269 14.136,0 0,70.652 7.067,14.129 0,56.543 21.207,70.676 21.203,-70.676 0,-56.543 7.066,-14.129 0,-28.254 21.207,14.137 49.465,-28.266 0,-42.406 14.137,0 0,98.918 7.07,0 0,42.406 7.067,0 0,42.414 35.332,0 0,-49.48 7.051,0 0,-77.723 14.136,0 0,-42.398 14.137,0 0,70.652 28.266,28.266 28.273,-28.266 0,-42.383 28.27,28.266 28.265,-28.266 0,-56.543" /><path
         id="path6004"
         style="fill:#c1121c;fill-opacity:1;fill-rule:nonzero;stroke:none"
         d="M 642.445,909.516 201.004,688.801 219.918,650.976 661.336,871.672 642.445,909.516 Z" /><path
         id="path6006"
         style="fill:#154889;fill-opacity:1;fill-rule:nonzero;stroke:none"
         d="m 779.227,501.199 c -7.774,0 -14.028,-6.293 -14.028,-14.027 l 0,-291.942 c 0,-7.761 6.254,-14.031 14.028,-14.031 l 291.941,0 c 7.738,0 14.031,6.27 14.031,14.031 l 0,291.942 c 0,7.734 -6.293,14.027 -14.031,14.027 l -291.941,0 z" /><path
         id="path6008"
         style="fill:#154889;fill-opacity:1;fill-rule:nonzero;stroke:none"
         d="m 259.609,501.199 c -7.773,0 -14.027,-6.293 -14.027,-14.027 l 0,-291.942 c 0,-7.761 6.254,-14.031 14.027,-14.031 l 291.946,0 c 7.734,0 14.027,6.27 14.027,14.031 l 0,291.942 c 0,7.734 -6.293,14.027 -14.027,14.027 l -291.946,0 z" /><path
         id="path6010"
         style="fill:#ffffff;fill-opacity:1;fill-rule:nonzero;stroke:none"
         d="m 987.52,298.344 c 0,-5.754 4.636,-10.368 10.382,-10.368 5.723,0 10.391,4.614 10.391,10.368 l 0,85.695 c 0,5.727 -4.668,10.383 -10.391,10.383 -5.746,0 -10.382,-4.656 -10.382,-10.383 l 0,-85.695 z m -20.782,0 0,85.695 c 0,17.223 13.942,31.16 31.164,31.16 17.219,0 31.16,-13.937 31.16,-31.16 l 0,-85.695 c 0,-17.196 -13.941,-31.145 -31.16,-31.145 -17.222,0 -31.164,13.949 -31.164,31.145 z m -83.101,11.683 20.797,0 0,-11.683 c 0,-5.754 4.64,-10.368 10.367,-10.368 5.742,0 10.41,4.614 10.41,10.368 l 0,25.984 c 0,5.742 -4.668,10.355 -10.41,10.355 l -6.477,0 0,18.196 6.477,0 c 5.742,0 10.41,4.656 10.41,10.383 l 0,20.777 c 0,5.727 -4.668,10.383 -10.41,10.383 -5.727,0 -10.367,-4.656 -10.367,-10.383 l 0,-11.68 -20.797,0 0,11.68 c 0,17.223 13.968,31.16 31.164,31.16 17.219,0 31.187,-13.937 31.187,-31.16 l 0,-19.481 c 0,-8.746 -4.906,-16.746 -12.676,-20.777 7.77,-4.004 12.676,-12.015 12.676,-20.777 l 0,-24.66 c 0,-17.196 -13.968,-31.145 -31.187,-31.145 -17.196,0 -31.164,13.949 -31.164,31.145 l 0,11.683 z m -62.305,66.211 0,22.078 20.777,15.571 20.778,0 0,-145.391 -20.778,0 0,123.344" /><path
         id="path6012"
         style="fill:#ffffff;fill-opacity:1;fill-rule:nonzero;stroke:none"
         d="m 413.574,384.828 -3.16,82.371 14.547,0 28.504,-82.371 -39.891,0 z m -55.91,0 28.531,82.371 14.516,0 -3.16,-82.371 -39.887,0 z m -51.43,-33.949 0,14.562 -26.652,0 0,9.684 252,0 0,-9.684 -26.664,0 0,-14.562 -24.238,0 0,14.562 -150.223,0 0,-14.562 -24.223,0 z m 113.891,-135.68 -5.227,135.68 50.317,0 46.984,-135.68 -92.074,0 z m -121.168,0 46.965,135.68 50.32,0 -5.211,-135.68" /><path
         id="path6014"
         style="fill:#000000;fill-opacity:1;fill-rule:nonzero;stroke:none"
         d="m 623.195,1608.625 37.774,0 c 20.867,0 37.746,17.133 37.746,38.289 l 0,56.59 c 0,21.148 -16.879,38.285 -37.746,38.285 l -37.774,0 0,-133.164 z M 595.273,1582 l 0,186.414 65.696,0 c 36.261,0 65.691,-29.801 65.691,-66.59 l 0,-53.238 c 0,-36.774 -29.43,-66.586 -65.691,-66.586" /></g></g></svg>