<?xml version="1.0" encoding="UTF-8" standalone="no"?>
<svg
   xmlns:dc="http://purl.org/dc/elements/1.1/"
   xmlns:cc="http://creativecommons.org/ns#"
   xmlns:rdf="http://www.w3.org/1999/02/22-rdf-syntax-ns#"
   xmlns:svg="http://www.w3.org/2000/svg"
   xmlns="http://www.w3.org/2000/svg"
   viewBox="0 0 600 600"
   height="600"
   width="600"
   xml:space="preserve"
   id="svg45747"
   version="1.1"><metadata
     id="metadata45753"><rdf:RDF><cc:Work
         rdf:about=""><dc:format>image/svg+xml</dc:format><dc:type
           rdf:resource="http://purl.org/dc/dcmitype/StillImage" /><dc:title></dc:title></cc:Work></rdf:RDF></metadata><defs
     id="defs45751" /><g
     transform="matrix(1.3333333,0,0,-1.3333333,0,600)"
     id="g45755"><g
       id="g45757"><path
         id="path45759"
         style="fill:#ffffff;fill-opacity:1;fill-rule:nonzero;stroke:none"
         d="m 30.133,449.629 c -16.41,0 -29.758,-13.356 -29.758,-29.754 V 30.133 c 0,-16.41 13.348,-29.758 29.758,-29.758 h 389.742 c 16.398,0 29.754,13.348 29.754,29.758 v 389.742 c 0,16.398 -13.356,29.754 -29.754,29.754 z" /><path
         id="path45761"
         style="fill:#000000;fill-opacity:1;fill-rule:nonzero;stroke:none"
         d="M 30.141,450 C 13.523,450 0,436.484 0,419.883 V 30.141 C 0,13.527 13.523,0 30.141,0 H 419.883 C 436.484,0 450,13.527 450,30.141 V 419.883 C 450,436.484 436.484,450 419.883,450 Z m -0.008,-0.371 h 389.742 c 16.398,0 29.754,-13.356 29.754,-29.754 V 30.133 c 0,-16.41 -13.356,-29.758 -29.754,-29.758 H 30.133 c -16.41,0 -29.758,13.348 -29.758,29.758 v 389.742 c 0,16.398 13.348,29.754 29.758,29.754 z" /><path
         id="path45763"
         style="fill:#000000;fill-opacity:1;fill-rule:nonzero;stroke:none"
         d="m 30.133,442.352 c -12.422,0 -22.488,-10.067 -22.488,-22.477 V 30.133 C 7.645,17.711 17.711,7.645 30.133,7.645 h 389.742 c 12.422,0 22.477,10.066 22.477,22.488 v 389.742 c 0,12.41 -10.055,22.477 -22.477,22.477 z m 0,-11.247 h 389.742 c 6.203,0 11.242,-5.023 11.242,-11.23 V 30.133 c 0,-6.219 -5.039,-11.246 -11.242,-11.246 H 30.133 c -6.207,0 -11.246,5.027 -11.246,11.246 v 389.742 c 0,6.207 5.039,11.23 11.246,11.23 z" /><path
         id="path45765"
         style="fill:#231f20;fill-opacity:1;fill-rule:nonzero;stroke:none"
         d="m 281.691,356.426 v 37.168 h 7.442 v -3.719 c 1.359,2.574 4.047,4.18 6.965,4.18 4.367,0 7.89,-3.539 7.89,-7.891 v -29.738 h -7.426 v 26.48 c 0,2.055 -1.667,3.719 -3.722,3.719 -2.043,0 -3.707,-1.664 -3.707,-3.719 v -26.48 z m -21.375,21.836 h 7.442 v 4.644 c 0,2.055 -1.664,3.719 -3.719,3.719 -2.059,0 -3.723,-1.664 -3.723,-3.719 z m 14.872,-11.149 c 0,-6.152 -5,-11.148 -11.149,-11.148 -6.152,0 -11.152,4.996 -11.152,11.148 v 15.793 c 0,6.164 5,11.149 11.152,11.149 6.149,0 11.149,-4.985 11.149,-11.149 v -10.687 h -14.872 v -5.106 c 0,-2.054 1.664,-3.722 3.723,-3.722 2.055,0 3.719,1.668 3.719,3.722 z m -51.102,-10.687 v 52.039 h 7.426 v -31.129 l 9.289,16.258 h 7.441 l -8.824,-14.871 10.687,-22.297 h -8.367 l -6.504,15.793 -3.722,-5.567 v -10.226 z m -21.836,0 v 37.168 h 7.426 v -4.196 c 2.383,2.942 5.972,4.657 9.765,4.657 v -7.805 c -0.753,0.254 -1.535,0.375 -2.324,0.375 -4.109,0 -7.441,-3.328 -7.441,-7.437 v -22.762 z m -14.871,16.254 h -3.723 c -2.054,0 -3.707,-1.653 -3.707,-3.707 v -1.86 c 0,-2.054 1.653,-3.722 3.707,-3.722 2.055,0 3.723,1.668 3.723,3.722 z m 7.43,-16.254 h -7.43 v 3.719 c -1.375,-2.579 -4.051,-4.18 -6.969,-4.18 -4.363,0 -7.902,3.535 -7.902,7.902 v 5.567 c 0,5.132 4.16,9.289 9.301,9.289 h 5.57 v 4.183 c 0,2.055 -1.668,3.719 -3.723,3.719 -2.054,0 -3.707,-1.664 -3.707,-3.719 h -7.441 c 0,6.164 4.996,11.149 11.148,11.149 6.164,0 11.153,-4.985 11.153,-11.149 z m -42.739,45.07 v -17.664 h 4.645 c 2.82,0 5.105,2.297 5.105,5.117 v 7.43 c 0,2.832 -2.285,5.117 -5.105,5.117 z m -7.429,-45.07 v 52.039 h 12.074 c 6.676,0 12.086,-5.41 12.086,-12.086 v -7.43 c 0,-6.676 -5.41,-12.086 -12.086,-12.086 h -4.645 v -20.437 z" /><path
         id="path45767"
         style="fill:#231f20;fill-opacity:1;fill-rule:nonzero;stroke:none"
         d="m 381.191,277.703 v 37.168 h 7.426 v -3.719 c 1.375,2.578 4.063,4.18 6.969,4.18 4.363,0 7.902,-3.535 7.902,-7.891 v -29.738 h -7.429 v 26.481 c 0,2.054 -1.664,3.722 -3.719,3.722 -2.055,0 -3.723,-1.668 -3.723,-3.722 v -26.481 z m -14.871,52.039 h 7.43 v -7.43 h -7.43 z m 0,-14.871 h 7.43 v -37.168 h -7.43 z m -21.375,-15.332 h 7.442 v 4.645 c 0,2.054 -1.668,3.722 -3.723,3.722 -2.055,0 -3.719,-1.668 -3.719,-3.722 z m 14.871,-11.148 c 0,-6.153 -4.984,-11.149 -11.152,-11.149 -6.148,0 -11.148,4.996 -11.148,11.149 v 15.793 c 0,6.164 5,11.148 11.148,11.148 6.168,0 11.152,-4.984 11.152,-11.148 v -10.688 h -14.871 v -5.105 c 0,-2.055 1.664,-3.719 3.719,-3.719 2.055,0 3.723,1.664 3.723,3.719 z m -51.101,-10.688 v 52.039 h 7.426 v -18.59 c 1.375,2.578 4.062,4.18 6.968,4.18 4.364,0 7.903,-3.535 7.903,-7.891 v -29.738 h -7.43 v 26.481 c 0,2.054 -1.664,3.722 -3.719,3.722 -2.054,0 -3.722,-1.668 -3.722,-3.722 v -26.481 z m -4.645,11.149 v -0.461 c 0,-6.153 -5,-11.149 -11.152,-11.149 -6.164,0 -11.16,4.996 -11.16,11.149 v 15.793 c 0,6.164 4.996,11.148 11.16,11.148 6.152,0 11.152,-4.984 11.152,-11.148 v -0.461 h -7.441 v 0.461 c 0,2.054 -1.668,3.722 -3.711,3.722 -2.055,0 -3.719,-1.668 -3.719,-3.722 v -15.793 c 0,-2.055 1.664,-3.719 3.719,-3.719 2.043,0 3.711,1.664 3.711,3.719 v 0.461 z m -49.254,-0.461 h 6.965 c 0,-2.309 1.875,-4.184 4.184,-4.184 2.308,0 4.183,1.875 4.183,4.184 0,1.652 -0.972,3.148 -2.48,3.816 l -6.031,2.215 c -3.867,1.703 -6.36,5.543 -6.36,9.762 0,5.91 4.789,10.687 10.688,10.687 5.91,0 10.687,-4.777 10.687,-10.687 h -6.968 c 0,2.054 -1.664,3.722 -3.719,3.722 -2.055,0 -3.707,-1.668 -3.707,-3.722 0,-1.469 0.863,-2.797 2.211,-3.391 l 6.019,-2.203 c 4.024,-1.785 6.625,-5.785 6.625,-10.199 0,-6.153 -4.984,-11.149 -11.148,-11.149 -6.153,0 -11.149,4.996 -11.149,11.149 m -27.867,-10.688 v 52.039 h 7.426 v -31.125 l 9.289,16.254 h 7.441 L 242.27,300 252.953,277.703 h -8.363 l -6.492,15.793 -3.723,-5.566 v -10.227 z m -21.851,0 v 37.168 h 7.441 v -4.195 c 2.383,2.945 5.973,4.656 9.754,4.656 v -7.805 c -0.742,0.258 -1.535,0.379 -2.324,0.379 -4.098,0 -7.43,-3.332 -7.43,-7.441 v -22.762 z m -14.856,16.27 h -3.722 c -2.055,0 -3.719,-1.668 -3.719,-3.723 v -1.859 c 0,-2.055 1.664,-3.719 3.719,-3.719 2.058,0 3.722,1.664 3.722,3.719 z m 7.43,-16.27 h -7.43 v 3.723 c -1.375,-2.578 -4.062,-4.184 -6.98,-4.184 -4.352,0 -7.891,3.539 -7.891,7.903 v 5.566 c 0,5.133 4.16,9.289 9.289,9.289 h 5.582 v 4.184 c 0,2.054 -1.664,3.722 -3.722,3.722 -2.055,0 -3.719,-1.668 -3.719,-3.722 h -7.43 c 0,6.164 5,11.148 11.149,11.148 6.168,0 11.152,-4.984 11.152,-11.148 z m -42.738,45.07 v -17.652 h 4.644 c 2.82,0 5.106,2.285 5.106,5.106 v 7.429 c 0,2.832 -2.286,5.117 -5.106,5.117 z m -7.442,-45.07 v 52.039 h 12.086 c 6.664,0 12.074,-5.41 12.074,-12.086 v -7.429 c 0,-6.676 -5.41,-12.086 -12.074,-12.086 h -4.644 v -20.438 z m -29.726,0 h -3.719 c -4.621,0 -8.367,3.746 -8.367,8.367 v 22.758 h -3.719 v 6.043 h 3.719 v 11.149 h 7.429 v -11.149 h 4.657 v -6.043 h -4.657 v -21.836 c 0,-1.277 1.047,-2.32 2.321,-2.32 h 2.336 z m -29.739,52.039 h 7.442 v -7.43 h -7.442 z m 0,-14.871 h 7.442 V 277.703 H 88.027 Z M 43.43,277.703 v 37.168 h 7.429 v -3.719 c 1.371,2.578 4.047,4.18 6.965,4.18 2.735,0 5.278,-1.41 6.723,-3.742 1.656,2.344 4.344,3.742 7.223,3.742 4.875,0 8.828,-3.949 8.828,-8.824 v -28.805 h -7.442 v 26.481 c 0,2.054 -1.664,3.722 -3.707,3.722 -2.054,0 -3.722,-1.668 -3.722,-3.722 v -26.481 h -7.442 v 26.481 c 0,2.054 -1.652,3.722 -3.707,3.722 -2.055,0 -3.719,-1.668 -3.719,-3.722 v -26.481 z" /><path
         id="path45769"
         style="fill:#231f20;fill-opacity:1;fill-rule:nonzero;stroke:none"
         d="m 343.953,223.418 h 22.524 v -7.516 h -22.524 z m -30.976,-24.406 v 37.55 h 7.515 v -3.746 c 1.387,2.59 4.09,4.211 7.039,4.211 4.407,0 7.981,-3.574 7.981,-7.972 v -30.043 h -7.516 v 26.754 c 0,2.074 -1.684,3.757 -3.758,3.757 -2.062,0 -3.746,-1.683 -3.746,-3.757 v -26.754 z m -30.032,0 v 37.55 h 7.504 v -3.746 c 1.387,2.59 4.102,4.211 7.039,4.211 4.407,0 7.981,-3.574 7.981,-7.972 v -30.043 h -7.504 v 26.754 c 0,2.074 -1.684,3.757 -3.758,3.757 -2.074,0 -3.758,-1.683 -3.758,-3.757 v -26.754 z m -21.593,22.062 h 7.503 v 4.692 c 0,2.074 -1.667,3.757 -3.746,3.757 -2.074,0 -3.757,-1.683 -3.757,-3.757 z m 15.019,-11.265 c 0,-6.227 -5.047,-11.262 -11.262,-11.262 -6.226,0 -11.261,5.035 -11.261,11.262 v 15.957 c 0,6.226 5.035,11.261 11.261,11.261 6.215,0 11.262,-5.035 11.262,-11.261 v -10.797 h -15.019 v -5.16 c 0,-2.075 1.683,-3.758 3.757,-3.758 2.079,0 3.746,1.683 3.746,3.758 z M 224.75,199.012 v 52.57 h 7.504 v -31.441 l 9.383,16.421 h 7.519 l -8.929,-15.023 10.796,-22.527 h -8.453 l -6.558,15.957 -3.758,-5.625 v -10.332 z m -21.594,22.062 h 7.504 v 4.692 c 0,2.074 -1.683,3.757 -3.758,3.757 -2.074,0 -3.746,-1.683 -3.746,-3.757 z m 15.008,-11.265 c 0,-6.227 -5.035,-11.262 -11.262,-11.262 -6.214,0 -11.261,5.035 -11.261,11.262 v 15.957 c 0,6.226 5.047,11.261 11.261,11.261 6.227,0 11.262,-5.035 11.262,-11.261 v -10.797 h -15.008 v -5.16 c 0,-2.075 1.672,-3.758 3.746,-3.758 2.075,0 3.758,1.683 3.758,3.758 z m -37.547,0 v 15.957 c 0,2.074 -1.668,3.757 -3.746,3.757 -2.074,0 -3.758,-1.683 -3.758,-3.757 v -15.957 c 0,-2.075 1.684,-3.758 3.758,-3.758 2.078,0 3.746,1.683 3.746,3.758 m -7.504,-15.02 c 0,-2.066 1.684,-3.746 3.758,-3.746 2.078,0 3.746,1.68 3.746,3.746 v 7.984 c -1.375,-2.605 -4.09,-4.226 -7.039,-4.226 -4.406,0 -7.969,3.574 -7.969,7.973 v 22.535 c 0,4.398 3.563,7.972 7.969,7.972 2.949,0 5.664,-1.621 7.039,-4.211 v 3.746 h 7.52 v -41.773 c 0,-6.215 -5.051,-11.266 -11.266,-11.266 -6.226,0 -11.262,5.051 -11.262,11.266 z m -60.074,4.223 v 37.55 h 7.504 v -3.746 c 1.391,2.59 4.102,4.211 7.051,4.211 4.398,0 7.972,-3.574 7.972,-7.972 v -30.043 h -7.504 v 26.754 c 0,2.074 -1.683,3.757 -3.761,3.757 -2.074,0 -3.758,-1.683 -3.758,-3.757 v -26.754 z m -15.023,52.57 h 7.519 v -7.504 h -7.519 z m 0,-15.02 h 7.519 v -37.55 h -7.519 z" /><path
         id="path45771"
         style="fill:#231f20;fill-opacity:1;fill-rule:nonzero;stroke:none"
         d="m 327.527,120.266 v 37.168 h 7.426 v -3.723 c 1.375,2.578 4.063,4.184 6.981,4.184 4.351,0 7.89,-3.54 7.89,-7.891 v -29.738 h -7.429 v 26.48 c 0,2.055 -1.665,3.719 -3.719,3.719 -2.055,0 -3.723,-1.664 -3.723,-3.719 v -26.48 z m -21.375,21.836 h 7.442 v 4.644 c 0,2.055 -1.668,3.719 -3.723,3.719 -2.055,0 -3.719,-1.664 -3.719,-3.719 z m 14.868,-11.149 c 0,-6.152 -4.997,-11.152 -11.149,-11.152 -6.164,0 -11.148,5 -11.148,11.152 v 15.793 c 0,6.164 4.984,11.149 11.148,11.149 6.152,0 11.149,-4.985 11.149,-11.149 v -10.687 h -14.868 v -5.106 c 0,-2.055 1.664,-3.723 3.719,-3.723 2.055,0 3.723,1.668 3.723,3.723 z m -26.942,-10.687 h -3.719 c -4.621,0 -8.367,3.742 -8.367,8.363 v 22.762 h -3.707 v 6.043 h 3.707 v 11.148 h 7.442 v -11.148 h 4.644 v -6.043 h -4.644 v -21.836 c 0,-1.278 1.035,-2.325 2.32,-2.325 h 2.324 z m -34.383,21.836 h 7.426 v 4.644 c 0,2.055 -1.664,3.719 -3.707,3.719 -2.055,0 -3.719,-1.664 -3.719,-3.719 z m 14.867,-11.149 c 0,-6.152 -4.996,-11.152 -11.148,-11.152 -6.164,0 -11.16,5 -11.16,11.152 v 15.793 c 0,6.164 4.996,11.149 11.16,11.149 6.152,0 11.148,-4.985 11.148,-11.149 v -10.687 h -14.867 v -5.106 c 0,-2.055 1.664,-3.723 3.719,-3.723 2.043,0 3.707,1.668 3.707,3.723 z m -51.113,-10.687 v 37.168 h 7.442 v -3.723 c 1.375,2.578 4.047,4.184 6.968,4.184 4.364,0 7.903,-3.54 7.903,-7.891 v -29.738 h -7.442 v 26.48 c 0,2.055 -1.668,3.719 -3.711,3.719 -2.054,0 -3.718,-1.664 -3.718,-3.719 v -26.48 z m -29.726,0 v 52.035 h 7.429 v -18.59 c 1.371,2.578 4.047,4.184 6.977,4.184 4.355,0 7.891,-3.54 7.891,-7.891 v -29.738 h -7.426 v 26.48 c 0,2.055 -1.668,3.719 -3.723,3.719 -2.055,0 -3.719,-1.664 -3.719,-3.719 v -26.48 z m -4.645,11.148 v -0.461 c 0,-6.152 -4.996,-11.152 -11.148,-11.152 -6.164,0 -11.164,5 -11.164,11.152 v 15.793 c 0,6.164 5,11.149 11.164,11.149 6.152,0 11.148,-4.985 11.148,-11.149 v -0.461 h -7.441 v 0.461 c 0,2.055 -1.664,3.719 -3.707,3.719 -2.055,0 -3.723,-1.664 -3.723,-3.719 v -15.793 c 0,-2.055 1.668,-3.723 3.723,-3.723 2.043,0 3.707,1.668 3.707,3.723 v 0.461 z m -37.168,40.887 h 7.442 v -7.442 h -7.442 z m 0,-14.867 h 7.442 v -37.168 h -7.442 z m -21.375,-15.332 h 7.43 v 4.644 c 0,2.055 -1.668,3.719 -3.711,3.719 -2.055,0 -3.719,-1.664 -3.719,-3.719 z m 14.871,-11.149 c 0,-6.152 -5,-11.152 -11.152,-11.152 -6.164,0 -11.16,5 -11.16,11.152 v 15.793 c 0,6.164 4.996,11.149 11.16,11.149 6.152,0 11.152,-4.985 11.152,-11.149 v -10.687 h -14.871 v -5.106 c 0,-2.055 1.664,-3.723 3.719,-3.723 2.043,0 3.711,1.668 3.711,3.723 z M 98.012,120.266 v 6.043 l 12.074,24.621 H 98.934 v 6.504 h 19.515 v -5.571 L 106.375,127.23 h 12.074 v -6.964 z" /><path
         id="path45773"
         style="fill:#231f20;fill-opacity:1;fill-rule:nonzero;stroke:none"
         d="m 291.598,41.547 v 37.168 h 7.429 v -3.723 c 1.371,2.578 4.059,4.184 6.977,4.184 4.355,0 7.891,-3.539 7.891,-7.903 V 41.547 h -7.426 v 26.48 c 0,2.055 -1.668,3.719 -3.723,3.719 -2.055,0 -3.719,-1.664 -3.719,-3.719 v -26.48 z m -21.375,21.836 h 7.441 v 4.644 c 0,2.055 -1.664,3.719 -3.719,3.719 -2.058,0 -3.722,-1.664 -3.722,-3.719 z m 14.871,-11.149 c 0,-6.164 -5,-11.152 -11.149,-11.152 -6.168,0 -11.152,4.988 -11.152,11.152 v 15.793 c 0,6.153 4.984,11.149 11.152,11.149 6.149,0 11.149,-4.996 11.149,-11.149 V 57.34 h -14.871 v -5.106 c 0,-2.054 1.664,-3.722 3.722,-3.722 2.055,0 3.719,1.668 3.719,3.722 z M 233.992,41.547 v 52.035 h 7.426 v -18.59 c 1.375,2.578 4.051,4.184 6.969,4.184 4.363,0 7.902,-3.539 7.902,-7.903 V 41.547 h -7.441 v 26.48 c 0,2.055 -1.653,3.719 -3.707,3.719 -2.055,0 -3.723,-1.664 -3.723,-3.719 v -26.48 z m -4.656,11.148 v -0.461 c 0,-6.164 -4.988,-11.152 -11.152,-11.152 -6.153,0 -11.149,4.988 -11.149,11.152 v 15.793 c 0,6.153 4.996,11.149 11.149,11.149 6.164,0 11.152,-4.996 11.152,-11.149 v -0.461 h -7.43 v 0.461 c 0,2.055 -1.668,3.719 -3.722,3.719 -2.043,0 -3.707,-1.664 -3.707,-3.719 V 52.234 c 0,-2.054 1.664,-3.722 3.707,-3.722 2.054,0 3.722,1.668 3.722,3.722 v 0.461 z m -38.094,40.887 h 7.442 v -7.437 h -7.442 z m -11.148,0 h 7.426 v -7.437 h -7.426 z m 13.008,-35.781 h -3.719 c -2.055,0 -3.711,-1.664 -3.711,-3.707 v -1.86 c 0,-2.054 1.656,-3.722 3.711,-3.722 2.055,0 3.719,1.668 3.719,3.722 z m 7.429,-16.254 h -7.429 v 3.719 c -1.375,-2.578 -4.047,-4.184 -6.965,-4.184 -4.367,0 -7.903,3.527 -7.903,7.895 v 5.578 c 0,5.133 4.157,9.289 9.286,9.289 h 5.582 v 4.183 c 0,2.055 -1.664,3.719 -3.719,3.719 -2.055,0 -3.711,-1.664 -3.711,-3.719 h -7.438 c 0,6.153 4.996,11.149 11.149,11.149 6.164,0 11.148,-4.996 11.148,-11.149 z m -26.941,0 h -2.785 c -4.621,0 -8.367,3.742 -8.367,8.363 v 43.672 h 7.429 V 50.836 c 0,-1.277 1.047,-2.324 2.336,-2.324 h 1.387 z m -39.031,0 v 52.035 h 22.3 V 86.605 H 142 V 70.812 h 13.012 V 63.844 H 142 V 41.547 Z" /></g></g></svg>