<?xml version="1.0" encoding="UTF-8" standalone="no"?>
<svg
   xmlns:dc="http://purl.org/dc/elements/1.1/"
   xmlns:cc="http://creativecommons.org/ns#"
   xmlns:rdf="http://www.w3.org/1999/02/22-rdf-syntax-ns#"
   xmlns:svg="http://www.w3.org/2000/svg"
   xmlns="http://www.w3.org/2000/svg"
   viewBox="0 0 2267.7166 2267.7688"
   height="2267.7688"
   width="2267.7166"
   xml:space="preserve"
   id="svg4823"
   version="1.1"><metadata
     id="metadata4829"><rdf:RDF><cc:Work
         rdf:about=""><dc:format>image/svg+xml</dc:format><dc:type
           rdf:resource="http://purl.org/dc/dcmitype/StillImage" /><dc:title></dc:title></cc:Work></rdf:RDF></metadata><defs
     id="defs4827"><clipPath
       id="clipPath4843"
       clipPathUnits="userSpaceOnUse"><path
         id="path4841"
         d="M 0,0 H 1701 V 1701 H 0 Z" /></clipPath></defs><g
     transform="matrix(1.3333333,0,0,-1.3333333,0,2267.7689)"
     id="g4831"><g
       id="g4833"><g
         transform="translate(0,-0.17334)"
         id="g4835"><g
           id="g4837"><g
             clip-path="url(#clipPath4843)"
             id="g4839"><g
               id="g4845"><g
                 transform="matrix(1,0,0,0.999997,0,1701)"
                 id="g4847"><path
                   id="path4849"
                   style="fill:#ffffff;fill-opacity:1;fill-rule:nonzero;stroke:#231f20;stroke-width:0.176;stroke-linecap:butt;stroke-linejoin:miter;stroke-miterlimit:4;stroke-dasharray:none;stroke-opacity:1"
                   d="m 113.461,-1700.743 c -62.606,0 -113.371,50.766 -113.371,113.372 v 1473.867 c 0,62.648 50.765,113.414 113.371,113.414 h 1473.867 c 62.649,0 113.371,-50.766 113.371,-113.414 v -1473.867 c 0,-62.606 -50.722,-113.372 -113.371,-113.372 z" /></g><path
                 id="path4851"
                 style="fill:#231f20;fill-opacity:1;fill-rule:nonzero;stroke:none"
                 d="M 113.461,28.609 C 66.508,28.609 28.41,66.66 28.41,113.66 v 1473.863 c 0,46.954 38.098,85.008 85.051,85.008 h 1473.867 c 46.953,0 85.051,-38.054 85.051,-85.008 V 113.66 c 0,-47 -38.098,-85.051 -85.051,-85.051 z" /><path
                 id="path4853"
                 style="fill:#ffffff;fill-opacity:1;fill-rule:nonzero;stroke:none"
                 d="m 113.461,71.125 c -23.5,0 -42.527,19.027 -42.527,42.523 v 1473.868 c 0,23.496 19.027,42.523 42.527,42.523 h 1473.867 c 23.5,0 42.524,-19.027 42.524,-42.523 V 113.648 c 0,-23.496 -19.024,-42.523 -42.524,-42.523 z" /><path
                 id="path4855"
                 style="fill:#231f20;fill-opacity:1;fill-rule:nonzero;stroke:none"
                 d="m 1152.262,178.41 v 238.098 h 34.019 v -87.242 c 10.918,13.5 27.313,21.347 44.629,21.347 31.695,0 57.387,-25.734 57.387,-57.429 V 178.41 h -34.02 v 104.164 c 0,18.766 -15.211,34.02 -33.976,34.02 -18.809,0 -34.02,-15.254 -34.02,-34.02 V 178.41 Z M 999.215,350.613 c 0,-18.804 15.211,-34.019 34.019,-34.019 18.762,0 33.977,15.215 33.977,34.019 0,18.766 -15.215,33.977 -33.977,33.977 -18.808,0 -34.019,-15.211 -34.019,-33.977 m -4.254,-102.058 c 0,-21.129 17.141,-38.274 38.273,-38.274 21.133,0 38.231,17.145 38.231,38.274 0,21.133 -17.098,38.273 -38.231,38.273 -21.132,0 -38.273,-17.14 -38.273,-38.273 m -6.356,53.66 c -14.773,11.707 -23.41,29.504 -23.41,48.398 0,37.528 30.469,67.996 68.039,67.996 37.528,0 67.996,-30.468 67.996,-67.996 0,-18.894 -8.636,-36.691 -23.41,-48.398 17.36,-12.363 27.664,-32.356 27.664,-53.66 0,-39.938 -32.355,-72.293 -72.25,-72.293 -39.937,0 -72.293,32.355 -72.293,72.293 0,21.304 10.301,41.297 27.664,53.66 m -150.988,52.609 v 36.168 l 34.024,25.516 H 905.66 V 178.41 h -34.019 v 201.93 z m -140.289,-65.89 h 102.02 V 254.91 H 697.328 Z M 544.281,254.957 v -10.656 c 0,-18.762 15.215,-34.02 34.024,-34.02 18.761,0 34.019,15.258 34.019,34.02 v 10.656 c 0,18.762 -15.258,33.977 -34.019,33.977 -18.809,0 -34.024,-15.215 -34.024,-33.977 m 38.274,161.551 h 38.273 L 569.973,314.535 c 6.707,2.762 13.855,4.164 21.086,4.164 30.515,0 55.285,-24.726 55.285,-55.281 v -19.117 c 0,-37.571 -30.469,-68.039 -68.039,-68.039 -37.575,0 -68.043,30.468 -68.043,68.039 v 10.656 c 0,10.477 2.457,20.824 7.101,30.203 z M 386.984,354.824 v 36.168 l 34.02,25.516 h 34.019 V 178.41 h -34.019 v 201.93 z" /><path
                 id="path4857"
                 style="fill:#231f20;fill-opacity:1;fill-rule:nonzero;stroke:none"
                 d="m 1498.387,559.93 h 34.019 v -34.02 h -34.019 z m -119.028,-34.02 80.754,204.078 h -63.746 v -34.023 h -34.019 v 68.043 h 136.039 V 732.09 l -80.754,-206.18 z m -161.554,65.891 c 0,-18.762 15.215,-34.02 33.976,-34.02 18.809,0 34.024,15.258 34.024,34.02 V 698.07 c 0,18.809 -15.215,34.02 -34.024,34.02 -18.761,0 -33.976,-15.211 -33.976,-34.02 z m -34.02,0 V 698.07 c 0,37.571 30.469,68.039 67.996,68.039 37.574,0 68.043,-30.468 68.043,-68.039 V 591.801 c 0,-37.571 -30.469,-68.039 -68.043,-68.039 -37.527,0 -67.996,30.468 -67.996,68.039 m -72.293,-31.871 h 34.024 v -34.02 h -34.024 z m -173.781,25.515 h 34.504 c 3.898,-16.222 18.453,-27.664 35.113,-27.664 19.949,0 36.125,16.18 36.125,36.125 v 4.254 c 0,19.988 -16.176,36.168 -36.125,36.168 h -14.859 v 29.766 h 14.859 c 18.766,0 34.02,15.215 34.02,33.976 0,18.809 -15.254,34.02 -34.02,34.02 -16.308,0 -30.336,-11.574 -33.406,-27.617 h -34.328 c 3.289,34.941 32.621,61.636 67.734,61.636 37.57,0 68.043,-30.468 68.043,-68.039 0,-19.332 -9.426,-37.484 -25.254,-48.664 17.098,-11.441 27.356,-30.64 27.356,-51.246 v -4.254 c 0,-38.711 -31.391,-70.144 -70.145,-70.144 -35.465,0 -65.32,26.48 -69.617,61.683 M 763.359,525.91 v 31.871 l 94.692,119.16 c 4.781,6.004 7.367,13.457 7.367,21.129 0,18.809 -15.211,34.02 -34.02,34.02 -18.765,0 -34.019,-15.211 -34.019,-34.02 h -34.02 c 0,37.571 30.469,68.039 68.039,68.039 37.571,0 68.04,-30.468 68.04,-68.039 0,-15.429 -5.262,-30.425 -14.907,-42.437 l -76.5,-95.703 h 91.407 v -34.02 z m -408.113,0 v 170.055 h 33.977 v -19.199 c 10.918,13.5 27.312,21.304 44.675,21.304 18.235,0 35.422,-8.679 46.25,-23.41 12.102,14.817 30.25,23.41 49.411,23.41 35.203,0 63.742,-28.539 63.742,-63.742 V 525.91 h -33.977 v 104.164 c 0,18.766 -15.258,34.02 -34.019,34.02 -18.809,0 -34.02,-15.254 -34.02,-34.02 V 525.91 h -34.019 v 104.164 c 0,18.766 -15.215,34.02 -34.024,34.02 -18.762,0 -34.019,-15.254 -34.019,-34.02 V 525.91 Z m -85.051,74.399 h -48.879 c -11.75,0 -21.265,-9.516 -21.265,-21.266 0,-11.746 9.515,-21.262 21.265,-21.262 h 27.618 c 11.75,0 21.261,9.516 21.261,21.262 z m 34.024,-74.399 h -34.024 v 17.535 C 264.191,532.617 252.793,525.91 240.43,525.91 h -21.262 c -28.191,0 -50.988,22.84 -50.988,51.031 0,28.145 22.797,50.985 50.988,50.985 h 51.027 v 17.012 c 0,9.292 -6.66,17.273 -15.824,18.851 -6.008,1.051 -12.101,1.578 -18.195,1.578 -6.094,0 -12.188,-0.527 -18.192,-1.578 -5.964,-1.055 -11.136,-4.867 -13.812,-10.348 l -26.918,21.262 c 8.113,11.969 20.695,20.125 34.898,22.578 7.934,1.403 15.957,2.106 24.024,2.106 8.066,0 16.09,-0.703 24.027,-2.106 25.469,-4.426 44.016,-26.523 44.016,-52.343 z" /><path
                 id="path4859"
                 style="fill:#231f20;fill-opacity:1;fill-rule:nonzero;stroke:none"
                 d="m 1400.973,1396.184 h 102.015 v -34.02 H 1400.973 Z M 1213.906,1285.66 v 170.059 h 34.02 v -19.203 c 10.871,13.504 27.312,21.351 44.629,21.351 31.695,0 57.386,-25.734 57.386,-57.433 V 1285.66 h -33.976 v 104.164 c 0,18.766 -15.258,34.024 -34.02,34.024 -18.808,0 -34.019,-15.258 -34.019,-34.024 V 1285.66 Z m -153.047,102.063 h 72.246 c 0,19.945 -16.175,36.125 -36.121,36.125 -19.949,0 -36.125,-16.18 -36.125,-36.125 m 106.27,-29.813 h -106.27 v -4.207 c 0,-14.82 8.985,-28.101 22.707,-33.582 5.614,-2.238 11.618,-3.375 17.668,-3.375 13.899,0 27.094,6.047 36.125,16.57 l 25.821,-22.14 c -15.52,-18.063 -38.141,-28.453 -61.946,-28.453 -10.39,0 -20.648,1.972 -30.293,5.832 -26.656,10.652 -44.101,36.429 -44.101,65.148 v 34.02 c 0,38.711 31.433,70.144 70.144,70.144 38.754,0 70.145,-31.433 70.145,-70.144 z m -323.106,-72.25 v 187.067 c 0,21.964 14.028,41.472 34.899,48.402 10.652,3.551 21.875,5.391 33.14,5.391 11.27,0 22.45,-1.84 33.145,-5.391 20.824,-6.93 34.852,-26.438 34.852,-48.402 v -6.399 c 0,-15.215 -9.555,-28.848 -23.891,-33.976 14.336,-5.172 23.891,-18.766 23.891,-34.02 v -65.894 c 0,-25.821 -20.911,-46.778 -46.778,-46.778 h -21.219 v 31.875 h 16.969 c 9.426,0 17.008,7.625 17.008,17.008 v 63.789 c 0,9.379 -7.582,17.008 -17.008,17.008 H 907.77 v 31.875 h 21.261 c 9.426,0 17.008,7.625 17.008,17.008 v 8.504 c 0,7.324 -4.691,13.812 -11.617,16.132 -7.188,2.414 -14.774,3.641 -22.36,3.641 -7.624,0 -15.167,-1.227 -22.402,-3.641 -6.926,-2.32 -11.617,-8.808 -11.617,-16.132 V 1285.66 Z m -85.05,74.399 H 710.09 c -11.746,0 -21.262,-9.512 -21.262,-21.262 0,-11.75 9.516,-21.262 21.262,-21.262 h 27.664 c 11.707,0 21.219,9.512 21.219,21.262 z m 34.019,-74.399 h -34.019 v 17.539 c -5.961,-10.828 -17.36,-17.539 -29.766,-17.539 h -21.219 c -28.191,0 -51.031,22.844 -51.031,51.031 0,28.145 22.84,51.032 51.031,51.032 h 50.985 v 16.965 c 0,9.292 -6.664,17.273 -15.825,18.851 -6.007,1.051 -12.101,1.578 -18.152,1.578 -6.137,0 -12.187,-0.527 -18.191,-1.578 -6.008,-1.051 -11.137,-4.867 -13.856,-10.348 l -26.875,21.266 c 8.067,11.965 20.649,20.121 34.856,22.574 7.933,1.407 16,2.106 24.066,2.106 8.024,0 16.09,-0.699 24.027,-2.106 25.426,-4.426 43.969,-26.523 43.969,-52.343 z m -267.863,0 v 170.059 h 34.019 v -19.203 c 10.918,13.504 27.313,21.351 44.676,21.351 13.149,0 25.906,-4.558 36.121,-12.847 l -24.156,-29.766 c -6.223,5.523 -14.289,8.594 -22.621,8.594 -18.762,0 -34.02,-15.258 -34.02,-34.024 V 1285.66 Z m -46.734,0 h -21.262 c -21.133,0 -38.274,17.145 -38.274,38.274 v 104.164 h -17.007 v 27.621 h 17.007 v 51.027 h 34.02 v -51.027 h 25.516 v -27.621 h -25.516 v -99.91 c 0,-5.876 4.734,-10.653 10.609,-10.653 h 14.907 z m -280.622,30.645 23.368,27.578 c 18.414,-15.61 41.777,-24.203 65.933,-24.203 8.332,0 16.617,1.054 24.727,3.07 14.207,3.551 24.156,16.309 24.156,30.953 0,15.957 -11.836,29.504 -27.707,31.606 l -38.621,5.086 c -33.848,4.515 -59.098,33.32 -59.098,67.472 0,34.414 25.692,63.391 59.84,67.512 5.527,0.66 11.137,1.008 16.703,1.008 28.059,0 55.504,-8.504 78.653,-24.461 l -20.52,-29.77 c -17.098,11.793 -37.395,18.11 -58.133,18.11 -4.121,0 -8.285,-0.266 -12.363,-0.746 -16,-1.93 -28.055,-15.563 -28.055,-31.653 0,-16.004 11.879,-29.504 27.707,-31.609 l 38.621,-5.129 c 33.848,-4.473 59.098,-33.32 59.098,-67.426 0,-31.215 -21.219,-58.441 -51.512,-66.023 -10.961,-2.719 -22.226,-4.121 -33.496,-4.121 -32.703,0 -64.355,11.617 -89.301,32.746" /><path
                 id="path4861"
                 style="fill:#231f20;fill-opacity:1;fill-rule:nonzero;stroke:none"
                 d="m 1498.758,1006.609 v 38.274 c 0,18.762 -15.211,34.019 -34.02,34.019 -18.765,0 -33.976,-15.257 -33.976,-34.019 v -38.274 c 0,-18.761 15.211,-34.019 33.976,-34.019 18.809,0 34.02,15.258 34.02,34.019 m 34.019,104.164 V 938.57 c 0,-25.734 -14.554,-49.32 -37.613,-60.808 -10.742,-5.391 -22.621,-8.196 -34.68,-8.196 -23.324,0 -45.418,10.52 -60.148,28.625 l 26.391,21.438 c 8.242,-10.168 20.695,-16.043 33.757,-16.043 6.754,0 13.461,1.578 19.465,4.602 11.531,5.742 18.809,17.535 18.809,30.382 v 21.348 c -10.871,-13.5 -27.313,-21.348 -44.629,-21.348 -31.699,0 -57.387,25.692 -57.387,57.43 v 59.492 c 0,31.738 25.688,57.387 57.387,57.387 17.316,0 33.758,-7.805 44.629,-21.309 v 19.203 z M 1213.926,940.719 v 170.054 h 33.976 v -19.203 c 10.918,13.504 27.313,21.309 44.676,21.309 31.695,0 57.387,-25.649 57.387,-57.387 V 940.719 h -34.024 v 104.164 c 0,18.762 -15.211,34.019 -34.019,34.019 -18.762,0 -34.02,-15.257 -34.02,-34.019 V 940.719 Z m -51.028,0 h -34.023 v 19.199 c -10.914,-13.5 -27.313,-21.348 -44.629,-21.348 -31.695,0 -57.387,25.692 -57.387,57.43 v 114.773 h 33.977 v -104.164 c 0,-18.761 15.258,-34.019 34.019,-34.019 18.809,0 34.02,15.258 34.02,34.019 v 104.164 h 34.023 z m -221.089,65.89 v 38.274 c 0,18.762 -15.254,34.019 -34.02,34.019 -18.762,0 -34.019,-15.257 -34.019,-34.019 v -38.274 c 0,-18.761 15.257,-34.019 34.019,-34.019 18.766,0 34.02,15.258 34.02,34.019 m 34.019,104.164 V 938.57 c 0,-25.734 -14.555,-49.32 -37.613,-60.808 -10.785,-5.391 -22.621,-8.196 -34.68,-8.196 -23.32,0 -45.461,10.52 -60.191,28.625 l 26.437,21.438 c 8.242,-10.168 20.649,-16.043 33.754,-16.043 6.754,0 13.418,1.578 19.469,4.602 11.527,5.742 18.805,17.535 18.805,30.382 v 21.348 c -10.914,-13.5 -27.313,-21.348 -44.629,-21.348 -31.696,0 -57.43,25.692 -57.43,57.43 v 59.492 c 0,31.738 25.734,57.387 57.43,57.387 17.316,0 33.715,-7.805 44.629,-21.309 v 19.203 z m -216.832,68.039 h 34.02 v -34.019 h -34.02 z m 0,-68.039 h 34.02 V 940.719 h -34.02 z M 571.93,940.719 v 170.054 h 34.019 v -19.203 c 10.871,13.504 27.27,21.309 44.629,21.309 31.695,0 57.387,-25.649 57.387,-57.387 V 940.719 h -34.02 v 104.164 c 0,18.762 -15.211,34.019 -34.019,34.019 -18.766,0 -33.977,-15.257 -33.977,-34.019 V 940.719 Z m -85.051,238.093 h 34.019 v -34.019 h -34.019 z m 0,-68.039 h 34.019 V 940.719 h -34.019 z m -153.047,-68.039 h 72.293 c 0,19.993 -16.18,36.168 -36.168,36.168 -19.949,0 -36.125,-16.175 -36.125,-36.168 m 106.27,-29.722 h -106.27 v -4.254 c 0,-14.774 8.988,-28.102 22.707,-33.582 5.613,-2.235 11.621,-3.418 17.668,-3.418 13.898,0 27.094,6.094 36.125,16.613 l 25.777,-22.137 c -15.472,-18.062 -38.093,-28.453 -61.902,-28.453 -10.391,0 -20.648,1.973 -30.293,5.828 -26.652,10.657 -44.102,36.434 -44.102,65.149 v 33.976 c 0,38.754 31.387,70.145 70.145,70.145 38.754,0 70.145,-31.391 70.145,-70.145 z M 168.027,940.719 v 170.054 h 34.02 v -19.203 c 10.871,13.504 27.269,21.309 44.629,21.309 13.152,0 25.91,-4.516 36.125,-12.801 l -24.156,-29.812 c -6.223,5.566 -14.293,8.636 -22.622,8.636 -18.761,0 -33.976,-15.257 -33.976,-34.019 V 940.719 Z" /></g></g></g></g></g></g></svg>